G75*
%MOIN*%
%OFA0B0*%
%FSLAX24Y24*%
%IPPOS*%
%LPD*%
%AMOC8*
5,1,8,0,0,1.08239X$1,22.5*
%
%ADD10C,0.0039*%
%ADD11C,0.0000*%
D10*
X000255Y000159D02*
X008168Y000159D01*
X008168Y002521D01*
X009703Y002521D01*
X009703Y000159D01*
X017617Y000159D01*
X017617Y002521D01*
X019152Y002521D01*
X019152Y000159D01*
X027066Y000159D01*
X027066Y002521D01*
X028601Y002521D01*
X028601Y000159D01*
X036514Y000159D01*
X036514Y002521D01*
X037262Y002521D01*
X037262Y000159D01*
X039625Y000159D01*
X039625Y028505D01*
X037262Y028505D01*
X037262Y026536D01*
X036514Y026536D01*
X036514Y028308D01*
X028601Y028308D01*
X028601Y026536D01*
X027066Y026536D01*
X027066Y028308D01*
X019152Y028308D01*
X019152Y026536D01*
X017617Y026536D01*
X017617Y028308D01*
X009703Y028308D01*
X009703Y026536D01*
X008168Y026536D01*
X008168Y028308D01*
X000255Y028308D01*
X000255Y022599D01*
X008168Y022599D01*
X008168Y024962D01*
X009703Y024962D01*
X009703Y022599D01*
X017617Y022599D01*
X017617Y024962D01*
X019152Y024962D01*
X019152Y022599D01*
X027066Y022599D01*
X027066Y024962D01*
X028601Y024962D01*
X028601Y022599D01*
X036514Y022599D01*
X036514Y024962D01*
X037262Y024962D01*
X037262Y019056D01*
X036514Y019056D01*
X036514Y020828D01*
X028601Y020828D01*
X028601Y019056D01*
X027066Y019056D01*
X027066Y020828D01*
X019152Y020828D01*
X019152Y019056D01*
X017617Y019056D01*
X017617Y020828D01*
X009703Y020828D01*
X009703Y019056D01*
X008168Y019056D01*
X008168Y020828D01*
X000255Y020828D01*
X000255Y015119D01*
X008168Y015119D01*
X008168Y017481D01*
X009703Y017481D01*
X009703Y015119D01*
X017617Y015119D01*
X017617Y017481D01*
X019152Y017481D01*
X019152Y015119D01*
X027066Y015119D01*
X027066Y017481D01*
X028601Y017481D01*
X028601Y015119D01*
X036514Y015119D01*
X036514Y017481D01*
X037262Y017481D01*
X037262Y011576D01*
X036514Y011576D01*
X036514Y013348D01*
X028601Y013348D01*
X028601Y011576D01*
X027066Y011576D01*
X027066Y013348D01*
X019152Y013348D01*
X019152Y011576D01*
X017617Y011576D01*
X017617Y013348D01*
X009703Y013348D01*
X009703Y011576D01*
X008168Y011576D01*
X008168Y013348D01*
X000255Y013348D01*
X000255Y007639D01*
X008168Y007639D01*
X008168Y010001D01*
X009703Y010001D01*
X009703Y007639D01*
X017617Y007639D01*
X017617Y010001D01*
X019152Y010001D01*
X019152Y007639D01*
X027066Y007639D01*
X027066Y010001D01*
X028601Y010001D01*
X028601Y007639D01*
X036514Y007639D01*
X036514Y010001D01*
X037262Y010001D01*
X037262Y004096D01*
X036514Y004096D01*
X036514Y005867D01*
X028601Y005867D01*
X028601Y004096D01*
X027066Y004096D01*
X027066Y005867D01*
X019152Y005867D01*
X019152Y004096D01*
X017617Y004096D01*
X017617Y005867D01*
X009703Y005867D01*
X009703Y004096D01*
X008168Y004096D01*
X008168Y005867D01*
X000255Y005867D01*
X000255Y000159D01*
D11*
X008011Y003308D02*
X008013Y003329D01*
X008019Y003349D01*
X008028Y003369D01*
X008040Y003386D01*
X008055Y003400D01*
X008073Y003412D01*
X008093Y003420D01*
X008113Y003425D01*
X008134Y003426D01*
X008155Y003423D01*
X008175Y003417D01*
X008194Y003406D01*
X008211Y003393D01*
X008224Y003377D01*
X008235Y003359D01*
X008243Y003339D01*
X008247Y003319D01*
X008247Y003297D01*
X008243Y003277D01*
X008235Y003257D01*
X008224Y003239D01*
X008211Y003223D01*
X008194Y003210D01*
X008175Y003199D01*
X008155Y003193D01*
X008134Y003190D01*
X008113Y003191D01*
X008093Y003196D01*
X008073Y003204D01*
X008055Y003216D01*
X008040Y003230D01*
X008028Y003247D01*
X008019Y003267D01*
X008013Y003287D01*
X008011Y003308D01*
X009585Y003308D02*
X009587Y003329D01*
X009593Y003349D01*
X009602Y003369D01*
X009614Y003386D01*
X009629Y003400D01*
X009647Y003412D01*
X009667Y003420D01*
X009687Y003425D01*
X009708Y003426D01*
X009729Y003423D01*
X009749Y003417D01*
X009768Y003406D01*
X009785Y003393D01*
X009798Y003377D01*
X009809Y003359D01*
X009817Y003339D01*
X009821Y003319D01*
X009821Y003297D01*
X009817Y003277D01*
X009809Y003257D01*
X009798Y003239D01*
X009785Y003223D01*
X009768Y003210D01*
X009749Y003199D01*
X009729Y003193D01*
X009708Y003190D01*
X009687Y003191D01*
X009667Y003196D01*
X009647Y003204D01*
X009629Y003216D01*
X009614Y003230D01*
X009602Y003247D01*
X009593Y003267D01*
X009587Y003287D01*
X009585Y003308D01*
X017459Y003308D02*
X017461Y003329D01*
X017467Y003349D01*
X017476Y003369D01*
X017488Y003386D01*
X017503Y003400D01*
X017521Y003412D01*
X017541Y003420D01*
X017561Y003425D01*
X017582Y003426D01*
X017603Y003423D01*
X017623Y003417D01*
X017642Y003406D01*
X017659Y003393D01*
X017672Y003377D01*
X017683Y003359D01*
X017691Y003339D01*
X017695Y003319D01*
X017695Y003297D01*
X017691Y003277D01*
X017683Y003257D01*
X017672Y003239D01*
X017659Y003223D01*
X017642Y003210D01*
X017623Y003199D01*
X017603Y003193D01*
X017582Y003190D01*
X017561Y003191D01*
X017541Y003196D01*
X017521Y003204D01*
X017503Y003216D01*
X017488Y003230D01*
X017476Y003247D01*
X017467Y003267D01*
X017461Y003287D01*
X017459Y003308D01*
X019034Y003308D02*
X019036Y003329D01*
X019042Y003349D01*
X019051Y003369D01*
X019063Y003386D01*
X019078Y003400D01*
X019096Y003412D01*
X019116Y003420D01*
X019136Y003425D01*
X019157Y003426D01*
X019178Y003423D01*
X019198Y003417D01*
X019217Y003406D01*
X019234Y003393D01*
X019247Y003377D01*
X019258Y003359D01*
X019266Y003339D01*
X019270Y003319D01*
X019270Y003297D01*
X019266Y003277D01*
X019258Y003257D01*
X019247Y003239D01*
X019234Y003223D01*
X019217Y003210D01*
X019198Y003199D01*
X019178Y003193D01*
X019157Y003190D01*
X019136Y003191D01*
X019116Y003196D01*
X019096Y003204D01*
X019078Y003216D01*
X019063Y003230D01*
X019051Y003247D01*
X019042Y003267D01*
X019036Y003287D01*
X019034Y003308D01*
X026908Y003308D02*
X026910Y003329D01*
X026916Y003349D01*
X026925Y003369D01*
X026937Y003386D01*
X026952Y003400D01*
X026970Y003412D01*
X026990Y003420D01*
X027010Y003425D01*
X027031Y003426D01*
X027052Y003423D01*
X027072Y003417D01*
X027091Y003406D01*
X027108Y003393D01*
X027121Y003377D01*
X027132Y003359D01*
X027140Y003339D01*
X027144Y003319D01*
X027144Y003297D01*
X027140Y003277D01*
X027132Y003257D01*
X027121Y003239D01*
X027108Y003223D01*
X027091Y003210D01*
X027072Y003199D01*
X027052Y003193D01*
X027031Y003190D01*
X027010Y003191D01*
X026990Y003196D01*
X026970Y003204D01*
X026952Y003216D01*
X026937Y003230D01*
X026925Y003247D01*
X026916Y003267D01*
X026910Y003287D01*
X026908Y003308D01*
X028483Y003308D02*
X028485Y003329D01*
X028491Y003349D01*
X028500Y003369D01*
X028512Y003386D01*
X028527Y003400D01*
X028545Y003412D01*
X028565Y003420D01*
X028585Y003425D01*
X028606Y003426D01*
X028627Y003423D01*
X028647Y003417D01*
X028666Y003406D01*
X028683Y003393D01*
X028696Y003377D01*
X028707Y003359D01*
X028715Y003339D01*
X028719Y003319D01*
X028719Y003297D01*
X028715Y003277D01*
X028707Y003257D01*
X028696Y003239D01*
X028683Y003223D01*
X028666Y003210D01*
X028647Y003199D01*
X028627Y003193D01*
X028606Y003190D01*
X028585Y003191D01*
X028565Y003196D01*
X028545Y003204D01*
X028527Y003216D01*
X028512Y003230D01*
X028500Y003247D01*
X028491Y003267D01*
X028485Y003287D01*
X028483Y003308D01*
X036357Y003308D02*
X036359Y003329D01*
X036365Y003349D01*
X036374Y003369D01*
X036386Y003386D01*
X036401Y003400D01*
X036419Y003412D01*
X036439Y003420D01*
X036459Y003425D01*
X036480Y003426D01*
X036501Y003423D01*
X036521Y003417D01*
X036540Y003406D01*
X036557Y003393D01*
X036570Y003377D01*
X036581Y003359D01*
X036589Y003339D01*
X036593Y003319D01*
X036593Y003297D01*
X036589Y003277D01*
X036581Y003257D01*
X036570Y003239D01*
X036557Y003223D01*
X036540Y003210D01*
X036521Y003199D01*
X036501Y003193D01*
X036480Y003190D01*
X036459Y003191D01*
X036439Y003196D01*
X036419Y003204D01*
X036401Y003216D01*
X036386Y003230D01*
X036374Y003247D01*
X036365Y003267D01*
X036359Y003287D01*
X036357Y003308D01*
X036357Y010788D02*
X036359Y010809D01*
X036365Y010829D01*
X036374Y010849D01*
X036386Y010866D01*
X036401Y010880D01*
X036419Y010892D01*
X036439Y010900D01*
X036459Y010905D01*
X036480Y010906D01*
X036501Y010903D01*
X036521Y010897D01*
X036540Y010886D01*
X036557Y010873D01*
X036570Y010857D01*
X036581Y010839D01*
X036589Y010819D01*
X036593Y010799D01*
X036593Y010777D01*
X036589Y010757D01*
X036581Y010737D01*
X036570Y010719D01*
X036557Y010703D01*
X036540Y010690D01*
X036521Y010679D01*
X036501Y010673D01*
X036480Y010670D01*
X036459Y010671D01*
X036439Y010676D01*
X036419Y010684D01*
X036401Y010696D01*
X036386Y010710D01*
X036374Y010727D01*
X036365Y010747D01*
X036359Y010767D01*
X036357Y010788D01*
X028483Y010788D02*
X028485Y010809D01*
X028491Y010829D01*
X028500Y010849D01*
X028512Y010866D01*
X028527Y010880D01*
X028545Y010892D01*
X028565Y010900D01*
X028585Y010905D01*
X028606Y010906D01*
X028627Y010903D01*
X028647Y010897D01*
X028666Y010886D01*
X028683Y010873D01*
X028696Y010857D01*
X028707Y010839D01*
X028715Y010819D01*
X028719Y010799D01*
X028719Y010777D01*
X028715Y010757D01*
X028707Y010737D01*
X028696Y010719D01*
X028683Y010703D01*
X028666Y010690D01*
X028647Y010679D01*
X028627Y010673D01*
X028606Y010670D01*
X028585Y010671D01*
X028565Y010676D01*
X028545Y010684D01*
X028527Y010696D01*
X028512Y010710D01*
X028500Y010727D01*
X028491Y010747D01*
X028485Y010767D01*
X028483Y010788D01*
X026908Y010788D02*
X026910Y010809D01*
X026916Y010829D01*
X026925Y010849D01*
X026937Y010866D01*
X026952Y010880D01*
X026970Y010892D01*
X026990Y010900D01*
X027010Y010905D01*
X027031Y010906D01*
X027052Y010903D01*
X027072Y010897D01*
X027091Y010886D01*
X027108Y010873D01*
X027121Y010857D01*
X027132Y010839D01*
X027140Y010819D01*
X027144Y010799D01*
X027144Y010777D01*
X027140Y010757D01*
X027132Y010737D01*
X027121Y010719D01*
X027108Y010703D01*
X027091Y010690D01*
X027072Y010679D01*
X027052Y010673D01*
X027031Y010670D01*
X027010Y010671D01*
X026990Y010676D01*
X026970Y010684D01*
X026952Y010696D01*
X026937Y010710D01*
X026925Y010727D01*
X026916Y010747D01*
X026910Y010767D01*
X026908Y010788D01*
X019034Y010788D02*
X019036Y010809D01*
X019042Y010829D01*
X019051Y010849D01*
X019063Y010866D01*
X019078Y010880D01*
X019096Y010892D01*
X019116Y010900D01*
X019136Y010905D01*
X019157Y010906D01*
X019178Y010903D01*
X019198Y010897D01*
X019217Y010886D01*
X019234Y010873D01*
X019247Y010857D01*
X019258Y010839D01*
X019266Y010819D01*
X019270Y010799D01*
X019270Y010777D01*
X019266Y010757D01*
X019258Y010737D01*
X019247Y010719D01*
X019234Y010703D01*
X019217Y010690D01*
X019198Y010679D01*
X019178Y010673D01*
X019157Y010670D01*
X019136Y010671D01*
X019116Y010676D01*
X019096Y010684D01*
X019078Y010696D01*
X019063Y010710D01*
X019051Y010727D01*
X019042Y010747D01*
X019036Y010767D01*
X019034Y010788D01*
X017459Y010788D02*
X017461Y010809D01*
X017467Y010829D01*
X017476Y010849D01*
X017488Y010866D01*
X017503Y010880D01*
X017521Y010892D01*
X017541Y010900D01*
X017561Y010905D01*
X017582Y010906D01*
X017603Y010903D01*
X017623Y010897D01*
X017642Y010886D01*
X017659Y010873D01*
X017672Y010857D01*
X017683Y010839D01*
X017691Y010819D01*
X017695Y010799D01*
X017695Y010777D01*
X017691Y010757D01*
X017683Y010737D01*
X017672Y010719D01*
X017659Y010703D01*
X017642Y010690D01*
X017623Y010679D01*
X017603Y010673D01*
X017582Y010670D01*
X017561Y010671D01*
X017541Y010676D01*
X017521Y010684D01*
X017503Y010696D01*
X017488Y010710D01*
X017476Y010727D01*
X017467Y010747D01*
X017461Y010767D01*
X017459Y010788D01*
X009585Y010788D02*
X009587Y010809D01*
X009593Y010829D01*
X009602Y010849D01*
X009614Y010866D01*
X009629Y010880D01*
X009647Y010892D01*
X009667Y010900D01*
X009687Y010905D01*
X009708Y010906D01*
X009729Y010903D01*
X009749Y010897D01*
X009768Y010886D01*
X009785Y010873D01*
X009798Y010857D01*
X009809Y010839D01*
X009817Y010819D01*
X009821Y010799D01*
X009821Y010777D01*
X009817Y010757D01*
X009809Y010737D01*
X009798Y010719D01*
X009785Y010703D01*
X009768Y010690D01*
X009749Y010679D01*
X009729Y010673D01*
X009708Y010670D01*
X009687Y010671D01*
X009667Y010676D01*
X009647Y010684D01*
X009629Y010696D01*
X009614Y010710D01*
X009602Y010727D01*
X009593Y010747D01*
X009587Y010767D01*
X009585Y010788D01*
X008011Y010788D02*
X008013Y010809D01*
X008019Y010829D01*
X008028Y010849D01*
X008040Y010866D01*
X008055Y010880D01*
X008073Y010892D01*
X008093Y010900D01*
X008113Y010905D01*
X008134Y010906D01*
X008155Y010903D01*
X008175Y010897D01*
X008194Y010886D01*
X008211Y010873D01*
X008224Y010857D01*
X008235Y010839D01*
X008243Y010819D01*
X008247Y010799D01*
X008247Y010777D01*
X008243Y010757D01*
X008235Y010737D01*
X008224Y010719D01*
X008211Y010703D01*
X008194Y010690D01*
X008175Y010679D01*
X008155Y010673D01*
X008134Y010670D01*
X008113Y010671D01*
X008093Y010676D01*
X008073Y010684D01*
X008055Y010696D01*
X008040Y010710D01*
X008028Y010727D01*
X008019Y010747D01*
X008013Y010767D01*
X008011Y010788D01*
X008011Y018269D02*
X008013Y018290D01*
X008019Y018310D01*
X008028Y018330D01*
X008040Y018347D01*
X008055Y018361D01*
X008073Y018373D01*
X008093Y018381D01*
X008113Y018386D01*
X008134Y018387D01*
X008155Y018384D01*
X008175Y018378D01*
X008194Y018367D01*
X008211Y018354D01*
X008224Y018338D01*
X008235Y018320D01*
X008243Y018300D01*
X008247Y018280D01*
X008247Y018258D01*
X008243Y018238D01*
X008235Y018218D01*
X008224Y018200D01*
X008211Y018184D01*
X008194Y018171D01*
X008175Y018160D01*
X008155Y018154D01*
X008134Y018151D01*
X008113Y018152D01*
X008093Y018157D01*
X008073Y018165D01*
X008055Y018177D01*
X008040Y018191D01*
X008028Y018208D01*
X008019Y018228D01*
X008013Y018248D01*
X008011Y018269D01*
X009585Y018269D02*
X009587Y018290D01*
X009593Y018310D01*
X009602Y018330D01*
X009614Y018347D01*
X009629Y018361D01*
X009647Y018373D01*
X009667Y018381D01*
X009687Y018386D01*
X009708Y018387D01*
X009729Y018384D01*
X009749Y018378D01*
X009768Y018367D01*
X009785Y018354D01*
X009798Y018338D01*
X009809Y018320D01*
X009817Y018300D01*
X009821Y018280D01*
X009821Y018258D01*
X009817Y018238D01*
X009809Y018218D01*
X009798Y018200D01*
X009785Y018184D01*
X009768Y018171D01*
X009749Y018160D01*
X009729Y018154D01*
X009708Y018151D01*
X009687Y018152D01*
X009667Y018157D01*
X009647Y018165D01*
X009629Y018177D01*
X009614Y018191D01*
X009602Y018208D01*
X009593Y018228D01*
X009587Y018248D01*
X009585Y018269D01*
X017459Y018269D02*
X017461Y018290D01*
X017467Y018310D01*
X017476Y018330D01*
X017488Y018347D01*
X017503Y018361D01*
X017521Y018373D01*
X017541Y018381D01*
X017561Y018386D01*
X017582Y018387D01*
X017603Y018384D01*
X017623Y018378D01*
X017642Y018367D01*
X017659Y018354D01*
X017672Y018338D01*
X017683Y018320D01*
X017691Y018300D01*
X017695Y018280D01*
X017695Y018258D01*
X017691Y018238D01*
X017683Y018218D01*
X017672Y018200D01*
X017659Y018184D01*
X017642Y018171D01*
X017623Y018160D01*
X017603Y018154D01*
X017582Y018151D01*
X017561Y018152D01*
X017541Y018157D01*
X017521Y018165D01*
X017503Y018177D01*
X017488Y018191D01*
X017476Y018208D01*
X017467Y018228D01*
X017461Y018248D01*
X017459Y018269D01*
X019034Y018269D02*
X019036Y018290D01*
X019042Y018310D01*
X019051Y018330D01*
X019063Y018347D01*
X019078Y018361D01*
X019096Y018373D01*
X019116Y018381D01*
X019136Y018386D01*
X019157Y018387D01*
X019178Y018384D01*
X019198Y018378D01*
X019217Y018367D01*
X019234Y018354D01*
X019247Y018338D01*
X019258Y018320D01*
X019266Y018300D01*
X019270Y018280D01*
X019270Y018258D01*
X019266Y018238D01*
X019258Y018218D01*
X019247Y018200D01*
X019234Y018184D01*
X019217Y018171D01*
X019198Y018160D01*
X019178Y018154D01*
X019157Y018151D01*
X019136Y018152D01*
X019116Y018157D01*
X019096Y018165D01*
X019078Y018177D01*
X019063Y018191D01*
X019051Y018208D01*
X019042Y018228D01*
X019036Y018248D01*
X019034Y018269D01*
X026908Y018269D02*
X026910Y018290D01*
X026916Y018310D01*
X026925Y018330D01*
X026937Y018347D01*
X026952Y018361D01*
X026970Y018373D01*
X026990Y018381D01*
X027010Y018386D01*
X027031Y018387D01*
X027052Y018384D01*
X027072Y018378D01*
X027091Y018367D01*
X027108Y018354D01*
X027121Y018338D01*
X027132Y018320D01*
X027140Y018300D01*
X027144Y018280D01*
X027144Y018258D01*
X027140Y018238D01*
X027132Y018218D01*
X027121Y018200D01*
X027108Y018184D01*
X027091Y018171D01*
X027072Y018160D01*
X027052Y018154D01*
X027031Y018151D01*
X027010Y018152D01*
X026990Y018157D01*
X026970Y018165D01*
X026952Y018177D01*
X026937Y018191D01*
X026925Y018208D01*
X026916Y018228D01*
X026910Y018248D01*
X026908Y018269D01*
X028483Y018269D02*
X028485Y018290D01*
X028491Y018310D01*
X028500Y018330D01*
X028512Y018347D01*
X028527Y018361D01*
X028545Y018373D01*
X028565Y018381D01*
X028585Y018386D01*
X028606Y018387D01*
X028627Y018384D01*
X028647Y018378D01*
X028666Y018367D01*
X028683Y018354D01*
X028696Y018338D01*
X028707Y018320D01*
X028715Y018300D01*
X028719Y018280D01*
X028719Y018258D01*
X028715Y018238D01*
X028707Y018218D01*
X028696Y018200D01*
X028683Y018184D01*
X028666Y018171D01*
X028647Y018160D01*
X028627Y018154D01*
X028606Y018151D01*
X028585Y018152D01*
X028565Y018157D01*
X028545Y018165D01*
X028527Y018177D01*
X028512Y018191D01*
X028500Y018208D01*
X028491Y018228D01*
X028485Y018248D01*
X028483Y018269D01*
X036357Y018269D02*
X036359Y018290D01*
X036365Y018310D01*
X036374Y018330D01*
X036386Y018347D01*
X036401Y018361D01*
X036419Y018373D01*
X036439Y018381D01*
X036459Y018386D01*
X036480Y018387D01*
X036501Y018384D01*
X036521Y018378D01*
X036540Y018367D01*
X036557Y018354D01*
X036570Y018338D01*
X036581Y018320D01*
X036589Y018300D01*
X036593Y018280D01*
X036593Y018258D01*
X036589Y018238D01*
X036581Y018218D01*
X036570Y018200D01*
X036557Y018184D01*
X036540Y018171D01*
X036521Y018160D01*
X036501Y018154D01*
X036480Y018151D01*
X036459Y018152D01*
X036439Y018157D01*
X036419Y018165D01*
X036401Y018177D01*
X036386Y018191D01*
X036374Y018208D01*
X036365Y018228D01*
X036359Y018248D01*
X036357Y018269D01*
X036357Y025749D02*
X036359Y025770D01*
X036365Y025790D01*
X036374Y025810D01*
X036386Y025827D01*
X036401Y025841D01*
X036419Y025853D01*
X036439Y025861D01*
X036459Y025866D01*
X036480Y025867D01*
X036501Y025864D01*
X036521Y025858D01*
X036540Y025847D01*
X036557Y025834D01*
X036570Y025818D01*
X036581Y025800D01*
X036589Y025780D01*
X036593Y025760D01*
X036593Y025738D01*
X036589Y025718D01*
X036581Y025698D01*
X036570Y025680D01*
X036557Y025664D01*
X036540Y025651D01*
X036521Y025640D01*
X036501Y025634D01*
X036480Y025631D01*
X036459Y025632D01*
X036439Y025637D01*
X036419Y025645D01*
X036401Y025657D01*
X036386Y025671D01*
X036374Y025688D01*
X036365Y025708D01*
X036359Y025728D01*
X036357Y025749D01*
X028483Y025749D02*
X028485Y025770D01*
X028491Y025790D01*
X028500Y025810D01*
X028512Y025827D01*
X028527Y025841D01*
X028545Y025853D01*
X028565Y025861D01*
X028585Y025866D01*
X028606Y025867D01*
X028627Y025864D01*
X028647Y025858D01*
X028666Y025847D01*
X028683Y025834D01*
X028696Y025818D01*
X028707Y025800D01*
X028715Y025780D01*
X028719Y025760D01*
X028719Y025738D01*
X028715Y025718D01*
X028707Y025698D01*
X028696Y025680D01*
X028683Y025664D01*
X028666Y025651D01*
X028647Y025640D01*
X028627Y025634D01*
X028606Y025631D01*
X028585Y025632D01*
X028565Y025637D01*
X028545Y025645D01*
X028527Y025657D01*
X028512Y025671D01*
X028500Y025688D01*
X028491Y025708D01*
X028485Y025728D01*
X028483Y025749D01*
X026908Y025749D02*
X026910Y025770D01*
X026916Y025790D01*
X026925Y025810D01*
X026937Y025827D01*
X026952Y025841D01*
X026970Y025853D01*
X026990Y025861D01*
X027010Y025866D01*
X027031Y025867D01*
X027052Y025864D01*
X027072Y025858D01*
X027091Y025847D01*
X027108Y025834D01*
X027121Y025818D01*
X027132Y025800D01*
X027140Y025780D01*
X027144Y025760D01*
X027144Y025738D01*
X027140Y025718D01*
X027132Y025698D01*
X027121Y025680D01*
X027108Y025664D01*
X027091Y025651D01*
X027072Y025640D01*
X027052Y025634D01*
X027031Y025631D01*
X027010Y025632D01*
X026990Y025637D01*
X026970Y025645D01*
X026952Y025657D01*
X026937Y025671D01*
X026925Y025688D01*
X026916Y025708D01*
X026910Y025728D01*
X026908Y025749D01*
X019034Y025749D02*
X019036Y025770D01*
X019042Y025790D01*
X019051Y025810D01*
X019063Y025827D01*
X019078Y025841D01*
X019096Y025853D01*
X019116Y025861D01*
X019136Y025866D01*
X019157Y025867D01*
X019178Y025864D01*
X019198Y025858D01*
X019217Y025847D01*
X019234Y025834D01*
X019247Y025818D01*
X019258Y025800D01*
X019266Y025780D01*
X019270Y025760D01*
X019270Y025738D01*
X019266Y025718D01*
X019258Y025698D01*
X019247Y025680D01*
X019234Y025664D01*
X019217Y025651D01*
X019198Y025640D01*
X019178Y025634D01*
X019157Y025631D01*
X019136Y025632D01*
X019116Y025637D01*
X019096Y025645D01*
X019078Y025657D01*
X019063Y025671D01*
X019051Y025688D01*
X019042Y025708D01*
X019036Y025728D01*
X019034Y025749D01*
X017459Y025749D02*
X017461Y025770D01*
X017467Y025790D01*
X017476Y025810D01*
X017488Y025827D01*
X017503Y025841D01*
X017521Y025853D01*
X017541Y025861D01*
X017561Y025866D01*
X017582Y025867D01*
X017603Y025864D01*
X017623Y025858D01*
X017642Y025847D01*
X017659Y025834D01*
X017672Y025818D01*
X017683Y025800D01*
X017691Y025780D01*
X017695Y025760D01*
X017695Y025738D01*
X017691Y025718D01*
X017683Y025698D01*
X017672Y025680D01*
X017659Y025664D01*
X017642Y025651D01*
X017623Y025640D01*
X017603Y025634D01*
X017582Y025631D01*
X017561Y025632D01*
X017541Y025637D01*
X017521Y025645D01*
X017503Y025657D01*
X017488Y025671D01*
X017476Y025688D01*
X017467Y025708D01*
X017461Y025728D01*
X017459Y025749D01*
X009585Y025749D02*
X009587Y025770D01*
X009593Y025790D01*
X009602Y025810D01*
X009614Y025827D01*
X009629Y025841D01*
X009647Y025853D01*
X009667Y025861D01*
X009687Y025866D01*
X009708Y025867D01*
X009729Y025864D01*
X009749Y025858D01*
X009768Y025847D01*
X009785Y025834D01*
X009798Y025818D01*
X009809Y025800D01*
X009817Y025780D01*
X009821Y025760D01*
X009821Y025738D01*
X009817Y025718D01*
X009809Y025698D01*
X009798Y025680D01*
X009785Y025664D01*
X009768Y025651D01*
X009749Y025640D01*
X009729Y025634D01*
X009708Y025631D01*
X009687Y025632D01*
X009667Y025637D01*
X009647Y025645D01*
X009629Y025657D01*
X009614Y025671D01*
X009602Y025688D01*
X009593Y025708D01*
X009587Y025728D01*
X009585Y025749D01*
X008011Y025749D02*
X008013Y025770D01*
X008019Y025790D01*
X008028Y025810D01*
X008040Y025827D01*
X008055Y025841D01*
X008073Y025853D01*
X008093Y025861D01*
X008113Y025866D01*
X008134Y025867D01*
X008155Y025864D01*
X008175Y025858D01*
X008194Y025847D01*
X008211Y025834D01*
X008224Y025818D01*
X008235Y025800D01*
X008243Y025780D01*
X008247Y025760D01*
X008247Y025738D01*
X008243Y025718D01*
X008235Y025698D01*
X008224Y025680D01*
X008211Y025664D01*
X008194Y025651D01*
X008175Y025640D01*
X008155Y025634D01*
X008134Y025631D01*
X008113Y025632D01*
X008093Y025637D01*
X008073Y025645D01*
X008055Y025657D01*
X008040Y025671D01*
X008028Y025688D01*
X008019Y025708D01*
X008013Y025728D01*
X008011Y025749D01*
M02*
