%
M48
M72
T01C0.0236
T02C0.0354
T03C0.0470
%
T01
X8129Y3308
X9703Y3308
X17577Y3308
X19152Y3308
X27026Y3308
X28601Y3308
X36475Y3308
X36475Y10788
X28601Y10788
X27026Y10788
X19152Y10788
X17577Y10788
X9703Y10788
X8129Y10788
X8129Y18269
X9703Y18269
X17577Y18269
X19152Y18269
X27026Y18269
X28601Y18269
X36475Y18269
X36475Y25749
X28601Y25749
X27026Y25749
X19152Y25749
X17577Y25749
X9703Y25749
X8129Y25749
T02
X715Y505
X1715Y505
X2715Y505
X3715Y505
X4715Y505
X5715Y505
X6715Y505
X7715Y505
X10164Y505
X11164Y505
X12164Y505
X13164Y505
X14164Y505
X15164Y505
X16164Y505
X17164Y505
X19613Y505
X20613Y505
X21613Y505
X22613Y505
X23613Y505
X24613Y505
X25613Y505
X26613Y505
X29062Y505
X30062Y505
X31062Y505
X32062Y505
X33062Y505
X34062Y505
X35062Y505
X36062Y505
X36062Y5505
X35062Y5505
X34062Y5505
X33062Y5505
X32062Y5505
X31062Y5505
X30062Y5505
X29062Y5505
X26613Y5505
X25613Y5505
X24613Y5505
X23613Y5505
X22613Y5505
X21613Y5505
X20613Y5505
X19613Y5505
X17164Y5505
X16164Y5505
X15164Y5505
X14164Y5505
X13164Y5505
X12164Y5505
X11164Y5505
X10164Y5505
X7715Y5505
X6715Y5505
X5715Y5505
X4715Y5505
X3715Y5505
X2715Y5505
X1715Y5505
X715Y5505
X715Y7985
X1715Y7985
X2715Y7985
X3715Y7985
X4715Y7985
X5715Y7985
X6715Y7985
X7715Y7985
X10164Y7985
X11164Y7985
X12164Y7985
X13164Y7985
X14164Y7985
X15164Y7985
X16164Y7985
X17164Y7985
X19613Y7985
X20613Y7985
X21613Y7985
X22613Y7985
X23613Y7985
X24613Y7985
X25613Y7985
X26613Y7985
X29062Y7985
X30062Y7985
X31062Y7985
X32062Y7985
X33062Y7985
X34062Y7985
X35062Y7985
X36062Y7985
X36062Y12985
X35062Y12985
X34062Y12985
X33062Y12985
X32062Y12985
X31062Y12985
X30062Y12985
X29062Y12985
X26613Y12985
X25613Y12985
X24613Y12985
X23613Y12985
X22613Y12985
X21613Y12985
X20613Y12985
X19613Y12985
X17164Y12985
X16164Y12985
X15164Y12985
X14164Y12985
X13164Y12985
X12164Y12985
X11164Y12985
X10164Y12985
X7715Y12985
X6715Y12985
X5715Y12985
X4715Y12985
X3715Y12985
X2715Y12985
X1715Y12985
X715Y12985
X715Y15466
X1715Y15466
X2715Y15466
X3715Y15466
X4715Y15466
X5715Y15466
X6715Y15466
X7715Y15466
X10164Y15466
X11164Y15466
X12164Y15466
X13164Y15466
X14164Y15466
X15164Y15466
X16164Y15466
X17164Y15466
X19613Y15466
X20613Y15466
X21613Y15466
X22613Y15466
X23613Y15466
X24613Y15466
X25613Y15466
X26613Y15466
X29062Y15466
X30062Y15466
X31062Y15466
X32062Y15466
X33062Y15466
X34062Y15466
X35062Y15466
X36062Y15466
X36062Y20466
X35062Y20466
X34062Y20466
X33062Y20466
X32062Y20466
X31062Y20466
X30062Y20466
X29062Y20466
X26613Y20466
X25613Y20466
X24613Y20466
X23613Y20466
X22613Y20466
X21613Y20466
X20613Y20466
X19613Y20466
X17164Y20466
X16164Y20466
X15164Y20466
X14164Y20466
X13164Y20466
X12164Y20466
X11164Y20466
X10164Y20466
X7715Y20466
X6715Y20466
X5715Y20466
X4715Y20466
X3715Y20466
X2715Y20466
X1715Y20466
X715Y20466
X715Y22946
X1715Y22946
X2715Y22946
X3715Y22946
X4715Y22946
X5715Y22946
X6715Y22946
X7715Y22946
X10164Y22946
X11164Y22946
X12164Y22946
X13164Y22946
X14164Y22946
X15164Y22946
X16164Y22946
X17164Y22946
X19613Y22946
X20613Y22946
X21613Y22946
X22613Y22946
X23613Y22946
X24613Y22946
X25613Y22946
X26613Y22946
X29062Y22946
X30062Y22946
X31062Y22946
X32062Y22946
X33062Y22946
X34062Y22946
X35062Y22946
X36062Y22946
X36062Y27946
X35062Y27946
X34062Y27946
X33062Y27946
X32062Y27946
X31062Y27946
X30062Y27946
X29062Y27946
X26613Y27946
X25613Y27946
X24613Y27946
X23613Y27946
X22613Y27946
X21613Y27946
X20613Y27946
X19613Y27946
X17164Y27946
X16164Y27946
X15164Y27946
X14164Y27946
X13164Y27946
X12164Y27946
X11164Y27946
X10164Y27946
X7715Y27946
X6715Y27946
X5715Y27946
X4715Y27946
X3715Y27946
X2715Y27946
X1715Y27946
X715Y27946
T03
X1231Y2505
X3199Y2505
X5231Y2505
X7199Y2505
X10680Y2505
X12648Y2505
X14680Y2505
X16648Y2505
X20129Y2505
X22097Y2505
X24129Y2505
X26097Y2505
X29577Y2505
X31546Y2505
X33577Y2505
X35546Y2505
X35546Y9985
X33577Y9985
X31546Y9985
X29577Y9985
X26097Y9985
X24129Y9985
X22097Y9985
X20129Y9985
X16648Y9985
X14680Y9985
X12648Y9985
X10680Y9985
X7199Y9985
X5231Y9985
X3199Y9985
X1231Y9985
X1231Y17466
X3199Y17466
X5231Y17466
X7199Y17466
X10680Y17466
X12648Y17466
X14680Y17466
X16648Y17466
X20129Y17466
X22097Y17466
X24129Y17466
X26097Y17466
X29577Y17466
X31546Y17466
X33577Y17466
X35546Y17466
X35546Y24946
X33577Y24946
X31546Y24946
X29577Y24946
X26097Y24946
X24129Y24946
X22097Y24946
X20129Y24946
X16648Y24946
X14680Y24946
X12648Y24946
X10680Y24946
X7199Y24946
X5231Y24946
X3199Y24946
X1231Y24946
M30
