G75*
%MOIN*%
%OFA0B0*%
%FSLAX25Y25*%
%IPPOS*%
%LPD*%
%AMOC8*
5,1,8,0,0,1.08239X$1,22.5*
%
%ADD10C,0.01300*%
%ADD11C,0.01200*%
%ADD12C,0.00400*%
%ADD13C,0.00394*%
%ADD14C,0.00000*%
D10*
X0003983Y0045346D02*
X0007787Y0045346D01*
X0010429Y0045346D02*
X0010429Y0051051D01*
X0014232Y0045346D01*
X0014232Y0051051D01*
X0016874Y0049149D02*
X0018776Y0051051D01*
X0020678Y0049149D01*
X0020678Y0045346D01*
X0020678Y0048198D02*
X0016874Y0048198D01*
X0016874Y0049149D02*
X0016874Y0045346D01*
X0024456Y0046296D02*
X0025407Y0045346D01*
X0027308Y0045346D01*
X0028259Y0046296D01*
X0028259Y0047247D01*
X0027308Y0048198D01*
X0025407Y0048198D01*
X0024456Y0049149D01*
X0024456Y0050100D01*
X0025407Y0051051D01*
X0027308Y0051051D01*
X0028259Y0050100D01*
X0030901Y0051051D02*
X0034705Y0051051D01*
X0032803Y0051051D02*
X0032803Y0045346D01*
X0037347Y0045346D02*
X0037347Y0051051D01*
X0040199Y0051051D01*
X0041150Y0050100D01*
X0041150Y0048198D01*
X0040199Y0047247D01*
X0037347Y0047247D01*
X0044928Y0045346D02*
X0047781Y0045346D01*
X0048731Y0046296D01*
X0048731Y0050100D01*
X0047781Y0051051D01*
X0044928Y0051051D01*
X0044928Y0045346D01*
X0051374Y0045346D02*
X0053275Y0045346D01*
X0052325Y0045346D02*
X0052325Y0051051D01*
X0053275Y0051051D02*
X0051374Y0051051D01*
X0055671Y0051051D02*
X0055671Y0045346D01*
X0055671Y0047247D02*
X0058523Y0047247D01*
X0059474Y0048198D01*
X0059474Y0050100D01*
X0058523Y0051051D01*
X0055671Y0051051D01*
X0057572Y0047247D02*
X0059474Y0045346D01*
X0063826Y0046296D02*
X0063826Y0050100D01*
X0064777Y0051051D01*
X0066678Y0051051D01*
X0067629Y0050100D01*
X0067629Y0048198D02*
X0065727Y0048198D01*
X0067629Y0048198D02*
X0067629Y0046296D01*
X0066678Y0045346D01*
X0064777Y0045346D01*
X0063826Y0046296D01*
X0070271Y0045346D02*
X0070271Y0051051D01*
X0074075Y0045346D01*
X0074075Y0051051D01*
X0076717Y0051051D02*
X0079569Y0051051D01*
X0080520Y0050100D01*
X0080520Y0046296D01*
X0079569Y0045346D01*
X0076717Y0045346D01*
X0076717Y0051051D01*
X0098472Y0051051D02*
X0098472Y0045346D01*
X0102275Y0045346D01*
X0104917Y0045346D02*
X0104917Y0051051D01*
X0108720Y0045346D01*
X0108720Y0051051D01*
X0111363Y0049149D02*
X0113264Y0051051D01*
X0115166Y0049149D01*
X0115166Y0045346D01*
X0115166Y0048198D02*
X0111363Y0048198D01*
X0111363Y0049149D02*
X0111363Y0045346D01*
X0118944Y0046296D02*
X0119895Y0045346D01*
X0121796Y0045346D01*
X0122747Y0046296D01*
X0122747Y0047247D01*
X0121796Y0048198D01*
X0119895Y0048198D01*
X0118944Y0049149D01*
X0118944Y0050100D01*
X0119895Y0051051D01*
X0121796Y0051051D01*
X0122747Y0050100D01*
X0125389Y0051051D02*
X0129193Y0051051D01*
X0127291Y0051051D02*
X0127291Y0045346D01*
X0131835Y0045346D02*
X0131835Y0051051D01*
X0134687Y0051051D01*
X0135638Y0050100D01*
X0135638Y0048198D01*
X0134687Y0047247D01*
X0131835Y0047247D01*
X0139416Y0045346D02*
X0142269Y0045346D01*
X0143220Y0046296D01*
X0143220Y0050100D01*
X0142269Y0051051D01*
X0139416Y0051051D01*
X0139416Y0045346D01*
X0145862Y0045346D02*
X0147764Y0045346D01*
X0146813Y0045346D02*
X0146813Y0051051D01*
X0145862Y0051051D02*
X0147764Y0051051D01*
X0150159Y0051051D02*
X0153011Y0051051D01*
X0153962Y0050100D01*
X0153962Y0048198D01*
X0153011Y0047247D01*
X0150159Y0047247D01*
X0150159Y0045346D02*
X0150159Y0051051D01*
X0152061Y0047247D02*
X0153962Y0045346D01*
X0158314Y0046296D02*
X0159265Y0045346D01*
X0161166Y0045346D01*
X0162117Y0046296D01*
X0162117Y0048198D01*
X0160216Y0048198D01*
X0162117Y0050100D02*
X0161166Y0051051D01*
X0159265Y0051051D01*
X0158314Y0050100D01*
X0158314Y0046296D01*
X0164760Y0045346D02*
X0164760Y0051051D01*
X0168563Y0045346D01*
X0168563Y0051051D01*
X0171205Y0051051D02*
X0174057Y0051051D01*
X0175008Y0050100D01*
X0175008Y0046296D01*
X0174057Y0045346D01*
X0171205Y0045346D01*
X0171205Y0051051D01*
X0192960Y0051051D02*
X0192960Y0045346D01*
X0196763Y0045346D01*
X0199405Y0045346D02*
X0199405Y0051051D01*
X0203208Y0045346D01*
X0203208Y0051051D01*
X0205851Y0049149D02*
X0207752Y0051051D01*
X0209654Y0049149D01*
X0209654Y0045346D01*
X0209654Y0048198D02*
X0205851Y0048198D01*
X0205851Y0049149D02*
X0205851Y0045346D01*
X0213432Y0046296D02*
X0214383Y0045346D01*
X0216285Y0045346D01*
X0217235Y0046296D01*
X0217235Y0047247D01*
X0216285Y0048198D01*
X0214383Y0048198D01*
X0213432Y0049149D01*
X0213432Y0050100D01*
X0214383Y0051051D01*
X0216285Y0051051D01*
X0217235Y0050100D01*
X0219878Y0051051D02*
X0223681Y0051051D01*
X0221779Y0051051D02*
X0221779Y0045346D01*
X0226323Y0045346D02*
X0226323Y0051051D01*
X0229176Y0051051D01*
X0230126Y0050100D01*
X0230126Y0048198D01*
X0229176Y0047247D01*
X0226323Y0047247D01*
X0233905Y0045346D02*
X0236757Y0045346D01*
X0237708Y0046296D01*
X0237708Y0050100D01*
X0236757Y0051051D01*
X0233905Y0051051D01*
X0233905Y0045346D01*
X0240350Y0045346D02*
X0242252Y0045346D01*
X0241301Y0045346D02*
X0241301Y0051051D01*
X0240350Y0051051D02*
X0242252Y0051051D01*
X0244647Y0051051D02*
X0247500Y0051051D01*
X0248450Y0050100D01*
X0248450Y0048198D01*
X0247500Y0047247D01*
X0244647Y0047247D01*
X0244647Y0045346D02*
X0244647Y0051051D01*
X0246549Y0047247D02*
X0248450Y0045346D01*
X0252802Y0046296D02*
X0253753Y0045346D01*
X0255655Y0045346D01*
X0256605Y0046296D01*
X0256605Y0048198D01*
X0254704Y0048198D01*
X0256605Y0050100D02*
X0255655Y0051051D01*
X0253753Y0051051D01*
X0252802Y0050100D01*
X0252802Y0046296D01*
X0259248Y0045346D02*
X0259248Y0051051D01*
X0263051Y0045346D01*
X0263051Y0051051D01*
X0265693Y0051051D02*
X0268546Y0051051D01*
X0269496Y0050100D01*
X0269496Y0046296D01*
X0268546Y0045346D01*
X0265693Y0045346D01*
X0265693Y0051051D01*
X0287448Y0051051D02*
X0287448Y0045346D01*
X0291251Y0045346D01*
X0293893Y0045346D02*
X0293893Y0051051D01*
X0297697Y0045346D01*
X0297697Y0051051D01*
X0300339Y0049149D02*
X0302241Y0051051D01*
X0304142Y0049149D01*
X0304142Y0045346D01*
X0304142Y0048198D02*
X0300339Y0048198D01*
X0300339Y0049149D02*
X0300339Y0045346D01*
X0307920Y0046296D02*
X0308871Y0045346D01*
X0310773Y0045346D01*
X0311724Y0046296D01*
X0311724Y0047247D01*
X0310773Y0048198D01*
X0308871Y0048198D01*
X0307920Y0049149D01*
X0307920Y0050100D01*
X0308871Y0051051D01*
X0310773Y0051051D01*
X0311724Y0050100D01*
X0314366Y0051051D02*
X0318169Y0051051D01*
X0316267Y0051051D02*
X0316267Y0045346D01*
X0320811Y0045346D02*
X0320811Y0051051D01*
X0323664Y0051051D01*
X0324615Y0050100D01*
X0324615Y0048198D01*
X0323664Y0047247D01*
X0320811Y0047247D01*
X0328393Y0045346D02*
X0331245Y0045346D01*
X0332196Y0046296D01*
X0332196Y0050100D01*
X0331245Y0051051D01*
X0328393Y0051051D01*
X0328393Y0045346D01*
X0334838Y0045346D02*
X0336740Y0045346D01*
X0335789Y0045346D02*
X0335789Y0051051D01*
X0334838Y0051051D02*
X0336740Y0051051D01*
X0339135Y0051051D02*
X0341988Y0051051D01*
X0342939Y0050100D01*
X0342939Y0048198D01*
X0341988Y0047247D01*
X0339135Y0047247D01*
X0339135Y0045346D02*
X0339135Y0051051D01*
X0341037Y0047247D02*
X0342939Y0045346D01*
X0347290Y0046296D02*
X0348241Y0045346D01*
X0350143Y0045346D01*
X0351094Y0046296D01*
X0351094Y0048198D01*
X0349192Y0048198D01*
X0347290Y0050100D02*
X0347290Y0046296D01*
X0347290Y0050100D02*
X0348241Y0051051D01*
X0350143Y0051051D01*
X0351094Y0050100D01*
X0353736Y0051051D02*
X0357539Y0045346D01*
X0357539Y0051051D01*
X0360181Y0051051D02*
X0363034Y0051051D01*
X0363985Y0050100D01*
X0363985Y0046296D01*
X0363034Y0045346D01*
X0360181Y0045346D01*
X0360181Y0051051D01*
X0353736Y0051051D02*
X0353736Y0045346D01*
X0291251Y0051051D02*
X0287448Y0051051D01*
X0287448Y0048198D02*
X0289350Y0048198D01*
X0196763Y0051051D02*
X0192960Y0051051D01*
X0192960Y0048198D02*
X0194861Y0048198D01*
X0102275Y0051051D02*
X0098472Y0051051D01*
X0098472Y0048198D02*
X0100373Y0048198D01*
X0007787Y0051051D02*
X0003983Y0051051D01*
X0003983Y0045346D01*
X0003983Y0048198D02*
X0005885Y0048198D01*
X0003983Y0120149D02*
X0007787Y0120149D01*
X0010429Y0120149D02*
X0010429Y0125854D01*
X0014232Y0120149D01*
X0014232Y0125854D01*
X0016874Y0123952D02*
X0018776Y0125854D01*
X0020678Y0123952D01*
X0020678Y0120149D01*
X0020678Y0123001D02*
X0016874Y0123001D01*
X0016874Y0123952D02*
X0016874Y0120149D01*
X0024456Y0121100D02*
X0025407Y0120149D01*
X0027308Y0120149D01*
X0028259Y0121100D01*
X0028259Y0122050D01*
X0027308Y0123001D01*
X0025407Y0123001D01*
X0024456Y0123952D01*
X0024456Y0124903D01*
X0025407Y0125854D01*
X0027308Y0125854D01*
X0028259Y0124903D01*
X0030901Y0125854D02*
X0034705Y0125854D01*
X0032803Y0125854D02*
X0032803Y0120149D01*
X0037347Y0120149D02*
X0037347Y0125854D01*
X0040199Y0125854D01*
X0041150Y0124903D01*
X0041150Y0123001D01*
X0040199Y0122050D01*
X0037347Y0122050D01*
X0044928Y0120149D02*
X0047781Y0120149D01*
X0048731Y0121100D01*
X0048731Y0124903D01*
X0047781Y0125854D01*
X0044928Y0125854D01*
X0044928Y0120149D01*
X0051374Y0120149D02*
X0053275Y0120149D01*
X0052325Y0120149D02*
X0052325Y0125854D01*
X0053275Y0125854D02*
X0051374Y0125854D01*
X0055671Y0125854D02*
X0055671Y0120149D01*
X0055671Y0122050D02*
X0058523Y0122050D01*
X0059474Y0123001D01*
X0059474Y0124903D01*
X0058523Y0125854D01*
X0055671Y0125854D01*
X0057572Y0122050D02*
X0059474Y0120149D01*
X0063826Y0121100D02*
X0063826Y0124903D01*
X0064777Y0125854D01*
X0066678Y0125854D01*
X0067629Y0124903D01*
X0067629Y0123001D02*
X0065727Y0123001D01*
X0067629Y0123001D02*
X0067629Y0121100D01*
X0066678Y0120149D01*
X0064777Y0120149D01*
X0063826Y0121100D01*
X0070271Y0120149D02*
X0070271Y0125854D01*
X0074075Y0120149D01*
X0074075Y0125854D01*
X0076717Y0125854D02*
X0079569Y0125854D01*
X0080520Y0124903D01*
X0080520Y0121100D01*
X0079569Y0120149D01*
X0076717Y0120149D01*
X0076717Y0125854D01*
X0098472Y0125854D02*
X0098472Y0120149D01*
X0102275Y0120149D01*
X0104917Y0120149D02*
X0104917Y0125854D01*
X0108720Y0120149D01*
X0108720Y0125854D01*
X0111363Y0123952D02*
X0113264Y0125854D01*
X0115166Y0123952D01*
X0115166Y0120149D01*
X0115166Y0123001D02*
X0111363Y0123001D01*
X0111363Y0123952D02*
X0111363Y0120149D01*
X0118944Y0121100D02*
X0119895Y0120149D01*
X0121796Y0120149D01*
X0122747Y0121100D01*
X0122747Y0122050D01*
X0121796Y0123001D01*
X0119895Y0123001D01*
X0118944Y0123952D01*
X0118944Y0124903D01*
X0119895Y0125854D01*
X0121796Y0125854D01*
X0122747Y0124903D01*
X0125389Y0125854D02*
X0129193Y0125854D01*
X0127291Y0125854D02*
X0127291Y0120149D01*
X0131835Y0120149D02*
X0131835Y0125854D01*
X0134687Y0125854D01*
X0135638Y0124903D01*
X0135638Y0123001D01*
X0134687Y0122050D01*
X0131835Y0122050D01*
X0139416Y0120149D02*
X0142269Y0120149D01*
X0143220Y0121100D01*
X0143220Y0124903D01*
X0142269Y0125854D01*
X0139416Y0125854D01*
X0139416Y0120149D01*
X0145862Y0120149D02*
X0147764Y0120149D01*
X0146813Y0120149D02*
X0146813Y0125854D01*
X0145862Y0125854D02*
X0147764Y0125854D01*
X0150159Y0125854D02*
X0153011Y0125854D01*
X0153962Y0124903D01*
X0153962Y0123001D01*
X0153011Y0122050D01*
X0150159Y0122050D01*
X0150159Y0120149D02*
X0150159Y0125854D01*
X0152061Y0122050D02*
X0153962Y0120149D01*
X0158314Y0121100D02*
X0159265Y0120149D01*
X0161166Y0120149D01*
X0162117Y0121100D01*
X0162117Y0123001D01*
X0160216Y0123001D01*
X0162117Y0124903D02*
X0161166Y0125854D01*
X0159265Y0125854D01*
X0158314Y0124903D01*
X0158314Y0121100D01*
X0164760Y0120149D02*
X0164760Y0125854D01*
X0168563Y0120149D01*
X0168563Y0125854D01*
X0171205Y0125854D02*
X0174057Y0125854D01*
X0175008Y0124903D01*
X0175008Y0121100D01*
X0174057Y0120149D01*
X0171205Y0120149D01*
X0171205Y0125854D01*
X0192960Y0125854D02*
X0192960Y0120149D01*
X0196763Y0120149D01*
X0199405Y0120149D02*
X0199405Y0125854D01*
X0203208Y0120149D01*
X0203208Y0125854D01*
X0205851Y0123952D02*
X0207752Y0125854D01*
X0209654Y0123952D01*
X0209654Y0120149D01*
X0209654Y0123001D02*
X0205851Y0123001D01*
X0205851Y0123952D02*
X0205851Y0120149D01*
X0213432Y0121100D02*
X0214383Y0120149D01*
X0216285Y0120149D01*
X0217235Y0121100D01*
X0217235Y0122050D01*
X0216285Y0123001D01*
X0214383Y0123001D01*
X0213432Y0123952D01*
X0213432Y0124903D01*
X0214383Y0125854D01*
X0216285Y0125854D01*
X0217235Y0124903D01*
X0219878Y0125854D02*
X0223681Y0125854D01*
X0221779Y0125854D02*
X0221779Y0120149D01*
X0226323Y0120149D02*
X0226323Y0125854D01*
X0229176Y0125854D01*
X0230126Y0124903D01*
X0230126Y0123001D01*
X0229176Y0122050D01*
X0226323Y0122050D01*
X0233905Y0120149D02*
X0236757Y0120149D01*
X0237708Y0121100D01*
X0237708Y0124903D01*
X0236757Y0125854D01*
X0233905Y0125854D01*
X0233905Y0120149D01*
X0240350Y0120149D02*
X0242252Y0120149D01*
X0241301Y0120149D02*
X0241301Y0125854D01*
X0240350Y0125854D02*
X0242252Y0125854D01*
X0244647Y0125854D02*
X0247500Y0125854D01*
X0248450Y0124903D01*
X0248450Y0123001D01*
X0247500Y0122050D01*
X0244647Y0122050D01*
X0244647Y0120149D02*
X0244647Y0125854D01*
X0246549Y0122050D02*
X0248450Y0120149D01*
X0252802Y0121100D02*
X0253753Y0120149D01*
X0255655Y0120149D01*
X0256605Y0121100D01*
X0256605Y0123001D01*
X0254704Y0123001D01*
X0252802Y0124903D02*
X0252802Y0121100D01*
X0252802Y0124903D02*
X0253753Y0125854D01*
X0255655Y0125854D01*
X0256605Y0124903D01*
X0259248Y0125854D02*
X0263051Y0120149D01*
X0263051Y0125854D01*
X0265693Y0125854D02*
X0268546Y0125854D01*
X0269496Y0124903D01*
X0269496Y0121100D01*
X0268546Y0120149D01*
X0265693Y0120149D01*
X0265693Y0125854D01*
X0259248Y0125854D02*
X0259248Y0120149D01*
X0287448Y0120149D02*
X0291251Y0120149D01*
X0293893Y0120149D02*
X0293893Y0125854D01*
X0297697Y0120149D01*
X0297697Y0125854D01*
X0300339Y0123952D02*
X0302241Y0125854D01*
X0304142Y0123952D01*
X0304142Y0120149D01*
X0304142Y0123001D02*
X0300339Y0123001D01*
X0300339Y0123952D02*
X0300339Y0120149D01*
X0307920Y0121100D02*
X0308871Y0120149D01*
X0310773Y0120149D01*
X0311724Y0121100D01*
X0311724Y0122050D01*
X0310773Y0123001D01*
X0308871Y0123001D01*
X0307920Y0123952D01*
X0307920Y0124903D01*
X0308871Y0125854D01*
X0310773Y0125854D01*
X0311724Y0124903D01*
X0314366Y0125854D02*
X0318169Y0125854D01*
X0316267Y0125854D02*
X0316267Y0120149D01*
X0320811Y0120149D02*
X0320811Y0125854D01*
X0323664Y0125854D01*
X0324615Y0124903D01*
X0324615Y0123001D01*
X0323664Y0122050D01*
X0320811Y0122050D01*
X0328393Y0120149D02*
X0331245Y0120149D01*
X0332196Y0121100D01*
X0332196Y0124903D01*
X0331245Y0125854D01*
X0328393Y0125854D01*
X0328393Y0120149D01*
X0334838Y0120149D02*
X0336740Y0120149D01*
X0335789Y0120149D02*
X0335789Y0125854D01*
X0334838Y0125854D02*
X0336740Y0125854D01*
X0339135Y0125854D02*
X0341988Y0125854D01*
X0342939Y0124903D01*
X0342939Y0123001D01*
X0341988Y0122050D01*
X0339135Y0122050D01*
X0339135Y0120149D02*
X0339135Y0125854D01*
X0341037Y0122050D02*
X0342939Y0120149D01*
X0347290Y0121100D02*
X0348241Y0120149D01*
X0350143Y0120149D01*
X0351094Y0121100D01*
X0351094Y0123001D01*
X0349192Y0123001D01*
X0347290Y0124903D02*
X0347290Y0121100D01*
X0347290Y0124903D02*
X0348241Y0125854D01*
X0350143Y0125854D01*
X0351094Y0124903D01*
X0353736Y0125854D02*
X0357539Y0120149D01*
X0357539Y0125854D01*
X0360181Y0125854D02*
X0363034Y0125854D01*
X0363985Y0124903D01*
X0363985Y0121100D01*
X0363034Y0120149D01*
X0360181Y0120149D01*
X0360181Y0125854D01*
X0353736Y0125854D02*
X0353736Y0120149D01*
X0291251Y0125854D02*
X0287448Y0125854D01*
X0287448Y0120149D01*
X0287448Y0123001D02*
X0289350Y0123001D01*
X0196763Y0125854D02*
X0192960Y0125854D01*
X0192960Y0123001D02*
X0194861Y0123001D01*
X0102275Y0125854D02*
X0098472Y0125854D01*
X0098472Y0123001D02*
X0100373Y0123001D01*
X0007787Y0125854D02*
X0003983Y0125854D01*
X0003983Y0120149D01*
X0003983Y0123001D02*
X0005885Y0123001D01*
X0003983Y0194952D02*
X0007787Y0194952D01*
X0010429Y0194952D02*
X0010429Y0200657D01*
X0014232Y0194952D01*
X0014232Y0200657D01*
X0016874Y0198755D02*
X0018776Y0200657D01*
X0020678Y0198755D01*
X0020678Y0194952D01*
X0020678Y0197804D02*
X0016874Y0197804D01*
X0016874Y0198755D02*
X0016874Y0194952D01*
X0024456Y0195903D02*
X0025407Y0194952D01*
X0027308Y0194952D01*
X0028259Y0195903D01*
X0028259Y0196854D01*
X0027308Y0197804D01*
X0025407Y0197804D01*
X0024456Y0198755D01*
X0024456Y0199706D01*
X0025407Y0200657D01*
X0027308Y0200657D01*
X0028259Y0199706D01*
X0030901Y0200657D02*
X0034705Y0200657D01*
X0032803Y0200657D02*
X0032803Y0194952D01*
X0037347Y0194952D02*
X0037347Y0200657D01*
X0040199Y0200657D01*
X0041150Y0199706D01*
X0041150Y0197804D01*
X0040199Y0196854D01*
X0037347Y0196854D01*
X0044928Y0194952D02*
X0044928Y0200657D01*
X0047781Y0200657D01*
X0048731Y0199706D01*
X0048731Y0195903D01*
X0047781Y0194952D01*
X0044928Y0194952D01*
X0051374Y0194952D02*
X0053275Y0194952D01*
X0052325Y0194952D02*
X0052325Y0200657D01*
X0053275Y0200657D02*
X0051374Y0200657D01*
X0055671Y0200657D02*
X0055671Y0194952D01*
X0055671Y0196854D02*
X0058523Y0196854D01*
X0059474Y0197804D01*
X0059474Y0199706D01*
X0058523Y0200657D01*
X0055671Y0200657D01*
X0057572Y0196854D02*
X0059474Y0194952D01*
X0063826Y0195903D02*
X0064777Y0194952D01*
X0066678Y0194952D01*
X0067629Y0195903D01*
X0067629Y0197804D01*
X0065727Y0197804D01*
X0063826Y0195903D02*
X0063826Y0199706D01*
X0064777Y0200657D01*
X0066678Y0200657D01*
X0067629Y0199706D01*
X0070271Y0200657D02*
X0070271Y0194952D01*
X0074075Y0194952D02*
X0074075Y0200657D01*
X0076717Y0200657D02*
X0079569Y0200657D01*
X0080520Y0199706D01*
X0080520Y0195903D01*
X0079569Y0194952D01*
X0076717Y0194952D01*
X0076717Y0200657D01*
X0074075Y0194952D02*
X0070271Y0200657D01*
X0098472Y0200657D02*
X0098472Y0194952D01*
X0102275Y0194952D01*
X0104917Y0194952D02*
X0104917Y0200657D01*
X0108720Y0194952D01*
X0108720Y0200657D01*
X0111363Y0198755D02*
X0113264Y0200657D01*
X0115166Y0198755D01*
X0115166Y0194952D01*
X0115166Y0197804D02*
X0111363Y0197804D01*
X0111363Y0198755D02*
X0111363Y0194952D01*
X0118944Y0195903D02*
X0119895Y0194952D01*
X0121796Y0194952D01*
X0122747Y0195903D01*
X0122747Y0196854D01*
X0121796Y0197804D01*
X0119895Y0197804D01*
X0118944Y0198755D01*
X0118944Y0199706D01*
X0119895Y0200657D01*
X0121796Y0200657D01*
X0122747Y0199706D01*
X0125389Y0200657D02*
X0129193Y0200657D01*
X0127291Y0200657D02*
X0127291Y0194952D01*
X0131835Y0194952D02*
X0131835Y0200657D01*
X0134687Y0200657D01*
X0135638Y0199706D01*
X0135638Y0197804D01*
X0134687Y0196854D01*
X0131835Y0196854D01*
X0139416Y0194952D02*
X0139416Y0200657D01*
X0142269Y0200657D01*
X0143220Y0199706D01*
X0143220Y0195903D01*
X0142269Y0194952D01*
X0139416Y0194952D01*
X0145862Y0194952D02*
X0147764Y0194952D01*
X0146813Y0194952D02*
X0146813Y0200657D01*
X0145862Y0200657D02*
X0147764Y0200657D01*
X0150159Y0200657D02*
X0153011Y0200657D01*
X0153962Y0199706D01*
X0153962Y0197804D01*
X0153011Y0196854D01*
X0150159Y0196854D01*
X0152061Y0196854D02*
X0153962Y0194952D01*
X0150159Y0194952D02*
X0150159Y0200657D01*
X0158314Y0199706D02*
X0158314Y0195903D01*
X0159265Y0194952D01*
X0161166Y0194952D01*
X0162117Y0195903D01*
X0162117Y0197804D01*
X0160216Y0197804D01*
X0162117Y0199706D02*
X0161166Y0200657D01*
X0159265Y0200657D01*
X0158314Y0199706D01*
X0164760Y0200657D02*
X0164760Y0194952D01*
X0168563Y0194952D02*
X0168563Y0200657D01*
X0171205Y0200657D02*
X0174057Y0200657D01*
X0175008Y0199706D01*
X0175008Y0195903D01*
X0174057Y0194952D01*
X0171205Y0194952D01*
X0171205Y0200657D01*
X0168563Y0194952D02*
X0164760Y0200657D01*
X0192960Y0200657D02*
X0192960Y0194952D01*
X0196763Y0194952D01*
X0199405Y0194952D02*
X0199405Y0200657D01*
X0203208Y0194952D01*
X0203208Y0200657D01*
X0205851Y0198755D02*
X0207752Y0200657D01*
X0209654Y0198755D01*
X0209654Y0194952D01*
X0209654Y0197804D02*
X0205851Y0197804D01*
X0205851Y0198755D02*
X0205851Y0194952D01*
X0213432Y0195903D02*
X0214383Y0194952D01*
X0216285Y0194952D01*
X0217235Y0195903D01*
X0217235Y0196854D01*
X0216285Y0197804D01*
X0214383Y0197804D01*
X0213432Y0198755D01*
X0213432Y0199706D01*
X0214383Y0200657D01*
X0216285Y0200657D01*
X0217235Y0199706D01*
X0219878Y0200657D02*
X0223681Y0200657D01*
X0221779Y0200657D02*
X0221779Y0194952D01*
X0226323Y0194952D02*
X0226323Y0200657D01*
X0229176Y0200657D01*
X0230126Y0199706D01*
X0230126Y0197804D01*
X0229176Y0196854D01*
X0226323Y0196854D01*
X0233905Y0194952D02*
X0233905Y0200657D01*
X0236757Y0200657D01*
X0237708Y0199706D01*
X0237708Y0195903D01*
X0236757Y0194952D01*
X0233905Y0194952D01*
X0240350Y0194952D02*
X0242252Y0194952D01*
X0241301Y0194952D02*
X0241301Y0200657D01*
X0240350Y0200657D02*
X0242252Y0200657D01*
X0244647Y0200657D02*
X0247500Y0200657D01*
X0248450Y0199706D01*
X0248450Y0197804D01*
X0247500Y0196854D01*
X0244647Y0196854D01*
X0246549Y0196854D02*
X0248450Y0194952D01*
X0244647Y0194952D02*
X0244647Y0200657D01*
X0252802Y0199706D02*
X0252802Y0195903D01*
X0253753Y0194952D01*
X0255655Y0194952D01*
X0256605Y0195903D01*
X0256605Y0197804D01*
X0254704Y0197804D01*
X0256605Y0199706D02*
X0255655Y0200657D01*
X0253753Y0200657D01*
X0252802Y0199706D01*
X0259248Y0200657D02*
X0259248Y0194952D01*
X0263051Y0194952D02*
X0263051Y0200657D01*
X0265693Y0200657D02*
X0268546Y0200657D01*
X0269496Y0199706D01*
X0269496Y0195903D01*
X0268546Y0194952D01*
X0265693Y0194952D01*
X0265693Y0200657D01*
X0263051Y0194952D02*
X0259248Y0200657D01*
X0287448Y0200657D02*
X0287448Y0194952D01*
X0291251Y0194952D01*
X0293893Y0194952D02*
X0293893Y0200657D01*
X0297697Y0194952D01*
X0297697Y0200657D01*
X0300339Y0198755D02*
X0302241Y0200657D01*
X0304142Y0198755D01*
X0304142Y0194952D01*
X0304142Y0197804D02*
X0300339Y0197804D01*
X0300339Y0198755D02*
X0300339Y0194952D01*
X0307920Y0195903D02*
X0308871Y0194952D01*
X0310773Y0194952D01*
X0311724Y0195903D01*
X0311724Y0196854D01*
X0310773Y0197804D01*
X0308871Y0197804D01*
X0307920Y0198755D01*
X0307920Y0199706D01*
X0308871Y0200657D01*
X0310773Y0200657D01*
X0311724Y0199706D01*
X0314366Y0200657D02*
X0318169Y0200657D01*
X0316267Y0200657D02*
X0316267Y0194952D01*
X0320811Y0194952D02*
X0320811Y0200657D01*
X0323664Y0200657D01*
X0324615Y0199706D01*
X0324615Y0197804D01*
X0323664Y0196854D01*
X0320811Y0196854D01*
X0328393Y0194952D02*
X0328393Y0200657D01*
X0331245Y0200657D01*
X0332196Y0199706D01*
X0332196Y0195903D01*
X0331245Y0194952D01*
X0328393Y0194952D01*
X0334838Y0194952D02*
X0336740Y0194952D01*
X0335789Y0194952D02*
X0335789Y0200657D01*
X0334838Y0200657D02*
X0336740Y0200657D01*
X0339135Y0200657D02*
X0341988Y0200657D01*
X0342939Y0199706D01*
X0342939Y0197804D01*
X0341988Y0196854D01*
X0339135Y0196854D01*
X0341037Y0196854D02*
X0342939Y0194952D01*
X0339135Y0194952D02*
X0339135Y0200657D01*
X0347290Y0199706D02*
X0347290Y0195903D01*
X0348241Y0194952D01*
X0350143Y0194952D01*
X0351094Y0195903D01*
X0351094Y0197804D01*
X0349192Y0197804D01*
X0347290Y0199706D02*
X0348241Y0200657D01*
X0350143Y0200657D01*
X0351094Y0199706D01*
X0353736Y0200657D02*
X0357539Y0194952D01*
X0357539Y0200657D01*
X0360181Y0200657D02*
X0363034Y0200657D01*
X0363985Y0199706D01*
X0363985Y0195903D01*
X0363034Y0194952D01*
X0360181Y0194952D01*
X0360181Y0200657D01*
X0353736Y0200657D02*
X0353736Y0194952D01*
X0291251Y0200657D02*
X0287448Y0200657D01*
X0287448Y0197804D02*
X0289350Y0197804D01*
X0196763Y0200657D02*
X0192960Y0200657D01*
X0192960Y0197804D02*
X0194861Y0197804D01*
X0102275Y0200657D02*
X0098472Y0200657D01*
X0098472Y0197804D02*
X0100373Y0197804D01*
X0007787Y0200657D02*
X0003983Y0200657D01*
X0003983Y0194952D01*
X0003983Y0197804D02*
X0005885Y0197804D01*
X0003983Y0269755D02*
X0007787Y0269755D01*
X0010429Y0269755D02*
X0010429Y0275460D01*
X0014232Y0269755D01*
X0014232Y0275460D01*
X0016874Y0273558D02*
X0018776Y0275460D01*
X0020678Y0273558D01*
X0020678Y0269755D01*
X0020678Y0272608D02*
X0016874Y0272608D01*
X0016874Y0273558D02*
X0016874Y0269755D01*
X0024456Y0270706D02*
X0025407Y0269755D01*
X0027308Y0269755D01*
X0028259Y0270706D01*
X0028259Y0271657D01*
X0027308Y0272608D01*
X0025407Y0272608D01*
X0024456Y0273558D01*
X0024456Y0274509D01*
X0025407Y0275460D01*
X0027308Y0275460D01*
X0028259Y0274509D01*
X0030901Y0275460D02*
X0034705Y0275460D01*
X0032803Y0275460D02*
X0032803Y0269755D01*
X0037347Y0269755D02*
X0037347Y0275460D01*
X0040199Y0275460D01*
X0041150Y0274509D01*
X0041150Y0272608D01*
X0040199Y0271657D01*
X0037347Y0271657D01*
X0044928Y0269755D02*
X0044928Y0275460D01*
X0047781Y0275460D01*
X0048731Y0274509D01*
X0048731Y0270706D01*
X0047781Y0269755D01*
X0044928Y0269755D01*
X0051374Y0269755D02*
X0053275Y0269755D01*
X0052325Y0269755D02*
X0052325Y0275460D01*
X0053275Y0275460D02*
X0051374Y0275460D01*
X0055671Y0275460D02*
X0055671Y0269755D01*
X0055671Y0271657D02*
X0058523Y0271657D01*
X0059474Y0272608D01*
X0059474Y0274509D01*
X0058523Y0275460D01*
X0055671Y0275460D01*
X0057572Y0271657D02*
X0059474Y0269755D01*
X0063826Y0270706D02*
X0064777Y0269755D01*
X0066678Y0269755D01*
X0067629Y0270706D01*
X0067629Y0272608D01*
X0065727Y0272608D01*
X0063826Y0274509D02*
X0063826Y0270706D01*
X0063826Y0274509D02*
X0064777Y0275460D01*
X0066678Y0275460D01*
X0067629Y0274509D01*
X0070271Y0275460D02*
X0070271Y0269755D01*
X0074075Y0269755D02*
X0074075Y0275460D01*
X0076717Y0275460D02*
X0079569Y0275460D01*
X0080520Y0274509D01*
X0080520Y0270706D01*
X0079569Y0269755D01*
X0076717Y0269755D01*
X0076717Y0275460D01*
X0074075Y0269755D02*
X0070271Y0275460D01*
X0098472Y0275460D02*
X0098472Y0269755D01*
X0102275Y0269755D01*
X0104917Y0269755D02*
X0104917Y0275460D01*
X0108720Y0269755D01*
X0108720Y0275460D01*
X0111363Y0273558D02*
X0113264Y0275460D01*
X0115166Y0273558D01*
X0115166Y0269755D01*
X0115166Y0272608D02*
X0111363Y0272608D01*
X0111363Y0273558D02*
X0111363Y0269755D01*
X0118944Y0270706D02*
X0119895Y0269755D01*
X0121796Y0269755D01*
X0122747Y0270706D01*
X0122747Y0271657D01*
X0121796Y0272608D01*
X0119895Y0272608D01*
X0118944Y0273558D01*
X0118944Y0274509D01*
X0119895Y0275460D01*
X0121796Y0275460D01*
X0122747Y0274509D01*
X0125389Y0275460D02*
X0129193Y0275460D01*
X0127291Y0275460D02*
X0127291Y0269755D01*
X0131835Y0269755D02*
X0131835Y0275460D01*
X0134687Y0275460D01*
X0135638Y0274509D01*
X0135638Y0272608D01*
X0134687Y0271657D01*
X0131835Y0271657D01*
X0139416Y0269755D02*
X0139416Y0275460D01*
X0142269Y0275460D01*
X0143220Y0274509D01*
X0143220Y0270706D01*
X0142269Y0269755D01*
X0139416Y0269755D01*
X0145862Y0269755D02*
X0147764Y0269755D01*
X0146813Y0269755D02*
X0146813Y0275460D01*
X0145862Y0275460D02*
X0147764Y0275460D01*
X0150159Y0275460D02*
X0153011Y0275460D01*
X0153962Y0274509D01*
X0153962Y0272608D01*
X0153011Y0271657D01*
X0150159Y0271657D01*
X0152061Y0271657D02*
X0153962Y0269755D01*
X0150159Y0269755D02*
X0150159Y0275460D01*
X0158314Y0274509D02*
X0158314Y0270706D01*
X0159265Y0269755D01*
X0161166Y0269755D01*
X0162117Y0270706D01*
X0162117Y0272608D01*
X0160216Y0272608D01*
X0162117Y0274509D02*
X0161166Y0275460D01*
X0159265Y0275460D01*
X0158314Y0274509D01*
X0164760Y0275460D02*
X0164760Y0269755D01*
X0168563Y0269755D02*
X0168563Y0275460D01*
X0171205Y0275460D02*
X0174057Y0275460D01*
X0175008Y0274509D01*
X0175008Y0270706D01*
X0174057Y0269755D01*
X0171205Y0269755D01*
X0171205Y0275460D01*
X0168563Y0269755D02*
X0164760Y0275460D01*
X0192960Y0275460D02*
X0192960Y0269755D01*
X0196763Y0269755D01*
X0199405Y0269755D02*
X0199405Y0275460D01*
X0203208Y0269755D01*
X0203208Y0275460D01*
X0205851Y0273558D02*
X0207752Y0275460D01*
X0209654Y0273558D01*
X0209654Y0269755D01*
X0209654Y0272608D02*
X0205851Y0272608D01*
X0205851Y0273558D02*
X0205851Y0269755D01*
X0213432Y0270706D02*
X0214383Y0269755D01*
X0216285Y0269755D01*
X0217235Y0270706D01*
X0217235Y0271657D01*
X0216285Y0272608D01*
X0214383Y0272608D01*
X0213432Y0273558D01*
X0213432Y0274509D01*
X0214383Y0275460D01*
X0216285Y0275460D01*
X0217235Y0274509D01*
X0219878Y0275460D02*
X0223681Y0275460D01*
X0221779Y0275460D02*
X0221779Y0269755D01*
X0226323Y0269755D02*
X0226323Y0275460D01*
X0229176Y0275460D01*
X0230126Y0274509D01*
X0230126Y0272608D01*
X0229176Y0271657D01*
X0226323Y0271657D01*
X0233905Y0269755D02*
X0233905Y0275460D01*
X0236757Y0275460D01*
X0237708Y0274509D01*
X0237708Y0270706D01*
X0236757Y0269755D01*
X0233905Y0269755D01*
X0240350Y0269755D02*
X0242252Y0269755D01*
X0241301Y0269755D02*
X0241301Y0275460D01*
X0240350Y0275460D02*
X0242252Y0275460D01*
X0244647Y0275460D02*
X0247500Y0275460D01*
X0248450Y0274509D01*
X0248450Y0272608D01*
X0247500Y0271657D01*
X0244647Y0271657D01*
X0246549Y0271657D02*
X0248450Y0269755D01*
X0244647Y0269755D02*
X0244647Y0275460D01*
X0252802Y0274509D02*
X0252802Y0270706D01*
X0253753Y0269755D01*
X0255655Y0269755D01*
X0256605Y0270706D01*
X0256605Y0272608D01*
X0254704Y0272608D01*
X0256605Y0274509D02*
X0255655Y0275460D01*
X0253753Y0275460D01*
X0252802Y0274509D01*
X0259248Y0275460D02*
X0259248Y0269755D01*
X0263051Y0269755D02*
X0263051Y0275460D01*
X0265693Y0275460D02*
X0268546Y0275460D01*
X0269496Y0274509D01*
X0269496Y0270706D01*
X0268546Y0269755D01*
X0265693Y0269755D01*
X0265693Y0275460D01*
X0263051Y0269755D02*
X0259248Y0275460D01*
X0287448Y0275460D02*
X0287448Y0269755D01*
X0291251Y0269755D01*
X0293893Y0269755D02*
X0293893Y0275460D01*
X0297697Y0269755D01*
X0297697Y0275460D01*
X0300339Y0273558D02*
X0302241Y0275460D01*
X0304142Y0273558D01*
X0304142Y0269755D01*
X0304142Y0272608D02*
X0300339Y0272608D01*
X0300339Y0273558D02*
X0300339Y0269755D01*
X0307920Y0270706D02*
X0308871Y0269755D01*
X0310773Y0269755D01*
X0311724Y0270706D01*
X0311724Y0271657D01*
X0310773Y0272608D01*
X0308871Y0272608D01*
X0307920Y0273558D01*
X0307920Y0274509D01*
X0308871Y0275460D01*
X0310773Y0275460D01*
X0311724Y0274509D01*
X0314366Y0275460D02*
X0318169Y0275460D01*
X0316267Y0275460D02*
X0316267Y0269755D01*
X0320811Y0269755D02*
X0320811Y0275460D01*
X0323664Y0275460D01*
X0324615Y0274509D01*
X0324615Y0272608D01*
X0323664Y0271657D01*
X0320811Y0271657D01*
X0328393Y0269755D02*
X0328393Y0275460D01*
X0331245Y0275460D01*
X0332196Y0274509D01*
X0332196Y0270706D01*
X0331245Y0269755D01*
X0328393Y0269755D01*
X0334838Y0269755D02*
X0336740Y0269755D01*
X0335789Y0269755D02*
X0335789Y0275460D01*
X0334838Y0275460D02*
X0336740Y0275460D01*
X0339135Y0275460D02*
X0341988Y0275460D01*
X0342939Y0274509D01*
X0342939Y0272608D01*
X0341988Y0271657D01*
X0339135Y0271657D01*
X0339135Y0269755D02*
X0339135Y0275460D01*
X0341037Y0271657D02*
X0342939Y0269755D01*
X0347290Y0270706D02*
X0347290Y0274509D01*
X0348241Y0275460D01*
X0350143Y0275460D01*
X0351094Y0274509D01*
X0351094Y0272608D02*
X0349192Y0272608D01*
X0351094Y0272608D02*
X0351094Y0270706D01*
X0350143Y0269755D01*
X0348241Y0269755D01*
X0347290Y0270706D01*
X0353736Y0269755D02*
X0353736Y0275460D01*
X0357539Y0269755D01*
X0357539Y0275460D01*
X0360181Y0275460D02*
X0363034Y0275460D01*
X0363985Y0274509D01*
X0363985Y0270706D01*
X0363034Y0269755D01*
X0360181Y0269755D01*
X0360181Y0275460D01*
X0291251Y0275460D02*
X0287448Y0275460D01*
X0287448Y0272608D02*
X0289350Y0272608D01*
X0196763Y0275460D02*
X0192960Y0275460D01*
X0192960Y0272608D02*
X0194861Y0272608D01*
X0102275Y0275460D02*
X0098472Y0275460D01*
X0098472Y0272608D02*
X0100373Y0272608D01*
X0007787Y0275460D02*
X0003983Y0275460D01*
X0003983Y0269755D01*
X0003983Y0272608D02*
X0005885Y0272608D01*
D11*
X0003333Y0268318D02*
X0003333Y0233672D01*
X0081286Y0233672D01*
X0081286Y0268318D01*
X0003333Y0268318D01*
X0097822Y0268318D02*
X0097822Y0233672D01*
X0175774Y0233672D01*
X0175774Y0268318D01*
X0097822Y0268318D01*
X0192310Y0268318D02*
X0192310Y0233672D01*
X0270262Y0233672D01*
X0270262Y0268318D01*
X0192310Y0268318D01*
X0286798Y0268318D02*
X0286798Y0233672D01*
X0364751Y0233672D01*
X0364751Y0268318D01*
X0286798Y0268318D01*
X0286798Y0193515D02*
X0286798Y0158869D01*
X0364751Y0158869D01*
X0364751Y0193515D01*
X0286798Y0193515D01*
X0270262Y0193515D02*
X0270262Y0158869D01*
X0192310Y0158869D01*
X0192310Y0193515D01*
X0270262Y0193515D01*
X0175774Y0193515D02*
X0175774Y0158869D01*
X0097822Y0158869D01*
X0097822Y0193515D01*
X0175774Y0193515D01*
X0081286Y0193515D02*
X0081286Y0158869D01*
X0003333Y0158869D01*
X0003333Y0193515D01*
X0081286Y0193515D01*
X0081286Y0118711D02*
X0003333Y0118711D01*
X0003333Y0084066D01*
X0081286Y0084066D01*
X0081286Y0118711D01*
X0097822Y0118711D02*
X0097822Y0084066D01*
X0175774Y0084066D01*
X0175774Y0118711D01*
X0097822Y0118711D01*
X0192310Y0118711D02*
X0192310Y0084066D01*
X0270262Y0084066D01*
X0270262Y0118711D01*
X0192310Y0118711D01*
X0286798Y0118711D02*
X0286798Y0084066D01*
X0364751Y0084066D01*
X0364751Y0118711D01*
X0286798Y0118711D01*
X0286798Y0043908D02*
X0286798Y0009263D01*
X0364751Y0009263D01*
X0364751Y0043908D01*
X0286798Y0043908D01*
X0270262Y0043908D02*
X0270262Y0009263D01*
X0192310Y0009263D01*
X0192310Y0043908D01*
X0270262Y0043908D01*
X0175774Y0043908D02*
X0175774Y0009263D01*
X0097822Y0009263D01*
X0097822Y0043908D01*
X0175774Y0043908D01*
X0081286Y0043908D02*
X0081286Y0009263D01*
X0003333Y0009263D01*
X0003333Y0043908D01*
X0081286Y0043908D01*
D12*
X0066699Y0018214D02*
X0067033Y0017880D01*
X0067033Y0016880D01*
X0067700Y0016880D02*
X0065699Y0016880D01*
X0065699Y0017880D01*
X0066032Y0018214D01*
X0066699Y0018214D01*
X0065699Y0016004D02*
X0065699Y0014670D01*
X0067700Y0014670D01*
X0067700Y0016004D01*
X0066699Y0015337D02*
X0066699Y0014670D01*
X0065699Y0013794D02*
X0065699Y0012460D01*
X0065699Y0013127D02*
X0067700Y0013127D01*
X0067367Y0011584D02*
X0067700Y0011251D01*
X0067700Y0010584D01*
X0067367Y0010250D01*
X0066699Y0010584D02*
X0066699Y0011251D01*
X0067033Y0011584D01*
X0067367Y0011584D01*
X0066699Y0010584D02*
X0066366Y0010250D01*
X0066032Y0010250D01*
X0065699Y0010584D01*
X0065699Y0011251D01*
X0066032Y0011584D01*
X0058251Y0011251D02*
X0058251Y0010584D01*
X0057918Y0010250D01*
X0057251Y0010584D02*
X0057251Y0011251D01*
X0057584Y0011584D01*
X0057918Y0011584D01*
X0058251Y0011251D01*
X0057251Y0010584D02*
X0056917Y0010250D01*
X0056583Y0010250D01*
X0056250Y0010584D01*
X0056250Y0011251D01*
X0056583Y0011584D01*
X0056250Y0012460D02*
X0058251Y0012460D01*
X0058251Y0013794D01*
X0058251Y0014670D02*
X0056250Y0014670D01*
X0056250Y0015671D01*
X0056583Y0016004D01*
X0057251Y0016004D01*
X0057584Y0015671D01*
X0057584Y0014670D01*
X0048015Y0015337D02*
X0046014Y0015337D01*
X0046014Y0014670D02*
X0046014Y0016004D01*
X0046347Y0013794D02*
X0046014Y0013461D01*
X0046014Y0012793D01*
X0046347Y0012460D01*
X0046681Y0012460D01*
X0047014Y0012793D01*
X0047014Y0013461D01*
X0047348Y0013794D01*
X0047682Y0013794D01*
X0048015Y0013461D01*
X0048015Y0012793D01*
X0047682Y0012460D01*
X0048015Y0011584D02*
X0047348Y0010917D01*
X0047348Y0011251D02*
X0047348Y0010250D01*
X0048015Y0010250D02*
X0046014Y0010250D01*
X0046014Y0011251D01*
X0046347Y0011584D01*
X0047014Y0011584D01*
X0047348Y0011251D01*
X0037779Y0011584D02*
X0035777Y0011584D01*
X0036445Y0010917D01*
X0035777Y0010250D01*
X0037779Y0010250D01*
X0037445Y0012460D02*
X0037779Y0012793D01*
X0037779Y0013461D01*
X0037445Y0013794D01*
X0037112Y0013794D01*
X0036778Y0013461D01*
X0036778Y0012793D01*
X0036445Y0012460D01*
X0036111Y0012460D01*
X0035777Y0012793D01*
X0035777Y0013461D01*
X0036111Y0013794D01*
X0036111Y0014670D02*
X0035777Y0015003D01*
X0035777Y0015671D01*
X0036111Y0016004D01*
X0036445Y0016004D01*
X0036778Y0015671D01*
X0037112Y0016004D01*
X0037445Y0016004D01*
X0037779Y0015671D01*
X0037779Y0015003D01*
X0037445Y0014670D01*
X0036778Y0015337D02*
X0036778Y0015671D01*
X0027543Y0016004D02*
X0027543Y0014670D01*
X0026208Y0016004D01*
X0025875Y0016004D01*
X0025541Y0015671D01*
X0025541Y0015003D01*
X0025875Y0014670D01*
X0025875Y0013794D02*
X0025541Y0013461D01*
X0025541Y0012793D01*
X0025875Y0012460D01*
X0026208Y0012460D01*
X0026542Y0012793D01*
X0026542Y0013461D01*
X0026876Y0013794D01*
X0027209Y0013794D01*
X0027543Y0013461D01*
X0027543Y0012793D01*
X0027209Y0012460D01*
X0027543Y0011584D02*
X0025541Y0011584D01*
X0026208Y0010917D01*
X0025541Y0010250D01*
X0027543Y0010250D01*
X0018094Y0010250D02*
X0016092Y0010250D01*
X0016759Y0010917D01*
X0016092Y0011584D01*
X0018094Y0011584D01*
X0017760Y0012460D02*
X0018094Y0012793D01*
X0018094Y0013461D01*
X0017760Y0013794D01*
X0017427Y0013794D01*
X0017093Y0013461D01*
X0017093Y0012793D01*
X0016759Y0012460D01*
X0016426Y0012460D01*
X0016092Y0012793D01*
X0016092Y0013461D01*
X0016426Y0013794D01*
X0016759Y0014670D02*
X0016092Y0015337D01*
X0018094Y0015337D01*
X0018094Y0014670D02*
X0018094Y0016004D01*
X0007858Y0013794D02*
X0005856Y0013794D01*
X0005856Y0012460D02*
X0007858Y0013794D01*
X0007858Y0012460D02*
X0005856Y0012460D01*
X0005856Y0011584D02*
X0005856Y0010250D01*
X0007858Y0010250D01*
X0007858Y0011584D01*
X0006857Y0010917D02*
X0006857Y0010250D01*
X0075935Y0010250D02*
X0075935Y0011251D01*
X0076268Y0011584D01*
X0077603Y0011584D01*
X0077936Y0011251D01*
X0077936Y0010250D01*
X0075935Y0010250D01*
X0075935Y0012460D02*
X0075935Y0013127D01*
X0075935Y0012793D02*
X0077936Y0012793D01*
X0077936Y0012460D02*
X0077936Y0013127D01*
X0077936Y0013933D02*
X0075935Y0013933D01*
X0075935Y0014934D01*
X0076268Y0015268D01*
X0076936Y0015268D01*
X0077269Y0014934D01*
X0077269Y0013933D01*
X0077269Y0014600D02*
X0077936Y0015268D01*
X0100344Y0013794D02*
X0102346Y0013794D01*
X0100344Y0012460D01*
X0102346Y0012460D01*
X0102346Y0011584D02*
X0102346Y0010250D01*
X0100344Y0010250D01*
X0100344Y0011584D01*
X0101345Y0010917D02*
X0101345Y0010250D01*
X0110580Y0010250D02*
X0111248Y0010917D01*
X0110580Y0011584D01*
X0112582Y0011584D01*
X0112249Y0012460D02*
X0112582Y0012793D01*
X0112582Y0013461D01*
X0112249Y0013794D01*
X0111915Y0013794D01*
X0111581Y0013461D01*
X0111581Y0012793D01*
X0111248Y0012460D01*
X0110914Y0012460D01*
X0110580Y0012793D01*
X0110580Y0013461D01*
X0110914Y0013794D01*
X0111248Y0014670D02*
X0110580Y0015337D01*
X0112582Y0015337D01*
X0112582Y0014670D02*
X0112582Y0016004D01*
X0112582Y0010250D02*
X0110580Y0010250D01*
X0120029Y0010250D02*
X0120696Y0010917D01*
X0120029Y0011584D01*
X0122031Y0011584D01*
X0121697Y0012460D02*
X0122031Y0012793D01*
X0122031Y0013461D01*
X0121697Y0013794D01*
X0121364Y0013794D01*
X0121030Y0013461D01*
X0121030Y0012793D01*
X0120696Y0012460D01*
X0120363Y0012460D01*
X0120029Y0012793D01*
X0120029Y0013461D01*
X0120363Y0013794D01*
X0120363Y0014670D02*
X0120029Y0015003D01*
X0120029Y0015671D01*
X0120363Y0016004D01*
X0120696Y0016004D01*
X0122031Y0014670D01*
X0122031Y0016004D01*
X0122031Y0010250D02*
X0120029Y0010250D01*
X0130265Y0010250D02*
X0130933Y0010917D01*
X0130265Y0011584D01*
X0132267Y0011584D01*
X0131934Y0012460D02*
X0132267Y0012793D01*
X0132267Y0013461D01*
X0131934Y0013794D01*
X0131600Y0013794D01*
X0131266Y0013461D01*
X0131266Y0012793D01*
X0130933Y0012460D01*
X0130599Y0012460D01*
X0130265Y0012793D01*
X0130265Y0013461D01*
X0130599Y0013794D01*
X0130599Y0014670D02*
X0130265Y0015003D01*
X0130265Y0015671D01*
X0130599Y0016004D01*
X0130933Y0016004D01*
X0131266Y0015671D01*
X0131600Y0016004D01*
X0131934Y0016004D01*
X0132267Y0015671D01*
X0132267Y0015003D01*
X0131934Y0014670D01*
X0131266Y0015337D02*
X0131266Y0015671D01*
X0132267Y0010250D02*
X0130265Y0010250D01*
X0140502Y0010250D02*
X0140502Y0011251D01*
X0140835Y0011584D01*
X0141503Y0011584D01*
X0141836Y0011251D01*
X0141836Y0010250D01*
X0141836Y0010917D02*
X0142503Y0011584D01*
X0142170Y0012460D02*
X0142503Y0012793D01*
X0142503Y0013461D01*
X0142170Y0013794D01*
X0141836Y0013794D01*
X0141503Y0013461D01*
X0141503Y0012793D01*
X0141169Y0012460D01*
X0140835Y0012460D01*
X0140502Y0012793D01*
X0140502Y0013461D01*
X0140835Y0013794D01*
X0140502Y0014670D02*
X0140502Y0016004D01*
X0140502Y0015337D02*
X0142503Y0015337D01*
X0142503Y0010250D02*
X0140502Y0010250D01*
X0150738Y0010584D02*
X0151072Y0010250D01*
X0151405Y0010250D01*
X0151739Y0010584D01*
X0151739Y0011251D01*
X0152072Y0011584D01*
X0152406Y0011584D01*
X0152740Y0011251D01*
X0152740Y0010584D01*
X0152406Y0010250D01*
X0150738Y0010584D02*
X0150738Y0011251D01*
X0151072Y0011584D01*
X0150738Y0012460D02*
X0152740Y0012460D01*
X0152740Y0013794D01*
X0152740Y0014670D02*
X0150738Y0014670D01*
X0150738Y0015671D01*
X0151072Y0016004D01*
X0151739Y0016004D01*
X0152072Y0015671D01*
X0152072Y0014670D01*
X0160187Y0014670D02*
X0162188Y0014670D01*
X0162188Y0016004D01*
X0162188Y0016880D02*
X0160187Y0016880D01*
X0160187Y0017880D01*
X0160520Y0018214D01*
X0161188Y0018214D01*
X0161521Y0017880D01*
X0161521Y0016880D01*
X0161188Y0015337D02*
X0161188Y0014670D01*
X0160187Y0014670D02*
X0160187Y0016004D01*
X0160187Y0013794D02*
X0160187Y0012460D01*
X0160187Y0013127D02*
X0162188Y0013127D01*
X0161855Y0011584D02*
X0162188Y0011251D01*
X0162188Y0010584D01*
X0161855Y0010250D01*
X0161188Y0010584D02*
X0161188Y0011251D01*
X0161521Y0011584D01*
X0161855Y0011584D01*
X0161188Y0010584D02*
X0160854Y0010250D01*
X0160520Y0010250D01*
X0160187Y0010584D01*
X0160187Y0011251D01*
X0160520Y0011584D01*
X0170423Y0011251D02*
X0170423Y0010250D01*
X0172425Y0010250D01*
X0172425Y0011251D01*
X0172091Y0011584D01*
X0170757Y0011584D01*
X0170423Y0011251D01*
X0170423Y0012460D02*
X0170423Y0013127D01*
X0170423Y0012793D02*
X0172425Y0012793D01*
X0172425Y0012460D02*
X0172425Y0013127D01*
X0172425Y0013933D02*
X0170423Y0013933D01*
X0170423Y0014934D01*
X0170757Y0015268D01*
X0171424Y0015268D01*
X0171757Y0014934D01*
X0171757Y0013933D01*
X0171757Y0014600D02*
X0172425Y0015268D01*
X0194832Y0013794D02*
X0196834Y0013794D01*
X0194832Y0012460D01*
X0196834Y0012460D01*
X0196834Y0011584D02*
X0196834Y0010250D01*
X0194832Y0010250D01*
X0194832Y0011584D01*
X0195833Y0010917D02*
X0195833Y0010250D01*
X0205069Y0010250D02*
X0205736Y0010917D01*
X0205069Y0011584D01*
X0207070Y0011584D01*
X0206737Y0012460D02*
X0207070Y0012793D01*
X0207070Y0013461D01*
X0206737Y0013794D01*
X0206403Y0013794D01*
X0206069Y0013461D01*
X0206069Y0012793D01*
X0205736Y0012460D01*
X0205402Y0012460D01*
X0205069Y0012793D01*
X0205069Y0013461D01*
X0205402Y0013794D01*
X0205736Y0014670D02*
X0205069Y0015337D01*
X0207070Y0015337D01*
X0207070Y0014670D02*
X0207070Y0016004D01*
X0214517Y0015671D02*
X0214517Y0015003D01*
X0214851Y0014670D01*
X0214851Y0013794D02*
X0214517Y0013461D01*
X0214517Y0012793D01*
X0214851Y0012460D01*
X0215185Y0012460D01*
X0215518Y0012793D01*
X0215518Y0013461D01*
X0215852Y0013794D01*
X0216186Y0013794D01*
X0216519Y0013461D01*
X0216519Y0012793D01*
X0216186Y0012460D01*
X0216519Y0011584D02*
X0214517Y0011584D01*
X0215185Y0010917D01*
X0214517Y0010250D01*
X0216519Y0010250D01*
X0216519Y0014670D02*
X0215185Y0016004D01*
X0214851Y0016004D01*
X0214517Y0015671D01*
X0216519Y0016004D02*
X0216519Y0014670D01*
X0224754Y0015003D02*
X0224754Y0015671D01*
X0225087Y0016004D01*
X0225421Y0016004D01*
X0225755Y0015671D01*
X0226088Y0016004D01*
X0226422Y0016004D01*
X0226755Y0015671D01*
X0226755Y0015003D01*
X0226422Y0014670D01*
X0226422Y0013794D02*
X0226755Y0013461D01*
X0226755Y0012793D01*
X0226422Y0012460D01*
X0225755Y0012793D02*
X0225755Y0013461D01*
X0226088Y0013794D01*
X0226422Y0013794D01*
X0225755Y0012793D02*
X0225421Y0012460D01*
X0225087Y0012460D01*
X0224754Y0012793D01*
X0224754Y0013461D01*
X0225087Y0013794D01*
X0225087Y0014670D02*
X0224754Y0015003D01*
X0225755Y0015337D02*
X0225755Y0015671D01*
X0224754Y0011584D02*
X0226755Y0011584D01*
X0226755Y0010250D02*
X0224754Y0010250D01*
X0225421Y0010917D01*
X0224754Y0011584D01*
X0234990Y0011251D02*
X0235324Y0011584D01*
X0235991Y0011584D01*
X0236324Y0011251D01*
X0236324Y0010250D01*
X0236324Y0010917D02*
X0236992Y0011584D01*
X0236658Y0012460D02*
X0236992Y0012793D01*
X0236992Y0013461D01*
X0236658Y0013794D01*
X0236324Y0013794D01*
X0235991Y0013461D01*
X0235991Y0012793D01*
X0235657Y0012460D01*
X0235324Y0012460D01*
X0234990Y0012793D01*
X0234990Y0013461D01*
X0235324Y0013794D01*
X0234990Y0014670D02*
X0234990Y0016004D01*
X0234990Y0015337D02*
X0236992Y0015337D01*
X0234990Y0011251D02*
X0234990Y0010250D01*
X0236992Y0010250D01*
X0245226Y0010584D02*
X0245560Y0010250D01*
X0245893Y0010250D01*
X0246227Y0010584D01*
X0246227Y0011251D01*
X0246561Y0011584D01*
X0246894Y0011584D01*
X0247228Y0011251D01*
X0247228Y0010584D01*
X0246894Y0010250D01*
X0245226Y0010584D02*
X0245226Y0011251D01*
X0245560Y0011584D01*
X0245226Y0012460D02*
X0247228Y0012460D01*
X0247228Y0013794D01*
X0247228Y0014670D02*
X0245226Y0014670D01*
X0245226Y0015671D01*
X0245560Y0016004D01*
X0246227Y0016004D01*
X0246561Y0015671D01*
X0246561Y0014670D01*
X0254675Y0014670D02*
X0256677Y0014670D01*
X0256677Y0016004D01*
X0256677Y0016880D02*
X0254675Y0016880D01*
X0254675Y0017880D01*
X0255009Y0018214D01*
X0255676Y0018214D01*
X0256009Y0017880D01*
X0256009Y0016880D01*
X0255676Y0015337D02*
X0255676Y0014670D01*
X0254675Y0014670D02*
X0254675Y0016004D01*
X0254675Y0013794D02*
X0254675Y0012460D01*
X0254675Y0013127D02*
X0256677Y0013127D01*
X0256343Y0011584D02*
X0256677Y0011251D01*
X0256677Y0010584D01*
X0256343Y0010250D01*
X0255676Y0010584D02*
X0255676Y0011251D01*
X0256009Y0011584D01*
X0256343Y0011584D01*
X0255676Y0010584D02*
X0255342Y0010250D01*
X0255009Y0010250D01*
X0254675Y0010584D01*
X0254675Y0011251D01*
X0255009Y0011584D01*
X0264911Y0011251D02*
X0264911Y0010250D01*
X0266913Y0010250D01*
X0266913Y0011251D01*
X0266579Y0011584D01*
X0265245Y0011584D01*
X0264911Y0011251D01*
X0264911Y0012460D02*
X0264911Y0013127D01*
X0264911Y0012793D02*
X0266913Y0012793D01*
X0266913Y0012460D02*
X0266913Y0013127D01*
X0266913Y0013933D02*
X0264911Y0013933D01*
X0264911Y0014934D01*
X0265245Y0015268D01*
X0265912Y0015268D01*
X0266246Y0014934D01*
X0266246Y0013933D01*
X0266246Y0014600D02*
X0266913Y0015268D01*
X0289321Y0013794D02*
X0291322Y0013794D01*
X0289321Y0012460D01*
X0291322Y0012460D01*
X0291322Y0011584D02*
X0291322Y0010250D01*
X0289321Y0010250D01*
X0289321Y0011584D01*
X0290321Y0010917D02*
X0290321Y0010250D01*
X0299557Y0010250D02*
X0300224Y0010917D01*
X0299557Y0011584D01*
X0301559Y0011584D01*
X0301225Y0012460D02*
X0301559Y0012793D01*
X0301559Y0013461D01*
X0301225Y0013794D01*
X0300891Y0013794D01*
X0300558Y0013461D01*
X0300558Y0012793D01*
X0300224Y0012460D01*
X0299890Y0012460D01*
X0299557Y0012793D01*
X0299557Y0013461D01*
X0299890Y0013794D01*
X0300224Y0014670D02*
X0299557Y0015337D01*
X0301559Y0015337D01*
X0301559Y0014670D02*
X0301559Y0016004D01*
X0301559Y0010250D02*
X0299557Y0010250D01*
X0309006Y0010250D02*
X0309673Y0010917D01*
X0309006Y0011584D01*
X0311007Y0011584D01*
X0310674Y0012460D02*
X0311007Y0012793D01*
X0311007Y0013461D01*
X0310674Y0013794D01*
X0310340Y0013794D01*
X0310006Y0013461D01*
X0310006Y0012793D01*
X0309673Y0012460D01*
X0309339Y0012460D01*
X0309006Y0012793D01*
X0309006Y0013461D01*
X0309339Y0013794D01*
X0309339Y0014670D02*
X0309006Y0015003D01*
X0309006Y0015671D01*
X0309339Y0016004D01*
X0309673Y0016004D01*
X0311007Y0014670D01*
X0311007Y0016004D01*
X0311007Y0010250D02*
X0309006Y0010250D01*
X0319242Y0010250D02*
X0319909Y0010917D01*
X0319242Y0011584D01*
X0321244Y0011584D01*
X0320910Y0012460D02*
X0321244Y0012793D01*
X0321244Y0013461D01*
X0320910Y0013794D01*
X0320576Y0013794D01*
X0320243Y0013461D01*
X0320243Y0012793D01*
X0319909Y0012460D01*
X0319575Y0012460D01*
X0319242Y0012793D01*
X0319242Y0013461D01*
X0319575Y0013794D01*
X0319575Y0014670D02*
X0319242Y0015003D01*
X0319242Y0015671D01*
X0319575Y0016004D01*
X0319909Y0016004D01*
X0320243Y0015671D01*
X0320576Y0016004D01*
X0320910Y0016004D01*
X0321244Y0015671D01*
X0321244Y0015003D01*
X0320910Y0014670D01*
X0320243Y0015337D02*
X0320243Y0015671D01*
X0321244Y0010250D02*
X0319242Y0010250D01*
X0329478Y0010250D02*
X0329478Y0011251D01*
X0329812Y0011584D01*
X0330479Y0011584D01*
X0330813Y0011251D01*
X0330813Y0010250D01*
X0331480Y0010250D02*
X0329478Y0010250D01*
X0330813Y0010917D02*
X0331480Y0011584D01*
X0331146Y0012460D02*
X0331480Y0012793D01*
X0331480Y0013461D01*
X0331146Y0013794D01*
X0330813Y0013794D01*
X0330479Y0013461D01*
X0330479Y0012793D01*
X0330145Y0012460D01*
X0329812Y0012460D01*
X0329478Y0012793D01*
X0329478Y0013461D01*
X0329812Y0013794D01*
X0329478Y0014670D02*
X0329478Y0016004D01*
X0329478Y0015337D02*
X0331480Y0015337D01*
X0339714Y0015671D02*
X0340048Y0016004D01*
X0340715Y0016004D01*
X0341049Y0015671D01*
X0341049Y0014670D01*
X0341716Y0014670D02*
X0339714Y0014670D01*
X0339714Y0015671D01*
X0341716Y0013794D02*
X0341716Y0012460D01*
X0339714Y0012460D01*
X0340048Y0011584D02*
X0339714Y0011251D01*
X0339714Y0010584D01*
X0340048Y0010250D01*
X0340382Y0010250D01*
X0340715Y0010584D01*
X0340715Y0011251D01*
X0341049Y0011584D01*
X0341382Y0011584D01*
X0341716Y0011251D01*
X0341716Y0010584D01*
X0341382Y0010250D01*
X0349163Y0010584D02*
X0349497Y0010250D01*
X0349830Y0010250D01*
X0350164Y0010584D01*
X0350164Y0011251D01*
X0350498Y0011584D01*
X0350831Y0011584D01*
X0351165Y0011251D01*
X0351165Y0010584D01*
X0350831Y0010250D01*
X0349163Y0010584D02*
X0349163Y0011251D01*
X0349497Y0011584D01*
X0349163Y0012460D02*
X0349163Y0013794D01*
X0349163Y0013127D02*
X0351165Y0013127D01*
X0351165Y0014670D02*
X0349163Y0014670D01*
X0349163Y0016004D01*
X0349163Y0016880D02*
X0349163Y0017880D01*
X0349497Y0018214D01*
X0350164Y0018214D01*
X0350498Y0017880D01*
X0350498Y0016880D01*
X0351165Y0016880D02*
X0349163Y0016880D01*
X0350164Y0015337D02*
X0350164Y0014670D01*
X0351165Y0014670D02*
X0351165Y0016004D01*
X0359399Y0014934D02*
X0359399Y0013933D01*
X0361401Y0013933D01*
X0360734Y0013933D02*
X0360734Y0014934D01*
X0360400Y0015268D01*
X0359733Y0015268D01*
X0359399Y0014934D01*
X0360734Y0014600D02*
X0361401Y0015268D01*
X0361401Y0013127D02*
X0361401Y0012460D01*
X0361401Y0012793D02*
X0359399Y0012793D01*
X0359399Y0012460D02*
X0359399Y0013127D01*
X0359733Y0011584D02*
X0359399Y0011251D01*
X0359399Y0010250D01*
X0361401Y0010250D01*
X0361401Y0011251D01*
X0361067Y0011584D01*
X0359733Y0011584D01*
X0359399Y0085053D02*
X0359399Y0086054D01*
X0359733Y0086388D01*
X0361067Y0086388D01*
X0361401Y0086054D01*
X0361401Y0085053D01*
X0359399Y0085053D01*
X0359399Y0087263D02*
X0359399Y0087930D01*
X0359399Y0087597D02*
X0361401Y0087597D01*
X0361401Y0087930D02*
X0361401Y0087263D01*
X0361401Y0088736D02*
X0359399Y0088736D01*
X0359399Y0089737D01*
X0359733Y0090071D01*
X0360400Y0090071D01*
X0360734Y0089737D01*
X0360734Y0088736D01*
X0360734Y0089404D02*
X0361401Y0090071D01*
X0351165Y0089473D02*
X0351165Y0090807D01*
X0351165Y0091683D02*
X0349163Y0091683D01*
X0349163Y0092684D01*
X0349497Y0093017D01*
X0350164Y0093017D01*
X0350498Y0092684D01*
X0350498Y0091683D01*
X0350164Y0090140D02*
X0350164Y0089473D01*
X0349163Y0089473D02*
X0351165Y0089473D01*
X0351165Y0087930D02*
X0349163Y0087930D01*
X0349163Y0087263D02*
X0349163Y0088598D01*
X0349163Y0089473D02*
X0349163Y0090807D01*
X0349497Y0086388D02*
X0349163Y0086054D01*
X0349163Y0085387D01*
X0349497Y0085053D01*
X0349830Y0085053D01*
X0350164Y0085387D01*
X0350164Y0086054D01*
X0350498Y0086388D01*
X0350831Y0086388D01*
X0351165Y0086054D01*
X0351165Y0085387D01*
X0350831Y0085053D01*
X0341716Y0085387D02*
X0341382Y0085053D01*
X0341716Y0085387D02*
X0341716Y0086054D01*
X0341382Y0086388D01*
X0341049Y0086388D01*
X0340715Y0086054D01*
X0340715Y0085387D01*
X0340382Y0085053D01*
X0340048Y0085053D01*
X0339714Y0085387D01*
X0339714Y0086054D01*
X0340048Y0086388D01*
X0339714Y0087263D02*
X0341716Y0087263D01*
X0341716Y0088598D01*
X0341716Y0089473D02*
X0339714Y0089473D01*
X0339714Y0090474D01*
X0340048Y0090807D01*
X0340715Y0090807D01*
X0341049Y0090474D01*
X0341049Y0089473D01*
X0331480Y0090140D02*
X0329478Y0090140D01*
X0329478Y0089473D02*
X0329478Y0090807D01*
X0329812Y0088598D02*
X0329478Y0088264D01*
X0329478Y0087597D01*
X0329812Y0087263D01*
X0330145Y0087263D01*
X0330479Y0087597D01*
X0330479Y0088264D01*
X0330813Y0088598D01*
X0331146Y0088598D01*
X0331480Y0088264D01*
X0331480Y0087597D01*
X0331146Y0087263D01*
X0331480Y0086388D02*
X0330813Y0085720D01*
X0330813Y0086054D02*
X0330813Y0085053D01*
X0331480Y0085053D02*
X0329478Y0085053D01*
X0329478Y0086054D01*
X0329812Y0086388D01*
X0330479Y0086388D01*
X0330813Y0086054D01*
X0321244Y0086388D02*
X0319242Y0086388D01*
X0319909Y0085720D01*
X0319242Y0085053D01*
X0321244Y0085053D01*
X0320910Y0087263D02*
X0321244Y0087597D01*
X0321244Y0088264D01*
X0320910Y0088598D01*
X0320576Y0088598D01*
X0320243Y0088264D01*
X0320243Y0087597D01*
X0319909Y0087263D01*
X0319575Y0087263D01*
X0319242Y0087597D01*
X0319242Y0088264D01*
X0319575Y0088598D01*
X0319575Y0089473D02*
X0319242Y0089807D01*
X0319242Y0090474D01*
X0319575Y0090807D01*
X0319909Y0090807D01*
X0320243Y0090474D01*
X0320576Y0090807D01*
X0320910Y0090807D01*
X0321244Y0090474D01*
X0321244Y0089807D01*
X0320910Y0089473D01*
X0320243Y0090140D02*
X0320243Y0090474D01*
X0311007Y0090807D02*
X0311007Y0089473D01*
X0309673Y0090807D01*
X0309339Y0090807D01*
X0309006Y0090474D01*
X0309006Y0089807D01*
X0309339Y0089473D01*
X0309339Y0088598D02*
X0309006Y0088264D01*
X0309006Y0087597D01*
X0309339Y0087263D01*
X0309673Y0087263D01*
X0310006Y0087597D01*
X0310006Y0088264D01*
X0310340Y0088598D01*
X0310674Y0088598D01*
X0311007Y0088264D01*
X0311007Y0087597D01*
X0310674Y0087263D01*
X0311007Y0086388D02*
X0309006Y0086388D01*
X0309673Y0085720D01*
X0309006Y0085053D01*
X0311007Y0085053D01*
X0301559Y0085053D02*
X0299557Y0085053D01*
X0300224Y0085720D01*
X0299557Y0086388D01*
X0301559Y0086388D01*
X0301225Y0087263D02*
X0301559Y0087597D01*
X0301559Y0088264D01*
X0301225Y0088598D01*
X0300891Y0088598D01*
X0300558Y0088264D01*
X0300558Y0087597D01*
X0300224Y0087263D01*
X0299890Y0087263D01*
X0299557Y0087597D01*
X0299557Y0088264D01*
X0299890Y0088598D01*
X0300224Y0089473D02*
X0299557Y0090140D01*
X0301559Y0090140D01*
X0301559Y0089473D02*
X0301559Y0090807D01*
X0291322Y0088598D02*
X0289321Y0088598D01*
X0289321Y0087263D02*
X0291322Y0088598D01*
X0291322Y0087263D02*
X0289321Y0087263D01*
X0289321Y0086388D02*
X0289321Y0085053D01*
X0291322Y0085053D01*
X0291322Y0086388D01*
X0290321Y0085720D02*
X0290321Y0085053D01*
X0266913Y0085053D02*
X0266913Y0086054D01*
X0266579Y0086388D01*
X0265245Y0086388D01*
X0264911Y0086054D01*
X0264911Y0085053D01*
X0266913Y0085053D01*
X0266913Y0087263D02*
X0266913Y0087930D01*
X0266913Y0087597D02*
X0264911Y0087597D01*
X0264911Y0087930D02*
X0264911Y0087263D01*
X0264911Y0088736D02*
X0264911Y0089737D01*
X0265245Y0090071D01*
X0265912Y0090071D01*
X0266246Y0089737D01*
X0266246Y0088736D01*
X0266913Y0088736D02*
X0264911Y0088736D01*
X0266246Y0089404D02*
X0266913Y0090071D01*
X0256677Y0089473D02*
X0256677Y0090807D01*
X0256677Y0091683D02*
X0254675Y0091683D01*
X0254675Y0092684D01*
X0255009Y0093017D01*
X0255676Y0093017D01*
X0256009Y0092684D01*
X0256009Y0091683D01*
X0255676Y0090140D02*
X0255676Y0089473D01*
X0254675Y0089473D02*
X0256677Y0089473D01*
X0256677Y0087930D02*
X0254675Y0087930D01*
X0254675Y0087263D02*
X0254675Y0088598D01*
X0254675Y0089473D02*
X0254675Y0090807D01*
X0255009Y0086388D02*
X0254675Y0086054D01*
X0254675Y0085387D01*
X0255009Y0085053D01*
X0255342Y0085053D01*
X0255676Y0085387D01*
X0255676Y0086054D01*
X0256009Y0086388D01*
X0256343Y0086388D01*
X0256677Y0086054D01*
X0256677Y0085387D01*
X0256343Y0085053D01*
X0247228Y0085387D02*
X0246894Y0085053D01*
X0247228Y0085387D02*
X0247228Y0086054D01*
X0246894Y0086388D01*
X0246561Y0086388D01*
X0246227Y0086054D01*
X0246227Y0085387D01*
X0245893Y0085053D01*
X0245560Y0085053D01*
X0245226Y0085387D01*
X0245226Y0086054D01*
X0245560Y0086388D01*
X0245226Y0087263D02*
X0247228Y0087263D01*
X0247228Y0088598D01*
X0247228Y0089473D02*
X0245226Y0089473D01*
X0245226Y0090474D01*
X0245560Y0090807D01*
X0246227Y0090807D01*
X0246561Y0090474D01*
X0246561Y0089473D01*
X0236992Y0090140D02*
X0234990Y0090140D01*
X0234990Y0089473D02*
X0234990Y0090807D01*
X0235324Y0088598D02*
X0234990Y0088264D01*
X0234990Y0087597D01*
X0235324Y0087263D01*
X0235657Y0087263D01*
X0235991Y0087597D01*
X0235991Y0088264D01*
X0236324Y0088598D01*
X0236658Y0088598D01*
X0236992Y0088264D01*
X0236992Y0087597D01*
X0236658Y0087263D01*
X0236992Y0086388D02*
X0236324Y0085720D01*
X0236324Y0086054D02*
X0236324Y0085053D01*
X0236992Y0085053D02*
X0234990Y0085053D01*
X0234990Y0086054D01*
X0235324Y0086388D01*
X0235991Y0086388D01*
X0236324Y0086054D01*
X0226755Y0086388D02*
X0224754Y0086388D01*
X0225421Y0085720D01*
X0224754Y0085053D01*
X0226755Y0085053D01*
X0226422Y0087263D02*
X0226755Y0087597D01*
X0226755Y0088264D01*
X0226422Y0088598D01*
X0226088Y0088598D01*
X0225755Y0088264D01*
X0225755Y0087597D01*
X0225421Y0087263D01*
X0225087Y0087263D01*
X0224754Y0087597D01*
X0224754Y0088264D01*
X0225087Y0088598D01*
X0225087Y0089473D02*
X0224754Y0089807D01*
X0224754Y0090474D01*
X0225087Y0090807D01*
X0225421Y0090807D01*
X0225755Y0090474D01*
X0226088Y0090807D01*
X0226422Y0090807D01*
X0226755Y0090474D01*
X0226755Y0089807D01*
X0226422Y0089473D01*
X0225755Y0090140D02*
X0225755Y0090474D01*
X0216519Y0090807D02*
X0216519Y0089473D01*
X0215185Y0090807D01*
X0214851Y0090807D01*
X0214517Y0090474D01*
X0214517Y0089807D01*
X0214851Y0089473D01*
X0214851Y0088598D02*
X0214517Y0088264D01*
X0214517Y0087597D01*
X0214851Y0087263D01*
X0215185Y0087263D01*
X0215518Y0087597D01*
X0215518Y0088264D01*
X0215852Y0088598D01*
X0216186Y0088598D01*
X0216519Y0088264D01*
X0216519Y0087597D01*
X0216186Y0087263D01*
X0216519Y0086388D02*
X0214517Y0086388D01*
X0215185Y0085720D01*
X0214517Y0085053D01*
X0216519Y0085053D01*
X0207070Y0085053D02*
X0205069Y0085053D01*
X0205736Y0085720D01*
X0205069Y0086388D01*
X0207070Y0086388D01*
X0206737Y0087263D02*
X0207070Y0087597D01*
X0207070Y0088264D01*
X0206737Y0088598D01*
X0206403Y0088598D01*
X0206069Y0088264D01*
X0206069Y0087597D01*
X0205736Y0087263D01*
X0205402Y0087263D01*
X0205069Y0087597D01*
X0205069Y0088264D01*
X0205402Y0088598D01*
X0205736Y0089473D02*
X0205069Y0090140D01*
X0207070Y0090140D01*
X0207070Y0089473D02*
X0207070Y0090807D01*
X0196834Y0088598D02*
X0194832Y0088598D01*
X0194832Y0087263D02*
X0196834Y0088598D01*
X0196834Y0087263D02*
X0194832Y0087263D01*
X0194832Y0086388D02*
X0194832Y0085053D01*
X0196834Y0085053D01*
X0196834Y0086388D01*
X0195833Y0085720D02*
X0195833Y0085053D01*
X0172425Y0085053D02*
X0172425Y0086054D01*
X0172091Y0086388D01*
X0170757Y0086388D01*
X0170423Y0086054D01*
X0170423Y0085053D01*
X0172425Y0085053D01*
X0172425Y0087263D02*
X0172425Y0087930D01*
X0172425Y0087597D02*
X0170423Y0087597D01*
X0170423Y0087930D02*
X0170423Y0087263D01*
X0170423Y0088736D02*
X0170423Y0089737D01*
X0170757Y0090071D01*
X0171424Y0090071D01*
X0171757Y0089737D01*
X0171757Y0088736D01*
X0171757Y0089404D02*
X0172425Y0090071D01*
X0172425Y0088736D02*
X0170423Y0088736D01*
X0162188Y0089473D02*
X0162188Y0090807D01*
X0162188Y0091683D02*
X0160187Y0091683D01*
X0160187Y0092684D01*
X0160520Y0093017D01*
X0161188Y0093017D01*
X0161521Y0092684D01*
X0161521Y0091683D01*
X0161188Y0090140D02*
X0161188Y0089473D01*
X0162188Y0089473D02*
X0160187Y0089473D01*
X0160187Y0090807D01*
X0160187Y0088598D02*
X0160187Y0087263D01*
X0160187Y0087930D02*
X0162188Y0087930D01*
X0161855Y0086388D02*
X0162188Y0086054D01*
X0162188Y0085387D01*
X0161855Y0085053D01*
X0161188Y0085387D02*
X0161188Y0086054D01*
X0161521Y0086388D01*
X0161855Y0086388D01*
X0161188Y0085387D02*
X0160854Y0085053D01*
X0160520Y0085053D01*
X0160187Y0085387D01*
X0160187Y0086054D01*
X0160520Y0086388D01*
X0152740Y0086054D02*
X0152740Y0085387D01*
X0152406Y0085053D01*
X0151739Y0085387D02*
X0151739Y0086054D01*
X0152072Y0086388D01*
X0152406Y0086388D01*
X0152740Y0086054D01*
X0151739Y0085387D02*
X0151405Y0085053D01*
X0151072Y0085053D01*
X0150738Y0085387D01*
X0150738Y0086054D01*
X0151072Y0086388D01*
X0150738Y0087263D02*
X0152740Y0087263D01*
X0152740Y0088598D01*
X0152740Y0089473D02*
X0150738Y0089473D01*
X0150738Y0090474D01*
X0151072Y0090807D01*
X0151739Y0090807D01*
X0152072Y0090474D01*
X0152072Y0089473D01*
X0142503Y0090140D02*
X0140502Y0090140D01*
X0140502Y0089473D02*
X0140502Y0090807D01*
X0140835Y0088598D02*
X0140502Y0088264D01*
X0140502Y0087597D01*
X0140835Y0087263D01*
X0141169Y0087263D01*
X0141503Y0087597D01*
X0141503Y0088264D01*
X0141836Y0088598D01*
X0142170Y0088598D01*
X0142503Y0088264D01*
X0142503Y0087597D01*
X0142170Y0087263D01*
X0142503Y0086388D02*
X0141836Y0085720D01*
X0141836Y0086054D02*
X0141836Y0085053D01*
X0142503Y0085053D02*
X0140502Y0085053D01*
X0140502Y0086054D01*
X0140835Y0086388D01*
X0141503Y0086388D01*
X0141836Y0086054D01*
X0132267Y0086388D02*
X0130265Y0086388D01*
X0130933Y0085720D01*
X0130265Y0085053D01*
X0132267Y0085053D01*
X0131934Y0087263D02*
X0132267Y0087597D01*
X0132267Y0088264D01*
X0131934Y0088598D01*
X0131600Y0088598D01*
X0131266Y0088264D01*
X0131266Y0087597D01*
X0130933Y0087263D01*
X0130599Y0087263D01*
X0130265Y0087597D01*
X0130265Y0088264D01*
X0130599Y0088598D01*
X0130599Y0089473D02*
X0130265Y0089807D01*
X0130265Y0090474D01*
X0130599Y0090807D01*
X0130933Y0090807D01*
X0131266Y0090474D01*
X0131600Y0090807D01*
X0131934Y0090807D01*
X0132267Y0090474D01*
X0132267Y0089807D01*
X0131934Y0089473D01*
X0131266Y0090140D02*
X0131266Y0090474D01*
X0122031Y0090807D02*
X0122031Y0089473D01*
X0120696Y0090807D01*
X0120363Y0090807D01*
X0120029Y0090474D01*
X0120029Y0089807D01*
X0120363Y0089473D01*
X0120363Y0088598D02*
X0120029Y0088264D01*
X0120029Y0087597D01*
X0120363Y0087263D01*
X0120696Y0087263D01*
X0121030Y0087597D01*
X0121030Y0088264D01*
X0121364Y0088598D01*
X0121697Y0088598D01*
X0122031Y0088264D01*
X0122031Y0087597D01*
X0121697Y0087263D01*
X0122031Y0086388D02*
X0120029Y0086388D01*
X0120696Y0085720D01*
X0120029Y0085053D01*
X0122031Y0085053D01*
X0112582Y0085053D02*
X0110580Y0085053D01*
X0111248Y0085720D01*
X0110580Y0086388D01*
X0112582Y0086388D01*
X0112249Y0087263D02*
X0112582Y0087597D01*
X0112582Y0088264D01*
X0112249Y0088598D01*
X0111915Y0088598D01*
X0111581Y0088264D01*
X0111581Y0087597D01*
X0111248Y0087263D01*
X0110914Y0087263D01*
X0110580Y0087597D01*
X0110580Y0088264D01*
X0110914Y0088598D01*
X0111248Y0089473D02*
X0110580Y0090140D01*
X0112582Y0090140D01*
X0112582Y0089473D02*
X0112582Y0090807D01*
X0102346Y0088598D02*
X0100344Y0088598D01*
X0100344Y0087263D02*
X0102346Y0088598D01*
X0102346Y0087263D02*
X0100344Y0087263D01*
X0100344Y0086388D02*
X0100344Y0085053D01*
X0102346Y0085053D01*
X0102346Y0086388D01*
X0101345Y0085720D02*
X0101345Y0085053D01*
X0077936Y0085053D02*
X0077936Y0086054D01*
X0077603Y0086388D01*
X0076268Y0086388D01*
X0075935Y0086054D01*
X0075935Y0085053D01*
X0077936Y0085053D01*
X0077936Y0087263D02*
X0077936Y0087930D01*
X0077936Y0087597D02*
X0075935Y0087597D01*
X0075935Y0087930D02*
X0075935Y0087263D01*
X0075935Y0088736D02*
X0075935Y0089737D01*
X0076268Y0090071D01*
X0076936Y0090071D01*
X0077269Y0089737D01*
X0077269Y0088736D01*
X0077936Y0088736D02*
X0075935Y0088736D01*
X0077269Y0089404D02*
X0077936Y0090071D01*
X0067700Y0089473D02*
X0067700Y0090807D01*
X0067700Y0091683D02*
X0065699Y0091683D01*
X0065699Y0092684D01*
X0066032Y0093017D01*
X0066699Y0093017D01*
X0067033Y0092684D01*
X0067033Y0091683D01*
X0066699Y0090140D02*
X0066699Y0089473D01*
X0065699Y0089473D02*
X0067700Y0089473D01*
X0067700Y0087930D02*
X0065699Y0087930D01*
X0065699Y0087263D02*
X0065699Y0088598D01*
X0065699Y0089473D02*
X0065699Y0090807D01*
X0066032Y0086388D02*
X0065699Y0086054D01*
X0065699Y0085387D01*
X0066032Y0085053D01*
X0066366Y0085053D01*
X0066699Y0085387D01*
X0066699Y0086054D01*
X0067033Y0086388D01*
X0067367Y0086388D01*
X0067700Y0086054D01*
X0067700Y0085387D01*
X0067367Y0085053D01*
X0058251Y0085387D02*
X0057918Y0085053D01*
X0058251Y0085387D02*
X0058251Y0086054D01*
X0057918Y0086388D01*
X0057584Y0086388D01*
X0057251Y0086054D01*
X0057251Y0085387D01*
X0056917Y0085053D01*
X0056583Y0085053D01*
X0056250Y0085387D01*
X0056250Y0086054D01*
X0056583Y0086388D01*
X0056250Y0087263D02*
X0058251Y0087263D01*
X0058251Y0088598D01*
X0058251Y0089473D02*
X0056250Y0089473D01*
X0056250Y0090474D01*
X0056583Y0090807D01*
X0057251Y0090807D01*
X0057584Y0090474D01*
X0057584Y0089473D01*
X0048015Y0090140D02*
X0046014Y0090140D01*
X0046014Y0089473D02*
X0046014Y0090807D01*
X0046347Y0088598D02*
X0046014Y0088264D01*
X0046014Y0087597D01*
X0046347Y0087263D01*
X0046681Y0087263D01*
X0047014Y0087597D01*
X0047014Y0088264D01*
X0047348Y0088598D01*
X0047682Y0088598D01*
X0048015Y0088264D01*
X0048015Y0087597D01*
X0047682Y0087263D01*
X0048015Y0086388D02*
X0047348Y0085720D01*
X0047348Y0086054D02*
X0047348Y0085053D01*
X0048015Y0085053D02*
X0046014Y0085053D01*
X0046014Y0086054D01*
X0046347Y0086388D01*
X0047014Y0086388D01*
X0047348Y0086054D01*
X0037779Y0086388D02*
X0035777Y0086388D01*
X0036445Y0085720D01*
X0035777Y0085053D01*
X0037779Y0085053D01*
X0037445Y0087263D02*
X0037779Y0087597D01*
X0037779Y0088264D01*
X0037445Y0088598D01*
X0037112Y0088598D01*
X0036778Y0088264D01*
X0036778Y0087597D01*
X0036445Y0087263D01*
X0036111Y0087263D01*
X0035777Y0087597D01*
X0035777Y0088264D01*
X0036111Y0088598D01*
X0036111Y0089473D02*
X0035777Y0089807D01*
X0035777Y0090474D01*
X0036111Y0090807D01*
X0036445Y0090807D01*
X0036778Y0090474D01*
X0037112Y0090807D01*
X0037445Y0090807D01*
X0037779Y0090474D01*
X0037779Y0089807D01*
X0037445Y0089473D01*
X0036778Y0090140D02*
X0036778Y0090474D01*
X0027543Y0090807D02*
X0027543Y0089473D01*
X0026208Y0090807D01*
X0025875Y0090807D01*
X0025541Y0090474D01*
X0025541Y0089807D01*
X0025875Y0089473D01*
X0025875Y0088598D02*
X0025541Y0088264D01*
X0025541Y0087597D01*
X0025875Y0087263D01*
X0026208Y0087263D01*
X0026542Y0087597D01*
X0026542Y0088264D01*
X0026876Y0088598D01*
X0027209Y0088598D01*
X0027543Y0088264D01*
X0027543Y0087597D01*
X0027209Y0087263D01*
X0027543Y0086388D02*
X0025541Y0086388D01*
X0026208Y0085720D01*
X0025541Y0085053D01*
X0027543Y0085053D01*
X0018094Y0085053D02*
X0016092Y0085053D01*
X0016759Y0085720D01*
X0016092Y0086388D01*
X0018094Y0086388D01*
X0017760Y0087263D02*
X0018094Y0087597D01*
X0018094Y0088264D01*
X0017760Y0088598D01*
X0017427Y0088598D01*
X0017093Y0088264D01*
X0017093Y0087597D01*
X0016759Y0087263D01*
X0016426Y0087263D01*
X0016092Y0087597D01*
X0016092Y0088264D01*
X0016426Y0088598D01*
X0016759Y0089473D02*
X0016092Y0090140D01*
X0018094Y0090140D01*
X0018094Y0089473D02*
X0018094Y0090807D01*
X0007858Y0088598D02*
X0005856Y0088598D01*
X0005856Y0087263D02*
X0007858Y0088598D01*
X0007858Y0087263D02*
X0005856Y0087263D01*
X0005856Y0086388D02*
X0005856Y0085053D01*
X0007858Y0085053D01*
X0007858Y0086388D01*
X0006857Y0085720D02*
X0006857Y0085053D01*
X0006857Y0159856D02*
X0006857Y0160524D01*
X0007858Y0161191D02*
X0007858Y0159856D01*
X0005856Y0159856D01*
X0005856Y0161191D01*
X0005856Y0162066D02*
X0007858Y0163401D01*
X0005856Y0163401D01*
X0005856Y0162066D02*
X0007858Y0162066D01*
X0016092Y0162400D02*
X0016426Y0162066D01*
X0016759Y0162066D01*
X0017093Y0162400D01*
X0017093Y0163067D01*
X0017427Y0163401D01*
X0017760Y0163401D01*
X0018094Y0163067D01*
X0018094Y0162400D01*
X0017760Y0162066D01*
X0018094Y0161191D02*
X0016092Y0161191D01*
X0016759Y0160524D01*
X0016092Y0159856D01*
X0018094Y0159856D01*
X0016092Y0162400D02*
X0016092Y0163067D01*
X0016426Y0163401D01*
X0016759Y0164276D02*
X0016092Y0164943D01*
X0018094Y0164943D01*
X0018094Y0164276D02*
X0018094Y0165611D01*
X0025541Y0165277D02*
X0025541Y0164610D01*
X0025875Y0164276D01*
X0025875Y0163401D02*
X0025541Y0163067D01*
X0025541Y0162400D01*
X0025875Y0162066D01*
X0026208Y0162066D01*
X0026542Y0162400D01*
X0026542Y0163067D01*
X0026876Y0163401D01*
X0027209Y0163401D01*
X0027543Y0163067D01*
X0027543Y0162400D01*
X0027209Y0162066D01*
X0027543Y0161191D02*
X0025541Y0161191D01*
X0026208Y0160524D01*
X0025541Y0159856D01*
X0027543Y0159856D01*
X0027543Y0164276D02*
X0026208Y0165611D01*
X0025875Y0165611D01*
X0025541Y0165277D01*
X0027543Y0165611D02*
X0027543Y0164276D01*
X0035777Y0164610D02*
X0035777Y0165277D01*
X0036111Y0165611D01*
X0036445Y0165611D01*
X0036778Y0165277D01*
X0037112Y0165611D01*
X0037445Y0165611D01*
X0037779Y0165277D01*
X0037779Y0164610D01*
X0037445Y0164276D01*
X0037445Y0163401D02*
X0037779Y0163067D01*
X0037779Y0162400D01*
X0037445Y0162066D01*
X0036778Y0162400D02*
X0036778Y0163067D01*
X0037112Y0163401D01*
X0037445Y0163401D01*
X0036778Y0162400D02*
X0036445Y0162066D01*
X0036111Y0162066D01*
X0035777Y0162400D01*
X0035777Y0163067D01*
X0036111Y0163401D01*
X0036111Y0164276D02*
X0035777Y0164610D01*
X0036778Y0164943D02*
X0036778Y0165277D01*
X0035777Y0161191D02*
X0037779Y0161191D01*
X0037779Y0159856D02*
X0035777Y0159856D01*
X0036445Y0160524D01*
X0035777Y0161191D01*
X0046014Y0160857D02*
X0046014Y0159856D01*
X0048015Y0159856D01*
X0047348Y0159856D02*
X0047348Y0160857D01*
X0047014Y0161191D01*
X0046347Y0161191D01*
X0046014Y0160857D01*
X0046347Y0162066D02*
X0046681Y0162066D01*
X0047014Y0162400D01*
X0047014Y0163067D01*
X0047348Y0163401D01*
X0047682Y0163401D01*
X0048015Y0163067D01*
X0048015Y0162400D01*
X0047682Y0162066D01*
X0048015Y0161191D02*
X0047348Y0160524D01*
X0046347Y0162066D02*
X0046014Y0162400D01*
X0046014Y0163067D01*
X0046347Y0163401D01*
X0046014Y0164276D02*
X0046014Y0165611D01*
X0046014Y0164943D02*
X0048015Y0164943D01*
X0056250Y0165277D02*
X0056583Y0165611D01*
X0057251Y0165611D01*
X0057584Y0165277D01*
X0057584Y0164276D01*
X0058251Y0164276D02*
X0056250Y0164276D01*
X0056250Y0165277D01*
X0058251Y0163401D02*
X0058251Y0162066D01*
X0056250Y0162066D01*
X0056583Y0161191D02*
X0056250Y0160857D01*
X0056250Y0160190D01*
X0056583Y0159856D01*
X0056917Y0159856D01*
X0057251Y0160190D01*
X0057251Y0160857D01*
X0057584Y0161191D01*
X0057918Y0161191D01*
X0058251Y0160857D01*
X0058251Y0160190D01*
X0057918Y0159856D01*
X0065699Y0160190D02*
X0066032Y0159856D01*
X0066366Y0159856D01*
X0066699Y0160190D01*
X0066699Y0160857D01*
X0067033Y0161191D01*
X0067367Y0161191D01*
X0067700Y0160857D01*
X0067700Y0160190D01*
X0067367Y0159856D01*
X0065699Y0160190D02*
X0065699Y0160857D01*
X0066032Y0161191D01*
X0065699Y0162066D02*
X0065699Y0163401D01*
X0065699Y0162733D02*
X0067700Y0162733D01*
X0067700Y0164276D02*
X0065699Y0164276D01*
X0065699Y0165611D01*
X0065699Y0166486D02*
X0065699Y0167487D01*
X0066032Y0167820D01*
X0066699Y0167820D01*
X0067033Y0167487D01*
X0067033Y0166486D01*
X0067700Y0166486D02*
X0065699Y0166486D01*
X0066699Y0164943D02*
X0066699Y0164276D01*
X0067700Y0164276D02*
X0067700Y0165611D01*
X0075935Y0164540D02*
X0076268Y0164874D01*
X0076936Y0164874D01*
X0077269Y0164540D01*
X0077269Y0163539D01*
X0077936Y0163539D02*
X0075935Y0163539D01*
X0075935Y0164540D01*
X0077269Y0164207D02*
X0077936Y0164874D01*
X0077936Y0162733D02*
X0077936Y0162066D01*
X0077936Y0162400D02*
X0075935Y0162400D01*
X0075935Y0162733D02*
X0075935Y0162066D01*
X0076268Y0161191D02*
X0075935Y0160857D01*
X0075935Y0159856D01*
X0077936Y0159856D01*
X0077936Y0160857D01*
X0077603Y0161191D01*
X0076268Y0161191D01*
X0100344Y0161191D02*
X0100344Y0159856D01*
X0102346Y0159856D01*
X0102346Y0161191D01*
X0102346Y0162066D02*
X0100344Y0162066D01*
X0102346Y0163401D01*
X0100344Y0163401D01*
X0101345Y0160524D02*
X0101345Y0159856D01*
X0110580Y0159856D02*
X0111248Y0160524D01*
X0110580Y0161191D01*
X0112582Y0161191D01*
X0112249Y0162066D02*
X0112582Y0162400D01*
X0112582Y0163067D01*
X0112249Y0163401D01*
X0111915Y0163401D01*
X0111581Y0163067D01*
X0111581Y0162400D01*
X0111248Y0162066D01*
X0110914Y0162066D01*
X0110580Y0162400D01*
X0110580Y0163067D01*
X0110914Y0163401D01*
X0111248Y0164276D02*
X0110580Y0164943D01*
X0112582Y0164943D01*
X0112582Y0164276D02*
X0112582Y0165611D01*
X0112582Y0159856D02*
X0110580Y0159856D01*
X0120029Y0159856D02*
X0120696Y0160524D01*
X0120029Y0161191D01*
X0122031Y0161191D01*
X0121697Y0162066D02*
X0122031Y0162400D01*
X0122031Y0163067D01*
X0121697Y0163401D01*
X0121364Y0163401D01*
X0121030Y0163067D01*
X0121030Y0162400D01*
X0120696Y0162066D01*
X0120363Y0162066D01*
X0120029Y0162400D01*
X0120029Y0163067D01*
X0120363Y0163401D01*
X0120363Y0164276D02*
X0120029Y0164610D01*
X0120029Y0165277D01*
X0120363Y0165611D01*
X0120696Y0165611D01*
X0122031Y0164276D01*
X0122031Y0165611D01*
X0122031Y0159856D02*
X0120029Y0159856D01*
X0130265Y0159856D02*
X0130933Y0160524D01*
X0130265Y0161191D01*
X0132267Y0161191D01*
X0131934Y0162066D02*
X0132267Y0162400D01*
X0132267Y0163067D01*
X0131934Y0163401D01*
X0131600Y0163401D01*
X0131266Y0163067D01*
X0131266Y0162400D01*
X0130933Y0162066D01*
X0130599Y0162066D01*
X0130265Y0162400D01*
X0130265Y0163067D01*
X0130599Y0163401D01*
X0130599Y0164276D02*
X0130265Y0164610D01*
X0130265Y0165277D01*
X0130599Y0165611D01*
X0130933Y0165611D01*
X0131266Y0165277D01*
X0131600Y0165611D01*
X0131934Y0165611D01*
X0132267Y0165277D01*
X0132267Y0164610D01*
X0131934Y0164276D01*
X0131266Y0164943D02*
X0131266Y0165277D01*
X0132267Y0159856D02*
X0130265Y0159856D01*
X0140502Y0159856D02*
X0140502Y0160857D01*
X0140835Y0161191D01*
X0141503Y0161191D01*
X0141836Y0160857D01*
X0141836Y0159856D01*
X0142503Y0159856D02*
X0140502Y0159856D01*
X0141836Y0160524D02*
X0142503Y0161191D01*
X0142170Y0162066D02*
X0142503Y0162400D01*
X0142503Y0163067D01*
X0142170Y0163401D01*
X0141836Y0163401D01*
X0141503Y0163067D01*
X0141503Y0162400D01*
X0141169Y0162066D01*
X0140835Y0162066D01*
X0140502Y0162400D01*
X0140502Y0163067D01*
X0140835Y0163401D01*
X0140502Y0164276D02*
X0140502Y0165611D01*
X0140502Y0164943D02*
X0142503Y0164943D01*
X0150738Y0165277D02*
X0151072Y0165611D01*
X0151739Y0165611D01*
X0152072Y0165277D01*
X0152072Y0164276D01*
X0152740Y0164276D02*
X0150738Y0164276D01*
X0150738Y0165277D01*
X0152740Y0163401D02*
X0152740Y0162066D01*
X0150738Y0162066D01*
X0151072Y0161191D02*
X0150738Y0160857D01*
X0150738Y0160190D01*
X0151072Y0159856D01*
X0151405Y0159856D01*
X0151739Y0160190D01*
X0151739Y0160857D01*
X0152072Y0161191D01*
X0152406Y0161191D01*
X0152740Y0160857D01*
X0152740Y0160190D01*
X0152406Y0159856D01*
X0160187Y0160190D02*
X0160520Y0159856D01*
X0160854Y0159856D01*
X0161188Y0160190D01*
X0161188Y0160857D01*
X0161521Y0161191D01*
X0161855Y0161191D01*
X0162188Y0160857D01*
X0162188Y0160190D01*
X0161855Y0159856D01*
X0160187Y0160190D02*
X0160187Y0160857D01*
X0160520Y0161191D01*
X0160187Y0162066D02*
X0160187Y0163401D01*
X0160187Y0162733D02*
X0162188Y0162733D01*
X0162188Y0164276D02*
X0162188Y0165611D01*
X0162188Y0166486D02*
X0160187Y0166486D01*
X0160187Y0167487D01*
X0160520Y0167820D01*
X0161188Y0167820D01*
X0161521Y0167487D01*
X0161521Y0166486D01*
X0161188Y0164943D02*
X0161188Y0164276D01*
X0162188Y0164276D02*
X0160187Y0164276D01*
X0160187Y0165611D01*
X0170423Y0164540D02*
X0170757Y0164874D01*
X0171424Y0164874D01*
X0171757Y0164540D01*
X0171757Y0163539D01*
X0171757Y0164207D02*
X0172425Y0164874D01*
X0172425Y0163539D02*
X0170423Y0163539D01*
X0170423Y0164540D01*
X0170423Y0162733D02*
X0170423Y0162066D01*
X0170423Y0162400D02*
X0172425Y0162400D01*
X0172425Y0162733D02*
X0172425Y0162066D01*
X0172091Y0161191D02*
X0170757Y0161191D01*
X0170423Y0160857D01*
X0170423Y0159856D01*
X0172425Y0159856D01*
X0172425Y0160857D01*
X0172091Y0161191D01*
X0194832Y0161191D02*
X0194832Y0159856D01*
X0196834Y0159856D01*
X0196834Y0161191D01*
X0196834Y0162066D02*
X0194832Y0162066D01*
X0196834Y0163401D01*
X0194832Y0163401D01*
X0195833Y0160524D02*
X0195833Y0159856D01*
X0205069Y0159856D02*
X0205736Y0160524D01*
X0205069Y0161191D01*
X0207070Y0161191D01*
X0206737Y0162066D02*
X0207070Y0162400D01*
X0207070Y0163067D01*
X0206737Y0163401D01*
X0206403Y0163401D01*
X0206069Y0163067D01*
X0206069Y0162400D01*
X0205736Y0162066D01*
X0205402Y0162066D01*
X0205069Y0162400D01*
X0205069Y0163067D01*
X0205402Y0163401D01*
X0205736Y0164276D02*
X0205069Y0164943D01*
X0207070Y0164943D01*
X0207070Y0164276D02*
X0207070Y0165611D01*
X0214517Y0165277D02*
X0214517Y0164610D01*
X0214851Y0164276D01*
X0214851Y0163401D02*
X0214517Y0163067D01*
X0214517Y0162400D01*
X0214851Y0162066D01*
X0215185Y0162066D01*
X0215518Y0162400D01*
X0215518Y0163067D01*
X0215852Y0163401D01*
X0216186Y0163401D01*
X0216519Y0163067D01*
X0216519Y0162400D01*
X0216186Y0162066D01*
X0216519Y0161191D02*
X0214517Y0161191D01*
X0215185Y0160524D01*
X0214517Y0159856D01*
X0216519Y0159856D01*
X0216519Y0164276D02*
X0215185Y0165611D01*
X0214851Y0165611D01*
X0214517Y0165277D01*
X0216519Y0165611D02*
X0216519Y0164276D01*
X0224754Y0164610D02*
X0224754Y0165277D01*
X0225087Y0165611D01*
X0225421Y0165611D01*
X0225755Y0165277D01*
X0226088Y0165611D01*
X0226422Y0165611D01*
X0226755Y0165277D01*
X0226755Y0164610D01*
X0226422Y0164276D01*
X0226422Y0163401D02*
X0226755Y0163067D01*
X0226755Y0162400D01*
X0226422Y0162066D01*
X0225755Y0162400D02*
X0225755Y0163067D01*
X0226088Y0163401D01*
X0226422Y0163401D01*
X0225755Y0162400D02*
X0225421Y0162066D01*
X0225087Y0162066D01*
X0224754Y0162400D01*
X0224754Y0163067D01*
X0225087Y0163401D01*
X0225087Y0164276D02*
X0224754Y0164610D01*
X0225755Y0164943D02*
X0225755Y0165277D01*
X0224754Y0161191D02*
X0226755Y0161191D01*
X0226755Y0159856D02*
X0224754Y0159856D01*
X0225421Y0160524D01*
X0224754Y0161191D01*
X0234990Y0160857D02*
X0234990Y0159856D01*
X0236992Y0159856D01*
X0236324Y0159856D02*
X0236324Y0160857D01*
X0235991Y0161191D01*
X0235324Y0161191D01*
X0234990Y0160857D01*
X0235324Y0162066D02*
X0235657Y0162066D01*
X0235991Y0162400D01*
X0235991Y0163067D01*
X0236324Y0163401D01*
X0236658Y0163401D01*
X0236992Y0163067D01*
X0236992Y0162400D01*
X0236658Y0162066D01*
X0236992Y0161191D02*
X0236324Y0160524D01*
X0235324Y0162066D02*
X0234990Y0162400D01*
X0234990Y0163067D01*
X0235324Y0163401D01*
X0234990Y0164276D02*
X0234990Y0165611D01*
X0234990Y0164943D02*
X0236992Y0164943D01*
X0245226Y0165277D02*
X0245560Y0165611D01*
X0246227Y0165611D01*
X0246561Y0165277D01*
X0246561Y0164276D01*
X0247228Y0164276D02*
X0245226Y0164276D01*
X0245226Y0165277D01*
X0247228Y0163401D02*
X0247228Y0162066D01*
X0245226Y0162066D01*
X0245560Y0161191D02*
X0245226Y0160857D01*
X0245226Y0160190D01*
X0245560Y0159856D01*
X0245893Y0159856D01*
X0246227Y0160190D01*
X0246227Y0160857D01*
X0246561Y0161191D01*
X0246894Y0161191D01*
X0247228Y0160857D01*
X0247228Y0160190D01*
X0246894Y0159856D01*
X0254675Y0160190D02*
X0255009Y0159856D01*
X0255342Y0159856D01*
X0255676Y0160190D01*
X0255676Y0160857D01*
X0256009Y0161191D01*
X0256343Y0161191D01*
X0256677Y0160857D01*
X0256677Y0160190D01*
X0256343Y0159856D01*
X0254675Y0160190D02*
X0254675Y0160857D01*
X0255009Y0161191D01*
X0254675Y0162066D02*
X0254675Y0163401D01*
X0254675Y0162733D02*
X0256677Y0162733D01*
X0256677Y0164276D02*
X0256677Y0165611D01*
X0256677Y0166486D02*
X0254675Y0166486D01*
X0254675Y0167487D01*
X0255009Y0167820D01*
X0255676Y0167820D01*
X0256009Y0167487D01*
X0256009Y0166486D01*
X0255676Y0164943D02*
X0255676Y0164276D01*
X0254675Y0164276D02*
X0256677Y0164276D01*
X0254675Y0164276D02*
X0254675Y0165611D01*
X0264911Y0164540D02*
X0265245Y0164874D01*
X0265912Y0164874D01*
X0266246Y0164540D01*
X0266246Y0163539D01*
X0266913Y0163539D02*
X0264911Y0163539D01*
X0264911Y0164540D01*
X0266246Y0164207D02*
X0266913Y0164874D01*
X0266913Y0162733D02*
X0266913Y0162066D01*
X0266913Y0162400D02*
X0264911Y0162400D01*
X0264911Y0162733D02*
X0264911Y0162066D01*
X0265245Y0161191D02*
X0264911Y0160857D01*
X0264911Y0159856D01*
X0266913Y0159856D01*
X0266913Y0160857D01*
X0266579Y0161191D01*
X0265245Y0161191D01*
X0289321Y0161191D02*
X0289321Y0159856D01*
X0291322Y0159856D01*
X0291322Y0161191D01*
X0291322Y0162066D02*
X0289321Y0162066D01*
X0291322Y0163401D01*
X0289321Y0163401D01*
X0290321Y0160524D02*
X0290321Y0159856D01*
X0299557Y0159856D02*
X0300224Y0160524D01*
X0299557Y0161191D01*
X0301559Y0161191D01*
X0301225Y0162066D02*
X0301559Y0162400D01*
X0301559Y0163067D01*
X0301225Y0163401D01*
X0300891Y0163401D01*
X0300558Y0163067D01*
X0300558Y0162400D01*
X0300224Y0162066D01*
X0299890Y0162066D01*
X0299557Y0162400D01*
X0299557Y0163067D01*
X0299890Y0163401D01*
X0300224Y0164276D02*
X0299557Y0164943D01*
X0301559Y0164943D01*
X0301559Y0164276D02*
X0301559Y0165611D01*
X0301559Y0159856D02*
X0299557Y0159856D01*
X0309006Y0159856D02*
X0309673Y0160524D01*
X0309006Y0161191D01*
X0311007Y0161191D01*
X0310674Y0162066D02*
X0311007Y0162400D01*
X0311007Y0163067D01*
X0310674Y0163401D01*
X0310340Y0163401D01*
X0310006Y0163067D01*
X0310006Y0162400D01*
X0309673Y0162066D01*
X0309339Y0162066D01*
X0309006Y0162400D01*
X0309006Y0163067D01*
X0309339Y0163401D01*
X0309339Y0164276D02*
X0309006Y0164610D01*
X0309006Y0165277D01*
X0309339Y0165611D01*
X0309673Y0165611D01*
X0311007Y0164276D01*
X0311007Y0165611D01*
X0311007Y0159856D02*
X0309006Y0159856D01*
X0319242Y0159856D02*
X0319909Y0160524D01*
X0319242Y0161191D01*
X0321244Y0161191D01*
X0320910Y0162066D02*
X0321244Y0162400D01*
X0321244Y0163067D01*
X0320910Y0163401D01*
X0320576Y0163401D01*
X0320243Y0163067D01*
X0320243Y0162400D01*
X0319909Y0162066D01*
X0319575Y0162066D01*
X0319242Y0162400D01*
X0319242Y0163067D01*
X0319575Y0163401D01*
X0319575Y0164276D02*
X0319242Y0164610D01*
X0319242Y0165277D01*
X0319575Y0165611D01*
X0319909Y0165611D01*
X0320243Y0165277D01*
X0320576Y0165611D01*
X0320910Y0165611D01*
X0321244Y0165277D01*
X0321244Y0164610D01*
X0320910Y0164276D01*
X0320243Y0164943D02*
X0320243Y0165277D01*
X0321244Y0159856D02*
X0319242Y0159856D01*
X0329478Y0159856D02*
X0329478Y0160857D01*
X0329812Y0161191D01*
X0330479Y0161191D01*
X0330813Y0160857D01*
X0330813Y0159856D01*
X0331480Y0159856D02*
X0329478Y0159856D01*
X0330813Y0160524D02*
X0331480Y0161191D01*
X0331146Y0162066D02*
X0331480Y0162400D01*
X0331480Y0163067D01*
X0331146Y0163401D01*
X0330813Y0163401D01*
X0330479Y0163067D01*
X0330479Y0162400D01*
X0330145Y0162066D01*
X0329812Y0162066D01*
X0329478Y0162400D01*
X0329478Y0163067D01*
X0329812Y0163401D01*
X0329478Y0164276D02*
X0329478Y0165611D01*
X0329478Y0164943D02*
X0331480Y0164943D01*
X0339714Y0165277D02*
X0340048Y0165611D01*
X0340715Y0165611D01*
X0341049Y0165277D01*
X0341049Y0164276D01*
X0341716Y0164276D02*
X0339714Y0164276D01*
X0339714Y0165277D01*
X0341716Y0163401D02*
X0341716Y0162066D01*
X0339714Y0162066D01*
X0340048Y0161191D02*
X0339714Y0160857D01*
X0339714Y0160190D01*
X0340048Y0159856D01*
X0340382Y0159856D01*
X0340715Y0160190D01*
X0340715Y0160857D01*
X0341049Y0161191D01*
X0341382Y0161191D01*
X0341716Y0160857D01*
X0341716Y0160190D01*
X0341382Y0159856D01*
X0349163Y0160190D02*
X0349497Y0159856D01*
X0349830Y0159856D01*
X0350164Y0160190D01*
X0350164Y0160857D01*
X0350498Y0161191D01*
X0350831Y0161191D01*
X0351165Y0160857D01*
X0351165Y0160190D01*
X0350831Y0159856D01*
X0349163Y0160190D02*
X0349163Y0160857D01*
X0349497Y0161191D01*
X0349163Y0162066D02*
X0349163Y0163401D01*
X0349163Y0162733D02*
X0351165Y0162733D01*
X0351165Y0164276D02*
X0349163Y0164276D01*
X0349163Y0165611D01*
X0349163Y0166486D02*
X0349163Y0167487D01*
X0349497Y0167820D01*
X0350164Y0167820D01*
X0350498Y0167487D01*
X0350498Y0166486D01*
X0351165Y0166486D02*
X0349163Y0166486D01*
X0350164Y0164943D02*
X0350164Y0164276D01*
X0351165Y0164276D02*
X0351165Y0165611D01*
X0359399Y0164540D02*
X0359733Y0164874D01*
X0360400Y0164874D01*
X0360734Y0164540D01*
X0360734Y0163539D01*
X0361401Y0163539D02*
X0359399Y0163539D01*
X0359399Y0164540D01*
X0360734Y0164207D02*
X0361401Y0164874D01*
X0361401Y0162733D02*
X0361401Y0162066D01*
X0361401Y0162400D02*
X0359399Y0162400D01*
X0359399Y0162733D02*
X0359399Y0162066D01*
X0359733Y0161191D02*
X0359399Y0160857D01*
X0359399Y0159856D01*
X0361401Y0159856D01*
X0361401Y0160857D01*
X0361067Y0161191D01*
X0359733Y0161191D01*
X0359399Y0234659D02*
X0359399Y0235660D01*
X0359733Y0235994D01*
X0361067Y0235994D01*
X0361401Y0235660D01*
X0361401Y0234659D01*
X0359399Y0234659D01*
X0359399Y0236869D02*
X0359399Y0237537D01*
X0359399Y0237203D02*
X0361401Y0237203D01*
X0361401Y0236869D02*
X0361401Y0237537D01*
X0361401Y0238343D02*
X0359399Y0238343D01*
X0359399Y0239343D01*
X0359733Y0239677D01*
X0360400Y0239677D01*
X0360734Y0239343D01*
X0360734Y0238343D01*
X0360734Y0239010D02*
X0361401Y0239677D01*
X0351165Y0239079D02*
X0351165Y0240414D01*
X0351165Y0241289D02*
X0349163Y0241289D01*
X0349163Y0242290D01*
X0349497Y0242624D01*
X0350164Y0242624D01*
X0350498Y0242290D01*
X0350498Y0241289D01*
X0350164Y0239746D02*
X0350164Y0239079D01*
X0349163Y0239079D02*
X0351165Y0239079D01*
X0351165Y0237537D02*
X0349163Y0237537D01*
X0349163Y0238204D02*
X0349163Y0236869D01*
X0349497Y0235994D02*
X0349163Y0235660D01*
X0349163Y0234993D01*
X0349497Y0234659D01*
X0349830Y0234659D01*
X0350164Y0234993D01*
X0350164Y0235660D01*
X0350498Y0235994D01*
X0350831Y0235994D01*
X0351165Y0235660D01*
X0351165Y0234993D01*
X0350831Y0234659D01*
X0349163Y0239079D02*
X0349163Y0240414D01*
X0341716Y0239079D02*
X0339714Y0239079D01*
X0339714Y0240080D01*
X0340048Y0240414D01*
X0340715Y0240414D01*
X0341049Y0240080D01*
X0341049Y0239079D01*
X0341716Y0238204D02*
X0341716Y0236869D01*
X0339714Y0236869D01*
X0340048Y0235994D02*
X0339714Y0235660D01*
X0339714Y0234993D01*
X0340048Y0234659D01*
X0340382Y0234659D01*
X0340715Y0234993D01*
X0340715Y0235660D01*
X0341049Y0235994D01*
X0341382Y0235994D01*
X0341716Y0235660D01*
X0341716Y0234993D01*
X0341382Y0234659D01*
X0331480Y0234659D02*
X0329478Y0234659D01*
X0329478Y0235660D01*
X0329812Y0235994D01*
X0330479Y0235994D01*
X0330813Y0235660D01*
X0330813Y0234659D01*
X0330813Y0235327D02*
X0331480Y0235994D01*
X0331146Y0236869D02*
X0331480Y0237203D01*
X0331480Y0237870D01*
X0331146Y0238204D01*
X0330813Y0238204D01*
X0330479Y0237870D01*
X0330479Y0237203D01*
X0330145Y0236869D01*
X0329812Y0236869D01*
X0329478Y0237203D01*
X0329478Y0237870D01*
X0329812Y0238204D01*
X0329478Y0239079D02*
X0329478Y0240414D01*
X0329478Y0239746D02*
X0331480Y0239746D01*
X0321244Y0239413D02*
X0320910Y0239079D01*
X0321244Y0239413D02*
X0321244Y0240080D01*
X0320910Y0240414D01*
X0320576Y0240414D01*
X0320243Y0240080D01*
X0320243Y0239746D01*
X0320243Y0240080D02*
X0319909Y0240414D01*
X0319575Y0240414D01*
X0319242Y0240080D01*
X0319242Y0239413D01*
X0319575Y0239079D01*
X0319575Y0238204D02*
X0319242Y0237870D01*
X0319242Y0237203D01*
X0319575Y0236869D01*
X0319909Y0236869D01*
X0320243Y0237203D01*
X0320243Y0237870D01*
X0320576Y0238204D01*
X0320910Y0238204D01*
X0321244Y0237870D01*
X0321244Y0237203D01*
X0320910Y0236869D01*
X0321244Y0235994D02*
X0319242Y0235994D01*
X0319909Y0235327D01*
X0319242Y0234659D01*
X0321244Y0234659D01*
X0311007Y0234659D02*
X0309006Y0234659D01*
X0309673Y0235327D01*
X0309006Y0235994D01*
X0311007Y0235994D01*
X0310674Y0236869D02*
X0311007Y0237203D01*
X0311007Y0237870D01*
X0310674Y0238204D01*
X0310340Y0238204D01*
X0310006Y0237870D01*
X0310006Y0237203D01*
X0309673Y0236869D01*
X0309339Y0236869D01*
X0309006Y0237203D01*
X0309006Y0237870D01*
X0309339Y0238204D01*
X0309339Y0239079D02*
X0309006Y0239413D01*
X0309006Y0240080D01*
X0309339Y0240414D01*
X0309673Y0240414D01*
X0311007Y0239079D01*
X0311007Y0240414D01*
X0301559Y0240414D02*
X0301559Y0239079D01*
X0301559Y0239746D02*
X0299557Y0239746D01*
X0300224Y0239079D01*
X0299890Y0238204D02*
X0299557Y0237870D01*
X0299557Y0237203D01*
X0299890Y0236869D01*
X0300224Y0236869D01*
X0300558Y0237203D01*
X0300558Y0237870D01*
X0300891Y0238204D01*
X0301225Y0238204D01*
X0301559Y0237870D01*
X0301559Y0237203D01*
X0301225Y0236869D01*
X0301559Y0235994D02*
X0299557Y0235994D01*
X0300224Y0235327D01*
X0299557Y0234659D01*
X0301559Y0234659D01*
X0291322Y0234659D02*
X0291322Y0235994D01*
X0291322Y0236869D02*
X0289321Y0236869D01*
X0291322Y0238204D01*
X0289321Y0238204D01*
X0289321Y0235994D02*
X0289321Y0234659D01*
X0291322Y0234659D01*
X0290321Y0234659D02*
X0290321Y0235327D01*
X0266913Y0235660D02*
X0266913Y0234659D01*
X0264911Y0234659D01*
X0264911Y0235660D01*
X0265245Y0235994D01*
X0266579Y0235994D01*
X0266913Y0235660D01*
X0266913Y0236869D02*
X0266913Y0237537D01*
X0266913Y0237203D02*
X0264911Y0237203D01*
X0264911Y0236869D02*
X0264911Y0237537D01*
X0264911Y0238343D02*
X0264911Y0239343D01*
X0265245Y0239677D01*
X0265912Y0239677D01*
X0266246Y0239343D01*
X0266246Y0238343D01*
X0266246Y0239010D02*
X0266913Y0239677D01*
X0266913Y0238343D02*
X0264911Y0238343D01*
X0256677Y0239079D02*
X0256677Y0240414D01*
X0256677Y0241289D02*
X0254675Y0241289D01*
X0254675Y0242290D01*
X0255009Y0242624D01*
X0255676Y0242624D01*
X0256009Y0242290D01*
X0256009Y0241289D01*
X0255676Y0239746D02*
X0255676Y0239079D01*
X0254675Y0239079D02*
X0256677Y0239079D01*
X0256677Y0237537D02*
X0254675Y0237537D01*
X0254675Y0238204D02*
X0254675Y0236869D01*
X0255009Y0235994D02*
X0254675Y0235660D01*
X0254675Y0234993D01*
X0255009Y0234659D01*
X0255342Y0234659D01*
X0255676Y0234993D01*
X0255676Y0235660D01*
X0256009Y0235994D01*
X0256343Y0235994D01*
X0256677Y0235660D01*
X0256677Y0234993D01*
X0256343Y0234659D01*
X0254675Y0239079D02*
X0254675Y0240414D01*
X0247228Y0239079D02*
X0245226Y0239079D01*
X0245226Y0240080D01*
X0245560Y0240414D01*
X0246227Y0240414D01*
X0246561Y0240080D01*
X0246561Y0239079D01*
X0247228Y0238204D02*
X0247228Y0236869D01*
X0245226Y0236869D01*
X0245560Y0235994D02*
X0245226Y0235660D01*
X0245226Y0234993D01*
X0245560Y0234659D01*
X0245893Y0234659D01*
X0246227Y0234993D01*
X0246227Y0235660D01*
X0246561Y0235994D01*
X0246894Y0235994D01*
X0247228Y0235660D01*
X0247228Y0234993D01*
X0246894Y0234659D01*
X0236992Y0234659D02*
X0234990Y0234659D01*
X0234990Y0235660D01*
X0235324Y0235994D01*
X0235991Y0235994D01*
X0236324Y0235660D01*
X0236324Y0234659D01*
X0236324Y0235327D02*
X0236992Y0235994D01*
X0236658Y0236869D02*
X0236992Y0237203D01*
X0236992Y0237870D01*
X0236658Y0238204D01*
X0236324Y0238204D01*
X0235991Y0237870D01*
X0235991Y0237203D01*
X0235657Y0236869D01*
X0235324Y0236869D01*
X0234990Y0237203D01*
X0234990Y0237870D01*
X0235324Y0238204D01*
X0234990Y0239079D02*
X0234990Y0240414D01*
X0234990Y0239746D02*
X0236992Y0239746D01*
X0226755Y0239413D02*
X0226422Y0239079D01*
X0226755Y0239413D02*
X0226755Y0240080D01*
X0226422Y0240414D01*
X0226088Y0240414D01*
X0225755Y0240080D01*
X0225755Y0239746D01*
X0225755Y0240080D02*
X0225421Y0240414D01*
X0225087Y0240414D01*
X0224754Y0240080D01*
X0224754Y0239413D01*
X0225087Y0239079D01*
X0225087Y0238204D02*
X0224754Y0237870D01*
X0224754Y0237203D01*
X0225087Y0236869D01*
X0225421Y0236869D01*
X0225755Y0237203D01*
X0225755Y0237870D01*
X0226088Y0238204D01*
X0226422Y0238204D01*
X0226755Y0237870D01*
X0226755Y0237203D01*
X0226422Y0236869D01*
X0226755Y0235994D02*
X0224754Y0235994D01*
X0225421Y0235327D01*
X0224754Y0234659D01*
X0226755Y0234659D01*
X0216519Y0234659D02*
X0214517Y0234659D01*
X0215185Y0235327D01*
X0214517Y0235994D01*
X0216519Y0235994D01*
X0216186Y0236869D02*
X0216519Y0237203D01*
X0216519Y0237870D01*
X0216186Y0238204D01*
X0215852Y0238204D01*
X0215518Y0237870D01*
X0215518Y0237203D01*
X0215185Y0236869D01*
X0214851Y0236869D01*
X0214517Y0237203D01*
X0214517Y0237870D01*
X0214851Y0238204D01*
X0214851Y0239079D02*
X0214517Y0239413D01*
X0214517Y0240080D01*
X0214851Y0240414D01*
X0215185Y0240414D01*
X0216519Y0239079D01*
X0216519Y0240414D01*
X0207070Y0240414D02*
X0207070Y0239079D01*
X0207070Y0239746D02*
X0205069Y0239746D01*
X0205736Y0239079D01*
X0205402Y0238204D02*
X0205069Y0237870D01*
X0205069Y0237203D01*
X0205402Y0236869D01*
X0205736Y0236869D01*
X0206069Y0237203D01*
X0206069Y0237870D01*
X0206403Y0238204D01*
X0206737Y0238204D01*
X0207070Y0237870D01*
X0207070Y0237203D01*
X0206737Y0236869D01*
X0207070Y0235994D02*
X0205069Y0235994D01*
X0205736Y0235327D01*
X0205069Y0234659D01*
X0207070Y0234659D01*
X0196834Y0234659D02*
X0196834Y0235994D01*
X0196834Y0236869D02*
X0194832Y0236869D01*
X0196834Y0238204D01*
X0194832Y0238204D01*
X0194832Y0235994D02*
X0194832Y0234659D01*
X0196834Y0234659D01*
X0195833Y0234659D02*
X0195833Y0235327D01*
X0172425Y0235660D02*
X0172425Y0234659D01*
X0170423Y0234659D01*
X0170423Y0235660D01*
X0170757Y0235994D01*
X0172091Y0235994D01*
X0172425Y0235660D01*
X0172425Y0236869D02*
X0172425Y0237537D01*
X0172425Y0237203D02*
X0170423Y0237203D01*
X0170423Y0236869D02*
X0170423Y0237537D01*
X0170423Y0238343D02*
X0170423Y0239343D01*
X0170757Y0239677D01*
X0171424Y0239677D01*
X0171757Y0239343D01*
X0171757Y0238343D01*
X0171757Y0239010D02*
X0172425Y0239677D01*
X0172425Y0238343D02*
X0170423Y0238343D01*
X0162188Y0239079D02*
X0162188Y0240414D01*
X0162188Y0241289D02*
X0160187Y0241289D01*
X0160187Y0242290D01*
X0160520Y0242624D01*
X0161188Y0242624D01*
X0161521Y0242290D01*
X0161521Y0241289D01*
X0161188Y0239746D02*
X0161188Y0239079D01*
X0162188Y0239079D02*
X0160187Y0239079D01*
X0160187Y0240414D01*
X0160187Y0238204D02*
X0160187Y0236869D01*
X0160187Y0237537D02*
X0162188Y0237537D01*
X0161855Y0235994D02*
X0162188Y0235660D01*
X0162188Y0234993D01*
X0161855Y0234659D01*
X0161188Y0234993D02*
X0160854Y0234659D01*
X0160520Y0234659D01*
X0160187Y0234993D01*
X0160187Y0235660D01*
X0160520Y0235994D01*
X0161188Y0235660D02*
X0161521Y0235994D01*
X0161855Y0235994D01*
X0161188Y0235660D02*
X0161188Y0234993D01*
X0152740Y0234993D02*
X0152406Y0234659D01*
X0152740Y0234993D02*
X0152740Y0235660D01*
X0152406Y0235994D01*
X0152072Y0235994D01*
X0151739Y0235660D01*
X0151739Y0234993D01*
X0151405Y0234659D01*
X0151072Y0234659D01*
X0150738Y0234993D01*
X0150738Y0235660D01*
X0151072Y0235994D01*
X0150738Y0236869D02*
X0152740Y0236869D01*
X0152740Y0238204D01*
X0152740Y0239079D02*
X0150738Y0239079D01*
X0150738Y0240080D01*
X0151072Y0240414D01*
X0151739Y0240414D01*
X0152072Y0240080D01*
X0152072Y0239079D01*
X0142503Y0239746D02*
X0140502Y0239746D01*
X0140502Y0239079D02*
X0140502Y0240414D01*
X0140835Y0238204D02*
X0140502Y0237870D01*
X0140502Y0237203D01*
X0140835Y0236869D01*
X0141169Y0236869D01*
X0141503Y0237203D01*
X0141503Y0237870D01*
X0141836Y0238204D01*
X0142170Y0238204D01*
X0142503Y0237870D01*
X0142503Y0237203D01*
X0142170Y0236869D01*
X0142503Y0235994D02*
X0141836Y0235327D01*
X0141836Y0235660D02*
X0141836Y0234659D01*
X0142503Y0234659D02*
X0140502Y0234659D01*
X0140502Y0235660D01*
X0140835Y0235994D01*
X0141503Y0235994D01*
X0141836Y0235660D01*
X0132267Y0235994D02*
X0130265Y0235994D01*
X0130933Y0235327D01*
X0130265Y0234659D01*
X0132267Y0234659D01*
X0131934Y0236869D02*
X0132267Y0237203D01*
X0132267Y0237870D01*
X0131934Y0238204D01*
X0131600Y0238204D01*
X0131266Y0237870D01*
X0131266Y0237203D01*
X0130933Y0236869D01*
X0130599Y0236869D01*
X0130265Y0237203D01*
X0130265Y0237870D01*
X0130599Y0238204D01*
X0130599Y0239079D02*
X0130265Y0239413D01*
X0130265Y0240080D01*
X0130599Y0240414D01*
X0130933Y0240414D01*
X0131266Y0240080D01*
X0131600Y0240414D01*
X0131934Y0240414D01*
X0132267Y0240080D01*
X0132267Y0239413D01*
X0131934Y0239079D01*
X0131266Y0239746D02*
X0131266Y0240080D01*
X0122031Y0240414D02*
X0122031Y0239079D01*
X0120696Y0240414D01*
X0120363Y0240414D01*
X0120029Y0240080D01*
X0120029Y0239413D01*
X0120363Y0239079D01*
X0120363Y0238204D02*
X0120029Y0237870D01*
X0120029Y0237203D01*
X0120363Y0236869D01*
X0120696Y0236869D01*
X0121030Y0237203D01*
X0121030Y0237870D01*
X0121364Y0238204D01*
X0121697Y0238204D01*
X0122031Y0237870D01*
X0122031Y0237203D01*
X0121697Y0236869D01*
X0122031Y0235994D02*
X0120029Y0235994D01*
X0120696Y0235327D01*
X0120029Y0234659D01*
X0122031Y0234659D01*
X0112582Y0234659D02*
X0110580Y0234659D01*
X0111248Y0235327D01*
X0110580Y0235994D01*
X0112582Y0235994D01*
X0112249Y0236869D02*
X0112582Y0237203D01*
X0112582Y0237870D01*
X0112249Y0238204D01*
X0111915Y0238204D01*
X0111581Y0237870D01*
X0111581Y0237203D01*
X0111248Y0236869D01*
X0110914Y0236869D01*
X0110580Y0237203D01*
X0110580Y0237870D01*
X0110914Y0238204D01*
X0111248Y0239079D02*
X0110580Y0239746D01*
X0112582Y0239746D01*
X0112582Y0239079D02*
X0112582Y0240414D01*
X0102346Y0238204D02*
X0100344Y0236869D01*
X0102346Y0236869D01*
X0102346Y0235994D02*
X0102346Y0234659D01*
X0100344Y0234659D01*
X0100344Y0235994D01*
X0101345Y0235327D02*
X0101345Y0234659D01*
X0102346Y0238204D02*
X0100344Y0238204D01*
X0077936Y0238343D02*
X0075935Y0238343D01*
X0075935Y0239343D01*
X0076268Y0239677D01*
X0076936Y0239677D01*
X0077269Y0239343D01*
X0077269Y0238343D01*
X0077269Y0239010D02*
X0077936Y0239677D01*
X0077936Y0237537D02*
X0077936Y0236869D01*
X0077936Y0237203D02*
X0075935Y0237203D01*
X0075935Y0236869D02*
X0075935Y0237537D01*
X0076268Y0235994D02*
X0075935Y0235660D01*
X0075935Y0234659D01*
X0077936Y0234659D01*
X0077936Y0235660D01*
X0077603Y0235994D01*
X0076268Y0235994D01*
X0067700Y0235660D02*
X0067700Y0234993D01*
X0067367Y0234659D01*
X0066699Y0234993D02*
X0066366Y0234659D01*
X0066032Y0234659D01*
X0065699Y0234993D01*
X0065699Y0235660D01*
X0066032Y0235994D01*
X0066699Y0235660D02*
X0067033Y0235994D01*
X0067367Y0235994D01*
X0067700Y0235660D01*
X0066699Y0235660D02*
X0066699Y0234993D01*
X0065699Y0236869D02*
X0065699Y0238204D01*
X0065699Y0237537D02*
X0067700Y0237537D01*
X0067700Y0239079D02*
X0065699Y0239079D01*
X0065699Y0240414D01*
X0065699Y0241289D02*
X0065699Y0242290D01*
X0066032Y0242624D01*
X0066699Y0242624D01*
X0067033Y0242290D01*
X0067033Y0241289D01*
X0067700Y0241289D02*
X0065699Y0241289D01*
X0066699Y0239746D02*
X0066699Y0239079D01*
X0067700Y0239079D02*
X0067700Y0240414D01*
X0058251Y0239079D02*
X0056250Y0239079D01*
X0056250Y0240080D01*
X0056583Y0240414D01*
X0057251Y0240414D01*
X0057584Y0240080D01*
X0057584Y0239079D01*
X0058251Y0238204D02*
X0058251Y0236869D01*
X0056250Y0236869D01*
X0056583Y0235994D02*
X0056250Y0235660D01*
X0056250Y0234993D01*
X0056583Y0234659D01*
X0056917Y0234659D01*
X0057251Y0234993D01*
X0057251Y0235660D01*
X0057584Y0235994D01*
X0057918Y0235994D01*
X0058251Y0235660D01*
X0058251Y0234993D01*
X0057918Y0234659D01*
X0048015Y0234659D02*
X0046014Y0234659D01*
X0046014Y0235660D01*
X0046347Y0235994D01*
X0047014Y0235994D01*
X0047348Y0235660D01*
X0047348Y0234659D01*
X0047348Y0235327D02*
X0048015Y0235994D01*
X0047682Y0236869D02*
X0048015Y0237203D01*
X0048015Y0237870D01*
X0047682Y0238204D01*
X0047348Y0238204D01*
X0047014Y0237870D01*
X0047014Y0237203D01*
X0046681Y0236869D01*
X0046347Y0236869D01*
X0046014Y0237203D01*
X0046014Y0237870D01*
X0046347Y0238204D01*
X0046014Y0239079D02*
X0046014Y0240414D01*
X0046014Y0239746D02*
X0048015Y0239746D01*
X0037779Y0239413D02*
X0037445Y0239079D01*
X0037779Y0239413D02*
X0037779Y0240080D01*
X0037445Y0240414D01*
X0037112Y0240414D01*
X0036778Y0240080D01*
X0036778Y0239746D01*
X0036778Y0240080D02*
X0036445Y0240414D01*
X0036111Y0240414D01*
X0035777Y0240080D01*
X0035777Y0239413D01*
X0036111Y0239079D01*
X0036111Y0238204D02*
X0035777Y0237870D01*
X0035777Y0237203D01*
X0036111Y0236869D01*
X0036445Y0236869D01*
X0036778Y0237203D01*
X0036778Y0237870D01*
X0037112Y0238204D01*
X0037445Y0238204D01*
X0037779Y0237870D01*
X0037779Y0237203D01*
X0037445Y0236869D01*
X0037779Y0235994D02*
X0035777Y0235994D01*
X0036445Y0235327D01*
X0035777Y0234659D01*
X0037779Y0234659D01*
X0027543Y0234659D02*
X0025541Y0234659D01*
X0026208Y0235327D01*
X0025541Y0235994D01*
X0027543Y0235994D01*
X0027209Y0236869D02*
X0027543Y0237203D01*
X0027543Y0237870D01*
X0027209Y0238204D01*
X0026876Y0238204D01*
X0026542Y0237870D01*
X0026542Y0237203D01*
X0026208Y0236869D01*
X0025875Y0236869D01*
X0025541Y0237203D01*
X0025541Y0237870D01*
X0025875Y0238204D01*
X0025875Y0239079D02*
X0025541Y0239413D01*
X0025541Y0240080D01*
X0025875Y0240414D01*
X0026208Y0240414D01*
X0027543Y0239079D01*
X0027543Y0240414D01*
X0018094Y0240414D02*
X0018094Y0239079D01*
X0018094Y0239746D02*
X0016092Y0239746D01*
X0016759Y0239079D01*
X0016426Y0238204D02*
X0016092Y0237870D01*
X0016092Y0237203D01*
X0016426Y0236869D01*
X0016759Y0236869D01*
X0017093Y0237203D01*
X0017093Y0237870D01*
X0017427Y0238204D01*
X0017760Y0238204D01*
X0018094Y0237870D01*
X0018094Y0237203D01*
X0017760Y0236869D01*
X0018094Y0235994D02*
X0016092Y0235994D01*
X0016759Y0235327D01*
X0016092Y0234659D01*
X0018094Y0234659D01*
X0007858Y0234659D02*
X0007858Y0235994D01*
X0007858Y0236869D02*
X0005856Y0236869D01*
X0007858Y0238204D01*
X0005856Y0238204D01*
X0005856Y0235994D02*
X0005856Y0234659D01*
X0007858Y0234659D01*
X0006857Y0234659D02*
X0006857Y0235327D01*
X0205069Y0159856D02*
X0207070Y0159856D01*
X0207070Y0010250D02*
X0205069Y0010250D01*
D13*
X0081680Y0001585D02*
X0002546Y0001585D01*
X0002546Y0058672D01*
X0081680Y0058672D01*
X0081680Y0040956D01*
X0097034Y0040956D01*
X0097034Y0058672D01*
X0176168Y0058672D01*
X0176168Y0040956D01*
X0191522Y0040956D01*
X0191522Y0058672D01*
X0270656Y0058672D01*
X0270656Y0040956D01*
X0286010Y0040956D01*
X0286010Y0058672D01*
X0365144Y0058672D01*
X0365144Y0040956D01*
X0372625Y0040956D01*
X0372625Y0100011D01*
X0365144Y0100011D01*
X0365144Y0076389D01*
X0286010Y0076389D01*
X0286010Y0100011D01*
X0270656Y0100011D01*
X0270656Y0076389D01*
X0191522Y0076389D01*
X0191522Y0100011D01*
X0176168Y0100011D01*
X0176168Y0076389D01*
X0097034Y0076389D01*
X0097034Y0100011D01*
X0081680Y0100011D01*
X0081680Y0076389D01*
X0002546Y0076389D01*
X0002546Y0133475D01*
X0081680Y0133475D01*
X0081680Y0115759D01*
X0097034Y0115759D01*
X0097034Y0133475D01*
X0176168Y0133475D01*
X0176168Y0115759D01*
X0191522Y0115759D01*
X0191522Y0133475D01*
X0270656Y0133475D01*
X0270656Y0115759D01*
X0286010Y0115759D01*
X0286010Y0133475D01*
X0365144Y0133475D01*
X0365144Y0115759D01*
X0372625Y0115759D01*
X0372625Y0174814D01*
X0365144Y0174814D01*
X0365144Y0151192D01*
X0286010Y0151192D01*
X0286010Y0174814D01*
X0270656Y0174814D01*
X0270656Y0151192D01*
X0191522Y0151192D01*
X0191522Y0174814D01*
X0176168Y0174814D01*
X0176168Y0151192D01*
X0097034Y0151192D01*
X0097034Y0174814D01*
X0081680Y0174814D01*
X0081680Y0151192D01*
X0002546Y0151192D01*
X0002546Y0208278D01*
X0081680Y0208278D01*
X0081680Y0190562D01*
X0097034Y0190562D01*
X0097034Y0208278D01*
X0176168Y0208278D01*
X0176168Y0190562D01*
X0191522Y0190562D01*
X0191522Y0208278D01*
X0270656Y0208278D01*
X0270656Y0190562D01*
X0286010Y0190562D01*
X0286010Y0208278D01*
X0365144Y0208278D01*
X0365144Y0190562D01*
X0372625Y0190562D01*
X0372625Y0249617D01*
X0365144Y0249617D01*
X0365144Y0225995D01*
X0286010Y0225995D01*
X0286010Y0249617D01*
X0270656Y0249617D01*
X0270656Y0225995D01*
X0191522Y0225995D01*
X0191522Y0249617D01*
X0176168Y0249617D01*
X0176168Y0225995D01*
X0097034Y0225995D01*
X0097034Y0249617D01*
X0081680Y0249617D01*
X0081680Y0225995D01*
X0002546Y0225995D01*
X0002546Y0283081D01*
X0081680Y0283081D01*
X0081680Y0265365D01*
X0097034Y0265365D01*
X0097034Y0283081D01*
X0176168Y0283081D01*
X0176168Y0265365D01*
X0191522Y0265365D01*
X0191522Y0283081D01*
X0270656Y0283081D01*
X0270656Y0265365D01*
X0286010Y0265365D01*
X0286010Y0283081D01*
X0365144Y0283081D01*
X0365144Y0265365D01*
X0372625Y0265365D01*
X0372625Y0285050D01*
X0396247Y0285050D01*
X0396247Y0001585D01*
X0372625Y0001585D01*
X0372625Y0025207D01*
X0365144Y0025207D01*
X0365144Y0001585D01*
X0286010Y0001585D01*
X0286010Y0025207D01*
X0270656Y0025207D01*
X0270656Y0001585D01*
X0191522Y0001585D01*
X0191522Y0025207D01*
X0176168Y0025207D01*
X0176168Y0001585D01*
X0097034Y0001585D01*
X0097034Y0025207D01*
X0081680Y0025207D01*
X0081680Y0001585D01*
D14*
X0080105Y0033081D02*
X0080107Y0033150D01*
X0080113Y0033218D01*
X0080123Y0033286D01*
X0080137Y0033353D01*
X0080155Y0033420D01*
X0080176Y0033485D01*
X0080202Y0033549D01*
X0080231Y0033611D01*
X0080263Y0033671D01*
X0080299Y0033730D01*
X0080339Y0033786D01*
X0080381Y0033840D01*
X0080427Y0033891D01*
X0080476Y0033940D01*
X0080527Y0033986D01*
X0080581Y0034028D01*
X0080637Y0034068D01*
X0080695Y0034104D01*
X0080756Y0034136D01*
X0080818Y0034165D01*
X0080882Y0034191D01*
X0080947Y0034212D01*
X0081014Y0034230D01*
X0081081Y0034244D01*
X0081149Y0034254D01*
X0081217Y0034260D01*
X0081286Y0034262D01*
X0081355Y0034260D01*
X0081423Y0034254D01*
X0081491Y0034244D01*
X0081558Y0034230D01*
X0081625Y0034212D01*
X0081690Y0034191D01*
X0081754Y0034165D01*
X0081816Y0034136D01*
X0081876Y0034104D01*
X0081935Y0034068D01*
X0081991Y0034028D01*
X0082045Y0033986D01*
X0082096Y0033940D01*
X0082145Y0033891D01*
X0082191Y0033840D01*
X0082233Y0033786D01*
X0082273Y0033730D01*
X0082309Y0033671D01*
X0082341Y0033611D01*
X0082370Y0033549D01*
X0082396Y0033485D01*
X0082417Y0033420D01*
X0082435Y0033353D01*
X0082449Y0033286D01*
X0082459Y0033218D01*
X0082465Y0033150D01*
X0082467Y0033081D01*
X0082465Y0033012D01*
X0082459Y0032944D01*
X0082449Y0032876D01*
X0082435Y0032809D01*
X0082417Y0032742D01*
X0082396Y0032677D01*
X0082370Y0032613D01*
X0082341Y0032551D01*
X0082309Y0032490D01*
X0082273Y0032432D01*
X0082233Y0032376D01*
X0082191Y0032322D01*
X0082145Y0032271D01*
X0082096Y0032222D01*
X0082045Y0032176D01*
X0081991Y0032134D01*
X0081935Y0032094D01*
X0081877Y0032058D01*
X0081816Y0032026D01*
X0081754Y0031997D01*
X0081690Y0031971D01*
X0081625Y0031950D01*
X0081558Y0031932D01*
X0081491Y0031918D01*
X0081423Y0031908D01*
X0081355Y0031902D01*
X0081286Y0031900D01*
X0081217Y0031902D01*
X0081149Y0031908D01*
X0081081Y0031918D01*
X0081014Y0031932D01*
X0080947Y0031950D01*
X0080882Y0031971D01*
X0080818Y0031997D01*
X0080756Y0032026D01*
X0080695Y0032058D01*
X0080637Y0032094D01*
X0080581Y0032134D01*
X0080527Y0032176D01*
X0080476Y0032222D01*
X0080427Y0032271D01*
X0080381Y0032322D01*
X0080339Y0032376D01*
X0080299Y0032432D01*
X0080263Y0032490D01*
X0080231Y0032551D01*
X0080202Y0032613D01*
X0080176Y0032677D01*
X0080155Y0032742D01*
X0080137Y0032809D01*
X0080123Y0032876D01*
X0080113Y0032944D01*
X0080107Y0033012D01*
X0080105Y0033081D01*
X0095853Y0033081D02*
X0095855Y0033150D01*
X0095861Y0033218D01*
X0095871Y0033286D01*
X0095885Y0033353D01*
X0095903Y0033420D01*
X0095924Y0033485D01*
X0095950Y0033549D01*
X0095979Y0033611D01*
X0096011Y0033671D01*
X0096047Y0033730D01*
X0096087Y0033786D01*
X0096129Y0033840D01*
X0096175Y0033891D01*
X0096224Y0033940D01*
X0096275Y0033986D01*
X0096329Y0034028D01*
X0096385Y0034068D01*
X0096443Y0034104D01*
X0096504Y0034136D01*
X0096566Y0034165D01*
X0096630Y0034191D01*
X0096695Y0034212D01*
X0096762Y0034230D01*
X0096829Y0034244D01*
X0096897Y0034254D01*
X0096965Y0034260D01*
X0097034Y0034262D01*
X0097103Y0034260D01*
X0097171Y0034254D01*
X0097239Y0034244D01*
X0097306Y0034230D01*
X0097373Y0034212D01*
X0097438Y0034191D01*
X0097502Y0034165D01*
X0097564Y0034136D01*
X0097624Y0034104D01*
X0097683Y0034068D01*
X0097739Y0034028D01*
X0097793Y0033986D01*
X0097844Y0033940D01*
X0097893Y0033891D01*
X0097939Y0033840D01*
X0097981Y0033786D01*
X0098021Y0033730D01*
X0098057Y0033671D01*
X0098089Y0033611D01*
X0098118Y0033549D01*
X0098144Y0033485D01*
X0098165Y0033420D01*
X0098183Y0033353D01*
X0098197Y0033286D01*
X0098207Y0033218D01*
X0098213Y0033150D01*
X0098215Y0033081D01*
X0098213Y0033012D01*
X0098207Y0032944D01*
X0098197Y0032876D01*
X0098183Y0032809D01*
X0098165Y0032742D01*
X0098144Y0032677D01*
X0098118Y0032613D01*
X0098089Y0032551D01*
X0098057Y0032490D01*
X0098021Y0032432D01*
X0097981Y0032376D01*
X0097939Y0032322D01*
X0097893Y0032271D01*
X0097844Y0032222D01*
X0097793Y0032176D01*
X0097739Y0032134D01*
X0097683Y0032094D01*
X0097625Y0032058D01*
X0097564Y0032026D01*
X0097502Y0031997D01*
X0097438Y0031971D01*
X0097373Y0031950D01*
X0097306Y0031932D01*
X0097239Y0031918D01*
X0097171Y0031908D01*
X0097103Y0031902D01*
X0097034Y0031900D01*
X0096965Y0031902D01*
X0096897Y0031908D01*
X0096829Y0031918D01*
X0096762Y0031932D01*
X0096695Y0031950D01*
X0096630Y0031971D01*
X0096566Y0031997D01*
X0096504Y0032026D01*
X0096443Y0032058D01*
X0096385Y0032094D01*
X0096329Y0032134D01*
X0096275Y0032176D01*
X0096224Y0032222D01*
X0096175Y0032271D01*
X0096129Y0032322D01*
X0096087Y0032376D01*
X0096047Y0032432D01*
X0096011Y0032490D01*
X0095979Y0032551D01*
X0095950Y0032613D01*
X0095924Y0032677D01*
X0095903Y0032742D01*
X0095885Y0032809D01*
X0095871Y0032876D01*
X0095861Y0032944D01*
X0095855Y0033012D01*
X0095853Y0033081D01*
X0174593Y0033081D02*
X0174595Y0033150D01*
X0174601Y0033218D01*
X0174611Y0033286D01*
X0174625Y0033353D01*
X0174643Y0033420D01*
X0174664Y0033485D01*
X0174690Y0033549D01*
X0174719Y0033611D01*
X0174751Y0033671D01*
X0174787Y0033730D01*
X0174827Y0033786D01*
X0174869Y0033840D01*
X0174915Y0033891D01*
X0174964Y0033940D01*
X0175015Y0033986D01*
X0175069Y0034028D01*
X0175125Y0034068D01*
X0175183Y0034104D01*
X0175244Y0034136D01*
X0175306Y0034165D01*
X0175370Y0034191D01*
X0175435Y0034212D01*
X0175502Y0034230D01*
X0175569Y0034244D01*
X0175637Y0034254D01*
X0175705Y0034260D01*
X0175774Y0034262D01*
X0175843Y0034260D01*
X0175911Y0034254D01*
X0175979Y0034244D01*
X0176046Y0034230D01*
X0176113Y0034212D01*
X0176178Y0034191D01*
X0176242Y0034165D01*
X0176304Y0034136D01*
X0176364Y0034104D01*
X0176423Y0034068D01*
X0176479Y0034028D01*
X0176533Y0033986D01*
X0176584Y0033940D01*
X0176633Y0033891D01*
X0176679Y0033840D01*
X0176721Y0033786D01*
X0176761Y0033730D01*
X0176797Y0033671D01*
X0176829Y0033611D01*
X0176858Y0033549D01*
X0176884Y0033485D01*
X0176905Y0033420D01*
X0176923Y0033353D01*
X0176937Y0033286D01*
X0176947Y0033218D01*
X0176953Y0033150D01*
X0176955Y0033081D01*
X0176953Y0033012D01*
X0176947Y0032944D01*
X0176937Y0032876D01*
X0176923Y0032809D01*
X0176905Y0032742D01*
X0176884Y0032677D01*
X0176858Y0032613D01*
X0176829Y0032551D01*
X0176797Y0032490D01*
X0176761Y0032432D01*
X0176721Y0032376D01*
X0176679Y0032322D01*
X0176633Y0032271D01*
X0176584Y0032222D01*
X0176533Y0032176D01*
X0176479Y0032134D01*
X0176423Y0032094D01*
X0176365Y0032058D01*
X0176304Y0032026D01*
X0176242Y0031997D01*
X0176178Y0031971D01*
X0176113Y0031950D01*
X0176046Y0031932D01*
X0175979Y0031918D01*
X0175911Y0031908D01*
X0175843Y0031902D01*
X0175774Y0031900D01*
X0175705Y0031902D01*
X0175637Y0031908D01*
X0175569Y0031918D01*
X0175502Y0031932D01*
X0175435Y0031950D01*
X0175370Y0031971D01*
X0175306Y0031997D01*
X0175244Y0032026D01*
X0175183Y0032058D01*
X0175125Y0032094D01*
X0175069Y0032134D01*
X0175015Y0032176D01*
X0174964Y0032222D01*
X0174915Y0032271D01*
X0174869Y0032322D01*
X0174827Y0032376D01*
X0174787Y0032432D01*
X0174751Y0032490D01*
X0174719Y0032551D01*
X0174690Y0032613D01*
X0174664Y0032677D01*
X0174643Y0032742D01*
X0174625Y0032809D01*
X0174611Y0032876D01*
X0174601Y0032944D01*
X0174595Y0033012D01*
X0174593Y0033081D01*
X0190341Y0033081D02*
X0190343Y0033150D01*
X0190349Y0033218D01*
X0190359Y0033286D01*
X0190373Y0033353D01*
X0190391Y0033420D01*
X0190412Y0033485D01*
X0190438Y0033549D01*
X0190467Y0033611D01*
X0190499Y0033671D01*
X0190535Y0033730D01*
X0190575Y0033786D01*
X0190617Y0033840D01*
X0190663Y0033891D01*
X0190712Y0033940D01*
X0190763Y0033986D01*
X0190817Y0034028D01*
X0190873Y0034068D01*
X0190931Y0034104D01*
X0190992Y0034136D01*
X0191054Y0034165D01*
X0191118Y0034191D01*
X0191183Y0034212D01*
X0191250Y0034230D01*
X0191317Y0034244D01*
X0191385Y0034254D01*
X0191453Y0034260D01*
X0191522Y0034262D01*
X0191591Y0034260D01*
X0191659Y0034254D01*
X0191727Y0034244D01*
X0191794Y0034230D01*
X0191861Y0034212D01*
X0191926Y0034191D01*
X0191990Y0034165D01*
X0192052Y0034136D01*
X0192112Y0034104D01*
X0192171Y0034068D01*
X0192227Y0034028D01*
X0192281Y0033986D01*
X0192332Y0033940D01*
X0192381Y0033891D01*
X0192427Y0033840D01*
X0192469Y0033786D01*
X0192509Y0033730D01*
X0192545Y0033671D01*
X0192577Y0033611D01*
X0192606Y0033549D01*
X0192632Y0033485D01*
X0192653Y0033420D01*
X0192671Y0033353D01*
X0192685Y0033286D01*
X0192695Y0033218D01*
X0192701Y0033150D01*
X0192703Y0033081D01*
X0192701Y0033012D01*
X0192695Y0032944D01*
X0192685Y0032876D01*
X0192671Y0032809D01*
X0192653Y0032742D01*
X0192632Y0032677D01*
X0192606Y0032613D01*
X0192577Y0032551D01*
X0192545Y0032490D01*
X0192509Y0032432D01*
X0192469Y0032376D01*
X0192427Y0032322D01*
X0192381Y0032271D01*
X0192332Y0032222D01*
X0192281Y0032176D01*
X0192227Y0032134D01*
X0192171Y0032094D01*
X0192113Y0032058D01*
X0192052Y0032026D01*
X0191990Y0031997D01*
X0191926Y0031971D01*
X0191861Y0031950D01*
X0191794Y0031932D01*
X0191727Y0031918D01*
X0191659Y0031908D01*
X0191591Y0031902D01*
X0191522Y0031900D01*
X0191453Y0031902D01*
X0191385Y0031908D01*
X0191317Y0031918D01*
X0191250Y0031932D01*
X0191183Y0031950D01*
X0191118Y0031971D01*
X0191054Y0031997D01*
X0190992Y0032026D01*
X0190931Y0032058D01*
X0190873Y0032094D01*
X0190817Y0032134D01*
X0190763Y0032176D01*
X0190712Y0032222D01*
X0190663Y0032271D01*
X0190617Y0032322D01*
X0190575Y0032376D01*
X0190535Y0032432D01*
X0190499Y0032490D01*
X0190467Y0032551D01*
X0190438Y0032613D01*
X0190412Y0032677D01*
X0190391Y0032742D01*
X0190373Y0032809D01*
X0190359Y0032876D01*
X0190349Y0032944D01*
X0190343Y0033012D01*
X0190341Y0033081D01*
X0269081Y0033081D02*
X0269083Y0033150D01*
X0269089Y0033218D01*
X0269099Y0033286D01*
X0269113Y0033353D01*
X0269131Y0033420D01*
X0269152Y0033485D01*
X0269178Y0033549D01*
X0269207Y0033611D01*
X0269239Y0033671D01*
X0269275Y0033730D01*
X0269315Y0033786D01*
X0269357Y0033840D01*
X0269403Y0033891D01*
X0269452Y0033940D01*
X0269503Y0033986D01*
X0269557Y0034028D01*
X0269613Y0034068D01*
X0269671Y0034104D01*
X0269732Y0034136D01*
X0269794Y0034165D01*
X0269858Y0034191D01*
X0269923Y0034212D01*
X0269990Y0034230D01*
X0270057Y0034244D01*
X0270125Y0034254D01*
X0270193Y0034260D01*
X0270262Y0034262D01*
X0270331Y0034260D01*
X0270399Y0034254D01*
X0270467Y0034244D01*
X0270534Y0034230D01*
X0270601Y0034212D01*
X0270666Y0034191D01*
X0270730Y0034165D01*
X0270792Y0034136D01*
X0270852Y0034104D01*
X0270911Y0034068D01*
X0270967Y0034028D01*
X0271021Y0033986D01*
X0271072Y0033940D01*
X0271121Y0033891D01*
X0271167Y0033840D01*
X0271209Y0033786D01*
X0271249Y0033730D01*
X0271285Y0033671D01*
X0271317Y0033611D01*
X0271346Y0033549D01*
X0271372Y0033485D01*
X0271393Y0033420D01*
X0271411Y0033353D01*
X0271425Y0033286D01*
X0271435Y0033218D01*
X0271441Y0033150D01*
X0271443Y0033081D01*
X0271441Y0033012D01*
X0271435Y0032944D01*
X0271425Y0032876D01*
X0271411Y0032809D01*
X0271393Y0032742D01*
X0271372Y0032677D01*
X0271346Y0032613D01*
X0271317Y0032551D01*
X0271285Y0032490D01*
X0271249Y0032432D01*
X0271209Y0032376D01*
X0271167Y0032322D01*
X0271121Y0032271D01*
X0271072Y0032222D01*
X0271021Y0032176D01*
X0270967Y0032134D01*
X0270911Y0032094D01*
X0270853Y0032058D01*
X0270792Y0032026D01*
X0270730Y0031997D01*
X0270666Y0031971D01*
X0270601Y0031950D01*
X0270534Y0031932D01*
X0270467Y0031918D01*
X0270399Y0031908D01*
X0270331Y0031902D01*
X0270262Y0031900D01*
X0270193Y0031902D01*
X0270125Y0031908D01*
X0270057Y0031918D01*
X0269990Y0031932D01*
X0269923Y0031950D01*
X0269858Y0031971D01*
X0269794Y0031997D01*
X0269732Y0032026D01*
X0269671Y0032058D01*
X0269613Y0032094D01*
X0269557Y0032134D01*
X0269503Y0032176D01*
X0269452Y0032222D01*
X0269403Y0032271D01*
X0269357Y0032322D01*
X0269315Y0032376D01*
X0269275Y0032432D01*
X0269239Y0032490D01*
X0269207Y0032551D01*
X0269178Y0032613D01*
X0269152Y0032677D01*
X0269131Y0032742D01*
X0269113Y0032809D01*
X0269099Y0032876D01*
X0269089Y0032944D01*
X0269083Y0033012D01*
X0269081Y0033081D01*
X0284829Y0033081D02*
X0284831Y0033150D01*
X0284837Y0033218D01*
X0284847Y0033286D01*
X0284861Y0033353D01*
X0284879Y0033420D01*
X0284900Y0033485D01*
X0284926Y0033549D01*
X0284955Y0033611D01*
X0284987Y0033671D01*
X0285023Y0033730D01*
X0285063Y0033786D01*
X0285105Y0033840D01*
X0285151Y0033891D01*
X0285200Y0033940D01*
X0285251Y0033986D01*
X0285305Y0034028D01*
X0285361Y0034068D01*
X0285419Y0034104D01*
X0285480Y0034136D01*
X0285542Y0034165D01*
X0285606Y0034191D01*
X0285671Y0034212D01*
X0285738Y0034230D01*
X0285805Y0034244D01*
X0285873Y0034254D01*
X0285941Y0034260D01*
X0286010Y0034262D01*
X0286079Y0034260D01*
X0286147Y0034254D01*
X0286215Y0034244D01*
X0286282Y0034230D01*
X0286349Y0034212D01*
X0286414Y0034191D01*
X0286478Y0034165D01*
X0286540Y0034136D01*
X0286600Y0034104D01*
X0286659Y0034068D01*
X0286715Y0034028D01*
X0286769Y0033986D01*
X0286820Y0033940D01*
X0286869Y0033891D01*
X0286915Y0033840D01*
X0286957Y0033786D01*
X0286997Y0033730D01*
X0287033Y0033671D01*
X0287065Y0033611D01*
X0287094Y0033549D01*
X0287120Y0033485D01*
X0287141Y0033420D01*
X0287159Y0033353D01*
X0287173Y0033286D01*
X0287183Y0033218D01*
X0287189Y0033150D01*
X0287191Y0033081D01*
X0287189Y0033012D01*
X0287183Y0032944D01*
X0287173Y0032876D01*
X0287159Y0032809D01*
X0287141Y0032742D01*
X0287120Y0032677D01*
X0287094Y0032613D01*
X0287065Y0032551D01*
X0287033Y0032490D01*
X0286997Y0032432D01*
X0286957Y0032376D01*
X0286915Y0032322D01*
X0286869Y0032271D01*
X0286820Y0032222D01*
X0286769Y0032176D01*
X0286715Y0032134D01*
X0286659Y0032094D01*
X0286601Y0032058D01*
X0286540Y0032026D01*
X0286478Y0031997D01*
X0286414Y0031971D01*
X0286349Y0031950D01*
X0286282Y0031932D01*
X0286215Y0031918D01*
X0286147Y0031908D01*
X0286079Y0031902D01*
X0286010Y0031900D01*
X0285941Y0031902D01*
X0285873Y0031908D01*
X0285805Y0031918D01*
X0285738Y0031932D01*
X0285671Y0031950D01*
X0285606Y0031971D01*
X0285542Y0031997D01*
X0285480Y0032026D01*
X0285419Y0032058D01*
X0285361Y0032094D01*
X0285305Y0032134D01*
X0285251Y0032176D01*
X0285200Y0032222D01*
X0285151Y0032271D01*
X0285105Y0032322D01*
X0285063Y0032376D01*
X0285023Y0032432D01*
X0284987Y0032490D01*
X0284955Y0032551D01*
X0284926Y0032613D01*
X0284900Y0032677D01*
X0284879Y0032742D01*
X0284861Y0032809D01*
X0284847Y0032876D01*
X0284837Y0032944D01*
X0284831Y0033012D01*
X0284829Y0033081D01*
X0363570Y0033081D02*
X0363572Y0033150D01*
X0363578Y0033218D01*
X0363588Y0033286D01*
X0363602Y0033353D01*
X0363620Y0033420D01*
X0363641Y0033485D01*
X0363667Y0033549D01*
X0363696Y0033611D01*
X0363728Y0033671D01*
X0363764Y0033730D01*
X0363804Y0033786D01*
X0363846Y0033840D01*
X0363892Y0033891D01*
X0363941Y0033940D01*
X0363992Y0033986D01*
X0364046Y0034028D01*
X0364102Y0034068D01*
X0364160Y0034104D01*
X0364221Y0034136D01*
X0364283Y0034165D01*
X0364347Y0034191D01*
X0364412Y0034212D01*
X0364479Y0034230D01*
X0364546Y0034244D01*
X0364614Y0034254D01*
X0364682Y0034260D01*
X0364751Y0034262D01*
X0364820Y0034260D01*
X0364888Y0034254D01*
X0364956Y0034244D01*
X0365023Y0034230D01*
X0365090Y0034212D01*
X0365155Y0034191D01*
X0365219Y0034165D01*
X0365281Y0034136D01*
X0365341Y0034104D01*
X0365400Y0034068D01*
X0365456Y0034028D01*
X0365510Y0033986D01*
X0365561Y0033940D01*
X0365610Y0033891D01*
X0365656Y0033840D01*
X0365698Y0033786D01*
X0365738Y0033730D01*
X0365774Y0033671D01*
X0365806Y0033611D01*
X0365835Y0033549D01*
X0365861Y0033485D01*
X0365882Y0033420D01*
X0365900Y0033353D01*
X0365914Y0033286D01*
X0365924Y0033218D01*
X0365930Y0033150D01*
X0365932Y0033081D01*
X0365930Y0033012D01*
X0365924Y0032944D01*
X0365914Y0032876D01*
X0365900Y0032809D01*
X0365882Y0032742D01*
X0365861Y0032677D01*
X0365835Y0032613D01*
X0365806Y0032551D01*
X0365774Y0032490D01*
X0365738Y0032432D01*
X0365698Y0032376D01*
X0365656Y0032322D01*
X0365610Y0032271D01*
X0365561Y0032222D01*
X0365510Y0032176D01*
X0365456Y0032134D01*
X0365400Y0032094D01*
X0365342Y0032058D01*
X0365281Y0032026D01*
X0365219Y0031997D01*
X0365155Y0031971D01*
X0365090Y0031950D01*
X0365023Y0031932D01*
X0364956Y0031918D01*
X0364888Y0031908D01*
X0364820Y0031902D01*
X0364751Y0031900D01*
X0364682Y0031902D01*
X0364614Y0031908D01*
X0364546Y0031918D01*
X0364479Y0031932D01*
X0364412Y0031950D01*
X0364347Y0031971D01*
X0364283Y0031997D01*
X0364221Y0032026D01*
X0364160Y0032058D01*
X0364102Y0032094D01*
X0364046Y0032134D01*
X0363992Y0032176D01*
X0363941Y0032222D01*
X0363892Y0032271D01*
X0363846Y0032322D01*
X0363804Y0032376D01*
X0363764Y0032432D01*
X0363728Y0032490D01*
X0363696Y0032551D01*
X0363667Y0032613D01*
X0363641Y0032677D01*
X0363620Y0032742D01*
X0363602Y0032809D01*
X0363588Y0032876D01*
X0363578Y0032944D01*
X0363572Y0033012D01*
X0363570Y0033081D01*
X0363570Y0107885D02*
X0363572Y0107954D01*
X0363578Y0108022D01*
X0363588Y0108090D01*
X0363602Y0108157D01*
X0363620Y0108224D01*
X0363641Y0108289D01*
X0363667Y0108353D01*
X0363696Y0108415D01*
X0363728Y0108475D01*
X0363764Y0108534D01*
X0363804Y0108590D01*
X0363846Y0108644D01*
X0363892Y0108695D01*
X0363941Y0108744D01*
X0363992Y0108790D01*
X0364046Y0108832D01*
X0364102Y0108872D01*
X0364160Y0108908D01*
X0364221Y0108940D01*
X0364283Y0108969D01*
X0364347Y0108995D01*
X0364412Y0109016D01*
X0364479Y0109034D01*
X0364546Y0109048D01*
X0364614Y0109058D01*
X0364682Y0109064D01*
X0364751Y0109066D01*
X0364820Y0109064D01*
X0364888Y0109058D01*
X0364956Y0109048D01*
X0365023Y0109034D01*
X0365090Y0109016D01*
X0365155Y0108995D01*
X0365219Y0108969D01*
X0365281Y0108940D01*
X0365341Y0108908D01*
X0365400Y0108872D01*
X0365456Y0108832D01*
X0365510Y0108790D01*
X0365561Y0108744D01*
X0365610Y0108695D01*
X0365656Y0108644D01*
X0365698Y0108590D01*
X0365738Y0108534D01*
X0365774Y0108475D01*
X0365806Y0108415D01*
X0365835Y0108353D01*
X0365861Y0108289D01*
X0365882Y0108224D01*
X0365900Y0108157D01*
X0365914Y0108090D01*
X0365924Y0108022D01*
X0365930Y0107954D01*
X0365932Y0107885D01*
X0365930Y0107816D01*
X0365924Y0107748D01*
X0365914Y0107680D01*
X0365900Y0107613D01*
X0365882Y0107546D01*
X0365861Y0107481D01*
X0365835Y0107417D01*
X0365806Y0107355D01*
X0365774Y0107294D01*
X0365738Y0107236D01*
X0365698Y0107180D01*
X0365656Y0107126D01*
X0365610Y0107075D01*
X0365561Y0107026D01*
X0365510Y0106980D01*
X0365456Y0106938D01*
X0365400Y0106898D01*
X0365342Y0106862D01*
X0365281Y0106830D01*
X0365219Y0106801D01*
X0365155Y0106775D01*
X0365090Y0106754D01*
X0365023Y0106736D01*
X0364956Y0106722D01*
X0364888Y0106712D01*
X0364820Y0106706D01*
X0364751Y0106704D01*
X0364682Y0106706D01*
X0364614Y0106712D01*
X0364546Y0106722D01*
X0364479Y0106736D01*
X0364412Y0106754D01*
X0364347Y0106775D01*
X0364283Y0106801D01*
X0364221Y0106830D01*
X0364160Y0106862D01*
X0364102Y0106898D01*
X0364046Y0106938D01*
X0363992Y0106980D01*
X0363941Y0107026D01*
X0363892Y0107075D01*
X0363846Y0107126D01*
X0363804Y0107180D01*
X0363764Y0107236D01*
X0363728Y0107294D01*
X0363696Y0107355D01*
X0363667Y0107417D01*
X0363641Y0107481D01*
X0363620Y0107546D01*
X0363602Y0107613D01*
X0363588Y0107680D01*
X0363578Y0107748D01*
X0363572Y0107816D01*
X0363570Y0107885D01*
X0284829Y0107885D02*
X0284831Y0107954D01*
X0284837Y0108022D01*
X0284847Y0108090D01*
X0284861Y0108157D01*
X0284879Y0108224D01*
X0284900Y0108289D01*
X0284926Y0108353D01*
X0284955Y0108415D01*
X0284987Y0108475D01*
X0285023Y0108534D01*
X0285063Y0108590D01*
X0285105Y0108644D01*
X0285151Y0108695D01*
X0285200Y0108744D01*
X0285251Y0108790D01*
X0285305Y0108832D01*
X0285361Y0108872D01*
X0285419Y0108908D01*
X0285480Y0108940D01*
X0285542Y0108969D01*
X0285606Y0108995D01*
X0285671Y0109016D01*
X0285738Y0109034D01*
X0285805Y0109048D01*
X0285873Y0109058D01*
X0285941Y0109064D01*
X0286010Y0109066D01*
X0286079Y0109064D01*
X0286147Y0109058D01*
X0286215Y0109048D01*
X0286282Y0109034D01*
X0286349Y0109016D01*
X0286414Y0108995D01*
X0286478Y0108969D01*
X0286540Y0108940D01*
X0286600Y0108908D01*
X0286659Y0108872D01*
X0286715Y0108832D01*
X0286769Y0108790D01*
X0286820Y0108744D01*
X0286869Y0108695D01*
X0286915Y0108644D01*
X0286957Y0108590D01*
X0286997Y0108534D01*
X0287033Y0108475D01*
X0287065Y0108415D01*
X0287094Y0108353D01*
X0287120Y0108289D01*
X0287141Y0108224D01*
X0287159Y0108157D01*
X0287173Y0108090D01*
X0287183Y0108022D01*
X0287189Y0107954D01*
X0287191Y0107885D01*
X0287189Y0107816D01*
X0287183Y0107748D01*
X0287173Y0107680D01*
X0287159Y0107613D01*
X0287141Y0107546D01*
X0287120Y0107481D01*
X0287094Y0107417D01*
X0287065Y0107355D01*
X0287033Y0107294D01*
X0286997Y0107236D01*
X0286957Y0107180D01*
X0286915Y0107126D01*
X0286869Y0107075D01*
X0286820Y0107026D01*
X0286769Y0106980D01*
X0286715Y0106938D01*
X0286659Y0106898D01*
X0286601Y0106862D01*
X0286540Y0106830D01*
X0286478Y0106801D01*
X0286414Y0106775D01*
X0286349Y0106754D01*
X0286282Y0106736D01*
X0286215Y0106722D01*
X0286147Y0106712D01*
X0286079Y0106706D01*
X0286010Y0106704D01*
X0285941Y0106706D01*
X0285873Y0106712D01*
X0285805Y0106722D01*
X0285738Y0106736D01*
X0285671Y0106754D01*
X0285606Y0106775D01*
X0285542Y0106801D01*
X0285480Y0106830D01*
X0285419Y0106862D01*
X0285361Y0106898D01*
X0285305Y0106938D01*
X0285251Y0106980D01*
X0285200Y0107026D01*
X0285151Y0107075D01*
X0285105Y0107126D01*
X0285063Y0107180D01*
X0285023Y0107236D01*
X0284987Y0107294D01*
X0284955Y0107355D01*
X0284926Y0107417D01*
X0284900Y0107481D01*
X0284879Y0107546D01*
X0284861Y0107613D01*
X0284847Y0107680D01*
X0284837Y0107748D01*
X0284831Y0107816D01*
X0284829Y0107885D01*
X0269081Y0107885D02*
X0269083Y0107954D01*
X0269089Y0108022D01*
X0269099Y0108090D01*
X0269113Y0108157D01*
X0269131Y0108224D01*
X0269152Y0108289D01*
X0269178Y0108353D01*
X0269207Y0108415D01*
X0269239Y0108475D01*
X0269275Y0108534D01*
X0269315Y0108590D01*
X0269357Y0108644D01*
X0269403Y0108695D01*
X0269452Y0108744D01*
X0269503Y0108790D01*
X0269557Y0108832D01*
X0269613Y0108872D01*
X0269671Y0108908D01*
X0269732Y0108940D01*
X0269794Y0108969D01*
X0269858Y0108995D01*
X0269923Y0109016D01*
X0269990Y0109034D01*
X0270057Y0109048D01*
X0270125Y0109058D01*
X0270193Y0109064D01*
X0270262Y0109066D01*
X0270331Y0109064D01*
X0270399Y0109058D01*
X0270467Y0109048D01*
X0270534Y0109034D01*
X0270601Y0109016D01*
X0270666Y0108995D01*
X0270730Y0108969D01*
X0270792Y0108940D01*
X0270852Y0108908D01*
X0270911Y0108872D01*
X0270967Y0108832D01*
X0271021Y0108790D01*
X0271072Y0108744D01*
X0271121Y0108695D01*
X0271167Y0108644D01*
X0271209Y0108590D01*
X0271249Y0108534D01*
X0271285Y0108475D01*
X0271317Y0108415D01*
X0271346Y0108353D01*
X0271372Y0108289D01*
X0271393Y0108224D01*
X0271411Y0108157D01*
X0271425Y0108090D01*
X0271435Y0108022D01*
X0271441Y0107954D01*
X0271443Y0107885D01*
X0271441Y0107816D01*
X0271435Y0107748D01*
X0271425Y0107680D01*
X0271411Y0107613D01*
X0271393Y0107546D01*
X0271372Y0107481D01*
X0271346Y0107417D01*
X0271317Y0107355D01*
X0271285Y0107294D01*
X0271249Y0107236D01*
X0271209Y0107180D01*
X0271167Y0107126D01*
X0271121Y0107075D01*
X0271072Y0107026D01*
X0271021Y0106980D01*
X0270967Y0106938D01*
X0270911Y0106898D01*
X0270853Y0106862D01*
X0270792Y0106830D01*
X0270730Y0106801D01*
X0270666Y0106775D01*
X0270601Y0106754D01*
X0270534Y0106736D01*
X0270467Y0106722D01*
X0270399Y0106712D01*
X0270331Y0106706D01*
X0270262Y0106704D01*
X0270193Y0106706D01*
X0270125Y0106712D01*
X0270057Y0106722D01*
X0269990Y0106736D01*
X0269923Y0106754D01*
X0269858Y0106775D01*
X0269794Y0106801D01*
X0269732Y0106830D01*
X0269671Y0106862D01*
X0269613Y0106898D01*
X0269557Y0106938D01*
X0269503Y0106980D01*
X0269452Y0107026D01*
X0269403Y0107075D01*
X0269357Y0107126D01*
X0269315Y0107180D01*
X0269275Y0107236D01*
X0269239Y0107294D01*
X0269207Y0107355D01*
X0269178Y0107417D01*
X0269152Y0107481D01*
X0269131Y0107546D01*
X0269113Y0107613D01*
X0269099Y0107680D01*
X0269089Y0107748D01*
X0269083Y0107816D01*
X0269081Y0107885D01*
X0190341Y0107885D02*
X0190343Y0107954D01*
X0190349Y0108022D01*
X0190359Y0108090D01*
X0190373Y0108157D01*
X0190391Y0108224D01*
X0190412Y0108289D01*
X0190438Y0108353D01*
X0190467Y0108415D01*
X0190499Y0108475D01*
X0190535Y0108534D01*
X0190575Y0108590D01*
X0190617Y0108644D01*
X0190663Y0108695D01*
X0190712Y0108744D01*
X0190763Y0108790D01*
X0190817Y0108832D01*
X0190873Y0108872D01*
X0190931Y0108908D01*
X0190992Y0108940D01*
X0191054Y0108969D01*
X0191118Y0108995D01*
X0191183Y0109016D01*
X0191250Y0109034D01*
X0191317Y0109048D01*
X0191385Y0109058D01*
X0191453Y0109064D01*
X0191522Y0109066D01*
X0191591Y0109064D01*
X0191659Y0109058D01*
X0191727Y0109048D01*
X0191794Y0109034D01*
X0191861Y0109016D01*
X0191926Y0108995D01*
X0191990Y0108969D01*
X0192052Y0108940D01*
X0192112Y0108908D01*
X0192171Y0108872D01*
X0192227Y0108832D01*
X0192281Y0108790D01*
X0192332Y0108744D01*
X0192381Y0108695D01*
X0192427Y0108644D01*
X0192469Y0108590D01*
X0192509Y0108534D01*
X0192545Y0108475D01*
X0192577Y0108415D01*
X0192606Y0108353D01*
X0192632Y0108289D01*
X0192653Y0108224D01*
X0192671Y0108157D01*
X0192685Y0108090D01*
X0192695Y0108022D01*
X0192701Y0107954D01*
X0192703Y0107885D01*
X0192701Y0107816D01*
X0192695Y0107748D01*
X0192685Y0107680D01*
X0192671Y0107613D01*
X0192653Y0107546D01*
X0192632Y0107481D01*
X0192606Y0107417D01*
X0192577Y0107355D01*
X0192545Y0107294D01*
X0192509Y0107236D01*
X0192469Y0107180D01*
X0192427Y0107126D01*
X0192381Y0107075D01*
X0192332Y0107026D01*
X0192281Y0106980D01*
X0192227Y0106938D01*
X0192171Y0106898D01*
X0192113Y0106862D01*
X0192052Y0106830D01*
X0191990Y0106801D01*
X0191926Y0106775D01*
X0191861Y0106754D01*
X0191794Y0106736D01*
X0191727Y0106722D01*
X0191659Y0106712D01*
X0191591Y0106706D01*
X0191522Y0106704D01*
X0191453Y0106706D01*
X0191385Y0106712D01*
X0191317Y0106722D01*
X0191250Y0106736D01*
X0191183Y0106754D01*
X0191118Y0106775D01*
X0191054Y0106801D01*
X0190992Y0106830D01*
X0190931Y0106862D01*
X0190873Y0106898D01*
X0190817Y0106938D01*
X0190763Y0106980D01*
X0190712Y0107026D01*
X0190663Y0107075D01*
X0190617Y0107126D01*
X0190575Y0107180D01*
X0190535Y0107236D01*
X0190499Y0107294D01*
X0190467Y0107355D01*
X0190438Y0107417D01*
X0190412Y0107481D01*
X0190391Y0107546D01*
X0190373Y0107613D01*
X0190359Y0107680D01*
X0190349Y0107748D01*
X0190343Y0107816D01*
X0190341Y0107885D01*
X0174593Y0107885D02*
X0174595Y0107954D01*
X0174601Y0108022D01*
X0174611Y0108090D01*
X0174625Y0108157D01*
X0174643Y0108224D01*
X0174664Y0108289D01*
X0174690Y0108353D01*
X0174719Y0108415D01*
X0174751Y0108475D01*
X0174787Y0108534D01*
X0174827Y0108590D01*
X0174869Y0108644D01*
X0174915Y0108695D01*
X0174964Y0108744D01*
X0175015Y0108790D01*
X0175069Y0108832D01*
X0175125Y0108872D01*
X0175183Y0108908D01*
X0175244Y0108940D01*
X0175306Y0108969D01*
X0175370Y0108995D01*
X0175435Y0109016D01*
X0175502Y0109034D01*
X0175569Y0109048D01*
X0175637Y0109058D01*
X0175705Y0109064D01*
X0175774Y0109066D01*
X0175843Y0109064D01*
X0175911Y0109058D01*
X0175979Y0109048D01*
X0176046Y0109034D01*
X0176113Y0109016D01*
X0176178Y0108995D01*
X0176242Y0108969D01*
X0176304Y0108940D01*
X0176364Y0108908D01*
X0176423Y0108872D01*
X0176479Y0108832D01*
X0176533Y0108790D01*
X0176584Y0108744D01*
X0176633Y0108695D01*
X0176679Y0108644D01*
X0176721Y0108590D01*
X0176761Y0108534D01*
X0176797Y0108475D01*
X0176829Y0108415D01*
X0176858Y0108353D01*
X0176884Y0108289D01*
X0176905Y0108224D01*
X0176923Y0108157D01*
X0176937Y0108090D01*
X0176947Y0108022D01*
X0176953Y0107954D01*
X0176955Y0107885D01*
X0176953Y0107816D01*
X0176947Y0107748D01*
X0176937Y0107680D01*
X0176923Y0107613D01*
X0176905Y0107546D01*
X0176884Y0107481D01*
X0176858Y0107417D01*
X0176829Y0107355D01*
X0176797Y0107294D01*
X0176761Y0107236D01*
X0176721Y0107180D01*
X0176679Y0107126D01*
X0176633Y0107075D01*
X0176584Y0107026D01*
X0176533Y0106980D01*
X0176479Y0106938D01*
X0176423Y0106898D01*
X0176365Y0106862D01*
X0176304Y0106830D01*
X0176242Y0106801D01*
X0176178Y0106775D01*
X0176113Y0106754D01*
X0176046Y0106736D01*
X0175979Y0106722D01*
X0175911Y0106712D01*
X0175843Y0106706D01*
X0175774Y0106704D01*
X0175705Y0106706D01*
X0175637Y0106712D01*
X0175569Y0106722D01*
X0175502Y0106736D01*
X0175435Y0106754D01*
X0175370Y0106775D01*
X0175306Y0106801D01*
X0175244Y0106830D01*
X0175183Y0106862D01*
X0175125Y0106898D01*
X0175069Y0106938D01*
X0175015Y0106980D01*
X0174964Y0107026D01*
X0174915Y0107075D01*
X0174869Y0107126D01*
X0174827Y0107180D01*
X0174787Y0107236D01*
X0174751Y0107294D01*
X0174719Y0107355D01*
X0174690Y0107417D01*
X0174664Y0107481D01*
X0174643Y0107546D01*
X0174625Y0107613D01*
X0174611Y0107680D01*
X0174601Y0107748D01*
X0174595Y0107816D01*
X0174593Y0107885D01*
X0095853Y0107885D02*
X0095855Y0107954D01*
X0095861Y0108022D01*
X0095871Y0108090D01*
X0095885Y0108157D01*
X0095903Y0108224D01*
X0095924Y0108289D01*
X0095950Y0108353D01*
X0095979Y0108415D01*
X0096011Y0108475D01*
X0096047Y0108534D01*
X0096087Y0108590D01*
X0096129Y0108644D01*
X0096175Y0108695D01*
X0096224Y0108744D01*
X0096275Y0108790D01*
X0096329Y0108832D01*
X0096385Y0108872D01*
X0096443Y0108908D01*
X0096504Y0108940D01*
X0096566Y0108969D01*
X0096630Y0108995D01*
X0096695Y0109016D01*
X0096762Y0109034D01*
X0096829Y0109048D01*
X0096897Y0109058D01*
X0096965Y0109064D01*
X0097034Y0109066D01*
X0097103Y0109064D01*
X0097171Y0109058D01*
X0097239Y0109048D01*
X0097306Y0109034D01*
X0097373Y0109016D01*
X0097438Y0108995D01*
X0097502Y0108969D01*
X0097564Y0108940D01*
X0097624Y0108908D01*
X0097683Y0108872D01*
X0097739Y0108832D01*
X0097793Y0108790D01*
X0097844Y0108744D01*
X0097893Y0108695D01*
X0097939Y0108644D01*
X0097981Y0108590D01*
X0098021Y0108534D01*
X0098057Y0108475D01*
X0098089Y0108415D01*
X0098118Y0108353D01*
X0098144Y0108289D01*
X0098165Y0108224D01*
X0098183Y0108157D01*
X0098197Y0108090D01*
X0098207Y0108022D01*
X0098213Y0107954D01*
X0098215Y0107885D01*
X0098213Y0107816D01*
X0098207Y0107748D01*
X0098197Y0107680D01*
X0098183Y0107613D01*
X0098165Y0107546D01*
X0098144Y0107481D01*
X0098118Y0107417D01*
X0098089Y0107355D01*
X0098057Y0107294D01*
X0098021Y0107236D01*
X0097981Y0107180D01*
X0097939Y0107126D01*
X0097893Y0107075D01*
X0097844Y0107026D01*
X0097793Y0106980D01*
X0097739Y0106938D01*
X0097683Y0106898D01*
X0097625Y0106862D01*
X0097564Y0106830D01*
X0097502Y0106801D01*
X0097438Y0106775D01*
X0097373Y0106754D01*
X0097306Y0106736D01*
X0097239Y0106722D01*
X0097171Y0106712D01*
X0097103Y0106706D01*
X0097034Y0106704D01*
X0096965Y0106706D01*
X0096897Y0106712D01*
X0096829Y0106722D01*
X0096762Y0106736D01*
X0096695Y0106754D01*
X0096630Y0106775D01*
X0096566Y0106801D01*
X0096504Y0106830D01*
X0096443Y0106862D01*
X0096385Y0106898D01*
X0096329Y0106938D01*
X0096275Y0106980D01*
X0096224Y0107026D01*
X0096175Y0107075D01*
X0096129Y0107126D01*
X0096087Y0107180D01*
X0096047Y0107236D01*
X0096011Y0107294D01*
X0095979Y0107355D01*
X0095950Y0107417D01*
X0095924Y0107481D01*
X0095903Y0107546D01*
X0095885Y0107613D01*
X0095871Y0107680D01*
X0095861Y0107748D01*
X0095855Y0107816D01*
X0095853Y0107885D01*
X0080105Y0107885D02*
X0080107Y0107954D01*
X0080113Y0108022D01*
X0080123Y0108090D01*
X0080137Y0108157D01*
X0080155Y0108224D01*
X0080176Y0108289D01*
X0080202Y0108353D01*
X0080231Y0108415D01*
X0080263Y0108475D01*
X0080299Y0108534D01*
X0080339Y0108590D01*
X0080381Y0108644D01*
X0080427Y0108695D01*
X0080476Y0108744D01*
X0080527Y0108790D01*
X0080581Y0108832D01*
X0080637Y0108872D01*
X0080695Y0108908D01*
X0080756Y0108940D01*
X0080818Y0108969D01*
X0080882Y0108995D01*
X0080947Y0109016D01*
X0081014Y0109034D01*
X0081081Y0109048D01*
X0081149Y0109058D01*
X0081217Y0109064D01*
X0081286Y0109066D01*
X0081355Y0109064D01*
X0081423Y0109058D01*
X0081491Y0109048D01*
X0081558Y0109034D01*
X0081625Y0109016D01*
X0081690Y0108995D01*
X0081754Y0108969D01*
X0081816Y0108940D01*
X0081876Y0108908D01*
X0081935Y0108872D01*
X0081991Y0108832D01*
X0082045Y0108790D01*
X0082096Y0108744D01*
X0082145Y0108695D01*
X0082191Y0108644D01*
X0082233Y0108590D01*
X0082273Y0108534D01*
X0082309Y0108475D01*
X0082341Y0108415D01*
X0082370Y0108353D01*
X0082396Y0108289D01*
X0082417Y0108224D01*
X0082435Y0108157D01*
X0082449Y0108090D01*
X0082459Y0108022D01*
X0082465Y0107954D01*
X0082467Y0107885D01*
X0082465Y0107816D01*
X0082459Y0107748D01*
X0082449Y0107680D01*
X0082435Y0107613D01*
X0082417Y0107546D01*
X0082396Y0107481D01*
X0082370Y0107417D01*
X0082341Y0107355D01*
X0082309Y0107294D01*
X0082273Y0107236D01*
X0082233Y0107180D01*
X0082191Y0107126D01*
X0082145Y0107075D01*
X0082096Y0107026D01*
X0082045Y0106980D01*
X0081991Y0106938D01*
X0081935Y0106898D01*
X0081877Y0106862D01*
X0081816Y0106830D01*
X0081754Y0106801D01*
X0081690Y0106775D01*
X0081625Y0106754D01*
X0081558Y0106736D01*
X0081491Y0106722D01*
X0081423Y0106712D01*
X0081355Y0106706D01*
X0081286Y0106704D01*
X0081217Y0106706D01*
X0081149Y0106712D01*
X0081081Y0106722D01*
X0081014Y0106736D01*
X0080947Y0106754D01*
X0080882Y0106775D01*
X0080818Y0106801D01*
X0080756Y0106830D01*
X0080695Y0106862D01*
X0080637Y0106898D01*
X0080581Y0106938D01*
X0080527Y0106980D01*
X0080476Y0107026D01*
X0080427Y0107075D01*
X0080381Y0107126D01*
X0080339Y0107180D01*
X0080299Y0107236D01*
X0080263Y0107294D01*
X0080231Y0107355D01*
X0080202Y0107417D01*
X0080176Y0107481D01*
X0080155Y0107546D01*
X0080137Y0107613D01*
X0080123Y0107680D01*
X0080113Y0107748D01*
X0080107Y0107816D01*
X0080105Y0107885D01*
X0080105Y0182688D02*
X0080107Y0182757D01*
X0080113Y0182825D01*
X0080123Y0182893D01*
X0080137Y0182960D01*
X0080155Y0183027D01*
X0080176Y0183092D01*
X0080202Y0183156D01*
X0080231Y0183218D01*
X0080263Y0183278D01*
X0080299Y0183337D01*
X0080339Y0183393D01*
X0080381Y0183447D01*
X0080427Y0183498D01*
X0080476Y0183547D01*
X0080527Y0183593D01*
X0080581Y0183635D01*
X0080637Y0183675D01*
X0080695Y0183711D01*
X0080756Y0183743D01*
X0080818Y0183772D01*
X0080882Y0183798D01*
X0080947Y0183819D01*
X0081014Y0183837D01*
X0081081Y0183851D01*
X0081149Y0183861D01*
X0081217Y0183867D01*
X0081286Y0183869D01*
X0081355Y0183867D01*
X0081423Y0183861D01*
X0081491Y0183851D01*
X0081558Y0183837D01*
X0081625Y0183819D01*
X0081690Y0183798D01*
X0081754Y0183772D01*
X0081816Y0183743D01*
X0081876Y0183711D01*
X0081935Y0183675D01*
X0081991Y0183635D01*
X0082045Y0183593D01*
X0082096Y0183547D01*
X0082145Y0183498D01*
X0082191Y0183447D01*
X0082233Y0183393D01*
X0082273Y0183337D01*
X0082309Y0183278D01*
X0082341Y0183218D01*
X0082370Y0183156D01*
X0082396Y0183092D01*
X0082417Y0183027D01*
X0082435Y0182960D01*
X0082449Y0182893D01*
X0082459Y0182825D01*
X0082465Y0182757D01*
X0082467Y0182688D01*
X0082465Y0182619D01*
X0082459Y0182551D01*
X0082449Y0182483D01*
X0082435Y0182416D01*
X0082417Y0182349D01*
X0082396Y0182284D01*
X0082370Y0182220D01*
X0082341Y0182158D01*
X0082309Y0182097D01*
X0082273Y0182039D01*
X0082233Y0181983D01*
X0082191Y0181929D01*
X0082145Y0181878D01*
X0082096Y0181829D01*
X0082045Y0181783D01*
X0081991Y0181741D01*
X0081935Y0181701D01*
X0081877Y0181665D01*
X0081816Y0181633D01*
X0081754Y0181604D01*
X0081690Y0181578D01*
X0081625Y0181557D01*
X0081558Y0181539D01*
X0081491Y0181525D01*
X0081423Y0181515D01*
X0081355Y0181509D01*
X0081286Y0181507D01*
X0081217Y0181509D01*
X0081149Y0181515D01*
X0081081Y0181525D01*
X0081014Y0181539D01*
X0080947Y0181557D01*
X0080882Y0181578D01*
X0080818Y0181604D01*
X0080756Y0181633D01*
X0080695Y0181665D01*
X0080637Y0181701D01*
X0080581Y0181741D01*
X0080527Y0181783D01*
X0080476Y0181829D01*
X0080427Y0181878D01*
X0080381Y0181929D01*
X0080339Y0181983D01*
X0080299Y0182039D01*
X0080263Y0182097D01*
X0080231Y0182158D01*
X0080202Y0182220D01*
X0080176Y0182284D01*
X0080155Y0182349D01*
X0080137Y0182416D01*
X0080123Y0182483D01*
X0080113Y0182551D01*
X0080107Y0182619D01*
X0080105Y0182688D01*
X0095853Y0182688D02*
X0095855Y0182757D01*
X0095861Y0182825D01*
X0095871Y0182893D01*
X0095885Y0182960D01*
X0095903Y0183027D01*
X0095924Y0183092D01*
X0095950Y0183156D01*
X0095979Y0183218D01*
X0096011Y0183278D01*
X0096047Y0183337D01*
X0096087Y0183393D01*
X0096129Y0183447D01*
X0096175Y0183498D01*
X0096224Y0183547D01*
X0096275Y0183593D01*
X0096329Y0183635D01*
X0096385Y0183675D01*
X0096443Y0183711D01*
X0096504Y0183743D01*
X0096566Y0183772D01*
X0096630Y0183798D01*
X0096695Y0183819D01*
X0096762Y0183837D01*
X0096829Y0183851D01*
X0096897Y0183861D01*
X0096965Y0183867D01*
X0097034Y0183869D01*
X0097103Y0183867D01*
X0097171Y0183861D01*
X0097239Y0183851D01*
X0097306Y0183837D01*
X0097373Y0183819D01*
X0097438Y0183798D01*
X0097502Y0183772D01*
X0097564Y0183743D01*
X0097624Y0183711D01*
X0097683Y0183675D01*
X0097739Y0183635D01*
X0097793Y0183593D01*
X0097844Y0183547D01*
X0097893Y0183498D01*
X0097939Y0183447D01*
X0097981Y0183393D01*
X0098021Y0183337D01*
X0098057Y0183278D01*
X0098089Y0183218D01*
X0098118Y0183156D01*
X0098144Y0183092D01*
X0098165Y0183027D01*
X0098183Y0182960D01*
X0098197Y0182893D01*
X0098207Y0182825D01*
X0098213Y0182757D01*
X0098215Y0182688D01*
X0098213Y0182619D01*
X0098207Y0182551D01*
X0098197Y0182483D01*
X0098183Y0182416D01*
X0098165Y0182349D01*
X0098144Y0182284D01*
X0098118Y0182220D01*
X0098089Y0182158D01*
X0098057Y0182097D01*
X0098021Y0182039D01*
X0097981Y0181983D01*
X0097939Y0181929D01*
X0097893Y0181878D01*
X0097844Y0181829D01*
X0097793Y0181783D01*
X0097739Y0181741D01*
X0097683Y0181701D01*
X0097625Y0181665D01*
X0097564Y0181633D01*
X0097502Y0181604D01*
X0097438Y0181578D01*
X0097373Y0181557D01*
X0097306Y0181539D01*
X0097239Y0181525D01*
X0097171Y0181515D01*
X0097103Y0181509D01*
X0097034Y0181507D01*
X0096965Y0181509D01*
X0096897Y0181515D01*
X0096829Y0181525D01*
X0096762Y0181539D01*
X0096695Y0181557D01*
X0096630Y0181578D01*
X0096566Y0181604D01*
X0096504Y0181633D01*
X0096443Y0181665D01*
X0096385Y0181701D01*
X0096329Y0181741D01*
X0096275Y0181783D01*
X0096224Y0181829D01*
X0096175Y0181878D01*
X0096129Y0181929D01*
X0096087Y0181983D01*
X0096047Y0182039D01*
X0096011Y0182097D01*
X0095979Y0182158D01*
X0095950Y0182220D01*
X0095924Y0182284D01*
X0095903Y0182349D01*
X0095885Y0182416D01*
X0095871Y0182483D01*
X0095861Y0182551D01*
X0095855Y0182619D01*
X0095853Y0182688D01*
X0174593Y0182688D02*
X0174595Y0182757D01*
X0174601Y0182825D01*
X0174611Y0182893D01*
X0174625Y0182960D01*
X0174643Y0183027D01*
X0174664Y0183092D01*
X0174690Y0183156D01*
X0174719Y0183218D01*
X0174751Y0183278D01*
X0174787Y0183337D01*
X0174827Y0183393D01*
X0174869Y0183447D01*
X0174915Y0183498D01*
X0174964Y0183547D01*
X0175015Y0183593D01*
X0175069Y0183635D01*
X0175125Y0183675D01*
X0175183Y0183711D01*
X0175244Y0183743D01*
X0175306Y0183772D01*
X0175370Y0183798D01*
X0175435Y0183819D01*
X0175502Y0183837D01*
X0175569Y0183851D01*
X0175637Y0183861D01*
X0175705Y0183867D01*
X0175774Y0183869D01*
X0175843Y0183867D01*
X0175911Y0183861D01*
X0175979Y0183851D01*
X0176046Y0183837D01*
X0176113Y0183819D01*
X0176178Y0183798D01*
X0176242Y0183772D01*
X0176304Y0183743D01*
X0176364Y0183711D01*
X0176423Y0183675D01*
X0176479Y0183635D01*
X0176533Y0183593D01*
X0176584Y0183547D01*
X0176633Y0183498D01*
X0176679Y0183447D01*
X0176721Y0183393D01*
X0176761Y0183337D01*
X0176797Y0183278D01*
X0176829Y0183218D01*
X0176858Y0183156D01*
X0176884Y0183092D01*
X0176905Y0183027D01*
X0176923Y0182960D01*
X0176937Y0182893D01*
X0176947Y0182825D01*
X0176953Y0182757D01*
X0176955Y0182688D01*
X0176953Y0182619D01*
X0176947Y0182551D01*
X0176937Y0182483D01*
X0176923Y0182416D01*
X0176905Y0182349D01*
X0176884Y0182284D01*
X0176858Y0182220D01*
X0176829Y0182158D01*
X0176797Y0182097D01*
X0176761Y0182039D01*
X0176721Y0181983D01*
X0176679Y0181929D01*
X0176633Y0181878D01*
X0176584Y0181829D01*
X0176533Y0181783D01*
X0176479Y0181741D01*
X0176423Y0181701D01*
X0176365Y0181665D01*
X0176304Y0181633D01*
X0176242Y0181604D01*
X0176178Y0181578D01*
X0176113Y0181557D01*
X0176046Y0181539D01*
X0175979Y0181525D01*
X0175911Y0181515D01*
X0175843Y0181509D01*
X0175774Y0181507D01*
X0175705Y0181509D01*
X0175637Y0181515D01*
X0175569Y0181525D01*
X0175502Y0181539D01*
X0175435Y0181557D01*
X0175370Y0181578D01*
X0175306Y0181604D01*
X0175244Y0181633D01*
X0175183Y0181665D01*
X0175125Y0181701D01*
X0175069Y0181741D01*
X0175015Y0181783D01*
X0174964Y0181829D01*
X0174915Y0181878D01*
X0174869Y0181929D01*
X0174827Y0181983D01*
X0174787Y0182039D01*
X0174751Y0182097D01*
X0174719Y0182158D01*
X0174690Y0182220D01*
X0174664Y0182284D01*
X0174643Y0182349D01*
X0174625Y0182416D01*
X0174611Y0182483D01*
X0174601Y0182551D01*
X0174595Y0182619D01*
X0174593Y0182688D01*
X0190341Y0182688D02*
X0190343Y0182757D01*
X0190349Y0182825D01*
X0190359Y0182893D01*
X0190373Y0182960D01*
X0190391Y0183027D01*
X0190412Y0183092D01*
X0190438Y0183156D01*
X0190467Y0183218D01*
X0190499Y0183278D01*
X0190535Y0183337D01*
X0190575Y0183393D01*
X0190617Y0183447D01*
X0190663Y0183498D01*
X0190712Y0183547D01*
X0190763Y0183593D01*
X0190817Y0183635D01*
X0190873Y0183675D01*
X0190931Y0183711D01*
X0190992Y0183743D01*
X0191054Y0183772D01*
X0191118Y0183798D01*
X0191183Y0183819D01*
X0191250Y0183837D01*
X0191317Y0183851D01*
X0191385Y0183861D01*
X0191453Y0183867D01*
X0191522Y0183869D01*
X0191591Y0183867D01*
X0191659Y0183861D01*
X0191727Y0183851D01*
X0191794Y0183837D01*
X0191861Y0183819D01*
X0191926Y0183798D01*
X0191990Y0183772D01*
X0192052Y0183743D01*
X0192112Y0183711D01*
X0192171Y0183675D01*
X0192227Y0183635D01*
X0192281Y0183593D01*
X0192332Y0183547D01*
X0192381Y0183498D01*
X0192427Y0183447D01*
X0192469Y0183393D01*
X0192509Y0183337D01*
X0192545Y0183278D01*
X0192577Y0183218D01*
X0192606Y0183156D01*
X0192632Y0183092D01*
X0192653Y0183027D01*
X0192671Y0182960D01*
X0192685Y0182893D01*
X0192695Y0182825D01*
X0192701Y0182757D01*
X0192703Y0182688D01*
X0192701Y0182619D01*
X0192695Y0182551D01*
X0192685Y0182483D01*
X0192671Y0182416D01*
X0192653Y0182349D01*
X0192632Y0182284D01*
X0192606Y0182220D01*
X0192577Y0182158D01*
X0192545Y0182097D01*
X0192509Y0182039D01*
X0192469Y0181983D01*
X0192427Y0181929D01*
X0192381Y0181878D01*
X0192332Y0181829D01*
X0192281Y0181783D01*
X0192227Y0181741D01*
X0192171Y0181701D01*
X0192113Y0181665D01*
X0192052Y0181633D01*
X0191990Y0181604D01*
X0191926Y0181578D01*
X0191861Y0181557D01*
X0191794Y0181539D01*
X0191727Y0181525D01*
X0191659Y0181515D01*
X0191591Y0181509D01*
X0191522Y0181507D01*
X0191453Y0181509D01*
X0191385Y0181515D01*
X0191317Y0181525D01*
X0191250Y0181539D01*
X0191183Y0181557D01*
X0191118Y0181578D01*
X0191054Y0181604D01*
X0190992Y0181633D01*
X0190931Y0181665D01*
X0190873Y0181701D01*
X0190817Y0181741D01*
X0190763Y0181783D01*
X0190712Y0181829D01*
X0190663Y0181878D01*
X0190617Y0181929D01*
X0190575Y0181983D01*
X0190535Y0182039D01*
X0190499Y0182097D01*
X0190467Y0182158D01*
X0190438Y0182220D01*
X0190412Y0182284D01*
X0190391Y0182349D01*
X0190373Y0182416D01*
X0190359Y0182483D01*
X0190349Y0182551D01*
X0190343Y0182619D01*
X0190341Y0182688D01*
X0269081Y0182688D02*
X0269083Y0182757D01*
X0269089Y0182825D01*
X0269099Y0182893D01*
X0269113Y0182960D01*
X0269131Y0183027D01*
X0269152Y0183092D01*
X0269178Y0183156D01*
X0269207Y0183218D01*
X0269239Y0183278D01*
X0269275Y0183337D01*
X0269315Y0183393D01*
X0269357Y0183447D01*
X0269403Y0183498D01*
X0269452Y0183547D01*
X0269503Y0183593D01*
X0269557Y0183635D01*
X0269613Y0183675D01*
X0269671Y0183711D01*
X0269732Y0183743D01*
X0269794Y0183772D01*
X0269858Y0183798D01*
X0269923Y0183819D01*
X0269990Y0183837D01*
X0270057Y0183851D01*
X0270125Y0183861D01*
X0270193Y0183867D01*
X0270262Y0183869D01*
X0270331Y0183867D01*
X0270399Y0183861D01*
X0270467Y0183851D01*
X0270534Y0183837D01*
X0270601Y0183819D01*
X0270666Y0183798D01*
X0270730Y0183772D01*
X0270792Y0183743D01*
X0270852Y0183711D01*
X0270911Y0183675D01*
X0270967Y0183635D01*
X0271021Y0183593D01*
X0271072Y0183547D01*
X0271121Y0183498D01*
X0271167Y0183447D01*
X0271209Y0183393D01*
X0271249Y0183337D01*
X0271285Y0183278D01*
X0271317Y0183218D01*
X0271346Y0183156D01*
X0271372Y0183092D01*
X0271393Y0183027D01*
X0271411Y0182960D01*
X0271425Y0182893D01*
X0271435Y0182825D01*
X0271441Y0182757D01*
X0271443Y0182688D01*
X0271441Y0182619D01*
X0271435Y0182551D01*
X0271425Y0182483D01*
X0271411Y0182416D01*
X0271393Y0182349D01*
X0271372Y0182284D01*
X0271346Y0182220D01*
X0271317Y0182158D01*
X0271285Y0182097D01*
X0271249Y0182039D01*
X0271209Y0181983D01*
X0271167Y0181929D01*
X0271121Y0181878D01*
X0271072Y0181829D01*
X0271021Y0181783D01*
X0270967Y0181741D01*
X0270911Y0181701D01*
X0270853Y0181665D01*
X0270792Y0181633D01*
X0270730Y0181604D01*
X0270666Y0181578D01*
X0270601Y0181557D01*
X0270534Y0181539D01*
X0270467Y0181525D01*
X0270399Y0181515D01*
X0270331Y0181509D01*
X0270262Y0181507D01*
X0270193Y0181509D01*
X0270125Y0181515D01*
X0270057Y0181525D01*
X0269990Y0181539D01*
X0269923Y0181557D01*
X0269858Y0181578D01*
X0269794Y0181604D01*
X0269732Y0181633D01*
X0269671Y0181665D01*
X0269613Y0181701D01*
X0269557Y0181741D01*
X0269503Y0181783D01*
X0269452Y0181829D01*
X0269403Y0181878D01*
X0269357Y0181929D01*
X0269315Y0181983D01*
X0269275Y0182039D01*
X0269239Y0182097D01*
X0269207Y0182158D01*
X0269178Y0182220D01*
X0269152Y0182284D01*
X0269131Y0182349D01*
X0269113Y0182416D01*
X0269099Y0182483D01*
X0269089Y0182551D01*
X0269083Y0182619D01*
X0269081Y0182688D01*
X0284829Y0182688D02*
X0284831Y0182757D01*
X0284837Y0182825D01*
X0284847Y0182893D01*
X0284861Y0182960D01*
X0284879Y0183027D01*
X0284900Y0183092D01*
X0284926Y0183156D01*
X0284955Y0183218D01*
X0284987Y0183278D01*
X0285023Y0183337D01*
X0285063Y0183393D01*
X0285105Y0183447D01*
X0285151Y0183498D01*
X0285200Y0183547D01*
X0285251Y0183593D01*
X0285305Y0183635D01*
X0285361Y0183675D01*
X0285419Y0183711D01*
X0285480Y0183743D01*
X0285542Y0183772D01*
X0285606Y0183798D01*
X0285671Y0183819D01*
X0285738Y0183837D01*
X0285805Y0183851D01*
X0285873Y0183861D01*
X0285941Y0183867D01*
X0286010Y0183869D01*
X0286079Y0183867D01*
X0286147Y0183861D01*
X0286215Y0183851D01*
X0286282Y0183837D01*
X0286349Y0183819D01*
X0286414Y0183798D01*
X0286478Y0183772D01*
X0286540Y0183743D01*
X0286600Y0183711D01*
X0286659Y0183675D01*
X0286715Y0183635D01*
X0286769Y0183593D01*
X0286820Y0183547D01*
X0286869Y0183498D01*
X0286915Y0183447D01*
X0286957Y0183393D01*
X0286997Y0183337D01*
X0287033Y0183278D01*
X0287065Y0183218D01*
X0287094Y0183156D01*
X0287120Y0183092D01*
X0287141Y0183027D01*
X0287159Y0182960D01*
X0287173Y0182893D01*
X0287183Y0182825D01*
X0287189Y0182757D01*
X0287191Y0182688D01*
X0287189Y0182619D01*
X0287183Y0182551D01*
X0287173Y0182483D01*
X0287159Y0182416D01*
X0287141Y0182349D01*
X0287120Y0182284D01*
X0287094Y0182220D01*
X0287065Y0182158D01*
X0287033Y0182097D01*
X0286997Y0182039D01*
X0286957Y0181983D01*
X0286915Y0181929D01*
X0286869Y0181878D01*
X0286820Y0181829D01*
X0286769Y0181783D01*
X0286715Y0181741D01*
X0286659Y0181701D01*
X0286601Y0181665D01*
X0286540Y0181633D01*
X0286478Y0181604D01*
X0286414Y0181578D01*
X0286349Y0181557D01*
X0286282Y0181539D01*
X0286215Y0181525D01*
X0286147Y0181515D01*
X0286079Y0181509D01*
X0286010Y0181507D01*
X0285941Y0181509D01*
X0285873Y0181515D01*
X0285805Y0181525D01*
X0285738Y0181539D01*
X0285671Y0181557D01*
X0285606Y0181578D01*
X0285542Y0181604D01*
X0285480Y0181633D01*
X0285419Y0181665D01*
X0285361Y0181701D01*
X0285305Y0181741D01*
X0285251Y0181783D01*
X0285200Y0181829D01*
X0285151Y0181878D01*
X0285105Y0181929D01*
X0285063Y0181983D01*
X0285023Y0182039D01*
X0284987Y0182097D01*
X0284955Y0182158D01*
X0284926Y0182220D01*
X0284900Y0182284D01*
X0284879Y0182349D01*
X0284861Y0182416D01*
X0284847Y0182483D01*
X0284837Y0182551D01*
X0284831Y0182619D01*
X0284829Y0182688D01*
X0363570Y0182688D02*
X0363572Y0182757D01*
X0363578Y0182825D01*
X0363588Y0182893D01*
X0363602Y0182960D01*
X0363620Y0183027D01*
X0363641Y0183092D01*
X0363667Y0183156D01*
X0363696Y0183218D01*
X0363728Y0183278D01*
X0363764Y0183337D01*
X0363804Y0183393D01*
X0363846Y0183447D01*
X0363892Y0183498D01*
X0363941Y0183547D01*
X0363992Y0183593D01*
X0364046Y0183635D01*
X0364102Y0183675D01*
X0364160Y0183711D01*
X0364221Y0183743D01*
X0364283Y0183772D01*
X0364347Y0183798D01*
X0364412Y0183819D01*
X0364479Y0183837D01*
X0364546Y0183851D01*
X0364614Y0183861D01*
X0364682Y0183867D01*
X0364751Y0183869D01*
X0364820Y0183867D01*
X0364888Y0183861D01*
X0364956Y0183851D01*
X0365023Y0183837D01*
X0365090Y0183819D01*
X0365155Y0183798D01*
X0365219Y0183772D01*
X0365281Y0183743D01*
X0365341Y0183711D01*
X0365400Y0183675D01*
X0365456Y0183635D01*
X0365510Y0183593D01*
X0365561Y0183547D01*
X0365610Y0183498D01*
X0365656Y0183447D01*
X0365698Y0183393D01*
X0365738Y0183337D01*
X0365774Y0183278D01*
X0365806Y0183218D01*
X0365835Y0183156D01*
X0365861Y0183092D01*
X0365882Y0183027D01*
X0365900Y0182960D01*
X0365914Y0182893D01*
X0365924Y0182825D01*
X0365930Y0182757D01*
X0365932Y0182688D01*
X0365930Y0182619D01*
X0365924Y0182551D01*
X0365914Y0182483D01*
X0365900Y0182416D01*
X0365882Y0182349D01*
X0365861Y0182284D01*
X0365835Y0182220D01*
X0365806Y0182158D01*
X0365774Y0182097D01*
X0365738Y0182039D01*
X0365698Y0181983D01*
X0365656Y0181929D01*
X0365610Y0181878D01*
X0365561Y0181829D01*
X0365510Y0181783D01*
X0365456Y0181741D01*
X0365400Y0181701D01*
X0365342Y0181665D01*
X0365281Y0181633D01*
X0365219Y0181604D01*
X0365155Y0181578D01*
X0365090Y0181557D01*
X0365023Y0181539D01*
X0364956Y0181525D01*
X0364888Y0181515D01*
X0364820Y0181509D01*
X0364751Y0181507D01*
X0364682Y0181509D01*
X0364614Y0181515D01*
X0364546Y0181525D01*
X0364479Y0181539D01*
X0364412Y0181557D01*
X0364347Y0181578D01*
X0364283Y0181604D01*
X0364221Y0181633D01*
X0364160Y0181665D01*
X0364102Y0181701D01*
X0364046Y0181741D01*
X0363992Y0181783D01*
X0363941Y0181829D01*
X0363892Y0181878D01*
X0363846Y0181929D01*
X0363804Y0181983D01*
X0363764Y0182039D01*
X0363728Y0182097D01*
X0363696Y0182158D01*
X0363667Y0182220D01*
X0363641Y0182284D01*
X0363620Y0182349D01*
X0363602Y0182416D01*
X0363588Y0182483D01*
X0363578Y0182551D01*
X0363572Y0182619D01*
X0363570Y0182688D01*
X0363570Y0257491D02*
X0363572Y0257560D01*
X0363578Y0257628D01*
X0363588Y0257696D01*
X0363602Y0257763D01*
X0363620Y0257830D01*
X0363641Y0257895D01*
X0363667Y0257959D01*
X0363696Y0258021D01*
X0363728Y0258081D01*
X0363764Y0258140D01*
X0363804Y0258196D01*
X0363846Y0258250D01*
X0363892Y0258301D01*
X0363941Y0258350D01*
X0363992Y0258396D01*
X0364046Y0258438D01*
X0364102Y0258478D01*
X0364160Y0258514D01*
X0364221Y0258546D01*
X0364283Y0258575D01*
X0364347Y0258601D01*
X0364412Y0258622D01*
X0364479Y0258640D01*
X0364546Y0258654D01*
X0364614Y0258664D01*
X0364682Y0258670D01*
X0364751Y0258672D01*
X0364820Y0258670D01*
X0364888Y0258664D01*
X0364956Y0258654D01*
X0365023Y0258640D01*
X0365090Y0258622D01*
X0365155Y0258601D01*
X0365219Y0258575D01*
X0365281Y0258546D01*
X0365341Y0258514D01*
X0365400Y0258478D01*
X0365456Y0258438D01*
X0365510Y0258396D01*
X0365561Y0258350D01*
X0365610Y0258301D01*
X0365656Y0258250D01*
X0365698Y0258196D01*
X0365738Y0258140D01*
X0365774Y0258081D01*
X0365806Y0258021D01*
X0365835Y0257959D01*
X0365861Y0257895D01*
X0365882Y0257830D01*
X0365900Y0257763D01*
X0365914Y0257696D01*
X0365924Y0257628D01*
X0365930Y0257560D01*
X0365932Y0257491D01*
X0365930Y0257422D01*
X0365924Y0257354D01*
X0365914Y0257286D01*
X0365900Y0257219D01*
X0365882Y0257152D01*
X0365861Y0257087D01*
X0365835Y0257023D01*
X0365806Y0256961D01*
X0365774Y0256900D01*
X0365738Y0256842D01*
X0365698Y0256786D01*
X0365656Y0256732D01*
X0365610Y0256681D01*
X0365561Y0256632D01*
X0365510Y0256586D01*
X0365456Y0256544D01*
X0365400Y0256504D01*
X0365342Y0256468D01*
X0365281Y0256436D01*
X0365219Y0256407D01*
X0365155Y0256381D01*
X0365090Y0256360D01*
X0365023Y0256342D01*
X0364956Y0256328D01*
X0364888Y0256318D01*
X0364820Y0256312D01*
X0364751Y0256310D01*
X0364682Y0256312D01*
X0364614Y0256318D01*
X0364546Y0256328D01*
X0364479Y0256342D01*
X0364412Y0256360D01*
X0364347Y0256381D01*
X0364283Y0256407D01*
X0364221Y0256436D01*
X0364160Y0256468D01*
X0364102Y0256504D01*
X0364046Y0256544D01*
X0363992Y0256586D01*
X0363941Y0256632D01*
X0363892Y0256681D01*
X0363846Y0256732D01*
X0363804Y0256786D01*
X0363764Y0256842D01*
X0363728Y0256900D01*
X0363696Y0256961D01*
X0363667Y0257023D01*
X0363641Y0257087D01*
X0363620Y0257152D01*
X0363602Y0257219D01*
X0363588Y0257286D01*
X0363578Y0257354D01*
X0363572Y0257422D01*
X0363570Y0257491D01*
X0284829Y0257491D02*
X0284831Y0257560D01*
X0284837Y0257628D01*
X0284847Y0257696D01*
X0284861Y0257763D01*
X0284879Y0257830D01*
X0284900Y0257895D01*
X0284926Y0257959D01*
X0284955Y0258021D01*
X0284987Y0258081D01*
X0285023Y0258140D01*
X0285063Y0258196D01*
X0285105Y0258250D01*
X0285151Y0258301D01*
X0285200Y0258350D01*
X0285251Y0258396D01*
X0285305Y0258438D01*
X0285361Y0258478D01*
X0285419Y0258514D01*
X0285480Y0258546D01*
X0285542Y0258575D01*
X0285606Y0258601D01*
X0285671Y0258622D01*
X0285738Y0258640D01*
X0285805Y0258654D01*
X0285873Y0258664D01*
X0285941Y0258670D01*
X0286010Y0258672D01*
X0286079Y0258670D01*
X0286147Y0258664D01*
X0286215Y0258654D01*
X0286282Y0258640D01*
X0286349Y0258622D01*
X0286414Y0258601D01*
X0286478Y0258575D01*
X0286540Y0258546D01*
X0286600Y0258514D01*
X0286659Y0258478D01*
X0286715Y0258438D01*
X0286769Y0258396D01*
X0286820Y0258350D01*
X0286869Y0258301D01*
X0286915Y0258250D01*
X0286957Y0258196D01*
X0286997Y0258140D01*
X0287033Y0258081D01*
X0287065Y0258021D01*
X0287094Y0257959D01*
X0287120Y0257895D01*
X0287141Y0257830D01*
X0287159Y0257763D01*
X0287173Y0257696D01*
X0287183Y0257628D01*
X0287189Y0257560D01*
X0287191Y0257491D01*
X0287189Y0257422D01*
X0287183Y0257354D01*
X0287173Y0257286D01*
X0287159Y0257219D01*
X0287141Y0257152D01*
X0287120Y0257087D01*
X0287094Y0257023D01*
X0287065Y0256961D01*
X0287033Y0256900D01*
X0286997Y0256842D01*
X0286957Y0256786D01*
X0286915Y0256732D01*
X0286869Y0256681D01*
X0286820Y0256632D01*
X0286769Y0256586D01*
X0286715Y0256544D01*
X0286659Y0256504D01*
X0286601Y0256468D01*
X0286540Y0256436D01*
X0286478Y0256407D01*
X0286414Y0256381D01*
X0286349Y0256360D01*
X0286282Y0256342D01*
X0286215Y0256328D01*
X0286147Y0256318D01*
X0286079Y0256312D01*
X0286010Y0256310D01*
X0285941Y0256312D01*
X0285873Y0256318D01*
X0285805Y0256328D01*
X0285738Y0256342D01*
X0285671Y0256360D01*
X0285606Y0256381D01*
X0285542Y0256407D01*
X0285480Y0256436D01*
X0285419Y0256468D01*
X0285361Y0256504D01*
X0285305Y0256544D01*
X0285251Y0256586D01*
X0285200Y0256632D01*
X0285151Y0256681D01*
X0285105Y0256732D01*
X0285063Y0256786D01*
X0285023Y0256842D01*
X0284987Y0256900D01*
X0284955Y0256961D01*
X0284926Y0257023D01*
X0284900Y0257087D01*
X0284879Y0257152D01*
X0284861Y0257219D01*
X0284847Y0257286D01*
X0284837Y0257354D01*
X0284831Y0257422D01*
X0284829Y0257491D01*
X0269081Y0257491D02*
X0269083Y0257560D01*
X0269089Y0257628D01*
X0269099Y0257696D01*
X0269113Y0257763D01*
X0269131Y0257830D01*
X0269152Y0257895D01*
X0269178Y0257959D01*
X0269207Y0258021D01*
X0269239Y0258081D01*
X0269275Y0258140D01*
X0269315Y0258196D01*
X0269357Y0258250D01*
X0269403Y0258301D01*
X0269452Y0258350D01*
X0269503Y0258396D01*
X0269557Y0258438D01*
X0269613Y0258478D01*
X0269671Y0258514D01*
X0269732Y0258546D01*
X0269794Y0258575D01*
X0269858Y0258601D01*
X0269923Y0258622D01*
X0269990Y0258640D01*
X0270057Y0258654D01*
X0270125Y0258664D01*
X0270193Y0258670D01*
X0270262Y0258672D01*
X0270331Y0258670D01*
X0270399Y0258664D01*
X0270467Y0258654D01*
X0270534Y0258640D01*
X0270601Y0258622D01*
X0270666Y0258601D01*
X0270730Y0258575D01*
X0270792Y0258546D01*
X0270852Y0258514D01*
X0270911Y0258478D01*
X0270967Y0258438D01*
X0271021Y0258396D01*
X0271072Y0258350D01*
X0271121Y0258301D01*
X0271167Y0258250D01*
X0271209Y0258196D01*
X0271249Y0258140D01*
X0271285Y0258081D01*
X0271317Y0258021D01*
X0271346Y0257959D01*
X0271372Y0257895D01*
X0271393Y0257830D01*
X0271411Y0257763D01*
X0271425Y0257696D01*
X0271435Y0257628D01*
X0271441Y0257560D01*
X0271443Y0257491D01*
X0271441Y0257422D01*
X0271435Y0257354D01*
X0271425Y0257286D01*
X0271411Y0257219D01*
X0271393Y0257152D01*
X0271372Y0257087D01*
X0271346Y0257023D01*
X0271317Y0256961D01*
X0271285Y0256900D01*
X0271249Y0256842D01*
X0271209Y0256786D01*
X0271167Y0256732D01*
X0271121Y0256681D01*
X0271072Y0256632D01*
X0271021Y0256586D01*
X0270967Y0256544D01*
X0270911Y0256504D01*
X0270853Y0256468D01*
X0270792Y0256436D01*
X0270730Y0256407D01*
X0270666Y0256381D01*
X0270601Y0256360D01*
X0270534Y0256342D01*
X0270467Y0256328D01*
X0270399Y0256318D01*
X0270331Y0256312D01*
X0270262Y0256310D01*
X0270193Y0256312D01*
X0270125Y0256318D01*
X0270057Y0256328D01*
X0269990Y0256342D01*
X0269923Y0256360D01*
X0269858Y0256381D01*
X0269794Y0256407D01*
X0269732Y0256436D01*
X0269671Y0256468D01*
X0269613Y0256504D01*
X0269557Y0256544D01*
X0269503Y0256586D01*
X0269452Y0256632D01*
X0269403Y0256681D01*
X0269357Y0256732D01*
X0269315Y0256786D01*
X0269275Y0256842D01*
X0269239Y0256900D01*
X0269207Y0256961D01*
X0269178Y0257023D01*
X0269152Y0257087D01*
X0269131Y0257152D01*
X0269113Y0257219D01*
X0269099Y0257286D01*
X0269089Y0257354D01*
X0269083Y0257422D01*
X0269081Y0257491D01*
X0190341Y0257491D02*
X0190343Y0257560D01*
X0190349Y0257628D01*
X0190359Y0257696D01*
X0190373Y0257763D01*
X0190391Y0257830D01*
X0190412Y0257895D01*
X0190438Y0257959D01*
X0190467Y0258021D01*
X0190499Y0258081D01*
X0190535Y0258140D01*
X0190575Y0258196D01*
X0190617Y0258250D01*
X0190663Y0258301D01*
X0190712Y0258350D01*
X0190763Y0258396D01*
X0190817Y0258438D01*
X0190873Y0258478D01*
X0190931Y0258514D01*
X0190992Y0258546D01*
X0191054Y0258575D01*
X0191118Y0258601D01*
X0191183Y0258622D01*
X0191250Y0258640D01*
X0191317Y0258654D01*
X0191385Y0258664D01*
X0191453Y0258670D01*
X0191522Y0258672D01*
X0191591Y0258670D01*
X0191659Y0258664D01*
X0191727Y0258654D01*
X0191794Y0258640D01*
X0191861Y0258622D01*
X0191926Y0258601D01*
X0191990Y0258575D01*
X0192052Y0258546D01*
X0192112Y0258514D01*
X0192171Y0258478D01*
X0192227Y0258438D01*
X0192281Y0258396D01*
X0192332Y0258350D01*
X0192381Y0258301D01*
X0192427Y0258250D01*
X0192469Y0258196D01*
X0192509Y0258140D01*
X0192545Y0258081D01*
X0192577Y0258021D01*
X0192606Y0257959D01*
X0192632Y0257895D01*
X0192653Y0257830D01*
X0192671Y0257763D01*
X0192685Y0257696D01*
X0192695Y0257628D01*
X0192701Y0257560D01*
X0192703Y0257491D01*
X0192701Y0257422D01*
X0192695Y0257354D01*
X0192685Y0257286D01*
X0192671Y0257219D01*
X0192653Y0257152D01*
X0192632Y0257087D01*
X0192606Y0257023D01*
X0192577Y0256961D01*
X0192545Y0256900D01*
X0192509Y0256842D01*
X0192469Y0256786D01*
X0192427Y0256732D01*
X0192381Y0256681D01*
X0192332Y0256632D01*
X0192281Y0256586D01*
X0192227Y0256544D01*
X0192171Y0256504D01*
X0192113Y0256468D01*
X0192052Y0256436D01*
X0191990Y0256407D01*
X0191926Y0256381D01*
X0191861Y0256360D01*
X0191794Y0256342D01*
X0191727Y0256328D01*
X0191659Y0256318D01*
X0191591Y0256312D01*
X0191522Y0256310D01*
X0191453Y0256312D01*
X0191385Y0256318D01*
X0191317Y0256328D01*
X0191250Y0256342D01*
X0191183Y0256360D01*
X0191118Y0256381D01*
X0191054Y0256407D01*
X0190992Y0256436D01*
X0190931Y0256468D01*
X0190873Y0256504D01*
X0190817Y0256544D01*
X0190763Y0256586D01*
X0190712Y0256632D01*
X0190663Y0256681D01*
X0190617Y0256732D01*
X0190575Y0256786D01*
X0190535Y0256842D01*
X0190499Y0256900D01*
X0190467Y0256961D01*
X0190438Y0257023D01*
X0190412Y0257087D01*
X0190391Y0257152D01*
X0190373Y0257219D01*
X0190359Y0257286D01*
X0190349Y0257354D01*
X0190343Y0257422D01*
X0190341Y0257491D01*
X0174593Y0257491D02*
X0174595Y0257560D01*
X0174601Y0257628D01*
X0174611Y0257696D01*
X0174625Y0257763D01*
X0174643Y0257830D01*
X0174664Y0257895D01*
X0174690Y0257959D01*
X0174719Y0258021D01*
X0174751Y0258081D01*
X0174787Y0258140D01*
X0174827Y0258196D01*
X0174869Y0258250D01*
X0174915Y0258301D01*
X0174964Y0258350D01*
X0175015Y0258396D01*
X0175069Y0258438D01*
X0175125Y0258478D01*
X0175183Y0258514D01*
X0175244Y0258546D01*
X0175306Y0258575D01*
X0175370Y0258601D01*
X0175435Y0258622D01*
X0175502Y0258640D01*
X0175569Y0258654D01*
X0175637Y0258664D01*
X0175705Y0258670D01*
X0175774Y0258672D01*
X0175843Y0258670D01*
X0175911Y0258664D01*
X0175979Y0258654D01*
X0176046Y0258640D01*
X0176113Y0258622D01*
X0176178Y0258601D01*
X0176242Y0258575D01*
X0176304Y0258546D01*
X0176364Y0258514D01*
X0176423Y0258478D01*
X0176479Y0258438D01*
X0176533Y0258396D01*
X0176584Y0258350D01*
X0176633Y0258301D01*
X0176679Y0258250D01*
X0176721Y0258196D01*
X0176761Y0258140D01*
X0176797Y0258081D01*
X0176829Y0258021D01*
X0176858Y0257959D01*
X0176884Y0257895D01*
X0176905Y0257830D01*
X0176923Y0257763D01*
X0176937Y0257696D01*
X0176947Y0257628D01*
X0176953Y0257560D01*
X0176955Y0257491D01*
X0176953Y0257422D01*
X0176947Y0257354D01*
X0176937Y0257286D01*
X0176923Y0257219D01*
X0176905Y0257152D01*
X0176884Y0257087D01*
X0176858Y0257023D01*
X0176829Y0256961D01*
X0176797Y0256900D01*
X0176761Y0256842D01*
X0176721Y0256786D01*
X0176679Y0256732D01*
X0176633Y0256681D01*
X0176584Y0256632D01*
X0176533Y0256586D01*
X0176479Y0256544D01*
X0176423Y0256504D01*
X0176365Y0256468D01*
X0176304Y0256436D01*
X0176242Y0256407D01*
X0176178Y0256381D01*
X0176113Y0256360D01*
X0176046Y0256342D01*
X0175979Y0256328D01*
X0175911Y0256318D01*
X0175843Y0256312D01*
X0175774Y0256310D01*
X0175705Y0256312D01*
X0175637Y0256318D01*
X0175569Y0256328D01*
X0175502Y0256342D01*
X0175435Y0256360D01*
X0175370Y0256381D01*
X0175306Y0256407D01*
X0175244Y0256436D01*
X0175183Y0256468D01*
X0175125Y0256504D01*
X0175069Y0256544D01*
X0175015Y0256586D01*
X0174964Y0256632D01*
X0174915Y0256681D01*
X0174869Y0256732D01*
X0174827Y0256786D01*
X0174787Y0256842D01*
X0174751Y0256900D01*
X0174719Y0256961D01*
X0174690Y0257023D01*
X0174664Y0257087D01*
X0174643Y0257152D01*
X0174625Y0257219D01*
X0174611Y0257286D01*
X0174601Y0257354D01*
X0174595Y0257422D01*
X0174593Y0257491D01*
X0095853Y0257491D02*
X0095855Y0257560D01*
X0095861Y0257628D01*
X0095871Y0257696D01*
X0095885Y0257763D01*
X0095903Y0257830D01*
X0095924Y0257895D01*
X0095950Y0257959D01*
X0095979Y0258021D01*
X0096011Y0258081D01*
X0096047Y0258140D01*
X0096087Y0258196D01*
X0096129Y0258250D01*
X0096175Y0258301D01*
X0096224Y0258350D01*
X0096275Y0258396D01*
X0096329Y0258438D01*
X0096385Y0258478D01*
X0096443Y0258514D01*
X0096504Y0258546D01*
X0096566Y0258575D01*
X0096630Y0258601D01*
X0096695Y0258622D01*
X0096762Y0258640D01*
X0096829Y0258654D01*
X0096897Y0258664D01*
X0096965Y0258670D01*
X0097034Y0258672D01*
X0097103Y0258670D01*
X0097171Y0258664D01*
X0097239Y0258654D01*
X0097306Y0258640D01*
X0097373Y0258622D01*
X0097438Y0258601D01*
X0097502Y0258575D01*
X0097564Y0258546D01*
X0097624Y0258514D01*
X0097683Y0258478D01*
X0097739Y0258438D01*
X0097793Y0258396D01*
X0097844Y0258350D01*
X0097893Y0258301D01*
X0097939Y0258250D01*
X0097981Y0258196D01*
X0098021Y0258140D01*
X0098057Y0258081D01*
X0098089Y0258021D01*
X0098118Y0257959D01*
X0098144Y0257895D01*
X0098165Y0257830D01*
X0098183Y0257763D01*
X0098197Y0257696D01*
X0098207Y0257628D01*
X0098213Y0257560D01*
X0098215Y0257491D01*
X0098213Y0257422D01*
X0098207Y0257354D01*
X0098197Y0257286D01*
X0098183Y0257219D01*
X0098165Y0257152D01*
X0098144Y0257087D01*
X0098118Y0257023D01*
X0098089Y0256961D01*
X0098057Y0256900D01*
X0098021Y0256842D01*
X0097981Y0256786D01*
X0097939Y0256732D01*
X0097893Y0256681D01*
X0097844Y0256632D01*
X0097793Y0256586D01*
X0097739Y0256544D01*
X0097683Y0256504D01*
X0097625Y0256468D01*
X0097564Y0256436D01*
X0097502Y0256407D01*
X0097438Y0256381D01*
X0097373Y0256360D01*
X0097306Y0256342D01*
X0097239Y0256328D01*
X0097171Y0256318D01*
X0097103Y0256312D01*
X0097034Y0256310D01*
X0096965Y0256312D01*
X0096897Y0256318D01*
X0096829Y0256328D01*
X0096762Y0256342D01*
X0096695Y0256360D01*
X0096630Y0256381D01*
X0096566Y0256407D01*
X0096504Y0256436D01*
X0096443Y0256468D01*
X0096385Y0256504D01*
X0096329Y0256544D01*
X0096275Y0256586D01*
X0096224Y0256632D01*
X0096175Y0256681D01*
X0096129Y0256732D01*
X0096087Y0256786D01*
X0096047Y0256842D01*
X0096011Y0256900D01*
X0095979Y0256961D01*
X0095950Y0257023D01*
X0095924Y0257087D01*
X0095903Y0257152D01*
X0095885Y0257219D01*
X0095871Y0257286D01*
X0095861Y0257354D01*
X0095855Y0257422D01*
X0095853Y0257491D01*
X0080105Y0257491D02*
X0080107Y0257560D01*
X0080113Y0257628D01*
X0080123Y0257696D01*
X0080137Y0257763D01*
X0080155Y0257830D01*
X0080176Y0257895D01*
X0080202Y0257959D01*
X0080231Y0258021D01*
X0080263Y0258081D01*
X0080299Y0258140D01*
X0080339Y0258196D01*
X0080381Y0258250D01*
X0080427Y0258301D01*
X0080476Y0258350D01*
X0080527Y0258396D01*
X0080581Y0258438D01*
X0080637Y0258478D01*
X0080695Y0258514D01*
X0080756Y0258546D01*
X0080818Y0258575D01*
X0080882Y0258601D01*
X0080947Y0258622D01*
X0081014Y0258640D01*
X0081081Y0258654D01*
X0081149Y0258664D01*
X0081217Y0258670D01*
X0081286Y0258672D01*
X0081355Y0258670D01*
X0081423Y0258664D01*
X0081491Y0258654D01*
X0081558Y0258640D01*
X0081625Y0258622D01*
X0081690Y0258601D01*
X0081754Y0258575D01*
X0081816Y0258546D01*
X0081876Y0258514D01*
X0081935Y0258478D01*
X0081991Y0258438D01*
X0082045Y0258396D01*
X0082096Y0258350D01*
X0082145Y0258301D01*
X0082191Y0258250D01*
X0082233Y0258196D01*
X0082273Y0258140D01*
X0082309Y0258081D01*
X0082341Y0258021D01*
X0082370Y0257959D01*
X0082396Y0257895D01*
X0082417Y0257830D01*
X0082435Y0257763D01*
X0082449Y0257696D01*
X0082459Y0257628D01*
X0082465Y0257560D01*
X0082467Y0257491D01*
X0082465Y0257422D01*
X0082459Y0257354D01*
X0082449Y0257286D01*
X0082435Y0257219D01*
X0082417Y0257152D01*
X0082396Y0257087D01*
X0082370Y0257023D01*
X0082341Y0256961D01*
X0082309Y0256900D01*
X0082273Y0256842D01*
X0082233Y0256786D01*
X0082191Y0256732D01*
X0082145Y0256681D01*
X0082096Y0256632D01*
X0082045Y0256586D01*
X0081991Y0256544D01*
X0081935Y0256504D01*
X0081877Y0256468D01*
X0081816Y0256436D01*
X0081754Y0256407D01*
X0081690Y0256381D01*
X0081625Y0256360D01*
X0081558Y0256342D01*
X0081491Y0256328D01*
X0081423Y0256318D01*
X0081355Y0256312D01*
X0081286Y0256310D01*
X0081217Y0256312D01*
X0081149Y0256318D01*
X0081081Y0256328D01*
X0081014Y0256342D01*
X0080947Y0256360D01*
X0080882Y0256381D01*
X0080818Y0256407D01*
X0080756Y0256436D01*
X0080695Y0256468D01*
X0080637Y0256504D01*
X0080581Y0256544D01*
X0080527Y0256586D01*
X0080476Y0256632D01*
X0080427Y0256681D01*
X0080381Y0256732D01*
X0080339Y0256786D01*
X0080299Y0256842D01*
X0080263Y0256900D01*
X0080231Y0256961D01*
X0080202Y0257023D01*
X0080176Y0257087D01*
X0080155Y0257152D01*
X0080137Y0257219D01*
X0080123Y0257286D01*
X0080113Y0257354D01*
X0080107Y0257422D01*
X0080105Y0257491D01*
M02*
