%
M48
M72
T01C0.0236
T02C0.0320
T03C0.0354
T04C0.0374
T05C0.0400
T06C0.0440
T07C0.0470
T08C0.0906
T09C0.1260
T10C0.1300
%
T01
X16073Y3813
X14490Y8105
X14391Y12278
X13565Y12790
X13013Y12278
X14076Y13302
X14588Y13814
X20297Y12318
X26202Y12397
X32265Y12357
X38429Y12677
X39179Y12677
X39179Y11927
X38429Y11927
X38429Y11177
X39179Y11177
X39179Y10427
X38429Y10427
X38429Y9677
X39179Y9677
X39929Y9677
X40679Y9677
X40679Y10427
X39929Y10427
X39929Y11177
X40679Y11177
X40679Y11927
X39929Y11927
X39929Y12677
X40679Y12677
X41429Y12677
X41429Y11927
X41429Y11177
X41429Y10427
X41429Y9677
X44706Y11727
X47172Y11802
X47948Y11802
X48724Y11802
X49518Y11815
X45612Y8026
X47126Y7051
X47904Y7051
X48691Y7051
X49439Y7051
X41034Y3852
X34065Y3852
X28081Y3813
X22057Y3773
X11832Y17318
X16163Y20861
X19824Y21058
X22423Y22908
X21872Y23302
X23210Y22908
X24037Y22908
X25612Y24444
X24549Y26137
X23210Y25349
X22423Y25743
X21635Y24956
X20887Y24562
X21281Y26530
X21990Y26924
X21635Y28026
X20887Y28026
X20061Y28026
X19273Y28026
X22423Y28026
X23210Y28026
X23998Y28026
X23565Y27318
X26124Y28617
X25218Y30704
X24824Y30704
X24431Y30704
X24037Y30704
X24037Y32239
X24431Y32239
X24824Y32239
X25218Y32239
X18053Y32239
X17659Y32239
X17265Y32239
X16872Y32239
X16872Y30704
X17265Y30704
X17659Y30704
X18053Y30704
X34391Y30664
X34785Y30664
X35179Y30664
X35572Y30664
X35572Y32200
X35179Y32200
X34785Y32200
X34391Y32200
X37659Y28026
X41045Y24483
X40612Y23971
X42344Y23499
X40454Y18302
X37777Y21137
X43801Y27987
X44509Y30704
X44903Y30704
X45297Y30704
X45691Y30704
X45691Y32239
X45297Y32239
X44903Y32239
X44509Y32239
X47126Y16927
X47862Y16927
X48638Y16927
X49374Y16927
T02
X20815Y5177
X20815Y4177
X26798Y4177
X26798Y5177
X32781Y5177
X32781Y4177
X38764Y4177
X38764Y5177
X45664Y5059
X45664Y4059
T03
X44844Y32857
X43844Y32857
X42844Y32857
X41844Y32857
X38490Y32857
X37490Y32857
X36490Y32857
X35490Y32857
X34490Y32857
X33490Y32857
X32490Y32857
X31490Y32857
X28569Y32857
X27569Y32857
X26569Y32857
X25569Y32857
X23569Y32857
X24569Y32857
X22569Y32857
X21569Y32857
X18411Y32857
X16411Y32857
X15411Y32857
X14411Y32857
X13411Y32857
X12411Y32857
X11411Y32857
X17411Y32857
X17411Y37857
X16411Y37857
X15411Y37857
X14411Y37857
X13411Y37857
X12411Y37857
X11411Y37857
X18411Y37857
X21569Y37857
X22569Y37857
X23569Y37857
X24569Y37857
X25569Y37857
X26569Y37857
X27569Y37857
X28569Y37857
X31490Y37857
X32490Y37857
X33490Y37857
X34490Y37857
X35490Y37857
X36490Y37857
X37490Y37857
X38490Y37857
X41844Y37857
X42844Y37857
X43844Y37857
X44844Y37857
X45844Y37857
X46844Y37857
X47844Y37857
X48844Y37857
X48844Y32857
X47844Y32857
X46844Y32857
X45844Y32857
T04
X43864Y25618
X44651Y25618
X44651Y24634
X43864Y24634
T05
X16535Y17412
X16535Y19192
X19095Y19192
X19095Y17412
X22518Y17412
X22518Y19192
X25078Y19192
X25078Y17412
X28501Y17412
X28501Y19192
X31061Y19192
X31061Y17412
X34484Y17412
X34484Y19192
X37044Y19192
X37044Y17412
X37729Y26824
X37729Y25044
X35169Y25044
X35169Y26824
T06
X16091Y8302
X17091Y8302
X18091Y8302
X22002Y8302
X23002Y8302
X24002Y8302
X27913Y8302
X28913Y8302
X29913Y8302
X33969Y8302
X34969Y8302
X35969Y8302
T07
X16830Y5552
X18799Y5552
X22814Y5552
X24782Y5552
X28797Y5552
X30765Y5552
X34780Y5552
X36749Y5552
X41752Y5552
X43721Y5552
X15887Y35574
X13919Y35574
X11950Y35574
X17856Y35574
X22147Y35534
X24116Y35534
X26084Y35534
X28053Y35534
X32029Y35456
X33998Y35456
X35966Y35456
X37935Y35456
X42383Y35534
X44352Y35534
X46320Y35534
X48289Y35534
T08
X45718Y27496
X45718Y22756
T09
X12423Y28893
X48643Y28893
X48643Y4483
X12423Y4483
X48880Y21688
X48880Y19601
T10
X34969Y15202
X28913Y15202
X23002Y15202
X17091Y15202
M30
