G75*
G70*
%OFA0B0*%
%FSLAX24Y24*%
%IPPOS*%
%LPD*%
%AMOC8*
5,1,8,0,0,1.08239X$1,22.5*
%
%ADD10C,0.0240*%
%ADD11C,0.0000*%
%ADD12C,0.0000*%
%ADD13C,0.0700*%
%ADD14OC8,0.0574*%
%ADD15OC8,0.0520*%
%ADD16C,0.0705*%
%ADD17C,0.0740*%
%ADD18R,0.0787X0.0787*%
%ADD19C,0.0660*%
%ADD20C,0.0554*%
%ADD21R,0.0356X0.0356*%
%ADD22C,0.0400*%
%ADD23C,0.0356*%
%ADD24R,0.1660X0.1660*%
%ADD25C,0.0160*%
%ADD26C,0.0100*%
%ADD27C,0.0320*%
%ADD28C,0.0760*%
%ADD29C,0.0860*%
D10*
X016163Y020861D02*
X019628Y020861D01*
X019824Y021058D01*
X037777Y021137D02*
X038250Y021137D01*
X040454Y018932D01*
X040454Y018302D01*
X045218Y022751D02*
X045220Y022795D01*
X045226Y022839D01*
X045236Y022882D01*
X045249Y022924D01*
X045266Y022965D01*
X045287Y023004D01*
X045311Y023041D01*
X045338Y023076D01*
X045368Y023108D01*
X045401Y023138D01*
X045437Y023164D01*
X045474Y023188D01*
X045514Y023207D01*
X045555Y023224D01*
X045598Y023236D01*
X045641Y023245D01*
X045685Y023250D01*
X045729Y023251D01*
X045773Y023248D01*
X045817Y023241D01*
X045860Y023230D01*
X045902Y023216D01*
X045942Y023198D01*
X045981Y023176D01*
X046017Y023152D01*
X046051Y023124D01*
X046083Y023093D01*
X046112Y023059D01*
X046138Y023023D01*
X046160Y022985D01*
X046179Y022945D01*
X046194Y022903D01*
X046206Y022861D01*
X046214Y022817D01*
X046218Y022773D01*
X046218Y022729D01*
X046214Y022685D01*
X046206Y022641D01*
X046194Y022599D01*
X046179Y022557D01*
X046160Y022517D01*
X046138Y022479D01*
X046112Y022443D01*
X046083Y022409D01*
X046051Y022378D01*
X046017Y022350D01*
X045981Y022326D01*
X045942Y022304D01*
X045902Y022286D01*
X045860Y022272D01*
X045817Y022261D01*
X045773Y022254D01*
X045729Y022251D01*
X045685Y022252D01*
X045641Y022257D01*
X045598Y022266D01*
X045555Y022278D01*
X045514Y022295D01*
X045474Y022314D01*
X045437Y022338D01*
X045401Y022364D01*
X045368Y022394D01*
X045338Y022426D01*
X045311Y022461D01*
X045287Y022498D01*
X045266Y022537D01*
X045249Y022578D01*
X045236Y022620D01*
X045226Y022663D01*
X045220Y022707D01*
X045218Y022751D01*
X045218Y027501D02*
X045220Y027545D01*
X045226Y027589D01*
X045236Y027632D01*
X045249Y027674D01*
X045266Y027715D01*
X045287Y027754D01*
X045311Y027791D01*
X045338Y027826D01*
X045368Y027858D01*
X045401Y027888D01*
X045437Y027914D01*
X045474Y027938D01*
X045514Y027957D01*
X045555Y027974D01*
X045598Y027986D01*
X045641Y027995D01*
X045685Y028000D01*
X045729Y028001D01*
X045773Y027998D01*
X045817Y027991D01*
X045860Y027980D01*
X045902Y027966D01*
X045942Y027948D01*
X045981Y027926D01*
X046017Y027902D01*
X046051Y027874D01*
X046083Y027843D01*
X046112Y027809D01*
X046138Y027773D01*
X046160Y027735D01*
X046179Y027695D01*
X046194Y027653D01*
X046206Y027611D01*
X046214Y027567D01*
X046218Y027523D01*
X046218Y027479D01*
X046214Y027435D01*
X046206Y027391D01*
X046194Y027349D01*
X046179Y027307D01*
X046160Y027267D01*
X046138Y027229D01*
X046112Y027193D01*
X046083Y027159D01*
X046051Y027128D01*
X046017Y027100D01*
X045981Y027076D01*
X045942Y027054D01*
X045902Y027036D01*
X045860Y027022D01*
X045817Y027011D01*
X045773Y027004D01*
X045729Y027001D01*
X045685Y027002D01*
X045641Y027007D01*
X045598Y027016D01*
X045555Y027028D01*
X045514Y027045D01*
X045474Y027064D01*
X045437Y027088D01*
X045401Y027114D01*
X045368Y027144D01*
X045338Y027176D01*
X045311Y027211D01*
X045287Y027248D01*
X045266Y027287D01*
X045249Y027328D01*
X045236Y027370D01*
X045226Y027413D01*
X045220Y027457D01*
X045218Y027501D01*
D11*
X010848Y028893D02*
X010848Y004483D01*
X010850Y004406D01*
X010856Y004329D01*
X010865Y004252D01*
X010878Y004176D01*
X010895Y004100D01*
X010916Y004026D01*
X010940Y003952D01*
X010968Y003880D01*
X010999Y003810D01*
X011034Y003741D01*
X011072Y003673D01*
X011113Y003608D01*
X011158Y003545D01*
X011206Y003484D01*
X011256Y003425D01*
X011309Y003369D01*
X011365Y003316D01*
X011424Y003266D01*
X011485Y003218D01*
X011548Y003173D01*
X011613Y003132D01*
X011681Y003094D01*
X011750Y003059D01*
X011820Y003028D01*
X011892Y003000D01*
X011966Y002976D01*
X012040Y002955D01*
X012116Y002938D01*
X012192Y002925D01*
X012269Y002916D01*
X012346Y002910D01*
X012423Y002908D01*
X048643Y002908D01*
X048720Y002910D01*
X048797Y002916D01*
X048874Y002925D01*
X048950Y002938D01*
X049026Y002955D01*
X049100Y002976D01*
X049174Y003000D01*
X049246Y003028D01*
X049316Y003059D01*
X049385Y003094D01*
X049453Y003132D01*
X049518Y003173D01*
X049581Y003218D01*
X049642Y003266D01*
X049701Y003316D01*
X049757Y003369D01*
X049810Y003425D01*
X049860Y003484D01*
X049908Y003545D01*
X049953Y003608D01*
X049994Y003673D01*
X050032Y003741D01*
X050067Y003810D01*
X050098Y003880D01*
X050126Y003952D01*
X050150Y004026D01*
X050171Y004100D01*
X050188Y004176D01*
X050201Y004252D01*
X050210Y004329D01*
X050216Y004406D01*
X050218Y004483D01*
X050218Y022357D01*
X049746Y022830D01*
X049746Y027475D01*
X050218Y027948D01*
X050218Y028893D01*
X050216Y028970D01*
X050210Y029047D01*
X050201Y029124D01*
X050188Y029200D01*
X050171Y029276D01*
X050150Y029350D01*
X050126Y029424D01*
X050098Y029496D01*
X050067Y029566D01*
X050032Y029635D01*
X049994Y029703D01*
X049953Y029768D01*
X049908Y029831D01*
X049860Y029892D01*
X049810Y029951D01*
X049757Y030007D01*
X049701Y030060D01*
X049642Y030110D01*
X049581Y030158D01*
X049518Y030203D01*
X049453Y030244D01*
X049385Y030282D01*
X049316Y030317D01*
X049246Y030348D01*
X049174Y030376D01*
X049100Y030400D01*
X049026Y030421D01*
X048950Y030438D01*
X048874Y030451D01*
X048797Y030460D01*
X048720Y030466D01*
X048643Y030468D01*
X048643Y030467D02*
X045966Y030467D01*
X045966Y032436D01*
X049352Y032436D01*
X049352Y038263D01*
X041320Y038263D01*
X041320Y032436D01*
X044194Y032436D01*
X044194Y030467D01*
X035769Y030467D01*
X035769Y032436D01*
X038998Y032436D01*
X038998Y038263D01*
X030966Y038263D01*
X030966Y032436D01*
X034194Y032436D01*
X034194Y030467D01*
X025572Y030467D01*
X025572Y032436D01*
X029076Y032436D01*
X029076Y038263D01*
X021045Y038263D01*
X021045Y032436D01*
X023722Y032436D01*
X023722Y030467D01*
X018250Y030467D01*
X018250Y032436D01*
X018919Y032436D01*
X018919Y038263D01*
X010887Y038263D01*
X010887Y032436D01*
X016635Y032436D01*
X016635Y030467D01*
X012423Y030467D01*
X012423Y030468D02*
X012346Y030466D01*
X012269Y030460D01*
X012192Y030451D01*
X012116Y030438D01*
X012040Y030421D01*
X011966Y030400D01*
X011892Y030376D01*
X011820Y030348D01*
X011750Y030317D01*
X011681Y030282D01*
X011613Y030244D01*
X011548Y030203D01*
X011485Y030158D01*
X011424Y030110D01*
X011365Y030060D01*
X011309Y030007D01*
X011256Y029951D01*
X011206Y029892D01*
X011158Y029831D01*
X011113Y029768D01*
X011072Y029703D01*
X011034Y029635D01*
X010999Y029566D01*
X010968Y029496D01*
X010940Y029424D01*
X010916Y029350D01*
X010895Y029276D01*
X010878Y029200D01*
X010865Y029124D01*
X010856Y029047D01*
X010850Y028970D01*
X010848Y028893D01*
D12*
X011793Y028893D02*
X011795Y028943D01*
X011801Y028993D01*
X011811Y029042D01*
X011825Y029090D01*
X011842Y029137D01*
X011863Y029182D01*
X011888Y029226D01*
X011916Y029267D01*
X011948Y029306D01*
X011982Y029343D01*
X012019Y029377D01*
X012059Y029407D01*
X012101Y029434D01*
X012145Y029458D01*
X012191Y029479D01*
X012238Y029495D01*
X012286Y029508D01*
X012336Y029517D01*
X012385Y029522D01*
X012436Y029523D01*
X012486Y029520D01*
X012535Y029513D01*
X012584Y029502D01*
X012632Y029487D01*
X012678Y029469D01*
X012723Y029447D01*
X012766Y029421D01*
X012807Y029392D01*
X012846Y029360D01*
X012882Y029325D01*
X012914Y029287D01*
X012944Y029247D01*
X012971Y029204D01*
X012994Y029160D01*
X013013Y029114D01*
X013029Y029066D01*
X013041Y029017D01*
X013049Y028968D01*
X013053Y028918D01*
X013053Y028868D01*
X013049Y028818D01*
X013041Y028769D01*
X013029Y028720D01*
X013013Y028672D01*
X012994Y028626D01*
X012971Y028582D01*
X012944Y028539D01*
X012914Y028499D01*
X012882Y028461D01*
X012846Y028426D01*
X012807Y028394D01*
X012766Y028365D01*
X012723Y028339D01*
X012678Y028317D01*
X012632Y028299D01*
X012584Y028284D01*
X012535Y028273D01*
X012486Y028266D01*
X012436Y028263D01*
X012385Y028264D01*
X012336Y028269D01*
X012286Y028278D01*
X012238Y028291D01*
X012191Y028307D01*
X012145Y028328D01*
X012101Y028352D01*
X012059Y028379D01*
X012019Y028409D01*
X011982Y028443D01*
X011948Y028480D01*
X011916Y028519D01*
X011888Y028560D01*
X011863Y028604D01*
X011842Y028649D01*
X011825Y028696D01*
X011811Y028744D01*
X011801Y028793D01*
X011795Y028843D01*
X011793Y028893D01*
X016754Y030704D02*
X016756Y030725D01*
X016762Y030745D01*
X016771Y030765D01*
X016783Y030782D01*
X016798Y030796D01*
X016816Y030808D01*
X016836Y030816D01*
X016856Y030821D01*
X016877Y030822D01*
X016898Y030819D01*
X016918Y030813D01*
X016937Y030802D01*
X016954Y030789D01*
X016967Y030773D01*
X016978Y030755D01*
X016986Y030735D01*
X016990Y030715D01*
X016990Y030693D01*
X016986Y030673D01*
X016978Y030653D01*
X016967Y030635D01*
X016954Y030619D01*
X016937Y030606D01*
X016918Y030595D01*
X016898Y030589D01*
X016877Y030586D01*
X016856Y030587D01*
X016836Y030592D01*
X016816Y030600D01*
X016798Y030612D01*
X016783Y030626D01*
X016771Y030643D01*
X016762Y030663D01*
X016756Y030683D01*
X016754Y030704D01*
X017147Y030704D02*
X017149Y030725D01*
X017155Y030745D01*
X017164Y030765D01*
X017176Y030782D01*
X017191Y030796D01*
X017209Y030808D01*
X017229Y030816D01*
X017249Y030821D01*
X017270Y030822D01*
X017291Y030819D01*
X017311Y030813D01*
X017330Y030802D01*
X017347Y030789D01*
X017360Y030773D01*
X017371Y030755D01*
X017379Y030735D01*
X017383Y030715D01*
X017383Y030693D01*
X017379Y030673D01*
X017371Y030653D01*
X017360Y030635D01*
X017347Y030619D01*
X017330Y030606D01*
X017311Y030595D01*
X017291Y030589D01*
X017270Y030586D01*
X017249Y030587D01*
X017229Y030592D01*
X017209Y030600D01*
X017191Y030612D01*
X017176Y030626D01*
X017164Y030643D01*
X017155Y030663D01*
X017149Y030683D01*
X017147Y030704D01*
X017541Y030704D02*
X017543Y030725D01*
X017549Y030745D01*
X017558Y030765D01*
X017570Y030782D01*
X017585Y030796D01*
X017603Y030808D01*
X017623Y030816D01*
X017643Y030821D01*
X017664Y030822D01*
X017685Y030819D01*
X017705Y030813D01*
X017724Y030802D01*
X017741Y030789D01*
X017754Y030773D01*
X017765Y030755D01*
X017773Y030735D01*
X017777Y030715D01*
X017777Y030693D01*
X017773Y030673D01*
X017765Y030653D01*
X017754Y030635D01*
X017741Y030619D01*
X017724Y030606D01*
X017705Y030595D01*
X017685Y030589D01*
X017664Y030586D01*
X017643Y030587D01*
X017623Y030592D01*
X017603Y030600D01*
X017585Y030612D01*
X017570Y030626D01*
X017558Y030643D01*
X017549Y030663D01*
X017543Y030683D01*
X017541Y030704D01*
X017935Y030704D02*
X017937Y030725D01*
X017943Y030745D01*
X017952Y030765D01*
X017964Y030782D01*
X017979Y030796D01*
X017997Y030808D01*
X018017Y030816D01*
X018037Y030821D01*
X018058Y030822D01*
X018079Y030819D01*
X018099Y030813D01*
X018118Y030802D01*
X018135Y030789D01*
X018148Y030773D01*
X018159Y030755D01*
X018167Y030735D01*
X018171Y030715D01*
X018171Y030693D01*
X018167Y030673D01*
X018159Y030653D01*
X018148Y030635D01*
X018135Y030619D01*
X018118Y030606D01*
X018099Y030595D01*
X018079Y030589D01*
X018058Y030586D01*
X018037Y030587D01*
X018017Y030592D01*
X017997Y030600D01*
X017979Y030612D01*
X017964Y030626D01*
X017952Y030643D01*
X017943Y030663D01*
X017937Y030683D01*
X017935Y030704D01*
X017935Y032239D02*
X017937Y032260D01*
X017943Y032280D01*
X017952Y032300D01*
X017964Y032317D01*
X017979Y032331D01*
X017997Y032343D01*
X018017Y032351D01*
X018037Y032356D01*
X018058Y032357D01*
X018079Y032354D01*
X018099Y032348D01*
X018118Y032337D01*
X018135Y032324D01*
X018148Y032308D01*
X018159Y032290D01*
X018167Y032270D01*
X018171Y032250D01*
X018171Y032228D01*
X018167Y032208D01*
X018159Y032188D01*
X018148Y032170D01*
X018135Y032154D01*
X018118Y032141D01*
X018099Y032130D01*
X018079Y032124D01*
X018058Y032121D01*
X018037Y032122D01*
X018017Y032127D01*
X017997Y032135D01*
X017979Y032147D01*
X017964Y032161D01*
X017952Y032178D01*
X017943Y032198D01*
X017937Y032218D01*
X017935Y032239D01*
X017541Y032239D02*
X017543Y032260D01*
X017549Y032280D01*
X017558Y032300D01*
X017570Y032317D01*
X017585Y032331D01*
X017603Y032343D01*
X017623Y032351D01*
X017643Y032356D01*
X017664Y032357D01*
X017685Y032354D01*
X017705Y032348D01*
X017724Y032337D01*
X017741Y032324D01*
X017754Y032308D01*
X017765Y032290D01*
X017773Y032270D01*
X017777Y032250D01*
X017777Y032228D01*
X017773Y032208D01*
X017765Y032188D01*
X017754Y032170D01*
X017741Y032154D01*
X017724Y032141D01*
X017705Y032130D01*
X017685Y032124D01*
X017664Y032121D01*
X017643Y032122D01*
X017623Y032127D01*
X017603Y032135D01*
X017585Y032147D01*
X017570Y032161D01*
X017558Y032178D01*
X017549Y032198D01*
X017543Y032218D01*
X017541Y032239D01*
X017147Y032239D02*
X017149Y032260D01*
X017155Y032280D01*
X017164Y032300D01*
X017176Y032317D01*
X017191Y032331D01*
X017209Y032343D01*
X017229Y032351D01*
X017249Y032356D01*
X017270Y032357D01*
X017291Y032354D01*
X017311Y032348D01*
X017330Y032337D01*
X017347Y032324D01*
X017360Y032308D01*
X017371Y032290D01*
X017379Y032270D01*
X017383Y032250D01*
X017383Y032228D01*
X017379Y032208D01*
X017371Y032188D01*
X017360Y032170D01*
X017347Y032154D01*
X017330Y032141D01*
X017311Y032130D01*
X017291Y032124D01*
X017270Y032121D01*
X017249Y032122D01*
X017229Y032127D01*
X017209Y032135D01*
X017191Y032147D01*
X017176Y032161D01*
X017164Y032178D01*
X017155Y032198D01*
X017149Y032218D01*
X017147Y032239D01*
X016754Y032239D02*
X016756Y032260D01*
X016762Y032280D01*
X016771Y032300D01*
X016783Y032317D01*
X016798Y032331D01*
X016816Y032343D01*
X016836Y032351D01*
X016856Y032356D01*
X016877Y032357D01*
X016898Y032354D01*
X016918Y032348D01*
X016937Y032337D01*
X016954Y032324D01*
X016967Y032308D01*
X016978Y032290D01*
X016986Y032270D01*
X016990Y032250D01*
X016990Y032228D01*
X016986Y032208D01*
X016978Y032188D01*
X016967Y032170D01*
X016954Y032154D01*
X016937Y032141D01*
X016918Y032130D01*
X016898Y032124D01*
X016877Y032121D01*
X016856Y032122D01*
X016836Y032127D01*
X016816Y032135D01*
X016798Y032147D01*
X016783Y032161D01*
X016771Y032178D01*
X016762Y032198D01*
X016756Y032218D01*
X016754Y032239D01*
X023919Y032239D02*
X023921Y032260D01*
X023927Y032280D01*
X023936Y032300D01*
X023948Y032317D01*
X023963Y032331D01*
X023981Y032343D01*
X024001Y032351D01*
X024021Y032356D01*
X024042Y032357D01*
X024063Y032354D01*
X024083Y032348D01*
X024102Y032337D01*
X024119Y032324D01*
X024132Y032308D01*
X024143Y032290D01*
X024151Y032270D01*
X024155Y032250D01*
X024155Y032228D01*
X024151Y032208D01*
X024143Y032188D01*
X024132Y032170D01*
X024119Y032154D01*
X024102Y032141D01*
X024083Y032130D01*
X024063Y032124D01*
X024042Y032121D01*
X024021Y032122D01*
X024001Y032127D01*
X023981Y032135D01*
X023963Y032147D01*
X023948Y032161D01*
X023936Y032178D01*
X023927Y032198D01*
X023921Y032218D01*
X023919Y032239D01*
X024313Y032239D02*
X024315Y032260D01*
X024321Y032280D01*
X024330Y032300D01*
X024342Y032317D01*
X024357Y032331D01*
X024375Y032343D01*
X024395Y032351D01*
X024415Y032356D01*
X024436Y032357D01*
X024457Y032354D01*
X024477Y032348D01*
X024496Y032337D01*
X024513Y032324D01*
X024526Y032308D01*
X024537Y032290D01*
X024545Y032270D01*
X024549Y032250D01*
X024549Y032228D01*
X024545Y032208D01*
X024537Y032188D01*
X024526Y032170D01*
X024513Y032154D01*
X024496Y032141D01*
X024477Y032130D01*
X024457Y032124D01*
X024436Y032121D01*
X024415Y032122D01*
X024395Y032127D01*
X024375Y032135D01*
X024357Y032147D01*
X024342Y032161D01*
X024330Y032178D01*
X024321Y032198D01*
X024315Y032218D01*
X024313Y032239D01*
X024706Y032239D02*
X024708Y032260D01*
X024714Y032280D01*
X024723Y032300D01*
X024735Y032317D01*
X024750Y032331D01*
X024768Y032343D01*
X024788Y032351D01*
X024808Y032356D01*
X024829Y032357D01*
X024850Y032354D01*
X024870Y032348D01*
X024889Y032337D01*
X024906Y032324D01*
X024919Y032308D01*
X024930Y032290D01*
X024938Y032270D01*
X024942Y032250D01*
X024942Y032228D01*
X024938Y032208D01*
X024930Y032188D01*
X024919Y032170D01*
X024906Y032154D01*
X024889Y032141D01*
X024870Y032130D01*
X024850Y032124D01*
X024829Y032121D01*
X024808Y032122D01*
X024788Y032127D01*
X024768Y032135D01*
X024750Y032147D01*
X024735Y032161D01*
X024723Y032178D01*
X024714Y032198D01*
X024708Y032218D01*
X024706Y032239D01*
X025100Y032239D02*
X025102Y032260D01*
X025108Y032280D01*
X025117Y032300D01*
X025129Y032317D01*
X025144Y032331D01*
X025162Y032343D01*
X025182Y032351D01*
X025202Y032356D01*
X025223Y032357D01*
X025244Y032354D01*
X025264Y032348D01*
X025283Y032337D01*
X025300Y032324D01*
X025313Y032308D01*
X025324Y032290D01*
X025332Y032270D01*
X025336Y032250D01*
X025336Y032228D01*
X025332Y032208D01*
X025324Y032188D01*
X025313Y032170D01*
X025300Y032154D01*
X025283Y032141D01*
X025264Y032130D01*
X025244Y032124D01*
X025223Y032121D01*
X025202Y032122D01*
X025182Y032127D01*
X025162Y032135D01*
X025144Y032147D01*
X025129Y032161D01*
X025117Y032178D01*
X025108Y032198D01*
X025102Y032218D01*
X025100Y032239D01*
X025100Y030704D02*
X025102Y030725D01*
X025108Y030745D01*
X025117Y030765D01*
X025129Y030782D01*
X025144Y030796D01*
X025162Y030808D01*
X025182Y030816D01*
X025202Y030821D01*
X025223Y030822D01*
X025244Y030819D01*
X025264Y030813D01*
X025283Y030802D01*
X025300Y030789D01*
X025313Y030773D01*
X025324Y030755D01*
X025332Y030735D01*
X025336Y030715D01*
X025336Y030693D01*
X025332Y030673D01*
X025324Y030653D01*
X025313Y030635D01*
X025300Y030619D01*
X025283Y030606D01*
X025264Y030595D01*
X025244Y030589D01*
X025223Y030586D01*
X025202Y030587D01*
X025182Y030592D01*
X025162Y030600D01*
X025144Y030612D01*
X025129Y030626D01*
X025117Y030643D01*
X025108Y030663D01*
X025102Y030683D01*
X025100Y030704D01*
X024706Y030704D02*
X024708Y030725D01*
X024714Y030745D01*
X024723Y030765D01*
X024735Y030782D01*
X024750Y030796D01*
X024768Y030808D01*
X024788Y030816D01*
X024808Y030821D01*
X024829Y030822D01*
X024850Y030819D01*
X024870Y030813D01*
X024889Y030802D01*
X024906Y030789D01*
X024919Y030773D01*
X024930Y030755D01*
X024938Y030735D01*
X024942Y030715D01*
X024942Y030693D01*
X024938Y030673D01*
X024930Y030653D01*
X024919Y030635D01*
X024906Y030619D01*
X024889Y030606D01*
X024870Y030595D01*
X024850Y030589D01*
X024829Y030586D01*
X024808Y030587D01*
X024788Y030592D01*
X024768Y030600D01*
X024750Y030612D01*
X024735Y030626D01*
X024723Y030643D01*
X024714Y030663D01*
X024708Y030683D01*
X024706Y030704D01*
X024313Y030704D02*
X024315Y030725D01*
X024321Y030745D01*
X024330Y030765D01*
X024342Y030782D01*
X024357Y030796D01*
X024375Y030808D01*
X024395Y030816D01*
X024415Y030821D01*
X024436Y030822D01*
X024457Y030819D01*
X024477Y030813D01*
X024496Y030802D01*
X024513Y030789D01*
X024526Y030773D01*
X024537Y030755D01*
X024545Y030735D01*
X024549Y030715D01*
X024549Y030693D01*
X024545Y030673D01*
X024537Y030653D01*
X024526Y030635D01*
X024513Y030619D01*
X024496Y030606D01*
X024477Y030595D01*
X024457Y030589D01*
X024436Y030586D01*
X024415Y030587D01*
X024395Y030592D01*
X024375Y030600D01*
X024357Y030612D01*
X024342Y030626D01*
X024330Y030643D01*
X024321Y030663D01*
X024315Y030683D01*
X024313Y030704D01*
X023919Y030704D02*
X023921Y030725D01*
X023927Y030745D01*
X023936Y030765D01*
X023948Y030782D01*
X023963Y030796D01*
X023981Y030808D01*
X024001Y030816D01*
X024021Y030821D01*
X024042Y030822D01*
X024063Y030819D01*
X024083Y030813D01*
X024102Y030802D01*
X024119Y030789D01*
X024132Y030773D01*
X024143Y030755D01*
X024151Y030735D01*
X024155Y030715D01*
X024155Y030693D01*
X024151Y030673D01*
X024143Y030653D01*
X024132Y030635D01*
X024119Y030619D01*
X024102Y030606D01*
X024083Y030595D01*
X024063Y030589D01*
X024042Y030586D01*
X024021Y030587D01*
X024001Y030592D01*
X023981Y030600D01*
X023963Y030612D01*
X023948Y030626D01*
X023936Y030643D01*
X023927Y030663D01*
X023921Y030683D01*
X023919Y030704D01*
X034273Y030664D02*
X034275Y030685D01*
X034281Y030705D01*
X034290Y030725D01*
X034302Y030742D01*
X034317Y030756D01*
X034335Y030768D01*
X034355Y030776D01*
X034375Y030781D01*
X034396Y030782D01*
X034417Y030779D01*
X034437Y030773D01*
X034456Y030762D01*
X034473Y030749D01*
X034486Y030733D01*
X034497Y030715D01*
X034505Y030695D01*
X034509Y030675D01*
X034509Y030653D01*
X034505Y030633D01*
X034497Y030613D01*
X034486Y030595D01*
X034473Y030579D01*
X034456Y030566D01*
X034437Y030555D01*
X034417Y030549D01*
X034396Y030546D01*
X034375Y030547D01*
X034355Y030552D01*
X034335Y030560D01*
X034317Y030572D01*
X034302Y030586D01*
X034290Y030603D01*
X034281Y030623D01*
X034275Y030643D01*
X034273Y030664D01*
X034667Y030664D02*
X034669Y030685D01*
X034675Y030705D01*
X034684Y030725D01*
X034696Y030742D01*
X034711Y030756D01*
X034729Y030768D01*
X034749Y030776D01*
X034769Y030781D01*
X034790Y030782D01*
X034811Y030779D01*
X034831Y030773D01*
X034850Y030762D01*
X034867Y030749D01*
X034880Y030733D01*
X034891Y030715D01*
X034899Y030695D01*
X034903Y030675D01*
X034903Y030653D01*
X034899Y030633D01*
X034891Y030613D01*
X034880Y030595D01*
X034867Y030579D01*
X034850Y030566D01*
X034831Y030555D01*
X034811Y030549D01*
X034790Y030546D01*
X034769Y030547D01*
X034749Y030552D01*
X034729Y030560D01*
X034711Y030572D01*
X034696Y030586D01*
X034684Y030603D01*
X034675Y030623D01*
X034669Y030643D01*
X034667Y030664D01*
X035061Y030664D02*
X035063Y030685D01*
X035069Y030705D01*
X035078Y030725D01*
X035090Y030742D01*
X035105Y030756D01*
X035123Y030768D01*
X035143Y030776D01*
X035163Y030781D01*
X035184Y030782D01*
X035205Y030779D01*
X035225Y030773D01*
X035244Y030762D01*
X035261Y030749D01*
X035274Y030733D01*
X035285Y030715D01*
X035293Y030695D01*
X035297Y030675D01*
X035297Y030653D01*
X035293Y030633D01*
X035285Y030613D01*
X035274Y030595D01*
X035261Y030579D01*
X035244Y030566D01*
X035225Y030555D01*
X035205Y030549D01*
X035184Y030546D01*
X035163Y030547D01*
X035143Y030552D01*
X035123Y030560D01*
X035105Y030572D01*
X035090Y030586D01*
X035078Y030603D01*
X035069Y030623D01*
X035063Y030643D01*
X035061Y030664D01*
X035454Y030664D02*
X035456Y030685D01*
X035462Y030705D01*
X035471Y030725D01*
X035483Y030742D01*
X035498Y030756D01*
X035516Y030768D01*
X035536Y030776D01*
X035556Y030781D01*
X035577Y030782D01*
X035598Y030779D01*
X035618Y030773D01*
X035637Y030762D01*
X035654Y030749D01*
X035667Y030733D01*
X035678Y030715D01*
X035686Y030695D01*
X035690Y030675D01*
X035690Y030653D01*
X035686Y030633D01*
X035678Y030613D01*
X035667Y030595D01*
X035654Y030579D01*
X035637Y030566D01*
X035618Y030555D01*
X035598Y030549D01*
X035577Y030546D01*
X035556Y030547D01*
X035536Y030552D01*
X035516Y030560D01*
X035498Y030572D01*
X035483Y030586D01*
X035471Y030603D01*
X035462Y030623D01*
X035456Y030643D01*
X035454Y030664D01*
X035454Y032200D02*
X035456Y032221D01*
X035462Y032241D01*
X035471Y032261D01*
X035483Y032278D01*
X035498Y032292D01*
X035516Y032304D01*
X035536Y032312D01*
X035556Y032317D01*
X035577Y032318D01*
X035598Y032315D01*
X035618Y032309D01*
X035637Y032298D01*
X035654Y032285D01*
X035667Y032269D01*
X035678Y032251D01*
X035686Y032231D01*
X035690Y032211D01*
X035690Y032189D01*
X035686Y032169D01*
X035678Y032149D01*
X035667Y032131D01*
X035654Y032115D01*
X035637Y032102D01*
X035618Y032091D01*
X035598Y032085D01*
X035577Y032082D01*
X035556Y032083D01*
X035536Y032088D01*
X035516Y032096D01*
X035498Y032108D01*
X035483Y032122D01*
X035471Y032139D01*
X035462Y032159D01*
X035456Y032179D01*
X035454Y032200D01*
X035061Y032200D02*
X035063Y032221D01*
X035069Y032241D01*
X035078Y032261D01*
X035090Y032278D01*
X035105Y032292D01*
X035123Y032304D01*
X035143Y032312D01*
X035163Y032317D01*
X035184Y032318D01*
X035205Y032315D01*
X035225Y032309D01*
X035244Y032298D01*
X035261Y032285D01*
X035274Y032269D01*
X035285Y032251D01*
X035293Y032231D01*
X035297Y032211D01*
X035297Y032189D01*
X035293Y032169D01*
X035285Y032149D01*
X035274Y032131D01*
X035261Y032115D01*
X035244Y032102D01*
X035225Y032091D01*
X035205Y032085D01*
X035184Y032082D01*
X035163Y032083D01*
X035143Y032088D01*
X035123Y032096D01*
X035105Y032108D01*
X035090Y032122D01*
X035078Y032139D01*
X035069Y032159D01*
X035063Y032179D01*
X035061Y032200D01*
X034667Y032200D02*
X034669Y032221D01*
X034675Y032241D01*
X034684Y032261D01*
X034696Y032278D01*
X034711Y032292D01*
X034729Y032304D01*
X034749Y032312D01*
X034769Y032317D01*
X034790Y032318D01*
X034811Y032315D01*
X034831Y032309D01*
X034850Y032298D01*
X034867Y032285D01*
X034880Y032269D01*
X034891Y032251D01*
X034899Y032231D01*
X034903Y032211D01*
X034903Y032189D01*
X034899Y032169D01*
X034891Y032149D01*
X034880Y032131D01*
X034867Y032115D01*
X034850Y032102D01*
X034831Y032091D01*
X034811Y032085D01*
X034790Y032082D01*
X034769Y032083D01*
X034749Y032088D01*
X034729Y032096D01*
X034711Y032108D01*
X034696Y032122D01*
X034684Y032139D01*
X034675Y032159D01*
X034669Y032179D01*
X034667Y032200D01*
X034273Y032200D02*
X034275Y032221D01*
X034281Y032241D01*
X034290Y032261D01*
X034302Y032278D01*
X034317Y032292D01*
X034335Y032304D01*
X034355Y032312D01*
X034375Y032317D01*
X034396Y032318D01*
X034417Y032315D01*
X034437Y032309D01*
X034456Y032298D01*
X034473Y032285D01*
X034486Y032269D01*
X034497Y032251D01*
X034505Y032231D01*
X034509Y032211D01*
X034509Y032189D01*
X034505Y032169D01*
X034497Y032149D01*
X034486Y032131D01*
X034473Y032115D01*
X034456Y032102D01*
X034437Y032091D01*
X034417Y032085D01*
X034396Y032082D01*
X034375Y032083D01*
X034355Y032088D01*
X034335Y032096D01*
X034317Y032108D01*
X034302Y032122D01*
X034290Y032139D01*
X034281Y032159D01*
X034275Y032179D01*
X034273Y032200D01*
X044391Y032239D02*
X044393Y032260D01*
X044399Y032280D01*
X044408Y032300D01*
X044420Y032317D01*
X044435Y032331D01*
X044453Y032343D01*
X044473Y032351D01*
X044493Y032356D01*
X044514Y032357D01*
X044535Y032354D01*
X044555Y032348D01*
X044574Y032337D01*
X044591Y032324D01*
X044604Y032308D01*
X044615Y032290D01*
X044623Y032270D01*
X044627Y032250D01*
X044627Y032228D01*
X044623Y032208D01*
X044615Y032188D01*
X044604Y032170D01*
X044591Y032154D01*
X044574Y032141D01*
X044555Y032130D01*
X044535Y032124D01*
X044514Y032121D01*
X044493Y032122D01*
X044473Y032127D01*
X044453Y032135D01*
X044435Y032147D01*
X044420Y032161D01*
X044408Y032178D01*
X044399Y032198D01*
X044393Y032218D01*
X044391Y032239D01*
X044785Y032239D02*
X044787Y032260D01*
X044793Y032280D01*
X044802Y032300D01*
X044814Y032317D01*
X044829Y032331D01*
X044847Y032343D01*
X044867Y032351D01*
X044887Y032356D01*
X044908Y032357D01*
X044929Y032354D01*
X044949Y032348D01*
X044968Y032337D01*
X044985Y032324D01*
X044998Y032308D01*
X045009Y032290D01*
X045017Y032270D01*
X045021Y032250D01*
X045021Y032228D01*
X045017Y032208D01*
X045009Y032188D01*
X044998Y032170D01*
X044985Y032154D01*
X044968Y032141D01*
X044949Y032130D01*
X044929Y032124D01*
X044908Y032121D01*
X044887Y032122D01*
X044867Y032127D01*
X044847Y032135D01*
X044829Y032147D01*
X044814Y032161D01*
X044802Y032178D01*
X044793Y032198D01*
X044787Y032218D01*
X044785Y032239D01*
X045179Y032239D02*
X045181Y032260D01*
X045187Y032280D01*
X045196Y032300D01*
X045208Y032317D01*
X045223Y032331D01*
X045241Y032343D01*
X045261Y032351D01*
X045281Y032356D01*
X045302Y032357D01*
X045323Y032354D01*
X045343Y032348D01*
X045362Y032337D01*
X045379Y032324D01*
X045392Y032308D01*
X045403Y032290D01*
X045411Y032270D01*
X045415Y032250D01*
X045415Y032228D01*
X045411Y032208D01*
X045403Y032188D01*
X045392Y032170D01*
X045379Y032154D01*
X045362Y032141D01*
X045343Y032130D01*
X045323Y032124D01*
X045302Y032121D01*
X045281Y032122D01*
X045261Y032127D01*
X045241Y032135D01*
X045223Y032147D01*
X045208Y032161D01*
X045196Y032178D01*
X045187Y032198D01*
X045181Y032218D01*
X045179Y032239D01*
X045573Y032239D02*
X045575Y032260D01*
X045581Y032280D01*
X045590Y032300D01*
X045602Y032317D01*
X045617Y032331D01*
X045635Y032343D01*
X045655Y032351D01*
X045675Y032356D01*
X045696Y032357D01*
X045717Y032354D01*
X045737Y032348D01*
X045756Y032337D01*
X045773Y032324D01*
X045786Y032308D01*
X045797Y032290D01*
X045805Y032270D01*
X045809Y032250D01*
X045809Y032228D01*
X045805Y032208D01*
X045797Y032188D01*
X045786Y032170D01*
X045773Y032154D01*
X045756Y032141D01*
X045737Y032130D01*
X045717Y032124D01*
X045696Y032121D01*
X045675Y032122D01*
X045655Y032127D01*
X045635Y032135D01*
X045617Y032147D01*
X045602Y032161D01*
X045590Y032178D01*
X045581Y032198D01*
X045575Y032218D01*
X045573Y032239D01*
X045573Y030704D02*
X045575Y030725D01*
X045581Y030745D01*
X045590Y030765D01*
X045602Y030782D01*
X045617Y030796D01*
X045635Y030808D01*
X045655Y030816D01*
X045675Y030821D01*
X045696Y030822D01*
X045717Y030819D01*
X045737Y030813D01*
X045756Y030802D01*
X045773Y030789D01*
X045786Y030773D01*
X045797Y030755D01*
X045805Y030735D01*
X045809Y030715D01*
X045809Y030693D01*
X045805Y030673D01*
X045797Y030653D01*
X045786Y030635D01*
X045773Y030619D01*
X045756Y030606D01*
X045737Y030595D01*
X045717Y030589D01*
X045696Y030586D01*
X045675Y030587D01*
X045655Y030592D01*
X045635Y030600D01*
X045617Y030612D01*
X045602Y030626D01*
X045590Y030643D01*
X045581Y030663D01*
X045575Y030683D01*
X045573Y030704D01*
X045179Y030704D02*
X045181Y030725D01*
X045187Y030745D01*
X045196Y030765D01*
X045208Y030782D01*
X045223Y030796D01*
X045241Y030808D01*
X045261Y030816D01*
X045281Y030821D01*
X045302Y030822D01*
X045323Y030819D01*
X045343Y030813D01*
X045362Y030802D01*
X045379Y030789D01*
X045392Y030773D01*
X045403Y030755D01*
X045411Y030735D01*
X045415Y030715D01*
X045415Y030693D01*
X045411Y030673D01*
X045403Y030653D01*
X045392Y030635D01*
X045379Y030619D01*
X045362Y030606D01*
X045343Y030595D01*
X045323Y030589D01*
X045302Y030586D01*
X045281Y030587D01*
X045261Y030592D01*
X045241Y030600D01*
X045223Y030612D01*
X045208Y030626D01*
X045196Y030643D01*
X045187Y030663D01*
X045181Y030683D01*
X045179Y030704D01*
X044785Y030704D02*
X044787Y030725D01*
X044793Y030745D01*
X044802Y030765D01*
X044814Y030782D01*
X044829Y030796D01*
X044847Y030808D01*
X044867Y030816D01*
X044887Y030821D01*
X044908Y030822D01*
X044929Y030819D01*
X044949Y030813D01*
X044968Y030802D01*
X044985Y030789D01*
X044998Y030773D01*
X045009Y030755D01*
X045017Y030735D01*
X045021Y030715D01*
X045021Y030693D01*
X045017Y030673D01*
X045009Y030653D01*
X044998Y030635D01*
X044985Y030619D01*
X044968Y030606D01*
X044949Y030595D01*
X044929Y030589D01*
X044908Y030586D01*
X044887Y030587D01*
X044867Y030592D01*
X044847Y030600D01*
X044829Y030612D01*
X044814Y030626D01*
X044802Y030643D01*
X044793Y030663D01*
X044787Y030683D01*
X044785Y030704D01*
X044391Y030704D02*
X044393Y030725D01*
X044399Y030745D01*
X044408Y030765D01*
X044420Y030782D01*
X044435Y030796D01*
X044453Y030808D01*
X044473Y030816D01*
X044493Y030821D01*
X044514Y030822D01*
X044535Y030819D01*
X044555Y030813D01*
X044574Y030802D01*
X044591Y030789D01*
X044604Y030773D01*
X044615Y030755D01*
X044623Y030735D01*
X044627Y030715D01*
X044627Y030693D01*
X044623Y030673D01*
X044615Y030653D01*
X044604Y030635D01*
X044591Y030619D01*
X044574Y030606D01*
X044555Y030595D01*
X044535Y030589D01*
X044514Y030586D01*
X044493Y030587D01*
X044473Y030592D01*
X044453Y030600D01*
X044435Y030612D01*
X044420Y030626D01*
X044408Y030643D01*
X044399Y030663D01*
X044393Y030683D01*
X044391Y030704D01*
X048013Y028893D02*
X048015Y028943D01*
X048021Y028993D01*
X048031Y029042D01*
X048045Y029090D01*
X048062Y029137D01*
X048083Y029182D01*
X048108Y029226D01*
X048136Y029267D01*
X048168Y029306D01*
X048202Y029343D01*
X048239Y029377D01*
X048279Y029407D01*
X048321Y029434D01*
X048365Y029458D01*
X048411Y029479D01*
X048458Y029495D01*
X048506Y029508D01*
X048556Y029517D01*
X048605Y029522D01*
X048656Y029523D01*
X048706Y029520D01*
X048755Y029513D01*
X048804Y029502D01*
X048852Y029487D01*
X048898Y029469D01*
X048943Y029447D01*
X048986Y029421D01*
X049027Y029392D01*
X049066Y029360D01*
X049102Y029325D01*
X049134Y029287D01*
X049164Y029247D01*
X049191Y029204D01*
X049214Y029160D01*
X049233Y029114D01*
X049249Y029066D01*
X049261Y029017D01*
X049269Y028968D01*
X049273Y028918D01*
X049273Y028868D01*
X049269Y028818D01*
X049261Y028769D01*
X049249Y028720D01*
X049233Y028672D01*
X049214Y028626D01*
X049191Y028582D01*
X049164Y028539D01*
X049134Y028499D01*
X049102Y028461D01*
X049066Y028426D01*
X049027Y028394D01*
X048986Y028365D01*
X048943Y028339D01*
X048898Y028317D01*
X048852Y028299D01*
X048804Y028284D01*
X048755Y028273D01*
X048706Y028266D01*
X048656Y028263D01*
X048605Y028264D01*
X048556Y028269D01*
X048506Y028278D01*
X048458Y028291D01*
X048411Y028307D01*
X048365Y028328D01*
X048321Y028352D01*
X048279Y028379D01*
X048239Y028409D01*
X048202Y028443D01*
X048168Y028480D01*
X048136Y028519D01*
X048108Y028560D01*
X048083Y028604D01*
X048062Y028649D01*
X048045Y028696D01*
X048031Y028744D01*
X048021Y028793D01*
X048015Y028843D01*
X048013Y028893D01*
X045265Y027496D02*
X045267Y027538D01*
X045273Y027580D01*
X045283Y027622D01*
X045296Y027662D01*
X045314Y027701D01*
X045335Y027738D01*
X045359Y027772D01*
X045387Y027805D01*
X045417Y027835D01*
X045450Y027861D01*
X045485Y027885D01*
X045523Y027905D01*
X045562Y027921D01*
X045602Y027934D01*
X045644Y027943D01*
X045686Y027948D01*
X045729Y027949D01*
X045771Y027946D01*
X045813Y027939D01*
X045854Y027928D01*
X045894Y027913D01*
X045932Y027895D01*
X045969Y027873D01*
X046003Y027848D01*
X046035Y027820D01*
X046063Y027789D01*
X046089Y027755D01*
X046112Y027719D01*
X046131Y027682D01*
X046147Y027642D01*
X046159Y027601D01*
X046167Y027560D01*
X046171Y027517D01*
X046171Y027475D01*
X046167Y027432D01*
X046159Y027391D01*
X046147Y027350D01*
X046131Y027310D01*
X046112Y027273D01*
X046089Y027237D01*
X046063Y027203D01*
X046035Y027172D01*
X046003Y027144D01*
X045969Y027119D01*
X045932Y027097D01*
X045894Y027079D01*
X045854Y027064D01*
X045813Y027053D01*
X045771Y027046D01*
X045729Y027043D01*
X045686Y027044D01*
X045644Y027049D01*
X045602Y027058D01*
X045562Y027071D01*
X045523Y027087D01*
X045485Y027107D01*
X045450Y027131D01*
X045417Y027157D01*
X045387Y027187D01*
X045359Y027220D01*
X045335Y027254D01*
X045314Y027291D01*
X045296Y027330D01*
X045283Y027370D01*
X045273Y027412D01*
X045267Y027454D01*
X045265Y027496D01*
X045265Y022756D02*
X045267Y022798D01*
X045273Y022840D01*
X045283Y022882D01*
X045296Y022922D01*
X045314Y022961D01*
X045335Y022998D01*
X045359Y023032D01*
X045387Y023065D01*
X045417Y023095D01*
X045450Y023121D01*
X045485Y023145D01*
X045523Y023165D01*
X045562Y023181D01*
X045602Y023194D01*
X045644Y023203D01*
X045686Y023208D01*
X045729Y023209D01*
X045771Y023206D01*
X045813Y023199D01*
X045854Y023188D01*
X045894Y023173D01*
X045932Y023155D01*
X045969Y023133D01*
X046003Y023108D01*
X046035Y023080D01*
X046063Y023049D01*
X046089Y023015D01*
X046112Y022979D01*
X046131Y022942D01*
X046147Y022902D01*
X046159Y022861D01*
X046167Y022820D01*
X046171Y022777D01*
X046171Y022735D01*
X046167Y022692D01*
X046159Y022651D01*
X046147Y022610D01*
X046131Y022570D01*
X046112Y022533D01*
X046089Y022497D01*
X046063Y022463D01*
X046035Y022432D01*
X046003Y022404D01*
X045969Y022379D01*
X045932Y022357D01*
X045894Y022339D01*
X045854Y022324D01*
X045813Y022313D01*
X045771Y022306D01*
X045729Y022303D01*
X045686Y022304D01*
X045644Y022309D01*
X045602Y022318D01*
X045562Y022331D01*
X045523Y022347D01*
X045485Y022367D01*
X045450Y022391D01*
X045417Y022417D01*
X045387Y022447D01*
X045359Y022480D01*
X045335Y022514D01*
X045314Y022551D01*
X045296Y022590D01*
X045283Y022630D01*
X045273Y022672D01*
X045267Y022714D01*
X045265Y022756D01*
X034319Y015202D02*
X034321Y015252D01*
X034327Y015302D01*
X034337Y015352D01*
X034350Y015400D01*
X034367Y015448D01*
X034388Y015494D01*
X034412Y015538D01*
X034440Y015580D01*
X034471Y015620D01*
X034505Y015657D01*
X034542Y015692D01*
X034581Y015723D01*
X034622Y015752D01*
X034666Y015777D01*
X034712Y015799D01*
X034759Y015817D01*
X034807Y015831D01*
X034856Y015842D01*
X034906Y015849D01*
X034956Y015852D01*
X035007Y015851D01*
X035057Y015846D01*
X035107Y015837D01*
X035155Y015825D01*
X035203Y015808D01*
X035249Y015788D01*
X035294Y015765D01*
X035337Y015738D01*
X035377Y015708D01*
X035415Y015675D01*
X035450Y015639D01*
X035483Y015600D01*
X035512Y015559D01*
X035538Y015516D01*
X035561Y015471D01*
X035580Y015424D01*
X035595Y015376D01*
X035607Y015327D01*
X035615Y015277D01*
X035619Y015227D01*
X035619Y015177D01*
X035615Y015127D01*
X035607Y015077D01*
X035595Y015028D01*
X035580Y014980D01*
X035561Y014933D01*
X035538Y014888D01*
X035512Y014845D01*
X035483Y014804D01*
X035450Y014765D01*
X035415Y014729D01*
X035377Y014696D01*
X035337Y014666D01*
X035294Y014639D01*
X035249Y014616D01*
X035203Y014596D01*
X035155Y014579D01*
X035107Y014567D01*
X035057Y014558D01*
X035007Y014553D01*
X034956Y014552D01*
X034906Y014555D01*
X034856Y014562D01*
X034807Y014573D01*
X034759Y014587D01*
X034712Y014605D01*
X034666Y014627D01*
X034622Y014652D01*
X034581Y014681D01*
X034542Y014712D01*
X034505Y014747D01*
X034471Y014784D01*
X034440Y014824D01*
X034412Y014866D01*
X034388Y014910D01*
X034367Y014956D01*
X034350Y015004D01*
X034337Y015052D01*
X034327Y015102D01*
X034321Y015152D01*
X034319Y015202D01*
X028263Y015202D02*
X028265Y015252D01*
X028271Y015302D01*
X028281Y015352D01*
X028294Y015400D01*
X028311Y015448D01*
X028332Y015494D01*
X028356Y015538D01*
X028384Y015580D01*
X028415Y015620D01*
X028449Y015657D01*
X028486Y015692D01*
X028525Y015723D01*
X028566Y015752D01*
X028610Y015777D01*
X028656Y015799D01*
X028703Y015817D01*
X028751Y015831D01*
X028800Y015842D01*
X028850Y015849D01*
X028900Y015852D01*
X028951Y015851D01*
X029001Y015846D01*
X029051Y015837D01*
X029099Y015825D01*
X029147Y015808D01*
X029193Y015788D01*
X029238Y015765D01*
X029281Y015738D01*
X029321Y015708D01*
X029359Y015675D01*
X029394Y015639D01*
X029427Y015600D01*
X029456Y015559D01*
X029482Y015516D01*
X029505Y015471D01*
X029524Y015424D01*
X029539Y015376D01*
X029551Y015327D01*
X029559Y015277D01*
X029563Y015227D01*
X029563Y015177D01*
X029559Y015127D01*
X029551Y015077D01*
X029539Y015028D01*
X029524Y014980D01*
X029505Y014933D01*
X029482Y014888D01*
X029456Y014845D01*
X029427Y014804D01*
X029394Y014765D01*
X029359Y014729D01*
X029321Y014696D01*
X029281Y014666D01*
X029238Y014639D01*
X029193Y014616D01*
X029147Y014596D01*
X029099Y014579D01*
X029051Y014567D01*
X029001Y014558D01*
X028951Y014553D01*
X028900Y014552D01*
X028850Y014555D01*
X028800Y014562D01*
X028751Y014573D01*
X028703Y014587D01*
X028656Y014605D01*
X028610Y014627D01*
X028566Y014652D01*
X028525Y014681D01*
X028486Y014712D01*
X028449Y014747D01*
X028415Y014784D01*
X028384Y014824D01*
X028356Y014866D01*
X028332Y014910D01*
X028311Y014956D01*
X028294Y015004D01*
X028281Y015052D01*
X028271Y015102D01*
X028265Y015152D01*
X028263Y015202D01*
X022352Y015202D02*
X022354Y015252D01*
X022360Y015302D01*
X022370Y015352D01*
X022383Y015400D01*
X022400Y015448D01*
X022421Y015494D01*
X022445Y015538D01*
X022473Y015580D01*
X022504Y015620D01*
X022538Y015657D01*
X022575Y015692D01*
X022614Y015723D01*
X022655Y015752D01*
X022699Y015777D01*
X022745Y015799D01*
X022792Y015817D01*
X022840Y015831D01*
X022889Y015842D01*
X022939Y015849D01*
X022989Y015852D01*
X023040Y015851D01*
X023090Y015846D01*
X023140Y015837D01*
X023188Y015825D01*
X023236Y015808D01*
X023282Y015788D01*
X023327Y015765D01*
X023370Y015738D01*
X023410Y015708D01*
X023448Y015675D01*
X023483Y015639D01*
X023516Y015600D01*
X023545Y015559D01*
X023571Y015516D01*
X023594Y015471D01*
X023613Y015424D01*
X023628Y015376D01*
X023640Y015327D01*
X023648Y015277D01*
X023652Y015227D01*
X023652Y015177D01*
X023648Y015127D01*
X023640Y015077D01*
X023628Y015028D01*
X023613Y014980D01*
X023594Y014933D01*
X023571Y014888D01*
X023545Y014845D01*
X023516Y014804D01*
X023483Y014765D01*
X023448Y014729D01*
X023410Y014696D01*
X023370Y014666D01*
X023327Y014639D01*
X023282Y014616D01*
X023236Y014596D01*
X023188Y014579D01*
X023140Y014567D01*
X023090Y014558D01*
X023040Y014553D01*
X022989Y014552D01*
X022939Y014555D01*
X022889Y014562D01*
X022840Y014573D01*
X022792Y014587D01*
X022745Y014605D01*
X022699Y014627D01*
X022655Y014652D01*
X022614Y014681D01*
X022575Y014712D01*
X022538Y014747D01*
X022504Y014784D01*
X022473Y014824D01*
X022445Y014866D01*
X022421Y014910D01*
X022400Y014956D01*
X022383Y015004D01*
X022370Y015052D01*
X022360Y015102D01*
X022354Y015152D01*
X022352Y015202D01*
X016441Y015202D02*
X016443Y015252D01*
X016449Y015302D01*
X016459Y015352D01*
X016472Y015400D01*
X016489Y015448D01*
X016510Y015494D01*
X016534Y015538D01*
X016562Y015580D01*
X016593Y015620D01*
X016627Y015657D01*
X016664Y015692D01*
X016703Y015723D01*
X016744Y015752D01*
X016788Y015777D01*
X016834Y015799D01*
X016881Y015817D01*
X016929Y015831D01*
X016978Y015842D01*
X017028Y015849D01*
X017078Y015852D01*
X017129Y015851D01*
X017179Y015846D01*
X017229Y015837D01*
X017277Y015825D01*
X017325Y015808D01*
X017371Y015788D01*
X017416Y015765D01*
X017459Y015738D01*
X017499Y015708D01*
X017537Y015675D01*
X017572Y015639D01*
X017605Y015600D01*
X017634Y015559D01*
X017660Y015516D01*
X017683Y015471D01*
X017702Y015424D01*
X017717Y015376D01*
X017729Y015327D01*
X017737Y015277D01*
X017741Y015227D01*
X017741Y015177D01*
X017737Y015127D01*
X017729Y015077D01*
X017717Y015028D01*
X017702Y014980D01*
X017683Y014933D01*
X017660Y014888D01*
X017634Y014845D01*
X017605Y014804D01*
X017572Y014765D01*
X017537Y014729D01*
X017499Y014696D01*
X017459Y014666D01*
X017416Y014639D01*
X017371Y014616D01*
X017325Y014596D01*
X017277Y014579D01*
X017229Y014567D01*
X017179Y014558D01*
X017129Y014553D01*
X017078Y014552D01*
X017028Y014555D01*
X016978Y014562D01*
X016929Y014573D01*
X016881Y014587D01*
X016834Y014605D01*
X016788Y014627D01*
X016744Y014652D01*
X016703Y014681D01*
X016664Y014712D01*
X016627Y014747D01*
X016593Y014784D01*
X016562Y014824D01*
X016534Y014866D01*
X016510Y014910D01*
X016489Y014956D01*
X016472Y015004D01*
X016459Y015052D01*
X016449Y015102D01*
X016443Y015152D01*
X016441Y015202D01*
X011793Y004483D02*
X011795Y004533D01*
X011801Y004583D01*
X011811Y004632D01*
X011825Y004680D01*
X011842Y004727D01*
X011863Y004772D01*
X011888Y004816D01*
X011916Y004857D01*
X011948Y004896D01*
X011982Y004933D01*
X012019Y004967D01*
X012059Y004997D01*
X012101Y005024D01*
X012145Y005048D01*
X012191Y005069D01*
X012238Y005085D01*
X012286Y005098D01*
X012336Y005107D01*
X012385Y005112D01*
X012436Y005113D01*
X012486Y005110D01*
X012535Y005103D01*
X012584Y005092D01*
X012632Y005077D01*
X012678Y005059D01*
X012723Y005037D01*
X012766Y005011D01*
X012807Y004982D01*
X012846Y004950D01*
X012882Y004915D01*
X012914Y004877D01*
X012944Y004837D01*
X012971Y004794D01*
X012994Y004750D01*
X013013Y004704D01*
X013029Y004656D01*
X013041Y004607D01*
X013049Y004558D01*
X013053Y004508D01*
X013053Y004458D01*
X013049Y004408D01*
X013041Y004359D01*
X013029Y004310D01*
X013013Y004262D01*
X012994Y004216D01*
X012971Y004172D01*
X012944Y004129D01*
X012914Y004089D01*
X012882Y004051D01*
X012846Y004016D01*
X012807Y003984D01*
X012766Y003955D01*
X012723Y003929D01*
X012678Y003907D01*
X012632Y003889D01*
X012584Y003874D01*
X012535Y003863D01*
X012486Y003856D01*
X012436Y003853D01*
X012385Y003854D01*
X012336Y003859D01*
X012286Y003868D01*
X012238Y003881D01*
X012191Y003897D01*
X012145Y003918D01*
X012101Y003942D01*
X012059Y003969D01*
X012019Y003999D01*
X011982Y004033D01*
X011948Y004070D01*
X011916Y004109D01*
X011888Y004150D01*
X011863Y004194D01*
X011842Y004239D01*
X011825Y004286D01*
X011811Y004334D01*
X011801Y004383D01*
X011795Y004433D01*
X011793Y004483D01*
X048013Y004483D02*
X048015Y004533D01*
X048021Y004583D01*
X048031Y004632D01*
X048045Y004680D01*
X048062Y004727D01*
X048083Y004772D01*
X048108Y004816D01*
X048136Y004857D01*
X048168Y004896D01*
X048202Y004933D01*
X048239Y004967D01*
X048279Y004997D01*
X048321Y005024D01*
X048365Y005048D01*
X048411Y005069D01*
X048458Y005085D01*
X048506Y005098D01*
X048556Y005107D01*
X048605Y005112D01*
X048656Y005113D01*
X048706Y005110D01*
X048755Y005103D01*
X048804Y005092D01*
X048852Y005077D01*
X048898Y005059D01*
X048943Y005037D01*
X048986Y005011D01*
X049027Y004982D01*
X049066Y004950D01*
X049102Y004915D01*
X049134Y004877D01*
X049164Y004837D01*
X049191Y004794D01*
X049214Y004750D01*
X049233Y004704D01*
X049249Y004656D01*
X049261Y004607D01*
X049269Y004558D01*
X049273Y004508D01*
X049273Y004458D01*
X049269Y004408D01*
X049261Y004359D01*
X049249Y004310D01*
X049233Y004262D01*
X049214Y004216D01*
X049191Y004172D01*
X049164Y004129D01*
X049134Y004089D01*
X049102Y004051D01*
X049066Y004016D01*
X049027Y003984D01*
X048986Y003955D01*
X048943Y003929D01*
X048898Y003907D01*
X048852Y003889D01*
X048804Y003874D01*
X048755Y003863D01*
X048706Y003856D01*
X048656Y003853D01*
X048605Y003854D01*
X048556Y003859D01*
X048506Y003868D01*
X048458Y003881D01*
X048411Y003897D01*
X048365Y003918D01*
X048321Y003942D01*
X048279Y003969D01*
X048239Y003999D01*
X048202Y004033D01*
X048168Y004070D01*
X048136Y004109D01*
X048108Y004150D01*
X048083Y004194D01*
X048062Y004239D01*
X048045Y004286D01*
X048031Y004334D01*
X048021Y004383D01*
X048015Y004433D01*
X048013Y004483D01*
D13*
X047659Y004483D02*
X047661Y004545D01*
X047667Y004608D01*
X047677Y004669D01*
X047691Y004730D01*
X047708Y004790D01*
X047729Y004849D01*
X047755Y004906D01*
X047783Y004961D01*
X047815Y005015D01*
X047851Y005066D01*
X047889Y005116D01*
X047931Y005162D01*
X047975Y005206D01*
X048023Y005247D01*
X048072Y005285D01*
X048124Y005319D01*
X048178Y005350D01*
X048234Y005378D01*
X048292Y005402D01*
X048351Y005423D01*
X048411Y005439D01*
X048472Y005452D01*
X048534Y005461D01*
X048596Y005466D01*
X048659Y005467D01*
X048721Y005464D01*
X048783Y005457D01*
X048845Y005446D01*
X048905Y005431D01*
X048965Y005413D01*
X049023Y005391D01*
X049080Y005365D01*
X049135Y005335D01*
X049188Y005302D01*
X049239Y005266D01*
X049287Y005227D01*
X049333Y005184D01*
X049376Y005139D01*
X049416Y005091D01*
X049453Y005041D01*
X049487Y004988D01*
X049518Y004934D01*
X049544Y004878D01*
X049568Y004820D01*
X049587Y004760D01*
X049603Y004700D01*
X049615Y004638D01*
X049623Y004577D01*
X049627Y004514D01*
X049627Y004452D01*
X049623Y004389D01*
X049615Y004328D01*
X049603Y004266D01*
X049587Y004206D01*
X049568Y004146D01*
X049544Y004088D01*
X049518Y004032D01*
X049487Y003978D01*
X049453Y003925D01*
X049416Y003875D01*
X049376Y003827D01*
X049333Y003782D01*
X049287Y003739D01*
X049239Y003700D01*
X049188Y003664D01*
X049135Y003631D01*
X049080Y003601D01*
X049023Y003575D01*
X048965Y003553D01*
X048905Y003535D01*
X048845Y003520D01*
X048783Y003509D01*
X048721Y003502D01*
X048659Y003499D01*
X048596Y003500D01*
X048534Y003505D01*
X048472Y003514D01*
X048411Y003527D01*
X048351Y003543D01*
X048292Y003564D01*
X048234Y003588D01*
X048178Y003616D01*
X048124Y003647D01*
X048072Y003681D01*
X048023Y003719D01*
X047975Y003760D01*
X047931Y003804D01*
X047889Y003850D01*
X047851Y003900D01*
X047815Y003951D01*
X047783Y004005D01*
X047755Y004060D01*
X047729Y004117D01*
X047708Y004176D01*
X047691Y004236D01*
X047677Y004297D01*
X047667Y004358D01*
X047661Y004421D01*
X047659Y004483D01*
X047659Y028893D02*
X047661Y028955D01*
X047667Y029018D01*
X047677Y029079D01*
X047691Y029140D01*
X047708Y029200D01*
X047729Y029259D01*
X047755Y029316D01*
X047783Y029371D01*
X047815Y029425D01*
X047851Y029476D01*
X047889Y029526D01*
X047931Y029572D01*
X047975Y029616D01*
X048023Y029657D01*
X048072Y029695D01*
X048124Y029729D01*
X048178Y029760D01*
X048234Y029788D01*
X048292Y029812D01*
X048351Y029833D01*
X048411Y029849D01*
X048472Y029862D01*
X048534Y029871D01*
X048596Y029876D01*
X048659Y029877D01*
X048721Y029874D01*
X048783Y029867D01*
X048845Y029856D01*
X048905Y029841D01*
X048965Y029823D01*
X049023Y029801D01*
X049080Y029775D01*
X049135Y029745D01*
X049188Y029712D01*
X049239Y029676D01*
X049287Y029637D01*
X049333Y029594D01*
X049376Y029549D01*
X049416Y029501D01*
X049453Y029451D01*
X049487Y029398D01*
X049518Y029344D01*
X049544Y029288D01*
X049568Y029230D01*
X049587Y029170D01*
X049603Y029110D01*
X049615Y029048D01*
X049623Y028987D01*
X049627Y028924D01*
X049627Y028862D01*
X049623Y028799D01*
X049615Y028738D01*
X049603Y028676D01*
X049587Y028616D01*
X049568Y028556D01*
X049544Y028498D01*
X049518Y028442D01*
X049487Y028388D01*
X049453Y028335D01*
X049416Y028285D01*
X049376Y028237D01*
X049333Y028192D01*
X049287Y028149D01*
X049239Y028110D01*
X049188Y028074D01*
X049135Y028041D01*
X049080Y028011D01*
X049023Y027985D01*
X048965Y027963D01*
X048905Y027945D01*
X048845Y027930D01*
X048783Y027919D01*
X048721Y027912D01*
X048659Y027909D01*
X048596Y027910D01*
X048534Y027915D01*
X048472Y027924D01*
X048411Y027937D01*
X048351Y027953D01*
X048292Y027974D01*
X048234Y027998D01*
X048178Y028026D01*
X048124Y028057D01*
X048072Y028091D01*
X048023Y028129D01*
X047975Y028170D01*
X047931Y028214D01*
X047889Y028260D01*
X047851Y028310D01*
X047815Y028361D01*
X047783Y028415D01*
X047755Y028470D01*
X047729Y028527D01*
X047708Y028586D01*
X047691Y028646D01*
X047677Y028707D01*
X047667Y028768D01*
X047661Y028831D01*
X047659Y028893D01*
X011439Y028893D02*
X011441Y028955D01*
X011447Y029018D01*
X011457Y029079D01*
X011471Y029140D01*
X011488Y029200D01*
X011509Y029259D01*
X011535Y029316D01*
X011563Y029371D01*
X011595Y029425D01*
X011631Y029476D01*
X011669Y029526D01*
X011711Y029572D01*
X011755Y029616D01*
X011803Y029657D01*
X011852Y029695D01*
X011904Y029729D01*
X011958Y029760D01*
X012014Y029788D01*
X012072Y029812D01*
X012131Y029833D01*
X012191Y029849D01*
X012252Y029862D01*
X012314Y029871D01*
X012376Y029876D01*
X012439Y029877D01*
X012501Y029874D01*
X012563Y029867D01*
X012625Y029856D01*
X012685Y029841D01*
X012745Y029823D01*
X012803Y029801D01*
X012860Y029775D01*
X012915Y029745D01*
X012968Y029712D01*
X013019Y029676D01*
X013067Y029637D01*
X013113Y029594D01*
X013156Y029549D01*
X013196Y029501D01*
X013233Y029451D01*
X013267Y029398D01*
X013298Y029344D01*
X013324Y029288D01*
X013348Y029230D01*
X013367Y029170D01*
X013383Y029110D01*
X013395Y029048D01*
X013403Y028987D01*
X013407Y028924D01*
X013407Y028862D01*
X013403Y028799D01*
X013395Y028738D01*
X013383Y028676D01*
X013367Y028616D01*
X013348Y028556D01*
X013324Y028498D01*
X013298Y028442D01*
X013267Y028388D01*
X013233Y028335D01*
X013196Y028285D01*
X013156Y028237D01*
X013113Y028192D01*
X013067Y028149D01*
X013019Y028110D01*
X012968Y028074D01*
X012915Y028041D01*
X012860Y028011D01*
X012803Y027985D01*
X012745Y027963D01*
X012685Y027945D01*
X012625Y027930D01*
X012563Y027919D01*
X012501Y027912D01*
X012439Y027909D01*
X012376Y027910D01*
X012314Y027915D01*
X012252Y027924D01*
X012191Y027937D01*
X012131Y027953D01*
X012072Y027974D01*
X012014Y027998D01*
X011958Y028026D01*
X011904Y028057D01*
X011852Y028091D01*
X011803Y028129D01*
X011755Y028170D01*
X011711Y028214D01*
X011669Y028260D01*
X011631Y028310D01*
X011595Y028361D01*
X011563Y028415D01*
X011535Y028470D01*
X011509Y028527D01*
X011488Y028586D01*
X011471Y028646D01*
X011457Y028707D01*
X011447Y028768D01*
X011441Y028831D01*
X011439Y028893D01*
X011439Y004483D02*
X011441Y004545D01*
X011447Y004608D01*
X011457Y004669D01*
X011471Y004730D01*
X011488Y004790D01*
X011509Y004849D01*
X011535Y004906D01*
X011563Y004961D01*
X011595Y005015D01*
X011631Y005066D01*
X011669Y005116D01*
X011711Y005162D01*
X011755Y005206D01*
X011803Y005247D01*
X011852Y005285D01*
X011904Y005319D01*
X011958Y005350D01*
X012014Y005378D01*
X012072Y005402D01*
X012131Y005423D01*
X012191Y005439D01*
X012252Y005452D01*
X012314Y005461D01*
X012376Y005466D01*
X012439Y005467D01*
X012501Y005464D01*
X012563Y005457D01*
X012625Y005446D01*
X012685Y005431D01*
X012745Y005413D01*
X012803Y005391D01*
X012860Y005365D01*
X012915Y005335D01*
X012968Y005302D01*
X013019Y005266D01*
X013067Y005227D01*
X013113Y005184D01*
X013156Y005139D01*
X013196Y005091D01*
X013233Y005041D01*
X013267Y004988D01*
X013298Y004934D01*
X013324Y004878D01*
X013348Y004820D01*
X013367Y004760D01*
X013383Y004700D01*
X013395Y004638D01*
X013403Y004577D01*
X013407Y004514D01*
X013407Y004452D01*
X013403Y004389D01*
X013395Y004328D01*
X013383Y004266D01*
X013367Y004206D01*
X013348Y004146D01*
X013324Y004088D01*
X013298Y004032D01*
X013267Y003978D01*
X013233Y003925D01*
X013196Y003875D01*
X013156Y003827D01*
X013113Y003782D01*
X013067Y003739D01*
X013019Y003700D01*
X012968Y003664D01*
X012915Y003631D01*
X012860Y003601D01*
X012803Y003575D01*
X012745Y003553D01*
X012685Y003535D01*
X012625Y003520D01*
X012563Y003509D01*
X012501Y003502D01*
X012439Y003499D01*
X012376Y003500D01*
X012314Y003505D01*
X012252Y003514D01*
X012191Y003527D01*
X012131Y003543D01*
X012072Y003564D01*
X012014Y003588D01*
X011958Y003616D01*
X011904Y003647D01*
X011852Y003681D01*
X011803Y003719D01*
X011755Y003760D01*
X011711Y003804D01*
X011669Y003850D01*
X011631Y003900D01*
X011595Y003951D01*
X011563Y004005D01*
X011535Y004060D01*
X011509Y004117D01*
X011488Y004176D01*
X011471Y004236D01*
X011457Y004297D01*
X011447Y004358D01*
X011441Y004421D01*
X011439Y004483D01*
D14*
X043864Y024634D03*
X044651Y024634D03*
X044651Y025618D03*
X043864Y025618D03*
D15*
X045664Y005059D03*
X045664Y004059D03*
X038764Y004177D03*
X038764Y005177D03*
X032781Y005177D03*
X032781Y004177D03*
X026798Y004177D03*
X026798Y005177D03*
X020815Y005177D03*
X020815Y004177D03*
D16*
X022814Y005200D02*
X022814Y005905D01*
X024782Y005905D02*
X024782Y005200D01*
X028797Y005200D02*
X028797Y005905D01*
X030765Y005905D02*
X030765Y005200D01*
X034780Y005200D02*
X034780Y005905D01*
X036749Y005905D02*
X036749Y005200D01*
X041752Y005200D02*
X041752Y005905D01*
X043721Y005905D02*
X043721Y005200D01*
X018799Y005200D02*
X018799Y005905D01*
X016830Y005905D02*
X016830Y005200D01*
X015887Y035221D02*
X015887Y035926D01*
X013919Y035926D02*
X013919Y035221D01*
X011950Y035221D02*
X011950Y035926D01*
X017856Y035926D02*
X017856Y035221D01*
X022147Y035182D02*
X022147Y035887D01*
X024116Y035887D02*
X024116Y035182D01*
X026084Y035182D02*
X026084Y035887D01*
X028053Y035887D02*
X028053Y035182D01*
X032029Y035103D02*
X032029Y035808D01*
X033998Y035808D02*
X033998Y035103D01*
X035966Y035103D02*
X035966Y035808D01*
X037935Y035808D02*
X037935Y035103D01*
X042383Y035182D02*
X042383Y035887D01*
X044352Y035887D02*
X044352Y035182D01*
X046320Y035182D02*
X046320Y035887D01*
X048289Y035887D02*
X048289Y035182D01*
D17*
X037729Y026824D03*
X037729Y025044D03*
X035169Y025044D03*
X035169Y026824D03*
X034484Y019192D03*
X034484Y017412D03*
X037044Y017412D03*
X037044Y019192D03*
X031061Y019192D03*
X031061Y017412D03*
X028501Y017412D03*
X028501Y019192D03*
X025078Y019192D03*
X025078Y017412D03*
X022518Y017412D03*
X022518Y019192D03*
X019095Y019192D03*
X019095Y017412D03*
X016535Y017412D03*
X016535Y019192D03*
D18*
X017027Y006927D03*
X018602Y006927D03*
X023010Y006927D03*
X024585Y006927D03*
X028994Y006927D03*
X030569Y006927D03*
X034977Y006927D03*
X036552Y006927D03*
D19*
X035969Y007972D02*
X035969Y008632D01*
X034969Y008632D02*
X034969Y007972D01*
X033969Y007972D02*
X033969Y008632D01*
X029913Y008632D02*
X029913Y007972D01*
X028913Y007972D02*
X028913Y008632D01*
X027913Y008632D02*
X027913Y007972D01*
X024002Y007972D02*
X024002Y008632D01*
X023002Y008632D02*
X023002Y007972D01*
X022002Y007972D02*
X022002Y008632D01*
X018091Y008632D02*
X018091Y007972D01*
X017091Y007972D02*
X017091Y008632D01*
X016091Y008632D02*
X016091Y007972D01*
D20*
X016411Y032857D03*
X015411Y032857D03*
X014411Y032857D03*
X013411Y032857D03*
X012411Y032857D03*
X011411Y032857D03*
X017411Y032857D03*
X018411Y032857D03*
X021569Y032857D03*
X022569Y032857D03*
X023569Y032857D03*
X024569Y032857D03*
X025569Y032857D03*
X026569Y032857D03*
X027569Y032857D03*
X028569Y032857D03*
X031490Y032857D03*
X032490Y032857D03*
X033490Y032857D03*
X034490Y032857D03*
X035490Y032857D03*
X036490Y032857D03*
X037490Y032857D03*
X038490Y032857D03*
X041844Y032857D03*
X042844Y032857D03*
X043844Y032857D03*
X044844Y032857D03*
X045844Y032857D03*
X046844Y032857D03*
X047844Y032857D03*
X048844Y032857D03*
X048844Y037857D03*
X047844Y037857D03*
X046844Y037857D03*
X045844Y037857D03*
X044844Y037857D03*
X043844Y037857D03*
X042844Y037857D03*
X041844Y037857D03*
X038490Y037857D03*
X037490Y037857D03*
X036490Y037857D03*
X035490Y037857D03*
X034490Y037857D03*
X033490Y037857D03*
X032490Y037857D03*
X031490Y037857D03*
X028569Y037857D03*
X027569Y037857D03*
X026569Y037857D03*
X025569Y037857D03*
X024569Y037857D03*
X023569Y037857D03*
X022569Y037857D03*
X021569Y037857D03*
X018411Y037857D03*
X017411Y037857D03*
X016411Y037857D03*
X015411Y037857D03*
X014411Y037857D03*
X013411Y037857D03*
X012411Y037857D03*
X011411Y037857D03*
D21*
X038429Y012677D03*
X039179Y012677D03*
X039179Y011927D03*
X038429Y011927D03*
X038429Y011177D03*
X039179Y011177D03*
X039179Y010427D03*
X038429Y010427D03*
X038429Y009677D03*
X039179Y009677D03*
X039929Y009677D03*
X040679Y009677D03*
X040679Y010427D03*
X039929Y010427D03*
X039929Y011177D03*
X040679Y011177D03*
X040679Y011927D03*
X039929Y011927D03*
X039929Y012677D03*
X040679Y012677D03*
X041429Y012677D03*
X041429Y011927D03*
X041429Y011177D03*
X041429Y010427D03*
X041429Y009677D03*
X044706Y011727D03*
X047172Y011802D03*
X047948Y011802D03*
X048724Y011802D03*
X049518Y011815D03*
X045612Y008026D03*
X047126Y007051D03*
X047904Y007051D03*
X048691Y007051D03*
X049439Y007051D03*
X041034Y003852D03*
X034065Y003852D03*
X028081Y003813D03*
X022057Y003773D03*
X016073Y003813D03*
X014490Y008105D03*
X014391Y012278D03*
X020297Y012318D03*
X026202Y012397D03*
X032265Y012357D03*
X047126Y016927D03*
X047862Y016927D03*
X048638Y016927D03*
X049374Y016927D03*
D22*
X044706Y011727D02*
X045612Y010822D01*
X045612Y008026D01*
X038764Y004177D02*
X035264Y004177D01*
X034764Y004677D01*
X034764Y005536D01*
X034780Y005552D01*
X032781Y004177D02*
X029281Y004177D01*
X028781Y004677D01*
X028781Y005536D01*
X028797Y005552D01*
X026798Y004177D02*
X023298Y004177D01*
X022798Y004677D01*
X022798Y005536D01*
X022814Y005552D01*
X020815Y004177D02*
X017440Y004177D01*
X016815Y004802D01*
X016815Y005536D01*
X016830Y005552D01*
X016535Y019192D02*
X019095Y019192D01*
X022518Y019192D02*
X025078Y019192D01*
X028501Y019192D02*
X031061Y019192D01*
X034484Y019192D02*
X037044Y019192D01*
X034401Y023784D02*
X026271Y023784D01*
X025612Y024444D01*
X034401Y023784D02*
X035179Y024562D01*
X035169Y025044D01*
D23*
X037659Y028026D03*
X041045Y024483D03*
X040612Y023971D03*
X042344Y023499D03*
X037777Y021137D03*
X040454Y018302D03*
X043801Y027987D03*
X026124Y028617D03*
X023998Y028026D03*
X023210Y028026D03*
X022423Y028026D03*
X021635Y028026D03*
X020887Y028026D03*
X020061Y028026D03*
X019273Y028026D03*
X021281Y026530D03*
X021990Y026924D03*
X022423Y025743D03*
X023210Y025349D03*
X024549Y026137D03*
X023565Y027318D03*
X021635Y024956D03*
X020887Y024562D03*
X021872Y023302D03*
X022423Y022908D03*
X023210Y022908D03*
X024037Y022908D03*
X025612Y024444D03*
X019824Y021058D03*
X016163Y020861D03*
X011832Y017318D03*
X014588Y013814D03*
X014076Y013302D03*
X013565Y012790D03*
X013013Y012278D03*
D24*
X048880Y019601D03*
X048880Y021688D03*
D25*
X041045Y023499D02*
X041045Y024483D01*
X040612Y023971D02*
X036281Y023971D01*
X034824Y022515D01*
X021911Y022515D01*
X020061Y024365D01*
X020061Y028026D01*
X019273Y028026D02*
X019273Y024641D01*
X021714Y022200D01*
X034982Y022200D01*
X036163Y023381D01*
X040927Y023381D01*
X041045Y023499D01*
X042344Y033202D02*
X042182Y033363D01*
X041963Y033454D01*
X041725Y033454D01*
X041641Y033419D01*
X041641Y037295D01*
X041725Y037260D01*
X041963Y037260D01*
X042182Y037351D01*
X042350Y037519D01*
X042419Y037685D01*
X042420Y037682D01*
X042453Y037618D01*
X042495Y037559D01*
X042546Y037508D01*
X042604Y037466D01*
X042669Y037433D01*
X042737Y037411D01*
X042808Y037400D01*
X042836Y037400D01*
X042836Y037849D01*
X042853Y037849D01*
X042853Y037400D01*
X042880Y037400D01*
X042951Y037411D01*
X043020Y037433D01*
X043084Y037466D01*
X043142Y037508D01*
X043193Y037559D01*
X043235Y037618D01*
X043268Y037682D01*
X043269Y037685D01*
X043338Y037519D01*
X043506Y037351D01*
X043725Y037260D01*
X043963Y037260D01*
X044182Y037351D01*
X044344Y037513D01*
X044506Y037351D01*
X044725Y037260D01*
X044963Y037260D01*
X045182Y037351D01*
X045344Y037513D01*
X045506Y037351D01*
X045725Y037260D01*
X045963Y037260D01*
X046182Y037351D01*
X046344Y037513D01*
X046506Y037351D01*
X046725Y037260D01*
X046963Y037260D01*
X047182Y037351D01*
X047344Y037513D01*
X047506Y037351D01*
X047725Y037260D01*
X047963Y037260D01*
X048182Y037351D01*
X048350Y037519D01*
X048419Y037685D01*
X048420Y037682D01*
X048453Y037618D01*
X048495Y037559D01*
X048546Y037508D01*
X048604Y037466D01*
X048669Y037433D01*
X048737Y037411D01*
X048808Y037400D01*
X048836Y037400D01*
X048836Y037849D01*
X048853Y037849D01*
X048853Y037400D01*
X048880Y037400D01*
X048951Y037411D01*
X049020Y037433D01*
X049032Y037440D01*
X049032Y034652D01*
X048922Y034762D01*
X048707Y034851D01*
X048744Y034903D01*
X048782Y034977D01*
X048808Y035057D01*
X048821Y035140D01*
X048821Y035497D01*
X048326Y035497D01*
X048326Y035572D01*
X048251Y035572D01*
X048251Y035497D01*
X047756Y035497D01*
X047756Y035140D01*
X047770Y035057D01*
X047795Y034977D01*
X047834Y034903D01*
X047859Y034868D01*
X047083Y034868D01*
X047020Y034931D01*
X047020Y035674D01*
X046993Y035740D01*
X046993Y036021D01*
X046891Y036268D01*
X046701Y036457D01*
X046454Y036559D01*
X046187Y036559D01*
X045940Y036457D01*
X045750Y036268D01*
X045648Y036021D01*
X045648Y035740D01*
X045620Y035674D01*
X045620Y034501D01*
X045727Y034244D01*
X046199Y033772D01*
X046396Y033575D01*
X046654Y033468D01*
X048140Y033468D01*
X048140Y033381D01*
X047963Y033454D01*
X047725Y033454D01*
X047506Y033363D01*
X047344Y033202D01*
X047182Y033363D01*
X046963Y033454D01*
X046725Y033454D01*
X046506Y033363D01*
X046344Y033202D01*
X046182Y033363D01*
X045963Y033454D01*
X045725Y033454D01*
X045506Y033363D01*
X045344Y033202D01*
X045182Y033363D01*
X044963Y033454D01*
X044725Y033454D01*
X044506Y033363D01*
X044344Y033202D01*
X044182Y033363D01*
X043963Y033454D01*
X043725Y033454D01*
X043506Y033363D01*
X043344Y033202D01*
X043182Y033363D01*
X042963Y033454D01*
X042725Y033454D01*
X042506Y033363D01*
X042344Y033202D01*
X042205Y033340D02*
X042483Y033340D01*
X043205Y033340D02*
X043483Y033340D01*
X044205Y033340D02*
X044483Y033340D01*
X045205Y033340D02*
X045483Y033340D01*
X046205Y033340D02*
X046483Y033340D01*
X046580Y033499D02*
X041641Y033499D01*
X041641Y033657D02*
X046314Y033657D01*
X046155Y033816D02*
X041641Y033816D01*
X041641Y033974D02*
X045997Y033974D01*
X045838Y034133D02*
X041641Y034133D01*
X041641Y034291D02*
X045707Y034291D01*
X045642Y034450D02*
X041641Y034450D01*
X041641Y034608D02*
X042011Y034608D01*
X042003Y034612D02*
X042250Y034509D01*
X042517Y034509D01*
X042764Y034612D01*
X042954Y034801D01*
X043056Y035048D01*
X043056Y036021D01*
X042954Y036268D01*
X042764Y036457D01*
X042517Y036559D01*
X042250Y036559D01*
X042003Y036457D01*
X041813Y036268D01*
X041711Y036021D01*
X041711Y035048D01*
X041813Y034801D01*
X042003Y034612D01*
X041847Y034767D02*
X041641Y034767D01*
X041641Y034925D02*
X041762Y034925D01*
X041711Y035084D02*
X041641Y035084D01*
X041641Y035242D02*
X041711Y035242D01*
X041711Y035401D02*
X041641Y035401D01*
X041641Y035559D02*
X041711Y035559D01*
X041711Y035718D02*
X041641Y035718D01*
X041641Y035876D02*
X041711Y035876D01*
X041717Y036035D02*
X041641Y036035D01*
X041641Y036193D02*
X041783Y036193D01*
X041897Y036352D02*
X041641Y036352D01*
X041641Y036510D02*
X042132Y036510D01*
X042635Y036510D02*
X044100Y036510D01*
X044218Y036559D02*
X043971Y036457D01*
X043782Y036268D01*
X043679Y036021D01*
X043679Y035048D01*
X043782Y034801D01*
X043971Y034612D01*
X044218Y034509D01*
X044486Y034509D01*
X044733Y034612D01*
X044922Y034801D01*
X045024Y035048D01*
X045024Y036021D01*
X044922Y036268D01*
X044733Y036457D01*
X044486Y036559D01*
X044218Y036559D01*
X044604Y036510D02*
X046069Y036510D01*
X045834Y036352D02*
X044838Y036352D01*
X044953Y036193D02*
X045720Y036193D01*
X045654Y036035D02*
X045019Y036035D01*
X045024Y035876D02*
X045648Y035876D01*
X045639Y035718D02*
X045024Y035718D01*
X045024Y035559D02*
X045620Y035559D01*
X045620Y035401D02*
X045024Y035401D01*
X045024Y035242D02*
X045620Y035242D01*
X045620Y035084D02*
X045024Y035084D01*
X044974Y034925D02*
X045620Y034925D01*
X045620Y034767D02*
X044888Y034767D01*
X044725Y034608D02*
X045620Y034608D01*
X047026Y034925D02*
X047822Y034925D01*
X047765Y035084D02*
X047020Y035084D01*
X047020Y035242D02*
X047756Y035242D01*
X047756Y035401D02*
X047020Y035401D01*
X047020Y035559D02*
X048251Y035559D01*
X048251Y035572D02*
X047756Y035572D01*
X047756Y035929D01*
X047770Y036011D01*
X047795Y036091D01*
X047834Y036166D01*
X047883Y036234D01*
X047942Y036293D01*
X048010Y036342D01*
X048085Y036380D01*
X048164Y036406D01*
X048247Y036419D01*
X048251Y036419D01*
X048251Y035572D01*
X048326Y035572D02*
X048326Y036419D01*
X048331Y036419D01*
X048414Y036406D01*
X048493Y036380D01*
X048568Y036342D01*
X048636Y036293D01*
X048695Y036234D01*
X048744Y036166D01*
X048782Y036091D01*
X048808Y036011D01*
X048821Y035929D01*
X048821Y035572D01*
X048326Y035572D01*
X048326Y035559D02*
X049032Y035559D01*
X049032Y035401D02*
X048821Y035401D01*
X048821Y035242D02*
X049032Y035242D01*
X049032Y035084D02*
X048813Y035084D01*
X048756Y034925D02*
X049032Y034925D01*
X049032Y034767D02*
X048909Y034767D01*
X048821Y035718D02*
X049032Y035718D01*
X049032Y035876D02*
X048821Y035876D01*
X048801Y036035D02*
X049032Y036035D01*
X049032Y036193D02*
X048724Y036193D01*
X048549Y036352D02*
X049032Y036352D01*
X049032Y036510D02*
X046572Y036510D01*
X046806Y036352D02*
X048029Y036352D01*
X048251Y036352D02*
X048326Y036352D01*
X048326Y036193D02*
X048251Y036193D01*
X048251Y036035D02*
X048326Y036035D01*
X048326Y035876D02*
X048251Y035876D01*
X048251Y035718D02*
X048326Y035718D01*
X047756Y035718D02*
X047002Y035718D01*
X046993Y035876D02*
X047756Y035876D01*
X047777Y036035D02*
X046987Y036035D01*
X046921Y036193D02*
X047854Y036193D01*
X049032Y036669D02*
X041641Y036669D01*
X041641Y036827D02*
X049032Y036827D01*
X049032Y036986D02*
X041641Y036986D01*
X041641Y037144D02*
X049032Y037144D01*
X049032Y037303D02*
X048066Y037303D01*
X048293Y037461D02*
X048614Y037461D01*
X048836Y037461D02*
X048853Y037461D01*
X048836Y037620D02*
X048853Y037620D01*
X048836Y037778D02*
X048853Y037778D01*
X048452Y037620D02*
X048392Y037620D01*
X047622Y037303D02*
X047066Y037303D01*
X047293Y037461D02*
X047395Y037461D01*
X046622Y037303D02*
X046066Y037303D01*
X046293Y037461D02*
X046395Y037461D01*
X045622Y037303D02*
X045066Y037303D01*
X045293Y037461D02*
X045395Y037461D01*
X044622Y037303D02*
X044066Y037303D01*
X044293Y037461D02*
X044395Y037461D01*
X043622Y037303D02*
X042066Y037303D01*
X042293Y037461D02*
X042614Y037461D01*
X042836Y037461D02*
X042853Y037461D01*
X042836Y037620D02*
X042853Y037620D01*
X042836Y037778D02*
X042853Y037778D01*
X043074Y037461D02*
X043395Y037461D01*
X043296Y037620D02*
X043236Y037620D01*
X042452Y037620D02*
X042392Y037620D01*
X042869Y036352D02*
X043866Y036352D01*
X043751Y036193D02*
X042984Y036193D01*
X043050Y036035D02*
X043685Y036035D01*
X043679Y035876D02*
X043056Y035876D01*
X043056Y035718D02*
X043679Y035718D01*
X043679Y035559D02*
X043056Y035559D01*
X043056Y035401D02*
X043679Y035401D01*
X043679Y035242D02*
X043056Y035242D01*
X043056Y035084D02*
X043679Y035084D01*
X043730Y034925D02*
X043005Y034925D01*
X042920Y034767D02*
X043816Y034767D01*
X043979Y034608D02*
X042756Y034608D01*
X038677Y034608D02*
X038135Y034608D01*
X038131Y034607D02*
X038139Y034610D01*
X038214Y034648D01*
X038282Y034697D01*
X038341Y034756D01*
X038390Y034824D01*
X038428Y034899D01*
X038454Y034978D01*
X038467Y035061D01*
X038467Y035418D01*
X037972Y035418D01*
X037972Y035493D01*
X037897Y035493D01*
X037897Y035418D01*
X037402Y035418D01*
X037402Y035061D01*
X037415Y034978D01*
X037438Y034908D01*
X036768Y034908D01*
X036666Y035009D01*
X036666Y035595D01*
X036639Y035661D01*
X036639Y035942D01*
X036536Y036189D01*
X036347Y036378D01*
X036100Y036481D01*
X035832Y036481D01*
X035585Y036378D01*
X035396Y036189D01*
X035294Y035942D01*
X035294Y035661D01*
X035266Y035595D01*
X035266Y034580D01*
X035373Y034323D01*
X035885Y033811D01*
X036081Y033614D01*
X036339Y033508D01*
X037251Y033508D01*
X037324Y033435D01*
X037151Y033363D01*
X036990Y033202D01*
X036828Y033363D01*
X036609Y033454D01*
X036371Y033454D01*
X036151Y033363D01*
X035990Y033202D01*
X035828Y033363D01*
X035609Y033454D01*
X035371Y033454D01*
X035151Y033363D01*
X034990Y033202D01*
X034828Y033363D01*
X034609Y033454D01*
X034371Y033454D01*
X034151Y033363D01*
X033990Y033202D01*
X033828Y033363D01*
X033609Y033454D01*
X033371Y033454D01*
X033151Y033363D01*
X032990Y033202D01*
X032828Y033363D01*
X032609Y033454D01*
X032371Y033454D01*
X032151Y033363D01*
X031990Y033202D01*
X031828Y033363D01*
X031609Y033454D01*
X031371Y033454D01*
X031286Y033419D01*
X031286Y037295D01*
X031371Y037260D01*
X031609Y037260D01*
X031828Y037351D01*
X031996Y037519D01*
X032065Y037685D01*
X032066Y037682D01*
X032099Y037618D01*
X032141Y037559D01*
X032192Y037508D01*
X032250Y037466D01*
X032314Y037433D01*
X032383Y037411D01*
X032454Y037400D01*
X032481Y037400D01*
X032481Y037849D01*
X032498Y037849D01*
X032498Y037400D01*
X032526Y037400D01*
X032597Y037411D01*
X032665Y037433D01*
X032729Y037466D01*
X032788Y037508D01*
X032838Y037559D01*
X032881Y037618D01*
X032913Y037682D01*
X032915Y037685D01*
X032984Y037519D01*
X033151Y037351D01*
X033371Y037260D01*
X033609Y037260D01*
X033828Y037351D01*
X033990Y037513D01*
X034151Y037351D01*
X034371Y037260D01*
X034609Y037260D01*
X034828Y037351D01*
X034990Y037513D01*
X035151Y037351D01*
X035371Y037260D01*
X035609Y037260D01*
X035828Y037351D01*
X035990Y037513D01*
X036151Y037351D01*
X036371Y037260D01*
X036609Y037260D01*
X036828Y037351D01*
X036990Y037513D01*
X037151Y037351D01*
X037371Y037260D01*
X037609Y037260D01*
X037828Y037351D01*
X037996Y037519D01*
X038065Y037685D01*
X038066Y037682D01*
X038099Y037618D01*
X038141Y037559D01*
X038192Y037508D01*
X038250Y037466D01*
X038314Y037433D01*
X038383Y037411D01*
X038454Y037400D01*
X038481Y037400D01*
X038481Y037849D01*
X038498Y037849D01*
X038498Y037400D01*
X038526Y037400D01*
X038597Y037411D01*
X038665Y037433D01*
X038677Y037440D01*
X038677Y034061D01*
X038131Y034607D01*
X038289Y034450D02*
X038677Y034450D01*
X038677Y034291D02*
X038447Y034291D01*
X038606Y034133D02*
X038677Y034133D01*
X038677Y034767D02*
X038349Y034767D01*
X038437Y034925D02*
X038677Y034925D01*
X038677Y035084D02*
X038467Y035084D01*
X038467Y035242D02*
X038677Y035242D01*
X038677Y035401D02*
X038467Y035401D01*
X038467Y035493D02*
X038467Y035850D01*
X038454Y035933D01*
X038428Y036012D01*
X038390Y036087D01*
X038341Y036155D01*
X038282Y036214D01*
X038214Y036263D01*
X038139Y036302D01*
X038059Y036327D01*
X037977Y036341D01*
X037972Y036341D01*
X037972Y035493D01*
X038467Y035493D01*
X038467Y035559D02*
X038677Y035559D01*
X038677Y035718D02*
X038467Y035718D01*
X038463Y035876D02*
X038677Y035876D01*
X038677Y036035D02*
X038417Y036035D01*
X038302Y036193D02*
X038677Y036193D01*
X038677Y036352D02*
X036373Y036352D01*
X036532Y036193D02*
X037567Y036193D01*
X037588Y036214D02*
X037528Y036155D01*
X037479Y036087D01*
X037441Y036012D01*
X037415Y035933D01*
X037402Y035850D01*
X037402Y035493D01*
X037897Y035493D01*
X037897Y036341D01*
X037893Y036341D01*
X037810Y036327D01*
X037730Y036302D01*
X037656Y036263D01*
X037588Y036214D01*
X037453Y036035D02*
X036600Y036035D01*
X036639Y035876D02*
X037406Y035876D01*
X037402Y035718D02*
X036639Y035718D01*
X036666Y035559D02*
X037402Y035559D01*
X037402Y035401D02*
X036666Y035401D01*
X036666Y035242D02*
X037402Y035242D01*
X037402Y035084D02*
X036666Y035084D01*
X036750Y034925D02*
X037432Y034925D01*
X037897Y035559D02*
X037972Y035559D01*
X037972Y035718D02*
X037897Y035718D01*
X037897Y035876D02*
X037972Y035876D01*
X037972Y036035D02*
X037897Y036035D01*
X037897Y036193D02*
X037972Y036193D01*
X038677Y036510D02*
X031286Y036510D01*
X031286Y036352D02*
X031622Y036352D01*
X031648Y036378D02*
X031459Y036189D01*
X031357Y035942D01*
X031357Y034969D01*
X031459Y034722D01*
X031648Y034533D01*
X031895Y034431D01*
X032163Y034431D01*
X032410Y034533D01*
X032599Y034722D01*
X032702Y034969D01*
X032702Y035942D01*
X032599Y036189D01*
X032410Y036378D01*
X032163Y036481D01*
X031895Y036481D01*
X031648Y036378D01*
X031463Y036193D02*
X031286Y036193D01*
X031286Y036035D02*
X031395Y036035D01*
X031357Y035876D02*
X031286Y035876D01*
X031286Y035718D02*
X031357Y035718D01*
X031357Y035559D02*
X031286Y035559D01*
X031286Y035401D02*
X031357Y035401D01*
X031357Y035242D02*
X031286Y035242D01*
X031286Y035084D02*
X031357Y035084D01*
X031375Y034925D02*
X031286Y034925D01*
X031286Y034767D02*
X031440Y034767D01*
X031573Y034608D02*
X031286Y034608D01*
X031286Y034450D02*
X031849Y034450D01*
X032210Y034450D02*
X033817Y034450D01*
X033864Y034431D02*
X034131Y034431D01*
X034379Y034533D01*
X034568Y034722D01*
X034670Y034969D01*
X034670Y035942D01*
X034568Y036189D01*
X034379Y036378D01*
X034131Y036481D01*
X033864Y036481D01*
X033617Y036378D01*
X033428Y036189D01*
X033325Y035942D01*
X033325Y034969D01*
X033428Y034722D01*
X033617Y034533D01*
X033864Y034431D01*
X034178Y034450D02*
X035320Y034450D01*
X035266Y034608D02*
X034454Y034608D01*
X034586Y034767D02*
X035266Y034767D01*
X035266Y034925D02*
X034652Y034925D01*
X034670Y035084D02*
X035266Y035084D01*
X035266Y035242D02*
X034670Y035242D01*
X034670Y035401D02*
X035266Y035401D01*
X035266Y035559D02*
X034670Y035559D01*
X034670Y035718D02*
X035294Y035718D01*
X035294Y035876D02*
X034670Y035876D01*
X034632Y036035D02*
X035332Y036035D01*
X035400Y036193D02*
X034563Y036193D01*
X034405Y036352D02*
X035559Y036352D01*
X035712Y037303D02*
X036267Y037303D01*
X036041Y037461D02*
X035939Y037461D01*
X035267Y037303D02*
X034712Y037303D01*
X034939Y037461D02*
X035041Y037461D01*
X034267Y037303D02*
X033712Y037303D01*
X033939Y037461D02*
X034041Y037461D01*
X033267Y037303D02*
X031712Y037303D01*
X031939Y037461D02*
X032260Y037461D01*
X032481Y037461D02*
X032498Y037461D01*
X032481Y037620D02*
X032498Y037620D01*
X032481Y037778D02*
X032498Y037778D01*
X032720Y037461D02*
X033041Y037461D01*
X032942Y037620D02*
X032882Y037620D01*
X032098Y037620D02*
X032038Y037620D01*
X031286Y037144D02*
X038677Y037144D01*
X038677Y036986D02*
X031286Y036986D01*
X031286Y036827D02*
X038677Y036827D01*
X038677Y036669D02*
X031286Y036669D01*
X032436Y036352D02*
X033590Y036352D01*
X033432Y036193D02*
X032595Y036193D01*
X032663Y036035D02*
X033364Y036035D01*
X033325Y035876D02*
X032702Y035876D01*
X032702Y035718D02*
X033325Y035718D01*
X033325Y035559D02*
X032702Y035559D01*
X032702Y035401D02*
X033325Y035401D01*
X033325Y035242D02*
X032702Y035242D01*
X032702Y035084D02*
X033325Y035084D01*
X033343Y034925D02*
X032683Y034925D01*
X032618Y034767D02*
X033409Y034767D01*
X033541Y034608D02*
X032485Y034608D01*
X031286Y034291D02*
X035404Y034291D01*
X035563Y034133D02*
X031286Y034133D01*
X031286Y033974D02*
X035721Y033974D01*
X035880Y033816D02*
X031286Y033816D01*
X031286Y033657D02*
X036038Y033657D01*
X036128Y033340D02*
X035851Y033340D01*
X035128Y033340D02*
X034851Y033340D01*
X034128Y033340D02*
X033851Y033340D01*
X033128Y033340D02*
X032851Y033340D01*
X032128Y033340D02*
X031851Y033340D01*
X031286Y033499D02*
X037260Y033499D01*
X037128Y033340D02*
X036851Y033340D01*
X036712Y037303D02*
X037267Y037303D01*
X037041Y037461D02*
X036939Y037461D01*
X037712Y037303D02*
X038677Y037303D01*
X038498Y037461D02*
X038481Y037461D01*
X038481Y037620D02*
X038498Y037620D01*
X038481Y037778D02*
X038498Y037778D01*
X038260Y037461D02*
X037939Y037461D01*
X038038Y037620D02*
X038098Y037620D01*
X028756Y037440D02*
X028756Y034494D01*
X028528Y034722D01*
X028399Y034775D01*
X028400Y034776D01*
X028459Y034835D01*
X028508Y034903D01*
X028546Y034977D01*
X028572Y035057D01*
X028585Y035140D01*
X028585Y035497D01*
X028090Y035497D01*
X028090Y035572D01*
X028015Y035572D01*
X028015Y035497D01*
X027520Y035497D01*
X027520Y035140D01*
X027533Y035057D01*
X027559Y034977D01*
X027597Y034903D01*
X027647Y034835D01*
X027653Y034829D01*
X026784Y034829D01*
X026784Y035674D01*
X026757Y035740D01*
X026757Y036021D01*
X026654Y036268D01*
X026465Y036457D01*
X026218Y036559D01*
X025950Y036559D01*
X025703Y036457D01*
X025514Y036268D01*
X025412Y036021D01*
X025412Y035740D01*
X025384Y035674D01*
X025384Y034383D01*
X025491Y034126D01*
X025885Y033732D01*
X026081Y033535D01*
X026339Y033429D01*
X026388Y033429D01*
X026230Y033363D01*
X026069Y033202D01*
X025907Y033363D01*
X025687Y033454D01*
X025450Y033454D01*
X025230Y033363D01*
X025069Y033202D01*
X024907Y033363D01*
X024687Y033454D01*
X024450Y033454D01*
X024230Y033363D01*
X024069Y033202D01*
X023907Y033363D01*
X023687Y033454D01*
X023450Y033454D01*
X023230Y033363D01*
X023069Y033202D01*
X022907Y033363D01*
X022687Y033454D01*
X022450Y033454D01*
X022230Y033363D01*
X022069Y033202D01*
X021907Y033363D01*
X021687Y033454D01*
X021450Y033454D01*
X021365Y033419D01*
X021365Y037295D01*
X021450Y037260D01*
X021687Y037260D01*
X021907Y037351D01*
X022075Y037519D01*
X022144Y037685D01*
X022145Y037682D01*
X022178Y037618D01*
X022220Y037559D01*
X022271Y037508D01*
X022329Y037466D01*
X022393Y037433D01*
X022461Y037411D01*
X022533Y037400D01*
X022560Y037400D01*
X022560Y037849D01*
X022577Y037849D01*
X022577Y037400D01*
X022604Y037400D01*
X022676Y037411D01*
X022744Y037433D01*
X022808Y037466D01*
X022866Y037508D01*
X022917Y037559D01*
X022960Y037618D01*
X022992Y037682D01*
X022993Y037685D01*
X023062Y037519D01*
X023230Y037351D01*
X023450Y037260D01*
X023687Y037260D01*
X023907Y037351D01*
X024069Y037513D01*
X024230Y037351D01*
X024450Y037260D01*
X024687Y037260D01*
X024907Y037351D01*
X025069Y037513D01*
X025230Y037351D01*
X025450Y037260D01*
X025687Y037260D01*
X025907Y037351D01*
X026069Y037513D01*
X026230Y037351D01*
X026450Y037260D01*
X026687Y037260D01*
X026907Y037351D01*
X027069Y037513D01*
X027230Y037351D01*
X027450Y037260D01*
X027687Y037260D01*
X027907Y037351D01*
X028075Y037519D01*
X028144Y037685D01*
X028145Y037682D01*
X028178Y037618D01*
X028220Y037559D01*
X028271Y037508D01*
X028329Y037466D01*
X028393Y037433D01*
X028461Y037411D01*
X028533Y037400D01*
X028560Y037400D01*
X028560Y037849D01*
X028577Y037849D01*
X028577Y037400D01*
X028604Y037400D01*
X028676Y037411D01*
X028744Y037433D01*
X028756Y037440D01*
X028756Y037303D02*
X027791Y037303D01*
X028017Y037461D02*
X028338Y037461D01*
X028560Y037461D02*
X028577Y037461D01*
X028560Y037620D02*
X028577Y037620D01*
X028560Y037778D02*
X028577Y037778D01*
X028176Y037620D02*
X028117Y037620D01*
X027346Y037303D02*
X026791Y037303D01*
X027017Y037461D02*
X027120Y037461D01*
X026346Y037303D02*
X025791Y037303D01*
X026017Y037461D02*
X026120Y037461D01*
X025346Y037303D02*
X024791Y037303D01*
X025017Y037461D02*
X025120Y037461D01*
X024346Y037303D02*
X023791Y037303D01*
X024017Y037461D02*
X024120Y037461D01*
X023346Y037303D02*
X021791Y037303D01*
X022017Y037461D02*
X022338Y037461D01*
X022560Y037461D02*
X022577Y037461D01*
X022560Y037620D02*
X022577Y037620D01*
X022560Y037778D02*
X022577Y037778D01*
X022799Y037461D02*
X023120Y037461D01*
X023020Y037620D02*
X022961Y037620D01*
X022176Y037620D02*
X022117Y037620D01*
X021365Y037144D02*
X028756Y037144D01*
X028756Y036986D02*
X021365Y036986D01*
X021365Y036827D02*
X028756Y036827D01*
X028756Y036669D02*
X021365Y036669D01*
X021365Y036510D02*
X021895Y036510D01*
X022013Y036559D02*
X021766Y036457D01*
X021577Y036268D01*
X021475Y036021D01*
X021475Y035048D01*
X021577Y034801D01*
X021766Y034612D01*
X022013Y034509D01*
X022281Y034509D01*
X022528Y034612D01*
X022717Y034801D01*
X022820Y035048D01*
X022820Y036021D01*
X022717Y036268D01*
X022528Y036457D01*
X022281Y036559D01*
X022013Y036559D01*
X022399Y036510D02*
X023864Y036510D01*
X023982Y036559D02*
X023735Y036457D01*
X023546Y036268D01*
X023443Y036021D01*
X023443Y035048D01*
X023546Y034801D01*
X023735Y034612D01*
X023982Y034509D01*
X024250Y034509D01*
X024497Y034612D01*
X024686Y034801D01*
X024788Y035048D01*
X024788Y036021D01*
X024686Y036268D01*
X024497Y036457D01*
X024250Y036559D01*
X023982Y036559D01*
X024368Y036510D02*
X025832Y036510D01*
X025598Y036352D02*
X024602Y036352D01*
X024717Y036193D02*
X025483Y036193D01*
X025418Y036035D02*
X024782Y036035D01*
X024788Y035876D02*
X025412Y035876D01*
X025403Y035718D02*
X024788Y035718D01*
X024788Y035559D02*
X025384Y035559D01*
X025384Y035401D02*
X024788Y035401D01*
X024788Y035242D02*
X025384Y035242D01*
X025384Y035084D02*
X024788Y035084D01*
X024737Y034925D02*
X025384Y034925D01*
X025384Y034767D02*
X024652Y034767D01*
X024489Y034608D02*
X025384Y034608D01*
X025384Y034450D02*
X021365Y034450D01*
X021365Y034608D02*
X021774Y034608D01*
X021611Y034767D02*
X021365Y034767D01*
X021365Y034925D02*
X021526Y034925D01*
X021475Y035084D02*
X021365Y035084D01*
X021365Y035242D02*
X021475Y035242D01*
X021475Y035401D02*
X021365Y035401D01*
X021365Y035559D02*
X021475Y035559D01*
X021475Y035718D02*
X021365Y035718D01*
X021365Y035876D02*
X021475Y035876D01*
X021481Y036035D02*
X021365Y036035D01*
X021365Y036193D02*
X021546Y036193D01*
X021661Y036352D02*
X021365Y036352D01*
X022633Y036352D02*
X023630Y036352D01*
X023515Y036193D02*
X022748Y036193D01*
X022814Y036035D02*
X023449Y036035D01*
X023443Y035876D02*
X022820Y035876D01*
X022820Y035718D02*
X023443Y035718D01*
X023443Y035559D02*
X022820Y035559D01*
X022820Y035401D02*
X023443Y035401D01*
X023443Y035242D02*
X022820Y035242D01*
X022820Y035084D02*
X023443Y035084D01*
X023494Y034925D02*
X022769Y034925D01*
X022683Y034767D02*
X023580Y034767D01*
X023743Y034608D02*
X022520Y034608D01*
X021365Y034291D02*
X025422Y034291D01*
X025488Y034133D02*
X021365Y034133D01*
X021365Y033974D02*
X025642Y033974D01*
X025801Y033816D02*
X021365Y033816D01*
X021365Y033657D02*
X025959Y033657D01*
X026170Y033499D02*
X021365Y033499D01*
X021930Y033340D02*
X022207Y033340D01*
X022930Y033340D02*
X023207Y033340D01*
X023930Y033340D02*
X024207Y033340D01*
X024930Y033340D02*
X025207Y033340D01*
X025930Y033340D02*
X026207Y033340D01*
X028420Y034767D02*
X028756Y034767D01*
X028756Y034925D02*
X028520Y034925D01*
X028576Y035084D02*
X028756Y035084D01*
X028756Y035242D02*
X028585Y035242D01*
X028585Y035401D02*
X028756Y035401D01*
X028756Y035559D02*
X028090Y035559D01*
X028090Y035572D02*
X028585Y035572D01*
X028585Y035929D01*
X028572Y036011D01*
X028546Y036091D01*
X028508Y036166D01*
X028459Y036234D01*
X028400Y036293D01*
X028332Y036342D01*
X028257Y036380D01*
X028177Y036406D01*
X028095Y036419D01*
X028090Y036419D01*
X028090Y035572D01*
X028015Y035572D02*
X028015Y036419D01*
X028011Y036419D01*
X027928Y036406D01*
X027848Y036380D01*
X027774Y036342D01*
X027706Y036293D01*
X027647Y036234D01*
X027597Y036166D01*
X027559Y036091D01*
X027533Y036011D01*
X027520Y035929D01*
X027520Y035572D01*
X028015Y035572D01*
X028015Y035559D02*
X026784Y035559D01*
X026784Y035401D02*
X027520Y035401D01*
X027520Y035242D02*
X026784Y035242D01*
X026784Y035084D02*
X027529Y035084D01*
X027586Y034925D02*
X026784Y034925D01*
X026766Y035718D02*
X027520Y035718D01*
X027520Y035876D02*
X026757Y035876D01*
X026751Y036035D02*
X027541Y036035D01*
X027617Y036193D02*
X026685Y036193D01*
X026570Y036352D02*
X027793Y036352D01*
X028015Y036352D02*
X028090Y036352D01*
X028090Y036193D02*
X028015Y036193D01*
X028015Y036035D02*
X028090Y036035D01*
X028090Y035876D02*
X028015Y035876D01*
X028015Y035718D02*
X028090Y035718D01*
X028585Y035718D02*
X028756Y035718D01*
X028756Y035876D02*
X028585Y035876D01*
X028565Y036035D02*
X028756Y036035D01*
X028756Y036193D02*
X028488Y036193D01*
X028313Y036352D02*
X028756Y036352D01*
X028756Y036510D02*
X026336Y036510D01*
X028642Y034608D02*
X028756Y034608D01*
X026124Y028735D02*
X026124Y028617D01*
X023565Y027318D02*
X023565Y026176D01*
X023683Y026097D01*
X023683Y025074D01*
X023210Y024601D01*
X023210Y022908D01*
X024037Y022908D02*
X024037Y025664D01*
X024549Y026137D01*
X023210Y025349D02*
X023210Y028026D01*
X022423Y028026D02*
X022423Y025743D01*
X021990Y025467D02*
X021990Y026924D01*
X021281Y026530D02*
X021281Y025231D01*
X021202Y025152D01*
X021202Y024759D01*
X021517Y024444D01*
X021517Y023617D01*
X021635Y023499D01*
X021675Y023499D01*
X021872Y023302D01*
X022423Y022908D02*
X022423Y025034D01*
X021990Y025467D01*
X021635Y024956D02*
X021635Y028026D01*
X020887Y028026D02*
X020887Y024562D01*
X016911Y033202D02*
X016749Y033363D01*
X016530Y033454D01*
X016292Y033454D01*
X016073Y033363D01*
X015911Y033202D01*
X015749Y033363D01*
X015530Y033454D01*
X015292Y033454D01*
X015073Y033363D01*
X014911Y033202D01*
X014749Y033363D01*
X014530Y033454D01*
X014292Y033454D01*
X014073Y033363D01*
X013911Y033202D01*
X013749Y033363D01*
X013530Y033454D01*
X013292Y033454D01*
X013073Y033363D01*
X012911Y033202D01*
X012749Y033363D01*
X012530Y033454D01*
X012292Y033454D01*
X012073Y033363D01*
X011911Y033202D01*
X011749Y033363D01*
X011530Y033454D01*
X011292Y033454D01*
X011208Y033419D01*
X011208Y037295D01*
X011292Y037260D01*
X011530Y037260D01*
X011749Y037351D01*
X011917Y037519D01*
X011986Y037685D01*
X011987Y037682D01*
X012020Y037618D01*
X012062Y037559D01*
X012113Y037508D01*
X012171Y037466D01*
X012236Y037433D01*
X012304Y037411D01*
X012375Y037400D01*
X012402Y037400D01*
X012402Y037849D01*
X012420Y037849D01*
X012420Y037400D01*
X012447Y037400D01*
X012518Y037411D01*
X012587Y037433D01*
X012651Y037466D01*
X012709Y037508D01*
X012760Y037559D01*
X012802Y037618D01*
X012835Y037682D01*
X012836Y037685D01*
X012905Y037519D01*
X013073Y037351D01*
X013292Y037260D01*
X013530Y037260D01*
X013749Y037351D01*
X013911Y037513D01*
X014073Y037351D01*
X014292Y037260D01*
X014530Y037260D01*
X014749Y037351D01*
X014911Y037513D01*
X015073Y037351D01*
X015292Y037260D01*
X015530Y037260D01*
X015749Y037351D01*
X015911Y037513D01*
X016073Y037351D01*
X016292Y037260D01*
X016530Y037260D01*
X016749Y037351D01*
X016911Y037513D01*
X017073Y037351D01*
X017292Y037260D01*
X017530Y037260D01*
X017749Y037351D01*
X017917Y037519D01*
X017986Y037685D01*
X017987Y037682D01*
X018020Y037618D01*
X018062Y037559D01*
X018113Y037508D01*
X018171Y037466D01*
X018236Y037433D01*
X018304Y037411D01*
X018375Y037400D01*
X018402Y037400D01*
X018402Y037849D01*
X018420Y037849D01*
X018420Y037400D01*
X018447Y037400D01*
X018518Y037411D01*
X018587Y037433D01*
X018599Y037440D01*
X018599Y034337D01*
X018252Y034683D01*
X018098Y034747D01*
X018135Y034766D01*
X018203Y034815D01*
X018262Y034874D01*
X018311Y034942D01*
X018349Y035017D01*
X018375Y035096D01*
X018388Y035179D01*
X018388Y035536D01*
X017893Y035536D01*
X017893Y035611D01*
X017818Y035611D01*
X017818Y035536D01*
X017323Y035536D01*
X017323Y035179D01*
X017337Y035096D01*
X017362Y035017D01*
X017400Y034942D01*
X017450Y034874D01*
X017509Y034815D01*
X017544Y034789D01*
X017516Y034789D01*
X016584Y035722D01*
X016560Y035779D01*
X016560Y036060D01*
X016458Y036307D01*
X016268Y036496D01*
X016021Y036599D01*
X015754Y036599D01*
X015506Y036496D01*
X015317Y036307D01*
X015215Y036060D01*
X015215Y035779D01*
X015187Y035713D01*
X015187Y035289D01*
X015215Y035222D01*
X015215Y035087D01*
X015317Y034840D01*
X015506Y034651D01*
X015754Y034549D01*
X015777Y034549D01*
X016633Y033693D01*
X016829Y033496D01*
X017087Y033389D01*
X017136Y033389D01*
X017073Y033363D01*
X016911Y033202D01*
X016772Y033340D02*
X017050Y033340D01*
X016827Y033499D02*
X011208Y033499D01*
X011208Y033657D02*
X016668Y033657D01*
X016510Y033816D02*
X011208Y033816D01*
X011208Y033974D02*
X016351Y033974D01*
X016193Y034133D02*
X011208Y034133D01*
X011208Y034291D02*
X016034Y034291D01*
X015876Y034450D02*
X011208Y034450D01*
X011208Y034608D02*
X011673Y034608D01*
X011569Y034651D02*
X011817Y034549D01*
X012084Y034549D01*
X012331Y034651D01*
X012521Y034840D01*
X012623Y035087D01*
X012623Y036060D01*
X012521Y036307D01*
X012331Y036496D01*
X012084Y036599D01*
X011817Y036599D01*
X011569Y036496D01*
X011380Y036307D01*
X011278Y036060D01*
X011278Y035087D01*
X011380Y034840D01*
X011569Y034651D01*
X011454Y034767D02*
X011208Y034767D01*
X011208Y034925D02*
X011345Y034925D01*
X011279Y035084D02*
X011208Y035084D01*
X011208Y035242D02*
X011278Y035242D01*
X011278Y035401D02*
X011208Y035401D01*
X011208Y035559D02*
X011278Y035559D01*
X011278Y035718D02*
X011208Y035718D01*
X011208Y035876D02*
X011278Y035876D01*
X011278Y036035D02*
X011208Y036035D01*
X011208Y036193D02*
X011333Y036193D01*
X011425Y036352D02*
X011208Y036352D01*
X011208Y036510D02*
X011603Y036510D01*
X011208Y036669D02*
X018599Y036669D01*
X018599Y036827D02*
X011208Y036827D01*
X011208Y036986D02*
X018599Y036986D01*
X018599Y037144D02*
X011208Y037144D01*
X011633Y037303D02*
X013189Y037303D01*
X012962Y037461D02*
X012641Y037461D01*
X012420Y037461D02*
X012402Y037461D01*
X012402Y037620D02*
X012420Y037620D01*
X012420Y037778D02*
X012402Y037778D01*
X012181Y037461D02*
X011860Y037461D01*
X011959Y037620D02*
X012019Y037620D01*
X012803Y037620D02*
X012863Y037620D01*
X013633Y037303D02*
X014189Y037303D01*
X013962Y037461D02*
X013860Y037461D01*
X014633Y037303D02*
X015189Y037303D01*
X014962Y037461D02*
X014860Y037461D01*
X015633Y037303D02*
X016189Y037303D01*
X015962Y037461D02*
X015860Y037461D01*
X016633Y037303D02*
X017189Y037303D01*
X016962Y037461D02*
X016860Y037461D01*
X017633Y037303D02*
X018599Y037303D01*
X018420Y037461D02*
X018402Y037461D01*
X018402Y037620D02*
X018420Y037620D01*
X018420Y037778D02*
X018402Y037778D01*
X018181Y037461D02*
X017860Y037461D01*
X017959Y037620D02*
X018019Y037620D01*
X018599Y036510D02*
X016234Y036510D01*
X016413Y036352D02*
X017536Y036352D01*
X017509Y036332D02*
X017450Y036273D01*
X017400Y036205D01*
X017362Y036131D01*
X017337Y036051D01*
X017323Y035968D01*
X017323Y035611D01*
X017818Y035611D01*
X017818Y036459D01*
X017814Y036459D01*
X017731Y036446D01*
X017651Y036420D01*
X017577Y036382D01*
X017509Y036332D01*
X017394Y036193D02*
X016505Y036193D01*
X016560Y036035D02*
X017334Y036035D01*
X017323Y035876D02*
X016560Y035876D01*
X016587Y035718D02*
X017323Y035718D01*
X017323Y035401D02*
X016904Y035401D01*
X016746Y035559D02*
X017818Y035559D01*
X017893Y035559D02*
X018599Y035559D01*
X018599Y035401D02*
X018388Y035401D01*
X018388Y035242D02*
X018599Y035242D01*
X018599Y035084D02*
X018371Y035084D01*
X018299Y034925D02*
X018599Y034925D01*
X018599Y034767D02*
X018137Y034767D01*
X018327Y034608D02*
X018599Y034608D01*
X018599Y034450D02*
X018485Y034450D01*
X017413Y034925D02*
X017380Y034925D01*
X017341Y035084D02*
X017221Y035084D01*
X017323Y035242D02*
X017063Y035242D01*
X017818Y035718D02*
X017893Y035718D01*
X017893Y035611D02*
X017893Y036459D01*
X017898Y036459D01*
X017981Y036446D01*
X018060Y036420D01*
X018135Y036382D01*
X018203Y036332D01*
X018262Y036273D01*
X018311Y036205D01*
X018349Y036131D01*
X018375Y036051D01*
X018388Y035968D01*
X018388Y035611D01*
X017893Y035611D01*
X017893Y035876D02*
X017818Y035876D01*
X017818Y036035D02*
X017893Y036035D01*
X017893Y036193D02*
X017818Y036193D01*
X017818Y036352D02*
X017893Y036352D01*
X018176Y036352D02*
X018599Y036352D01*
X018599Y036193D02*
X018317Y036193D01*
X018378Y036035D02*
X018599Y036035D01*
X018599Y035876D02*
X018388Y035876D01*
X018388Y035718D02*
X018599Y035718D01*
X015540Y036510D02*
X014266Y036510D01*
X014300Y036496D02*
X014053Y036599D01*
X013785Y036599D01*
X013538Y036496D01*
X013349Y036307D01*
X013246Y036060D01*
X013246Y035087D01*
X013349Y034840D01*
X013538Y034651D01*
X013785Y034549D01*
X014053Y034549D01*
X014300Y034651D01*
X014489Y034840D01*
X014591Y035087D01*
X014591Y036060D01*
X014489Y036307D01*
X014300Y036496D01*
X014444Y036352D02*
X015362Y036352D01*
X015270Y036193D02*
X014536Y036193D01*
X014591Y036035D02*
X015215Y036035D01*
X015215Y035876D02*
X014591Y035876D01*
X014591Y035718D02*
X015189Y035718D01*
X015187Y035559D02*
X014591Y035559D01*
X014591Y035401D02*
X015187Y035401D01*
X015207Y035242D02*
X014591Y035242D01*
X014590Y035084D02*
X015216Y035084D01*
X015282Y034925D02*
X014524Y034925D01*
X014416Y034767D02*
X015391Y034767D01*
X015610Y034608D02*
X014197Y034608D01*
X013641Y034608D02*
X012228Y034608D01*
X012447Y034767D02*
X013422Y034767D01*
X013314Y034925D02*
X012556Y034925D01*
X012621Y035084D02*
X013248Y035084D01*
X013246Y035242D02*
X012623Y035242D01*
X012623Y035401D02*
X013246Y035401D01*
X013246Y035559D02*
X012623Y035559D01*
X012623Y035718D02*
X013246Y035718D01*
X013246Y035876D02*
X012623Y035876D01*
X012623Y036035D02*
X013246Y036035D01*
X013302Y036193D02*
X012568Y036193D01*
X012476Y036352D02*
X013394Y036352D01*
X013572Y036510D02*
X012297Y036510D01*
X012050Y033340D02*
X011772Y033340D01*
X012772Y033340D02*
X013050Y033340D01*
X013772Y033340D02*
X014050Y033340D01*
X014772Y033340D02*
X015050Y033340D01*
X015772Y033340D02*
X016050Y033340D01*
X047205Y033340D02*
X047483Y033340D01*
D26*
X047962Y030257D02*
X045879Y030257D01*
X045879Y030257D01*
X044282Y030257D01*
X044282Y030257D01*
X035682Y030257D01*
X035682Y030257D01*
X034282Y030257D01*
X034282Y030257D01*
X025699Y030257D01*
X025659Y030218D01*
X023635Y030218D01*
X023596Y030257D01*
X018163Y030257D01*
X018162Y030257D01*
X016723Y030257D01*
X016722Y030257D01*
X013104Y030257D01*
X013331Y030142D01*
X013331Y030142D01*
X013672Y029800D01*
X013672Y029800D01*
X013672Y029800D01*
X013892Y029370D01*
X013892Y029370D01*
X013967Y028893D01*
X013892Y028415D01*
X013892Y028415D01*
X013672Y027985D01*
X013672Y027985D01*
X013331Y027643D01*
X013331Y027643D01*
X012900Y027424D01*
X012900Y027424D01*
X012423Y027348D01*
X012423Y027348D01*
X011946Y027424D01*
X011946Y027424D01*
X011515Y027643D01*
X011515Y027643D01*
X011174Y027985D01*
X011174Y027985D01*
X011058Y028211D01*
X011058Y005165D01*
X011174Y005391D01*
X011174Y005391D01*
X011515Y005732D01*
X011515Y005732D01*
X011946Y005952D01*
X011946Y005952D01*
X012423Y006027D01*
X012423Y006027D01*
X012900Y005952D01*
X012900Y005952D01*
X013331Y005732D01*
X013672Y005391D01*
X013672Y005391D01*
X013892Y004960D01*
X013967Y004483D01*
X013892Y004006D01*
X013892Y004006D01*
X013672Y003575D01*
X013672Y003575D01*
X013331Y003234D01*
X013331Y003234D01*
X013104Y003119D01*
X047962Y003119D01*
X047736Y003234D01*
X047736Y003234D01*
X047394Y003575D01*
X047394Y003575D01*
X047175Y004006D01*
X047175Y004006D01*
X047099Y004483D01*
X047099Y004483D01*
X047175Y004960D01*
X047175Y004960D01*
X047394Y005391D01*
X047394Y005391D01*
X047736Y005732D01*
X047736Y005732D01*
X048166Y005952D01*
X048166Y005952D01*
X048643Y006027D01*
X048643Y006027D01*
X049121Y005952D01*
X049121Y005952D01*
X049551Y005732D01*
X049551Y005732D01*
X049893Y005391D01*
X049893Y005391D01*
X050008Y005165D01*
X050008Y022270D01*
X049919Y022359D01*
X049919Y020771D01*
X049796Y020648D01*
X047963Y020648D01*
X047840Y020771D01*
X047840Y022605D01*
X047963Y022728D01*
X049550Y022728D01*
X049535Y022743D01*
X049535Y027562D01*
X049659Y027685D01*
X050008Y028035D01*
X050008Y028211D01*
X049893Y027985D01*
X049893Y027985D01*
X049551Y027643D01*
X049551Y027643D01*
X049121Y027424D01*
X049121Y027424D01*
X048643Y027348D01*
X048643Y027348D01*
X048166Y027424D01*
X048166Y027424D01*
X047736Y027643D01*
X047736Y027643D01*
X047394Y027985D01*
X047394Y027985D01*
X047175Y028415D01*
X047175Y028415D01*
X047099Y028893D01*
X047099Y028893D01*
X047175Y029370D01*
X047175Y029370D01*
X047394Y029800D01*
X047394Y029800D01*
X047736Y030142D01*
X047962Y030257D01*
X047836Y030193D02*
X013230Y030193D01*
X013378Y030094D02*
X047688Y030094D01*
X047736Y030142D02*
X047736Y030142D01*
X047590Y029996D02*
X013477Y029996D01*
X013575Y029897D02*
X047491Y029897D01*
X047393Y029799D02*
X013673Y029799D01*
X013723Y029700D02*
X047343Y029700D01*
X047293Y029602D02*
X013773Y029602D01*
X013823Y029503D02*
X015493Y029503D01*
X015441Y029452D02*
X015564Y029575D01*
X018730Y029575D01*
X018853Y029452D01*
X018853Y021601D01*
X018730Y021478D01*
X015564Y021478D01*
X015441Y021601D01*
X015441Y029452D01*
X015441Y029405D02*
X013874Y029405D01*
X013902Y029306D02*
X015441Y029306D01*
X015441Y029208D02*
X013917Y029208D01*
X013933Y029109D02*
X015441Y029109D01*
X015441Y029011D02*
X013948Y029011D01*
X013964Y028912D02*
X015441Y028912D01*
X015441Y028814D02*
X013955Y028814D01*
X013939Y028715D02*
X015441Y028715D01*
X015441Y028617D02*
X013923Y028617D01*
X013908Y028518D02*
X015441Y028518D01*
X015441Y028420D02*
X013892Y028420D01*
X013844Y028321D02*
X015441Y028321D01*
X015441Y028223D02*
X013793Y028223D01*
X013743Y028124D02*
X015441Y028124D01*
X015441Y028026D02*
X013693Y028026D01*
X013615Y027927D02*
X015441Y027927D01*
X015441Y027829D02*
X013516Y027829D01*
X013418Y027730D02*
X015441Y027730D01*
X015441Y027632D02*
X013308Y027632D01*
X013115Y027533D02*
X015441Y027533D01*
X015441Y027435D02*
X012922Y027435D01*
X011924Y027435D02*
X011058Y027435D01*
X011058Y027533D02*
X011731Y027533D01*
X011537Y027632D02*
X011058Y027632D01*
X011058Y027730D02*
X011428Y027730D01*
X011330Y027829D02*
X011058Y027829D01*
X011058Y027927D02*
X011231Y027927D01*
X011153Y028026D02*
X011058Y028026D01*
X011058Y028124D02*
X011102Y028124D01*
X011058Y027336D02*
X015441Y027336D01*
X015441Y027238D02*
X011058Y027238D01*
X011058Y027139D02*
X015441Y027139D01*
X015441Y027041D02*
X011058Y027041D01*
X011058Y026942D02*
X015441Y026942D01*
X015441Y026844D02*
X011058Y026844D01*
X011058Y026745D02*
X015441Y026745D01*
X015441Y026647D02*
X011058Y026647D01*
X011058Y026548D02*
X015441Y026548D01*
X015441Y026450D02*
X011058Y026450D01*
X011058Y026351D02*
X015441Y026351D01*
X015441Y026253D02*
X011058Y026253D01*
X011058Y026154D02*
X015441Y026154D01*
X015441Y026056D02*
X011058Y026056D01*
X011058Y025957D02*
X015441Y025957D01*
X015441Y025859D02*
X011058Y025859D01*
X011058Y025760D02*
X015441Y025760D01*
X015441Y025662D02*
X011058Y025662D01*
X011058Y025563D02*
X015441Y025563D01*
X015441Y025465D02*
X011058Y025465D01*
X011058Y025366D02*
X015441Y025366D01*
X015441Y025268D02*
X011058Y025268D01*
X011058Y025169D02*
X015441Y025169D01*
X015441Y025071D02*
X011058Y025071D01*
X011058Y024972D02*
X015441Y024972D01*
X015441Y024874D02*
X011058Y024874D01*
X011058Y024775D02*
X015441Y024775D01*
X015441Y024677D02*
X011058Y024677D01*
X011058Y024578D02*
X015441Y024578D01*
X015441Y024480D02*
X011058Y024480D01*
X011058Y024381D02*
X015441Y024381D01*
X015441Y024283D02*
X011058Y024283D01*
X011058Y024184D02*
X015441Y024184D01*
X015441Y024086D02*
X011058Y024086D01*
X011058Y023987D02*
X015441Y023987D01*
X015441Y023889D02*
X011058Y023889D01*
X011058Y023790D02*
X015441Y023790D01*
X015441Y023692D02*
X011058Y023692D01*
X011058Y023593D02*
X015441Y023593D01*
X015441Y023495D02*
X011058Y023495D01*
X011058Y023396D02*
X015441Y023396D01*
X015441Y023298D02*
X011058Y023298D01*
X011058Y023199D02*
X015441Y023199D01*
X015441Y023101D02*
X011058Y023101D01*
X011058Y023002D02*
X015441Y023002D01*
X015441Y022904D02*
X011058Y022904D01*
X011058Y022805D02*
X015441Y022805D01*
X015441Y022707D02*
X011058Y022707D01*
X011058Y022608D02*
X015441Y022608D01*
X015441Y022510D02*
X011058Y022510D01*
X011058Y022411D02*
X015441Y022411D01*
X015441Y022313D02*
X011058Y022313D01*
X011058Y022214D02*
X015441Y022214D01*
X015441Y022116D02*
X011058Y022116D01*
X011058Y022017D02*
X015441Y022017D01*
X015441Y021919D02*
X011058Y021919D01*
X011058Y021820D02*
X015441Y021820D01*
X015441Y021722D02*
X011058Y021722D01*
X011058Y021623D02*
X015441Y021623D01*
X015517Y021525D02*
X011058Y021525D01*
X011058Y021426D02*
X019700Y021426D01*
X019747Y021446D02*
X019605Y021387D01*
X019495Y021278D01*
X019459Y021191D01*
X016380Y021191D01*
X016240Y021249D01*
X016086Y021249D01*
X015943Y021190D01*
X015834Y021081D01*
X015775Y020938D01*
X015775Y020784D01*
X015834Y020641D01*
X015943Y020532D01*
X016086Y020473D01*
X016240Y020473D01*
X016380Y020531D01*
X019693Y020531D01*
X019814Y020581D01*
X019904Y020671D01*
X020044Y020729D01*
X020153Y020838D01*
X020213Y020981D01*
X020213Y021135D01*
X020153Y021278D01*
X020044Y021387D01*
X019902Y021446D01*
X019747Y021446D01*
X019949Y021426D02*
X037518Y021426D01*
X037557Y021466D02*
X037448Y021357D01*
X037389Y021214D01*
X037389Y021059D01*
X037448Y020917D01*
X037557Y020808D01*
X037700Y020749D01*
X037854Y020749D01*
X037995Y020807D01*
X038113Y020807D01*
X040124Y018795D01*
X040124Y018520D01*
X040066Y018379D01*
X040066Y018225D01*
X040125Y018082D01*
X040234Y017973D01*
X040377Y017914D01*
X040532Y017914D01*
X040674Y017973D01*
X040783Y018082D01*
X040842Y018225D01*
X040842Y018379D01*
X040784Y018520D01*
X040784Y018998D01*
X040734Y019119D01*
X040641Y019212D01*
X038437Y021416D01*
X038315Y021467D01*
X037995Y021467D01*
X037854Y021525D01*
X037700Y021525D01*
X037557Y021466D01*
X037436Y021328D02*
X020103Y021328D01*
X020173Y021229D02*
X037395Y021229D01*
X037389Y021131D02*
X020213Y021131D01*
X020213Y021032D02*
X037400Y021032D01*
X037441Y020934D02*
X020193Y020934D01*
X020151Y020835D02*
X037530Y020835D01*
X038183Y020737D02*
X020052Y020737D01*
X019872Y020638D02*
X038281Y020638D01*
X038380Y020540D02*
X019714Y020540D01*
X019475Y021229D02*
X016288Y021229D01*
X016038Y021229D02*
X011058Y021229D01*
X011058Y021131D02*
X015884Y021131D01*
X015814Y021032D02*
X011058Y021032D01*
X011058Y020934D02*
X015775Y020934D01*
X015775Y020835D02*
X011058Y020835D01*
X011058Y020737D02*
X015794Y020737D01*
X015837Y020638D02*
X011058Y020638D01*
X011058Y020540D02*
X015935Y020540D01*
X016206Y019684D02*
X016043Y019521D01*
X015955Y019307D01*
X015955Y019077D01*
X016043Y018863D01*
X016206Y018700D01*
X016419Y018612D01*
X016650Y018612D01*
X016863Y018700D01*
X016945Y018782D01*
X018684Y018782D01*
X018766Y018700D01*
X018979Y018612D01*
X019210Y018612D01*
X019423Y018700D01*
X019586Y018863D01*
X019675Y019077D01*
X019675Y019307D01*
X019586Y019521D01*
X019423Y019684D01*
X019210Y019772D01*
X018979Y019772D01*
X018766Y019684D01*
X018684Y019602D01*
X016945Y019602D01*
X016863Y019684D01*
X016650Y019772D01*
X016419Y019772D01*
X016206Y019684D01*
X016176Y019653D02*
X011058Y019653D01*
X011058Y019555D02*
X016077Y019555D01*
X016016Y019456D02*
X011058Y019456D01*
X011058Y019358D02*
X015975Y019358D01*
X015955Y019259D02*
X011058Y019259D01*
X011058Y019161D02*
X015955Y019161D01*
X015960Y019062D02*
X011058Y019062D01*
X011058Y018964D02*
X016001Y018964D01*
X016042Y018865D02*
X011058Y018865D01*
X011058Y018767D02*
X016139Y018767D01*
X016283Y018668D02*
X011058Y018668D01*
X011058Y018570D02*
X040124Y018570D01*
X040124Y018668D02*
X037296Y018668D01*
X037373Y018700D02*
X037536Y018863D01*
X037624Y019077D01*
X037624Y019307D01*
X037536Y019521D01*
X037373Y019684D01*
X037160Y019772D01*
X036929Y019772D01*
X036716Y019684D01*
X036634Y019602D01*
X034895Y019602D01*
X034813Y019684D01*
X034600Y019772D01*
X034369Y019772D01*
X034156Y019684D01*
X033993Y019521D01*
X033904Y019307D01*
X033904Y019077D01*
X033993Y018863D01*
X034156Y018700D01*
X034369Y018612D01*
X034600Y018612D01*
X034813Y018700D01*
X034895Y018782D01*
X036634Y018782D01*
X036716Y018700D01*
X036929Y018612D01*
X037160Y018612D01*
X037373Y018700D01*
X037439Y018767D02*
X040124Y018767D01*
X040054Y018865D02*
X037537Y018865D01*
X037578Y018964D02*
X039956Y018964D01*
X039857Y019062D02*
X037618Y019062D01*
X037624Y019161D02*
X039759Y019161D01*
X039660Y019259D02*
X037624Y019259D01*
X037603Y019358D02*
X039562Y019358D01*
X039463Y019456D02*
X037563Y019456D01*
X037502Y019555D02*
X039365Y019555D01*
X039266Y019653D02*
X037403Y019653D01*
X037208Y019752D02*
X039168Y019752D01*
X039069Y019850D02*
X011058Y019850D01*
X011058Y019752D02*
X016371Y019752D01*
X016699Y019752D02*
X018931Y019752D01*
X018736Y019653D02*
X016893Y019653D01*
X016930Y018767D02*
X018699Y018767D01*
X018843Y018668D02*
X016786Y018668D01*
X016846Y017062D02*
X016373Y016935D01*
X015949Y016690D01*
X015603Y016344D01*
X015358Y015920D01*
X015231Y015447D01*
X015231Y014957D01*
X015358Y014484D01*
X015603Y014060D01*
X015949Y013714D01*
X016021Y013672D01*
X015923Y013672D01*
X015571Y014023D01*
X015467Y014127D01*
X015331Y014184D01*
X014709Y014184D01*
X014665Y014202D01*
X014511Y014202D01*
X014368Y014143D01*
X014259Y014034D01*
X014200Y013891D01*
X014200Y013737D01*
X014227Y013672D01*
X014197Y013672D01*
X014154Y013690D01*
X013999Y013690D01*
X013857Y013631D01*
X013747Y013522D01*
X013688Y013379D01*
X013688Y013225D01*
X013715Y013160D01*
X013685Y013160D01*
X013642Y013178D01*
X013487Y013178D01*
X013345Y013119D01*
X013236Y013010D01*
X013176Y012867D01*
X013176Y012713D01*
X013203Y012648D01*
X013134Y012648D01*
X013091Y012666D01*
X012936Y012666D01*
X012794Y012607D01*
X012684Y012498D01*
X012625Y012356D01*
X012625Y012201D01*
X012684Y012059D01*
X012794Y011949D01*
X012936Y011890D01*
X013091Y011890D01*
X013134Y011908D01*
X014108Y011908D01*
X014126Y011890D01*
X014656Y011890D01*
X014779Y012013D01*
X014779Y012273D01*
X015048Y012004D01*
X015184Y011948D01*
X020014Y011948D01*
X020032Y011930D01*
X020562Y011930D01*
X020685Y012053D01*
X020685Y012273D01*
X020875Y012083D01*
X021011Y012027D01*
X025919Y012027D01*
X025937Y012008D01*
X026467Y012008D01*
X026590Y012131D01*
X026590Y012351D01*
X026898Y012043D01*
X027034Y011987D01*
X031982Y011987D01*
X032000Y011969D01*
X032530Y011969D01*
X032653Y012092D01*
X032653Y012622D01*
X032530Y012745D01*
X032000Y012745D01*
X031982Y012727D01*
X027261Y012727D01*
X026870Y013118D01*
X026766Y013222D01*
X026630Y013278D01*
X021474Y013278D01*
X021240Y013512D01*
X021136Y013616D01*
X021000Y013672D01*
X018161Y013672D01*
X018233Y013714D01*
X018580Y014060D01*
X018824Y014484D01*
X018951Y014957D01*
X018951Y015447D01*
X018824Y015920D01*
X018580Y016344D01*
X018233Y016690D01*
X017809Y016935D01*
X017336Y017062D01*
X016846Y017062D01*
X016592Y016994D02*
X011058Y016994D01*
X011058Y017092D02*
X050008Y017092D01*
X050008Y016994D02*
X035468Y016994D01*
X035687Y016935D02*
X035213Y017062D01*
X034724Y017062D01*
X034251Y016935D01*
X033827Y016690D01*
X033480Y016344D01*
X033235Y015920D01*
X033109Y015447D01*
X033109Y014957D01*
X033235Y014484D01*
X033480Y014060D01*
X033827Y013714D01*
X034251Y013469D01*
X034724Y013342D01*
X035213Y013342D01*
X035687Y013469D01*
X036111Y013714D01*
X036457Y014060D01*
X036702Y014484D01*
X036829Y014957D01*
X036829Y015447D01*
X036702Y015920D01*
X036457Y016344D01*
X036111Y016690D01*
X035687Y016935D01*
X035756Y016895D02*
X050008Y016895D01*
X050008Y016797D02*
X035926Y016797D01*
X036097Y016698D02*
X050008Y016698D01*
X050008Y016600D02*
X036201Y016600D01*
X036300Y016501D02*
X050008Y016501D01*
X050008Y016403D02*
X036398Y016403D01*
X036480Y016304D02*
X050008Y016304D01*
X050008Y016206D02*
X036537Y016206D01*
X036594Y016107D02*
X050008Y016107D01*
X050008Y016009D02*
X036651Y016009D01*
X036704Y015910D02*
X050008Y015910D01*
X050008Y015812D02*
X036731Y015812D01*
X036757Y015713D02*
X050008Y015713D01*
X050008Y015615D02*
X036784Y015615D01*
X036810Y015516D02*
X050008Y015516D01*
X050008Y015418D02*
X036829Y015418D01*
X036829Y015319D02*
X050008Y015319D01*
X050008Y015221D02*
X036829Y015221D01*
X036829Y015122D02*
X050008Y015122D01*
X050008Y015024D02*
X036829Y015024D01*
X036820Y014925D02*
X050008Y014925D01*
X050008Y014827D02*
X036794Y014827D01*
X036767Y014728D02*
X050008Y014728D01*
X050008Y014630D02*
X036741Y014630D01*
X036715Y014531D02*
X050008Y014531D01*
X050008Y014433D02*
X036672Y014433D01*
X036615Y014334D02*
X050008Y014334D01*
X050008Y014236D02*
X036559Y014236D01*
X036502Y014137D02*
X050008Y014137D01*
X050008Y014039D02*
X036436Y014039D01*
X036337Y013940D02*
X050008Y013940D01*
X050008Y013842D02*
X036239Y013842D01*
X036140Y013743D02*
X050008Y013743D01*
X050008Y013645D02*
X035991Y013645D01*
X035821Y013546D02*
X050008Y013546D01*
X050008Y013448D02*
X035608Y013448D01*
X035241Y013349D02*
X050008Y013349D01*
X050008Y013251D02*
X026697Y013251D01*
X026836Y013152D02*
X050008Y013152D01*
X050008Y013054D02*
X026934Y013054D01*
X027033Y012955D02*
X050008Y012955D01*
X050008Y012857D02*
X027131Y012857D01*
X027230Y012758D02*
X050008Y012758D01*
X050008Y012660D02*
X032616Y012660D01*
X032653Y012561D02*
X050008Y012561D01*
X050008Y012463D02*
X032653Y012463D01*
X032653Y012364D02*
X050008Y012364D01*
X050008Y012266D02*
X032653Y012266D01*
X032653Y012167D02*
X050008Y012167D01*
X050008Y012069D02*
X045018Y012069D01*
X044971Y012115D02*
X044841Y012115D01*
X044788Y012137D01*
X044625Y012137D01*
X044572Y012115D01*
X044441Y012115D01*
X044318Y011992D01*
X044318Y011862D01*
X044296Y011809D01*
X044296Y011646D01*
X044318Y011593D01*
X044318Y011462D01*
X044441Y011339D01*
X044515Y011339D01*
X045202Y010652D01*
X045202Y007945D01*
X045224Y007892D01*
X045224Y007761D01*
X045347Y007638D01*
X045477Y007638D01*
X045530Y007616D01*
X045693Y007616D01*
X045746Y007638D01*
X045877Y007638D01*
X046000Y007761D01*
X046000Y007892D01*
X046022Y007945D01*
X046022Y010903D01*
X045959Y011054D01*
X045094Y011919D01*
X045094Y011992D01*
X044971Y012115D01*
X045094Y011970D02*
X050008Y011970D01*
X050008Y011872D02*
X045141Y011872D01*
X045240Y011773D02*
X050008Y011773D01*
X050008Y011675D02*
X045339Y011675D01*
X045437Y011576D02*
X050008Y011576D01*
X050008Y011478D02*
X045536Y011478D01*
X045634Y011379D02*
X050008Y011379D01*
X050008Y011281D02*
X045733Y011281D01*
X045831Y011182D02*
X050008Y011182D01*
X050008Y011084D02*
X045930Y011084D01*
X045988Y010985D02*
X050008Y010985D01*
X050008Y010887D02*
X046022Y010887D01*
X046022Y010788D02*
X050008Y010788D01*
X050008Y010690D02*
X046022Y010690D01*
X046022Y010591D02*
X050008Y010591D01*
X050008Y010493D02*
X046022Y010493D01*
X046022Y010394D02*
X050008Y010394D01*
X050008Y010296D02*
X046022Y010296D01*
X046022Y010197D02*
X050008Y010197D01*
X050008Y010099D02*
X046022Y010099D01*
X046022Y010000D02*
X050008Y010000D01*
X050008Y009902D02*
X046022Y009902D01*
X046022Y009803D02*
X050008Y009803D01*
X050008Y009705D02*
X046022Y009705D01*
X046022Y009606D02*
X050008Y009606D01*
X050008Y009508D02*
X046022Y009508D01*
X046022Y009409D02*
X050008Y009409D01*
X050008Y009311D02*
X046022Y009311D01*
X046022Y009212D02*
X050008Y009212D01*
X050008Y009114D02*
X046022Y009114D01*
X046022Y009015D02*
X050008Y009015D01*
X050008Y008917D02*
X046022Y008917D01*
X046022Y008818D02*
X050008Y008818D01*
X050008Y008720D02*
X046022Y008720D01*
X046022Y008621D02*
X050008Y008621D01*
X050008Y008523D02*
X046022Y008523D01*
X046022Y008424D02*
X050008Y008424D01*
X050008Y008326D02*
X046022Y008326D01*
X046022Y008227D02*
X050008Y008227D01*
X050008Y008129D02*
X046022Y008129D01*
X046022Y008030D02*
X050008Y008030D01*
X050008Y007932D02*
X046016Y007932D01*
X046000Y007833D02*
X050008Y007833D01*
X050008Y007735D02*
X045973Y007735D01*
X045741Y007636D02*
X050008Y007636D01*
X050008Y007538D02*
X036750Y007538D01*
X036767Y007531D02*
X036679Y007567D01*
X036424Y007567D01*
X036337Y007531D01*
X036071Y007531D01*
X035948Y007408D01*
X035948Y007142D01*
X035912Y007054D01*
X035912Y005622D01*
X036009Y005386D01*
X036186Y005209D01*
X036186Y005088D01*
X036272Y004881D01*
X036430Y004723D01*
X036637Y004637D01*
X036861Y004637D01*
X037067Y004723D01*
X037225Y004881D01*
X037311Y005088D01*
X037311Y005238D01*
X037389Y005425D01*
X037389Y005679D01*
X037311Y005866D01*
X037311Y006016D01*
X037225Y006223D01*
X037192Y006257D01*
X037192Y007054D01*
X037155Y007142D01*
X037155Y007408D01*
X037032Y007531D01*
X036767Y007531D01*
X037124Y007439D02*
X050008Y007439D01*
X050008Y007341D02*
X037155Y007341D01*
X037155Y007242D02*
X050008Y007242D01*
X050008Y007144D02*
X037155Y007144D01*
X037192Y007045D02*
X050008Y007045D01*
X050008Y006947D02*
X037192Y006947D01*
X037192Y006848D02*
X050008Y006848D01*
X050008Y006750D02*
X037192Y006750D01*
X037192Y006651D02*
X050008Y006651D01*
X050008Y006553D02*
X037192Y006553D01*
X037192Y006454D02*
X043578Y006454D01*
X043609Y006467D02*
X043402Y006381D01*
X043244Y006223D01*
X043158Y006016D01*
X043158Y005088D01*
X043244Y004881D01*
X043402Y004723D01*
X043609Y004637D01*
X043832Y004637D01*
X044039Y004723D01*
X044197Y004881D01*
X044283Y005088D01*
X044283Y006016D01*
X044197Y006223D01*
X044039Y006381D01*
X043832Y006467D01*
X043609Y006467D01*
X043863Y006454D02*
X050008Y006454D01*
X050008Y006356D02*
X044065Y006356D01*
X044163Y006257D02*
X050008Y006257D01*
X050008Y006159D02*
X044224Y006159D01*
X044265Y006060D02*
X050008Y006060D01*
X050008Y005962D02*
X049057Y005962D01*
X049294Y005863D02*
X050008Y005863D01*
X050008Y005765D02*
X049487Y005765D01*
X049617Y005666D02*
X050008Y005666D01*
X050008Y005568D02*
X049716Y005568D01*
X049814Y005469D02*
X050008Y005469D01*
X050008Y005371D02*
X049903Y005371D01*
X049953Y005272D02*
X050008Y005272D01*
X050003Y005174D02*
X050008Y005174D01*
X048229Y005962D02*
X044283Y005962D01*
X044283Y005863D02*
X047992Y005863D01*
X047799Y005765D02*
X044283Y005765D01*
X044283Y005666D02*
X047669Y005666D01*
X047571Y005568D02*
X044283Y005568D01*
X044283Y005469D02*
X045410Y005469D01*
X045470Y005529D02*
X045194Y005254D01*
X045194Y004864D01*
X045470Y004589D01*
X045859Y004589D01*
X046134Y004864D01*
X046134Y005254D01*
X045859Y005529D01*
X045470Y005529D01*
X045312Y005371D02*
X044283Y005371D01*
X044283Y005272D02*
X045213Y005272D01*
X045194Y005174D02*
X044283Y005174D01*
X044278Y005075D02*
X045194Y005075D01*
X045194Y004977D02*
X044237Y004977D01*
X044195Y004878D02*
X045194Y004878D01*
X045279Y004780D02*
X044096Y004780D01*
X043939Y004681D02*
X045377Y004681D01*
X045952Y004681D02*
X047130Y004681D01*
X047115Y004583D02*
X039023Y004583D01*
X038959Y004647D02*
X038570Y004647D01*
X038510Y004587D01*
X035434Y004587D01*
X035199Y004823D01*
X035257Y004881D01*
X035343Y005088D01*
X035343Y005209D01*
X035520Y005386D01*
X035617Y005622D01*
X035617Y006894D01*
X035627Y006988D01*
X035617Y007020D01*
X035617Y007054D01*
X035609Y007075D01*
X035609Y008429D01*
X035511Y008665D01*
X035509Y008667D01*
X035509Y008739D01*
X035426Y008938D01*
X035274Y009090D01*
X035076Y009172D01*
X034861Y009172D01*
X034663Y009090D01*
X034511Y008938D01*
X034469Y008836D01*
X034426Y008938D01*
X034274Y009090D01*
X034076Y009172D01*
X033861Y009172D01*
X033663Y009090D01*
X033511Y008938D01*
X033429Y008739D01*
X033429Y007865D01*
X033511Y007666D01*
X033663Y007514D01*
X033861Y007432D01*
X034076Y007432D01*
X034274Y007514D01*
X034329Y007568D01*
X034329Y006879D01*
X034319Y006786D01*
X034329Y006753D01*
X034329Y006719D01*
X034337Y006699D01*
X034337Y006257D01*
X034303Y006223D01*
X034218Y006016D01*
X034218Y005866D01*
X034140Y005679D01*
X034140Y005425D01*
X034218Y005238D01*
X034218Y005088D01*
X034303Y004881D01*
X034354Y004830D01*
X034354Y004595D01*
X034417Y004445D01*
X034532Y004329D01*
X035032Y003829D01*
X035183Y003767D01*
X038510Y003767D01*
X038570Y003707D01*
X038959Y003707D01*
X039234Y003982D01*
X039234Y004372D01*
X038959Y004647D01*
X038959Y004707D02*
X038570Y004707D01*
X038294Y004982D01*
X038294Y005372D01*
X038570Y005647D01*
X038959Y005647D01*
X039234Y005372D01*
X039234Y004982D01*
X038959Y004707D01*
X039032Y004780D02*
X043345Y004780D01*
X043246Y004878D02*
X039130Y004878D01*
X039229Y004977D02*
X043204Y004977D01*
X043163Y005075D02*
X039234Y005075D01*
X039234Y005174D02*
X043158Y005174D01*
X043158Y005272D02*
X039234Y005272D01*
X039234Y005371D02*
X043158Y005371D01*
X043158Y005469D02*
X039137Y005469D01*
X039038Y005568D02*
X043158Y005568D01*
X043158Y005666D02*
X037389Y005666D01*
X037389Y005568D02*
X038490Y005568D01*
X038392Y005469D02*
X037389Y005469D01*
X037366Y005371D02*
X038294Y005371D01*
X038294Y005272D02*
X037325Y005272D01*
X037311Y005174D02*
X038294Y005174D01*
X038294Y005075D02*
X037306Y005075D01*
X037265Y004977D02*
X038300Y004977D01*
X038398Y004878D02*
X037223Y004878D01*
X037124Y004780D02*
X038497Y004780D01*
X039122Y004484D02*
X047099Y004484D01*
X047114Y004386D02*
X039220Y004386D01*
X039234Y004287D02*
X047130Y004287D01*
X047146Y004189D02*
X039234Y004189D01*
X039234Y004090D02*
X047161Y004090D01*
X047182Y003992D02*
X039234Y003992D01*
X039145Y003893D02*
X047232Y003893D01*
X047282Y003795D02*
X039047Y003795D01*
X036967Y004681D02*
X043502Y004681D01*
X043158Y005765D02*
X037353Y005765D01*
X037312Y005863D02*
X043158Y005863D01*
X043158Y005962D02*
X037311Y005962D01*
X037293Y006060D02*
X043176Y006060D01*
X043217Y006159D02*
X037252Y006159D01*
X037192Y006257D02*
X043278Y006257D01*
X043376Y006356D02*
X037192Y006356D01*
X035912Y006356D02*
X035617Y006356D01*
X035617Y006454D02*
X035912Y006454D01*
X035912Y006553D02*
X035617Y006553D01*
X035617Y006651D02*
X035912Y006651D01*
X035912Y006750D02*
X035617Y006750D01*
X035617Y006848D02*
X035912Y006848D01*
X035912Y006947D02*
X035622Y006947D01*
X035617Y007045D02*
X035912Y007045D01*
X035948Y007144D02*
X035609Y007144D01*
X035609Y007242D02*
X035948Y007242D01*
X035948Y007341D02*
X035609Y007341D01*
X035609Y007439D02*
X035980Y007439D01*
X035609Y007538D02*
X036354Y007538D01*
X035609Y007636D02*
X045482Y007636D01*
X045250Y007735D02*
X035609Y007735D01*
X035609Y007833D02*
X045224Y007833D01*
X045207Y007932D02*
X035609Y007932D01*
X035609Y008030D02*
X045202Y008030D01*
X045202Y008129D02*
X035609Y008129D01*
X035609Y008227D02*
X045202Y008227D01*
X045202Y008326D02*
X035609Y008326D01*
X035609Y008424D02*
X045202Y008424D01*
X045202Y008523D02*
X035570Y008523D01*
X035529Y008621D02*
X045202Y008621D01*
X045202Y008720D02*
X035509Y008720D01*
X035476Y008818D02*
X045202Y008818D01*
X045202Y008917D02*
X035435Y008917D01*
X035349Y009015D02*
X045202Y009015D01*
X045202Y009114D02*
X035216Y009114D01*
X034721Y009114D02*
X034216Y009114D01*
X034349Y009015D02*
X034588Y009015D01*
X034502Y008917D02*
X034435Y008917D01*
X033721Y009114D02*
X029161Y009114D01*
X029219Y009090D02*
X029020Y009172D01*
X028806Y009172D01*
X028607Y009090D01*
X028455Y008938D01*
X028413Y008836D01*
X028371Y008938D01*
X028219Y009090D01*
X028020Y009172D01*
X027806Y009172D01*
X027607Y009090D01*
X027455Y008938D01*
X027373Y008739D01*
X027373Y007865D01*
X027455Y007666D01*
X027607Y007514D01*
X027806Y007432D01*
X028020Y007432D01*
X028219Y007514D01*
X028307Y007602D01*
X028344Y006864D01*
X028336Y006786D01*
X028350Y006738D01*
X028352Y006687D01*
X028354Y006685D01*
X028354Y006257D01*
X028320Y006223D01*
X028234Y006016D01*
X028234Y005866D01*
X028157Y005679D01*
X028157Y005425D01*
X028234Y005238D01*
X028234Y005088D01*
X028320Y004881D01*
X028371Y004830D01*
X028371Y004595D01*
X028434Y004445D01*
X028549Y004329D01*
X029049Y003829D01*
X029200Y003767D01*
X032526Y003767D01*
X032586Y003707D01*
X032976Y003707D01*
X033251Y003982D01*
X033251Y004372D01*
X032976Y004647D01*
X032586Y004647D01*
X032526Y004587D01*
X029451Y004587D01*
X029215Y004823D01*
X029274Y004881D01*
X029359Y005088D01*
X029359Y005209D01*
X029536Y005386D01*
X029634Y005622D01*
X029634Y006894D01*
X029643Y006988D01*
X029634Y007020D01*
X029634Y007054D01*
X029613Y007103D01*
X029546Y008461D01*
X029453Y008657D01*
X029453Y008739D01*
X029371Y008938D01*
X029219Y009090D01*
X029293Y009015D02*
X033588Y009015D01*
X033502Y008917D02*
X029380Y008917D01*
X029420Y008818D02*
X033461Y008818D01*
X033429Y008720D02*
X029453Y008720D01*
X029470Y008621D02*
X033429Y008621D01*
X033429Y008523D02*
X029517Y008523D01*
X029548Y008424D02*
X033429Y008424D01*
X033429Y008326D02*
X029553Y008326D01*
X029557Y008227D02*
X033429Y008227D01*
X033429Y008129D02*
X029562Y008129D01*
X029567Y008030D02*
X033429Y008030D01*
X033429Y007932D02*
X029572Y007932D01*
X029577Y007833D02*
X033442Y007833D01*
X033482Y007735D02*
X029582Y007735D01*
X029587Y007636D02*
X033541Y007636D01*
X033639Y007538D02*
X030766Y007538D01*
X030783Y007531D02*
X030696Y007567D01*
X030441Y007567D01*
X030354Y007531D01*
X030088Y007531D01*
X029965Y007408D01*
X029965Y007142D01*
X029929Y007054D01*
X029929Y005622D01*
X030026Y005386D01*
X030203Y005209D01*
X030203Y005088D01*
X030288Y004881D01*
X030447Y004723D01*
X030653Y004637D01*
X030877Y004637D01*
X031084Y004723D01*
X031242Y004881D01*
X031328Y005088D01*
X031328Y005238D01*
X031405Y005425D01*
X031405Y005679D01*
X031328Y005866D01*
X031328Y006016D01*
X031242Y006223D01*
X031209Y006257D01*
X031209Y007054D01*
X031172Y007142D01*
X031172Y007408D01*
X031049Y007531D01*
X030783Y007531D01*
X031141Y007439D02*
X033844Y007439D01*
X034094Y007439D02*
X034329Y007439D01*
X034329Y007341D02*
X031172Y007341D01*
X031172Y007242D02*
X034329Y007242D01*
X034329Y007144D02*
X031172Y007144D01*
X031209Y007045D02*
X034329Y007045D01*
X034329Y006947D02*
X031209Y006947D01*
X031209Y006848D02*
X034325Y006848D01*
X034329Y006750D02*
X031209Y006750D01*
X031209Y006651D02*
X034337Y006651D01*
X034337Y006553D02*
X031209Y006553D01*
X031209Y006454D02*
X034337Y006454D01*
X034337Y006356D02*
X031209Y006356D01*
X031209Y006257D02*
X034337Y006257D01*
X034277Y006159D02*
X031269Y006159D01*
X031310Y006060D02*
X034236Y006060D01*
X034218Y005962D02*
X031328Y005962D01*
X031329Y005863D02*
X034216Y005863D01*
X034176Y005765D02*
X031370Y005765D01*
X031405Y005666D02*
X034140Y005666D01*
X034140Y005568D02*
X033055Y005568D01*
X032976Y005647D02*
X032586Y005647D01*
X032311Y005372D01*
X032311Y004982D01*
X032586Y004707D01*
X032976Y004707D01*
X033251Y004982D01*
X033251Y005372D01*
X032976Y005647D01*
X033153Y005469D02*
X034140Y005469D01*
X034162Y005371D02*
X033251Y005371D01*
X033251Y005272D02*
X034203Y005272D01*
X034218Y005174D02*
X033251Y005174D01*
X033251Y005075D02*
X034223Y005075D01*
X034264Y004977D02*
X033246Y004977D01*
X033147Y004878D02*
X034306Y004878D01*
X034354Y004780D02*
X033049Y004780D01*
X033040Y004583D02*
X034360Y004583D01*
X034354Y004681D02*
X030984Y004681D01*
X031141Y004780D02*
X032514Y004780D01*
X032415Y004878D02*
X031240Y004878D01*
X031282Y004977D02*
X032317Y004977D01*
X032311Y005075D02*
X031323Y005075D01*
X031328Y005174D02*
X032311Y005174D01*
X032311Y005272D02*
X031342Y005272D01*
X031383Y005371D02*
X032311Y005371D01*
X032409Y005469D02*
X031405Y005469D01*
X031405Y005568D02*
X032507Y005568D01*
X033138Y004484D02*
X034400Y004484D01*
X034476Y004386D02*
X033237Y004386D01*
X033251Y004287D02*
X034574Y004287D01*
X034673Y004189D02*
X033251Y004189D01*
X033251Y004090D02*
X034771Y004090D01*
X034870Y003992D02*
X033251Y003992D01*
X033162Y003893D02*
X034968Y003893D01*
X035116Y003795D02*
X033064Y003795D01*
X035241Y004780D02*
X036373Y004780D01*
X036274Y004878D02*
X035254Y004878D01*
X035297Y004977D02*
X036232Y004977D01*
X036191Y005075D02*
X035338Y005075D01*
X035343Y005174D02*
X036186Y005174D01*
X036123Y005272D02*
X035406Y005272D01*
X035504Y005371D02*
X036025Y005371D01*
X035975Y005469D02*
X035554Y005469D01*
X035595Y005568D02*
X035934Y005568D01*
X035912Y005666D02*
X035617Y005666D01*
X035617Y005765D02*
X035912Y005765D01*
X035912Y005863D02*
X035617Y005863D01*
X035617Y005962D02*
X035912Y005962D01*
X035912Y006060D02*
X035617Y006060D01*
X035617Y006159D02*
X035912Y006159D01*
X035912Y006257D02*
X035617Y006257D01*
X034329Y007538D02*
X034298Y007538D01*
X035340Y004681D02*
X036530Y004681D01*
X030547Y004681D02*
X029357Y004681D01*
X029258Y004780D02*
X030390Y004780D01*
X030291Y004878D02*
X029271Y004878D01*
X029313Y004977D02*
X030249Y004977D01*
X030208Y005075D02*
X029354Y005075D01*
X029359Y005174D02*
X030203Y005174D01*
X030140Y005272D02*
X029422Y005272D01*
X029521Y005371D02*
X030041Y005371D01*
X029992Y005469D02*
X029571Y005469D01*
X029611Y005568D02*
X029951Y005568D01*
X029929Y005666D02*
X029634Y005666D01*
X029634Y005765D02*
X029929Y005765D01*
X029929Y005863D02*
X029634Y005863D01*
X029634Y005962D02*
X029929Y005962D01*
X029929Y006060D02*
X029634Y006060D01*
X029634Y006159D02*
X029929Y006159D01*
X029929Y006257D02*
X029634Y006257D01*
X029634Y006356D02*
X029929Y006356D01*
X029929Y006454D02*
X029634Y006454D01*
X029634Y006553D02*
X029929Y006553D01*
X029929Y006651D02*
X029634Y006651D01*
X029634Y006750D02*
X029929Y006750D01*
X029929Y006848D02*
X029634Y006848D01*
X029639Y006947D02*
X029929Y006947D01*
X029929Y007045D02*
X029634Y007045D01*
X029611Y007144D02*
X029965Y007144D01*
X029965Y007242D02*
X029606Y007242D01*
X029602Y007341D02*
X029965Y007341D01*
X029996Y007439D02*
X029597Y007439D01*
X029592Y007538D02*
X030371Y007538D01*
X028315Y007439D02*
X028038Y007439D01*
X028242Y007538D02*
X028310Y007538D01*
X028320Y007341D02*
X025189Y007341D01*
X025189Y007408D02*
X025189Y007142D01*
X025225Y007054D01*
X025225Y006257D01*
X025259Y006223D01*
X025345Y006016D01*
X025345Y005866D01*
X025422Y005679D01*
X025422Y005425D01*
X025345Y005238D01*
X025345Y005088D01*
X025259Y004881D01*
X025101Y004723D01*
X024894Y004637D01*
X024670Y004637D01*
X024463Y004723D01*
X024305Y004881D01*
X024220Y005088D01*
X024220Y005209D01*
X024043Y005386D01*
X023945Y005622D01*
X023945Y007054D01*
X023982Y007142D01*
X023982Y007408D01*
X024105Y007531D01*
X024370Y007531D01*
X024458Y007567D01*
X024713Y007567D01*
X024800Y007531D01*
X025066Y007531D01*
X025189Y007408D01*
X025157Y007439D02*
X027788Y007439D01*
X027584Y007538D02*
X024783Y007538D01*
X024387Y007538D02*
X023642Y007538D01*
X023642Y007636D02*
X027485Y007636D01*
X027427Y007735D02*
X023642Y007735D01*
X023642Y007833D02*
X027386Y007833D01*
X027373Y007932D02*
X023642Y007932D01*
X023642Y008030D02*
X027373Y008030D01*
X027373Y008129D02*
X023642Y008129D01*
X023642Y008227D02*
X027373Y008227D01*
X027373Y008326D02*
X023642Y008326D01*
X023642Y008424D02*
X027373Y008424D01*
X027373Y008523D02*
X023603Y008523D01*
X023642Y008429D02*
X023545Y008665D01*
X023542Y008667D01*
X023542Y008739D01*
X023460Y008938D01*
X023308Y009090D01*
X023109Y009172D01*
X022895Y009172D01*
X022696Y009090D01*
X022544Y008938D01*
X022502Y008836D01*
X022460Y008938D01*
X022308Y009090D01*
X022109Y009172D01*
X021895Y009172D01*
X021696Y009090D01*
X021544Y008938D01*
X021462Y008739D01*
X021462Y007865D01*
X021544Y007666D01*
X021696Y007514D01*
X021895Y007432D01*
X022109Y007432D01*
X022308Y007514D01*
X022362Y007568D01*
X022362Y006791D01*
X022370Y006771D01*
X022370Y006257D01*
X022337Y006223D01*
X022251Y006016D01*
X022251Y005866D01*
X022174Y005679D01*
X022174Y005425D01*
X022251Y005238D01*
X022251Y005088D01*
X022337Y004881D01*
X022388Y004830D01*
X022388Y004595D01*
X022450Y004445D01*
X022566Y004329D01*
X023066Y003829D01*
X023216Y003767D01*
X026543Y003767D01*
X026603Y003707D01*
X026993Y003707D01*
X027268Y003982D01*
X027268Y004372D01*
X026993Y004647D01*
X026603Y004647D01*
X026543Y004587D01*
X023468Y004587D01*
X023232Y004823D01*
X023290Y004881D01*
X023376Y005088D01*
X023376Y005209D01*
X023553Y005386D01*
X023650Y005622D01*
X023650Y007054D01*
X023642Y007075D01*
X023642Y008429D01*
X023563Y008621D02*
X027373Y008621D01*
X027373Y008720D02*
X023542Y008720D01*
X023509Y008818D02*
X027406Y008818D01*
X027446Y008917D02*
X023469Y008917D01*
X023382Y009015D02*
X027533Y009015D01*
X027665Y009114D02*
X023250Y009114D01*
X022754Y009114D02*
X022250Y009114D01*
X022382Y009015D02*
X022622Y009015D01*
X022536Y008917D02*
X022469Y008917D01*
X021754Y009114D02*
X017339Y009114D01*
X017397Y009090D02*
X017199Y009172D01*
X016984Y009172D01*
X016785Y009090D01*
X016633Y008938D01*
X016591Y008836D01*
X016549Y008938D01*
X016397Y009090D01*
X016199Y009172D01*
X015984Y009172D01*
X015785Y009090D01*
X015633Y008938D01*
X015551Y008739D01*
X015551Y007865D01*
X015633Y007666D01*
X015785Y007514D01*
X015984Y007432D01*
X016199Y007432D01*
X016397Y007514D01*
X016451Y007568D01*
X016451Y007435D01*
X016423Y007408D01*
X016423Y007142D01*
X016387Y007054D01*
X016387Y006257D01*
X016353Y006223D01*
X016268Y006016D01*
X016268Y005866D01*
X016190Y005679D01*
X016190Y005425D01*
X016268Y005238D01*
X016268Y005088D01*
X016353Y004881D01*
X016405Y004830D01*
X016405Y004720D01*
X016467Y004570D01*
X016582Y004454D01*
X017207Y003829D01*
X017358Y003767D01*
X020560Y003767D01*
X020620Y003707D01*
X021009Y003707D01*
X021285Y003982D01*
X021285Y004372D01*
X021009Y004647D01*
X020620Y004647D01*
X020560Y004587D01*
X017609Y004587D01*
X017310Y004887D01*
X017393Y005088D01*
X017393Y005209D01*
X017570Y005386D01*
X017667Y005622D01*
X017667Y006709D01*
X017731Y006864D01*
X017731Y008429D01*
X017634Y008665D01*
X017631Y008667D01*
X017631Y008739D01*
X017549Y008938D01*
X017397Y009090D01*
X017472Y009015D02*
X021622Y009015D01*
X021536Y008917D02*
X017558Y008917D01*
X017598Y008818D02*
X021495Y008818D01*
X021462Y008720D02*
X017631Y008720D01*
X017652Y008621D02*
X021462Y008621D01*
X021462Y008523D02*
X017692Y008523D01*
X017731Y008424D02*
X021462Y008424D01*
X021462Y008326D02*
X017731Y008326D01*
X017731Y008227D02*
X021462Y008227D01*
X021462Y008129D02*
X017731Y008129D01*
X017731Y008030D02*
X021462Y008030D01*
X021462Y007932D02*
X017731Y007932D01*
X017731Y007833D02*
X021475Y007833D01*
X021516Y007735D02*
X017731Y007735D01*
X017731Y007636D02*
X021574Y007636D01*
X021673Y007538D02*
X018800Y007538D01*
X018817Y007531D02*
X018729Y007567D01*
X018475Y007567D01*
X018387Y007531D01*
X018121Y007531D01*
X017998Y007408D01*
X017998Y007142D01*
X017962Y007054D01*
X017962Y005622D01*
X018059Y005386D01*
X018236Y005209D01*
X018236Y005088D01*
X018322Y004881D01*
X018480Y004723D01*
X018687Y004637D01*
X018911Y004637D01*
X019117Y004723D01*
X019276Y004881D01*
X019361Y005088D01*
X019361Y005238D01*
X019439Y005425D01*
X019439Y005679D01*
X019361Y005866D01*
X019361Y006016D01*
X019276Y006223D01*
X019242Y006257D01*
X019242Y007054D01*
X019206Y007142D01*
X019206Y007408D01*
X019083Y007531D01*
X018817Y007531D01*
X019174Y007439D02*
X021877Y007439D01*
X022127Y007439D02*
X022362Y007439D01*
X022362Y007341D02*
X019206Y007341D01*
X019206Y007242D02*
X022362Y007242D01*
X022362Y007144D02*
X019206Y007144D01*
X019242Y007045D02*
X022362Y007045D01*
X022362Y006947D02*
X019242Y006947D01*
X019242Y006848D02*
X022362Y006848D01*
X022370Y006750D02*
X019242Y006750D01*
X019242Y006651D02*
X022370Y006651D01*
X022370Y006553D02*
X019242Y006553D01*
X019242Y006454D02*
X022370Y006454D01*
X022370Y006356D02*
X019242Y006356D01*
X019242Y006257D02*
X022370Y006257D01*
X022310Y006159D02*
X019302Y006159D01*
X019343Y006060D02*
X022269Y006060D01*
X022251Y005962D02*
X019361Y005962D01*
X019363Y005863D02*
X022250Y005863D01*
X022209Y005765D02*
X019403Y005765D01*
X019439Y005666D02*
X022174Y005666D01*
X022174Y005568D02*
X021088Y005568D01*
X021009Y005647D02*
X020620Y005647D01*
X020345Y005372D01*
X020345Y004982D01*
X020620Y004707D01*
X021009Y004707D01*
X021285Y004982D01*
X021285Y005372D01*
X021009Y005647D01*
X021187Y005469D02*
X022174Y005469D01*
X022196Y005371D02*
X021285Y005371D01*
X021285Y005272D02*
X022237Y005272D01*
X022251Y005174D02*
X021285Y005174D01*
X021285Y005075D02*
X022256Y005075D01*
X022297Y004977D02*
X021279Y004977D01*
X021181Y004878D02*
X022339Y004878D01*
X022388Y004780D02*
X021082Y004780D01*
X021073Y004583D02*
X022393Y004583D01*
X022388Y004681D02*
X019018Y004681D01*
X019175Y004780D02*
X020547Y004780D01*
X020449Y004878D02*
X019273Y004878D01*
X019315Y004977D02*
X020350Y004977D01*
X020345Y005075D02*
X019356Y005075D01*
X019361Y005174D02*
X020345Y005174D01*
X020345Y005272D02*
X019376Y005272D01*
X019416Y005371D02*
X020345Y005371D01*
X020442Y005469D02*
X019439Y005469D01*
X019439Y005568D02*
X020541Y005568D01*
X021172Y004484D02*
X022434Y004484D01*
X022509Y004386D02*
X021270Y004386D01*
X021285Y004287D02*
X022608Y004287D01*
X022706Y004189D02*
X021285Y004189D01*
X021285Y004090D02*
X022805Y004090D01*
X022903Y003992D02*
X021285Y003992D01*
X021196Y003893D02*
X023002Y003893D01*
X023149Y003795D02*
X021097Y003795D01*
X023275Y004780D02*
X024406Y004780D01*
X024308Y004878D02*
X023288Y004878D01*
X023330Y004977D02*
X024265Y004977D01*
X024225Y005075D02*
X023371Y005075D01*
X023376Y005174D02*
X024220Y005174D01*
X024157Y005272D02*
X023439Y005272D01*
X023537Y005371D02*
X024058Y005371D01*
X024008Y005469D02*
X023587Y005469D01*
X023628Y005568D02*
X023967Y005568D01*
X023945Y005666D02*
X023650Y005666D01*
X023650Y005765D02*
X023945Y005765D01*
X023945Y005863D02*
X023650Y005863D01*
X023650Y005962D02*
X023945Y005962D01*
X023945Y006060D02*
X023650Y006060D01*
X023650Y006159D02*
X023945Y006159D01*
X023945Y006257D02*
X023650Y006257D01*
X023650Y006356D02*
X023945Y006356D01*
X023945Y006454D02*
X023650Y006454D01*
X023650Y006553D02*
X023945Y006553D01*
X023945Y006651D02*
X023650Y006651D01*
X023650Y006750D02*
X023945Y006750D01*
X023945Y006848D02*
X023650Y006848D01*
X023650Y006947D02*
X023945Y006947D01*
X023945Y007045D02*
X023650Y007045D01*
X023642Y007144D02*
X023982Y007144D01*
X023982Y007242D02*
X023642Y007242D01*
X023642Y007341D02*
X023982Y007341D01*
X024013Y007439D02*
X023642Y007439D01*
X022362Y007538D02*
X022332Y007538D01*
X025189Y007242D02*
X028325Y007242D01*
X028330Y007144D02*
X025189Y007144D01*
X025225Y007045D02*
X028335Y007045D01*
X028340Y006947D02*
X025225Y006947D01*
X025225Y006848D02*
X028342Y006848D01*
X028346Y006750D02*
X025225Y006750D01*
X025225Y006651D02*
X028354Y006651D01*
X028354Y006553D02*
X025225Y006553D01*
X025225Y006454D02*
X028354Y006454D01*
X028354Y006356D02*
X025225Y006356D01*
X025225Y006257D02*
X028354Y006257D01*
X028293Y006159D02*
X025286Y006159D01*
X025326Y006060D02*
X028253Y006060D01*
X028234Y005962D02*
X025345Y005962D01*
X025346Y005863D02*
X028233Y005863D01*
X028192Y005765D02*
X025387Y005765D01*
X025422Y005666D02*
X028157Y005666D01*
X028157Y005568D02*
X027072Y005568D01*
X026993Y005647D02*
X026603Y005647D01*
X026328Y005372D01*
X026328Y004982D01*
X026603Y004707D01*
X026993Y004707D01*
X027268Y004982D01*
X027268Y005372D01*
X026993Y005647D01*
X027170Y005469D02*
X028157Y005469D01*
X028179Y005371D02*
X027268Y005371D01*
X027268Y005272D02*
X028220Y005272D01*
X028234Y005174D02*
X027268Y005174D01*
X027268Y005075D02*
X028239Y005075D01*
X028280Y004977D02*
X027262Y004977D01*
X027164Y004878D02*
X028323Y004878D01*
X028371Y004780D02*
X027065Y004780D01*
X027057Y004583D02*
X028376Y004583D01*
X028371Y004681D02*
X025001Y004681D01*
X025158Y004780D02*
X026530Y004780D01*
X026432Y004878D02*
X025256Y004878D01*
X025299Y004977D02*
X026333Y004977D01*
X026328Y005075D02*
X025339Y005075D01*
X025345Y005174D02*
X026328Y005174D01*
X026328Y005272D02*
X025359Y005272D01*
X025400Y005371D02*
X026328Y005371D01*
X026425Y005469D02*
X025422Y005469D01*
X025422Y005568D02*
X026524Y005568D01*
X027155Y004484D02*
X028417Y004484D01*
X028492Y004386D02*
X027254Y004386D01*
X027268Y004287D02*
X028591Y004287D01*
X028689Y004189D02*
X027268Y004189D01*
X027268Y004090D02*
X028788Y004090D01*
X028886Y003992D02*
X027268Y003992D01*
X027179Y003893D02*
X028985Y003893D01*
X029132Y003795D02*
X027080Y003795D01*
X024563Y004681D02*
X023373Y004681D01*
X018580Y004681D02*
X017515Y004681D01*
X017417Y004780D02*
X018423Y004780D01*
X018325Y004878D02*
X017318Y004878D01*
X017347Y004977D02*
X018282Y004977D01*
X018241Y005075D02*
X017388Y005075D01*
X017393Y005174D02*
X018236Y005174D01*
X018173Y005272D02*
X017456Y005272D01*
X017554Y005371D02*
X018075Y005371D01*
X018025Y005469D02*
X017604Y005469D01*
X017645Y005568D02*
X017984Y005568D01*
X017962Y005666D02*
X017667Y005666D01*
X017667Y005765D02*
X017962Y005765D01*
X017962Y005863D02*
X017667Y005863D01*
X017667Y005962D02*
X017962Y005962D01*
X017962Y006060D02*
X017667Y006060D01*
X017667Y006159D02*
X017962Y006159D01*
X017962Y006257D02*
X017667Y006257D01*
X017667Y006356D02*
X017962Y006356D01*
X017962Y006454D02*
X017667Y006454D01*
X017667Y006553D02*
X017962Y006553D01*
X017962Y006651D02*
X017667Y006651D01*
X017684Y006750D02*
X017962Y006750D01*
X017962Y006848D02*
X017725Y006848D01*
X017731Y006947D02*
X017962Y006947D01*
X017962Y007045D02*
X017731Y007045D01*
X017731Y007144D02*
X017998Y007144D01*
X017998Y007242D02*
X017731Y007242D01*
X017731Y007341D02*
X017998Y007341D01*
X018030Y007439D02*
X017731Y007439D01*
X017731Y007538D02*
X018404Y007538D01*
X016625Y008917D02*
X016558Y008917D01*
X016472Y009015D02*
X016711Y009015D01*
X016843Y009114D02*
X016339Y009114D01*
X015843Y009114D02*
X011058Y009114D01*
X011058Y009212D02*
X045202Y009212D01*
X045202Y009311D02*
X011058Y009311D01*
X011058Y009409D02*
X045202Y009409D01*
X045202Y009508D02*
X011058Y009508D01*
X011058Y009606D02*
X045202Y009606D01*
X045202Y009705D02*
X011058Y009705D01*
X011058Y009803D02*
X045202Y009803D01*
X045202Y009902D02*
X011058Y009902D01*
X011058Y010000D02*
X045202Y010000D01*
X045202Y010099D02*
X011058Y010099D01*
X011058Y010197D02*
X045202Y010197D01*
X045202Y010296D02*
X011058Y010296D01*
X011058Y010394D02*
X045202Y010394D01*
X045202Y010493D02*
X011058Y010493D01*
X011058Y010591D02*
X045202Y010591D01*
X045164Y010690D02*
X011058Y010690D01*
X011058Y010788D02*
X045065Y010788D01*
X044967Y010887D02*
X011058Y010887D01*
X011058Y010985D02*
X044868Y010985D01*
X044770Y011084D02*
X011058Y011084D01*
X011058Y011182D02*
X044671Y011182D01*
X044573Y011281D02*
X011058Y011281D01*
X011058Y011379D02*
X044401Y011379D01*
X044318Y011478D02*
X011058Y011478D01*
X011058Y011576D02*
X044318Y011576D01*
X044296Y011675D02*
X011058Y011675D01*
X011058Y011773D02*
X044296Y011773D01*
X044318Y011872D02*
X011058Y011872D01*
X011058Y011970D02*
X012773Y011970D01*
X012680Y012069D02*
X011058Y012069D01*
X011058Y012167D02*
X012639Y012167D01*
X012625Y012266D02*
X011058Y012266D01*
X011058Y012364D02*
X012629Y012364D01*
X012670Y012463D02*
X011058Y012463D01*
X011058Y012561D02*
X012747Y012561D01*
X012920Y012660D02*
X011058Y012660D01*
X011058Y012758D02*
X013176Y012758D01*
X013176Y012857D02*
X011058Y012857D01*
X011058Y012955D02*
X013213Y012955D01*
X013279Y013054D02*
X011058Y013054D01*
X011058Y013152D02*
X013425Y013152D01*
X013688Y013251D02*
X011058Y013251D01*
X011058Y013349D02*
X013688Y013349D01*
X013717Y013448D02*
X011058Y013448D01*
X011058Y013546D02*
X013772Y013546D01*
X013890Y013645D02*
X011058Y013645D01*
X011058Y013743D02*
X014200Y013743D01*
X014200Y013842D02*
X011058Y013842D01*
X011058Y013940D02*
X014221Y013940D01*
X014264Y014039D02*
X011058Y014039D01*
X011058Y014137D02*
X014363Y014137D01*
X015345Y014531D02*
X011058Y014531D01*
X011058Y014433D02*
X015387Y014433D01*
X015444Y014334D02*
X011058Y014334D01*
X011058Y014236D02*
X015501Y014236D01*
X015443Y014137D02*
X015558Y014137D01*
X015556Y014039D02*
X015624Y014039D01*
X015654Y013940D02*
X015722Y013940D01*
X015753Y013842D02*
X015821Y013842D01*
X015851Y013743D02*
X015919Y013743D01*
X015319Y014630D02*
X011058Y014630D01*
X011058Y014728D02*
X015292Y014728D01*
X015266Y014827D02*
X011058Y014827D01*
X011058Y014925D02*
X015240Y014925D01*
X015231Y015024D02*
X011058Y015024D01*
X011058Y015122D02*
X015231Y015122D01*
X015231Y015221D02*
X011058Y015221D01*
X011058Y015319D02*
X015231Y015319D01*
X015231Y015418D02*
X011058Y015418D01*
X011058Y015516D02*
X015250Y015516D01*
X015276Y015615D02*
X011058Y015615D01*
X011058Y015713D02*
X015303Y015713D01*
X015329Y015812D02*
X011058Y015812D01*
X011058Y015910D02*
X015355Y015910D01*
X015409Y016009D02*
X011058Y016009D01*
X011058Y016107D02*
X015466Y016107D01*
X015523Y016206D02*
X011058Y016206D01*
X011058Y016304D02*
X015580Y016304D01*
X015662Y016403D02*
X011058Y016403D01*
X011058Y016501D02*
X015760Y016501D01*
X015859Y016600D02*
X011058Y016600D01*
X011058Y016698D02*
X015963Y016698D01*
X016133Y016797D02*
X011058Y016797D01*
X011058Y016895D02*
X016304Y016895D01*
X017590Y016994D02*
X022503Y016994D01*
X022284Y016935D02*
X021860Y016690D01*
X021514Y016344D01*
X021269Y015920D01*
X021142Y015447D01*
X021142Y014957D01*
X021269Y014484D01*
X021514Y014060D01*
X021860Y013714D01*
X022284Y013469D01*
X022757Y013342D01*
X023247Y013342D01*
X023720Y013469D01*
X024144Y013714D01*
X024490Y014060D01*
X024735Y014484D01*
X024862Y014957D01*
X024862Y015447D01*
X024735Y015920D01*
X024490Y016344D01*
X024144Y016690D01*
X023720Y016935D01*
X023247Y017062D01*
X022757Y017062D01*
X022284Y016935D01*
X022215Y016895D02*
X017878Y016895D01*
X018049Y016797D02*
X022044Y016797D01*
X021874Y016698D02*
X018219Y016698D01*
X018324Y016600D02*
X021769Y016600D01*
X021671Y016501D02*
X018422Y016501D01*
X018521Y016403D02*
X021572Y016403D01*
X021491Y016304D02*
X018602Y016304D01*
X018659Y016206D02*
X021434Y016206D01*
X021377Y016107D02*
X018716Y016107D01*
X018773Y016009D02*
X021320Y016009D01*
X021266Y015910D02*
X018827Y015910D01*
X018853Y015812D02*
X021240Y015812D01*
X021213Y015713D02*
X018880Y015713D01*
X018906Y015615D02*
X021187Y015615D01*
X021161Y015516D02*
X018933Y015516D01*
X018951Y015418D02*
X021142Y015418D01*
X021142Y015319D02*
X018951Y015319D01*
X018951Y015221D02*
X021142Y015221D01*
X021142Y015122D02*
X018951Y015122D01*
X018951Y015024D02*
X021142Y015024D01*
X021151Y014925D02*
X018943Y014925D01*
X018916Y014827D02*
X021177Y014827D01*
X021203Y014728D02*
X018890Y014728D01*
X018863Y014630D02*
X021230Y014630D01*
X021256Y014531D02*
X018837Y014531D01*
X018795Y014433D02*
X021298Y014433D01*
X021355Y014334D02*
X018738Y014334D01*
X018681Y014236D02*
X021412Y014236D01*
X021469Y014137D02*
X018624Y014137D01*
X018558Y014039D02*
X021535Y014039D01*
X021633Y013940D02*
X018460Y013940D01*
X018361Y013842D02*
X021732Y013842D01*
X021830Y013743D02*
X018263Y013743D01*
X021066Y013645D02*
X021979Y013645D01*
X022150Y013546D02*
X021206Y013546D01*
X021304Y013448D02*
X022362Y013448D01*
X022730Y013349D02*
X021403Y013349D01*
X020692Y012266D02*
X020685Y012266D01*
X020685Y012167D02*
X020790Y012167D01*
X020685Y012069D02*
X020908Y012069D01*
X020603Y011970D02*
X031999Y011970D01*
X032532Y011970D02*
X044318Y011970D01*
X044395Y012069D02*
X032630Y012069D01*
X034116Y013546D02*
X029765Y013546D01*
X029631Y013469D02*
X030055Y013714D01*
X030401Y014060D01*
X030646Y014484D01*
X030773Y014957D01*
X030773Y015447D01*
X030646Y015920D01*
X030401Y016344D01*
X030055Y016690D01*
X029631Y016935D01*
X029158Y017062D01*
X028668Y017062D01*
X028195Y016935D01*
X027771Y016690D01*
X027425Y016344D01*
X027180Y015920D01*
X027053Y015447D01*
X027053Y014957D01*
X027180Y014484D01*
X027425Y014060D01*
X027771Y013714D01*
X028195Y013469D01*
X028668Y013342D01*
X029158Y013342D01*
X029631Y013469D01*
X029553Y013448D02*
X034329Y013448D01*
X034696Y013349D02*
X029185Y013349D01*
X028641Y013349D02*
X023274Y013349D01*
X023642Y013448D02*
X028273Y013448D01*
X028061Y013546D02*
X023854Y013546D01*
X024025Y013645D02*
X027890Y013645D01*
X027741Y013743D02*
X024174Y013743D01*
X024272Y013842D02*
X027643Y013842D01*
X027544Y013940D02*
X024371Y013940D01*
X024469Y014039D02*
X027446Y014039D01*
X027380Y014137D02*
X024535Y014137D01*
X024592Y014236D02*
X027323Y014236D01*
X027266Y014334D02*
X024649Y014334D01*
X024706Y014433D02*
X027209Y014433D01*
X027167Y014531D02*
X024748Y014531D01*
X024774Y014630D02*
X027141Y014630D01*
X027114Y014728D02*
X024801Y014728D01*
X024827Y014827D02*
X027088Y014827D01*
X027062Y014925D02*
X024854Y014925D01*
X024862Y015024D02*
X027053Y015024D01*
X027053Y015122D02*
X024862Y015122D01*
X024862Y015221D02*
X027053Y015221D01*
X027053Y015319D02*
X024862Y015319D01*
X024862Y015418D02*
X027053Y015418D01*
X027072Y015516D02*
X024843Y015516D01*
X024817Y015615D02*
X027098Y015615D01*
X027124Y015713D02*
X024791Y015713D01*
X024764Y015812D02*
X027151Y015812D01*
X027177Y015910D02*
X024738Y015910D01*
X024684Y016009D02*
X027231Y016009D01*
X027288Y016107D02*
X024627Y016107D01*
X024570Y016206D02*
X027345Y016206D01*
X027402Y016304D02*
X024513Y016304D01*
X024432Y016403D02*
X027483Y016403D01*
X027582Y016501D02*
X024333Y016501D01*
X024235Y016600D02*
X027680Y016600D01*
X027785Y016698D02*
X024130Y016698D01*
X023960Y016797D02*
X027955Y016797D01*
X028126Y016895D02*
X023789Y016895D01*
X023501Y016994D02*
X028414Y016994D01*
X029412Y016994D02*
X034469Y016994D01*
X034182Y016895D02*
X029700Y016895D01*
X029871Y016797D02*
X034011Y016797D01*
X033840Y016698D02*
X030041Y016698D01*
X030146Y016600D02*
X033736Y016600D01*
X033637Y016501D02*
X030244Y016501D01*
X030343Y016403D02*
X033539Y016403D01*
X033457Y016304D02*
X030424Y016304D01*
X030481Y016206D02*
X033400Y016206D01*
X033344Y016107D02*
X030538Y016107D01*
X030595Y016009D02*
X033287Y016009D01*
X033233Y015910D02*
X030649Y015910D01*
X030675Y015812D02*
X033206Y015812D01*
X033180Y015713D02*
X030702Y015713D01*
X030728Y015615D02*
X033154Y015615D01*
X033127Y015516D02*
X030754Y015516D01*
X030773Y015418D02*
X033109Y015418D01*
X033109Y015319D02*
X030773Y015319D01*
X030773Y015221D02*
X033109Y015221D01*
X033109Y015122D02*
X030773Y015122D01*
X030773Y015024D02*
X033109Y015024D01*
X033117Y014925D02*
X030764Y014925D01*
X030738Y014827D02*
X033144Y014827D01*
X033170Y014728D02*
X030712Y014728D01*
X030685Y014630D02*
X033196Y014630D01*
X033223Y014531D02*
X030659Y014531D01*
X030617Y014433D02*
X033265Y014433D01*
X033322Y014334D02*
X030560Y014334D01*
X030503Y014236D02*
X033379Y014236D01*
X033436Y014137D02*
X030446Y014137D01*
X030380Y014039D02*
X033501Y014039D01*
X033600Y013940D02*
X030282Y013940D01*
X030183Y013842D02*
X033698Y013842D01*
X033797Y013743D02*
X030085Y013743D01*
X029936Y013645D02*
X033946Y013645D01*
X031390Y018700D02*
X031176Y018612D01*
X030946Y018612D01*
X030733Y018700D01*
X030651Y018782D01*
X028911Y018782D01*
X028830Y018700D01*
X028616Y018612D01*
X028386Y018612D01*
X028173Y018700D01*
X028009Y018863D01*
X027921Y019077D01*
X027921Y019307D01*
X028009Y019521D01*
X028173Y019684D01*
X028386Y019772D01*
X028616Y019772D01*
X028830Y019684D01*
X028911Y019602D01*
X030651Y019602D01*
X030733Y019684D01*
X030946Y019772D01*
X031176Y019772D01*
X031390Y019684D01*
X031553Y019521D01*
X031641Y019307D01*
X031641Y019077D01*
X031553Y018863D01*
X031390Y018700D01*
X031312Y018668D02*
X034233Y018668D01*
X034089Y018767D02*
X031456Y018767D01*
X031554Y018865D02*
X033992Y018865D01*
X033951Y018964D02*
X031594Y018964D01*
X031635Y019062D02*
X033910Y019062D01*
X033904Y019161D02*
X031641Y019161D01*
X031641Y019259D02*
X033904Y019259D01*
X033925Y019358D02*
X031620Y019358D01*
X031579Y019456D02*
X033966Y019456D01*
X034027Y019555D02*
X031519Y019555D01*
X031420Y019653D02*
X034125Y019653D01*
X034320Y019752D02*
X031225Y019752D01*
X030897Y019752D02*
X028665Y019752D01*
X028860Y019653D02*
X030702Y019653D01*
X030666Y018767D02*
X028896Y018767D01*
X028752Y018668D02*
X030810Y018668D01*
X028250Y018668D02*
X025329Y018668D01*
X025406Y018700D02*
X025570Y018863D01*
X025658Y019077D01*
X025658Y019307D01*
X025570Y019521D01*
X025406Y019684D01*
X025193Y019772D01*
X024962Y019772D01*
X024749Y019684D01*
X024668Y019602D01*
X022928Y019602D01*
X022846Y019684D01*
X022633Y019772D01*
X022402Y019772D01*
X022189Y019684D01*
X022026Y019521D01*
X021938Y019307D01*
X021938Y019077D01*
X022026Y018863D01*
X022189Y018700D01*
X022402Y018612D01*
X022633Y018612D01*
X022846Y018700D01*
X022928Y018782D01*
X024668Y018782D01*
X024749Y018700D01*
X024962Y018612D01*
X025193Y018612D01*
X025406Y018700D01*
X025473Y018767D02*
X028106Y018767D01*
X028009Y018865D02*
X025570Y018865D01*
X025611Y018964D02*
X027968Y018964D01*
X027927Y019062D02*
X025652Y019062D01*
X025658Y019161D02*
X027921Y019161D01*
X027921Y019259D02*
X025658Y019259D01*
X025637Y019358D02*
X027942Y019358D01*
X027983Y019456D02*
X025596Y019456D01*
X025535Y019555D02*
X028044Y019555D01*
X028142Y019653D02*
X025437Y019653D01*
X025242Y019752D02*
X028337Y019752D01*
X024914Y019752D02*
X022682Y019752D01*
X022877Y019653D02*
X024719Y019653D01*
X024683Y018767D02*
X022913Y018767D01*
X022769Y018668D02*
X024826Y018668D01*
X022266Y018668D02*
X019346Y018668D01*
X019490Y018767D02*
X022123Y018767D01*
X022025Y018865D02*
X019587Y018865D01*
X019628Y018964D02*
X021985Y018964D01*
X021944Y019062D02*
X019669Y019062D01*
X019675Y019161D02*
X021938Y019161D01*
X021938Y019259D02*
X019675Y019259D01*
X019654Y019358D02*
X021959Y019358D01*
X022000Y019456D02*
X019613Y019456D01*
X019552Y019555D02*
X022060Y019555D01*
X022159Y019653D02*
X019453Y019653D01*
X019259Y019752D02*
X022354Y019752D01*
X021656Y021910D02*
X035040Y021910D01*
X035146Y021954D01*
X036283Y023091D01*
X040984Y023091D01*
X041091Y023135D01*
X041209Y023253D01*
X041291Y023335D01*
X041335Y023441D01*
X041335Y024224D01*
X041374Y024263D01*
X041433Y024406D01*
X041433Y024560D01*
X041374Y024703D01*
X041265Y024812D01*
X041122Y024871D01*
X040968Y024871D01*
X040825Y024812D01*
X040716Y024703D01*
X040657Y024560D01*
X040657Y024406D01*
X040676Y024359D01*
X040535Y024359D01*
X040392Y024300D01*
X040353Y024261D01*
X036223Y024261D01*
X036117Y024217D01*
X036035Y024136D01*
X034704Y022805D01*
X024414Y022805D01*
X024425Y022831D01*
X024425Y022986D01*
X024366Y023128D01*
X024327Y023167D01*
X024327Y025537D01*
X024556Y025749D01*
X024626Y025749D01*
X024769Y025808D01*
X024878Y025917D01*
X024937Y026059D01*
X024937Y026214D01*
X024878Y026357D01*
X024769Y026466D01*
X024626Y026525D01*
X024472Y026525D01*
X024329Y026466D01*
X024220Y026357D01*
X024161Y026214D01*
X024161Y026173D01*
X023973Y025999D01*
X023973Y026069D01*
X023978Y026098D01*
X023973Y026126D01*
X023973Y026155D01*
X023961Y026182D01*
X023956Y026211D01*
X023940Y026235D01*
X023929Y026262D01*
X023908Y026282D01*
X023892Y026307D01*
X023867Y026323D01*
X023855Y026336D01*
X023855Y027059D01*
X023894Y027098D01*
X023953Y027241D01*
X023953Y027395D01*
X023894Y027538D01*
X023784Y027647D01*
X023642Y027706D01*
X023500Y027706D01*
X023500Y027768D01*
X023539Y027807D01*
X023598Y027949D01*
X023598Y028104D01*
X023539Y028246D01*
X023430Y028355D01*
X023287Y028415D01*
X023133Y028415D01*
X022990Y028355D01*
X022881Y028246D01*
X022822Y028104D01*
X022822Y027949D01*
X022881Y027807D01*
X022920Y027768D01*
X022920Y025608D01*
X022881Y025569D01*
X022822Y025426D01*
X022822Y025272D01*
X022881Y025129D01*
X022990Y025020D01*
X023133Y024961D01*
X023160Y024961D01*
X022964Y024765D01*
X022920Y024659D01*
X022920Y023167D01*
X022881Y023128D01*
X022822Y022986D01*
X022822Y022831D01*
X022833Y022805D01*
X022800Y022805D01*
X022811Y022831D01*
X022811Y022986D01*
X022752Y023128D01*
X022713Y023167D01*
X022713Y025092D01*
X022669Y025199D01*
X022509Y025358D01*
X022643Y025414D01*
X022752Y025523D01*
X022811Y025666D01*
X022811Y025820D01*
X022752Y025963D01*
X022713Y026002D01*
X022713Y027768D01*
X022752Y027807D01*
X022811Y027949D01*
X022811Y028104D01*
X022752Y028246D01*
X022643Y028355D01*
X022500Y028415D01*
X022346Y028415D01*
X022203Y028355D01*
X022094Y028246D01*
X022035Y028104D01*
X022035Y027949D01*
X022094Y027807D01*
X022133Y027768D01*
X022133Y027285D01*
X022067Y027312D01*
X021925Y027312D01*
X021925Y027768D01*
X021964Y027807D01*
X022024Y027949D01*
X022024Y028104D01*
X021964Y028246D01*
X021855Y028355D01*
X021713Y028415D01*
X021558Y028415D01*
X021416Y028355D01*
X021306Y028246D01*
X021261Y028138D01*
X021216Y028246D01*
X021107Y028355D01*
X020965Y028415D01*
X020810Y028415D01*
X020668Y028355D01*
X020558Y028246D01*
X020499Y028104D01*
X020499Y027949D01*
X020558Y027807D01*
X020597Y027768D01*
X020597Y024821D01*
X020558Y024782D01*
X020499Y024639D01*
X020499Y024485D01*
X020558Y024342D01*
X020668Y024233D01*
X020810Y024174D01*
X020965Y024174D01*
X021107Y024233D01*
X021213Y024338D01*
X021227Y024324D01*
X021227Y023608D01*
X020351Y024485D01*
X020351Y027768D01*
X020390Y027807D01*
X020449Y027949D01*
X020449Y028104D01*
X020390Y028246D01*
X020280Y028355D01*
X020138Y028415D01*
X019983Y028415D01*
X019841Y028355D01*
X019732Y028246D01*
X019673Y028104D01*
X019673Y027949D01*
X019732Y027807D01*
X019771Y027768D01*
X019771Y024553D01*
X019563Y024761D01*
X019563Y027768D01*
X019602Y027807D01*
X019661Y027949D01*
X019661Y028104D01*
X019602Y028246D01*
X019493Y028355D01*
X019350Y028415D01*
X019196Y028415D01*
X019053Y028355D01*
X018944Y028246D01*
X018885Y028104D01*
X018885Y027949D01*
X018944Y027807D01*
X018983Y027768D01*
X018983Y024583D01*
X019027Y024476D01*
X021468Y022035D01*
X021550Y021954D01*
X021656Y021910D01*
X021634Y021919D02*
X018853Y021919D01*
X018853Y022017D02*
X021486Y022017D01*
X021388Y022116D02*
X018853Y022116D01*
X018853Y022214D02*
X021289Y022214D01*
X021191Y022313D02*
X018853Y022313D01*
X018853Y022411D02*
X021092Y022411D01*
X020994Y022510D02*
X018853Y022510D01*
X018853Y022608D02*
X020895Y022608D01*
X020797Y022707D02*
X018853Y022707D01*
X018853Y022805D02*
X020698Y022805D01*
X020600Y022904D02*
X018853Y022904D01*
X018853Y023002D02*
X020501Y023002D01*
X020403Y023101D02*
X018853Y023101D01*
X018853Y023199D02*
X020304Y023199D01*
X020206Y023298D02*
X018853Y023298D01*
X018853Y023396D02*
X020107Y023396D01*
X020009Y023495D02*
X018853Y023495D01*
X018853Y023593D02*
X019910Y023593D01*
X019812Y023692D02*
X018853Y023692D01*
X018853Y023790D02*
X019713Y023790D01*
X019615Y023889D02*
X018853Y023889D01*
X018853Y023987D02*
X019516Y023987D01*
X019418Y024086D02*
X018853Y024086D01*
X018853Y024184D02*
X019319Y024184D01*
X019221Y024283D02*
X018853Y024283D01*
X018853Y024381D02*
X019122Y024381D01*
X019026Y024480D02*
X018853Y024480D01*
X018853Y024578D02*
X018985Y024578D01*
X018983Y024677D02*
X018853Y024677D01*
X018853Y024775D02*
X018983Y024775D01*
X018983Y024874D02*
X018853Y024874D01*
X018853Y024972D02*
X018983Y024972D01*
X018983Y025071D02*
X018853Y025071D01*
X018853Y025169D02*
X018983Y025169D01*
X018983Y025268D02*
X018853Y025268D01*
X018853Y025366D02*
X018983Y025366D01*
X018983Y025465D02*
X018853Y025465D01*
X018853Y025563D02*
X018983Y025563D01*
X018983Y025662D02*
X018853Y025662D01*
X018853Y025760D02*
X018983Y025760D01*
X018983Y025859D02*
X018853Y025859D01*
X018853Y025957D02*
X018983Y025957D01*
X018983Y026056D02*
X018853Y026056D01*
X018853Y026154D02*
X018983Y026154D01*
X018983Y026253D02*
X018853Y026253D01*
X018853Y026351D02*
X018983Y026351D01*
X018983Y026450D02*
X018853Y026450D01*
X018853Y026548D02*
X018983Y026548D01*
X018983Y026647D02*
X018853Y026647D01*
X018853Y026745D02*
X018983Y026745D01*
X018983Y026844D02*
X018853Y026844D01*
X018853Y026942D02*
X018983Y026942D01*
X018983Y027041D02*
X018853Y027041D01*
X018853Y027139D02*
X018983Y027139D01*
X018983Y027238D02*
X018853Y027238D01*
X018853Y027336D02*
X018983Y027336D01*
X018983Y027435D02*
X018853Y027435D01*
X018853Y027533D02*
X018983Y027533D01*
X018983Y027632D02*
X018853Y027632D01*
X018853Y027730D02*
X018983Y027730D01*
X018935Y027829D02*
X018853Y027829D01*
X018853Y027927D02*
X018894Y027927D01*
X018885Y028026D02*
X018853Y028026D01*
X018853Y028124D02*
X018894Y028124D01*
X018853Y028223D02*
X018935Y028223D01*
X018853Y028321D02*
X019019Y028321D01*
X018853Y028420D02*
X047174Y028420D01*
X047158Y028518D02*
X018853Y028518D01*
X018853Y028617D02*
X047143Y028617D01*
X047127Y028715D02*
X018853Y028715D01*
X018853Y028814D02*
X047112Y028814D01*
X047102Y028912D02*
X018853Y028912D01*
X018853Y029011D02*
X047118Y029011D01*
X047133Y029109D02*
X018853Y029109D01*
X018853Y029208D02*
X047149Y029208D01*
X047165Y029306D02*
X018853Y029306D01*
X018853Y029405D02*
X047193Y029405D01*
X047243Y029503D02*
X018802Y029503D01*
X019527Y028321D02*
X019807Y028321D01*
X019722Y028223D02*
X019612Y028223D01*
X019653Y028124D02*
X019681Y028124D01*
X019673Y028026D02*
X019661Y028026D01*
X019652Y027927D02*
X019682Y027927D01*
X019722Y027829D02*
X019611Y027829D01*
X019563Y027730D02*
X019771Y027730D01*
X019771Y027632D02*
X019563Y027632D01*
X019563Y027533D02*
X019771Y027533D01*
X019771Y027435D02*
X019563Y027435D01*
X019563Y027336D02*
X019771Y027336D01*
X019771Y027238D02*
X019563Y027238D01*
X019563Y027139D02*
X019771Y027139D01*
X019771Y027041D02*
X019563Y027041D01*
X019563Y026942D02*
X019771Y026942D01*
X019771Y026844D02*
X019563Y026844D01*
X019563Y026745D02*
X019771Y026745D01*
X019771Y026647D02*
X019563Y026647D01*
X019563Y026548D02*
X019771Y026548D01*
X019771Y026450D02*
X019563Y026450D01*
X019563Y026351D02*
X019771Y026351D01*
X019771Y026253D02*
X019563Y026253D01*
X019563Y026154D02*
X019771Y026154D01*
X019771Y026056D02*
X019563Y026056D01*
X019563Y025957D02*
X019771Y025957D01*
X019771Y025859D02*
X019563Y025859D01*
X019563Y025760D02*
X019771Y025760D01*
X019771Y025662D02*
X019563Y025662D01*
X019563Y025563D02*
X019771Y025563D01*
X019771Y025465D02*
X019563Y025465D01*
X019563Y025366D02*
X019771Y025366D01*
X019771Y025268D02*
X019563Y025268D01*
X019563Y025169D02*
X019771Y025169D01*
X019771Y025071D02*
X019563Y025071D01*
X019563Y024972D02*
X019771Y024972D01*
X019771Y024874D02*
X019563Y024874D01*
X019563Y024775D02*
X019771Y024775D01*
X019771Y024677D02*
X019647Y024677D01*
X019746Y024578D02*
X019771Y024578D01*
X020351Y024578D02*
X020499Y024578D01*
X020501Y024480D02*
X020356Y024480D01*
X020454Y024381D02*
X020542Y024381D01*
X020553Y024283D02*
X020618Y024283D01*
X020651Y024184D02*
X020785Y024184D01*
X020750Y024086D02*
X021227Y024086D01*
X021227Y024184D02*
X020990Y024184D01*
X021157Y024283D02*
X021227Y024283D01*
X021227Y023987D02*
X020848Y023987D01*
X020947Y023889D02*
X021227Y023889D01*
X021227Y023790D02*
X021045Y023790D01*
X021144Y023692D02*
X021227Y023692D01*
X020515Y024677D02*
X020351Y024677D01*
X020351Y024775D02*
X020556Y024775D01*
X020597Y024874D02*
X020351Y024874D01*
X020351Y024972D02*
X020597Y024972D01*
X020597Y025071D02*
X020351Y025071D01*
X020351Y025169D02*
X020597Y025169D01*
X020597Y025268D02*
X020351Y025268D01*
X020351Y025366D02*
X020597Y025366D01*
X020597Y025465D02*
X020351Y025465D01*
X020351Y025563D02*
X020597Y025563D01*
X020597Y025662D02*
X020351Y025662D01*
X020351Y025760D02*
X020597Y025760D01*
X020597Y025859D02*
X020351Y025859D01*
X020351Y025957D02*
X020597Y025957D01*
X020597Y026056D02*
X020351Y026056D01*
X020351Y026154D02*
X020597Y026154D01*
X020597Y026253D02*
X020351Y026253D01*
X020351Y026351D02*
X020597Y026351D01*
X020597Y026450D02*
X020351Y026450D01*
X020351Y026548D02*
X020597Y026548D01*
X020597Y026647D02*
X020351Y026647D01*
X020351Y026745D02*
X020597Y026745D01*
X020597Y026844D02*
X020351Y026844D01*
X020351Y026942D02*
X020597Y026942D01*
X020597Y027041D02*
X020351Y027041D01*
X020351Y027139D02*
X020597Y027139D01*
X020597Y027238D02*
X020351Y027238D01*
X020351Y027336D02*
X020597Y027336D01*
X020597Y027435D02*
X020351Y027435D01*
X020351Y027533D02*
X020597Y027533D01*
X020597Y027632D02*
X020351Y027632D01*
X020351Y027730D02*
X020597Y027730D01*
X020549Y027829D02*
X020399Y027829D01*
X020440Y027927D02*
X020508Y027927D01*
X020499Y028026D02*
X020449Y028026D01*
X020440Y028124D02*
X020508Y028124D01*
X020549Y028223D02*
X020399Y028223D01*
X020315Y028321D02*
X020633Y028321D01*
X021141Y028321D02*
X021382Y028321D01*
X021297Y028223D02*
X021226Y028223D01*
X021889Y028321D02*
X022169Y028321D01*
X022084Y028223D02*
X021974Y028223D01*
X022015Y028124D02*
X022043Y028124D01*
X022035Y028026D02*
X022024Y028026D01*
X022014Y027927D02*
X022044Y027927D01*
X022085Y027829D02*
X021974Y027829D01*
X021925Y027730D02*
X022133Y027730D01*
X022133Y027632D02*
X021925Y027632D01*
X021925Y027533D02*
X022133Y027533D01*
X022133Y027435D02*
X021925Y027435D01*
X021925Y027336D02*
X022133Y027336D01*
X022713Y027336D02*
X022920Y027336D01*
X022920Y027238D02*
X022713Y027238D01*
X022713Y027139D02*
X022920Y027139D01*
X022920Y027041D02*
X022713Y027041D01*
X022713Y026942D02*
X022920Y026942D01*
X022920Y026844D02*
X022713Y026844D01*
X022713Y026745D02*
X022920Y026745D01*
X022920Y026647D02*
X022713Y026647D01*
X022713Y026548D02*
X022920Y026548D01*
X022920Y026450D02*
X022713Y026450D01*
X022713Y026351D02*
X022920Y026351D01*
X022920Y026253D02*
X022713Y026253D01*
X022713Y026154D02*
X022920Y026154D01*
X022920Y026056D02*
X022713Y026056D01*
X022754Y025957D02*
X022920Y025957D01*
X022920Y025859D02*
X022795Y025859D01*
X022811Y025760D02*
X022920Y025760D01*
X022920Y025662D02*
X022809Y025662D01*
X022769Y025563D02*
X022879Y025563D01*
X022838Y025465D02*
X022694Y025465D01*
X022822Y025366D02*
X022528Y025366D01*
X022599Y025268D02*
X022824Y025268D01*
X022865Y025169D02*
X022681Y025169D01*
X022713Y025071D02*
X022940Y025071D01*
X023106Y024972D02*
X022713Y024972D01*
X022713Y024874D02*
X023073Y024874D01*
X022974Y024775D02*
X022713Y024775D01*
X022713Y024677D02*
X022928Y024677D01*
X022920Y024578D02*
X022713Y024578D01*
X022713Y024480D02*
X022920Y024480D01*
X022920Y024381D02*
X022713Y024381D01*
X022713Y024283D02*
X022920Y024283D01*
X022920Y024184D02*
X022713Y024184D01*
X022713Y024086D02*
X022920Y024086D01*
X022920Y023987D02*
X022713Y023987D01*
X022713Y023889D02*
X022920Y023889D01*
X022920Y023790D02*
X022713Y023790D01*
X022713Y023692D02*
X022920Y023692D01*
X022920Y023593D02*
X022713Y023593D01*
X022713Y023495D02*
X022920Y023495D01*
X022920Y023396D02*
X022713Y023396D01*
X022713Y023298D02*
X022920Y023298D01*
X022920Y023199D02*
X022713Y023199D01*
X022763Y023101D02*
X022870Y023101D01*
X022829Y023002D02*
X022804Y023002D01*
X022811Y022904D02*
X022822Y022904D01*
X022833Y022805D02*
X022800Y022805D01*
X024327Y023199D02*
X035099Y023199D01*
X035001Y023101D02*
X024377Y023101D01*
X024418Y023002D02*
X034902Y023002D01*
X034804Y022904D02*
X024425Y022904D01*
X024414Y022805D02*
X034705Y022805D01*
X034482Y023374D02*
X034633Y023436D01*
X034749Y023552D01*
X035414Y024217D01*
X035418Y024219D01*
X035471Y024275D01*
X035526Y024330D01*
X035528Y024333D01*
X035531Y024336D01*
X035559Y024409D01*
X035589Y024480D01*
X035589Y024484D01*
X035590Y024488D01*
X035589Y024566D01*
X035589Y024643D01*
X035661Y024715D01*
X035749Y024929D01*
X035749Y025159D01*
X035661Y025372D01*
X035498Y025536D01*
X035285Y025624D01*
X035054Y025624D01*
X034841Y025536D01*
X034678Y025372D01*
X034589Y025159D01*
X034589Y024929D01*
X034678Y024715D01*
X034715Y024678D01*
X034231Y024194D01*
X026441Y024194D01*
X025844Y024791D01*
X025693Y024854D01*
X025530Y024854D01*
X025380Y024791D01*
X025264Y024676D01*
X025202Y024525D01*
X025202Y024362D01*
X025264Y024211D01*
X026039Y023436D01*
X026190Y023374D01*
X034482Y023374D01*
X034536Y023396D02*
X035296Y023396D01*
X035198Y023298D02*
X024327Y023298D01*
X024327Y023396D02*
X026136Y023396D01*
X025981Y023495D02*
X024327Y023495D01*
X024327Y023593D02*
X025882Y023593D01*
X025784Y023692D02*
X024327Y023692D01*
X024327Y023790D02*
X025685Y023790D01*
X025587Y023889D02*
X024327Y023889D01*
X024327Y023987D02*
X025488Y023987D01*
X025390Y024086D02*
X024327Y024086D01*
X024327Y024184D02*
X025291Y024184D01*
X025235Y024283D02*
X024327Y024283D01*
X024327Y024381D02*
X025202Y024381D01*
X025202Y024480D02*
X024327Y024480D01*
X024327Y024578D02*
X025224Y024578D01*
X025265Y024677D02*
X024327Y024677D01*
X024327Y024775D02*
X025364Y024775D01*
X025860Y024775D02*
X034653Y024775D01*
X034612Y024874D02*
X024327Y024874D01*
X024327Y024972D02*
X034589Y024972D01*
X034589Y025071D02*
X024327Y025071D01*
X024327Y025169D02*
X034594Y025169D01*
X034634Y025268D02*
X024327Y025268D01*
X024327Y025366D02*
X034675Y025366D01*
X034770Y025465D02*
X024327Y025465D01*
X024355Y025563D02*
X034908Y025563D01*
X035431Y025563D02*
X037468Y025563D01*
X037401Y025536D02*
X037238Y025372D01*
X037149Y025159D01*
X037149Y024929D01*
X037238Y024715D01*
X037401Y024552D01*
X037614Y024464D01*
X037845Y024464D01*
X038058Y024552D01*
X038221Y024715D01*
X038309Y024929D01*
X038309Y025159D01*
X038221Y025372D01*
X038058Y025536D01*
X037845Y025624D01*
X037614Y025624D01*
X037401Y025536D01*
X037330Y025465D02*
X035569Y025465D01*
X035664Y025366D02*
X037235Y025366D01*
X037194Y025268D02*
X035704Y025268D01*
X035745Y025169D02*
X037154Y025169D01*
X037149Y025071D02*
X035749Y025071D01*
X035749Y024972D02*
X037149Y024972D01*
X037172Y024874D02*
X035727Y024874D01*
X035686Y024775D02*
X037213Y024775D01*
X037276Y024677D02*
X035623Y024677D01*
X035589Y024578D02*
X037375Y024578D01*
X037575Y024480D02*
X035589Y024480D01*
X035548Y024381D02*
X040667Y024381D01*
X040657Y024480D02*
X037883Y024480D01*
X038084Y024578D02*
X040664Y024578D01*
X040705Y024677D02*
X038183Y024677D01*
X038246Y024775D02*
X040788Y024775D01*
X041301Y024775D02*
X043367Y024775D01*
X043367Y024840D02*
X043367Y024428D01*
X043658Y024137D01*
X044070Y024137D01*
X044257Y024325D01*
X044445Y024137D01*
X044857Y024137D01*
X045148Y024428D01*
X045148Y024840D01*
X044857Y025131D01*
X044445Y025131D01*
X044257Y024943D01*
X044075Y025126D01*
X044361Y025412D01*
X044361Y025824D01*
X044070Y026115D01*
X043658Y026115D01*
X043367Y025824D01*
X043367Y025412D01*
X043653Y025126D01*
X043367Y024840D01*
X043401Y024874D02*
X038287Y024874D01*
X038309Y024972D02*
X043500Y024972D01*
X043598Y025071D02*
X038309Y025071D01*
X038305Y025169D02*
X043609Y025169D01*
X043511Y025268D02*
X038264Y025268D01*
X038224Y025366D02*
X043412Y025366D01*
X043367Y025465D02*
X038129Y025465D01*
X037991Y025563D02*
X043367Y025563D01*
X043367Y025662D02*
X024462Y025662D01*
X024655Y025760D02*
X043367Y025760D01*
X043402Y025859D02*
X024820Y025859D01*
X024895Y025957D02*
X043500Y025957D01*
X043599Y026056D02*
X024935Y026056D01*
X024937Y026154D02*
X049535Y026154D01*
X049535Y026056D02*
X044129Y026056D01*
X044227Y025957D02*
X049535Y025957D01*
X049535Y025859D02*
X044326Y025859D01*
X044361Y025760D02*
X049535Y025760D01*
X049535Y025662D02*
X044361Y025662D01*
X044361Y025563D02*
X049535Y025563D01*
X049535Y025465D02*
X044361Y025465D01*
X044315Y025366D02*
X049535Y025366D01*
X049535Y025268D02*
X044217Y025268D01*
X044118Y025169D02*
X049535Y025169D01*
X049535Y025071D02*
X044917Y025071D01*
X045015Y024972D02*
X049535Y024972D01*
X049535Y024874D02*
X045114Y024874D01*
X045148Y024775D02*
X049535Y024775D01*
X049535Y024677D02*
X045148Y024677D01*
X045148Y024578D02*
X049535Y024578D01*
X049535Y024480D02*
X045148Y024480D01*
X045102Y024381D02*
X049535Y024381D01*
X049535Y024283D02*
X045003Y024283D01*
X044905Y024184D02*
X049535Y024184D01*
X049535Y024086D02*
X041335Y024086D01*
X041335Y024184D02*
X043610Y024184D01*
X043512Y024283D02*
X041382Y024283D01*
X041423Y024381D02*
X043413Y024381D01*
X043367Y024480D02*
X041433Y024480D01*
X041426Y024578D02*
X043367Y024578D01*
X043367Y024677D02*
X041385Y024677D01*
X041335Y023987D02*
X049535Y023987D01*
X049535Y023889D02*
X041335Y023889D01*
X041335Y023790D02*
X049535Y023790D01*
X049535Y023692D02*
X041335Y023692D01*
X041335Y023593D02*
X049535Y023593D01*
X049535Y023495D02*
X046053Y023495D01*
X045975Y023540D02*
X045975Y023540D01*
X046273Y023368D01*
X046273Y023368D01*
X046273Y023368D01*
X046476Y023088D01*
X046476Y023088D01*
X046548Y022751D01*
X046476Y022413D01*
X046273Y022134D01*
X046273Y022134D01*
X045975Y021961D01*
X045975Y021961D01*
X045631Y021925D01*
X045631Y021925D01*
X045303Y022032D01*
X045303Y022032D01*
X045047Y022263D01*
X045047Y022263D01*
X044906Y022578D01*
X044906Y022923D01*
X045047Y023239D01*
X045047Y023239D01*
X045303Y023470D01*
X045303Y023470D01*
X045631Y023576D01*
X045631Y023576D01*
X045975Y023540D01*
X046224Y023396D02*
X049535Y023396D01*
X049535Y023298D02*
X046324Y023298D01*
X046396Y023199D02*
X049535Y023199D01*
X049535Y023101D02*
X046467Y023101D01*
X046495Y023002D02*
X049535Y023002D01*
X049535Y022904D02*
X046516Y022904D01*
X046537Y022805D02*
X049535Y022805D01*
X049919Y022313D02*
X049965Y022313D01*
X050008Y022214D02*
X049919Y022214D01*
X049919Y022116D02*
X050008Y022116D01*
X050008Y022017D02*
X049919Y022017D01*
X049919Y021919D02*
X050008Y021919D01*
X050008Y021820D02*
X049919Y021820D01*
X049919Y021722D02*
X050008Y021722D01*
X050008Y021623D02*
X049919Y021623D01*
X049919Y021525D02*
X050008Y021525D01*
X050008Y021426D02*
X049919Y021426D01*
X049919Y021328D02*
X050008Y021328D01*
X050008Y021229D02*
X049919Y021229D01*
X049919Y021131D02*
X050008Y021131D01*
X050008Y021032D02*
X049919Y021032D01*
X049919Y020934D02*
X050008Y020934D01*
X050008Y020835D02*
X049919Y020835D01*
X049885Y020737D02*
X050008Y020737D01*
X050008Y020638D02*
X039215Y020638D01*
X039313Y020540D02*
X050008Y020540D01*
X050008Y020441D02*
X039412Y020441D01*
X039510Y020343D02*
X050008Y020343D01*
X050008Y020244D02*
X039609Y020244D01*
X039707Y020146D02*
X050008Y020146D01*
X050008Y020047D02*
X039806Y020047D01*
X039904Y019949D02*
X050008Y019949D01*
X050008Y019850D02*
X040003Y019850D01*
X040101Y019752D02*
X050008Y019752D01*
X050008Y019653D02*
X040200Y019653D01*
X040298Y019555D02*
X050008Y019555D01*
X050008Y019456D02*
X040397Y019456D01*
X040495Y019358D02*
X050008Y019358D01*
X050008Y019259D02*
X040594Y019259D01*
X040641Y019212D02*
X040641Y019212D01*
X040692Y019161D02*
X050008Y019161D01*
X050008Y019062D02*
X040757Y019062D01*
X040784Y018964D02*
X050008Y018964D01*
X050008Y018865D02*
X040784Y018865D01*
X040784Y018767D02*
X050008Y018767D01*
X050008Y018668D02*
X040784Y018668D01*
X040784Y018570D02*
X050008Y018570D01*
X050008Y018471D02*
X040804Y018471D01*
X040842Y018373D02*
X050008Y018373D01*
X050008Y018274D02*
X040842Y018274D01*
X040822Y018176D02*
X050008Y018176D01*
X050008Y018077D02*
X040779Y018077D01*
X040680Y017979D02*
X050008Y017979D01*
X050008Y017880D02*
X011058Y017880D01*
X011058Y017782D02*
X050008Y017782D01*
X050008Y017683D02*
X011058Y017683D01*
X011058Y017585D02*
X050008Y017585D01*
X050008Y017486D02*
X011058Y017486D01*
X011058Y017388D02*
X050008Y017388D01*
X050008Y017289D02*
X011058Y017289D01*
X011058Y017191D02*
X050008Y017191D01*
X047874Y020737D02*
X039116Y020737D01*
X039018Y020835D02*
X047840Y020835D01*
X047840Y020934D02*
X038919Y020934D01*
X038821Y021032D02*
X047840Y021032D01*
X047840Y021131D02*
X038722Y021131D01*
X038624Y021229D02*
X047840Y021229D01*
X047840Y021328D02*
X038525Y021328D01*
X038413Y021426D02*
X047840Y021426D01*
X047840Y021525D02*
X018777Y021525D01*
X018853Y021623D02*
X047840Y021623D01*
X047840Y021722D02*
X018853Y021722D01*
X018853Y021820D02*
X047840Y021820D01*
X047840Y021919D02*
X035062Y021919D01*
X035210Y022017D02*
X045348Y022017D01*
X045210Y022116D02*
X035308Y022116D01*
X035407Y022214D02*
X045101Y022214D01*
X045024Y022313D02*
X035505Y022313D01*
X035604Y022411D02*
X044981Y022411D01*
X044937Y022510D02*
X035702Y022510D01*
X035801Y022608D02*
X044906Y022608D01*
X044906Y022707D02*
X035899Y022707D01*
X035998Y022805D02*
X044906Y022805D01*
X044906Y022904D02*
X036096Y022904D01*
X036195Y023002D02*
X044941Y023002D01*
X044985Y023101D02*
X041009Y023101D01*
X041156Y023199D02*
X045029Y023199D01*
X045112Y023298D02*
X041254Y023298D01*
X041316Y023396D02*
X045222Y023396D01*
X045381Y023495D02*
X041335Y023495D01*
X040375Y024283D02*
X035480Y024283D01*
X035381Y024184D02*
X036084Y024184D01*
X035986Y024086D02*
X035283Y024086D01*
X035184Y023987D02*
X035887Y023987D01*
X035789Y023889D02*
X035086Y023889D01*
X034987Y023790D02*
X035690Y023790D01*
X035592Y023692D02*
X034889Y023692D01*
X034790Y023593D02*
X035493Y023593D01*
X035395Y023495D02*
X034692Y023495D01*
X034320Y024283D02*
X026353Y024283D01*
X026254Y024381D02*
X034418Y024381D01*
X034517Y024480D02*
X026156Y024480D01*
X026057Y024578D02*
X034615Y024578D01*
X034714Y024677D02*
X025959Y024677D01*
X024921Y026253D02*
X049535Y026253D01*
X049535Y026351D02*
X024880Y026351D01*
X024784Y026450D02*
X049535Y026450D01*
X049535Y026548D02*
X023855Y026548D01*
X023855Y026450D02*
X024313Y026450D01*
X024218Y026351D02*
X023855Y026351D01*
X023932Y026253D02*
X024177Y026253D01*
X024140Y026154D02*
X023973Y026154D01*
X023973Y026056D02*
X024034Y026056D01*
X023855Y026647D02*
X049535Y026647D01*
X049535Y026745D02*
X046033Y026745D01*
X045975Y026711D02*
X046273Y026884D01*
X046476Y027163D01*
X046548Y027501D01*
X046548Y027501D01*
X046476Y027838D01*
X046476Y027838D01*
X046273Y028118D01*
X045975Y028290D01*
X045975Y028290D01*
X045631Y028326D01*
X045303Y028220D01*
X045047Y027989D01*
X045047Y027989D01*
X044906Y027673D01*
X044906Y027328D01*
X045047Y027013D01*
X045303Y026782D01*
X045303Y026782D01*
X045631Y026675D01*
X045631Y026675D01*
X045975Y026711D01*
X046204Y026844D02*
X049535Y026844D01*
X049535Y026942D02*
X046316Y026942D01*
X046273Y026884D02*
X046273Y026884D01*
X046387Y027041D02*
X049535Y027041D01*
X049535Y027139D02*
X046459Y027139D01*
X046492Y027238D02*
X049535Y027238D01*
X049535Y027336D02*
X046513Y027336D01*
X046534Y027435D02*
X048145Y027435D01*
X047951Y027533D02*
X046541Y027533D01*
X046520Y027632D02*
X047758Y027632D01*
X047648Y027730D02*
X046499Y027730D01*
X046478Y027829D02*
X047550Y027829D01*
X047451Y027927D02*
X046412Y027927D01*
X046340Y028026D02*
X047373Y028026D01*
X047323Y028124D02*
X046262Y028124D01*
X046273Y028118D02*
X046273Y028118D01*
X046273Y028118D01*
X046091Y028223D02*
X047273Y028223D01*
X047223Y028321D02*
X045678Y028321D01*
X045631Y028326D02*
X045631Y028326D01*
X045616Y028321D02*
X024252Y028321D01*
X024217Y028355D02*
X024327Y028246D01*
X024386Y028104D01*
X024386Y027949D01*
X024327Y027807D01*
X024217Y027697D01*
X024075Y027638D01*
X023920Y027638D01*
X023778Y027697D01*
X023669Y027807D01*
X023610Y027949D01*
X023610Y028104D01*
X023669Y028246D01*
X023778Y028355D01*
X023920Y028415D01*
X024075Y028415D01*
X024217Y028355D01*
X024336Y028223D02*
X045313Y028223D01*
X045303Y028220D02*
X045303Y028220D01*
X045197Y028124D02*
X024377Y028124D01*
X024386Y028026D02*
X045088Y028026D01*
X045019Y027927D02*
X024377Y027927D01*
X024336Y027829D02*
X044975Y027829D01*
X044932Y027730D02*
X024250Y027730D01*
X023895Y027533D02*
X044906Y027533D01*
X044906Y027435D02*
X023936Y027435D01*
X023953Y027336D02*
X044906Y027336D01*
X044946Y027238D02*
X023952Y027238D01*
X023911Y027139D02*
X044990Y027139D01*
X045034Y027041D02*
X023855Y027041D01*
X023855Y026942D02*
X045125Y026942D01*
X045047Y027013D02*
X045047Y027013D01*
X045047Y027013D01*
X045234Y026844D02*
X023855Y026844D01*
X023855Y026745D02*
X045416Y026745D01*
X044906Y027632D02*
X023799Y027632D01*
X023745Y027730D02*
X023500Y027730D01*
X023548Y027829D02*
X023659Y027829D01*
X023619Y027927D02*
X023589Y027927D01*
X023598Y028026D02*
X023610Y028026D01*
X023618Y028124D02*
X023590Y028124D01*
X023549Y028223D02*
X023659Y028223D01*
X023744Y028321D02*
X023464Y028321D01*
X022956Y028321D02*
X022677Y028321D01*
X022762Y028223D02*
X022872Y028223D01*
X022831Y028124D02*
X022802Y028124D01*
X022811Y028026D02*
X022822Y028026D01*
X022831Y027927D02*
X022802Y027927D01*
X022761Y027829D02*
X022872Y027829D01*
X022920Y027730D02*
X022713Y027730D01*
X022713Y027632D02*
X022920Y027632D01*
X022920Y027533D02*
X022713Y027533D01*
X022713Y027435D02*
X022920Y027435D01*
X019545Y021328D02*
X011058Y021328D01*
X011058Y020441D02*
X038478Y020441D01*
X038577Y020343D02*
X011058Y020343D01*
X011058Y020244D02*
X038675Y020244D01*
X038774Y020146D02*
X011058Y020146D01*
X011058Y020047D02*
X038872Y020047D01*
X038971Y019949D02*
X011058Y019949D01*
X011058Y018471D02*
X040104Y018471D01*
X040066Y018373D02*
X011058Y018373D01*
X011058Y018274D02*
X040066Y018274D01*
X040086Y018176D02*
X011058Y018176D01*
X011058Y018077D02*
X040130Y018077D01*
X040229Y017979D02*
X011058Y017979D01*
X013107Y012660D02*
X013198Y012660D01*
X014779Y012266D02*
X014786Y012266D01*
X014779Y012167D02*
X014885Y012167D01*
X014983Y012069D02*
X014779Y012069D01*
X014736Y011970D02*
X015129Y011970D01*
X015711Y009015D02*
X011058Y009015D01*
X011058Y008917D02*
X015625Y008917D01*
X015584Y008818D02*
X011058Y008818D01*
X011058Y008720D02*
X015551Y008720D01*
X015551Y008621D02*
X011058Y008621D01*
X011058Y008523D02*
X015551Y008523D01*
X015551Y008424D02*
X011058Y008424D01*
X011058Y008326D02*
X015551Y008326D01*
X015551Y008227D02*
X011058Y008227D01*
X011058Y008129D02*
X015551Y008129D01*
X015551Y008030D02*
X011058Y008030D01*
X011058Y007932D02*
X015551Y007932D01*
X015564Y007833D02*
X011058Y007833D01*
X011058Y007735D02*
X015605Y007735D01*
X015663Y007636D02*
X011058Y007636D01*
X011058Y007538D02*
X015762Y007538D01*
X015966Y007439D02*
X011058Y007439D01*
X011058Y007341D02*
X016423Y007341D01*
X016423Y007242D02*
X011058Y007242D01*
X011058Y007144D02*
X016423Y007144D01*
X016387Y007045D02*
X011058Y007045D01*
X011058Y006947D02*
X016387Y006947D01*
X016387Y006848D02*
X011058Y006848D01*
X011058Y006750D02*
X016387Y006750D01*
X016387Y006651D02*
X011058Y006651D01*
X011058Y006553D02*
X016387Y006553D01*
X016387Y006454D02*
X011058Y006454D01*
X011058Y006356D02*
X016387Y006356D01*
X016387Y006257D02*
X011058Y006257D01*
X011058Y006159D02*
X016327Y006159D01*
X016286Y006060D02*
X011058Y006060D01*
X011058Y005962D02*
X012009Y005962D01*
X011772Y005863D02*
X011058Y005863D01*
X011058Y005765D02*
X011579Y005765D01*
X011449Y005666D02*
X011058Y005666D01*
X011058Y005568D02*
X011351Y005568D01*
X011252Y005469D02*
X011058Y005469D01*
X011058Y005371D02*
X011163Y005371D01*
X011113Y005272D02*
X011058Y005272D01*
X011058Y005174D02*
X011063Y005174D01*
X012837Y005962D02*
X016268Y005962D01*
X016267Y005863D02*
X013074Y005863D01*
X013267Y005765D02*
X016226Y005765D01*
X016190Y005666D02*
X013397Y005666D01*
X013495Y005568D02*
X016190Y005568D01*
X016190Y005469D02*
X013594Y005469D01*
X013682Y005371D02*
X016213Y005371D01*
X016253Y005272D02*
X013733Y005272D01*
X013783Y005174D02*
X016268Y005174D01*
X016273Y005075D02*
X013833Y005075D01*
X013883Y004977D02*
X016314Y004977D01*
X016356Y004878D02*
X013904Y004878D01*
X013920Y004780D02*
X016405Y004780D01*
X016421Y004681D02*
X013936Y004681D01*
X013951Y004583D02*
X016462Y004583D01*
X016552Y004484D02*
X013967Y004484D01*
X013952Y004386D02*
X016651Y004386D01*
X016749Y004287D02*
X013936Y004287D01*
X013920Y004189D02*
X016848Y004189D01*
X016946Y004090D02*
X013905Y004090D01*
X013884Y003992D02*
X017045Y003992D01*
X017143Y003893D02*
X013834Y003893D01*
X013784Y003795D02*
X017291Y003795D01*
X013734Y003696D02*
X047332Y003696D01*
X047383Y003598D02*
X013684Y003598D01*
X013596Y003499D02*
X047470Y003499D01*
X047569Y003401D02*
X013498Y003401D01*
X013399Y003302D02*
X047667Y003302D01*
X047794Y003204D02*
X013272Y003204D01*
X016216Y007439D02*
X016451Y007439D01*
X016451Y007538D02*
X016421Y007538D01*
X026528Y012069D02*
X026873Y012069D01*
X026774Y012167D02*
X026590Y012167D01*
X026590Y012266D02*
X026676Y012266D01*
X028161Y009114D02*
X028665Y009114D01*
X028533Y009015D02*
X028293Y009015D01*
X028380Y008917D02*
X028446Y008917D01*
X034736Y018668D02*
X036793Y018668D01*
X036649Y018767D02*
X034879Y018767D01*
X034843Y019653D02*
X036685Y019653D01*
X036880Y019752D02*
X034648Y019752D01*
X044117Y024184D02*
X044398Y024184D01*
X044299Y024283D02*
X044216Y024283D01*
X044228Y024972D02*
X044287Y024972D01*
X044385Y025071D02*
X044129Y025071D01*
X046539Y022707D02*
X047942Y022707D01*
X047843Y022608D02*
X046518Y022608D01*
X046497Y022510D02*
X047840Y022510D01*
X047840Y022411D02*
X046475Y022411D01*
X046476Y022413D02*
X046476Y022413D01*
X046403Y022313D02*
X047840Y022313D01*
X047840Y022214D02*
X046332Y022214D01*
X046273Y022134D02*
X046273Y022134D01*
X046242Y022116D02*
X047840Y022116D01*
X047840Y022017D02*
X046071Y022017D01*
X049142Y027435D02*
X049535Y027435D01*
X049535Y027533D02*
X049335Y027533D01*
X049529Y027632D02*
X049605Y027632D01*
X049638Y027730D02*
X049704Y027730D01*
X049737Y027829D02*
X049802Y027829D01*
X049835Y027927D02*
X049901Y027927D01*
X049914Y028026D02*
X049999Y028026D01*
X050008Y028124D02*
X049964Y028124D01*
X047472Y005469D02*
X045919Y005469D01*
X046017Y005371D02*
X047384Y005371D01*
X047334Y005272D02*
X046116Y005272D01*
X046134Y005174D02*
X047283Y005174D01*
X047233Y005075D02*
X046134Y005075D01*
X046134Y004977D02*
X047183Y004977D01*
X047162Y004878D02*
X046134Y004878D01*
X046050Y004780D02*
X047146Y004780D01*
D27*
X032265Y012357D02*
X027108Y012357D01*
X026557Y012908D01*
X021320Y012908D01*
X020927Y013302D01*
X015769Y013302D01*
X015257Y013814D01*
X014588Y013814D01*
X014982Y013302D02*
X014076Y013302D01*
X013565Y012790D02*
X014785Y012790D01*
X015257Y012318D01*
X020297Y012318D01*
X020651Y012830D02*
X021084Y012397D01*
X026202Y012397D01*
X020651Y012830D02*
X015454Y012830D01*
X014982Y013302D01*
X014391Y012278D02*
X013013Y012278D01*
X014490Y008105D02*
X015002Y008105D01*
D28*
X018411Y032857D02*
X018368Y032900D01*
X018368Y033578D01*
X017856Y034089D01*
X017226Y034089D01*
X015887Y035428D01*
X015887Y035574D01*
X017856Y035574D02*
X017856Y036452D01*
X018411Y037007D01*
X018411Y037857D01*
X017383Y036963D02*
X012738Y036963D01*
X012423Y037278D01*
X012423Y037845D01*
X012411Y037857D01*
X017383Y036963D02*
X017856Y036491D01*
X017856Y036452D01*
X022580Y037082D02*
X022580Y037845D01*
X022569Y037857D01*
X022580Y037082D02*
X022620Y037042D01*
X022698Y037042D01*
X022817Y036924D01*
X027659Y036924D01*
X027994Y036589D01*
X028569Y037164D01*
X028569Y037857D01*
X027994Y036589D02*
X028053Y036530D01*
X028053Y035534D01*
X028131Y034129D02*
X026478Y034129D01*
X026084Y034522D01*
X026084Y035534D01*
X028131Y034129D02*
X028565Y033696D01*
X028565Y032861D01*
X028569Y032857D01*
X032620Y036924D02*
X032462Y037082D01*
X032462Y037593D01*
X032541Y037672D01*
X032541Y037806D01*
X032490Y037857D01*
X032620Y036924D02*
X037659Y036924D01*
X037817Y036767D01*
X038490Y037440D01*
X038490Y037857D01*
X037817Y036767D02*
X037935Y036648D01*
X037935Y035456D01*
X037541Y034208D02*
X036478Y034208D01*
X035966Y034719D01*
X035966Y035456D01*
X037541Y034208D02*
X038407Y033341D01*
X038407Y033066D01*
X038368Y033026D01*
X038368Y032979D01*
X038490Y032857D01*
X042935Y037121D02*
X042935Y037767D01*
X042844Y037857D01*
X042935Y037121D02*
X043092Y036963D01*
X048013Y036963D01*
X048289Y036688D01*
X048844Y037243D01*
X048844Y037857D01*
X048289Y036688D02*
X048289Y035534D01*
X048525Y034168D02*
X046793Y034168D01*
X046320Y034641D01*
X046320Y035534D01*
X048525Y034168D02*
X048840Y033853D01*
X048840Y032861D01*
X048844Y032857D01*
D29*
X034969Y008302D02*
X034969Y006846D01*
X034977Y006927D01*
X034977Y005749D01*
X034780Y005552D01*
X036552Y005749D02*
X036552Y006927D01*
X036552Y005749D02*
X036749Y005552D01*
X030765Y005552D02*
X030569Y005749D01*
X030569Y006927D01*
X028994Y006927D02*
X028994Y005749D01*
X028797Y005552D01*
X028985Y006846D02*
X028994Y006927D01*
X028985Y006846D02*
X028913Y008302D01*
X024782Y005552D02*
X024585Y005749D01*
X024585Y006927D01*
X023010Y006927D02*
X023010Y005749D01*
X022814Y005552D01*
X023002Y006919D02*
X023010Y006927D01*
X023002Y006919D02*
X023002Y008302D01*
X018799Y005552D02*
X018602Y005749D01*
X018602Y006927D01*
X017091Y006991D02*
X017027Y006927D01*
X017027Y005749D01*
X016830Y005552D01*
X017091Y006991D02*
X017091Y008302D01*
M02*
