999
dxflib 3.3.4.0
  0
SECTION
  2
HEADER
  9
$ACADVER
  1
AC1015
  9
$HANDSEED
  5
FFFF
  9
$ANGBASE
 50
0.0
  9
$ATTMODE
 70
1
  9
$AUNITS
 70
0
  9
$AUPREC
 70
0
  9
$CELTSCALE
 40
1.0
  9
$CHAMFERA
 40
0.0
  9
$CHAMFERB
 40
0.0
  9
$CHAMFERC
 40
0.0
  9
$CHAMFERD
 40
0.0
  9
$CMLJUST
 70
0
  9
$CMLSCALE
 40
1.0
  9
$DIMADEC
 70
0
  9
$DIMALTD
 70
2
  9
$DIMALTF
 40
25.399999999999999
  9
$DIMALTRND
 40
0.0
  9
$DIMALTTD
 70
2
  9
$DIMALTTZ
 70
0
  9
$DIMALTU
 70
2
  9
$DIMALTZ
 70
0
  9
$DIMAPOST
  1

  9
$DIMASZ
 40
0.18
  9
$DIMATFIT
 70
3
  9
$DIMAUNIT
 70
0
  9
$DIMAZIN
 70
0
  9
$DIMCEN
 40
0.09
  9
$DIMDEC
 70
4
  9
$DIMDLE
 40
0.0
  9
$DIMDLI
 40
0.38
  9
$DIMDSEP
 70
46
  9
$DIMEXE
 40
0.18
  9
$DIMEXO
 40
0.0625
  9
$DIMFRAC
 70
0
  9
$DIMGAP
 40
0.09
  9
$DIMJUST
 70
0
  9
$DIMLFAC
 40
1.0
  9
$DIMLUNIT
 70
2
  9
$DIMLWD
 70
-2
  9
$DIMLWE
 70
-2
  9
$DIMPOST
  1

  9
$DIMRND
 40
0.0
  9
$DIMSCALE
 40
1.0
  9
$DIMTAD
 70
0
  9
$DIMTDEC
 70
4
  9
$DIMTFAC
 40
1.0
  9
$DIMTM
 40
0.0
  9
$DIMTOLJ
 70
1
  9
$DIMTP
 40
0.0
  9
$DIMTSZ
 40
0.0
  9
$DIMTVP
 40
0.0
  9
$DIMTXT
 40
0.18
  9
$DIMTZIN
 70
0
  9
$DIMZIN
 70
0
  9
$DWGCODEPAGE
  3
ANSI_1252
  9
$ELEVATION
 40
0.0
  9
$EXTMAX
 10
-100000000000000000000.0
 20
-100000000000000000000.0
 30
-100000000000000000000.0
  9
$EXTMIN
 10
100000000000000000000.0
 20
100000000000000000000.0
 30
100000000000000000000.0
  9
$FILLETRAD
 40
0.5
  9
$INSBASE
 10
0.0
 20
0.0
 30
0.0
  9
$INSUNITS
 70
0
  9
$LIMMAX
 10
12.0
 20
9.0
  9
$LIMMIN
 10
0.0
 20
0.0
  9
$LTSCALE
 40
1.0
  9
$LUNITS
 70
2
  9
$LUPREC
 70
4
  9
$MAXACTVP
 70
64
  9
$PDMODE
 70
0
  9
$PDSIZE
 40
0.0
  9
$PELEVATION
 40
0.0
  9
$PEXTMAX
 10
-100000000000000000000.0
 20
-100000000000000000000.0
 30
-100000000000000000000.0
  9
$PEXTMIN
 10
100000000000000000000.0
 20
100000000000000000000.0
 30
100000000000000000000.0
  9
$PINSBASE
 10
0.0
 20
0.0
 30
0.0
  9
$PLIMMAX
 10
12.0
 20
9.0
  9
$PLIMMIN
 10
0.0
 20
0.0
  9
$PLINEWID
 40
0.0
  9
$PROXYGRAPHICS
 70
1
  9
$PUCSORG
 10
0.0
 20
0.0
 30
0.0
  9
$PUCSXDIR
 10
1.0
 20
0.0
 30
0.0
  9
$PUCSYDIR
 10
0.0
 20
1.0
 30
0.0
  9
$SHADEDGE
 70
3
  9
$SHADEDIF
 70
70
  9
$SKETCHINC
 40
0.1
  9
$SPLINESEGS
 70
8
  9
$SPLINETYPE
 70
6
  9
$SURFTAB1
 70
6
  9
$SURFTAB2
 70
6
  9
$SURFTYPE
 70
6
  9
$SURFU
 70
6
  9
$SURFV
 70
6
  9
$TEXTSIZE
 40
2.5
  9
$THICKNESS
 40
0.0
  9
$TRACEWID
 40
0.05
  9
$TREEDEPTH
 70
3020
  9
$UCSORG
 10
0.0
 20
0.0
 30
0.0
  9
$UCSXDIR
 10
1.0
 20
0.0
 30
0.0
  9
$UCSYDIR
 10
0.0
 20
1.0
 30
0.0
  9
$UNITMODE
 70
0
  9
$USERI1
 70
0
  9
$USERI2
 70
0
  9
$USERI3
 70
0
  9
$USERI4
 70
0
  9
$USERI5
 70
0
  9
$USERR1
 40
0.0
  9
$USERR2
 40
0.0
  9
$USERR3
 40
0.0
  9
$USERR4
 40
0.0
  9
$USERR5
 40
0.0
  0
ENDSEC
  0
SECTION
  2
TABLES
  0
TABLE
  2
VPORT
  5
8
100
AcDbSymbolTable
 70
1
  0
VPORT
  5
30
100
AcDbSymbolTableRecord
100
AcDbViewportTableRecord
  2
*Active
 70
0
 10
0.0
 20
0.0
 11
1.0
 21
1.0
 12
286.30555555555549
 22
148.5
 13
0.0
 23
0.0
 14
10.0
 24
10.0
 15
10.0
 25
10.0
 16
0.0
 26
0.0
 36
1.0
 17
0.0
 27
0.0
 37
0.0
 40
297.0
 41
1.92798353909465
 42
50.0
 43
0.0
 44
0.0
 50
0.0
 51
0.0
 71
0
 72
100
 73
1
 74
3
 75
1
 76
1
 77
0
 78
0
281
0
 65
1
110
0.0
120
0.0
130
0.0
111
1.0
121
0.0
131
0.0
112
0.0
122
1.0
132
0.0
 79
0
146
0.0
  0
ENDTAB
  0
TABLE
  2
LTYPE
  5
5
100
AcDbSymbolTable
 70
21
  0
LTYPE
  5
16
100
AcDbSymbolTableRecord
100
AcDbLinetypeTableRecord
  2
CONTINUOUS
 70
0
  3
Solid line
 72
65
 73
0
 40
0.0
  0
LTYPE
  5
31
100
AcDbSymbolTableRecord
100
AcDbLinetypeTableRecord
  2
CENTER2
 70
0
  3
Center (.5x) ___ _ ___ _ ___ _ ___ _ ___ _ ___
 72
65
 73
4
 40
28.574999999999999
 49
19.050000000000001
 74
0
 49
-3.1749999999999998
 74
0
 49
3.1749999999999998
 74
0
 49
-3.1749999999999998
 74
0
  0
LTYPE
  5
32
100
AcDbSymbolTableRecord
100
AcDbLinetypeTableRecord
  2
DIVIDEX2
 70
0
  3
Divide (2x) ________  .  .  ________  .  .  _
 72
65
 73
6
 40
63.5
 49
25.399999999999999
 74
0
 49
-12.699999999999999
 74
0
 49
0.0
 74
0
 49
-12.699999999999999
 74
0
 49
0.0
 74
0
 49
-12.699999999999999
 74
0
  0
LTYPE
  5
33
100
AcDbSymbolTableRecord
100
AcDbLinetypeTableRecord
  2
DOT2
 70
0
  3
Dot (.5x) .....................................
 72
65
 73
2
 40
3.1749999999999998
 49
0.0
 74
0
 49
-3.1749999999999998
 74
0
  0
LTYPE
  5
34
100
AcDbSymbolTableRecord
100
AcDbLinetypeTableRecord
  2
DASHDOT2
 70
0
  3
Dash dot (.5x) _._._._._._._._._._._._._._._.
 72
65
 73
4
 40
12.699999999999999
 49
6.3499999999999996
 74
0
 49
-3.1749999999999998
 74
0
 49
0.0
 74
0
 49
-3.1749999999999998
 74
0
  0
LTYPE
  5
35
100
AcDbSymbolTableRecord
100
AcDbLinetypeTableRecord
  2
DIVIDE
 70
0
  3
Divide ____ . . ____ . . ____ . . ____ . . ____
 72
65
 73
6
 40
31.75
 49
12.699999999999999
 74
0
 49
-6.3499999999999996
 74
0
 49
0.0
 74
0
 49
-6.3499999999999996
 74
0
 49
0.0
 74
0
 49
-6.3499999999999996
 74
0
  0
LTYPE
  5
36
100
AcDbSymbolTableRecord
100
AcDbLinetypeTableRecord
  2
DASHDOT
 70
0
  3
Dash dot __ . __ . __ . __ . __ . __ . __ . __
 72
65
 73
4
 40
25.399999999999999
 49
12.699999999999999
 74
0
 49
-6.3499999999999996
 74
0
 49
0.0
 74
0
 49
-6.3499999999999996
 74
0
  0
LTYPE
  5
37
100
AcDbSymbolTableRecord
100
AcDbLinetypeTableRecord
  2
BORDER
 70
0
  3
Border __ __ . __ __ . __ __ . __ __ . __ __ .
 72
65
 73
6
 40
44.450000000000003
 49
12.699999999999999
 74
0
 49
-6.3499999999999996
 74
0
 49
12.699999999999999
 74
0
 49
-6.3499999999999996
 74
0
 49
0.0
 74
0
 49
-6.3499999999999996
 74
0
  0
LTYPE
  5
38
100
AcDbSymbolTableRecord
100
AcDbLinetypeTableRecord
  2
DASHDOTX2
 70
0
  3
Dash dot (2x) ____  .  ____  .  ____  .  ___
 72
65
 73
4
 40
50.799999999999997
 49
25.399999999999999
 74
0
 49
-12.699999999999999
 74
0
 49
0.0
 74
0
 49
-12.699999999999999
 74
0
  0
LTYPE
  5
39
100
AcDbSymbolTableRecord
100
AcDbLinetypeTableRecord
  2
CENTERX2
 70
0
  3
Center (2x) ________  __  ________  __  _____
 72
65
 73
4
 40
101.59999999999999
 49
63.5
 74
0
 49
-12.699999999999999
 74
0
 49
12.699999999999999
 74
0
 49
-12.699999999999999
 74
0
  0
LTYPE
  5
3A
100
AcDbSymbolTableRecord
100
AcDbLinetypeTableRecord
  2
BORDER2
 70
0
  3
Border (.5x) __.__.__.__.__.__.__.__.__.__.__.
 72
65
 73
6
 40
22.225000000000001
 49
6.3499999999999996
 74
0
 49
-3.1749999999999998
 74
0
 49
6.3499999999999996
 74
0
 49
-3.1749999999999998
 74
0
 49
0.0
 74
0
 49
-3.1749999999999998
 74
0
  0
LTYPE
  5
3B
100
AcDbSymbolTableRecord
100
AcDbLinetypeTableRecord
  2
BORDERX2
 70
0
  3
Border (2x) ____  ____  .  ____  ____  .  ___
 72
65
 73
6
 40
88.900000000000006
 49
25.399999999999999
 74
0
 49
-12.699999999999999
 74
0
 49
25.399999999999999
 74
0
 49
-12.699999999999999
 74
0
 49
0.0
 74
0
 49
-12.699999999999999
 74
0
  0
LTYPE
  5
14
100
AcDbSymbolTableRecord
100
AcDbLinetypeTableRecord
  2
BYBLOCK
 70
0
  3

 72
65
 73
0
 40
0.0
  0
LTYPE
  5
15
100
AcDbSymbolTableRecord
100
AcDbLinetypeTableRecord
  2
BYLAYER
 70
0
  3

 72
65
 73
0
 40
0.0
  0
LTYPE
  5
3C
100
AcDbSymbolTableRecord
100
AcDbLinetypeTableRecord
  2
DASHED2
 70
0
  3
Dashed (.5x) _ _ _ _ _ _ _ _ _ _ _ _ _ _ _ _ _
 72
65
 73
2
 40
9.5250000000000004
 49
6.3499999999999996
 74
0
 49
-3.1749999999999998
 74
0
  0
LTYPE
  5
3D
100
AcDbSymbolTableRecord
100
AcDbLinetypeTableRecord
  2
CENTER
 70
0
  3
Center ____ _ ____ _ ____ _ ____ _ ____ _ ____
 72
65
 73
4
 40
50.799999999999997
 49
31.75
 74
0
 49
-6.3499999999999996
 74
0
 49
6.3499999999999996
 74
0
 49
-6.3499999999999996
 74
0
  0
LTYPE
  5
3E
100
AcDbSymbolTableRecord
100
AcDbLinetypeTableRecord
  2
DIVIDE2
 70
0
  3
Divide (.5x) __..__..__..__..__..__..__..__.._
 72
65
 73
6
 40
15.875
 49
6.3499999999999996
 74
0
 49
-3.1749999999999998
 74
0
 49
0.0
 74
0
 49
-3.1749999999999998
 74
0
 49
0.0
 74
0
 49
-3.1749999999999998
 74
0
  0
LTYPE
  5
3F
100
AcDbSymbolTableRecord
100
AcDbLinetypeTableRecord
  2
DASHED
 70
0
  3
Dashed __ __ __ __ __ __ __ __ __ __ __ __ __ _
 72
65
 73
2
 40
19.050000000000001
 49
12.699999999999999
 74
0
 49
-6.3499999999999996
 74
0
  0
LTYPE
  5
40
100
AcDbSymbolTableRecord
100
AcDbLinetypeTableRecord
  2
DOTX2
 70
0
  3
Dot (2x) .  .  .  .  .  .  .  .  .  .  .  .  .
 72
65
 73
2
 40
12.699999999999999
 49
0.0
 74
0
 49
-12.699999999999999
 74
0
  0
LTYPE
  5
41
100
AcDbSymbolTableRecord
100
AcDbLinetypeTableRecord
  2
DASHEDX2
 70
0
  3
Dashed (2x) ____  ____  ____  ____  ____  ___
 72
65
 73
2
 40
38.100000000000001
 49
25.399999999999999
 74
0
 49
-12.699999999999999
 74
0
  0
LTYPE
  5
42
100
AcDbSymbolTableRecord
100
AcDbLinetypeTableRecord
  2
DOT
 70
0
  3
Dot . . . . . . . . . . . . . . . . . . . . . .
 72
65
 73
2
 40
6.3499999999999996
 49
0.0
 74
0
 49
-6.3499999999999996
 74
0
  0
ENDTAB
  0
TABLE
  2
LAYER
  5
2
100
AcDbSymbolTable
 70
2
  0
LAYER
  5
43
100
AcDbSymbolTableRecord
100
AcDbLayerTableRecord
  2
Layer0
 70
0
 62
7
420
16777215
  6
CONTINUOUS
370
-3
390
F
  0
LAYER
  5
10
100
AcDbSymbolTableRecord
100
AcDbLayerTableRecord
  2
0
 70
0
 62
7
420
16777215
  6
CONTINUOUS
370
-3
390
F
  0
ENDTAB
  0
TABLE
  2
STYLE
  5
3
100
AcDbSymbolTable
 70
5
  0
STYLE
  5
44
100
AcDbSymbolTableRecord
100
AcDbTextStyleTableRecord
  2
Standard
 70
0
 40
0.0
 41
1.0
 50
0.0
 71
0
 42
2.5
  3

  4

1001
ACAD
1000
txt
1071
0
  0
STYLE
  5
45
100
AcDbSymbolTableRecord
100
AcDbTextStyleTableRecord
  2
textstyle0
 70
0
 40
0.0
 41
1.0
 50
0.0
 71
0
 42
0.0
  3

  4

1001
ACAD
1000
standard
1071
0
  0
STYLE
  5
46
100
AcDbSymbolTableRecord
100
AcDbTextStyleTableRecord
  2
textstyle1
 70
0
 40
0.0
 41
1.0
 50
0.0
 71
0
 42
0.0
  3

  4

1001
ACAD
1000
standard
1071
0
  0
STYLE
  5
47
100
AcDbSymbolTableRecord
100
AcDbTextStyleTableRecord
  2
textstyle2
 70
0
 40
0.0
 41
1.0
 50
0.0
 71
0
 42
4.7625000000000002
  3

  4

1001
ACAD
1000
Standard
1071
0
  0
STYLE
  5
48
100
AcDbSymbolTableRecord
100
AcDbTextStyleTableRecord
  2
textstyle3
 70
0
 40
0.0
 41
1.0
 50
0.0
 71
0
 42
4.7625000000000002
  3

  4

1001
ACAD
1000
Standard
1071
0
  0
ENDTAB
  0
TABLE
  2
VIEW
  5
6
100
AcDbSymbolTable
 70
0
  0
ENDTAB
  0
TABLE
  2
UCS
  5
7
100
AcDbSymbolTable
 70
0
  0
ENDTAB
  0
TABLE
  2
APPID
  5
9
100
AcDbSymbolTable
 70
1
  0
APPID
  5
12
100
AcDbSymbolTableRecord
100
AcDbRegAppTableRecord
  2
ACAD
 70
0
  0
APPID
  5
49
100
AcDbSymbolTableRecord
100
AcDbRegAppTableRecord
  2
QCAD
 70
0
  0
ENDTAB
  0
TABLE
  2
DIMSTYLE
  5
A
100
AcDbSymbolTable
 70
1
100
AcDbDimStyleTable
 71
0
  0
DIMSTYLE
105
27
100
AcDbSymbolTableRecord
100
AcDbDimStyleTableRecord
  2
Standard
 41
0.18
 42
0.0625
 43
3.75
 44
0.18
 70
0
 73
0
 74
0
 77
1
 78
8
140
0.18
141
2.5
143
0.03937007874016
147
0.09
171
3
172
1
271
2
272
2
274
3
278
44
283
0
284
8
340
44
  0
ENDTAB
  0
TABLE
  2
BLOCK_RECORD
  5
1
100
AcDbSymbolTable
 70
1
  0
BLOCK_RECORD
  5
1F
100
AcDbSymbolTableRecord
100
AcDbBlockTableRecord
  2
*Model_Space
340
22
  0
BLOCK_RECORD
  5
1B
100
AcDbSymbolTableRecord
100
AcDbBlockTableRecord
  2
*Paper_Space
340
1E
  0
BLOCK_RECORD
  5
23
100
AcDbSymbolTableRecord
100
AcDbBlockTableRecord
  2
*Paper_Space0
340
26
  0
ENDTAB
  0
ENDSEC
  0
SECTION
  2
BLOCKS
  0
BLOCK
  5
20
100
AcDbEntity
  8
0
100
AcDbBlockBegin
  2
*Model_Space
 70
0
 10
0.0
 20
0.0
 30
0.0
  3
*Model_Space
  1

  0
ENDBLK
  5
21
100
AcDbEntity
  8
0
100
AcDbBlockEnd
  0
BLOCK
  5
1C
100
AcDbEntity
 67
1
  8
0
100
AcDbBlockBegin
  2
*Paper_Space
 70
0
 10
0.0
 20
0.0
 30
0.0
  3
*Paper_Space
  1

  0
ENDBLK
  5
1D
100
AcDbEntity
 67
1
  8
0
100
AcDbBlockEnd
  0
BLOCK
  5
24
100
AcDbEntity
  8
0
100
AcDbBlockBegin
  2
*Paper_Space0
 70
0
 10
0.0
 20
0.0
 30
0.0
  3
*Paper_Space0
  1

  0
ENDBLK
  5
25
100
AcDbEntity
  8
0
100
AcDbBlockEnd
  0
ENDSEC
  0
SECTION
  2
ENTITIES
  0
LINE
  5
4A
100
AcDbEntity
100
AcDbLine
  8
Layer0
 62
256
370
-1
  6
BYLAYER
 10
-344.72127745812998
 20
1282.7172610704999
 30
72.400000000000006
 11
-332.72127745812998
 21
1276.7265995195401
 31
72.400000000000006
  0
LINE
  5
4B
100
AcDbEntity
100
AcDbLine
  8
Layer0
 62
256
370
-1
  6
BYLAYER
 10
-346.00595260436899
 20
1250.0461344099899
 30
72.400000000000105
 11
-346.09113803864602
 21
1250.6931820227501
 31
72.400000000000105
  0
LINE
  5
4C
100
AcDbEntity
100
AcDbLine
  8
Layer0
 62
256
370
-1
  6
BYLAYER
 10
-332.72127745812998
 20
1276.7265995195401
 30
72.400000000000006
 11
-332.72127745812998
 21
1288.7265995195401
 31
72.400000000000006
  0
LINE
  5
4D
100
AcDbEntity
100
AcDbLine
  8
Layer0
 62
256
370
-1
  6
BYLAYER
 10
-345.75620154810798
 20
1249.4431820227501
 30
72.400000000000105
 11
-346.00595260436899
 21
1250.0461344099899
 31
72.400000000000105
  0
LINE
  5
4E
100
AcDbEntity
100
AcDbLine
  8
Layer0
 62
256
370
-1
  6
BYLAYER
 10
-344.72127745812998
 20
1282.7172610704999
 30
72.400000000000006
 11
-332.72127745812998
 21
1288.7265995195401
 31
72.400000000000006
  0
LINE
  5
4F
100
AcDbEntity
100
AcDbLine
  8
Layer0
 62
256
370
-1
  6
BYLAYER
 10
-345.35890499161297
 20
1248.92541506978
 30
72.400000000000105
 11
-345.75620154810798
 21
1249.4431820227501
 31
72.400000000000105
  0
LINE
  5
50
100
AcDbEntity
100
AcDbLine
  8
Layer0
 62
256
370
-1
  6
BYLAYER
 10
-359.94681023833601
 20
1236.2723117114001
 30
72.400000000000006
 11
-360.46586885834699
 21
1236.0265147412899
 31
72.400000000000006
  0
LINE
  5
51
100
AcDbEntity
100
AcDbLine
  8
Layer0
 62
256
370
-1
  6
BYLAYER
 10
-344.84113803864602
 20
1248.5281185132901
 30
72.400000000000105
 11
-345.35890499161297
 21
1248.92541506978
 31
72.400000000000105
  0
LINE
  5
52
100
AcDbEntity
100
AcDbLine
  8
Layer0
 62
256
370
-1
  6
BYLAYER
 10
-359.509055049003
 20
1236.64407560924
 30
72.400000000000006
 11
-359.94681023833601
 21
1236.2723117114001
 31
72.400000000000006
  0
LINE
  5
53
100
AcDbEntity
100
AcDbLine
  8
Layer0
 62
256
370
-1
  6
BYLAYER
 10
-344.238185651403
 20
1248.2783674570301
 30
72.400000000000105
 11
-344.84113803864602
 21
1248.5281185132901
 31
72.400000000000105
  0
LINE
  5
54
100
AcDbEntity
100
AcDbLine
  8
Layer0
 62
256
370
-1
  6
BYLAYER
 10
-359.18243558307501
 20
1237.1164713395301
 30
72.400000000000006
 11
-359.509055049003
 21
1236.64407560924
 31
72.400000000000006
  0
LINE
  5
55
100
AcDbEntity
100
AcDbLine
  8
Layer0
 62
256
370
-1
  6
BYLAYER
 10
-343.59113803864602
 20
1248.1931820227501
 30
72.400000000000105
 11
-344.238185651403
 21
1248.2783674570301
 31
72.400000000000105
  0
LINE
  5
56
100
AcDbEntity
100
AcDbLine
  8
Layer0
 62
256
370
-1
  6
BYLAYER
 10
-358.98921041739197
 20
1237.65730591393
 30
72.400000000000006
 11
-359.18243558307501
 21
1237.1164713395301
 31
72.400000000000006
  0
LINE
  5
57
100
AcDbEntity
100
AcDbLine
  8
Layer0
 62
256
370
-1
  6
BYLAYER
 10
-331.59113803864602
 20
1248.1931820227501
 30
72.400000000000105
 11
-343.59113803864602
 21
1248.1931820227501
 31
72.400000000000105
  0
LINE
  5
58
100
AcDbEntity
100
AcDbLine
  8
Layer0
 62
256
370
-1
  6
BYLAYER
 10
-358.942547527675
 20
1238.22972234997
 30
72.400000000000006
 11
-358.98921041739197
 21
1237.65730591393
 31
72.400000000000006
  0
LINE
  5
59
100
AcDbEntity
100
AcDbLine
  8
Layer0
 62
256
370
-1
  6
BYLAYER
 10
-330.94409042589001
 20
1248.2783674570301
 30
72.400000000000105
 11
-331.59113803864602
 21
1248.1931820227501
 31
72.400000000000105
  0
LINE
  5
5A
100
AcDbEntity
100
AcDbLine
  8
Layer0
 62
256
370
-1
  6
BYLAYER
 10
-359.04562691274401
 20
1238.7947114134899
 30
72.400000000000006
 11
-358.942547527675
 21
1238.22972234997
 31
72.400000000000006
  0
LINE
  5
5B
100
AcDbEntity
100
AcDbLine
  8
Layer0
 62
256
370
-1
  6
BYLAYER
 10
-291.16806238943701
 20
1287.7996952390399
 30
72.400000000000105
 11
-291.805225610283
 21
1287.6584500572201
 31
72.400000000000105
  0
LINE
  5
5C
100
AcDbEntity
100
AcDbLine
  8
Layer0
 62
256
370
-1
  6
BYLAYER
 10
-359.291423882853
 20
1239.3137700335001
 30
72.400000000000006
 11
-359.04562691274401
 21
1238.7947114134899
 31
72.400000000000006
  0
LINE
  5
5D
100
AcDbEntity
100
AcDbLine
  8
Layer0
 62
256
370
-1
  6
BYLAYER
 10
-290.58916692194401
 20
1288.10103758439
 30
72.400000000000105
 11
-291.16806238943701
 21
1287.7996952390399
 31
72.400000000000105
  0
LINE
  5
5E
100
AcDbEntity
100
AcDbLine
  8
Layer0
 62
256
370
-1
  6
BYLAYER
 10
-359.66318778068802
 20
1239.75152522283
 30
72.400000000000006
 11
-359.291423882853
 21
1239.3137700335001
 31
72.400000000000006
  0
LINE
  5
5F
100
AcDbEntity
100
AcDbLine
  8
Layer0
 62
256
370
-1
  6
BYLAYER
 10
-290.10798997724299
 20
1288.5419411104299
 30
72.400000000000105
 11
-290.58916692194401
 21
1288.10103758439
 31
72.400000000000105
  0
LINE
  5
60
100
AcDbEntity
100
AcDbLine
  8
Layer0
 62
256
370
-1
  6
BYLAYER
 10
-360.13558351098101
 20
1240.0781446887599
 30
72.400000000000006
 11
-359.66318778068802
 21
1239.75152522283
 31
72.400000000000006
  0
LINE
  5
61
100
AcDbEntity
100
AcDbLine
  8
Layer0
 62
256
370
-1
  6
BYLAYER
 10
-289.757322968935
 20
1289.0923589704901
 30
72.400000000000105
 11
-290.10798997724299
 21
1288.5419411104299
 31
72.400000000000105
  0
LINE
  5
62
100
AcDbEntity
100
AcDbLine
  8
Layer0
 62
256
370
-1
  6
BYLAYER
 10
-360.67641808538298
 20
1240.2713698544401
 30
72.400000000000006
 11
-360.13558351098101
 21
1240.0781446887599
 31
72.400000000000006
  0
LINE
  5
63
100
AcDbEntity
100
AcDbLine
  8
Layer0
 62
256
370
-1
  6
BYLAYER
 10
-289.56106327412903
 20
1289.71478109701
 30
72.400000000000105
 11
-289.757322968935
 21
1289.0923589704901
 31
72.400000000000105
  0
LINE
  5
64
100
AcDbEntity
100
AcDbLine
  8
Layer0
 62
256
370
-1
  6
BYLAYER
 10
-361.24883452142001
 20
1240.3180327441601
 30
72.400000000000006
 11
-360.67641808538298
 21
1240.2713698544401
 31
72.400000000000006
  0
LINE
  5
65
100
AcDbEntity
100
AcDbLine
  8
Layer0
 62
256
370
-1
  6
BYLAYER
 10
-289.53258566669399
 20
1290.3667904506699
 30
72.400000000000105
 11
-289.56106327412903
 21
1289.71478109701
 31
72.400000000000105
  0
LINE
  5
66
100
AcDbEntity
100
AcDbLine
  8
Layer0
 62
256
370
-1
  6
BYLAYER
 10
-361.81382358493801
 20
1240.21495335909
 30
72.400000000000006
 11
-361.24883452142001
 21
1240.3180327441601
 31
72.400000000000006
  0
LINE
  5
67
100
AcDbEntity
100
AcDbLine
  8
Layer0
 62
256
370
-1
  6
BYLAYER
 10
-289.673830848514
 20
1291.0039536715201
 30
72.400000000000105
 11
-289.53258566669399
 21
1290.3667904506699
 31
72.400000000000105
  0
LINE
  5
68
100
AcDbEntity
100
AcDbLine
  8
Layer0
 62
256
370
-1
  6
BYLAYER
 10
-362.33288220494899
 20
1239.9691563889801
 30
72.400000000000006
 11
-361.81382358493801
 21
1240.21495335909
 31
72.400000000000006
  0
LINE
  5
69
100
AcDbEntity
100
AcDbLine
  8
Layer0
 62
256
370
-1
  6
BYLAYER
 10
-289.975173193866
 20
1291.58284913901
 30
72.400000000000105
 11
-289.673830848514
 21
1291.0039536715201
 31
72.400000000000105
  0
LINE
  5
6A
100
AcDbEntity
100
AcDbLine
  8
Layer0
 62
256
370
-1
  6
BYLAYER
 10
-362.77063739428201
 20
1239.59739249114
 30
72.400000000000006
 11
-362.33288220494899
 21
1239.9691563889801
 31
72.400000000000006
  0
LINE
  5
6B
100
AcDbEntity
100
AcDbLine
  8
Layer0
 62
256
370
-1
  6
BYLAYER
 10
-290.41607671990698
 20
1292.0640260837099
 30
72.400000000000105
 11
-289.975173193866
 21
1291.58284913901
 31
72.400000000000105
  0
LINE
  5
6C
100
AcDbEntity
100
AcDbLine
  8
Layer0
 62
256
370
-1
  6
BYLAYER
 10
-363.09725686020897
 20
1239.1249967608501
 30
72.400000000000006
 11
-362.77063739428201
 21
1239.59739249114
 31
72.400000000000006
  0
LINE
  5
6D
100
AcDbEntity
100
AcDbLine
  8
Layer0
 62
256
370
-1
  6
BYLAYER
 10
-290.966494579965
 20
1292.4146930920199
 30
72.400000000000105
 11
-290.41607671990698
 21
1292.0640260837099
 31
72.400000000000105
  0
LINE
  5
6E
100
AcDbEntity
100
AcDbLine
  8
Layer0
 62
256
370
-1
  6
BYLAYER
 10
-363.29048202589303
 20
1238.5841621864499
 30
72.400000000000006
 11
-363.09725686020897
 21
1239.1249967608501
 31
72.400000000000006
  0
LINE
  5
6F
100
AcDbEntity
100
AcDbLine
  8
Layer0
 62
256
370
-1
  6
BYLAYER
 10
-291.58891670648501
 20
1292.61095278682
 30
72.400000000000105
 11
-290.966494579965
 21
1292.4146930920199
 31
72.400000000000105
  0
LINE
  5
70
100
AcDbEntity
100
AcDbLine
  8
Layer0
 62
256
370
-1
  6
BYLAYER
 10
-363.33714491561
 20
1238.01174575041
 30
72.400000000000006
 11
-363.29048202589303
 21
1238.5841621864499
 31
72.400000000000006
  0
LINE
  5
71
100
AcDbEntity
100
AcDbLine
  8
Layer0
 62
256
370
-1
  6
BYLAYER
 10
-292.02307583521502
 20
1292.64894022574
 30
72.400000000000105
 11
-291.58891670648501
 21
1292.61095278682
 31
72.400000000000105
  0
LINE
  5
72
100
AcDbEntity
100
AcDbLine
  8
Layer0
 62
256
370
-1
  6
BYLAYER
 10
-363.23406553054099
 20
1237.44675668689
 30
72.400000000000006
 11
-363.33714491561
 21
1238.01174575041
 31
72.400000000000006
  0
LINE
  5
73
100
AcDbEntity
100
AcDbLine
  8
Layer0
 62
256
370
-1
  6
BYLAYER
 10
-304.02307583521502
 20
1292.64894022574
 30
72.400000000000105
 11
-292.02307583521502
 21
1292.64894022574
 31
72.400000000000105
  0
LINE
  5
74
100
AcDbEntity
100
AcDbLine
  8
Layer0
 62
256
370
-1
  6
BYLAYER
 10
-362.988268560432
 20
1236.9276980668801
 30
72.400000000000006
 11
-363.23406553054099
 21
1237.44675668689
 31
72.400000000000006
  0
LINE
  5
75
100
AcDbEntity
100
AcDbLine
  8
Layer0
 62
256
370
-1
  6
BYLAYER
 10
-304.67012344797098
 20
1292.56375479146
 30
72.400000000000105
 11
-304.02307583521502
 21
1292.64894022574
 31
72.400000000000105
  0
LINE
  5
76
100
AcDbEntity
100
AcDbLine
  8
Layer0
 62
256
370
-1
  6
BYLAYER
 10
-362.61650466259698
 20
1236.48994287755
 30
72.400000000000006
 11
-362.988268560432
 21
1236.9276980668801
 31
72.400000000000006
  0
LINE
  5
77
100
AcDbEntity
100
AcDbLine
  8
Layer0
 62
256
370
-1
  6
BYLAYER
 10
-305.27307583521502
 20
1292.3140037352
 30
72.400000000000105
 11
-304.67012344797098
 21
1292.56375479146
 31
72.400000000000105
  0
LINE
  5
78
100
AcDbEntity
100
AcDbLine
  8
Layer0
 62
256
370
-1
  6
BYLAYER
 10
-362.14410893230399
 20
1236.16332341162
 30
72.400000000000006
 11
-362.61650466259698
 21
1236.48994287755
 31
72.400000000000006
  0
LINE
  5
79
100
AcDbEntity
100
AcDbLine
  8
Layer0
 62
256
370
-1
  6
BYLAYER
 10
-305.79084278818101
 20
1291.9167071787001
 30
72.400000000000105
 11
-305.27307583521502
 21
1292.3140037352
 31
72.400000000000105
  0
LINE
  5
7A
100
AcDbEntity
100
AcDbLine
  8
Layer0
 62
256
370
-1
  6
BYLAYER
 10
-361.60327435790202
 20
1235.9700982459401
 30
72.400000000000006
 11
-362.14410893230399
 21
1236.16332341162
 31
72.400000000000006
  0
LINE
  5
7B
100
AcDbEntity
100
AcDbLine
  8
Layer0
 62
256
370
-1
  6
BYLAYER
 10
-306.18813934467602
 20
1291.39894022574
 30
72.400000000000105
 11
-305.79084278818101
 21
1291.9167071787001
 31
72.400000000000105
  0
LINE
  5
7C
100
AcDbEntity
100
AcDbLine
  8
Layer0
 62
256
370
-1
  6
BYLAYER
 10
-361.03085792186499
 20
1235.9234353562199
 30
72.400000000000006
 11
-361.60327435790202
 21
1235.9700982459401
 31
72.400000000000006
  0
LINE
  5
7D
100
AcDbEntity
100
AcDbLine
  8
Layer0
 62
256
370
-1
  6
BYLAYER
 10
-306.43789040093702
 20
1290.79598783849
 30
72.400000000000105
 11
-306.18813934467602
 21
1291.39894022574
 31
72.400000000000105
  0
LINE
  5
7E
100
AcDbEntity
100
AcDbLine
  8
Layer0
 62
256
370
-1
  6
BYLAYER
 10
-360.46586885834699
 20
1236.0265147412899
 30
72.400000000000006
 11
-361.03085792186499
 21
1235.9234353562199
 31
72.400000000000006
  0
LINE
  5
7F
100
AcDbEntity
100
AcDbLine
  8
Layer0
 62
256
370
-1
  6
BYLAYER
 10
-306.52307583521502
 20
1290.14894022574
 30
72.400000000000105
 11
-306.43789040093702
 21
1290.79598783849
 31
72.400000000000105
  0
LINE
  5
80
100
AcDbEntity
100
AcDbLine
  8
Layer0
 62
256
370
-1
  6
BYLAYER
 10
-361.13984622164202
 20
1265.92073405019
 30
72.400000000000006
 11
-361.70924812086798
 21
1265.99569723235
 31
72.400000000000006
  0
LINE
  5
81
100
AcDbEntity
100
AcDbLine
  8
Layer0
 62
256
370
-1
  6
BYLAYER
 10
-306.43789040093702
 20
1289.5018926129801
 30
72.400000000000105
 11
-306.52307583521502
 21
1290.14894022574
 31
72.400000000000105
  0
LINE
  5
82
100
AcDbEntity
100
AcDbLine
  8
Layer0
 62
256
370
-1
  6
BYLAYER
 10
-360.57044432241702
 20
1265.99569723235
 30
72.400000000000006
 11
-361.13984622164202
 21
1265.92073405019
 31
72.400000000000006
  0
LINE
  5
83
100
AcDbEntity
100
AcDbLine
  8
Layer0
 62
256
370
-1
  6
BYLAYER
 10
-306.18813934467602
 20
1288.89894022574
 30
72.400000000000105
 11
-306.43789040093702
 21
1289.5018926129801
 31
72.400000000000105
  0
LINE
  5
84
100
AcDbEntity
100
AcDbLine
  8
Layer0
 62
256
370
-1
  6
BYLAYER
 10
-360.03984622164199
 20
1266.2154781618599
 30
72.400000000000006
 11
-360.57044432241702
 21
1265.99569723235
 31
72.400000000000006
  0
LINE
  5
85
100
AcDbEntity
100
AcDbLine
  8
Layer0
 62
256
370
-1
  6
BYLAYER
 10
-305.79084278818101
 20
1288.38117327277
 30
72.400000000000105
 11
-306.18813934467602
 21
1288.89894022574
 31
72.400000000000105
  0
LINE
  5
86
100
AcDbEntity
100
AcDbLine
  8
Layer0
 62
256
370
-1
  6
BYLAYER
 10
-359.58421130303202
 20
1266.5650991315799
 30
72.400000000000006
 11
-360.03984622164199
 21
1266.2154781618599
 31
72.400000000000006
  0
LINE
  5
87
100
AcDbEntity
100
AcDbLine
  8
Layer0
 62
256
370
-1
  6
BYLAYER
 10
-305.27307583521502
 20
1287.9838767162801
 30
72.400000000000105
 11
-305.79084278818101
 21
1288.38117327277
 31
72.400000000000105
  0
LINE
  5
88
100
AcDbEntity
100
AcDbLine
  8
Layer0
 62
256
370
-1
  6
BYLAYER
 10
-359.23459033331699
 20
1267.02073405019
 30
72.400000000000006
 11
-359.58421130303202
 21
1266.5650991315799
 31
72.400000000000006
  0
LINE
  5
89
100
AcDbEntity
100
AcDbLine
  8
Layer0
 62
256
370
-1
  6
BYLAYER
 10
-304.67012344797098
 20
1287.73412566001
 30
72.400000000000105
 11
-305.27307583521502
 21
1287.9838767162801
 31
72.400000000000105
  0
LINE
  5
8A
100
AcDbEntity
100
AcDbLine
  8
Layer0
 62
256
370
-1
  6
BYLAYER
 10
-359.01480940380702
 20
1267.55133215096
 30
72.400000000000006
 11
-359.23459033331699
 21
1267.02073405019
 31
72.400000000000006
  0
LINE
  5
8B
100
AcDbEntity
100
AcDbLine
  8
Layer0
 62
256
370
-1
  6
BYLAYER
 10
-304.02307583521502
 20
1287.64894022574
 30
72.400000000000105
 11
-304.67012344797098
 21
1287.73412566001
 31
72.400000000000105
  0
LINE
  5
8C
100
AcDbEntity
100
AcDbLine
  8
Layer0
 62
256
370
-1
  6
BYLAYER
 10
-358.93984622164197
 20
1268.1207340501901
 30
72.400000000000006
 11
-359.01480940380702
 21
1267.55133215096
 31
72.400000000000006
  0
LINE
  5
8D
100
AcDbEntity
100
AcDbLine
  8
Layer0
 62
256
370
-1
  6
BYLAYER
 10
-291.805225610283
 20
1287.6584500572201
 30
72.400000000000105
 11
-304.02307583521502
 21
1287.64894022574
 31
72.400000000000105
  0
LINE
  5
8E
100
AcDbEntity
100
AcDbLine
  8
Layer0
 62
256
370
-1
  6
BYLAYER
 10
-359.01480940380702
 20
1268.69013594942
 30
72.400000000000006
 11
-358.93984622164197
 21
1268.1207340501901
 31
72.400000000000006
  0
LINE
  5
8F
100
AcDbEntity
100
AcDbLine
  8
Layer0
 62
256
370
-1
  6
BYLAYER
 10
-268.68371497758301
 20
1296.67479214016
 30
72.400000000000006
 11
-268.63984622164202
 21
1298.01242189809
 31
72.400000000000006
  0
LINE
  5
90
100
AcDbEntity
100
AcDbLine
  8
Layer0
 62
256
370
-1
  6
BYLAYER
 10
-359.23459033331699
 20
1269.22073405019
 30
72.400000000000006
 11
-359.01480940380702
 21
1268.69013594942
 31
72.400000000000006
  0
LINE
  5
91
100
AcDbEntity
100
AcDbLine
  8
Layer0
 62
256
370
-1
  6
BYLAYER
 10
-268.81513271246598
 20
1295.34291105838
 30
72.400000000000006
 11
-268.68371497758301
 21
1296.67479214016
 31
72.400000000000006
  0
LINE
  5
92
100
AcDbEntity
100
AcDbLine
  8
Layer0
 62
256
370
-1
  6
BYLAYER
 10
-359.58421130303202
 20
1269.6763689688
 30
72.400000000000006
 11
-359.23459033331699
 21
1269.22073405019
 31
72.400000000000006
  0
LINE
  5
93
100
AcDbEntity
100
AcDbLine
  8
Layer0
 62
256
370
-1
  6
BYLAYER
 10
-269.03353463771998
 20
1294.0225026230601
 30
72.400000000000006
 11
-268.81513271246598
 21
1295.34291105838
 31
72.400000000000006
  0
LINE
  5
94
100
AcDbEntity
100
AcDbLine
  8
Layer0
 62
256
370
-1
  6
BYLAYER
 10
-360.03984622164199
 20
1270.0259899385201
 30
72.400000000000006
 11
-359.58421130303202
 21
1269.6763689688
 31
72.400000000000006
  0
LINE
  5
95
100
AcDbEntity
100
AcDbLine
  8
Layer0
 62
256
370
-1
  6
BYLAYER
 10
-269.33798213641398
 20
1292.7192414989599
 30
72.400000000000006
 11
-269.03353463771998
 21
1294.0225026230601
 31
72.400000000000006
  0
LINE
  5
96
100
AcDbEntity
100
AcDbLine
  8
Layer0
 62
256
370
-1
  6
BYLAYER
 10
-360.57044432241702
 20
1270.2457708680299
 30
72.400000000000006
 11
-360.03984622164199
 21
1270.0259899385201
 31
72.400000000000006
  0
LINE
  5
97
100
AcDbEntity
100
AcDbLine
  8
Layer0
 62
256
370
-1
  6
BYLAYER
 10
-269.72716679711101
 20
1291.43872865759
 30
72.400000000000006
 11
-269.33798213641398
 21
1292.7192414989599
 31
72.400000000000006
  0
LINE
  5
98
100
AcDbEntity
100
AcDbLine
  8
Layer0
 62
256
370
-1
  6
BYLAYER
 10
-361.13984622164202
 20
1270.3207340501899
 30
72.400000000000006
 11
-360.57044432241702
 21
1270.2457708680299
 31
72.400000000000006
  0
LINE
  5
99
100
AcDbEntity
100
AcDbLine
  8
Layer0
 62
256
370
-1
  6
BYLAYER
 10
-270.19941603697299
 20
1290.18646730608
 30
72.400000000000006
 11
-269.72716679711101
 21
1291.43872865759
 31
72.400000000000006
  0
LINE
  5
9A
100
AcDbEntity
100
AcDbLine
  8
Layer0
 62
256
370
-1
  6
BYLAYER
 10
-361.70924812086798
 20
1270.2457708680299
 30
72.400000000000006
 11
-361.13984622164202
 21
1270.3207340501899
 31
72.400000000000006
  0
LINE
  5
9B
100
AcDbEntity
100
AcDbLine
  8
Layer0
 62
256
370
-1
  6
BYLAYER
 10
-270.75270028995197
 20
1288.9678392363101
 30
72.400000000000006
 11
-270.19941603697299
 21
1290.18646730608
 31
72.400000000000006
  0
LINE
  5
9C
100
AcDbEntity
100
AcDbLine
  8
Layer0
 62
256
370
-1
  6
BYLAYER
 10
-362.23984622164198
 20
1270.0259899385201
 30
72.400000000000006
 11
-361.70924812086798
 21
1270.2457708680299
 31
72.400000000000006
  0
LINE
  5
9D
100
AcDbEntity
100
AcDbLine
  8
Layer0
 62
256
370
-1
  6
BYLAYER
 10
-271.38464172917202
 20
1287.78808169578
 30
72.400000000000006
 11
-270.75270028995197
 21
1288.9678392363101
 31
72.400000000000006
  0
LINE
  5
9E
100
AcDbEntity
100
AcDbLine
  8
Layer0
 62
256
370
-1
  6
BYLAYER
 10
-362.69548114025298
 20
1269.6763689688
 30
72.400000000000006
 11
-362.23984622164198
 21
1270.0259899385201
 31
72.400000000000006
  0
LINE
  5
9F
100
AcDbEntity
100
AcDbLine
  8
Layer0
 62
256
370
-1
  6
BYLAYER
 10
-272.092524486017
 20
1286.65226487974
 30
72.400000000000006
 11
-271.38464172917202
 21
1287.78808169578
 31
72.400000000000006
  0
LINE
  5
A0
100
AcDbEntity
100
AcDbLine
  8
Layer0
 62
256
370
-1
  6
BYLAYER
 10
-363.04510210996801
 20
1269.22073405019
 30
72.400000000000006
 11
-362.69548114025298
 21
1269.6763689688
 31
72.400000000000006
  0
LINE
  5
A1
100
AcDbEntity
100
AcDbLine
  8
Layer0
 62
256
370
-1
  6
BYLAYER
 10
-272.87330632200701
 20
1285.5652701412
 30
72.400000000000105
 11
-272.092524486017
 21
1286.65226487974
 31
72.400000000000006
  0
LINE
  5
A2
100
AcDbEntity
100
AcDbLine
  8
Layer0
 62
256
370
-1
  6
BYLAYER
 10
-363.26488303947798
 20
1268.69013594942
 30
72.400000000000006
 11
-363.04510210996801
 21
1269.22073405019
 31
72.400000000000006
  0
LINE
  5
A3
100
AcDbEntity
100
AcDbLine
  8
Layer0
 62
256
370
-1
  6
BYLAYER
 10
-273.723631703303
 20
1284.53176901253
 30
72.400000000000105
 11
-272.87330632200701
 21
1285.5652701412
 31
72.400000000000105
  0
LINE
  5
A4
100
AcDbEntity
100
AcDbLine
  8
Layer0
 62
256
370
-1
  6
BYLAYER
 10
-363.33984622164297
 20
1268.1207340501901
 30
72.400000000000006
 11
-363.26488303947798
 21
1268.69013594942
 31
72.400000000000006
  0
LINE
  5
A5
100
AcDbEntity
100
AcDbLine
  8
Layer0
 62
256
370
-1
  6
BYLAYER
 10
-274.63984622164202
 20
1283.55620312884
 30
72.400000000000105
 11
-273.723631703303
 21
1284.53176901253
 31
72.400000000000105
  0
LINE
  5
A6
100
AcDbEntity
100
AcDbLine
  8
Layer0
 62
256
370
-1
  6
BYLAYER
 10
-363.26488303947798
 20
1267.55133215096
 30
72.400000000000006
 11
-363.33984622164297
 21
1268.1207340501901
 31
72.400000000000006
  0
LINE
  5
A7
100
AcDbEntity
100
AcDbLine
  8
Layer0
 62
256
370
-1
  6
BYLAYER
 10
-335.44790368932701
 20
1222.92073405019
 30
72.400000000000006
 11
-274.63984622164202
 21
1283.55620312884
 31
72.400000000000105
  0
LINE
  5
A8
100
AcDbEntity
100
AcDbLine
  8
Layer0
 62
256
370
-1
  6
BYLAYER
 10
-363.04510210996801
 20
1267.02073405019
 30
72.400000000000006
 11
-363.26488303947798
 21
1267.55133215096
 31
72.400000000000006
  0
LINE
  5
A9
100
AcDbEntity
100
AcDbLine
  8
Layer0
 62
256
370
-1
  6
BYLAYER
 10
-336.42913981423601
 20
1222.0042116019199
 30
72.400000000000006
 11
-335.44790368932701
 21
1222.92073405019
 31
72.400000000000006
  0
LINE
  5
AA
100
AcDbEntity
100
AcDbLine
  8
Layer0
 62
256
370
-1
  6
BYLAYER
 10
-362.69548114025298
 20
1266.5650991315799
 30
72.400000000000006
 11
-363.04510210996801
 21
1267.02073405019
 31
72.400000000000006
  0
LINE
  5
AB
100
AcDbEntity
100
AcDbLine
  8
Layer0
 62
256
370
-1
  6
BYLAYER
 10
-337.46811775652799
 20
1221.15370436124
 30
72.400000000000006
 11
-336.42913981423601
 21
1222.0042116019199
 31
72.400000000000006
  0
LINE
  5
AC
100
AcDbEntity
100
AcDbLine
  8
Layer0
 62
256
370
-1
  6
BYLAYER
 10
-362.23984622164198
 20
1266.2154781618599
 30
72.400000000000006
 11
-362.69548114025298
 21
1266.5650991315799
 31
72.400000000000006
  0
LINE
  5
AD
100
AcDbEntity
100
AcDbLine
  8
Layer0
 62
256
370
-1
  6
BYLAYER
 10
-338.56040453358798
 20
1220.3728411672801
 30
72.400000000000006
 11
-337.46811775652799
 21
1221.15370436124
 31
72.400000000000006
  0
LINE
  5
AE
100
AcDbEntity
100
AcDbLine
  8
Layer0
 62
256
370
-1
  6
BYLAYER
 10
-361.70924812086798
 20
1265.99569723235
 30
72.400000000000006
 11
-362.23984622164198
 21
1266.2154781618599
 31
72.400000000000006
  0
LINE
  5
AF
100
AcDbEntity
100
AcDbLine
  8
Layer0
 62
256
370
-1
  6
BYLAYER
 10
-339.70133971125898
 20
1219.66495371057
 30
72.400000000000006
 11
-338.56040453358798
 21
1220.3728411672801
 31
72.400000000000006
  0
LINE
  5
B0
100
AcDbEntity
100
AcDbLine
  8
Layer0
 62
256
370
-1
  6
BYLAYER
 10
-286.03043583794698
 20
1311.45568445454
 30
72.400000000000006
 11
-286.57748288845801
 21
1311.63054876207
 31
72.400000000000006
  0
LINE
  5
B1
100
AcDbEntity
100
AcDbLine
  8
Layer0
 62
256
370
-1
  6
BYLAYER
 10
-340.886055288401
 20
1219.0330623177699
 30
72.400000000000006
 11
-339.70133971125898
 21
1219.66495371057
 31
72.400000000000006
  0
LINE
  5
B2
100
AcDbEntity
100
AcDbLine
  8
Layer0
 62
256
370
-1
  6
BYLAYER
 10
-285.456770750565
 20
1311.42836469903
 30
72.400000000000006
 11
-286.03043583794698
 21
1311.45568445454
 31
72.400000000000006
  0
LINE
  5
B3
100
AcDbEntity
100
AcDbLine
  8
Layer0
 62
256
370
-1
  6
BYLAYER
 10
-342.10949646708099
 20
1218.47986306494
 30
72.400000000000006
 11
-340.886055288401
 21
1219.0330623177699
 31
72.400000000000006
  0
LINE
  5
B4
100
AcDbEntity
100
AcDbLine
  8
Layer0
 62
256
370
-1
  6
BYLAYER
 10
-284.89558195399002
 20
1311.5504512917501
 30
72.400000000000006
 11
-285.456770750565
 21
1311.42836469903
 31
72.400000000000006
  0
LINE
  5
B5
100
AcDbEntity
100
AcDbLine
  8
Layer0
 62
256
370
-1
  6
BYLAYER
 10
-343.36644321975899
 20
1218.00771627426
 30
72.400000000000006
 11
-342.10949646708099
 21
1218.47986306494
 31
72.400000000000006
  0
LINE
  5
B6
100
AcDbEntity
100
AcDbLine
  8
Layer0
 62
256
370
-1
  6
BYLAYER
 10
-284.38511353730098
 20
1311.81362423315
 30
72.400000000000006
 11
-284.89558195399002
 21
1311.5504512917501
 31
72.400000000000006
  0
LINE
  5
B7
100
AcDbEntity
100
AcDbLine
  8
Layer0
 62
256
370
-1
  6
BYLAYER
 10
-344.65153256145101
 20
1217.6186364432599
 30
72.400000000000006
 11
-343.36644321975899
 21
1218.00771627426
 31
72.400000000000006
  0
LINE
  5
B8
100
AcDbEntity
100
AcDbLine
  8
Layer0
 62
256
370
-1
  6
BYLAYER
 10
-283.96015307950597
 20
1312.1999487221899
 30
72.400000000000006
 11
-284.38511353730098
 21
1311.81362423315
 31
72.400000000000006
  0
LINE
  5
B9
100
AcDbEntity
100
AcDbLine
  8
Layer0
 62
256
370
-1
  6
BYLAYER
 10
-345.95928143185699
 20
1217.31428364967
 30
72.400000000000006
 11
-344.65153256145101
 21
1217.6186364432599
 31
72.400000000000006
  0
LINE
  5
BA
100
AcDbEntity
100
AcDbLine
  8
Layer0
 62
256
370
-1
  6
BYLAYER
 10
-283.64966093352399
 20
1312.6830973833701
 30
72.400000000000006
 11
-283.96015307950597
 21
1312.1999487221899
 31
72.400000000000006
  0
LINE
  5
BB
100
AcDbEntity
100
AcDbLine
  8
Layer0
 62
256
370
-1
  6
BYLAYER
 10
-347.28411008980203
 20
1217.0959564683501
 30
72.400000000000006
 11
-345.95928143185699
 21
1217.31428364967
 31
72.400000000000006
  0
LINE
  5
BC
100
AcDbEntity
100
AcDbLine
  8
Layer0
 62
256
370
-1
  6
BYLAYER
 10
-283.47479662599
 20
1313.23014443388
 30
72.400000000000006
 11
-283.64966093352399
 21
1312.6830973833701
 31
72.400000000000006
  0
LINE
  5
BD
100
AcDbEntity
100
AcDbLine
  8
Layer0
 62
256
370
-1
  6
BYLAYER
 10
-348.62036592018302
 20
1216.9645864307099
 30
72.400000000000006
 11
-347.28411008980203
 21
1217.0959564683501
 31
72.400000000000006
  0
LINE
  5
BE
100
AcDbEntity
100
AcDbLine
  8
Layer0
 62
256
370
-1
  6
BYLAYER
 10
-283.44747687048601
 20
1313.8038095212701
 30
72.400000000000006
 11
-283.47479662599
 21
1313.23014443388
 31
72.400000000000006
  0
LINE
  5
BF
100
AcDbEntity
100
AcDbLine
  8
Layer0
 62
256
370
-1
  6
BYLAYER
 10
-349.96234755185401
 20
1216.92073405019
 30
72.400000000000006
 11
-348.62036592018302
 21
1216.9645864307099
 31
72.400000000000006
  0
LINE
  5
C0
100
AcDbEntity
100
AcDbLine
  8
Layer0
 62
256
370
-1
  6
BYLAYER
 10
-283.56956346320197
 20
1314.36499831784
 30
72.400000000000006
 11
-283.44747687048601
 21
1313.8038095212701
 31
72.400000000000006
  0
LINE
  5
C1
100
AcDbEntity
100
AcDbLine
  8
Layer0
 62
256
370
-1
  6
BYLAYER
 10
-367.63984622164202
 20
1216.92073405019
 30
72.400000000000006
 11
-349.96234755185401
 21
1216.92073405019
 31
72.400000000000006
  0
LINE
  5
C2
100
AcDbEntity
100
AcDbLine
  8
Layer0
 62
256
370
-1
  6
BYLAYER
 10
-283.83273640460101
 20
1314.8754667345299
 30
72.400000000000006
 11
-283.56956346320197
 21
1314.36499831784
 31
72.400000000000006
  0
LINE
  5
C3
100
AcDbEntity
100
AcDbLine
  8
Layer0
 62
256
370
-1
  6
BYLAYER
 10
-368.423003374963
 20
1216.97206488195
 30
72.400000000000006
 11
-367.63984622164202
 21
1216.92073405019
 31
72.400000000000006
  0
LINE
  5
C4
100
AcDbEntity
100
AcDbLine
  8
Layer0
 62
256
370
-1
  6
BYLAYER
 10
-284.21906089364199
 20
1315.3004271923301
 30
72.400000000000006
 11
-283.83273640460101
 21
1314.8754667345299
 31
72.400000000000006
  0
LINE
  5
C5
100
AcDbEntity
100
AcDbLine
  8
Layer0
 62
256
370
-1
  6
BYLAYER
 10
-369.192760492258
 20
1217.12517909246
 30
72.400000000000006
 11
-368.423003374963
 21
1216.97206488195
 31
72.400000000000006
  0
LINE
  5
C6
100
AcDbEntity
100
AcDbLine
  8
Layer0
 62
256
370
-1
  6
BYLAYER
 10
-284.70220955482699
 20
1315.6109193383099
 30
72.400000000000006
 11
-284.21906089364199
 21
1315.3004271923301
 31
72.400000000000006
  0
LINE
  5
C7
100
AcDbEntity
100
AcDbLine
  8
Layer0
 62
256
370
-1
  6
BYLAYER
 10
-369.93594681583301
 20
1217.37745685512
 30
72.400000000000006
 11
-369.192760492258
 21
1217.12517909246
 31
72.400000000000006
  0
LINE
  5
C8
100
AcDbEntity
100
AcDbLine
  8
Layer0
 62
256
370
-1
  6
BYLAYER
 10
-285.24925660533802
 20
1315.78578364584
 30
72.400000000000006
 11
-284.70220955482699
 21
1315.6109193383099
 31
72.400000000000006
  0
LINE
  5
C9
100
AcDbEntity
100
AcDbLine
  8
Layer0
 62
256
370
-1
  6
BYLAYER
 10
-370.63984622164202
 20
1217.7245816274799
 30
72.400000000000006
 11
-369.93594681583301
 21
1217.37745685512
 31
72.400000000000006
  0
LINE
  5
CA
100
AcDbEntity
100
AcDbLine
  8
Layer0
 62
256
370
-1
  6
BYLAYER
 10
-285.82292169272
 20
1315.81310340135
 30
72.400000000000006
 11
-285.24925660533802
 21
1315.78578364584
 31
72.400000000000006
  0
LINE
  5
CB
100
AcDbEntity
100
AcDbLine
  8
Layer0
 62
256
370
-1
  6
BYLAYER
 10
-371.29241479569498
 20
1218.16061400844
 30
72.400000000000006
 11
-370.63984622164202
 21
1217.7245816274799
 31
72.400000000000006
  0
LINE
  5
CC
100
AcDbEntity
100
AcDbLine
  8
Layer0
 62
256
370
-1
  6
BYLAYER
 10
-286.38411048929498
 20
1315.6910168086299
 30
72.400000000000006
 11
-285.82292169272
 21
1315.81310340135
 31
72.400000000000006
  0
LINE
  5
CD
100
AcDbEntity
100
AcDbLine
  8
Layer0
 62
256
370
-1
  6
BYLAYER
 10
-371.88248690876202
 20
1218.67809336307
 30
72.400000000000006
 11
-371.29241479569498
 21
1218.16061400844
 31
72.400000000000006
  0
LINE
  5
CE
100
AcDbEntity
100
AcDbLine
  8
Layer0
 62
256
370
-1
  6
BYLAYER
 10
-286.894578905983
 20
1315.42784386723
 30
72.400000000000006
 11
-286.38411048929498
 21
1315.6910168086299
 31
72.400000000000006
  0
LINE
  5
CF
100
AcDbEntity
100
AcDbLine
  8
Layer0
 62
256
370
-1
  6
BYLAYER
 10
-372.39996626339001
 20
1219.26816547614
 30
72.400000000000006
 11
-371.88248690876202
 21
1218.67809336307
 31
72.400000000000006
  0
LINE
  5
D0
100
AcDbEntity
100
AcDbLine
  8
Layer0
 62
256
370
-1
  6
BYLAYER
 10
-287.31953936377801
 20
1315.0415193781901
 30
72.400000000000006
 11
-286.894578905983
 21
1315.42784386723
 31
72.400000000000006
  0
LINE
  5
D1
100
AcDbEntity
100
AcDbLine
  8
Layer0
 62
256
370
-1
  6
BYLAYER
 10
-372.83599864434899
 20
1219.92073405019
 30
72.400000000000006
 11
-372.39996626339001
 21
1219.26816547614
 31
72.400000000000006
  0
LINE
  5
D2
100
AcDbEntity
100
AcDbLine
  8
Layer0
 62
256
370
-1
  6
BYLAYER
 10
-287.63003150976101
 20
1314.5583707169999
 30
72.400000000000006
 11
-287.31953936377801
 21
1315.0415193781901
 31
72.400000000000006
  0
LINE
  5
D3
100
AcDbEntity
100
AcDbLine
  8
Layer0
 62
256
370
-1
  6
BYLAYER
 10
-373.18312341670998
 20
1220.6246334560001
 30
72.400000000000006
 11
-372.83599864434899
 21
1219.92073405019
 31
72.400000000000006
  0
LINE
  5
D4
100
AcDbEntity
100
AcDbLine
  8
Layer0
 62
256
370
-1
  6
BYLAYER
 10
-287.80489581729501
 20
1314.0113236664899
 30
72.400000000000006
 11
-287.63003150976101
 21
1314.5583707169999
 31
72.400000000000006
  0
LINE
  5
D5
100
AcDbEntity
100
AcDbLine
  8
Layer0
 62
256
370
-1
  6
BYLAYER
 10
-373.43540117937698
 20
1221.36781977957
 30
72.400000000000006
 11
-373.18312341670998
 21
1220.6246334560001
 31
72.400000000000006
  0
LINE
  5
D6
100
AcDbEntity
100
AcDbLine
  8
Layer0
 62
256
370
-1
  6
BYLAYER
 10
-287.83221557279899
 20
1313.4376585791099
 30
72.400000000000006
 11
-287.80489581729501
 21
1314.0113236664899
 31
72.400000000000006
  0
LINE
  5
D7
100
AcDbEntity
100
AcDbLine
  8
Layer0
 62
256
370
-1
  6
BYLAYER
 10
-373.588515389885
 20
1222.1375768968701
 30
72.400000000000006
 11
-373.43540117937698
 21
1221.36781977957
 31
72.400000000000006
  0
LINE
  5
D8
100
AcDbEntity
100
AcDbLine
  8
Layer0
 62
256
370
-1
  6
BYLAYER
 10
-287.71012898008303
 20
1312.87646978254
 30
72.400000000000006
 11
-287.83221557279899
 21
1313.4376585791099
 31
72.400000000000006
  0
LINE
  5
D9
100
AcDbEntity
100
AcDbLine
  8
Layer0
 62
256
370
-1
  6
BYLAYER
 10
-373.63984622164202
 20
1222.92073405019
 30
72.400000000000006
 11
-373.588515389885
 21
1222.1375768968701
 31
72.400000000000006
  0
LINE
  5
DA
100
AcDbEntity
100
AcDbLine
  8
Layer0
 62
256
370
-1
  6
BYLAYER
 10
-287.44695603868303
 20
1312.36600136585
 30
72.400000000000006
 11
-287.71012898008303
 21
1312.87646978254
 31
72.400000000000006
  0
LINE
  5
DB
100
AcDbEntity
100
AcDbLine
  8
Layer0
 62
256
370
-1
  6
BYLAYER
 10
-373.63984622164202
 20
1259.02073405019
 30
72.400000000000006
 11
-373.63984622164202
 21
1222.92073405019
 31
72.400000000000006
  0
LINE
  5
DC
100
AcDbEntity
100
AcDbLine
  8
Layer0
 62
256
370
-1
  6
BYLAYER
 10
-287.06063154964301
 20
1311.9410409080499
 30
72.400000000000006
 11
-287.44695603868303
 21
1312.36600136585
 31
72.400000000000006
  0
LINE
  5
DD
100
AcDbEntity
100
AcDbLine
  8
Layer0
 62
256
370
-1
  6
BYLAYER
 10
-373.63984622164202
 20
1295.1207340501901
 30
72.400000000000006
 11
-373.63984622164202
 21
1259.02073405019
 31
72.400000000000006
  0
LINE
  5
DE
100
AcDbEntity
100
AcDbLine
  8
Layer0
 62
256
370
-1
  6
BYLAYER
 10
-286.57748288845801
 20
1311.63054876207
 30
72.400000000000006
 11
-287.06063154964301
 21
1311.9410409080499
 31
72.400000000000006
  0
LINE
  5
DF
100
AcDbEntity
100
AcDbLine
  8
Layer0
 62
256
370
-1
  6
BYLAYER
 10
-373.61418080576402
 20
1295.51231262685
 30
72.400000000000006
 11
-373.63984622164202
 21
1295.1207340501901
 31
72.400000000000006
  0
LINE
  5
E0
100
AcDbEntity
100
AcDbLine
  8
Layer0
 62
256
370
-1
  6
BYLAYER
 10
-313.73459033331699
 20
1312.52073405019
 30
72.400000000000006
 11
-314.08421130303202
 21
1312.0650991315799
 31
72.400000000000006
  0
LINE
  5
E1
100
AcDbEntity
100
AcDbLine
  8
Layer0
 62
256
370
-1
  6
BYLAYER
 10
-373.53762370050998
 20
1295.8971911855001
 30
72.400000000000006
 11
-373.61418080576402
 21
1295.51231262685
 31
72.400000000000006
  0
LINE
  5
E2
100
AcDbEntity
100
AcDbLine
  8
Layer0
 62
256
370
-1
  6
BYLAYER
 10
-313.514809403806
 20
1313.05133215096
 30
72.400000000000006
 11
-313.73459033331699
 21
1312.52073405019
 31
72.400000000000006
  0
LINE
  5
E3
100
AcDbEntity
100
AcDbLine
  8
Layer0
 62
256
370
-1
  6
BYLAYER
 10
-373.411484819176
 20
1296.26878434728
 30
72.400000000000006
 11
-373.53762370050998
 21
1295.8971911855001
 31
72.400000000000006
  0
LINE
  5
E4
100
AcDbEntity
100
AcDbLine
  8
Layer0
 62
256
370
-1
  6
BYLAYER
 10
-313.43984622164197
 20
1313.6207340501901
 30
72.400000000000006
 11
-313.514809403806
 21
1313.05133215096
 31
72.400000000000006
  0
LINE
  5
E5
100
AcDbEntity
100
AcDbLine
  8
Layer0
 62
256
370
-1
  6
BYLAYER
 10
-373.23792243299602
 20
1296.6207340501901
 30
72.400000000000006
 11
-373.411484819176
 21
1296.26878434728
 31
72.400000000000006
  0
LINE
  5
E6
100
AcDbEntity
100
AcDbLine
  8
Layer0
 62
256
370
-1
  6
BYLAYER
 10
-313.514809403806
 20
1314.19013594941
 30
72.400000000000006
 11
-313.43984622164197
 21
1313.6207340501901
 31
72.400000000000006
  0
LINE
  5
E7
100
AcDbEntity
100
AcDbLine
  8
Layer0
 62
256
370
-1
  6
BYLAYER
 10
-373.01990624251602
 20
1296.94701833722
 30
72.400000000000006
 11
-373.23792243299602
 21
1296.6207340501901
 31
72.400000000000006
  0
LINE
  5
E8
100
AcDbEntity
100
AcDbLine
  8
Layer0
 62
256
370
-1
  6
BYLAYER
 10
-313.73459033331699
 20
1314.72073405019
 30
72.400000000000006
 11
-313.514809403806
 21
1314.19013594941
 31
72.400000000000006
  0
LINE
  5
E9
100
AcDbEntity
100
AcDbLine
  8
Layer0
 62
256
370
-1
  6
BYLAYER
 10
-372.76116656520202
 20
1297.2420543937501
 30
72.400000000000006
 11
-373.01990624251602
 21
1296.94701833722
 31
72.400000000000006
  0
LINE
  5
EA
100
AcDbEntity
100
AcDbLine
  8
Layer0
 62
256
370
-1
  6
BYLAYER
 10
-314.08421130303202
 20
1315.1763689688
 30
72.400000000000006
 11
-313.73459033331699
 21
1314.72073405019
 31
72.400000000000006
  0
LINE
  5
EB
100
AcDbEntity
100
AcDbLine
  8
Layer0
 62
256
370
-1
  6
BYLAYER
 10
-372.46613050866898
 20
1297.50079407106
 30
72.400000000000006
 11
-372.76116656520202
 21
1297.2420543937501
 31
72.400000000000006
  0
LINE
  5
EC
100
AcDbEntity
100
AcDbLine
  8
Layer0
 62
256
370
-1
  6
BYLAYER
 10
-314.53984622164199
 20
1315.5259899385201
 30
72.400000000000006
 11
-314.08421130303202
 21
1315.1763689688
 31
72.400000000000006
  0
LINE
  5
ED
100
AcDbEntity
100
AcDbLine
  8
Layer0
 62
256
370
-1
  6
BYLAYER
 10
-372.13984622164202
 20
1297.7188102615401
 30
72.400000000000006
 11
-372.46613050866898
 21
1297.50079407106
 31
72.400000000000006
  0
LINE
  5
EE
100
AcDbEntity
100
AcDbLine
  8
Layer0
 62
256
370
-1
  6
BYLAYER
 10
-315.07044432241702
 20
1315.7457708680299
 30
72.400000000000006
 11
-314.53984622164199
 21
1315.5259899385201
 31
72.400000000000006
  0
LINE
  5
EF
100
AcDbEntity
100
AcDbLine
  8
Layer0
 62
256
370
-1
  6
BYLAYER
 10
-371.78789651873802
 20
1297.8923726477201
 30
72.400000000000006
 11
-372.13984622164202
 21
1297.7188102615401
 31
72.400000000000006
  0
LINE
  5
F0
100
AcDbEntity
100
AcDbLine
  8
Layer0
 62
256
370
-1
  6
BYLAYER
 10
-315.63984622164202
 20
1315.8207340501899
 30
72.400000000000006
 11
-315.07044432241702
 21
1315.7457708680299
 31
72.400000000000006
  0
LINE
  5
F1
100
AcDbEntity
100
AcDbLine
  8
Layer0
 62
256
370
-1
  6
BYLAYER
 10
-371.41630335694998
 20
1298.0185115290601
 30
72.400000000000006
 11
-371.78789651873802
 21
1297.8923726477201
 31
72.400000000000006
  0
LINE
  5
F2
100
AcDbEntity
100
AcDbLine
  8
Layer0
 62
256
370
-1
  6
BYLAYER
 10
-316.20924812086798
 20
1315.7457708680299
 30
72.400000000000006
 11
-315.63984622164202
 21
1315.8207340501899
 31
72.400000000000006
  0
LINE
  5
F3
100
AcDbEntity
100
AcDbLine
  8
Layer0
 62
256
370
-1
  6
BYLAYER
 10
-371.03142479830302
 20
1298.0950686343101
 30
72.400000000000006
 11
-371.41630335694998
 21
1298.0185115290601
 31
72.400000000000006
  0
LINE
  5
F4
100
AcDbEntity
100
AcDbLine
  8
Layer0
 62
256
370
-1
  6
BYLAYER
 10
-316.73984622164198
 20
1315.5259899385201
 30
72.400000000000006
 11
-316.20924812086798
 21
1315.7457708680299
 31
72.400000000000006
  0
LINE
  5
F5
100
AcDbEntity
100
AcDbLine
  8
Layer0
 62
256
370
-1
  6
BYLAYER
 10
-370.63984622164202
 20
1298.1207340501901
 30
72.400000000000006
 11
-371.03142479830302
 21
1298.0950686343101
 31
72.400000000000006
  0
LINE
  5
F6
100
AcDbEntity
100
AcDbLine
  8
Layer0
 62
256
370
-1
  6
BYLAYER
 10
-317.19548114025298
 20
1315.1763689688
 30
72.400000000000006
 11
-316.73984622164198
 21
1315.5259899385201
 31
72.400000000000006
  0
LINE
  5
F7
100
AcDbEntity
100
AcDbLine
  8
Layer0
 62
256
370
-1
  6
BYLAYER
 10
-348.63984622164202
 20
1298.1207340501901
 30
72.400000000000006
 11
-370.63984622164202
 21
1298.1207340501901
 31
72.400000000000006
  0
LINE
  5
F8
100
AcDbEntity
100
AcDbLine
  8
Layer0
 62
256
370
-1
  6
BYLAYER
 10
-317.54510210996801
 20
1314.72073405019
 30
72.400000000000006
 11
-317.19548114025298
 21
1315.1763689688
 31
72.400000000000006
  0
LINE
  5
F9
100
AcDbEntity
100
AcDbLine
  8
Layer0
 62
256
370
-1
  6
BYLAYER
 10
-348.23129804197902
 20
1298.0942958518399
 30
72.400000000000006
 11
-348.63984622164202
 21
1298.1207340501901
 31
72.400000000000006
  0
LINE
  5
FA
100
AcDbEntity
100
AcDbLine
  8
Layer0
 62
256
370
-1
  6
BYLAYER
 10
-317.76488303947798
 20
1314.19013594941
 30
72.400000000000006
 11
-317.54510210996801
 21
1314.72073405019
 31
72.400000000000006
  0
LINE
  5
FB
100
AcDbEntity
100
AcDbLine
  8
Layer0
 62
256
370
-1
  6
BYLAYER
 10
-347.82354958218099
 20
1298.13106250753
 30
72.400000000000006
 11
-348.23129804197902
 21
1298.0942958518399
 31
72.400000000000006
  0
LINE
  5
FC
100
AcDbEntity
100
AcDbLine
  8
Layer0
 62
256
370
-1
  6
BYLAYER
 10
-317.83984622164201
 20
1313.6207340501901
 30
72.400000000000006
 11
-317.76488303947798
 21
1314.19013594941
 31
72.400000000000006
  0
LINE
  5
FD
100
AcDbEntity
100
AcDbLine
  8
Layer0
 62
256
370
-1
  6
BYLAYER
 10
-347.42632073008002
 20
1298.2301575755
 30
72.400000000000006
 11
-347.82354958218099
 21
1298.13106250753
 31
72.400000000000006
  0
LINE
  5
FE
100
AcDbEntity
100
AcDbLine
  8
Layer0
 62
256
370
-1
  6
BYLAYER
 10
-317.76488303947798
 20
1313.05133215096
 30
72.400000000000006
 11
-317.83984622164201
 21
1313.6207340501901
 31
72.400000000000006
  0
LINE
  5
FF
100
AcDbEntity
100
AcDbLine
  8
Layer0
 62
256
370
-1
  6
BYLAYER
 10
-347.049080607615
 20
1298.38921883238
 30
72.400000000000006
 11
-347.42632073008002
 21
1298.2301575755
 31
72.400000000000006
  0
LINE
  5
100
100
AcDbEntity
100
AcDbLine
  8
Layer0
 62
256
370
-1
  6
BYLAYER
 10
-317.54510210996801
 20
1312.52073405019
 30
72.400000000000006
 11
-317.76488303947798
 21
1313.05133215096
 31
72.400000000000006
  0
LINE
  5
101
100
AcDbEntity
100
AcDbLine
  8
Layer0
 62
256
370
-1
  6
BYLAYER
 10
-346.70082184636601
 20
1298.6044545837201
 30
72.400000000000006
 11
-347.049080607615
 21
1298.38921883238
 31
72.400000000000006
  0
LINE
  5
102
100
AcDbEntity
100
AcDbLine
  8
Layer0
 62
256
370
-1
  6
BYLAYER
 10
-317.19548114025298
 20
1312.0650991315799
 30
72.400000000000006
 11
-317.54510210996801
 21
1312.52073405019
 31
72.400000000000006
  0
LINE
  5
103
100
AcDbEntity
100
AcDbLine
  8
Layer0
 62
256
370
-1
  6
BYLAYER
 10
-346.38984622164202
 20
1298.8707340501901
 30
72.400000000000006
 11
-346.70082184636601
 21
1298.6044545837201
 31
72.400000000000006
  0
LINE
  5
104
100
AcDbEntity
100
AcDbLine
  8
Layer0
 62
256
370
-1
  6
BYLAYER
 10
-316.73984622164198
 20
1311.7154781618599
 30
72.400000000000006
 11
-317.19548114025298
 21
1312.0650991315799
 31
72.400000000000006
  0
LINE
  5
105
100
AcDbEntity
100
AcDbLine
  8
Layer0
 62
256
370
-1
  6
BYLAYER
 10
-346.12356675516901
 20
1299.1817096749101
 30
72.400000000000006
 11
-346.38984622164202
 21
1298.8707340501901
 31
72.400000000000006
  0
LINE
  5
106
100
AcDbEntity
100
AcDbLine
  8
Layer0
 62
256
370
-1
  6
BYLAYER
 10
-316.20924812086798
 20
1311.49569723235
 30
72.400000000000006
 11
-316.73984622164198
 21
1311.7154781618599
 31
72.400000000000006
  0
LINE
  5
107
100
AcDbEntity
100
AcDbLine
  8
Layer0
 62
256
370
-1
  6
BYLAYER
 10
-345.90833100383702
 20
1299.5299684361601
 30
72.400000000000006
 11
-346.12356675516901
 21
1299.1817096749101
 31
72.400000000000006
  0
LINE
  5
108
100
AcDbEntity
100
AcDbLine
  8
Layer0
 62
256
370
-1
  6
BYLAYER
 10
-315.63984622164202
 20
1311.42073405019
 30
72.400000000000006
 11
-316.20924812086798
 21
1311.49569723235
 31
72.400000000000006
  0
LINE
  5
109
100
AcDbEntity
100
AcDbLine
  8
Layer0
 62
256
370
-1
  6
BYLAYER
 10
-345.74926974695501
 20
1299.9072085586299
 30
72.400000000000006
 11
-345.90833100383702
 21
1299.5299684361601
 31
72.400000000000006
  0
LINE
  5
10A
100
AcDbEntity
100
AcDbLine
  8
Layer0
 62
256
370
-1
  6
BYLAYER
 10
-315.07044432241702
 20
1311.49569723235
 30
72.400000000000006
 11
-315.63984622164202
 21
1311.42073405019
 31
72.400000000000006
  0
LINE
  5
10B
100
AcDbEntity
100
AcDbLine
  8
Layer0
 62
256
370
-1
  6
BYLAYER
 10
-345.65017467898201
 20
1300.3044374107301
 30
72.400000000000006
 11
-345.74926974695501
 21
1299.9072085586299
 31
72.400000000000006
  0
LINE
  5
10C
100
AcDbEntity
100
AcDbLine
  8
Layer0
 62
256
370
-1
  6
BYLAYER
 10
-314.53984622164199
 20
1311.7154781618599
 30
72.400000000000006
 11
-315.07044432241702
 21
1311.49569723235
 31
72.400000000000006
  0
LINE
  5
10D
100
AcDbEntity
100
AcDbLine
  8
Layer0
 62
256
370
-1
  6
BYLAYER
 10
-345.61340802329801
 20
1300.71218587053
 30
72.400000000000006
 11
-345.65017467898201
 21
1300.3044374107301
 31
72.400000000000006
  0
LINE
  5
10E
100
AcDbEntity
100
AcDbLine
  8
Layer0
 62
256
370
-1
  6
BYLAYER
 10
-314.08421130303202
 20
1312.0650991315799
 30
72.400000000000006
 11
-314.53984622164199
 21
1311.7154781618599
 31
72.400000000000006
  0
LINE
  5
10F
100
AcDbEntity
100
AcDbLine
  8
Layer0
 62
256
370
-1
  6
BYLAYER
 10
-345.63984622164202
 20
1301.1207340501901
 30
72.400000000000006
 11
-345.61340802329801
 21
1300.71218587053
 31
72.400000000000006
  0
LINE
  5
110
100
AcDbEntity
100
AcDbLine
  8
Layer0
 62
256
370
-1
  6
BYLAYER
 10
-330.34113803864602
 20
1248.5281185132901
 30
72.400000000000105
 11
-330.94409042589001
 21
1248.2783674570301
 31
72.400000000000105
  0
LINE
  5
111
100
AcDbEntity
100
AcDbLine
  8
Layer0
 62
256
370
-1
  6
BYLAYER
 10
-345.63984622164202
 20
1301.1207340501901
 30
72.400000000000006
 11
-345.63984622164202
 21
1323.1207340501901
 31
72.400000000000006
  0
LINE
  5
112
100
AcDbEntity
100
AcDbLine
  8
Layer0
 62
256
370
-1
  6
BYLAYER
 10
-329.82337108567998
 20
1248.92541506978
 30
72.400000000000105
 11
-330.34113803864602
 21
1248.5281185132901
 31
72.400000000000105
  0
LINE
  5
113
100
AcDbEntity
100
AcDbLine
  8
Layer0
 62
256
370
-1
  6
BYLAYER
 10
-345.61418080576402
 20
1323.51231262685
 30
72.400000000000006
 11
-345.63984622164202
 21
1323.1207340501901
 31
72.400000000000006
  0
LINE
  5
114
100
AcDbEntity
100
AcDbLine
  8
Layer0
 62
256
370
-1
  6
BYLAYER
 10
-329.42607452918497
 20
1249.4431820227501
 30
72.400000000000105
 11
-329.82337108567998
 21
1248.92541506978
 31
72.400000000000105
  0
LINE
  5
115
100
AcDbEntity
100
AcDbLine
  8
Layer0
 62
256
370
-1
  6
BYLAYER
 10
-345.53762370050998
 20
1323.8971911855001
 30
72.400000000000006
 11
-345.61418080576402
 21
1323.51231262685
 31
72.400000000000006
  0
LINE
  5
116
100
AcDbEntity
100
AcDbLine
  8
Layer0
 62
256
370
-1
  6
BYLAYER
 10
-329.17632347292403
 20
1250.0461344099899
 30
72.400000000000105
 11
-329.42607452918497
 21
1249.4431820227501
 31
72.400000000000105
  0
LINE
  5
117
100
AcDbEntity
100
AcDbLine
  8
Layer0
 62
256
370
-1
  6
BYLAYER
 10
-345.411484819176
 20
1324.26878434728
 30
72.400000000000006
 11
-345.53762370050998
 21
1323.8971911855001
 31
72.400000000000006
  0
LINE
  5
118
100
AcDbEntity
100
AcDbLine
  8
Layer0
 62
256
370
-1
  6
BYLAYER
 10
-329.09113803864602
 20
1250.6931820227501
 30
72.400000000000105
 11
-329.17632347292403
 21
1250.0461344099899
 31
72.400000000000105
  0
LINE
  5
119
100
AcDbEntity
100
AcDbLine
  8
Layer0
 62
256
370
-1
  6
BYLAYER
 10
-345.23792243299602
 20
1324.6207340501901
 30
72.400000000000006
 11
-345.411484819176
 21
1324.26878434728
 31
72.400000000000006
  0
LINE
  5
11A
100
AcDbEntity
100
AcDbLine
  8
Layer0
 62
256
370
-1
  6
BYLAYER
 10
-329.17632347292403
 20
1251.34022963551
 30
72.400000000000105
 11
-329.09113803864602
 21
1250.6931820227501
 31
72.400000000000105
  0
LINE
  5
11B
100
AcDbEntity
100
AcDbLine
  8
Layer0
 62
256
370
-1
  6
BYLAYER
 10
-345.01990624251602
 20
1324.94701833722
 30
72.400000000000006
 11
-345.23792243299602
 21
1324.6207340501901
 31
72.400000000000006
  0
LINE
  5
11C
100
AcDbEntity
100
AcDbLine
  8
Layer0
 62
256
370
-1
  6
BYLAYER
 10
-329.42607452918497
 20
1251.9431820227501
 30
72.400000000000105
 11
-329.17632347292403
 21
1251.34022963551
 31
72.400000000000105
  0
LINE
  5
11D
100
AcDbEntity
100
AcDbLine
  8
Layer0
 62
256
370
-1
  6
BYLAYER
 10
-344.76116656520202
 20
1325.2420543937501
 30
72.400000000000006
 11
-345.01990624251602
 21
1324.94701833722
 31
72.400000000000006
  0
LINE
  5
11E
100
AcDbEntity
100
AcDbLine
  8
Layer0
 62
256
370
-1
  6
BYLAYER
 10
-329.82337108567998
 20
1252.4609489757199
 30
72.400000000000105
 11
-329.42607452918497
 21
1251.9431820227501
 31
72.400000000000105
  0
LINE
  5
11F
100
AcDbEntity
100
AcDbLine
  8
Layer0
 62
256
370
-1
  6
BYLAYER
 10
-344.46613050866898
 20
1325.50079407106
 30
72.400000000000006
 11
-344.76116656520202
 21
1325.2420543937501
 31
72.400000000000006
  0
LINE
  5
120
100
AcDbEntity
100
AcDbLine
  8
Layer0
 62
256
370
-1
  6
BYLAYER
 10
-330.34113803864602
 20
1252.85824553221
 30
72.400000000000105
 11
-329.82337108567998
 21
1252.4609489757199
 31
72.400000000000105
  0
LINE
  5
121
100
AcDbEntity
100
AcDbLine
  8
Layer0
 62
256
370
-1
  6
BYLAYER
 10
-344.13984622164202
 20
1325.7188102615401
 30
72.400000000000006
 11
-344.46613050866898
 21
1325.50079407106
 31
72.400000000000006
  0
LINE
  5
122
100
AcDbEntity
100
AcDbLine
  8
Layer0
 62
256
370
-1
  6
BYLAYER
 10
-330.94409042589001
 20
1253.1079965884701
 30
72.400000000000105
 11
-330.34113803864602
 21
1252.85824553221
 31
72.400000000000105
  0
LINE
  5
123
100
AcDbEntity
100
AcDbLine
  8
Layer0
 62
256
370
-1
  6
BYLAYER
 10
-343.78789651873802
 20
1325.8923726477201
 30
72.400000000000006
 11
-344.13984622164202
 21
1325.7188102615401
 31
72.400000000000006
  0
LINE
  5
124
100
AcDbEntity
100
AcDbLine
  8
Layer0
 62
256
370
-1
  6
BYLAYER
 10
-331.59113803864602
 20
1253.1931820227501
 30
72.400000000000105
 11
-330.94409042589001
 21
1253.1079965884701
 31
72.400000000000105
  0
LINE
  5
125
100
AcDbEntity
100
AcDbLine
  8
Layer0
 62
256
370
-1
  6
BYLAYER
 10
-343.41630335694998
 20
1326.0185115290601
 30
72.400000000000006
 11
-343.78789651873802
 21
1325.8923726477201
 31
72.400000000000006
  0
LINE
  5
126
100
AcDbEntity
100
AcDbLine
  8
Layer0
 62
256
370
-1
  6
BYLAYER
 10
-343.59113803864602
 20
1253.1931820227501
 30
72.400000000000105
 11
-331.59113803864602
 21
1253.1931820227501
 31
72.400000000000105
  0
LINE
  5
127
100
AcDbEntity
100
AcDbLine
  8
Layer0
 62
256
370
-1
  6
BYLAYER
 10
-343.03142479830302
 20
1326.0950686343101
 30
72.400000000000006
 11
-343.41630335694998
 21
1326.0185115290601
 31
72.400000000000006
  0
LINE
  5
128
100
AcDbEntity
100
AcDbLine
  8
Layer0
 62
256
370
-1
  6
BYLAYER
 10
-344.238185651403
 20
1253.1079965884701
 30
72.400000000000105
 11
-343.59113803864602
 21
1253.1931820227501
 31
72.400000000000105
  0
LINE
  5
129
100
AcDbEntity
100
AcDbLine
  8
Layer0
 62
256
370
-1
  6
BYLAYER
 10
-342.63984622164202
 20
1326.1207340501901
 30
72.400000000000006
 11
-343.03142479830302
 21
1326.0950686343101
 31
72.400000000000006
  0
LINE
  5
12A
100
AcDbEntity
100
AcDbLine
  8
Layer0
 62
256
370
-1
  6
BYLAYER
 10
-344.84113803864602
 20
1252.85824553221
 30
72.400000000000105
 11
-344.238185651403
 21
1253.1079965884701
 31
72.400000000000105
  0
LINE
  5
12B
100
AcDbEntity
100
AcDbLine
  8
Layer0
 62
256
370
-1
  6
BYLAYER
 10
-274.63984622164202
 20
1326.1207340501901
 30
72.400000000000006
 11
-342.63984622164202
 21
1326.1207340501901
 31
72.400000000000006
  0
LINE
  5
12C
100
AcDbEntity
100
AcDbLine
  8
Layer0
 62
256
370
-1
  6
BYLAYER
 10
-345.35890499161297
 20
1252.4609489757199
 30
72.400000000000105
 11
-344.84113803864602
 21
1252.85824553221
 31
72.400000000000105
  0
LINE
  5
12D
100
AcDbEntity
100
AcDbLine
  8
Layer0
 62
256
370
-1
  6
BYLAYER
 10
-273.856689068322
 20
1326.0694032184299
 30
72.400000000000006
 11
-274.63984622164202
 21
1326.1207340501901
 31
72.400000000000006
  0
LINE
  5
12E
100
AcDbEntity
100
AcDbLine
  8
Layer0
 62
256
370
-1
  6
BYLAYER
 10
-345.75620154810798
 20
1251.9431820227501
 30
72.400000000000105
 11
-345.35890499161297
 21
1252.4609489757199
 31
72.400000000000105
  0
LINE
  5
12F
100
AcDbEntity
100
AcDbLine
  8
Layer0
 62
256
370
-1
  6
BYLAYER
 10
-273.086931951027
 20
1325.9162890079201
 30
72.400000000000006
 11
-273.856689068322
 21
1326.0694032184299
 31
72.400000000000006
  0
LINE
  5
130
100
AcDbEntity
100
AcDbLine
  8
Layer0
 62
256
370
-1
  6
BYLAYER
 10
-346.00595260436899
 20
1251.34022963551
 30
72.400000000000105
 11
-345.75620154810798
 21
1251.9431820227501
 31
72.400000000000105
  0
LINE
  5
131
100
AcDbEntity
100
AcDbLine
  8
Layer0
 62
256
370
-1
  6
BYLAYER
 10
-272.34374562745199
 20
1325.6640112452601
 30
72.400000000000006
 11
-273.086931951027
 21
1325.9162890079201
 31
72.400000000000006
  0
LINE
  5
132
100
AcDbEntity
100
AcDbLine
  8
Layer0
 62
256
370
-1
  6
BYLAYER
 10
-346.09113803864602
 20
1250.6931820227501
 30
72.400000000000105
 11
-346.00595260436899
 21
1251.34022963551
 31
72.400000000000105
  0
LINE
  5
133
100
AcDbEntity
100
AcDbLine
  8
Layer0
 62
256
370
-1
  6
BYLAYER
 10
-268.63984622164202
 20
1178.01242189809
 30
72.400000000000006
 11
-268.63984622164202
 21
1200.1207340501901
 31
72.400000000000006
  0
LINE
  5
134
100
AcDbEntity
100
AcDbLine
  8
Layer0
 62
256
370
-1
  6
BYLAYER
 10
-271.63984622164202
 20
1205.3168864729
 30
72.400000000000006
 11
-272.34374562745199
 21
1205.6640112452601
 31
72.400000000000006
  0
LINE
  5
135
100
AcDbEntity
100
AcDbLine
  8
Layer0
 62
256
370
-1
  6
BYLAYER
 10
-269.44369379893601
 20
1203.1207340501901
 30
72.400000000000006
 11
-269.87972617989499
 21
1203.7733026242399
 31
72.400000000000006
  0
LINE
  5
136
100
AcDbEntity
100
AcDbLine
  8
Layer0
 62
256
370
-1
  6
BYLAYER
 10
-270.98727764759002
 20
1204.8808540919399
 30
72.400000000000006
 11
-271.63984622164202
 21
1205.3168864729
 31
72.400000000000006
  0
LINE
  5
137
100
AcDbEntity
100
AcDbLine
  8
Layer0
 62
256
370
-1
  6
BYLAYER
 10
-269.87972617989499
 20
1203.7733026242399
 30
72.400000000000006
 11
-270.39720553452298
 21
1204.3633747373101
 31
72.400000000000006
  0
LINE
  5
138
100
AcDbEntity
100
AcDbLine
  8
Layer0
 62
256
370
-1
  6
BYLAYER
 10
-268.63984622164202
 20
1200.1207340501901
 30
72.400000000000006
 11
-268.6911770534
 21
1200.9038912035101
 31
72.400000000000006
  0
LINE
  5
139
100
AcDbEntity
100
AcDbLine
  8
Layer0
 62
256
370
-1
  6
BYLAYER
 10
-268.6911770534
 20
1200.9038912035101
 30
72.400000000000006
 11
-268.84429126390802
 21
1201.6736483208001
 31
72.400000000000006
  0
LINE
  5
13A
100
AcDbEntity
100
AcDbLine
  8
Layer0
 62
256
370
-1
  6
BYLAYER
 10
-270.39720553452298
 20
1204.3633747373101
 30
72.400000000000006
 11
-270.98727764759002
 21
1204.8808540919399
 31
72.400000000000006
  0
LINE
  5
13B
100
AcDbEntity
100
AcDbLine
  8
Layer0
 62
256
370
-1
  6
BYLAYER
 10
-268.84429126390802
 20
1201.6736483208001
 30
72.400000000000006
 11
-269.09656902657503
 21
1202.4168346443801
 31
72.400000000000006
  0
LINE
  5
13C
100
AcDbEntity
100
AcDbLine
  8
Layer0
 62
256
370
-1
  6
BYLAYER
 10
-269.09656902657503
 20
1202.4168346443801
 30
72.400000000000006
 11
-269.44369379893601
 21
1203.1207340501901
 31
72.400000000000006
  0
LINE
  5
13D
100
AcDbEntity
100
AcDbLine
  8
Layer0
 62
256
370
-1
  6
BYLAYER
 10
-346.09113803864602
 20
1130.6931820227501
 30
72.400000000000105
 11
-346.00595260436899
 21
1131.34022963551
 31
72.400000000000105
  0
LINE
  5
13E
100
AcDbEntity
100
AcDbLine
  8
Layer0
 62
256
370
-1
  6
BYLAYER
 10
-272.34374562745199
 20
1205.6640112452601
 30
72.400000000000006
 11
-273.086931951027
 21
1205.9162890079201
 31
72.400000000000006
  0
LINE
  5
13F
100
AcDbEntity
100
AcDbLine
  8
Layer0
 62
256
370
-1
  6
BYLAYER
 10
-346.00595260436899
 20
1131.34022963551
 30
72.400000000000105
 11
-345.75620154810798
 21
1131.9431820227501
 31
72.400000000000105
  0
LINE
  5
140
100
AcDbEntity
100
AcDbLine
  8
Layer0
 62
256
370
-1
  6
BYLAYER
 10
-273.086931951027
 20
1205.9162890079201
 30
72.400000000000006
 11
-273.856689068322
 21
1206.0694032184299
 31
72.400000000000006
  0
LINE
  5
141
100
AcDbEntity
100
AcDbLine
  8
Layer0
 62
256
370
-1
  6
BYLAYER
 10
-345.75620154810798
 20
1131.9431820227501
 30
72.400000000000105
 11
-345.35890499161297
 21
1132.4609489757199
 31
72.400000000000105
  0
LINE
  5
142
100
AcDbEntity
100
AcDbLine
  8
Layer0
 62
256
370
-1
  6
BYLAYER
 10
-273.856689068322
 20
1206.0694032184299
 30
72.400000000000006
 11
-274.63984622164202
 21
1206.1207340501901
 31
72.400000000000006
  0
LINE
  5
143
100
AcDbEntity
100
AcDbLine
  8
Layer0
 62
256
370
-1
  6
BYLAYER
 10
-345.35890499161297
 20
1132.4609489757199
 30
72.400000000000105
 11
-344.84113803864602
 21
1132.85824553221
 31
72.400000000000105
  0
LINE
  5
144
100
AcDbEntity
100
AcDbLine
  8
Layer0
 62
256
370
-1
  6
BYLAYER
 10
-274.63984622164202
 20
1206.1207340501901
 30
72.400000000000006
 11
-342.63984622164202
 21
1206.1207340501901
 31
72.400000000000006
  0
LINE
  5
145
100
AcDbEntity
100
AcDbLine
  8
Layer0
 62
256
370
-1
  6
BYLAYER
 10
-344.84113803864602
 20
1132.85824553221
 30
72.400000000000105
 11
-344.238185651403
 21
1133.1079965884701
 31
72.400000000000105
  0
LINE
  5
146
100
AcDbEntity
100
AcDbLine
  8
Layer0
 62
256
370
-1
  6
BYLAYER
 10
-342.63984622164202
 20
1206.1207340501901
 30
72.400000000000006
 11
-343.03142479830302
 21
1206.0950686343101
 31
72.400000000000006
  0
LINE
  5
147
100
AcDbEntity
100
AcDbLine
  8
Layer0
 62
256
370
-1
  6
BYLAYER
 10
-344.238185651403
 20
1133.1079965884701
 30
72.400000000000105
 11
-343.59113803864602
 21
1133.1931820227501
 31
72.400000000000105
  0
LINE
  5
148
100
AcDbEntity
100
AcDbLine
  8
Layer0
 62
256
370
-1
  6
BYLAYER
 10
-343.03142479830302
 20
1206.0950686343101
 30
72.400000000000006
 11
-343.41630335694998
 21
1206.0185115290601
 31
72.400000000000006
  0
LINE
  5
149
100
AcDbEntity
100
AcDbLine
  8
Layer0
 62
256
370
-1
  6
BYLAYER
 10
-343.59113803864602
 20
1133.1931820227501
 30
72.400000000000105
 11
-331.59113803864602
 21
1133.1931820227501
 31
72.400000000000105
  0
LINE
  5
14A
100
AcDbEntity
100
AcDbLine
  8
Layer0
 62
256
370
-1
  6
BYLAYER
 10
-343.41630335694998
 20
1206.0185115290601
 30
72.400000000000006
 11
-343.78789651873802
 21
1205.8923726477201
 31
72.400000000000006
  0
LINE
  5
14B
100
AcDbEntity
100
AcDbLine
  8
Layer0
 62
256
370
-1
  6
BYLAYER
 10
-331.59113803864602
 20
1133.1931820227501
 30
72.400000000000105
 11
-330.94409042589001
 21
1133.1079965884701
 31
72.400000000000105
  0
LINE
  5
14C
100
AcDbEntity
100
AcDbLine
  8
Layer0
 62
256
370
-1
  6
BYLAYER
 10
-343.78789651873802
 20
1205.8923726477201
 30
72.400000000000006
 11
-344.13984622164202
 21
1205.7188102615401
 31
72.400000000000006
  0
LINE
  5
14D
100
AcDbEntity
100
AcDbLine
  8
Layer0
 62
256
370
-1
  6
BYLAYER
 10
-330.94409042589001
 20
1133.1079965884701
 30
72.400000000000105
 11
-330.34113803864602
 21
1132.85824553221
 31
72.400000000000105
  0
LINE
  5
14E
100
AcDbEntity
100
AcDbLine
  8
Layer0
 62
256
370
-1
  6
BYLAYER
 10
-344.13984622164202
 20
1205.7188102615401
 30
72.400000000000006
 11
-344.46613050866898
 21
1205.50079407106
 31
72.400000000000006
  0
LINE
  5
14F
100
AcDbEntity
100
AcDbLine
  8
Layer0
 62
256
370
-1
  6
BYLAYER
 10
-330.34113803864602
 20
1132.85824553221
 30
72.400000000000105
 11
-329.82337108567998
 21
1132.4609489757199
 31
72.400000000000105
  0
LINE
  5
150
100
AcDbEntity
100
AcDbLine
  8
Layer0
 62
256
370
-1
  6
BYLAYER
 10
-344.46613050866898
 20
1205.50079407106
 30
72.400000000000006
 11
-344.76116656520202
 21
1205.2420543937501
 31
72.400000000000006
  0
LINE
  5
151
100
AcDbEntity
100
AcDbLine
  8
Layer0
 62
256
370
-1
  6
BYLAYER
 10
-329.82337108567998
 20
1132.4609489757199
 30
72.400000000000105
 11
-329.42607452918497
 21
1131.9431820227501
 31
72.400000000000105
  0
LINE
  5
152
100
AcDbEntity
100
AcDbLine
  8
Layer0
 62
256
370
-1
  6
BYLAYER
 10
-344.76116656520202
 20
1205.2420543937501
 30
72.400000000000006
 11
-345.01990624251602
 21
1204.94701833722
 31
72.400000000000006
  0
LINE
  5
153
100
AcDbEntity
100
AcDbLine
  8
Layer0
 62
256
370
-1
  6
BYLAYER
 10
-329.42607452918497
 20
1131.9431820227501
 30
72.400000000000105
 11
-329.17632347292403
 21
1131.34022963551
 31
72.400000000000105
  0
LINE
  5
154
100
AcDbEntity
100
AcDbLine
  8
Layer0
 62
256
370
-1
  6
BYLAYER
 10
-345.01990624251602
 20
1204.94701833722
 30
72.400000000000006
 11
-345.23792243299602
 21
1204.6207340501901
 31
72.400000000000006
  0
LINE
  5
155
100
AcDbEntity
100
AcDbLine
  8
Layer0
 62
256
370
-1
  6
BYLAYER
 10
-329.17632347292403
 20
1131.34022963551
 30
72.400000000000105
 11
-329.09113803864602
 21
1130.6931820227501
 31
72.400000000000105
  0
LINE
  5
156
100
AcDbEntity
100
AcDbLine
  8
Layer0
 62
256
370
-1
  6
BYLAYER
 10
-345.23792243299602
 20
1204.6207340501901
 30
72.400000000000006
 11
-345.411484819176
 21
1204.26878434728
 31
72.400000000000006
  0
LINE
  5
157
100
AcDbEntity
100
AcDbLine
  8
Layer0
 62
256
370
-1
  6
BYLAYER
 10
-329.09113803864602
 20
1130.6931820227501
 30
72.400000000000105
 11
-329.17632347292403
 21
1130.0461344099899
 31
72.400000000000105
  0
LINE
  5
158
100
AcDbEntity
100
AcDbLine
  8
Layer0
 62
256
370
-1
  6
BYLAYER
 10
-345.411484819176
 20
1204.26878434728
 30
72.400000000000006
 11
-345.53762370050998
 21
1203.8971911855001
 31
72.400000000000006
  0
LINE
  5
159
100
AcDbEntity
100
AcDbLine
  8
Layer0
 62
256
370
-1
  6
BYLAYER
 10
-329.17632347292403
 20
1130.0461344099899
 30
72.400000000000105
 11
-329.42607452918497
 21
1129.4431820227501
 31
72.400000000000105
  0
LINE
  5
15A
100
AcDbEntity
100
AcDbLine
  8
Layer0
 62
256
370
-1
  6
BYLAYER
 10
-345.53762370050998
 20
1203.8971911855001
 30
72.400000000000006
 11
-345.61418080576402
 21
1203.51231262685
 31
72.400000000000006
  0
LINE
  5
15B
100
AcDbEntity
100
AcDbLine
  8
Layer0
 62
256
370
-1
  6
BYLAYER
 10
-329.42607452918497
 20
1129.4431820227501
 30
72.400000000000105
 11
-329.82337108567998
 21
1128.92541506978
 31
72.400000000000105
  0
LINE
  5
15C
100
AcDbEntity
100
AcDbLine
  8
Layer0
 62
256
370
-1
  6
BYLAYER
 10
-345.61418080576402
 20
1203.51231262685
 30
72.400000000000006
 11
-345.63984622164202
 21
1203.1207340501901
 31
72.400000000000006
  0
LINE
  5
15D
100
AcDbEntity
100
AcDbLine
  8
Layer0
 62
256
370
-1
  6
BYLAYER
 10
-329.82337108567998
 20
1128.92541506978
 30
72.400000000000105
 11
-330.34113803864602
 21
1128.5281185132901
 31
72.400000000000105
  0
LINE
  5
15E
100
AcDbEntity
100
AcDbLine
  8
Layer0
 62
256
370
-1
  6
BYLAYER
 10
-345.63984622164202
 20
1181.1207340501901
 30
72.400000000000006
 11
-345.63984622164202
 21
1203.1207340501901
 31
72.400000000000006
  0
LINE
  5
15F
100
AcDbEntity
100
AcDbLine
  8
Layer0
 62
256
370
-1
  6
BYLAYER
 10
-330.34113803864602
 20
1128.5281185132901
 30
72.400000000000105
 11
-330.94409042589001
 21
1128.2783674570301
 31
72.400000000000105
  0
LINE
  5
160
100
AcDbEntity
100
AcDbLine
  8
Layer0
 62
256
370
-1
  6
BYLAYER
 10
-345.63984622164202
 20
1181.1207340501901
 30
72.400000000000006
 11
-345.61340802329801
 21
1180.71218587053
 31
72.400000000000006
  0
LINE
  5
161
100
AcDbEntity
100
AcDbLine
  8
Layer0
 62
256
370
-1
  6
BYLAYER
 10
-314.08421130303202
 20
1192.0650991315799
 30
72.400000000000006
 11
-314.53984622164199
 21
1191.7154781618599
 31
72.400000000000006
  0
LINE
  5
162
100
AcDbEntity
100
AcDbLine
  8
Layer0
 62
256
370
-1
  6
BYLAYER
 10
-345.61340802329801
 20
1180.71218587053
 30
72.400000000000006
 11
-345.65017467898201
 21
1180.3044374107301
 31
72.400000000000006
  0
LINE
  5
163
100
AcDbEntity
100
AcDbLine
  8
Layer0
 62
256
370
-1
  6
BYLAYER
 10
-314.53984622164199
 20
1191.7154781618599
 30
72.400000000000006
 11
-315.07044432241702
 21
1191.49569723235
 31
72.400000000000006
  0
LINE
  5
164
100
AcDbEntity
100
AcDbLine
  8
Layer0
 62
256
370
-1
  6
BYLAYER
 10
-345.65017467898201
 20
1180.3044374107301
 30
72.400000000000006
 11
-345.74926974695501
 21
1179.9072085586299
 31
72.400000000000006
  0
LINE
  5
165
100
AcDbEntity
100
AcDbLine
  8
Layer0
 62
256
370
-1
  6
BYLAYER
 10
-315.07044432241702
 20
1191.49569723235
 30
72.400000000000006
 11
-315.63984622164202
 21
1191.42073405019
 31
72.400000000000006
  0
LINE
  5
166
100
AcDbEntity
100
AcDbLine
  8
Layer0
 62
256
370
-1
  6
BYLAYER
 10
-345.74926974695501
 20
1179.9072085586299
 30
72.400000000000006
 11
-345.90833100383702
 21
1179.5299684361601
 31
72.400000000000006
  0
LINE
  5
167
100
AcDbEntity
100
AcDbLine
  8
Layer0
 62
256
370
-1
  6
BYLAYER
 10
-315.63984622164202
 20
1191.42073405019
 30
72.400000000000006
 11
-316.20924812086798
 21
1191.49569723235
 31
72.400000000000006
  0
LINE
  5
168
100
AcDbEntity
100
AcDbLine
  8
Layer0
 62
256
370
-1
  6
BYLAYER
 10
-345.90833100383702
 20
1179.5299684361601
 30
72.400000000000006
 11
-346.12356675516901
 21
1179.1817096749101
 31
72.400000000000006
  0
LINE
  5
169
100
AcDbEntity
100
AcDbLine
  8
Layer0
 62
256
370
-1
  6
BYLAYER
 10
-316.20924812086798
 20
1191.49569723235
 30
72.400000000000006
 11
-316.73984622164198
 21
1191.7154781618599
 31
72.400000000000006
  0
LINE
  5
16A
100
AcDbEntity
100
AcDbLine
  8
Layer0
 62
256
370
-1
  6
BYLAYER
 10
-346.12356675516901
 20
1179.1817096749101
 30
72.400000000000006
 11
-346.38984622164202
 21
1178.8707340501901
 31
72.400000000000006
  0
LINE
  5
16B
100
AcDbEntity
100
AcDbLine
  8
Layer0
 62
256
370
-1
  6
BYLAYER
 10
-316.73984622164198
 20
1191.7154781618599
 30
72.400000000000006
 11
-317.19548114025298
 21
1192.0650991315799
 31
72.400000000000006
  0
LINE
  5
16C
100
AcDbEntity
100
AcDbLine
  8
Layer0
 62
256
370
-1
  6
BYLAYER
 10
-346.38984622164202
 20
1178.8707340501901
 30
72.400000000000006
 11
-346.70082184636601
 21
1178.6044545837201
 31
72.400000000000006
  0
LINE
  5
16D
100
AcDbEntity
100
AcDbLine
  8
Layer0
 62
256
370
-1
  6
BYLAYER
 10
-317.19548114025298
 20
1192.0650991315799
 30
72.400000000000006
 11
-317.54510210996801
 21
1192.52073405019
 31
72.400000000000006
  0
LINE
  5
16E
100
AcDbEntity
100
AcDbLine
  8
Layer0
 62
256
370
-1
  6
BYLAYER
 10
-346.70082184636601
 20
1178.6044545837201
 30
72.400000000000006
 11
-347.049080607615
 21
1178.38921883238
 31
72.400000000000006
  0
LINE
  5
16F
100
AcDbEntity
100
AcDbLine
  8
Layer0
 62
256
370
-1
  6
BYLAYER
 10
-317.54510210996801
 20
1192.52073405019
 30
72.400000000000006
 11
-317.76488303947798
 21
1193.05133215096
 31
72.400000000000006
  0
LINE
  5
170
100
AcDbEntity
100
AcDbLine
  8
Layer0
 62
256
370
-1
  6
BYLAYER
 10
-347.049080607615
 20
1178.38921883238
 30
72.400000000000006
 11
-347.42632073008002
 21
1178.2301575755
 31
72.400000000000006
  0
LINE
  5
171
100
AcDbEntity
100
AcDbLine
  8
Layer0
 62
256
370
-1
  6
BYLAYER
 10
-317.76488303947798
 20
1193.05133215096
 30
72.400000000000006
 11
-317.83984622164201
 21
1193.6207340501901
 31
72.400000000000006
  0
LINE
  5
172
100
AcDbEntity
100
AcDbLine
  8
Layer0
 62
256
370
-1
  6
BYLAYER
 10
-347.42632073008002
 20
1178.2301575755
 30
72.400000000000006
 11
-347.82354958218099
 21
1178.13106250753
 31
72.400000000000006
  0
LINE
  5
173
100
AcDbEntity
100
AcDbLine
  8
Layer0
 62
256
370
-1
  6
BYLAYER
 10
-317.83984622164201
 20
1193.6207340501901
 30
72.400000000000006
 11
-317.76488303947798
 21
1194.19013594942
 31
72.400000000000006
  0
LINE
  5
174
100
AcDbEntity
100
AcDbLine
  8
Layer0
 62
256
370
-1
  6
BYLAYER
 10
-347.82354958218099
 20
1178.13106250753
 30
72.400000000000006
 11
-348.23129804197902
 21
1178.0942958518399
 31
72.400000000000006
  0
LINE
  5
175
100
AcDbEntity
100
AcDbLine
  8
Layer0
 62
256
370
-1
  6
BYLAYER
 10
-317.76488303947798
 20
1194.19013594942
 30
72.400000000000006
 11
-317.54510210996801
 21
1194.72073405019
 31
72.400000000000006
  0
LINE
  5
176
100
AcDbEntity
100
AcDbLine
  8
Layer0
 62
256
370
-1
  6
BYLAYER
 10
-348.23129804197902
 20
1178.0942958518399
 30
72.400000000000006
 11
-348.63984622164202
 21
1178.1207340501901
 31
72.400000000000006
  0
LINE
  5
177
100
AcDbEntity
100
AcDbLine
  8
Layer0
 62
256
370
-1
  6
BYLAYER
 10
-317.54510210996801
 20
1194.72073405019
 30
72.400000000000006
 11
-317.19548114025298
 21
1195.1763689688
 31
72.400000000000006
  0
LINE
  5
178
100
AcDbEntity
100
AcDbLine
  8
Layer0
 62
256
370
-1
  6
BYLAYER
 10
-348.63984622164202
 20
1178.1207340501901
 30
72.400000000000006
 11
-370.63984622164202
 21
1178.1207340501901
 31
72.400000000000006
  0
LINE
  5
179
100
AcDbEntity
100
AcDbLine
  8
Layer0
 62
256
370
-1
  6
BYLAYER
 10
-317.19548114025298
 20
1195.1763689688
 30
72.400000000000006
 11
-316.73984622164198
 21
1195.5259899385201
 31
72.400000000000006
  0
LINE
  5
17A
100
AcDbEntity
100
AcDbLine
  8
Layer0
 62
256
370
-1
  6
BYLAYER
 10
-370.63984622164202
 20
1178.1207340501901
 30
72.400000000000006
 11
-371.03142479830302
 21
1178.0950686343101
 31
72.400000000000006
  0
LINE
  5
17B
100
AcDbEntity
100
AcDbLine
  8
Layer0
 62
256
370
-1
  6
BYLAYER
 10
-316.73984622164198
 20
1195.5259899385201
 30
72.400000000000006
 11
-316.20924812086798
 21
1195.7457708680299
 31
72.400000000000006
  0
LINE
  5
17C
100
AcDbEntity
100
AcDbLine
  8
Layer0
 62
256
370
-1
  6
BYLAYER
 10
-371.03142479830302
 20
1178.0950686343101
 30
72.400000000000006
 11
-371.41630335694998
 21
1178.0185115290601
 31
72.400000000000006
  0
LINE
  5
17D
100
AcDbEntity
100
AcDbLine
  8
Layer0
 62
256
370
-1
  6
BYLAYER
 10
-316.20924812086798
 20
1195.7457708680299
 30
72.400000000000006
 11
-315.63984622164202
 21
1195.8207340501899
 31
72.400000000000006
  0
LINE
  5
17E
100
AcDbEntity
100
AcDbLine
  8
Layer0
 62
256
370
-1
  6
BYLAYER
 10
-371.41630335694998
 20
1178.0185115290601
 30
72.400000000000006
 11
-371.78789651873802
 21
1177.8923726477201
 31
72.400000000000006
  0
LINE
  5
17F
100
AcDbEntity
100
AcDbLine
  8
Layer0
 62
256
370
-1
  6
BYLAYER
 10
-315.63984622164202
 20
1195.8207340501899
 30
72.400000000000006
 11
-315.07044432241702
 21
1195.7457708680299
 31
72.400000000000006
  0
LINE
  5
180
100
AcDbEntity
100
AcDbLine
  8
Layer0
 62
256
370
-1
  6
BYLAYER
 10
-371.78789651873802
 20
1177.8923726477201
 30
72.400000000000006
 11
-372.13984622164202
 21
1177.7188102615401
 31
72.400000000000006
  0
LINE
  5
181
100
AcDbEntity
100
AcDbLine
  8
Layer0
 62
256
370
-1
  6
BYLAYER
 10
-315.07044432241702
 20
1195.7457708680299
 30
72.400000000000006
 11
-314.53984622164199
 21
1195.5259899385201
 31
72.400000000000006
  0
LINE
  5
182
100
AcDbEntity
100
AcDbLine
  8
Layer0
 62
256
370
-1
  6
BYLAYER
 10
-372.13984622164202
 20
1177.7188102615401
 30
72.400000000000006
 11
-372.46613050866898
 21
1177.50079407106
 31
72.400000000000006
  0
LINE
  5
183
100
AcDbEntity
100
AcDbLine
  8
Layer0
 62
256
370
-1
  6
BYLAYER
 10
-314.53984622164199
 20
1195.5259899385201
 30
72.400000000000006
 11
-314.08421130303202
 21
1195.1763689688
 31
72.400000000000006
  0
LINE
  5
184
100
AcDbEntity
100
AcDbLine
  8
Layer0
 62
256
370
-1
  6
BYLAYER
 10
-372.46613050866898
 20
1177.50079407106
 30
72.400000000000006
 11
-372.76116656520202
 21
1177.2420543937501
 31
72.400000000000006
  0
LINE
  5
185
100
AcDbEntity
100
AcDbLine
  8
Layer0
 62
256
370
-1
  6
BYLAYER
 10
-314.08421130303202
 20
1195.1763689688
 30
72.400000000000006
 11
-313.73459033331699
 21
1194.72073405019
 31
72.400000000000006
  0
LINE
  5
186
100
AcDbEntity
100
AcDbLine
  8
Layer0
 62
256
370
-1
  6
BYLAYER
 10
-372.76116656520202
 20
1177.2420543937501
 30
72.400000000000006
 11
-373.01990624251602
 21
1176.94701833722
 31
72.400000000000006
  0
LINE
  5
187
100
AcDbEntity
100
AcDbLine
  8
Layer0
 62
256
370
-1
  6
BYLAYER
 10
-313.73459033331699
 20
1194.72073405019
 30
72.400000000000006
 11
-313.514809403806
 21
1194.19013594942
 31
72.400000000000006
  0
LINE
  5
188
100
AcDbEntity
100
AcDbLine
  8
Layer0
 62
256
370
-1
  6
BYLAYER
 10
-373.01990624251602
 20
1176.94701833722
 30
72.400000000000006
 11
-373.23792243299602
 21
1176.6207340501901
 31
72.400000000000006
  0
LINE
  5
189
100
AcDbEntity
100
AcDbLine
  8
Layer0
 62
256
370
-1
  6
BYLAYER
 10
-313.514809403806
 20
1194.19013594942
 30
72.400000000000006
 11
-313.43984622164197
 21
1193.6207340501901
 31
72.400000000000006
  0
LINE
  5
18A
100
AcDbEntity
100
AcDbLine
  8
Layer0
 62
256
370
-1
  6
BYLAYER
 10
-373.23792243299602
 20
1176.6207340501901
 30
72.400000000000006
 11
-373.411484819176
 21
1176.26878434728
 31
72.400000000000006
  0
LINE
  5
18B
100
AcDbEntity
100
AcDbLine
  8
Layer0
 62
256
370
-1
  6
BYLAYER
 10
-313.43984622164197
 20
1193.6207340501901
 30
72.400000000000006
 11
-313.514809403806
 21
1193.05133215096
 31
72.400000000000006
  0
LINE
  5
18C
100
AcDbEntity
100
AcDbLine
  8
Layer0
 62
256
370
-1
  6
BYLAYER
 10
-373.411484819176
 20
1176.26878434728
 30
72.400000000000006
 11
-373.53762370050998
 21
1175.8971911855001
 31
72.400000000000006
  0
LINE
  5
18D
100
AcDbEntity
100
AcDbLine
  8
Layer0
 62
256
370
-1
  6
BYLAYER
 10
-313.514809403806
 20
1193.05133215096
 30
72.400000000000006
 11
-313.73459033331699
 21
1192.52073405019
 31
72.400000000000006
  0
LINE
  5
18E
100
AcDbEntity
100
AcDbLine
  8
Layer0
 62
256
370
-1
  6
BYLAYER
 10
-373.53762370050998
 20
1175.8971911855001
 30
72.400000000000006
 11
-373.61418080576402
 21
1175.51231262685
 31
72.400000000000006
  0
LINE
  5
18F
100
AcDbEntity
100
AcDbLine
  8
Layer0
 62
256
370
-1
  6
BYLAYER
 10
-313.73459033331699
 20
1192.52073405019
 30
72.400000000000006
 11
-314.08421130303202
 21
1192.0650991315799
 31
72.400000000000006
  0
LINE
  5
190
100
AcDbEntity
100
AcDbLine
  8
Layer0
 62
256
370
-1
  6
BYLAYER
 10
-373.61418080576402
 20
1175.51231262685
 30
72.400000000000006
 11
-373.63984622164202
 21
1175.1207340501901
 31
72.400000000000006
  0
LINE
  5
191
100
AcDbEntity
100
AcDbLine
  8
Layer0
 62
256
370
-1
  6
BYLAYER
 10
-286.57748288845801
 20
1191.63054876207
 30
72.400000000000006
 11
-287.06063154964301
 21
1191.9410409080499
 31
72.400000000000006
  0
LINE
  5
192
100
AcDbEntity
100
AcDbLine
  8
Layer0
 62
256
370
-1
  6
BYLAYER
 10
-373.63984622164202
 20
1175.1207340501901
 30
72.400000000000006
 11
-373.63984622164202
 21
1139.02073405019
 31
72.400000000000006
  0
LINE
  5
193
100
AcDbEntity
100
AcDbLine
  8
Layer0
 62
256
370
-1
  6
BYLAYER
 10
-287.06063154964301
 20
1191.9410409080499
 30
72.400000000000006
 11
-287.44695603868303
 21
1192.36600136585
 31
72.400000000000006
  0
LINE
  5
194
100
AcDbEntity
100
AcDbLine
  8
Layer0
 62
256
370
-1
  6
BYLAYER
 10
-373.63984622164202
 20
1139.02073405019
 30
72.400000000000006
 11
-373.63984622164202
 21
1102.92073405019
 31
72.400000000000006
  0
LINE
  5
195
100
AcDbEntity
100
AcDbLine
  8
Layer0
 62
256
370
-1
  6
BYLAYER
 10
-287.44695603868303
 20
1192.36600136585
 30
72.400000000000006
 11
-287.71012898008303
 21
1192.87646978254
 31
72.400000000000006
  0
LINE
  5
196
100
AcDbEntity
100
AcDbLine
  8
Layer0
 62
256
370
-1
  6
BYLAYER
 10
-373.63984622164202
 20
1102.92073405019
 30
72.400000000000006
 11
-373.588515389885
 21
1102.1375768968701
 31
72.400000000000006
  0
LINE
  5
197
100
AcDbEntity
100
AcDbLine
  8
Layer0
 62
256
370
-1
  6
BYLAYER
 10
-287.71012898008303
 20
1192.87646978254
 30
72.400000000000006
 11
-287.83221557279899
 21
1193.4376585791099
 31
72.400000000000006
  0
LINE
  5
198
100
AcDbEntity
100
AcDbLine
  8
Layer0
 62
256
370
-1
  6
BYLAYER
 10
-373.588515389885
 20
1102.1375768968701
 30
72.400000000000006
 11
-373.43540117937698
 21
1101.36781977957
 31
72.400000000000006
  0
LINE
  5
199
100
AcDbEntity
100
AcDbLine
  8
Layer0
 62
256
370
-1
  6
BYLAYER
 10
-287.83221557279899
 20
1193.4376585791099
 30
72.400000000000006
 11
-287.80489581729501
 21
1194.0113236664899
 31
72.400000000000006
  0
LINE
  5
19A
100
AcDbEntity
100
AcDbLine
  8
Layer0
 62
256
370
-1
  6
BYLAYER
 10
-373.43540117937698
 20
1101.36781977957
 30
72.400000000000006
 11
-373.18312341670998
 21
1100.6246334560001
 31
72.400000000000006
  0
LINE
  5
19B
100
AcDbEntity
100
AcDbLine
  8
Layer0
 62
256
370
-1
  6
BYLAYER
 10
-287.80489581729501
 20
1194.0113236664899
 30
72.400000000000006
 11
-287.63003150976101
 21
1194.5583707169999
 31
72.400000000000006
  0
LINE
  5
19C
100
AcDbEntity
100
AcDbLine
  8
Layer0
 62
256
370
-1
  6
BYLAYER
 10
-373.18312341670998
 20
1100.6246334560001
 30
72.400000000000006
 11
-372.83599864434899
 21
1099.92073405019
 31
72.400000000000006
  0
LINE
  5
19D
100
AcDbEntity
100
AcDbLine
  8
Layer0
 62
256
370
-1
  6
BYLAYER
 10
-287.63003150976101
 20
1194.5583707169999
 30
72.400000000000006
 11
-287.31953936377801
 21
1195.0415193781901
 31
72.400000000000006
  0
LINE
  5
19E
100
AcDbEntity
100
AcDbLine
  8
Layer0
 62
256
370
-1
  6
BYLAYER
 10
-372.83599864434899
 20
1099.92073405019
 30
72.400000000000006
 11
-372.39996626339001
 21
1099.26816547614
 31
72.400000000000006
  0
LINE
  5
19F
100
AcDbEntity
100
AcDbLine
  8
Layer0
 62
256
370
-1
  6
BYLAYER
 10
-287.31953936377801
 20
1195.0415193781901
 30
72.400000000000006
 11
-286.894578905983
 21
1195.42784386723
 31
72.400000000000006
  0
LINE
  5
1A0
100
AcDbEntity
100
AcDbLine
  8
Layer0
 62
256
370
-1
  6
BYLAYER
 10
-372.39996626339001
 20
1099.26816547614
 30
72.400000000000006
 11
-371.88248690876202
 21
1098.67809336307
 31
72.400000000000006
  0
LINE
  5
1A1
100
AcDbEntity
100
AcDbLine
  8
Layer0
 62
256
370
-1
  6
BYLAYER
 10
-286.894578905983
 20
1195.42784386723
 30
72.400000000000006
 11
-286.38411048929498
 21
1195.6910168086299
 31
72.400000000000006
  0
LINE
  5
1A2
100
AcDbEntity
100
AcDbLine
  8
Layer0
 62
256
370
-1
  6
BYLAYER
 10
-371.88248690876202
 20
1098.67809336307
 30
72.400000000000006
 11
-371.29241479569498
 21
1098.16061400844
 31
72.400000000000006
  0
LINE
  5
1A3
100
AcDbEntity
100
AcDbLine
  8
Layer0
 62
256
370
-1
  6
BYLAYER
 10
-286.38411048929498
 20
1195.6910168086299
 30
72.400000000000006
 11
-285.82292169272
 21
1195.81310340135
 31
72.400000000000006
  0
LINE
  5
1A4
100
AcDbEntity
100
AcDbLine
  8
Layer0
 62
256
370
-1
  6
BYLAYER
 10
-371.29241479569498
 20
1098.16061400844
 30
72.400000000000006
 11
-370.63984622164202
 21
1097.7245816274799
 31
72.400000000000006
  0
LINE
  5
1A5
100
AcDbEntity
100
AcDbLine
  8
Layer0
 62
256
370
-1
  6
BYLAYER
 10
-285.82292169272
 20
1195.81310340135
 30
72.400000000000006
 11
-285.24925660533802
 21
1195.78578364584
 31
72.400000000000006
  0
LINE
  5
1A6
100
AcDbEntity
100
AcDbLine
  8
Layer0
 62
256
370
-1
  6
BYLAYER
 10
-370.63984622164202
 20
1097.7245816274799
 30
72.400000000000006
 11
-369.93594681583301
 21
1097.37745685512
 31
72.400000000000006
  0
LINE
  5
1A7
100
AcDbEntity
100
AcDbLine
  8
Layer0
 62
256
370
-1
  6
BYLAYER
 10
-285.24925660533802
 20
1195.78578364584
 30
72.400000000000006
 11
-284.70220955482699
 21
1195.6109193383099
 31
72.400000000000006
  0
LINE
  5
1A8
100
AcDbEntity
100
AcDbLine
  8
Layer0
 62
256
370
-1
  6
BYLAYER
 10
-369.93594681583301
 20
1097.37745685512
 30
72.400000000000006
 11
-369.192760492258
 21
1097.12517909246
 31
72.400000000000006
  0
LINE
  5
1A9
100
AcDbEntity
100
AcDbLine
  8
Layer0
 62
256
370
-1
  6
BYLAYER
 10
-284.70220955482699
 20
1195.6109193383099
 30
72.400000000000006
 11
-284.21906089364199
 21
1195.3004271923301
 31
72.400000000000006
  0
LINE
  5
1AA
100
AcDbEntity
100
AcDbLine
  8
Layer0
 62
256
370
-1
  6
BYLAYER
 10
-369.192760492258
 20
1097.12517909246
 30
72.400000000000006
 11
-368.423003374963
 21
1096.97206488195
 31
72.400000000000006
  0
LINE
  5
1AB
100
AcDbEntity
100
AcDbLine
  8
Layer0
 62
256
370
-1
  6
BYLAYER
 10
-284.21906089364199
 20
1195.3004271923301
 30
72.400000000000006
 11
-283.83273640460101
 21
1194.8754667345299
 31
72.400000000000006
  0
LINE
  5
1AC
100
AcDbEntity
100
AcDbLine
  8
Layer0
 62
256
370
-1
  6
BYLAYER
 10
-368.423003374963
 20
1096.97206488195
 30
72.400000000000006
 11
-367.63984622164202
 21
1096.92073405019
 31
72.400000000000006
  0
LINE
  5
1AD
100
AcDbEntity
100
AcDbLine
  8
Layer0
 62
256
370
-1
  6
BYLAYER
 10
-283.83273640460101
 20
1194.8754667345299
 30
72.400000000000006
 11
-283.56956346320197
 21
1194.36499831784
 31
72.400000000000006
  0
LINE
  5
1AE
100
AcDbEntity
100
AcDbLine
  8
Layer0
 62
256
370
-1
  6
BYLAYER
 10
-367.63984622164202
 20
1096.92073405019
 30
72.400000000000006
 11
-349.96234755185401
 21
1096.92073405019
 31
72.400000000000006
  0
LINE
  5
1AF
100
AcDbEntity
100
AcDbLine
  8
Layer0
 62
256
370
-1
  6
BYLAYER
 10
-283.56956346320197
 20
1194.36499831784
 30
72.400000000000006
 11
-283.44747687048601
 21
1193.8038095212701
 31
72.400000000000006
  0
LINE
  5
1B0
100
AcDbEntity
100
AcDbLine
  8
Layer0
 62
256
370
-1
  6
BYLAYER
 10
-349.96234755185401
 20
1096.92073405019
 30
72.400000000000006
 11
-348.62036592018302
 21
1096.9645864307099
 31
72.400000000000006
  0
LINE
  5
1B1
100
AcDbEntity
100
AcDbLine
  8
Layer0
 62
256
370
-1
  6
BYLAYER
 10
-283.44747687048601
 20
1193.8038095212701
 30
72.400000000000006
 11
-283.47479662599
 21
1193.23014443388
 31
72.400000000000006
  0
LINE
  5
1B2
100
AcDbEntity
100
AcDbLine
  8
Layer0
 62
256
370
-1
  6
BYLAYER
 10
-348.62036592018302
 20
1096.9645864307099
 30
72.400000000000006
 11
-347.28411008980203
 21
1097.0959564683501
 31
72.400000000000006
  0
LINE
  5
1B3
100
AcDbEntity
100
AcDbLine
  8
Layer0
 62
256
370
-1
  6
BYLAYER
 10
-283.47479662599
 20
1193.23014443388
 30
72.400000000000006
 11
-283.64966093352399
 21
1192.6830973833701
 31
72.400000000000006
  0
LINE
  5
1B4
100
AcDbEntity
100
AcDbLine
  8
Layer0
 62
256
370
-1
  6
BYLAYER
 10
-347.28411008980203
 20
1097.0959564683501
 30
72.400000000000006
 11
-345.95928143185699
 21
1097.31428364967
 31
72.400000000000006
  0
LINE
  5
1B5
100
AcDbEntity
100
AcDbLine
  8
Layer0
 62
256
370
-1
  6
BYLAYER
 10
-283.64966093352399
 20
1192.6830973833701
 30
72.400000000000006
 11
-283.96015307950597
 21
1192.1999487221899
 31
72.400000000000006
  0
LINE
  5
1B6
100
AcDbEntity
100
AcDbLine
  8
Layer0
 62
256
370
-1
  6
BYLAYER
 10
-345.95928143185699
 20
1097.31428364967
 30
72.400000000000006
 11
-344.65153256145101
 21
1097.6186364432599
 31
72.400000000000006
  0
LINE
  5
1B7
100
AcDbEntity
100
AcDbLine
  8
Layer0
 62
256
370
-1
  6
BYLAYER
 10
-283.96015307950597
 20
1192.1999487221899
 30
72.400000000000006
 11
-284.38511353730098
 21
1191.81362423315
 31
72.400000000000006
  0
LINE
  5
1B8
100
AcDbEntity
100
AcDbLine
  8
Layer0
 62
256
370
-1
  6
BYLAYER
 10
-344.65153256145101
 20
1097.6186364432599
 30
72.400000000000006
 11
-343.36644321975899
 21
1098.00771627426
 31
72.400000000000006
  0
LINE
  5
1B9
100
AcDbEntity
100
AcDbLine
  8
Layer0
 62
256
370
-1
  6
BYLAYER
 10
-284.38511353730098
 20
1191.81362423315
 30
72.400000000000006
 11
-284.89558195399002
 21
1191.5504512917501
 31
72.400000000000006
  0
LINE
  5
1BA
100
AcDbEntity
100
AcDbLine
  8
Layer0
 62
256
370
-1
  6
BYLAYER
 10
-343.36644321975899
 20
1098.00771627426
 30
72.400000000000006
 11
-342.10949646708099
 21
1098.47986306494
 31
72.400000000000006
  0
LINE
  5
1BB
100
AcDbEntity
100
AcDbLine
  8
Layer0
 62
256
370
-1
  6
BYLAYER
 10
-284.89558195399002
 20
1191.5504512917501
 30
72.400000000000006
 11
-285.456770750565
 21
1191.42836469903
 31
72.400000000000006
  0
LINE
  5
1BC
100
AcDbEntity
100
AcDbLine
  8
Layer0
 62
256
370
-1
  6
BYLAYER
 10
-342.10949646708099
 20
1098.47986306494
 30
72.400000000000006
 11
-340.886055288401
 21
1099.0330623177699
 31
72.400000000000006
  0
LINE
  5
1BD
100
AcDbEntity
100
AcDbLine
  8
Layer0
 62
256
370
-1
  6
BYLAYER
 10
-285.456770750565
 20
1191.42836469903
 30
72.400000000000006
 11
-286.03043583794698
 21
1191.45568445454
 31
72.400000000000006
  0
LINE
  5
1BE
100
AcDbEntity
100
AcDbLine
  8
Layer0
 62
256
370
-1
  6
BYLAYER
 10
-340.886055288401
 20
1099.0330623177699
 30
72.400000000000006
 11
-339.70133971125898
 21
1099.66495371057
 31
72.400000000000006
  0
LINE
  5
1BF
100
AcDbEntity
100
AcDbLine
  8
Layer0
 62
256
370
-1
  6
BYLAYER
 10
-286.03043583794698
 20
1191.45568445454
 30
72.400000000000006
 11
-286.57748288845801
 21
1191.63054876207
 31
72.400000000000006
  0
LINE
  5
1C0
100
AcDbEntity
100
AcDbLine
  8
Layer0
 62
256
370
-1
  6
BYLAYER
 10
-339.70133971125898
 20
1099.66495371057
 30
72.400000000000006
 11
-338.56040453358798
 21
1100.3728411672801
 31
72.400000000000006
  0
LINE
  5
1C1
100
AcDbEntity
100
AcDbLine
  8
Layer0
 62
256
370
-1
  6
BYLAYER
 10
-361.70924812086798
 20
1145.99569723235
 30
72.400000000000006
 11
-362.23984622164198
 21
1146.2154781618599
 31
72.400000000000006
  0
LINE
  5
1C2
100
AcDbEntity
100
AcDbLine
  8
Layer0
 62
256
370
-1
  6
BYLAYER
 10
-338.56040453358798
 20
1100.3728411672801
 30
72.400000000000006
 11
-337.46811775652799
 21
1101.15370436124
 31
72.400000000000006
  0
LINE
  5
1C3
100
AcDbEntity
100
AcDbLine
  8
Layer0
 62
256
370
-1
  6
BYLAYER
 10
-362.23984622164198
 20
1146.2154781618599
 30
72.400000000000006
 11
-362.69548114025298
 21
1146.5650991315799
 31
72.400000000000006
  0
LINE
  5
1C4
100
AcDbEntity
100
AcDbLine
  8
Layer0
 62
256
370
-1
  6
BYLAYER
 10
-337.46811775652799
 20
1101.15370436124
 30
72.400000000000006
 11
-336.42913981423601
 21
1102.0042116019199
 31
72.400000000000006
  0
LINE
  5
1C5
100
AcDbEntity
100
AcDbLine
  8
Layer0
 62
256
370
-1
  6
BYLAYER
 10
-362.69548114025298
 20
1146.5650991315799
 30
72.400000000000006
 11
-363.04510210996801
 21
1147.02073405019
 31
72.400000000000006
  0
LINE
  5
1C6
100
AcDbEntity
100
AcDbLine
  8
Layer0
 62
256
370
-1
  6
BYLAYER
 10
-336.42913981423601
 20
1102.0042116019199
 30
72.400000000000006
 11
-335.44790368932701
 21
1102.92073405019
 31
72.400000000000006
  0
LINE
  5
1C7
100
AcDbEntity
100
AcDbLine
  8
Layer0
 62
256
370
-1
  6
BYLAYER
 10
-363.04510210996801
 20
1147.02073405019
 30
72.400000000000006
 11
-363.26488303947798
 21
1147.55133215096
 31
72.400000000000006
  0
LINE
  5
1C8
100
AcDbEntity
100
AcDbLine
  8
Layer0
 62
256
370
-1
  6
BYLAYER
 10
-335.44790368932701
 20
1102.92073405019
 30
72.400000000000006
 11
-274.63984622164202
 21
1163.55620312884
 31
72.400000000000105
  0
LINE
  5
1C9
100
AcDbEntity
100
AcDbLine
  8
Layer0
 62
256
370
-1
  6
BYLAYER
 10
-363.26488303947798
 20
1147.55133215096
 30
72.400000000000006
 11
-363.33984622164297
 21
1148.1207340501901
 31
72.400000000000006
  0
LINE
  5
1CA
100
AcDbEntity
100
AcDbLine
  8
Layer0
 62
256
370
-1
  6
BYLAYER
 10
-274.63984622164202
 20
1163.55620312884
 30
72.400000000000105
 11
-273.723631703303
 21
1164.53176901253
 31
72.400000000000105
  0
LINE
  5
1CB
100
AcDbEntity
100
AcDbLine
  8
Layer0
 62
256
370
-1
  6
BYLAYER
 10
-363.33984622164297
 20
1148.1207340501901
 30
72.400000000000006
 11
-363.26488303947798
 21
1148.69013594942
 31
72.400000000000006
  0
LINE
  5
1CC
100
AcDbEntity
100
AcDbLine
  8
Layer0
 62
256
370
-1
  6
BYLAYER
 10
-273.723631703303
 20
1164.53176901253
 30
72.400000000000105
 11
-272.87330632200701
 21
1165.5652701412
 31
72.400000000000105
  0
LINE
  5
1CD
100
AcDbEntity
100
AcDbLine
  8
Layer0
 62
256
370
-1
  6
BYLAYER
 10
-363.26488303947798
 20
1148.69013594942
 30
72.400000000000006
 11
-363.04510210996801
 21
1149.22073405019
 31
72.400000000000006
  0
LINE
  5
1CE
100
AcDbEntity
100
AcDbLine
  8
Layer0
 62
256
370
-1
  6
BYLAYER
 10
-272.87330632200701
 20
1165.5652701412
 30
72.400000000000105
 11
-272.092524486017
 21
1166.65226487974
 31
72.400000000000006
  0
LINE
  5
1CF
100
AcDbEntity
100
AcDbLine
  8
Layer0
 62
256
370
-1
  6
BYLAYER
 10
-363.04510210996801
 20
1149.22073405019
 30
72.400000000000006
 11
-362.69548114025298
 21
1149.6763689688
 31
72.400000000000006
  0
LINE
  5
1D0
100
AcDbEntity
100
AcDbLine
  8
Layer0
 62
256
370
-1
  6
BYLAYER
 10
-272.092524486017
 20
1166.65226487974
 30
72.400000000000006
 11
-271.38464172917202
 21
1167.78808169578
 31
72.400000000000006
  0
LINE
  5
1D1
100
AcDbEntity
100
AcDbLine
  8
Layer0
 62
256
370
-1
  6
BYLAYER
 10
-362.69548114025298
 20
1149.6763689688
 30
72.400000000000006
 11
-362.23984622164198
 21
1150.0259899385201
 31
72.400000000000006
  0
LINE
  5
1D2
100
AcDbEntity
100
AcDbLine
  8
Layer0
 62
256
370
-1
  6
BYLAYER
 10
-271.38464172917202
 20
1167.78808169578
 30
72.400000000000006
 11
-270.75270028995197
 21
1168.9678392363101
 31
72.400000000000006
  0
LINE
  5
1D3
100
AcDbEntity
100
AcDbLine
  8
Layer0
 62
256
370
-1
  6
BYLAYER
 10
-362.23984622164198
 20
1150.0259899385201
 30
72.400000000000006
 11
-361.70924812086798
 21
1150.2457708680299
 31
72.400000000000006
  0
LINE
  5
1D4
100
AcDbEntity
100
AcDbLine
  8
Layer0
 62
256
370
-1
  6
BYLAYER
 10
-270.75270028995197
 20
1168.9678392363101
 30
72.400000000000006
 11
-270.19941603697299
 21
1170.18646730608
 31
72.400000000000006
  0
LINE
  5
1D5
100
AcDbEntity
100
AcDbLine
  8
Layer0
 62
256
370
-1
  6
BYLAYER
 10
-361.70924812086798
 20
1150.2457708680299
 30
72.400000000000006
 11
-361.13984622164202
 21
1150.3207340501899
 31
72.400000000000006
  0
LINE
  5
1D6
100
AcDbEntity
100
AcDbLine
  8
Layer0
 62
256
370
-1
  6
BYLAYER
 10
-270.19941603697299
 20
1170.18646730608
 30
72.400000000000006
 11
-269.72716679711101
 21
1171.43872865759
 31
72.400000000000006
  0
LINE
  5
1D7
100
AcDbEntity
100
AcDbLine
  8
Layer0
 62
256
370
-1
  6
BYLAYER
 10
-361.13984622164202
 20
1150.3207340501899
 30
72.400000000000006
 11
-360.57044432241702
 21
1150.2457708680299
 31
72.400000000000006
  0
LINE
  5
1D8
100
AcDbEntity
100
AcDbLine
  8
Layer0
 62
256
370
-1
  6
BYLAYER
 10
-269.72716679711101
 20
1171.43872865759
 30
72.400000000000006
 11
-269.33798213641398
 21
1172.7192414989599
 31
72.400000000000006
  0
LINE
  5
1D9
100
AcDbEntity
100
AcDbLine
  8
Layer0
 62
256
370
-1
  6
BYLAYER
 10
-360.57044432241702
 20
1150.2457708680299
 30
72.400000000000006
 11
-360.03984622164199
 21
1150.0259899385201
 31
72.400000000000006
  0
LINE
  5
1DA
100
AcDbEntity
100
AcDbLine
  8
Layer0
 62
256
370
-1
  6
BYLAYER
 10
-269.33798213641398
 20
1172.7192414989599
 30
72.400000000000006
 11
-269.03353463771998
 21
1174.0225026230601
 31
72.400000000000006
  0
LINE
  5
1DB
100
AcDbEntity
100
AcDbLine
  8
Layer0
 62
256
370
-1
  6
BYLAYER
 10
-360.03984622164199
 20
1150.0259899385201
 30
72.400000000000006
 11
-359.58421130303202
 21
1149.6763689688
 31
72.400000000000006
  0
LINE
  5
1DC
100
AcDbEntity
100
AcDbLine
  8
Layer0
 62
256
370
-1
  6
BYLAYER
 10
-269.03353463771998
 20
1174.0225026230601
 30
72.400000000000006
 11
-268.81513271246598
 21
1175.34291105838
 31
72.400000000000006
  0
LINE
  5
1DD
100
AcDbEntity
100
AcDbLine
  8
Layer0
 62
256
370
-1
  6
BYLAYER
 10
-359.58421130303202
 20
1149.6763689688
 30
72.400000000000006
 11
-359.23459033331699
 21
1149.22073405019
 31
72.400000000000006
  0
LINE
  5
1DE
100
AcDbEntity
100
AcDbLine
  8
Layer0
 62
256
370
-1
  6
BYLAYER
 10
-268.81513271246598
 20
1175.34291105838
 30
72.400000000000006
 11
-268.68371497758301
 21
1176.67479214016
 31
72.400000000000006
  0
LINE
  5
1DF
100
AcDbEntity
100
AcDbLine
  8
Layer0
 62
256
370
-1
  6
BYLAYER
 10
-359.23459033331699
 20
1149.22073405019
 30
72.400000000000006
 11
-359.01480940380702
 21
1148.69013594942
 31
72.400000000000006
  0
LINE
  5
1E0
100
AcDbEntity
100
AcDbLine
  8
Layer0
 62
256
370
-1
  6
BYLAYER
 10
-268.68371497758301
 20
1176.67479214016
 30
72.400000000000006
 11
-268.63984622164202
 21
1178.01242189809
 31
72.400000000000006
  0
LINE
  5
1E1
100
AcDbEntity
100
AcDbLine
  8
Layer0
 62
256
370
-1
  6
BYLAYER
 10
-359.01480940380702
 20
1148.69013594942
 30
72.400000000000006
 11
-358.93984622164197
 21
1148.1207340501901
 31
72.400000000000006
  0
LINE
  5
1E2
100
AcDbEntity
100
AcDbLine
  8
Layer0
 62
256
370
-1
  6
BYLAYER
 10
-291.805225610283
 20
1167.6584500572201
 30
72.400000000000105
 11
-304.02307583521502
 21
1167.64894022574
 31
72.400000000000105
  0
LINE
  5
1E3
100
AcDbEntity
100
AcDbLine
  8
Layer0
 62
256
370
-1
  6
BYLAYER
 10
-358.93984622164197
 20
1148.1207340501901
 30
72.400000000000006
 11
-359.01480940380702
 21
1147.55133215096
 31
72.400000000000006
  0
LINE
  5
1E4
100
AcDbEntity
100
AcDbLine
  8
Layer0
 62
256
370
-1
  6
BYLAYER
 10
-304.02307583521502
 20
1167.64894022574
 30
72.400000000000105
 11
-304.67012344797098
 21
1167.73412566001
 31
72.400000000000105
  0
LINE
  5
1E5
100
AcDbEntity
100
AcDbLine
  8
Layer0
 62
256
370
-1
  6
BYLAYER
 10
-359.01480940380702
 20
1147.55133215096
 30
72.400000000000006
 11
-359.23459033331699
 21
1147.02073405019
 31
72.400000000000006
  0
LINE
  5
1E6
100
AcDbEntity
100
AcDbLine
  8
Layer0
 62
256
370
-1
  6
BYLAYER
 10
-304.67012344797098
 20
1167.73412566001
 30
72.400000000000105
 11
-305.27307583521502
 21
1167.9838767162801
 31
72.400000000000105
  0
LINE
  5
1E7
100
AcDbEntity
100
AcDbLine
  8
Layer0
 62
256
370
-1
  6
BYLAYER
 10
-359.23459033331699
 20
1147.02073405019
 30
72.400000000000006
 11
-359.58421130303202
 21
1146.5650991315799
 31
72.400000000000006
  0
LINE
  5
1E8
100
AcDbEntity
100
AcDbLine
  8
Layer0
 62
256
370
-1
  6
BYLAYER
 10
-305.27307583521502
 20
1167.9838767162801
 30
72.400000000000105
 11
-305.79084278818101
 21
1168.38117327277
 31
72.400000000000105
  0
LINE
  5
1E9
100
AcDbEntity
100
AcDbLine
  8
Layer0
 62
256
370
-1
  6
BYLAYER
 10
-359.58421130303202
 20
1146.5650991315799
 30
72.400000000000006
 11
-360.03984622164199
 21
1146.2154781618599
 31
72.400000000000006
  0
LINE
  5
1EA
100
AcDbEntity
100
AcDbLine
  8
Layer0
 62
256
370
-1
  6
BYLAYER
 10
-305.79084278818101
 20
1168.38117327277
 30
72.400000000000105
 11
-306.18813934467602
 21
1168.89894022574
 31
72.400000000000105
  0
LINE
  5
1EB
100
AcDbEntity
100
AcDbLine
  8
Layer0
 62
256
370
-1
  6
BYLAYER
 10
-360.03984622164199
 20
1146.2154781618599
 30
72.400000000000006
 11
-360.57044432241702
 21
1145.99569723235
 31
72.400000000000006
  0
LINE
  5
1EC
100
AcDbEntity
100
AcDbLine
  8
Layer0
 62
256
370
-1
  6
BYLAYER
 10
-306.18813934467602
 20
1168.89894022574
 30
72.400000000000105
 11
-306.43789040093702
 21
1169.5018926129801
 31
72.400000000000105
  0
LINE
  5
1ED
100
AcDbEntity
100
AcDbLine
  8
Layer0
 62
256
370
-1
  6
BYLAYER
 10
-360.57044432241702
 20
1145.99569723235
 30
72.400000000000006
 11
-361.13984622164202
 21
1145.92073405019
 31
72.400000000000006
  0
LINE
  5
1EE
100
AcDbEntity
100
AcDbLine
  8
Layer0
 62
256
370
-1
  6
BYLAYER
 10
-306.43789040093702
 20
1169.5018926129801
 30
72.400000000000105
 11
-306.52307583521502
 21
1170.14894022574
 31
72.400000000000105
  0
LINE
  5
1EF
100
AcDbEntity
100
AcDbLine
  8
Layer0
 62
256
370
-1
  6
BYLAYER
 10
-361.13984622164202
 20
1145.92073405019
 30
72.400000000000006
 11
-361.70924812086798
 21
1145.99569723235
 31
72.400000000000006
  0
LINE
  5
1F0
100
AcDbEntity
100
AcDbLine
  8
Layer0
 62
256
370
-1
  6
BYLAYER
 10
-306.52307583521502
 20
1170.14894022574
 30
72.400000000000105
 11
-306.43789040093702
 21
1170.79598783849
 31
72.400000000000105
  0
LINE
  5
1F1
100
AcDbEntity
100
AcDbLine
  8
Layer0
 62
256
370
-1
  6
BYLAYER
 10
-360.46586885834699
 20
1116.0265147412899
 30
72.400000000000006
 11
-361.03085792186499
 21
1115.9234353562199
 31
72.400000000000006
  0
LINE
  5
1F2
100
AcDbEntity
100
AcDbLine
  8
Layer0
 62
256
370
-1
  6
BYLAYER
 10
-306.43789040093702
 20
1170.79598783849
 30
72.400000000000105
 11
-306.18813934467602
 21
1171.39894022574
 31
72.400000000000105
  0
LINE
  5
1F3
100
AcDbEntity
100
AcDbLine
  8
Layer0
 62
256
370
-1
  6
BYLAYER
 10
-361.03085792186499
 20
1115.9234353562199
 30
72.400000000000006
 11
-361.60327435790202
 21
1115.9700982459401
 31
72.400000000000006
  0
LINE
  5
1F4
100
AcDbEntity
100
AcDbLine
  8
Layer0
 62
256
370
-1
  6
BYLAYER
 10
-306.18813934467602
 20
1171.39894022574
 30
72.400000000000105
 11
-305.79084278818101
 21
1171.9167071787001
 31
72.400000000000105
  0
LINE
  5
1F5
100
AcDbEntity
100
AcDbLine
  8
Layer0
 62
256
370
-1
  6
BYLAYER
 10
-361.60327435790202
 20
1115.9700982459401
 30
72.400000000000006
 11
-362.14410893230399
 21
1116.16332341162
 31
72.400000000000006
  0
LINE
  5
1F6
100
AcDbEntity
100
AcDbLine
  8
Layer0
 62
256
370
-1
  6
BYLAYER
 10
-305.79084278818101
 20
1171.9167071787001
 30
72.400000000000105
 11
-305.27307583521502
 21
1172.3140037352
 31
72.400000000000105
  0
LINE
  5
1F7
100
AcDbEntity
100
AcDbLine
  8
Layer0
 62
256
370
-1
  6
BYLAYER
 10
-362.14410893230399
 20
1116.16332341162
 30
72.400000000000006
 11
-362.61650466259698
 21
1116.48994287755
 31
72.400000000000006
  0
LINE
  5
1F8
100
AcDbEntity
100
AcDbLine
  8
Layer0
 62
256
370
-1
  6
BYLAYER
 10
-305.27307583521502
 20
1172.3140037352
 30
72.400000000000105
 11
-304.67012344797098
 21
1172.56375479146
 31
72.400000000000105
  0
LINE
  5
1F9
100
AcDbEntity
100
AcDbLine
  8
Layer0
 62
256
370
-1
  6
BYLAYER
 10
-362.61650466259698
 20
1116.48994287755
 30
72.400000000000006
 11
-362.988268560432
 21
1116.9276980668801
 31
72.400000000000006
  0
LINE
  5
1FA
100
AcDbEntity
100
AcDbLine
  8
Layer0
 62
256
370
-1
  6
BYLAYER
 10
-304.67012344797098
 20
1172.56375479146
 30
72.400000000000105
 11
-304.02307583521502
 21
1172.64894022574
 31
72.400000000000105
  0
LINE
  5
1FB
100
AcDbEntity
100
AcDbLine
  8
Layer0
 62
256
370
-1
  6
BYLAYER
 10
-362.988268560432
 20
1116.9276980668801
 30
72.400000000000006
 11
-363.23406553054099
 21
1117.44675668689
 31
72.400000000000006
  0
LINE
  5
1FC
100
AcDbEntity
100
AcDbLine
  8
Layer0
 62
256
370
-1
  6
BYLAYER
 10
-304.02307583521502
 20
1172.64894022574
 30
72.400000000000105
 11
-292.02307583521502
 21
1172.64894022574
 31
72.400000000000105
  0
LINE
  5
1FD
100
AcDbEntity
100
AcDbLine
  8
Layer0
 62
256
370
-1
  6
BYLAYER
 10
-363.23406553054099
 20
1117.44675668689
 30
72.400000000000006
 11
-363.33714491561
 21
1118.01174575041
 31
72.400000000000006
  0
LINE
  5
1FE
100
AcDbEntity
100
AcDbLine
  8
Layer0
 62
256
370
-1
  6
BYLAYER
 10
-292.02307583521502
 20
1172.64894022574
 30
72.400000000000105
 11
-291.58891670648501
 21
1172.61095278682
 31
72.400000000000105
  0
LINE
  5
1FF
100
AcDbEntity
100
AcDbLine
  8
Layer0
 62
256
370
-1
  6
BYLAYER
 10
-363.33714491561
 20
1118.01174575041
 30
72.400000000000006
 11
-363.29048202589303
 21
1118.5841621864499
 31
72.400000000000006
  0
LINE
  5
200
100
AcDbEntity
100
AcDbLine
  8
Layer0
 62
256
370
-1
  6
BYLAYER
 10
-291.58891670648501
 20
1172.61095278682
 30
72.400000000000105
 11
-290.966494579965
 21
1172.4146930920199
 31
72.400000000000105
  0
LINE
  5
201
100
AcDbEntity
100
AcDbLine
  8
Layer0
 62
256
370
-1
  6
BYLAYER
 10
-363.29048202589303
 20
1118.5841621864499
 30
72.400000000000006
 11
-363.09725686020897
 21
1119.1249967608501
 31
72.400000000000006
  0
LINE
  5
202
100
AcDbEntity
100
AcDbLine
  8
Layer0
 62
256
370
-1
  6
BYLAYER
 10
-290.966494579965
 20
1172.4146930920199
 30
72.400000000000105
 11
-290.41607671990698
 21
1172.0640260837099
 31
72.400000000000105
  0
LINE
  5
203
100
AcDbEntity
100
AcDbLine
  8
Layer0
 62
256
370
-1
  6
BYLAYER
 10
-363.09725686020897
 20
1119.1249967608501
 30
72.400000000000006
 11
-362.77063739428201
 21
1119.59739249114
 31
72.400000000000006
  0
LINE
  5
204
100
AcDbEntity
100
AcDbLine
  8
Layer0
 62
256
370
-1
  6
BYLAYER
 10
-290.41607671990698
 20
1172.0640260837099
 30
72.400000000000105
 11
-289.975173193866
 21
1171.58284913901
 31
72.400000000000105
  0
LINE
  5
205
100
AcDbEntity
100
AcDbLine
  8
Layer0
 62
256
370
-1
  6
BYLAYER
 10
-362.77063739428201
 20
1119.59739249114
 30
72.400000000000006
 11
-362.33288220494899
 21
1119.9691563889801
 31
72.400000000000006
  0
LINE
  5
206
100
AcDbEntity
100
AcDbLine
  8
Layer0
 62
256
370
-1
  6
BYLAYER
 10
-289.975173193866
 20
1171.58284913901
 30
72.400000000000105
 11
-289.673830848514
 21
1171.0039536715201
 31
72.400000000000105
  0
LINE
  5
207
100
AcDbEntity
100
AcDbLine
  8
Layer0
 62
256
370
-1
  6
BYLAYER
 10
-362.33288220494899
 20
1119.9691563889801
 30
72.400000000000006
 11
-361.81382358493801
 21
1120.21495335909
 31
72.400000000000006
  0
LINE
  5
208
100
AcDbEntity
100
AcDbLine
  8
Layer0
 62
256
370
-1
  6
BYLAYER
 10
-289.673830848514
 20
1171.0039536715201
 30
72.400000000000105
 11
-289.53258566669399
 21
1170.3667904506699
 31
72.400000000000105
  0
LINE
  5
209
100
AcDbEntity
100
AcDbLine
  8
Layer0
 62
256
370
-1
  6
BYLAYER
 10
-361.81382358493801
 20
1120.21495335909
 30
72.400000000000006
 11
-361.24883452142001
 21
1120.3180327441601
 31
72.400000000000006
  0
LINE
  5
20A
100
AcDbEntity
100
AcDbLine
  8
Layer0
 62
256
370
-1
  6
BYLAYER
 10
-289.53258566669399
 20
1170.3667904506699
 30
72.400000000000105
 11
-289.56106327412903
 21
1169.71478109701
 31
72.400000000000105
  0
LINE
  5
20B
100
AcDbEntity
100
AcDbLine
  8
Layer0
 62
256
370
-1
  6
BYLAYER
 10
-361.24883452142001
 20
1120.3180327441601
 30
72.400000000000006
 11
-360.67641808538298
 21
1120.2713698544401
 31
72.400000000000006
  0
LINE
  5
20C
100
AcDbEntity
100
AcDbLine
  8
Layer0
 62
256
370
-1
  6
BYLAYER
 10
-289.56106327412903
 20
1169.71478109701
 30
72.400000000000105
 11
-289.757322968935
 21
1169.0923589704901
 31
72.400000000000105
  0
LINE
  5
20D
100
AcDbEntity
100
AcDbLine
  8
Layer0
 62
256
370
-1
  6
BYLAYER
 10
-360.67641808538298
 20
1120.2713698544401
 30
72.400000000000006
 11
-360.13558351098101
 21
1120.0781446887599
 31
72.400000000000006
  0
LINE
  5
20E
100
AcDbEntity
100
AcDbLine
  8
Layer0
 62
256
370
-1
  6
BYLAYER
 10
-289.757322968935
 20
1169.0923589704901
 30
72.400000000000105
 11
-290.10798997724299
 21
1168.5419411104299
 31
72.400000000000105
  0
LINE
  5
20F
100
AcDbEntity
100
AcDbLine
  8
Layer0
 62
256
370
-1
  6
BYLAYER
 10
-360.13558351098101
 20
1120.0781446887599
 30
72.400000000000006
 11
-359.66318778068802
 21
1119.75152522283
 31
72.400000000000006
  0
LINE
  5
210
100
AcDbEntity
100
AcDbLine
  8
Layer0
 62
256
370
-1
  6
BYLAYER
 10
-290.10798997724299
 20
1168.5419411104299
 30
72.400000000000105
 11
-290.58916692194401
 21
1168.10103758439
 31
72.400000000000105
  0
LINE
  5
211
100
AcDbEntity
100
AcDbLine
  8
Layer0
 62
256
370
-1
  6
BYLAYER
 10
-359.66318778068802
 20
1119.75152522283
 30
72.400000000000006
 11
-359.291423882853
 21
1119.3137700335001
 31
72.400000000000006
  0
LINE
  5
212
100
AcDbEntity
100
AcDbLine
  8
Layer0
 62
256
370
-1
  6
BYLAYER
 10
-290.58916692194401
 20
1168.10103758439
 30
72.400000000000105
 11
-291.16806238943701
 21
1167.7996952390399
 31
72.400000000000105
  0
LINE
  5
213
100
AcDbEntity
100
AcDbLine
  8
Layer0
 62
256
370
-1
  6
BYLAYER
 10
-359.291423882853
 20
1119.3137700335001
 30
72.400000000000006
 11
-359.04562691274401
 21
1118.7947114134899
 31
72.400000000000006
  0
LINE
  5
214
100
AcDbEntity
100
AcDbLine
  8
Layer0
 62
256
370
-1
  6
BYLAYER
 10
-291.16806238943701
 20
1167.7996952390399
 30
72.400000000000105
 11
-291.805225610283
 21
1167.6584500572201
 31
72.400000000000105
  0
LINE
  5
215
100
AcDbEntity
100
AcDbLine
  8
Layer0
 62
256
370
-1
  6
BYLAYER
 10
-359.04562691274401
 20
1118.7947114134899
 30
72.400000000000006
 11
-358.942547527675
 21
1118.22972234997
 31
72.400000000000006
  0
LINE
  5
216
100
AcDbEntity
100
AcDbLine
  8
Layer0
 62
256
370
-1
  6
BYLAYER
 10
-330.94409042589001
 20
1128.2783674570301
 30
72.400000000000105
 11
-331.59113803864602
 21
1128.1931820227501
 31
72.400000000000105
  0
LINE
  5
217
100
AcDbEntity
100
AcDbLine
  8
Layer0
 62
256
370
-1
  6
BYLAYER
 10
-358.942547527675
 20
1118.22972234997
 30
72.400000000000006
 11
-358.98921041739197
 21
1117.65730591393
 31
72.400000000000006
  0
LINE
  5
218
100
AcDbEntity
100
AcDbLine
  8
Layer0
 62
256
370
-1
  6
BYLAYER
 10
-331.59113803864602
 20
1128.1931820227501
 30
72.400000000000105
 11
-343.59113803864602
 21
1128.1931820227501
 31
72.400000000000105
  0
LINE
  5
219
100
AcDbEntity
100
AcDbLine
  8
Layer0
 62
256
370
-1
  6
BYLAYER
 10
-358.98921041739197
 20
1117.65730591393
 30
72.400000000000006
 11
-359.18243558307501
 21
1117.1164713395301
 31
72.400000000000006
  0
LINE
  5
21A
100
AcDbEntity
100
AcDbLine
  8
Layer0
 62
256
370
-1
  6
BYLAYER
 10
-343.59113803864602
 20
1128.1931820227501
 30
72.400000000000105
 11
-344.238185651403
 21
1128.2783674570301
 31
72.400000000000105
  0
LINE
  5
21B
100
AcDbEntity
100
AcDbLine
  8
Layer0
 62
256
370
-1
  6
BYLAYER
 10
-359.18243558307501
 20
1117.1164713395301
 30
72.400000000000006
 11
-359.509055049003
 21
1116.64407560924
 31
72.400000000000006
  0
LINE
  5
21C
100
AcDbEntity
100
AcDbLine
  8
Layer0
 62
256
370
-1
  6
BYLAYER
 10
-344.238185651403
 20
1128.2783674570301
 30
72.400000000000105
 11
-344.84113803864602
 21
1128.5281185132901
 31
72.400000000000105
  0
LINE
  5
21D
100
AcDbEntity
100
AcDbLine
  8
Layer0
 62
256
370
-1
  6
BYLAYER
 10
-359.509055049003
 20
1116.64407560924
 30
72.400000000000006
 11
-359.94681023833601
 21
1116.2723117114001
 31
72.400000000000006
  0
LINE
  5
21E
100
AcDbEntity
100
AcDbLine
  8
Layer0
 62
256
370
-1
  6
BYLAYER
 10
-344.84113803864602
 20
1128.5281185132901
 30
72.400000000000105
 11
-345.35890499161297
 21
1128.92541506978
 31
72.400000000000105
  0
LINE
  5
21F
100
AcDbEntity
100
AcDbLine
  8
Layer0
 62
256
370
-1
  6
BYLAYER
 10
-359.94681023833601
 20
1116.2723117114001
 30
72.400000000000006
 11
-360.46586885834699
 21
1116.0265147412899
 31
72.400000000000006
  0
LINE
  5
220
100
AcDbEntity
100
AcDbLine
  8
Layer0
 62
256
370
-1
  6
BYLAYER
 10
-345.35890499161297
 20
1128.92541506978
 30
72.400000000000105
 11
-345.75620154810798
 21
1129.4431820227501
 31
72.400000000000105
  0
LINE
  5
221
100
AcDbEntity
100
AcDbLine
  8
Layer0
 62
256
370
-1
  6
BYLAYER
 10
-344.72127745812998
 20
1162.7172610704999
 30
72.400000000000006
 11
-332.72127745812998
 21
1168.7265995195401
 31
72.400000000000006
  0
LINE
  5
222
100
AcDbEntity
100
AcDbLine
  8
Layer0
 62
256
370
-1
  6
BYLAYER
 10
-345.75620154810798
 20
1129.4431820227501
 30
72.400000000000105
 11
-346.00595260436899
 21
1130.0461344099899
 31
72.400000000000105
  0
LINE
  5
223
100
AcDbEntity
100
AcDbLine
  8
Layer0
 62
256
370
-1
  6
BYLAYER
 10
-332.72127745812998
 20
1156.7265995195401
 30
72.400000000000006
 11
-332.72127745812998
 21
1168.7265995195401
 31
72.400000000000006
  0
LINE
  5
224
100
AcDbEntity
100
AcDbLine
  8
Layer0
 62
256
370
-1
  6
BYLAYER
 10
-346.00595260436899
 20
1130.0461344099899
 30
72.400000000000105
 11
-346.09113803864602
 21
1130.6931820227501
 31
72.400000000000105
  0
LINE
  5
225
100
AcDbEntity
100
AcDbLine
  8
Layer0
 62
256
370
-1
  6
BYLAYER
 10
-344.72127745812998
 20
1162.7172610704999
 30
72.400000000000006
 11
-332.72127745812998
 21
1156.7265995195401
 31
72.400000000000006
  0
LINE
  5
226
100
AcDbEntity
100
AcDbLine
  8
Layer0
 62
256
370
-1
  6
BYLAYER
 10
-269.09656902657503
 20
1322.4168346443801
 30
72.400000000000006
 11
-269.44369379893601
 21
1323.1207340501901
 31
72.400000000000006
  0
LINE
  5
227
100
AcDbEntity
100
AcDbLine
  8
Layer0
 62
256
370
-1
  6
BYLAYER
 10
-268.84429126390802
 20
1321.6736483208001
 30
72.400000000000006
 11
-269.09656902657503
 21
1322.4168346443801
 31
72.400000000000006
  0
LINE
  5
228
100
AcDbEntity
100
AcDbLine
  8
Layer0
 62
256
370
-1
  6
BYLAYER
 10
-270.39720553452298
 20
1324.3633747373101
 30
72.400000000000006
 11
-270.98727764759002
 21
1324.8808540919399
 31
72.400000000000006
  0
LINE
  5
229
100
AcDbEntity
100
AcDbLine
  8
Layer0
 62
256
370
-1
  6
BYLAYER
 10
-268.6911770534
 20
1320.9038912035101
 30
72.400000000000006
 11
-268.84429126390802
 21
1321.6736483208001
 31
72.400000000000006
  0
LINE
  5
22A
100
AcDbEntity
100
AcDbLine
  8
Layer0
 62
256
370
-1
  6
BYLAYER
 10
-268.63984622164202
 20
1320.1207340501901
 30
72.400000000000006
 11
-268.6911770534
 21
1320.9038912035101
 31
72.400000000000006
  0
LINE
  5
22B
100
AcDbEntity
100
AcDbLine
  8
Layer0
 62
256
370
-1
  6
BYLAYER
 10
-269.87972617989499
 20
1323.7733026242399
 30
72.400000000000006
 11
-270.39720553452298
 21
1324.3633747373101
 31
72.400000000000006
  0
LINE
  5
22C
100
AcDbEntity
100
AcDbLine
  8
Layer0
 62
256
370
-1
  6
BYLAYER
 10
-270.98727764759002
 20
1324.8808540919399
 30
72.400000000000006
 11
-271.63984622164202
 21
1325.3168864729
 31
72.400000000000006
  0
LINE
  5
22D
100
AcDbEntity
100
AcDbLine
  8
Layer0
 62
256
370
-1
  6
BYLAYER
 10
-269.44369379893601
 20
1323.1207340501901
 30
72.400000000000006
 11
-269.87972617989499
 21
1323.7733026242399
 31
72.400000000000006
  0
LINE
  5
22E
100
AcDbEntity
100
AcDbLine
  8
Layer0
 62
256
370
-1
  6
BYLAYER
 10
-271.63984622164202
 20
1325.3168864729
 30
72.400000000000006
 11
-272.34374562745199
 21
1325.6640112452601
 31
72.400000000000006
  0
LINE
  5
22F
100
AcDbEntity
100
AcDbLine
  8
Layer0
 62
256
370
-1
  6
BYLAYER
 10
-268.63984622164202
 20
1298.01242189809
 30
72.400000000000006
 11
-268.63984622164202
 21
1320.1207340501901
 31
72.400000000000006
  0
MTEXT
  5
230
100
AcDbEntity
100
AcDbMText
  8
0
 62
256
370
-1
  6
BYLAYER
 10
0.0
 20
0.0
 30
0.0
 40
0.0
 41
0.0
 71
1
 72
1
  1

  7
textstyle0
 50
0.0
 73
1
 44
1.0
  0
MTEXT
  5
231
100
AcDbEntity
100
AcDbMText
  8
0
 62
256
370
-1
  6
BYLAYER
 10
0.0
 20
0.0
 30
0.0
 40
0.0
 41
0.0
 71
1
 72
1
  1

  7
textstyle1
 50
0.0
 73
1
 44
1.0
  0
MTEXT
  5
232
100
AcDbEntity
100
AcDbMText
  8
0
 62
256
370
-1
  6
BYLAYER
 10
-320.0
 20
1350.0
 30
0.0
 40
4.7625000000000002
 41
0.0
 71
2
 72
1
  1
\H12.5866;4.5mm Aluminum
  7
textstyle2
 50
0.0
 73
2
 44
1.0
  0
MTEXT
  5
233
100
AcDbEntity
100
AcDbMText
  8
0
 62
256
370
-1
  6
BYLAYER
 10
-330.0
 20
1090.0
 30
0.0
 40
4.7625000000000002
 41
0.0
 71
2
 72
1
  1
\H12.5866;4.5mm Aluminum
  7
textstyle3
 50
0.0
 73
2
 44
1.0
  0
ENDSEC
  0
SECTION
  2
OBJECTS
  0
DICTIONARY
  5
C
100
AcDbDictionary
280
0
281
1
  3
ACAD_GROUP
350
D
  3
ACAD_LAYOUT
350
1A
  3
ACAD_MLINESTYLE
350
17
  3
ACAD_PLOTSETTINGS
350
19
  3
ACAD_PLOTSTYLENAME
350
E
  3
AcDbVariableDictionary
350
234
  3
QCAD_OBJECTS
350
235
  0
DICTIONARY
  5
D
100
AcDbDictionary
280
0
281
1
  0
ACDBDICTIONARYWDFLT
  5
E
100
AcDbDictionary
281
1
  3
Normal
350
F
100
AcDbDictionaryWithDefault
340
F
  0
ACDBPLACEHOLDER
  5
F
  0
DICTIONARY
  5
17
100
AcDbDictionary
280
0
281
1
  3
Standard
350
18
  0
MLINESTYLE
  5
18
100
AcDbMlineStyle
  2
STANDARD
 70
0
  3

 62
256
 51
90.0
 52
90.0
 71
2
 49
0.5
 62
256
  6
BYLAYER
 49
-0.5
 62
256
  6
BYLAYER
  0
DICTIONARY
  5
19
100
AcDbDictionary
280
0
281
1
  0
DICTIONARY
  5
1A
100
AcDbDictionary
281
1
  3
Layout1
350
1E
  3
Layout2
350
26
  3
Model
350
22
  0
LAYOUT
  5
1E
100
AcDbPlotSettings
  1

  2
none_device
  4

  6

 40
0.0
 41
0.0
 42
0.0
 43
0.0
 44
0.0
 45
0.0
 46
0.0
 47
0.0
 48
0.0
 49
0.0
140
0.0
141
0.0
142
1.0
143
1.0
 70
688
 72
0
 73
0
 74
5
  7

 75
16
147
1.0
148
0.0
149
0.0
100
AcDbLayout
  1
Layout1
 70
1
 71
1
 10
0.0
 20
0.0
 11
420.0
 21
297.0
 12
0.0
 22
0.0
 32
0.0
 14
100000000000000000000.0
 24
100000000000000000000.0
 34
100000000000000000000.0
 15
-100000000000000000000.0
 25
-100000000000000000000.0
 35
-100000000000000000000.0
146
0.0
 13
0.0
 23
0.0
 33
0.0
 16
1.0
 26
0.0
 36
0.0
 17
0.0
 27
1.0
 37
0.0
 76
0
330
1B
  0
LAYOUT
  5
22
100
AcDbPlotSettings
  1

  2
none_device
  4

  6

 40
0.0
 41
0.0
 42
0.0
 43
0.0
 44
0.0
 45
0.0
 46
0.0
 47
0.0
 48
0.0
 49
0.0
140
0.0
141
0.0
142
1.0
143
1.0
 70
1712
 72
0
 73
0
 74
0
  7

 75
0
147
1.0
148
0.0
149
0.0
100
AcDbLayout
  1
Model
 70
1
 71
0
 10
0.0
 20
0.0
 11
12.0
 21
9.0
 12
0.0
 22
0.0
 32
0.0
 14
0.0
 24
0.0
 34
0.0
 15
0.0
 25
0.0
 35
0.0
146
0.0
 13
0.0
 23
0.0
 33
0.0
 16
1.0
 26
0.0
 36
0.0
 17
0.0
 27
1.0
 37
0.0
 76
0
330
1F
  0
LAYOUT
  5
26
100
AcDbPlotSettings
  1

  2
none_device
  4

  6

 40
0.0
 41
0.0
 42
0.0
 43
0.0
 44
0.0
 45
0.0
 46
0.0
 47
0.0
 48
0.0
 49
0.0
140
0.0
141
0.0
142
1.0
143
1.0
 70
688
 72
0
 73
0
 74
5
  7

 75
16
147
1.0
148
0.0
149
0.0
100
AcDbLayout
  1
Layout2
 70
1
 71
2
 10
0.0
 20
0.0
 11
12.0
 21
9.0
 12
0.0
 22
0.0
 32
0.0
 14
0.0
 24
0.0
 34
0.0
 15
0.0
 25
0.0
 35
0.0
146
0.0
 13
0.0
 23
0.0
 33
0.0
 16
1.0
 26
0.0
 36
0.0
 17
0.0
 27
1.0
 37
0.0
 76
0
330
23
  0
DICTIONARY
  5
234
100
AcDbDictionary
281
1
  3
DIMASSOC
350
237
  3
HIDETEXT
350
236
  0
DICTIONARYVAR
  5
236
100
DictionaryVariables
280
0
  1
2
  0
DICTIONARYVAR
  5
237
100
DictionaryVariables
280
0
  1
1
  0
DICTIONARY
  5
235
100
AcDbDictionary
281
1
  3
Grid/DisplayGrid00
350
238
  3
Grid/DisplayGrid01
350
239
  3
Grid/DisplayGrid02
350
23A
  3
Grid/DisplayGrid03
350
23B
  3
Grid/GridSpacingX00
350
23C
  3
Grid/GridSpacingX01
350
23D
  3
Grid/GridSpacingX02
350
23E
  3
Grid/GridSpacingX03
350
23F
  3
Grid/GridSpacingY00
350
240
  3
Grid/GridSpacingY01
350
241
  3
Grid/GridSpacingY02
350
242
  3
Grid/GridSpacingY03
350
243
  3
Grid/IsometricGrid00
350
244
  3
Grid/IsometricGrid01
350
245
  3
Grid/IsometricGrid02
350
246
  3
Grid/IsometricGrid03
350
247
  3
Grid/IsometricProjection00
350
248
  3
Grid/IsometricProjection01
350
249
  3
Grid/IsometricProjection02
350
24A
  3
Grid/IsometricProjection03
350
24B
  3
Grid/MetaGridSpacingX00
350
24C
  3
Grid/MetaGridSpacingX01
350
24D
  3
Grid/MetaGridSpacingX02
350
24E
  3
Grid/MetaGridSpacingX03
350
24F
  3
Grid/MetaGridSpacingY00
350
250
  3
Grid/MetaGridSpacingY01
350
251
  3
Grid/MetaGridSpacingY02
350
252
  3
Grid/MetaGridSpacingY03
350
253
  3
MultiPageSettings/Columns
350
254
  3
MultiPageSettings/GlueMarginsBottom
350
255
  3
MultiPageSettings/GlueMarginsLeft
350
256
  3
MultiPageSettings/GlueMarginsRight
350
257
  3
MultiPageSettings/GlueMarginsTop
350
258
  3
MultiPageSettings/PrintCropMarks
350
259
  3
MultiPageSettings/Rows
350
25A
  3
PageSettings/OffsetX
350
25B
  3
PageSettings/OffsetY
350
25C
  3
PageSettings/PageOrientation
350
25D
  3
PageSettings/PaperHeight
350
25E
  3
PageSettings/PaperWidth
350
25F
  3
PageSettings/Scale
350
260
  3
PageSettings/ShowPaperBorders
350
261
  3
UnitSettings/PaperUnit
350
262
  0
XRECORD
  5
238
330
235
100
AcDbXrecord
280
1
290
1
  0
XRECORD
  5
239
330
235
100
AcDbXrecord
280
1
290
1
  0
XRECORD
  5
23A
330
235
100
AcDbXrecord
280
1
290
1
  0
XRECORD
  5
23B
330
235
100
AcDbXrecord
280
1
290
1
  0
XRECORD
  5
23C
330
235
100
AcDbXrecord
280
1
1000
auto
  0
XRECORD
  5
23D
330
235
100
AcDbXrecord
280
1
1000
auto
  0
XRECORD
  5
23E
330
235
100
AcDbXrecord
280
1
1000
auto
  0
XRECORD
  5
23F
330
235
100
AcDbXrecord
280
1
1000
auto
  0
XRECORD
  5
240
330
235
100
AcDbXrecord
280
1
1000
auto
  0
XRECORD
  5
241
330
235
100
AcDbXrecord
280
1
1000
auto
  0
XRECORD
  5
242
330
235
100
AcDbXrecord
280
1
1000
auto
  0
XRECORD
  5
243
330
235
100
AcDbXrecord
280
1
1000
auto
  0
XRECORD
  5
244
330
235
100
AcDbXrecord
280
1
290
0
  0
XRECORD
  5
245
330
235
100
AcDbXrecord
280
1
290
0
  0
XRECORD
  5
246
330
235
100
AcDbXrecord
280
1
290
0
  0
XRECORD
  5
247
330
235
100
AcDbXrecord
280
1
290
0
  0
XRECORD
  5
248
330
235
100
AcDbXrecord
280
1
 90
0
  0
XRECORD
  5
249
330
235
100
AcDbXrecord
280
1
 90
0
  0
XRECORD
  5
24A
330
235
100
AcDbXrecord
280
1
 90
0
  0
XRECORD
  5
24B
330
235
100
AcDbXrecord
280
1
 90
0
  0
XRECORD
  5
24C
330
235
100
AcDbXrecord
280
1
1000
auto
  0
XRECORD
  5
24D
330
235
100
AcDbXrecord
280
1
1000
auto
  0
XRECORD
  5
24E
330
235
100
AcDbXrecord
280
1
1000
auto
  0
XRECORD
  5
24F
330
235
100
AcDbXrecord
280
1
1000
auto
  0
XRECORD
  5
250
330
235
100
AcDbXrecord
280
1
1000
auto
  0
XRECORD
  5
251
330
235
100
AcDbXrecord
280
1
1000
auto
  0
XRECORD
  5
252
330
235
100
AcDbXrecord
280
1
1000
auto
  0
XRECORD
  5
253
330
235
100
AcDbXrecord
280
1
1000
auto
  0
XRECORD
  5
254
330
235
100
AcDbXrecord
280
1
 90
1
  0
XRECORD
  5
255
330
235
100
AcDbXrecord
280
1
 40
10.0
  0
XRECORD
  5
256
330
235
100
AcDbXrecord
280
1
 40
10.0
  0
XRECORD
  5
257
330
235
100
AcDbXrecord
280
1
 40
10.0
  0
XRECORD
  5
258
330
235
100
AcDbXrecord
280
1
 40
10.0
  0
XRECORD
  5
259
330
235
100
AcDbXrecord
280
1
290
0
  0
XRECORD
  5
25A
330
235
100
AcDbXrecord
280
1
 90
1
  0
XRECORD
  5
25B
330
235
100
AcDbXrecord
280
1
 40
0.0
  0
XRECORD
  5
25C
330
235
100
AcDbXrecord
280
1
 40
0.0
  0
XRECORD
  5
25D
330
235
100
AcDbXrecord
280
1
1000
Portrait
  0
XRECORD
  5
25E
330
235
100
AcDbXrecord
280
1
 40
297.0
  0
XRECORD
  5
25F
330
235
100
AcDbXrecord
280
1
 40
210.0
  0
XRECORD
  5
260
330
235
100
AcDbXrecord
280
1
1000
1:1
  0
XRECORD
  5
261
330
235
100
AcDbXrecord
280
1
290
1
  0
XRECORD
  5
262
330
235
100
AcDbXrecord
280
1
 90
4
  0
ENDSEC
  0
EOF
