G75*
G70*
%OFA0B0*%
%FSLAX24Y24*%
%IPPOS*%
%LPD*%
%AMOC8*
5,1,8,0,0,1.08239X$1,22.5*
%
%ADD10C,0.0110*%
%ADD11C,0.0070*%
%ADD12C,0.0000*%
%ADD13R,0.0236X0.0591*%
%ADD14C,0.0440*%
%ADD15C,0.0800*%
%ADD16C,0.0660*%
%ADD17C,0.1300*%
%ADD18OC8,0.0520*%
%ADD19C,0.0650*%
%ADD20R,0.0650X0.0650*%
%ADD21C,0.0520*%
%ADD22C,0.0554*%
%ADD23OC8,0.0740*%
%ADD24OC8,0.0660*%
%ADD25C,0.0740*%
%ADD26C,0.0520*%
%ADD27C,0.0100*%
%ADD28C,0.0160*%
%ADD29C,0.0240*%
%ADD30R,0.0396X0.0396*%
%ADD31R,0.1660X0.1660*%
D10*
X028621Y004310D02*
X028712Y004219D01*
X028804Y004310D01*
X028896Y004219D01*
X028988Y004310D01*
X028988Y004586D01*
X029228Y004586D02*
X029320Y004586D01*
X029320Y004219D01*
X029228Y004219D02*
X029412Y004219D01*
X029634Y004219D02*
X029634Y004769D01*
X029320Y004769D02*
X029320Y004861D01*
X029634Y004402D02*
X029909Y004586D01*
X030140Y004586D02*
X030232Y004586D01*
X030232Y004219D01*
X030140Y004219D02*
X030324Y004219D01*
X030545Y004219D02*
X030637Y004219D01*
X030637Y004310D01*
X030545Y004310D01*
X030545Y004219D01*
X030849Y004310D02*
X030941Y004219D01*
X031124Y004219D01*
X031216Y004310D01*
X031216Y004494D01*
X031124Y004586D01*
X030941Y004586D01*
X030849Y004494D01*
X030849Y004310D01*
X031457Y004219D02*
X031732Y004219D01*
X031824Y004310D01*
X031824Y004494D01*
X031732Y004586D01*
X031457Y004586D01*
X031457Y004035D01*
X032064Y004310D02*
X032064Y004494D01*
X032156Y004586D01*
X032340Y004586D01*
X032431Y004494D01*
X032431Y004402D01*
X032064Y004402D01*
X032064Y004310D02*
X032156Y004219D01*
X032340Y004219D01*
X032672Y004219D02*
X032672Y004586D01*
X032947Y004586D01*
X033039Y004494D01*
X033039Y004219D01*
X033280Y004219D02*
X033280Y004769D01*
X033280Y004494D02*
X033647Y004494D01*
X033647Y004769D02*
X033647Y004219D01*
X033888Y004310D02*
X033979Y004402D01*
X034255Y004402D01*
X034255Y004494D02*
X034255Y004219D01*
X033979Y004219D01*
X033888Y004310D01*
X033979Y004586D02*
X034163Y004586D01*
X034255Y004494D01*
X034495Y004586D02*
X034495Y004219D01*
X034495Y004402D02*
X034679Y004586D01*
X034771Y004586D01*
X035002Y004494D02*
X035094Y004586D01*
X035369Y004586D01*
X035369Y004769D02*
X035369Y004219D01*
X035094Y004219D01*
X035002Y004310D01*
X035002Y004494D01*
X035610Y004586D02*
X035610Y004310D01*
X035701Y004219D01*
X035793Y004310D01*
X035885Y004219D01*
X035976Y004310D01*
X035976Y004586D01*
X036309Y004586D02*
X036492Y004586D01*
X036584Y004494D01*
X036584Y004219D01*
X036309Y004219D01*
X036217Y004310D01*
X036309Y004402D01*
X036584Y004402D01*
X036825Y004402D02*
X037008Y004586D01*
X037100Y004586D01*
X037331Y004494D02*
X037423Y004586D01*
X037607Y004586D01*
X037698Y004494D01*
X037698Y004402D01*
X037331Y004402D01*
X037331Y004310D02*
X037331Y004494D01*
X037331Y004310D02*
X037423Y004219D01*
X037607Y004219D01*
X037939Y004219D02*
X038031Y004219D01*
X038031Y004310D01*
X037939Y004310D01*
X037939Y004219D01*
X038243Y004310D02*
X038335Y004219D01*
X038610Y004219D01*
X038851Y004310D02*
X038942Y004219D01*
X039126Y004219D01*
X039218Y004310D01*
X039218Y004494D01*
X039126Y004586D01*
X038942Y004586D01*
X038851Y004494D01*
X038851Y004310D01*
X038610Y004586D02*
X038335Y004586D01*
X038243Y004494D01*
X038243Y004310D01*
X039458Y004310D02*
X039550Y004310D01*
X039550Y004219D01*
X039458Y004219D01*
X039458Y004310D01*
X039762Y004219D02*
X040129Y004219D01*
X040370Y004310D02*
X040462Y004402D01*
X040737Y004402D01*
X040737Y004494D02*
X040737Y004219D01*
X040462Y004219D01*
X040370Y004310D01*
X040462Y004586D02*
X040645Y004586D01*
X040737Y004494D01*
X040129Y004586D02*
X039762Y004219D01*
X039762Y004586D02*
X040129Y004586D01*
X036825Y004586D02*
X036825Y004219D01*
X030232Y004769D02*
X030232Y004861D01*
X029909Y004219D02*
X029634Y004402D01*
X028621Y004310D02*
X028621Y004586D01*
D11*
X026709Y004519D02*
X026654Y004519D01*
X026544Y004409D01*
X026544Y004299D02*
X026544Y004519D01*
X026396Y004464D02*
X026396Y004409D01*
X026175Y004409D01*
X026175Y004464D02*
X026231Y004519D01*
X026341Y004519D01*
X026396Y004464D01*
X026341Y004299D02*
X026231Y004299D01*
X026175Y004354D01*
X026175Y004464D01*
X026027Y004464D02*
X026027Y004299D01*
X025917Y004299D02*
X025917Y004464D01*
X025972Y004519D01*
X026027Y004464D01*
X025917Y004464D02*
X025862Y004519D01*
X025807Y004519D01*
X025807Y004299D01*
X025659Y004299D02*
X025659Y004464D01*
X025604Y004519D01*
X025549Y004464D01*
X025549Y004299D01*
X025439Y004299D02*
X025439Y004519D01*
X025494Y004519D01*
X025549Y004464D01*
X025291Y004464D02*
X025291Y004299D01*
X025126Y004299D01*
X025071Y004354D01*
X025126Y004409D01*
X025291Y004409D01*
X025291Y004464D02*
X025236Y004519D01*
X025126Y004519D01*
X024929Y004519D02*
X024874Y004519D01*
X024764Y004409D01*
X024764Y004299D02*
X024764Y004519D01*
X024616Y004519D02*
X024450Y004519D01*
X024395Y004464D01*
X024395Y004354D01*
X024450Y004299D01*
X024616Y004299D01*
X024616Y004244D02*
X024616Y004519D01*
X024616Y004244D02*
X024560Y004189D01*
X024505Y004189D01*
X024247Y004354D02*
X024247Y004464D01*
X024192Y004519D01*
X024082Y004519D01*
X024027Y004464D01*
X024027Y004354D01*
X024082Y004299D01*
X024192Y004299D01*
X024247Y004354D01*
X023885Y004519D02*
X023830Y004519D01*
X023720Y004409D01*
X023720Y004299D02*
X023720Y004519D01*
X023572Y004574D02*
X023572Y004464D01*
X023517Y004409D01*
X023352Y004409D01*
X023352Y004299D02*
X023352Y004629D01*
X023517Y004629D01*
X023572Y004574D01*
X023667Y004949D02*
X023667Y005114D01*
X023612Y005169D01*
X023447Y005169D01*
X023447Y004949D01*
X023311Y004949D02*
X023201Y004949D01*
X023256Y004949D02*
X023256Y005169D01*
X023201Y005169D01*
X023256Y005279D02*
X023256Y005334D01*
X023066Y005169D02*
X022956Y005169D01*
X023011Y005224D02*
X023011Y005004D01*
X023066Y004949D01*
X022808Y005004D02*
X022753Y004949D01*
X022587Y004949D01*
X022587Y005279D01*
X022753Y005279D01*
X022808Y005224D01*
X022808Y005169D01*
X022753Y005114D01*
X022587Y005114D01*
X022439Y005059D02*
X022439Y005004D01*
X022384Y004949D01*
X022274Y004949D01*
X022219Y005004D01*
X022274Y005114D02*
X022384Y005114D01*
X022439Y005059D01*
X022439Y005224D02*
X022384Y005279D01*
X022274Y005279D01*
X022219Y005224D01*
X022219Y005169D01*
X022274Y005114D01*
X022071Y005004D02*
X022071Y005279D01*
X021851Y005279D02*
X021851Y005004D01*
X021906Y004949D01*
X022016Y004949D01*
X022071Y005004D01*
X021989Y004629D02*
X022099Y004519D01*
X022099Y004299D01*
X022099Y004464D02*
X021878Y004464D01*
X021878Y004519D02*
X021989Y004629D01*
X021878Y004519D02*
X021878Y004299D01*
X022247Y004409D02*
X022247Y004629D01*
X022467Y004629D02*
X022467Y004409D01*
X022357Y004299D01*
X022247Y004409D01*
X022615Y004409D02*
X022780Y004409D01*
X022835Y004464D01*
X022835Y004574D01*
X022780Y004629D01*
X022615Y004629D01*
X022615Y004299D01*
X022725Y004409D02*
X022835Y004299D01*
X022808Y005004D02*
X022808Y005059D01*
X022753Y005114D01*
X023815Y005169D02*
X023815Y005004D01*
X023870Y004949D01*
X024035Y004949D01*
X024035Y004894D02*
X024035Y005169D01*
X024183Y005279D02*
X024293Y005279D01*
X024238Y005279D02*
X024238Y004949D01*
X024183Y004949D02*
X024293Y004949D01*
X024429Y005004D02*
X024484Y004949D01*
X024594Y004949D01*
X024649Y005004D01*
X024649Y005059D01*
X024594Y005114D01*
X024484Y005114D01*
X024429Y005169D01*
X024429Y005224D01*
X024484Y005279D01*
X024594Y005279D01*
X024649Y005224D01*
X024797Y005279D02*
X024962Y005279D01*
X025017Y005224D01*
X025017Y005114D01*
X024962Y005059D01*
X024797Y005059D01*
X024797Y004949D02*
X024797Y005279D01*
X024035Y004894D02*
X023980Y004839D01*
X023925Y004839D01*
X009949Y020949D02*
X009839Y020949D01*
X009894Y020949D02*
X009894Y021279D01*
X009839Y021279D01*
X009690Y021114D02*
X009690Y020949D01*
X009525Y020949D01*
X009470Y021004D01*
X009525Y021059D01*
X009690Y021059D01*
X009690Y021114D02*
X009635Y021169D01*
X009525Y021169D01*
X009280Y021169D02*
X009280Y020949D01*
X009225Y020949D02*
X009335Y020949D01*
X009280Y021169D02*
X009225Y021169D01*
X009280Y021279D02*
X009280Y021334D01*
X009083Y021169D02*
X009028Y021169D01*
X008918Y021059D01*
X008918Y020949D02*
X008918Y021169D01*
X008770Y021114D02*
X008770Y021059D01*
X008549Y021059D01*
X008549Y021114D02*
X008605Y021169D01*
X008715Y021169D01*
X008770Y021114D01*
X008715Y020949D02*
X008605Y020949D01*
X008549Y021004D01*
X008549Y021114D01*
X008401Y021059D02*
X008401Y021004D01*
X008346Y020949D01*
X008236Y020949D01*
X008181Y021004D01*
X008236Y021114D02*
X008346Y021114D01*
X008401Y021059D01*
X008401Y021224D02*
X008346Y021279D01*
X008236Y021279D01*
X008181Y021224D01*
X008181Y021169D01*
X008236Y021114D01*
X007665Y021114D02*
X007610Y021169D01*
X007500Y021169D01*
X007445Y021114D01*
X007445Y021004D01*
X007500Y020949D01*
X007610Y020949D01*
X007665Y021004D01*
X007665Y021114D01*
X007309Y021169D02*
X007199Y021169D01*
X007254Y021224D02*
X007254Y021004D01*
X007309Y020949D01*
X006683Y021004D02*
X006628Y020949D01*
X006462Y020949D01*
X006462Y021279D01*
X006628Y021279D01*
X006683Y021224D01*
X006683Y021169D01*
X006628Y021114D01*
X006462Y021114D01*
X006314Y021059D02*
X006314Y021004D01*
X006259Y020949D01*
X006149Y020949D01*
X006094Y021004D01*
X006149Y021114D02*
X006259Y021114D01*
X006314Y021059D01*
X006314Y021224D02*
X006259Y021279D01*
X006149Y021279D01*
X006094Y021224D01*
X006094Y021169D01*
X006149Y021114D01*
X005946Y021004D02*
X005946Y021279D01*
X005726Y021279D02*
X005726Y021004D01*
X005781Y020949D01*
X005891Y020949D01*
X005946Y021004D01*
X006628Y021114D02*
X006683Y021059D01*
X006683Y021004D01*
D12*
X006206Y003416D02*
X042426Y003416D01*
X041796Y004990D02*
X041798Y005040D01*
X041804Y005090D01*
X041814Y005139D01*
X041828Y005187D01*
X041845Y005234D01*
X041866Y005279D01*
X041891Y005323D01*
X041919Y005364D01*
X041951Y005403D01*
X041985Y005440D01*
X042022Y005474D01*
X042062Y005504D01*
X042104Y005531D01*
X042148Y005555D01*
X042194Y005576D01*
X042241Y005592D01*
X042289Y005605D01*
X042339Y005614D01*
X042388Y005619D01*
X042439Y005620D01*
X042489Y005617D01*
X042538Y005610D01*
X042587Y005599D01*
X042635Y005584D01*
X042681Y005566D01*
X042726Y005544D01*
X042769Y005518D01*
X042810Y005489D01*
X042849Y005457D01*
X042885Y005422D01*
X042917Y005384D01*
X042947Y005344D01*
X042974Y005301D01*
X042997Y005257D01*
X043016Y005211D01*
X043032Y005163D01*
X043044Y005114D01*
X043052Y005065D01*
X043056Y005015D01*
X043056Y004965D01*
X043052Y004915D01*
X043044Y004866D01*
X043032Y004817D01*
X043016Y004769D01*
X042997Y004723D01*
X042974Y004679D01*
X042947Y004636D01*
X042917Y004596D01*
X042885Y004558D01*
X042849Y004523D01*
X042810Y004491D01*
X042769Y004462D01*
X042726Y004436D01*
X042681Y004414D01*
X042635Y004396D01*
X042587Y004381D01*
X042538Y004370D01*
X042489Y004363D01*
X042439Y004360D01*
X042388Y004361D01*
X042339Y004366D01*
X042289Y004375D01*
X042241Y004388D01*
X042194Y004404D01*
X042148Y004425D01*
X042104Y004449D01*
X042062Y004476D01*
X042022Y004506D01*
X041985Y004540D01*
X041951Y004577D01*
X041919Y004616D01*
X041891Y004657D01*
X041866Y004701D01*
X041845Y004746D01*
X041828Y004793D01*
X041814Y004841D01*
X041804Y004890D01*
X041798Y004940D01*
X041796Y004990D01*
X042426Y003415D02*
X042503Y003417D01*
X042580Y003423D01*
X042657Y003432D01*
X042733Y003445D01*
X042809Y003462D01*
X042883Y003483D01*
X042957Y003507D01*
X043029Y003535D01*
X043099Y003566D01*
X043168Y003601D01*
X043236Y003639D01*
X043301Y003680D01*
X043364Y003725D01*
X043425Y003773D01*
X043484Y003823D01*
X043540Y003876D01*
X043593Y003932D01*
X043643Y003991D01*
X043691Y004052D01*
X043736Y004115D01*
X043777Y004180D01*
X043815Y004248D01*
X043850Y004317D01*
X043881Y004387D01*
X043909Y004459D01*
X043933Y004533D01*
X043954Y004607D01*
X043971Y004683D01*
X043984Y004759D01*
X043993Y004836D01*
X043999Y004913D01*
X044001Y004990D01*
X044001Y033337D01*
X041796Y033337D02*
X041798Y033387D01*
X041804Y033437D01*
X041814Y033486D01*
X041828Y033534D01*
X041845Y033581D01*
X041866Y033626D01*
X041891Y033670D01*
X041919Y033711D01*
X041951Y033750D01*
X041985Y033787D01*
X042022Y033821D01*
X042062Y033851D01*
X042104Y033878D01*
X042148Y033902D01*
X042194Y033923D01*
X042241Y033939D01*
X042289Y033952D01*
X042339Y033961D01*
X042388Y033966D01*
X042439Y033967D01*
X042489Y033964D01*
X042538Y033957D01*
X042587Y033946D01*
X042635Y033931D01*
X042681Y033913D01*
X042726Y033891D01*
X042769Y033865D01*
X042810Y033836D01*
X042849Y033804D01*
X042885Y033769D01*
X042917Y033731D01*
X042947Y033691D01*
X042974Y033648D01*
X042997Y033604D01*
X043016Y033558D01*
X043032Y033510D01*
X043044Y033461D01*
X043052Y033412D01*
X043056Y033362D01*
X043056Y033312D01*
X043052Y033262D01*
X043044Y033213D01*
X043032Y033164D01*
X043016Y033116D01*
X042997Y033070D01*
X042974Y033026D01*
X042947Y032983D01*
X042917Y032943D01*
X042885Y032905D01*
X042849Y032870D01*
X042810Y032838D01*
X042769Y032809D01*
X042726Y032783D01*
X042681Y032761D01*
X042635Y032743D01*
X042587Y032728D01*
X042538Y032717D01*
X042489Y032710D01*
X042439Y032707D01*
X042388Y032708D01*
X042339Y032713D01*
X042289Y032722D01*
X042241Y032735D01*
X042194Y032751D01*
X042148Y032772D01*
X042104Y032796D01*
X042062Y032823D01*
X042022Y032853D01*
X041985Y032887D01*
X041951Y032924D01*
X041919Y032963D01*
X041891Y033004D01*
X041866Y033048D01*
X041845Y033093D01*
X041828Y033140D01*
X041814Y033188D01*
X041804Y033237D01*
X041798Y033287D01*
X041796Y033337D01*
X042426Y034912D02*
X042503Y034910D01*
X042580Y034904D01*
X042657Y034895D01*
X042733Y034882D01*
X042809Y034865D01*
X042883Y034844D01*
X042957Y034820D01*
X043029Y034792D01*
X043099Y034761D01*
X043168Y034726D01*
X043236Y034688D01*
X043301Y034647D01*
X043364Y034602D01*
X043425Y034554D01*
X043484Y034504D01*
X043540Y034451D01*
X043593Y034395D01*
X043643Y034336D01*
X043691Y034275D01*
X043736Y034212D01*
X043777Y034147D01*
X043815Y034079D01*
X043850Y034010D01*
X043881Y033940D01*
X043909Y033868D01*
X043933Y033794D01*
X043954Y033720D01*
X043971Y033644D01*
X043984Y033568D01*
X043993Y033491D01*
X043999Y033414D01*
X044001Y033337D01*
X042426Y034912D02*
X006206Y034912D01*
X005576Y033337D02*
X005578Y033387D01*
X005584Y033437D01*
X005594Y033486D01*
X005608Y033534D01*
X005625Y033581D01*
X005646Y033626D01*
X005671Y033670D01*
X005699Y033711D01*
X005731Y033750D01*
X005765Y033787D01*
X005802Y033821D01*
X005842Y033851D01*
X005884Y033878D01*
X005928Y033902D01*
X005974Y033923D01*
X006021Y033939D01*
X006069Y033952D01*
X006119Y033961D01*
X006168Y033966D01*
X006219Y033967D01*
X006269Y033964D01*
X006318Y033957D01*
X006367Y033946D01*
X006415Y033931D01*
X006461Y033913D01*
X006506Y033891D01*
X006549Y033865D01*
X006590Y033836D01*
X006629Y033804D01*
X006665Y033769D01*
X006697Y033731D01*
X006727Y033691D01*
X006754Y033648D01*
X006777Y033604D01*
X006796Y033558D01*
X006812Y033510D01*
X006824Y033461D01*
X006832Y033412D01*
X006836Y033362D01*
X006836Y033312D01*
X006832Y033262D01*
X006824Y033213D01*
X006812Y033164D01*
X006796Y033116D01*
X006777Y033070D01*
X006754Y033026D01*
X006727Y032983D01*
X006697Y032943D01*
X006665Y032905D01*
X006629Y032870D01*
X006590Y032838D01*
X006549Y032809D01*
X006506Y032783D01*
X006461Y032761D01*
X006415Y032743D01*
X006367Y032728D01*
X006318Y032717D01*
X006269Y032710D01*
X006219Y032707D01*
X006168Y032708D01*
X006119Y032713D01*
X006069Y032722D01*
X006021Y032735D01*
X005974Y032751D01*
X005928Y032772D01*
X005884Y032796D01*
X005842Y032823D01*
X005802Y032853D01*
X005765Y032887D01*
X005731Y032924D01*
X005699Y032963D01*
X005671Y033004D01*
X005646Y033048D01*
X005625Y033093D01*
X005608Y033140D01*
X005594Y033188D01*
X005584Y033237D01*
X005578Y033287D01*
X005576Y033337D01*
X004631Y033337D02*
X004633Y033414D01*
X004639Y033491D01*
X004648Y033568D01*
X004661Y033644D01*
X004678Y033720D01*
X004699Y033794D01*
X004723Y033868D01*
X004751Y033940D01*
X004782Y034010D01*
X004817Y034079D01*
X004855Y034147D01*
X004896Y034212D01*
X004941Y034275D01*
X004989Y034336D01*
X005039Y034395D01*
X005092Y034451D01*
X005148Y034504D01*
X005207Y034554D01*
X005268Y034602D01*
X005331Y034647D01*
X005396Y034688D01*
X005464Y034726D01*
X005533Y034761D01*
X005603Y034792D01*
X005675Y034820D01*
X005749Y034844D01*
X005823Y034865D01*
X005899Y034882D01*
X005975Y034895D01*
X006052Y034904D01*
X006129Y034910D01*
X006206Y034912D01*
X004631Y033337D02*
X004631Y004990D01*
X005576Y004990D02*
X005578Y005040D01*
X005584Y005090D01*
X005594Y005139D01*
X005608Y005187D01*
X005625Y005234D01*
X005646Y005279D01*
X005671Y005323D01*
X005699Y005364D01*
X005731Y005403D01*
X005765Y005440D01*
X005802Y005474D01*
X005842Y005504D01*
X005884Y005531D01*
X005928Y005555D01*
X005974Y005576D01*
X006021Y005592D01*
X006069Y005605D01*
X006119Y005614D01*
X006168Y005619D01*
X006219Y005620D01*
X006269Y005617D01*
X006318Y005610D01*
X006367Y005599D01*
X006415Y005584D01*
X006461Y005566D01*
X006506Y005544D01*
X006549Y005518D01*
X006590Y005489D01*
X006629Y005457D01*
X006665Y005422D01*
X006697Y005384D01*
X006727Y005344D01*
X006754Y005301D01*
X006777Y005257D01*
X006796Y005211D01*
X006812Y005163D01*
X006824Y005114D01*
X006832Y005065D01*
X006836Y005015D01*
X006836Y004965D01*
X006832Y004915D01*
X006824Y004866D01*
X006812Y004817D01*
X006796Y004769D01*
X006777Y004723D01*
X006754Y004679D01*
X006727Y004636D01*
X006697Y004596D01*
X006665Y004558D01*
X006629Y004523D01*
X006590Y004491D01*
X006549Y004462D01*
X006506Y004436D01*
X006461Y004414D01*
X006415Y004396D01*
X006367Y004381D01*
X006318Y004370D01*
X006269Y004363D01*
X006219Y004360D01*
X006168Y004361D01*
X006119Y004366D01*
X006069Y004375D01*
X006021Y004388D01*
X005974Y004404D01*
X005928Y004425D01*
X005884Y004449D01*
X005842Y004476D01*
X005802Y004506D01*
X005765Y004540D01*
X005731Y004577D01*
X005699Y004616D01*
X005671Y004657D01*
X005646Y004701D01*
X005625Y004746D01*
X005608Y004793D01*
X005594Y004841D01*
X005584Y004890D01*
X005578Y004940D01*
X005576Y004990D01*
X004631Y004990D02*
X004633Y004913D01*
X004639Y004836D01*
X004648Y004759D01*
X004661Y004683D01*
X004678Y004607D01*
X004699Y004533D01*
X004723Y004459D01*
X004751Y004387D01*
X004782Y004317D01*
X004817Y004248D01*
X004855Y004180D01*
X004896Y004115D01*
X004941Y004052D01*
X004989Y003991D01*
X005039Y003932D01*
X005092Y003876D01*
X005148Y003823D01*
X005207Y003773D01*
X005268Y003725D01*
X005331Y003680D01*
X005396Y003639D01*
X005464Y003601D01*
X005533Y003566D01*
X005603Y003535D01*
X005675Y003507D01*
X005749Y003483D01*
X005823Y003462D01*
X005899Y003445D01*
X005975Y003432D01*
X006052Y003423D01*
X006129Y003417D01*
X006206Y003415D01*
D13*
X010316Y026820D03*
X010816Y026820D03*
X011316Y026820D03*
X011816Y026820D03*
X012316Y026820D03*
X012816Y026820D03*
X013316Y026820D03*
X013816Y026820D03*
X014316Y026820D03*
X014816Y026820D03*
X014816Y030757D03*
X014316Y030757D03*
X013816Y030757D03*
X013316Y030757D03*
X012816Y030757D03*
X012316Y030757D03*
X011816Y030757D03*
X011316Y030757D03*
X010816Y030757D03*
X010316Y030757D03*
D14*
X009441Y025509D02*
X009441Y025069D01*
X011441Y025069D02*
X011441Y025509D01*
D15*
X011391Y023164D03*
X012491Y023164D03*
X009366Y023164D03*
X008266Y023164D03*
X012066Y032239D03*
X012066Y033339D03*
X013441Y033339D03*
X013441Y032239D03*
X018016Y033414D03*
X019116Y033414D03*
X023891Y009539D03*
X024991Y009539D03*
X024991Y007039D03*
X023891Y007039D03*
X032516Y007039D03*
X033616Y007039D03*
X033616Y009664D03*
X032516Y009664D03*
D16*
X007971Y009906D03*
X007191Y009906D03*
X007191Y008922D03*
X007971Y008922D03*
X007971Y028422D03*
X007191Y028422D03*
X007191Y029406D03*
X007971Y029406D03*
D17*
X006121Y031284D03*
X006121Y026544D03*
X006121Y011784D03*
X006121Y007044D03*
D18*
X009066Y005664D03*
X009066Y004664D03*
X010566Y005789D03*
X013566Y005789D03*
X015191Y005664D03*
X015191Y004664D03*
X016691Y005789D03*
X019691Y005789D03*
X016691Y021539D03*
X018566Y021789D03*
X019566Y021789D03*
X019566Y023789D03*
X018566Y023789D03*
X016566Y024039D03*
X016566Y025164D03*
X015941Y027289D03*
X013566Y025164D03*
X013566Y024039D03*
X013691Y021539D03*
X015941Y030289D03*
D19*
X009316Y032789D03*
D20*
X010316Y032789D03*
D21*
X022306Y028789D02*
X022826Y028789D01*
X022826Y027789D02*
X022306Y027789D01*
X022306Y026789D02*
X022826Y026789D01*
X022826Y025789D02*
X022306Y025789D01*
X022306Y024789D02*
X022826Y024789D01*
X022826Y023789D02*
X022306Y023789D01*
X022306Y022789D02*
X022826Y022789D01*
X022826Y021789D02*
X022306Y021789D01*
X022306Y020789D02*
X022826Y020789D01*
X022826Y019789D02*
X022306Y019789D01*
X025306Y019789D02*
X025826Y019789D01*
X025826Y020789D02*
X025306Y020789D01*
X025306Y021789D02*
X025826Y021789D01*
X025826Y022789D02*
X025306Y022789D01*
X025306Y023789D02*
X025826Y023789D01*
X025826Y024789D02*
X025306Y024789D01*
X025306Y025789D02*
X025826Y025789D01*
X025826Y026789D02*
X025306Y026789D01*
X025306Y027789D02*
X025826Y027789D01*
X025826Y028789D02*
X025306Y028789D01*
X017326Y011664D02*
X016806Y011664D01*
X016806Y010664D02*
X017326Y010664D01*
X017326Y009664D02*
X016806Y009664D01*
X016806Y008664D02*
X017326Y008664D01*
X014326Y008664D02*
X013806Y008664D01*
X013806Y009664D02*
X014326Y009664D01*
X014326Y010664D02*
X013806Y010664D01*
X013806Y011664D02*
X014326Y011664D01*
D22*
X012216Y011039D03*
X012216Y009914D03*
X009416Y009914D03*
X009416Y011039D03*
D23*
X009816Y015414D03*
X008816Y015414D03*
X007816Y015414D03*
X007816Y016414D03*
X008816Y016414D03*
X009816Y016414D03*
X014441Y016464D03*
X015441Y016464D03*
X016441Y016464D03*
X017441Y016464D03*
X018441Y016464D03*
X018441Y015364D03*
X017441Y015364D03*
X016441Y015364D03*
X015441Y015364D03*
X014441Y015364D03*
D24*
X012316Y012164D03*
X009316Y012164D03*
X009316Y008664D03*
X009316Y007414D03*
X012316Y007414D03*
X012316Y008664D03*
D25*
X029316Y015664D03*
X029316Y016664D03*
X029316Y017664D03*
X029316Y018664D03*
X029316Y019664D03*
X029316Y020664D03*
X029316Y021664D03*
X029316Y022664D03*
X029316Y023664D03*
X029316Y024664D03*
X029316Y025664D03*
X029316Y026664D03*
X029316Y027664D03*
X029316Y028664D03*
X032316Y028664D03*
X032316Y027664D03*
X032316Y026664D03*
X032316Y025664D03*
X032316Y024664D03*
X032316Y023664D03*
X032316Y022664D03*
X032316Y021664D03*
X032316Y020664D03*
X032316Y019664D03*
X032316Y018664D03*
X032316Y017664D03*
X032316Y016664D03*
X032316Y015664D03*
X035916Y016164D03*
X035916Y015164D03*
X035916Y014164D03*
X035916Y013164D03*
X035916Y012164D03*
X035916Y011164D03*
X035916Y010164D03*
X035916Y009164D03*
X041716Y009164D03*
X041716Y010164D03*
X041716Y011164D03*
X041716Y012164D03*
X041716Y013164D03*
X041716Y014164D03*
X041716Y015164D03*
X041716Y016164D03*
X041716Y017164D03*
X041716Y018164D03*
X041716Y019164D03*
X041716Y020164D03*
X041716Y021164D03*
X041716Y022164D03*
X041716Y023164D03*
X041716Y024164D03*
X041716Y025164D03*
X041716Y026164D03*
X041716Y027164D03*
X041716Y028164D03*
X035916Y028164D03*
X035916Y027164D03*
X035916Y026164D03*
X035916Y025164D03*
X035916Y024164D03*
X035916Y023164D03*
X035916Y022164D03*
X035916Y021164D03*
X035916Y020164D03*
X035916Y019164D03*
X035916Y018164D03*
X035916Y017164D03*
X019066Y025914D03*
X018066Y025914D03*
X018066Y026914D03*
X018066Y027914D03*
X019066Y027914D03*
X019066Y026914D03*
X019066Y028914D03*
X018066Y028914D03*
X018066Y029914D03*
X018066Y030914D03*
X019066Y030914D03*
X019066Y029914D03*
D26*
X027866Y009539D03*
X029766Y009539D03*
X029766Y007039D03*
X027866Y007039D03*
D27*
X023979Y010923D02*
X023806Y010751D01*
X023555Y010956D01*
X023454Y010903D01*
X023310Y011250D01*
X023367Y011280D01*
X023416Y011322D01*
X023455Y011372D01*
X023484Y011430D01*
X023500Y011492D01*
X023503Y011556D01*
X023493Y011620D01*
X023470Y011679D01*
X023435Y011733D01*
X023390Y011779D01*
X023337Y011815D01*
X023277Y011839D01*
X023214Y011850D01*
X023150Y011848D01*
X023088Y011834D01*
X023029Y011806D01*
X022978Y011768D01*
X022936Y011719D01*
X022904Y011664D01*
X022885Y011602D01*
X022878Y011539D01*
X022884Y011478D01*
X022902Y011419D01*
X022931Y011365D01*
X022970Y011318D01*
X023017Y011279D01*
X023071Y011250D01*
X022928Y010903D01*
X022826Y010956D01*
X022575Y010751D01*
X022403Y010923D01*
X022608Y011174D01*
X022556Y011276D01*
X022521Y011384D01*
X022198Y011417D01*
X022198Y011660D01*
X022521Y011693D01*
X022556Y011802D01*
X022608Y011903D01*
X022403Y012154D01*
X022575Y012327D01*
X022826Y012122D01*
X022928Y012174D01*
X023036Y012209D01*
X023069Y012531D01*
X023313Y012531D01*
X023345Y012209D01*
X023454Y012174D01*
X023555Y012122D01*
X023806Y012327D01*
X023979Y012154D01*
X023774Y011903D01*
X023826Y011802D01*
X023861Y011693D01*
X024183Y011660D01*
X024183Y011417D01*
X023861Y011384D01*
X023826Y011276D01*
X023774Y011174D01*
X023979Y010923D01*
X023961Y010944D02*
X023569Y010944D01*
X023533Y010944D02*
X023437Y010944D01*
X023396Y011043D02*
X023881Y011043D01*
X023801Y011141D02*
X023355Y011141D01*
X023315Y011240D02*
X023807Y011240D01*
X023846Y011338D02*
X023429Y011338D01*
X023485Y011437D02*
X024183Y011437D01*
X024183Y011535D02*
X023502Y011535D01*
X023487Y011634D02*
X024183Y011634D01*
X023848Y011732D02*
X023436Y011732D01*
X023298Y011831D02*
X023811Y011831D01*
X023795Y011929D02*
X022586Y011929D01*
X022570Y011831D02*
X023081Y011831D01*
X022947Y011732D02*
X022533Y011732D01*
X022506Y012028D02*
X023875Y012028D01*
X023956Y012126D02*
X023561Y012126D01*
X023546Y012126D02*
X022835Y012126D01*
X022821Y012126D02*
X022426Y012126D01*
X022473Y012225D02*
X022700Y012225D01*
X022579Y012323D02*
X022572Y012323D01*
X023048Y012323D02*
X023334Y012323D01*
X023344Y012225D02*
X023038Y012225D01*
X023058Y012422D02*
X023324Y012422D01*
X023314Y012520D02*
X023068Y012520D01*
X023681Y012225D02*
X023908Y012225D01*
X023810Y012323D02*
X023802Y012323D01*
X022895Y011634D02*
X022198Y011634D01*
X022198Y011535D02*
X022879Y011535D01*
X022897Y011437D02*
X022198Y011437D01*
X022536Y011338D02*
X022953Y011338D01*
X023067Y011240D02*
X022574Y011240D01*
X022581Y011141D02*
X023026Y011141D01*
X022985Y011043D02*
X022500Y011043D01*
X022420Y010944D02*
X022812Y010944D01*
X022849Y010944D02*
X022944Y010944D01*
X022692Y010846D02*
X022480Y010846D01*
X023690Y010846D02*
X023901Y010846D01*
D28*
X024120Y010767D02*
X024179Y010815D01*
X024180Y010827D01*
X024189Y010836D01*
X024189Y010912D01*
X024196Y010988D01*
X024189Y010998D01*
X024189Y011010D01*
X024135Y011064D01*
X024032Y011190D01*
X024194Y011207D01*
X024270Y011207D01*
X024279Y011215D01*
X024291Y011217D01*
X024339Y011276D01*
X024393Y011330D01*
X024393Y011342D01*
X024401Y011351D01*
X024393Y011427D01*
X024393Y011650D01*
X024401Y011726D01*
X024393Y011735D01*
X024393Y011747D01*
X024339Y011801D01*
X024291Y011861D01*
X024279Y011862D01*
X024270Y011870D01*
X024194Y011870D01*
X024032Y011887D01*
X024135Y012013D01*
X024189Y012067D01*
X024189Y012080D01*
X024196Y012089D01*
X024189Y012165D01*
X024189Y012241D01*
X024180Y012250D01*
X024179Y012262D01*
X024120Y012310D01*
X023962Y012468D01*
X023914Y012527D01*
X023902Y012528D01*
X023893Y012537D01*
X023817Y012537D01*
X023741Y012544D01*
X023732Y012537D01*
X023719Y012537D01*
X023665Y012483D01*
X023539Y012380D01*
X023523Y012542D01*
X023523Y012618D01*
X023514Y012627D01*
X023513Y012639D01*
X023454Y012687D01*
X023400Y012741D01*
X023387Y012741D01*
X023378Y012749D01*
X023302Y012741D01*
X023080Y012741D01*
X023004Y012749D01*
X022994Y012741D01*
X022982Y012741D01*
X022928Y012687D01*
X022869Y012639D01*
X022868Y012627D01*
X022859Y012618D01*
X022859Y012542D01*
X022842Y012380D01*
X022716Y012483D01*
X022662Y012537D01*
X022650Y012537D01*
X022640Y012544D01*
X022564Y012537D01*
X022488Y012537D01*
X022479Y012528D01*
X022467Y012527D01*
X022419Y012468D01*
X022262Y012310D01*
X022203Y012262D01*
X022201Y012250D01*
X022193Y012241D01*
X022193Y012165D01*
X022185Y012089D01*
X022193Y012080D01*
X022193Y012067D01*
X022247Y012013D01*
X022350Y011887D01*
X022188Y011870D01*
X022111Y011870D01*
X022103Y011862D01*
X022090Y011861D01*
X022042Y011801D01*
X021988Y011747D01*
X021988Y011735D01*
X021980Y011726D01*
X021988Y011650D01*
X021988Y011427D01*
X021980Y011351D01*
X021988Y011342D01*
X021988Y011330D01*
X022042Y011276D01*
X022090Y011217D01*
X022103Y011215D01*
X022111Y011207D01*
X022188Y011207D01*
X022350Y011190D01*
X022247Y011064D01*
X022193Y011010D01*
X022193Y010998D01*
X022185Y010988D01*
X022193Y010912D01*
X022193Y010836D01*
X022201Y010827D01*
X022203Y010815D01*
X022262Y010767D01*
X022419Y010610D01*
X022467Y010551D01*
X022479Y010549D01*
X022488Y010541D01*
X022564Y010541D01*
X022640Y010533D01*
X022650Y010541D01*
X022662Y010541D01*
X022716Y010595D01*
X022853Y010706D01*
X022909Y010677D01*
X022918Y010680D01*
X022928Y010676D01*
X023000Y010706D01*
X023074Y010730D01*
X023079Y010739D01*
X023088Y010743D01*
X023118Y010815D01*
X023154Y010885D01*
X023151Y010894D01*
X023191Y010990D01*
X023230Y010894D01*
X023227Y010885D01*
X023263Y010815D01*
X023293Y010743D01*
X023302Y010739D01*
X023307Y010730D01*
X023382Y010706D01*
X023454Y010676D01*
X023463Y010680D01*
X023473Y010677D01*
X023529Y010706D01*
X023665Y010595D01*
X023719Y010541D01*
X023732Y010541D01*
X023741Y010533D01*
X023817Y010541D01*
X023893Y010541D01*
X023902Y010549D01*
X023914Y010551D01*
X023962Y010610D01*
X024120Y010767D01*
X024127Y010773D02*
X030326Y010773D01*
X030326Y010615D02*
X023967Y010615D01*
X023641Y010615D02*
X022741Y010615D01*
X022414Y010615D02*
X021431Y010615D01*
X021431Y010773D02*
X022254Y010773D01*
X022191Y010932D02*
X021431Y010932D01*
X021431Y011090D02*
X022268Y011090D01*
X022064Y011249D02*
X021431Y011249D01*
X021431Y011407D02*
X021986Y011407D01*
X021988Y011566D02*
X021431Y011566D01*
X021431Y011724D02*
X021981Y011724D01*
X022307Y011883D02*
X021431Y011883D01*
X021431Y012041D02*
X022219Y012041D01*
X022193Y012200D02*
X021431Y012200D01*
X021431Y012358D02*
X022310Y012358D01*
X022459Y012517D02*
X021431Y012517D01*
X021431Y012675D02*
X022913Y012675D01*
X022856Y012517D02*
X022682Y012517D01*
X023468Y012675D02*
X030326Y012675D01*
X030326Y012517D02*
X023922Y012517D01*
X024072Y012358D02*
X030326Y012358D01*
X030326Y012200D02*
X024189Y012200D01*
X024163Y012041D02*
X030326Y012041D01*
X030326Y011883D02*
X024074Y011883D01*
X024401Y011724D02*
X030326Y011724D01*
X030326Y011566D02*
X024393Y011566D01*
X024395Y011407D02*
X030326Y011407D01*
X030326Y011249D02*
X024317Y011249D01*
X024113Y011090D02*
X030326Y011090D01*
X030326Y010932D02*
X024191Y010932D01*
X024027Y010104D02*
X023936Y010119D01*
X023911Y010119D01*
X023911Y009559D01*
X023871Y009559D01*
X023871Y010119D01*
X023845Y010119D01*
X023755Y010104D01*
X023668Y010076D01*
X023587Y010035D01*
X023513Y009981D01*
X023448Y009916D01*
X023395Y009843D01*
X023353Y009761D01*
X023325Y009674D01*
X023311Y009584D01*
X023311Y009559D01*
X023871Y009559D01*
X023871Y009519D01*
X023311Y009519D01*
X023311Y009493D01*
X023325Y009403D01*
X023353Y009316D01*
X023395Y009235D01*
X023448Y009161D01*
X023513Y009096D01*
X023587Y009043D01*
X023668Y009001D01*
X023755Y008973D01*
X023845Y008959D01*
X023871Y008959D01*
X023871Y009519D01*
X023911Y009519D01*
X023911Y008959D01*
X023936Y008959D01*
X024027Y008973D01*
X024113Y009001D01*
X024195Y009043D01*
X024269Y009096D01*
X024333Y009161D01*
X024387Y009235D01*
X024428Y009316D01*
X024450Y009382D01*
X024516Y009221D01*
X024674Y009064D01*
X024879Y008979D01*
X025102Y008979D01*
X025308Y009064D01*
X025465Y009221D01*
X025497Y009299D01*
X027512Y009299D01*
X027628Y009183D01*
X027782Y009119D01*
X027949Y009119D01*
X028104Y009183D01*
X028222Y009301D01*
X028286Y009455D01*
X028286Y009622D01*
X028222Y009777D01*
X028104Y009895D01*
X027949Y009959D01*
X027782Y009959D01*
X027628Y009895D01*
X027512Y009779D01*
X025497Y009779D01*
X025465Y009856D01*
X025308Y010013D01*
X025102Y010099D01*
X024879Y010099D01*
X024674Y010013D01*
X024516Y009856D01*
X024450Y009696D01*
X024428Y009761D01*
X024387Y009843D01*
X024333Y009916D01*
X024269Y009981D01*
X024641Y009981D01*
X024502Y009822D02*
X024397Y009822D01*
X024269Y009981D02*
X024195Y010035D01*
X024113Y010076D01*
X024027Y010104D01*
X023911Y009981D02*
X023871Y009981D01*
X023871Y009822D02*
X023911Y009822D01*
X023911Y009664D02*
X023871Y009664D01*
X023871Y009505D02*
X023911Y009505D01*
X023911Y009347D02*
X023871Y009347D01*
X023871Y009188D02*
X023911Y009188D01*
X023911Y009030D02*
X023871Y009030D01*
X023612Y009030D02*
X021146Y009030D01*
X021305Y009188D02*
X023428Y009188D01*
X023343Y009347D02*
X021423Y009347D01*
X021431Y009366D02*
X021431Y013174D01*
X028708Y013174D01*
X028708Y013149D01*
X028801Y013056D01*
X029330Y013056D01*
X029424Y013149D01*
X029424Y013678D01*
X029376Y013726D01*
X029424Y013774D01*
X029424Y014303D01*
X029376Y014351D01*
X029424Y014399D01*
X029424Y014928D01*
X029330Y015022D01*
X028801Y015022D01*
X028708Y014928D01*
X028708Y014904D01*
X022299Y014904D01*
X022299Y015178D01*
X022205Y015272D01*
X021676Y015272D01*
X021583Y015178D01*
X021583Y014904D01*
X021540Y014904D01*
X021431Y015013D01*
X021431Y016836D01*
X021394Y016925D01*
X021327Y016992D01*
X020702Y017617D01*
X020613Y017654D01*
X020049Y017654D01*
X020049Y017678D01*
X019955Y017772D01*
X019426Y017772D01*
X019333Y017678D01*
X019333Y017654D01*
X017643Y017654D01*
X017555Y017617D01*
X017305Y017367D01*
X017237Y017300D01*
X017201Y017211D01*
X017201Y016973D01*
X016941Y016713D01*
X016681Y016973D01*
X016681Y017689D01*
X016790Y017799D01*
X019988Y017799D01*
X020077Y017835D01*
X020894Y018653D01*
X020931Y018741D01*
X020931Y026431D01*
X020955Y026431D01*
X021049Y026524D01*
X021049Y027053D01*
X020955Y027147D01*
X020426Y027147D01*
X020333Y027053D01*
X020333Y026524D01*
X020426Y026431D01*
X020451Y026431D01*
X020451Y018888D01*
X019841Y018279D01*
X016790Y018279D01*
X016577Y018492D01*
X016488Y018529D01*
X016299Y018529D01*
X016299Y018553D01*
X016205Y018647D01*
X015676Y018647D01*
X015583Y018553D01*
X015583Y018024D01*
X015676Y017931D01*
X016205Y017931D01*
X016299Y018024D01*
X016299Y018049D01*
X016341Y018049D01*
X016351Y018039D01*
X016305Y017992D01*
X016305Y017992D01*
X016237Y017925D01*
X016201Y017836D01*
X016201Y016973D01*
X015941Y016713D01*
X015660Y016994D01*
X015221Y016994D01*
X014941Y016713D01*
X014660Y016994D01*
X014221Y016994D01*
X013911Y016683D01*
X013911Y016244D01*
X014221Y015934D01*
X014660Y015934D01*
X014941Y016214D01*
X015221Y015934D01*
X015660Y015934D01*
X015941Y016214D01*
X016221Y015934D01*
X016660Y015934D01*
X016941Y016214D01*
X017221Y015934D01*
X017660Y015934D01*
X017941Y016214D01*
X018221Y015934D01*
X018660Y015934D01*
X018950Y016224D01*
X019916Y016224D01*
X020576Y015564D01*
X020576Y014638D01*
X020487Y014550D01*
X020451Y014461D01*
X020451Y014272D01*
X020426Y014272D01*
X020333Y014178D01*
X020333Y013654D01*
X018290Y013654D01*
X017681Y014263D01*
X017681Y014854D01*
X017941Y015114D01*
X018221Y014834D01*
X018660Y014834D01*
X018971Y015144D01*
X018971Y015583D01*
X018660Y015894D01*
X018221Y015894D01*
X017941Y015613D01*
X017660Y015894D01*
X017221Y015894D01*
X016955Y015627D01*
X016669Y015914D01*
X016461Y015914D01*
X016461Y015384D01*
X016421Y015384D01*
X016421Y015914D01*
X016213Y015914D01*
X015927Y015627D01*
X015660Y015894D01*
X015221Y015894D01*
X014941Y015613D01*
X014660Y015894D01*
X014221Y015894D01*
X013911Y015583D01*
X013911Y015144D01*
X014151Y014904D01*
X010055Y014904D01*
X010325Y015174D01*
X010363Y015174D01*
X010452Y015210D01*
X010827Y015585D01*
X010894Y015653D01*
X010931Y015741D01*
X010931Y017586D01*
X010894Y017675D01*
X010181Y018388D01*
X010181Y019439D01*
X011665Y020924D01*
X012238Y020924D01*
X012327Y020960D01*
X012394Y021028D01*
X014576Y023209D01*
X014576Y021866D01*
X014612Y021778D01*
X014987Y021403D01*
X015055Y021335D01*
X015143Y021299D01*
X016337Y021299D01*
X016517Y021119D01*
X016865Y021119D01*
X017111Y021365D01*
X017111Y021713D01*
X016865Y021959D01*
X016517Y021959D01*
X016337Y021779D01*
X015290Y021779D01*
X015056Y022013D01*
X015056Y024939D01*
X016172Y026056D01*
X016580Y026056D01*
X016674Y026149D01*
X016674Y026678D01*
X016580Y026772D01*
X016051Y026772D01*
X015958Y026678D01*
X015958Y026520D01*
X014680Y025242D01*
X014612Y025175D01*
X014576Y025086D01*
X014576Y023888D01*
X012091Y021404D01*
X011518Y021404D01*
X011430Y021367D01*
X011362Y021300D01*
X011362Y021300D01*
X009805Y019742D01*
X009805Y019742D01*
X009737Y019675D01*
X009701Y019586D01*
X009701Y018241D01*
X009737Y018153D01*
X010451Y017439D01*
X010451Y015888D01*
X010271Y015708D01*
X010065Y015914D01*
X010346Y016194D01*
X010346Y016633D01*
X010035Y016944D01*
X009596Y016944D01*
X009316Y016663D01*
X009035Y016944D01*
X008596Y016944D01*
X008316Y016663D01*
X008035Y016944D01*
X007596Y016944D01*
X007286Y016633D01*
X007286Y016194D01*
X007552Y015928D01*
X007266Y015641D01*
X007266Y015434D01*
X007796Y015434D01*
X007796Y015394D01*
X007266Y015394D01*
X007266Y015186D01*
X007588Y014864D01*
X007796Y014864D01*
X007796Y015394D01*
X007836Y015394D01*
X007836Y014864D01*
X008044Y014864D01*
X008330Y015150D01*
X008596Y014884D01*
X008631Y014884D01*
X008987Y014528D01*
X009055Y014460D01*
X009143Y014424D01*
X017201Y014424D01*
X017201Y014116D01*
X017237Y014028D01*
X018055Y013210D01*
X018143Y013174D01*
X020951Y013174D01*
X020951Y012647D01*
X020426Y012647D01*
X020333Y012553D01*
X020333Y012024D01*
X020426Y011931D01*
X020451Y011931D01*
X020451Y010263D01*
X020091Y009904D01*
X017680Y009904D01*
X017564Y010020D01*
X017409Y010084D01*
X016722Y010084D01*
X016568Y010020D01*
X016450Y009902D01*
X016386Y009747D01*
X016386Y009580D01*
X016450Y009426D01*
X016568Y009308D01*
X016722Y009244D01*
X017409Y009244D01*
X017564Y009308D01*
X017680Y009424D01*
X020238Y009424D01*
X020327Y009460D01*
X020827Y009960D01*
X020894Y010028D01*
X020931Y010116D01*
X020931Y011931D01*
X020951Y011931D01*
X020951Y009513D01*
X020341Y008904D01*
X017680Y008904D01*
X017564Y009020D01*
X017409Y009084D01*
X016722Y009084D01*
X016568Y009020D01*
X016450Y008902D01*
X016386Y008747D01*
X016386Y008580D01*
X016450Y008426D01*
X016568Y008308D01*
X016722Y008244D01*
X017409Y008244D01*
X017564Y008308D01*
X017680Y008424D01*
X020488Y008424D01*
X020577Y008460D01*
X021327Y009210D01*
X021394Y009278D01*
X021431Y009366D01*
X021431Y009505D02*
X023311Y009505D01*
X023323Y009664D02*
X021431Y009664D01*
X021431Y009822D02*
X023384Y009822D01*
X023513Y009981D02*
X021431Y009981D01*
X021431Y010139D02*
X030326Y010139D01*
X030326Y009981D02*
X025341Y009981D01*
X025479Y009822D02*
X027555Y009822D01*
X027866Y009539D02*
X024991Y009539D01*
X024464Y009347D02*
X024438Y009347D01*
X024353Y009188D02*
X024549Y009188D01*
X024756Y009030D02*
X024169Y009030D01*
X025225Y009030D02*
X035398Y009030D01*
X035386Y009058D02*
X035466Y008863D01*
X035616Y008714D01*
X035810Y008634D01*
X036021Y008634D01*
X036216Y008714D01*
X036365Y008863D01*
X036446Y009058D01*
X036446Y009269D01*
X036365Y009464D01*
X036216Y009613D01*
X036094Y009664D01*
X041538Y009664D01*
X041416Y009613D01*
X041266Y009464D01*
X041186Y009269D01*
X041186Y009058D01*
X041266Y008863D01*
X041416Y008714D01*
X041610Y008634D01*
X041821Y008634D01*
X042016Y008714D01*
X042165Y008863D01*
X042246Y009058D01*
X042246Y009269D01*
X042165Y009464D01*
X042016Y009613D01*
X041894Y009664D01*
X043521Y009664D01*
X043521Y009822D02*
X042124Y009822D01*
X042165Y009863D02*
X042016Y009714D01*
X041894Y009664D01*
X042124Y009505D02*
X043521Y009505D01*
X043521Y009347D02*
X042214Y009347D01*
X042246Y009188D02*
X043521Y009188D01*
X043521Y009030D02*
X042234Y009030D01*
X042168Y008871D02*
X043521Y008871D01*
X043521Y008713D02*
X042012Y008713D01*
X041420Y008713D02*
X036212Y008713D01*
X036368Y008871D02*
X041263Y008871D01*
X041198Y009030D02*
X036434Y009030D01*
X036446Y009188D02*
X041186Y009188D01*
X041218Y009347D02*
X036414Y009347D01*
X036324Y009505D02*
X041308Y009505D01*
X041416Y009714D02*
X041538Y009664D01*
X041416Y009714D02*
X041266Y009863D01*
X041186Y010058D01*
X041186Y010269D01*
X041266Y010464D01*
X041416Y010613D01*
X041538Y010664D01*
X041416Y010714D01*
X041266Y010863D01*
X041186Y011058D01*
X041186Y011269D01*
X041266Y011464D01*
X041416Y011613D01*
X041538Y011664D01*
X041416Y011714D01*
X041266Y011863D01*
X041186Y012058D01*
X041186Y012269D01*
X041266Y012464D01*
X041416Y012613D01*
X041538Y012664D01*
X041416Y012714D01*
X041266Y012863D01*
X041186Y013058D01*
X041186Y013269D01*
X041266Y013464D01*
X041416Y013613D01*
X041538Y013664D01*
X041416Y013714D01*
X041266Y013863D01*
X041186Y014058D01*
X041186Y014269D01*
X041266Y014464D01*
X041416Y014613D01*
X041538Y014664D01*
X041416Y014714D01*
X041266Y014863D01*
X041186Y015058D01*
X041186Y015269D01*
X041266Y015464D01*
X041416Y015613D01*
X041538Y015664D01*
X041416Y015714D01*
X041266Y015863D01*
X041186Y016058D01*
X041186Y016269D01*
X041266Y016464D01*
X041416Y016613D01*
X041538Y016664D01*
X041416Y016714D01*
X041266Y016863D01*
X041186Y017058D01*
X041186Y017269D01*
X041266Y017464D01*
X041416Y017613D01*
X041538Y017664D01*
X041416Y017714D01*
X041266Y017863D01*
X041186Y018058D01*
X041186Y018269D01*
X041211Y018329D01*
X040616Y018924D01*
X036390Y018924D01*
X036365Y018863D01*
X036216Y018714D01*
X036121Y018675D01*
X036127Y018673D01*
X036204Y018634D01*
X036274Y018583D01*
X036335Y018522D01*
X036386Y018452D01*
X036425Y018375D01*
X036452Y018292D01*
X036466Y018207D01*
X036466Y018184D01*
X035936Y018184D01*
X035936Y018144D01*
X036466Y018144D01*
X036466Y018120D01*
X036452Y018035D01*
X036425Y017953D01*
X036386Y017875D01*
X036335Y017805D01*
X036274Y017744D01*
X036204Y017693D01*
X036127Y017654D01*
X036121Y017652D01*
X036216Y017613D01*
X036365Y017464D01*
X036446Y017269D01*
X036446Y017058D01*
X036365Y016863D01*
X036216Y016714D01*
X036094Y016664D01*
X036216Y016613D01*
X036365Y016464D01*
X036446Y016269D01*
X036446Y016058D01*
X036365Y015863D01*
X036216Y015714D01*
X036094Y015664D01*
X036216Y015613D01*
X036365Y015464D01*
X036446Y015269D01*
X036446Y015058D01*
X036365Y014863D01*
X036216Y014714D01*
X036094Y014664D01*
X036216Y014613D01*
X036365Y014464D01*
X036446Y014269D01*
X036446Y014058D01*
X036365Y013863D01*
X036216Y013714D01*
X036094Y013664D01*
X036216Y013613D01*
X036365Y013464D01*
X036446Y013269D01*
X036446Y013058D01*
X036365Y012863D01*
X036216Y012714D01*
X036094Y012664D01*
X036216Y012613D01*
X036365Y012464D01*
X036446Y012269D01*
X036446Y012058D01*
X036365Y011863D01*
X036216Y011714D01*
X036094Y011664D01*
X036216Y011613D01*
X036365Y011464D01*
X036446Y011269D01*
X036446Y011058D01*
X036365Y010863D01*
X036216Y010714D01*
X036094Y010664D01*
X036216Y010613D01*
X036365Y010464D01*
X036446Y010269D01*
X036446Y010058D01*
X036365Y009863D01*
X036216Y009714D01*
X036094Y009664D01*
X036324Y009822D02*
X041308Y009822D01*
X041218Y009981D02*
X036414Y009981D01*
X036446Y010139D02*
X041186Y010139D01*
X041198Y010298D02*
X036434Y010298D01*
X036368Y010456D02*
X041263Y010456D01*
X041420Y010615D02*
X036212Y010615D01*
X036275Y010773D02*
X041357Y010773D01*
X041238Y010932D02*
X036393Y010932D01*
X036446Y011090D02*
X041186Y011090D01*
X041186Y011249D02*
X036446Y011249D01*
X036389Y011407D02*
X041243Y011407D01*
X041368Y011566D02*
X036263Y011566D01*
X036226Y011724D02*
X041406Y011724D01*
X041258Y011883D02*
X036373Y011883D01*
X036439Y012041D02*
X041193Y012041D01*
X041186Y012200D02*
X036446Y012200D01*
X036409Y012358D02*
X041223Y012358D01*
X041319Y012517D02*
X036312Y012517D01*
X036121Y012675D02*
X041510Y012675D01*
X041296Y012834D02*
X036335Y012834D01*
X036418Y012992D02*
X041213Y012992D01*
X041186Y013151D02*
X036446Y013151D01*
X036429Y013309D02*
X041202Y013309D01*
X041270Y013468D02*
X036361Y013468D01*
X036184Y013626D02*
X041447Y013626D01*
X041345Y013785D02*
X036286Y013785D01*
X036398Y013943D02*
X041233Y013943D01*
X041186Y014102D02*
X036446Y014102D01*
X036446Y014260D02*
X041186Y014260D01*
X041248Y014419D02*
X036384Y014419D01*
X036252Y014577D02*
X041380Y014577D01*
X041394Y014736D02*
X036237Y014736D01*
X036378Y014894D02*
X041254Y014894D01*
X041188Y015053D02*
X036443Y015053D01*
X036446Y015211D02*
X041186Y015211D01*
X041227Y015370D02*
X036404Y015370D01*
X036301Y015528D02*
X041331Y015528D01*
X041482Y015687D02*
X036149Y015687D01*
X036347Y015845D02*
X041285Y015845D01*
X041208Y016004D02*
X036423Y016004D01*
X036446Y016162D02*
X041186Y016162D01*
X041207Y016321D02*
X036424Y016321D01*
X036350Y016479D02*
X041282Y016479D01*
X041475Y016638D02*
X036156Y016638D01*
X036298Y016796D02*
X041334Y016796D01*
X041229Y016955D02*
X036403Y016955D01*
X036446Y017113D02*
X041186Y017113D01*
X041187Y017272D02*
X036445Y017272D01*
X036379Y017430D02*
X041252Y017430D01*
X041391Y017589D02*
X036240Y017589D01*
X036277Y017747D02*
X041383Y017747D01*
X041249Y017906D02*
X036402Y017906D01*
X036457Y018064D02*
X041186Y018064D01*
X041186Y018223D02*
X036463Y018223D01*
X036422Y018381D02*
X041159Y018381D01*
X041000Y018540D02*
X036318Y018540D01*
X036177Y018698D02*
X040842Y018698D01*
X040683Y018857D02*
X036358Y018857D01*
X035916Y019164D02*
X040716Y019164D01*
X041716Y018164D01*
X041921Y018652D02*
X041927Y018654D01*
X042004Y018693D01*
X042074Y018744D01*
X042135Y018805D01*
X042186Y018875D01*
X042225Y018953D01*
X042252Y019035D01*
X042266Y019120D01*
X042266Y019135D01*
X041744Y019135D01*
X041744Y019192D01*
X042266Y019192D01*
X042266Y019207D01*
X042252Y019292D01*
X042225Y019375D01*
X042186Y019452D01*
X042135Y019522D01*
X042074Y019583D01*
X042004Y019634D01*
X041927Y019673D01*
X041921Y019675D01*
X042016Y019714D01*
X042165Y019863D01*
X042246Y020058D01*
X042246Y020269D01*
X042165Y020464D01*
X042016Y020613D01*
X041894Y020664D01*
X042016Y020714D01*
X042165Y020863D01*
X042246Y021058D01*
X042246Y021269D01*
X042165Y021464D01*
X042016Y021613D01*
X041894Y021664D01*
X042016Y021714D01*
X042165Y021863D01*
X042246Y022058D01*
X042246Y022269D01*
X042165Y022464D01*
X042016Y022613D01*
X041894Y022664D01*
X042016Y022714D01*
X042165Y022863D01*
X042246Y023058D01*
X042246Y023269D01*
X042165Y023464D01*
X042016Y023613D01*
X041894Y023664D01*
X042016Y023714D01*
X042165Y023863D01*
X042246Y024058D01*
X042246Y024269D01*
X042165Y024464D01*
X042016Y024613D01*
X041894Y024664D01*
X042016Y024714D01*
X042165Y024863D01*
X042246Y025058D01*
X042246Y025269D01*
X042165Y025464D01*
X042016Y025613D01*
X041894Y025664D01*
X042016Y025714D01*
X042165Y025863D01*
X042246Y026058D01*
X042246Y026269D01*
X042165Y026464D01*
X042016Y026613D01*
X041894Y026664D01*
X042016Y026714D01*
X042165Y026863D01*
X042246Y027058D01*
X042246Y027269D01*
X042165Y027464D01*
X042016Y027613D01*
X041894Y027664D01*
X042016Y027714D01*
X042165Y027863D01*
X042246Y028058D01*
X042246Y028269D01*
X042165Y028464D01*
X042016Y028613D01*
X041821Y028694D01*
X041610Y028694D01*
X041416Y028613D01*
X041266Y028464D01*
X041186Y028269D01*
X041186Y028058D01*
X041266Y027863D01*
X041416Y027714D01*
X041538Y027664D01*
X041416Y027613D01*
X041266Y027464D01*
X041186Y027269D01*
X041186Y027058D01*
X041266Y026863D01*
X041416Y026714D01*
X041538Y026664D01*
X041416Y026613D01*
X041266Y026464D01*
X041186Y026269D01*
X041186Y026058D01*
X041266Y025863D01*
X041416Y025714D01*
X041538Y025664D01*
X041416Y025613D01*
X041266Y025464D01*
X041186Y025269D01*
X041186Y025058D01*
X041266Y024863D01*
X041416Y024714D01*
X041538Y024664D01*
X041416Y024613D01*
X041266Y024464D01*
X041186Y024269D01*
X041186Y024058D01*
X041266Y023863D01*
X041416Y023714D01*
X041538Y023664D01*
X041416Y023613D01*
X041266Y023464D01*
X041186Y023269D01*
X041186Y023058D01*
X041266Y022863D01*
X041416Y022714D01*
X041538Y022664D01*
X041416Y022613D01*
X041266Y022464D01*
X041186Y022269D01*
X041186Y022058D01*
X041266Y021863D01*
X041416Y021714D01*
X041538Y021664D01*
X041416Y021613D01*
X041266Y021464D01*
X041186Y021269D01*
X041186Y021058D01*
X041266Y020863D01*
X041416Y020714D01*
X041538Y020664D01*
X041416Y020613D01*
X041266Y020464D01*
X041186Y020269D01*
X041186Y020058D01*
X041266Y019863D01*
X041416Y019714D01*
X041510Y019675D01*
X041505Y019673D01*
X041427Y019634D01*
X041357Y019583D01*
X041296Y019522D01*
X041245Y019452D01*
X041206Y019375D01*
X041179Y019292D01*
X041166Y019207D01*
X041166Y019192D01*
X041687Y019192D01*
X041687Y019135D01*
X041166Y019135D01*
X041166Y019120D01*
X041178Y019040D01*
X040852Y019367D01*
X040763Y019404D01*
X036390Y019404D01*
X036365Y019464D01*
X036216Y019613D01*
X036094Y019664D01*
X036216Y019714D01*
X036365Y019863D01*
X036390Y019924D01*
X036738Y019924D01*
X036827Y019960D01*
X036894Y020028D01*
X037519Y020653D01*
X037556Y020741D01*
X037556Y028836D01*
X037519Y028925D01*
X037452Y028992D01*
X037060Y029384D01*
X041700Y029384D01*
X042286Y028798D01*
X042286Y018780D01*
X042068Y018561D01*
X042016Y018613D01*
X041921Y018652D01*
X042011Y018698D02*
X042204Y018698D01*
X042173Y018857D02*
X042286Y018857D01*
X042286Y019015D02*
X042246Y019015D01*
X042286Y019174D02*
X041744Y019174D01*
X041687Y019174D02*
X041045Y019174D01*
X041192Y019332D02*
X040887Y019332D01*
X041274Y019491D02*
X036338Y019491D01*
X036129Y019649D02*
X041457Y019649D01*
X041322Y019808D02*
X036309Y019808D01*
X036691Y020164D02*
X035916Y020164D01*
X036094Y020664D02*
X036216Y020714D01*
X036365Y020863D01*
X036446Y021058D01*
X036446Y021269D01*
X036365Y021464D01*
X036216Y021613D01*
X036094Y021664D01*
X036216Y021714D01*
X036365Y021863D01*
X036446Y022058D01*
X036446Y022269D01*
X036365Y022464D01*
X036216Y022613D01*
X036094Y022664D01*
X036216Y022714D01*
X036365Y022863D01*
X036446Y023058D01*
X036446Y023269D01*
X036365Y023464D01*
X036216Y023613D01*
X036094Y023664D01*
X036216Y023714D01*
X036365Y023863D01*
X036446Y024058D01*
X036446Y024269D01*
X036365Y024464D01*
X036216Y024613D01*
X036094Y024664D01*
X036216Y024714D01*
X036365Y024863D01*
X036446Y025058D01*
X036446Y025269D01*
X036365Y025464D01*
X036216Y025613D01*
X036094Y025664D01*
X036216Y025714D01*
X036365Y025863D01*
X036446Y026058D01*
X036446Y026269D01*
X036365Y026464D01*
X036216Y026613D01*
X036094Y026664D01*
X036216Y026714D01*
X036365Y026863D01*
X036446Y027058D01*
X036446Y027269D01*
X036365Y027464D01*
X036216Y027613D01*
X036094Y027664D01*
X036216Y027714D01*
X036365Y027863D01*
X036446Y028058D01*
X036446Y028269D01*
X036365Y028464D01*
X036216Y028613D01*
X036021Y028694D01*
X035810Y028694D01*
X035616Y028613D01*
X035466Y028464D01*
X035386Y028269D01*
X035386Y028058D01*
X035466Y027863D01*
X035616Y027714D01*
X035738Y027664D01*
X035616Y027613D01*
X035466Y027464D01*
X035386Y027269D01*
X035386Y027058D01*
X035466Y026863D01*
X035616Y026714D01*
X035738Y026664D01*
X035616Y026613D01*
X035466Y026464D01*
X035386Y026269D01*
X035386Y026058D01*
X035466Y025863D01*
X035616Y025714D01*
X035738Y025664D01*
X035616Y025613D01*
X035466Y025464D01*
X035386Y025269D01*
X035386Y025058D01*
X035466Y024863D01*
X035616Y024714D01*
X035738Y024664D01*
X035616Y024613D01*
X035466Y024464D01*
X035386Y024269D01*
X035386Y024058D01*
X035466Y023863D01*
X035616Y023714D01*
X035738Y023664D01*
X035616Y023613D01*
X035466Y023464D01*
X035386Y023269D01*
X035386Y023058D01*
X035411Y022998D01*
X034816Y022404D01*
X033393Y022404D01*
X033305Y022367D01*
X033237Y022300D01*
X032987Y022050D01*
X032951Y021961D01*
X032951Y020368D01*
X032821Y020498D01*
X032846Y020558D01*
X032846Y020769D01*
X032765Y020964D01*
X032616Y021113D01*
X032494Y021164D01*
X032616Y021214D01*
X032765Y021363D01*
X032846Y021558D01*
X032846Y021769D01*
X032765Y021964D01*
X032616Y022113D01*
X032521Y022152D01*
X032527Y022154D01*
X032604Y022193D01*
X032674Y022244D01*
X032735Y022305D01*
X032786Y022375D01*
X032825Y022453D01*
X032852Y022535D01*
X032866Y022620D01*
X032866Y022644D01*
X032336Y022644D01*
X032336Y022684D01*
X032866Y022684D01*
X032866Y022707D01*
X032852Y022792D01*
X032825Y022875D01*
X032786Y022952D01*
X032735Y023022D01*
X032674Y023083D01*
X032604Y023134D01*
X032527Y023173D01*
X032521Y023175D01*
X032616Y023214D01*
X032765Y023363D01*
X032846Y023558D01*
X032846Y023769D01*
X032765Y023964D01*
X032616Y024113D01*
X032494Y024164D01*
X032616Y024214D01*
X032765Y024363D01*
X032846Y024558D01*
X032846Y024769D01*
X032765Y024964D01*
X032616Y025113D01*
X032494Y025164D01*
X032616Y025214D01*
X032765Y025363D01*
X032846Y025558D01*
X032846Y025769D01*
X032765Y025964D01*
X032616Y026113D01*
X032494Y026164D01*
X032616Y026214D01*
X032765Y026363D01*
X032846Y026558D01*
X032846Y026769D01*
X032765Y026964D01*
X032616Y027113D01*
X032494Y027164D01*
X032616Y027214D01*
X032765Y027363D01*
X032846Y027558D01*
X032846Y027769D01*
X032765Y027964D01*
X032616Y028113D01*
X032494Y028164D01*
X032616Y028214D01*
X032765Y028363D01*
X032846Y028558D01*
X032846Y028769D01*
X032765Y028964D01*
X032680Y029049D01*
X036716Y029049D01*
X037076Y028689D01*
X037076Y020888D01*
X036591Y020404D01*
X036390Y020404D01*
X036365Y020464D01*
X036216Y020613D01*
X036094Y020664D01*
X036229Y020600D02*
X036788Y020600D01*
X036629Y020442D02*
X036374Y020442D01*
X036260Y020759D02*
X036946Y020759D01*
X037076Y020917D02*
X036387Y020917D01*
X036446Y021076D02*
X037076Y021076D01*
X037076Y021234D02*
X036446Y021234D01*
X036395Y021393D02*
X037076Y021393D01*
X037076Y021551D02*
X036278Y021551D01*
X036205Y021710D02*
X037076Y021710D01*
X037076Y021868D02*
X036367Y021868D01*
X036433Y022027D02*
X037076Y022027D01*
X037076Y022185D02*
X036446Y022185D01*
X036415Y022344D02*
X037076Y022344D01*
X037076Y022502D02*
X036327Y022502D01*
X036101Y022661D02*
X037076Y022661D01*
X037076Y022819D02*
X036321Y022819D01*
X036412Y022978D02*
X037076Y022978D01*
X037076Y023136D02*
X036446Y023136D01*
X036435Y023295D02*
X037076Y023295D01*
X037076Y023453D02*
X036369Y023453D01*
X036217Y023612D02*
X037076Y023612D01*
X037076Y023770D02*
X036272Y023770D01*
X036392Y023929D02*
X037076Y023929D01*
X037076Y024087D02*
X036446Y024087D01*
X036446Y024246D02*
X037076Y024246D01*
X037076Y024404D02*
X036390Y024404D01*
X036266Y024563D02*
X037076Y024563D01*
X037076Y024721D02*
X036223Y024721D01*
X036372Y024880D02*
X037076Y024880D01*
X037076Y025038D02*
X036437Y025038D01*
X036446Y025197D02*
X037076Y025197D01*
X037076Y025355D02*
X036410Y025355D01*
X036315Y025514D02*
X037076Y025514D01*
X037076Y025672D02*
X036114Y025672D01*
X036332Y025831D02*
X037076Y025831D01*
X037076Y025989D02*
X036417Y025989D01*
X036446Y026148D02*
X037076Y026148D01*
X037076Y026306D02*
X036430Y026306D01*
X036364Y026465D02*
X037076Y026465D01*
X037076Y026623D02*
X036191Y026623D01*
X036283Y026782D02*
X037076Y026782D01*
X037076Y026940D02*
X036397Y026940D01*
X036446Y027099D02*
X037076Y027099D01*
X037076Y027257D02*
X036446Y027257D01*
X036385Y027416D02*
X037076Y027416D01*
X037076Y027574D02*
X036255Y027574D01*
X036234Y027733D02*
X037076Y027733D01*
X037076Y027891D02*
X036377Y027891D01*
X036442Y028050D02*
X037076Y028050D01*
X037076Y028208D02*
X036446Y028208D01*
X036405Y028367D02*
X037076Y028367D01*
X037076Y028525D02*
X036304Y028525D01*
X036045Y028684D02*
X037076Y028684D01*
X036923Y028842D02*
X032815Y028842D01*
X032846Y028684D02*
X035786Y028684D01*
X035528Y028525D02*
X032832Y028525D01*
X032766Y028367D02*
X035426Y028367D01*
X035386Y028208D02*
X032601Y028208D01*
X032679Y028050D02*
X035389Y028050D01*
X035455Y027891D02*
X032795Y027891D01*
X032846Y027733D02*
X035597Y027733D01*
X035577Y027574D02*
X032846Y027574D01*
X032787Y027416D02*
X035446Y027416D01*
X035386Y027257D02*
X032659Y027257D01*
X032630Y027099D02*
X035386Y027099D01*
X035435Y026940D02*
X032775Y026940D01*
X032841Y026782D02*
X035548Y026782D01*
X035640Y026623D02*
X032846Y026623D01*
X032807Y026465D02*
X035467Y026465D01*
X035401Y026306D02*
X032708Y026306D01*
X032532Y026148D02*
X035386Y026148D01*
X035414Y025989D02*
X032740Y025989D01*
X032820Y025831D02*
X035499Y025831D01*
X035717Y025672D02*
X032846Y025672D01*
X032827Y025514D02*
X035516Y025514D01*
X035421Y025355D02*
X032757Y025355D01*
X032573Y025197D02*
X035386Y025197D01*
X035394Y025038D02*
X032691Y025038D01*
X032800Y024880D02*
X035460Y024880D01*
X035609Y024721D02*
X032846Y024721D01*
X032846Y024563D02*
X035565Y024563D01*
X035442Y024404D02*
X032782Y024404D01*
X032647Y024246D02*
X035386Y024246D01*
X035386Y024087D02*
X032642Y024087D01*
X032780Y023929D02*
X035439Y023929D01*
X035560Y023770D02*
X032845Y023770D01*
X032846Y023612D02*
X035614Y023612D01*
X035462Y023453D02*
X032802Y023453D01*
X032696Y023295D02*
X035396Y023295D01*
X035386Y023136D02*
X032600Y023136D01*
X032767Y022978D02*
X035390Y022978D01*
X035232Y022819D02*
X032844Y022819D01*
X032842Y022502D02*
X034915Y022502D01*
X035073Y022661D02*
X032336Y022661D01*
X032763Y022344D02*
X033281Y022344D01*
X033123Y022185D02*
X032588Y022185D01*
X032702Y022027D02*
X032978Y022027D01*
X032951Y021868D02*
X032805Y021868D01*
X032846Y021710D02*
X032951Y021710D01*
X032951Y021551D02*
X032843Y021551D01*
X032777Y021393D02*
X032951Y021393D01*
X032951Y021234D02*
X032636Y021234D01*
X032653Y021076D02*
X032951Y021076D01*
X032951Y020917D02*
X032784Y020917D01*
X032846Y020759D02*
X032951Y020759D01*
X032951Y020600D02*
X032846Y020600D01*
X032877Y020442D02*
X032951Y020442D01*
X033191Y020289D02*
X033191Y021914D01*
X033441Y022164D01*
X034916Y022164D01*
X035916Y023164D01*
X035916Y022164D02*
X035541Y021789D01*
X033566Y021789D01*
X033441Y021664D01*
X033441Y020539D01*
X033816Y020164D01*
X033941Y020164D01*
X033441Y020039D02*
X033191Y020289D01*
X033441Y020039D02*
X033441Y019789D01*
X033941Y019289D01*
X033566Y018789D02*
X035066Y018789D01*
X035316Y019039D01*
X035791Y019039D01*
X035916Y019164D01*
X035710Y018675D02*
X035705Y018673D01*
X035627Y018634D01*
X035557Y018583D01*
X035496Y018522D01*
X035445Y018452D01*
X035406Y018375D01*
X035379Y018292D01*
X035366Y018207D01*
X035366Y018184D01*
X035896Y018184D01*
X035896Y018144D01*
X035366Y018144D01*
X035366Y018120D01*
X035379Y018035D01*
X035406Y017953D01*
X035445Y017875D01*
X035496Y017805D01*
X035557Y017744D01*
X035627Y017693D01*
X035705Y017654D01*
X035710Y017652D01*
X035616Y017613D01*
X035466Y017464D01*
X035386Y017269D01*
X035386Y017058D01*
X035466Y016863D01*
X035616Y016714D01*
X035738Y016664D01*
X035616Y016613D01*
X035466Y016464D01*
X035386Y016269D01*
X035386Y016058D01*
X035466Y015863D01*
X035616Y015714D01*
X035738Y015664D01*
X035616Y015613D01*
X035466Y015464D01*
X035386Y015269D01*
X035386Y015154D01*
X032469Y015154D01*
X032616Y015214D01*
X032765Y015363D01*
X032846Y015558D01*
X032846Y015769D01*
X032765Y015964D01*
X032616Y016113D01*
X032494Y016164D01*
X032616Y016214D01*
X032765Y016363D01*
X032846Y016558D01*
X032846Y016769D01*
X032765Y016964D01*
X032616Y017113D01*
X032494Y017164D01*
X032616Y017214D01*
X032765Y017363D01*
X032846Y017558D01*
X032846Y017769D01*
X032765Y017964D01*
X032616Y018113D01*
X032494Y018164D01*
X032616Y018214D01*
X032765Y018363D01*
X032846Y018558D01*
X032846Y018769D01*
X032765Y018964D01*
X032616Y019113D01*
X032494Y019164D01*
X032616Y019214D01*
X032765Y019363D01*
X032826Y019510D01*
X032826Y019241D01*
X032862Y019153D01*
X033362Y018653D01*
X033430Y018585D01*
X033518Y018549D01*
X035113Y018549D01*
X035202Y018585D01*
X035415Y018799D01*
X035531Y018799D01*
X035616Y018714D01*
X035710Y018675D01*
X035655Y018698D02*
X035315Y018698D01*
X035514Y018540D02*
X032838Y018540D01*
X032846Y018698D02*
X033317Y018698D01*
X033158Y018857D02*
X032809Y018857D01*
X032714Y019015D02*
X033000Y019015D01*
X032854Y019174D02*
X032518Y019174D01*
X032734Y019332D02*
X032826Y019332D01*
X032818Y019491D02*
X032826Y019491D01*
X033066Y019289D02*
X033566Y018789D01*
X032772Y018381D02*
X035409Y018381D01*
X035368Y018223D02*
X032624Y018223D01*
X032665Y018064D02*
X035375Y018064D01*
X035430Y017906D02*
X032789Y017906D01*
X032846Y017747D02*
X035554Y017747D01*
X035591Y017589D02*
X032846Y017589D01*
X032793Y017430D02*
X035452Y017430D01*
X035387Y017272D02*
X032673Y017272D01*
X032615Y017113D02*
X035386Y017113D01*
X035429Y016955D02*
X032769Y016955D01*
X032835Y016796D02*
X035534Y016796D01*
X035675Y016638D02*
X032846Y016638D01*
X032813Y016479D02*
X035482Y016479D01*
X035407Y016321D02*
X032722Y016321D01*
X032497Y016162D02*
X035386Y016162D01*
X035408Y016004D02*
X032725Y016004D01*
X032814Y015845D02*
X035485Y015845D01*
X035682Y015687D02*
X032846Y015687D01*
X032833Y015528D02*
X035531Y015528D01*
X035427Y015370D02*
X032768Y015370D01*
X032608Y015211D02*
X035386Y015211D01*
X035666Y014914D02*
X035916Y015164D01*
X035666Y014914D02*
X031816Y014914D01*
X031566Y015164D01*
X031566Y027414D01*
X031316Y027664D01*
X029316Y027664D01*
X028691Y027664D01*
X028316Y027289D01*
X024941Y027289D01*
X024441Y027789D01*
X022566Y027789D01*
X020816Y027789D01*
X020191Y028414D01*
X020066Y028414D01*
X019566Y028914D01*
X019066Y028914D01*
X018066Y028914D02*
X015316Y028914D01*
X014816Y028414D01*
X014816Y026820D01*
X015094Y026782D02*
X017530Y026782D01*
X017529Y026785D02*
X017556Y026703D01*
X017595Y026625D01*
X017646Y026555D01*
X017707Y026494D01*
X017777Y026443D01*
X017836Y026414D01*
X017777Y026384D01*
X017707Y026333D01*
X017646Y026272D01*
X017595Y026202D01*
X017556Y026125D01*
X017529Y026042D01*
X017516Y025957D01*
X017516Y025934D01*
X018046Y025934D01*
X018046Y026364D01*
X018046Y026894D01*
X017516Y026894D01*
X017516Y026870D01*
X017529Y026785D01*
X017516Y026934D02*
X018046Y026934D01*
X018046Y026894D01*
X018086Y026894D01*
X018086Y026934D01*
X019046Y026934D01*
X019046Y026894D01*
X018616Y026894D01*
X018086Y026894D01*
X018086Y025934D01*
X018046Y025934D01*
X018046Y025894D01*
X017516Y025894D01*
X017516Y025870D01*
X017529Y025785D01*
X017556Y025703D01*
X017595Y025625D01*
X017646Y025555D01*
X017707Y025494D01*
X017777Y025443D01*
X017855Y025404D01*
X017937Y025377D01*
X018022Y025364D01*
X018046Y025364D01*
X018046Y025894D01*
X018086Y025894D01*
X018086Y025934D01*
X019046Y025934D01*
X019046Y026464D01*
X019046Y026894D01*
X019086Y026894D01*
X019086Y026934D01*
X019616Y026934D01*
X019616Y026957D01*
X019602Y027042D01*
X019575Y027125D01*
X019536Y027202D01*
X019485Y027272D01*
X019424Y027333D01*
X019354Y027384D01*
X019277Y027423D01*
X019271Y027425D01*
X019366Y027464D01*
X019515Y027613D01*
X019540Y027674D01*
X019966Y027674D01*
X020362Y027278D01*
X020430Y027210D01*
X020518Y027174D01*
X021716Y027174D01*
X021737Y027153D01*
X021805Y027085D01*
X021893Y027049D01*
X021972Y027049D01*
X021950Y027027D01*
X021886Y026872D01*
X021886Y026705D01*
X021950Y026551D01*
X022068Y026433D01*
X022222Y026369D01*
X022909Y026369D01*
X023064Y026433D01*
X023180Y026549D01*
X024341Y026549D01*
X024737Y026153D01*
X024805Y026085D01*
X024893Y026049D01*
X024972Y026049D01*
X024950Y026027D01*
X024886Y025872D01*
X024886Y025705D01*
X024950Y025551D01*
X025068Y025433D01*
X025222Y025369D01*
X025909Y025369D01*
X026064Y025433D01*
X026182Y025551D01*
X026246Y025705D01*
X026246Y025872D01*
X026182Y026027D01*
X026160Y026049D01*
X028488Y026049D01*
X028577Y026085D01*
X028863Y026372D01*
X028866Y026363D01*
X029016Y026214D01*
X029138Y026164D01*
X029016Y026113D01*
X028866Y025964D01*
X028786Y025769D01*
X028786Y025558D01*
X028866Y025363D01*
X029016Y025214D01*
X029138Y025164D01*
X029016Y025113D01*
X028866Y024964D01*
X028786Y024769D01*
X028786Y024558D01*
X028866Y024363D01*
X029016Y024214D01*
X029138Y024164D01*
X029016Y024113D01*
X028866Y023964D01*
X028786Y023769D01*
X028786Y023558D01*
X028866Y023363D01*
X029016Y023214D01*
X029138Y023164D01*
X029016Y023113D01*
X028866Y022964D01*
X028786Y022769D01*
X028786Y022558D01*
X028866Y022363D01*
X029016Y022214D01*
X029110Y022175D01*
X029105Y022173D01*
X029027Y022134D01*
X028957Y022083D01*
X028896Y022022D01*
X028845Y021952D01*
X028806Y021875D01*
X028779Y021792D01*
X028766Y021707D01*
X028766Y021684D01*
X029296Y021684D01*
X029296Y021644D01*
X028766Y021644D01*
X028766Y021620D01*
X028779Y021535D01*
X028806Y021453D01*
X028845Y021375D01*
X028896Y021305D01*
X028957Y021244D01*
X029027Y021193D01*
X029105Y021154D01*
X029110Y021152D01*
X029016Y021113D01*
X028866Y020964D01*
X028786Y020769D01*
X028786Y020558D01*
X028866Y020363D01*
X029016Y020214D01*
X029138Y020164D01*
X029016Y020113D01*
X028866Y019964D01*
X028786Y019769D01*
X028786Y019558D01*
X028866Y019363D01*
X029016Y019214D01*
X029138Y019164D01*
X029016Y019113D01*
X028866Y018964D01*
X028786Y018769D01*
X028786Y018558D01*
X028866Y018363D01*
X029016Y018214D01*
X029138Y018164D01*
X029016Y018113D01*
X028866Y017964D01*
X028786Y017769D01*
X028786Y017558D01*
X028866Y017363D01*
X029016Y017214D01*
X029138Y017164D01*
X029016Y017113D01*
X021206Y017113D01*
X021364Y016955D02*
X028863Y016955D01*
X028866Y016964D02*
X028786Y016769D01*
X028786Y016558D01*
X028866Y016363D01*
X029016Y016214D01*
X029138Y016164D01*
X029016Y016113D01*
X028866Y015964D01*
X028786Y015769D01*
X028786Y015558D01*
X028866Y015363D01*
X029016Y015214D01*
X029210Y015134D01*
X029421Y015134D01*
X029616Y015214D01*
X029765Y015363D01*
X029846Y015558D01*
X029846Y015769D01*
X029765Y015964D01*
X029616Y016113D01*
X029494Y016164D01*
X029616Y016214D01*
X029765Y016363D01*
X029846Y016558D01*
X029846Y016769D01*
X029765Y016964D01*
X029616Y017113D01*
X029494Y017164D01*
X029616Y017214D01*
X029765Y017363D01*
X029846Y017558D01*
X029846Y017769D01*
X029765Y017964D01*
X029616Y018113D01*
X029494Y018164D01*
X029616Y018214D01*
X029765Y018363D01*
X029846Y018558D01*
X029846Y018769D01*
X029765Y018964D01*
X029616Y019113D01*
X029494Y019164D01*
X029616Y019214D01*
X029765Y019363D01*
X029790Y019424D01*
X029841Y019424D01*
X030326Y018939D01*
X030326Y009654D01*
X030173Y009654D01*
X030122Y009777D01*
X030004Y009895D01*
X029849Y009959D01*
X029682Y009959D01*
X029528Y009895D01*
X029410Y009777D01*
X029346Y009622D01*
X029346Y009455D01*
X029410Y009301D01*
X029528Y009183D01*
X029682Y009119D01*
X029849Y009119D01*
X029982Y009174D01*
X030488Y009174D01*
X030566Y009206D01*
X030643Y009174D01*
X032235Y009174D01*
X032404Y009104D01*
X032627Y009104D01*
X032833Y009189D01*
X032990Y009346D01*
X033057Y009507D01*
X033078Y009441D01*
X033120Y009360D01*
X033173Y009286D01*
X033238Y009221D01*
X033312Y009168D01*
X033393Y009126D01*
X033480Y009098D01*
X033570Y009084D01*
X033596Y009084D01*
X033596Y009644D01*
X033636Y009644D01*
X033636Y009684D01*
X033596Y009684D01*
X033596Y010244D01*
X033570Y010244D01*
X033480Y010229D01*
X033393Y010201D01*
X033312Y010160D01*
X033238Y010106D01*
X033173Y010041D01*
X033120Y009968D01*
X033078Y009886D01*
X033057Y009821D01*
X032990Y009981D01*
X032833Y010138D01*
X032627Y010224D01*
X032404Y010224D01*
X032199Y010138D01*
X032041Y009981D01*
X031956Y009775D01*
X031956Y009654D01*
X030806Y009654D01*
X030806Y011834D01*
X030958Y011682D01*
X030958Y011399D01*
X031051Y011306D01*
X031580Y011306D01*
X031674Y011399D01*
X031674Y011928D01*
X031580Y012022D01*
X031297Y012022D01*
X031181Y012138D01*
X031181Y014584D01*
X031487Y014278D01*
X031555Y014210D01*
X031643Y014174D01*
X034966Y014174D01*
X035112Y014028D01*
X035180Y013960D01*
X035268Y013924D01*
X035441Y013924D01*
X035466Y013863D01*
X035616Y013714D01*
X035738Y013664D01*
X035616Y013613D01*
X035466Y013464D01*
X035386Y013269D01*
X035386Y013058D01*
X035466Y012863D01*
X035616Y012714D01*
X035738Y012664D01*
X035616Y012613D01*
X035466Y012464D01*
X035386Y012269D01*
X035386Y012058D01*
X035466Y011863D01*
X035616Y011714D01*
X035738Y011664D01*
X035616Y011613D01*
X035466Y011464D01*
X035386Y011269D01*
X035386Y011058D01*
X035466Y010863D01*
X035616Y010714D01*
X035738Y010664D01*
X035616Y010613D01*
X035466Y010464D01*
X035386Y010269D01*
X035386Y010058D01*
X035466Y009863D01*
X035616Y009714D01*
X035738Y009664D01*
X033636Y009664D01*
X033636Y009684D02*
X034196Y009684D01*
X034196Y009709D01*
X034181Y009799D01*
X034153Y009886D01*
X034112Y009968D01*
X034058Y010041D01*
X033994Y010106D01*
X033920Y010160D01*
X033838Y010201D01*
X033752Y010229D01*
X033661Y010244D01*
X033636Y010244D01*
X033636Y009684D01*
X033636Y009644D02*
X034196Y009644D01*
X034196Y009618D01*
X034181Y009528D01*
X034153Y009441D01*
X034112Y009360D01*
X034058Y009286D01*
X033994Y009221D01*
X033920Y009168D01*
X033838Y009126D01*
X033752Y009098D01*
X033661Y009084D01*
X033636Y009084D01*
X033636Y009644D01*
X033636Y009505D02*
X033596Y009505D01*
X033596Y009347D02*
X033636Y009347D01*
X033636Y009188D02*
X033596Y009188D01*
X033283Y009188D02*
X032831Y009188D01*
X032991Y009347D02*
X033129Y009347D01*
X033057Y009505D02*
X033056Y009505D01*
X033056Y009822D02*
X033057Y009822D01*
X032991Y009981D02*
X033129Y009981D01*
X033283Y010139D02*
X032831Y010139D01*
X032516Y009664D02*
X032266Y009414D01*
X030691Y009414D01*
X030566Y009539D01*
X030441Y009414D01*
X029891Y009414D01*
X029766Y009539D01*
X030076Y009822D02*
X030326Y009822D01*
X030326Y009664D02*
X030169Y009664D01*
X030566Y009539D02*
X030566Y019039D01*
X029941Y019664D01*
X029316Y019664D01*
X028786Y019649D02*
X026223Y019649D01*
X026246Y019705D02*
X026182Y019551D01*
X026064Y019433D01*
X025909Y019369D01*
X025222Y019369D01*
X025068Y019433D01*
X024950Y019551D01*
X024886Y019705D01*
X024886Y019872D01*
X024950Y020027D01*
X025068Y020145D01*
X025222Y020209D01*
X025909Y020209D01*
X026064Y020145D01*
X026182Y020027D01*
X026246Y019872D01*
X026246Y019705D01*
X026246Y019808D02*
X028802Y019808D01*
X028869Y019966D02*
X026207Y019966D01*
X026084Y020125D02*
X029044Y020125D01*
X028947Y020283D02*
X020931Y020283D01*
X020931Y020125D02*
X022020Y020125D01*
X022019Y020124D02*
X021970Y020075D01*
X021929Y020019D01*
X021898Y019958D01*
X021877Y019892D01*
X021866Y019823D01*
X021866Y019789D01*
X022566Y019789D01*
X022566Y019789D01*
X022566Y020229D01*
X022860Y020229D01*
X022929Y020218D01*
X022995Y020196D01*
X023056Y020165D01*
X023112Y020124D01*
X023161Y020075D01*
X023202Y020019D01*
X023234Y019958D01*
X023255Y019892D01*
X023266Y019823D01*
X023266Y019789D01*
X022566Y019789D01*
X022566Y019789D01*
X022566Y020229D01*
X022271Y020229D01*
X022203Y020218D01*
X022137Y020196D01*
X022075Y020165D01*
X022019Y020124D01*
X021902Y019966D02*
X020931Y019966D01*
X020931Y019808D02*
X021866Y019808D01*
X021866Y019789D02*
X021866Y019754D01*
X021877Y019686D01*
X021898Y019620D01*
X021929Y019558D01*
X021970Y019502D01*
X022019Y019453D01*
X022075Y019412D01*
X022137Y019381D01*
X022203Y019359D01*
X022271Y019349D01*
X022566Y019349D01*
X022860Y019349D01*
X022929Y019359D01*
X022995Y019381D01*
X023056Y019412D01*
X023112Y019453D01*
X023161Y019502D01*
X023202Y019558D01*
X023234Y019620D01*
X023255Y019686D01*
X023266Y019754D01*
X023266Y019789D01*
X022566Y019789D01*
X022566Y019789D01*
X022566Y019349D01*
X022566Y019789D01*
X022566Y019789D01*
X021866Y019789D01*
X021888Y019649D02*
X020931Y019649D01*
X020931Y019491D02*
X021981Y019491D01*
X022566Y019491D02*
X022566Y019491D01*
X022566Y019649D02*
X022566Y019649D01*
X022566Y019808D02*
X022566Y019808D01*
X022566Y019966D02*
X022566Y019966D01*
X022566Y020125D02*
X022566Y020125D01*
X022909Y020369D02*
X023064Y020433D01*
X023182Y020551D01*
X023246Y020705D01*
X023246Y020872D01*
X023182Y021027D01*
X023064Y021145D01*
X022909Y021209D01*
X022222Y021209D01*
X022068Y021145D01*
X021950Y021027D01*
X021886Y020872D01*
X021886Y020705D01*
X021950Y020551D01*
X022068Y020433D01*
X022222Y020369D01*
X022909Y020369D01*
X023073Y020442D02*
X025059Y020442D01*
X025068Y020433D02*
X025222Y020369D01*
X025909Y020369D01*
X026064Y020433D01*
X026182Y020551D01*
X026246Y020705D01*
X026246Y020872D01*
X026182Y021027D01*
X026064Y021145D01*
X025909Y021209D01*
X025222Y021209D01*
X025068Y021145D01*
X024950Y021027D01*
X024886Y020872D01*
X024886Y020705D01*
X024950Y020551D01*
X025068Y020433D01*
X024929Y020600D02*
X023202Y020600D01*
X023246Y020759D02*
X024886Y020759D01*
X024904Y020917D02*
X023227Y020917D01*
X023133Y021076D02*
X024999Y021076D01*
X025164Y021393D02*
X022967Y021393D01*
X022909Y021369D02*
X023064Y021433D01*
X023182Y021551D01*
X024950Y021551D01*
X025068Y021433D01*
X025222Y021369D01*
X025909Y021369D01*
X026064Y021433D01*
X026182Y021551D01*
X028777Y021551D01*
X028766Y021710D02*
X026246Y021710D01*
X026246Y021705D02*
X026246Y021872D01*
X026182Y022027D01*
X028901Y022027D01*
X028804Y021868D02*
X026246Y021868D01*
X026246Y021705D02*
X026182Y021551D01*
X025967Y021393D02*
X028837Y021393D01*
X028971Y021234D02*
X020931Y021234D01*
X020931Y021076D02*
X021999Y021076D01*
X021904Y020917D02*
X020931Y020917D01*
X020931Y020759D02*
X021886Y020759D01*
X021929Y020600D02*
X020931Y020600D01*
X020931Y020442D02*
X022059Y020442D01*
X022222Y021369D02*
X022909Y021369D01*
X023182Y021551D02*
X023246Y021705D01*
X023246Y021872D01*
X023182Y022027D01*
X024950Y022027D01*
X024886Y021872D01*
X024886Y021705D01*
X024950Y021551D01*
X024886Y021710D02*
X023246Y021710D01*
X023246Y021868D02*
X024886Y021868D01*
X024950Y022027D02*
X025068Y022145D01*
X025222Y022209D01*
X025909Y022209D01*
X026064Y022145D01*
X026182Y022027D01*
X025966Y022185D02*
X029086Y022185D01*
X028886Y022344D02*
X020931Y022344D01*
X020931Y022502D02*
X021998Y022502D01*
X021950Y022551D02*
X022068Y022433D01*
X022222Y022369D01*
X022909Y022369D01*
X023064Y022433D01*
X023182Y022551D01*
X023246Y022705D01*
X023246Y022872D01*
X023182Y023027D01*
X023064Y023145D01*
X022909Y023209D01*
X022222Y023209D01*
X022068Y023145D01*
X021950Y023027D01*
X021886Y022872D01*
X021886Y022705D01*
X021950Y022551D01*
X021904Y022661D02*
X020931Y022661D01*
X020931Y022819D02*
X021886Y022819D01*
X021929Y022978D02*
X020931Y022978D01*
X020931Y023136D02*
X022059Y023136D01*
X022222Y023369D02*
X022909Y023369D01*
X023064Y023433D01*
X023182Y023551D01*
X023246Y023705D01*
X023246Y023872D01*
X023182Y024027D01*
X023064Y024145D01*
X022909Y024209D01*
X022222Y024209D01*
X022068Y024145D01*
X021950Y024027D01*
X021886Y023872D01*
X021886Y023705D01*
X021950Y023551D01*
X022068Y023433D01*
X022222Y023369D01*
X022047Y023453D02*
X020931Y023453D01*
X020931Y023295D02*
X028935Y023295D01*
X028829Y023453D02*
X026084Y023453D01*
X026064Y023433D02*
X026182Y023551D01*
X026246Y023705D01*
X026246Y023872D01*
X026182Y024027D01*
X026064Y024145D01*
X025909Y024209D01*
X025222Y024209D01*
X025068Y024145D01*
X024950Y024027D01*
X024886Y023872D01*
X024886Y023705D01*
X024950Y023551D01*
X025068Y023433D01*
X025222Y023369D01*
X025909Y023369D01*
X026064Y023433D01*
X026207Y023612D02*
X028786Y023612D01*
X028786Y023770D02*
X026246Y023770D01*
X026222Y023929D02*
X028852Y023929D01*
X028990Y024087D02*
X026121Y024087D01*
X025995Y024404D02*
X028850Y024404D01*
X028786Y024563D02*
X026187Y024563D01*
X026182Y024551D02*
X026246Y024705D01*
X026246Y024872D01*
X026182Y025027D01*
X026064Y025145D01*
X025909Y025209D01*
X025222Y025209D01*
X025068Y025145D01*
X024950Y025027D01*
X024886Y024872D01*
X024886Y024705D01*
X024950Y024551D01*
X025068Y024433D01*
X025222Y024369D01*
X025909Y024369D01*
X026064Y024433D01*
X026182Y024551D01*
X026246Y024721D02*
X028786Y024721D01*
X028832Y024880D02*
X026243Y024880D01*
X026170Y025038D02*
X028941Y025038D01*
X029058Y025197D02*
X025938Y025197D01*
X026145Y025514D02*
X028804Y025514D01*
X028786Y025672D02*
X026232Y025672D01*
X026246Y025831D02*
X028811Y025831D01*
X028892Y025989D02*
X026197Y025989D01*
X024934Y025989D02*
X023217Y025989D01*
X023202Y026019D02*
X023161Y026075D01*
X023112Y026124D01*
X023056Y026165D01*
X022995Y026196D01*
X022929Y026218D01*
X022860Y026229D01*
X022566Y026229D01*
X022566Y025789D01*
X022566Y025789D01*
X023266Y025789D01*
X023266Y025823D01*
X023255Y025892D01*
X023234Y025958D01*
X023202Y026019D01*
X023080Y026148D02*
X024742Y026148D01*
X024584Y026306D02*
X020931Y026306D01*
X020931Y026148D02*
X022051Y026148D01*
X022075Y026165D02*
X022019Y026124D01*
X021970Y026075D01*
X021929Y026019D01*
X021898Y025958D01*
X021877Y025892D01*
X021866Y025823D01*
X021866Y025789D01*
X022566Y025789D01*
X022566Y025789D01*
X022566Y026229D01*
X022271Y026229D01*
X022203Y026218D01*
X022137Y026196D01*
X022075Y026165D01*
X021914Y025989D02*
X020931Y025989D01*
X020931Y025831D02*
X021867Y025831D01*
X021866Y025789D02*
X021866Y025754D01*
X021877Y025686D01*
X021898Y025620D01*
X021929Y025558D01*
X021970Y025502D01*
X022019Y025453D01*
X022075Y025412D01*
X022137Y025381D01*
X022203Y025359D01*
X022271Y025349D01*
X022566Y025349D01*
X022860Y025349D01*
X022929Y025359D01*
X022995Y025381D01*
X023056Y025412D01*
X023112Y025453D01*
X023161Y025502D01*
X023202Y025558D01*
X023234Y025620D01*
X023255Y025686D01*
X023266Y025754D01*
X023266Y025789D01*
X022566Y025789D01*
X022566Y025789D01*
X022566Y025349D01*
X022566Y025789D01*
X022566Y025789D01*
X021866Y025789D01*
X021881Y025672D02*
X020931Y025672D01*
X020931Y025514D02*
X021962Y025514D01*
X022230Y025355D02*
X020931Y025355D01*
X020931Y025197D02*
X022193Y025197D01*
X022222Y025209D02*
X022068Y025145D01*
X021950Y025027D01*
X021886Y024872D01*
X021886Y024705D01*
X021950Y024551D01*
X022068Y024433D01*
X022222Y024369D01*
X022909Y024369D01*
X023064Y024433D01*
X023182Y024551D01*
X023246Y024705D01*
X023246Y024872D01*
X023182Y025027D01*
X023064Y025145D01*
X022909Y025209D01*
X022222Y025209D01*
X021961Y025038D02*
X020931Y025038D01*
X020931Y024880D02*
X021889Y024880D01*
X021886Y024721D02*
X020931Y024721D01*
X020931Y024563D02*
X021945Y024563D01*
X022136Y024404D02*
X020931Y024404D01*
X020931Y024246D02*
X028984Y024246D01*
X029494Y024164D02*
X029616Y024214D01*
X029765Y024363D01*
X029846Y024558D01*
X029846Y024769D01*
X029765Y024964D01*
X029616Y025113D01*
X029494Y025164D01*
X029616Y025214D01*
X029765Y025363D01*
X029846Y025558D01*
X029846Y025769D01*
X029765Y025964D01*
X029616Y026113D01*
X029494Y026164D01*
X029616Y026214D01*
X029765Y026363D01*
X029790Y026424D01*
X030841Y026424D01*
X031076Y026189D01*
X031076Y020493D01*
X030702Y020867D01*
X030613Y020904D01*
X029790Y020904D01*
X029765Y020964D01*
X029616Y021113D01*
X029521Y021152D01*
X029527Y021154D01*
X029604Y021193D01*
X029674Y021244D01*
X029735Y021305D01*
X029786Y021375D01*
X029825Y021453D01*
X029852Y021535D01*
X029866Y021620D01*
X029866Y021644D01*
X029336Y021644D01*
X029336Y021684D01*
X029866Y021684D01*
X029866Y021707D01*
X029852Y021792D01*
X029825Y021875D01*
X029786Y021952D01*
X029735Y022022D01*
X029674Y022083D01*
X029604Y022134D01*
X029527Y022173D01*
X029521Y022175D01*
X029616Y022214D01*
X029765Y022363D01*
X029846Y022558D01*
X029846Y022769D01*
X029765Y022964D01*
X029616Y023113D01*
X029494Y023164D01*
X029616Y023214D01*
X029765Y023363D01*
X029846Y023558D01*
X029846Y023769D01*
X029765Y023964D01*
X029616Y024113D01*
X029494Y024164D01*
X029642Y024087D02*
X031076Y024087D01*
X031076Y023929D02*
X029780Y023929D01*
X029845Y023770D02*
X031076Y023770D01*
X031076Y023612D02*
X029846Y023612D01*
X029802Y023453D02*
X031076Y023453D01*
X031076Y023295D02*
X029696Y023295D01*
X029560Y023136D02*
X031076Y023136D01*
X031076Y022978D02*
X029751Y022978D01*
X029825Y022819D02*
X031076Y022819D01*
X031076Y022661D02*
X029846Y022661D01*
X029823Y022502D02*
X031076Y022502D01*
X031076Y022344D02*
X029745Y022344D01*
X029546Y022185D02*
X031076Y022185D01*
X031076Y022027D02*
X029731Y022027D01*
X029828Y021868D02*
X031076Y021868D01*
X031076Y021710D02*
X029865Y021710D01*
X029855Y021551D02*
X031076Y021551D01*
X031076Y021393D02*
X029795Y021393D01*
X029660Y021234D02*
X031076Y021234D01*
X031076Y021076D02*
X029653Y021076D01*
X029784Y020917D02*
X031076Y020917D01*
X031076Y020759D02*
X030810Y020759D01*
X030969Y020600D02*
X031076Y020600D01*
X030941Y020289D02*
X030941Y012039D01*
X031316Y011664D01*
X031674Y011724D02*
X035606Y011724D01*
X035568Y011566D02*
X031674Y011566D01*
X031674Y011407D02*
X035443Y011407D01*
X035386Y011249D02*
X030806Y011249D01*
X030806Y011407D02*
X030958Y011407D01*
X030958Y011566D02*
X030806Y011566D01*
X030806Y011724D02*
X030916Y011724D01*
X031278Y012041D02*
X035393Y012041D01*
X035386Y012200D02*
X031181Y012200D01*
X031181Y012358D02*
X035423Y012358D01*
X035519Y012517D02*
X031181Y012517D01*
X031181Y012675D02*
X035710Y012675D01*
X035496Y012834D02*
X031181Y012834D01*
X031181Y012992D02*
X035413Y012992D01*
X035386Y013151D02*
X031181Y013151D01*
X031181Y013309D02*
X035402Y013309D01*
X035470Y013468D02*
X031181Y013468D01*
X031181Y013626D02*
X035647Y013626D01*
X035545Y013785D02*
X031181Y013785D01*
X031181Y013943D02*
X035221Y013943D01*
X035316Y014164D02*
X035916Y014164D01*
X035316Y014164D02*
X035066Y014414D01*
X031691Y014414D01*
X031316Y014789D01*
X031316Y026289D01*
X030941Y026664D01*
X029316Y026664D01*
X028816Y026664D01*
X028441Y026289D01*
X024941Y026289D01*
X024441Y026789D01*
X022566Y026789D01*
X023096Y026465D02*
X024425Y026465D01*
X024886Y025831D02*
X023265Y025831D01*
X023251Y025672D02*
X024899Y025672D01*
X024987Y025514D02*
X023170Y025514D01*
X022902Y025355D02*
X028875Y025355D01*
X029573Y025197D02*
X031076Y025197D01*
X031076Y025355D02*
X029757Y025355D01*
X029827Y025514D02*
X031076Y025514D01*
X031076Y025672D02*
X029846Y025672D01*
X029820Y025831D02*
X031076Y025831D01*
X031076Y025989D02*
X029740Y025989D01*
X029532Y026148D02*
X031076Y026148D01*
X030959Y026306D02*
X029708Y026306D01*
X029099Y026148D02*
X028639Y026148D01*
X028798Y026306D02*
X028924Y026306D01*
X029691Y025038D02*
X031076Y025038D01*
X031076Y024880D02*
X029800Y024880D01*
X029846Y024721D02*
X031076Y024721D01*
X031076Y024563D02*
X029846Y024563D01*
X029782Y024404D02*
X031076Y024404D01*
X031076Y024246D02*
X029647Y024246D01*
X029072Y023136D02*
X026072Y023136D01*
X026064Y023145D02*
X025909Y023209D01*
X025222Y023209D01*
X025068Y023145D01*
X024950Y023027D01*
X024886Y022872D01*
X024886Y022705D01*
X024950Y022551D01*
X025068Y022433D01*
X025222Y022369D01*
X025909Y022369D01*
X026064Y022433D01*
X026182Y022551D01*
X026246Y022705D01*
X026246Y022872D01*
X026182Y023027D01*
X026064Y023145D01*
X026202Y022978D02*
X028880Y022978D01*
X028806Y022819D02*
X026246Y022819D01*
X026227Y022661D02*
X028786Y022661D01*
X028809Y022502D02*
X026133Y022502D01*
X025166Y022185D02*
X022966Y022185D01*
X022909Y022209D02*
X023064Y022145D01*
X023182Y022027D01*
X022909Y022209D02*
X022222Y022209D01*
X022068Y022145D01*
X021950Y022027D01*
X020931Y022027D01*
X020931Y022185D02*
X022166Y022185D01*
X021950Y022027D02*
X021886Y021872D01*
X021886Y021705D01*
X021950Y021551D01*
X022068Y021433D01*
X022222Y021369D01*
X022164Y021393D02*
X020931Y021393D01*
X020931Y021551D02*
X021950Y021551D01*
X021886Y021710D02*
X020931Y021710D01*
X020931Y021868D02*
X021886Y021868D01*
X023133Y022502D02*
X024998Y022502D01*
X024904Y022661D02*
X023227Y022661D01*
X023246Y022819D02*
X024886Y022819D01*
X024929Y022978D02*
X023202Y022978D01*
X023072Y023136D02*
X025059Y023136D01*
X025047Y023453D02*
X023084Y023453D01*
X023207Y023612D02*
X024924Y023612D01*
X024886Y023770D02*
X023246Y023770D01*
X023222Y023929D02*
X024909Y023929D01*
X025010Y024087D02*
X023121Y024087D01*
X022995Y024404D02*
X025136Y024404D01*
X024945Y024563D02*
X023187Y024563D01*
X023246Y024721D02*
X024886Y024721D01*
X024889Y024880D02*
X023243Y024880D01*
X023170Y025038D02*
X024961Y025038D01*
X025193Y025197D02*
X022938Y025197D01*
X022566Y025355D02*
X022566Y025355D01*
X022566Y025514D02*
X022566Y025514D01*
X022566Y025672D02*
X022566Y025672D01*
X022566Y025831D02*
X022566Y025831D01*
X022566Y025989D02*
X022566Y025989D01*
X022566Y026148D02*
X022566Y026148D01*
X022036Y026465D02*
X020989Y026465D01*
X021049Y026623D02*
X021920Y026623D01*
X021886Y026782D02*
X021049Y026782D01*
X021049Y026940D02*
X021914Y026940D01*
X021791Y027099D02*
X021003Y027099D01*
X020691Y026789D02*
X020691Y018789D01*
X019941Y018039D01*
X016691Y018039D01*
X016441Y018289D01*
X015941Y018289D01*
X015583Y018223D02*
X010346Y018223D01*
X010188Y018381D02*
X015583Y018381D01*
X015583Y018540D02*
X010181Y018540D01*
X010181Y018698D02*
X020261Y018698D01*
X020102Y018540D02*
X016299Y018540D01*
X016688Y018381D02*
X019944Y018381D01*
X020306Y018064D02*
X028967Y018064D01*
X029007Y018223D02*
X020464Y018223D01*
X020623Y018381D02*
X028859Y018381D01*
X028793Y018540D02*
X020781Y018540D01*
X020913Y018698D02*
X028786Y018698D01*
X028822Y018857D02*
X020931Y018857D01*
X020931Y019015D02*
X028918Y019015D01*
X029114Y019174D02*
X020931Y019174D01*
X020931Y019332D02*
X028898Y019332D01*
X028814Y019491D02*
X026122Y019491D01*
X025010Y019491D02*
X023150Y019491D01*
X023243Y019649D02*
X024909Y019649D01*
X024886Y019808D02*
X023266Y019808D01*
X023229Y019966D02*
X024925Y019966D01*
X025048Y020125D02*
X023112Y020125D01*
X020451Y020125D02*
X010866Y020125D01*
X011025Y020283D02*
X020451Y020283D01*
X020451Y020442D02*
X011183Y020442D01*
X011342Y020600D02*
X020451Y020600D01*
X020451Y020759D02*
X011500Y020759D01*
X011659Y020917D02*
X020451Y020917D01*
X020451Y021076D02*
X012442Y021076D01*
X012601Y021234D02*
X013401Y021234D01*
X013517Y021119D02*
X013271Y021365D01*
X013271Y021713D01*
X013517Y021959D01*
X013865Y021959D01*
X014111Y021713D01*
X014111Y021365D01*
X013865Y021119D01*
X013517Y021119D01*
X013271Y021393D02*
X012759Y021393D01*
X012918Y021551D02*
X013271Y021551D01*
X013271Y021710D02*
X013076Y021710D01*
X013235Y021868D02*
X013426Y021868D01*
X013393Y022027D02*
X014576Y022027D01*
X014576Y022185D02*
X013552Y022185D01*
X013710Y022344D02*
X014576Y022344D01*
X014576Y022502D02*
X013869Y022502D01*
X014027Y022661D02*
X014576Y022661D01*
X014576Y022819D02*
X014186Y022819D01*
X014344Y022978D02*
X014576Y022978D01*
X014576Y023136D02*
X014503Y023136D01*
X014141Y023453D02*
X012994Y023453D01*
X012987Y023468D02*
X012933Y023541D01*
X012869Y023606D01*
X012795Y023660D01*
X012713Y023701D01*
X012627Y023729D01*
X012536Y023744D01*
X012511Y023744D01*
X012511Y023184D01*
X012471Y023184D01*
X012471Y023744D01*
X012445Y023744D01*
X012355Y023729D01*
X012268Y023701D01*
X012187Y023660D01*
X012113Y023606D01*
X012048Y023541D01*
X011995Y023468D01*
X011953Y023386D01*
X011932Y023321D01*
X011865Y023481D01*
X011708Y023638D01*
X011681Y023650D01*
X011681Y024771D01*
X011763Y024853D01*
X011821Y024993D01*
X011821Y025584D01*
X011763Y025724D01*
X011656Y025831D01*
X011556Y025872D01*
X011556Y026420D01*
X011566Y026430D01*
X011631Y026365D01*
X012000Y026365D01*
X012066Y026430D01*
X012076Y026420D01*
X012076Y024491D01*
X012112Y024403D01*
X012612Y023903D01*
X012612Y023903D01*
X012680Y023835D01*
X012768Y023799D01*
X013212Y023799D01*
X013392Y023619D01*
X013740Y023619D01*
X013986Y023865D01*
X013986Y024213D01*
X013740Y024459D01*
X013392Y024459D01*
X013212Y024279D01*
X012915Y024279D01*
X012556Y024638D01*
X012556Y026420D01*
X012566Y026430D01*
X012576Y026420D01*
X012576Y025366D01*
X012612Y025278D01*
X012862Y025028D01*
X012930Y024960D01*
X013018Y024924D01*
X013212Y024924D01*
X013392Y024744D01*
X013740Y024744D01*
X013986Y024990D01*
X013986Y025338D01*
X013740Y025584D01*
X013392Y025584D01*
X013212Y025404D01*
X013165Y025404D01*
X013056Y025513D01*
X013056Y026420D01*
X013066Y026430D01*
X013131Y026365D01*
X013500Y026365D01*
X013566Y026430D01*
X013631Y026365D01*
X014000Y026365D01*
X014066Y026430D01*
X014131Y026365D01*
X014500Y026365D01*
X014566Y026430D01*
X014631Y026365D01*
X015000Y026365D01*
X015094Y026459D01*
X015094Y027182D01*
X015056Y027220D01*
X015056Y028314D01*
X015415Y028674D01*
X017591Y028674D01*
X017616Y028613D01*
X017766Y028464D01*
X017888Y028414D01*
X017766Y028363D01*
X017616Y028214D01*
X017536Y028019D01*
X017536Y027808D01*
X017616Y027613D01*
X017766Y027464D01*
X017860Y027425D01*
X017855Y027423D01*
X017777Y027384D01*
X017707Y027333D01*
X017646Y027272D01*
X017595Y027202D01*
X017556Y027125D01*
X017529Y027042D01*
X017516Y026957D01*
X017516Y026934D01*
X017516Y026940D02*
X016186Y026940D01*
X016115Y026869D02*
X016361Y027115D01*
X016361Y027463D01*
X016115Y027709D01*
X015767Y027709D01*
X015521Y027463D01*
X015521Y027115D01*
X015767Y026869D01*
X016115Y026869D01*
X015958Y026623D02*
X015094Y026623D01*
X015094Y026465D02*
X015902Y026465D01*
X015744Y026306D02*
X013056Y026306D01*
X013056Y026148D02*
X015585Y026148D01*
X015427Y025989D02*
X013056Y025989D01*
X013056Y025831D02*
X015268Y025831D01*
X015110Y025672D02*
X013056Y025672D01*
X013056Y025514D02*
X013322Y025514D01*
X013566Y025164D02*
X013066Y025164D01*
X012816Y025414D01*
X012816Y026820D01*
X012316Y026820D02*
X012316Y024539D01*
X012816Y024039D01*
X013566Y024039D01*
X013891Y023770D02*
X014458Y023770D01*
X014576Y023929D02*
X013986Y023929D01*
X013986Y024087D02*
X014576Y024087D01*
X014576Y024246D02*
X013953Y024246D01*
X013794Y024404D02*
X014576Y024404D01*
X014576Y024563D02*
X012631Y024563D01*
X012556Y024721D02*
X014576Y024721D01*
X014576Y024880D02*
X013876Y024880D01*
X013986Y025038D02*
X014576Y025038D01*
X014634Y025197D02*
X013986Y025197D01*
X013968Y025355D02*
X014793Y025355D01*
X014951Y025514D02*
X013810Y025514D01*
X013256Y024880D02*
X012556Y024880D01*
X012556Y025038D02*
X012852Y025038D01*
X012693Y025197D02*
X012556Y025197D01*
X012556Y025355D02*
X012580Y025355D01*
X012576Y025514D02*
X012556Y025514D01*
X012556Y025672D02*
X012576Y025672D01*
X012576Y025831D02*
X012556Y025831D01*
X012556Y025989D02*
X012576Y025989D01*
X012576Y026148D02*
X012556Y026148D01*
X012556Y026306D02*
X012576Y026306D01*
X012076Y026306D02*
X011556Y026306D01*
X011556Y026148D02*
X012076Y026148D01*
X012076Y025989D02*
X011556Y025989D01*
X011656Y025831D02*
X012076Y025831D01*
X012076Y025672D02*
X011784Y025672D01*
X011821Y025514D02*
X012076Y025514D01*
X012076Y025355D02*
X011821Y025355D01*
X011821Y025197D02*
X012076Y025197D01*
X012076Y025038D02*
X011821Y025038D01*
X011774Y024880D02*
X012076Y024880D01*
X012076Y024721D02*
X011681Y024721D01*
X011681Y024563D02*
X012076Y024563D01*
X012112Y024404D02*
X011681Y024404D01*
X011681Y024246D02*
X012269Y024246D01*
X012428Y024087D02*
X011681Y024087D01*
X011681Y023929D02*
X012586Y023929D01*
X012511Y023612D02*
X012471Y023612D01*
X012471Y023453D02*
X012511Y023453D01*
X012511Y023295D02*
X012471Y023295D01*
X012511Y023184D02*
X013071Y023184D01*
X013071Y023209D01*
X013056Y023299D01*
X013028Y023386D01*
X012987Y023468D01*
X013057Y023295D02*
X013982Y023295D01*
X013824Y023136D02*
X013071Y023136D01*
X013071Y023144D02*
X012511Y023144D01*
X012511Y023184D01*
X012491Y023164D02*
X012441Y023114D01*
X012441Y022539D01*
X012191Y022289D01*
X008566Y022289D01*
X007316Y022289D01*
X006816Y021789D01*
X006816Y015789D01*
X007191Y015414D01*
X007816Y015414D01*
X007816Y014914D01*
X008691Y014039D01*
X011816Y014039D01*
X011318Y013626D02*
X017639Y013626D01*
X017797Y013468D02*
X011428Y013468D01*
X011431Y013461D02*
X011394Y013550D01*
X011144Y013800D01*
X011077Y013867D01*
X010988Y013904D01*
X008040Y013904D01*
X007299Y014645D01*
X007299Y014928D01*
X007205Y015022D01*
X006676Y015022D01*
X006583Y014928D01*
X006583Y014399D01*
X006676Y014306D01*
X006959Y014306D01*
X007805Y013460D01*
X007893Y013424D01*
X010841Y013424D01*
X010951Y013314D01*
X010951Y011866D01*
X010987Y011778D01*
X011055Y011710D01*
X011430Y011335D01*
X011518Y011299D01*
X011840Y011299D01*
X011825Y011278D01*
X011792Y011214D01*
X011770Y011146D01*
X011759Y011075D01*
X011759Y011047D01*
X012207Y011047D01*
X012207Y011030D01*
X011759Y011030D01*
X011759Y011003D01*
X011770Y010932D01*
X009845Y010932D01*
X009853Y010952D02*
X009853Y011126D01*
X009786Y011286D01*
X009696Y011377D01*
X009696Y011851D01*
X009806Y011961D01*
X009806Y012367D01*
X009519Y012654D01*
X009113Y012654D01*
X008826Y012367D01*
X008826Y011961D01*
X009113Y011674D01*
X009136Y011674D01*
X009136Y011377D01*
X009045Y011286D01*
X009007Y011194D01*
X008135Y011194D01*
X008032Y011151D01*
X007953Y011072D01*
X007733Y010852D01*
X007691Y010749D01*
X007691Y010319D01*
X007581Y010209D01*
X007468Y010321D01*
X007288Y010396D01*
X007093Y010396D01*
X006913Y010321D01*
X006775Y010183D01*
X006701Y010003D01*
X006701Y009808D01*
X006775Y009628D01*
X006913Y009490D01*
X007082Y009421D01*
X007071Y009419D01*
X006995Y009394D01*
X006923Y009358D01*
X006859Y009311D01*
X006802Y009254D01*
X006755Y009189D01*
X006718Y009117D01*
X006693Y009041D01*
X006681Y008962D01*
X006681Y008932D01*
X007181Y008932D01*
X007181Y008912D01*
X006681Y008912D01*
X006681Y008881D01*
X006693Y008802D01*
X006718Y008726D01*
X006755Y008654D01*
X006802Y008589D01*
X006859Y008533D01*
X006923Y008485D01*
X006995Y008449D01*
X007071Y008424D01*
X007151Y008412D01*
X007181Y008412D01*
X007181Y008912D01*
X007201Y008912D01*
X007201Y008412D01*
X007231Y008412D01*
X007310Y008424D01*
X007387Y008449D01*
X007458Y008485D01*
X007523Y008533D01*
X007580Y008589D01*
X007592Y008607D01*
X007693Y008506D01*
X007873Y008432D01*
X008068Y008432D01*
X008248Y008506D01*
X008386Y008644D01*
X008411Y008703D01*
X008411Y007608D01*
X008453Y007505D01*
X008703Y007255D01*
X008782Y007176D01*
X008885Y007134D01*
X008903Y007134D01*
X009113Y006924D01*
X009519Y006924D01*
X009806Y007211D01*
X009806Y007617D01*
X009519Y007904D01*
X009113Y007904D01*
X008980Y007771D01*
X008971Y007780D01*
X008971Y008316D01*
X009113Y008174D01*
X009519Y008174D01*
X009806Y008461D01*
X009806Y008867D01*
X009519Y009154D01*
X009113Y009154D01*
X009096Y009137D01*
X009096Y009594D01*
X009081Y009630D01*
X009168Y009543D01*
X009329Y009476D01*
X009503Y009476D01*
X009663Y009543D01*
X009786Y009666D01*
X009853Y009827D01*
X009853Y010001D01*
X009786Y010161D01*
X009663Y010284D01*
X009503Y010351D01*
X009329Y010351D01*
X009168Y010284D01*
X009045Y010161D01*
X008979Y010001D01*
X008979Y009827D01*
X009017Y009733D01*
X008974Y009776D01*
X008607Y010143D01*
X008504Y010186D01*
X008384Y010186D01*
X008251Y010319D01*
X008251Y010578D01*
X008307Y010634D01*
X009251Y010634D01*
X009329Y010601D01*
X009503Y010601D01*
X009663Y010668D01*
X009786Y010791D01*
X009853Y010952D01*
X009853Y011090D02*
X011761Y011090D01*
X011770Y010932D02*
X011792Y010863D01*
X011825Y010799D01*
X011867Y010741D01*
X011918Y010690D01*
X011976Y010648D01*
X012040Y010615D01*
X012109Y010593D01*
X012180Y010581D01*
X012207Y010581D01*
X012207Y011030D01*
X012224Y011030D01*
X012224Y010581D01*
X012252Y010581D01*
X012323Y010593D01*
X012391Y010615D01*
X012455Y010648D01*
X012514Y010690D01*
X012564Y010741D01*
X012607Y010799D01*
X012639Y010863D01*
X012662Y010932D01*
X013480Y010932D01*
X013450Y010902D02*
X013386Y010747D01*
X013386Y010580D01*
X013450Y010426D01*
X013568Y010308D01*
X013722Y010244D01*
X014409Y010244D01*
X014564Y010308D01*
X014682Y010426D01*
X014746Y010580D01*
X014746Y010747D01*
X014682Y010902D01*
X014564Y011020D01*
X014409Y011084D01*
X013722Y011084D01*
X013568Y011020D01*
X013450Y010902D01*
X013397Y010773D02*
X012588Y010773D01*
X012662Y010932D02*
X012673Y011003D01*
X012673Y011030D01*
X012224Y011030D01*
X012224Y011047D01*
X012673Y011047D01*
X012673Y011075D01*
X012662Y011146D01*
X012639Y011214D01*
X012607Y011278D01*
X012592Y011299D01*
X012708Y011299D01*
X012708Y011149D01*
X012801Y011056D01*
X013330Y011056D01*
X013424Y011149D01*
X013424Y011488D01*
X013450Y011426D01*
X013568Y011308D01*
X013722Y011244D01*
X014409Y011244D01*
X014564Y011308D01*
X014682Y011426D01*
X014746Y011580D01*
X014746Y011747D01*
X014682Y011902D01*
X014564Y012020D01*
X014409Y012084D01*
X013722Y012084D01*
X013568Y012020D01*
X013450Y011902D01*
X013386Y011747D01*
X013386Y011716D01*
X013330Y011772D01*
X012880Y011772D01*
X012863Y011779D01*
X012624Y011779D01*
X012806Y011961D01*
X012806Y012367D01*
X012519Y012654D01*
X012113Y012654D01*
X011826Y012367D01*
X011826Y011961D01*
X012008Y011779D01*
X011665Y011779D01*
X011431Y012013D01*
X011431Y013461D01*
X011431Y013309D02*
X017956Y013309D01*
X018191Y013414D02*
X017441Y014164D01*
X017441Y014664D01*
X009191Y014664D01*
X008816Y015039D01*
X008816Y015414D01*
X008427Y015053D02*
X008233Y015053D01*
X008074Y014894D02*
X008586Y014894D01*
X008779Y014736D02*
X007299Y014736D01*
X007299Y014894D02*
X007557Y014894D01*
X007399Y015053D02*
X005111Y015053D01*
X005111Y015211D02*
X007266Y015211D01*
X007266Y015370D02*
X005111Y015370D01*
X005111Y015528D02*
X007266Y015528D01*
X007311Y015687D02*
X005111Y015687D01*
X005111Y015845D02*
X007469Y015845D01*
X007476Y016004D02*
X005111Y016004D01*
X005111Y016162D02*
X007318Y016162D01*
X007286Y016321D02*
X005111Y016321D01*
X005111Y016479D02*
X007286Y016479D01*
X007290Y016638D02*
X005111Y016638D01*
X005111Y016796D02*
X007449Y016796D01*
X008183Y016796D02*
X008449Y016796D01*
X009183Y016796D02*
X009449Y016796D01*
X010183Y016796D02*
X010451Y016796D01*
X010451Y016638D02*
X010341Y016638D01*
X010346Y016479D02*
X010451Y016479D01*
X010451Y016321D02*
X010346Y016321D01*
X010314Y016162D02*
X010451Y016162D01*
X010451Y016004D02*
X010155Y016004D01*
X010134Y015845D02*
X010408Y015845D01*
X010691Y015789D02*
X010691Y017539D01*
X009941Y018289D01*
X009941Y019539D01*
X011566Y021164D01*
X012191Y021164D01*
X014816Y023789D01*
X014816Y021914D01*
X015191Y021539D01*
X016691Y021539D01*
X017111Y021551D02*
X018137Y021551D01*
X018143Y021549D02*
X018212Y021549D01*
X018392Y021369D01*
X018740Y021369D01*
X018986Y021615D01*
X018986Y021963D01*
X018740Y022209D01*
X018392Y022209D01*
X018251Y022068D01*
X018056Y022263D01*
X018056Y023461D01*
X018020Y023549D01*
X018212Y023549D01*
X018392Y023369D01*
X018740Y023369D01*
X018986Y023615D01*
X018986Y023963D01*
X018740Y024209D01*
X018392Y024209D01*
X018212Y024029D01*
X018165Y024029D01*
X018056Y024138D01*
X018056Y024586D01*
X018019Y024675D01*
X017952Y024742D01*
X017327Y025367D01*
X017238Y025404D01*
X016920Y025404D01*
X016740Y025584D01*
X016392Y025584D01*
X016146Y025338D01*
X016146Y024990D01*
X016392Y024744D01*
X016740Y024744D01*
X016920Y024924D01*
X017091Y024924D01*
X017576Y024439D01*
X017576Y023993D01*
X017327Y024242D01*
X017238Y024279D01*
X016920Y024279D01*
X016740Y024459D01*
X016392Y024459D01*
X016146Y024213D01*
X016146Y023865D01*
X016392Y023619D01*
X016740Y023619D01*
X016920Y023799D01*
X017091Y023799D01*
X017576Y023314D01*
X017576Y022116D01*
X017612Y022028D01*
X017987Y021653D01*
X018055Y021585D01*
X018143Y021549D01*
X018191Y021789D02*
X018566Y021789D01*
X018191Y021789D02*
X017816Y022164D01*
X017816Y023414D01*
X017191Y024039D01*
X016566Y024039D01*
X016891Y023770D02*
X017120Y023770D01*
X017278Y023612D02*
X015056Y023612D01*
X015056Y023770D02*
X016240Y023770D01*
X016146Y023929D02*
X015056Y023929D01*
X015056Y024087D02*
X016146Y024087D01*
X016179Y024246D02*
X015056Y024246D01*
X015056Y024404D02*
X016337Y024404D01*
X016794Y024404D02*
X017576Y024404D01*
X017576Y024246D02*
X017318Y024246D01*
X017482Y024087D02*
X017576Y024087D01*
X017816Y024039D02*
X018066Y023789D01*
X018566Y023789D01*
X018861Y024087D02*
X019270Y024087D01*
X019392Y024209D02*
X019146Y023963D01*
X019146Y023615D01*
X019392Y023369D01*
X019740Y023369D01*
X019986Y023615D01*
X019986Y023963D01*
X019740Y024209D01*
X019392Y024209D01*
X019146Y023929D02*
X018986Y023929D01*
X018986Y023770D02*
X019146Y023770D01*
X019149Y023612D02*
X018983Y023612D01*
X018824Y023453D02*
X019307Y023453D01*
X019824Y023453D02*
X020451Y023453D01*
X020451Y023295D02*
X018056Y023295D01*
X018056Y023453D02*
X018307Y023453D01*
X018056Y023136D02*
X020451Y023136D01*
X020451Y022978D02*
X018056Y022978D01*
X018056Y022819D02*
X020451Y022819D01*
X020451Y022661D02*
X018056Y022661D01*
X018056Y022502D02*
X020451Y022502D01*
X020451Y022344D02*
X018056Y022344D01*
X018134Y022185D02*
X018368Y022185D01*
X018763Y022185D02*
X019368Y022185D01*
X019392Y022209D02*
X019146Y021963D01*
X019146Y021615D01*
X019392Y021369D01*
X019740Y021369D01*
X019986Y021615D01*
X019986Y021963D01*
X019740Y022209D01*
X019392Y022209D01*
X019210Y022027D02*
X018922Y022027D01*
X018986Y021868D02*
X019146Y021868D01*
X019146Y021710D02*
X018986Y021710D01*
X018922Y021551D02*
X019209Y021551D01*
X019368Y021393D02*
X018764Y021393D01*
X018368Y021393D02*
X017111Y021393D01*
X016980Y021234D02*
X020451Y021234D01*
X020451Y021393D02*
X019764Y021393D01*
X019922Y021551D02*
X020451Y021551D01*
X020451Y021710D02*
X019986Y021710D01*
X019986Y021868D02*
X020451Y021868D01*
X020451Y022027D02*
X019922Y022027D01*
X019763Y022185D02*
X020451Y022185D01*
X020451Y023612D02*
X019983Y023612D01*
X019986Y023770D02*
X020451Y023770D01*
X020451Y023929D02*
X019986Y023929D01*
X019861Y024087D02*
X020451Y024087D01*
X020451Y024246D02*
X018056Y024246D01*
X018056Y024404D02*
X020451Y024404D01*
X020451Y024563D02*
X018056Y024563D01*
X017973Y024721D02*
X020451Y024721D01*
X020451Y024880D02*
X017814Y024880D01*
X017656Y025038D02*
X020451Y025038D01*
X020451Y025197D02*
X017497Y025197D01*
X017339Y025355D02*
X020451Y025355D01*
X020451Y025514D02*
X019444Y025514D01*
X019424Y025494D02*
X019485Y025555D01*
X019536Y025625D01*
X019575Y025703D01*
X019602Y025785D01*
X019616Y025870D01*
X019616Y025894D01*
X019086Y025894D01*
X019086Y025934D01*
X019046Y025934D01*
X019046Y025894D01*
X018516Y025894D01*
X018086Y025894D01*
X018086Y025364D01*
X018109Y025364D01*
X018195Y025377D01*
X018277Y025404D01*
X018354Y025443D01*
X018424Y025494D01*
X018485Y025555D01*
X018536Y025625D01*
X018566Y025683D01*
X018595Y025625D01*
X018646Y025555D01*
X018707Y025494D01*
X018777Y025443D01*
X018855Y025404D01*
X018937Y025377D01*
X019022Y025364D01*
X019046Y025364D01*
X019046Y025894D01*
X019086Y025894D01*
X019086Y025364D01*
X019109Y025364D01*
X019195Y025377D01*
X019277Y025404D01*
X019354Y025443D01*
X019424Y025494D01*
X019560Y025672D02*
X020451Y025672D01*
X020451Y025831D02*
X019609Y025831D01*
X019616Y025934D02*
X019616Y025957D01*
X019602Y026042D01*
X019575Y026125D01*
X019536Y026202D01*
X019485Y026272D01*
X019424Y026333D01*
X019354Y026384D01*
X019296Y026414D01*
X019354Y026443D01*
X019424Y026494D01*
X019485Y026555D01*
X019536Y026625D01*
X019575Y026703D01*
X019602Y026785D01*
X019616Y026870D01*
X019616Y026894D01*
X019086Y026894D01*
X019086Y025934D01*
X019616Y025934D01*
X019611Y025989D02*
X020451Y025989D01*
X020451Y026148D02*
X019564Y026148D01*
X019451Y026306D02*
X020451Y026306D01*
X020392Y026465D02*
X019384Y026465D01*
X019535Y026623D02*
X020333Y026623D01*
X020333Y026782D02*
X019601Y026782D01*
X019616Y026940D02*
X020333Y026940D01*
X020378Y027099D02*
X019584Y027099D01*
X019496Y027257D02*
X020383Y027257D01*
X020224Y027416D02*
X019292Y027416D01*
X019476Y027574D02*
X020066Y027574D01*
X020066Y027914D02*
X020566Y027414D01*
X021816Y027414D01*
X021941Y027289D01*
X023691Y027289D01*
X024816Y028289D02*
X028941Y028289D01*
X029316Y028664D01*
X030816Y028664D01*
X031441Y029289D01*
X036816Y029289D01*
X037316Y028789D01*
X037316Y020789D01*
X036691Y020164D01*
X036833Y019966D02*
X041224Y019966D01*
X041186Y020125D02*
X036991Y020125D01*
X037150Y020283D02*
X041192Y020283D01*
X041257Y020442D02*
X037308Y020442D01*
X037467Y020600D02*
X041403Y020600D01*
X041371Y020759D02*
X037556Y020759D01*
X037556Y020917D02*
X041244Y020917D01*
X041186Y021076D02*
X037556Y021076D01*
X037556Y021234D02*
X041186Y021234D01*
X041237Y021393D02*
X037556Y021393D01*
X037556Y021551D02*
X041354Y021551D01*
X041427Y021710D02*
X037556Y021710D01*
X037556Y021868D02*
X041264Y021868D01*
X041199Y022027D02*
X037556Y022027D01*
X037556Y022185D02*
X041186Y022185D01*
X041217Y022344D02*
X037556Y022344D01*
X037556Y022502D02*
X041305Y022502D01*
X041531Y022661D02*
X037556Y022661D01*
X037556Y022819D02*
X041311Y022819D01*
X041219Y022978D02*
X037556Y022978D01*
X037556Y023136D02*
X041186Y023136D01*
X041196Y023295D02*
X037556Y023295D01*
X037556Y023453D02*
X041262Y023453D01*
X041414Y023612D02*
X037556Y023612D01*
X037556Y023770D02*
X041360Y023770D01*
X041239Y023929D02*
X037556Y023929D01*
X037556Y024087D02*
X041186Y024087D01*
X041186Y024246D02*
X037556Y024246D01*
X037556Y024404D02*
X041242Y024404D01*
X041365Y024563D02*
X037556Y024563D01*
X037556Y024721D02*
X041409Y024721D01*
X041260Y024880D02*
X037556Y024880D01*
X037556Y025038D02*
X041194Y025038D01*
X041186Y025197D02*
X037556Y025197D01*
X037556Y025355D02*
X041221Y025355D01*
X041316Y025514D02*
X037556Y025514D01*
X037556Y025672D02*
X041517Y025672D01*
X041299Y025831D02*
X037556Y025831D01*
X037556Y025989D02*
X041214Y025989D01*
X041186Y026148D02*
X037556Y026148D01*
X037556Y026306D02*
X041201Y026306D01*
X041267Y026465D02*
X037556Y026465D01*
X037556Y026623D02*
X041440Y026623D01*
X041348Y026782D02*
X037556Y026782D01*
X037556Y026940D02*
X041235Y026940D01*
X041186Y027099D02*
X037556Y027099D01*
X037556Y027257D02*
X041186Y027257D01*
X041246Y027416D02*
X037556Y027416D01*
X037556Y027574D02*
X041377Y027574D01*
X041397Y027733D02*
X037556Y027733D01*
X037556Y027891D02*
X041255Y027891D01*
X041189Y028050D02*
X037556Y028050D01*
X037556Y028208D02*
X041186Y028208D01*
X041226Y028367D02*
X037556Y028367D01*
X037556Y028525D02*
X041328Y028525D01*
X041586Y028684D02*
X037556Y028684D01*
X037553Y028842D02*
X042241Y028842D01*
X042286Y028684D02*
X041845Y028684D01*
X042104Y028525D02*
X042286Y028525D01*
X042286Y028367D02*
X042205Y028367D01*
X042246Y028208D02*
X042286Y028208D01*
X042286Y028050D02*
X042242Y028050D01*
X042286Y027891D02*
X042177Y027891D01*
X042286Y027733D02*
X042034Y027733D01*
X042055Y027574D02*
X042286Y027574D01*
X042286Y027416D02*
X042185Y027416D01*
X042246Y027257D02*
X042286Y027257D01*
X042286Y027099D02*
X042246Y027099D01*
X042286Y026940D02*
X042197Y026940D01*
X042286Y026782D02*
X042083Y026782D01*
X041991Y026623D02*
X042286Y026623D01*
X042286Y026465D02*
X042164Y026465D01*
X042230Y026306D02*
X042286Y026306D01*
X042286Y026148D02*
X042246Y026148D01*
X042217Y025989D02*
X042286Y025989D01*
X042286Y025831D02*
X042132Y025831D01*
X042286Y025672D02*
X041914Y025672D01*
X042115Y025514D02*
X042286Y025514D01*
X042286Y025355D02*
X042210Y025355D01*
X042246Y025197D02*
X042286Y025197D01*
X042286Y025038D02*
X042237Y025038D01*
X042286Y024880D02*
X042172Y024880D01*
X042286Y024721D02*
X042023Y024721D01*
X042066Y024563D02*
X042286Y024563D01*
X042286Y024404D02*
X042190Y024404D01*
X042246Y024246D02*
X042286Y024246D01*
X042286Y024087D02*
X042246Y024087D01*
X042286Y023929D02*
X042192Y023929D01*
X042286Y023770D02*
X042072Y023770D01*
X042017Y023612D02*
X042286Y023612D01*
X042286Y023453D02*
X042169Y023453D01*
X042235Y023295D02*
X042286Y023295D01*
X042286Y023136D02*
X042246Y023136D01*
X042212Y022978D02*
X042286Y022978D01*
X042286Y022819D02*
X042121Y022819D01*
X042286Y022661D02*
X041901Y022661D01*
X042127Y022502D02*
X042286Y022502D01*
X042286Y022344D02*
X042215Y022344D01*
X042246Y022185D02*
X042286Y022185D01*
X042286Y022027D02*
X042233Y022027D01*
X042286Y021868D02*
X042167Y021868D01*
X042286Y021710D02*
X042005Y021710D01*
X042078Y021551D02*
X042286Y021551D01*
X042286Y021393D02*
X042195Y021393D01*
X042246Y021234D02*
X042286Y021234D01*
X042286Y021076D02*
X042246Y021076D01*
X042286Y020917D02*
X042187Y020917D01*
X042286Y020759D02*
X042060Y020759D01*
X042029Y020600D02*
X042286Y020600D01*
X042286Y020442D02*
X042174Y020442D01*
X042240Y020283D02*
X042286Y020283D01*
X042286Y020125D02*
X042246Y020125D01*
X042208Y019966D02*
X042286Y019966D01*
X042286Y019808D02*
X042109Y019808D01*
X041974Y019649D02*
X042286Y019649D01*
X042286Y019491D02*
X042158Y019491D01*
X042239Y019332D02*
X042286Y019332D01*
X042846Y019332D02*
X043521Y019332D01*
X043521Y019174D02*
X042846Y019174D01*
X042846Y019015D02*
X043521Y019015D01*
X043521Y018857D02*
X042846Y018857D01*
X042846Y018698D02*
X043521Y018698D01*
X043521Y018540D02*
X042817Y018540D01*
X042803Y018505D02*
X042846Y018608D01*
X042846Y028969D01*
X042803Y029072D01*
X042724Y029151D01*
X041974Y029901D01*
X041871Y029944D01*
X026010Y029944D01*
X025907Y029901D01*
X025828Y029822D01*
X025328Y029322D01*
X025286Y029219D01*
X025286Y029209D01*
X025222Y029209D01*
X025068Y029145D01*
X024950Y029027D01*
X024886Y028872D01*
X024886Y028705D01*
X024950Y028551D01*
X024972Y028529D01*
X024915Y028529D01*
X024452Y028992D01*
X024363Y029029D01*
X023180Y029029D01*
X023064Y029145D01*
X022909Y029209D01*
X022485Y029209D01*
X022452Y029242D01*
X022363Y029279D01*
X020665Y029279D01*
X020231Y029713D01*
X020231Y032911D01*
X020194Y033000D01*
X020127Y033067D01*
X020127Y033067D01*
X019676Y033518D01*
X019676Y033525D01*
X019590Y033731D01*
X019433Y033888D01*
X019227Y033974D01*
X019004Y033974D01*
X018799Y033888D01*
X018641Y033731D01*
X018566Y033549D01*
X018490Y033731D01*
X018333Y033888D01*
X018127Y033974D01*
X017904Y033974D01*
X017699Y033888D01*
X017541Y033731D01*
X017456Y033525D01*
X017456Y033302D01*
X017541Y033096D01*
X017699Y032939D01*
X017826Y032886D01*
X017826Y032366D01*
X017862Y032278D01*
X017930Y032210D01*
X018180Y031960D01*
X018268Y031924D01*
X018716Y031924D01*
X018826Y031814D01*
X018826Y031388D01*
X018766Y031363D01*
X018616Y031214D01*
X018566Y031091D01*
X018515Y031214D01*
X018366Y031363D01*
X018171Y031444D01*
X017960Y031444D01*
X017766Y031363D01*
X017681Y031279D01*
X016643Y031279D01*
X016555Y031242D01*
X016487Y031175D01*
X016310Y030997D01*
X015094Y030997D01*
X015094Y031119D01*
X015000Y031212D01*
X014631Y031212D01*
X014566Y031147D01*
X014500Y031212D01*
X014131Y031212D01*
X014066Y031147D01*
X014000Y031212D01*
X013631Y031212D01*
X013566Y031147D01*
X013500Y031212D01*
X013131Y031212D01*
X013066Y031147D01*
X013000Y031212D01*
X012631Y031212D01*
X012566Y031147D01*
X012500Y031212D01*
X012131Y031212D01*
X012066Y031147D01*
X012056Y031157D01*
X012056Y031679D01*
X012177Y031679D01*
X012383Y031764D01*
X012540Y031921D01*
X012626Y032127D01*
X012626Y032350D01*
X012540Y032556D01*
X012383Y032713D01*
X012223Y032780D01*
X012288Y032801D01*
X012370Y032843D01*
X012444Y032896D01*
X012508Y032961D01*
X012562Y033035D01*
X012603Y033116D01*
X012631Y033203D01*
X012646Y033293D01*
X012646Y033319D01*
X012086Y033319D01*
X012086Y033359D01*
X012646Y033359D01*
X012646Y033384D01*
X012631Y033474D01*
X012603Y033561D01*
X012562Y033643D01*
X012539Y033674D01*
X012967Y033674D01*
X012945Y033643D01*
X012903Y033561D01*
X012875Y033474D01*
X012861Y033384D01*
X012861Y033359D01*
X013421Y033359D01*
X013421Y033319D01*
X012861Y033319D01*
X012861Y033293D01*
X012875Y033203D01*
X012903Y033116D01*
X012945Y033035D01*
X012998Y032961D01*
X013063Y032896D01*
X013137Y032843D01*
X013218Y032801D01*
X013284Y032780D01*
X013124Y032713D01*
X012966Y032556D01*
X012881Y032350D01*
X012881Y032127D01*
X012966Y031921D01*
X013124Y031764D01*
X013329Y031679D01*
X013552Y031679D01*
X013758Y031764D01*
X013915Y031921D01*
X014001Y032127D01*
X014001Y032259D01*
X014577Y032835D01*
X014644Y032903D01*
X014681Y032991D01*
X014681Y033836D01*
X014644Y033925D01*
X014519Y034050D01*
X014452Y034117D01*
X014363Y034154D01*
X009268Y034154D01*
X009180Y034117D01*
X008805Y033742D01*
X008737Y033675D01*
X008701Y033586D01*
X008701Y033513D01*
X008555Y033367D01*
X008487Y033300D01*
X008451Y033211D01*
X008451Y031366D01*
X008487Y031278D01*
X008833Y030932D01*
X008833Y030649D01*
X008926Y030556D01*
X009455Y030556D01*
X009549Y030649D01*
X009549Y031178D01*
X009455Y031272D01*
X009172Y031272D01*
X008931Y031513D01*
X008931Y032459D01*
X008987Y032403D01*
X009051Y032357D01*
X009122Y032321D01*
X009197Y032296D01*
X009276Y032284D01*
X009316Y032284D01*
X009355Y032284D01*
X009434Y032296D01*
X009510Y032321D01*
X009580Y032357D01*
X009645Y032403D01*
X009701Y032460D01*
X009748Y032524D01*
X009784Y032595D01*
X009808Y032670D01*
X009821Y032749D01*
X009821Y032789D01*
X009821Y032828D01*
X009808Y032907D01*
X009784Y032983D01*
X009748Y033053D01*
X009701Y033118D01*
X009645Y033174D01*
X009580Y033221D01*
X009510Y033257D01*
X009434Y033281D01*
X009355Y033294D01*
X009316Y033294D01*
X009316Y032789D01*
X009316Y032789D01*
X009821Y032789D01*
X009316Y032789D01*
X009316Y032789D01*
X009316Y033294D01*
X009276Y033294D01*
X009197Y033281D01*
X009124Y033257D01*
X009144Y033278D01*
X009181Y033366D01*
X009181Y033439D01*
X009415Y033674D01*
X011592Y033674D01*
X011570Y033643D01*
X011528Y033561D01*
X011500Y033474D01*
X011486Y033384D01*
X011486Y033359D01*
X012046Y033359D01*
X012046Y033319D01*
X011486Y033319D01*
X011486Y033293D01*
X011500Y033203D01*
X011528Y033116D01*
X011570Y033035D01*
X011623Y032961D01*
X011688Y032896D01*
X011762Y032843D01*
X011843Y032801D01*
X011909Y032780D01*
X011749Y032713D01*
X011591Y032556D01*
X011506Y032350D01*
X011506Y032127D01*
X011576Y031958D01*
X011576Y031157D01*
X011566Y031147D01*
X011500Y031212D01*
X011131Y031212D01*
X011066Y031147D01*
X011000Y031212D01*
X010631Y031212D01*
X010579Y031160D01*
X010578Y031163D01*
X010544Y031196D01*
X010503Y031220D01*
X010458Y031232D01*
X010316Y031232D01*
X010316Y030757D01*
X010316Y030282D01*
X010458Y030282D01*
X010503Y030294D01*
X010544Y030318D01*
X010576Y030349D01*
X010576Y030029D01*
X009165Y030029D01*
X008952Y030242D01*
X008863Y030279D01*
X007643Y030279D01*
X007555Y030242D01*
X007487Y030175D01*
X007208Y029896D01*
X007093Y029896D01*
X006913Y029821D01*
X006775Y029683D01*
X006701Y029503D01*
X006701Y029308D01*
X006775Y029128D01*
X006913Y028990D01*
X007082Y028921D01*
X007071Y028919D01*
X006995Y028894D01*
X006923Y028858D01*
X006859Y028811D01*
X006802Y028754D01*
X006755Y028689D01*
X006718Y028617D01*
X006693Y028541D01*
X006681Y028462D01*
X006681Y028432D01*
X007181Y028432D01*
X007181Y028412D01*
X006681Y028412D01*
X006681Y028381D01*
X006693Y028302D01*
X006718Y028226D01*
X006755Y028154D01*
X006802Y028089D01*
X006859Y028033D01*
X006923Y027985D01*
X006995Y027949D01*
X007071Y027924D01*
X007151Y027912D01*
X007181Y027912D01*
X007181Y028412D01*
X007201Y028412D01*
X007201Y027912D01*
X007231Y027912D01*
X007310Y027924D01*
X007387Y027949D01*
X007458Y027985D01*
X007523Y028033D01*
X007580Y028089D01*
X007592Y028107D01*
X007693Y028006D01*
X007873Y027932D01*
X008068Y027932D01*
X008248Y028006D01*
X008386Y028144D01*
X008398Y028174D01*
X009841Y028174D01*
X010076Y027939D01*
X010076Y027220D01*
X010038Y027182D01*
X010038Y026459D01*
X010131Y026365D01*
X010500Y026365D01*
X010566Y026430D01*
X010576Y026420D01*
X010576Y025763D01*
X010341Y025529D01*
X009821Y025529D01*
X009821Y025584D01*
X009763Y025724D01*
X009656Y025831D01*
X009516Y025889D01*
X009365Y025889D01*
X009225Y025831D01*
X006516Y025831D01*
X006580Y025857D02*
X006807Y026085D01*
X006931Y026383D01*
X006931Y026705D01*
X006807Y027002D01*
X006580Y027230D01*
X006282Y027354D01*
X005960Y027354D01*
X005662Y027230D01*
X005434Y027002D01*
X005311Y026705D01*
X005311Y026383D01*
X005434Y026085D01*
X005662Y025857D01*
X005960Y025734D01*
X006282Y025734D01*
X006580Y025857D01*
X006712Y025989D02*
X010576Y025989D01*
X010576Y025831D02*
X009656Y025831D01*
X009784Y025672D02*
X010485Y025672D01*
X010816Y025664D02*
X010441Y025289D01*
X009441Y025289D01*
X009441Y023239D01*
X009366Y023164D01*
X009926Y023136D02*
X010831Y023136D01*
X010831Y023052D02*
X010831Y023275D01*
X010916Y023481D01*
X011074Y023638D01*
X011201Y023691D01*
X011201Y024771D01*
X011119Y024853D01*
X011061Y024993D01*
X011061Y025584D01*
X011076Y025620D01*
X011076Y026420D01*
X011066Y026430D01*
X011056Y026420D01*
X011056Y025616D01*
X011019Y025528D01*
X010644Y025153D01*
X010577Y025085D01*
X010488Y025049D01*
X009821Y025049D01*
X009821Y024993D01*
X009763Y024853D01*
X009681Y024771D01*
X009681Y023639D01*
X009683Y023638D01*
X009840Y023481D01*
X009926Y023275D01*
X009926Y023052D01*
X009840Y022846D01*
X009683Y022689D01*
X009477Y022604D01*
X009254Y022604D01*
X009049Y022689D01*
X008891Y022846D01*
X008825Y023007D01*
X008803Y022941D01*
X008762Y022860D01*
X008708Y022786D01*
X008644Y022721D01*
X008570Y022668D01*
X008488Y022626D01*
X008402Y022598D01*
X008311Y022584D01*
X008286Y022584D01*
X008286Y023144D01*
X008246Y023144D01*
X007686Y023144D01*
X007686Y023118D01*
X007700Y023028D01*
X007728Y022941D01*
X007770Y022860D01*
X007823Y022786D01*
X007888Y022721D01*
X007962Y022668D01*
X008043Y022626D01*
X008130Y022598D01*
X008220Y022584D01*
X008246Y022584D01*
X008246Y023144D01*
X008246Y023184D01*
X008246Y023744D01*
X008220Y023744D01*
X008130Y023729D01*
X008043Y023701D01*
X007962Y023660D01*
X007888Y023606D01*
X007823Y023541D01*
X007770Y023468D01*
X007728Y023386D01*
X007700Y023299D01*
X007686Y023209D01*
X007686Y023184D01*
X008246Y023184D01*
X008286Y023184D01*
X008286Y023744D01*
X008311Y023744D01*
X008402Y023729D01*
X008488Y023701D01*
X008570Y023660D01*
X008644Y023606D01*
X008708Y023541D01*
X008762Y023468D01*
X008803Y023386D01*
X008825Y023321D01*
X008891Y023481D01*
X009049Y023638D01*
X009201Y023701D01*
X009201Y024771D01*
X009119Y024853D01*
X009061Y024993D01*
X009061Y025584D01*
X009119Y025724D01*
X009225Y025831D01*
X009097Y025672D02*
X005111Y025672D01*
X005111Y025514D02*
X009061Y025514D01*
X009061Y025355D02*
X005111Y025355D01*
X005111Y025197D02*
X009061Y025197D01*
X009061Y025038D02*
X005111Y025038D01*
X005111Y024880D02*
X009108Y024880D01*
X009201Y024721D02*
X005111Y024721D01*
X005111Y024563D02*
X009201Y024563D01*
X009201Y024404D02*
X006851Y024404D01*
X006858Y024398D02*
X006764Y024491D01*
X005111Y024491D01*
X005111Y032076D01*
X005916Y032076D01*
X005662Y031970D01*
X005434Y031742D01*
X005311Y031445D01*
X005311Y031123D01*
X005434Y030825D01*
X005662Y030597D01*
X005960Y030474D01*
X006282Y030474D01*
X006580Y030597D01*
X006807Y030825D01*
X006931Y031123D01*
X006931Y031445D01*
X006807Y031742D01*
X006580Y031970D01*
X006308Y032083D01*
X006353Y032086D01*
X006358Y032083D01*
X006385Y032088D01*
X006412Y032090D01*
X006417Y032095D01*
X006529Y032120D01*
X006535Y032117D01*
X006561Y032127D01*
X006588Y032132D01*
X006591Y032138D01*
X006699Y032178D01*
X006705Y032176D01*
X006729Y032190D01*
X006755Y032199D01*
X006758Y032205D01*
X006859Y032260D01*
X006865Y032259D01*
X006887Y032276D01*
X006911Y032289D01*
X006913Y032295D01*
X007006Y032364D01*
X007012Y032364D01*
X007031Y032384D01*
X007053Y032400D01*
X007054Y032407D01*
X007136Y032488D01*
X007142Y032489D01*
X007159Y032511D01*
X007178Y032530D01*
X007178Y032537D01*
X007247Y032629D01*
X007253Y032631D01*
X007267Y032655D01*
X007283Y032677D01*
X007282Y032683D01*
X007337Y032785D01*
X007343Y032787D01*
X007353Y032813D01*
X007366Y032837D01*
X007364Y032843D01*
X007404Y032951D01*
X007410Y032955D01*
X007416Y032982D01*
X007425Y033007D01*
X007423Y033013D01*
X007447Y033126D01*
X007452Y033130D01*
X007454Y033157D01*
X007460Y033184D01*
X007456Y033190D01*
X007464Y033301D01*
X007467Y033304D01*
X007467Y033334D01*
X007469Y033364D01*
X007467Y033367D01*
X007467Y034432D01*
X041165Y034432D01*
X041165Y033367D01*
X041163Y033364D01*
X041165Y033334D01*
X041165Y033304D01*
X041167Y033301D01*
X041175Y033190D01*
X041172Y033184D01*
X041178Y033157D01*
X041179Y033130D01*
X041184Y033126D01*
X041209Y033013D01*
X041206Y033007D01*
X041216Y032982D01*
X041222Y032955D01*
X041227Y032951D01*
X041267Y032843D01*
X041266Y032837D01*
X041279Y032813D01*
X041288Y032787D01*
X041294Y032785D01*
X041349Y032683D01*
X041348Y032677D01*
X041365Y032655D01*
X041378Y032631D01*
X041384Y032629D01*
X041453Y032537D01*
X041453Y032530D01*
X041473Y032511D01*
X041489Y032489D01*
X041496Y032488D01*
X020231Y032488D01*
X020231Y032646D02*
X041370Y032646D01*
X041282Y032805D02*
X020231Y032805D01*
X020209Y032963D02*
X041220Y032963D01*
X041185Y033122D02*
X020072Y033122D01*
X019914Y033280D02*
X041169Y033280D01*
X041165Y033439D02*
X019755Y033439D01*
X019646Y033597D02*
X041165Y033597D01*
X041165Y033756D02*
X019566Y033756D01*
X019371Y033914D02*
X041165Y033914D01*
X041165Y034073D02*
X014496Y034073D01*
X014649Y033914D02*
X017761Y033914D01*
X017566Y033756D02*
X014681Y033756D01*
X014681Y033597D02*
X017486Y033597D01*
X017456Y033439D02*
X014681Y033439D01*
X014681Y033280D02*
X017465Y033280D01*
X017531Y033122D02*
X014681Y033122D01*
X014669Y032963D02*
X017674Y032963D01*
X017826Y032805D02*
X014546Y032805D01*
X014388Y032646D02*
X017826Y032646D01*
X017826Y032488D02*
X014229Y032488D01*
X014071Y032329D02*
X017841Y032329D01*
X017969Y032171D02*
X014001Y032171D01*
X013953Y032012D02*
X018128Y032012D01*
X018316Y032164D02*
X018066Y032414D01*
X018066Y033364D01*
X018016Y033414D01*
X018271Y033914D02*
X018861Y033914D01*
X018666Y033756D02*
X018466Y033756D01*
X018546Y033597D02*
X018586Y033597D01*
X019116Y033414D02*
X019441Y033414D01*
X019991Y032864D01*
X019991Y029614D01*
X020566Y029039D01*
X022316Y029039D01*
X022566Y028789D01*
X024316Y028789D01*
X024816Y028289D01*
X024760Y028684D02*
X024895Y028684D01*
X024886Y028842D02*
X024602Y028842D01*
X024431Y029001D02*
X024939Y029001D01*
X025103Y029159D02*
X023029Y029159D01*
X021191Y028414D02*
X020816Y028789D01*
X020316Y028789D01*
X019191Y029914D01*
X019066Y029914D01*
X019066Y030914D02*
X019066Y031914D01*
X018816Y032164D01*
X018316Y032164D01*
X018786Y031854D02*
X013848Y031854D01*
X013592Y031695D02*
X018826Y031695D01*
X018826Y031537D02*
X012056Y031537D01*
X012056Y031378D02*
X017802Y031378D01*
X017941Y031039D02*
X018066Y030914D01*
X017941Y031039D02*
X016691Y031039D01*
X016409Y030757D01*
X014816Y030757D01*
X015094Y031061D02*
X016374Y031061D01*
X016532Y031220D02*
X012056Y031220D01*
X011576Y031220D02*
X010504Y031220D01*
X010316Y031220D02*
X010316Y031220D01*
X010316Y031232D02*
X010174Y031232D01*
X010128Y031220D01*
X010087Y031196D01*
X010054Y031163D01*
X010030Y031122D01*
X010018Y031076D01*
X010018Y030757D01*
X010018Y030438D01*
X010030Y030392D01*
X010054Y030351D01*
X010087Y030318D01*
X010128Y030294D01*
X010174Y030282D01*
X010316Y030282D01*
X010316Y030757D01*
X010316Y030757D01*
X010316Y030539D01*
X010066Y030289D01*
X006941Y030289D01*
X006566Y029914D01*
X006566Y028539D01*
X006691Y028414D01*
X007183Y028414D01*
X007191Y028422D01*
X007191Y023664D01*
X007691Y023164D01*
X008266Y023164D01*
X008266Y022589D01*
X008566Y022289D01*
X008556Y022661D02*
X009117Y022661D01*
X008918Y022819D02*
X008732Y022819D01*
X008815Y022978D02*
X008837Y022978D01*
X009615Y022661D02*
X011142Y022661D01*
X011074Y022689D02*
X011279Y022604D01*
X011502Y022604D01*
X011708Y022689D01*
X011865Y022846D01*
X011932Y023007D01*
X011953Y022941D01*
X011995Y022860D01*
X012048Y022786D01*
X012113Y022721D01*
X012187Y022668D01*
X012268Y022626D01*
X012355Y022598D01*
X012445Y022584D01*
X012471Y022584D01*
X012471Y023144D01*
X012511Y023144D01*
X012511Y022584D01*
X012536Y022584D01*
X012627Y022598D01*
X012713Y022626D01*
X012795Y022668D01*
X012869Y022721D01*
X012933Y022786D01*
X012987Y022860D01*
X013028Y022941D01*
X013056Y023028D01*
X013071Y023118D01*
X013071Y023144D01*
X013040Y022978D02*
X013665Y022978D01*
X013507Y022819D02*
X012957Y022819D01*
X012781Y022661D02*
X013348Y022661D01*
X013190Y022502D02*
X005111Y022502D01*
X005111Y022511D02*
X006764Y022511D01*
X006858Y022605D01*
X006858Y024398D01*
X006858Y024246D02*
X009201Y024246D01*
X009201Y024087D02*
X006858Y024087D01*
X006858Y023929D02*
X009201Y023929D01*
X009201Y023770D02*
X006858Y023770D01*
X006858Y023612D02*
X007896Y023612D01*
X007762Y023453D02*
X006858Y023453D01*
X006858Y023295D02*
X007699Y023295D01*
X007686Y023136D02*
X006858Y023136D01*
X006858Y022978D02*
X007716Y022978D01*
X007799Y022819D02*
X006858Y022819D01*
X006858Y022661D02*
X007975Y022661D01*
X008246Y022661D02*
X008286Y022661D01*
X008286Y022819D02*
X008246Y022819D01*
X008246Y022978D02*
X008286Y022978D01*
X008286Y023136D02*
X008246Y023136D01*
X008246Y023295D02*
X008286Y023295D01*
X008286Y023453D02*
X008246Y023453D01*
X008246Y023612D02*
X008286Y023612D01*
X008636Y023612D02*
X009022Y023612D01*
X008880Y023453D02*
X008769Y023453D01*
X009710Y023612D02*
X011047Y023612D01*
X010905Y023453D02*
X009852Y023453D01*
X009918Y023295D02*
X010839Y023295D01*
X010831Y023052D02*
X010916Y022846D01*
X011074Y022689D01*
X010943Y022819D02*
X009813Y022819D01*
X009895Y022978D02*
X010862Y022978D01*
X011391Y023164D02*
X011441Y023214D01*
X011441Y025289D01*
X011316Y025414D01*
X011316Y026820D01*
X011816Y026820D02*
X011816Y028414D01*
X011941Y028539D01*
X012316Y028539D01*
X011316Y029664D02*
X011316Y030757D01*
X011816Y030757D02*
X011816Y031989D01*
X012066Y032239D01*
X012450Y032646D02*
X013056Y032646D01*
X012938Y032488D02*
X012569Y032488D01*
X012626Y032329D02*
X012881Y032329D01*
X012881Y032171D02*
X012626Y032171D01*
X012578Y032012D02*
X012928Y032012D01*
X013034Y031854D02*
X012473Y031854D01*
X012217Y031695D02*
X013289Y031695D01*
X013441Y032239D02*
X013641Y032239D01*
X014441Y033039D01*
X014441Y033789D01*
X014316Y033914D01*
X009316Y033914D01*
X008941Y033539D01*
X008941Y033414D01*
X008691Y033164D01*
X008691Y031414D01*
X009191Y030914D01*
X009549Y030903D02*
X010018Y030903D01*
X010018Y030757D02*
X010316Y030757D01*
X010316Y031539D01*
X009816Y032039D01*
X009441Y032039D01*
X009316Y032164D01*
X009316Y032789D01*
X009316Y033289D01*
X009566Y033539D01*
X011866Y033539D01*
X012066Y033339D01*
X013441Y033339D01*
X013461Y033359D02*
X014021Y033359D01*
X014021Y033384D01*
X014006Y033474D01*
X013978Y033561D01*
X013937Y033643D01*
X013914Y033674D01*
X014201Y033674D01*
X014201Y033138D01*
X013767Y032704D01*
X013758Y032713D01*
X013598Y032780D01*
X013663Y032801D01*
X013745Y032843D01*
X013819Y032896D01*
X013883Y032961D01*
X013937Y033035D01*
X013978Y033116D01*
X014006Y033203D01*
X014021Y033293D01*
X014021Y033319D01*
X013461Y033319D01*
X013461Y033359D01*
X013960Y033597D02*
X014201Y033597D01*
X014201Y033439D02*
X014012Y033439D01*
X014019Y033280D02*
X014201Y033280D01*
X014184Y033122D02*
X013980Y033122D01*
X014026Y032963D02*
X013885Y032963D01*
X013867Y032805D02*
X013670Y032805D01*
X013211Y032805D02*
X012295Y032805D01*
X012510Y032963D02*
X012997Y032963D01*
X012901Y033122D02*
X012605Y033122D01*
X012644Y033280D02*
X012863Y033280D01*
X012869Y033439D02*
X012637Y033439D01*
X012585Y033597D02*
X012922Y033597D01*
X011836Y032805D02*
X010801Y032805D01*
X010801Y032963D02*
X011622Y032963D01*
X011526Y033122D02*
X010801Y033122D01*
X010801Y033180D02*
X010707Y033274D01*
X009924Y033274D01*
X009831Y033180D01*
X009831Y032397D01*
X009924Y032304D01*
X010707Y032304D01*
X010801Y032397D01*
X010801Y033180D01*
X010801Y032646D02*
X011681Y032646D01*
X011563Y032488D02*
X010801Y032488D01*
X010733Y032329D02*
X011506Y032329D01*
X011506Y032171D02*
X008931Y032171D01*
X008931Y032329D02*
X009105Y032329D01*
X009316Y032329D02*
X009316Y032329D01*
X009316Y032284D02*
X009316Y032789D01*
X009316Y032789D01*
X009316Y032284D01*
X009316Y032488D02*
X009316Y032488D01*
X009316Y032646D02*
X009316Y032646D01*
X009316Y032805D02*
X009316Y032805D01*
X009316Y032963D02*
X009316Y032963D01*
X009316Y033122D02*
X009316Y033122D01*
X009316Y033280D02*
X009316Y033280D01*
X009437Y033280D02*
X011488Y033280D01*
X011494Y033439D02*
X009181Y033439D01*
X009194Y033280D02*
X009145Y033280D01*
X009339Y033597D02*
X011547Y033597D01*
X009831Y033122D02*
X009697Y033122D01*
X009790Y032963D02*
X009831Y032963D01*
X009821Y032805D02*
X009831Y032805D01*
X009831Y032646D02*
X009800Y032646D01*
X009831Y032488D02*
X009721Y032488D01*
X009899Y032329D02*
X009526Y032329D01*
X008931Y032012D02*
X011553Y032012D01*
X011576Y031854D02*
X008931Y031854D01*
X008931Y031695D02*
X011576Y031695D01*
X011576Y031537D02*
X008931Y031537D01*
X009066Y031378D02*
X011576Y031378D01*
X010816Y030757D02*
X010816Y029914D01*
X010691Y029789D01*
X009066Y029789D01*
X008816Y030039D01*
X007691Y030039D01*
X007191Y029539D01*
X007191Y029406D01*
X006755Y029635D02*
X005111Y029635D01*
X005111Y029793D02*
X006885Y029793D01*
X006701Y029476D02*
X005111Y029476D01*
X005111Y029318D02*
X006701Y029318D01*
X006763Y029159D02*
X005111Y029159D01*
X005111Y029001D02*
X006903Y029001D01*
X006902Y028842D02*
X005111Y028842D01*
X005111Y028684D02*
X006752Y028684D01*
X006691Y028525D02*
X005111Y028525D01*
X005111Y028367D02*
X006683Y028367D01*
X006727Y028208D02*
X005111Y028208D01*
X005111Y028050D02*
X006841Y028050D01*
X007181Y028050D02*
X007201Y028050D01*
X007201Y028208D02*
X007181Y028208D01*
X007181Y028367D02*
X007201Y028367D01*
X007540Y028050D02*
X007650Y028050D01*
X007979Y028414D02*
X007971Y028422D01*
X007979Y028414D02*
X009941Y028414D01*
X010316Y028039D01*
X010316Y026820D01*
X010316Y027914D01*
X010441Y028039D01*
X010076Y027891D02*
X005111Y027891D01*
X005111Y027733D02*
X010076Y027733D01*
X010076Y027574D02*
X005111Y027574D01*
X005111Y027416D02*
X010076Y027416D01*
X010076Y027257D02*
X006515Y027257D01*
X006711Y027099D02*
X010038Y027099D01*
X010038Y026940D02*
X006833Y026940D01*
X006899Y026782D02*
X010038Y026782D01*
X010038Y026623D02*
X006931Y026623D01*
X006931Y026465D02*
X010038Y026465D01*
X010576Y026306D02*
X006899Y026306D01*
X006833Y026148D02*
X010576Y026148D01*
X011056Y026148D02*
X011076Y026148D01*
X011076Y026306D02*
X011056Y026306D01*
X011056Y025989D02*
X011076Y025989D01*
X011076Y025831D02*
X011056Y025831D01*
X011056Y025672D02*
X011076Y025672D01*
X011061Y025514D02*
X011005Y025514D01*
X011061Y025355D02*
X010847Y025355D01*
X010688Y025197D02*
X011061Y025197D01*
X011061Y025038D02*
X009821Y025038D01*
X009774Y024880D02*
X011108Y024880D01*
X011201Y024721D02*
X009681Y024721D01*
X009681Y024563D02*
X011201Y024563D01*
X011201Y024404D02*
X009681Y024404D01*
X009681Y024246D02*
X011201Y024246D01*
X011201Y024087D02*
X009681Y024087D01*
X009681Y023929D02*
X011201Y023929D01*
X011201Y023770D02*
X009681Y023770D01*
X011681Y023770D02*
X013240Y023770D01*
X012861Y023612D02*
X014299Y023612D01*
X014816Y023789D02*
X014816Y025039D01*
X016191Y026414D01*
X016316Y026414D01*
X016674Y026465D02*
X017748Y026465D01*
X017680Y026306D02*
X016674Y026306D01*
X016672Y026148D02*
X017568Y026148D01*
X017521Y025989D02*
X016106Y025989D01*
X015947Y025831D02*
X017522Y025831D01*
X017572Y025672D02*
X015789Y025672D01*
X015630Y025514D02*
X016322Y025514D01*
X016191Y025664D02*
X017816Y025664D01*
X018066Y025914D01*
X018046Y025989D02*
X018086Y025989D01*
X018086Y025831D02*
X018046Y025831D01*
X018046Y025672D02*
X018086Y025672D01*
X018086Y025514D02*
X018046Y025514D01*
X017688Y025514D02*
X016810Y025514D01*
X016566Y025164D02*
X017191Y025164D01*
X017816Y024539D01*
X017816Y024039D01*
X018107Y024087D02*
X018270Y024087D01*
X017452Y024563D02*
X015056Y024563D01*
X015056Y024721D02*
X017294Y024721D01*
X017135Y024880D02*
X016876Y024880D01*
X016256Y024880D02*
X015056Y024880D01*
X015155Y025038D02*
X016146Y025038D01*
X016146Y025197D02*
X015313Y025197D01*
X015472Y025355D02*
X016163Y025355D01*
X016191Y025664D02*
X015566Y025164D01*
X015056Y023453D02*
X017437Y023453D01*
X017576Y023295D02*
X015056Y023295D01*
X015056Y023136D02*
X017576Y023136D01*
X017576Y022978D02*
X015056Y022978D01*
X015056Y022819D02*
X017576Y022819D01*
X017576Y022661D02*
X015056Y022661D01*
X015056Y022502D02*
X017576Y022502D01*
X017576Y022344D02*
X015056Y022344D01*
X015056Y022185D02*
X017576Y022185D01*
X017613Y022027D02*
X015056Y022027D01*
X015201Y021868D02*
X016426Y021868D01*
X016955Y021868D02*
X017772Y021868D01*
X017930Y021710D02*
X017111Y021710D01*
X016401Y021234D02*
X013980Y021234D01*
X014111Y021393D02*
X014997Y021393D01*
X014839Y021551D02*
X014111Y021551D01*
X014111Y021710D02*
X014680Y021710D01*
X014576Y021868D02*
X013955Y021868D01*
X013031Y022344D02*
X005111Y022344D01*
X005111Y022185D02*
X012873Y022185D01*
X012714Y022027D02*
X005111Y022027D01*
X005111Y021868D02*
X012556Y021868D01*
X012397Y021710D02*
X005111Y021710D01*
X005111Y021551D02*
X005420Y021551D01*
X005424Y021559D02*
X005414Y021541D01*
X005406Y021521D01*
X005400Y021501D01*
X005397Y021480D01*
X005397Y020770D01*
X005400Y020749D01*
X005406Y020729D01*
X005414Y020709D01*
X005424Y020691D01*
X005437Y020675D01*
X005452Y020660D01*
X005468Y020647D01*
X005486Y020637D01*
X005506Y020628D01*
X005526Y020623D01*
X005547Y020620D01*
X009275Y020620D01*
X009296Y020623D01*
X009316Y020628D01*
X009335Y020637D01*
X009353Y020647D01*
X009370Y020660D01*
X009385Y020675D01*
X009398Y020691D01*
X009408Y020709D01*
X009416Y020729D01*
X009422Y020749D01*
X009424Y020770D01*
X009424Y021480D01*
X009422Y021501D01*
X009416Y021521D01*
X009408Y021541D01*
X009398Y021559D01*
X009385Y021575D01*
X009370Y021590D01*
X009353Y021603D01*
X009335Y021613D01*
X009316Y021621D01*
X009296Y021627D01*
X009275Y021630D01*
X005547Y021630D01*
X005526Y021627D01*
X005506Y021621D01*
X005486Y021613D01*
X005468Y021603D01*
X005452Y021590D01*
X005437Y021575D01*
X005424Y021559D01*
X005397Y021393D02*
X005111Y021393D01*
X005111Y021234D02*
X005397Y021234D01*
X005397Y021076D02*
X005111Y021076D01*
X005111Y020917D02*
X005397Y020917D01*
X005399Y020759D02*
X005111Y020759D01*
X005111Y020600D02*
X010663Y020600D01*
X010504Y020442D02*
X005111Y020442D01*
X005111Y020283D02*
X010346Y020283D01*
X010187Y020125D02*
X005111Y020125D01*
X005111Y019966D02*
X010029Y019966D01*
X009870Y019808D02*
X005111Y019808D01*
X005111Y019649D02*
X009727Y019649D01*
X009701Y019491D02*
X005111Y019491D01*
X005111Y019332D02*
X009701Y019332D01*
X009701Y019174D02*
X005111Y019174D01*
X005111Y019015D02*
X009701Y019015D01*
X009701Y018857D02*
X005111Y018857D01*
X005111Y018698D02*
X009701Y018698D01*
X009701Y018540D02*
X005111Y018540D01*
X005111Y018381D02*
X009701Y018381D01*
X009708Y018223D02*
X005111Y018223D01*
X005111Y018064D02*
X009826Y018064D01*
X009984Y017906D02*
X005111Y017906D01*
X005111Y017747D02*
X010143Y017747D01*
X010301Y017589D02*
X005111Y017589D01*
X005111Y017430D02*
X010451Y017430D01*
X010451Y017272D02*
X005111Y017272D01*
X005111Y017113D02*
X010451Y017113D01*
X010451Y016955D02*
X005111Y016955D01*
X005111Y014894D02*
X006583Y014894D01*
X006583Y014736D02*
X005111Y014736D01*
X005111Y014577D02*
X006583Y014577D01*
X006583Y014419D02*
X005111Y014419D01*
X005111Y014260D02*
X007005Y014260D01*
X007163Y014102D02*
X005111Y014102D01*
X005111Y013943D02*
X007322Y013943D01*
X007480Y013785D02*
X005111Y013785D01*
X005111Y013626D02*
X007639Y013626D01*
X007797Y013468D02*
X005111Y013468D01*
X005111Y013309D02*
X010951Y013309D01*
X010951Y013151D02*
X005111Y013151D01*
X005111Y012992D02*
X010951Y012992D01*
X010951Y012834D02*
X005111Y012834D01*
X005111Y012675D02*
X010951Y012675D01*
X010951Y012517D02*
X009656Y012517D01*
X009806Y012358D02*
X010951Y012358D01*
X010951Y012200D02*
X009806Y012200D01*
X009806Y012041D02*
X010951Y012041D01*
X010951Y011883D02*
X009728Y011883D01*
X009696Y011724D02*
X011041Y011724D01*
X011199Y011566D02*
X009696Y011566D01*
X009696Y011407D02*
X011358Y011407D01*
X011566Y011539D02*
X011191Y011914D01*
X011191Y013414D01*
X010941Y013664D01*
X007941Y013664D01*
X006941Y014664D01*
X007367Y014577D02*
X008938Y014577D01*
X008001Y013943D02*
X017322Y013943D01*
X017207Y014102D02*
X007842Y014102D01*
X007684Y014260D02*
X017201Y014260D01*
X017201Y014419D02*
X007525Y014419D01*
X007796Y014894D02*
X007836Y014894D01*
X007836Y015053D02*
X007796Y015053D01*
X007796Y015211D02*
X007836Y015211D01*
X007836Y015370D02*
X007796Y015370D01*
X009816Y015414D02*
X010316Y015414D01*
X010691Y015789D01*
X010908Y015687D02*
X014014Y015687D01*
X013911Y015528D02*
X010770Y015528D01*
X010611Y015370D02*
X013911Y015370D01*
X013911Y015211D02*
X010453Y015211D01*
X010204Y015053D02*
X014002Y015053D01*
X014173Y015845D02*
X010931Y015845D01*
X010931Y016004D02*
X014151Y016004D01*
X013993Y016162D02*
X010931Y016162D01*
X010931Y016321D02*
X013911Y016321D01*
X013911Y016479D02*
X010931Y016479D01*
X010931Y016638D02*
X013911Y016638D01*
X014024Y016796D02*
X010931Y016796D01*
X010931Y016955D02*
X014182Y016955D01*
X014699Y016955D02*
X015182Y016955D01*
X015024Y016796D02*
X014858Y016796D01*
X014889Y016162D02*
X014993Y016162D01*
X015151Y016004D02*
X014730Y016004D01*
X014709Y015845D02*
X015173Y015845D01*
X015014Y015687D02*
X014867Y015687D01*
X015709Y015845D02*
X016144Y015845D01*
X016151Y016004D02*
X015730Y016004D01*
X015889Y016162D02*
X015993Y016162D01*
X015986Y015687D02*
X015867Y015687D01*
X016421Y015687D02*
X016461Y015687D01*
X016461Y015845D02*
X016421Y015845D01*
X016737Y015845D02*
X017173Y015845D01*
X017151Y016004D02*
X016730Y016004D01*
X016889Y016162D02*
X016993Y016162D01*
X017014Y015687D02*
X016896Y015687D01*
X016461Y015528D02*
X016421Y015528D01*
X016441Y016464D02*
X016441Y017789D01*
X016691Y018039D01*
X016739Y017747D02*
X019402Y017747D01*
X019691Y017414D02*
X020566Y017414D01*
X021191Y016789D01*
X021191Y014914D01*
X021441Y014664D01*
X022066Y014664D01*
X021941Y014789D01*
X021941Y014914D01*
X022066Y014664D02*
X029066Y014664D01*
X029424Y014736D02*
X030326Y014736D01*
X030326Y014894D02*
X029424Y014894D01*
X029424Y014577D02*
X030326Y014577D01*
X030326Y014419D02*
X029424Y014419D01*
X029424Y014260D02*
X030326Y014260D01*
X030326Y014102D02*
X029424Y014102D01*
X029424Y013943D02*
X030326Y013943D01*
X030326Y013785D02*
X029424Y013785D01*
X029424Y013626D02*
X030326Y013626D01*
X030326Y013468D02*
X029424Y013468D01*
X029424Y013309D02*
X030326Y013309D01*
X030326Y013151D02*
X029424Y013151D01*
X029066Y013414D02*
X021191Y013414D01*
X021191Y009414D01*
X020441Y008664D01*
X017066Y008664D01*
X017540Y009030D02*
X020467Y009030D01*
X020626Y009188D02*
X015721Y009188D01*
X015721Y009030D02*
X016592Y009030D01*
X016437Y008871D02*
X015721Y008871D01*
X015721Y008713D02*
X016386Y008713D01*
X016396Y008554D02*
X015721Y008554D01*
X015721Y008396D02*
X016480Y008396D01*
X015721Y008237D02*
X043521Y008237D01*
X043521Y008079D02*
X022530Y008079D01*
X022530Y008122D02*
X022436Y008216D01*
X020644Y008216D01*
X020569Y008141D01*
X020488Y008222D01*
X018696Y008222D01*
X018602Y008128D01*
X018602Y006336D01*
X018696Y006242D01*
X020488Y006242D01*
X020563Y006317D01*
X020644Y006236D01*
X022436Y006236D01*
X022530Y006329D01*
X022530Y008122D01*
X022530Y007920D02*
X043521Y007920D01*
X043521Y007762D02*
X022530Y007762D01*
X022530Y007603D02*
X023751Y007603D01*
X023755Y007604D02*
X023668Y007576D01*
X023587Y007535D01*
X023513Y007481D01*
X023448Y007416D01*
X023395Y007343D01*
X023353Y007261D01*
X023325Y007174D01*
X023311Y007084D01*
X023311Y007059D01*
X023871Y007059D01*
X023871Y007619D01*
X023845Y007619D01*
X023755Y007604D01*
X023871Y007603D02*
X023911Y007603D01*
X023911Y007619D02*
X023911Y007059D01*
X023871Y007059D01*
X023871Y007019D01*
X023311Y007019D01*
X023311Y006993D01*
X023325Y006903D01*
X023353Y006816D01*
X023395Y006735D01*
X023448Y006661D01*
X023513Y006596D01*
X023587Y006543D01*
X023668Y006501D01*
X023755Y006473D01*
X023845Y006459D01*
X023871Y006459D01*
X023871Y007019D01*
X023911Y007019D01*
X023911Y006459D01*
X023936Y006459D01*
X024027Y006473D01*
X024113Y006501D01*
X024195Y006543D01*
X024269Y006596D01*
X024333Y006661D01*
X024387Y006735D01*
X024428Y006816D01*
X024450Y006882D01*
X024516Y006721D01*
X024674Y006564D01*
X024701Y006553D01*
X024701Y006116D01*
X024737Y006028D01*
X024805Y005960D01*
X025680Y005085D01*
X025768Y005049D01*
X028186Y005049D01*
X028186Y003933D01*
X028188Y003912D01*
X028193Y003896D01*
X007467Y003896D01*
X007467Y004961D01*
X007469Y004963D01*
X007467Y004993D01*
X007467Y005024D01*
X007464Y005026D01*
X007456Y005138D01*
X007460Y005143D01*
X007454Y005170D01*
X007452Y005197D01*
X007447Y005202D01*
X007423Y005314D01*
X007425Y005320D01*
X007416Y005346D01*
X007410Y005373D01*
X007404Y005376D01*
X007364Y005484D01*
X007366Y005490D01*
X007353Y005514D01*
X007343Y005540D01*
X007337Y005543D01*
X007282Y005644D01*
X007283Y005650D01*
X007267Y005672D01*
X007253Y005696D01*
X007247Y005698D01*
X007178Y005791D01*
X007178Y005797D01*
X007159Y005816D01*
X007142Y005838D01*
X007136Y005839D01*
X007054Y005921D01*
X007053Y005927D01*
X007031Y005944D01*
X007012Y005963D01*
X007006Y005963D01*
X006913Y006032D01*
X006911Y006038D01*
X006887Y006051D01*
X006865Y006068D01*
X006859Y006067D01*
X006758Y006122D01*
X006755Y006128D01*
X006729Y006138D01*
X006705Y006151D01*
X006699Y006149D01*
X006591Y006189D01*
X006588Y006195D01*
X006561Y006201D01*
X006535Y006210D01*
X006529Y006208D01*
X006417Y006232D01*
X006412Y006237D01*
X006385Y006239D01*
X006358Y006245D01*
X006353Y006241D01*
X006308Y006244D01*
X006580Y006357D01*
X006807Y006585D01*
X006931Y006883D01*
X006931Y007205D01*
X006807Y007502D01*
X006580Y007730D01*
X006282Y007854D01*
X005960Y007854D01*
X005662Y007730D01*
X005434Y007502D01*
X005311Y007205D01*
X005311Y006883D01*
X005434Y006585D01*
X005662Y006357D01*
X005916Y006252D01*
X005111Y006252D01*
X005111Y022511D01*
X005111Y025831D02*
X005725Y025831D01*
X005530Y025989D02*
X005111Y025989D01*
X005111Y026148D02*
X005408Y026148D01*
X005342Y026306D02*
X005111Y026306D01*
X005111Y026465D02*
X005311Y026465D01*
X005311Y026623D02*
X005111Y026623D01*
X005111Y026782D02*
X005343Y026782D01*
X005408Y026940D02*
X005111Y026940D01*
X005111Y027099D02*
X005530Y027099D01*
X005727Y027257D02*
X005111Y027257D01*
X007971Y029406D02*
X011058Y029406D01*
X011316Y029664D01*
X010576Y030110D02*
X009084Y030110D01*
X008888Y030269D02*
X010576Y030269D01*
X010316Y030427D02*
X010316Y030427D01*
X010316Y030586D02*
X010316Y030586D01*
X010316Y030744D02*
X010316Y030744D01*
X010316Y030757D02*
X010018Y030757D01*
X010018Y030744D02*
X009549Y030744D01*
X009485Y030586D02*
X010018Y030586D01*
X010021Y030427D02*
X005111Y030427D01*
X005111Y030269D02*
X007619Y030269D01*
X007423Y030110D02*
X005111Y030110D01*
X005111Y029952D02*
X007264Y029952D01*
X006552Y030586D02*
X008896Y030586D01*
X008833Y030744D02*
X006727Y030744D01*
X006840Y030903D02*
X008833Y030903D01*
X008704Y031061D02*
X006905Y031061D01*
X006931Y031220D02*
X008545Y031220D01*
X008451Y031378D02*
X006931Y031378D01*
X006893Y031537D02*
X008451Y031537D01*
X008451Y031695D02*
X006827Y031695D01*
X006696Y031854D02*
X008451Y031854D01*
X008451Y032012D02*
X006479Y032012D01*
X006679Y032171D02*
X008451Y032171D01*
X008451Y032329D02*
X006959Y032329D01*
X007136Y032488D02*
X008451Y032488D01*
X008451Y032646D02*
X007262Y032646D01*
X007350Y032805D02*
X008451Y032805D01*
X008451Y032963D02*
X007412Y032963D01*
X007446Y033122D02*
X008451Y033122D01*
X008479Y033280D02*
X007463Y033280D01*
X007467Y033439D02*
X008626Y033439D01*
X008705Y033597D02*
X007467Y033597D01*
X007467Y033756D02*
X008818Y033756D01*
X008977Y033914D02*
X007467Y033914D01*
X007467Y034073D02*
X009135Y034073D01*
X007467Y034231D02*
X041165Y034231D01*
X041165Y034390D02*
X007467Y034390D01*
X005763Y032012D02*
X005111Y032012D01*
X005111Y031854D02*
X005545Y031854D01*
X005414Y031695D02*
X005111Y031695D01*
X005111Y031537D02*
X005349Y031537D01*
X005311Y031378D02*
X005111Y031378D01*
X005111Y031220D02*
X005311Y031220D01*
X005336Y031061D02*
X005111Y031061D01*
X005111Y030903D02*
X005402Y030903D01*
X005515Y030744D02*
X005111Y030744D01*
X005111Y030586D02*
X005689Y030586D01*
X008292Y028050D02*
X009965Y028050D01*
X010816Y026820D02*
X010816Y025664D01*
X012790Y024404D02*
X013337Y024404D01*
X012121Y023612D02*
X011735Y023612D01*
X011877Y023453D02*
X011987Y023453D01*
X012471Y023136D02*
X012511Y023136D01*
X012511Y022978D02*
X012471Y022978D01*
X012471Y022819D02*
X012511Y022819D01*
X012511Y022661D02*
X012471Y022661D01*
X012200Y022661D02*
X011640Y022661D01*
X011838Y022819D02*
X012024Y022819D01*
X011941Y022978D02*
X011920Y022978D01*
X012239Y021551D02*
X009402Y021551D01*
X009424Y021393D02*
X011491Y021393D01*
X011297Y021234D02*
X009424Y021234D01*
X009424Y021076D02*
X011138Y021076D01*
X010980Y020917D02*
X009424Y020917D01*
X009423Y020759D02*
X010821Y020759D01*
X010708Y019966D02*
X020451Y019966D01*
X020451Y019808D02*
X010549Y019808D01*
X010391Y019649D02*
X020451Y019649D01*
X020451Y019491D02*
X010232Y019491D01*
X010181Y019332D02*
X020451Y019332D01*
X020451Y019174D02*
X010181Y019174D01*
X010181Y019015D02*
X020451Y019015D01*
X020419Y018857D02*
X010181Y018857D01*
X010505Y018064D02*
X015583Y018064D01*
X016229Y017906D02*
X010663Y017906D01*
X010822Y017747D02*
X016201Y017747D01*
X016201Y017589D02*
X010930Y017589D01*
X010931Y017430D02*
X016201Y017430D01*
X016201Y017272D02*
X010931Y017272D01*
X010931Y017113D02*
X016201Y017113D01*
X016182Y016955D02*
X015699Y016955D01*
X015858Y016796D02*
X016024Y016796D01*
X016699Y016955D02*
X017182Y016955D01*
X017201Y017113D02*
X016681Y017113D01*
X016681Y017272D02*
X017226Y017272D01*
X017368Y017430D02*
X016681Y017430D01*
X016681Y017589D02*
X017526Y017589D01*
X017691Y017414D02*
X017441Y017164D01*
X017441Y016464D01*
X017024Y016796D02*
X016858Y016796D01*
X017691Y017414D02*
X019691Y017414D01*
X019980Y017747D02*
X028786Y017747D01*
X028786Y017589D02*
X020730Y017589D01*
X020889Y017430D02*
X028839Y017430D01*
X028958Y017272D02*
X021047Y017272D01*
X021431Y016796D02*
X028797Y016796D01*
X028786Y016638D02*
X021431Y016638D01*
X021431Y016479D02*
X028818Y016479D01*
X028909Y016321D02*
X021431Y016321D01*
X021431Y016162D02*
X029134Y016162D01*
X028906Y016004D02*
X021431Y016004D01*
X021431Y015845D02*
X028817Y015845D01*
X028786Y015687D02*
X021431Y015687D01*
X021431Y015528D02*
X028798Y015528D01*
X028864Y015370D02*
X021431Y015370D01*
X021431Y015211D02*
X021616Y015211D01*
X021583Y015053D02*
X021431Y015053D01*
X020878Y014601D02*
X020691Y014414D01*
X020691Y013914D01*
X020333Y013943D02*
X018001Y013943D01*
X018159Y013785D02*
X020333Y013785D01*
X020333Y014102D02*
X017842Y014102D01*
X017684Y014260D02*
X020415Y014260D01*
X020451Y014419D02*
X017681Y014419D01*
X017681Y014577D02*
X020515Y014577D01*
X020576Y014736D02*
X017681Y014736D01*
X017721Y014894D02*
X018161Y014894D01*
X018002Y015053D02*
X017879Y015053D01*
X017441Y015364D02*
X017441Y014664D01*
X017480Y013785D02*
X011159Y013785D01*
X011431Y013151D02*
X020951Y013151D01*
X020951Y012992D02*
X011431Y012992D01*
X011431Y012834D02*
X020951Y012834D01*
X020951Y012675D02*
X011431Y012675D01*
X011431Y012517D02*
X011976Y012517D01*
X011826Y012358D02*
X011431Y012358D01*
X011431Y012200D02*
X011826Y012200D01*
X011826Y012041D02*
X011431Y012041D01*
X011561Y011883D02*
X011904Y011883D01*
X011566Y011539D02*
X012816Y011539D01*
X012941Y011414D01*
X013066Y011414D01*
X013424Y011407D02*
X013468Y011407D01*
X013424Y011249D02*
X013710Y011249D01*
X013365Y011090D02*
X015161Y011090D01*
X015161Y010932D02*
X014652Y010932D01*
X014735Y010773D02*
X015161Y010773D01*
X015161Y010615D02*
X014746Y010615D01*
X014694Y010456D02*
X015161Y010456D01*
X015161Y010298D02*
X014540Y010298D01*
X014409Y010084D02*
X013722Y010084D01*
X013568Y010020D01*
X013450Y009902D01*
X013386Y009747D01*
X013386Y009580D01*
X013450Y009426D01*
X013568Y009308D01*
X013722Y009244D01*
X014409Y009244D01*
X014564Y009308D01*
X014682Y009426D01*
X014746Y009580D01*
X014746Y009747D01*
X014682Y009902D01*
X014564Y010020D01*
X014409Y010084D01*
X014603Y009981D02*
X015161Y009981D01*
X015161Y010139D02*
X012614Y010139D01*
X012607Y010153D02*
X012564Y010211D01*
X012514Y010262D01*
X012455Y010305D01*
X012391Y010337D01*
X012323Y010360D01*
X012252Y010371D01*
X012224Y010371D01*
X012224Y009922D01*
X012207Y009922D01*
X012207Y009905D01*
X011759Y009905D01*
X011759Y009878D01*
X011770Y009807D01*
X011792Y009738D01*
X011825Y009674D01*
X011867Y009616D01*
X011918Y009565D01*
X011976Y009523D01*
X012040Y009490D01*
X012109Y009468D01*
X012180Y009456D01*
X012207Y009456D01*
X012207Y009905D01*
X012224Y009905D01*
X012224Y009456D01*
X012252Y009456D01*
X012323Y009468D01*
X012391Y009490D01*
X012455Y009523D01*
X012514Y009565D01*
X012564Y009616D01*
X012607Y009674D01*
X012639Y009738D01*
X012662Y009807D01*
X012673Y009878D01*
X012673Y009905D01*
X012224Y009905D01*
X012224Y009922D01*
X012673Y009922D01*
X012673Y009950D01*
X012662Y010021D01*
X012639Y010089D01*
X012607Y010153D01*
X012668Y009981D02*
X013529Y009981D01*
X013417Y009822D02*
X012664Y009822D01*
X012599Y009664D02*
X013386Y009664D01*
X013417Y009505D02*
X012421Y009505D01*
X012224Y009505D02*
X012207Y009505D01*
X012207Y009664D02*
X012224Y009664D01*
X012207Y009822D02*
X012224Y009822D01*
X012207Y009922D02*
X011759Y009922D01*
X011759Y009950D01*
X011770Y010021D01*
X011792Y010089D01*
X011825Y010153D01*
X011867Y010211D01*
X011918Y010262D01*
X011976Y010305D01*
X012040Y010337D01*
X012109Y010360D01*
X012180Y010371D01*
X012207Y010371D01*
X012207Y009922D01*
X012207Y009981D02*
X012224Y009981D01*
X012207Y010139D02*
X012224Y010139D01*
X012207Y010298D02*
X012224Y010298D01*
X012465Y010298D02*
X013592Y010298D01*
X013437Y010456D02*
X008251Y010456D01*
X008272Y010298D02*
X009200Y010298D01*
X009036Y010139D02*
X008611Y010139D01*
X008770Y009981D02*
X008979Y009981D01*
X008980Y009822D02*
X008928Y009822D01*
X009096Y009505D02*
X009260Y009505D01*
X009096Y009347D02*
X013529Y009347D01*
X013637Y009071D02*
X013575Y009040D01*
X013519Y008999D01*
X013470Y008950D01*
X013429Y008894D01*
X013398Y008833D01*
X013377Y008767D01*
X013366Y008698D01*
X013366Y008664D01*
X014066Y008664D01*
X014066Y008664D01*
X014066Y009104D01*
X014360Y009104D01*
X014429Y009093D01*
X014495Y009071D01*
X014556Y009040D01*
X014612Y008999D01*
X014661Y008950D01*
X014702Y008894D01*
X014734Y008833D01*
X014755Y008767D01*
X014766Y008698D01*
X014766Y008664D01*
X014066Y008664D01*
X014066Y008664D01*
X014066Y009104D01*
X013771Y009104D01*
X013703Y009093D01*
X013637Y009071D01*
X013561Y009030D02*
X012643Y009030D01*
X012519Y009154D02*
X012113Y009154D01*
X011826Y008867D01*
X011826Y008461D01*
X012113Y008174D01*
X012519Y008174D01*
X012806Y008461D01*
X012806Y008867D01*
X012519Y009154D01*
X012801Y008871D02*
X013418Y008871D01*
X013368Y008713D02*
X012806Y008713D01*
X012806Y008554D02*
X013379Y008554D01*
X013377Y008561D02*
X013398Y008495D01*
X013429Y008433D01*
X013470Y008377D01*
X013519Y008328D01*
X013575Y008287D01*
X013637Y008256D01*
X013703Y008234D01*
X013771Y008224D01*
X014066Y008224D01*
X014360Y008224D01*
X014429Y008234D01*
X014495Y008256D01*
X014556Y008287D01*
X014612Y008328D01*
X014661Y008377D01*
X014702Y008433D01*
X014734Y008495D01*
X014755Y008561D01*
X014766Y008629D01*
X014766Y008664D01*
X014066Y008664D01*
X014066Y008664D01*
X014066Y008224D01*
X014066Y008664D01*
X014066Y008664D01*
X013366Y008664D01*
X013366Y008629D01*
X013377Y008561D01*
X013457Y008396D02*
X012741Y008396D01*
X012582Y008237D02*
X013695Y008237D01*
X014066Y008237D02*
X014066Y008237D01*
X014066Y008396D02*
X014066Y008396D01*
X014066Y008554D02*
X014066Y008554D01*
X014066Y008713D02*
X014066Y008713D01*
X014066Y008871D02*
X014066Y008871D01*
X014066Y009030D02*
X014066Y009030D01*
X014571Y009030D02*
X015161Y009030D01*
X015161Y009188D02*
X009096Y009188D01*
X009643Y009030D02*
X011989Y009030D01*
X011830Y008871D02*
X009801Y008871D01*
X009806Y008713D02*
X011826Y008713D01*
X011826Y008554D02*
X009806Y008554D01*
X009741Y008396D02*
X011891Y008396D01*
X012049Y008237D02*
X009582Y008237D01*
X009661Y007762D02*
X011971Y007762D01*
X012113Y007904D02*
X011826Y007617D01*
X011826Y007211D01*
X012113Y006924D01*
X012519Y006924D01*
X012806Y007211D01*
X012806Y007617D01*
X012519Y007904D01*
X012113Y007904D01*
X011826Y007603D02*
X009806Y007603D01*
X009806Y007445D02*
X011826Y007445D01*
X011826Y007286D02*
X009806Y007286D01*
X009723Y007128D02*
X011909Y007128D01*
X012067Y006969D02*
X009564Y006969D01*
X009067Y006969D02*
X006931Y006969D01*
X006931Y007128D02*
X008909Y007128D01*
X008672Y007286D02*
X006897Y007286D01*
X006831Y007445D02*
X008514Y007445D01*
X008413Y007603D02*
X006707Y007603D01*
X006504Y007762D02*
X008411Y007762D01*
X008411Y007920D02*
X005111Y007920D01*
X005111Y007762D02*
X005738Y007762D01*
X005535Y007603D02*
X005111Y007603D01*
X005111Y007445D02*
X005410Y007445D01*
X005344Y007286D02*
X005111Y007286D01*
X005111Y007128D02*
X005311Y007128D01*
X005311Y006969D02*
X005111Y006969D01*
X005111Y006811D02*
X005341Y006811D01*
X005406Y006652D02*
X005111Y006652D01*
X005111Y006494D02*
X005525Y006494D01*
X005715Y006335D02*
X005111Y006335D01*
X006527Y006335D02*
X015498Y006335D01*
X015532Y006301D02*
X015635Y006259D01*
X016825Y006259D01*
X017578Y005505D01*
X017657Y005426D01*
X017760Y005384D01*
X019502Y005384D01*
X019517Y005369D01*
X019865Y005369D01*
X020111Y005615D01*
X020111Y005963D01*
X019865Y006209D01*
X019517Y006209D01*
X019271Y005963D01*
X019271Y005944D01*
X017932Y005944D01*
X017099Y006776D01*
X016996Y006819D01*
X015807Y006819D01*
X015721Y006905D01*
X015721Y011298D01*
X015807Y011384D01*
X016492Y011384D01*
X016568Y011308D01*
X016722Y011244D01*
X017409Y011244D01*
X017564Y011308D01*
X017682Y011426D01*
X017746Y011580D01*
X017746Y011747D01*
X017682Y011902D01*
X017564Y012020D01*
X017409Y012084D01*
X016722Y012084D01*
X016568Y012020D01*
X016492Y011944D01*
X015635Y011944D01*
X015532Y011901D01*
X015282Y011651D01*
X015203Y011572D01*
X015161Y011469D01*
X015161Y006733D01*
X015203Y006630D01*
X015453Y006380D01*
X015532Y006301D01*
X015340Y006494D02*
X006716Y006494D01*
X006835Y006652D02*
X015194Y006652D01*
X015161Y006811D02*
X006901Y006811D01*
X006625Y006177D02*
X010360Y006177D01*
X010392Y006209D02*
X010146Y005963D01*
X010146Y005615D01*
X010392Y005369D01*
X010740Y005369D01*
X010986Y005615D01*
X010986Y005963D01*
X010740Y006209D01*
X010392Y006209D01*
X010201Y006018D02*
X009305Y006018D01*
X009240Y006084D02*
X009486Y005838D01*
X009486Y005490D01*
X009240Y005244D01*
X008892Y005244D01*
X008646Y005490D01*
X008646Y005838D01*
X008892Y006084D01*
X009240Y006084D01*
X009464Y005860D02*
X010146Y005860D01*
X010146Y005701D02*
X009486Y005701D01*
X009486Y005543D02*
X010218Y005543D01*
X010376Y005384D02*
X009380Y005384D01*
X009248Y005104D02*
X009066Y005104D01*
X009066Y004664D01*
X009066Y004664D01*
X009506Y004664D01*
X009506Y004846D01*
X009248Y005104D01*
X009285Y005067D02*
X014972Y005067D01*
X015008Y005104D02*
X014751Y004846D01*
X014751Y004664D01*
X015191Y004664D01*
X015191Y004664D01*
X015191Y005104D01*
X015373Y005104D01*
X015631Y004846D01*
X015631Y004664D01*
X015191Y004664D01*
X015191Y004664D01*
X015191Y005104D01*
X015008Y005104D01*
X015017Y005244D02*
X015365Y005244D01*
X015611Y005490D01*
X015611Y005838D01*
X015365Y006084D01*
X015017Y006084D01*
X014771Y005838D01*
X014771Y005490D01*
X015017Y005244D01*
X014876Y005384D02*
X013755Y005384D01*
X013740Y005369D02*
X013986Y005615D01*
X013986Y005963D01*
X013740Y006209D01*
X013392Y006209D01*
X013146Y005963D01*
X013146Y005615D01*
X013392Y005369D01*
X013740Y005369D01*
X013914Y005543D02*
X014771Y005543D01*
X014771Y005701D02*
X013986Y005701D01*
X013986Y005860D02*
X014793Y005860D01*
X014951Y006018D02*
X013930Y006018D01*
X013772Y006177D02*
X016485Y006177D01*
X016517Y006209D02*
X016271Y005963D01*
X016271Y005615D01*
X016517Y005369D01*
X016865Y005369D01*
X017111Y005615D01*
X017111Y005963D01*
X016865Y006209D01*
X016517Y006209D01*
X016326Y006018D02*
X015430Y006018D01*
X015589Y005860D02*
X016271Y005860D01*
X016271Y005701D02*
X015611Y005701D01*
X015611Y005543D02*
X016343Y005543D01*
X016501Y005384D02*
X015505Y005384D01*
X015410Y005067D02*
X021522Y005067D01*
X021522Y004909D02*
X015568Y004909D01*
X015631Y004750D02*
X021525Y004750D01*
X021525Y004749D02*
X021531Y004729D01*
X021539Y004709D01*
X021549Y004691D01*
X021562Y004675D01*
X021577Y004660D01*
X021593Y004647D01*
X021611Y004637D01*
X021631Y004628D01*
X021651Y004623D01*
X021672Y004620D01*
X021880Y004620D01*
X021880Y004097D01*
X021883Y004076D01*
X021888Y004056D01*
X021896Y004037D01*
X021907Y004019D01*
X021920Y004002D01*
X021935Y003987D01*
X021951Y003974D01*
X021969Y003964D01*
X021989Y003956D01*
X022009Y003950D01*
X022030Y003948D01*
X026960Y003948D01*
X026980Y003950D01*
X027001Y003956D01*
X027020Y003964D01*
X027038Y003974D01*
X027055Y003987D01*
X027070Y004002D01*
X027082Y004019D01*
X027093Y004037D01*
X027101Y004056D01*
X027106Y004076D01*
X027109Y004097D01*
X027109Y004807D01*
X027106Y004828D01*
X027101Y004849D01*
X027093Y004868D01*
X027082Y004886D01*
X027070Y004903D01*
X027055Y004918D01*
X027038Y004930D01*
X027020Y004941D01*
X027001Y004949D01*
X026980Y004954D01*
X026960Y004957D01*
X025103Y004957D01*
X025103Y005480D01*
X025100Y005501D01*
X025095Y005521D01*
X025087Y005541D01*
X025076Y005559D01*
X025064Y005575D01*
X025049Y005590D01*
X025032Y005603D01*
X025014Y005613D01*
X024995Y005621D01*
X024974Y005627D01*
X024954Y005630D01*
X021672Y005630D01*
X021651Y005627D01*
X021631Y005621D01*
X021611Y005613D01*
X021593Y005603D01*
X021577Y005590D01*
X021562Y005575D01*
X021549Y005559D01*
X021539Y005541D01*
X021531Y005521D01*
X021525Y005501D01*
X021522Y005480D01*
X021522Y004770D01*
X021525Y004749D01*
X021880Y004592D02*
X015631Y004592D01*
X015631Y004664D02*
X015191Y004664D01*
X015191Y004664D01*
X015191Y004224D01*
X015373Y004224D01*
X015631Y004481D01*
X015631Y004664D01*
X015582Y004433D02*
X021880Y004433D01*
X021880Y004275D02*
X015424Y004275D01*
X015191Y004275D02*
X015191Y004275D01*
X015191Y004224D02*
X015191Y004664D01*
X015191Y004664D01*
X014751Y004664D01*
X014751Y004481D01*
X015008Y004224D01*
X015191Y004224D01*
X015191Y004433D02*
X015191Y004433D01*
X015191Y004592D02*
X015191Y004592D01*
X015191Y004750D02*
X015191Y004750D01*
X015191Y004909D02*
X015191Y004909D01*
X015191Y005067D02*
X015191Y005067D01*
X014813Y004909D02*
X009443Y004909D01*
X009506Y004750D02*
X014751Y004750D01*
X014751Y004592D02*
X009506Y004592D01*
X009506Y004664D02*
X009066Y004664D01*
X009066Y004664D01*
X009066Y005104D01*
X008883Y005104D01*
X008626Y004846D01*
X008626Y004664D01*
X009066Y004664D01*
X009066Y004664D01*
X009066Y004224D01*
X009248Y004224D01*
X009506Y004481D01*
X009506Y004664D01*
X009457Y004433D02*
X014799Y004433D01*
X014958Y004275D02*
X009299Y004275D01*
X009066Y004275D02*
X009066Y004275D01*
X009066Y004224D02*
X009066Y004664D01*
X009066Y004664D01*
X008626Y004664D01*
X008626Y004481D01*
X008883Y004224D01*
X009066Y004224D01*
X009066Y004433D02*
X009066Y004433D01*
X009066Y004592D02*
X009066Y004592D01*
X009066Y004750D02*
X009066Y004750D01*
X009066Y004909D02*
X009066Y004909D01*
X009066Y005067D02*
X009066Y005067D01*
X008847Y005067D02*
X007461Y005067D01*
X007467Y004909D02*
X008688Y004909D01*
X008626Y004750D02*
X007467Y004750D01*
X007467Y004592D02*
X008626Y004592D01*
X008674Y004433D02*
X007467Y004433D01*
X007467Y004275D02*
X008833Y004275D01*
X008751Y005384D02*
X007401Y005384D01*
X007442Y005226D02*
X021522Y005226D01*
X021522Y005384D02*
X019880Y005384D01*
X020039Y005543D02*
X021540Y005543D01*
X022530Y006335D02*
X024701Y006335D01*
X024701Y006177D02*
X019897Y006177D01*
X020055Y006018D02*
X024747Y006018D01*
X024905Y005860D02*
X020111Y005860D01*
X020111Y005701D02*
X025064Y005701D01*
X025086Y005543D02*
X025222Y005543D01*
X025103Y005384D02*
X025381Y005384D01*
X025539Y005226D02*
X025103Y005226D01*
X025103Y005067D02*
X025723Y005067D01*
X025816Y005289D02*
X024941Y006164D01*
X024941Y006989D01*
X024991Y007039D01*
X027866Y007039D01*
X028030Y006652D02*
X029601Y006652D01*
X029528Y006683D02*
X029682Y006619D01*
X029849Y006619D01*
X030004Y006683D01*
X030120Y006799D01*
X032009Y006799D01*
X032041Y006721D01*
X032199Y006564D01*
X032326Y006511D01*
X032326Y006491D01*
X032362Y006403D01*
X032430Y006335D01*
X025181Y006335D01*
X025181Y006263D02*
X025181Y006511D01*
X025308Y006564D01*
X025465Y006721D01*
X025497Y006799D01*
X027512Y006799D01*
X027628Y006683D01*
X027782Y006619D01*
X027949Y006619D01*
X028104Y006683D01*
X028222Y006801D01*
X028286Y006955D01*
X028286Y007122D01*
X028222Y007277D01*
X028104Y007395D01*
X027949Y007459D01*
X027782Y007459D01*
X027628Y007395D01*
X027512Y007279D01*
X025497Y007279D01*
X025465Y007356D01*
X025308Y007513D01*
X025102Y007599D01*
X024879Y007599D01*
X024674Y007513D01*
X024516Y007356D01*
X024450Y007196D01*
X024428Y007261D01*
X024387Y007343D01*
X024333Y007416D01*
X024269Y007481D01*
X024195Y007535D01*
X024113Y007576D01*
X024027Y007604D01*
X023936Y007619D01*
X023911Y007619D01*
X024030Y007603D02*
X033476Y007603D01*
X033480Y007604D02*
X033393Y007576D01*
X033312Y007535D01*
X033238Y007481D01*
X033173Y007416D01*
X033120Y007343D01*
X033078Y007261D01*
X033057Y007196D01*
X032990Y007356D01*
X032833Y007513D01*
X032627Y007599D01*
X032404Y007599D01*
X032199Y007513D01*
X032041Y007356D01*
X032009Y007279D01*
X030120Y007279D01*
X030004Y007395D01*
X029849Y007459D01*
X029682Y007459D01*
X029528Y007395D01*
X029410Y007277D01*
X029346Y007122D01*
X029346Y006955D01*
X029410Y006801D01*
X029528Y006683D01*
X029406Y006811D02*
X028226Y006811D01*
X028286Y006969D02*
X029346Y006969D01*
X029348Y007128D02*
X028283Y007128D01*
X028212Y007286D02*
X029419Y007286D01*
X029648Y007445D02*
X027983Y007445D01*
X027748Y007445D02*
X025377Y007445D01*
X025494Y007286D02*
X027519Y007286D01*
X027701Y006652D02*
X025396Y006652D01*
X025181Y006494D02*
X032326Y006494D01*
X032430Y006335D02*
X032680Y006085D01*
X032768Y006049D01*
X033958Y006049D01*
X033958Y006024D01*
X034051Y005931D01*
X034580Y005931D01*
X034674Y006024D01*
X034674Y006553D01*
X034580Y006647D01*
X034051Y006647D01*
X033958Y006553D01*
X033958Y006529D01*
X033892Y006529D01*
X033920Y006543D01*
X033994Y006596D01*
X034058Y006661D01*
X034112Y006735D01*
X034153Y006816D01*
X034181Y006903D01*
X034196Y006993D01*
X034196Y007019D01*
X033636Y007019D01*
X033636Y007059D01*
X033596Y007059D01*
X033596Y007619D01*
X033570Y007619D01*
X033480Y007604D01*
X033596Y007603D02*
X033636Y007603D01*
X033636Y007619D02*
X033636Y007059D01*
X034196Y007059D01*
X034196Y007084D01*
X034181Y007174D01*
X034153Y007261D01*
X034112Y007343D01*
X034058Y007416D01*
X033994Y007481D01*
X033920Y007535D01*
X033838Y007576D01*
X033752Y007604D01*
X033661Y007619D01*
X033636Y007619D01*
X033755Y007603D02*
X043521Y007603D01*
X043521Y007445D02*
X034030Y007445D01*
X034141Y007286D02*
X043521Y007286D01*
X043521Y007128D02*
X034189Y007128D01*
X034192Y006969D02*
X043521Y006969D01*
X043521Y006811D02*
X034151Y006811D01*
X034049Y006652D02*
X043521Y006652D01*
X043521Y006494D02*
X034674Y006494D01*
X034674Y006335D02*
X043521Y006335D01*
X043521Y006252D02*
X042456Y006252D01*
X042453Y006254D01*
X042423Y006252D01*
X042393Y006252D01*
X042391Y006249D01*
X042279Y006241D01*
X042273Y006245D01*
X042246Y006239D01*
X042219Y006237D01*
X042215Y006232D01*
X042102Y006208D01*
X042096Y006210D01*
X042071Y006201D01*
X042044Y006195D01*
X042040Y006189D01*
X041932Y006149D01*
X041926Y006151D01*
X041902Y006138D01*
X041876Y006128D01*
X041874Y006122D01*
X041772Y006067D01*
X041766Y006068D01*
X041744Y006051D01*
X041720Y006038D01*
X041718Y006032D01*
X041626Y005963D01*
X041619Y005963D01*
X041600Y005944D01*
X041578Y005927D01*
X041577Y005921D01*
X041496Y005839D01*
X041489Y005838D01*
X041473Y005816D01*
X041453Y005797D01*
X041453Y005791D01*
X041384Y005698D01*
X041378Y005696D01*
X041365Y005672D01*
X041348Y005650D01*
X041349Y005644D01*
X041294Y005543D01*
X041288Y005540D01*
X041279Y005514D01*
X041266Y005490D01*
X041267Y005484D01*
X041227Y005376D01*
X041222Y005373D01*
X041216Y005346D01*
X041206Y005320D01*
X041209Y005314D01*
X041184Y005202D01*
X041179Y005197D01*
X041178Y005170D01*
X041172Y005143D01*
X041175Y005138D01*
X041167Y005026D01*
X041165Y005024D01*
X041165Y004993D01*
X041163Y004963D01*
X041165Y004961D01*
X041165Y003896D01*
X039523Y003896D01*
X039528Y003912D01*
X039530Y003933D01*
X039530Y005079D01*
X039528Y005099D01*
X039522Y005120D01*
X039514Y005139D01*
X039504Y005157D01*
X039491Y005174D01*
X039476Y005189D01*
X039459Y005201D01*
X039441Y005212D01*
X039422Y005220D01*
X039402Y005225D01*
X039381Y005228D01*
X034674Y005228D01*
X034674Y005553D01*
X034580Y005647D01*
X034051Y005647D01*
X033958Y005553D01*
X033958Y005529D01*
X025915Y005529D01*
X025181Y006263D01*
X025267Y006177D02*
X032588Y006177D01*
X032816Y006289D02*
X032566Y006539D01*
X032566Y006989D01*
X032516Y007039D01*
X029766Y007039D01*
X029930Y006652D02*
X032110Y006652D01*
X032012Y007286D02*
X030112Y007286D01*
X029883Y007445D02*
X032130Y007445D01*
X032902Y007445D02*
X033202Y007445D01*
X033091Y007286D02*
X033019Y007286D01*
X033596Y007286D02*
X033636Y007286D01*
X033636Y007128D02*
X033596Y007128D01*
X033596Y007445D02*
X033636Y007445D01*
X034316Y006289D02*
X032816Y006289D01*
X033964Y006018D02*
X025426Y006018D01*
X025584Y005860D02*
X041516Y005860D01*
X041386Y005701D02*
X025743Y005701D01*
X025901Y005543D02*
X033958Y005543D01*
X034316Y005289D02*
X025816Y005289D01*
X027064Y004909D02*
X028186Y004909D01*
X028186Y004750D02*
X027109Y004750D01*
X027109Y004592D02*
X028186Y004592D01*
X028186Y004433D02*
X027109Y004433D01*
X027109Y004275D02*
X028186Y004275D01*
X028186Y004116D02*
X027109Y004116D01*
X027005Y003958D02*
X028186Y003958D01*
X024701Y006494D02*
X024090Y006494D01*
X023911Y006494D02*
X023871Y006494D01*
X023871Y006652D02*
X023911Y006652D01*
X023911Y006811D02*
X023871Y006811D01*
X023871Y006969D02*
X023911Y006969D01*
X023911Y007128D02*
X023871Y007128D01*
X023871Y007286D02*
X023911Y007286D01*
X023911Y007445D02*
X023871Y007445D01*
X023477Y007445D02*
X022530Y007445D01*
X022530Y007286D02*
X023366Y007286D01*
X023318Y007128D02*
X022530Y007128D01*
X022530Y006969D02*
X023315Y006969D01*
X023356Y006811D02*
X022530Y006811D01*
X022530Y006652D02*
X023457Y006652D01*
X023691Y006494D02*
X022530Y006494D01*
X024324Y006652D02*
X024585Y006652D01*
X024479Y006811D02*
X024426Y006811D01*
X024416Y007286D02*
X024487Y007286D01*
X024605Y007445D02*
X024305Y007445D01*
X025432Y009188D02*
X027622Y009188D01*
X028109Y009188D02*
X029522Y009188D01*
X029391Y009347D02*
X028241Y009347D01*
X028286Y009505D02*
X029346Y009505D01*
X029363Y009664D02*
X028269Y009664D01*
X028176Y009822D02*
X029455Y009822D01*
X030326Y010298D02*
X021431Y010298D01*
X021431Y010456D02*
X030326Y010456D01*
X030806Y010456D02*
X035463Y010456D01*
X035398Y010298D02*
X030806Y010298D01*
X030806Y010139D02*
X032200Y010139D01*
X032041Y009981D02*
X030806Y009981D01*
X030806Y009822D02*
X031975Y009822D01*
X031956Y009664D02*
X030806Y009664D01*
X030608Y009188D02*
X030523Y009188D01*
X030806Y010615D02*
X035620Y010615D01*
X035557Y010773D02*
X030806Y010773D01*
X030806Y010932D02*
X035438Y010932D01*
X035386Y011090D02*
X030806Y011090D01*
X031674Y011883D02*
X035458Y011883D01*
X035386Y010139D02*
X033948Y010139D01*
X034102Y009981D02*
X035418Y009981D01*
X035508Y009822D02*
X034174Y009822D01*
X034174Y009505D02*
X035508Y009505D01*
X035466Y009464D02*
X035386Y009269D01*
X035386Y009058D01*
X035386Y009188D02*
X033948Y009188D01*
X034102Y009347D02*
X035418Y009347D01*
X035466Y009464D02*
X035616Y009613D01*
X035738Y009664D01*
X035463Y008871D02*
X020988Y008871D01*
X020829Y008713D02*
X035620Y008713D01*
X033636Y009822D02*
X033596Y009822D01*
X033596Y009981D02*
X033636Y009981D01*
X033636Y010139D02*
X033596Y010139D01*
X030326Y012834D02*
X021431Y012834D01*
X021431Y012992D02*
X030326Y012992D01*
X031181Y014102D02*
X035038Y014102D01*
X031505Y014260D02*
X031181Y014260D01*
X031181Y014419D02*
X031346Y014419D01*
X031188Y014577D02*
X031181Y014577D01*
X030326Y015053D02*
X022299Y015053D01*
X022266Y015211D02*
X029023Y015211D01*
X029608Y015211D02*
X030326Y015211D01*
X030326Y015370D02*
X029768Y015370D01*
X029833Y015528D02*
X030326Y015528D01*
X030326Y015687D02*
X029846Y015687D01*
X029814Y015845D02*
X030326Y015845D01*
X030326Y016004D02*
X029725Y016004D01*
X029497Y016162D02*
X030326Y016162D01*
X030326Y016321D02*
X029722Y016321D01*
X029813Y016479D02*
X030326Y016479D01*
X030326Y016638D02*
X029846Y016638D01*
X029835Y016796D02*
X030326Y016796D01*
X030326Y016955D02*
X029769Y016955D01*
X029615Y017113D02*
X030326Y017113D01*
X030326Y017272D02*
X029673Y017272D01*
X029793Y017430D02*
X030326Y017430D01*
X030326Y017589D02*
X029846Y017589D01*
X029846Y017747D02*
X030326Y017747D01*
X030326Y017906D02*
X029789Y017906D01*
X029665Y018064D02*
X030326Y018064D01*
X030326Y018223D02*
X029624Y018223D01*
X029772Y018381D02*
X030326Y018381D01*
X030326Y018540D02*
X029838Y018540D01*
X029846Y018698D02*
X030326Y018698D01*
X030326Y018857D02*
X029809Y018857D01*
X029714Y019015D02*
X030250Y019015D01*
X030091Y019174D02*
X029518Y019174D01*
X029734Y019332D02*
X029933Y019332D01*
X030941Y020289D02*
X030566Y020664D01*
X029316Y020664D01*
X028834Y020442D02*
X026073Y020442D01*
X026202Y020600D02*
X028786Y020600D01*
X028786Y020759D02*
X026246Y020759D01*
X026227Y020917D02*
X028847Y020917D01*
X028978Y021076D02*
X026133Y021076D01*
X028842Y017906D02*
X020147Y017906D01*
X020016Y016464D02*
X018441Y016464D01*
X018889Y016162D02*
X019978Y016162D01*
X020136Y016004D02*
X018730Y016004D01*
X018709Y015845D02*
X020295Y015845D01*
X020453Y015687D02*
X018867Y015687D01*
X018971Y015528D02*
X020576Y015528D01*
X020576Y015370D02*
X018971Y015370D01*
X018971Y015211D02*
X020576Y015211D01*
X020576Y015053D02*
X018879Y015053D01*
X018721Y014894D02*
X020576Y014894D01*
X020816Y014664D02*
X020878Y014601D01*
X021441Y014039D01*
X029066Y014039D01*
X028708Y013151D02*
X021431Y013151D01*
X021191Y013414D02*
X018191Y013414D01*
X019583Y012428D02*
X019583Y011899D01*
X019676Y011806D01*
X019701Y011806D01*
X019701Y010904D01*
X017680Y010904D01*
X017564Y011020D01*
X017409Y011084D01*
X016722Y011084D01*
X016568Y011020D01*
X016450Y010902D01*
X016386Y010747D01*
X016386Y010580D01*
X016450Y010426D01*
X016568Y010308D01*
X016722Y010244D01*
X017409Y010244D01*
X017564Y010308D01*
X017680Y010424D01*
X019863Y010424D01*
X019952Y010460D01*
X020077Y010585D01*
X020144Y010653D01*
X020181Y010741D01*
X020181Y011806D01*
X020205Y011806D01*
X020299Y011899D01*
X020299Y012428D01*
X020205Y012522D01*
X019676Y012522D01*
X019583Y012428D01*
X019583Y012358D02*
X012806Y012358D01*
X012806Y012200D02*
X019583Y012200D01*
X019583Y012041D02*
X017512Y012041D01*
X017690Y011883D02*
X019599Y011883D01*
X019701Y011724D02*
X017746Y011724D01*
X017740Y011566D02*
X019701Y011566D01*
X019701Y011407D02*
X017663Y011407D01*
X017421Y011249D02*
X019701Y011249D01*
X019701Y011090D02*
X015721Y011090D01*
X015721Y010932D02*
X016480Y010932D01*
X016397Y010773D02*
X015721Y010773D01*
X015721Y010615D02*
X016386Y010615D01*
X016437Y010456D02*
X015721Y010456D01*
X015721Y010298D02*
X016592Y010298D01*
X016529Y009981D02*
X015721Y009981D01*
X015721Y010139D02*
X020327Y010139D01*
X020451Y010298D02*
X017540Y010298D01*
X017603Y009981D02*
X020168Y009981D01*
X020191Y009664D02*
X020691Y010164D01*
X020691Y012289D01*
X020333Y012358D02*
X020299Y012358D01*
X020299Y012200D02*
X020333Y012200D01*
X020333Y012041D02*
X020299Y012041D01*
X020282Y011883D02*
X020451Y011883D01*
X020451Y011724D02*
X020181Y011724D01*
X020181Y011566D02*
X020451Y011566D01*
X020451Y011407D02*
X020181Y011407D01*
X020181Y011249D02*
X020451Y011249D01*
X020451Y011090D02*
X020181Y011090D01*
X020181Y010932D02*
X020451Y010932D01*
X020451Y010773D02*
X020181Y010773D01*
X020106Y010615D02*
X020451Y010615D01*
X020451Y010456D02*
X019942Y010456D01*
X019816Y010664D02*
X019941Y010789D01*
X019941Y012164D01*
X020210Y012517D02*
X020333Y012517D01*
X019671Y012517D02*
X012656Y012517D01*
X012806Y012041D02*
X013620Y012041D01*
X013442Y011883D02*
X012728Y011883D01*
X013378Y011724D02*
X013386Y011724D01*
X012708Y011249D02*
X012622Y011249D01*
X012670Y011090D02*
X012767Y011090D01*
X012224Y010932D02*
X012207Y010932D01*
X012207Y010773D02*
X012224Y010773D01*
X012207Y010615D02*
X012224Y010615D01*
X012390Y010615D02*
X013386Y010615D01*
X014421Y011249D02*
X015161Y011249D01*
X015161Y011407D02*
X014663Y011407D01*
X014740Y011566D02*
X015201Y011566D01*
X015355Y011724D02*
X014746Y011724D01*
X014690Y011883D02*
X015514Y011883D01*
X015721Y011249D02*
X016710Y011249D01*
X017066Y010664D02*
X019816Y010664D01*
X019701Y010932D02*
X017652Y010932D01*
X017066Y009664D02*
X020191Y009664D01*
X020372Y009505D02*
X020943Y009505D01*
X020951Y009664D02*
X020530Y009664D01*
X020689Y009822D02*
X020951Y009822D01*
X020951Y009981D02*
X020847Y009981D01*
X020931Y010139D02*
X020951Y010139D01*
X020951Y010298D02*
X020931Y010298D01*
X020931Y010456D02*
X020951Y010456D01*
X020951Y010615D02*
X020931Y010615D01*
X020931Y010773D02*
X020951Y010773D01*
X020951Y010932D02*
X020931Y010932D01*
X020931Y011090D02*
X020951Y011090D01*
X020951Y011249D02*
X020931Y011249D01*
X020931Y011407D02*
X020951Y011407D01*
X020951Y011566D02*
X020931Y011566D01*
X020931Y011724D02*
X020951Y011724D01*
X020951Y011883D02*
X020931Y011883D01*
X023167Y010932D02*
X023215Y010932D01*
X023281Y010773D02*
X023101Y010773D01*
X023525Y012517D02*
X023699Y012517D01*
X020816Y014664D02*
X020816Y015664D01*
X020016Y016464D01*
X018151Y016004D02*
X017730Y016004D01*
X017709Y015845D02*
X018173Y015845D01*
X018014Y015687D02*
X017867Y015687D01*
X017889Y016162D02*
X017993Y016162D01*
X016620Y012041D02*
X014512Y012041D01*
X011810Y011249D02*
X009802Y011249D01*
X009768Y010773D02*
X011844Y010773D01*
X012041Y010615D02*
X009534Y010615D01*
X009297Y010615D02*
X008288Y010615D01*
X007971Y011090D02*
X006563Y011090D01*
X006580Y011097D02*
X006807Y011325D01*
X006931Y011623D01*
X006931Y011945D01*
X006807Y012242D01*
X006580Y012470D01*
X006282Y012594D01*
X005960Y012594D01*
X005662Y012470D01*
X005434Y012242D01*
X005311Y011945D01*
X005311Y011623D01*
X005434Y011325D01*
X005662Y011097D01*
X005960Y010974D01*
X006282Y010974D01*
X006580Y011097D01*
X006731Y011249D02*
X009030Y011249D01*
X009136Y011407D02*
X006842Y011407D01*
X006907Y011566D02*
X009136Y011566D01*
X009062Y011724D02*
X006931Y011724D01*
X006931Y011883D02*
X008904Y011883D01*
X008826Y012041D02*
X006891Y012041D01*
X006825Y012200D02*
X008826Y012200D01*
X008826Y012358D02*
X006692Y012358D01*
X006468Y012517D02*
X008976Y012517D01*
X007813Y010932D02*
X005111Y010932D01*
X005111Y011090D02*
X005678Y011090D01*
X005510Y011249D02*
X005111Y011249D01*
X005111Y011407D02*
X005400Y011407D01*
X005334Y011566D02*
X005111Y011566D01*
X005111Y011724D02*
X005311Y011724D01*
X005311Y011883D02*
X005111Y011883D01*
X005111Y012041D02*
X005351Y012041D01*
X005416Y012200D02*
X005111Y012200D01*
X005111Y012358D02*
X005550Y012358D01*
X005774Y012517D02*
X005111Y012517D01*
X005111Y010773D02*
X007701Y010773D01*
X007691Y010615D02*
X005111Y010615D01*
X005111Y010456D02*
X007691Y010456D01*
X007670Y010298D02*
X007492Y010298D01*
X006890Y010298D02*
X005111Y010298D01*
X005111Y010139D02*
X006757Y010139D01*
X006701Y009981D02*
X005111Y009981D01*
X005111Y009822D02*
X006701Y009822D01*
X006761Y009664D02*
X005111Y009664D01*
X005111Y009505D02*
X006898Y009505D01*
X006908Y009347D02*
X005111Y009347D01*
X005111Y009188D02*
X006754Y009188D01*
X006692Y009030D02*
X005111Y009030D01*
X005111Y008871D02*
X006682Y008871D01*
X006725Y008713D02*
X005111Y008713D01*
X005111Y008554D02*
X006837Y008554D01*
X007181Y008554D02*
X007201Y008554D01*
X007201Y008713D02*
X007181Y008713D01*
X007181Y008871D02*
X007201Y008871D01*
X007545Y008554D02*
X007645Y008554D01*
X008296Y008554D02*
X008411Y008554D01*
X008411Y008396D02*
X005111Y008396D01*
X005111Y008237D02*
X008411Y008237D01*
X008411Y008079D02*
X005111Y008079D01*
X006932Y006018D02*
X008826Y006018D01*
X008668Y005860D02*
X007115Y005860D01*
X007245Y005701D02*
X008646Y005701D01*
X008646Y005543D02*
X007338Y005543D01*
X007467Y004116D02*
X021880Y004116D01*
X021984Y003958D02*
X007467Y003958D01*
X010755Y005384D02*
X013376Y005384D01*
X013218Y005543D02*
X010914Y005543D01*
X010986Y005701D02*
X013146Y005701D01*
X013146Y005860D02*
X010986Y005860D01*
X010930Y006018D02*
X013201Y006018D01*
X013360Y006177D02*
X010772Y006177D01*
X012564Y006969D02*
X015161Y006969D01*
X015161Y007128D02*
X012723Y007128D01*
X012806Y007286D02*
X015161Y007286D01*
X015161Y007445D02*
X012806Y007445D01*
X012806Y007603D02*
X015161Y007603D01*
X015161Y007762D02*
X012661Y007762D01*
X014437Y008237D02*
X015161Y008237D01*
X015161Y008079D02*
X008971Y008079D01*
X008971Y008237D02*
X009049Y008237D01*
X008971Y007920D02*
X015161Y007920D01*
X015721Y007920D02*
X018602Y007920D01*
X018602Y007762D02*
X015721Y007762D01*
X015721Y007603D02*
X018602Y007603D01*
X018602Y007445D02*
X015721Y007445D01*
X015721Y007286D02*
X018602Y007286D01*
X018602Y007128D02*
X015721Y007128D01*
X015721Y006969D02*
X018602Y006969D01*
X018602Y006811D02*
X017016Y006811D01*
X017223Y006652D02*
X018602Y006652D01*
X018602Y006494D02*
X017382Y006494D01*
X017540Y006335D02*
X018603Y006335D01*
X019326Y006018D02*
X017857Y006018D01*
X017699Y006177D02*
X019485Y006177D01*
X017759Y005384D02*
X016880Y005384D01*
X017039Y005543D02*
X017541Y005543D01*
X017382Y005701D02*
X017111Y005701D01*
X017111Y005860D02*
X017224Y005860D01*
X017065Y006018D02*
X017055Y006018D01*
X016907Y006177D02*
X016897Y006177D01*
X015721Y008079D02*
X018602Y008079D01*
X017652Y008396D02*
X043521Y008396D01*
X043521Y008554D02*
X020671Y008554D01*
X020784Y009347D02*
X017603Y009347D01*
X016529Y009347D02*
X015721Y009347D01*
X015721Y009505D02*
X016417Y009505D01*
X016386Y009664D02*
X015721Y009664D01*
X015721Y009822D02*
X016417Y009822D01*
X015161Y009822D02*
X014715Y009822D01*
X014746Y009664D02*
X015161Y009664D01*
X015161Y009505D02*
X014715Y009505D01*
X014603Y009347D02*
X015161Y009347D01*
X015161Y008871D02*
X014714Y008871D01*
X014763Y008713D02*
X015161Y008713D01*
X015161Y008554D02*
X014753Y008554D01*
X014675Y008396D02*
X015161Y008396D01*
X012010Y009505D02*
X009572Y009505D01*
X009784Y009664D02*
X011832Y009664D01*
X011767Y009822D02*
X009851Y009822D01*
X009853Y009981D02*
X011763Y009981D01*
X011818Y010139D02*
X009796Y010139D01*
X009631Y010298D02*
X011967Y010298D01*
X020931Y023612D02*
X021924Y023612D01*
X021886Y023770D02*
X020931Y023770D01*
X020931Y023929D02*
X021909Y023929D01*
X022010Y024087D02*
X020931Y024087D01*
X019086Y025514D02*
X019046Y025514D01*
X019046Y025672D02*
X019086Y025672D01*
X019086Y025831D02*
X019046Y025831D01*
X019046Y025989D02*
X019086Y025989D01*
X019086Y026148D02*
X019046Y026148D01*
X019046Y026306D02*
X019086Y026306D01*
X019086Y026465D02*
X019046Y026465D01*
X019046Y026623D02*
X019086Y026623D01*
X019086Y026782D02*
X019046Y026782D01*
X018086Y026782D02*
X018046Y026782D01*
X018046Y026623D02*
X018086Y026623D01*
X018086Y026465D02*
X018046Y026465D01*
X018046Y026306D02*
X018086Y026306D01*
X018086Y026148D02*
X018046Y026148D01*
X017597Y026623D02*
X016674Y026623D01*
X016345Y027099D02*
X017548Y027099D01*
X017635Y027257D02*
X016361Y027257D01*
X016361Y027416D02*
X017840Y027416D01*
X017656Y027574D02*
X016249Y027574D01*
X015632Y027574D02*
X015056Y027574D01*
X015056Y027416D02*
X015521Y027416D01*
X015521Y027257D02*
X015056Y027257D01*
X015094Y027099D02*
X015537Y027099D01*
X015695Y026940D02*
X015094Y026940D01*
X015056Y027733D02*
X017567Y027733D01*
X017536Y027891D02*
X015056Y027891D01*
X015056Y028050D02*
X017548Y028050D01*
X017614Y028208D02*
X015056Y028208D01*
X015108Y028367D02*
X017775Y028367D01*
X017705Y028525D02*
X015267Y028525D01*
X014691Y029414D02*
X016941Y029414D01*
X017691Y029914D01*
X018066Y029914D01*
X018509Y031220D02*
X018622Y031220D01*
X018802Y031378D02*
X018329Y031378D01*
X020231Y031378D02*
X043521Y031378D01*
X043521Y031220D02*
X020231Y031220D01*
X020231Y031061D02*
X043521Y031061D01*
X043521Y030903D02*
X020231Y030903D01*
X020231Y030744D02*
X043521Y030744D01*
X043521Y030586D02*
X020231Y030586D01*
X020231Y030427D02*
X043521Y030427D01*
X043521Y030269D02*
X020231Y030269D01*
X020231Y030110D02*
X043521Y030110D01*
X043521Y029952D02*
X020231Y029952D01*
X020231Y029793D02*
X025799Y029793D01*
X025641Y029635D02*
X020309Y029635D01*
X020468Y029476D02*
X025482Y029476D01*
X025326Y029318D02*
X020626Y029318D01*
X020066Y027914D02*
X019066Y027914D01*
X018572Y025672D02*
X018560Y025672D01*
X018444Y025514D02*
X018688Y025514D01*
X014691Y029414D02*
X014316Y029789D01*
X014316Y030757D01*
X010316Y030757D02*
X010316Y030757D01*
X010316Y030757D01*
X010316Y031232D01*
X010316Y031061D02*
X010316Y031061D01*
X010316Y030903D02*
X010316Y030903D01*
X010018Y031061D02*
X009549Y031061D01*
X009507Y031220D02*
X010127Y031220D01*
X020231Y031537D02*
X043521Y031537D01*
X043521Y031695D02*
X020231Y031695D01*
X020231Y031854D02*
X043521Y031854D01*
X043521Y032012D02*
X020231Y032012D01*
X020231Y032171D02*
X041953Y032171D01*
X041932Y032178D02*
X042040Y032138D01*
X042044Y032132D01*
X042071Y032127D01*
X042096Y032117D01*
X042102Y032120D01*
X042215Y032095D01*
X042219Y032090D01*
X042246Y032088D01*
X042273Y032083D01*
X042279Y032086D01*
X042391Y032078D01*
X042393Y032076D01*
X042423Y032076D01*
X042453Y032074D01*
X042456Y032076D01*
X043521Y032076D01*
X043521Y006252D01*
X042006Y006177D02*
X034674Y006177D01*
X034668Y006018D02*
X041700Y006018D01*
X041294Y005543D02*
X034674Y005543D01*
X034674Y005384D02*
X041230Y005384D01*
X041190Y005226D02*
X039399Y005226D01*
X039530Y005067D02*
X041170Y005067D01*
X041165Y004909D02*
X039530Y004909D01*
X039530Y004750D02*
X041165Y004750D01*
X041165Y004592D02*
X039530Y004592D01*
X039530Y004433D02*
X041165Y004433D01*
X041165Y004275D02*
X039530Y004275D01*
X039530Y004116D02*
X041165Y004116D01*
X041165Y003958D02*
X039530Y003958D01*
X042165Y009863D02*
X042246Y010058D01*
X042246Y010269D01*
X042165Y010464D01*
X042016Y010613D01*
X041894Y010664D01*
X042016Y010714D01*
X042165Y010863D01*
X042246Y011058D01*
X042246Y011269D01*
X042165Y011464D01*
X042016Y011613D01*
X041894Y011664D01*
X042016Y011714D01*
X042165Y011863D01*
X042246Y012058D01*
X042246Y012269D01*
X042165Y012464D01*
X042016Y012613D01*
X041894Y012664D01*
X042016Y012714D01*
X042165Y012863D01*
X042246Y013058D01*
X042246Y013269D01*
X042165Y013464D01*
X042016Y013613D01*
X041894Y013664D01*
X042016Y013714D01*
X042165Y013863D01*
X042246Y014058D01*
X042246Y014269D01*
X042165Y014464D01*
X042016Y014613D01*
X041894Y014664D01*
X042016Y014714D01*
X042165Y014863D01*
X042246Y015058D01*
X042246Y015269D01*
X042165Y015464D01*
X042016Y015613D01*
X041894Y015664D01*
X042016Y015714D01*
X042165Y015863D01*
X042246Y016058D01*
X042246Y016269D01*
X042165Y016464D01*
X042016Y016613D01*
X041894Y016664D01*
X042016Y016714D01*
X042165Y016863D01*
X042246Y017058D01*
X042246Y017269D01*
X042165Y017464D01*
X042016Y017613D01*
X041894Y017664D01*
X042016Y017714D01*
X042165Y017863D01*
X042184Y017910D01*
X042224Y017926D01*
X042303Y018005D01*
X042803Y018505D01*
X042679Y018381D02*
X043521Y018381D01*
X043521Y018223D02*
X042521Y018223D01*
X042362Y018064D02*
X043521Y018064D01*
X043521Y017906D02*
X042183Y017906D01*
X042049Y017747D02*
X043521Y017747D01*
X043521Y017589D02*
X042040Y017589D01*
X042179Y017430D02*
X043521Y017430D01*
X043521Y017272D02*
X042245Y017272D01*
X042246Y017113D02*
X043521Y017113D01*
X043521Y016955D02*
X042203Y016955D01*
X042098Y016796D02*
X043521Y016796D01*
X043521Y016638D02*
X041956Y016638D01*
X042150Y016479D02*
X043521Y016479D01*
X043521Y016321D02*
X042224Y016321D01*
X042246Y016162D02*
X043521Y016162D01*
X043521Y016004D02*
X042223Y016004D01*
X042147Y015845D02*
X043521Y015845D01*
X043521Y015687D02*
X041949Y015687D01*
X042101Y015528D02*
X043521Y015528D01*
X043521Y015370D02*
X042204Y015370D01*
X042246Y015211D02*
X043521Y015211D01*
X043521Y015053D02*
X042243Y015053D01*
X042178Y014894D02*
X043521Y014894D01*
X043521Y014736D02*
X042037Y014736D01*
X042052Y014577D02*
X043521Y014577D01*
X043521Y014419D02*
X042184Y014419D01*
X042246Y014260D02*
X043521Y014260D01*
X043521Y014102D02*
X042246Y014102D01*
X042198Y013943D02*
X043521Y013943D01*
X043521Y013785D02*
X042086Y013785D01*
X041984Y013626D02*
X043521Y013626D01*
X043521Y013468D02*
X042161Y013468D01*
X042229Y013309D02*
X043521Y013309D01*
X043521Y013151D02*
X042246Y013151D01*
X042218Y012992D02*
X043521Y012992D01*
X043521Y012834D02*
X042135Y012834D01*
X041921Y012675D02*
X043521Y012675D01*
X043521Y012517D02*
X042112Y012517D01*
X042209Y012358D02*
X043521Y012358D01*
X043521Y012200D02*
X042246Y012200D01*
X042239Y012041D02*
X043521Y012041D01*
X043521Y011883D02*
X042173Y011883D01*
X042026Y011724D02*
X043521Y011724D01*
X043521Y011566D02*
X042063Y011566D01*
X042189Y011407D02*
X043521Y011407D01*
X043521Y011249D02*
X042246Y011249D01*
X042246Y011090D02*
X043521Y011090D01*
X043521Y010932D02*
X042193Y010932D01*
X042075Y010773D02*
X043521Y010773D01*
X043521Y010615D02*
X042012Y010615D01*
X042168Y010456D02*
X043521Y010456D01*
X043521Y010298D02*
X042234Y010298D01*
X042246Y010139D02*
X043521Y010139D01*
X043521Y009981D02*
X042214Y009981D01*
X042846Y019491D02*
X043521Y019491D01*
X043521Y019649D02*
X042846Y019649D01*
X042846Y019808D02*
X043521Y019808D01*
X043521Y019966D02*
X042846Y019966D01*
X042846Y020125D02*
X043521Y020125D01*
X043521Y020283D02*
X042846Y020283D01*
X042846Y020442D02*
X043521Y020442D01*
X043521Y020600D02*
X042846Y020600D01*
X042846Y020759D02*
X043521Y020759D01*
X043521Y020917D02*
X042846Y020917D01*
X042846Y021076D02*
X043521Y021076D01*
X043521Y021234D02*
X042846Y021234D01*
X042846Y021393D02*
X043521Y021393D01*
X043521Y021551D02*
X042846Y021551D01*
X042846Y021710D02*
X043521Y021710D01*
X043521Y021868D02*
X042846Y021868D01*
X042846Y022027D02*
X043521Y022027D01*
X043521Y022185D02*
X042846Y022185D01*
X042846Y022344D02*
X043521Y022344D01*
X043521Y022502D02*
X042846Y022502D01*
X042846Y022661D02*
X043521Y022661D01*
X043521Y022819D02*
X042846Y022819D01*
X042846Y022978D02*
X043521Y022978D01*
X043521Y023136D02*
X042846Y023136D01*
X042846Y023295D02*
X043521Y023295D01*
X043521Y023453D02*
X042846Y023453D01*
X042846Y023612D02*
X043521Y023612D01*
X043521Y023770D02*
X042846Y023770D01*
X042846Y023929D02*
X043521Y023929D01*
X043521Y024087D02*
X042846Y024087D01*
X042846Y024246D02*
X043521Y024246D01*
X043521Y024404D02*
X042846Y024404D01*
X042846Y024563D02*
X043521Y024563D01*
X043521Y024721D02*
X042846Y024721D01*
X042846Y024880D02*
X043521Y024880D01*
X043521Y025038D02*
X042846Y025038D01*
X042846Y025197D02*
X043521Y025197D01*
X043521Y025355D02*
X042846Y025355D01*
X042846Y025514D02*
X043521Y025514D01*
X043521Y025672D02*
X042846Y025672D01*
X042846Y025831D02*
X043521Y025831D01*
X043521Y025989D02*
X042846Y025989D01*
X042846Y026148D02*
X043521Y026148D01*
X043521Y026306D02*
X042846Y026306D01*
X042846Y026465D02*
X043521Y026465D01*
X043521Y026623D02*
X042846Y026623D01*
X042846Y026782D02*
X043521Y026782D01*
X043521Y026940D02*
X042846Y026940D01*
X042846Y027099D02*
X043521Y027099D01*
X043521Y027257D02*
X042846Y027257D01*
X042846Y027416D02*
X043521Y027416D01*
X043521Y027574D02*
X042846Y027574D01*
X042846Y027733D02*
X043521Y027733D01*
X043521Y027891D02*
X042846Y027891D01*
X042846Y028050D02*
X043521Y028050D01*
X043521Y028208D02*
X042846Y028208D01*
X042846Y028367D02*
X043521Y028367D01*
X043521Y028525D02*
X042846Y028525D01*
X042846Y028684D02*
X043521Y028684D01*
X043521Y028842D02*
X042846Y028842D01*
X042833Y029001D02*
X043521Y029001D01*
X043521Y029159D02*
X042716Y029159D01*
X042558Y029318D02*
X043521Y029318D01*
X043521Y029476D02*
X042399Y029476D01*
X042241Y029635D02*
X043521Y029635D01*
X043521Y029793D02*
X042082Y029793D01*
X041766Y029318D02*
X037126Y029318D01*
X037285Y029159D02*
X041924Y029159D01*
X042083Y029001D02*
X037443Y029001D01*
X036764Y029001D02*
X032728Y029001D01*
X041496Y032488D02*
X041577Y032407D01*
X041578Y032400D01*
X041600Y032384D01*
X041619Y032364D01*
X041626Y032364D01*
X041718Y032295D01*
X041720Y032289D01*
X041744Y032276D01*
X041766Y032259D01*
X041772Y032260D01*
X041874Y032205D01*
X041876Y032199D01*
X041902Y032190D01*
X041926Y032176D01*
X041932Y032178D01*
X041673Y032329D02*
X020231Y032329D01*
X033941Y021039D02*
X035791Y021039D01*
X035916Y021164D01*
X033066Y019914D02*
X033066Y019289D01*
X033066Y019914D02*
X032316Y020664D01*
X029016Y017113D02*
X028866Y016964D01*
D29*
X017066Y011664D02*
X015691Y011664D01*
X015441Y011414D01*
X015441Y006789D01*
X015691Y006539D01*
X016941Y006539D01*
X017816Y005664D01*
X019566Y005664D01*
X019691Y005789D01*
X014066Y008664D02*
X013691Y008664D01*
X013191Y009164D01*
X013191Y009289D01*
X012566Y009914D01*
X012216Y009914D01*
X009416Y011039D02*
X009291Y010914D01*
X008191Y010914D01*
X007971Y010694D01*
X007971Y009906D01*
X008449Y009906D01*
X008816Y009539D01*
X008816Y009164D01*
X008691Y009039D01*
X008691Y007664D01*
X008941Y007414D01*
X009316Y007414D01*
X009416Y011039D02*
X009416Y012064D01*
X009316Y012164D01*
X025566Y028789D02*
X025566Y029164D01*
X026066Y029664D01*
X041816Y029664D01*
X042566Y028914D01*
X042566Y018664D01*
X042066Y018164D01*
X041716Y018164D01*
D30*
X033941Y019289D03*
X033941Y020164D03*
X033941Y021039D03*
X029066Y014664D03*
X029066Y014039D03*
X029066Y013414D03*
X031316Y011664D03*
X034316Y006289D03*
X034316Y005289D03*
X021941Y014914D03*
X020691Y013914D03*
X020691Y012289D03*
X019941Y012164D03*
X019691Y017414D03*
X015941Y018289D03*
X011816Y014039D03*
X013066Y011414D03*
X006941Y014664D03*
X015566Y025164D03*
X016316Y026414D03*
X012316Y028539D03*
X010441Y028039D03*
X009191Y030914D03*
X020691Y026789D03*
X021191Y028414D03*
X023691Y027289D03*
D31*
X005868Y023501D03*
X019592Y007232D03*
X021540Y007226D03*
M02*
