G75*
G70*
%OFA0B0*%
%FSLAX24Y24*%
%IPPOS*%
%LPD*%
%AMOC8*
5,1,8,0,0,1.08239X$1,22.5*
%
%ADD10C,0.0000*%
%ADD11C,0.1340*%
%ADD12R,0.0316X0.0671*%
%ADD13C,0.0520*%
%ADD14C,0.0050*%
%ADD15C,0.0740*%
%ADD16C,0.1380*%
%ADD17OC8,0.0600*%
%ADD18C,0.0730*%
%ADD19R,0.0730X0.0730*%
%ADD20C,0.0600*%
%ADD21C,0.0634*%
%ADD22OC8,0.0820*%
%ADD23OC8,0.0740*%
%ADD24C,0.0820*%
%ADD25C,0.0600*%
%ADD26R,0.0476X0.0476*%
%ADD27R,0.1740X0.1740*%
D10*
X006206Y003416D02*
X042426Y003416D01*
X041796Y004990D02*
X041798Y005040D01*
X041804Y005090D01*
X041814Y005139D01*
X041828Y005187D01*
X041845Y005234D01*
X041866Y005279D01*
X041891Y005323D01*
X041919Y005364D01*
X041951Y005403D01*
X041985Y005440D01*
X042022Y005474D01*
X042062Y005504D01*
X042104Y005531D01*
X042148Y005555D01*
X042194Y005576D01*
X042241Y005592D01*
X042289Y005605D01*
X042339Y005614D01*
X042388Y005619D01*
X042439Y005620D01*
X042489Y005617D01*
X042538Y005610D01*
X042587Y005599D01*
X042635Y005584D01*
X042681Y005566D01*
X042726Y005544D01*
X042769Y005518D01*
X042810Y005489D01*
X042849Y005457D01*
X042885Y005422D01*
X042917Y005384D01*
X042947Y005344D01*
X042974Y005301D01*
X042997Y005257D01*
X043016Y005211D01*
X043032Y005163D01*
X043044Y005114D01*
X043052Y005065D01*
X043056Y005015D01*
X043056Y004965D01*
X043052Y004915D01*
X043044Y004866D01*
X043032Y004817D01*
X043016Y004769D01*
X042997Y004723D01*
X042974Y004679D01*
X042947Y004636D01*
X042917Y004596D01*
X042885Y004558D01*
X042849Y004523D01*
X042810Y004491D01*
X042769Y004462D01*
X042726Y004436D01*
X042681Y004414D01*
X042635Y004396D01*
X042587Y004381D01*
X042538Y004370D01*
X042489Y004363D01*
X042439Y004360D01*
X042388Y004361D01*
X042339Y004366D01*
X042289Y004375D01*
X042241Y004388D01*
X042194Y004404D01*
X042148Y004425D01*
X042104Y004449D01*
X042062Y004476D01*
X042022Y004506D01*
X041985Y004540D01*
X041951Y004577D01*
X041919Y004616D01*
X041891Y004657D01*
X041866Y004701D01*
X041845Y004746D01*
X041828Y004793D01*
X041814Y004841D01*
X041804Y004890D01*
X041798Y004940D01*
X041796Y004990D01*
X042426Y003415D02*
X042503Y003417D01*
X042580Y003423D01*
X042657Y003432D01*
X042733Y003445D01*
X042809Y003462D01*
X042883Y003483D01*
X042957Y003507D01*
X043029Y003535D01*
X043099Y003566D01*
X043168Y003601D01*
X043236Y003639D01*
X043301Y003680D01*
X043364Y003725D01*
X043425Y003773D01*
X043484Y003823D01*
X043540Y003876D01*
X043593Y003932D01*
X043643Y003991D01*
X043691Y004052D01*
X043736Y004115D01*
X043777Y004180D01*
X043815Y004248D01*
X043850Y004317D01*
X043881Y004387D01*
X043909Y004459D01*
X043933Y004533D01*
X043954Y004607D01*
X043971Y004683D01*
X043984Y004759D01*
X043993Y004836D01*
X043999Y004913D01*
X044001Y004990D01*
X044001Y033337D01*
X041796Y033337D02*
X041798Y033387D01*
X041804Y033437D01*
X041814Y033486D01*
X041828Y033534D01*
X041845Y033581D01*
X041866Y033626D01*
X041891Y033670D01*
X041919Y033711D01*
X041951Y033750D01*
X041985Y033787D01*
X042022Y033821D01*
X042062Y033851D01*
X042104Y033878D01*
X042148Y033902D01*
X042194Y033923D01*
X042241Y033939D01*
X042289Y033952D01*
X042339Y033961D01*
X042388Y033966D01*
X042439Y033967D01*
X042489Y033964D01*
X042538Y033957D01*
X042587Y033946D01*
X042635Y033931D01*
X042681Y033913D01*
X042726Y033891D01*
X042769Y033865D01*
X042810Y033836D01*
X042849Y033804D01*
X042885Y033769D01*
X042917Y033731D01*
X042947Y033691D01*
X042974Y033648D01*
X042997Y033604D01*
X043016Y033558D01*
X043032Y033510D01*
X043044Y033461D01*
X043052Y033412D01*
X043056Y033362D01*
X043056Y033312D01*
X043052Y033262D01*
X043044Y033213D01*
X043032Y033164D01*
X043016Y033116D01*
X042997Y033070D01*
X042974Y033026D01*
X042947Y032983D01*
X042917Y032943D01*
X042885Y032905D01*
X042849Y032870D01*
X042810Y032838D01*
X042769Y032809D01*
X042726Y032783D01*
X042681Y032761D01*
X042635Y032743D01*
X042587Y032728D01*
X042538Y032717D01*
X042489Y032710D01*
X042439Y032707D01*
X042388Y032708D01*
X042339Y032713D01*
X042289Y032722D01*
X042241Y032735D01*
X042194Y032751D01*
X042148Y032772D01*
X042104Y032796D01*
X042062Y032823D01*
X042022Y032853D01*
X041985Y032887D01*
X041951Y032924D01*
X041919Y032963D01*
X041891Y033004D01*
X041866Y033048D01*
X041845Y033093D01*
X041828Y033140D01*
X041814Y033188D01*
X041804Y033237D01*
X041798Y033287D01*
X041796Y033337D01*
X042426Y034912D02*
X042503Y034910D01*
X042580Y034904D01*
X042657Y034895D01*
X042733Y034882D01*
X042809Y034865D01*
X042883Y034844D01*
X042957Y034820D01*
X043029Y034792D01*
X043099Y034761D01*
X043168Y034726D01*
X043236Y034688D01*
X043301Y034647D01*
X043364Y034602D01*
X043425Y034554D01*
X043484Y034504D01*
X043540Y034451D01*
X043593Y034395D01*
X043643Y034336D01*
X043691Y034275D01*
X043736Y034212D01*
X043777Y034147D01*
X043815Y034079D01*
X043850Y034010D01*
X043881Y033940D01*
X043909Y033868D01*
X043933Y033794D01*
X043954Y033720D01*
X043971Y033644D01*
X043984Y033568D01*
X043993Y033491D01*
X043999Y033414D01*
X044001Y033337D01*
X042426Y034912D02*
X006206Y034912D01*
X005576Y033337D02*
X005578Y033387D01*
X005584Y033437D01*
X005594Y033486D01*
X005608Y033534D01*
X005625Y033581D01*
X005646Y033626D01*
X005671Y033670D01*
X005699Y033711D01*
X005731Y033750D01*
X005765Y033787D01*
X005802Y033821D01*
X005842Y033851D01*
X005884Y033878D01*
X005928Y033902D01*
X005974Y033923D01*
X006021Y033939D01*
X006069Y033952D01*
X006119Y033961D01*
X006168Y033966D01*
X006219Y033967D01*
X006269Y033964D01*
X006318Y033957D01*
X006367Y033946D01*
X006415Y033931D01*
X006461Y033913D01*
X006506Y033891D01*
X006549Y033865D01*
X006590Y033836D01*
X006629Y033804D01*
X006665Y033769D01*
X006697Y033731D01*
X006727Y033691D01*
X006754Y033648D01*
X006777Y033604D01*
X006796Y033558D01*
X006812Y033510D01*
X006824Y033461D01*
X006832Y033412D01*
X006836Y033362D01*
X006836Y033312D01*
X006832Y033262D01*
X006824Y033213D01*
X006812Y033164D01*
X006796Y033116D01*
X006777Y033070D01*
X006754Y033026D01*
X006727Y032983D01*
X006697Y032943D01*
X006665Y032905D01*
X006629Y032870D01*
X006590Y032838D01*
X006549Y032809D01*
X006506Y032783D01*
X006461Y032761D01*
X006415Y032743D01*
X006367Y032728D01*
X006318Y032717D01*
X006269Y032710D01*
X006219Y032707D01*
X006168Y032708D01*
X006119Y032713D01*
X006069Y032722D01*
X006021Y032735D01*
X005974Y032751D01*
X005928Y032772D01*
X005884Y032796D01*
X005842Y032823D01*
X005802Y032853D01*
X005765Y032887D01*
X005731Y032924D01*
X005699Y032963D01*
X005671Y033004D01*
X005646Y033048D01*
X005625Y033093D01*
X005608Y033140D01*
X005594Y033188D01*
X005584Y033237D01*
X005578Y033287D01*
X005576Y033337D01*
X004631Y033337D02*
X004633Y033414D01*
X004639Y033491D01*
X004648Y033568D01*
X004661Y033644D01*
X004678Y033720D01*
X004699Y033794D01*
X004723Y033868D01*
X004751Y033940D01*
X004782Y034010D01*
X004817Y034079D01*
X004855Y034147D01*
X004896Y034212D01*
X004941Y034275D01*
X004989Y034336D01*
X005039Y034395D01*
X005092Y034451D01*
X005148Y034504D01*
X005207Y034554D01*
X005268Y034602D01*
X005331Y034647D01*
X005396Y034688D01*
X005464Y034726D01*
X005533Y034761D01*
X005603Y034792D01*
X005675Y034820D01*
X005749Y034844D01*
X005823Y034865D01*
X005899Y034882D01*
X005975Y034895D01*
X006052Y034904D01*
X006129Y034910D01*
X006206Y034912D01*
X004631Y033337D02*
X004631Y004990D01*
X005576Y004990D02*
X005578Y005040D01*
X005584Y005090D01*
X005594Y005139D01*
X005608Y005187D01*
X005625Y005234D01*
X005646Y005279D01*
X005671Y005323D01*
X005699Y005364D01*
X005731Y005403D01*
X005765Y005440D01*
X005802Y005474D01*
X005842Y005504D01*
X005884Y005531D01*
X005928Y005555D01*
X005974Y005576D01*
X006021Y005592D01*
X006069Y005605D01*
X006119Y005614D01*
X006168Y005619D01*
X006219Y005620D01*
X006269Y005617D01*
X006318Y005610D01*
X006367Y005599D01*
X006415Y005584D01*
X006461Y005566D01*
X006506Y005544D01*
X006549Y005518D01*
X006590Y005489D01*
X006629Y005457D01*
X006665Y005422D01*
X006697Y005384D01*
X006727Y005344D01*
X006754Y005301D01*
X006777Y005257D01*
X006796Y005211D01*
X006812Y005163D01*
X006824Y005114D01*
X006832Y005065D01*
X006836Y005015D01*
X006836Y004965D01*
X006832Y004915D01*
X006824Y004866D01*
X006812Y004817D01*
X006796Y004769D01*
X006777Y004723D01*
X006754Y004679D01*
X006727Y004636D01*
X006697Y004596D01*
X006665Y004558D01*
X006629Y004523D01*
X006590Y004491D01*
X006549Y004462D01*
X006506Y004436D01*
X006461Y004414D01*
X006415Y004396D01*
X006367Y004381D01*
X006318Y004370D01*
X006269Y004363D01*
X006219Y004360D01*
X006168Y004361D01*
X006119Y004366D01*
X006069Y004375D01*
X006021Y004388D01*
X005974Y004404D01*
X005928Y004425D01*
X005884Y004449D01*
X005842Y004476D01*
X005802Y004506D01*
X005765Y004540D01*
X005731Y004577D01*
X005699Y004616D01*
X005671Y004657D01*
X005646Y004701D01*
X005625Y004746D01*
X005608Y004793D01*
X005594Y004841D01*
X005584Y004890D01*
X005578Y004940D01*
X005576Y004990D01*
X004631Y004990D02*
X004633Y004913D01*
X004639Y004836D01*
X004648Y004759D01*
X004661Y004683D01*
X004678Y004607D01*
X004699Y004533D01*
X004723Y004459D01*
X004751Y004387D01*
X004782Y004317D01*
X004817Y004248D01*
X004855Y004180D01*
X004896Y004115D01*
X004941Y004052D01*
X004989Y003991D01*
X005039Y003932D01*
X005092Y003876D01*
X005148Y003823D01*
X005207Y003773D01*
X005268Y003725D01*
X005331Y003680D01*
X005396Y003639D01*
X005464Y003601D01*
X005533Y003566D01*
X005603Y003535D01*
X005675Y003507D01*
X005749Y003483D01*
X005823Y003462D01*
X005899Y003445D01*
X005975Y003432D01*
X006052Y003423D01*
X006129Y003417D01*
X006206Y003415D01*
D11*
X006206Y004990D03*
X042426Y004990D03*
X042426Y033337D03*
X006206Y033337D03*
D12*
X010316Y030757D03*
X010816Y030757D03*
X011316Y030757D03*
X011816Y030757D03*
X012316Y030757D03*
X012816Y030757D03*
X013316Y030757D03*
X013816Y030757D03*
X014316Y030757D03*
X014816Y030757D03*
X014816Y026820D03*
X014316Y026820D03*
X013816Y026820D03*
X013316Y026820D03*
X012816Y026820D03*
X012316Y026820D03*
X011816Y026820D03*
X011316Y026820D03*
X010816Y026820D03*
X010316Y026820D03*
D13*
X009441Y025509D02*
X009441Y025069D01*
X011441Y025069D02*
X011441Y025509D01*
D14*
X011388Y023342D02*
X011427Y023336D01*
X011464Y023323D01*
X011497Y023301D01*
X011525Y023273D01*
X011546Y023239D01*
X011558Y023201D01*
X011562Y023162D01*
X011557Y023123D01*
X011544Y023087D01*
X011523Y023054D01*
X011496Y023027D01*
X011463Y023007D01*
X011426Y022995D01*
X011388Y022991D01*
X011350Y022994D01*
X011313Y023006D01*
X011280Y023025D01*
X011253Y023052D01*
X011231Y023084D01*
X011218Y023120D01*
X011213Y023158D01*
X011216Y023198D01*
X011229Y023236D01*
X011249Y023271D01*
X011277Y023300D01*
X011310Y023322D01*
X011348Y023336D01*
X011388Y023342D01*
X011381Y023341D02*
X011395Y023341D01*
X011506Y023292D02*
X011270Y023292D01*
X011233Y023244D02*
X011542Y023244D01*
X011559Y023195D02*
X011216Y023195D01*
X011214Y023147D02*
X011560Y023147D01*
X011548Y023098D02*
X011226Y023098D01*
X011255Y023050D02*
X011518Y023050D01*
X011446Y023001D02*
X011327Y023001D01*
X012316Y023147D02*
X012662Y023147D01*
X012664Y023162D02*
X012659Y023123D01*
X012646Y023087D01*
X012625Y023054D01*
X012598Y023027D01*
X012565Y023007D01*
X012528Y022995D01*
X012490Y022991D01*
X012452Y022994D01*
X012415Y023006D01*
X012382Y023025D01*
X012355Y023052D01*
X012333Y023084D01*
X012320Y023120D01*
X012315Y023158D01*
X012318Y023198D01*
X012331Y023236D01*
X012351Y023271D01*
X012379Y023300D01*
X012412Y023322D01*
X012450Y023336D01*
X012490Y023342D01*
X012529Y023336D01*
X012566Y023323D01*
X012599Y023301D01*
X012627Y023273D01*
X012648Y023239D01*
X012660Y023201D01*
X012664Y023162D01*
X012661Y023195D02*
X012318Y023195D01*
X012335Y023244D02*
X012644Y023244D01*
X012608Y023292D02*
X012372Y023292D01*
X012483Y023341D02*
X012497Y023341D01*
X012650Y023098D02*
X012328Y023098D01*
X012357Y023050D02*
X012620Y023050D01*
X012548Y023001D02*
X012429Y023001D01*
X009539Y023162D02*
X009534Y023123D01*
X009521Y023087D01*
X009500Y023054D01*
X009473Y023027D01*
X009440Y023007D01*
X009403Y022995D01*
X009365Y022991D01*
X009327Y022994D01*
X009290Y023006D01*
X009257Y023025D01*
X009230Y023052D01*
X009208Y023084D01*
X009195Y023120D01*
X009190Y023158D01*
X009193Y023198D01*
X009206Y023236D01*
X009226Y023271D01*
X009254Y023300D01*
X009287Y023322D01*
X009325Y023336D01*
X009365Y023342D01*
X009404Y023336D01*
X009441Y023323D01*
X009474Y023301D01*
X009502Y023273D01*
X009523Y023239D01*
X009535Y023201D01*
X009539Y023162D01*
X009537Y023147D02*
X009191Y023147D01*
X009193Y023195D02*
X009536Y023195D01*
X009519Y023244D02*
X009210Y023244D01*
X009247Y023292D02*
X009483Y023292D01*
X009372Y023341D02*
X009358Y023341D01*
X009203Y023098D02*
X009525Y023098D01*
X009495Y023050D02*
X009232Y023050D01*
X009304Y023001D02*
X009423Y023001D01*
X008432Y023123D02*
X008419Y023087D01*
X008398Y023054D01*
X008371Y023027D01*
X008338Y023007D01*
X008301Y022995D01*
X008263Y022991D01*
X008225Y022994D01*
X008188Y023006D01*
X008155Y023025D01*
X008128Y023052D01*
X008106Y023084D01*
X008093Y023120D01*
X008088Y023158D01*
X008091Y023198D01*
X008104Y023236D01*
X008124Y023271D01*
X008152Y023300D01*
X008185Y023322D01*
X008223Y023336D01*
X008263Y023342D01*
X008302Y023336D01*
X008339Y023323D01*
X008372Y023301D01*
X008400Y023273D01*
X008421Y023239D01*
X008433Y023201D01*
X008437Y023162D01*
X008432Y023123D01*
X008435Y023147D02*
X008089Y023147D01*
X008091Y023195D02*
X008434Y023195D01*
X008417Y023244D02*
X008108Y023244D01*
X008145Y023292D02*
X008381Y023292D01*
X008270Y023341D02*
X008256Y023341D01*
X008101Y023098D02*
X008423Y023098D01*
X008393Y023050D02*
X008130Y023050D01*
X008202Y023001D02*
X008321Y023001D01*
X011989Y032083D02*
X011957Y032104D01*
X011929Y032132D01*
X011909Y032165D01*
X011897Y032201D01*
X011893Y032240D01*
X011896Y032278D01*
X011908Y032314D01*
X011928Y032347D01*
X011954Y032375D01*
X011986Y032396D01*
X012022Y032409D01*
X012060Y032415D01*
X012100Y032411D01*
X012138Y032399D01*
X012173Y032378D01*
X012202Y032351D01*
X012224Y032317D01*
X012238Y032279D01*
X012244Y032240D01*
X012239Y032200D01*
X012225Y032163D01*
X012203Y032130D01*
X012175Y032102D01*
X012141Y032082D01*
X012103Y032069D01*
X012064Y032066D01*
X012025Y032070D01*
X011989Y032083D01*
X012024Y032071D02*
X012107Y032071D01*
X012192Y032119D02*
X011942Y032119D01*
X011908Y032168D02*
X012227Y032168D01*
X012241Y032216D02*
X011895Y032216D01*
X011895Y032265D02*
X012240Y032265D01*
X012225Y032313D02*
X011908Y032313D01*
X011941Y032362D02*
X012190Y032362D01*
X012102Y032410D02*
X012028Y032410D01*
X012064Y033168D02*
X012025Y033172D01*
X011989Y033185D01*
X011957Y033206D01*
X011929Y033234D01*
X011909Y033267D01*
X011897Y033303D01*
X011893Y033342D01*
X011896Y033380D01*
X011908Y033416D01*
X011928Y033449D01*
X011954Y033477D01*
X011986Y033498D01*
X012022Y033511D01*
X012060Y033517D01*
X012100Y033513D01*
X012138Y033501D01*
X012173Y033480D01*
X012202Y033453D01*
X012224Y033419D01*
X012238Y033381D01*
X012244Y033342D01*
X012239Y033302D01*
X012225Y033265D01*
X012203Y033232D01*
X012175Y033204D01*
X012141Y033184D01*
X012103Y033171D01*
X012064Y033168D01*
X011988Y033186D02*
X012145Y033186D01*
X012205Y033235D02*
X011929Y033235D01*
X011903Y033283D02*
X012232Y033283D01*
X012242Y033332D02*
X011894Y033332D01*
X011896Y033380D02*
X012238Y033380D01*
X012218Y033429D02*
X011915Y033429D01*
X011955Y033477D02*
X012176Y033477D01*
X013263Y033338D02*
X013268Y033377D01*
X013282Y033414D01*
X013303Y033447D01*
X013332Y033475D01*
X013366Y033495D01*
X013403Y033508D01*
X013443Y033512D01*
X013481Y033507D01*
X013517Y033494D01*
X013550Y033473D01*
X013577Y033446D01*
X013597Y033413D01*
X013610Y033376D01*
X013614Y033338D01*
X013610Y033300D01*
X013599Y033263D01*
X013579Y033230D01*
X013553Y033202D01*
X013521Y033181D01*
X013485Y033168D01*
X013447Y033163D01*
X013407Y033166D01*
X013368Y033178D01*
X013334Y033199D01*
X013305Y033227D01*
X013283Y033260D01*
X013268Y033298D01*
X013263Y033338D01*
X013264Y033332D02*
X013613Y033332D01*
X013608Y033380D02*
X013269Y033380D01*
X013291Y033429D02*
X013587Y033429D01*
X013543Y033477D02*
X013336Y033477D01*
X013274Y033283D02*
X013605Y033283D01*
X013582Y033235D02*
X013299Y033235D01*
X013355Y033186D02*
X013528Y033186D01*
X013443Y032410D02*
X013481Y032405D01*
X013517Y032392D01*
X013550Y032371D01*
X013577Y032344D01*
X013597Y032311D01*
X013610Y032274D01*
X013614Y032236D01*
X013610Y032198D01*
X013599Y032161D01*
X013579Y032128D01*
X013553Y032100D01*
X013521Y032079D01*
X013485Y032066D01*
X013447Y032061D01*
X013407Y032064D01*
X013368Y032076D01*
X013334Y032097D01*
X013305Y032125D01*
X013283Y032158D01*
X013268Y032196D01*
X013263Y032236D01*
X013268Y032275D01*
X013282Y032312D01*
X013303Y032345D01*
X013332Y032373D01*
X013366Y032393D01*
X013403Y032406D01*
X013443Y032410D01*
X013559Y032362D02*
X013320Y032362D01*
X013282Y032313D02*
X013596Y032313D01*
X013611Y032265D02*
X013267Y032265D01*
X013265Y032216D02*
X013612Y032216D01*
X013601Y032168D02*
X013279Y032168D01*
X013310Y032119D02*
X013570Y032119D01*
X013498Y032071D02*
X013386Y032071D01*
X017843Y033370D02*
X017838Y033408D01*
X017841Y033448D01*
X017854Y033486D01*
X017874Y033521D01*
X017902Y033550D01*
X017935Y033572D01*
X017973Y033586D01*
X018013Y033592D01*
X018052Y033586D01*
X018089Y033573D01*
X018122Y033551D01*
X018150Y033523D01*
X018171Y033489D01*
X018183Y033451D01*
X018187Y033412D01*
X018182Y033373D01*
X018169Y033337D01*
X018148Y033304D01*
X018121Y033277D01*
X018088Y033257D01*
X018051Y033245D01*
X018013Y033241D01*
X017975Y033244D01*
X017938Y033256D01*
X017905Y033275D01*
X017878Y033302D01*
X017856Y033334D01*
X017843Y033370D01*
X017841Y033380D02*
X018183Y033380D01*
X018185Y033429D02*
X017840Y033429D01*
X017851Y033477D02*
X018174Y033477D01*
X018147Y033526D02*
X017879Y033526D01*
X017942Y033574D02*
X018085Y033574D01*
X018166Y033332D02*
X017858Y033332D01*
X017897Y033283D02*
X018127Y033283D01*
X018940Y033408D02*
X018943Y033448D01*
X018956Y033486D01*
X018976Y033521D01*
X019004Y033550D01*
X019037Y033572D01*
X019075Y033586D01*
X019115Y033592D01*
X019154Y033586D01*
X019191Y033573D01*
X019224Y033551D01*
X019252Y033523D01*
X019273Y033489D01*
X019285Y033451D01*
X019289Y033412D01*
X019284Y033373D01*
X019271Y033337D01*
X019250Y033304D01*
X019223Y033277D01*
X019190Y033257D01*
X019153Y033245D01*
X019115Y033241D01*
X019077Y033244D01*
X019040Y033256D01*
X019007Y033275D01*
X018980Y033302D01*
X018958Y033334D01*
X018945Y033370D01*
X018940Y033408D01*
X018942Y033429D02*
X019287Y033429D01*
X019285Y033380D02*
X018943Y033380D01*
X018960Y033332D02*
X019268Y033332D01*
X019229Y033283D02*
X018999Y033283D01*
X018953Y033477D02*
X019276Y033477D01*
X019249Y033526D02*
X018981Y033526D01*
X019044Y033574D02*
X019187Y033574D01*
X032435Y009822D02*
X032473Y009836D01*
X032513Y009842D01*
X032552Y009836D01*
X032589Y009823D01*
X032622Y009801D01*
X032650Y009773D01*
X032671Y009739D01*
X032683Y009701D01*
X032687Y009662D01*
X032682Y009623D01*
X032669Y009587D01*
X032648Y009554D01*
X032621Y009527D01*
X032588Y009507D01*
X032551Y009495D01*
X032513Y009491D01*
X032475Y009494D01*
X032438Y009506D01*
X032405Y009525D01*
X032378Y009552D01*
X032356Y009584D01*
X032343Y009620D01*
X032338Y009658D01*
X032341Y009698D01*
X032354Y009736D01*
X032374Y009771D01*
X032402Y009800D01*
X032435Y009822D01*
X032416Y009809D02*
X032610Y009809D01*
X032657Y009761D02*
X032368Y009761D01*
X032346Y009712D02*
X032679Y009712D01*
X032687Y009664D02*
X032338Y009664D01*
X032345Y009615D02*
X032679Y009615D01*
X032656Y009567D02*
X032368Y009567D01*
X032417Y009518D02*
X032606Y009518D01*
X033445Y009620D02*
X033440Y009658D01*
X033443Y009698D01*
X033456Y009736D01*
X033476Y009771D01*
X033504Y009800D01*
X033537Y009822D01*
X033575Y009836D01*
X033615Y009842D01*
X033654Y009836D01*
X033691Y009823D01*
X033724Y009801D01*
X033752Y009773D01*
X033773Y009739D01*
X033785Y009701D01*
X033789Y009662D01*
X033784Y009623D01*
X033771Y009587D01*
X033750Y009554D01*
X033723Y009527D01*
X033690Y009507D01*
X033653Y009495D01*
X033615Y009491D01*
X033577Y009494D01*
X033540Y009506D01*
X033507Y009525D01*
X033480Y009552D01*
X033458Y009584D01*
X033445Y009620D01*
X033447Y009615D02*
X033781Y009615D01*
X033789Y009664D02*
X033440Y009664D01*
X033448Y009712D02*
X033781Y009712D01*
X033759Y009761D02*
X033470Y009761D01*
X033518Y009809D02*
X033712Y009809D01*
X033758Y009567D02*
X033470Y009567D01*
X033519Y009518D02*
X033708Y009518D01*
X033615Y007217D02*
X033654Y007211D01*
X033691Y007198D01*
X033724Y007176D01*
X033752Y007148D01*
X033773Y007114D01*
X033785Y007076D01*
X033789Y007037D01*
X033784Y006998D01*
X033771Y006962D01*
X033750Y006929D01*
X033723Y006902D01*
X033690Y006882D01*
X033653Y006870D01*
X033615Y006866D01*
X033577Y006869D01*
X033540Y006881D01*
X033507Y006900D01*
X033480Y006927D01*
X033458Y006959D01*
X033445Y006995D01*
X033440Y007033D01*
X033443Y007073D01*
X033456Y007111D01*
X033476Y007146D01*
X033504Y007175D01*
X033537Y007197D01*
X033575Y007211D01*
X033615Y007217D01*
X033527Y007190D02*
X033703Y007190D01*
X033756Y007142D02*
X033474Y007142D01*
X033450Y007093D02*
X033779Y007093D01*
X033788Y007045D02*
X033441Y007045D01*
X033445Y006996D02*
X033783Y006996D01*
X033762Y006948D02*
X033466Y006948D01*
X033509Y006899D02*
X033717Y006899D01*
X032687Y007037D02*
X032682Y006998D01*
X032669Y006962D01*
X032648Y006929D01*
X032621Y006902D01*
X032588Y006882D01*
X032551Y006870D01*
X032513Y006866D01*
X032475Y006869D01*
X032438Y006881D01*
X032405Y006900D01*
X032378Y006927D01*
X032356Y006959D01*
X032343Y006995D01*
X032338Y007033D01*
X032341Y007073D01*
X032354Y007111D01*
X032374Y007146D01*
X032402Y007175D01*
X032435Y007197D01*
X032473Y007211D01*
X032513Y007217D01*
X032552Y007211D01*
X032589Y007198D01*
X032622Y007176D01*
X032650Y007148D01*
X032671Y007114D01*
X032683Y007076D01*
X032687Y007037D01*
X032686Y007045D02*
X032339Y007045D01*
X032348Y007093D02*
X032677Y007093D01*
X032654Y007142D02*
X032372Y007142D01*
X032425Y007190D02*
X032601Y007190D01*
X032681Y006996D02*
X032343Y006996D01*
X032364Y006948D02*
X032660Y006948D01*
X032615Y006899D02*
X032407Y006899D01*
X025169Y007045D02*
X025165Y007005D01*
X025153Y006966D01*
X025132Y006932D01*
X025105Y006903D01*
X025071Y006880D01*
X025034Y006866D01*
X024994Y006861D01*
X024954Y006866D01*
X024917Y006880D01*
X024884Y006901D01*
X024857Y006930D01*
X024836Y006964D01*
X024824Y007001D01*
X024820Y007041D01*
X024824Y007079D01*
X024837Y007115D01*
X024858Y007148D01*
X024886Y007175D01*
X024919Y007195D01*
X024955Y007208D01*
X024994Y007212D01*
X025032Y007208D01*
X025068Y007196D01*
X025101Y007177D01*
X025129Y007150D01*
X025150Y007118D01*
X025164Y007083D01*
X025169Y007045D01*
X024820Y007045D01*
X024829Y007093D02*
X025160Y007093D01*
X025135Y007142D02*
X024854Y007142D01*
X024910Y007190D02*
X025079Y007190D01*
X025163Y006996D02*
X024825Y006996D01*
X024846Y006948D02*
X025142Y006948D01*
X025099Y006899D02*
X024887Y006899D01*
X024063Y007005D02*
X024051Y006966D01*
X024030Y006932D01*
X024003Y006903D01*
X023969Y006880D01*
X023932Y006866D01*
X023892Y006861D01*
X023852Y006866D01*
X023815Y006880D01*
X023782Y006901D01*
X023754Y006930D01*
X023734Y006964D01*
X023722Y007001D01*
X023718Y007041D01*
X023722Y007079D01*
X023735Y007115D01*
X023756Y007148D01*
X023784Y007175D01*
X023817Y007195D01*
X023853Y007208D01*
X023892Y007212D01*
X023930Y007208D01*
X023966Y007196D01*
X023999Y007177D01*
X024027Y007150D01*
X024048Y007118D01*
X024062Y007083D01*
X024067Y007045D01*
X024063Y007005D01*
X024060Y006996D02*
X023723Y006996D01*
X023718Y007045D02*
X024067Y007045D01*
X024058Y007093D02*
X023727Y007093D01*
X023752Y007142D02*
X024033Y007142D01*
X023977Y007190D02*
X023808Y007190D01*
X023744Y006948D02*
X024040Y006948D01*
X023997Y006899D02*
X023785Y006899D01*
X023892Y009361D02*
X023852Y009366D01*
X023815Y009380D01*
X023782Y009401D01*
X023754Y009430D01*
X023734Y009464D01*
X023722Y009501D01*
X023718Y009541D01*
X023722Y009579D01*
X023735Y009615D01*
X024049Y009615D01*
X024048Y009618D02*
X024062Y009583D01*
X024067Y009545D01*
X024063Y009505D01*
X024051Y009466D01*
X024030Y009432D01*
X024003Y009403D01*
X023969Y009380D01*
X023932Y009366D01*
X023892Y009361D01*
X023949Y009373D02*
X023834Y009373D01*
X023763Y009421D02*
X024020Y009421D01*
X024052Y009470D02*
X023732Y009470D01*
X023720Y009518D02*
X024064Y009518D01*
X024064Y009567D02*
X023721Y009567D01*
X023735Y009615D02*
X023756Y009648D01*
X023784Y009675D01*
X023817Y009695D01*
X023853Y009708D01*
X023892Y009712D01*
X023930Y009708D01*
X023966Y009696D01*
X023999Y009677D01*
X024027Y009650D01*
X024048Y009618D01*
X024013Y009664D02*
X023772Y009664D01*
X024820Y009541D02*
X024824Y009579D01*
X024837Y009615D01*
X025151Y009615D01*
X025150Y009618D02*
X025164Y009583D01*
X025169Y009545D01*
X025165Y009505D01*
X025153Y009466D01*
X025132Y009432D01*
X025105Y009403D01*
X025071Y009380D01*
X025034Y009366D01*
X024994Y009361D01*
X024954Y009366D01*
X024917Y009380D01*
X024884Y009401D01*
X024857Y009430D01*
X024836Y009464D01*
X024824Y009501D01*
X024820Y009541D01*
X024822Y009518D02*
X025166Y009518D01*
X025166Y009567D02*
X024823Y009567D01*
X024837Y009615D02*
X024858Y009648D01*
X024886Y009675D01*
X024919Y009695D01*
X024955Y009708D01*
X024994Y009712D01*
X025032Y009708D01*
X025068Y009696D01*
X025101Y009677D01*
X025129Y009650D01*
X025150Y009618D01*
X025115Y009664D02*
X024874Y009664D01*
X024834Y009470D02*
X025154Y009470D01*
X025122Y009421D02*
X024865Y009421D01*
X024936Y009373D02*
X025051Y009373D01*
D15*
X007971Y008922D03*
X007191Y008922D03*
X007191Y009906D03*
X007971Y009906D03*
X007971Y028422D03*
X007191Y028422D03*
X007191Y029406D03*
X007971Y029406D03*
D16*
X006121Y031284D03*
X006121Y026544D03*
X006121Y011784D03*
X006121Y007044D03*
D17*
X009066Y005664D03*
X009066Y004664D03*
X010566Y005789D03*
X013566Y005789D03*
X015191Y005664D03*
X015191Y004664D03*
X016691Y005789D03*
X019691Y005789D03*
X016691Y021539D03*
X018566Y021789D03*
X019566Y021789D03*
X019566Y023789D03*
X018566Y023789D03*
X016566Y024039D03*
X016566Y025164D03*
X015941Y027289D03*
X013566Y025164D03*
X013566Y024039D03*
X013691Y021539D03*
X015941Y030289D03*
D18*
X009316Y032789D03*
D19*
X010316Y032789D03*
D20*
X022306Y028789D02*
X022826Y028789D01*
X022826Y027789D02*
X022306Y027789D01*
X022306Y026789D02*
X022826Y026789D01*
X022826Y025789D02*
X022306Y025789D01*
X022306Y024789D02*
X022826Y024789D01*
X022826Y023789D02*
X022306Y023789D01*
X022306Y022789D02*
X022826Y022789D01*
X022826Y021789D02*
X022306Y021789D01*
X022306Y020789D02*
X022826Y020789D01*
X022826Y019789D02*
X022306Y019789D01*
X025306Y019789D02*
X025826Y019789D01*
X025826Y020789D02*
X025306Y020789D01*
X025306Y021789D02*
X025826Y021789D01*
X025826Y022789D02*
X025306Y022789D01*
X025306Y023789D02*
X025826Y023789D01*
X025826Y024789D02*
X025306Y024789D01*
X025306Y025789D02*
X025826Y025789D01*
X025826Y026789D02*
X025306Y026789D01*
X025306Y027789D02*
X025826Y027789D01*
X025826Y028789D02*
X025306Y028789D01*
X017326Y011664D02*
X016806Y011664D01*
X016806Y010664D02*
X017326Y010664D01*
X017326Y009664D02*
X016806Y009664D01*
X016806Y008664D02*
X017326Y008664D01*
X014326Y008664D02*
X013806Y008664D01*
X013806Y009664D02*
X014326Y009664D01*
X014326Y010664D02*
X013806Y010664D01*
X013806Y011664D02*
X014326Y011664D01*
D21*
X012216Y011039D03*
X012216Y009914D03*
X009416Y009914D03*
X009416Y011039D03*
D22*
X009816Y015414D03*
X008816Y015414D03*
X007816Y015414D03*
X007816Y016414D03*
X008816Y016414D03*
X009816Y016414D03*
X014441Y016464D03*
X015441Y016464D03*
X016441Y016464D03*
X017441Y016464D03*
X018441Y016464D03*
X018441Y015364D03*
X017441Y015364D03*
X016441Y015364D03*
X015441Y015364D03*
X014441Y015364D03*
D23*
X012316Y012164D03*
X009316Y012164D03*
X009316Y008664D03*
X009316Y007414D03*
X012316Y007414D03*
X012316Y008664D03*
D24*
X029316Y015664D03*
X029316Y016664D03*
X029316Y017664D03*
X029316Y018664D03*
X029316Y019664D03*
X029316Y020664D03*
X029316Y021664D03*
X029316Y022664D03*
X029316Y023664D03*
X029316Y024664D03*
X029316Y025664D03*
X029316Y026664D03*
X029316Y027664D03*
X029316Y028664D03*
X032316Y028664D03*
X032316Y027664D03*
X032316Y026664D03*
X032316Y025664D03*
X032316Y024664D03*
X032316Y023664D03*
X032316Y022664D03*
X032316Y021664D03*
X032316Y020664D03*
X032316Y019664D03*
X032316Y018664D03*
X032316Y017664D03*
X032316Y016664D03*
X032316Y015664D03*
X035916Y016164D03*
X035916Y015164D03*
X035916Y014164D03*
X035916Y013164D03*
X035916Y012164D03*
X035916Y011164D03*
X035916Y010164D03*
X035916Y009164D03*
X041716Y009164D03*
X041716Y010164D03*
X041716Y011164D03*
X041716Y012164D03*
X041716Y013164D03*
X041716Y014164D03*
X041716Y015164D03*
X041716Y016164D03*
X041716Y017164D03*
X041716Y018164D03*
X041716Y019164D03*
X041716Y020164D03*
X041716Y021164D03*
X041716Y022164D03*
X041716Y023164D03*
X041716Y024164D03*
X041716Y025164D03*
X041716Y026164D03*
X041716Y027164D03*
X041716Y028164D03*
X035916Y028164D03*
X035916Y027164D03*
X035916Y026164D03*
X035916Y025164D03*
X035916Y024164D03*
X035916Y023164D03*
X035916Y022164D03*
X035916Y021164D03*
X035916Y020164D03*
X035916Y019164D03*
X035916Y018164D03*
X035916Y017164D03*
X019066Y025914D03*
X018066Y025914D03*
X018066Y026914D03*
X018066Y027914D03*
X019066Y027914D03*
X019066Y026914D03*
X019066Y028914D03*
X018066Y028914D03*
X018066Y029914D03*
X018066Y030914D03*
X019066Y030914D03*
X019066Y029914D03*
D25*
X027866Y009539D03*
X029766Y009539D03*
X029766Y007039D03*
X027866Y007039D03*
D26*
X031316Y011664D03*
X029066Y013414D03*
X029066Y014039D03*
X029066Y014664D03*
X033941Y019289D03*
X033941Y020164D03*
X033941Y021039D03*
X023691Y027289D03*
X021191Y028414D03*
X020691Y026789D03*
X016316Y026414D03*
X015566Y025164D03*
X012316Y028539D03*
X010441Y028039D03*
X009191Y030914D03*
X015941Y018289D03*
X019691Y017414D03*
X021941Y014914D03*
X020691Y013914D03*
X020691Y012289D03*
X019941Y012164D03*
X013066Y011414D03*
X011816Y014039D03*
X006941Y014664D03*
X034316Y006289D03*
X034316Y005289D03*
D27*
X021540Y007226D03*
X019592Y007232D03*
X005868Y023501D03*
M02*
