G75*
G70*
%OFA0B0*%
%FSLAX24Y24*%
%IPPOS*%
%LPD*%
%AMOC8*
5,1,8,0,0,1.08239X$1,22.5*
%
%ADD10C,0.0000*%
%ADD11C,0.1340*%
%ADD12C,0.0520*%
%ADD13C,0.0050*%
%ADD14C,0.0740*%
%ADD15C,0.1380*%
%ADD16OC8,0.0600*%
%ADD17C,0.0730*%
%ADD18R,0.0730X0.0730*%
%ADD19C,0.0600*%
%ADD20C,0.0634*%
%ADD21OC8,0.0820*%
%ADD22OC8,0.0740*%
%ADD23C,0.0820*%
%ADD24C,0.0600*%
%ADD25R,0.0476X0.0476*%
%ADD26R,0.1740X0.1740*%
D10*
X006206Y003416D02*
X042426Y003416D01*
X041796Y004990D02*
X041798Y005040D01*
X041804Y005090D01*
X041814Y005139D01*
X041828Y005187D01*
X041845Y005234D01*
X041866Y005279D01*
X041891Y005323D01*
X041919Y005364D01*
X041951Y005403D01*
X041985Y005440D01*
X042022Y005474D01*
X042062Y005504D01*
X042104Y005531D01*
X042148Y005555D01*
X042194Y005576D01*
X042241Y005592D01*
X042289Y005605D01*
X042339Y005614D01*
X042388Y005619D01*
X042439Y005620D01*
X042489Y005617D01*
X042538Y005610D01*
X042587Y005599D01*
X042635Y005584D01*
X042681Y005566D01*
X042726Y005544D01*
X042769Y005518D01*
X042810Y005489D01*
X042849Y005457D01*
X042885Y005422D01*
X042917Y005384D01*
X042947Y005344D01*
X042974Y005301D01*
X042997Y005257D01*
X043016Y005211D01*
X043032Y005163D01*
X043044Y005114D01*
X043052Y005065D01*
X043056Y005015D01*
X043056Y004965D01*
X043052Y004915D01*
X043044Y004866D01*
X043032Y004817D01*
X043016Y004769D01*
X042997Y004723D01*
X042974Y004679D01*
X042947Y004636D01*
X042917Y004596D01*
X042885Y004558D01*
X042849Y004523D01*
X042810Y004491D01*
X042769Y004462D01*
X042726Y004436D01*
X042681Y004414D01*
X042635Y004396D01*
X042587Y004381D01*
X042538Y004370D01*
X042489Y004363D01*
X042439Y004360D01*
X042388Y004361D01*
X042339Y004366D01*
X042289Y004375D01*
X042241Y004388D01*
X042194Y004404D01*
X042148Y004425D01*
X042104Y004449D01*
X042062Y004476D01*
X042022Y004506D01*
X041985Y004540D01*
X041951Y004577D01*
X041919Y004616D01*
X041891Y004657D01*
X041866Y004701D01*
X041845Y004746D01*
X041828Y004793D01*
X041814Y004841D01*
X041804Y004890D01*
X041798Y004940D01*
X041796Y004990D01*
X042426Y003415D02*
X042503Y003417D01*
X042580Y003423D01*
X042657Y003432D01*
X042733Y003445D01*
X042809Y003462D01*
X042883Y003483D01*
X042957Y003507D01*
X043029Y003535D01*
X043099Y003566D01*
X043168Y003601D01*
X043236Y003639D01*
X043301Y003680D01*
X043364Y003725D01*
X043425Y003773D01*
X043484Y003823D01*
X043540Y003876D01*
X043593Y003932D01*
X043643Y003991D01*
X043691Y004052D01*
X043736Y004115D01*
X043777Y004180D01*
X043815Y004248D01*
X043850Y004317D01*
X043881Y004387D01*
X043909Y004459D01*
X043933Y004533D01*
X043954Y004607D01*
X043971Y004683D01*
X043984Y004759D01*
X043993Y004836D01*
X043999Y004913D01*
X044001Y004990D01*
X044001Y033337D01*
X041796Y033337D02*
X041798Y033387D01*
X041804Y033437D01*
X041814Y033486D01*
X041828Y033534D01*
X041845Y033581D01*
X041866Y033626D01*
X041891Y033670D01*
X041919Y033711D01*
X041951Y033750D01*
X041985Y033787D01*
X042022Y033821D01*
X042062Y033851D01*
X042104Y033878D01*
X042148Y033902D01*
X042194Y033923D01*
X042241Y033939D01*
X042289Y033952D01*
X042339Y033961D01*
X042388Y033966D01*
X042439Y033967D01*
X042489Y033964D01*
X042538Y033957D01*
X042587Y033946D01*
X042635Y033931D01*
X042681Y033913D01*
X042726Y033891D01*
X042769Y033865D01*
X042810Y033836D01*
X042849Y033804D01*
X042885Y033769D01*
X042917Y033731D01*
X042947Y033691D01*
X042974Y033648D01*
X042997Y033604D01*
X043016Y033558D01*
X043032Y033510D01*
X043044Y033461D01*
X043052Y033412D01*
X043056Y033362D01*
X043056Y033312D01*
X043052Y033262D01*
X043044Y033213D01*
X043032Y033164D01*
X043016Y033116D01*
X042997Y033070D01*
X042974Y033026D01*
X042947Y032983D01*
X042917Y032943D01*
X042885Y032905D01*
X042849Y032870D01*
X042810Y032838D01*
X042769Y032809D01*
X042726Y032783D01*
X042681Y032761D01*
X042635Y032743D01*
X042587Y032728D01*
X042538Y032717D01*
X042489Y032710D01*
X042439Y032707D01*
X042388Y032708D01*
X042339Y032713D01*
X042289Y032722D01*
X042241Y032735D01*
X042194Y032751D01*
X042148Y032772D01*
X042104Y032796D01*
X042062Y032823D01*
X042022Y032853D01*
X041985Y032887D01*
X041951Y032924D01*
X041919Y032963D01*
X041891Y033004D01*
X041866Y033048D01*
X041845Y033093D01*
X041828Y033140D01*
X041814Y033188D01*
X041804Y033237D01*
X041798Y033287D01*
X041796Y033337D01*
X042426Y034912D02*
X042503Y034910D01*
X042580Y034904D01*
X042657Y034895D01*
X042733Y034882D01*
X042809Y034865D01*
X042883Y034844D01*
X042957Y034820D01*
X043029Y034792D01*
X043099Y034761D01*
X043168Y034726D01*
X043236Y034688D01*
X043301Y034647D01*
X043364Y034602D01*
X043425Y034554D01*
X043484Y034504D01*
X043540Y034451D01*
X043593Y034395D01*
X043643Y034336D01*
X043691Y034275D01*
X043736Y034212D01*
X043777Y034147D01*
X043815Y034079D01*
X043850Y034010D01*
X043881Y033940D01*
X043909Y033868D01*
X043933Y033794D01*
X043954Y033720D01*
X043971Y033644D01*
X043984Y033568D01*
X043993Y033491D01*
X043999Y033414D01*
X044001Y033337D01*
X042426Y034912D02*
X006206Y034912D01*
X005576Y033337D02*
X005578Y033387D01*
X005584Y033437D01*
X005594Y033486D01*
X005608Y033534D01*
X005625Y033581D01*
X005646Y033626D01*
X005671Y033670D01*
X005699Y033711D01*
X005731Y033750D01*
X005765Y033787D01*
X005802Y033821D01*
X005842Y033851D01*
X005884Y033878D01*
X005928Y033902D01*
X005974Y033923D01*
X006021Y033939D01*
X006069Y033952D01*
X006119Y033961D01*
X006168Y033966D01*
X006219Y033967D01*
X006269Y033964D01*
X006318Y033957D01*
X006367Y033946D01*
X006415Y033931D01*
X006461Y033913D01*
X006506Y033891D01*
X006549Y033865D01*
X006590Y033836D01*
X006629Y033804D01*
X006665Y033769D01*
X006697Y033731D01*
X006727Y033691D01*
X006754Y033648D01*
X006777Y033604D01*
X006796Y033558D01*
X006812Y033510D01*
X006824Y033461D01*
X006832Y033412D01*
X006836Y033362D01*
X006836Y033312D01*
X006832Y033262D01*
X006824Y033213D01*
X006812Y033164D01*
X006796Y033116D01*
X006777Y033070D01*
X006754Y033026D01*
X006727Y032983D01*
X006697Y032943D01*
X006665Y032905D01*
X006629Y032870D01*
X006590Y032838D01*
X006549Y032809D01*
X006506Y032783D01*
X006461Y032761D01*
X006415Y032743D01*
X006367Y032728D01*
X006318Y032717D01*
X006269Y032710D01*
X006219Y032707D01*
X006168Y032708D01*
X006119Y032713D01*
X006069Y032722D01*
X006021Y032735D01*
X005974Y032751D01*
X005928Y032772D01*
X005884Y032796D01*
X005842Y032823D01*
X005802Y032853D01*
X005765Y032887D01*
X005731Y032924D01*
X005699Y032963D01*
X005671Y033004D01*
X005646Y033048D01*
X005625Y033093D01*
X005608Y033140D01*
X005594Y033188D01*
X005584Y033237D01*
X005578Y033287D01*
X005576Y033337D01*
X004631Y033337D02*
X004633Y033414D01*
X004639Y033491D01*
X004648Y033568D01*
X004661Y033644D01*
X004678Y033720D01*
X004699Y033794D01*
X004723Y033868D01*
X004751Y033940D01*
X004782Y034010D01*
X004817Y034079D01*
X004855Y034147D01*
X004896Y034212D01*
X004941Y034275D01*
X004989Y034336D01*
X005039Y034395D01*
X005092Y034451D01*
X005148Y034504D01*
X005207Y034554D01*
X005268Y034602D01*
X005331Y034647D01*
X005396Y034688D01*
X005464Y034726D01*
X005533Y034761D01*
X005603Y034792D01*
X005675Y034820D01*
X005749Y034844D01*
X005823Y034865D01*
X005899Y034882D01*
X005975Y034895D01*
X006052Y034904D01*
X006129Y034910D01*
X006206Y034912D01*
X004631Y033337D02*
X004631Y004990D01*
X005576Y004990D02*
X005578Y005040D01*
X005584Y005090D01*
X005594Y005139D01*
X005608Y005187D01*
X005625Y005234D01*
X005646Y005279D01*
X005671Y005323D01*
X005699Y005364D01*
X005731Y005403D01*
X005765Y005440D01*
X005802Y005474D01*
X005842Y005504D01*
X005884Y005531D01*
X005928Y005555D01*
X005974Y005576D01*
X006021Y005592D01*
X006069Y005605D01*
X006119Y005614D01*
X006168Y005619D01*
X006219Y005620D01*
X006269Y005617D01*
X006318Y005610D01*
X006367Y005599D01*
X006415Y005584D01*
X006461Y005566D01*
X006506Y005544D01*
X006549Y005518D01*
X006590Y005489D01*
X006629Y005457D01*
X006665Y005422D01*
X006697Y005384D01*
X006727Y005344D01*
X006754Y005301D01*
X006777Y005257D01*
X006796Y005211D01*
X006812Y005163D01*
X006824Y005114D01*
X006832Y005065D01*
X006836Y005015D01*
X006836Y004965D01*
X006832Y004915D01*
X006824Y004866D01*
X006812Y004817D01*
X006796Y004769D01*
X006777Y004723D01*
X006754Y004679D01*
X006727Y004636D01*
X006697Y004596D01*
X006665Y004558D01*
X006629Y004523D01*
X006590Y004491D01*
X006549Y004462D01*
X006506Y004436D01*
X006461Y004414D01*
X006415Y004396D01*
X006367Y004381D01*
X006318Y004370D01*
X006269Y004363D01*
X006219Y004360D01*
X006168Y004361D01*
X006119Y004366D01*
X006069Y004375D01*
X006021Y004388D01*
X005974Y004404D01*
X005928Y004425D01*
X005884Y004449D01*
X005842Y004476D01*
X005802Y004506D01*
X005765Y004540D01*
X005731Y004577D01*
X005699Y004616D01*
X005671Y004657D01*
X005646Y004701D01*
X005625Y004746D01*
X005608Y004793D01*
X005594Y004841D01*
X005584Y004890D01*
X005578Y004940D01*
X005576Y004990D01*
X004631Y004990D02*
X004633Y004913D01*
X004639Y004836D01*
X004648Y004759D01*
X004661Y004683D01*
X004678Y004607D01*
X004699Y004533D01*
X004723Y004459D01*
X004751Y004387D01*
X004782Y004317D01*
X004817Y004248D01*
X004855Y004180D01*
X004896Y004115D01*
X004941Y004052D01*
X004989Y003991D01*
X005039Y003932D01*
X005092Y003876D01*
X005148Y003823D01*
X005207Y003773D01*
X005268Y003725D01*
X005331Y003680D01*
X005396Y003639D01*
X005464Y003601D01*
X005533Y003566D01*
X005603Y003535D01*
X005675Y003507D01*
X005749Y003483D01*
X005823Y003462D01*
X005899Y003445D01*
X005975Y003432D01*
X006052Y003423D01*
X006129Y003417D01*
X006206Y003415D01*
D11*
X006206Y004990D03*
X042426Y004990D03*
X042426Y033337D03*
X006206Y033337D03*
D12*
X009441Y025509D02*
X009441Y025069D01*
X011441Y025069D02*
X011441Y025509D01*
D13*
X011388Y023541D02*
X011454Y023534D01*
X011517Y023516D01*
X011577Y023487D01*
X011630Y023448D01*
X011677Y023401D01*
X011714Y023346D01*
X011741Y023286D01*
X011757Y023222D01*
X011762Y023156D01*
X011754Y023084D01*
X011732Y023015D01*
X011697Y022951D01*
X011651Y022896D01*
X011594Y022851D01*
X011530Y022817D01*
X011461Y022797D01*
X011389Y022791D01*
X011316Y022797D01*
X011246Y022817D01*
X011182Y022850D01*
X011125Y022896D01*
X011078Y022951D01*
X011043Y023015D01*
X011021Y023084D01*
X011013Y023157D01*
X011018Y023223D01*
X011034Y023287D01*
X011061Y023347D01*
X011099Y023402D01*
X011145Y023449D01*
X011199Y023488D01*
X011258Y023516D01*
X011322Y023534D01*
X011388Y023541D01*
X011446Y023535D02*
X011328Y023535D01*
X011197Y023486D02*
X011578Y023486D01*
X011641Y023438D02*
X011134Y023438D01*
X011090Y023389D02*
X011684Y023389D01*
X011716Y023341D02*
X011059Y023341D01*
X011037Y023292D02*
X011738Y023292D01*
X011751Y023244D02*
X011023Y023244D01*
X011016Y023195D02*
X011759Y023195D01*
X011761Y023147D02*
X011014Y023147D01*
X011019Y023098D02*
X011755Y023098D01*
X011743Y023050D02*
X011032Y023050D01*
X011051Y023001D02*
X011725Y023001D01*
X011698Y022953D02*
X011077Y022953D01*
X011118Y022904D02*
X011658Y022904D01*
X011601Y022856D02*
X011175Y022856D01*
X011280Y022807D02*
X011496Y022807D01*
X012145Y023015D02*
X012123Y023084D01*
X012115Y023157D01*
X012120Y023223D01*
X012136Y023287D01*
X012163Y023347D01*
X012201Y023402D01*
X012247Y023449D01*
X012301Y023488D01*
X012360Y023516D01*
X012424Y023534D01*
X012490Y023541D01*
X012556Y023534D01*
X012619Y023516D01*
X012679Y023487D01*
X012732Y023448D01*
X012779Y023401D01*
X012816Y023346D01*
X012843Y023286D01*
X012859Y023222D01*
X012864Y023156D01*
X012856Y023084D01*
X012834Y023015D01*
X012799Y022951D01*
X012753Y022896D01*
X012696Y022851D01*
X012632Y022817D01*
X012563Y022797D01*
X012491Y022791D01*
X012418Y022797D01*
X012348Y022817D01*
X012284Y022850D01*
X012227Y022896D01*
X012180Y022951D01*
X012145Y023015D01*
X012153Y023001D02*
X012827Y023001D01*
X012845Y023050D02*
X012134Y023050D01*
X012121Y023098D02*
X012858Y023098D01*
X012863Y023147D02*
X012116Y023147D01*
X012118Y023195D02*
X012861Y023195D01*
X012853Y023244D02*
X012125Y023244D01*
X012139Y023292D02*
X012840Y023292D01*
X012818Y023341D02*
X012161Y023341D01*
X012192Y023389D02*
X012786Y023389D01*
X012743Y023438D02*
X012236Y023438D01*
X012299Y023486D02*
X012680Y023486D01*
X012548Y023535D02*
X012430Y023535D01*
X012179Y022953D02*
X012800Y022953D01*
X012760Y022904D02*
X012220Y022904D01*
X012277Y022856D02*
X012703Y022856D01*
X012598Y022807D02*
X012382Y022807D01*
X009733Y023098D02*
X008996Y023098D01*
X008998Y023084D02*
X008990Y023157D01*
X008995Y023223D01*
X009011Y023287D01*
X009038Y023347D01*
X009076Y023402D01*
X009122Y023449D01*
X009176Y023488D01*
X009235Y023516D01*
X009299Y023534D01*
X009365Y023541D01*
X009431Y023534D01*
X009494Y023516D01*
X009554Y023487D01*
X009607Y023448D01*
X009654Y023401D01*
X009691Y023346D01*
X009718Y023286D01*
X009734Y023222D01*
X009739Y023156D01*
X009731Y023084D01*
X009709Y023015D01*
X009674Y022951D01*
X009628Y022896D01*
X009571Y022851D01*
X009507Y022817D01*
X009438Y022797D01*
X009366Y022791D01*
X009293Y022797D01*
X009223Y022817D01*
X009159Y022850D01*
X009102Y022896D01*
X009055Y022951D01*
X009020Y023015D01*
X008998Y023084D01*
X009009Y023050D02*
X009720Y023050D01*
X009702Y023001D02*
X009028Y023001D01*
X009054Y022953D02*
X009675Y022953D01*
X009635Y022904D02*
X009095Y022904D01*
X009152Y022856D02*
X009578Y022856D01*
X009473Y022807D02*
X009257Y022807D01*
X008991Y023147D02*
X009738Y023147D01*
X009736Y023195D02*
X008993Y023195D01*
X009000Y023244D02*
X009728Y023244D01*
X009715Y023292D02*
X009014Y023292D01*
X009036Y023341D02*
X009693Y023341D01*
X009661Y023389D02*
X009067Y023389D01*
X009111Y023438D02*
X009618Y023438D01*
X009555Y023486D02*
X009174Y023486D01*
X009305Y023535D02*
X009423Y023535D01*
X008616Y023286D02*
X008632Y023222D01*
X008637Y023156D01*
X008629Y023084D01*
X008607Y023015D01*
X008572Y022951D01*
X008526Y022896D01*
X008469Y022851D01*
X008405Y022817D01*
X008336Y022797D01*
X008264Y022791D01*
X008191Y022797D01*
X008121Y022817D01*
X008057Y022850D01*
X008000Y022896D01*
X007953Y022951D01*
X007918Y023015D01*
X007896Y023084D01*
X007888Y023157D01*
X007893Y023223D01*
X007909Y023287D01*
X007936Y023347D01*
X007974Y023402D01*
X008020Y023449D01*
X008074Y023488D01*
X008133Y023516D01*
X008197Y023534D01*
X008263Y023541D01*
X008329Y023534D01*
X008392Y023516D01*
X008452Y023487D01*
X008505Y023448D01*
X008552Y023401D01*
X008589Y023346D01*
X008616Y023286D01*
X008613Y023292D02*
X007912Y023292D01*
X007898Y023244D02*
X008626Y023244D01*
X008634Y023195D02*
X007891Y023195D01*
X007889Y023147D02*
X008636Y023147D01*
X008630Y023098D02*
X007894Y023098D01*
X007907Y023050D02*
X008618Y023050D01*
X008600Y023001D02*
X007926Y023001D01*
X007952Y022953D02*
X008573Y022953D01*
X008533Y022904D02*
X007993Y022904D01*
X008050Y022856D02*
X008476Y022856D01*
X008371Y022807D02*
X008155Y022807D01*
X007934Y023341D02*
X008591Y023341D01*
X008559Y023389D02*
X007965Y023389D01*
X008009Y023438D02*
X008516Y023438D01*
X008453Y023486D02*
X008072Y023486D01*
X008203Y023535D02*
X008321Y023535D01*
X011917Y031895D02*
X011853Y031930D01*
X011798Y031977D01*
X011753Y032033D01*
X011719Y032097D01*
X011699Y032167D01*
X011693Y032239D01*
X011699Y032311D01*
X011719Y032381D01*
X011752Y032446D01*
X011798Y032502D01*
X011853Y032549D01*
X011917Y032584D01*
X011986Y032606D01*
X012059Y032615D01*
X012125Y032610D01*
X012189Y032593D01*
X012249Y032566D01*
X012304Y032529D01*
X012351Y032483D01*
X012390Y032429D01*
X012418Y032369D01*
X012436Y032305D01*
X012443Y032240D01*
X012436Y032174D01*
X012418Y032110D01*
X012389Y032051D01*
X012350Y031997D01*
X012303Y031951D01*
X012248Y031914D01*
X012188Y031887D01*
X012124Y031870D01*
X012058Y031866D01*
X011986Y031873D01*
X011917Y031895D01*
X011975Y031877D02*
X012149Y031877D01*
X012265Y031925D02*
X011862Y031925D01*
X011801Y031974D02*
X012327Y031974D01*
X012369Y032022D02*
X011761Y032022D01*
X011733Y032071D02*
X012399Y032071D01*
X012421Y032119D02*
X011713Y032119D01*
X011699Y032168D02*
X012434Y032168D01*
X012440Y032216D02*
X011695Y032216D01*
X011695Y032265D02*
X012440Y032265D01*
X012434Y032313D02*
X011699Y032313D01*
X011714Y032362D02*
X012420Y032362D01*
X012399Y032410D02*
X011734Y032410D01*
X011763Y032459D02*
X012368Y032459D01*
X012326Y032507D02*
X011804Y032507D01*
X011865Y032556D02*
X012264Y032556D01*
X012146Y032604D02*
X011979Y032604D01*
X011986Y032975D02*
X011917Y032997D01*
X011853Y033032D01*
X011798Y033079D01*
X011753Y033135D01*
X011719Y033199D01*
X011699Y033269D01*
X011693Y033341D01*
X011699Y033413D01*
X011719Y033483D01*
X011752Y033548D01*
X011798Y033604D01*
X011853Y033651D01*
X011917Y033686D01*
X011986Y033709D01*
X012059Y033717D01*
X012125Y033712D01*
X012189Y033695D01*
X012249Y033668D01*
X012304Y033631D01*
X012351Y033585D01*
X012390Y033531D01*
X012418Y033471D01*
X012436Y033407D01*
X012443Y033342D01*
X012436Y033276D01*
X012418Y033212D01*
X012389Y033153D01*
X012350Y033099D01*
X012303Y033053D01*
X012248Y033016D01*
X012188Y032989D01*
X012124Y032972D01*
X012058Y032968D01*
X011986Y032975D01*
X011933Y032992D02*
X012196Y032992D01*
X012285Y033041D02*
X011843Y033041D01*
X011789Y033089D02*
X012340Y033089D01*
X012378Y033138D02*
X011751Y033138D01*
X011726Y033186D02*
X012405Y033186D01*
X012424Y033235D02*
X011709Y033235D01*
X011698Y033283D02*
X012437Y033283D01*
X012442Y033332D02*
X011693Y033332D01*
X011696Y033380D02*
X012439Y033380D01*
X012430Y033429D02*
X011703Y033429D01*
X011717Y033477D02*
X012415Y033477D01*
X012392Y033526D02*
X011741Y033526D01*
X011774Y033574D02*
X012358Y033574D01*
X012312Y033623D02*
X011820Y033623D01*
X011890Y033671D02*
X012242Y033671D01*
X013078Y033429D02*
X013802Y033429D01*
X013807Y033411D02*
X013814Y033339D01*
X013808Y033266D01*
X013787Y033196D01*
X013754Y033132D01*
X013709Y033075D01*
X013653Y033028D01*
X013589Y032993D01*
X013520Y032971D01*
X013448Y032963D01*
X013382Y032968D01*
X013318Y032984D01*
X013257Y033011D01*
X013203Y033049D01*
X013155Y033095D01*
X013117Y033149D01*
X013088Y033208D01*
X013070Y033272D01*
X013064Y033338D01*
X013070Y033403D01*
X013089Y033467D01*
X013117Y033527D01*
X013156Y033580D01*
X013204Y033626D01*
X013258Y033664D01*
X013319Y033691D01*
X013383Y033707D01*
X013449Y033712D01*
X013521Y033704D01*
X013590Y033682D01*
X013653Y033647D01*
X013709Y033601D01*
X013754Y033544D01*
X013787Y033480D01*
X013807Y033411D01*
X013810Y033380D02*
X013068Y033380D01*
X013064Y033332D02*
X013813Y033332D01*
X013809Y033283D02*
X013069Y033283D01*
X013081Y033235D02*
X013799Y033235D01*
X013782Y033186D02*
X013099Y033186D01*
X013125Y033138D02*
X013757Y033138D01*
X013720Y033089D02*
X013161Y033089D01*
X013214Y033041D02*
X013668Y033041D01*
X013588Y032992D02*
X013299Y032992D01*
X013383Y032605D02*
X013449Y032610D01*
X013521Y032602D01*
X013590Y032580D01*
X013653Y032545D01*
X013709Y032499D01*
X013754Y032442D01*
X013787Y032378D01*
X013807Y032309D01*
X013814Y032237D01*
X013808Y032164D01*
X013787Y032094D01*
X013754Y032030D01*
X013709Y031973D01*
X013653Y031926D01*
X013589Y031891D01*
X013520Y031869D01*
X013448Y031861D01*
X013382Y031866D01*
X013318Y031882D01*
X013257Y031909D01*
X013203Y031947D01*
X013155Y031993D01*
X013117Y032047D01*
X013088Y032106D01*
X013070Y032170D01*
X013064Y032236D01*
X013070Y032301D01*
X013089Y032365D01*
X013117Y032425D01*
X013156Y032478D01*
X013204Y032524D01*
X013258Y032562D01*
X013319Y032589D01*
X013383Y032605D01*
X013380Y032604D02*
X013498Y032604D01*
X013634Y032556D02*
X013250Y032556D01*
X013186Y032507D02*
X013698Y032507D01*
X013741Y032459D02*
X013142Y032459D01*
X013110Y032410D02*
X013771Y032410D01*
X013792Y032362D02*
X013088Y032362D01*
X013074Y032313D02*
X013806Y032313D01*
X013811Y032265D02*
X013067Y032265D01*
X013066Y032216D02*
X013812Y032216D01*
X013808Y032168D02*
X013071Y032168D01*
X013084Y032119D02*
X013795Y032119D01*
X013775Y032071D02*
X013105Y032071D01*
X013134Y032022D02*
X013748Y032022D01*
X013709Y031974D02*
X013175Y031974D01*
X013234Y031925D02*
X013652Y031925D01*
X013545Y031877D02*
X013338Y031877D01*
X013093Y033477D02*
X013788Y033477D01*
X013764Y033526D02*
X013117Y033526D01*
X013152Y033574D02*
X013730Y033574D01*
X013682Y033623D02*
X013200Y033623D01*
X013275Y033671D02*
X013609Y033671D01*
X017638Y033407D02*
X017643Y033473D01*
X017659Y033537D01*
X017686Y033597D01*
X017724Y033652D01*
X017770Y033699D01*
X017824Y033738D01*
X017883Y033766D01*
X017947Y033784D01*
X018013Y033791D01*
X018079Y033784D01*
X018142Y033766D01*
X018202Y033737D01*
X018255Y033698D01*
X018302Y033651D01*
X018339Y033596D01*
X018366Y033536D01*
X018382Y033472D01*
X018387Y033406D01*
X018379Y033334D01*
X018357Y033265D01*
X018322Y033201D01*
X018276Y033146D01*
X018219Y033101D01*
X018155Y033067D01*
X018086Y033047D01*
X018014Y033041D01*
X017941Y033047D01*
X017871Y033067D01*
X017807Y033100D01*
X017750Y033146D01*
X017703Y033201D01*
X017668Y033265D01*
X017646Y033334D01*
X017638Y033407D01*
X017639Y033429D02*
X018385Y033429D01*
X018381Y033477D02*
X017644Y033477D01*
X017656Y033526D02*
X018368Y033526D01*
X018348Y033574D02*
X017676Y033574D01*
X017704Y033623D02*
X018321Y033623D01*
X018282Y033671D02*
X017743Y033671D01*
X017799Y033720D02*
X018226Y033720D01*
X018134Y033768D02*
X017890Y033768D01*
X017641Y033380D02*
X018384Y033380D01*
X018378Y033332D02*
X017647Y033332D01*
X017662Y033283D02*
X018363Y033283D01*
X018341Y033235D02*
X017685Y033235D01*
X017716Y033186D02*
X018310Y033186D01*
X018266Y033138D02*
X017760Y033138D01*
X017828Y033089D02*
X018198Y033089D01*
X018015Y033041D02*
X018012Y033041D01*
X018764Y033283D02*
X019465Y033283D01*
X019459Y033265D02*
X019481Y033334D01*
X019489Y033406D01*
X019484Y033472D01*
X019468Y033536D01*
X019441Y033596D01*
X019404Y033651D01*
X019357Y033698D01*
X019304Y033737D01*
X019244Y033766D01*
X019181Y033784D01*
X019115Y033791D01*
X019049Y033784D01*
X018985Y033766D01*
X018926Y033738D01*
X018872Y033699D01*
X018826Y033652D01*
X018788Y033597D01*
X018761Y033537D01*
X018745Y033473D01*
X018740Y033407D01*
X018748Y033334D01*
X018770Y033265D01*
X018805Y033201D01*
X018852Y033146D01*
X018909Y033100D01*
X018973Y033067D01*
X019043Y033047D01*
X019116Y033041D01*
X019188Y033047D01*
X019257Y033067D01*
X019321Y033101D01*
X019378Y033146D01*
X019424Y033201D01*
X019459Y033265D01*
X019443Y033235D02*
X018787Y033235D01*
X018818Y033186D02*
X019412Y033186D01*
X019368Y033138D02*
X018862Y033138D01*
X018930Y033089D02*
X019300Y033089D01*
X019117Y033041D02*
X019114Y033041D01*
X018749Y033332D02*
X019480Y033332D01*
X019486Y033380D02*
X018743Y033380D01*
X018741Y033429D02*
X019487Y033429D01*
X019483Y033477D02*
X018746Y033477D01*
X018758Y033526D02*
X019470Y033526D01*
X019450Y033574D02*
X018778Y033574D01*
X018806Y033623D02*
X019423Y033623D01*
X019384Y033671D02*
X018845Y033671D01*
X018901Y033720D02*
X019328Y033720D01*
X019236Y033768D02*
X018993Y033768D01*
X023819Y009905D02*
X023891Y009912D01*
X023963Y009906D01*
X024033Y009885D01*
X024098Y009852D01*
X024155Y009807D01*
X024201Y009751D01*
X024237Y009687D01*
X024259Y009618D01*
X024267Y009546D01*
X024262Y009480D01*
X024245Y009416D01*
X024218Y009355D01*
X024181Y009301D01*
X024135Y009253D01*
X024081Y009215D01*
X024021Y009186D01*
X023958Y009168D01*
X023892Y009162D01*
X023826Y009168D01*
X023762Y009186D01*
X023703Y009215D01*
X023649Y009254D01*
X023603Y009301D01*
X023566Y009356D01*
X023539Y009417D01*
X023523Y009481D01*
X023518Y009547D01*
X023526Y009619D01*
X023547Y009688D01*
X023582Y009751D01*
X023629Y009806D01*
X023685Y009852D01*
X023749Y009885D01*
X023819Y009905D01*
X023827Y009906D02*
X023956Y009906D01*
X024087Y009858D02*
X023696Y009858D01*
X023632Y009809D02*
X024151Y009809D01*
X024193Y009761D02*
X023590Y009761D01*
X023561Y009712D02*
X024223Y009712D01*
X024244Y009664D02*
X023540Y009664D01*
X023525Y009615D02*
X024259Y009615D01*
X024264Y009567D02*
X023520Y009567D01*
X023520Y009518D02*
X024265Y009518D01*
X024259Y009470D02*
X023525Y009470D01*
X023538Y009421D02*
X024247Y009421D01*
X024226Y009373D02*
X023558Y009373D01*
X023588Y009324D02*
X024197Y009324D01*
X024156Y009276D02*
X023628Y009276D01*
X023686Y009227D02*
X024098Y009227D01*
X023995Y009179D02*
X023790Y009179D01*
X024641Y009417D02*
X024625Y009481D01*
X024620Y009547D01*
X024628Y009619D01*
X024649Y009688D01*
X024684Y009751D01*
X024731Y009806D01*
X024787Y009852D01*
X024851Y009885D01*
X024921Y009905D01*
X024993Y009912D01*
X025065Y009906D01*
X025135Y009885D01*
X025200Y009852D01*
X025257Y009807D01*
X025303Y009751D01*
X025339Y009687D01*
X025361Y009618D01*
X025369Y009546D01*
X025364Y009480D01*
X025347Y009416D01*
X025320Y009355D01*
X025283Y009301D01*
X025237Y009253D01*
X025183Y009215D01*
X025123Y009186D01*
X025060Y009168D01*
X024994Y009162D01*
X024928Y009168D01*
X024864Y009186D01*
X024805Y009215D01*
X024751Y009254D01*
X024705Y009301D01*
X024668Y009356D01*
X024641Y009417D01*
X024640Y009421D02*
X025349Y009421D01*
X025361Y009470D02*
X024627Y009470D01*
X024622Y009518D02*
X025367Y009518D01*
X025366Y009567D02*
X024622Y009567D01*
X024627Y009615D02*
X025361Y009615D01*
X025346Y009664D02*
X024642Y009664D01*
X024663Y009712D02*
X025325Y009712D01*
X025295Y009761D02*
X024692Y009761D01*
X024734Y009809D02*
X025253Y009809D01*
X025189Y009858D02*
X024798Y009858D01*
X024929Y009906D02*
X025058Y009906D01*
X025328Y009373D02*
X024660Y009373D01*
X024690Y009324D02*
X025299Y009324D01*
X025258Y009276D02*
X024730Y009276D01*
X024788Y009227D02*
X025200Y009227D01*
X025097Y009179D02*
X024892Y009179D01*
X024993Y007412D02*
X024921Y007405D01*
X024851Y007385D01*
X024787Y007352D01*
X024731Y007306D01*
X024684Y007251D01*
X024649Y007188D01*
X024628Y007119D01*
X024620Y007047D01*
X024625Y006981D01*
X024641Y006917D01*
X024668Y006856D01*
X024705Y006801D01*
X024751Y006754D01*
X024805Y006715D01*
X024864Y006686D01*
X024928Y006668D01*
X024994Y006662D01*
X025060Y006668D01*
X025123Y006686D01*
X025183Y006715D01*
X025237Y006753D01*
X025283Y006801D01*
X025320Y006855D01*
X025347Y006916D01*
X025364Y006980D01*
X025369Y007046D01*
X025361Y007118D01*
X025339Y007187D01*
X025303Y007251D01*
X025257Y007307D01*
X025200Y007352D01*
X025135Y007385D01*
X025065Y007406D01*
X024993Y007412D01*
X024849Y007384D02*
X025137Y007384D01*
X025220Y007336D02*
X024767Y007336D01*
X024714Y007287D02*
X025273Y007287D01*
X025310Y007239D02*
X024677Y007239D01*
X024651Y007190D02*
X025337Y007190D01*
X025353Y007142D02*
X024635Y007142D01*
X024625Y007093D02*
X025363Y007093D01*
X025369Y007045D02*
X024620Y007045D01*
X024623Y006996D02*
X025365Y006996D01*
X025356Y006948D02*
X024633Y006948D01*
X024649Y006899D02*
X025340Y006899D01*
X025317Y006851D02*
X024672Y006851D01*
X024705Y006802D02*
X025284Y006802D01*
X025237Y006754D02*
X024752Y006754D01*
X024826Y006705D02*
X025163Y006705D01*
X024254Y006948D02*
X023531Y006948D01*
X023539Y006917D02*
X023523Y006981D01*
X023518Y007047D01*
X023526Y007119D01*
X023547Y007188D01*
X023582Y007251D01*
X023629Y007306D01*
X023685Y007352D01*
X023749Y007385D01*
X023819Y007405D01*
X023891Y007412D01*
X023963Y007406D01*
X024033Y007385D01*
X024098Y007352D01*
X024155Y007307D01*
X024201Y007251D01*
X024237Y007187D01*
X024259Y007118D01*
X024267Y007046D01*
X024262Y006980D01*
X024245Y006916D01*
X024218Y006855D01*
X024181Y006801D01*
X024135Y006753D01*
X024081Y006715D01*
X024021Y006686D01*
X023958Y006668D01*
X023892Y006662D01*
X023826Y006668D01*
X023762Y006686D01*
X023703Y006715D01*
X023649Y006754D01*
X023603Y006801D01*
X023566Y006856D01*
X023539Y006917D01*
X023547Y006899D02*
X024238Y006899D01*
X024215Y006851D02*
X023570Y006851D01*
X023602Y006802D02*
X024182Y006802D01*
X024135Y006754D02*
X023650Y006754D01*
X023724Y006705D02*
X024061Y006705D01*
X024263Y006996D02*
X023521Y006996D01*
X023518Y007045D02*
X024267Y007045D01*
X024261Y007093D02*
X023523Y007093D01*
X023533Y007142D02*
X024251Y007142D01*
X024235Y007190D02*
X023549Y007190D01*
X023575Y007239D02*
X024208Y007239D01*
X024171Y007287D02*
X023612Y007287D01*
X023665Y007336D02*
X024118Y007336D01*
X024035Y007384D02*
X023747Y007384D01*
X032138Y007032D02*
X032143Y007098D01*
X032159Y007162D01*
X032186Y007222D01*
X032224Y007277D01*
X032270Y007324D01*
X032324Y007363D01*
X032383Y007391D01*
X032447Y007409D01*
X032513Y007416D01*
X032579Y007409D01*
X032642Y007391D01*
X032702Y007362D01*
X032755Y007323D01*
X032802Y007276D01*
X032839Y007221D01*
X032866Y007161D01*
X032882Y007097D01*
X032887Y007031D01*
X032879Y006959D01*
X032857Y006890D01*
X032822Y006826D01*
X032776Y006771D01*
X032719Y006726D01*
X032655Y006692D01*
X032586Y006672D01*
X032514Y006666D01*
X032441Y006672D01*
X032371Y006692D01*
X032307Y006725D01*
X032250Y006771D01*
X032203Y006826D01*
X032168Y006890D01*
X032146Y006959D01*
X032138Y007032D01*
X032139Y007045D02*
X032886Y007045D01*
X032882Y007093D02*
X032142Y007093D01*
X032154Y007142D02*
X032871Y007142D01*
X032853Y007190D02*
X032172Y007190D01*
X032198Y007239D02*
X032827Y007239D01*
X032791Y007287D02*
X032234Y007287D01*
X032286Y007336D02*
X032738Y007336D01*
X032656Y007384D02*
X032368Y007384D01*
X032142Y006996D02*
X032883Y006996D01*
X032875Y006948D02*
X032150Y006948D01*
X032165Y006899D02*
X032860Y006899D01*
X032836Y006851D02*
X032190Y006851D01*
X032224Y006802D02*
X032802Y006802D01*
X032754Y006754D02*
X032271Y006754D01*
X032346Y006705D02*
X032680Y006705D01*
X033270Y006890D02*
X033248Y006959D01*
X033240Y007032D01*
X033245Y007098D01*
X033261Y007162D01*
X033288Y007222D01*
X033326Y007277D01*
X033372Y007324D01*
X033426Y007363D01*
X033485Y007391D01*
X033549Y007409D01*
X033615Y007416D01*
X033681Y007409D01*
X033744Y007391D01*
X033804Y007362D01*
X033857Y007323D01*
X033904Y007276D01*
X033941Y007221D01*
X033968Y007161D01*
X033984Y007097D01*
X033989Y007031D01*
X033981Y006959D01*
X033959Y006890D01*
X033924Y006826D01*
X033878Y006771D01*
X033821Y006726D01*
X033757Y006692D01*
X033688Y006672D01*
X033616Y006666D01*
X033543Y006672D01*
X033473Y006692D01*
X033409Y006725D01*
X033352Y006771D01*
X033305Y006826D01*
X033270Y006890D01*
X033267Y006899D02*
X033962Y006899D01*
X033977Y006948D02*
X033252Y006948D01*
X033244Y006996D02*
X033985Y006996D01*
X033988Y007045D02*
X033241Y007045D01*
X033244Y007093D02*
X033984Y007093D01*
X033973Y007142D02*
X033256Y007142D01*
X033274Y007190D02*
X033955Y007190D01*
X033929Y007239D02*
X033300Y007239D01*
X033336Y007287D02*
X033893Y007287D01*
X033840Y007336D02*
X033388Y007336D01*
X033470Y007384D02*
X033758Y007384D01*
X033938Y006851D02*
X033292Y006851D01*
X033326Y006802D02*
X033904Y006802D01*
X033856Y006754D02*
X033373Y006754D01*
X033448Y006705D02*
X033782Y006705D01*
X033616Y009291D02*
X033688Y009297D01*
X033757Y009317D01*
X033821Y009351D01*
X033878Y009396D01*
X033924Y009451D01*
X033959Y009515D01*
X033981Y009584D01*
X033989Y009656D01*
X033984Y009722D01*
X033968Y009786D01*
X033941Y009846D01*
X033904Y009901D01*
X033857Y009948D01*
X033804Y009987D01*
X033744Y010016D01*
X033681Y010034D01*
X033615Y010041D01*
X033549Y010034D01*
X033485Y010016D01*
X033426Y009988D01*
X033372Y009949D01*
X033326Y009902D01*
X033288Y009847D01*
X033261Y009787D01*
X033245Y009723D01*
X033240Y009657D01*
X033248Y009584D01*
X033270Y009515D01*
X033305Y009451D01*
X033352Y009396D01*
X033409Y009350D01*
X033473Y009317D01*
X033543Y009297D01*
X033616Y009291D01*
X033771Y009324D02*
X033460Y009324D01*
X033381Y009373D02*
X033849Y009373D01*
X033899Y009421D02*
X033331Y009421D01*
X033295Y009470D02*
X033934Y009470D01*
X033960Y009518D02*
X033269Y009518D01*
X033254Y009567D02*
X033976Y009567D01*
X033984Y009615D02*
X033244Y009615D01*
X033240Y009664D02*
X033988Y009664D01*
X033985Y009712D02*
X033244Y009712D01*
X033254Y009761D02*
X033974Y009761D01*
X033957Y009809D02*
X033271Y009809D01*
X033296Y009858D02*
X033933Y009858D01*
X033898Y009906D02*
X033330Y009906D01*
X033380Y009955D02*
X033849Y009955D01*
X033771Y010003D02*
X033458Y010003D01*
X032866Y009786D02*
X032882Y009722D01*
X032887Y009656D01*
X032879Y009584D01*
X032857Y009515D01*
X032822Y009451D01*
X032776Y009396D01*
X032719Y009351D01*
X032655Y009317D01*
X032586Y009297D01*
X032514Y009291D01*
X032441Y009297D01*
X032371Y009317D01*
X032307Y009350D01*
X032250Y009396D01*
X032203Y009451D01*
X032168Y009515D01*
X032146Y009584D01*
X032138Y009657D01*
X032143Y009723D01*
X032159Y009787D01*
X032186Y009847D01*
X032224Y009902D01*
X032270Y009949D01*
X032324Y009988D01*
X032383Y010016D01*
X032447Y010034D01*
X032513Y010041D01*
X032579Y010034D01*
X032642Y010016D01*
X032702Y009987D01*
X032755Y009948D01*
X032802Y009901D01*
X032839Y009846D01*
X032866Y009786D01*
X032855Y009809D02*
X032169Y009809D01*
X032152Y009761D02*
X032872Y009761D01*
X032883Y009712D02*
X032142Y009712D01*
X032138Y009664D02*
X032886Y009664D01*
X032882Y009615D02*
X032142Y009615D01*
X032152Y009567D02*
X032874Y009567D01*
X032858Y009518D02*
X032167Y009518D01*
X032193Y009470D02*
X032832Y009470D01*
X032797Y009421D02*
X032229Y009421D01*
X032279Y009373D02*
X032747Y009373D01*
X032669Y009324D02*
X032358Y009324D01*
X032194Y009858D02*
X032831Y009858D01*
X032796Y009906D02*
X032228Y009906D01*
X032278Y009955D02*
X032747Y009955D01*
X032669Y010003D02*
X032356Y010003D01*
D14*
X007971Y009906D03*
X007191Y009906D03*
X007191Y008922D03*
X007971Y008922D03*
X007971Y028422D03*
X007191Y028422D03*
X007191Y029406D03*
X007971Y029406D03*
D15*
X006121Y031284D03*
X006121Y026544D03*
X006121Y011784D03*
X006121Y007044D03*
D16*
X009066Y005664D03*
X009066Y004664D03*
X010566Y005789D03*
X013566Y005789D03*
X015191Y005664D03*
X015191Y004664D03*
X016691Y005789D03*
X019691Y005789D03*
X016691Y021539D03*
X018566Y021789D03*
X019566Y021789D03*
X019566Y023789D03*
X018566Y023789D03*
X016566Y024039D03*
X016566Y025164D03*
X015941Y027289D03*
X013566Y025164D03*
X013566Y024039D03*
X013691Y021539D03*
X015941Y030289D03*
D17*
X009316Y032789D03*
D18*
X010316Y032789D03*
D19*
X022306Y028789D02*
X022826Y028789D01*
X022826Y027789D02*
X022306Y027789D01*
X022306Y026789D02*
X022826Y026789D01*
X022826Y025789D02*
X022306Y025789D01*
X022306Y024789D02*
X022826Y024789D01*
X022826Y023789D02*
X022306Y023789D01*
X022306Y022789D02*
X022826Y022789D01*
X022826Y021789D02*
X022306Y021789D01*
X022306Y020789D02*
X022826Y020789D01*
X022826Y019789D02*
X022306Y019789D01*
X025306Y019789D02*
X025826Y019789D01*
X025826Y020789D02*
X025306Y020789D01*
X025306Y021789D02*
X025826Y021789D01*
X025826Y022789D02*
X025306Y022789D01*
X025306Y023789D02*
X025826Y023789D01*
X025826Y024789D02*
X025306Y024789D01*
X025306Y025789D02*
X025826Y025789D01*
X025826Y026789D02*
X025306Y026789D01*
X025306Y027789D02*
X025826Y027789D01*
X025826Y028789D02*
X025306Y028789D01*
X017326Y011664D02*
X016806Y011664D01*
X016806Y010664D02*
X017326Y010664D01*
X017326Y009664D02*
X016806Y009664D01*
X016806Y008664D02*
X017326Y008664D01*
X014326Y008664D02*
X013806Y008664D01*
X013806Y009664D02*
X014326Y009664D01*
X014326Y010664D02*
X013806Y010664D01*
X013806Y011664D02*
X014326Y011664D01*
D20*
X012216Y011039D03*
X012216Y009914D03*
X009416Y009914D03*
X009416Y011039D03*
D21*
X009816Y015414D03*
X008816Y015414D03*
X007816Y015414D03*
X007816Y016414D03*
X008816Y016414D03*
X009816Y016414D03*
X014441Y016464D03*
X015441Y016464D03*
X016441Y016464D03*
X017441Y016464D03*
X018441Y016464D03*
X018441Y015364D03*
X017441Y015364D03*
X016441Y015364D03*
X015441Y015364D03*
X014441Y015364D03*
D22*
X012316Y012164D03*
X009316Y012164D03*
X009316Y008664D03*
X009316Y007414D03*
X012316Y007414D03*
X012316Y008664D03*
D23*
X029316Y015664D03*
X029316Y016664D03*
X029316Y017664D03*
X029316Y018664D03*
X029316Y019664D03*
X029316Y020664D03*
X029316Y021664D03*
X029316Y022664D03*
X029316Y023664D03*
X029316Y024664D03*
X029316Y025664D03*
X029316Y026664D03*
X029316Y027664D03*
X029316Y028664D03*
X032316Y028664D03*
X032316Y027664D03*
X032316Y026664D03*
X032316Y025664D03*
X032316Y024664D03*
X032316Y023664D03*
X032316Y022664D03*
X032316Y021664D03*
X032316Y020664D03*
X032316Y019664D03*
X032316Y018664D03*
X032316Y017664D03*
X032316Y016664D03*
X032316Y015664D03*
X035916Y016164D03*
X035916Y015164D03*
X035916Y014164D03*
X035916Y013164D03*
X035916Y012164D03*
X035916Y011164D03*
X035916Y010164D03*
X035916Y009164D03*
X041716Y009164D03*
X041716Y010164D03*
X041716Y011164D03*
X041716Y012164D03*
X041716Y013164D03*
X041716Y014164D03*
X041716Y015164D03*
X041716Y016164D03*
X041716Y017164D03*
X041716Y018164D03*
X041716Y019164D03*
X041716Y020164D03*
X041716Y021164D03*
X041716Y022164D03*
X041716Y023164D03*
X041716Y024164D03*
X041716Y025164D03*
X041716Y026164D03*
X041716Y027164D03*
X041716Y028164D03*
X035916Y028164D03*
X035916Y027164D03*
X035916Y026164D03*
X035916Y025164D03*
X035916Y024164D03*
X035916Y023164D03*
X035916Y022164D03*
X035916Y021164D03*
X035916Y020164D03*
X035916Y019164D03*
X035916Y018164D03*
X035916Y017164D03*
X019066Y025914D03*
X018066Y025914D03*
X018066Y026914D03*
X018066Y027914D03*
X019066Y027914D03*
X019066Y026914D03*
X019066Y028914D03*
X018066Y028914D03*
X018066Y029914D03*
X018066Y030914D03*
X019066Y030914D03*
X019066Y029914D03*
D24*
X027866Y009539D03*
X029766Y009539D03*
X029766Y007039D03*
X027866Y007039D03*
D25*
X031316Y011664D03*
X029066Y013414D03*
X029066Y014039D03*
X029066Y014664D03*
X033941Y019289D03*
X033941Y020164D03*
X033941Y021039D03*
X023691Y027289D03*
X021191Y028414D03*
X020691Y026789D03*
X016316Y026414D03*
X015566Y025164D03*
X012316Y028539D03*
X010441Y028039D03*
X009191Y030914D03*
X015941Y018289D03*
X019691Y017414D03*
X021941Y014914D03*
X020691Y013914D03*
X020691Y012289D03*
X019941Y012164D03*
X013066Y011414D03*
X011816Y014039D03*
X006941Y014664D03*
X034316Y006289D03*
X034316Y005289D03*
D26*
X021540Y007226D03*
X019592Y007232D03*
X005868Y023501D03*
M02*
