 0
SECTION
 2
ENTITIES
  0
LINE
 8
Layer0
10
-2675.96897297695
20
2620.50978449679
30
0.0
11
-2676.354861733
21
2620.66962485311
31
0.0
  0
LINE
 8
Layer0
10
-2675.63760278979
20
2617.99277803486
30
0.0
11
-2675.38333350217
21
2618.32414822201
31
0.0
  0
LINE
 8
Layer0
10
-2675.38333350217
20
2618.32414822201
30
0.0
11
-2675.22349314585
21
2618.71003697807
31
0.0
  0
LINE
 8
Layer0
10
-2675.22349314585
20
2618.71003697807
30
0.0
11
-2675.16897457695
21
2619.12414662201
31
0.0
  0
LINE
 8
Layer0
10
-2677.56896977695
20
2620.50978449679
30
0.0
11
-2677.9003399641
21
2620.25551520917
31
0.0
  0
LINE
 8
Layer0
10
-2676.354861733
20
2620.66962485311
30
0.0
11
-2676.76897137695
21
2620.72414342201
31
0.0
  0
LINE
 8
Layer0
10
-2676.76897137695
20
2620.72414342201
30
0.0
11
-2677.18308102089
21
2620.66962485311
31
0.0
  0
LINE
 8
Layer0
10
-2677.18308102089
20
2620.66962485311
30
0.0
11
-2677.56896977695
21
2620.50978449679
31
0.0
  0
LINE
 8
Layer0
10
-2676.354861733
20
2617.57866839091
30
0.0
11
-2675.96897297695
21
2617.73850874724
31
0.0
  0
LINE
 8
Layer0
10
-2678.15460925172
20
2619.92414502201
30
0.0
11
-2678.31444960805
21
2619.53825626596
31
0.0
  0
LINE
 8
Layer0
10
-2678.31444960805
20
2619.53825626596
30
0.0
11
-2678.36896817695
21
2619.12414662201
31
0.0
  0
LINE
 8
Layer0
10
-2675.96897297695
20
2617.73850874724
30
0.0
11
-2675.63760278979
21
2617.99277803486
31
0.0
  0
LINE
 8
Layer0
10
-2677.9003399641
20
2620.25551520917
30
0.0
11
-2678.15460925172
21
2619.92414502201
31
0.0
  0
LINE
 8
Layer0
10
-2574.00044
20
2579.00043
30
0.0
11
-2574.00044
21
2584.00042
31
0.0
  0
LINE
 8
Layer0
10
-2579.00043
20
2574.00044
30
0.0
11
-2574.00044
21
2579.00043
31
0.0
  0
LINE
 8
Layer0
10
-2584.00042
20
2574.00044
30
0.0
11
-2579.00043
21
2574.00044
31
0.0
  0
LINE
 8
Layer0
10
-2584.00042
20
2574.00044
30
0.0
11
-2594.0004
21
2584.00042
31
0.0
  0
LINE
 8
Layer0
10
-2594.0004
20
2584.00042
30
0.0
11
-2664.00026
21
2584.00042
31
0.0
  0
LINE
 8
Layer0
10
-2664.00026
20
2584.00042
30
0.0
11
-2674.00024
21
2574.00044
31
0.0
  0
LINE
 8
Layer0
10
-2694.0002
20
2574.00044
30
0.0
11
-2674.00024
21
2574.00044
31
0.0
  0
LINE
 8
Layer0
10
-2694.0002
20
2574.00044
30
0.0
11
-2704.00018
21
2584.00042
31
0.0
  0
LINE
 8
Layer0
10
-2704.00018
20
2584.00042
30
0.0
11
-2774.00004
21
2584.00042
31
0.0
  0
LINE
 8
Layer0
10
-2774.00004
20
2584.00042
30
0.0
11
-2784.00002
21
2574.00044
31
0.0
  0
LINE
 8
Layer0
10
-2789.00001
20
2574.00044
30
0.0
11
-2784.00002
21
2574.00044
31
0.0
  0
LINE
 8
Layer0
10
-2794.0
20
2579.00043
30
0.0
11
-2789.00001
21
2574.00044
31
0.0
  0
LINE
 8
Layer0
10
-2794.0
20
2584.00042
30
0.0
11
-2794.0
21
2579.00043
31
0.0
  0
LINE
 8
Layer0
10
-2794.0
20
2584.00042
30
0.0
11
-2784.00002
21
2594.0004
31
0.0
  0
LINE
 8
Layer0
10
-2784.00002
20
2594.0004
30
0.0
11
-2784.00002
21
2664.00026
31
0.0
  0
LINE
 8
Layer0
10
-2784.00002
20
2664.00026
30
0.0
11
-2794.0
21
2674.00024
31
0.0
  0
LINE
 8
Layer0
10
-2794.0
20
2694.0002
30
0.0
11
-2794.0
21
2674.00024
31
0.0
  0
LINE
 8
Layer0
10
-2794.0
20
2694.0002
30
0.0
11
-2784.00002
21
2704.00018
31
0.0
  0
LINE
 8
Layer0
10
-2784.00002
20
2704.00018
30
0.0
11
-2784.00002
21
2774.00004
31
0.0
  0
LINE
 8
Layer0
10
-2784.00002
20
2774.00004
30
0.0
11
-2794.0
21
2784.00002
31
0.0
  0
LINE
 8
Layer0
10
-2794.0
20
2789.00001
30
0.0
11
-2794.0
21
2784.00002
31
0.0
  0
LINE
 8
Layer0
10
-2789.00001
20
2794.0
30
0.0
11
-2794.0
21
2789.00001
31
0.0
  0
LINE
 8
Layer0
10
-2784.00002
20
2794.0
30
0.0
11
-2789.00001
21
2794.0
31
0.0
  0
LINE
 8
Layer0
10
-2784.00002
20
2794.0
30
0.0
11
-2774.00004
21
2784.00002
31
0.0
  0
LINE
 8
Layer0
10
-2774.00004
20
2784.00002
30
0.0
11
-2594.0004
21
2784.00002
31
0.0
  0
LINE
 8
Layer0
10
-2594.0004
20
2784.00002
30
0.0
11
-2584.00042
21
2794.0
31
0.0
  0
LINE
 8
Layer0
10
-2579.00043
20
2794.0
30
0.0
11
-2584.00042
21
2794.0
31
0.0
  0
LINE
 8
Layer0
10
-2574.00044
20
2789.00001
30
0.0
11
-2579.00043
21
2794.0
31
0.0
  0
LINE
 8
Layer0
10
-2574.00044
20
2784.00002
30
0.0
11
-2574.00044
21
2789.00001
31
0.0
  0
LINE
 8
Layer0
10
-2574.00044
20
2784.00002
30
0.0
11
-2584.00042
21
2774.00004
31
0.0
  0
LINE
 8
Layer0
10
-2584.00042
20
2774.00004
30
0.0
11
-2584.00042
21
2758.000072
31
0.0
  0
LINE
 8
Layer0
10
-2584.00042
20
2758.000072
30
0.0
11
-2579.00043
21
2753.000082
31
0.0
  0
LINE
 8
Layer0
10
-2584.00042
20
2710.000168
30
0.0
11
-2584.00042
21
2658.000272
31
0.0
  0
LINE
 8
Layer0
10
-2584.00042
20
2658.000272
30
0.0
11
-2579.00043
21
2653.000282
31
0.0
  0
LINE
 8
Layer0
10
-2584.00042
20
2610.000368
30
0.0
11
-2584.00042
21
2594.0004
31
0.0
  0
LINE
 8
Layer0
10
-2584.00042
20
2594.0004
30
0.0
11
-2574.00044
21
2584.00042
31
0.0
  0
LINE
 8
Layer0
10
-2638.37725107213
20
2693.242404004
30
0.0
11
-2636.51058640566
21
2693.500211
31
0.0
  0
LINE
 8
Layer0
10
-2640.11442855252
20
2692.51225619306
30
0.0
11
-2638.37725107213
21
2693.242404004
31
0.0
  0
LINE
 8
Layer0
10
-2641.6047679164
20
2691.3590909817
30
0.0
11
-2640.11442855252
21
2692.51225619306
31
0.0
  0
LINE
 8
Layer0
10
-2642.74759280052
20
2689.86080772795
30
0.0
11
-2641.6047679164
21
2691.3590909817
31
0.0
  0
LINE
 8
Layer0
10
-2643.46570236329
20
2688.11861942582
30
0.0
11
-2642.74759280052
21
2689.86080772795
31
0.0
  0
LINE
 8
Layer0
10
-2643.71058640566
20
2686.2502155
30
0.0
11
-2643.46570236329
21
2688.11861942582
31
0.0
  0
LINE
 8
Layer0
10
-2643.46570236329
20
2684.38181157418
30
0.0
11
-2643.71058640566
21
2686.2502155
31
0.0
  0
LINE
 8
Layer0
10
-2642.74759280052
20
2682.63962327205
30
0.0
11
-2643.46570236329
21
2684.38181157418
31
0.0
  0
LINE
 8
Layer0
10
-2641.6047679164
20
2681.1413400183
30
0.0
11
-2642.74759280052
21
2682.63962327205
31
0.0
  0
LINE
 8
Layer0
10
-2638.37725107213
20
2679.258026996
30
0.0
11
-2640.11442855252
21
2679.98817480694
31
0.0
  0
LINE
 8
Layer0
10
-2636.51058640566
20
2679.00022
30
0.0
11
-2638.37725107213
21
2679.258026996
31
0.0
  0
LINE
 8
Layer0
10
-2640.11442855252
20
2679.98817480694
30
0.0
11
-2641.6047679164
21
2681.1413400183
31
0.0
  0
LINE
 8
Layer0
10
-2626.51060640566
20
2679.00022
30
0.0
11
-2626.51060640566
21
2671.00029
31
0.0
  0
LINE
 8
Layer0
10
-2631.7503245
20
2679.00022
30
0.0
11
-2626.51060640566
21
2679.00022
31
0.0
  0
LINE
 8
Layer0
10
-2787.29793187615
20
2580.70250812385
30
0.0
11
-2787.6500127
21
2580.97266924195
31
0.0
  0
LINE
 8
Layer0
10
-2787.6500127
20
2580.97266924195
30
0.0
11
-2788.06001950331
21
2581.14249962054
31
0.0
  0
LINE
 8
Layer0
10
-2631.7503245
20
2693.500211
30
0.0
11
-2636.51058640566
21
2693.500211
31
0.0
  0
LINE
 8
Layer0
10
-2672.50970428538
20
2612.57837942605
30
0.0
11
-2695.80970428538
21
2612.57837942605
31
0.0
  0
LINE
 8
Layer0
10
-2672.50970428538
20
2739.57837942605
30
0.0
11
-2695.80970428538
21
2739.57837942605
31
0.0
  0
LINE
 8
Layer0
10
-2672.50970428538
20
2752.67837942605
30
0.0
11
-2672.50970428538
21
2739.57837942605
31
0.0
  0
LINE
 8
Layer0
10
-2695.80970428538
20
2752.67837942605
30
0.0
11
-2672.50970428538
21
2752.67837942605
31
0.0
  0
LINE
 8
Layer0
10
-2695.80970428538
20
2739.57837942605
30
0.0
11
-2695.80970428538
21
2752.67837942605
31
0.0
  0
LINE
 8
Layer0
10
-2695.80970428538
20
2612.57837942605
30
0.0
11
-2695.80970428538
21
2625.67837942605
31
0.0
  0
LINE
 8
Layer0
10
-2692.15458125172
20
2618.32414822201
30
0.0
11
-2691.9003119641
21
2617.99277803486
31
0.0
  0
LINE
 8
Layer0
10
-2695.80970428538
20
2625.67837942605
30
0.0
11
-2672.50970428538
21
2625.67837942605
31
0.0
  0
LINE
 8
Layer0
10
-2672.50970428538
20
2625.67837942605
30
0.0
11
-2672.50970428538
21
2612.57837942605
31
0.0
  0
LINE
 8
Layer0
10
-2690.76894337695
20
2620.72414342201
30
0.0
11
-2691.18305302089
21
2620.66962485311
31
0.0
  0
LINE
 8
Layer0
10
-2689.96894497695
20
2620.50978449679
30
0.0
11
-2690.354833733
21
2620.66962485311
31
0.0
  0
LINE
 8
Layer0
10
-2691.9003119641
20
2617.99277803486
30
0.0
11
-2691.56894177695
21
2617.73850874724
31
0.0
  0
LINE
 8
Layer0
10
-2692.15458125172
20
2619.92414502201
30
0.0
11
-2692.31442160805
21
2619.53825626596
31
0.0
  0
LINE
 8
Layer0
10
-2692.31442160805
20
2618.71003697807
30
0.0
11
-2692.15458125172
21
2618.32414822201
31
0.0
  0
LINE
 8
Layer0
10
-2690.354833733
20
2620.66962485311
30
0.0
11
-2690.76894337695
21
2620.72414342201
31
0.0
  0
LINE
 8
Layer0
10
-2692.31442160805
20
2619.53825626596
30
0.0
11
-2692.36894017695
21
2619.12414662201
31
0.0
  0
LINE
 8
Layer0
10
-2692.36894017695
20
2619.12414662201
30
0.0
11
-2692.31442160805
21
2618.71003697807
31
0.0
  0
LINE
 8
Layer0
10
-2691.18305302089
20
2620.66962485311
30
0.0
11
-2691.56894177695
21
2620.50978449679
31
0.0
  0
LINE
 8
Layer0
10
-2691.9003119641
20
2620.25551520917
30
0.0
11
-2692.15458125172
21
2619.92414502201
31
0.0
  0
LINE
 8
Layer0
10
-2689.16894657695
20
2619.12414662201
30
0.0
11
-2689.22346514585
21
2619.53825626596
31
0.0
  0
LINE
 8
Layer0
10
-2689.38330550217
20
2619.92414502201
30
0.0
11
-2689.63757478979
21
2620.25551520917
31
0.0
  0
LINE
 8
Layer0
10
-2689.22346514585
20
2619.53825626596
30
0.0
11
-2689.38330550217
21
2619.92414502201
31
0.0
  0
LINE
 8
Layer0
10
-2691.56894177695
20
2620.50978449679
30
0.0
11
-2691.9003119641
21
2620.25551520917
31
0.0
  0
LINE
 8
Layer0
10
-2691.56894177695
20
2617.73850874724
30
0.0
11
-2691.18305302089
21
2617.57866839091
31
0.0
  0
LINE
 8
Layer0
10
-2675.63760278979
20
2620.25551520917
30
0.0
11
-2675.96897297695
21
2620.50978449679
31
0.0
  0
LINE
 8
Layer0
10
-2689.63757478979
20
2620.25551520917
30
0.0
11
-2689.96894497695
21
2620.50978449679
31
0.0
  0
LINE
 8
Layer0
10
-2690.354833733
20
2617.57866839091
30
0.0
11
-2689.96894497695
21
2617.73850874724
31
0.0
  0
LINE
 8
Layer0
10
-2691.18305302089
20
2617.57866839091
30
0.0
11
-2690.76894337695
21
2617.52414982201
31
0.0
  0
LINE
 8
Layer0
10
-2678.36896817695
20
2619.12414662201
30
0.0
11
-2678.31444960805
21
2618.71003697807
31
0.0
  0
LINE
 8
Layer0
10
-2676.76897137695
20
2617.52414982201
30
0.0
11
-2676.354861733
21
2617.57866839091
31
0.0
  0
LINE
 8
Layer0
10
-2675.38333350217
20
2619.92414502201
30
0.0
11
-2675.63760278979
21
2620.25551520917
31
0.0
  0
LINE
 8
Layer0
10
-2690.76894337695
20
2617.52414982201
30
0.0
11
-2690.354833733
21
2617.57866839091
31
0.0
  0
LINE
 8
Layer0
10
-2675.22349314585
20
2619.53825626596
30
0.0
11
-2675.38333350217
21
2619.92414502201
31
0.0
  0
LINE
 8
Layer0
10
-2677.18308102089
20
2617.57866839091
30
0.0
11
-2676.76897137695
21
2617.52414982201
31
0.0
  0
LINE
 8
Layer0
10
-2675.16897457695
20
2619.12414662201
30
0.0
11
-2675.22349314585
21
2619.53825626596
31
0.0
  0
LINE
 8
Layer0
10
-2689.22346514585
20
2618.71003697807
30
0.0
11
-2689.16894657695
21
2619.12414662201
31
0.0
  0
LINE
 8
Layer0
10
-2677.9003399641
20
2617.99277803486
30
0.0
11
-2677.56896977695
21
2617.73850874724
31
0.0
  0
LINE
 8
Layer0
10
-2689.38330550217
20
2618.32414822201
30
0.0
11
-2689.22346514585
21
2618.71003697807
31
0.0
  0
LINE
 8
Layer0
10
-2677.56896977695
20
2617.73850874724
30
0.0
11
-2677.18308102089
21
2617.57866839091
31
0.0
  0
LINE
 8
Layer0
10
-2689.96894497695
20
2617.73850874724
30
0.0
11
-2689.63757478979
21
2617.99277803486
31
0.0
  0
LINE
 8
Layer0
10
-2678.31444960805
20
2618.71003697807
30
0.0
11
-2678.15460925172
21
2618.32414822201
31
0.0
  0
LINE
 8
Layer0
10
-2689.63757478979
20
2617.99277803486
30
0.0
11
-2689.38330550217
21
2618.32414822201
31
0.0
  0
LINE
 8
Layer0
10
-2678.15460925172
20
2618.32414822201
30
0.0
11
-2677.9003399641
21
2617.99277803486
31
0.0
  0
LINE
 8
Layer0
10
-2631.7503245
20
2693.500211
30
0.0
11
-2626.51060640566
21
2693.500211
31
0.0
  0
LINE
 8
Layer0
10
-2579.00043
20
2615.000358
30
0.0
11
-2584.00042
21
2610.000368
31
0.0
  0
LINE
 8
Layer0
10
-2579.00043
20
2615.000358
30
0.0
11
-2579.00043
21
2653.000282
31
0.0
  0
LINE
 8
Layer0
10
-2579.00043
20
2715.000158
30
0.0
11
-2584.00042
21
2710.000168
31
0.0
  0
LINE
 8
Layer0
10
-2731.48985359434
20
2661.00029
30
0.0
11
-2741.48983359434
21
2671.00029
31
0.0
  0
LINE
 8
Layer0
10
-2741.48983359434
20
2697.00015
30
0.0
11
-2741.48983359434
21
2671.00029
31
0.0
  0
LINE
 8
Layer0
10
-2579.00043
20
2715.000158
30
0.0
11
-2579.00043
21
2753.000082
31
0.0
  0
LINE
 8
Layer0
10
-2741.48983359434
20
2697.00015
30
0.0
11
-2731.48985359434
21
2707.00015
31
0.0
  0
LINE
 8
Layer0
10
-2636.51058640566
20
2707.00015
30
0.0
11
-2626.51060640566
21
2697.00018999996
31
0.0
  0
LINE
 8
Layer0
10
-2626.51060640566
20
2697.00018999996
30
0.0
11
-2626.51060640566
21
2693.500211
31
0.0
  0
LINE
 8
Layer0
10
-2636.51058640566
20
2661.00029
30
0.0
11
-2626.51060640566
21
2671.00029
31
0.0
  0
LINE
 8
Layer0
10
-2589.7504085
20
2635.2993555076
30
0.0
11
-2590.06106805046
21
2635.06097805046
31
0.0
  0
LINE
 8
Layer0
10
-2679.57689573752
20
2686.83255718679
30
0.0
11
-2679.8016712386
21
2687.37521325
31
0.0
  0
LINE
 8
Layer0
10
-2590.06106805046
20
2635.06097805046
30
0.0
11
-2590.2994455076
21
2634.7503185
31
0.0
  0
LINE
 8
Layer0
10
-2589.3886377912
20
2635.44920584166
30
0.0
11
-2589.7504085
21
2635.2993555076
31
0.0
  0
LINE
 8
Layer0
10
-2679.500229
20
2686.2502155
30
0.0
11
-2679.57689573752
21
2686.83255718679
31
0.0
  0
LINE
 8
Layer0
10
-2590.2994455076
20
2634.7503185
30
0.0
11
-2590.44929584166
21
2634.3885477912
31
0.0
  0
LINE
 8
Layer0
10
-2631.1679828132
20
2688.42354426248
30
0.0
11
-2631.7503245
21
2688.500211
31
0.0
  0
LINE
 8
Layer0
10
-2631.7503245
20
2688.500211
30
0.0
11
-2632.33266618679
21
2688.42354426248
31
0.0
  0
LINE
 8
Layer0
10
-2630.15933742431
20
2687.84120257569
30
0.0
11
-2630.62532675
21
2688.1987687614
31
0.0
  0
LINE
 8
Layer0
10
-2630.62532675
20
2688.1987687614
30
0.0
11
-2631.1679828132
21
2688.42354426248
31
0.0
  0
LINE
 8
Layer0
10
-2683.6987777614
20
2687.37521325
30
0.0
11
-2683.92355326248
21
2686.83255718679
31
0.0
  0
LINE
 8
Layer0
10
-2682.33256618679
20
2688.42354426248
30
0.0
11
-2682.87522225
21
2688.1987687614
31
0.0
  0
LINE
 8
Layer0
10
-2683.34121157569
20
2687.84120257569
30
0.0
11
-2683.6987777614
21
2687.37521325
31
0.0
  0
LINE
 8
Layer0
10
-2683.92355326248
20
2686.83255718679
30
0.0
11
-2684.00022
21
2686.2502155
31
0.0
  0
LINE
 8
Layer0
10
-2683.92355326248
20
2685.6678738132
30
0.0
11
-2683.6987777614
21
2685.12521775
31
0.0
  0
LINE
 8
Layer0
10
-2684.00022
20
2686.2502155
30
0.0
11
-2683.92355326248
21
2685.6678738132
31
0.0
  0
LINE
 8
Layer0
10
-2679.8016712386
20
2687.37521325
30
0.0
11
-2680.15923742431
21
2687.84120257569
31
0.0
  0
LINE
 8
Layer0
10
-2680.62522675
20
2688.1987687614
30
0.0
11
-2681.1678828132
21
2688.42354426248
31
0.0
  0
LINE
 8
Layer0
10
-2682.87522225
20
2688.1987687614
30
0.0
11
-2683.34121157569
21
2687.84120257569
31
0.0
  0
LINE
 8
Layer0
10
-2681.1678828132
20
2688.42354426248
30
0.0
11
-2681.7502245
21
2688.500211
31
0.0
  0
LINE
 8
Layer0
10
-2681.7502245
20
2688.500211
30
0.0
11
-2682.33256618679
21
2688.42354426248
31
0.0
  0
LINE
 8
Layer0
10
-2680.15923742431
20
2687.84120257569
30
0.0
11
-2680.62522675
21
2688.1987687614
31
0.0
  0
LINE
 8
Layer0
10
-2680.15923742431
20
2684.65922842431
30
0.0
11
-2679.8016712386
21
2685.12521775
31
0.0
  0
LINE
 8
Layer0
10
-2683.6987777614
20
2685.12521775
30
0.0
11
-2683.34121157569
21
2684.65922842431
31
0.0
  0
LINE
 8
Layer0
10
-2681.7502245
20
2684.00022
30
0.0
11
-2681.1678828132
21
2684.07688673752
31
0.0
  0
LINE
 8
Layer0
10
-2682.33256618679
20
2684.07688673752
30
0.0
11
-2681.7502245
21
2684.00022
31
0.0
  0
LINE
 8
Layer0
10
-2683.34121157569
20
2684.65922842431
30
0.0
11
-2682.87522225
21
2684.3016622386
31
0.0
  0
LINE
 8
Layer0
10
-2682.87522225
20
2684.3016622386
30
0.0
11
-2682.33256618679
21
2684.07688673752
31
0.0
  0
LINE
 8
Layer0
10
-2681.1678828132
20
2684.07688673752
30
0.0
11
-2680.62522675
21
2684.3016622386
31
0.0
  0
LINE
 8
Layer0
10
-2680.62522675
20
2684.3016622386
30
0.0
11
-2680.15923742431
21
2684.65922842431
31
0.0
  0
LINE
 8
Layer0
10
-2671.27232339449
20
2645.00553090009
30
0.0
11
-2675.000238
21
2646.35517349896
31
0.0
  0
LINE
 8
Layer0
10
-2675.000238
20
2646.35517349896
30
0.0
11
-2679.34148650564
21
2647.20359430486
31
0.0
  0
LINE
 8
Layer0
10
-2679.34148650564
20
2647.20359430486
30
0.0
11
-2684.00022
21
2647.49297484195
31
0.0
  0
LINE
 8
Layer0
10
-2684.00022
20
2647.49297484195
30
0.0
11
-2688.65895349436
21
2647.20359430486
31
0.0
  0
LINE
 8
Layer0
10
-2688.65895349436
20
2647.20359430486
30
0.0
11
-2693.000202
21
2646.35517349896
31
0.0
  0
LINE
 8
Layer0
10
-2693.000202
20
2646.35517349896
30
0.0
11
-2696.72811660551
21
2645.00553090009
31
0.0
  0
LINE
 8
Layer0
10
-2696.72811660551
20
2645.00553090009
30
0.0
11
-2699.5886460912
21
2643.24664242097
31
0.0
  0
LINE
 8
Layer0
10
-2699.5886460912
20
2643.24664242097
30
0.0
11
-2701.38685009987
21
2641.19837340477
31
0.0
  0
LINE
 8
Layer0
10
-2701.38685009987
20
2641.19837340477
30
0.0
11
-2702.000184
21
2639.00031
31
0.0
  0
LINE
 8
Layer0
10
-2702.000184
20
2639.00031
30
0.0
11
-2701.38685009987
21
2636.80224659523
31
0.0
  0
LINE
 8
Layer0
10
-2701.38685009987
20
2636.80224659523
30
0.0
11
-2699.5886460912
21
2634.75397757902
31
0.0
  0
LINE
 8
Layer0
10
-2699.5886460912
20
2634.75397757902
30
0.0
11
-2696.72811660551
21
2632.99508909991
31
0.0
  0
LINE
 8
Layer0
10
-2696.72811660551
20
2632.99508909991
30
0.0
11
-2693.000202
21
2631.64544650104
31
0.0
  0
LINE
 8
Layer0
10
-2693.000202
20
2631.64544650104
30
0.0
11
-2688.65895349436
21
2630.79702569514
31
0.0
  0
LINE
 8
Layer0
10
-2688.65895349436
20
2630.79702569514
30
0.0
11
-2684.00022
21
2630.50764515805
31
0.0
  0
LINE
 8
Layer0
10
-2684.00022
20
2630.50764515805
30
0.0
11
-2679.34148650564
21
2630.79702569514
31
0.0
  0
LINE
 8
Layer0
10
-2679.34148650564
20
2630.79702569514
30
0.0
11
-2675.000238
21
2631.64544650104
31
0.0
  0
LINE
 8
Layer0
10
-2675.000238
20
2631.64544650104
30
0.0
11
-2671.27232339449
21
2632.99508909991
31
0.0
  0
LINE
 8
Layer0
10
-2671.27232339449
20
2632.99508909991
30
0.0
11
-2668.41179390879
21
2634.75397757902
31
0.0
  0
LINE
 8
Layer0
10
-2668.41179390879
20
2634.75397757902
30
0.0
11
-2666.61358990013
21
2636.80224659523
31
0.0
  0
LINE
 8
Layer0
10
-2666.61358990013
20
2636.80224659523
30
0.0
11
-2666.000256
21
2639.00031
31
0.0
  0
LINE
 8
Layer0
10
-2612.000364
20
2656.000276
30
0.0
11
-2612.06851221112
21
2656.51791305493
31
0.0
  0
LINE
 8
Layer0
10
-2612.06851221112
20
2656.51791305493
30
0.0
11
-2612.26831265653
21
2657.000274
31
0.0
  0
LINE
 8
Layer0
10
-2612.26831265653
20
2657.000274
30
0.0
11
-2612.58614926605
21
2657.41448673395
31
0.0
  0
LINE
 8
Layer0
10
-2612.58614926605
20
2657.41448673395
30
0.0
11
-2613.000362
21
2657.73232334347
31
0.0
  0
LINE
 8
Layer0
10
-2613.000362
20
2657.73232334347
30
0.0
11
-2613.48272294507
21
2657.93212378887
31
0.0
  0
LINE
 8
Layer0
10
-2613.48272294507
20
2657.93212378887
30
0.0
11
-2614.00036
21
2658.000272
31
0.0
  0
LINE
 8
Layer0
10
-2614.00036
20
2658.000272
30
0.0
11
-2614.51799705493
21
2657.93212378887
31
0.0
  0
LINE
 8
Layer0
10
-2614.51799705493
20
2657.93212378887
30
0.0
11
-2615.000358
21
2657.73232334347
31
0.0
  0
LINE
 8
Layer0
10
-2615.000358
20
2657.73232334347
30
0.0
11
-2615.41457073395
21
2657.41448673395
31
0.0
  0
LINE
 8
Layer0
10
-2615.41457073395
20
2657.41448673395
30
0.0
11
-2615.73240734347
21
2657.000274
31
0.0
  0
LINE
 8
Layer0
10
-2615.73240734347
20
2657.000274
30
0.0
11
-2615.93220778887
21
2656.51791305493
31
0.0
  0
LINE
 8
Layer0
10
-2615.93220778887
20
2656.51791305493
30
0.0
11
-2616.000356
21
2656.000276
31
0.0
  0
LINE
 8
Layer0
10
-2616.000356
20
2656.000276
30
0.0
11
-2615.93220778887
21
2655.48263894507
31
0.0
  0
LINE
 8
Layer0
10
-2615.93220778887
20
2655.48263894507
30
0.0
11
-2615.73240734347
21
2655.000278
31
0.0
  0
LINE
 8
Layer0
10
-2615.73240734347
20
2655.000278
30
0.0
11
-2615.41457073395
21
2654.58606526605
31
0.0
  0
LINE
 8
Layer0
10
-2615.41457073395
20
2654.58606526605
30
0.0
11
-2615.000358
21
2654.26822865653
31
0.0
  0
LINE
 8
Layer0
10
-2615.000358
20
2654.26822865653
30
0.0
11
-2614.51799705493
21
2654.06842821112
31
0.0
  0
LINE
 8
Layer0
10
-2614.51799705493
20
2654.06842821112
30
0.0
11
-2614.00036
21
2654.00028
31
0.0
  0
LINE
 8
Layer0
10
-2614.00036
20
2654.00028
30
0.0
11
-2613.48272294507
21
2654.06842821112
31
0.0
  0
LINE
 8
Layer0
10
-2613.48272294507
20
2654.06842821112
30
0.0
11
-2613.000362
21
2654.26822865653
31
0.0
  0
LINE
 8
Layer0
10
-2613.000362
20
2654.26822865653
30
0.0
11
-2612.58614926605
21
2654.58606526605
31
0.0
  0
LINE
 8
Layer0
10
-2612.58614926605
20
2654.58606526605
30
0.0
11
-2612.26831265653
21
2655.000278
31
0.0
  0
LINE
 8
Layer0
10
-2612.26831265653
20
2655.000278
30
0.0
11
-2612.06851221112
21
2655.48263894507
31
0.0
  0
LINE
 8
Layer0
10
-2612.06851221112
20
2655.48263894507
30
0.0
11
-2612.000364
21
2656.000276
31
0.0
  0
LINE
 8
Layer0
10
-2752.000084
20
2656.000276
30
0.0
11
-2752.06823221112
21
2656.51791305493
31
0.0
  0
LINE
 8
Layer0
10
-2752.06823221112
20
2656.51791305493
30
0.0
11
-2752.26803265653
21
2657.000274
31
0.0
  0
LINE
 8
Layer0
10
-2752.26803265653
20
2657.000274
30
0.0
11
-2752.58586926605
21
2657.41448673395
31
0.0
  0
LINE
 8
Layer0
10
-2752.58586926605
20
2657.41448673395
30
0.0
11
-2753.000082
21
2657.73232334347
31
0.0
  0
LINE
 8
Layer0
10
-2753.000082
20
2657.73232334347
30
0.0
11
-2753.48244294507
21
2657.93212378887
31
0.0
  0
LINE
 8
Layer0
10
-2753.48244294507
20
2657.93212378887
30
0.0
11
-2754.00008
21
2658.000272
31
0.0
  0
LINE
 8
Layer0
10
-2754.00008
20
2658.000272
30
0.0
11
-2754.51771705493
21
2657.93212378887
31
0.0
  0
LINE
 8
Layer0
10
-2754.51771705493
20
2657.93212378887
30
0.0
11
-2755.000078
21
2657.73232334347
31
0.0
  0
LINE
 8
Layer0
10
-2755.000078
20
2657.73232334347
30
0.0
11
-2755.41429073395
21
2657.41448673395
31
0.0
  0
LINE
 8
Layer0
10
-2755.41429073395
20
2657.41448673395
30
0.0
11
-2755.73212734347
21
2657.000274
31
0.0
  0
LINE
 8
Layer0
10
-2755.73212734347
20
2657.000274
30
0.0
11
-2755.93192778887
21
2656.51791305493
31
0.0
  0
LINE
 8
Layer0
10
-2755.93192778887
20
2656.51791305493
30
0.0
11
-2756.000076
21
2656.000276
31
0.0
  0
LINE
 8
Layer0
10
-2756.000076
20
2656.000276
30
0.0
11
-2755.93192778887
21
2655.48263894507
31
0.0
  0
LINE
 8
Layer0
10
-2755.93192778887
20
2655.48263894507
30
0.0
11
-2755.73212734347
21
2655.000278
31
0.0
  0
LINE
 8
Layer0
10
-2755.73212734347
20
2655.000278
30
0.0
11
-2755.41429073395
21
2654.58606526605
31
0.0
  0
LINE
 8
Layer0
10
-2755.41429073395
20
2654.58606526605
30
0.0
11
-2755.000078
21
2654.26822865653
31
0.0
  0
LINE
 8
Layer0
10
-2755.000078
20
2654.26822865653
30
0.0
11
-2754.51771705493
21
2654.06842821112
31
0.0
  0
LINE
 8
Layer0
10
-2629.57699573752
20
2686.83255718679
30
0.0
11
-2629.8017712386
21
2687.37521325
31
0.0
  0
LINE
 8
Layer0
10
-2629.500329
20
2686.2502155
30
0.0
11
-2629.57699573752
21
2686.83255718679
31
0.0
  0
LINE
 8
Layer0
10
-2679.57689573752
20
2685.6678738132
30
0.0
11
-2679.500229
21
2686.2502155
31
0.0
  0
LINE
 8
Layer0
10
-2679.8016712386
20
2685.12521775
30
0.0
11
-2679.57689573752
21
2685.6678738132
31
0.0
  0
LINE
 8
Layer0
10
-2629.8017712386
20
2687.37521325
30
0.0
11
-2630.15933742431
21
2687.84120257569
31
0.0
  0
LINE
 8
Layer0
10
-2788.94000249669
20
2790.14208162054
30
0.0
11
-2789.3500093
21
2789.97225124195
31
0.0
  0
LINE
 8
Layer0
10
-2789.3500093
20
2789.97225124195
30
0.0
11
-2789.70209012385
21
2789.70209012385
31
0.0
  0
LINE
 8
Layer0
10
-2789.70209012385
20
2789.70209012385
30
0.0
11
-2789.97225124195
21
2789.3500093
31
0.0
  0
LINE
 8
Layer0
10
-2789.97225124195
20
2789.3500093
30
0.0
11
-2790.14208162054
21
2788.94000249669
31
0.0
  0
LINE
 8
Layer0
10
-2790.14208162054
20
2788.94000249669
30
0.0
11
-2790.2000076
21
2788.500011
31
0.0
  0
LINE
 8
Layer0
10
-2790.2000076
20
2788.500011
30
0.0
11
-2790.14208162054
21
2788.06001950331
31
0.0
  0
LINE
 8
Layer0
10
-2790.14208162054
20
2788.06001950331
30
0.0
11
-2789.97225124195
21
2787.6500127
31
0.0
  0
LINE
 8
Layer0
10
-2789.97225124195
20
2787.6500127
30
0.0
11
-2789.70209012385
21
2787.29793187615
31
0.0
  0
LINE
 8
Layer0
10
-2789.70209012385
20
2787.29793187615
30
0.0
11
-2789.3500093
21
2787.02777075805
31
0.0
  0
LINE
 8
Layer0
10
-2789.3500093
20
2787.02777075805
30
0.0
11
-2788.94000249669
21
2786.85794037946
31
0.0
  0
LINE
 8
Layer0
10
-2788.94000249669
20
2786.85794037946
30
0.0
11
-2788.500011
21
2786.8000144
31
0.0
  0
LINE
 8
Layer0
10
-2788.500011
20
2786.8000144
30
0.0
11
-2788.06001950331
21
2786.85794037946
31
0.0
  0
LINE
 8
Layer0
10
-2788.06001950331
20
2786.85794037946
30
0.0
11
-2787.6500127
21
2787.02777075805
31
0.0
  0
LINE
 8
Layer0
10
-2787.6500127
20
2787.02777075805
30
0.0
11
-2787.29793187615
21
2787.29793187615
31
0.0
  0
LINE
 8
Layer0
10
-2787.29793187615
20
2787.29793187615
30
0.0
11
-2787.02777075805
21
2787.6500127
31
0.0
  0
LINE
 8
Layer0
10
-2787.02777075805
20
2787.6500127
30
0.0
11
-2786.85794037946
21
2788.06001950331
31
0.0
  0
LINE
 8
Layer0
10
-2786.85794037946
20
2788.06001950331
30
0.0
11
-2786.8000144
21
2788.500011
31
0.0
  0
LINE
 8
Layer0
10
-2788.06001950331
20
2581.14249962054
30
0.0
11
-2788.500011
21
2581.2004256
31
0.0
  0
LINE
 8
Layer0
10
-2788.500011
20
2581.2004256
30
0.0
11
-2788.94000249669
21
2581.14249962054
31
0.0
  0
LINE
 8
Layer0
10
-2675.000238
20
2721.64526650104
30
0.0
11
-2671.27232339449
21
2722.99490909991
31
0.0
  0
LINE
 8
Layer0
10
-2671.27232339449
20
2722.99490909991
30
0.0
11
-2668.41179390879
21
2724.75379757902
31
0.0
  0
LINE
 8
Layer0
10
-2668.41179390879
20
2724.75379757902
30
0.0
11
-2666.61358990013
21
2726.80206659523
31
0.0
  0
LINE
 8
Layer0
10
-2666.61358990013
20
2726.80206659523
30
0.0
11
-2666.000256
21
2729.00013
31
0.0
  0
LINE
 8
Layer0
10
-2666.000256
20
2639.00031
30
0.0
11
-2666.61358990013
21
2641.19837340477
31
0.0
  0
LINE
 8
Layer0
10
-2666.61358990013
20
2641.19837340477
30
0.0
11
-2668.41179390879
21
2643.24664242097
31
0.0
  0
LINE
 8
Layer0
10
-2668.41179390879
20
2643.24664242097
30
0.0
11
-2671.27232339449
21
2645.00553090009
31
0.0
  0
LINE
 8
Layer0
10
-2752.500083
20
2759.00007
30
0.0
11
-2752.55119415834
21
2759.3882977912
31
0.0
  0
LINE
 8
Layer0
10
-2752.55119415834
20
2759.3882977912
30
0.0
11
-2752.7010444924
21
2759.7500685
31
0.0
  0
LINE
 8
Layer0
10
-2752.7010444924
20
2759.7500685
30
0.0
11
-2752.93942194954
21
2760.06072805046
31
0.0
  0
LINE
 8
Layer0
10
-2752.93942194954
20
2760.06072805046
30
0.0
11
-2753.2500815
21
2760.2991055076
31
0.0
  0
LINE
 8
Layer0
10
-2753.2500815
20
2760.2991055076
30
0.0
11
-2753.6118522088
21
2760.44895584166
31
0.0
  0
LINE
 8
Layer0
10
-2753.6118522088
20
2760.44895584166
30
0.0
11
-2754.00008
21
2760.500067
31
0.0
  0
LINE
 8
Layer0
10
-2754.00008
20
2760.500067
30
0.0
11
-2754.3883077912
21
2760.44895584166
31
0.0
  0
LINE
 8
Layer0
10
-2754.3883077912
20
2760.44895584166
30
0.0
11
-2754.7500785
21
2760.2991055076
31
0.0
  0
LINE
 8
Layer0
10
-2754.7500785
20
2760.2991055076
30
0.0
11
-2755.06073805046
21
2760.06072805046
31
0.0
  0
LINE
 8
Layer0
10
-2755.06073805046
20
2760.06072805046
30
0.0
11
-2755.2991155076
21
2759.7500685
31
0.0
  0
LINE
 8
Layer0
10
-2755.2991155076
20
2759.7500685
30
0.0
11
-2755.44896584166
21
2759.3882977912
31
0.0
  0
LINE
 8
Layer0
10
-2755.44896584166
20
2759.3882977912
30
0.0
11
-2755.500077
21
2759.00007
31
0.0
  0
LINE
 8
Layer0
10
-2755.500077
20
2759.00007
30
0.0
11
-2755.44896584166
21
2758.6118422088
31
0.0
  0
LINE
 8
Layer0
10
-2755.44896584166
20
2758.6118422088
30
0.0
11
-2755.2991155076
21
2758.2500715
31
0.0
  0
LINE
 8
Layer0
10
-2755.2991155076
20
2758.2500715
30
0.0
11
-2755.06073805046
21
2757.93941194954
31
0.0
  0
LINE
 8
Layer0
10
-2755.06073805046
20
2757.93941194954
30
0.0
11
-2754.7500785
21
2757.7010344924
31
0.0
  0
LINE
 8
Layer0
10
-2754.7500785
20
2757.7010344924
30
0.0
11
-2754.3883077912
21
2757.55118415834
31
0.0
  0
LINE
 8
Layer0
10
-2754.3883077912
20
2757.55118415834
30
0.0
11
-2754.00008
21
2757.500073
31
0.0
  0
LINE
 8
Layer0
10
-2754.00008
20
2757.500073
30
0.0
11
-2753.6118522088
21
2757.55118415834
31
0.0
  0
LINE
 8
Layer0
10
-2753.6118522088
20
2757.55118415834
30
0.0
11
-2753.2500815
21
2757.7010344924
31
0.0
  0
LINE
 8
Layer0
10
-2753.2500815
20
2757.7010344924
30
0.0
11
-2752.93942194954
21
2757.93941194954
31
0.0
  0
LINE
 8
Layer0
10
-2752.93942194954
20
2757.93941194954
30
0.0
11
-2752.7010444924
21
2758.2500715
31
0.0
  0
LINE
 8
Layer0
10
-2752.7010444924
20
2758.2500715
30
0.0
11
-2752.55119415834
21
2758.6118422088
31
0.0
  0
LINE
 8
Layer0
10
-2752.55119415834
20
2758.6118422088
30
0.0
11
-2752.500083
21
2759.00007
31
0.0
  0
LINE
 8
Layer0
10
-2612.500363
20
2769.00005
30
0.0
11
-2612.55147415834
21
2769.3882777912
31
0.0
  0
LINE
 8
Layer0
10
-2612.55147415834
20
2769.3882777912
30
0.0
11
-2612.7013244924
21
2769.7500485
31
0.0
  0
LINE
 8
Layer0
10
-2612.7013244924
20
2769.7500485
30
0.0
11
-2612.93970194954
21
2770.06070805046
31
0.0
  0
LINE
 8
Layer0
10
-2612.93970194954
20
2770.06070805046
30
0.0
11
-2613.2503615
21
2770.2990855076
31
0.0
  0
LINE
 8
Layer0
10
-2613.2503615
20
2770.2990855076
30
0.0
11
-2613.6121322088
21
2770.44893584166
31
0.0
  0
LINE
 8
Layer0
10
-2613.6121322088
20
2770.44893584166
30
0.0
11
-2614.00036
21
2770.500047
31
0.0
  0
LINE
 8
Layer0
10
-2614.00036
20
2770.500047
30
0.0
11
-2614.3885877912
21
2770.44893584166
31
0.0
  0
LINE
 8
Layer0
10
-2754.51771705493
20
2654.06842821112
30
0.0
11
-2754.00008
21
2654.00028
31
0.0
  0
LINE
 8
Layer0
10
-2754.00008
20
2654.00028
30
0.0
11
-2753.48244294507
21
2654.06842821112
31
0.0
  0
LINE
 8
Layer0
10
-2753.48244294507
20
2654.06842821112
30
0.0
11
-2753.000082
21
2654.26822865653
31
0.0
  0
LINE
 8
Layer0
10
-2753.000082
20
2654.26822865653
30
0.0
11
-2752.58586926605
21
2654.58606526605
31
0.0
  0
LINE
 8
Layer0
10
-2752.58586926605
20
2654.58606526605
30
0.0
11
-2752.26803265653
21
2655.000278
31
0.0
  0
LINE
 8
Layer0
10
-2752.26803265653
20
2655.000278
30
0.0
11
-2752.06823221112
21
2655.48263894507
31
0.0
  0
LINE
 8
Layer0
10
-2752.06823221112
20
2655.48263894507
30
0.0
11
-2752.000084
21
2656.000276
31
0.0
  0
LINE
 8
Layer0
10
-2752.500083
20
2769.00005
30
0.0
11
-2752.55119415834
21
2769.3882777912
31
0.0
  0
LINE
 8
Layer0
10
-2752.55119415834
20
2769.3882777912
30
0.0
11
-2752.7010444924
21
2769.7500485
31
0.0
  0
LINE
 8
Layer0
10
-2752.7010444924
20
2769.7500485
30
0.0
11
-2752.93942194954
21
2770.06070805046
31
0.0
  0
LINE
 8
Layer0
10
-2752.93942194954
20
2770.06070805046
30
0.0
11
-2753.2500815
21
2770.2990855076
31
0.0
  0
LINE
 8
Layer0
10
-2753.2500815
20
2770.2990855076
30
0.0
11
-2753.6118522088
21
2770.44893584166
31
0.0
  0
LINE
 8
Layer0
10
-2753.6118522088
20
2770.44893584166
30
0.0
11
-2754.00008
21
2770.500047
31
0.0
  0
LINE
 8
Layer0
10
-2754.00008
20
2770.500047
30
0.0
11
-2754.3883077912
21
2770.44893584166
31
0.0
  0
LINE
 8
Layer0
10
-2754.3883077912
20
2770.44893584166
30
0.0
11
-2754.7500785
21
2770.2990855076
31
0.0
  0
LINE
 8
Layer0
10
-2754.7500785
20
2770.2990855076
30
0.0
11
-2755.06073805046
21
2770.06070805046
31
0.0
  0
LINE
 8
Layer0
10
-2755.06073805046
20
2770.06070805046
30
0.0
11
-2755.2991155076
21
2769.7500485
31
0.0
  0
LINE
 8
Layer0
10
-2755.2991155076
20
2769.7500485
30
0.0
11
-2755.44896584166
21
2769.3882777912
31
0.0
  0
LINE
 8
Layer0
10
-2755.44896584166
20
2769.3882777912
30
0.0
11
-2755.500077
21
2769.00005
31
0.0
  0
LINE
 8
Layer0
10
-2755.500077
20
2769.00005
30
0.0
11
-2755.44896584166
21
2768.6118222088
31
0.0
  0
LINE
 8
Layer0
10
-2755.44896584166
20
2768.6118222088
30
0.0
11
-2755.2991155076
21
2768.2500515
31
0.0
  0
LINE
 8
Layer0
10
-2755.2991155076
20
2768.2500515
30
0.0
11
-2755.06073805046
21
2767.93939194954
31
0.0
  0
LINE
 8
Layer0
10
-2755.06073805046
20
2767.93939194954
30
0.0
11
-2754.7500785
21
2767.7010144924
31
0.0
  0
LINE
 8
Layer0
10
-2754.7500785
20
2767.7010144924
30
0.0
11
-2754.3883077912
21
2767.55116415834
31
0.0
  0
LINE
 8
Layer0
10
-2754.3883077912
20
2767.55116415834
30
0.0
11
-2754.00008
21
2767.500053
31
0.0
  0
LINE
 8
Layer0
10
-2754.00008
20
2767.500053
30
0.0
11
-2753.6118522088
21
2767.55116415834
31
0.0
  0
LINE
 8
Layer0
10
-2753.6118522088
20
2767.55116415834
30
0.0
11
-2753.2500815
21
2767.7010144924
31
0.0
  0
LINE
 8
Layer0
10
-2753.2500815
20
2767.7010144924
30
0.0
11
-2752.93942194954
21
2767.93939194954
31
0.0
  0
LINE
 8
Layer0
10
-2752.93942194954
20
2767.93939194954
30
0.0
11
-2752.7010444924
21
2768.2500515
31
0.0
  0
LINE
 8
Layer0
10
-2752.7010444924
20
2768.2500515
30
0.0
11
-2752.55119415834
21
2768.6118222088
31
0.0
  0
LINE
 8
Layer0
10
-2752.55119415834
20
2768.6118222088
30
0.0
11
-2752.500083
21
2769.00005
31
0.0
  0
LINE
 8
Layer0
10
-2609.7503685
20
2632.7012844924
30
0.0
11
-2609.3885977912
21
2632.55143415834
31
0.0
  0
LINE
 8
Layer0
10
-2589.7504085
20
2732.7010844924
30
0.0
11
-2589.3886377912
21
2732.55123415834
31
0.0
  0
LINE
 8
Layer0
10
-2609.3885977912
20
2632.55143415834
30
0.0
11
-2609.00037
21
2632.500323
31
0.0
  0
LINE
 8
Layer0
10
-2589.3886377912
20
2732.55123415834
30
0.0
11
-2589.00041
21
2732.500123
31
0.0
  0
LINE
 8
Layer0
10
-2609.00037
20
2632.500323
30
0.0
11
-2608.6121422088
21
2632.55143415834
31
0.0
  0
LINE
 8
Layer0
10
-2589.00041
20
2732.500123
30
0.0
11
-2588.6121822088
21
2732.55123415834
31
0.0
  0
LINE
 8
Layer0
10
-2608.6121422088
20
2632.55143415834
30
0.0
11
-2608.2503715
21
2632.7012844924
31
0.0
  0
LINE
 8
Layer0
10
-2588.6121822088
20
2732.55123415834
30
0.0
11
-2588.2504115
21
2732.7010844924
31
0.0
  0
LINE
 8
Layer0
10
-2608.2503715
20
2632.7012844924
30
0.0
11
-2607.93971194954
21
2632.93966194954
31
0.0
  0
LINE
 8
Layer0
10
-2588.2504115
20
2732.7010844924
30
0.0
11
-2587.93975194954
21
2732.93946194954
31
0.0
  0
LINE
 8
Layer0
10
-2607.93971194954
20
2632.93966194954
30
0.0
11
-2607.7013344924
21
2633.2503215
31
0.0
  0
LINE
 8
Layer0
10
-2587.93975194954
20
2732.93946194954
30
0.0
11
-2587.7013744924
21
2733.2501215
31
0.0
  0
LINE
 8
Layer0
10
-2607.7013344924
20
2633.2503215
30
0.0
11
-2607.55148415834
21
2633.6120922088
31
0.0
  0
LINE
 8
Layer0
10
-2587.7013744924
20
2733.2501215
30
0.0
11
-2587.55152415834
21
2733.6118922088
31
0.0
  0
LINE
 8
Layer0
10
-2607.55148415834
20
2633.6120922088
30
0.0
11
-2607.500373
21
2634.00032
31
0.0
  0
LINE
 8
Layer0
10
-2587.55152415834
20
2733.6118922088
30
0.0
11
-2587.500413
21
2734.00012
31
0.0
  0
LINE
 8
Layer0
10
-2587.500413
20
2634.00032
30
0.0
11
-2587.55152415834
21
2634.3885477912
31
0.0
  0
LINE
 8
Layer0
10
-2607.500373
20
2634.00032
30
0.0
11
-2607.55148415834
21
2634.3885477912
31
0.0
  0
LINE
 8
Layer0
10
-2587.55152415834
20
2634.3885477912
30
0.0
11
-2587.7013744924
21
2634.7503185
31
0.0
  0
LINE
 8
Layer0
10
-2607.55148415834
20
2634.3885477912
30
0.0
11
-2607.7013344924
21
2634.7503185
31
0.0
  0
LINE
 8
Layer0
10
-2587.7013744924
20
2634.7503185
30
0.0
11
-2587.93975194954
21
2635.06097805046
31
0.0
  0
LINE
 8
Layer0
10
-2607.7013344924
20
2634.7503185
30
0.0
11
-2607.93971194954
21
2635.06097805046
31
0.0
  0
LINE
 8
Layer0
10
-2587.93975194954
20
2635.06097805046
30
0.0
11
-2588.2504115
21
2635.2993555076
31
0.0
  0
LINE
 8
Layer0
10
-2607.93971194954
20
2635.06097805046
30
0.0
11
-2608.2503715
21
2635.2993555076
31
0.0
  0
LINE
 8
Layer0
10
-2588.2504115
20
2635.2993555076
30
0.0
11
-2588.6121822088
21
2635.44920584166
31
0.0
  0
LINE
 8
Layer0
10
-2608.2503715
20
2635.2993555076
30
0.0
11
-2608.6121422088
21
2635.44920584166
31
0.0
  0
LINE
 8
Layer0
10
-2588.6121822088
20
2635.44920584166
30
0.0
11
-2589.00041
21
2635.500317
31
0.0
  0
LINE
 8
Layer0
10
-2608.6121422088
20
2635.44920584166
30
0.0
11
-2609.00037
21
2635.500317
31
0.0
  0
LINE
 8
Layer0
10
-2589.00041
20
2635.500317
30
0.0
11
-2589.3886377912
21
2635.44920584166
31
0.0
  0
LINE
 8
Layer0
10
-2787.27777025805
20
2683.1502217
30
0.0
11
-2787.10793987946
21
2683.56022850331
31
0.0
  0
LINE
 8
Layer0
10
-2787.10793987946
20
2683.56022850331
30
0.0
11
-2787.0500139
21
2684.00022
31
0.0
  0
LINE
 8
Layer0
10
-2786.8000144
20
2788.500011
30
0.0
11
-2786.85794037946
21
2788.94000249669
31
0.0
  0
LINE
 8
Layer0
10
-2786.85794037946
20
2788.94000249669
30
0.0
11
-2787.02777075805
21
2789.3500093
31
0.0
  0
LINE
 8
Layer0
10
-2787.02777075805
20
2789.3500093
30
0.0
11
-2787.29793187615
21
2789.70209012385
31
0.0
  0
LINE
 8
Layer0
10
-2787.29793187615
20
2789.70209012385
30
0.0
11
-2787.6500127
21
2789.97225124195
31
0.0
  0
LINE
 8
Layer0
10
-2787.6500127
20
2789.97225124195
30
0.0
11
-2788.06001950331
21
2790.14208162054
31
0.0
  0
LINE
 8
Layer0
10
-2788.06001950331
20
2790.14208162054
30
0.0
11
-2788.500011
21
2790.2000076
31
0.0
  0
LINE
 8
Layer0
10
-2788.500011
20
2790.2000076
30
0.0
11
-2788.94000249669
21
2790.14208162054
31
0.0
  0
LINE
 8
Layer0
10
-2614.3885877912
20
2770.44893584166
30
0.0
11
-2614.7503585
21
2770.2990855076
31
0.0
  0
LINE
 8
Layer0
10
-2614.7503585
20
2770.2990855076
30
0.0
11
-2615.06101805046
21
2770.06070805046
31
0.0
  0
LINE
 8
Layer0
10
-2615.06101805046
20
2770.06070805046
30
0.0
11
-2615.2993955076
21
2769.7500485
31
0.0
  0
LINE
 8
Layer0
10
-2615.2993955076
20
2769.7500485
30
0.0
11
-2615.44924584166
21
2769.3882777912
31
0.0
  0
LINE
 8
Layer0
10
-2615.44924584166
20
2769.3882777912
30
0.0
11
-2615.500357
21
2769.00005
31
0.0
  0
LINE
 8
Layer0
10
-2615.500357
20
2769.00005
30
0.0
11
-2615.44924584166
21
2768.6118222088
31
0.0
  0
LINE
 8
Layer0
10
-2615.44924584166
20
2768.6118222088
30
0.0
11
-2615.2993955076
21
2768.2500515
31
0.0
  0
LINE
 8
Layer0
10
-2615.2993955076
20
2768.2500515
30
0.0
11
-2615.06101805046
21
2767.93939194954
31
0.0
  0
LINE
 8
Layer0
10
-2615.06101805046
20
2767.93939194954
30
0.0
11
-2614.7503585
21
2767.7010144924
31
0.0
  0
LINE
 8
Layer0
10
-2614.7503585
20
2767.7010144924
30
0.0
11
-2614.3885877912
21
2767.55116415834
31
0.0
  0
LINE
 8
Layer0
10
-2614.3885877912
20
2767.55116415834
30
0.0
11
-2614.00036
21
2767.500053
31
0.0
  0
LINE
 8
Layer0
10
-2614.00036
20
2767.500053
30
0.0
11
-2613.6121322088
21
2767.55116415834
31
0.0
  0
LINE
 8
Layer0
10
-2613.6121322088
20
2767.55116415834
30
0.0
11
-2613.2503615
21
2767.7010144924
31
0.0
  0
LINE
 8
Layer0
10
-2613.2503615
20
2767.7010144924
30
0.0
11
-2612.93970194954
21
2767.93939194954
31
0.0
  0
LINE
 8
Layer0
10
-2612.93970194954
20
2767.93939194954
30
0.0
11
-2612.7013244924
21
2768.2500515
31
0.0
  0
LINE
 8
Layer0
10
-2612.7013244924
20
2768.2500515
30
0.0
11
-2612.55147415834
21
2768.6118222088
31
0.0
  0
LINE
 8
Layer0
10
-2612.55147415834
20
2768.6118222088
30
0.0
11
-2612.500363
21
2769.00005
31
0.0
  0
LINE
 8
Layer0
10
-2612.500363
20
2759.00007
30
0.0
11
-2612.55147415834
21
2759.3882977912
31
0.0
  0
LINE
 8
Layer0
10
-2612.55147415834
20
2759.3882977912
30
0.0
11
-2612.7013244924
21
2759.7500685
31
0.0
  0
LINE
 8
Layer0
10
-2612.7013244924
20
2759.7500685
30
0.0
11
-2612.93970194954
21
2760.06072805046
31
0.0
  0
LINE
 8
Layer0
10
-2612.93970194954
20
2760.06072805046
30
0.0
11
-2613.2503615
21
2760.2991055076
31
0.0
  0
LINE
 8
Layer0
10
-2613.2503615
20
2760.2991055076
30
0.0
11
-2613.6121322088
21
2760.44895584166
31
0.0
  0
LINE
 8
Layer0
10
-2613.6121322088
20
2760.44895584166
30
0.0
11
-2614.00036
21
2760.500067
31
0.0
  0
LINE
 8
Layer0
10
-2614.00036
20
2760.500067
30
0.0
11
-2614.3885877912
21
2760.44895584166
31
0.0
  0
LINE
 8
Layer0
10
-2614.3885877912
20
2760.44895584166
30
0.0
11
-2614.7503585
21
2760.2991055076
31
0.0
  0
LINE
 8
Layer0
10
-2614.7503585
20
2760.2991055076
30
0.0
11
-2615.06101805046
21
2760.06072805046
31
0.0
  0
LINE
 8
Layer0
10
-2615.06101805046
20
2760.06072805046
30
0.0
11
-2615.2993955076
21
2759.7500685
31
0.0
  0
LINE
 8
Layer0
10
-2615.2993955076
20
2759.7500685
30
0.0
11
-2615.44924584166
21
2759.3882977912
31
0.0
  0
LINE
 8
Layer0
10
-2615.44924584166
20
2759.3882977912
30
0.0
11
-2615.500357
21
2759.00007
31
0.0
  0
LINE
 8
Layer0
10
-2615.500357
20
2759.00007
30
0.0
11
-2615.44924584166
21
2758.6118422088
31
0.0
  0
LINE
 8
Layer0
10
-2615.44924584166
20
2758.6118422088
30
0.0
11
-2615.2993955076
21
2758.2500715
31
0.0
  0
LINE
 8
Layer0
10
-2615.2993955076
20
2758.2500715
30
0.0
11
-2615.06101805046
21
2757.93941194954
31
0.0
  0
LINE
 8
Layer0
10
-2615.06101805046
20
2757.93941194954
30
0.0
11
-2614.7503585
21
2757.7010344924
31
0.0
  0
LINE
 8
Layer0
10
-2614.7503585
20
2757.7010344924
30
0.0
11
-2614.3885877912
21
2757.55118415834
31
0.0
  0
LINE
 8
Layer0
10
-2614.3885877912
20
2757.55118415834
30
0.0
11
-2614.00036
21
2757.500073
31
0.0
  0
LINE
 8
Layer0
10
-2614.00036
20
2757.500073
30
0.0
11
-2613.6121322088
21
2757.55118415834
31
0.0
  0
LINE
 8
Layer0
10
-2613.6121322088
20
2757.55118415834
30
0.0
11
-2613.2503615
21
2757.7010344924
31
0.0
  0
LINE
 8
Layer0
10
-2613.2503615
20
2757.7010344924
30
0.0
11
-2612.93970194954
21
2757.93941194954
31
0.0
  0
LINE
 8
Layer0
10
-2612.93970194954
20
2757.93941194954
30
0.0
11
-2612.7013244924
21
2758.2500715
31
0.0
  0
LINE
 8
Layer0
10
-2612.7013244924
20
2758.2500715
30
0.0
11
-2612.55147415834
21
2758.6118422088
31
0.0
  0
LINE
 8
Layer0
10
-2612.55147415834
20
2758.6118422088
30
0.0
11
-2612.500363
21
2759.00007
31
0.0
  0
LINE
 8
Layer0
10
-2778.82669723752
20
2674.4178963132
30
0.0
11
-2778.7500305
21
2675.000238
31
0.0
  0
LINE
 8
Layer0
10
-2754.82674523752
20
2692.4178603132
30
0.0
11
-2754.7500785
21
2693.000202
31
0.0
  0
LINE
 8
Layer0
10
-2778.7500305
20
2693.000202
30
0.0
11
-2778.82669723752
21
2693.58254368679
31
0.0
  0
LINE
 8
Layer0
10
-2754.7500785
20
2675.000238
30
0.0
11
-2754.82674523752
21
2675.58257968679
31
0.0
  0
LINE
 8
Layer0
10
-2778.82669723752
20
2693.58254368679
30
0.0
11
-2779.0514727386
21
2694.12519975
31
0.0
  0
LINE
 8
Layer0
10
-2754.82674523752
20
2675.58257968679
30
0.0
11
-2755.0515207386
21
2676.12523575
31
0.0
  0
LINE
 8
Layer0
10
-2779.0514727386
20
2694.12519975
30
0.0
11
-2779.40903892431
21
2694.59118907569
31
0.0
  0
LINE
 8
Layer0
10
-2755.0515207386
20
2676.12523575
30
0.0
11
-2755.40908692431
21
2676.59122507569
31
0.0
  0
LINE
 8
Layer0
10
-2779.40903892431
20
2694.59118907569
30
0.0
11
-2779.87502825
21
2694.9487552614
31
0.0
  0
LINE
 8
Layer0
10
-2755.40908692431
20
2676.59122507569
30
0.0
11
-2755.87507625
21
2676.9487912614
31
0.0
  0
LINE
 8
Layer0
10
-2779.87502825
20
2694.9487552614
30
0.0
11
-2780.41768431321
21
2695.17353076248
31
0.0
  0
LINE
 8
Layer0
10
-2755.87507625
20
2676.9487912614
30
0.0
11
-2756.4177323132
21
2677.17356676248
31
0.0
  0
LINE
 8
Layer0
10
-2780.41768431321
20
2695.17353076248
30
0.0
11
-2781.000026
21
2695.2501975
31
0.0
  0
LINE
 8
Layer0
10
-2756.4177323132
20
2677.17356676248
30
0.0
11
-2757.000074
21
2677.2502335
31
0.0
  0
LINE
 8
Layer0
10
-2781.000026
20
2695.2501975
30
0.0
11
-2781.58236768679
21
2695.17353076248
31
0.0
  0
LINE
 8
Layer0
10
-2757.000074
20
2677.2502335
30
0.0
11
-2757.58241568679
21
2677.17356676248
31
0.0
  0
LINE
 8
Layer0
10
-2781.58236768679
20
2695.17353076248
30
0.0
11
-2782.12502375
21
2694.9487552614
31
0.0
  0
LINE
 8
Layer0
10
-2757.58241568679
20
2677.17356676248
30
0.0
11
-2758.12507175
21
2676.9487912614
31
0.0
  0
LINE
 8
Layer0
10
-2782.12502375
20
2694.9487552614
30
0.0
11
-2782.59101307569
21
2694.59118907569
31
0.0
  0
LINE
 8
Layer0
10
-2758.12507175
20
2676.9487912614
30
0.0
11
-2758.59106107569
21
2676.59122507569
31
0.0
  0
LINE
 8
Layer0
10
-2782.59101307569
20
2694.59118907569
30
0.0
11
-2782.9485792614
21
2694.12519975
31
0.0
  0
LINE
 8
Layer0
10
-2758.59106107569
20
2676.59122507569
30
0.0
11
-2758.9486272614
21
2676.12523575
31
0.0
  0
LINE
 8
Layer0
10
-2632.33266618679
20
2688.42354426248
30
0.0
11
-2632.87532225
21
2688.1987687614
31
0.0
  0
LINE
 8
Layer0
10
-2632.87532225
20
2688.1987687614
30
0.0
11
-2633.34131157569
21
2687.84120257569
31
0.0
  0
LINE
 8
Layer0
10
-2633.34131157569
20
2687.84120257569
30
0.0
11
-2633.6988777614
21
2687.37521325
31
0.0
  0
LINE
 8
Layer0
10
-2633.92365326248
20
2686.83255718679
30
0.0
11
-2634.00032
21
2686.2502155
31
0.0
  0
LINE
 8
Layer0
10
-2633.6988777614
20
2687.37521325
30
0.0
11
-2633.92365326248
21
2686.83255718679
31
0.0
  0
LINE
 8
Layer0
10
-2587.93975194954
20
2735.06077805046
30
0.0
11
-2588.2504115
21
2735.2991555076
31
0.0
  0
LINE
 8
Layer0
10
-2588.2504115
20
2735.2991555076
30
0.0
11
-2588.6121822088
21
2735.44900584166
31
0.0
  0
LINE
 8
Layer0
10
-2587.55152415834
20
2734.3883477912
30
0.0
11
-2587.7013744924
21
2734.7501185
31
0.0
  0
LINE
 8
Layer0
10
-2587.500413
20
2734.00012
30
0.0
11
-2587.55152415834
21
2734.3883477912
31
0.0
  0
LINE
 8
Layer0
10
-2587.7013744924
20
2734.7501185
30
0.0
11
-2587.93975194954
21
2735.06077805046
31
0.0
  0
LINE
 8
Layer0
10
-2588.6121822088
20
2735.44900584166
30
0.0
11
-2589.00041
21
2735.500117
31
0.0
  0
LINE
 8
Layer0
10
-2609.00037
20
2635.500317
30
0.0
11
-2609.3885977912
21
2635.44920584166
31
0.0
  0
LINE
 8
Layer0
10
-2589.00041
20
2735.500117
30
0.0
11
-2589.3886377912
21
2735.44900584166
31
0.0
  0
LINE
 8
Layer0
10
-2609.3885977912
20
2635.44920584166
30
0.0
11
-2609.7503685
21
2635.2993555076
31
0.0
  0
LINE
 8
Layer0
10
-2589.3886377912
20
2735.44900584166
30
0.0
11
-2589.7504085
21
2735.2991555076
31
0.0
  0
LINE
 8
Layer0
10
-2609.7503685
20
2635.2993555076
30
0.0
11
-2610.06102805046
21
2635.06097805046
31
0.0
  0
LINE
 8
Layer0
10
-2589.7504085
20
2735.2991555076
30
0.0
11
-2590.06106805046
21
2735.06077805046
31
0.0
  0
LINE
 8
Layer0
10
-2610.06102805046
20
2635.06097805046
30
0.0
11
-2610.2994055076
21
2634.7503185
31
0.0
  0
LINE
 8
Layer0
10
-2590.06106805046
20
2735.06077805046
30
0.0
11
-2590.2994455076
21
2734.7501185
31
0.0
  0
LINE
 8
Layer0
10
-2610.2994055076
20
2634.7503185
30
0.0
11
-2610.44925584166
21
2634.3885477912
31
0.0
  0
LINE
 8
Layer0
10
-2590.2994455076
20
2734.7501185
30
0.0
11
-2590.44929584166
21
2734.3883477912
31
0.0
  0
LINE
 8
Layer0
10
-2610.44925584166
20
2634.3885477912
30
0.0
11
-2610.500367
21
2634.00032
31
0.0
  0
LINE
 8
Layer0
10
-2590.44929584166
20
2734.3883477912
30
0.0
11
-2590.500407
21
2734.00012
31
0.0
  0
LINE
 8
Layer0
10
-2610.500367
20
2634.00032
30
0.0
11
-2610.44925584166
21
2633.6120922088
31
0.0
  0
LINE
 8
Layer0
10
-2590.500407
20
2734.00012
30
0.0
11
-2590.44929584166
21
2733.6118922088
31
0.0
  0
LINE
 8
Layer0
10
-2610.44925584166
20
2633.6120922088
30
0.0
11
-2610.2994055076
21
2633.2503215
31
0.0
  0
LINE
 8
Layer0
10
-2590.44929584166
20
2733.6118922088
30
0.0
11
-2590.2994455076
21
2733.2501215
31
0.0
  0
LINE
 8
Layer0
10
-2610.2994055076
20
2633.2503215
30
0.0
11
-2610.06102805046
21
2632.93966194954
31
0.0
  0
LINE
 8
Layer0
10
-2590.2994455076
20
2733.2501215
30
0.0
11
-2590.06106805046
21
2732.93946194954
31
0.0
  0
LINE
 8
Layer0
10
-2610.06102805046
20
2632.93966194954
30
0.0
11
-2609.7503685
21
2632.7012844924
31
0.0
  0
LINE
 8
Layer0
10
-2590.06106805046
20
2732.93946194954
30
0.0
11
-2589.7504085
21
2732.7010844924
31
0.0
  0
LINE
 8
Layer0
10
-2782.9485792614
20
2694.12519975
30
0.0
11
-2783.17335476248
21
2693.58254368679
31
0.0
  0
LINE
 8
Layer0
10
-2758.9486272614
20
2676.12523575
30
0.0
11
-2759.17340276248
21
2675.58257968679
31
0.0
  0
LINE
 8
Layer0
10
-2783.17335476248
20
2693.58254368679
30
0.0
11
-2783.2500215
21
2693.000202
31
0.0
  0
LINE
 8
Layer0
10
-2759.17340276248
20
2675.58257968679
30
0.0
11
-2759.2500695
21
2675.000238
31
0.0
  0
LINE
 8
Layer0
10
-2783.2500215
20
2693.000202
30
0.0
11
-2783.17335476248
21
2692.4178603132
31
0.0
  0
LINE
 8
Layer0
10
-2759.2500695
20
2675.000238
30
0.0
11
-2759.17340276248
21
2674.4178963132
31
0.0
  0
LINE
 8
Layer0
10
-2783.17335476248
20
2692.4178603132
30
0.0
11
-2782.9485792614
21
2691.87520425
31
0.0
  0
LINE
 8
Layer0
10
-2759.17340276248
20
2674.4178963132
30
0.0
11
-2758.9486272614
21
2673.87524025
31
0.0
  0
LINE
 8
Layer0
10
-2782.9485792614
20
2691.87520425
30
0.0
11
-2782.59101307569
21
2691.40921492431
31
0.0
  0
LINE
 8
Layer0
10
-2758.9486272614
20
2673.87524025
30
0.0
11
-2758.59106107569
21
2673.40925092431
31
0.0
  0
LINE
 8
Layer0
10
-2782.59101307569
20
2691.40921492431
30
0.0
11
-2782.12502375
21
2691.0516487386
31
0.0
  0
LINE
 8
Layer0
10
-2758.59106107569
20
2673.40925092431
30
0.0
11
-2758.12507175
21
2673.0516847386
31
0.0
  0
LINE
 8
Layer0
10
-2782.12502375
20
2691.0516487386
30
0.0
11
-2781.58236768679
21
2690.82687323752
31
0.0
  0
LINE
 8
Layer0
10
-2758.12507175
20
2673.0516847386
30
0.0
11
-2757.58241568679
21
2672.82690923752
31
0.0
  0
LINE
 8
Layer0
10
-2781.58236768679
20
2690.82687323752
30
0.0
11
-2781.000026
21
2690.7502065
31
0.0
  0
LINE
 8
Layer0
10
-2757.58241568679
20
2672.82690923752
30
0.0
11
-2757.000074
21
2672.7502425
31
0.0
  0
LINE
 8
Layer0
10
-2781.000026
20
2690.7502065
30
0.0
11
-2780.41768431321
21
2690.82687323752
31
0.0
  0
LINE
 8
Layer0
10
-2757.000074
20
2672.7502425
30
0.0
11
-2756.4177323132
21
2672.82690923752
31
0.0
  0
LINE
 8
Layer0
10
-2780.41768431321
20
2690.82687323752
30
0.0
11
-2779.87502825
21
2691.0516487386
31
0.0
  0
LINE
 8
Layer0
10
-2756.4177323132
20
2672.82690923752
30
0.0
11
-2755.87507625
21
2673.0516847386
31
0.0
  0
LINE
 8
Layer0
10
-2779.87502825
20
2691.0516487386
30
0.0
11
-2779.40903892431
21
2691.40921492431
31
0.0
  0
LINE
 8
Layer0
10
-2755.87507625
20
2673.0516847386
30
0.0
11
-2755.40908692431
21
2673.40925092431
31
0.0
  0
LINE
 8
Layer0
10
-2779.40903892431
20
2691.40921492431
30
0.0
11
-2779.0514727386
21
2691.87520425
31
0.0
  0
LINE
 8
Layer0
10
-2755.40908692431
20
2673.40925092431
30
0.0
11
-2755.0515207386
21
2673.87524025
31
0.0
  0
LINE
 8
Layer0
10
-2779.0514727386
20
2691.87520425
30
0.0
11
-2778.82669723752
21
2692.4178603132
31
0.0
  0
LINE
 8
Layer0
10
-2755.0515207386
20
2673.87524025
30
0.0
11
-2754.82674523752
21
2674.4178963132
31
0.0
  0
LINE
 8
Layer0
10
-2778.82669723752
20
2692.4178603132
30
0.0
11
-2778.7500305
21
2693.000202
31
0.0
  0
LINE
 8
Layer0
10
-2754.82674523752
20
2674.4178963132
30
0.0
11
-2754.7500785
21
2675.000238
31
0.0
  0
LINE
 8
Layer0
10
-2607.500373
20
2734.00012
30
0.0
11
-2607.55148415834
21
2734.3883477912
31
0.0
  0
LINE
 8
Layer0
10
-2778.7500305
20
2675.000238
30
0.0
11
-2778.82669723752
21
2675.58257968679
31
0.0
  0
LINE
 8
Layer0
10
-2607.55148415834
20
2734.3883477912
30
0.0
11
-2607.7013344924
21
2734.7501185
31
0.0
  0
LINE
 8
Layer0
10
-2778.82669723752
20
2675.58257968679
30
0.0
11
-2779.0514727386
21
2676.12523575
31
0.0
  0
LINE
 8
Layer0
10
-2607.7013344924
20
2734.7501185
30
0.0
11
-2607.93971194954
21
2735.06077805046
31
0.0
  0
LINE
 8
Layer0
10
-2779.0514727386
20
2676.12523575
30
0.0
11
-2779.40903892431
21
2676.59122507569
31
0.0
  0
LINE
 8
Layer0
10
-2607.93971194954
20
2735.06077805046
30
0.0
11
-2608.2503715
21
2735.2991555076
31
0.0
  0
LINE
 8
Layer0
10
-2779.40903892431
20
2676.59122507569
30
0.0
11
-2779.87502825
21
2676.9487912614
31
0.0
  0
LINE
 8
Layer0
10
-2608.2503715
20
2735.2991555076
30
0.0
11
-2608.6121422088
21
2735.44900584166
31
0.0
  0
LINE
 8
Layer0
10
-2779.87502825
20
2676.9487912614
30
0.0
11
-2780.41768431321
21
2677.17356676248
31
0.0
  0
LINE
 8
Layer0
10
-2608.6121422088
20
2735.44900584166
30
0.0
11
-2609.00037
21
2735.500117
31
0.0
  0
LINE
 8
Layer0
10
-2780.41768431321
20
2677.17356676248
30
0.0
11
-2781.000026
21
2677.2502335
31
0.0
  0
LINE
 8
Layer0
10
-2609.00037
20
2735.500117
30
0.0
11
-2609.3885977912
21
2735.44900584166
31
0.0
  0
LINE
 8
Layer0
10
-2781.000026
20
2677.2502335
30
0.0
11
-2781.58236768679
21
2677.17356676248
31
0.0
  0
LINE
 8
Layer0
10
-2609.3885977912
20
2735.44900584166
30
0.0
11
-2609.7503685
21
2735.2991555076
31
0.0
  0
LINE
 8
Layer0
10
-2781.58236768679
20
2677.17356676248
30
0.0
11
-2782.12502375
21
2676.9487912614
31
0.0
  0
LINE
 8
Layer0
10
-2609.7503685
20
2735.2991555076
30
0.0
11
-2610.06102805046
21
2735.06077805046
31
0.0
  0
LINE
 8
Layer0
10
-2782.12502375
20
2676.9487912614
30
0.0
11
-2782.59101307569
21
2676.59122507569
31
0.0
  0
LINE
 8
Layer0
10
-2610.06102805046
20
2735.06077805046
30
0.0
11
-2610.2994055076
21
2734.7501185
31
0.0
  0
LINE
 8
Layer0
10
-2782.59101307569
20
2676.59122507569
30
0.0
11
-2782.9485792614
21
2676.12523575
31
0.0
  0
LINE
 8
Layer0
10
-2610.2994055076
20
2734.7501185
30
0.0
11
-2610.44925584166
21
2734.3883477912
31
0.0
  0
LINE
 8
Layer0
10
-2782.9485792614
20
2676.12523575
30
0.0
11
-2783.17335476248
21
2675.58257968679
31
0.0
  0
LINE
 8
Layer0
10
-2610.44925584166
20
2734.3883477912
30
0.0
11
-2610.500367
21
2734.00012
31
0.0
  0
LINE
 8
Layer0
10
-2783.17335476248
20
2675.58257968679
30
0.0
11
-2783.2500215
21
2675.000238
31
0.0
  0
LINE
 8
Layer0
10
-2610.500367
20
2734.00012
30
0.0
11
-2610.44925584166
21
2733.6118922088
31
0.0
  0
LINE
 8
Layer0
10
-2783.2500215
20
2675.000238
30
0.0
11
-2783.17335476248
21
2674.4178963132
31
0.0
  0
LINE
 8
Layer0
10
-2610.44925584166
20
2733.6118922088
30
0.0
11
-2610.2994055076
21
2733.2501215
31
0.0
  0
LINE
 8
Layer0
10
-2783.17335476248
20
2674.4178963132
30
0.0
11
-2782.9485792614
21
2673.87524025
31
0.0
  0
LINE
 8
Layer0
10
-2610.2994055076
20
2733.2501215
30
0.0
11
-2610.06102805046
21
2732.93946194954
31
0.0
  0
LINE
 8
Layer0
10
-2782.9485792614
20
2673.87524025
30
0.0
11
-2782.59101307569
21
2673.40925092431
31
0.0
  0
LINE
 8
Layer0
10
-2610.06102805046
20
2732.93946194954
30
0.0
11
-2609.7503685
21
2732.7010844924
31
0.0
  0
LINE
 8
Layer0
10
-2782.59101307569
20
2673.40925092431
30
0.0
11
-2782.12502375
21
2673.0516847386
31
0.0
  0
LINE
 8
Layer0
10
-2609.7503685
20
2732.7010844924
30
0.0
11
-2609.3885977912
21
2732.55123415834
31
0.0
  0
LINE
 8
Layer0
10
-2782.12502375
20
2673.0516847386
30
0.0
11
-2781.58236768679
21
2672.82690923752
31
0.0
  0
LINE
 8
Layer0
10
-2609.3885977912
20
2732.55123415834
30
0.0
11
-2609.00037
21
2732.500123
31
0.0
  0
LINE
 8
Layer0
10
-2781.58236768679
20
2672.82690923752
30
0.0
11
-2781.000026
21
2672.7502425
31
0.0
  0
LINE
 8
Layer0
10
-2609.00037
20
2732.500123
30
0.0
11
-2608.6121422088
21
2732.55123415834
31
0.0
  0
LINE
 8
Layer0
10
-2781.000026
20
2672.7502425
30
0.0
11
-2780.41768431321
21
2672.82690923752
31
0.0
  0
LINE
 8
Layer0
10
-2608.6121422088
20
2732.55123415834
30
0.0
11
-2608.2503715
21
2732.7010844924
31
0.0
  0
LINE
 8
Layer0
10
-2780.41768431321
20
2672.82690923752
30
0.0
11
-2779.87502825
21
2673.0516847386
31
0.0
  0
LINE
 8
Layer0
10
-2608.2503715
20
2732.7010844924
30
0.0
11
-2607.93971194954
21
2732.93946194954
31
0.0
  0
LINE
 8
Layer0
10
-2779.87502825
20
2673.0516847386
30
0.0
11
-2779.40903892431
21
2673.40925092431
31
0.0
  0
LINE
 8
Layer0
10
-2607.93971194954
20
2732.93946194954
30
0.0
11
-2607.7013344924
21
2733.2501215
31
0.0
  0
LINE
 8
Layer0
10
-2779.40903892431
20
2673.40925092431
30
0.0
11
-2779.0514727386
21
2673.87524025
31
0.0
  0
LINE
 8
Layer0
10
-2607.7013344924
20
2733.2501215
30
0.0
11
-2607.55148415834
21
2733.6118922088
31
0.0
  0
LINE
 8
Layer0
10
-2779.0514727386
20
2673.87524025
30
0.0
11
-2778.82669723752
21
2674.4178963132
31
0.0
  0
LINE
 8
Layer0
10
-2607.55148415834
20
2733.6118922088
30
0.0
11
-2607.500373
21
2734.00012
31
0.0
  0
LINE
 8
Layer0
10
-2755.0515207386
20
2691.87520425
30
0.0
11
-2754.82674523752
21
2692.4178603132
31
0.0
  0
LINE
 8
Layer0
10
-2755.40908692431
20
2691.40921492431
30
0.0
11
-2755.0515207386
21
2691.87520425
31
0.0
  0
LINE
 8
Layer0
10
-2788.94000249669
20
2581.14249962054
30
0.0
11
-2789.3500093
21
2580.97266924195
31
0.0
  0
LINE
 8
Layer0
10
-2789.3500093
20
2580.97266924195
30
0.0
11
-2789.70209012385
21
2580.70250812385
31
0.0
  0
LINE
 8
Layer0
10
-2789.70209012385
20
2580.70250812385
30
0.0
11
-2789.97225124195
21
2580.3504273
31
0.0
  0
LINE
 8
Layer0
10
-2789.97225124195
20
2580.3504273
30
0.0
11
-2790.14208162054
21
2579.94042049669
31
0.0
  0
LINE
 8
Layer0
10
-2790.14208162054
20
2579.94042049669
30
0.0
11
-2790.2000076
21
2579.500429
31
0.0
  0
LINE
 8
Layer0
10
-2790.2000076
20
2579.500429
30
0.0
11
-2790.14208162054
21
2579.06043750331
31
0.0
  0
LINE
 8
Layer0
10
-2790.14208162054
20
2579.06043750331
30
0.0
11
-2789.97225124195
21
2578.6504307
31
0.0
  0
LINE
 8
Layer0
10
-2789.97225124195
20
2578.6504307
30
0.0
11
-2789.70209012385
21
2578.29834987615
31
0.0
  0
LINE
 8
Layer0
10
-2789.70209012385
20
2578.29834987615
30
0.0
11
-2789.3500093
21
2578.02818875805
31
0.0
  0
LINE
 8
Layer0
10
-2789.3500093
20
2578.02818875805
30
0.0
11
-2788.94000249669
21
2577.85835837946
31
0.0
  0
LINE
 8
Layer0
10
-2788.94000249669
20
2577.85835837946
30
0.0
11
-2788.500011
21
2577.8004324
31
0.0
  0
LINE
 8
Layer0
10
-2788.500011
20
2577.8004324
30
0.0
11
-2788.06001950331
21
2577.85835837946
31
0.0
  0
LINE
 8
Layer0
10
-2788.06001950331
20
2577.85835837946
30
0.0
11
-2787.6500127
21
2578.02818875805
31
0.0
  0
LINE
 8
Layer0
10
-2787.6500127
20
2578.02818875805
30
0.0
11
-2787.29793187615
21
2578.29834987615
31
0.0
  0
LINE
 8
Layer0
10
-2787.29793187615
20
2578.29834987615
30
0.0
11
-2787.02777075805
21
2578.6504307
31
0.0
  0
LINE
 8
Layer0
10
-2787.02777075805
20
2578.6504307
30
0.0
11
-2786.85794037946
21
2579.06043750331
31
0.0
  0
LINE
 8
Layer0
10
-2786.85794037946
20
2579.06043750331
30
0.0
11
-2786.8000144
21
2579.500429
31
0.0
  0
LINE
 8
Layer0
10
-2765.000058
20
2673.500241
30
0.0
11
-2765.000058
21
2694.500199
31
0.0
  0
LINE
 8
Layer0
10
-2773.000042
20
2694.500199
30
0.0
11
-2773.000042
21
2673.500241
31
0.0
  0
LINE
 8
Layer0
10
-2595.000398
20
2723.500141
30
0.0
11
-2595.000398
21
2744.500099
31
0.0
  0
LINE
 8
Layer0
10
-2603.000382
20
2744.500099
30
0.0
11
-2603.000382
21
2723.500141
31
0.0
  0
LINE
 8
Layer0
10
-2595.000398
20
2623.500341
30
0.0
11
-2595.000398
21
2644.500299
31
0.0
  0
LINE
 8
Layer0
10
-2603.000382
20
2644.500299
30
0.0
11
-2603.000382
21
2623.500341
31
0.0
  0
LINE
 8
Layer0
10
-2731.48985359434
20
2769.00005
30
0.0
11
-2741.48983359434
21
2759.00007
31
0.0
  0
LINE
 8
Layer0
10
-2741.48983359434
20
2759.00007
30
0.0
11
-2741.48983359434
21
2729.00013
31
0.0
  0
LINE
 8
Layer0
10
-2741.48983359434
20
2729.00013
30
0.0
11
-2731.48985359434
21
2719.00015
31
0.0
  0
LINE
 8
Layer0
10
-2731.48985359434
20
2719.00015
30
0.0
11
-2636.51058640566
21
2719.00015
31
0.0
  0
LINE
 8
Layer0
10
-2636.51058640566
20
2719.00015
30
0.0
11
-2626.51060640566
21
2729.00013
31
0.0
  0
LINE
 8
Layer0
10
-2626.51060640566
20
2729.00013
30
0.0
11
-2626.51060640566
21
2759.00007
31
0.0
  0
LINE
 8
Layer0
10
-2626.51060640566
20
2759.00007
30
0.0
11
-2636.51058640566
21
2769.00005
31
0.0
  0
LINE
 8
Layer0
10
-2636.51058640566
20
2769.00005
30
0.0
11
-2731.48985359434
21
2769.00005
31
0.0
  0
LINE
 8
Layer0
10
-2626.51060640566
20
2639.00031
30
0.0
11
-2636.51058640566
21
2649.00029
31
0.0
  0
LINE
 8
Layer0
10
-2636.51058640566
20
2649.00029
30
0.0
11
-2731.48985359434
21
2649.00029
31
0.0
  0
LINE
 8
Layer0
10
-2731.48985359434
20
2649.00029
30
0.0
11
-2741.48983359434
21
2639.00031
31
0.0
  0
LINE
 8
Layer0
10
-2741.48983359434
20
2639.00031
30
0.0
11
-2741.48983359434
21
2609.00037
31
0.0
  0
LINE
 8
Layer0
10
-2741.48983359434
20
2609.00037
30
0.0
11
-2731.48985359434
21
2599.00039
31
0.0
  0
LINE
 8
Layer0
10
-2731.48985359434
20
2599.00039
30
0.0
11
-2636.51058640566
21
2599.00039
31
0.0
  0
LINE
 8
Layer0
10
-2636.51058640566
20
2599.00039
30
0.0
11
-2626.51060640566
21
2609.00037
31
0.0
  0
LINE
 8
Layer0
10
-2626.51060640566
20
2609.00037
30
0.0
11
-2626.51060640566
21
2639.00031
31
0.0
  0
LINE
 8
Layer0
10
-2765.000058
20
2694.500199
30
0.0
11
-2765.13635442225
21
2695.53547310986
31
0.0
  0
LINE
 8
Layer0
10
-2765.13635442225
20
2695.53547310986
30
0.0
11
-2765.53595531307
21
2696.500195
31
0.0
  0
LINE
 8
Layer0
10
-2765.53595531307
20
2696.500195
30
0.0
11
-2766.17162853211
21
2697.32862046789
31
0.0
  0
LINE
 8
Layer0
10
-2766.17162853211
20
2697.32862046789
30
0.0
11
-2767.000054
21
2697.96429368693
31
0.0
  0
LINE
 8
Layer0
10
-2767.000054
20
2697.96429368693
30
0.0
11
-2767.96477589014
21
2698.36389457775
31
0.0
  0
LINE
 8
Layer0
10
-2767.96477589014
20
2698.36389457775
30
0.0
11
-2769.00005
21
2698.500191
31
0.0
  0
LINE
 8
Layer0
10
-2769.00005
20
2698.500191
30
0.0
11
-2770.03532410986
21
2698.36389457775
31
0.0
  0
LINE
 8
Layer0
10
-2770.03532410986
20
2698.36389457775
30
0.0
11
-2771.000046
21
2697.96429368693
31
0.0
  0
LINE
 8
Layer0
10
-2771.000046
20
2697.96429368693
30
0.0
11
-2771.82847146789
21
2697.32862046789
31
0.0
  0
LINE
 8
Layer0
10
-2771.82847146789
20
2697.32862046789
30
0.0
11
-2772.46414468693
21
2696.500195
31
0.0
  0
LINE
 8
Layer0
10
-2772.46414468693
20
2696.500195
30
0.0
11
-2772.86374557775
21
2695.53547310986
31
0.0
  0
LINE
 8
Layer0
10
-2772.86374557775
20
2695.53547310986
30
0.0
11
-2773.000042
21
2694.500199
31
0.0
  0
LINE
 8
Layer0
10
-2773.000042
20
2673.500241
30
0.0
11
-2772.86374557775
21
2672.46496689014
31
0.0
  0
LINE
 8
Layer0
10
-2772.86374557775
20
2672.46496689014
30
0.0
11
-2772.46414468693
21
2671.500245
31
0.0
  0
LINE
 8
Layer0
10
-2772.46414468693
20
2671.500245
30
0.0
11
-2771.82847146789
21
2670.67181953211
31
0.0
  0
LINE
 8
Layer0
10
-2771.82847146789
20
2670.67181953211
30
0.0
11
-2771.000046
21
2670.03614631306
31
0.0
  0
LINE
 8
Layer0
10
-2771.000046
20
2670.03614631306
30
0.0
11
-2770.03532410986
21
2669.63654542225
31
0.0
  0
LINE
 8
Layer0
10
-2770.03532410986
20
2669.63654542225
30
0.0
11
-2769.00005
21
2669.500249
31
0.0
  0
LINE
 8
Layer0
10
-2769.00005
20
2669.500249
30
0.0
11
-2767.96477589014
21
2669.63654542225
31
0.0
  0
LINE
 8
Layer0
10
-2767.96477589014
20
2669.63654542225
30
0.0
11
-2767.000054
21
2670.03614631306
31
0.0
  0
LINE
 8
Layer0
10
-2767.000054
20
2670.03614631306
30
0.0
11
-2766.17162853211
21
2670.67181953211
31
0.0
  0
LINE
 8
Layer0
10
-2766.17162853211
20
2670.67181953211
30
0.0
11
-2765.53595531307
21
2671.500245
31
0.0
  0
LINE
 8
Layer0
10
-2765.53595531307
20
2671.500245
30
0.0
11
-2765.13635442225
21
2672.46496689014
31
0.0
  0
LINE
 8
Layer0
10
-2765.13635442225
20
2672.46496689014
30
0.0
11
-2765.000058
21
2673.500241
31
0.0
  0
LINE
 8
Layer0
10
-2595.000398
20
2744.500099
30
0.0
11
-2595.13669442225
21
2745.53537310986
31
0.0
  0
LINE
 8
Layer0
10
-2595.13669442225
20
2745.53537310986
30
0.0
11
-2595.53629531307
21
2746.500095
31
0.0
  0
LINE
 8
Layer0
10
-2595.53629531307
20
2746.500095
30
0.0
11
-2596.17196853211
21
2747.32852046789
31
0.0
  0
LINE
 8
Layer0
10
-2596.17196853211
20
2747.32852046789
30
0.0
11
-2597.000394
21
2747.96419368693
31
0.0
  0
LINE
 8
Layer0
10
-2597.000394
20
2747.96419368693
30
0.0
11
-2597.96511589014
21
2748.36379457775
31
0.0
  0
LINE
 8
Layer0
10
-2597.96511589014
20
2748.36379457775
30
0.0
11
-2599.00039
21
2748.500091
31
0.0
  0
LINE
 8
Layer0
10
-2599.00039
20
2748.500091
30
0.0
11
-2600.03566410986
21
2748.36379457775
31
0.0
  0
LINE
 8
Layer0
10
-2600.03566410986
20
2748.36379457775
30
0.0
11
-2601.000386
21
2747.96419368693
31
0.0
  0
LINE
 8
Layer0
10
-2601.000386
20
2747.96419368693
30
0.0
11
-2601.82881146789
21
2747.32852046789
31
0.0
  0
LINE
 8
Layer0
10
-2601.82881146789
20
2747.32852046789
30
0.0
11
-2602.46448468693
21
2746.500095
31
0.0
  0
LINE
 8
Layer0
10
-2602.46448468693
20
2746.500095
30
0.0
11
-2602.86408557775
21
2745.53537310986
31
0.0
  0
LINE
 8
Layer0
10
-2602.86408557775
20
2745.53537310986
30
0.0
11
-2603.000382
21
2744.500099
31
0.0
  0
LINE
 8
Layer0
10
-2603.000382
20
2723.500141
30
0.0
11
-2602.86408557775
21
2722.46486689014
31
0.0
  0
LINE
 8
Layer0
10
-2602.86408557775
20
2722.46486689014
30
0.0
11
-2602.46448468693
21
2721.500145
31
0.0
  0
LINE
 8
Layer0
10
-2602.46448468693
20
2721.500145
30
0.0
11
-2601.82881146789
21
2720.67171953211
31
0.0
  0
LINE
 8
Layer0
10
-2601.82881146789
20
2720.67171953211
30
0.0
11
-2601.000386
21
2720.03604631307
31
0.0
  0
LINE
 8
Layer0
10
-2601.000386
20
2720.03604631307
30
0.0
11
-2600.03566410986
21
2719.63644542225
31
0.0
  0
LINE
 8
Layer0
10
-2600.03566410986
20
2719.63644542225
30
0.0
11
-2599.00039
21
2719.500149
31
0.0
  0
LINE
 8
Layer0
10
-2599.00039
20
2719.500149
30
0.0
11
-2597.96511589014
21
2719.63644542225
31
0.0
  0
LINE
 8
Layer0
10
-2597.96511589014
20
2719.63644542225
30
0.0
11
-2597.000394
21
2720.03604631307
31
0.0
  0
LINE
 8
Layer0
10
-2597.000394
20
2720.03604631307
30
0.0
11
-2596.17196853211
21
2720.67171953211
31
0.0
  0
LINE
 8
Layer0
10
-2596.17196853211
20
2720.67171953211
30
0.0
11
-2595.53629531307
21
2721.500145
31
0.0
  0
LINE
 8
Layer0
10
-2595.53629531307
20
2721.500145
30
0.0
11
-2595.13669442225
21
2722.46486689014
31
0.0
  0
LINE
 8
Layer0
10
-2595.13669442225
20
2722.46486689014
30
0.0
11
-2595.000398
21
2723.500141
31
0.0
  0
LINE
 8
Layer0
10
-2595.000398
20
2644.500299
30
0.0
11
-2595.13669442225
21
2645.53557310986
31
0.0
  0
LINE
 8
Layer0
10
-2595.13669442225
20
2645.53557310986
30
0.0
11
-2595.53629531307
21
2646.500295
31
0.0
  0
LINE
 8
Layer0
10
-2595.53629531307
20
2646.500295
30
0.0
11
-2596.17196853211
21
2647.32872046789
31
0.0
  0
LINE
 8
Layer0
10
-2596.17196853211
20
2647.32872046789
30
0.0
11
-2597.000394
21
2647.96439368693
31
0.0
  0
LINE
 8
Layer0
10
-2597.000394
20
2647.96439368693
30
0.0
11
-2597.96511589014
21
2648.36399457775
31
0.0
  0
LINE
 8
Layer0
10
-2597.96511589014
20
2648.36399457775
30
0.0
11
-2599.00039
21
2648.500291
31
0.0
  0
LINE
 8
Layer0
10
-2599.00039
20
2648.500291
30
0.0
11
-2600.03566410986
21
2648.36399457775
31
0.0
  0
LINE
 8
Layer0
10
-2600.03566410986
20
2648.36399457775
30
0.0
11
-2601.000386
21
2647.96439368693
31
0.0
  0
LINE
 8
Layer0
10
-2601.000386
20
2647.96439368693
30
0.0
11
-2601.82881146789
21
2647.32872046789
31
0.0
  0
LINE
 8
Layer0
10
-2601.82881146789
20
2647.32872046789
30
0.0
11
-2602.46448468693
21
2646.500295
31
0.0
  0
LINE
 8
Layer0
10
-2602.46448468693
20
2646.500295
30
0.0
11
-2602.86408557775
21
2645.53557310986
31
0.0
  0
LINE
 8
Layer0
10
-2602.86408557775
20
2645.53557310986
30
0.0
11
-2603.000382
21
2644.500299
31
0.0
  0
LINE
 8
Layer0
10
-2603.000382
20
2623.500341
30
0.0
11
-2602.86408557775
21
2622.46506689014
31
0.0
  0
LINE
 8
Layer0
10
-2602.86408557775
20
2622.46506689014
30
0.0
11
-2602.46448468693
21
2621.500345
31
0.0
  0
LINE
 8
Layer0
10
-2602.46448468693
20
2621.500345
30
0.0
11
-2601.82881146789
21
2620.67191953211
31
0.0
  0
LINE
 8
Layer0
10
-2601.82881146789
20
2620.67191953211
30
0.0
11
-2601.000386
21
2620.03624631307
31
0.0
  0
LINE
 8
Layer0
10
-2601.000386
20
2620.03624631307
30
0.0
11
-2600.03566410986
21
2619.63664542225
31
0.0
  0
LINE
 8
Layer0
10
-2600.03566410986
20
2619.63664542225
30
0.0
11
-2599.00039
21
2619.500349
31
0.0
  0
LINE
 8
Layer0
10
-2599.00039
20
2619.500349
30
0.0
11
-2597.96511589014
21
2619.63664542225
31
0.0
  0
LINE
 8
Layer0
10
-2597.96511589014
20
2619.63664542225
30
0.0
11
-2597.000394
21
2620.03624631307
31
0.0
  0
LINE
 8
Layer0
10
-2597.000394
20
2620.03624631307
30
0.0
11
-2596.17196853211
21
2620.67191953211
31
0.0
  0
LINE
 8
Layer0
10
-2596.17196853211
20
2620.67191953211
30
0.0
11
-2595.53629531307
21
2621.500345
31
0.0
  0
LINE
 8
Layer0
10
-2595.53629531307
20
2621.500345
30
0.0
11
-2595.13669442225
21
2622.46506689014
31
0.0
  0
LINE
 8
Layer0
10
-2595.13669442225
20
2622.46506689014
30
0.0
11
-2595.000398
21
2623.500341
31
0.0
  0
LINE
 8
Layer0
10
-2689.4002092
20
2714.00016
30
0.0
11
-2689.4547277689
21
2714.41426964394
31
0.0
  0
LINE
 8
Layer0
10
-2689.4547277689
20
2714.41426964394
30
0.0
11
-2689.61456812523
21
2714.8001584
31
0.0
  0
LINE
 8
Layer0
10
-2689.61456812523
20
2714.8001584
30
0.0
11
-2689.86883741284
21
2715.13152858716
31
0.0
  0
LINE
 8
Layer0
10
-2689.86883741284
20
2715.13152858716
30
0.0
11
-2690.2002076
21
2715.38579787477
31
0.0
  0
LINE
 8
Layer0
10
-2690.2002076
20
2715.38579787477
30
0.0
11
-2690.58609635606
21
2715.5456382311
31
0.0
  0
LINE
 8
Layer0
10
-2690.58609635606
20
2715.5456382311
30
0.0
11
-2691.000206
21
2715.6001568
31
0.0
  0
LINE
 8
Layer0
10
-2691.000206
20
2715.6001568
30
0.0
11
-2691.41431564394
21
2715.5456382311
31
0.0
  0
LINE
 8
Layer0
10
-2691.41431564394
20
2715.5456382311
30
0.0
11
-2691.8002044
21
2715.38579787477
31
0.0
  0
LINE
 8
Layer0
10
-2691.8002044
20
2715.38579787477
30
0.0
11
-2692.13157458716
21
2715.13152858716
31
0.0
  0
LINE
 8
Layer0
10
-2692.13157458716
20
2715.13152858716
30
0.0
11
-2692.38584387477
21
2714.8001584
31
0.0
  0
LINE
 8
Layer0
10
-2692.38584387477
20
2714.8001584
30
0.0
11
-2692.5456842311
21
2714.41426964394
31
0.0
  0
LINE
 8
Layer0
10
-2692.5456842311
20
2714.41426964394
30
0.0
11
-2692.6002028
21
2714.00016
31
0.0
  0
LINE
 8
Layer0
10
-2692.6002028
20
2714.00016
30
0.0
11
-2692.5456842311
21
2713.58605035606
31
0.0
  0
LINE
 8
Layer0
10
-2692.5456842311
20
2713.58605035606
30
0.0
11
-2692.38584387477
21
2713.2001616
31
0.0
  0
LINE
 8
Layer0
10
-2692.38584387477
20
2713.2001616
30
0.0
11
-2692.13157458716
21
2712.86879141284
31
0.0
  0
LINE
 8
Layer0
10
-2692.13157458716
20
2712.86879141284
30
0.0
11
-2691.8002044
21
2712.61452212523
31
0.0
  0
LINE
 8
Layer0
10
-2691.8002044
20
2712.61452212523
30
0.0
11
-2691.41431564394
21
2712.4546817689
31
0.0
  0
LINE
 8
Layer0
10
-2691.41431564394
20
2712.4546817689
30
0.0
11
-2691.000206
21
2712.4001632
31
0.0
  0
LINE
 8
Layer0
10
-2691.000206
20
2712.4001632
30
0.0
11
-2690.58609635606
21
2712.4546817689
31
0.0
  0
LINE
 8
Layer0
10
-2690.58609635606
20
2712.4546817689
30
0.0
11
-2690.2002076
21
2712.61452212523
31
0.0
  0
LINE
 8
Layer0
10
-2690.2002076
20
2712.61452212523
30
0.0
11
-2689.86883741284
21
2712.86879141284
31
0.0
  0
LINE
 8
Layer0
10
-2689.86883741284
20
2712.86879141284
30
0.0
11
-2689.61456812523
21
2713.2001616
31
0.0
  0
LINE
 8
Layer0
10
-2689.61456812523
20
2713.2001616
30
0.0
11
-2689.4547277689
21
2713.58605035606
31
0.0
  0
LINE
 8
Layer0
10
-2689.4547277689
20
2713.58605035606
30
0.0
11
-2689.4002092
21
2714.00016
31
0.0
  0
LINE
 8
Layer0
10
-2675.4002372
20
2714.00016
30
0.0
11
-2675.4547557689
21
2714.41426964394
31
0.0
  0
LINE
 8
Layer0
10
-2675.4547557689
20
2714.41426964394
30
0.0
11
-2675.61459612523
21
2714.8001584
31
0.0
  0
LINE
 8
Layer0
10
-2675.61459612523
20
2714.8001584
30
0.0
11
-2675.86886541284
21
2715.13152858716
31
0.0
  0
LINE
 8
Layer0
10
-2675.86886541284
20
2715.13152858716
30
0.0
11
-2676.2002356
21
2715.38579787477
31
0.0
  0
LINE
 8
Layer0
10
-2676.2002356
20
2715.38579787477
30
0.0
11
-2676.58612435606
21
2715.5456382311
31
0.0
  0
LINE
 8
Layer0
10
-2676.58612435606
20
2715.5456382311
30
0.0
11
-2677.000234
21
2715.6001568
31
0.0
  0
LINE
 8
Layer0
10
-2677.000234
20
2715.6001568
30
0.0
11
-2677.41434364394
21
2715.5456382311
31
0.0
  0
LINE
 8
Layer0
10
-2677.41434364394
20
2715.5456382311
30
0.0
11
-2677.8002324
21
2715.38579787477
31
0.0
  0
LINE
 8
Layer0
10
-2677.8002324
20
2715.38579787477
30
0.0
11
-2678.13160258716
21
2715.13152858716
31
0.0
  0
LINE
 8
Layer0
10
-2678.13160258716
20
2715.13152858716
30
0.0
11
-2678.38587187477
21
2714.8001584
31
0.0
  0
LINE
 8
Layer0
10
-2678.38587187477
20
2714.8001584
30
0.0
11
-2678.5457122311
21
2714.41426964394
31
0.0
  0
LINE
 8
Layer0
10
-2678.5457122311
20
2714.41426964394
30
0.0
11
-2678.6002308
21
2714.00016
31
0.0
  0
LINE
 8
Layer0
10
-2678.6002308
20
2714.00016
30
0.0
11
-2678.5457122311
21
2713.58605035606
31
0.0
  0
LINE
 8
Layer0
10
-2678.5457122311
20
2713.58605035606
30
0.0
11
-2678.38587187477
21
2713.2001616
31
0.0
  0
LINE
 8
Layer0
10
-2678.38587187477
20
2713.2001616
30
0.0
11
-2678.13160258716
21
2712.86879141284
31
0.0
  0
LINE
 8
Layer0
10
-2690.76894337695
20
2747.72414342201
30
0.0
11
-2691.18305302089
21
2747.66962485311
31
0.0
  0
LINE
 8
Layer0
10
-2689.96894497695
20
2747.50978449679
30
0.0
11
-2690.354833733
21
2747.66962485311
31
0.0
  0
LINE
 8
Layer0
10
-2691.9003119641
20
2744.99277803486
30
0.0
11
-2691.56894177695
21
2744.73850874724
31
0.0
  0
LINE
 8
Layer0
10
-2692.15458125172
20
2746.92414502201
30
0.0
11
-2692.31442160805
21
2746.53825626596
31
0.0
  0
LINE
 8
Layer0
10
-2692.31442160805
20
2745.71003697807
30
0.0
11
-2692.15458125172
21
2745.32414822201
31
0.0
  0
LINE
 8
Layer0
10
-2690.354833733
20
2747.66962485311
30
0.0
11
-2690.76894337695
21
2747.72414342201
31
0.0
  0
LINE
 8
Layer0
10
-2692.31442160805
20
2746.53825626596
30
0.0
11
-2692.36894017695
21
2746.12414662201
31
0.0
  0
LINE
 8
Layer0
10
-2692.15458125172
20
2745.32414822201
30
0.0
11
-2691.9003119641
21
2744.99277803486
31
0.0
  0
LINE
 8
Layer0
10
-2692.36894017695
20
2746.12414662201
30
0.0
11
-2692.31442160805
21
2745.71003697807
31
0.0
  0
LINE
 8
Layer0
10
-2691.18305302089
20
2747.66962485311
30
0.0
11
-2691.56894177695
21
2747.50978449679
31
0.0
  0
LINE
 8
Layer0
10
-2691.9003119641
20
2747.25551520917
30
0.0
11
-2692.15458125172
21
2746.92414502201
31
0.0
  0
LINE
 8
Layer0
10
-2689.16894657695
20
2746.12414662201
30
0.0
11
-2689.22346514585
21
2746.53825626596
31
0.0
  0
LINE
 8
Layer0
10
-2689.38330550217
20
2746.92414502201
30
0.0
11
-2689.63757478979
21
2747.25551520917
31
0.0
  0
LINE
 8
Layer0
10
-2689.22346514585
20
2746.53825626596
30
0.0
11
-2689.38330550217
21
2746.92414502201
31
0.0
  0
LINE
 8
Layer0
10
-2786.85794037946
20
2579.94042049669
30
0.0
11
-2787.02777075805
21
2580.3504273
31
0.0
  0
LINE
 8
Layer0
10
-2691.56894177695
20
2747.50978449679
30
0.0
11
-2691.9003119641
21
2747.25551520917
31
0.0
  0
LINE
 8
Layer0
10
-2691.56894177695
20
2744.73850874724
30
0.0
11
-2691.18305302089
21
2744.57866839091
31
0.0
  0
LINE
 8
Layer0
10
-2675.63760278979
20
2747.25551520917
30
0.0
11
-2675.96897297695
21
2747.50978449679
31
0.0
  0
LINE
 8
Layer0
10
-2689.63757478979
20
2747.25551520917
30
0.0
11
-2689.96894497695
21
2747.50978449679
31
0.0
  0
LINE
 8
Layer0
10
-2690.354833733
20
2744.57866839091
30
0.0
11
-2689.96894497695
21
2744.73850874724
31
0.0
  0
LINE
 8
Layer0
10
-2691.18305302089
20
2744.57866839091
30
0.0
11
-2690.76894337695
21
2744.52414982201
31
0.0
  0
LINE
 8
Layer0
10
-2678.36896817695
20
2746.12414662201
30
0.0
11
-2678.31444960805
21
2745.71003697807
31
0.0
  0
LINE
 8
Layer0
10
-2676.76897137695
20
2744.52414982201
30
0.0
11
-2676.354861733
21
2744.57866839091
31
0.0
  0
LINE
 8
Layer0
10
-2675.38333350217
20
2746.92414502201
30
0.0
11
-2675.63760278979
21
2747.25551520917
31
0.0
  0
LINE
 8
Layer0
10
-2690.76894337695
20
2744.52414982201
30
0.0
11
-2690.354833733
21
2744.57866839091
31
0.0
  0
LINE
 8
Layer0
10
-2787.02777075805
20
2580.3504273
30
0.0
11
-2787.29793187615
21
2580.70250812385
31
0.0
  0
LINE
 8
Layer0
10
-2675.22349314585
20
2746.53825626596
30
0.0
11
-2675.38333350217
21
2746.92414502201
31
0.0
  0
LINE
 8
Layer0
10
-2677.18308102089
20
2744.57866839091
30
0.0
11
-2676.76897137695
21
2744.52414982201
31
0.0
  0
LINE
 8
Layer0
10
-2675.16897457695
20
2746.12414662201
30
0.0
11
-2675.22349314585
21
2746.53825626596
31
0.0
  0
LINE
 8
Layer0
10
-2677.56896977695
20
2744.73850874724
30
0.0
11
-2677.18308102089
21
2744.57866839091
31
0.0
  0
LINE
 8
Layer0
10
-2689.22346514585
20
2745.71003697807
30
0.0
11
-2689.16894657695
21
2746.12414662201
31
0.0
  0
LINE
 8
Layer0
10
-2677.9003399641
20
2744.99277803486
30
0.0
11
-2677.56896977695
21
2744.73850874724
31
0.0
  0
LINE
 8
Layer0
10
-2689.38330550217
20
2745.32414822201
30
0.0
11
-2689.22346514585
21
2745.71003697807
31
0.0
  0
LINE
 8
Layer0
10
-2678.15460925172
20
2745.32414822201
30
0.0
11
-2677.9003399641
21
2744.99277803486
31
0.0
  0
LINE
 8
Layer0
10
-2689.63757478979
20
2744.99277803486
30
0.0
11
-2689.38330550217
21
2745.32414822201
31
0.0
  0
LINE
 8
Layer0
10
-2678.31444960805
20
2745.71003697807
30
0.0
11
-2678.15460925172
21
2745.32414822201
31
0.0
  0
LINE
 8
Layer0
10
-2689.96894497695
20
2744.73850874724
30
0.0
11
-2689.63757478979
21
2744.99277803486
31
0.0
  0
LINE
 8
Layer0
10
-2676.354861733
20
2744.57866839091
30
0.0
11
-2675.96897297695
21
2744.73850874724
31
0.0
  0
LINE
 8
Layer0
10
-2786.8000144
20
2579.500429
30
0.0
11
-2786.85794037946
21
2579.94042049669
31
0.0
  0
LINE
 8
Layer0
10
-2678.31444960805
20
2746.53825626596
30
0.0
11
-2678.36896817695
21
2746.12414662201
31
0.0
  0
LINE
 8
Layer0
10
-2678.15460925172
20
2746.92414502201
30
0.0
11
-2678.31444960805
21
2746.53825626596
31
0.0
  0
LINE
 8
Layer0
10
-2636.51058640566
20
2679.00022
30
0.0
11
-2631.7503245
21
2679.00022
31
0.0
  0
LINE
 8
Layer0
10
-2675.96897297695
20
2744.73850874724
30
0.0
11
-2675.63760278979
21
2744.99277803486
31
0.0
  0
LINE
 8
Layer0
10
-2677.9003399641
20
2747.25551520917
30
0.0
11
-2678.15460925172
21
2746.92414502201
31
0.0
  0
LINE
 8
Layer0
10
-2675.96897297695
20
2747.50978449679
30
0.0
11
-2676.354861733
21
2747.66962485311
31
0.0
  0
LINE
 8
Layer0
10
-2675.63760278979
20
2744.99277803486
30
0.0
11
-2675.38333350217
21
2745.32414822201
31
0.0
  0
LINE
 8
Layer0
10
-2675.38333350217
20
2745.32414822201
30
0.0
11
-2675.22349314585
21
2745.71003697807
31
0.0
  0
LINE
 8
Layer0
10
-2675.22349314585
20
2745.71003697807
30
0.0
11
-2675.16897457695
21
2746.12414662201
31
0.0
  0
LINE
 8
Layer0
10
-2677.56896977695
20
2747.50978449679
30
0.0
11
-2677.9003399641
21
2747.25551520917
31
0.0
  0
LINE
 8
Layer0
10
-2676.354861733
20
2747.66962485311
30
0.0
11
-2676.76897137695
21
2747.72414342201
31
0.0
  0
LINE
 8
Layer0
10
-2676.76897137695
20
2747.72414342201
30
0.0
11
-2677.18308102089
21
2747.66962485311
31
0.0
  0
LINE
 8
Layer0
10
-2677.18308102089
20
2747.66962485311
30
0.0
11
-2677.56896977695
21
2747.50978449679
31
0.0
  0
LINE
 8
Layer0
10
-2678.13160258716
20
2712.86879141284
30
0.0
11
-2677.8002324
21
2712.61452212523
31
0.0
  0
LINE
 8
Layer0
10
-2677.8002324
20
2712.61452212523
30
0.0
11
-2677.41434364394
21
2712.4546817689
31
0.0
  0
LINE
 8
Layer0
10
-2677.41434364394
20
2712.4546817689
30
0.0
11
-2677.000234
21
2712.4001632
31
0.0
  0
LINE
 8
Layer0
10
-2677.000234
20
2712.4001632
30
0.0
11
-2676.58612435606
21
2712.4546817689
31
0.0
  0
LINE
 8
Layer0
10
-2676.58612435606
20
2712.4546817689
30
0.0
11
-2676.2002356
21
2712.61452212523
31
0.0
  0
LINE
 8
Layer0
10
-2676.2002356
20
2712.61452212523
30
0.0
11
-2675.86886541284
21
2712.86879141284
31
0.0
  0
LINE
 8
Layer0
10
-2675.86886541284
20
2712.86879141284
30
0.0
11
-2675.61459612523
21
2713.2001616
31
0.0
  0
LINE
 8
Layer0
10
-2675.61459612523
20
2713.2001616
30
0.0
11
-2675.4547557689
21
2713.58605035606
31
0.0
  0
LINE
 8
Layer0
10
-2675.4547557689
20
2713.58605035606
30
0.0
11
-2675.4002372
21
2714.00016
31
0.0
  0
LINE
 8
Layer0
10
-2689.4002092
20
2654.00028
30
0.0
11
-2689.4547277689
21
2654.41438964394
31
0.0
  0
LINE
 8
Layer0
10
-2689.4547277689
20
2654.41438964394
30
0.0
11
-2689.61456812523
21
2654.8002784
31
0.0
  0
LINE
 8
Layer0
10
-2689.61456812523
20
2654.8002784
30
0.0
11
-2689.86883741284
21
2655.13164858716
31
0.0
  0
LINE
 8
Layer0
10
-2689.86883741284
20
2655.13164858716
30
0.0
11
-2690.2002076
21
2655.38591787477
31
0.0
  0
LINE
 8
Layer0
10
-2690.2002076
20
2655.38591787477
30
0.0
11
-2690.58609635606
21
2655.5457582311
31
0.0
  0
LINE
 8
Layer0
10
-2690.58609635606
20
2655.5457582311
30
0.0
11
-2691.000206
21
2655.6002768
31
0.0
  0
LINE
 8
Layer0
10
-2691.000206
20
2655.6002768
30
0.0
11
-2691.41431564394
21
2655.5457582311
31
0.0
  0
LINE
 8
Layer0
10
-2691.41431564394
20
2655.5457582311
30
0.0
11
-2691.8002044
21
2655.38591787477
31
0.0
  0
LINE
 8
Layer0
10
-2691.8002044
20
2655.38591787477
30
0.0
11
-2692.13157458716
21
2655.13164858716
31
0.0
  0
LINE
 8
Layer0
10
-2692.13157458716
20
2655.13164858716
30
0.0
11
-2692.38584387477
21
2654.8002784
31
0.0
  0
LINE
 8
Layer0
10
-2692.38584387477
20
2654.8002784
30
0.0
11
-2692.5456842311
21
2654.41438964394
31
0.0
  0
LINE
 8
Layer0
10
-2692.5456842311
20
2654.41438964394
30
0.0
11
-2692.6002028
21
2654.00028
31
0.0
  0
LINE
 8
Layer0
10
-2692.6002028
20
2654.00028
30
0.0
11
-2692.5456842311
21
2653.58617035606
31
0.0
  0
LINE
 8
Layer0
10
-2692.5456842311
20
2653.58617035606
30
0.0
11
-2692.38584387477
21
2653.2002816
31
0.0
  0
LINE
 8
Layer0
10
-2692.38584387477
20
2653.2002816
30
0.0
11
-2692.13157458716
21
2652.86891141284
31
0.0
  0
LINE
 8
Layer0
10
-2692.13157458716
20
2652.86891141284
30
0.0
11
-2691.8002044
21
2652.61464212523
31
0.0
  0
LINE
 8
Layer0
10
-2691.8002044
20
2652.61464212523
30
0.0
11
-2691.41431564394
21
2652.4548017689
31
0.0
  0
LINE
 8
Layer0
10
-2691.41431564394
20
2652.4548017689
30
0.0
11
-2691.000206
21
2652.4002832
31
0.0
  0
LINE
 8
Layer0
10
-2691.000206
20
2652.4002832
30
0.0
11
-2690.58609635606
21
2652.4548017689
31
0.0
  0
LINE
 8
Layer0
10
-2690.58609635606
20
2652.4548017689
30
0.0
11
-2690.2002076
21
2652.61464212523
31
0.0
  0
LINE
 8
Layer0
10
-2690.2002076
20
2652.61464212523
30
0.0
11
-2689.86883741284
21
2652.86891141284
31
0.0
  0
LINE
 8
Layer0
10
-2689.86883741284
20
2652.86891141284
30
0.0
11
-2689.61456812523
21
2653.2002816
31
0.0
  0
LINE
 8
Layer0
10
-2689.61456812523
20
2653.2002816
30
0.0
11
-2689.4547277689
21
2653.58617035606
31
0.0
  0
LINE
 8
Layer0
10
-2689.4547277689
20
2653.58617035606
30
0.0
11
-2689.4002092
21
2654.00028
31
0.0
  0
LINE
 8
Layer0
10
-2675.4002372
20
2654.00028
30
0.0
11
-2675.4547557689
21
2654.41438964394
31
0.0
  0
LINE
 8
Layer0
10
-2675.4547557689
20
2654.41438964394
30
0.0
11
-2675.61459612523
21
2654.8002784
31
0.0
  0
LINE
 8
Layer0
10
-2675.61459612523
20
2654.8002784
30
0.0
11
-2675.86886541284
21
2655.13164858716
31
0.0
  0
LINE
 8
Layer0
10
-2675.86886541284
20
2655.13164858716
30
0.0
11
-2676.2002356
21
2655.38591787477
31
0.0
  0
LINE
 8
Layer0
10
-2676.2002356
20
2655.38591787477
30
0.0
11
-2676.58612435606
21
2655.5457582311
31
0.0
  0
LINE
 8
Layer0
10
-2676.58612435606
20
2655.5457582311
30
0.0
11
-2677.000234
21
2655.6002768
31
0.0
  0
LINE
 8
Layer0
10
-2677.000234
20
2655.6002768
30
0.0
11
-2677.41434364394
21
2655.5457582311
31
0.0
  0
LINE
 8
Layer0
10
-2677.41434364394
20
2655.5457582311
30
0.0
11
-2677.8002324
21
2655.38591787477
31
0.0
  0
LINE
 8
Layer0
10
-2677.8002324
20
2655.38591787477
30
0.0
11
-2678.13160258716
21
2655.13164858716
31
0.0
  0
LINE
 8
Layer0
10
-2678.13160258716
20
2655.13164858716
30
0.0
11
-2678.38587187477
21
2654.8002784
31
0.0
  0
LINE
 8
Layer0
10
-2678.38587187477
20
2654.8002784
30
0.0
11
-2678.5457122311
21
2654.41438964394
31
0.0
  0
LINE
 8
Layer0
10
-2678.5457122311
20
2654.41438964394
30
0.0
11
-2678.6002308
21
2654.00028
31
0.0
  0
LINE
 8
Layer0
10
-2678.6002308
20
2654.00028
30
0.0
11
-2678.5457122311
21
2653.58617035606
31
0.0
  0
LINE
 8
Layer0
10
-2678.5457122311
20
2653.58617035606
30
0.0
11
-2678.38587187477
21
2653.2002816
31
0.0
  0
LINE
 8
Layer0
10
-2678.38587187477
20
2653.2002816
30
0.0
11
-2678.13160258716
21
2652.86891141284
31
0.0
  0
LINE
 8
Layer0
10
-2678.13160258716
20
2652.86891141284
30
0.0
11
-2677.8002324
21
2652.61464212523
31
0.0
  0
LINE
 8
Layer0
10
-2677.8002324
20
2652.61464212523
30
0.0
11
-2677.41434364394
21
2652.4548017689
31
0.0
  0
LINE
 8
Layer0
10
-2677.41434364394
20
2652.4548017689
30
0.0
11
-2677.000234
21
2652.4002832
31
0.0
  0
LINE
 8
Layer0
10
-2677.000234
20
2652.4002832
30
0.0
11
-2676.58612435606
21
2652.4548017689
31
0.0
  0
LINE
 8
Layer0
10
-2676.58612435606
20
2652.4548017689
30
0.0
11
-2676.2002356
21
2652.61464212523
31
0.0
  0
LINE
 8
Layer0
10
-2676.2002356
20
2652.61464212523
30
0.0
11
-2675.86886541284
21
2652.86891141284
31
0.0
  0
LINE
 8
Layer0
10
-2675.86886541284
20
2652.86891141284
30
0.0
11
-2675.61459612523
21
2653.2002816
31
0.0
  0
LINE
 8
Layer0
10
-2675.61459612523
20
2653.2002816
30
0.0
11
-2675.4547557689
21
2653.58617035606
31
0.0
  0
LINE
 8
Layer0
10
-2675.4547557689
20
2653.58617035606
30
0.0
11
-2675.4002372
21
2654.00028
31
0.0
  0
LINE
 8
Layer0
10
-2692.6002028
20
2706.000176
30
0.0
11
-2692.6002028
21
2701.000186
31
0.0
  0
LINE
 8
Layer0
10
-2692.6002028
20
2701.000186
30
0.0
11
-2675.4002372
21
2701.000186
31
0.0
  0
LINE
 8
Layer0
10
-2675.4002372
20
2701.000186
30
0.0
11
-2675.4002372
21
2706.000176
31
0.0
  0
LINE
 8
Layer0
10
-2675.4002372
20
2706.000176
30
0.0
11
-2692.6002028
21
2706.000176
31
0.0
  0
LINE
 8
Layer0
10
-2692.6002028
20
2662.000264
30
0.0
11
-2692.6002028
21
2667.000254
31
0.0
  0
LINE
 8
Layer0
10
-2692.6002028
20
2667.000254
30
0.0
11
-2675.4002372
21
2667.000254
31
0.0
  0
LINE
 8
Layer0
10
-2675.4002372
20
2667.000254
30
0.0
11
-2675.4002372
21
2662.000264
31
0.0
  0
LINE
 8
Layer0
10
-2675.4002372
20
2662.000264
30
0.0
11
-2692.6002028
21
2662.000264
31
0.0
  0
LINE
 8
Layer0
10
-2689.36625144549
20
2729.02895929624
30
0.0
11
-2689.42077001439
21
2729.44306894018
31
0.0
  0
LINE
 8
Layer0
10
-2689.42077001439
20
2729.44306894018
30
0.0
11
-2689.58061037072
21
2729.82895769624
31
0.0
  0
LINE
 8
Layer0
10
-2689.58061037072
20
2729.82895769624
30
0.0
11
-2689.83487965834
21
2730.16032788339
31
0.0
  0
LINE
 8
Layer0
10
-2590.44929584166
20
2634.3885477912
30
0.0
11
-2590.500407
21
2634.00032
31
0.0
  0
LINE
 8
Layer0
10
-2590.500407
20
2634.00032
30
0.0
11
-2590.44929584166
21
2633.6120922088
31
0.0
  0
LINE
 8
Layer0
10
-2590.44929584166
20
2633.6120922088
30
0.0
11
-2590.2994455076
21
2633.2503215
31
0.0
  0
LINE
 8
Layer0
10
-2590.2994455076
20
2633.2503215
30
0.0
11
-2590.06106805046
21
2632.93966194954
31
0.0
  0
LINE
 8
Layer0
10
-2590.06106805046
20
2632.93966194954
30
0.0
11
-2589.7504085
21
2632.7012844924
31
0.0
  0
LINE
 8
Layer0
10
-2589.7504085
20
2632.7012844924
30
0.0
11
-2589.3886377912
21
2632.55143415834
31
0.0
  0
LINE
 8
Layer0
10
-2589.3886377912
20
2632.55143415834
30
0.0
11
-2589.00041
21
2632.500323
31
0.0
  0
LINE
 8
Layer0
10
-2589.00041
20
2632.500323
30
0.0
11
-2588.6121822088
21
2632.55143415834
31
0.0
  0
LINE
 8
Layer0
10
-2588.6121822088
20
2632.55143415834
30
0.0
11
-2588.2504115
21
2632.7012844924
31
0.0
  0
LINE
 8
Layer0
10
-2588.2504115
20
2632.7012844924
30
0.0
11
-2587.93975194954
21
2632.93966194954
31
0.0
  0
LINE
 8
Layer0
10
-2587.93975194954
20
2632.93966194954
30
0.0
11
-2587.7013744924
21
2633.2503215
31
0.0
  0
LINE
 8
Layer0
10
-2587.7013744924
20
2633.2503215
30
0.0
11
-2587.55152415834
21
2633.6120922088
31
0.0
  0
LINE
 8
Layer0
10
-2587.55152415834
20
2633.6120922088
30
0.0
11
-2587.500413
21
2634.00032
31
0.0
  0
LINE
 8
Layer0
10
-2584.7504185
20
2743.000102
30
0.0
11
-2584.82708523752
21
2743.58244368679
31
0.0
  0
LINE
 8
Layer0
10
-2584.82708523752
20
2743.58244368679
30
0.0
11
-2585.0518607386
21
2744.12509975
31
0.0
  0
LINE
 8
Layer0
10
-2585.0518607386
20
2744.12509975
30
0.0
11
-2585.40942692431
21
2744.59108907569
31
0.0
  0
LINE
 8
Layer0
10
-2585.40942692431
20
2744.59108907569
30
0.0
11
-2585.87541625
21
2744.9486552614
31
0.0
  0
LINE
 8
Layer0
10
-2585.87541625
20
2744.9486552614
30
0.0
11
-2586.4180723132
21
2745.17343076248
31
0.0
  0
LINE
 8
Layer0
10
-2586.4180723132
20
2745.17343076248
30
0.0
11
-2587.000414
21
2745.2500975
31
0.0
  0
LINE
 8
Layer0
10
-2587.000414
20
2745.2500975
30
0.0
11
-2587.58275568679
21
2745.17343076248
31
0.0
  0
LINE
 8
Layer0
10
-2587.58275568679
20
2745.17343076248
30
0.0
11
-2588.12541175
21
2744.9486552614
31
0.0
  0
LINE
 8
Layer0
10
-2588.12541175
20
2744.9486552614
30
0.0
11
-2588.59140107569
21
2744.59108907569
31
0.0
  0
LINE
 8
Layer0
10
-2588.59140107569
20
2744.59108907569
30
0.0
11
-2588.9489672614
21
2744.12509975
31
0.0
  0
LINE
 8
Layer0
10
-2588.9489672614
20
2744.12509975
30
0.0
11
-2589.17374276248
21
2743.58244368679
31
0.0
  0
LINE
 8
Layer0
10
-2589.17374276248
20
2743.58244368679
30
0.0
11
-2589.2504095
21
2743.000102
31
0.0
  0
LINE
 8
Layer0
10
-2589.2504095
20
2743.000102
30
0.0
11
-2589.17374276248
21
2742.4177603132
31
0.0
  0
LINE
 8
Layer0
10
-2589.17374276248
20
2742.4177603132
30
0.0
11
-2588.9489672614
21
2741.87510425
31
0.0
  0
LINE
 8
Layer0
10
-2588.9489672614
20
2741.87510425
30
0.0
11
-2588.59140107569
21
2741.40911492431
31
0.0
  0
LINE
 8
Layer0
10
-2588.59140107569
20
2741.40911492431
30
0.0
11
-2588.12541175
21
2741.0515487386
31
0.0
  0
LINE
 8
Layer0
10
-2588.12541175
20
2741.0515487386
30
0.0
11
-2587.58275568679
21
2740.82677323752
31
0.0
  0
LINE
 8
Layer0
10
-2587.58275568679
20
2740.82677323752
30
0.0
11
-2587.000414
21
2740.7501065
31
0.0
  0
LINE
 8
Layer0
10
-2587.000414
20
2740.7501065
30
0.0
11
-2586.4180723132
21
2740.82677323752
31
0.0
  0
LINE
 8
Layer0
10
-2586.4180723132
20
2740.82677323752
30
0.0
11
-2585.87541625
21
2741.0515487386
31
0.0
  0
LINE
 8
Layer0
10
-2585.87541625
20
2741.0515487386
30
0.0
11
-2585.40942692431
21
2741.40911492431
31
0.0
  0
LINE
 8
Layer0
10
-2585.40942692431
20
2741.40911492431
30
0.0
11
-2585.0518607386
21
2741.87510425
31
0.0
  0
LINE
 8
Layer0
10
-2585.0518607386
20
2741.87510425
30
0.0
11
-2584.82708523752
21
2742.4177603132
31
0.0
  0
LINE
 8
Layer0
10
-2584.82708523752
20
2742.4177603132
30
0.0
11
-2584.7504185
21
2743.000102
31
0.0
  0
LINE
 8
Layer0
10
-2584.7504185
20
2725.000138
30
0.0
11
-2584.82708523752
21
2725.58247968679
31
0.0
  0
LINE
 8
Layer0
10
-2584.82708523752
20
2725.58247968679
30
0.0
11
-2585.0518607386
21
2726.12513575
31
0.0
  0
LINE
 8
Layer0
10
-2585.0518607386
20
2726.12513575
30
0.0
11
-2585.40942692431
21
2726.59112507569
31
0.0
  0
LINE
 8
Layer0
10
-2585.40942692431
20
2726.59112507569
30
0.0
11
-2585.87541625
21
2726.9486912614
31
0.0
  0
LINE
 8
Layer0
10
-2585.87541625
20
2726.9486912614
30
0.0
11
-2586.4180723132
21
2727.17346676248
31
0.0
  0
LINE
 8
Layer0
10
-2586.4180723132
20
2727.17346676248
30
0.0
11
-2587.000414
21
2727.2501335
31
0.0
  0
LINE
 8
Layer0
10
-2587.000414
20
2727.2501335
30
0.0
11
-2587.58275568679
21
2727.17346676248
31
0.0
  0
LINE
 8
Layer0
10
-2587.58275568679
20
2727.17346676248
30
0.0
11
-2588.12541175
21
2726.9486912614
31
0.0
  0
LINE
 8
Layer0
10
-2588.12541175
20
2726.9486912614
30
0.0
11
-2588.59140107569
21
2726.59112507569
31
0.0
  0
LINE
 8
Layer0
10
-2588.59140107569
20
2726.59112507569
30
0.0
11
-2588.9489672614
21
2726.12513575
31
0.0
  0
LINE
 8
Layer0
10
-2588.9489672614
20
2726.12513575
30
0.0
11
-2589.17374276248
21
2725.58247968679
31
0.0
  0
LINE
 8
Layer0
10
-2589.17374276248
20
2725.58247968679
30
0.0
11
-2589.2504095
21
2725.000138
31
0.0
  0
LINE
 8
Layer0
10
-2589.2504095
20
2725.000138
30
0.0
11
-2589.17374276248
21
2724.4177963132
31
0.0
  0
LINE
 8
Layer0
10
-2589.17374276248
20
2724.4177963132
30
0.0
11
-2588.9489672614
21
2723.87514025
31
0.0
  0
LINE
 8
Layer0
10
-2588.9489672614
20
2723.87514025
30
0.0
11
-2588.59140107569
21
2723.40915092431
31
0.0
  0
LINE
 8
Layer0
10
-2588.59140107569
20
2723.40915092431
30
0.0
11
-2588.12541175
21
2723.0515847386
31
0.0
  0
LINE
 8
Layer0
10
-2588.12541175
20
2723.0515847386
30
0.0
11
-2587.58275568679
21
2722.82680923752
31
0.0
  0
LINE
 8
Layer0
10
-2587.58275568679
20
2722.82680923752
30
0.0
11
-2587.000414
21
2722.7501425
31
0.0
  0
LINE
 8
Layer0
10
-2587.000414
20
2722.7501425
30
0.0
11
-2586.4180723132
21
2722.82680923752
31
0.0
  0
LINE
 8
Layer0
10
-2586.4180723132
20
2722.82680923752
30
0.0
11
-2585.87541625
21
2723.0515847386
31
0.0
  0
LINE
 8
Layer0
10
-2585.87541625
20
2723.0515847386
30
0.0
11
-2585.40942692431
21
2723.40915092431
31
0.0
  0
LINE
 8
Layer0
10
-2585.40942692431
20
2723.40915092431
30
0.0
11
-2585.0518607386
21
2723.87514025
31
0.0
  0
LINE
 8
Layer0
10
-2585.0518607386
20
2723.87514025
30
0.0
11
-2584.82708523752
21
2724.4177963132
31
0.0
  0
LINE
 8
Layer0
10
-2584.82708523752
20
2724.4177963132
30
0.0
11
-2584.7504185
21
2725.000138
31
0.0
  0
LINE
 8
Layer0
10
-2608.7503705
20
2725.000138
30
0.0
11
-2608.82703723752
21
2725.58247968679
31
0.0
  0
LINE
 8
Layer0
10
-2608.82703723752
20
2725.58247968679
30
0.0
11
-2609.0518127386
21
2726.12513575
31
0.0
  0
LINE
 8
Layer0
10
-2609.0518127386
20
2726.12513575
30
0.0
11
-2609.40937892431
21
2726.59112507569
31
0.0
  0
LINE
 8
Layer0
10
-2609.40937892431
20
2726.59112507569
30
0.0
11
-2609.87536825
21
2726.9486912614
31
0.0
  0
LINE
 8
Layer0
10
-2609.87536825
20
2726.9486912614
30
0.0
11
-2610.4180243132
21
2727.17346676248
31
0.0
  0
LINE
 8
Layer0
10
-2610.4180243132
20
2727.17346676248
30
0.0
11
-2611.000366
21
2727.2501335
31
0.0
  0
LINE
 8
Layer0
10
-2611.000366
20
2727.2501335
30
0.0
11
-2611.58270768679
21
2727.17346676248
31
0.0
  0
LINE
 8
Layer0
10
-2611.58270768679
20
2727.17346676248
30
0.0
11
-2612.12536375
21
2726.9486912614
31
0.0
  0
LINE
 8
Layer0
10
-2612.12536375
20
2726.9486912614
30
0.0
11
-2612.59135307569
21
2726.59112507569
31
0.0
  0
LINE
 8
Layer0
10
-2612.59135307569
20
2726.59112507569
30
0.0
11
-2612.9489192614
21
2726.12513575
31
0.0
  0
LINE
 8
Layer0
10
-2612.9489192614
20
2726.12513575
30
0.0
11
-2613.17369476248
21
2725.58247968679
31
0.0
  0
LINE
 8
Layer0
10
-2613.17369476248
20
2725.58247968679
30
0.0
11
-2613.2503615
21
2725.000138
31
0.0
  0
LINE
 8
Layer0
10
-2613.2503615
20
2725.000138
30
0.0
11
-2613.17369476248
21
2724.4177963132
31
0.0
  0
LINE
 8
Layer0
10
-2613.17369476248
20
2724.4177963132
30
0.0
11
-2612.9489192614
21
2723.87514025
31
0.0
  0
LINE
 8
Layer0
10
-2612.9489192614
20
2723.87514025
30
0.0
11
-2612.59135307569
21
2723.40915092431
31
0.0
  0
LINE
 8
Layer0
10
-2612.59135307569
20
2723.40915092431
30
0.0
11
-2612.12536375
21
2723.0515847386
31
0.0
  0
LINE
 8
Layer0
10
-2612.12536375
20
2723.0515847386
30
0.0
11
-2611.58270768679
21
2722.82680923752
31
0.0
  0
LINE
 8
Layer0
10
-2611.58270768679
20
2722.82680923752
30
0.0
11
-2611.000366
21
2722.7501425
31
0.0
  0
LINE
 8
Layer0
10
-2611.000366
20
2722.7501425
30
0.0
11
-2610.4180243132
21
2722.82680923752
31
0.0
  0
LINE
 8
Layer0
10
-2610.4180243132
20
2722.82680923752
30
0.0
11
-2609.87536825
21
2723.0515847386
31
0.0
  0
LINE
 8
Layer0
10
-2609.87536825
20
2723.0515847386
30
0.0
11
-2609.40937892431
21
2723.40915092431
31
0.0
  0
LINE
 8
Layer0
10
-2609.40937892431
20
2723.40915092431
30
0.0
11
-2609.0518127386
21
2723.87514025
31
0.0
  0
LINE
 8
Layer0
10
-2609.0518127386
20
2723.87514025
30
0.0
11
-2608.82703723752
21
2724.4177963132
31
0.0
  0
LINE
 8
Layer0
10
-2608.82703723752
20
2724.4177963132
30
0.0
11
-2608.7503705
21
2725.000138
31
0.0
  0
LINE
 8
Layer0
10
-2608.7503705
20
2743.000102
30
0.0
11
-2608.82703723752
21
2743.58244368679
31
0.0
  0
LINE
 8
Layer0
10
-2608.82703723752
20
2743.58244368679
30
0.0
11
-2609.0518127386
21
2744.12509975
31
0.0
  0
LINE
 8
Layer0
10
-2609.0518127386
20
2744.12509975
30
0.0
11
-2609.40937892431
21
2744.59108907569
31
0.0
  0
LINE
 8
Layer0
10
-2609.40937892431
20
2744.59108907569
30
0.0
11
-2609.87536825
21
2744.9486552614
31
0.0
  0
LINE
 8
Layer0
10
-2609.87536825
20
2744.9486552614
30
0.0
11
-2610.4180243132
21
2745.17343076248
31
0.0
  0
LINE
 8
Layer0
10
-2610.4180243132
20
2745.17343076248
30
0.0
11
-2611.000366
21
2745.2500975
31
0.0
  0
LINE
 8
Layer0
10
-2611.000366
20
2745.2500975
30
0.0
11
-2611.58270768679
21
2745.17343076248
31
0.0
  0
LINE
 8
Layer0
10
-2611.58270768679
20
2745.17343076248
30
0.0
11
-2612.12536375
21
2744.9486552614
31
0.0
  0
LINE
 8
Layer0
10
-2612.12536375
20
2744.9486552614
30
0.0
11
-2612.59135307569
21
2744.59108907569
31
0.0
  0
LINE
 8
Layer0
10
-2612.59135307569
20
2744.59108907569
30
0.0
11
-2612.9489192614
21
2744.12509975
31
0.0
  0
LINE
 8
Layer0
10
-2612.9489192614
20
2744.12509975
30
0.0
11
-2613.17369476248
21
2743.58244368679
31
0.0
  0
LINE
 8
Layer0
10
-2613.17369476248
20
2743.58244368679
30
0.0
11
-2613.2503615
21
2743.000102
31
0.0
  0
LINE
 8
Layer0
10
-2613.2503615
20
2743.000102
30
0.0
11
-2613.17369476248
21
2742.4177603132
31
0.0
  0
LINE
 8
Layer0
10
-2613.17369476248
20
2742.4177603132
30
0.0
11
-2612.9489192614
21
2741.87510425
31
0.0
  0
LINE
 8
Layer0
10
-2612.9489192614
20
2741.87510425
30
0.0
11
-2612.59135307569
21
2741.40911492431
31
0.0
  0
LINE
 8
Layer0
10
-2612.59135307569
20
2741.40911492431
30
0.0
11
-2612.12536375
21
2741.0515487386
31
0.0
  0
LINE
 8
Layer0
10
-2612.12536375
20
2741.0515487386
30
0.0
11
-2611.58270768679
21
2740.82677323752
31
0.0
  0
LINE
 8
Layer0
10
-2611.58270768679
20
2740.82677323752
30
0.0
11
-2611.000366
21
2740.7501065
31
0.0
  0
LINE
 8
Layer0
10
-2611.000366
20
2740.7501065
30
0.0
11
-2610.4180243132
21
2740.82677323752
31
0.0
  0
LINE
 8
Layer0
10
-2610.4180243132
20
2740.82677323752
30
0.0
11
-2609.87536825
21
2741.0515487386
31
0.0
  0
LINE
 8
Layer0
10
-2609.87536825
20
2741.0515487386
30
0.0
11
-2609.40937892431
21
2741.40911492431
31
0.0
  0
LINE
 8
Layer0
10
-2609.40937892431
20
2741.40911492431
30
0.0
11
-2609.0518127386
21
2741.87510425
31
0.0
  0
LINE
 8
Layer0
10
-2609.0518127386
20
2741.87510425
30
0.0
11
-2608.82703723752
21
2742.4177603132
31
0.0
  0
LINE
 8
Layer0
10
-2608.82703723752
20
2742.4177603132
30
0.0
11
-2608.7503705
21
2743.000102
31
0.0
  0
LINE
 8
Layer0
10
-2584.7504185
20
2643.000302
30
0.0
11
-2584.82708523752
21
2643.58264368679
31
0.0
  0
LINE
 8
Layer0
10
-2584.82708523752
20
2643.58264368679
30
0.0
11
-2585.0518607386
21
2644.12529975
31
0.0
  0
LINE
 8
Layer0
10
-2585.0518607386
20
2644.12529975
30
0.0
11
-2585.40942692431
21
2644.59128907569
31
0.0
  0
LINE
 8
Layer0
10
-2585.40942692431
20
2644.59128907569
30
0.0
11
-2585.87541625
21
2644.9488552614
31
0.0
  0
LINE
 8
Layer0
10
-2585.87541625
20
2644.9488552614
30
0.0
11
-2586.4180723132
21
2645.17363076248
31
0.0
  0
LINE
 8
Layer0
10
-2586.4180723132
20
2645.17363076248
30
0.0
11
-2587.000414
21
2645.2502975
31
0.0
  0
LINE
 8
Layer0
10
-2587.000414
20
2645.2502975
30
0.0
11
-2587.58275568679
21
2645.17363076248
31
0.0
  0
LINE
 8
Layer0
10
-2587.58275568679
20
2645.17363076248
30
0.0
11
-2588.12541175
21
2644.9488552614
31
0.0
  0
LINE
 8
Layer0
10
-2588.12541175
20
2644.9488552614
30
0.0
11
-2588.59140107569
21
2644.59128907569
31
0.0
  0
LINE
 8
Layer0
10
-2588.59140107569
20
2644.59128907569
30
0.0
11
-2588.9489672614
21
2644.12529975
31
0.0
  0
LINE
 8
Layer0
10
-2588.9489672614
20
2644.12529975
30
0.0
11
-2589.17374276248
21
2643.58264368679
31
0.0
  0
LINE
 8
Layer0
10
-2589.17374276248
20
2643.58264368679
30
0.0
11
-2589.2504095
21
2643.000302
31
0.0
  0
LINE
 8
Layer0
10
-2589.2504095
20
2643.000302
30
0.0
11
-2589.17374276248
21
2642.4179603132
31
0.0
  0
LINE
 8
Layer0
10
-2589.17374276248
20
2642.4179603132
30
0.0
11
-2588.9489672614
21
2641.87530425
31
0.0
  0
LINE
 8
Layer0
10
-2588.9489672614
20
2641.87530425
30
0.0
11
-2588.59140107569
21
2641.40931492431
31
0.0
  0
LINE
 8
Layer0
10
-2588.59140107569
20
2641.40931492431
30
0.0
11
-2588.12541175
21
2641.0517487386
31
0.0
  0
LINE
 8
Layer0
10
-2588.12541175
20
2641.0517487386
30
0.0
11
-2587.58275568679
21
2640.82697323752
31
0.0
  0
LINE
 8
Layer0
10
-2587.58275568679
20
2640.82697323752
30
0.0
11
-2587.000414
21
2640.7503065
31
0.0
  0
LINE
 8
Layer0
10
-2587.000414
20
2640.7503065
30
0.0
11
-2586.4180723132
21
2640.82697323752
31
0.0
  0
LINE
 8
Layer0
10
-2586.4180723132
20
2640.82697323752
30
0.0
11
-2585.87541625
21
2641.0517487386
31
0.0
  0
LINE
 8
Layer0
10
-2585.87541625
20
2641.0517487386
30
0.0
11
-2585.40942692431
21
2641.40931492431
31
0.0
  0
LINE
 8
Layer0
10
-2585.40942692431
20
2641.40931492431
30
0.0
11
-2585.0518607386
21
2641.87530425
31
0.0
  0
LINE
 8
Layer0
10
-2585.0518607386
20
2641.87530425
30
0.0
11
-2584.82708523752
21
2642.4179603132
31
0.0
  0
LINE
 8
Layer0
10
-2584.82708523752
20
2642.4179603132
30
0.0
11
-2584.7504185
21
2643.000302
31
0.0
  0
LINE
 8
Layer0
10
-2584.7504185
20
2625.000338
30
0.0
11
-2584.82708523752
21
2625.58267968679
31
0.0
  0
LINE
 8
Layer0
10
-2584.82708523752
20
2625.58267968679
30
0.0
11
-2585.0518607386
21
2626.12533575
31
0.0
  0
LINE
 8
Layer0
10
-2585.0518607386
20
2626.12533575
30
0.0
11
-2585.40942692431
21
2626.59132507569
31
0.0
  0
LINE
 8
Layer0
10
-2585.40942692431
20
2626.59132507569
30
0.0
11
-2585.87541625
21
2626.9488912614
31
0.0
  0
LINE
 8
Layer0
10
-2585.87541625
20
2626.9488912614
30
0.0
11
-2586.4180723132
21
2627.17366676248
31
0.0
  0
LINE
 8
Layer0
10
-2586.4180723132
20
2627.17366676248
30
0.0
11
-2587.000414
21
2627.2503335
31
0.0
  0
LINE
 8
Layer0
10
-2587.000414
20
2627.2503335
30
0.0
11
-2587.58275568679
21
2627.17366676248
31
0.0
  0
LINE
 8
Layer0
10
-2587.58275568679
20
2627.17366676248
30
0.0
11
-2588.12541175
21
2626.9488912614
31
0.0
  0
LINE
 8
Layer0
10
-2588.12541175
20
2626.9488912614
30
0.0
11
-2588.59140107569
21
2626.59132507569
31
0.0
  0
LINE
 8
Layer0
10
-2588.59140107569
20
2626.59132507569
30
0.0
11
-2588.9489672614
21
2626.12533575
31
0.0
  0
LINE
 8
Layer0
10
-2588.9489672614
20
2626.12533575
30
0.0
11
-2589.17374276248
21
2625.58267968679
31
0.0
  0
LINE
 8
Layer0
10
-2589.17374276248
20
2625.58267968679
30
0.0
11
-2589.2504095
21
2625.000338
31
0.0
  0
LINE
 8
Layer0
10
-2589.2504095
20
2625.000338
30
0.0
11
-2589.17374276248
21
2624.4179963132
31
0.0
  0
LINE
 8
Layer0
10
-2589.17374276248
20
2624.4179963132
30
0.0
11
-2588.9489672614
21
2623.87534025
31
0.0
  0
LINE
 8
Layer0
10
-2588.9489672614
20
2623.87534025
30
0.0
11
-2588.59140107569
21
2623.40935092431
31
0.0
  0
LINE
 8
Layer0
10
-2588.59140107569
20
2623.40935092431
30
0.0
11
-2588.12541175
21
2623.0517847386
31
0.0
  0
LINE
 8
Layer0
10
-2588.12541175
20
2623.0517847386
30
0.0
11
-2587.58275568679
21
2622.82700923752
31
0.0
  0
LINE
 8
Layer0
10
-2587.58275568679
20
2622.82700923752
30
0.0
11
-2587.000414
21
2622.7503425
31
0.0
  0
LINE
 8
Layer0
10
-2587.000414
20
2622.7503425
30
0.0
11
-2586.4180723132
21
2622.82700923752
31
0.0
  0
LINE
 8
Layer0
10
-2586.4180723132
20
2622.82700923752
30
0.0
11
-2585.87541625
21
2623.0517847386
31
0.0
  0
LINE
 8
Layer0
10
-2585.87541625
20
2623.0517847386
30
0.0
11
-2585.40942692431
21
2623.40935092431
31
0.0
  0
LINE
 8
Layer0
10
-2585.40942692431
20
2623.40935092431
30
0.0
11
-2585.0518607386
21
2623.87534025
31
0.0
  0
LINE
 8
Layer0
10
-2585.0518607386
20
2623.87534025
30
0.0
11
-2584.82708523752
21
2624.4179963132
31
0.0
  0
LINE
 8
Layer0
10
-2584.82708523752
20
2624.4179963132
30
0.0
11
-2584.7504185
21
2625.000338
31
0.0
  0
LINE
 8
Layer0
10
-2608.7503705
20
2625.000338
30
0.0
11
-2608.82703723752
21
2625.58267968679
31
0.0
  0
LINE
 8
Layer0
10
-2608.82703723752
20
2625.58267968679
30
0.0
11
-2609.0518127386
21
2626.12533575
31
0.0
  0
LINE
 8
Layer0
10
-2609.0518127386
20
2626.12533575
30
0.0
11
-2609.40937892431
21
2626.59132507569
31
0.0
  0
LINE
 8
Layer0
10
-2609.40937892431
20
2626.59132507569
30
0.0
11
-2609.87536825
21
2626.9488912614
31
0.0
  0
LINE
 8
Layer0
10
-2609.87536825
20
2626.9488912614
30
0.0
11
-2610.4180243132
21
2627.17366676248
31
0.0
  0
LINE
 8
Layer0
10
-2610.4180243132
20
2627.17366676248
30
0.0
11
-2611.000366
21
2627.2503335
31
0.0
  0
LINE
 8
Layer0
10
-2611.000366
20
2627.2503335
30
0.0
11
-2611.58270768679
21
2627.17366676248
31
0.0
  0
LINE
 8
Layer0
10
-2611.58270768679
20
2627.17366676248
30
0.0
11
-2612.12536375
21
2626.9488912614
31
0.0
  0
LINE
 8
Layer0
10
-2612.12536375
20
2626.9488912614
30
0.0
11
-2612.59135307569
21
2626.59132507569
31
0.0
  0
LINE
 8
Layer0
10
-2612.59135307569
20
2626.59132507569
30
0.0
11
-2612.9489192614
21
2626.12533575
31
0.0
  0
LINE
 8
Layer0
10
-2612.9489192614
20
2626.12533575
30
0.0
11
-2613.17369476248
21
2625.58267968679
31
0.0
  0
LINE
 8
Layer0
10
-2613.17369476248
20
2625.58267968679
30
0.0
11
-2613.2503615
21
2625.000338
31
0.0
  0
LINE
 8
Layer0
10
-2613.2503615
20
2625.000338
30
0.0
11
-2613.17369476248
21
2624.4179963132
31
0.0
  0
LINE
 8
Layer0
10
-2613.17369476248
20
2624.4179963132
30
0.0
11
-2612.9489192614
21
2623.87534025
31
0.0
  0
LINE
 8
Layer0
10
-2612.9489192614
20
2623.87534025
30
0.0
11
-2612.59135307569
21
2623.40935092431
31
0.0
  0
LINE
 8
Layer0
10
-2612.59135307569
20
2623.40935092431
30
0.0
11
-2612.12536375
21
2623.0517847386
31
0.0
  0
LINE
 8
Layer0
10
-2612.12536375
20
2623.0517847386
30
0.0
11
-2611.58270768679
21
2622.82700923752
31
0.0
  0
LINE
 8
Layer0
10
-2611.58270768679
20
2622.82700923752
30
0.0
11
-2611.000366
21
2622.7503425
31
0.0
  0
LINE
 8
Layer0
10
-2611.000366
20
2622.7503425
30
0.0
11
-2610.4180243132
21
2622.82700923752
31
0.0
  0
LINE
 8
Layer0
10
-2610.4180243132
20
2622.82700923752
30
0.0
11
-2609.87536825
21
2623.0517847386
31
0.0
  0
LINE
 8
Layer0
10
-2609.87536825
20
2623.0517847386
30
0.0
11
-2609.40937892431
21
2623.40935092431
31
0.0
  0
LINE
 8
Layer0
10
-2609.40937892431
20
2623.40935092431
30
0.0
11
-2609.0518127386
21
2623.87534025
31
0.0
  0
LINE
 8
Layer0
10
-2609.0518127386
20
2623.87534025
30
0.0
11
-2608.82703723752
21
2624.4179963132
31
0.0
  0
LINE
 8
Layer0
10
-2608.82703723752
20
2624.4179963132
30
0.0
11
-2608.7503705
21
2625.000338
31
0.0
  0
LINE
 8
Layer0
10
-2608.7503705
20
2643.000302
30
0.0
11
-2608.82703723752
21
2643.58264368679
31
0.0
  0
LINE
 8
Layer0
10
-2608.82703723752
20
2643.58264368679
30
0.0
11
-2609.0518127386
21
2644.12529975
31
0.0
  0
LINE
 8
Layer0
10
-2609.0518127386
20
2644.12529975
30
0.0
11
-2609.40937892431
21
2644.59128907569
31
0.0
  0
LINE
 8
Layer0
10
-2609.40937892431
20
2644.59128907569
30
0.0
11
-2609.87536825
21
2644.9488552614
31
0.0
  0
LINE
 8
Layer0
10
-2609.87536825
20
2644.9488552614
30
0.0
11
-2610.4180243132
21
2645.17363076248
31
0.0
  0
LINE
 8
Layer0
10
-2610.4180243132
20
2645.17363076248
30
0.0
11
-2611.000366
21
2645.2502975
31
0.0
  0
LINE
 8
Layer0
10
-2611.000366
20
2645.2502975
30
0.0
11
-2611.58270768679
21
2645.17363076248
31
0.0
  0
LINE
 8
Layer0
10
-2611.58270768679
20
2645.17363076248
30
0.0
11
-2612.12536375
21
2644.9488552614
31
0.0
  0
LINE
 8
Layer0
10
-2612.12536375
20
2644.9488552614
30
0.0
11
-2612.59135307569
21
2644.59128907569
31
0.0
  0
LINE
 8
Layer0
10
-2612.59135307569
20
2644.59128907569
30
0.0
11
-2612.9489192614
21
2644.12529975
31
0.0
  0
LINE
 8
Layer0
10
-2612.9489192614
20
2644.12529975
30
0.0
11
-2613.17369476248
21
2643.58264368679
31
0.0
  0
LINE
 8
Layer0
10
-2613.17369476248
20
2643.58264368679
30
0.0
11
-2613.2503615
21
2643.000302
31
0.0
  0
LINE
 8
Layer0
10
-2613.2503615
20
2643.000302
30
0.0
11
-2613.17369476248
21
2642.4179603132
31
0.0
  0
LINE
 8
Layer0
10
-2613.17369476248
20
2642.4179603132
30
0.0
11
-2612.9489192614
21
2641.87530425
31
0.0
  0
LINE
 8
Layer0
10
-2612.9489192614
20
2641.87530425
30
0.0
11
-2612.59135307569
21
2641.40931492431
31
0.0
  0
LINE
 8
Layer0
10
-2612.59135307569
20
2641.40931492431
30
0.0
11
-2612.12536375
21
2641.0517487386
31
0.0
  0
LINE
 8
Layer0
10
-2612.12536375
20
2641.0517487386
30
0.0
11
-2611.58270768679
21
2640.82697323752
31
0.0
  0
LINE
 8
Layer0
10
-2611.58270768679
20
2640.82697323752
30
0.0
11
-2611.000366
21
2640.7503065
31
0.0
  0
LINE
 8
Layer0
10
-2611.000366
20
2640.7503065
30
0.0
11
-2610.4180243132
21
2640.82697323752
31
0.0
  0
LINE
 8
Layer0
10
-2610.4180243132
20
2640.82697323752
30
0.0
11
-2609.87536825
21
2641.0517487386
31
0.0
  0
LINE
 8
Layer0
10
-2609.87536825
20
2641.0517487386
30
0.0
11
-2609.40937892431
21
2641.40931492431
31
0.0
  0
LINE
 8
Layer0
10
-2609.40937892431
20
2641.40931492431
30
0.0
11
-2609.0518127386
21
2641.87530425
31
0.0
  0
LINE
 8
Layer0
10
-2609.0518127386
20
2641.87530425
30
0.0
11
-2608.82703723752
21
2642.4179603132
31
0.0
  0
LINE
 8
Layer0
10
-2608.82703723752
20
2642.4179603132
30
0.0
11
-2608.7503705
21
2643.000302
31
0.0
  0
LINE
 8
Layer0
10
-2787.0500139
20
2684.00022
30
0.0
11
-2787.10793987946
21
2684.44021149669
31
0.0
  0
LINE
 8
Layer0
10
-2787.10793987946
20
2684.44021149669
30
0.0
11
-2787.27777025805
21
2684.8502183
31
0.0
  0
LINE
 8
Layer0
10
-2787.27777025805
20
2684.8502183
30
0.0
11
-2787.54793137615
21
2685.20229912385
31
0.0
  0
LINE
 8
Layer0
10
-2787.54793137615
20
2685.20229912385
30
0.0
11
-2787.9000122
21
2685.47246024195
31
0.0
  0
LINE
 8
Layer0
10
-2787.9000122
20
2685.47246024195
30
0.0
11
-2788.31001900331
21
2685.64229062054
31
0.0
  0
LINE
 8
Layer0
10
-2788.31001900331
20
2685.64229062054
30
0.0
11
-2788.7500105
21
2685.7002166
31
0.0
  0
LINE
 8
Layer0
10
-2788.7500105
20
2685.7002166
30
0.0
11
-2789.19000199669
21
2685.64229062054
31
0.0
  0
LINE
 8
Layer0
10
-2789.19000199669
20
2685.64229062054
30
0.0
11
-2789.6000088
21
2685.47246024195
31
0.0
  0
LINE
 8
Layer0
10
-2789.6000088
20
2685.47246024195
30
0.0
11
-2789.95208962385
21
2685.20229912385
31
0.0
  0
LINE
 8
Layer0
10
-2789.95208962385
20
2685.20229912385
30
0.0
11
-2790.22225074195
21
2684.8502183
31
0.0
  0
LINE
 8
Layer0
10
-2790.22225074195
20
2684.8502183
30
0.0
11
-2790.39208112054
21
2684.44021149669
31
0.0
  0
LINE
 8
Layer0
10
-2790.39208112054
20
2684.44021149669
30
0.0
11
-2790.4500071
21
2684.00022
31
0.0
  0
LINE
 8
Layer0
10
-2790.4500071
20
2684.00022
30
0.0
11
-2790.39208112054
21
2683.56022850331
31
0.0
  0
LINE
 8
Layer0
10
-2790.39208112054
20
2683.56022850331
30
0.0
11
-2790.22225074195
21
2683.1502217
31
0.0
  0
LINE
 8
Layer0
10
-2790.22225074195
20
2683.1502217
30
0.0
11
-2789.95208962385
21
2682.79814087615
31
0.0
  0
LINE
 8
Layer0
10
-2789.95208962385
20
2682.79814087615
30
0.0
11
-2789.6000088
21
2682.52797975805
31
0.0
  0
LINE
 8
Layer0
10
-2789.6000088
20
2682.52797975805
30
0.0
11
-2789.19000199669
21
2682.35814937946
31
0.0
  0
LINE
 8
Layer0
10
-2789.19000199669
20
2682.35814937946
30
0.0
11
-2788.7500105
21
2682.3002234
31
0.0
  0
LINE
 8
Layer0
10
-2788.7500105
20
2682.3002234
30
0.0
11
-2788.31001900331
21
2682.35814937946
31
0.0
  0
LINE
 8
Layer0
10
-2788.31001900331
20
2682.35814937946
30
0.0
11
-2787.9000122
21
2682.52797975805
31
0.0
  0
LINE
 8
Layer0
10
-2787.9000122
20
2682.52797975805
30
0.0
11
-2787.54793137615
21
2682.79814087615
31
0.0
  0
LINE
 8
Layer0
10
-2787.54793137615
20
2682.79814087615
30
0.0
11
-2787.27777025805
21
2683.1502217
31
0.0
  0
LINE
 8
Layer0
10
-2689.83487965834
20
2730.16032788339
30
0.0
11
-2690.16624984549
21
2730.41459717101
31
0.0
  0
LINE
 8
Layer0
10
-2690.16624984549
20
2730.41459717101
30
0.0
11
-2690.55213860155
21
2730.57443752734
31
0.0
  0
LINE
 8
Layer0
10
-2690.55213860155
20
2730.57443752734
30
0.0
11
-2690.96624824549
21
2730.62895609624
31
0.0
  0
LINE
 8
Layer0
10
-2690.96624824549
20
2730.62895609624
30
0.0
11
-2691.38035788944
21
2730.57443752734
31
0.0
  0
LINE
 8
Layer0
10
-2691.38035788944
20
2730.57443752734
30
0.0
11
-2691.76624664549
21
2730.41459717101
31
0.0
  0
LINE
 8
Layer0
10
-2691.76624664549
20
2730.41459717101
30
0.0
11
-2692.09761683265
21
2730.16032788339
31
0.0
  0
LINE
 8
Layer0
10
-2692.09761683265
20
2730.16032788339
30
0.0
11
-2692.35188612027
21
2729.82895769624
31
0.0
  0
LINE
 8
Layer0
10
-2692.35188612027
20
2729.82895769624
30
0.0
11
-2692.51172647659
21
2729.44306894018
31
0.0
  0
LINE
 8
Layer0
10
-2692.51172647659
20
2729.44306894018
30
0.0
11
-2692.56624504549
21
2729.02895929624
31
0.0
  0
LINE
 8
Layer0
10
-2692.56624504549
20
2729.02895929624
30
0.0
11
-2692.51172647659
21
2728.61484965229
31
0.0
  0
LINE
 8
Layer0
10
-2692.51172647659
20
2728.61484965229
30
0.0
11
-2692.35188612027
21
2728.22896089624
31
0.0
  0
LINE
 8
Layer0
10
-2692.35188612027
20
2728.22896089624
30
0.0
11
-2692.09761683265
21
2727.89759070908
31
0.0
  0
LINE
 8
Layer0
10
-2692.09761683265
20
2727.89759070908
30
0.0
11
-2691.76624664549
21
2727.64332142146
31
0.0
  0
LINE
 8
Layer0
10
-2691.76624664549
20
2727.64332142146
30
0.0
11
-2691.38035788944
21
2727.48348106514
31
0.0
  0
LINE
 8
Layer0
10
-2691.38035788944
20
2727.48348106514
30
0.0
11
-2690.96624824549
21
2727.42896249624
31
0.0
  0
LINE
 8
Layer0
10
-2690.96624824549
20
2727.42896249624
30
0.0
11
-2690.55213860155
21
2727.48348106514
31
0.0
  0
LINE
 8
Layer0
10
-2690.55213860155
20
2727.48348106514
30
0.0
11
-2690.16624984549
21
2727.64332142146
31
0.0
  0
LINE
 8
Layer0
10
-2690.16624984549
20
2727.64332142146
30
0.0
11
-2689.83487965834
21
2727.89759070908
31
0.0
  0
LINE
 8
Layer0
10
-2689.83487965834
20
2727.89759070908
30
0.0
11
-2689.58061037072
21
2728.22896089624
31
0.0
  0
LINE
 8
Layer0
10
-2689.58061037072
20
2728.22896089624
30
0.0
11
-2689.42077001439
21
2728.61484965229
31
0.0
  0
LINE
 8
Layer0
10
-2689.42077001439
20
2728.61484965229
30
0.0
11
-2689.36625144549
21
2729.02895929624
31
0.0
  0
LINE
 8
Layer0
10
-2675.36627944549
20
2729.02895929624
30
0.0
11
-2675.42079801439
21
2729.44306894018
31
0.0
  0
LINE
 8
Layer0
10
-2675.42079801439
20
2729.44306894018
30
0.0
11
-2675.58063837072
21
2729.82895769624
31
0.0
  0
LINE
 8
Layer0
10
-2675.58063837072
20
2729.82895769624
30
0.0
11
-2675.83490765834
21
2730.16032788339
31
0.0
  0
LINE
 8
Layer0
10
-2675.83490765834
20
2730.16032788339
30
0.0
11
-2676.16627784549
21
2730.41459717101
31
0.0
  0
LINE
 8
Layer0
10
-2676.16627784549
20
2730.41459717101
30
0.0
11
-2676.55216660155
21
2730.57443752734
31
0.0
  0
LINE
 8
Layer0
10
-2676.55216660155
20
2730.57443752734
30
0.0
11
-2676.9662762455
21
2730.62895609624
31
0.0
  0
LINE
 8
Layer0
10
-2676.9662762455
20
2730.62895609624
30
0.0
11
-2677.38038588944
21
2730.57443752734
31
0.0
  0
LINE
 8
Layer0
10
-2677.38038588944
20
2730.57443752734
30
0.0
11
-2677.76627464549
21
2730.41459717101
31
0.0
  0
LINE
 8
Layer0
10
-2677.76627464549
20
2730.41459717101
30
0.0
11
-2678.09764483265
21
2730.16032788339
31
0.0
  0
LINE
 8
Layer0
10
-2678.09764483265
20
2730.16032788339
30
0.0
11
-2678.35191412027
21
2729.82895769624
31
0.0
  0
LINE
 8
Layer0
10
-2678.35191412027
20
2729.82895769624
30
0.0
11
-2678.51175447659
21
2729.44306894018
31
0.0
  0
LINE
 8
Layer0
10
-2678.51175447659
20
2729.44306894018
30
0.0
11
-2678.56627304549
21
2729.02895929624
31
0.0
  0
LINE
 8
Layer0
10
-2678.56627304549
20
2729.02895929624
30
0.0
11
-2678.51175447659
21
2728.61484965229
31
0.0
  0
LINE
 8
Layer0
10
-2678.51175447659
20
2728.61484965229
30
0.0
11
-2678.35191412027
21
2728.22896089624
31
0.0
  0
LINE
 8
Layer0
10
-2678.35191412027
20
2728.22896089624
30
0.0
11
-2678.09764483265
21
2727.89759070908
31
0.0
  0
LINE
 8
Layer0
10
-2678.09764483265
20
2727.89759070908
30
0.0
11
-2677.76627464549
21
2727.64332142146
31
0.0
  0
LINE
 8
Layer0
10
-2677.76627464549
20
2727.64332142146
30
0.0
11
-2677.38038588944
21
2727.48348106514
31
0.0
  0
LINE
 8
Layer0
10
-2677.38038588944
20
2727.48348106514
30
0.0
11
-2676.9662762455
21
2727.42896249624
31
0.0
  0
LINE
 8
Layer0
10
-2676.9662762455
20
2727.42896249624
30
0.0
11
-2676.55216660155
21
2727.48348106514
31
0.0
  0
LINE
 8
Layer0
10
-2676.55216660155
20
2727.48348106514
30
0.0
11
-2676.16627784549
21
2727.64332142146
31
0.0
  0
LINE
 8
Layer0
10
-2676.16627784549
20
2727.64332142146
30
0.0
11
-2675.83490765834
21
2727.89759070908
31
0.0
  0
LINE
 8
Layer0
10
-2675.83490765834
20
2727.89759070908
30
0.0
11
-2675.58063837072
21
2728.22896089624
31
0.0
  0
LINE
 8
Layer0
10
-2675.58063837072
20
2728.22896089624
30
0.0
11
-2675.42079801439
21
2728.61484965229
31
0.0
  0
LINE
 8
Layer0
10
-2675.42079801439
20
2728.61484965229
30
0.0
11
-2675.36627944549
21
2729.02895929624
31
0.0
  0
LINE
 8
Layer0
10
-2689.16894657695
20
2638.52414662201
30
0.0
11
-2689.22346514585
21
2638.93825626596
31
0.0
  0
LINE
 8
Layer0
10
-2689.22346514585
20
2638.93825626596
30
0.0
11
-2689.38330550217
21
2639.32414502201
31
0.0
  0
LINE
 8
Layer0
10
-2689.38330550217
20
2639.32414502201
30
0.0
11
-2689.63757478979
21
2639.65551520917
31
0.0
  0
LINE
 8
Layer0
10
-2689.63757478979
20
2639.65551520917
30
0.0
11
-2689.96894497695
21
2639.90978449679
31
0.0
  0
LINE
 8
Layer0
10
-2689.96894497695
20
2639.90978449679
30
0.0
11
-2690.354833733
21
2640.06962485311
31
0.0
  0
LINE
 8
Layer0
10
-2690.354833733
20
2640.06962485311
30
0.0
11
-2690.76894337695
21
2640.12414342201
31
0.0
  0
LINE
 8
Layer0
10
-2690.76894337695
20
2640.12414342201
30
0.0
11
-2691.18305302089
21
2640.06962485311
31
0.0
  0
LINE
 8
Layer0
10
-2691.18305302089
20
2640.06962485311
30
0.0
11
-2691.56894177695
21
2639.90978449679
31
0.0
  0
LINE
 8
Layer0
10
-2691.56894177695
20
2639.90978449679
30
0.0
11
-2691.9003119641
21
2639.65551520917
31
0.0
  0
LINE
 8
Layer0
10
-2691.9003119641
20
2639.65551520917
30
0.0
11
-2692.15458125172
21
2639.32414502201
31
0.0
  0
LINE
 8
Layer0
10
-2692.15458125172
20
2639.32414502201
30
0.0
11
-2692.31442160805
21
2638.93825626596
31
0.0
  0
LINE
 8
Layer0
10
-2692.31442160805
20
2638.93825626596
30
0.0
11
-2692.36894017695
21
2638.52414662201
31
0.0
  0
LINE
 8
Layer0
10
-2692.36894017695
20
2638.52414662201
30
0.0
11
-2692.31442160805
21
2638.11003697807
31
0.0
  0
LINE
 8
Layer0
10
-2692.31442160805
20
2638.11003697807
30
0.0
11
-2692.15458125172
21
2637.72414822201
31
0.0
  0
LINE
 8
Layer0
10
-2692.15458125172
20
2637.72414822201
30
0.0
11
-2691.9003119641
21
2637.39277803486
31
0.0
  0
LINE
 8
Layer0
10
-2691.9003119641
20
2637.39277803486
30
0.0
11
-2691.56894177695
21
2637.13850874724
31
0.0
  0
LINE
 8
Layer0
10
-2691.56894177695
20
2637.13850874724
30
0.0
11
-2691.18305302089
21
2636.97866839091
31
0.0
  0
LINE
 8
Layer0
10
-2691.18305302089
20
2636.97866839091
30
0.0
11
-2690.76894337695
21
2636.92414982201
31
0.0
  0
LINE
 8
Layer0
10
-2690.76894337695
20
2636.92414982201
30
0.0
11
-2690.354833733
21
2636.97866839091
31
0.0
  0
LINE
 8
Layer0
10
-2690.354833733
20
2636.97866839091
30
0.0
11
-2689.96894497695
21
2637.13850874724
31
0.0
  0
LINE
 8
Layer0
10
-2689.96894497695
20
2637.13850874724
30
0.0
11
-2689.63757478979
21
2637.39277803486
31
0.0
  0
LINE
 8
Layer0
10
-2689.63757478979
20
2637.39277803486
30
0.0
11
-2689.38330550217
21
2637.72414822201
31
0.0
  0
LINE
 8
Layer0
10
-2689.38330550217
20
2637.72414822201
30
0.0
11
-2689.22346514585
21
2638.11003697807
31
0.0
  0
LINE
 8
Layer0
10
-2689.22346514585
20
2638.11003697807
30
0.0
11
-2689.16894657695
21
2638.52414662201
31
0.0
  0
LINE
 8
Layer0
10
-2675.16897457695
20
2638.52414662201
30
0.0
11
-2675.22349314585
21
2638.93825626596
31
0.0
  0
LINE
 8
Layer0
10
-2675.22349314585
20
2638.93825626596
30
0.0
11
-2675.38333350217
21
2639.32414502201
31
0.0
  0
LINE
 8
Layer0
10
-2675.38333350217
20
2639.32414502201
30
0.0
11
-2675.63760278979
21
2639.65551520917
31
0.0
  0
LINE
 8
Layer0
10
-2675.63760278979
20
2639.65551520917
30
0.0
11
-2675.96897297695
21
2639.90978449679
31
0.0
  0
LINE
 8
Layer0
10
-2675.96897297695
20
2639.90978449679
30
0.0
11
-2676.354861733
21
2640.06962485311
31
0.0
  0
LINE
 8
Layer0
10
-2676.354861733
20
2640.06962485311
30
0.0
11
-2676.76897137695
21
2640.12414342201
31
0.0
  0
LINE
 8
Layer0
10
-2676.76897137695
20
2640.12414342201
30
0.0
11
-2677.18308102089
21
2640.06962485311
31
0.0
  0
LINE
 8
Layer0
10
-2677.18308102089
20
2640.06962485311
30
0.0
11
-2677.56896977695
21
2639.90978449679
31
0.0
  0
LINE
 8
Layer0
10
-2677.56896977695
20
2639.90978449679
30
0.0
11
-2677.9003399641
21
2639.65551520917
31
0.0
  0
LINE
 8
Layer0
10
-2677.9003399641
20
2639.65551520917
30
0.0
11
-2678.15460925172
21
2639.32414502201
31
0.0
  0
LINE
 8
Layer0
10
-2678.15460925172
20
2639.32414502201
30
0.0
11
-2678.31444960805
21
2638.93825626596
31
0.0
  0
LINE
 8
Layer0
10
-2678.31444960805
20
2638.93825626596
30
0.0
11
-2678.36896817695
21
2638.52414662201
31
0.0
  0
LINE
 8
Layer0
10
-2678.36896817695
20
2638.52414662201
30
0.0
11
-2678.31444960805
21
2638.11003697807
31
0.0
  0
LINE
 8
Layer0
10
-2678.31444960805
20
2638.11003697807
30
0.0
11
-2678.15460925172
21
2637.72414822201
31
0.0
  0
LINE
 8
Layer0
10
-2678.15460925172
20
2637.72414822201
30
0.0
11
-2677.9003399641
21
2637.39277803486
31
0.0
  0
LINE
 8
Layer0
10
-2677.9003399641
20
2637.39277803486
30
0.0
11
-2677.56896977695
21
2637.13850874724
31
0.0
  0
LINE
 8
Layer0
10
-2677.56896977695
20
2637.13850874724
30
0.0
11
-2677.18308102089
21
2636.97866839091
31
0.0
  0
LINE
 8
Layer0
10
-2677.18308102089
20
2636.97866839091
30
0.0
11
-2676.76897137695
21
2636.92414982201
31
0.0
  0
LINE
 8
Layer0
10
-2676.76897137695
20
2636.92414982201
30
0.0
11
-2676.354861733
21
2636.97866839091
31
0.0
  0
LINE
 8
Layer0
10
-2676.354861733
20
2636.97866839091
30
0.0
11
-2675.96897297695
21
2637.13850874724
31
0.0
  0
LINE
 8
Layer0
10
-2675.96897297695
20
2637.13850874724
30
0.0
11
-2675.63760278979
21
2637.39277803486
31
0.0
  0
LINE
 8
Layer0
10
-2675.63760278979
20
2637.39277803486
30
0.0
11
-2675.38333350217
21
2637.72414822201
31
0.0
  0
LINE
 8
Layer0
10
-2675.38333350217
20
2637.72414822201
30
0.0
11
-2675.22349314585
21
2638.11003697807
31
0.0
  0
LINE
 8
Layer0
10
-2675.22349314585
20
2638.11003697807
30
0.0
11
-2675.16897457695
21
2638.52414662201
31
0.0
  0
LINE
 8
Layer0
10
-2666.000256
20
2729.00013
30
0.0
11
-2666.61358990013
21
2731.19819340477
31
0.0
  0
LINE
 8
Layer0
10
-2666.61358990013
20
2731.19819340477
30
0.0
11
-2668.41179390879
21
2733.24646242098
31
0.0
  0
LINE
 8
Layer0
10
-2668.41179390879
20
2733.24646242098
30
0.0
11
-2671.27232339449
21
2735.00535090009
31
0.0
  0
LINE
 8
Layer0
10
-2671.27232339449
20
2735.00535090009
30
0.0
11
-2675.000238
21
2736.35499349896
31
0.0
  0
LINE
 8
Layer0
10
-2675.000238
20
2736.35499349896
30
0.0
11
-2679.34148650564
21
2737.20341430486
31
0.0
  0
LINE
 8
Layer0
10
-2679.34148650564
20
2737.20341430486
30
0.0
11
-2684.00022
21
2737.49279484195
31
0.0
  0
LINE
 8
Layer0
10
-2684.00022
20
2737.49279484195
30
0.0
11
-2688.65895349436
21
2737.20341430486
31
0.0
  0
LINE
 8
Layer0
10
-2688.65895349436
20
2737.20341430486
30
0.0
11
-2693.000202
21
2736.35499349896
31
0.0
  0
LINE
 8
Layer0
10
-2693.000202
20
2736.35499349896
30
0.0
11
-2696.72811660551
21
2735.00535090009
31
0.0
  0
LINE
 8
Layer0
10
-2696.72811660551
20
2735.00535090009
30
0.0
11
-2699.5886460912
21
2733.24646242098
31
0.0
  0
LINE
 8
Layer0
10
-2699.5886460912
20
2733.24646242098
30
0.0
11
-2701.38685009987
21
2731.19819340477
31
0.0
  0
LINE
 8
Layer0
10
-2701.38685009987
20
2731.19819340477
30
0.0
11
-2702.000184
21
2729.00013
31
0.0
  0
LINE
 8
Layer0
10
-2702.000184
20
2729.00013
30
0.0
11
-2701.38685009987
21
2726.80206659523
31
0.0
  0
LINE
 8
Layer0
10
-2701.38685009987
20
2726.80206659523
30
0.0
11
-2699.5886460912
21
2724.75379757902
31
0.0
  0
LINE
 8
Layer0
10
-2699.5886460912
20
2724.75379757902
30
0.0
11
-2696.72811660551
21
2722.99490909991
31
0.0
  0
LINE
 8
Layer0
10
-2696.72811660551
20
2722.99490909991
30
0.0
11
-2693.000202
21
2721.64526650104
31
0.0
  0
LINE
 8
Layer0
10
-2693.000202
20
2721.64526650104
30
0.0
11
-2688.65895349436
21
2720.79684569514
31
0.0
  0
LINE
 8
Layer0
10
-2688.65895349436
20
2720.79684569514
30
0.0
11
-2684.00022
21
2720.50746515805
31
0.0
  0
LINE
 8
Layer0
10
-2684.00022
20
2720.50746515805
30
0.0
11
-2679.34148650564
21
2720.79684569514
31
0.0
  0
LINE
 8
Layer0
10
-2679.34148650564
20
2720.79684569514
30
0.0
11
-2675.000238
21
2721.64526650104
31
0.0
  0
LINE
 8
Layer0
10
-2765.000058
20
2623.300241
30
0.0
11
-2765.000058
21
2644.300199
31
0.0
  0
LINE
 8
Layer0
10
-2773.000042
20
2644.300199
30
0.0
11
-2773.000042
21
2623.300241
31
0.0
  0
LINE
 8
Layer0
10
-2765.000058
20
2644.300199
30
0.0
11
-2765.13635442225
21
2645.33547310986
31
0.0
  0
LINE
 8
Layer0
10
-2765.13635442225
20
2645.33547310986
30
0.0
11
-2765.53595531307
21
2646.300195
31
0.0
  0
LINE
 8
Layer0
10
-2765.53595531307
20
2646.300195
30
0.0
11
-2766.17162853211
21
2647.12862046789
31
0.0
  0
LINE
 8
Layer0
10
-2766.17162853211
20
2647.12862046789
30
0.0
11
-2767.000054
21
2647.76429368693
31
0.0
  0
LINE
 8
Layer0
10
-2767.000054
20
2647.76429368693
30
0.0
11
-2767.96477589014
21
2648.16389457775
31
0.0
  0
LINE
 8
Layer0
10
-2767.96477589014
20
2648.16389457775
30
0.0
11
-2769.00005
21
2648.300191
31
0.0
  0
LINE
 8
Layer0
10
-2769.00005
20
2648.300191
30
0.0
11
-2770.03532410986
21
2648.16389457775
31
0.0
  0
LINE
 8
Layer0
10
-2770.03532410986
20
2648.16389457775
30
0.0
11
-2771.000046
21
2647.76429368693
31
0.0
  0
LINE
 8
Layer0
10
-2771.000046
20
2647.76429368693
30
0.0
11
-2771.82847146789
21
2647.12862046789
31
0.0
  0
LINE
 8
Layer0
10
-2771.82847146789
20
2647.12862046789
30
0.0
11
-2772.46414468693
21
2646.300195
31
0.0
  0
LINE
 8
Layer0
10
-2772.46414468693
20
2646.300195
30
0.0
11
-2772.86374557775
21
2645.33547310986
31
0.0
  0
LINE
 8
Layer0
10
-2772.86374557775
20
2645.33547310986
30
0.0
11
-2773.000042
21
2644.300199
31
0.0
  0
LINE
 8
Layer0
10
-2773.000042
20
2623.300241
30
0.0
11
-2772.86374557775
21
2622.26496689014
31
0.0
  0
LINE
 8
Layer0
10
-2772.86374557775
20
2622.26496689014
30
0.0
11
-2772.46414468693
21
2621.300245
31
0.0
  0
LINE
 8
Layer0
10
-2772.46414468693
20
2621.300245
30
0.0
11
-2771.82847146789
21
2620.47181953211
31
0.0
  0
LINE
 8
Layer0
10
-2771.82847146789
20
2620.47181953211
30
0.0
11
-2771.000046
21
2619.83614631307
31
0.0
  0
LINE
 8
Layer0
10
-2771.000046
20
2619.83614631307
30
0.0
11
-2770.03532410986
21
2619.43654542225
31
0.0
  0
LINE
 8
Layer0
10
-2770.03532410986
20
2619.43654542225
30
0.0
11
-2769.00005
21
2619.300249
31
0.0
  0
LINE
 8
Layer0
10
-2769.00005
20
2619.300249
30
0.0
11
-2767.96477589014
21
2619.43654542225
31
0.0
  0
LINE
 8
Layer0
10
-2767.96477589014
20
2619.43654542225
30
0.0
11
-2767.000054
21
2619.83614631307
31
0.0
  0
LINE
 8
Layer0
10
-2767.000054
20
2619.83614631307
30
0.0
11
-2766.17162853211
21
2620.47181953211
31
0.0
  0
LINE
 8
Layer0
10
-2766.17162853211
20
2620.47181953211
30
0.0
11
-2765.53595531307
21
2621.300245
31
0.0
  0
LINE
 8
Layer0
10
-2765.53595531307
20
2621.300245
30
0.0
11
-2765.13635442225
21
2622.26496689014
31
0.0
  0
LINE
 8
Layer0
10
-2765.13635442225
20
2622.26496689014
30
0.0
11
-2765.000058
21
2623.300241
31
0.0
  0
LINE
 8
Layer0
10
-2777.500033
20
2633.80022
30
0.0
11
-2777.55114415834
21
2634.1884477912
31
0.0
  0
LINE
 8
Layer0
10
-2777.55114415834
20
2634.1884477912
30
0.0
11
-2777.7009944924
21
2634.5502185
31
0.0
  0
LINE
 8
Layer0
10
-2777.7009944924
20
2634.5502185
30
0.0
11
-2777.93937194954
21
2634.86087805046
31
0.0
  0
LINE
 8
Layer0
10
-2777.93937194954
20
2634.86087805046
30
0.0
11
-2778.2500315
21
2635.0992555076
31
0.0
  0
LINE
 8
Layer0
10
-2778.2500315
20
2635.0992555076
30
0.0
11
-2778.6118022088
21
2635.24910584166
31
0.0
  0
LINE
 8
Layer0
10
-2778.6118022088
20
2635.24910584166
30
0.0
11
-2779.00003
21
2635.300217
31
0.0
  0
LINE
 8
Layer0
10
-2779.00003
20
2635.300217
30
0.0
11
-2779.3882577912
21
2635.24910584166
31
0.0
  0
LINE
 8
Layer0
10
-2779.3882577912
20
2635.24910584166
30
0.0
11
-2779.7500285
21
2635.0992555076
31
0.0
  0
LINE
 8
Layer0
10
-2779.7500285
20
2635.0992555076
30
0.0
11
-2780.06068805046
21
2634.86087805046
31
0.0
  0
LINE
 8
Layer0
10
-2780.06068805046
20
2634.86087805046
30
0.0
11
-2780.2990655076
21
2634.5502185
31
0.0
  0
LINE
 8
Layer0
10
-2780.2990655076
20
2634.5502185
30
0.0
11
-2780.44891584166
21
2634.1884477912
31
0.0
  0
LINE
 8
Layer0
10
-2780.44891584166
20
2634.1884477912
30
0.0
11
-2780.500027
21
2633.80022
31
0.0
  0
LINE
 8
Layer0
10
-2780.500027
20
2633.80022
30
0.0
11
-2780.44891584166
21
2633.4119922088
31
0.0
  0
LINE
 8
Layer0
10
-2780.44891584166
20
2633.4119922088
30
0.0
11
-2780.2990655076
21
2633.0502215
31
0.0
  0
LINE
 8
Layer0
10
-2780.2990655076
20
2633.0502215
30
0.0
11
-2780.06068805046
21
2632.73956194954
31
0.0
  0
LINE
 8
Layer0
10
-2780.06068805046
20
2632.73956194954
30
0.0
11
-2779.7500285
21
2632.5011844924
31
0.0
  0
LINE
 8
Layer0
10
-2779.7500285
20
2632.5011844924
30
0.0
11
-2779.3882577912
21
2632.35133415834
31
0.0
  0
LINE
 8
Layer0
10
-2779.3882577912
20
2632.35133415834
30
0.0
11
-2779.00003
21
2632.300223
31
0.0
  0
LINE
 8
Layer0
10
-2779.00003
20
2632.300223
30
0.0
11
-2778.6118022088
21
2632.35133415834
31
0.0
  0
LINE
 8
Layer0
10
-2778.6118022088
20
2632.35133415834
30
0.0
11
-2778.2500315
21
2632.5011844924
31
0.0
  0
LINE
 8
Layer0
10
-2778.2500315
20
2632.5011844924
30
0.0
11
-2777.93937194954
21
2632.73956194954
31
0.0
  0
LINE
 8
Layer0
10
-2777.93937194954
20
2632.73956194954
30
0.0
11
-2777.7009944924
21
2633.0502215
31
0.0
  0
LINE
 8
Layer0
10
-2777.7009944924
20
2633.0502215
30
0.0
11
-2777.55114415834
21
2633.4119922088
31
0.0
  0
LINE
 8
Layer0
10
-2777.55114415834
20
2633.4119922088
30
0.0
11
-2777.500033
21
2633.80022
31
0.0
  0
LINE
 8
Layer0
10
-2757.500073
20
2633.80022
30
0.0
11
-2757.55118415834
21
2634.1884477912
31
0.0
  0
LINE
 8
Layer0
10
-2757.55118415834
20
2634.1884477912
30
0.0
11
-2757.7010344924
21
2634.5502185
31
0.0
  0
LINE
 8
Layer0
10
-2757.7010344924
20
2634.5502185
30
0.0
11
-2757.93941194954
21
2634.86087805046
31
0.0
  0
LINE
 8
Layer0
10
-2757.93941194954
20
2634.86087805046
30
0.0
11
-2758.2500715
21
2635.0992555076
31
0.0
  0
LINE
 8
Layer0
10
-2758.2500715
20
2635.0992555076
30
0.0
11
-2758.6118422088
21
2635.24910584166
31
0.0
  0
LINE
 8
Layer0
10
-2758.6118422088
20
2635.24910584166
30
0.0
11
-2759.00007
21
2635.300217
31
0.0
  0
LINE
 8
Layer0
10
-2759.00007
20
2635.300217
30
0.0
11
-2759.3882977912
21
2635.24910584166
31
0.0
  0
LINE
 8
Layer0
10
-2759.3882977912
20
2635.24910584166
30
0.0
11
-2759.7500685
21
2635.0992555076
31
0.0
  0
LINE
 8
Layer0
10
-2759.7500685
20
2635.0992555076
30
0.0
11
-2760.06072805046
21
2634.86087805046
31
0.0
  0
LINE
 8
Layer0
10
-2760.06072805046
20
2634.86087805046
30
0.0
11
-2760.2991055076
21
2634.5502185
31
0.0
  0
LINE
 8
Layer0
10
-2760.2991055076
20
2634.5502185
30
0.0
11
-2760.44895584166
21
2634.1884477912
31
0.0
  0
LINE
 8
Layer0
10
-2760.44895584166
20
2634.1884477912
30
0.0
11
-2760.500067
21
2633.80022
31
0.0
  0
LINE
 8
Layer0
10
-2760.500067
20
2633.80022
30
0.0
11
-2760.44895584166
21
2633.4119922088
31
0.0
  0
LINE
 8
Layer0
10
-2760.44895584166
20
2633.4119922088
30
0.0
11
-2760.2991055076
21
2633.0502215
31
0.0
  0
LINE
 8
Layer0
10
-2760.2991055076
20
2633.0502215
30
0.0
11
-2760.06072805046
21
2632.73956194954
31
0.0
  0
LINE
 8
Layer0
10
-2760.06072805046
20
2632.73956194954
30
0.0
11
-2759.7500685
21
2632.5011844924
31
0.0
  0
LINE
 8
Layer0
10
-2759.7500685
20
2632.5011844924
30
0.0
11
-2759.3882977912
21
2632.35133415834
31
0.0
  0
LINE
 8
Layer0
10
-2759.3882977912
20
2632.35133415834
30
0.0
11
-2759.00007
21
2632.300223
31
0.0
  0
LINE
 8
Layer0
10
-2759.00007
20
2632.300223
30
0.0
11
-2758.6118422088
21
2632.35133415834
31
0.0
  0
LINE
 8
Layer0
10
-2758.6118422088
20
2632.35133415834
30
0.0
11
-2758.2500715
21
2632.5011844924
31
0.0
  0
LINE
 8
Layer0
10
-2758.2500715
20
2632.5011844924
30
0.0
11
-2757.93941194954
21
2632.73956194954
31
0.0
  0
LINE
 8
Layer0
10
-2757.93941194954
20
2632.73956194954
30
0.0
11
-2757.7010344924
21
2633.0502215
31
0.0
  0
LINE
 8
Layer0
10
-2757.7010344924
20
2633.0502215
30
0.0
11
-2757.55118415834
21
2633.4119922088
31
0.0
  0
LINE
 8
Layer0
10
-2757.55118415834
20
2633.4119922088
30
0.0
11
-2757.500073
21
2633.80022
31
0.0
  0
LINE
 8
Layer0
10
-2580.70250812385
20
2580.70250812385
30
0.0
11
-2580.97266924195
21
2580.3504273
31
0.0
  0
LINE
 8
Layer0
10
-2580.3504273
20
2580.97266924195
30
0.0
11
-2580.70250812385
21
2580.70250812385
31
0.0
  0
LINE
 8
Layer0
10
-2579.94042049669
20
2581.14249962054
30
0.0
11
-2580.3504273
21
2580.97266924195
31
0.0
  0
LINE
 8
Layer0
10
-2579.500429
20
2581.2004256
30
0.0
11
-2579.94042049669
21
2581.14249962054
31
0.0
  0
LINE
 8
Layer0
10
-2579.06043750331
20
2581.14249962054
30
0.0
11
-2579.500429
21
2581.2004256
31
0.0
  0
LINE
 8
Layer0
10
-2578.6504307
20
2580.97266924195
30
0.0
11
-2579.06043750331
21
2581.14249962054
31
0.0
  0
LINE
 8
Layer0
10
-2578.29834987615
20
2580.70250812385
30
0.0
11
-2578.6504307
21
2580.97266924195
31
0.0
  0
LINE
 8
Layer0
10
-2578.02818875805
20
2580.3504273
30
0.0
11
-2578.29834987615
21
2580.70250812385
31
0.0
  0
LINE
 8
Layer0
10
-2577.85835837946
20
2579.94042049669
30
0.0
11
-2578.02818875805
21
2580.3504273
31
0.0
  0
LINE
 8
Layer0
10
-2577.8004324
20
2579.500429
30
0.0
11
-2577.85835837946
21
2579.94042049669
31
0.0
  0
LINE
 8
Layer0
10
-2577.85835837946
20
2788.06001950331
30
0.0
11
-2577.8004324
21
2788.500011
31
0.0
  0
LINE
 8
Layer0
10
-2578.02818875805
20
2787.6500127
30
0.0
11
-2577.85835837946
21
2788.06001950331
31
0.0
  0
LINE
 8
Layer0
10
-2578.29834987615
20
2787.29793187615
30
0.0
11
-2578.02818875805
21
2787.6500127
31
0.0
  0
LINE
 8
Layer0
10
-2578.6504307
20
2787.02777075805
30
0.0
11
-2578.29834987615
21
2787.29793187615
31
0.0
  0
LINE
 8
Layer0
10
-2579.06043750331
20
2786.85794037946
30
0.0
11
-2578.6504307
21
2787.02777075805
31
0.0
  0
LINE
 8
Layer0
10
-2579.500429
20
2786.8000144
30
0.0
11
-2579.06043750331
21
2786.85794037946
31
0.0
  0
LINE
 8
Layer0
10
-2579.94042049669
20
2786.85794037946
30
0.0
11
-2579.500429
21
2786.8000144
31
0.0
  0
LINE
 8
Layer0
10
-2580.3504273
20
2787.02777075805
30
0.0
11
-2579.94042049669
21
2786.85794037946
31
0.0
  0
LINE
 8
Layer0
10
-2580.70250812385
20
2787.29793187615
30
0.0
11
-2580.3504273
21
2787.02777075805
31
0.0
  0
LINE
 8
Layer0
10
-2580.97266924195
20
2787.6500127
30
0.0
11
-2580.70250812385
21
2787.29793187615
31
0.0
  0
LINE
 8
Layer0
10
-2581.14249962054
20
2788.06001950331
30
0.0
11
-2580.97266924195
21
2787.6500127
31
0.0
  0
LINE
 8
Layer0
10
-2581.2004256
20
2788.500011
30
0.0
11
-2581.14249962054
21
2788.06001950331
31
0.0
  0
LINE
 8
Layer0
10
-2581.14249962054
20
2788.94000249669
30
0.0
11
-2581.2004256
21
2788.500011
31
0.0
  0
LINE
 8
Layer0
10
-2580.97266924195
20
2789.3500093
30
0.0
11
-2581.14249962054
21
2788.94000249669
31
0.0
  0
LINE
 8
Layer0
10
-2580.70250812385
20
2789.70209012385
30
0.0
11
-2580.97266924195
21
2789.3500093
31
0.0
  0
LINE
 8
Layer0
10
-2580.3504273
20
2789.97225124195
30
0.0
11
-2580.70250812385
21
2789.70209012385
31
0.0
  0
LINE
 8
Layer0
10
-2579.94042049669
20
2790.14208162054
30
0.0
11
-2580.3504273
21
2789.97225124195
31
0.0
  0
LINE
 8
Layer0
10
-2579.500429
20
2790.2000076
30
0.0
11
-2579.94042049669
21
2790.14208162054
31
0.0
  0
LINE
 8
Layer0
10
-2579.06043750331
20
2790.14208162054
30
0.0
11
-2579.500429
21
2790.2000076
31
0.0
  0
LINE
 8
Layer0
10
-2578.6504307
20
2789.97225124195
30
0.0
11
-2579.06043750331
21
2790.14208162054
31
0.0
  0
LINE
 8
Layer0
10
-2578.29834987615
20
2789.70209012385
30
0.0
11
-2578.6504307
21
2789.97225124195
31
0.0
  0
LINE
 8
Layer0
10
-2578.02818875805
20
2789.3500093
30
0.0
11
-2578.29834987615
21
2789.70209012385
31
0.0
  0
LINE
 8
Layer0
10
-2577.85835837946
20
2788.94000249669
30
0.0
11
-2578.02818875805
21
2789.3500093
31
0.0
  0
LINE
 8
Layer0
10
-2577.8004324
20
2788.500011
30
0.0
11
-2577.85835837946
21
2788.94000249669
31
0.0
  0
LINE
 8
Layer0
10
-2682.35814937946
20
2578.81043800331
30
0.0
11
-2682.3002234
21
2579.2504295
31
0.0
  0
LINE
 8
Layer0
10
-2682.52797975805
20
2578.4004312
30
0.0
11
-2682.35814937946
21
2578.81043800331
31
0.0
  0
LINE
 8
Layer0
10
-2682.79814087615
20
2578.04835037615
30
0.0
11
-2682.52797975805
21
2578.4004312
31
0.0
  0
LINE
 8
Layer0
10
-2683.1502217
20
2577.77818925805
30
0.0
11
-2682.79814087615
21
2578.04835037615
31
0.0
  0
LINE
 8
Layer0
10
-2683.56022850331
20
2577.60835887946
30
0.0
11
-2683.1502217
21
2577.77818925805
31
0.0
  0
LINE
 8
Layer0
10
-2684.00022
20
2577.5504329
30
0.0
11
-2683.56022850331
21
2577.60835887946
31
0.0
  0
LINE
 8
Layer0
10
-2684.44021149669
20
2577.60835887946
30
0.0
11
-2684.00022
21
2577.5504329
31
0.0
  0
LINE
 8
Layer0
10
-2684.8502183
20
2577.77818925805
30
0.0
11
-2684.44021149669
21
2577.60835887946
31
0.0
  0
LINE
 8
Layer0
10
-2685.20229912385
20
2578.04835037615
30
0.0
11
-2684.8502183
21
2577.77818925805
31
0.0
  0
LINE
 8
Layer0
10
-2685.47246024195
20
2578.4004312
30
0.0
11
-2685.20229912385
21
2578.04835037615
31
0.0
  0
LINE
 8
Layer0
10
-2685.64229062054
20
2578.81043800331
30
0.0
11
-2685.47246024195
21
2578.4004312
31
0.0
  0
LINE
 8
Layer0
10
-2685.7002166
20
2579.2504295
30
0.0
11
-2685.64229062054
21
2578.81043800331
31
0.0
  0
LINE
 8
Layer0
10
-2685.64229062054
20
2579.69042099669
30
0.0
11
-2685.7002166
21
2579.2504295
31
0.0
  0
LINE
 8
Layer0
10
-2685.47246024195
20
2580.1004278
30
0.0
11
-2685.64229062054
21
2579.69042099669
31
0.0
  0
LINE
 8
Layer0
10
-2685.20229912385
20
2580.45250862385
30
0.0
11
-2685.47246024195
21
2580.1004278
31
0.0
  0
LINE
 8
Layer0
10
-2684.8502183
20
2580.72266974195
30
0.0
11
-2685.20229912385
21
2580.45250862385
31
0.0
  0
LINE
 8
Layer0
10
-2684.44021149669
20
2580.89250012054
30
0.0
11
-2684.8502183
21
2580.72266974195
31
0.0
  0
LINE
 8
Layer0
10
-2684.00022
20
2580.9504261
30
0.0
11
-2684.44021149669
21
2580.89250012054
31
0.0
  0
LINE
 8
Layer0
10
-2683.56022850331
20
2580.89250012054
30
0.0
11
-2684.00022
21
2580.9504261
31
0.0
  0
LINE
 8
Layer0
10
-2683.1502217
20
2580.72266974195
30
0.0
11
-2683.56022850331
21
2580.89250012054
31
0.0
  0
LINE
 8
Layer0
10
-2682.79814087615
20
2580.45250862385
30
0.0
11
-2683.1502217
21
2580.72266974195
31
0.0
  0
LINE
 8
Layer0
10
-2682.52797975805
20
2580.1004278
30
0.0
11
-2682.79814087615
21
2580.45250862385
31
0.0
  0
LINE
 8
Layer0
10
-2682.35814937946
20
2579.69042099669
30
0.0
11
-2682.52797975805
21
2580.1004278
31
0.0
  0
LINE
 8
Layer0
10
-2682.3002234
20
2579.2504295
30
0.0
11
-2682.35814937946
21
2579.69042099669
31
0.0
  0
LINE
 8
Layer0
10
-2629.57699573752
20
2685.6678738132
30
0.0
11
-2629.500329
21
2686.2502155
31
0.0
  0
LINE
 8
Layer0
10
-2629.8017712386
20
2685.12521775
30
0.0
11
-2629.57699573752
21
2685.6678738132
31
0.0
  0
LINE
 8
Layer0
10
-2630.15933742431
20
2684.65922842431
30
0.0
11
-2629.8017712386
21
2685.12521775
31
0.0
  0
LINE
 8
Layer0
10
-2630.62532675
20
2684.3016622386
30
0.0
11
-2630.15933742431
21
2684.65922842431
31
0.0
  0
LINE
 8
Layer0
10
-2631.1679828132
20
2684.07688673752
30
0.0
11
-2630.62532675
21
2684.3016622386
31
0.0
  0
LINE
 8
Layer0
10
-2631.7503245
20
2684.00022
30
0.0
11
-2631.1679828132
21
2684.07688673752
31
0.0
  0
LINE
 8
Layer0
10
-2632.33266618679
20
2684.07688673752
30
0.0
11
-2631.7503245
21
2684.00022
31
0.0
  0
LINE
 8
Layer0
10
-2632.87532225
20
2684.3016622386
30
0.0
11
-2632.33266618679
21
2684.07688673752
31
0.0
  0
LINE
 8
Layer0
10
-2633.34131157569
20
2684.65922842431
30
0.0
11
-2632.87532225
21
2684.3016622386
31
0.0
  0
LINE
 8
Layer0
10
-2633.6988777614
20
2685.12521775
30
0.0
11
-2633.34131157569
21
2684.65922842431
31
0.0
  0
LINE
 8
Layer0
10
-2633.92365326248
20
2685.6678738132
30
0.0
11
-2633.6988777614
21
2685.12521775
31
0.0
  0
LINE
 8
Layer0
10
-2634.00032
20
2686.2502155
30
0.0
11
-2633.92365326248
21
2685.6678738132
31
0.0
  0
LINE
 8
Layer0
10
-2580.97266924195
20
2580.3504273
30
0.0
11
-2581.14249962054
21
2579.94042049669
31
0.0
  0
LINE
 8
Layer0
10
-2581.14249962054
20
2579.94042049669
30
0.0
11
-2581.2004256
21
2579.500429
31
0.0
  0
LINE
 8
Layer0
10
-2581.2004256
20
2579.500429
30
0.0
11
-2581.14249962054
21
2579.06043750331
31
0.0
  0
LINE
 8
Layer0
10
-2581.14249962054
20
2579.06043750331
30
0.0
11
-2580.97266924195
21
2578.6504307
31
0.0
  0
LINE
 8
Layer0
10
-2580.97266924195
20
2578.6504307
30
0.0
11
-2580.70250812385
21
2578.29834987615
31
0.0
  0
LINE
 8
Layer0
10
-2580.70250812385
20
2578.29834987615
30
0.0
11
-2580.3504273
21
2578.02818875805
31
0.0
  0
LINE
 8
Layer0
10
-2580.3504273
20
2578.02818875805
30
0.0
11
-2579.94042049669
21
2577.85835837946
31
0.0
  0
LINE
 8
Layer0
10
-2579.94042049669
20
2577.85835837946
30
0.0
11
-2579.500429
21
2577.8004324
31
0.0
  0
LINE
 8
Layer0
10
-2579.500429
20
2577.8004324
30
0.0
11
-2579.06043750331
21
2577.85835837946
31
0.0
  0
LINE
 8
Layer0
10
-2579.06043750331
20
2577.85835837946
30
0.0
11
-2578.6504307
21
2578.02818875805
31
0.0
  0
LINE
 8
Layer0
10
-2578.6504307
20
2578.02818875805
30
0.0
11
-2578.29834987615
21
2578.29834987615
31
0.0
  0
LINE
 8
Layer0
10
-2578.29834987615
20
2578.29834987615
30
0.0
11
-2578.02818875805
21
2578.6504307
31
0.0
  0
LINE
 8
Layer0
10
-2578.02818875805
20
2578.6504307
30
0.0
11
-2577.85835837946
21
2579.06043750331
31
0.0
  0
LINE
 8
Layer0
10
-2577.85835837946
20
2579.06043750331
30
0.0
11
-2577.8004324
21
2579.500429
31
0.0
  0
LINE
 8
Layer0
10
-2777.500033
20
2684.00022
30
0.0
11
-2777.55114415834
21
2684.3884477912
31
0.0
  0
LINE
 8
Layer0
10
-2777.55114415834
20
2684.3884477912
30
0.0
11
-2777.7009944924
21
2684.7502185
31
0.0
  0
LINE
 8
Layer0
10
-2777.7009944924
20
2684.7502185
30
0.0
11
-2777.93937194954
21
2685.06087805046
31
0.0
  0
LINE
 8
Layer0
10
-2777.93937194954
20
2685.06087805046
30
0.0
11
-2778.2500315
21
2685.2992555076
31
0.0
  0
LINE
 8
Layer0
10
-2778.2500315
20
2685.2992555076
30
0.0
11
-2778.6118022088
21
2685.44910584166
31
0.0
  0
LINE
 8
Layer0
10
-2778.6118022088
20
2685.44910584166
30
0.0
11
-2779.00003
21
2685.500217
31
0.0
  0
LINE
 8
Layer0
10
-2779.00003
20
2685.500217
30
0.0
11
-2779.3882577912
21
2685.44910584166
31
0.0
  0
LINE
 8
Layer0
10
-2779.3882577912
20
2685.44910584166
30
0.0
11
-2779.7500285
21
2685.2992555076
31
0.0
  0
LINE
 8
Layer0
10
-2779.7500285
20
2685.2992555076
30
0.0
11
-2780.06068805046
21
2685.06087805046
31
0.0
  0
LINE
 8
Layer0
10
-2780.06068805046
20
2685.06087805046
30
0.0
11
-2780.2990655076
21
2684.7502185
31
0.0
  0
LINE
 8
Layer0
10
-2780.2990655076
20
2684.7502185
30
0.0
11
-2780.44891584166
21
2684.3884477912
31
0.0
  0
LINE
 8
Layer0
10
-2780.44891584166
20
2684.3884477912
30
0.0
11
-2780.500027
21
2684.00022
31
0.0
  0
LINE
 8
Layer0
10
-2780.500027
20
2684.00022
30
0.0
11
-2780.44891584166
21
2683.6119922088
31
0.0
  0
LINE
 8
Layer0
10
-2780.44891584166
20
2683.6119922088
30
0.0
11
-2780.2990655076
21
2683.2502215
31
0.0
  0
LINE
 8
Layer0
10
-2780.2990655076
20
2683.2502215
30
0.0
11
-2780.06068805046
21
2682.93956194954
31
0.0
  0
LINE
 8
Layer0
10
-2780.06068805046
20
2682.93956194954
30
0.0
11
-2779.7500285
21
2682.7011844924
31
0.0
  0
LINE
 8
Layer0
10
-2779.7500285
20
2682.7011844924
30
0.0
11
-2779.3882577912
21
2682.55133415834
31
0.0
  0
LINE
 8
Layer0
10
-2779.3882577912
20
2682.55133415834
30
0.0
11
-2779.00003
21
2682.500223
31
0.0
  0
LINE
 8
Layer0
10
-2779.00003
20
2682.500223
30
0.0
11
-2778.6118022088
21
2682.55133415834
31
0.0
  0
LINE
 8
Layer0
10
-2778.6118022088
20
2682.55133415834
30
0.0
11
-2778.2500315
21
2682.7011844924
31
0.0
  0
LINE
 8
Layer0
10
-2778.2500315
20
2682.7011844924
30
0.0
11
-2777.93937194954
21
2682.93956194954
31
0.0
  0
LINE
 8
Layer0
10
-2777.93937194954
20
2682.93956194954
30
0.0
11
-2777.7009944924
21
2683.2502215
31
0.0
  0
LINE
 8
Layer0
10
-2777.7009944924
20
2683.2502215
30
0.0
11
-2777.55114415834
21
2683.6119922088
31
0.0
  0
LINE
 8
Layer0
10
-2777.55114415834
20
2683.6119922088
30
0.0
11
-2777.500033
21
2684.00022
31
0.0
  0
LINE
 8
Layer0
10
-2757.500073
20
2684.00022
30
0.0
11
-2757.55118415834
21
2684.3884477912
31
0.0
  0
LINE
 8
Layer0
10
-2757.55118415834
20
2684.3884477912
30
0.0
11
-2757.7010344924
21
2684.7502185
31
0.0
  0
LINE
 8
Layer0
10
-2757.7010344924
20
2684.7502185
30
0.0
11
-2757.93941194954
21
2685.06087805046
31
0.0
  0
LINE
 8
Layer0
10
-2757.93941194954
20
2685.06087805046
30
0.0
11
-2758.2500715
21
2685.2992555076
31
0.0
  0
LINE
 8
Layer0
10
-2758.2500715
20
2685.2992555076
30
0.0
11
-2758.6118422088
21
2685.44910584166
31
0.0
  0
LINE
 8
Layer0
10
-2758.6118422088
20
2685.44910584166
30
0.0
11
-2759.00007
21
2685.500217
31
0.0
  0
LINE
 8
Layer0
10
-2759.00007
20
2685.500217
30
0.0
11
-2759.3882977912
21
2685.44910584166
31
0.0
  0
LINE
 8
Layer0
10
-2759.3882977912
20
2685.44910584166
30
0.0
11
-2759.7500685
21
2685.2992555076
31
0.0
  0
LINE
 8
Layer0
10
-2759.7500685
20
2685.2992555076
30
0.0
11
-2760.06072805046
21
2685.06087805046
31
0.0
  0
LINE
 8
Layer0
10
-2760.06072805046
20
2685.06087805046
30
0.0
11
-2760.2991055076
21
2684.7502185
31
0.0
  0
LINE
 8
Layer0
10
-2760.2991055076
20
2684.7502185
30
0.0
11
-2760.44895584166
21
2684.3884477912
31
0.0
  0
LINE
 8
Layer0
10
-2760.44895584166
20
2684.3884477912
30
0.0
11
-2760.500067
21
2684.00022
31
0.0
  0
LINE
 8
Layer0
10
-2760.500067
20
2684.00022
30
0.0
11
-2760.44895584166
21
2683.6119922088
31
0.0
  0
LINE
 8
Layer0
10
-2760.44895584166
20
2683.6119922088
30
0.0
11
-2760.2991055076
21
2683.2502215
31
0.0
  0
LINE
 8
Layer0
10
-2760.2991055076
20
2683.2502215
30
0.0
11
-2760.06072805046
21
2682.93956194954
31
0.0
  0
LINE
 8
Layer0
10
-2760.06072805046
20
2682.93956194954
30
0.0
11
-2759.7500685
21
2682.7011844924
31
0.0
  0
LINE
 8
Layer0
10
-2759.7500685
20
2682.7011844924
30
0.0
11
-2759.3882977912
21
2682.55133415834
31
0.0
  0
LINE
 8
Layer0
10
-2759.3882977912
20
2682.55133415834
30
0.0
11
-2759.00007
21
2682.500223
31
0.0
  0
LINE
 8
Layer0
10
-2759.00007
20
2682.500223
30
0.0
11
-2758.6118422088
21
2682.55133415834
31
0.0
  0
LINE
 8
Layer0
10
-2758.6118422088
20
2682.55133415834
30
0.0
11
-2758.2500715
21
2682.7011844924
31
0.0
  0
LINE
 8
Layer0
10
-2758.2500715
20
2682.7011844924
30
0.0
11
-2757.93941194954
21
2682.93956194954
31
0.0
  0
LINE
 8
Layer0
10
-2757.93941194954
20
2682.93956194954
30
0.0
11
-2757.7010344924
21
2683.2502215
31
0.0
  0
LINE
 8
Layer0
10
-2757.7010344924
20
2683.2502215
30
0.0
11
-2757.55118415834
21
2683.6119922088
31
0.0
  0
LINE
 8
Layer0
10
-2757.55118415834
20
2683.6119922088
30
0.0
11
-2757.500073
21
2684.00022
31
0.0
  0
LINE
 8
Layer0
10
-2754.7500785
20
2693.000202
30
0.0
11
-2754.82674523752
21
2693.58254368679
31
0.0
  0
LINE
 8
Layer0
10
-2754.82674523752
20
2693.58254368679
30
0.0
11
-2755.0515207386
21
2694.12519975
31
0.0
  0
LINE
 8
Layer0
10
-2755.0515207386
20
2694.12519975
30
0.0
11
-2755.40908692431
21
2694.59118907569
31
0.0
  0
LINE
 8
Layer0
10
-2755.40908692431
20
2694.59118907569
30
0.0
11
-2755.87507625
21
2694.9487552614
31
0.0
  0
LINE
 8
Layer0
10
-2755.87507625
20
2694.9487552614
30
0.0
11
-2756.4177323132
21
2695.17353076248
31
0.0
  0
LINE
 8
Layer0
10
-2756.4177323132
20
2695.17353076248
30
0.0
11
-2757.000074
21
2695.2501975
31
0.0
  0
LINE
 8
Layer0
10
-2757.000074
20
2695.2501975
30
0.0
11
-2757.58241568679
21
2695.17353076248
31
0.0
  0
LINE
 8
Layer0
10
-2757.58241568679
20
2695.17353076248
30
0.0
11
-2758.12507175
21
2694.9487552614
31
0.0
  0
LINE
 8
Layer0
10
-2758.12507175
20
2694.9487552614
30
0.0
11
-2758.59106107569
21
2694.59118907569
31
0.0
  0
LINE
 8
Layer0
10
-2758.59106107569
20
2694.59118907569
30
0.0
11
-2758.9486272614
21
2694.12519975
31
0.0
  0
LINE
 8
Layer0
10
-2758.9486272614
20
2694.12519975
30
0.0
11
-2759.17340276248
21
2693.58254368679
31
0.0
  0
LINE
 8
Layer0
10
-2759.17340276248
20
2693.58254368679
30
0.0
11
-2759.2500695
21
2693.000202
31
0.0
  0
LINE
 8
Layer0
10
-2759.2500695
20
2693.000202
30
0.0
11
-2759.17340276248
21
2692.4178603132
31
0.0
  0
LINE
 8
Layer0
10
-2759.17340276248
20
2692.4178603132
30
0.0
11
-2758.9486272614
21
2691.87520425
31
0.0
  0
LINE
 8
Layer0
10
-2758.9486272614
20
2691.87520425
30
0.0
11
-2758.59106107569
21
2691.40921492431
31
0.0
  0
LINE
 8
Layer0
10
-2758.59106107569
20
2691.40921492431
30
0.0
11
-2758.12507175
21
2691.0516487386
31
0.0
  0
LINE
 8
Layer0
10
-2758.12507175
20
2691.0516487386
30
0.0
11
-2757.58241568679
21
2690.82687323752
31
0.0
  0
LINE
 8
Layer0
10
-2757.58241568679
20
2690.82687323752
30
0.0
11
-2757.000074
21
2690.7502065
31
0.0
  0
LINE
 8
Layer0
10
-2757.000074
20
2690.7502065
30
0.0
11
-2756.4177323132
21
2690.82687323752
31
0.0
  0
LINE
 8
Layer0
10
-2756.4177323132
20
2690.82687323752
30
0.0
11
-2755.87507625
21
2691.0516487386
31
0.0
  0
LINE
 8
Layer0
10
-2755.87507625
20
2691.0516487386
30
0.0
11
-2755.40908692431
21
2691.40921492431
31
0.0
  0
LINE
 8
Layer0
10
-2765.000058
20
2723.700241
30
0.0
11
-2765.000058
21
2744.700199
31
0.0
  0
LINE
 8
Layer0
10
-2773.000042
20
2744.700199
30
0.0
11
-2773.000042
21
2723.700241
31
0.0
  0
LINE
 8
Layer0
10
-2765.000058
20
2744.700199
30
0.0
11
-2765.13635442225
21
2745.73547310986
31
0.0
  0
LINE
 8
Layer0
10
-2765.13635442225
20
2745.73547310986
30
0.0
11
-2765.53595531307
21
2746.700195
31
0.0
  0
LINE
 8
Layer0
10
-2765.53595531307
20
2746.700195
30
0.0
11
-2766.17162853211
21
2747.52862046789
31
0.0
  0
LINE
 8
Layer0
10
-2766.17162853211
20
2747.52862046789
30
0.0
11
-2767.000054
21
2748.16429368693
31
0.0
  0
LINE
 8
Layer0
10
-2767.000054
20
2748.16429368693
30
0.0
11
-2767.96477589014
21
2748.56389457775
31
0.0
  0
LINE
 8
Layer0
10
-2767.96477589014
20
2748.56389457775
30
0.0
11
-2769.00005
21
2748.700191
31
0.0
  0
LINE
 8
Layer0
10
-2769.00005
20
2748.700191
30
0.0
11
-2770.03532410986
21
2748.56389457775
31
0.0
  0
LINE
 8
Layer0
10
-2770.03532410986
20
2748.56389457775
30
0.0
11
-2771.000046
21
2748.16429368693
31
0.0
  0
LINE
 8
Layer0
10
-2771.000046
20
2748.16429368693
30
0.0
11
-2771.82847146789
21
2747.52862046789
31
0.0
  0
LINE
 8
Layer0
10
-2771.82847146789
20
2747.52862046789
30
0.0
11
-2772.46414468693
21
2746.700195
31
0.0
  0
LINE
 8
Layer0
10
-2772.46414468693
20
2746.700195
30
0.0
11
-2772.86374557775
21
2745.73547310986
31
0.0
  0
LINE
 8
Layer0
10
-2772.86374557775
20
2745.73547310986
30
0.0
11
-2773.000042
21
2744.700199
31
0.0
  0
LINE
 8
Layer0
10
-2773.000042
20
2723.700241
30
0.0
11
-2772.86374557775
21
2722.66496689014
31
0.0
  0
LINE
 8
Layer0
10
-2772.86374557775
20
2722.66496689014
30
0.0
11
-2772.46414468693
21
2721.700245
31
0.0
  0
LINE
 8
Layer0
10
-2772.46414468693
20
2721.700245
30
0.0
11
-2771.82847146789
21
2720.87181953211
31
0.0
  0
LINE
 8
Layer0
10
-2771.82847146789
20
2720.87181953211
30
0.0
11
-2771.000046
21
2720.23614631307
31
0.0
  0
LINE
 8
Layer0
10
-2771.000046
20
2720.23614631307
30
0.0
11
-2770.03532410986
21
2719.83654542225
31
0.0
  0
LINE
 8
Layer0
10
-2770.03532410986
20
2719.83654542225
30
0.0
11
-2769.00005
21
2719.700249
31
0.0
  0
LINE
 8
Layer0
10
-2769.00005
20
2719.700249
30
0.0
11
-2767.96477589014
21
2719.83654542225
31
0.0
  0
LINE
 8
Layer0
10
-2767.96477589014
20
2719.83654542225
30
0.0
11
-2767.000054
21
2720.23614631307
31
0.0
  0
LINE
 8
Layer0
10
-2767.000054
20
2720.23614631307
30
0.0
11
-2766.17162853211
21
2720.87181953211
31
0.0
  0
LINE
 8
Layer0
10
-2766.17162853211
20
2720.87181953211
30
0.0
11
-2765.53595531307
21
2721.700245
31
0.0
  0
LINE
 8
Layer0
10
-2765.53595531307
20
2721.700245
30
0.0
11
-2765.13635442225
21
2722.66496689014
31
0.0
  0
LINE
 8
Layer0
10
-2765.13635442225
20
2722.66496689014
30
0.0
11
-2765.000058
21
2723.700241
31
0.0
  0
LINE
 8
Layer0
10
-2777.500033
20
2734.20022
30
0.0
11
-2777.55114415834
21
2734.5884477912
31
0.0
  0
LINE
 8
Layer0
10
-2777.55114415834
20
2734.5884477912
30
0.0
11
-2777.7009944924
21
2734.9502185
31
0.0
  0
LINE
 8
Layer0
10
-2777.7009944924
20
2734.9502185
30
0.0
11
-2777.93937194954
21
2735.26087805046
31
0.0
  0
LINE
 8
Layer0
10
-2777.93937194954
20
2735.26087805046
30
0.0
11
-2778.2500315
21
2735.4992555076
31
0.0
  0
LINE
 8
Layer0
10
-2778.2500315
20
2735.4992555076
30
0.0
11
-2778.6118022088
21
2735.64910584166
31
0.0
  0
LINE
 8
Layer0
10
-2778.6118022088
20
2735.64910584166
30
0.0
11
-2779.00003
21
2735.700217
31
0.0
  0
LINE
 8
Layer0
10
-2779.00003
20
2735.700217
30
0.0
11
-2779.3882577912
21
2735.64910584166
31
0.0
  0
LINE
 8
Layer0
10
-2779.3882577912
20
2735.64910584166
30
0.0
11
-2779.7500285
21
2735.4992555076
31
0.0
  0
LINE
 8
Layer0
10
-2779.7500285
20
2735.4992555076
30
0.0
11
-2780.06068805046
21
2735.26087805046
31
0.0
  0
LINE
 8
Layer0
10
-2780.06068805046
20
2735.26087805046
30
0.0
11
-2780.2990655076
21
2734.9502185
31
0.0
  0
LINE
 8
Layer0
10
-2780.2990655076
20
2734.9502185
30
0.0
11
-2780.44891584166
21
2734.5884477912
31
0.0
  0
LINE
 8
Layer0
10
-2780.44891584166
20
2734.5884477912
30
0.0
11
-2780.500027
21
2734.20022
31
0.0
  0
LINE
 8
Layer0
10
-2780.500027
20
2734.20022
30
0.0
11
-2780.44891584166
21
2733.8119922088
31
0.0
  0
LINE
 8
Layer0
10
-2780.44891584166
20
2733.8119922088
30
0.0
11
-2780.2990655076
21
2733.4502215
31
0.0
  0
LINE
 8
Layer0
10
-2780.2990655076
20
2733.4502215
30
0.0
11
-2780.06068805046
21
2733.13956194954
31
0.0
  0
LINE
 8
Layer0
10
-2780.06068805046
20
2733.13956194954
30
0.0
11
-2779.7500285
21
2732.9011844924
31
0.0
  0
LINE
 8
Layer0
10
-2779.7500285
20
2732.9011844924
30
0.0
11
-2779.3882577912
21
2732.75133415834
31
0.0
  0
LINE
 8
Layer0
10
-2779.3882577912
20
2732.75133415834
30
0.0
11
-2779.00003
21
2732.700223
31
0.0
  0
LINE
 8
Layer0
10
-2779.00003
20
2732.700223
30
0.0
11
-2778.6118022088
21
2732.75133415834
31
0.0
  0
LINE
 8
Layer0
10
-2778.6118022088
20
2732.75133415834
30
0.0
11
-2778.2500315
21
2732.9011844924
31
0.0
  0
LINE
 8
Layer0
10
-2778.2500315
20
2732.9011844924
30
0.0
11
-2777.93937194954
21
2733.13956194954
31
0.0
  0
LINE
 8
Layer0
10
-2777.93937194954
20
2733.13956194954
30
0.0
11
-2777.7009944924
21
2733.4502215
31
0.0
  0
LINE
 8
Layer0
10
-2777.7009944924
20
2733.4502215
30
0.0
11
-2777.55114415834
21
2733.8119922088
31
0.0
  0
LINE
 8
Layer0
10
-2777.55114415834
20
2733.8119922088
30
0.0
11
-2777.500033
21
2734.20022
31
0.0
  0
LINE
 8
Layer0
10
-2757.500073
20
2734.20022
30
0.0
11
-2757.55118415834
21
2734.5884477912
31
0.0
  0
LINE
 8
Layer0
10
-2757.55118415834
20
2734.5884477912
30
0.0
11
-2757.7010344924
21
2734.9502185
31
0.0
  0
LINE
 8
Layer0
10
-2757.7010344924
20
2734.9502185
30
0.0
11
-2757.93941194954
21
2735.26087805046
31
0.0
  0
LINE
 8
Layer0
10
-2757.93941194954
20
2735.26087805046
30
0.0
11
-2758.2500715
21
2735.4992555076
31
0.0
  0
LINE
 8
Layer0
10
-2758.2500715
20
2735.4992555076
30
0.0
11
-2758.6118422088
21
2735.64910584166
31
0.0
  0
LINE
 8
Layer0
10
-2758.6118422088
20
2735.64910584166
30
0.0
11
-2759.00007
21
2735.700217
31
0.0
  0
LINE
 8
Layer0
10
-2759.00007
20
2735.700217
30
0.0
11
-2759.3882977912
21
2735.64910584166
31
0.0
  0
LINE
 8
Layer0
10
-2759.3882977912
20
2735.64910584166
30
0.0
11
-2759.7500685
21
2735.4992555076
31
0.0
  0
LINE
 8
Layer0
10
-2759.7500685
20
2735.4992555076
30
0.0
11
-2760.06072805046
21
2735.26087805046
31
0.0
  0
LINE
 8
Layer0
10
-2760.06072805046
20
2735.26087805046
30
0.0
11
-2760.2991055076
21
2734.9502185
31
0.0
  0
LINE
 8
Layer0
10
-2760.2991055076
20
2734.9502185
30
0.0
11
-2760.44895584166
21
2734.5884477912
31
0.0
  0
LINE
 8
Layer0
10
-2760.44895584166
20
2734.5884477912
30
0.0
11
-2760.500067
21
2734.20022
31
0.0
  0
LINE
 8
Layer0
10
-2760.500067
20
2734.20022
30
0.0
11
-2760.44895584166
21
2733.8119922088
31
0.0
  0
LINE
 8
Layer0
10
-2760.44895584166
20
2733.8119922088
30
0.0
11
-2760.2991055076
21
2733.4502215
31
0.0
  0
LINE
 8
Layer0
10
-2760.2991055076
20
2733.4502215
30
0.0
11
-2760.06072805046
21
2733.13956194954
31
0.0
  0
LINE
 8
Layer0
10
-2760.06072805046
20
2733.13956194954
30
0.0
11
-2759.7500685
21
2732.9011844924
31
0.0
  0
LINE
 8
Layer0
10
-2759.7500685
20
2732.9011844924
30
0.0
11
-2759.3882977912
21
2732.75133415834
31
0.0
  0
LINE
 8
Layer0
10
-2759.3882977912
20
2732.75133415834
30
0.0
11
-2759.00007
21
2732.700223
31
0.0
  0
LINE
 8
Layer0
10
-2759.00007
20
2732.700223
30
0.0
11
-2758.6118422088
21
2732.75133415834
31
0.0
  0
LINE
 8
Layer0
10
-2758.6118422088
20
2732.75133415834
30
0.0
11
-2758.2500715
21
2732.9011844924
31
0.0
  0
LINE
 8
Layer0
10
-2758.2500715
20
2732.9011844924
30
0.0
11
-2757.93941194954
21
2733.13956194954
31
0.0
  0
LINE
 8
Layer0
10
-2757.93941194954
20
2733.13956194954
30
0.0
11
-2757.7010344924
21
2733.4502215
31
0.0
  0
LINE
 8
Layer0
10
-2757.7010344924
20
2733.4502215
30
0.0
11
-2757.55118415834
21
2733.8119922088
31
0.0
  0
LINE
 8
Layer0
10
-2757.55118415834
20
2733.8119922088
30
0.0
11
-2757.500073
21
2734.20022
31
0.0
  0
LINE
 8
Layer0
10
-2666.51058640566
20
2707.00015
30
0.0
11
-2636.51058640566
21
2707.00015
31
0.0
  0
LINE
 8
Layer0
10
-2666.51058640566
20
2707.00015
30
0.0
11
-2666.51058640566
21
2661.00029
31
0.0
  0
LINE
 8
Layer0
10
-2666.51058640566
20
2661.00029
30
0.0
11
-2636.51058640566
21
2661.00029
31
0.0
  0
LINE
 8
Layer0
10
-2731.48985359434
20
2661.00029
30
0.0
11
-2701.48985359434
21
2661.00029
31
0.0
  0
LINE
 8
Layer0
10
-2701.48985359434
20
2661.00029
30
0.0
11
-2701.48985359434
21
2707.00015
31
0.0
  0
LINE
 8
Layer0
10
-2701.48985359434
20
2707.00015
30
0.0
11
-2731.48985359434
21
2707.00015
31
0.0
 0
ENDSEC
 0
EOF
