G75*
G70*
%OFA0B0*%
%FSLAX24Y24*%
%IPPOS*%
%LPD*%
%AMOC8*
5,1,8,0,0,1.08239X$1,22.5*
%
%ADD10C,0.0130*%
%ADD11C,0.0080*%
%ADD12C,0.0110*%
%ADD13C,0.0300*%
%ADD14C,0.0400*%
%ADD15C,0.0100*%
%ADD16C,0.0200*%
%ADD17R,0.0063X0.0063*%
%ADD18R,0.0063X0.0126*%
%ADD19R,0.0063X0.0189*%
%ADD20R,0.0063X0.0252*%
%ADD21R,0.0063X0.6488*%
%ADD22R,0.0063X0.4220*%
%ADD23R,0.0063X0.8063*%
%ADD24R,0.0063X0.7055*%
%ADD25R,0.0063X0.0315*%
%ADD26R,0.0063X0.2457*%
%ADD27R,0.0063X0.1008*%
%ADD28R,0.0063X0.0882*%
%ADD29R,0.0063X1.8268*%
%ADD30R,0.0063X1.2472*%
%ADD31R,0.0063X0.0756*%
%ADD32R,0.0063X0.0819*%
%ADD33R,0.0063X0.0567*%
%ADD34R,0.0063X0.0504*%
%ADD35R,0.0063X0.0945*%
%ADD36R,0.0063X0.0630*%
%ADD37R,0.0063X0.1071*%
%ADD38R,0.0063X0.0441*%
%ADD39R,0.0063X0.1890*%
%ADD40R,0.0063X0.1197*%
%ADD41R,0.0063X0.1764*%
%ADD42R,0.0063X0.0693*%
%ADD43R,0.0063X0.0378*%
%ADD44R,0.0063X0.2079*%
%ADD45R,0.0063X0.1386*%
%ADD46R,0.0063X0.1512*%
%ADD47R,0.0063X0.2142*%
%ADD48R,0.0063X0.1449*%
%ADD49R,0.0063X0.1827*%
%ADD50R,0.0063X0.1575*%
%ADD51R,0.0063X0.1260*%
%ADD52R,0.0063X0.1134*%
%ADD53R,0.0063X0.1323*%
%ADD54R,0.0063X0.2205*%
%ADD55R,0.0063X0.1638*%
%ADD56R,0.0063X0.1701*%
%ADD57R,0.0063X0.1953*%
%ADD58R,0.0063X0.2016*%
%ADD59R,0.0063X0.2268*%
%ADD60R,0.0063X2.0283*%
%ADD61C,0.0000*%
D10*
X005221Y011830D02*
X005221Y012183D01*
X005221Y011830D02*
X005309Y011830D01*
X005663Y012183D01*
X005751Y012183D01*
X005751Y011830D01*
X005486Y012437D02*
X005486Y012791D01*
X005751Y013045D02*
X005574Y013222D01*
X005751Y013399D01*
X005221Y013399D01*
X005221Y013653D02*
X005221Y013830D01*
X005221Y013741D02*
X005751Y013741D01*
X005751Y013653D02*
X005751Y013830D01*
X005751Y014058D02*
X005221Y014412D01*
X005751Y014412D01*
X005751Y014058D02*
X005221Y014058D01*
X005221Y013045D02*
X005751Y013045D01*
X005751Y015330D02*
X005663Y015330D01*
X005486Y015506D01*
X005221Y015506D01*
X005486Y015506D02*
X005663Y015683D01*
X005751Y015683D01*
X005486Y015937D02*
X005486Y016291D01*
X005221Y016545D02*
X005751Y016545D01*
X005574Y016722D01*
X005751Y016899D01*
X005221Y016899D01*
X005221Y017153D02*
X005221Y017330D01*
X005221Y017241D02*
X005751Y017241D01*
X005751Y017153D02*
X005751Y017330D01*
X005751Y017558D02*
X005221Y017912D01*
X005751Y017912D01*
X005751Y017558D02*
X005221Y017558D01*
X005221Y018705D02*
X005751Y019058D01*
X005751Y018705D02*
X005221Y019058D01*
X005486Y019312D02*
X005486Y019666D01*
X005751Y019920D02*
X005574Y020097D01*
X005751Y020274D01*
X005221Y020274D01*
X005221Y020528D02*
X005221Y020705D01*
X005221Y020616D02*
X005751Y020616D01*
X005751Y020528D02*
X005751Y020705D01*
X005751Y020933D02*
X005221Y021287D01*
X005751Y021287D01*
X005751Y020933D02*
X005221Y020933D01*
X005221Y019920D02*
X005751Y019920D01*
D11*
X007843Y008211D02*
X007843Y007891D01*
X008004Y007891D01*
X008057Y007944D01*
X008057Y008051D01*
X008004Y008104D01*
X007843Y008104D01*
X007942Y007764D02*
X007942Y007711D01*
X007942Y007604D02*
X007942Y007391D01*
X007889Y007391D02*
X007996Y007391D01*
X008150Y007391D02*
X008150Y007551D01*
X008204Y007604D01*
X008257Y007551D01*
X008257Y007391D01*
X008364Y007391D02*
X008364Y007604D01*
X008310Y007604D01*
X008257Y007551D01*
X008511Y007604D02*
X008564Y007604D01*
X008671Y007497D01*
X008671Y007391D02*
X008671Y007604D01*
X008826Y007551D02*
X008826Y007497D01*
X009039Y007497D01*
X009039Y007444D02*
X009039Y007551D01*
X008986Y007604D01*
X008879Y007604D01*
X008826Y007551D01*
X008879Y007391D02*
X008986Y007391D01*
X009039Y007444D01*
X009194Y007391D02*
X009194Y007551D01*
X009247Y007604D01*
X009354Y007604D01*
X009407Y007551D01*
X009407Y007711D02*
X009407Y007391D01*
X009669Y007391D02*
X009669Y007711D01*
X009776Y007711D02*
X009562Y007711D01*
X009562Y007891D02*
X009562Y008211D01*
X009562Y008051D02*
X009776Y008051D01*
X009776Y007891D02*
X009776Y008211D01*
X009407Y008051D02*
X009407Y007944D01*
X009354Y007891D01*
X009247Y007891D01*
X009194Y007944D01*
X009194Y008051D01*
X009247Y008104D01*
X009354Y008104D01*
X009407Y008051D01*
X009039Y008104D02*
X008932Y008104D01*
X008986Y008158D02*
X008986Y007944D01*
X008932Y007891D01*
X008794Y007944D02*
X008794Y008051D01*
X008740Y008104D01*
X008633Y008104D01*
X008580Y008051D01*
X008580Y007997D01*
X008794Y007997D01*
X008794Y007944D02*
X008740Y007891D01*
X008633Y007891D01*
X008425Y007891D02*
X008425Y008104D01*
X008265Y008104D01*
X008212Y008051D01*
X008212Y007891D01*
X007996Y007604D02*
X007942Y007604D01*
X007750Y007551D02*
X007697Y007604D01*
X007537Y007604D01*
X007590Y007497D02*
X007697Y007497D01*
X007750Y007551D01*
X007750Y007391D02*
X007590Y007391D01*
X007537Y007444D01*
X007590Y007497D01*
X007382Y007604D02*
X007275Y007604D01*
X007328Y007658D02*
X007328Y007444D01*
X007275Y007391D01*
X007136Y007444D02*
X007083Y007391D01*
X006976Y007391D01*
X006923Y007444D01*
X006923Y007551D01*
X006976Y007604D01*
X007083Y007604D01*
X007136Y007551D01*
X007136Y007444D01*
X006768Y007391D02*
X006768Y007604D01*
X006768Y007497D02*
X006661Y007604D01*
X006608Y007604D01*
X010562Y007891D02*
X010776Y007891D01*
X010669Y007891D02*
X010669Y008211D01*
X010776Y008104D01*
X011093Y008104D02*
X011254Y008104D01*
X011307Y008051D01*
X011307Y007944D01*
X011254Y007891D01*
X011093Y007891D01*
X011093Y008211D01*
X011462Y008051D02*
X011462Y007891D01*
X011462Y008051D02*
X011515Y008104D01*
X011675Y008104D01*
X011675Y007891D01*
X011830Y007997D02*
X012044Y007997D01*
X012044Y007944D02*
X012044Y008051D01*
X011990Y008104D01*
X011883Y008104D01*
X011830Y008051D01*
X011830Y007997D01*
X011883Y007891D02*
X011990Y007891D01*
X012044Y007944D01*
X012182Y007891D02*
X012236Y007944D01*
X012236Y008158D01*
X012289Y008104D02*
X012182Y008104D01*
X012444Y008051D02*
X012497Y008104D01*
X012604Y008104D01*
X012657Y008051D01*
X012657Y007944D01*
X012604Y007891D01*
X012497Y007891D01*
X012444Y007944D01*
X012444Y008051D01*
X012812Y008051D02*
X013026Y008051D01*
X013026Y007891D02*
X013026Y008211D01*
X012812Y008211D02*
X012812Y007891D01*
X012812Y007711D02*
X012812Y007391D01*
X012812Y007551D02*
X013026Y007551D01*
X013026Y007391D02*
X013026Y007711D01*
X012657Y007551D02*
X012604Y007604D01*
X012497Y007604D01*
X012444Y007551D01*
X012444Y007497D01*
X012657Y007497D01*
X012657Y007444D02*
X012657Y007551D01*
X012657Y007444D02*
X012604Y007391D01*
X012497Y007391D01*
X012289Y007444D02*
X012236Y007497D01*
X012076Y007497D01*
X012076Y007551D02*
X012076Y007391D01*
X012236Y007391D01*
X012289Y007444D01*
X012236Y007604D02*
X012129Y007604D01*
X012076Y007551D01*
X011921Y007604D02*
X011814Y007604D01*
X011867Y007658D02*
X011867Y007444D01*
X011814Y007391D01*
X011675Y007444D02*
X011675Y007551D01*
X011622Y007604D01*
X011515Y007604D01*
X011462Y007551D01*
X011462Y007497D01*
X011675Y007497D01*
X011675Y007444D02*
X011622Y007391D01*
X011515Y007391D01*
X011307Y007391D02*
X011307Y007604D01*
X011307Y007497D02*
X011200Y007604D01*
X011147Y007604D01*
X014128Y008104D02*
X014181Y008104D01*
X014288Y007997D01*
X014288Y007891D02*
X014288Y008104D01*
X014443Y008051D02*
X014496Y008104D01*
X014603Y008104D01*
X014656Y008051D01*
X014656Y007944D01*
X014603Y007891D01*
X014496Y007891D01*
X014443Y007944D01*
X014443Y008051D01*
X014795Y008104D02*
X014902Y008104D01*
X014848Y008158D02*
X014848Y007944D01*
X014795Y007891D01*
X014725Y007711D02*
X014725Y007391D01*
X014831Y007391D02*
X014618Y007391D01*
X014831Y007604D02*
X014725Y007711D01*
X015057Y007944D02*
X015057Y008051D01*
X015110Y008104D01*
X015217Y008104D01*
X015270Y008051D01*
X015270Y007944D01*
X015217Y007891D01*
X015110Y007891D01*
X015057Y007944D01*
X015425Y007891D02*
X015425Y008211D01*
X015532Y008104D01*
X015638Y008211D01*
X015638Y007891D01*
X015715Y007604D02*
X015662Y007551D01*
X015662Y007497D01*
X015875Y007497D01*
X015875Y007444D02*
X015875Y007551D01*
X015822Y007604D01*
X015715Y007604D01*
X015507Y007604D02*
X015507Y007391D01*
X015507Y007497D02*
X015400Y007604D01*
X015347Y007604D01*
X015715Y007391D02*
X015822Y007391D01*
X015875Y007444D01*
X016030Y007391D02*
X016190Y007391D01*
X016243Y007444D01*
X016243Y007551D01*
X016190Y007604D01*
X016030Y007604D01*
X016030Y007711D02*
X016030Y007391D01*
X016398Y007391D02*
X016398Y007604D01*
X016398Y007391D02*
X016558Y007391D01*
X016612Y007444D01*
X016612Y007604D01*
X016758Y007604D02*
X016812Y007604D01*
X016919Y007497D01*
X016919Y007391D02*
X016919Y007604D01*
X017057Y007604D02*
X017164Y007604D01*
X017111Y007658D02*
X017111Y007444D01*
X017057Y007391D01*
X017319Y007391D02*
X017532Y007604D01*
X017687Y007711D02*
X017901Y007711D01*
X017901Y007391D01*
X017687Y007391D01*
X017532Y007391D02*
X017319Y007604D01*
X017419Y007784D02*
X017419Y008104D01*
X017258Y008104D01*
X017205Y008051D01*
X017205Y007944D01*
X017258Y007891D01*
X017419Y007891D01*
X017573Y007997D02*
X017787Y007997D01*
X017787Y007944D02*
X017787Y008051D01*
X017734Y008104D01*
X017627Y008104D01*
X017573Y008051D01*
X017573Y007997D01*
X017627Y007891D02*
X017734Y007891D01*
X017787Y007944D01*
X017926Y007891D02*
X017979Y007944D01*
X017979Y008158D01*
X018032Y008104D02*
X017926Y008104D01*
X018187Y008158D02*
X018241Y008211D01*
X018347Y008211D01*
X018401Y008158D01*
X018401Y008104D01*
X018347Y008051D01*
X018241Y008051D01*
X018187Y007997D01*
X018187Y007944D01*
X018241Y007891D01*
X018347Y007891D01*
X018401Y007944D01*
X017901Y007551D02*
X017794Y007551D01*
X017050Y007784D02*
X017050Y008104D01*
X016890Y008104D01*
X016837Y008051D01*
X016837Y007944D01*
X016890Y007891D01*
X017050Y007891D01*
X016682Y007944D02*
X016682Y008051D01*
X016629Y008104D01*
X016522Y008104D01*
X016468Y008051D01*
X016468Y007997D01*
X016682Y007997D01*
X016682Y007944D02*
X016629Y007891D01*
X016522Y007891D01*
X016314Y007891D02*
X016314Y008104D01*
X016314Y007997D02*
X016207Y008104D01*
X016153Y008104D01*
X019608Y007604D02*
X019661Y007604D01*
X019768Y007497D01*
X019768Y007391D02*
X019768Y007604D01*
X019923Y007551D02*
X019976Y007604D01*
X020083Y007604D01*
X020136Y007551D01*
X020136Y007444D01*
X020083Y007391D01*
X019976Y007391D01*
X019923Y007444D01*
X019923Y007551D01*
X020275Y007604D02*
X020382Y007604D01*
X020328Y007658D02*
X020328Y007444D01*
X020275Y007391D01*
X020537Y007444D02*
X020590Y007497D01*
X020697Y007497D01*
X020750Y007551D01*
X020697Y007604D01*
X020537Y007604D01*
X020537Y007444D02*
X020590Y007391D01*
X020750Y007391D01*
X020889Y007391D02*
X020996Y007391D01*
X020942Y007391D02*
X020942Y007604D01*
X020996Y007604D01*
X020942Y007711D02*
X020942Y007764D01*
X021004Y007891D02*
X020843Y007891D01*
X020843Y008211D01*
X020843Y008104D02*
X021004Y008104D01*
X021057Y008051D01*
X021057Y007944D01*
X021004Y007891D01*
X021212Y007891D02*
X021212Y008051D01*
X021265Y008104D01*
X021425Y008104D01*
X021425Y007891D01*
X021580Y007997D02*
X021794Y007997D01*
X021794Y007944D02*
X021794Y008051D01*
X021740Y008104D01*
X021633Y008104D01*
X021580Y008051D01*
X021580Y007997D01*
X021633Y007891D02*
X021740Y007891D01*
X021794Y007944D01*
X021932Y007891D02*
X021986Y007944D01*
X021986Y008158D01*
X022039Y008104D02*
X021932Y008104D01*
X022194Y008051D02*
X022247Y008104D01*
X022354Y008104D01*
X022407Y008051D01*
X022407Y007944D01*
X022354Y007891D01*
X022247Y007891D01*
X022194Y007944D01*
X022194Y008051D01*
X022562Y008051D02*
X022776Y008051D01*
X022776Y007891D02*
X022776Y008211D01*
X022562Y008211D02*
X022562Y007891D01*
X022562Y007711D02*
X022776Y007711D01*
X022669Y007711D02*
X022669Y007391D01*
X022407Y007391D02*
X022407Y007711D01*
X022354Y007604D02*
X022247Y007604D01*
X022194Y007551D01*
X022194Y007391D01*
X022039Y007444D02*
X022039Y007551D01*
X021986Y007604D01*
X021879Y007604D01*
X021826Y007551D01*
X021826Y007497D01*
X022039Y007497D01*
X022039Y007444D02*
X021986Y007391D01*
X021879Y007391D01*
X021671Y007391D02*
X021671Y007604D01*
X021671Y007497D02*
X021564Y007604D01*
X021511Y007604D01*
X021364Y007604D02*
X021310Y007604D01*
X021257Y007551D01*
X021204Y007604D01*
X021150Y007551D01*
X021150Y007391D01*
X021257Y007391D02*
X021257Y007551D01*
X021364Y007604D02*
X021364Y007391D01*
X022354Y007604D02*
X022407Y007551D01*
X023357Y007891D02*
X023570Y007891D01*
X023357Y008104D01*
X023357Y008158D01*
X023410Y008211D01*
X023517Y008211D01*
X023570Y008158D01*
X024093Y008211D02*
X024093Y007891D01*
X024254Y007891D01*
X024307Y007944D01*
X024307Y008051D01*
X024254Y008104D01*
X024093Y008104D01*
X024462Y008051D02*
X024462Y007891D01*
X024462Y008051D02*
X024515Y008104D01*
X024675Y008104D01*
X024675Y007891D01*
X024830Y007997D02*
X025044Y007997D01*
X025044Y007944D02*
X025044Y008051D01*
X024990Y008104D01*
X024883Y008104D01*
X024830Y008051D01*
X024830Y007997D01*
X024883Y007891D02*
X024990Y007891D01*
X025044Y007944D01*
X025182Y007891D02*
X025236Y007944D01*
X025236Y008158D01*
X025289Y008104D02*
X025182Y008104D01*
X025444Y008051D02*
X025497Y008104D01*
X025604Y008104D01*
X025657Y008051D01*
X025657Y007944D01*
X025604Y007891D01*
X025497Y007891D01*
X025444Y007944D01*
X025444Y008051D01*
X025812Y008051D02*
X026026Y008051D01*
X026026Y007891D02*
X026026Y008211D01*
X025812Y008211D02*
X025812Y007891D01*
X025812Y007711D02*
X025812Y007391D01*
X025812Y007551D02*
X026026Y007551D01*
X026026Y007391D02*
X026026Y007711D01*
X025657Y007551D02*
X025604Y007604D01*
X025497Y007604D01*
X025444Y007551D01*
X025444Y007497D01*
X025657Y007497D01*
X025657Y007444D02*
X025657Y007551D01*
X025657Y007444D02*
X025604Y007391D01*
X025497Y007391D01*
X025289Y007444D02*
X025236Y007497D01*
X025076Y007497D01*
X025076Y007551D02*
X025076Y007391D01*
X025236Y007391D01*
X025289Y007444D01*
X025236Y007604D02*
X025129Y007604D01*
X025076Y007551D01*
X024921Y007604D02*
X024814Y007604D01*
X024867Y007658D02*
X024867Y007444D01*
X024814Y007391D01*
X024675Y007444D02*
X024675Y007551D01*
X024622Y007604D01*
X024515Y007604D01*
X024462Y007551D01*
X024462Y007497D01*
X024675Y007497D01*
X024675Y007444D02*
X024622Y007391D01*
X024515Y007391D01*
X024307Y007391D02*
X024307Y007604D01*
X024307Y007497D02*
X024200Y007604D01*
X024147Y007604D01*
X027003Y008104D02*
X027056Y008104D01*
X027163Y007997D01*
X027163Y007891D02*
X027163Y008104D01*
X027318Y008051D02*
X027371Y008104D01*
X027478Y008104D01*
X027531Y008051D01*
X027531Y007944D01*
X027478Y007891D01*
X027371Y007891D01*
X027318Y007944D01*
X027318Y008051D01*
X027670Y008104D02*
X027777Y008104D01*
X027723Y008158D02*
X027723Y007944D01*
X027670Y007891D01*
X027796Y007711D02*
X027903Y007711D01*
X027956Y007658D01*
X027796Y007711D02*
X027743Y007658D01*
X027743Y007604D01*
X027956Y007391D01*
X027743Y007391D01*
X027985Y007891D02*
X027932Y007944D01*
X027932Y008051D01*
X027985Y008104D01*
X028092Y008104D01*
X028145Y008051D01*
X028145Y007944D01*
X028092Y007891D01*
X027985Y007891D01*
X028300Y007891D02*
X028300Y008211D01*
X028407Y008104D01*
X028513Y008211D01*
X028513Y007891D01*
X028525Y007604D02*
X028472Y007604D01*
X028525Y007604D02*
X028632Y007497D01*
X028632Y007391D02*
X028632Y007604D01*
X028787Y007551D02*
X028787Y007497D01*
X029000Y007497D01*
X029000Y007444D02*
X029000Y007551D01*
X028947Y007604D01*
X028840Y007604D01*
X028787Y007551D01*
X028840Y007391D02*
X028947Y007391D01*
X029000Y007444D01*
X029155Y007391D02*
X029315Y007391D01*
X029368Y007444D01*
X029368Y007551D01*
X029315Y007604D01*
X029155Y007604D01*
X029155Y007711D02*
X029155Y007391D01*
X029523Y007391D02*
X029523Y007604D01*
X029523Y007391D02*
X029683Y007391D01*
X029737Y007444D01*
X029737Y007604D01*
X029883Y007604D02*
X029937Y007604D01*
X030044Y007497D01*
X030044Y007391D02*
X030044Y007604D01*
X030182Y007604D02*
X030289Y007604D01*
X030236Y007658D02*
X030236Y007444D01*
X030182Y007391D01*
X030444Y007391D02*
X030657Y007604D01*
X030812Y007711D02*
X031026Y007711D01*
X031026Y007391D01*
X030812Y007391D01*
X030657Y007391D02*
X030444Y007604D01*
X030294Y007784D02*
X030294Y008104D01*
X030133Y008104D01*
X030080Y008051D01*
X030080Y007944D01*
X030133Y007891D01*
X030294Y007891D01*
X030448Y007997D02*
X030662Y007997D01*
X030662Y007944D02*
X030662Y008051D01*
X030609Y008104D01*
X030502Y008104D01*
X030448Y008051D01*
X030448Y007997D01*
X030502Y007891D02*
X030609Y007891D01*
X030662Y007944D01*
X030801Y007891D02*
X030854Y007944D01*
X030854Y008158D01*
X030907Y008104D02*
X030801Y008104D01*
X031062Y008158D02*
X031116Y008211D01*
X031222Y008211D01*
X031276Y008158D01*
X031276Y008104D01*
X031222Y008051D01*
X031116Y008051D01*
X031062Y007997D01*
X031062Y007944D01*
X031116Y007891D01*
X031222Y007891D01*
X031276Y007944D01*
X031026Y007551D02*
X030919Y007551D01*
X029925Y007784D02*
X029925Y008104D01*
X029765Y008104D01*
X029712Y008051D01*
X029712Y007944D01*
X029765Y007891D01*
X029925Y007891D01*
X029557Y007944D02*
X029557Y008051D01*
X029504Y008104D01*
X029397Y008104D01*
X029343Y008051D01*
X029343Y007997D01*
X029557Y007997D01*
X029557Y007944D02*
X029504Y007891D01*
X029397Y007891D01*
X029189Y007891D02*
X029189Y008104D01*
X029189Y007997D02*
X029082Y008104D01*
X029028Y008104D01*
X033108Y007604D02*
X033161Y007604D01*
X033268Y007497D01*
X033268Y007391D02*
X033268Y007604D01*
X033423Y007551D02*
X033476Y007604D01*
X033583Y007604D01*
X033636Y007551D01*
X033636Y007444D01*
X033583Y007391D01*
X033476Y007391D01*
X033423Y007444D01*
X033423Y007551D01*
X033775Y007604D02*
X033882Y007604D01*
X033828Y007658D02*
X033828Y007444D01*
X033775Y007391D01*
X034037Y007444D02*
X034090Y007497D01*
X034197Y007497D01*
X034250Y007551D01*
X034197Y007604D01*
X034037Y007604D01*
X034037Y007444D02*
X034090Y007391D01*
X034250Y007391D01*
X034389Y007391D02*
X034496Y007391D01*
X034442Y007391D02*
X034442Y007604D01*
X034496Y007604D01*
X034442Y007711D02*
X034442Y007764D01*
X034650Y007551D02*
X034650Y007391D01*
X034757Y007391D02*
X034757Y007551D01*
X034704Y007604D01*
X034650Y007551D01*
X034757Y007551D02*
X034810Y007604D01*
X034864Y007604D01*
X034864Y007391D01*
X035011Y007604D02*
X035064Y007604D01*
X035171Y007497D01*
X035171Y007391D02*
X035171Y007604D01*
X035326Y007551D02*
X035326Y007497D01*
X035539Y007497D01*
X035539Y007444D02*
X035539Y007551D01*
X035486Y007604D01*
X035379Y007604D01*
X035326Y007551D01*
X035379Y007391D02*
X035486Y007391D01*
X035539Y007444D01*
X035694Y007391D02*
X035694Y007551D01*
X035747Y007604D01*
X035854Y007604D01*
X035907Y007551D01*
X035907Y007711D02*
X035907Y007391D01*
X036169Y007391D02*
X036169Y007711D01*
X036276Y007711D02*
X036062Y007711D01*
X036116Y007891D02*
X036062Y007944D01*
X036062Y007997D01*
X036116Y008051D01*
X036276Y008051D01*
X036276Y007891D02*
X036276Y008211D01*
X036116Y008211D01*
X036062Y008158D01*
X036062Y008104D01*
X036116Y008051D01*
X036116Y007891D02*
X036276Y007891D01*
X035907Y007944D02*
X035907Y008051D01*
X035854Y008104D01*
X035747Y008104D01*
X035694Y008051D01*
X035694Y007997D01*
X035907Y007997D01*
X035907Y007944D02*
X035854Y007891D01*
X035747Y007891D01*
X035539Y007944D02*
X035539Y008051D01*
X035486Y008104D01*
X035326Y008104D01*
X035326Y008211D02*
X035326Y007891D01*
X035486Y007891D01*
X035539Y007944D01*
X037600Y007711D02*
X037600Y007391D01*
X037760Y007391D01*
X037814Y007444D01*
X037814Y007551D01*
X037760Y007604D01*
X037600Y007604D01*
X037968Y007551D02*
X037968Y007497D01*
X038182Y007497D01*
X038182Y007444D02*
X038182Y007551D01*
X038129Y007604D01*
X038022Y007604D01*
X037968Y007551D01*
X038022Y007391D02*
X038129Y007391D01*
X038182Y007444D01*
X038337Y007444D02*
X038337Y007551D01*
X038390Y007604D01*
X038550Y007604D01*
X038550Y007711D02*
X038550Y007391D01*
X038390Y007391D01*
X038337Y007444D01*
X038689Y007391D02*
X038742Y007444D01*
X038742Y007658D01*
X038689Y007604D02*
X038796Y007604D01*
X038951Y007551D02*
X038951Y007391D01*
X039111Y007391D01*
X039164Y007444D01*
X039111Y007497D01*
X038951Y007497D01*
X038951Y007551D02*
X039004Y007604D01*
X039111Y007604D01*
X039319Y007551D02*
X039319Y007497D01*
X039532Y007497D01*
X039532Y007444D02*
X039532Y007551D01*
X039479Y007604D01*
X039372Y007604D01*
X039319Y007551D01*
X039372Y007391D02*
X039479Y007391D01*
X039532Y007444D01*
X039687Y007391D02*
X039687Y007711D01*
X039687Y007551D02*
X039901Y007551D01*
X039901Y007391D02*
X039901Y007711D01*
X039044Y013929D02*
X039151Y014035D01*
X038831Y014035D01*
X038831Y013929D02*
X038831Y014142D01*
X038831Y014297D02*
X039044Y014510D01*
X039098Y014510D01*
X039151Y014457D01*
X039151Y014350D01*
X039098Y014297D01*
X038831Y014297D02*
X038831Y014510D01*
X038938Y014665D02*
X038831Y014772D01*
X038938Y014879D01*
X039151Y014879D01*
X039151Y014665D02*
X038938Y014665D01*
X038831Y015402D02*
X038831Y015509D01*
X038831Y015455D02*
X039151Y015455D01*
X039151Y015402D02*
X039151Y015509D01*
X039151Y015647D02*
X038831Y015861D01*
X039151Y015861D01*
X039151Y015647D02*
X038831Y015647D01*
X020320Y008158D02*
X020267Y008211D01*
X020160Y008211D01*
X020107Y008158D01*
X020107Y008104D01*
X020320Y007891D01*
X020107Y007891D01*
X043259Y035536D02*
X043206Y035589D01*
X043206Y035696D01*
X043259Y035749D01*
X043526Y035749D01*
X043473Y035904D02*
X043419Y035904D01*
X043366Y035957D01*
X043366Y036064D01*
X043313Y036118D01*
X043259Y036118D01*
X043206Y036064D01*
X043206Y035957D01*
X043259Y035904D01*
X043473Y035904D02*
X043526Y035957D01*
X043526Y036064D01*
X043473Y036118D01*
X043526Y036272D02*
X043526Y036432D01*
X043473Y036486D01*
X043419Y036486D01*
X043366Y036432D01*
X043366Y036272D01*
X043206Y036272D02*
X043526Y036272D01*
X043366Y036432D02*
X043313Y036486D01*
X043259Y036486D01*
X043206Y036432D01*
X043206Y036272D01*
X043259Y035536D02*
X043526Y035536D01*
X030526Y038141D02*
X030312Y038141D01*
X030157Y038141D02*
X029944Y038354D01*
X029789Y038354D02*
X029682Y038354D01*
X029736Y038408D02*
X029736Y038194D01*
X029682Y038141D01*
X029544Y038141D02*
X029544Y038354D01*
X029544Y038247D02*
X029437Y038354D01*
X029383Y038354D01*
X029237Y038354D02*
X029237Y038194D01*
X029183Y038141D01*
X029023Y038141D01*
X029023Y038354D01*
X028868Y038301D02*
X028815Y038354D01*
X028655Y038354D01*
X028655Y038461D02*
X028655Y038141D01*
X028815Y038141D01*
X028868Y038194D01*
X028868Y038301D01*
X028500Y038301D02*
X028447Y038354D01*
X028340Y038354D01*
X028287Y038301D01*
X028287Y038247D01*
X028500Y038247D01*
X028500Y038194D02*
X028500Y038301D01*
X028500Y038194D02*
X028447Y038141D01*
X028340Y038141D01*
X028132Y038141D02*
X028132Y038354D01*
X028132Y038247D02*
X028025Y038354D01*
X027972Y038354D01*
X027456Y038301D02*
X027350Y038301D01*
X027456Y038461D02*
X027243Y038461D01*
X027456Y038461D02*
X027456Y038141D01*
X027088Y038194D02*
X027035Y038247D01*
X026875Y038247D01*
X026875Y038301D02*
X026875Y038141D01*
X027035Y038141D01*
X027088Y038194D01*
X027035Y038354D02*
X026928Y038354D01*
X026875Y038301D01*
X026720Y038354D02*
X026560Y038354D01*
X026506Y038301D01*
X026506Y038141D01*
X026720Y038141D02*
X026720Y038354D01*
X024776Y038461D02*
X024562Y038461D01*
X024562Y038408D01*
X024776Y038194D01*
X024776Y038141D01*
X024562Y038141D01*
X024407Y038301D02*
X024194Y038301D01*
X024039Y038461D02*
X023932Y038354D01*
X023826Y038461D01*
X023826Y038141D01*
X023671Y038194D02*
X023617Y038141D01*
X023511Y038141D01*
X023457Y038194D01*
X023457Y038408D01*
X023511Y038461D01*
X023617Y038461D01*
X023671Y038408D01*
X023671Y038194D01*
X024039Y038141D02*
X024039Y038461D01*
X023302Y038461D02*
X023089Y038461D01*
X023196Y038461D02*
X023196Y038141D01*
X022934Y038194D02*
X022881Y038141D01*
X022774Y038141D01*
X022721Y038194D01*
X022721Y038408D01*
X022774Y038461D01*
X022881Y038461D01*
X022934Y038408D01*
X022934Y038194D01*
X022566Y038141D02*
X022566Y038461D01*
X022406Y038461D01*
X022352Y038408D01*
X022352Y038301D01*
X022406Y038247D01*
X022566Y038247D01*
X022459Y038247D02*
X022352Y038141D01*
X018526Y038408D02*
X018419Y038301D01*
X018419Y038141D01*
X018419Y038301D02*
X018312Y038408D01*
X018312Y038461D01*
X018526Y038461D02*
X018526Y038408D01*
X018157Y038301D02*
X017944Y038301D01*
X017789Y038461D02*
X017682Y038354D01*
X017576Y038461D01*
X017576Y038141D01*
X017421Y038194D02*
X017367Y038141D01*
X017261Y038141D01*
X017207Y038194D01*
X017207Y038408D01*
X017261Y038461D01*
X017367Y038461D01*
X017421Y038408D01*
X017421Y038194D01*
X017789Y038141D02*
X017789Y038461D01*
X017052Y038461D02*
X016839Y038461D01*
X016946Y038461D02*
X016946Y038141D01*
X016684Y038194D02*
X016631Y038141D01*
X016524Y038141D01*
X016471Y038194D01*
X016471Y038408D01*
X016524Y038461D01*
X016631Y038461D01*
X016684Y038408D01*
X016684Y038194D01*
X016316Y038141D02*
X016316Y038461D01*
X016156Y038461D01*
X016102Y038408D01*
X016102Y038301D01*
X016156Y038247D01*
X016316Y038247D01*
X016209Y038247D02*
X016102Y038141D01*
X012026Y038141D02*
X011812Y038461D01*
X012026Y038461D02*
X011812Y038141D01*
X011657Y038301D02*
X011444Y038301D01*
X011289Y038461D02*
X011182Y038354D01*
X011076Y038461D01*
X011076Y038141D01*
X010921Y038194D02*
X010867Y038141D01*
X010761Y038141D01*
X010707Y038194D01*
X010707Y038408D01*
X010761Y038461D01*
X010867Y038461D01*
X010921Y038408D01*
X010921Y038194D01*
X011289Y038141D02*
X011289Y038461D01*
X010552Y038461D02*
X010339Y038461D01*
X010446Y038461D02*
X010446Y038141D01*
X010184Y038194D02*
X010131Y038141D01*
X010024Y038141D01*
X009971Y038194D01*
X009971Y038408D01*
X010024Y038461D01*
X010131Y038461D01*
X010184Y038408D01*
X010184Y038194D01*
X009816Y038141D02*
X009816Y038461D01*
X009656Y038461D01*
X009602Y038408D01*
X009602Y038301D01*
X009656Y038247D01*
X009816Y038247D01*
X009709Y038247D02*
X009602Y038141D01*
X029944Y038141D02*
X030157Y038354D01*
X030312Y038461D02*
X030526Y038461D01*
X030526Y038141D01*
X030526Y038301D02*
X030419Y038301D01*
D12*
X016011Y024031D02*
X015936Y024106D01*
X015786Y024106D01*
X015710Y024031D01*
X015786Y023881D02*
X015710Y023806D01*
X015710Y023731D01*
X015786Y023656D01*
X015936Y023656D01*
X016011Y023731D01*
X015936Y023881D02*
X015786Y023881D01*
X015936Y023881D02*
X016011Y023956D01*
X016011Y024031D01*
X015495Y024106D02*
X015270Y024106D01*
X015195Y024031D01*
X015195Y023731D01*
X015270Y023656D01*
X015495Y023656D01*
X015495Y024106D01*
X014979Y024031D02*
X014979Y023956D01*
X014904Y023881D01*
X014754Y023881D01*
X014679Y023806D01*
X014679Y023731D01*
X014754Y023656D01*
X014904Y023656D01*
X014979Y023731D01*
X014979Y024031D02*
X014904Y024106D01*
X014754Y024106D01*
X014679Y024031D01*
X014464Y023956D02*
X014314Y024106D01*
X014464Y023956D02*
X014464Y023806D01*
X014314Y023656D01*
X014120Y023656D02*
X013820Y023656D01*
X013970Y023656D02*
X013970Y024106D01*
X014120Y023956D01*
X013604Y023881D02*
X013379Y024106D01*
X013379Y023656D01*
X013304Y023881D02*
X013604Y023881D01*
X013089Y024106D02*
X012939Y023956D01*
X012939Y023806D01*
X013089Y023656D01*
X013048Y023106D02*
X013048Y022656D01*
X013414Y022656D02*
X013714Y022656D01*
X013714Y023106D01*
X013414Y023106D01*
X013198Y023106D02*
X012898Y023106D01*
X013564Y022881D02*
X013714Y022881D01*
X013929Y022806D02*
X013929Y022731D01*
X014004Y022656D01*
X014154Y022656D01*
X014229Y022731D01*
X014154Y022881D02*
X014004Y022881D01*
X013929Y022806D01*
X013929Y023031D02*
X014004Y023106D01*
X014154Y023106D01*
X014229Y023031D01*
X014229Y022956D01*
X014154Y022881D01*
X014445Y023106D02*
X014745Y023106D01*
X014745Y022656D01*
X014445Y022656D01*
X014595Y022881D02*
X014745Y022881D01*
X014960Y022881D02*
X015036Y022806D01*
X015261Y022806D01*
X015261Y022656D02*
X015261Y023106D01*
X015036Y023106D01*
X014960Y023031D01*
X014960Y022881D01*
X015111Y022806D02*
X014960Y022656D01*
X014261Y022031D02*
X014261Y021956D01*
X014186Y021881D01*
X014036Y021881D01*
X013960Y021806D01*
X013960Y021731D01*
X014036Y021656D01*
X014186Y021656D01*
X014261Y021731D01*
X014261Y022031D02*
X014186Y022106D01*
X014036Y022106D01*
X013960Y022031D01*
X013745Y022031D02*
X013745Y021731D01*
X013670Y021656D01*
X013520Y021656D01*
X013445Y021731D01*
X013229Y021806D02*
X012929Y022106D01*
X013229Y022106D02*
X013229Y021656D01*
X013154Y021881D02*
X012929Y021656D01*
X013036Y021106D02*
X012960Y021031D01*
X012960Y020731D01*
X013036Y020656D01*
X013186Y020656D01*
X013261Y020731D01*
X013261Y021031D01*
X013186Y021106D01*
X013036Y021106D01*
X013476Y021031D02*
X013551Y021106D01*
X013701Y021106D01*
X013776Y021031D01*
X013776Y020956D01*
X013701Y020881D01*
X013551Y020881D01*
X013476Y020806D01*
X013476Y020731D01*
X013551Y020656D01*
X013701Y020656D01*
X013776Y020731D01*
X013970Y020656D02*
X014120Y020656D01*
X014045Y020656D02*
X014045Y021106D01*
X014120Y021106D02*
X013970Y021106D01*
X014335Y021106D02*
X014335Y020656D01*
X014636Y020656D02*
X014636Y021106D01*
X014486Y020956D01*
X014335Y021106D01*
X013745Y022031D02*
X013670Y022106D01*
X013520Y022106D01*
X013445Y022031D01*
X011417Y020296D02*
X011417Y020071D01*
X011267Y020146D01*
X011192Y020146D01*
X011117Y020071D01*
X011117Y019921D01*
X011192Y019846D01*
X011342Y019846D01*
X011417Y019921D01*
X011417Y020296D02*
X011117Y020296D01*
X010901Y020296D02*
X010901Y019996D01*
X010751Y019846D01*
X010601Y019996D01*
X010601Y020296D01*
X009761Y020406D02*
X009761Y020106D01*
X009686Y020031D01*
X009536Y020031D01*
X009460Y020106D01*
X009460Y020256D01*
X009611Y020256D01*
X009761Y020406D02*
X009686Y020481D01*
X009536Y020481D01*
X009460Y020406D01*
X009245Y020481D02*
X008945Y020031D01*
X008945Y020481D01*
X008729Y020481D02*
X008729Y020031D01*
X008504Y020031D01*
X008429Y020106D01*
X008429Y020406D01*
X008504Y020481D01*
X008729Y020481D01*
X009245Y020481D02*
X009245Y020031D01*
X009245Y019731D02*
X009095Y019731D01*
X009170Y019731D02*
X009170Y019281D01*
X009245Y019281D02*
X009095Y019281D01*
X008901Y019356D02*
X008826Y019281D01*
X008676Y019281D01*
X008601Y019356D01*
X008601Y019506D01*
X008751Y019506D01*
X008601Y019656D02*
X008676Y019731D01*
X008826Y019731D01*
X008901Y019656D01*
X008901Y019356D01*
X009460Y019356D02*
X009536Y019281D01*
X009686Y019281D01*
X009761Y019356D01*
X009686Y019506D02*
X009761Y019581D01*
X009761Y019656D01*
X009686Y019731D01*
X009536Y019731D01*
X009460Y019656D01*
X009536Y019506D02*
X009460Y019431D01*
X009460Y019356D01*
X009536Y019506D02*
X009686Y019506D01*
X009645Y021656D02*
X009570Y021731D01*
X009570Y022031D01*
X009645Y022106D01*
X009795Y022106D01*
X009870Y022031D01*
X009870Y021731D01*
X009795Y021656D01*
X009645Y021656D01*
X009354Y021731D02*
X009279Y021656D01*
X009129Y021656D01*
X009054Y021731D01*
X009054Y021806D01*
X009129Y021881D01*
X009279Y021881D01*
X009354Y021956D01*
X009354Y022031D01*
X009279Y022106D01*
X009129Y022106D01*
X009054Y022031D01*
X008839Y022106D02*
X008689Y022106D01*
X008764Y022106D02*
X008764Y021656D01*
X008839Y021656D02*
X008689Y021656D01*
X009129Y022656D02*
X009054Y022731D01*
X009054Y023031D01*
X009129Y023106D01*
X009354Y023106D01*
X009354Y022656D01*
X009129Y022656D01*
X009570Y022656D02*
X009570Y023106D01*
X009870Y023106D02*
X009570Y022656D01*
X009870Y022656D02*
X009870Y023106D01*
X010085Y023031D02*
X010161Y023106D01*
X010311Y023106D01*
X010386Y023031D01*
X010386Y022731D01*
X010311Y022656D01*
X010161Y022656D01*
X010085Y022731D01*
X010085Y022881D01*
X010236Y022881D01*
X010386Y022106D02*
X010236Y021956D01*
X010085Y022106D01*
X010085Y021656D01*
X010386Y021656D02*
X010386Y022106D01*
X010311Y024656D02*
X010161Y024656D01*
X010085Y024731D01*
X010085Y024806D01*
X010161Y024881D01*
X010311Y024881D01*
X010386Y024956D01*
X010386Y025031D01*
X010311Y025106D01*
X010161Y025106D01*
X010085Y025031D01*
X009870Y025031D02*
X009870Y024731D01*
X009795Y024656D01*
X009645Y024656D01*
X009570Y024731D01*
X009354Y024656D02*
X009054Y024656D01*
X009354Y024656D02*
X009354Y025106D01*
X009570Y025031D02*
X009645Y025106D01*
X009795Y025106D01*
X009870Y025031D01*
X010311Y024656D02*
X010386Y024731D01*
X012929Y024656D02*
X012929Y024956D01*
X013079Y025106D01*
X013229Y024956D01*
X013229Y024656D01*
X013229Y024881D02*
X012929Y024881D01*
X013445Y025031D02*
X013520Y025106D01*
X013745Y025106D01*
X013745Y024656D01*
X013520Y024656D01*
X013445Y024731D01*
X013445Y025031D01*
X013960Y025031D02*
X014036Y025106D01*
X014186Y025106D01*
X014261Y025031D01*
X014261Y024956D01*
X014186Y024881D01*
X014036Y024881D01*
X013960Y024806D01*
X013960Y024731D01*
X014036Y024656D01*
X014186Y024656D01*
X014261Y024731D01*
X009686Y017106D02*
X009761Y017031D01*
X009761Y016731D01*
X009686Y016656D01*
X009536Y016656D01*
X009460Y016731D01*
X009460Y016881D01*
X009611Y016881D01*
X009460Y017031D02*
X009536Y017106D01*
X009686Y017106D01*
X009245Y017106D02*
X008945Y016656D01*
X008945Y017106D01*
X008729Y017106D02*
X008729Y016656D01*
X008504Y016656D01*
X008429Y016731D01*
X008429Y017031D01*
X008504Y017106D01*
X008729Y017106D01*
X009245Y017106D02*
X009245Y016656D01*
X009245Y016106D02*
X009095Y016106D01*
X009170Y016106D02*
X009170Y015656D01*
X009245Y015656D02*
X009095Y015656D01*
X008901Y015731D02*
X008826Y015656D01*
X008676Y015656D01*
X008601Y015731D01*
X008601Y015881D01*
X008751Y015881D01*
X008601Y016031D02*
X008676Y016106D01*
X008826Y016106D01*
X008901Y016031D01*
X008901Y015731D01*
X009460Y015731D02*
X009536Y015656D01*
X009686Y015656D01*
X009761Y015731D01*
X009686Y015881D02*
X009761Y015956D01*
X009761Y016031D01*
X009686Y016106D01*
X009536Y016106D01*
X009460Y016031D01*
X009536Y015881D02*
X009460Y015806D01*
X009460Y015731D01*
X009536Y015881D02*
X009686Y015881D01*
X009686Y013606D02*
X009761Y013531D01*
X009761Y013231D01*
X009686Y013156D01*
X009536Y013156D01*
X009460Y013231D01*
X009460Y013381D01*
X009611Y013381D01*
X009460Y013531D02*
X009536Y013606D01*
X009686Y013606D01*
X009245Y013606D02*
X008945Y013156D01*
X008945Y013606D01*
X008729Y013606D02*
X008729Y013156D01*
X008504Y013156D01*
X008429Y013231D01*
X008429Y013531D01*
X008504Y013606D01*
X008729Y013606D01*
X009245Y013606D02*
X009245Y013156D01*
X009245Y012606D02*
X009095Y012606D01*
X009170Y012606D02*
X009170Y012156D01*
X009245Y012156D02*
X009095Y012156D01*
X008901Y012231D02*
X008826Y012156D01*
X008676Y012156D01*
X008601Y012231D01*
X008601Y012381D01*
X008751Y012381D01*
X008601Y012531D02*
X008676Y012606D01*
X008826Y012606D01*
X008901Y012531D01*
X008901Y012231D01*
X009460Y012231D02*
X009460Y012306D01*
X009536Y012381D01*
X009686Y012381D01*
X009761Y012456D01*
X009761Y012531D01*
X009686Y012606D01*
X009536Y012606D01*
X009460Y012531D01*
X009460Y012231D02*
X009536Y012156D01*
X009686Y012156D01*
X009761Y012231D01*
X038936Y017199D02*
X039011Y017124D01*
X038936Y017199D02*
X038936Y017350D01*
X039011Y017425D01*
X039161Y017425D01*
X039236Y017350D01*
X039236Y017275D01*
X039161Y017124D01*
X039386Y017124D01*
X039386Y017425D01*
X039386Y017640D02*
X039086Y017640D01*
X038936Y017790D01*
X039086Y017940D01*
X039386Y017940D01*
X039936Y017865D02*
X040011Y017940D01*
X039936Y017865D02*
X039936Y017715D01*
X040011Y017640D01*
X040311Y017640D01*
X040386Y017715D01*
X040386Y017865D01*
X040311Y017940D01*
X040386Y017425D02*
X039936Y017425D01*
X040386Y017124D01*
X039936Y017124D01*
X039936Y016909D02*
X039936Y016609D01*
X040386Y016609D01*
X040386Y016909D01*
X040161Y016759D02*
X040161Y016609D01*
X040936Y016609D02*
X040936Y016909D01*
X040936Y017124D02*
X041386Y017124D01*
X040936Y017425D01*
X041386Y017425D01*
X041236Y017640D02*
X041386Y017790D01*
X041236Y017940D01*
X040936Y017940D01*
X041161Y017940D02*
X041161Y017640D01*
X041236Y017640D02*
X040936Y017640D01*
X041386Y016909D02*
X041386Y016609D01*
X040936Y016609D01*
X041161Y016609D02*
X041161Y016759D01*
X041311Y020234D02*
X041011Y020234D01*
X040936Y020309D01*
X040936Y020459D01*
X041011Y020534D01*
X041161Y020534D01*
X041161Y020384D01*
X041311Y020534D02*
X041386Y020459D01*
X041386Y020309D01*
X041311Y020234D01*
X041386Y020749D02*
X040936Y020749D01*
X040936Y021050D02*
X041386Y021050D01*
X041386Y021265D02*
X041386Y021490D01*
X041311Y021565D01*
X041011Y021565D01*
X040936Y021490D01*
X040936Y021265D01*
X041386Y021265D01*
X040936Y021050D02*
X041386Y020749D01*
X040386Y020749D02*
X039936Y021050D01*
X040386Y021050D01*
X040386Y021265D02*
X040386Y021490D01*
X040311Y021565D01*
X040236Y021565D01*
X040161Y021490D01*
X040161Y021265D01*
X039936Y021265D02*
X040386Y021265D01*
X040161Y021490D02*
X040086Y021565D01*
X040011Y021565D01*
X039936Y021490D01*
X039936Y021265D01*
X039936Y020749D02*
X040386Y020749D01*
X040386Y020534D02*
X040386Y020234D01*
X039936Y020234D01*
X039936Y020534D01*
X040161Y020384D02*
X040161Y020234D01*
X039386Y020309D02*
X039311Y020234D01*
X039011Y020234D01*
X038936Y020309D01*
X038936Y020459D01*
X039011Y020534D01*
X039161Y020534D01*
X039161Y020384D01*
X039311Y020534D02*
X039386Y020459D01*
X039386Y020309D01*
X039386Y020749D02*
X038936Y020749D01*
X038936Y021050D02*
X039386Y021050D01*
X039386Y021265D02*
X039386Y021490D01*
X039311Y021565D01*
X039011Y021565D01*
X038936Y021490D01*
X038936Y021265D01*
X039386Y021265D01*
X038936Y021050D02*
X039386Y020749D01*
D13*
X041765Y016252D02*
X041765Y015451D01*
X041365Y015851D02*
X042166Y015851D01*
X041691Y014295D02*
X041691Y013494D01*
D14*
X007316Y013351D02*
X007066Y013601D01*
X007066Y012351D02*
X007316Y012351D01*
X007316Y015851D02*
X007066Y015851D01*
X007316Y016851D02*
X007066Y017101D01*
X007066Y019351D02*
X007316Y019351D01*
X007316Y020351D02*
X007066Y020601D01*
D15*
X015366Y016650D02*
X015566Y016650D01*
X015633Y016583D01*
X015633Y016450D01*
X015566Y016383D01*
X015766Y016383D02*
X015366Y016383D01*
X015366Y016190D02*
X015366Y015990D01*
X015432Y015923D01*
X015566Y015923D01*
X015633Y015990D01*
X015633Y016190D01*
X015633Y015749D02*
X015633Y015616D01*
X015699Y015683D02*
X015432Y015683D01*
X015366Y015749D01*
X015366Y015443D02*
X015366Y015309D01*
X015366Y015376D02*
X015633Y015376D01*
X015633Y015309D01*
X015766Y015376D02*
X015833Y015376D01*
X016116Y015356D02*
X016182Y015423D01*
X016383Y015423D01*
X016383Y015616D02*
X016383Y015683D01*
X016116Y015683D01*
X016116Y015749D02*
X016116Y015616D01*
X016116Y015356D02*
X016182Y015289D01*
X016116Y015222D01*
X016182Y015156D01*
X016383Y015156D01*
X016449Y014962D02*
X016516Y014895D01*
X016516Y014762D01*
X016449Y014695D01*
X016383Y014695D01*
X016316Y014762D01*
X016316Y014895D01*
X016249Y014962D01*
X016182Y014962D01*
X016116Y014895D01*
X016116Y014762D01*
X016182Y014695D01*
X015766Y014588D02*
X015766Y014455D01*
X015699Y014388D01*
X015633Y014388D01*
X015566Y014455D01*
X015566Y014588D01*
X015499Y014655D01*
X015432Y014655D01*
X015366Y014588D01*
X015366Y014455D01*
X015432Y014388D01*
X015699Y014655D02*
X015766Y014588D01*
X015633Y014849D02*
X015432Y014849D01*
X015366Y014915D01*
X015432Y014982D01*
X015366Y015049D01*
X015432Y015116D01*
X015633Y015116D01*
X016516Y015683D02*
X016583Y015683D01*
X016383Y015923D02*
X016383Y016056D01*
X016449Y015990D02*
X016182Y015990D01*
X016116Y016056D01*
X016182Y016230D02*
X016116Y016297D01*
X016116Y016497D01*
X016116Y016690D02*
X016516Y016690D01*
X016383Y016757D02*
X016383Y016890D01*
X016316Y016957D01*
X016116Y016957D01*
X016316Y016690D02*
X016383Y016757D01*
X016383Y016497D02*
X016383Y016297D01*
X016316Y016230D01*
X016182Y016230D01*
X016116Y014041D02*
X016316Y014041D01*
X016383Y013975D01*
X016383Y013774D01*
X016116Y013774D01*
X016182Y013581D02*
X016316Y013581D01*
X016383Y013514D01*
X016383Y013381D01*
X016316Y013314D01*
X016182Y013314D01*
X016116Y013381D01*
X016116Y013514D01*
X016182Y013581D01*
X015633Y013668D02*
X015566Y013734D01*
X015366Y013734D01*
X015366Y013468D02*
X015633Y013468D01*
X015633Y013668D01*
X015566Y013274D02*
X015633Y013207D01*
X015633Y013074D01*
X015566Y013007D01*
X015432Y013007D01*
X015366Y013074D01*
X015366Y013207D01*
X015432Y013274D01*
X015566Y013274D01*
X016182Y012660D02*
X016449Y012660D01*
X016516Y012593D01*
X016516Y012460D01*
X016449Y012393D01*
X016182Y012393D01*
X016116Y012460D01*
X016116Y012593D01*
X016182Y012660D01*
X016116Y012200D02*
X016516Y012200D01*
X016516Y011933D02*
X016116Y012200D01*
X016116Y011933D02*
X016516Y011933D01*
X016383Y011739D02*
X016383Y011472D01*
X016249Y011472D02*
X016249Y011739D01*
X016182Y011279D02*
X016316Y011279D01*
X016316Y011146D01*
X016449Y011279D02*
X016516Y011212D01*
X016516Y011079D01*
X016449Y011012D01*
X016182Y011012D01*
X016116Y011079D01*
X016116Y011212D01*
X016182Y011279D01*
X015766Y011366D02*
X015766Y011166D01*
X015366Y011166D01*
X015366Y011366D01*
X015432Y011432D01*
X015699Y011432D01*
X015766Y011366D01*
X015633Y011626D02*
X015633Y011893D01*
X015499Y011893D02*
X015499Y011626D01*
X015432Y012086D02*
X015366Y012153D01*
X015366Y012286D01*
X015432Y012353D01*
X015432Y012086D02*
X015699Y012086D01*
X015766Y012153D01*
X015766Y012286D01*
X015699Y012353D01*
X015766Y010972D02*
X015366Y010972D01*
X015766Y010705D01*
X015366Y010705D01*
X015432Y010512D02*
X015566Y010512D01*
X015566Y010378D01*
X015699Y010245D02*
X015432Y010245D01*
X015366Y010311D01*
X015366Y010445D01*
X015432Y010512D01*
X015699Y010512D02*
X015766Y010445D01*
X015766Y010311D01*
X015699Y010245D01*
X016116Y010311D02*
X016116Y010445D01*
X016182Y010512D01*
X016249Y010512D01*
X016316Y010445D01*
X016316Y010311D01*
X016383Y010245D01*
X016449Y010245D01*
X016516Y010311D01*
X016516Y010445D01*
X016449Y010512D01*
X016516Y010705D02*
X016516Y010839D01*
X016516Y010772D02*
X016116Y010772D01*
X016116Y010705D02*
X016116Y010839D01*
X016116Y010311D02*
X016182Y010245D01*
X023338Y031401D02*
X023271Y031467D01*
X023271Y031734D01*
X023338Y031801D01*
X023538Y031801D01*
X023538Y031401D01*
X023338Y031401D01*
X023731Y031401D02*
X023998Y031401D01*
X023998Y031801D01*
X023731Y031801D01*
X023865Y031601D02*
X023998Y031601D01*
X024192Y031601D02*
X024259Y031534D01*
X024459Y031534D01*
X024459Y031401D02*
X024459Y031801D01*
X024259Y031801D01*
X024192Y031734D01*
X024192Y031601D01*
X024325Y031534D02*
X024192Y031401D01*
X024652Y031534D02*
X024919Y031534D01*
X024919Y031668D02*
X024652Y031668D01*
X025113Y031601D02*
X025380Y031601D01*
X025179Y031801D01*
X025179Y031401D01*
X025179Y032151D02*
X025313Y032151D01*
X025380Y032217D01*
X025246Y032351D02*
X025179Y032351D01*
X025113Y032284D01*
X025113Y032217D01*
X025179Y032151D01*
X025179Y032351D02*
X025113Y032418D01*
X025113Y032484D01*
X025179Y032551D01*
X025313Y032551D01*
X025380Y032484D01*
X025380Y032901D02*
X025113Y032901D01*
X024919Y033034D02*
X024652Y033034D01*
X024652Y033168D02*
X024919Y033168D01*
X025113Y033168D02*
X025113Y033234D01*
X025179Y033301D01*
X025313Y033301D01*
X025380Y033234D01*
X025113Y033168D02*
X025380Y032901D01*
X024919Y032418D02*
X024652Y032418D01*
X024652Y032284D02*
X024919Y032284D01*
X024459Y032351D02*
X024259Y032351D01*
X024192Y032284D01*
X024192Y032217D01*
X024259Y032151D01*
X024459Y032151D01*
X024459Y032551D01*
X024259Y032551D01*
X024192Y032484D01*
X024192Y032418D01*
X024259Y032351D01*
X023998Y032551D02*
X023998Y032151D01*
X023731Y032151D01*
X023538Y032217D02*
X023471Y032151D01*
X023338Y032151D01*
X023271Y032217D01*
X023271Y032551D01*
X023078Y032551D02*
X023078Y032151D01*
X022811Y032151D01*
X022944Y032351D02*
X023078Y032351D01*
X023078Y032551D02*
X022811Y032551D01*
X022811Y032901D02*
X023078Y032901D01*
X023078Y033301D01*
X022811Y033301D01*
X022617Y033301D02*
X022350Y032901D01*
X022350Y033301D01*
X022617Y033301D02*
X022617Y032901D01*
X022944Y033101D02*
X023078Y033101D01*
X023271Y033301D02*
X023538Y033301D01*
X023538Y032901D01*
X023271Y032901D01*
X023405Y033101D02*
X023538Y033101D01*
X023731Y033101D02*
X023798Y033034D01*
X023998Y033034D01*
X023865Y033034D02*
X023731Y032901D01*
X023731Y033101D02*
X023731Y033234D01*
X023798Y033301D01*
X023998Y033301D01*
X023998Y032901D01*
X024192Y032967D02*
X024192Y033101D01*
X024325Y033101D01*
X024192Y033234D02*
X024259Y033301D01*
X024392Y033301D01*
X024459Y033234D01*
X024459Y032967D01*
X024392Y032901D01*
X024259Y032901D01*
X024192Y032967D01*
X023538Y032551D02*
X023538Y032217D01*
X023538Y033651D02*
X023538Y033918D01*
X023405Y034051D01*
X023271Y033918D01*
X023271Y033651D01*
X023271Y033851D02*
X023538Y033851D01*
X023731Y033651D02*
X023998Y033651D01*
X023998Y034051D01*
X024192Y033984D02*
X024259Y034051D01*
X024459Y034051D01*
X024459Y033651D01*
X024259Y033651D01*
X024192Y033717D01*
X024192Y033784D01*
X024259Y033851D01*
X024459Y033851D01*
X024259Y033851D02*
X024192Y033918D01*
X024192Y033984D01*
X024152Y034267D02*
X024152Y034668D01*
X023952Y034668D01*
X023885Y034601D01*
X023885Y034467D01*
X023952Y034401D01*
X024152Y034401D01*
X024345Y034534D02*
X024612Y034534D01*
X024612Y034467D02*
X024612Y034601D01*
X024546Y034668D01*
X024412Y034668D01*
X024345Y034601D01*
X024345Y034534D01*
X024412Y034401D02*
X024546Y034401D01*
X024612Y034467D01*
X024786Y034401D02*
X024852Y034467D01*
X024852Y034734D01*
X024786Y034668D02*
X024919Y034668D01*
X025113Y034734D02*
X025179Y034801D01*
X025313Y034801D01*
X025380Y034734D01*
X025380Y034668D01*
X025313Y034601D01*
X025179Y034601D01*
X025113Y034534D01*
X025113Y034467D01*
X025179Y034401D01*
X025313Y034401D01*
X025380Y034467D01*
X025246Y034051D02*
X025246Y033651D01*
X025113Y033651D02*
X025380Y033651D01*
X025380Y033918D02*
X025246Y034051D01*
X024919Y033918D02*
X024652Y033918D01*
X024652Y033784D02*
X024919Y033784D01*
X023691Y034267D02*
X023691Y034668D01*
X023491Y034668D01*
X023425Y034601D01*
X023425Y034467D01*
X023491Y034401D01*
X023691Y034401D01*
X023231Y034467D02*
X023231Y034601D01*
X023164Y034668D01*
X023031Y034668D01*
X022964Y034601D01*
X022964Y034534D01*
X023231Y034534D01*
X023231Y034467D02*
X023164Y034401D01*
X023031Y034401D01*
X022771Y034401D02*
X022771Y034668D01*
X022637Y034668D02*
X022571Y034668D01*
X022637Y034668D02*
X022771Y034534D01*
X022877Y034051D02*
X023011Y034051D01*
X023078Y033984D01*
X023078Y033717D01*
X023011Y033651D01*
X022877Y033651D01*
X022811Y033717D01*
X022617Y033651D02*
X022617Y034051D01*
X022811Y033984D02*
X022877Y034051D01*
X022617Y033784D02*
X022350Y034051D01*
X022550Y033851D02*
X022350Y033651D01*
X021927Y034401D02*
X021927Y034801D01*
X021793Y034668D01*
X021660Y034801D01*
X021660Y034401D01*
X021466Y034467D02*
X021400Y034401D01*
X021266Y034401D01*
X021199Y034467D01*
X021199Y034601D01*
X021266Y034668D01*
X021400Y034668D01*
X021466Y034601D01*
X021466Y034467D01*
X021006Y034668D02*
X020872Y034668D01*
X020939Y034734D02*
X020939Y034467D01*
X020872Y034401D01*
X020699Y034467D02*
X020632Y034401D01*
X020499Y034401D01*
X020432Y034467D01*
X020432Y034601D01*
X020499Y034668D01*
X020632Y034668D01*
X020699Y034601D01*
X020699Y034467D01*
X020239Y034401D02*
X020239Y034668D01*
X020239Y034534D02*
X020105Y034668D01*
X020038Y034668D01*
X019394Y034801D02*
X019394Y034401D01*
X019261Y034534D01*
X019128Y034401D01*
X019128Y034801D01*
X018934Y034668D02*
X018867Y034668D01*
X018867Y034401D01*
X018801Y034401D02*
X018934Y034401D01*
X018627Y034401D02*
X018627Y034668D01*
X018494Y034668D02*
X018627Y034534D01*
X018494Y034668D02*
X018427Y034668D01*
X018243Y034668D02*
X018177Y034668D01*
X018177Y034401D01*
X018243Y034401D02*
X018110Y034401D01*
X017937Y034401D02*
X017937Y034668D01*
X017736Y034668D01*
X017670Y034601D01*
X017670Y034401D01*
X017476Y034467D02*
X017476Y034601D01*
X017409Y034668D01*
X017209Y034668D01*
X017209Y034334D01*
X017276Y034267D01*
X017343Y034267D01*
X017409Y034401D02*
X017209Y034401D01*
X017409Y034401D02*
X017476Y034467D01*
X018177Y034801D02*
X018177Y034868D01*
X018867Y034868D02*
X018867Y034801D01*
D16*
X017700Y017499D02*
X017566Y017499D01*
X017566Y017365D01*
X017700Y017365D01*
X017700Y017499D01*
X017299Y017499D02*
X017166Y017499D01*
X017166Y017365D01*
X017299Y017365D01*
X017299Y017499D01*
X017299Y016978D02*
X017433Y016845D01*
X017433Y016578D01*
X017566Y016444D01*
X017700Y016578D01*
X017700Y016978D01*
X017299Y016978D02*
X017166Y016845D01*
X017166Y016444D01*
X017299Y016057D02*
X017166Y015924D01*
X017166Y015524D01*
X016899Y015524D02*
X017700Y015524D01*
X017700Y015924D01*
X017566Y016057D01*
X017299Y016057D01*
X017299Y015137D02*
X017566Y015137D01*
X017700Y015003D01*
X017700Y014736D01*
X017566Y014603D01*
X017299Y014603D01*
X017166Y014736D01*
X017166Y015003D01*
X017299Y015137D01*
X017166Y014256D02*
X017299Y014122D01*
X017833Y014122D01*
X017700Y013989D02*
X017700Y014256D01*
X017700Y013602D02*
X017700Y013202D01*
X017566Y013068D01*
X017433Y013202D01*
X017433Y013469D01*
X017299Y013602D01*
X017166Y013469D01*
X017166Y013068D01*
X017166Y012681D02*
X017166Y012281D01*
X017299Y012147D01*
X017566Y012147D01*
X017700Y012281D01*
X017700Y012681D01*
X017966Y012681D02*
X017166Y012681D01*
X017166Y011760D02*
X017566Y011760D01*
X017700Y011627D01*
X017700Y011227D01*
X017166Y011227D01*
X017166Y010840D02*
X017166Y010306D01*
X017966Y010306D01*
X017966Y010840D01*
X017566Y010573D02*
X017566Y010306D01*
D17*
X031706Y019254D03*
X033091Y019317D03*
X033280Y019695D03*
X033343Y019695D03*
X033469Y019758D03*
X033532Y019569D03*
X033532Y019443D03*
X033721Y018687D03*
X033973Y018057D03*
X034288Y017679D03*
X034162Y017553D03*
X034288Y017490D03*
X034225Y017301D03*
X034162Y017175D03*
X034099Y016986D03*
X034099Y016860D03*
X034225Y016860D03*
X034225Y016735D03*
X034162Y016735D03*
X034099Y016546D03*
X034036Y016105D03*
X033721Y016105D03*
X033469Y016735D03*
X033532Y016798D03*
X033469Y016860D03*
X033595Y017364D03*
X034477Y017994D03*
X034855Y017994D03*
X034918Y017994D03*
X034981Y018498D03*
X036178Y018624D03*
X036241Y018624D03*
X036304Y018624D03*
X036367Y018624D03*
X036430Y018624D03*
X036493Y018624D03*
X036556Y018624D03*
X036619Y018624D03*
X036682Y018624D03*
X036934Y018624D03*
X036997Y018624D03*
X036745Y018372D03*
X036493Y019128D03*
X036430Y019128D03*
X036367Y019128D03*
X036304Y019128D03*
X036241Y019128D03*
X036241Y019380D03*
X036304Y019380D03*
X036367Y019380D03*
X036430Y019380D03*
X036430Y019569D03*
X036493Y019569D03*
X036556Y019569D03*
X036619Y019569D03*
X036178Y019380D03*
X037123Y019317D03*
X036745Y020325D03*
X036682Y020325D03*
X036241Y021018D03*
X036178Y021018D03*
X036115Y021018D03*
X034414Y021837D03*
X034414Y022152D03*
X033973Y022215D03*
X033973Y022341D03*
X034036Y022656D03*
X034099Y022656D03*
X034288Y022656D03*
X034729Y023223D03*
X034855Y023223D03*
X034855Y023349D03*
X034792Y023349D03*
X034792Y023475D03*
X034918Y023412D03*
X034918Y023664D03*
X034918Y023853D03*
X034729Y024294D03*
X034225Y024735D03*
X034099Y024609D03*
X033784Y025301D03*
X033658Y025301D03*
X033406Y025175D03*
X033343Y025175D03*
X032965Y024735D03*
X034036Y023727D03*
X034729Y025112D03*
X034918Y025112D03*
X034918Y025238D03*
X035296Y025364D03*
X035170Y025553D03*
X034792Y025616D03*
X033721Y025994D03*
X033280Y026120D03*
X033091Y026561D03*
X033280Y026813D03*
X033280Y026939D03*
X033343Y026939D03*
X033469Y027002D03*
X033532Y026813D03*
X033595Y026813D03*
X033658Y026561D03*
X033784Y026624D03*
X033910Y027443D03*
X033910Y028325D03*
X034414Y028514D03*
X034477Y028451D03*
X034792Y028577D03*
X034981Y028388D03*
X035107Y028388D03*
X034918Y028262D03*
X034918Y028829D03*
X035233Y029081D03*
X035296Y029144D03*
X035359Y029144D03*
X035422Y029207D03*
X035485Y029144D03*
X035548Y029081D03*
X035611Y028955D03*
X035737Y028892D03*
X035800Y028829D03*
X035926Y028766D03*
X035989Y028829D03*
X036052Y028829D03*
X036052Y028199D03*
X036493Y028199D03*
X036556Y028199D03*
X036619Y028199D03*
X036682Y028199D03*
X036682Y027695D03*
X036619Y027695D03*
X036556Y027695D03*
X036493Y027695D03*
X036430Y027695D03*
X036430Y027506D03*
X036493Y027506D03*
X036556Y027506D03*
X036619Y027506D03*
X036619Y027002D03*
X036556Y027002D03*
X036493Y027002D03*
X036430Y027002D03*
X036367Y027002D03*
X036304Y027002D03*
X036241Y027002D03*
X036178Y027002D03*
X036178Y026813D03*
X036241Y026813D03*
X036304Y026813D03*
X036367Y026813D03*
X036430Y026813D03*
X036367Y026561D03*
X036934Y026750D03*
X037123Y026750D03*
X036997Y027002D03*
X036934Y027002D03*
X036745Y025868D03*
X036367Y025931D03*
X036304Y025931D03*
X036241Y025931D03*
X036178Y025931D03*
X036997Y025427D03*
X036808Y025175D03*
X036745Y025175D03*
X036682Y025175D03*
X036619Y025175D03*
X036556Y025175D03*
X036493Y025175D03*
X036493Y024672D03*
X036556Y024672D03*
X036619Y024672D03*
X036682Y024672D03*
X036682Y024483D03*
X036745Y024483D03*
X036808Y024483D03*
X036871Y024483D03*
X036934Y024672D03*
X036619Y024483D03*
X036430Y024672D03*
X036367Y024672D03*
X036304Y024672D03*
X036241Y024672D03*
X036178Y024672D03*
X036367Y023160D03*
X036430Y023160D03*
X036493Y023160D03*
X036997Y023097D03*
X033721Y021711D03*
X033658Y021711D03*
X033595Y021648D03*
X033532Y021711D03*
X033658Y021459D03*
X033721Y021459D03*
X033784Y021207D03*
X033847Y021207D03*
X033910Y021207D03*
X036934Y017427D03*
X036367Y017238D03*
X036367Y016609D03*
X036304Y016609D03*
X036745Y016042D03*
X036745Y015790D03*
X036682Y015790D03*
X036619Y015790D03*
X036304Y015790D03*
X036745Y015286D03*
X036619Y015034D03*
X036556Y015034D03*
X036493Y015034D03*
X036430Y015034D03*
X036367Y015034D03*
X036304Y015034D03*
X036367Y014845D03*
X035107Y014593D03*
X034918Y014467D03*
X034855Y014404D03*
X034792Y014278D03*
X034855Y014089D03*
X034918Y013963D03*
X034981Y013963D03*
X035044Y014278D03*
X034540Y014341D03*
X033595Y014404D03*
X033406Y014278D03*
X032839Y014782D03*
X032839Y015160D03*
X032839Y015601D03*
X034729Y015853D03*
X035422Y016923D03*
X036052Y013396D03*
X036178Y013270D03*
X036241Y013270D03*
X036304Y013270D03*
X036367Y013270D03*
X036745Y013207D03*
X036997Y012766D03*
X036682Y012514D03*
X036619Y012514D03*
X036556Y012514D03*
X036556Y011821D03*
X036619Y011821D03*
X036493Y011821D03*
X036430Y011821D03*
X036367Y011821D03*
X037123Y011758D03*
X036745Y011065D03*
X036682Y011065D03*
X036682Y010876D03*
X036745Y010876D03*
X036619Y010876D03*
X036304Y010876D03*
X036745Y010372D03*
X036745Y010120D03*
X036808Y010120D03*
X036682Y010120D03*
X036619Y010120D03*
X036556Y010120D03*
X035737Y009805D03*
X035737Y009364D03*
X035296Y010435D03*
X034540Y009994D03*
X033973Y009931D03*
X033091Y009238D03*
X034288Y011191D03*
X034351Y011191D03*
X034477Y011191D03*
X034351Y011317D03*
X034477Y011380D03*
X034918Y012577D03*
X035170Y012766D03*
X035170Y013018D03*
X035170Y013270D03*
X034918Y013144D03*
X034729Y012892D03*
X034477Y012766D03*
X034414Y012829D03*
X034351Y012829D03*
X034288Y012829D03*
X034099Y012829D03*
X033217Y012514D03*
X033091Y012577D03*
X032650Y011380D03*
X033091Y028262D03*
X033091Y028388D03*
X033028Y028388D03*
X032965Y028388D03*
X033154Y028388D03*
X033217Y028451D03*
X032902Y029081D03*
X032776Y029144D03*
X032713Y029144D03*
X032650Y029207D03*
X032587Y029081D03*
X032524Y029018D03*
X032461Y028955D03*
X032398Y028892D03*
X032335Y028892D03*
X032272Y028829D03*
X032209Y028766D03*
X032146Y028766D03*
X032083Y028829D03*
X032146Y029396D03*
X032209Y029459D03*
X032146Y029522D03*
X032083Y029585D03*
X032020Y029648D03*
X031957Y029711D03*
X031894Y029648D03*
X031831Y029585D03*
X031769Y029585D03*
X031706Y029522D03*
X031643Y029522D03*
X031580Y029459D03*
X031517Y029459D03*
X031454Y029459D03*
X031391Y029396D03*
X031328Y029459D03*
X031454Y029963D03*
X031517Y030026D03*
X031454Y030341D03*
X031391Y030341D03*
X031328Y030341D03*
X031202Y030278D03*
X031139Y030278D03*
X031076Y030278D03*
X031013Y030278D03*
X030950Y030278D03*
X030887Y030278D03*
X030824Y030278D03*
X030761Y030530D03*
X030824Y030593D03*
X030887Y030656D03*
X030950Y030719D03*
X031076Y030782D03*
X031139Y030845D03*
X031076Y031160D03*
X031013Y031160D03*
X030950Y031160D03*
X030887Y031160D03*
X030824Y031160D03*
X030761Y031160D03*
X030635Y031223D03*
X030572Y031223D03*
X030509Y031223D03*
X030446Y031412D03*
X030509Y031475D03*
X030572Y031538D03*
X030635Y031538D03*
X030698Y031601D03*
X030824Y031664D03*
X030887Y031664D03*
X031013Y031727D03*
X031013Y032042D03*
X030950Y032042D03*
X030887Y032042D03*
X030761Y032105D03*
X030698Y032105D03*
X030635Y032168D03*
X030572Y032231D03*
X030509Y032231D03*
X030446Y032294D03*
X030509Y032483D03*
X030572Y032483D03*
X030635Y032546D03*
X030698Y032546D03*
X030761Y032546D03*
X030824Y032546D03*
X030887Y032546D03*
X030950Y032546D03*
X031013Y032546D03*
X031076Y032546D03*
X031076Y032923D03*
X031013Y032986D03*
X030950Y033049D03*
X030824Y033175D03*
X030761Y033238D03*
X030761Y033364D03*
X031202Y033427D03*
X031265Y033427D03*
X031391Y033364D03*
X031517Y033490D03*
X031517Y033679D03*
X031454Y033805D03*
X031391Y033868D03*
X031328Y033994D03*
X031328Y034246D03*
X031391Y034309D03*
X031454Y034309D03*
X031580Y034246D03*
X031643Y034246D03*
X031706Y034183D03*
X031769Y034183D03*
X031831Y034120D03*
X031894Y034057D03*
X031957Y034057D03*
X032083Y034120D03*
X032146Y034183D03*
X032209Y034246D03*
X032461Y033868D03*
X032524Y033868D03*
X032587Y033931D03*
X032650Y033994D03*
X032713Y033994D03*
X032776Y034057D03*
X032902Y034120D03*
X032965Y034120D03*
X032713Y034561D03*
X032650Y034561D03*
X032587Y034624D03*
X032524Y034687D03*
X032461Y034750D03*
X032398Y034813D03*
X032335Y034876D03*
X032272Y034876D03*
X032209Y034939D03*
X032146Y034939D03*
X032083Y034876D03*
X032839Y034624D03*
X032902Y034624D03*
X033658Y034372D03*
X033721Y034372D03*
X033784Y034372D03*
X033847Y034372D03*
X033910Y034372D03*
X033973Y034372D03*
X034036Y034372D03*
X034099Y034372D03*
X034162Y034372D03*
X034225Y034372D03*
X034288Y034372D03*
X034351Y034372D03*
X034414Y034372D03*
X034414Y034246D03*
X034351Y034246D03*
X034288Y034246D03*
X034162Y034246D03*
X034099Y034246D03*
X033973Y034246D03*
X033973Y034498D03*
X033658Y034246D03*
X033343Y033616D03*
X033280Y033364D03*
X033091Y032986D03*
X033091Y032672D03*
X033028Y032483D03*
X032965Y032483D03*
X033973Y032735D03*
X034036Y032735D03*
X034225Y032231D03*
X034729Y032294D03*
X034792Y032294D03*
X034792Y032168D03*
X034729Y032168D03*
X034918Y032231D03*
X034981Y032231D03*
X034981Y032105D03*
X034918Y032105D03*
X034918Y032357D03*
X034918Y031790D03*
X035044Y031538D03*
X035233Y030782D03*
X035233Y030530D03*
X035233Y030404D03*
X035170Y030341D03*
X035107Y030278D03*
X035107Y030467D03*
X034981Y030593D03*
X034603Y030467D03*
X034792Y030215D03*
X034918Y030152D03*
X035044Y029963D03*
X034855Y029774D03*
X034855Y029522D03*
X035233Y029711D03*
X035359Y029774D03*
X035422Y029837D03*
X035485Y029837D03*
X035548Y029900D03*
X035611Y029963D03*
X035674Y030026D03*
X035800Y030089D03*
X035863Y030152D03*
X035926Y030215D03*
X035989Y030341D03*
X036052Y030404D03*
X036115Y030467D03*
X036178Y030593D03*
X036241Y030656D03*
X036619Y030278D03*
X036682Y030341D03*
X036745Y030341D03*
X036871Y030278D03*
X036934Y030278D03*
X036997Y030278D03*
X037060Y030278D03*
X037123Y030278D03*
X037186Y030278D03*
X037249Y030278D03*
X037312Y030530D03*
X037249Y030593D03*
X037186Y030656D03*
X037123Y030719D03*
X037060Y030782D03*
X036934Y030845D03*
X036871Y030845D03*
X036997Y031160D03*
X037060Y031160D03*
X037123Y031160D03*
X037186Y031160D03*
X037249Y031160D03*
X037312Y031160D03*
X037501Y031223D03*
X037564Y031223D03*
X037501Y031538D03*
X037438Y031601D03*
X037375Y031601D03*
X037312Y031664D03*
X037249Y031664D03*
X037186Y031664D03*
X037186Y032042D03*
X037123Y032042D03*
X037312Y032105D03*
X037375Y032105D03*
X037438Y032168D03*
X037501Y032168D03*
X037564Y032231D03*
X037564Y032483D03*
X037438Y032546D03*
X037375Y032546D03*
X037312Y032546D03*
X037249Y032546D03*
X037186Y032546D03*
X037123Y032546D03*
X037060Y032546D03*
X036997Y032546D03*
X036871Y032860D03*
X036997Y032923D03*
X037123Y032986D03*
X037186Y033049D03*
X037249Y033112D03*
X037312Y033175D03*
X036934Y033427D03*
X036871Y033427D03*
X036808Y033427D03*
X036682Y033364D03*
X036619Y033427D03*
X036493Y033616D03*
X036556Y033679D03*
X036619Y033742D03*
X036682Y033805D03*
X036745Y033931D03*
X036808Y034057D03*
X036808Y034183D03*
X036682Y034309D03*
X036556Y034246D03*
X036493Y034246D03*
X036430Y034246D03*
X036367Y034183D03*
X036241Y034120D03*
X036178Y034057D03*
X036115Y034057D03*
X036052Y034120D03*
X035989Y034183D03*
X035674Y033805D03*
X035737Y033742D03*
X035800Y033679D03*
X035863Y033616D03*
X035926Y033553D03*
X035989Y033490D03*
X036115Y033301D03*
X036241Y033112D03*
X036304Y032986D03*
X036367Y032860D03*
X035548Y033868D03*
X035485Y033931D03*
X035422Y033994D03*
X035359Y033994D03*
X035296Y034057D03*
X035170Y034120D03*
X035044Y034183D03*
X034981Y034183D03*
X034918Y034246D03*
X034855Y034246D03*
X034792Y034246D03*
X034540Y034246D03*
X034477Y034246D03*
X034603Y033616D03*
X034666Y033553D03*
X034792Y033238D03*
X034162Y033427D03*
X034288Y034876D03*
X034351Y034876D03*
X034792Y035128D03*
X034855Y035254D03*
X034918Y035317D03*
X035044Y035317D03*
X035107Y035317D03*
X035296Y035506D03*
X035296Y035695D03*
X035170Y035884D03*
X034981Y036073D03*
X033721Y036262D03*
X033784Y035632D03*
X033721Y035569D03*
X033784Y035506D03*
X033532Y037018D03*
X033532Y037144D03*
X033469Y037333D03*
X033343Y037270D03*
X033280Y037270D03*
X033091Y036892D03*
X035233Y034624D03*
X035296Y034624D03*
X035359Y034561D03*
X035422Y034561D03*
X035548Y034687D03*
X035611Y034750D03*
X035674Y034813D03*
X035800Y034876D03*
X035863Y034939D03*
X035926Y034939D03*
X035989Y034939D03*
X036052Y034876D03*
X032398Y033805D03*
X032335Y033742D03*
X032272Y033679D03*
X032209Y033616D03*
X032146Y033553D03*
X032083Y033490D03*
X032020Y033427D03*
X031957Y033301D03*
X031894Y033238D03*
X031831Y033112D03*
X033154Y031097D03*
X033469Y031160D03*
X033532Y030908D03*
X033469Y030719D03*
X032965Y029648D03*
X032902Y029648D03*
X032839Y029711D03*
X032776Y029711D03*
X032713Y029774D03*
X032650Y029837D03*
X032587Y029837D03*
X032524Y029900D03*
X032461Y029963D03*
X032398Y029963D03*
X032335Y030026D03*
X032272Y030089D03*
X032209Y030152D03*
X032146Y030215D03*
X032083Y030278D03*
X032020Y030404D03*
X031957Y030467D03*
X031831Y030656D03*
X031769Y030782D03*
X033028Y029585D03*
X033847Y029396D03*
X034036Y029522D03*
X034540Y030152D03*
X035989Y029585D03*
X036115Y029648D03*
X036178Y029648D03*
X036241Y029585D03*
X036304Y029585D03*
X036367Y029522D03*
X036430Y029522D03*
X036556Y029459D03*
X036619Y029459D03*
X036745Y029459D03*
X036808Y029522D03*
X036871Y029585D03*
X036682Y029900D03*
X036619Y029963D03*
X036556Y030026D03*
X036493Y030089D03*
X036556Y030215D03*
D18*
X036745Y029805D03*
X036808Y029679D03*
X037312Y030309D03*
X037375Y030435D03*
X036934Y031002D03*
X036430Y031065D03*
X036367Y030939D03*
X036304Y030813D03*
X035233Y031002D03*
X035170Y030498D03*
X034855Y030057D03*
X034792Y029994D03*
X034666Y029931D03*
X034666Y030120D03*
X034603Y030120D03*
X034729Y030183D03*
X034540Y030498D03*
X035170Y029805D03*
X034918Y029616D03*
X035107Y028860D03*
X035107Y028672D03*
X034855Y028483D03*
X034918Y028420D03*
X033910Y027601D03*
X033910Y027286D03*
X033406Y026971D03*
X033217Y026971D03*
X033154Y026908D03*
X033658Y026719D03*
X033280Y026278D03*
X033784Y026026D03*
X033595Y025333D03*
X033280Y025144D03*
X034162Y024640D03*
X034792Y024577D03*
X035296Y025522D03*
X035107Y025774D03*
X035044Y025774D03*
X034918Y025774D03*
X036178Y025396D03*
X036241Y025396D03*
X036304Y025396D03*
X036367Y025396D03*
X036430Y025396D03*
X036493Y025396D03*
X036556Y025396D03*
X036619Y025396D03*
X036682Y025396D03*
X036745Y025396D03*
X036934Y025396D03*
X036934Y025648D03*
X036808Y025837D03*
X036682Y025900D03*
X036619Y025900D03*
X036556Y025900D03*
X036493Y025900D03*
X036430Y025900D03*
X036430Y026278D03*
X036493Y026278D03*
X036556Y026278D03*
X036619Y026278D03*
X036682Y026278D03*
X036745Y026278D03*
X036808Y026278D03*
X036808Y026530D03*
X036808Y026782D03*
X036871Y026782D03*
X036745Y026782D03*
X036682Y026782D03*
X036619Y026782D03*
X036556Y026782D03*
X036493Y026782D03*
X036682Y027034D03*
X036745Y027034D03*
X036808Y027412D03*
X036745Y027475D03*
X036682Y027475D03*
X036745Y027727D03*
X036808Y027727D03*
X036808Y028168D03*
X036745Y028168D03*
X036934Y028168D03*
X036430Y028231D03*
X036367Y028231D03*
X036304Y028231D03*
X036115Y028231D03*
X036304Y027727D03*
X036367Y027727D03*
X036367Y027538D03*
X036304Y027538D03*
X036241Y027538D03*
X036178Y027538D03*
X036304Y026530D03*
X036241Y026467D03*
X036241Y026278D03*
X036304Y026278D03*
X036367Y026278D03*
X036367Y025207D03*
X036430Y025207D03*
X036304Y025207D03*
X036241Y025207D03*
X036178Y025207D03*
X036871Y025144D03*
X036934Y025144D03*
X037123Y025144D03*
X036808Y024703D03*
X036745Y024703D03*
X036934Y024451D03*
X036997Y024451D03*
X037060Y024451D03*
X037123Y024388D03*
X037123Y023947D03*
X037060Y023947D03*
X036997Y023947D03*
X036934Y023947D03*
X036871Y023947D03*
X036808Y023947D03*
X036745Y023947D03*
X036682Y023947D03*
X036619Y023947D03*
X036556Y023947D03*
X036367Y023947D03*
X036304Y023947D03*
X036241Y023947D03*
X036178Y023947D03*
X036556Y024451D03*
X036556Y023128D03*
X036619Y023128D03*
X036682Y023128D03*
X036745Y023128D03*
X036808Y023128D03*
X036871Y023128D03*
X036934Y023128D03*
X037060Y023065D03*
X037060Y022561D03*
X037123Y022561D03*
X036997Y022561D03*
X036934Y022561D03*
X036871Y022561D03*
X036808Y022561D03*
X036745Y022561D03*
X036682Y022561D03*
X036619Y022561D03*
X036556Y022561D03*
X036493Y022561D03*
X036430Y022561D03*
X036367Y022561D03*
X036304Y022561D03*
X036241Y022561D03*
X036304Y022372D03*
X036367Y022372D03*
X036430Y022372D03*
X036493Y022309D03*
X036682Y022309D03*
X036745Y022372D03*
X036808Y022372D03*
X036871Y022372D03*
X036934Y022372D03*
X036997Y022372D03*
X037060Y022309D03*
X037060Y021868D03*
X036997Y021805D03*
X036241Y022309D03*
X036241Y023128D03*
X036304Y023128D03*
X034477Y022057D03*
X034036Y021490D03*
X033658Y021301D03*
X033595Y021364D03*
X033973Y020860D03*
X033910Y020042D03*
X033406Y019727D03*
X033217Y019664D03*
X033154Y019664D03*
X033784Y019349D03*
X034918Y018530D03*
X035044Y018530D03*
X035107Y018530D03*
X034981Y018215D03*
X034414Y017963D03*
X034162Y017774D03*
X033784Y017396D03*
X033532Y017396D03*
X033343Y016955D03*
X033532Y016640D03*
X034225Y017081D03*
X036178Y017459D03*
X036241Y017459D03*
X036304Y017459D03*
X036367Y017459D03*
X036430Y017459D03*
X036493Y017459D03*
X036556Y017459D03*
X036619Y017459D03*
X036682Y017459D03*
X036745Y017459D03*
X036745Y017900D03*
X036682Y017900D03*
X036619Y017900D03*
X036556Y017900D03*
X036493Y017900D03*
X036430Y017900D03*
X036367Y017900D03*
X036304Y017900D03*
X036241Y017963D03*
X036241Y018341D03*
X036304Y018404D03*
X036367Y018404D03*
X036430Y018404D03*
X036493Y018404D03*
X036556Y018404D03*
X036619Y018404D03*
X036682Y018404D03*
X036808Y018341D03*
X036808Y018656D03*
X036745Y018656D03*
X036808Y019034D03*
X036745Y019097D03*
X036682Y019097D03*
X036619Y019097D03*
X036556Y019097D03*
X036556Y019349D03*
X036619Y019349D03*
X036682Y019349D03*
X036745Y019349D03*
X036808Y019349D03*
X036871Y019349D03*
X036934Y019349D03*
X036745Y019601D03*
X036682Y019601D03*
X036808Y019664D03*
X036934Y019853D03*
X036808Y020042D03*
X036745Y020105D03*
X036682Y020105D03*
X036619Y020357D03*
X036808Y020357D03*
X036934Y020546D03*
X036430Y020798D03*
X036367Y020860D03*
X036304Y020860D03*
X036052Y020986D03*
X036304Y020168D03*
X036367Y020168D03*
X036241Y020105D03*
X036241Y019601D03*
X036304Y019601D03*
X036367Y019601D03*
X036493Y019349D03*
X036178Y019160D03*
X036808Y017963D03*
X036304Y017207D03*
X036304Y016955D03*
X036367Y016955D03*
X036430Y016955D03*
X036493Y016955D03*
X036556Y016955D03*
X036619Y016955D03*
X036682Y016955D03*
X036745Y016955D03*
X036808Y016955D03*
X036682Y016577D03*
X036745Y016514D03*
X036808Y016514D03*
X036808Y016073D03*
X036682Y016010D03*
X036619Y016010D03*
X036556Y016010D03*
X036493Y016010D03*
X036430Y016010D03*
X036367Y016010D03*
X036304Y016010D03*
X036241Y016010D03*
X036241Y015758D03*
X036556Y015758D03*
X036808Y015758D03*
X036808Y015317D03*
X036682Y015254D03*
X036619Y015254D03*
X036556Y015254D03*
X036430Y015254D03*
X036367Y015254D03*
X036304Y015254D03*
X036241Y015254D03*
X036241Y015065D03*
X036178Y015065D03*
X036304Y014813D03*
X036682Y015002D03*
X036745Y015002D03*
X036808Y015002D03*
X036871Y015002D03*
X036934Y015002D03*
X036997Y015002D03*
X037060Y015002D03*
X037123Y015002D03*
X037060Y014750D03*
X037060Y014309D03*
X036997Y014246D03*
X036934Y014246D03*
X036871Y014246D03*
X036808Y014246D03*
X036745Y014246D03*
X036619Y014246D03*
X036556Y014246D03*
X036493Y014246D03*
X036430Y014246D03*
X036367Y014246D03*
X036304Y014246D03*
X036241Y014246D03*
X036178Y013427D03*
X036115Y013427D03*
X036430Y013238D03*
X036493Y013238D03*
X036556Y013238D03*
X036619Y013238D03*
X036682Y013238D03*
X036808Y013175D03*
X036934Y012986D03*
X036934Y012735D03*
X036745Y012735D03*
X036682Y012735D03*
X036619Y012735D03*
X036556Y012735D03*
X036493Y012735D03*
X036430Y012735D03*
X036367Y012735D03*
X036304Y012735D03*
X036241Y012735D03*
X036178Y012735D03*
X036115Y012546D03*
X036052Y012546D03*
X036304Y012546D03*
X036367Y012546D03*
X036430Y012546D03*
X036493Y012546D03*
X036745Y012483D03*
X036808Y012483D03*
X036934Y012483D03*
X036808Y012042D03*
X036745Y012042D03*
X036682Y012042D03*
X036619Y012042D03*
X036556Y012042D03*
X036493Y012042D03*
X036430Y012042D03*
X036367Y012042D03*
X036304Y012042D03*
X036304Y011853D03*
X036241Y011853D03*
X036178Y011853D03*
X036304Y011601D03*
X036367Y011601D03*
X036430Y011538D03*
X036241Y011538D03*
X036682Y011790D03*
X036745Y011790D03*
X036808Y011790D03*
X036871Y011790D03*
X036934Y011790D03*
X036934Y011286D03*
X036808Y011097D03*
X036619Y011097D03*
X036556Y010845D03*
X036808Y010845D03*
X036808Y010404D03*
X036682Y010341D03*
X036619Y010341D03*
X036556Y010341D03*
X036430Y010341D03*
X036367Y010341D03*
X036304Y010341D03*
X036241Y010341D03*
X036304Y010152D03*
X036367Y010152D03*
X036430Y010152D03*
X036493Y010152D03*
X036241Y010089D03*
X036241Y009585D03*
X036304Y009585D03*
X036367Y009585D03*
X036430Y009585D03*
X036493Y009585D03*
X036556Y009585D03*
X036619Y009585D03*
X036682Y009585D03*
X036745Y009585D03*
X036808Y009585D03*
X036871Y009585D03*
X036934Y009585D03*
X036997Y009585D03*
X037060Y009585D03*
X037123Y009585D03*
X037060Y010089D03*
X036997Y010089D03*
X036934Y010089D03*
X036871Y010089D03*
X036241Y010845D03*
X035611Y009774D03*
X034540Y011160D03*
X034855Y011601D03*
X034981Y011601D03*
X035107Y012986D03*
X035107Y013175D03*
X035170Y014120D03*
X034792Y014498D03*
X036241Y016955D03*
X031831Y019034D03*
X031769Y019160D03*
X031643Y019349D03*
X031580Y019475D03*
X031517Y019601D03*
X031454Y019727D03*
X031391Y019853D03*
X031328Y019979D03*
X031265Y020105D03*
X031202Y020231D03*
X031139Y020294D03*
X031076Y020420D03*
X031076Y020672D03*
X033784Y022372D03*
X032965Y029049D03*
X032083Y029238D03*
X031328Y029742D03*
X031391Y029868D03*
X031580Y030120D03*
X031517Y030246D03*
X031894Y030561D03*
X031706Y030939D03*
X031643Y031065D03*
X031202Y030876D03*
X030761Y030372D03*
X033154Y030939D03*
X033532Y030687D03*
X033154Y032892D03*
X033343Y033144D03*
X033280Y033207D03*
X033406Y033081D03*
X033406Y033396D03*
X033343Y033396D03*
X033406Y033585D03*
X033469Y033648D03*
X034162Y033270D03*
X034288Y033270D03*
X034414Y033270D03*
X034477Y033270D03*
X034540Y033081D03*
X034855Y033270D03*
X034288Y033459D03*
X034603Y034278D03*
X034099Y034593D03*
X032965Y034719D03*
X032965Y035286D03*
X032083Y034467D03*
X032146Y034341D03*
X031265Y034152D03*
X031454Y033396D03*
X031769Y033018D03*
X031706Y032892D03*
X031643Y032703D03*
X031202Y032829D03*
X030887Y033081D03*
X034918Y036105D03*
X035044Y036105D03*
X035107Y036105D03*
X033784Y036923D03*
X033406Y037301D03*
X033217Y037238D03*
X035485Y034593D03*
X035989Y034404D03*
X035926Y034278D03*
X036745Y034278D03*
X037375Y034719D03*
X037312Y033396D03*
X037375Y033270D03*
X036556Y033522D03*
X036178Y033207D03*
X036052Y033396D03*
X036430Y032703D03*
X035926Y029490D03*
X035989Y029301D03*
X037753Y029175D03*
X037627Y037553D03*
X037375Y037553D03*
X030824Y009207D03*
D19*
X032083Y009175D03*
X034603Y011128D03*
X035485Y010120D03*
X035548Y010120D03*
X036241Y011128D03*
X036556Y011191D03*
X036934Y010624D03*
X037123Y009994D03*
X037753Y009175D03*
X036241Y012073D03*
X036241Y012514D03*
X036808Y012766D03*
X036934Y012262D03*
X035044Y012703D03*
X034540Y013963D03*
X034036Y013648D03*
X033406Y015412D03*
X032839Y015412D03*
X033532Y016294D03*
X033406Y016672D03*
X033280Y017238D03*
X033595Y017742D03*
X034288Y017112D03*
X034162Y016923D03*
X034162Y016294D03*
X033973Y016294D03*
X034792Y018183D03*
X034855Y018183D03*
X034918Y018183D03*
X035044Y018183D03*
X035233Y018183D03*
X035233Y018498D03*
X035170Y018498D03*
X035296Y018498D03*
X033784Y018750D03*
X033280Y018939D03*
X033532Y019254D03*
X033910Y020325D03*
X034036Y021270D03*
X033847Y021522D03*
X033532Y021333D03*
X033847Y022278D03*
X034036Y022341D03*
X034855Y021774D03*
X034792Y020829D03*
X036241Y020829D03*
X036241Y020388D03*
X036556Y020451D03*
X036241Y021900D03*
X036619Y022278D03*
X037123Y021900D03*
X037123Y023034D03*
X036934Y024923D03*
X036808Y025427D03*
X035296Y025742D03*
X035233Y025742D03*
X035170Y025742D03*
X034729Y024483D03*
X033532Y026498D03*
X034162Y027317D03*
X033658Y027632D03*
X033847Y028514D03*
X034036Y029333D03*
X034540Y029648D03*
X034981Y029648D03*
X035170Y030026D03*
X034855Y030593D03*
X035107Y031727D03*
X036493Y031286D03*
X036493Y032483D03*
X036934Y032735D03*
X036052Y034624D03*
X035170Y034750D03*
X034729Y034246D03*
X034666Y034246D03*
X034288Y033679D03*
X034162Y033679D03*
X034099Y033679D03*
X034036Y033679D03*
X034351Y033238D03*
X033910Y032672D03*
X033091Y033301D03*
X031580Y033616D03*
X031139Y034813D03*
X030950Y034813D03*
X031139Y032609D03*
X031580Y032483D03*
X031580Y031286D03*
X031139Y031097D03*
X031265Y029585D03*
X031076Y028577D03*
X031894Y027128D03*
X032083Y027128D03*
X034792Y028073D03*
X035044Y028388D03*
X036241Y028199D03*
X036241Y027758D03*
X036934Y027947D03*
X036934Y027254D03*
X036808Y027065D03*
X033406Y031160D03*
X035170Y036073D03*
X035233Y036073D03*
X033784Y036325D03*
X033280Y036514D03*
X033532Y036829D03*
X031139Y037522D03*
X031894Y018876D03*
X032083Y018876D03*
X031013Y016986D03*
X030824Y016986D03*
X036241Y017175D03*
X036808Y017238D03*
X036808Y017490D03*
X036934Y017679D03*
X036241Y016546D03*
X036934Y016294D03*
X036934Y015538D03*
X037123Y014656D03*
X037123Y014341D03*
X036619Y014467D03*
X036241Y014782D03*
X036934Y018876D03*
D20*
X036934Y018152D03*
X035170Y018215D03*
X034288Y016829D03*
X034036Y016640D03*
X033847Y016703D03*
X034036Y016325D03*
X034099Y016325D03*
X033343Y016703D03*
X033406Y015695D03*
X034792Y015758D03*
X034729Y014813D03*
X034729Y014435D03*
X035107Y014246D03*
X035170Y014372D03*
X035170Y013805D03*
X035170Y013490D03*
X034414Y013742D03*
X034477Y013994D03*
X034414Y014057D03*
X034918Y012042D03*
X033910Y011286D03*
X033721Y011286D03*
X033658Y009963D03*
X032020Y009144D03*
X031894Y009144D03*
X031013Y009207D03*
X030887Y009207D03*
X035674Y010089D03*
X035737Y010089D03*
X036871Y011223D03*
X037690Y009144D03*
X033658Y019412D03*
X033280Y019349D03*
X033091Y019538D03*
X033091Y019979D03*
X033028Y019979D03*
X033154Y019979D03*
X034036Y020860D03*
X033910Y021427D03*
X033910Y022309D03*
X033721Y022309D03*
X030887Y020672D03*
X036871Y020483D03*
X037123Y022246D03*
X036934Y026152D03*
X034162Y027601D03*
X033658Y027349D03*
X033280Y026593D03*
X032020Y027160D03*
X031013Y028546D03*
X030950Y028546D03*
X032020Y028986D03*
X033028Y030246D03*
X033595Y030246D03*
X033343Y030813D03*
X034477Y029679D03*
X034414Y029427D03*
X035107Y029931D03*
X036052Y029112D03*
X037690Y029175D03*
X037627Y031380D03*
X037627Y032388D03*
X037564Y034719D03*
X037438Y034719D03*
X035170Y035223D03*
X034288Y034593D03*
X034225Y034593D03*
X034162Y034593D03*
X033595Y034152D03*
X033469Y033396D03*
X033154Y033333D03*
X033154Y032577D03*
X033910Y032388D03*
X034099Y033333D03*
X034477Y033585D03*
X034603Y033333D03*
X034666Y033333D03*
X034729Y033333D03*
X034855Y032199D03*
X033973Y028168D03*
X033280Y036923D03*
X033091Y037112D03*
X033658Y036986D03*
X031076Y037490D03*
X031013Y037490D03*
X030950Y037490D03*
X037438Y037553D03*
X037501Y037553D03*
X037564Y037553D03*
D21*
X030887Y013837D03*
D22*
X030887Y026561D03*
D23*
X030950Y013049D03*
D24*
X030950Y024073D03*
D25*
X033406Y023916D03*
X033910Y024986D03*
X034792Y024294D03*
X034792Y023916D03*
X034099Y022341D03*
X034792Y021711D03*
X034729Y020829D03*
X034540Y020010D03*
X033217Y020010D03*
X033028Y019443D03*
X034036Y017679D03*
X033973Y016672D03*
X033847Y016357D03*
X033469Y016357D03*
X034225Y016357D03*
X036178Y017049D03*
X036934Y016860D03*
X037186Y014530D03*
X036682Y014341D03*
X034666Y014341D03*
X034981Y013207D03*
X033910Y011632D03*
X033154Y012073D03*
X035611Y010057D03*
X031013Y020640D03*
X037186Y022089D03*
X036178Y026372D03*
X034729Y028073D03*
X035170Y028577D03*
X034981Y028892D03*
X035170Y029522D03*
X034036Y029774D03*
X033406Y030845D03*
X033028Y031475D03*
X034036Y031790D03*
X033973Y032357D03*
X033217Y032609D03*
X033217Y033364D03*
X034036Y033364D03*
X034414Y033553D03*
X034351Y034624D03*
X033028Y034120D03*
X032020Y034750D03*
X033028Y037018D03*
X035107Y031412D03*
X035107Y031034D03*
X034036Y028136D03*
X034603Y027254D03*
X033217Y027254D03*
X033154Y027254D03*
X033091Y027254D03*
X033028Y027254D03*
X033091Y026813D03*
X033028Y026687D03*
D26*
X031013Y022215D03*
X031013Y035884D03*
D27*
X031076Y035160D03*
X035170Y031317D03*
X034666Y029175D03*
X033217Y029175D03*
X034855Y024199D03*
X033280Y016514D03*
X033217Y016514D03*
X033154Y016514D03*
X033091Y016514D03*
X033028Y016514D03*
X034666Y013490D03*
X033910Y009459D03*
X033847Y009459D03*
D28*
X034477Y009396D03*
X035296Y009900D03*
X034603Y010530D03*
X034540Y010530D03*
X033847Y010467D03*
X034477Y013364D03*
X034729Y013490D03*
X035044Y013490D03*
X034540Y020672D03*
X033595Y023695D03*
X033532Y023695D03*
X033532Y024640D03*
X033469Y024640D03*
X033595Y024640D03*
X034603Y027916D03*
X034477Y029049D03*
X033343Y031506D03*
X031517Y031884D03*
D29*
X031957Y018152D03*
D30*
X032020Y020168D03*
D31*
X033595Y018278D03*
X034918Y016514D03*
X033280Y015569D03*
X033217Y015569D03*
X033154Y015569D03*
X033091Y015569D03*
X033028Y015569D03*
X033028Y014687D03*
X033091Y014687D03*
X033154Y014687D03*
X033280Y014687D03*
X033091Y013490D03*
X034792Y013553D03*
X035107Y013679D03*
X034414Y011538D03*
X033595Y011538D03*
X032965Y011412D03*
X032902Y011412D03*
X032839Y011412D03*
X032776Y011412D03*
X032713Y011412D03*
X033910Y010530D03*
X034666Y010530D03*
X034729Y010530D03*
X034855Y010467D03*
X035359Y009963D03*
X034918Y009459D03*
X034792Y009396D03*
X034729Y009396D03*
X034603Y009333D03*
X033658Y009396D03*
X034666Y022309D03*
X034729Y022309D03*
X034792Y022309D03*
X033406Y022435D03*
X033343Y023695D03*
X033280Y023695D03*
X033217Y023695D03*
X033784Y024262D03*
X033406Y024640D03*
X033343Y024640D03*
X033280Y024640D03*
X033217Y024640D03*
X033280Y025648D03*
X033406Y025648D03*
X033469Y025648D03*
X034792Y029238D03*
X035107Y029364D03*
X034603Y032703D03*
X034729Y032766D03*
X034918Y032829D03*
X033343Y034845D03*
X033595Y035853D03*
X033658Y035853D03*
D32*
X033469Y035884D03*
X034099Y036766D03*
X034792Y036451D03*
X034666Y032672D03*
X036556Y031916D03*
X034540Y029081D03*
X033091Y029207D03*
X034099Y026435D03*
X034792Y026120D03*
X033028Y025679D03*
X033658Y024231D03*
X033721Y024231D03*
X033469Y023727D03*
X034351Y023286D03*
X034414Y023286D03*
X034477Y023286D03*
X034540Y023286D03*
X034603Y023286D03*
X034666Y023286D03*
X034666Y024231D03*
X034477Y024231D03*
X034414Y024231D03*
X034351Y024231D03*
X034540Y022278D03*
X034603Y022278D03*
X034099Y019191D03*
X034792Y018876D03*
X033028Y018372D03*
X033217Y014656D03*
X034414Y014656D03*
X034540Y013396D03*
X034792Y010498D03*
X034918Y010435D03*
X033973Y009364D03*
X033721Y009364D03*
X032902Y009805D03*
X032839Y009805D03*
X032776Y009805D03*
D33*
X033217Y012073D03*
X033658Y013018D03*
X033721Y013018D03*
X033784Y013018D03*
X033847Y013081D03*
X034036Y013207D03*
X033595Y013081D03*
X033532Y013081D03*
X033406Y013837D03*
X033406Y014656D03*
X033721Y014656D03*
X034288Y014656D03*
X034351Y015538D03*
X034099Y015601D03*
X033784Y015601D03*
X033658Y015601D03*
X033784Y016483D03*
X034918Y017553D03*
X034477Y018435D03*
X034540Y018561D03*
X034351Y020262D03*
X034288Y020262D03*
X034162Y021459D03*
X034351Y021522D03*
X033469Y021522D03*
X033532Y022404D03*
X034351Y022404D03*
X035107Y022404D03*
X035359Y022404D03*
X033658Y023475D03*
X033091Y023664D03*
X034036Y024231D03*
X034099Y024231D03*
X034162Y024231D03*
X034288Y024231D03*
X034918Y024294D03*
X034540Y025805D03*
X034477Y026561D03*
X034351Y027506D03*
X034288Y027506D03*
X034225Y027506D03*
X034225Y028199D03*
X034288Y028766D03*
X034036Y028892D03*
X033784Y028703D03*
X033721Y028703D03*
X033658Y028703D03*
X033595Y028766D03*
X033532Y028766D03*
X032902Y028703D03*
X033406Y027506D03*
X032965Y025553D03*
X036493Y024168D03*
X037186Y022782D03*
X036178Y019821D03*
X036493Y015475D03*
X036178Y012325D03*
X034477Y012388D03*
X036178Y010561D03*
X036493Y010561D03*
X036178Y009805D03*
X036178Y028010D03*
X033469Y030215D03*
X033406Y030215D03*
X033595Y030908D03*
X033406Y031727D03*
X033469Y031790D03*
X033847Y032483D03*
X034099Y032483D03*
X034162Y032483D03*
X034288Y032483D03*
X034351Y032483D03*
X034414Y032546D03*
X034477Y032546D03*
X035044Y032735D03*
X034225Y033490D03*
X033973Y033490D03*
X033910Y033490D03*
X033847Y033490D03*
X033784Y033490D03*
X033721Y033490D03*
X033343Y034120D03*
X033280Y034120D03*
X033469Y034876D03*
X033595Y034939D03*
X033721Y035002D03*
X033847Y035065D03*
X034540Y036136D03*
X033154Y037018D03*
X034162Y031790D03*
X034225Y031790D03*
X034414Y030971D03*
X034288Y030908D03*
X034225Y030908D03*
X035233Y031412D03*
D34*
X034918Y031443D03*
X035044Y031002D03*
X033784Y031821D03*
X033721Y031821D03*
X033658Y031821D03*
X033595Y031821D03*
X033532Y031821D03*
X033469Y032514D03*
X033595Y032514D03*
X033658Y032514D03*
X033721Y032514D03*
X033784Y032514D03*
X033658Y033522D03*
X033595Y033522D03*
X033406Y034152D03*
X033217Y034152D03*
X032902Y034971D03*
X034288Y036042D03*
X034351Y036042D03*
X034477Y036860D03*
X034414Y036923D03*
X034351Y036923D03*
X034288Y036923D03*
X034225Y036923D03*
X034162Y036923D03*
X033469Y036923D03*
X035233Y032640D03*
X033343Y030246D03*
X033280Y030246D03*
X033217Y030246D03*
X033154Y030246D03*
X033469Y029616D03*
X033532Y029616D03*
X033595Y029679D03*
X033658Y029679D03*
X033406Y029553D03*
X033028Y029175D03*
X034225Y029616D03*
X034288Y029616D03*
X034351Y029616D03*
X035044Y028986D03*
X034477Y028105D03*
X034414Y028105D03*
X034099Y027475D03*
X033847Y027475D03*
X033721Y027475D03*
X033595Y027475D03*
X033532Y027475D03*
X033469Y027475D03*
X033469Y026593D03*
X034162Y026593D03*
X034225Y026593D03*
X034288Y026593D03*
X034351Y026593D03*
X034414Y026593D03*
X034477Y025774D03*
X034288Y025711D03*
X034225Y025711D03*
X033721Y025585D03*
X033658Y025648D03*
X034288Y025081D03*
X034099Y023380D03*
X034036Y023380D03*
X033973Y023380D03*
X033910Y023380D03*
X033784Y023443D03*
X033721Y023443D03*
X033658Y022435D03*
X033595Y022435D03*
X034162Y022435D03*
X034855Y022435D03*
X034918Y022435D03*
X034981Y022435D03*
X035044Y022435D03*
X034540Y021553D03*
X034288Y021490D03*
X034351Y020860D03*
X034414Y020860D03*
X034477Y020860D03*
X034666Y020798D03*
X034225Y020231D03*
X034162Y020231D03*
X034099Y020231D03*
X033973Y020231D03*
X033847Y020231D03*
X033721Y020231D03*
X033658Y020231D03*
X033595Y020231D03*
X033532Y020231D03*
X033469Y020231D03*
X033406Y020231D03*
X033469Y019349D03*
X034162Y019349D03*
X034225Y019349D03*
X034288Y019349D03*
X034351Y019349D03*
X034414Y019349D03*
X034477Y019286D03*
X034225Y018467D03*
X034477Y017585D03*
X034540Y017585D03*
X034603Y017585D03*
X034666Y017585D03*
X034729Y017585D03*
X034792Y017585D03*
X034855Y017585D03*
X034288Y015569D03*
X034162Y015569D03*
X034036Y015569D03*
X033973Y015569D03*
X033910Y015569D03*
X033847Y015569D03*
X033721Y015569D03*
X033595Y015569D03*
X033532Y015569D03*
X033469Y015569D03*
X033784Y014687D03*
X033847Y014687D03*
X033910Y014687D03*
X034036Y014687D03*
X034162Y014687D03*
X034225Y014687D03*
X034099Y013994D03*
X034225Y013931D03*
X034288Y013931D03*
X034351Y013931D03*
X033658Y013994D03*
X033595Y013994D03*
X033532Y013931D03*
X033469Y013931D03*
X033028Y013490D03*
X033595Y012357D03*
X033217Y011412D03*
X033154Y011412D03*
X033091Y011412D03*
X034288Y011601D03*
X034855Y012042D03*
X035989Y012294D03*
X036871Y012294D03*
X036871Y012923D03*
X037186Y009774D03*
X036178Y020609D03*
X036178Y022057D03*
X037186Y024136D03*
X036871Y025585D03*
X036871Y027223D03*
X036871Y027979D03*
X035989Y027979D03*
D35*
X033217Y025742D03*
X033091Y025742D03*
X033154Y029144D03*
X034792Y031412D03*
X033406Y035884D03*
X034288Y018246D03*
X035422Y017679D03*
X035359Y016483D03*
X035296Y016483D03*
X035233Y016483D03*
X035170Y016483D03*
X035107Y016483D03*
X035044Y016483D03*
X034981Y016483D03*
X034666Y015475D03*
X033154Y013459D03*
X033469Y010309D03*
X032965Y009868D03*
X034414Y009427D03*
X034540Y009427D03*
D36*
X034918Y011349D03*
X034225Y011475D03*
X034162Y011475D03*
X034099Y011475D03*
X034036Y011475D03*
X033973Y011475D03*
X033847Y011475D03*
X033658Y011538D03*
X033028Y011412D03*
X033469Y013112D03*
X033406Y013175D03*
X033343Y014687D03*
X033973Y014750D03*
X034351Y014687D03*
X034225Y015632D03*
X033343Y015569D03*
X033595Y016514D03*
X033658Y016514D03*
X033721Y016514D03*
X033910Y016514D03*
X033973Y017648D03*
X034351Y018404D03*
X034414Y018404D03*
X034855Y018782D03*
X034540Y019223D03*
X034477Y020168D03*
X034414Y020231D03*
X034666Y020168D03*
X034729Y020168D03*
X033343Y020231D03*
X034225Y021490D03*
X034477Y021616D03*
X035170Y022372D03*
X035233Y022372D03*
X035296Y022372D03*
X035422Y022372D03*
X035485Y022372D03*
X036178Y022813D03*
X034729Y023821D03*
X034288Y023317D03*
X033469Y022435D03*
X033154Y023695D03*
X033028Y023695D03*
X033028Y024640D03*
X033091Y024640D03*
X033154Y024640D03*
X033532Y025522D03*
X034351Y025081D03*
X034414Y025081D03*
X034477Y025081D03*
X034666Y025081D03*
X034855Y026026D03*
X034540Y026467D03*
X034666Y027412D03*
X034729Y027412D03*
X034414Y027475D03*
X033343Y027475D03*
X033469Y028798D03*
X033406Y028860D03*
X033658Y030876D03*
X033721Y030876D03*
X033784Y030876D03*
X033847Y030876D03*
X033910Y030876D03*
X033973Y030876D03*
X034036Y030876D03*
X034099Y030876D03*
X034162Y030876D03*
X034351Y030939D03*
X034288Y031821D03*
X034414Y031821D03*
X034792Y032766D03*
X034855Y032766D03*
X034981Y032766D03*
X033154Y031506D03*
X033406Y034845D03*
X033532Y034908D03*
X033658Y034971D03*
X033784Y035034D03*
X033973Y035160D03*
X034036Y035160D03*
X034099Y035223D03*
X034162Y035223D03*
X034225Y035286D03*
X034288Y035286D03*
X034855Y036357D03*
X034540Y036798D03*
X032965Y035853D03*
X032965Y018278D03*
X033028Y017522D03*
X034981Y017522D03*
X036178Y014498D03*
D37*
X034603Y013522D03*
X033217Y013459D03*
X034414Y010498D03*
X034477Y010498D03*
X033721Y010372D03*
X033028Y009931D03*
X033532Y018057D03*
X033784Y018057D03*
X034666Y018876D03*
X033154Y025805D03*
X034729Y026120D03*
X034729Y029081D03*
X034603Y029207D03*
X034729Y031412D03*
X033217Y031349D03*
X034729Y036388D03*
X034666Y036451D03*
D38*
X034477Y036073D03*
X034414Y036073D03*
X034225Y036010D03*
X034162Y035947D03*
X033721Y035947D03*
X033406Y036829D03*
X033469Y034120D03*
X033532Y034120D03*
X033154Y034120D03*
X033091Y034120D03*
X033532Y033490D03*
X033343Y032546D03*
X033532Y032483D03*
X034099Y031790D03*
X034225Y032546D03*
X035107Y032672D03*
X034540Y033427D03*
X033091Y031538D03*
X033721Y029648D03*
X034414Y028829D03*
X034351Y028136D03*
X034288Y028136D03*
X034162Y028136D03*
X034666Y028073D03*
X034036Y027443D03*
X033973Y027443D03*
X033784Y027443D03*
X033406Y026498D03*
X033595Y025679D03*
X034162Y025679D03*
X034351Y025742D03*
X034414Y025742D03*
X034225Y025049D03*
X034162Y025049D03*
X034225Y023412D03*
X033847Y023412D03*
X034225Y022404D03*
X034288Y022341D03*
X034414Y022467D03*
X034477Y022467D03*
X034603Y021585D03*
X034414Y021459D03*
X034099Y021396D03*
X034162Y020892D03*
X034225Y020892D03*
X034288Y020892D03*
X034036Y020199D03*
X033784Y020199D03*
X033406Y019254D03*
X034162Y018372D03*
X033847Y017553D03*
X034288Y016420D03*
X033343Y016231D03*
X033595Y014719D03*
X033658Y014719D03*
X034099Y014719D03*
X034036Y014026D03*
X034162Y014026D03*
X033721Y013963D03*
X034414Y013144D03*
X034225Y012451D03*
X034162Y012451D03*
X034099Y012451D03*
X034036Y012451D03*
X033973Y012451D03*
X033847Y012451D03*
X033721Y012388D03*
X033658Y012388D03*
X034351Y012388D03*
X034414Y012388D03*
X034477Y011695D03*
X034351Y011632D03*
X034855Y011254D03*
X034981Y011254D03*
X036178Y011317D03*
X036871Y010624D03*
X034792Y015349D03*
X036871Y015538D03*
X036871Y016294D03*
X036871Y017049D03*
X036871Y018120D03*
X036178Y018183D03*
X036871Y018813D03*
X036871Y019884D03*
X036493Y020640D03*
X033028Y021774D03*
X036430Y024105D03*
X036871Y026372D03*
X035170Y029081D03*
D39*
X033280Y035412D03*
X033028Y035412D03*
X033154Y018089D03*
D40*
X033721Y017994D03*
X033973Y019002D03*
X034603Y018876D03*
X035296Y017742D03*
X034603Y020451D03*
X034603Y026120D03*
X033973Y026246D03*
X033343Y029144D03*
X034162Y029270D03*
X034666Y031412D03*
X033280Y031349D03*
X034414Y035065D03*
X034603Y036451D03*
X033973Y036577D03*
X033343Y013459D03*
X033091Y009931D03*
X035233Y009931D03*
D41*
X033091Y018089D03*
X033847Y018719D03*
D42*
X033910Y017679D03*
X035044Y017490D03*
X035107Y017490D03*
X035170Y017490D03*
X035233Y017490D03*
X034855Y016483D03*
X034792Y016483D03*
X034729Y016483D03*
X034666Y016483D03*
X034603Y016483D03*
X034540Y016483D03*
X034477Y016483D03*
X034414Y015538D03*
X034729Y015412D03*
X033532Y014593D03*
X033469Y014593D03*
X034099Y013333D03*
X034162Y013333D03*
X033784Y011506D03*
X033973Y010561D03*
X034036Y010561D03*
X034099Y010561D03*
X034162Y010561D03*
X034225Y010561D03*
X033658Y010498D03*
X033469Y009427D03*
X034036Y009301D03*
X034099Y009301D03*
X034162Y009301D03*
X034225Y009301D03*
X034666Y009364D03*
X034855Y009427D03*
X033406Y021585D03*
X033091Y021774D03*
X033091Y022530D03*
X034162Y023412D03*
X034225Y024231D03*
X033973Y024231D03*
X033910Y024231D03*
X033847Y024231D03*
X034477Y027443D03*
X034855Y031412D03*
X034351Y031790D03*
X034540Y032609D03*
X033910Y035128D03*
X034351Y035317D03*
X033532Y035821D03*
D43*
X033784Y035979D03*
X033217Y036798D03*
X035296Y035979D03*
X034351Y033585D03*
X035296Y032703D03*
X035170Y032640D03*
X035233Y031947D03*
X034036Y032388D03*
X033406Y032514D03*
X033280Y032577D03*
X033091Y030246D03*
X033532Y030246D03*
X034414Y029805D03*
X035044Y029490D03*
X034981Y029301D03*
X034855Y029175D03*
X034351Y028860D03*
X034225Y028860D03*
X033847Y028860D03*
X034099Y028105D03*
X033280Y027286D03*
X033154Y026593D03*
X033217Y026467D03*
X033784Y025648D03*
X033973Y025018D03*
X034036Y025018D03*
X034099Y025018D03*
X033847Y024955D03*
X033784Y024955D03*
X033721Y024955D03*
X033658Y024892D03*
X034918Y024829D03*
X033406Y023506D03*
X033973Y021364D03*
X034099Y020860D03*
X033280Y020042D03*
X033154Y019349D03*
X033217Y019223D03*
X034666Y021616D03*
X034729Y021616D03*
X036556Y022120D03*
X036871Y024829D03*
X035926Y027916D03*
X037060Y031884D03*
X036871Y017585D03*
X034666Y014750D03*
X034981Y013616D03*
X034855Y013490D03*
X034351Y013175D03*
X034288Y013175D03*
X034225Y013175D03*
X034288Y012420D03*
X033910Y012420D03*
X033784Y012420D03*
X033721Y011664D03*
X035422Y010026D03*
X036493Y011349D03*
X035926Y012231D03*
X033406Y016325D03*
D44*
X033217Y035506D03*
X033091Y035506D03*
D45*
X033847Y036483D03*
X033910Y036483D03*
X033910Y029238D03*
X033973Y029238D03*
X033910Y026152D03*
X033847Y026152D03*
X033280Y018089D03*
X033910Y013553D03*
X033973Y013553D03*
X033469Y011853D03*
X033406Y011853D03*
X034729Y011727D03*
X033154Y009900D03*
D46*
X034666Y011727D03*
X034603Y015065D03*
X034477Y015065D03*
X034540Y015191D03*
X033406Y018026D03*
X033910Y018845D03*
X033217Y022120D03*
X033154Y022120D03*
X034477Y031380D03*
X034540Y031443D03*
D47*
X033154Y035538D03*
D48*
X033469Y017994D03*
X033532Y011884D03*
X034792Y011695D03*
X035107Y009931D03*
X033217Y009931D03*
D49*
X033532Y009931D03*
X033595Y009931D03*
X034351Y017112D03*
X033217Y018057D03*
D50*
X033280Y022089D03*
X033343Y022089D03*
X034540Y024609D03*
X034603Y024609D03*
X034981Y009931D03*
X035044Y009931D03*
X033343Y009931D03*
X033280Y009931D03*
D51*
X033280Y011790D03*
X034540Y011916D03*
X034603Y011916D03*
X035170Y009963D03*
X033343Y025900D03*
X034540Y027727D03*
X034099Y029301D03*
X033280Y029112D03*
X034477Y035097D03*
X034540Y035097D03*
X034603Y035097D03*
X034666Y035097D03*
D52*
X034729Y035097D03*
X034036Y036609D03*
X034036Y026278D03*
X034666Y026152D03*
X034036Y019034D03*
X034729Y018782D03*
X035359Y017711D03*
X033280Y013490D03*
D53*
X033343Y011821D03*
X033658Y017994D03*
X034603Y031412D03*
D54*
X033343Y018246D03*
D55*
X033343Y036105D03*
D56*
X034414Y016986D03*
X033406Y009931D03*
D57*
X033784Y009931D03*
D58*
X034288Y009963D03*
X034351Y009963D03*
D59*
X037501Y035727D03*
D60*
X037564Y019160D03*
X037627Y019160D03*
D61*
X004631Y004990D02*
X004631Y041211D01*
X005576Y041211D02*
X005578Y041261D01*
X005584Y041311D01*
X005594Y041360D01*
X005608Y041408D01*
X005625Y041455D01*
X005646Y041500D01*
X005671Y041544D01*
X005699Y041585D01*
X005731Y041624D01*
X005765Y041661D01*
X005802Y041695D01*
X005842Y041725D01*
X005884Y041752D01*
X005928Y041776D01*
X005974Y041797D01*
X006021Y041813D01*
X006069Y041826D01*
X006119Y041835D01*
X006168Y041840D01*
X006219Y041841D01*
X006269Y041838D01*
X006318Y041831D01*
X006367Y041820D01*
X006415Y041805D01*
X006461Y041787D01*
X006506Y041765D01*
X006549Y041739D01*
X006590Y041710D01*
X006629Y041678D01*
X006665Y041643D01*
X006697Y041605D01*
X006727Y041565D01*
X006754Y041522D01*
X006777Y041478D01*
X006796Y041432D01*
X006812Y041384D01*
X006824Y041335D01*
X006832Y041286D01*
X006836Y041236D01*
X006836Y041186D01*
X006832Y041136D01*
X006824Y041087D01*
X006812Y041038D01*
X006796Y040990D01*
X006777Y040944D01*
X006754Y040900D01*
X006727Y040857D01*
X006697Y040817D01*
X006665Y040779D01*
X006629Y040744D01*
X006590Y040712D01*
X006549Y040683D01*
X006506Y040657D01*
X006461Y040635D01*
X006415Y040617D01*
X006367Y040602D01*
X006318Y040591D01*
X006269Y040584D01*
X006219Y040581D01*
X006168Y040582D01*
X006119Y040587D01*
X006069Y040596D01*
X006021Y040609D01*
X005974Y040625D01*
X005928Y040646D01*
X005884Y040670D01*
X005842Y040697D01*
X005802Y040727D01*
X005765Y040761D01*
X005731Y040798D01*
X005699Y040837D01*
X005671Y040878D01*
X005646Y040922D01*
X005625Y040967D01*
X005608Y041014D01*
X005594Y041062D01*
X005584Y041111D01*
X005578Y041161D01*
X005576Y041211D01*
X004631Y041211D02*
X004633Y041288D01*
X004639Y041365D01*
X004648Y041442D01*
X004661Y041518D01*
X004678Y041594D01*
X004699Y041668D01*
X004723Y041742D01*
X004751Y041814D01*
X004782Y041884D01*
X004817Y041953D01*
X004855Y042021D01*
X004896Y042086D01*
X004941Y042149D01*
X004989Y042210D01*
X005039Y042269D01*
X005092Y042325D01*
X005148Y042378D01*
X005207Y042428D01*
X005268Y042476D01*
X005331Y042521D01*
X005396Y042562D01*
X005464Y042600D01*
X005533Y042635D01*
X005603Y042666D01*
X005675Y042694D01*
X005749Y042718D01*
X005823Y042739D01*
X005899Y042756D01*
X005975Y042769D01*
X006052Y042778D01*
X006129Y042784D01*
X006206Y042786D01*
X042426Y042786D01*
X041796Y041211D02*
X041798Y041261D01*
X041804Y041311D01*
X041814Y041360D01*
X041828Y041408D01*
X041845Y041455D01*
X041866Y041500D01*
X041891Y041544D01*
X041919Y041585D01*
X041951Y041624D01*
X041985Y041661D01*
X042022Y041695D01*
X042062Y041725D01*
X042104Y041752D01*
X042148Y041776D01*
X042194Y041797D01*
X042241Y041813D01*
X042289Y041826D01*
X042339Y041835D01*
X042388Y041840D01*
X042439Y041841D01*
X042489Y041838D01*
X042538Y041831D01*
X042587Y041820D01*
X042635Y041805D01*
X042681Y041787D01*
X042726Y041765D01*
X042769Y041739D01*
X042810Y041710D01*
X042849Y041678D01*
X042885Y041643D01*
X042917Y041605D01*
X042947Y041565D01*
X042974Y041522D01*
X042997Y041478D01*
X043016Y041432D01*
X043032Y041384D01*
X043044Y041335D01*
X043052Y041286D01*
X043056Y041236D01*
X043056Y041186D01*
X043052Y041136D01*
X043044Y041087D01*
X043032Y041038D01*
X043016Y040990D01*
X042997Y040944D01*
X042974Y040900D01*
X042947Y040857D01*
X042917Y040817D01*
X042885Y040779D01*
X042849Y040744D01*
X042810Y040712D01*
X042769Y040683D01*
X042726Y040657D01*
X042681Y040635D01*
X042635Y040617D01*
X042587Y040602D01*
X042538Y040591D01*
X042489Y040584D01*
X042439Y040581D01*
X042388Y040582D01*
X042339Y040587D01*
X042289Y040596D01*
X042241Y040609D01*
X042194Y040625D01*
X042148Y040646D01*
X042104Y040670D01*
X042062Y040697D01*
X042022Y040727D01*
X041985Y040761D01*
X041951Y040798D01*
X041919Y040837D01*
X041891Y040878D01*
X041866Y040922D01*
X041845Y040967D01*
X041828Y041014D01*
X041814Y041062D01*
X041804Y041111D01*
X041798Y041161D01*
X041796Y041211D01*
X042426Y042786D02*
X042503Y042784D01*
X042580Y042778D01*
X042657Y042769D01*
X042733Y042756D01*
X042809Y042739D01*
X042883Y042718D01*
X042957Y042694D01*
X043029Y042666D01*
X043099Y042635D01*
X043168Y042600D01*
X043236Y042562D01*
X043301Y042521D01*
X043364Y042476D01*
X043425Y042428D01*
X043484Y042378D01*
X043540Y042325D01*
X043593Y042269D01*
X043643Y042210D01*
X043691Y042149D01*
X043736Y042086D01*
X043777Y042021D01*
X043815Y041953D01*
X043850Y041884D01*
X043881Y041814D01*
X043909Y041742D01*
X043933Y041668D01*
X043954Y041594D01*
X043971Y041518D01*
X043984Y041442D01*
X043993Y041365D01*
X043999Y041288D01*
X044001Y041211D01*
X044001Y004990D01*
X041796Y004990D02*
X041798Y005040D01*
X041804Y005090D01*
X041814Y005139D01*
X041828Y005187D01*
X041845Y005234D01*
X041866Y005279D01*
X041891Y005323D01*
X041919Y005364D01*
X041951Y005403D01*
X041985Y005440D01*
X042022Y005474D01*
X042062Y005504D01*
X042104Y005531D01*
X042148Y005555D01*
X042194Y005576D01*
X042241Y005592D01*
X042289Y005605D01*
X042339Y005614D01*
X042388Y005619D01*
X042439Y005620D01*
X042489Y005617D01*
X042538Y005610D01*
X042587Y005599D01*
X042635Y005584D01*
X042681Y005566D01*
X042726Y005544D01*
X042769Y005518D01*
X042810Y005489D01*
X042849Y005457D01*
X042885Y005422D01*
X042917Y005384D01*
X042947Y005344D01*
X042974Y005301D01*
X042997Y005257D01*
X043016Y005211D01*
X043032Y005163D01*
X043044Y005114D01*
X043052Y005065D01*
X043056Y005015D01*
X043056Y004965D01*
X043052Y004915D01*
X043044Y004866D01*
X043032Y004817D01*
X043016Y004769D01*
X042997Y004723D01*
X042974Y004679D01*
X042947Y004636D01*
X042917Y004596D01*
X042885Y004558D01*
X042849Y004523D01*
X042810Y004491D01*
X042769Y004462D01*
X042726Y004436D01*
X042681Y004414D01*
X042635Y004396D01*
X042587Y004381D01*
X042538Y004370D01*
X042489Y004363D01*
X042439Y004360D01*
X042388Y004361D01*
X042339Y004366D01*
X042289Y004375D01*
X042241Y004388D01*
X042194Y004404D01*
X042148Y004425D01*
X042104Y004449D01*
X042062Y004476D01*
X042022Y004506D01*
X041985Y004540D01*
X041951Y004577D01*
X041919Y004616D01*
X041891Y004657D01*
X041866Y004701D01*
X041845Y004746D01*
X041828Y004793D01*
X041814Y004841D01*
X041804Y004890D01*
X041798Y004940D01*
X041796Y004990D01*
X042426Y003415D02*
X042503Y003417D01*
X042580Y003423D01*
X042657Y003432D01*
X042733Y003445D01*
X042809Y003462D01*
X042883Y003483D01*
X042957Y003507D01*
X043029Y003535D01*
X043099Y003566D01*
X043168Y003601D01*
X043236Y003639D01*
X043301Y003680D01*
X043364Y003725D01*
X043425Y003773D01*
X043484Y003823D01*
X043540Y003876D01*
X043593Y003932D01*
X043643Y003991D01*
X043691Y004052D01*
X043736Y004115D01*
X043777Y004180D01*
X043815Y004248D01*
X043850Y004317D01*
X043881Y004387D01*
X043909Y004459D01*
X043933Y004533D01*
X043954Y004607D01*
X043971Y004683D01*
X043984Y004759D01*
X043993Y004836D01*
X043999Y004913D01*
X044001Y004990D01*
X042426Y003416D02*
X006206Y003416D01*
X005576Y004990D02*
X005578Y005040D01*
X005584Y005090D01*
X005594Y005139D01*
X005608Y005187D01*
X005625Y005234D01*
X005646Y005279D01*
X005671Y005323D01*
X005699Y005364D01*
X005731Y005403D01*
X005765Y005440D01*
X005802Y005474D01*
X005842Y005504D01*
X005884Y005531D01*
X005928Y005555D01*
X005974Y005576D01*
X006021Y005592D01*
X006069Y005605D01*
X006119Y005614D01*
X006168Y005619D01*
X006219Y005620D01*
X006269Y005617D01*
X006318Y005610D01*
X006367Y005599D01*
X006415Y005584D01*
X006461Y005566D01*
X006506Y005544D01*
X006549Y005518D01*
X006590Y005489D01*
X006629Y005457D01*
X006665Y005422D01*
X006697Y005384D01*
X006727Y005344D01*
X006754Y005301D01*
X006777Y005257D01*
X006796Y005211D01*
X006812Y005163D01*
X006824Y005114D01*
X006832Y005065D01*
X006836Y005015D01*
X006836Y004965D01*
X006832Y004915D01*
X006824Y004866D01*
X006812Y004817D01*
X006796Y004769D01*
X006777Y004723D01*
X006754Y004679D01*
X006727Y004636D01*
X006697Y004596D01*
X006665Y004558D01*
X006629Y004523D01*
X006590Y004491D01*
X006549Y004462D01*
X006506Y004436D01*
X006461Y004414D01*
X006415Y004396D01*
X006367Y004381D01*
X006318Y004370D01*
X006269Y004363D01*
X006219Y004360D01*
X006168Y004361D01*
X006119Y004366D01*
X006069Y004375D01*
X006021Y004388D01*
X005974Y004404D01*
X005928Y004425D01*
X005884Y004449D01*
X005842Y004476D01*
X005802Y004506D01*
X005765Y004540D01*
X005731Y004577D01*
X005699Y004616D01*
X005671Y004657D01*
X005646Y004701D01*
X005625Y004746D01*
X005608Y004793D01*
X005594Y004841D01*
X005584Y004890D01*
X005578Y004940D01*
X005576Y004990D01*
X004631Y004990D02*
X004633Y004913D01*
X004639Y004836D01*
X004648Y004759D01*
X004661Y004683D01*
X004678Y004607D01*
X004699Y004533D01*
X004723Y004459D01*
X004751Y004387D01*
X004782Y004317D01*
X004817Y004248D01*
X004855Y004180D01*
X004896Y004115D01*
X004941Y004052D01*
X004989Y003991D01*
X005039Y003932D01*
X005092Y003876D01*
X005148Y003823D01*
X005207Y003773D01*
X005268Y003725D01*
X005331Y003680D01*
X005396Y003639D01*
X005464Y003601D01*
X005533Y003566D01*
X005603Y003535D01*
X005675Y003507D01*
X005749Y003483D01*
X005823Y003462D01*
X005899Y003445D01*
X005975Y003432D01*
X006052Y003423D01*
X006129Y003417D01*
X006206Y003415D01*
M02*
