G75*
G70*
%OFA0B0*%
%FSLAX24Y24*%
%IPPOS*%
%LPD*%
%AMOC8*
5,1,8,0,0,1.08239X$1,22.5*
%
%ADD10C,0.0100*%
%ADD11C,0.0060*%
%ADD12C,0.0080*%
%ADD13C,0.0160*%
%ADD14C,0.0240*%
%ADD15C,0.0090*%
%ADD16R,0.4250X0.0500*%
%ADD17R,0.4000X0.0500*%
%ADD18R,0.1500X0.1250*%
%ADD19R,0.1500X0.0750*%
%ADD20C,0.0130*%
%ADD21C,0.0070*%
%ADD22C,0.0120*%
%ADD23R,0.0012X0.0012*%
%ADD24R,0.0012X0.0024*%
%ADD25R,0.0012X0.0035*%
%ADD26R,0.0012X0.0047*%
%ADD27R,0.0012X0.1217*%
%ADD28R,0.0012X0.0791*%
%ADD29R,0.0012X0.1512*%
%ADD30R,0.0012X0.1323*%
%ADD31R,0.0012X0.0059*%
%ADD32R,0.0012X0.0461*%
%ADD33R,0.0012X0.0189*%
%ADD34R,0.0012X0.0165*%
%ADD35R,0.0012X0.3425*%
%ADD36R,0.0012X0.2339*%
%ADD37R,0.0012X0.0142*%
%ADD38R,0.0012X0.0154*%
%ADD39R,0.0012X0.0106*%
%ADD40R,0.0012X0.0094*%
%ADD41R,0.0012X0.0177*%
%ADD42R,0.0012X0.0118*%
%ADD43R,0.0012X0.0201*%
%ADD44R,0.0012X0.0083*%
%ADD45R,0.0012X0.0354*%
%ADD46R,0.0012X0.0224*%
%ADD47R,0.0012X0.0331*%
%ADD48R,0.0012X0.0130*%
%ADD49R,0.0012X0.0071*%
%ADD50R,0.0012X0.0390*%
%ADD51R,0.0012X0.0260*%
%ADD52R,0.0012X0.0283*%
%ADD53R,0.0012X0.0402*%
%ADD54R,0.0012X0.0272*%
%ADD55R,0.0012X0.0343*%
%ADD56R,0.0012X0.0295*%
%ADD57R,0.0012X0.0236*%
%ADD58R,0.0012X0.0213*%
%ADD59R,0.0012X0.0248*%
%ADD60R,0.0012X0.0413*%
%ADD61R,0.0012X0.0307*%
%ADD62R,0.0012X0.0319*%
%ADD63R,0.0012X0.0366*%
%ADD64R,0.0012X0.0378*%
%ADD65R,0.0012X0.0425*%
%ADD66R,0.0012X0.3803*%
%ADD67C,0.0000*%
%ADD68C,0.0050*%
D10*
X007316Y003601D02*
X007316Y004226D01*
X007316Y007101D01*
X009941Y007101D01*
X009941Y004226D01*
X007316Y004226D01*
X010316Y004351D02*
X010316Y007101D01*
X013066Y007101D01*
X013066Y004351D01*
X010316Y004351D01*
X013316Y004351D02*
X013316Y006851D01*
X019316Y006851D01*
X019316Y004351D01*
X013316Y004351D01*
X013316Y007101D02*
X013316Y015101D01*
X014316Y015101D01*
X014316Y013101D01*
X015316Y013101D01*
X015316Y015101D01*
X019316Y015101D01*
X019316Y007101D01*
X015316Y007101D01*
X014316Y007101D01*
X014316Y009101D01*
X015316Y009101D01*
X015316Y007101D01*
X014316Y007101D02*
X013316Y007101D01*
X012566Y007601D02*
X011816Y007601D01*
X011816Y008601D01*
X012566Y008601D01*
X011816Y008601D02*
X011691Y008601D01*
X010566Y008601D01*
X010566Y007601D02*
X011691Y007601D01*
X011816Y007601D01*
X012566Y009726D02*
X012566Y010851D01*
X008816Y010851D01*
X008816Y011351D01*
X012816Y011351D01*
X012816Y010851D01*
X012566Y010851D01*
X012566Y009726D02*
X009066Y009726D01*
X008191Y009476D02*
X008191Y011476D01*
X007191Y011476D01*
X007191Y009476D01*
X008191Y009476D01*
X006816Y009226D02*
X005816Y009226D01*
X005816Y011101D01*
X006816Y011101D01*
X006816Y009226D01*
X008066Y011601D02*
X005316Y011601D01*
X005316Y014351D01*
X006441Y014351D01*
X006441Y014851D01*
X008941Y014851D01*
X008941Y011851D01*
X008066Y011851D01*
X008066Y011601D01*
X007566Y014851D02*
X006816Y014851D01*
X008066Y015101D02*
X005316Y015101D01*
X005316Y017851D01*
X006441Y017851D01*
X006441Y018351D01*
X008941Y018351D01*
X008941Y015351D01*
X008066Y015351D01*
X008066Y015101D01*
X007566Y018351D02*
X006816Y018351D01*
X008066Y018601D02*
X005316Y018601D01*
X005316Y021351D01*
X006441Y021351D01*
X006441Y021851D01*
X008941Y021851D01*
X008941Y018851D01*
X008066Y018851D01*
X008066Y018601D01*
X009816Y018851D02*
X009816Y026851D01*
X013316Y026851D01*
X013316Y023851D01*
X012566Y023851D01*
X012566Y021851D01*
X013316Y021851D01*
X013316Y018851D01*
X009816Y018851D01*
X010316Y019351D02*
X010316Y026351D01*
X012816Y026351D01*
X012816Y023851D01*
X013316Y023851D02*
X013316Y021851D01*
X012816Y021851D02*
X012816Y019351D01*
X010316Y019351D01*
X012066Y019601D02*
X012316Y019601D01*
X012316Y020101D01*
X012066Y020101D01*
X012066Y019601D01*
X012316Y019601D02*
X012566Y019601D01*
X012566Y020101D01*
X012316Y020101D01*
X013816Y020601D02*
X013816Y022351D01*
X013870Y022353D01*
X013923Y022359D01*
X013975Y022368D01*
X014027Y022381D01*
X014078Y022398D01*
X014128Y022419D01*
X014175Y022443D01*
X014221Y022470D01*
X014265Y022501D01*
X014307Y022534D01*
X014346Y022571D01*
X014383Y022610D01*
X014416Y022652D01*
X014447Y022696D01*
X014474Y022742D01*
X014498Y022789D01*
X014519Y022839D01*
X014536Y022890D01*
X014549Y022942D01*
X014558Y022994D01*
X014564Y023047D01*
X014566Y023101D01*
X014564Y023155D01*
X014558Y023208D01*
X014549Y023260D01*
X014536Y023312D01*
X014519Y023363D01*
X014498Y023413D01*
X014474Y023460D01*
X014447Y023506D01*
X014416Y023550D01*
X014383Y023592D01*
X014346Y023631D01*
X014307Y023668D01*
X014265Y023701D01*
X014221Y023732D01*
X014175Y023759D01*
X014128Y023783D01*
X014078Y023804D01*
X014027Y023821D01*
X013975Y023834D01*
X013923Y023843D01*
X013870Y023849D01*
X013816Y023851D01*
X013816Y025601D01*
X034566Y025601D01*
X034566Y020601D01*
X013816Y020601D01*
X014316Y015101D02*
X015316Y015101D01*
X015316Y012101D02*
X014316Y012101D01*
X014316Y010101D01*
X015316Y010101D01*
X015316Y012101D01*
X019566Y012601D02*
X019566Y011601D01*
X021566Y011601D01*
X021566Y012601D01*
X019566Y012601D01*
X019566Y010851D02*
X019566Y009851D01*
X021566Y009851D01*
X021566Y010851D01*
X019566Y010851D01*
X021816Y010851D02*
X021816Y011351D01*
X026066Y011351D01*
X026066Y010851D01*
X025816Y010851D01*
X025816Y009851D01*
X022066Y009851D01*
X022066Y010851D01*
X021816Y010851D01*
X022066Y010851D02*
X025816Y010851D01*
X027316Y010101D02*
X027316Y012101D01*
X028316Y012101D01*
X028316Y010101D01*
X027316Y010101D01*
X027316Y009101D02*
X028316Y009101D01*
X028316Y007101D01*
X027316Y007101D01*
X027316Y009101D01*
X025566Y008601D02*
X024816Y008601D01*
X024816Y007601D01*
X024691Y007601D01*
X023566Y007601D01*
X023316Y007101D02*
X023316Y004351D01*
X026066Y004351D01*
X026066Y007101D01*
X023316Y007101D01*
X022816Y007101D02*
X022816Y004351D01*
X020316Y004351D01*
X020316Y007101D01*
X022816Y007101D01*
X023566Y008601D02*
X024691Y008601D01*
X024816Y008601D01*
X024816Y007601D02*
X025566Y007601D01*
X026316Y007101D02*
X026316Y015101D01*
X027316Y015101D01*
X027316Y013101D01*
X028316Y013101D01*
X028316Y015101D01*
X032316Y015101D01*
X032316Y007101D01*
X028316Y007101D01*
X027316Y007101D02*
X026316Y007101D01*
X026316Y006851D02*
X032316Y006851D01*
X032316Y004351D01*
X026316Y004351D01*
X026316Y006851D01*
X033816Y007101D02*
X033816Y004476D01*
X036441Y004476D01*
X036441Y007101D01*
X033816Y007101D01*
X034316Y009601D02*
X036316Y009601D01*
X036316Y010601D01*
X034316Y010601D01*
X034316Y009601D01*
X034316Y011351D02*
X036316Y011351D01*
X036316Y012351D01*
X034316Y012351D01*
X034316Y011351D01*
X036816Y011101D02*
X036816Y011601D01*
X040816Y011601D01*
X040816Y011101D01*
X040566Y011101D01*
X040566Y010101D01*
X037066Y010101D01*
X037066Y011101D01*
X036816Y011101D01*
X037066Y011101D02*
X040566Y011101D01*
X039816Y009351D02*
X039066Y009351D01*
X039066Y008351D01*
X038941Y008351D01*
X037816Y008351D01*
X037816Y009351D02*
X038941Y009351D01*
X039066Y009351D01*
X039066Y008351D02*
X039816Y008351D01*
X040816Y008101D02*
X040816Y004601D01*
X036816Y004601D01*
X036816Y008101D01*
X040816Y008101D01*
X041816Y012851D02*
X038316Y012851D01*
X038316Y016851D01*
X041816Y016851D01*
X041816Y012851D01*
X043191Y017351D02*
X037191Y017351D01*
X037191Y020851D01*
X039316Y020851D01*
X039316Y020351D01*
X041066Y020351D01*
X041066Y020851D01*
X043191Y020851D01*
X043191Y017351D01*
X042816Y017726D02*
X037566Y017726D01*
X037566Y020476D01*
X039191Y020476D01*
X039316Y020851D02*
X041066Y020851D01*
X041191Y020476D02*
X042816Y020476D01*
X042816Y017726D01*
X036891Y019401D02*
X036891Y019708D01*
X036891Y019916D02*
X036430Y019916D01*
X036891Y020223D01*
X036430Y020223D01*
X036507Y020432D02*
X036814Y020432D01*
X036891Y020509D01*
X036891Y020662D01*
X036814Y020739D01*
X036507Y020739D02*
X036430Y020662D01*
X036430Y020509D01*
X036507Y020432D01*
X036430Y019708D02*
X036430Y019401D01*
X036891Y019401D01*
X036661Y019401D02*
X036661Y019554D01*
X035816Y021976D02*
X034816Y021976D01*
X034816Y024476D01*
X035816Y024476D01*
X035816Y021976D01*
X033316Y026851D02*
X033316Y027851D01*
X034816Y028601D02*
X035816Y028601D01*
X035816Y030601D01*
X034816Y030601D01*
X034816Y028601D01*
X034066Y029601D02*
X034066Y030601D01*
X032066Y030601D01*
X032066Y029601D01*
X034066Y029601D01*
X034066Y031101D02*
X033566Y031101D01*
X033316Y031601D02*
X033316Y033101D01*
X034316Y033101D01*
X034316Y031601D01*
X034816Y031601D02*
X034816Y033101D01*
X035816Y033101D01*
X035816Y031101D01*
X035066Y031101D01*
X032816Y031601D02*
X032816Y033101D01*
X031816Y033101D01*
X031816Y031601D01*
X032066Y031101D02*
X032566Y031101D01*
X032816Y034101D02*
X031816Y034101D01*
X031816Y036101D01*
X032816Y036101D01*
X032816Y034101D01*
X033316Y034101D02*
X033316Y036101D01*
X034316Y036101D01*
X034316Y034101D01*
X033316Y034101D01*
X034816Y034101D02*
X034816Y037101D01*
X039816Y037101D01*
X039816Y034101D01*
X034816Y034101D01*
X037816Y032601D02*
X037816Y031601D01*
X039816Y031601D01*
X039816Y032601D01*
X037816Y032601D01*
X040316Y033601D02*
X041816Y033601D01*
X040316Y033601D02*
X040316Y038601D01*
X041816Y038601D01*
X040566Y038851D02*
X040566Y040851D01*
X039566Y040851D01*
X039566Y038851D01*
X040566Y038851D01*
X039066Y038851D02*
X039066Y040851D01*
X038066Y040851D01*
X038066Y038851D01*
X039066Y038851D01*
X037316Y038601D02*
X032316Y038601D01*
X032316Y039351D01*
X031566Y038851D02*
X031566Y040851D01*
X030566Y040851D01*
X030566Y038851D01*
X031566Y038851D01*
X032566Y038351D02*
X030566Y038351D01*
X030566Y037351D01*
X032566Y037351D01*
X032566Y038351D01*
X032316Y040351D02*
X032316Y041101D01*
X037316Y041101D01*
X037316Y040351D01*
X037316Y039351D02*
X037316Y038601D01*
X039316Y036851D02*
X039566Y036601D01*
X039316Y036351D01*
X039066Y036601D01*
X039316Y036851D01*
X039566Y036851D01*
X039566Y036601D01*
X039316Y036601D01*
X039066Y036601D02*
X039068Y036632D01*
X039074Y036663D01*
X039084Y036693D01*
X039097Y036721D01*
X039114Y036748D01*
X039134Y036772D01*
X039157Y036794D01*
X039182Y036812D01*
X039210Y036827D01*
X039239Y036839D01*
X039269Y036847D01*
X039300Y036851D01*
X039332Y036851D01*
X039363Y036847D01*
X039393Y036839D01*
X039422Y036827D01*
X039450Y036812D01*
X039475Y036794D01*
X039498Y036772D01*
X039518Y036748D01*
X039535Y036721D01*
X039548Y036693D01*
X039558Y036663D01*
X039564Y036632D01*
X039566Y036601D01*
X039564Y036570D01*
X039558Y036539D01*
X039548Y036509D01*
X039535Y036481D01*
X039518Y036454D01*
X039498Y036430D01*
X039475Y036408D01*
X039450Y036390D01*
X039422Y036375D01*
X039393Y036363D01*
X039363Y036355D01*
X039332Y036351D01*
X039300Y036351D01*
X039269Y036355D01*
X039239Y036363D01*
X039210Y036375D01*
X039182Y036390D01*
X039157Y036408D01*
X039134Y036430D01*
X039114Y036454D01*
X039097Y036481D01*
X039084Y036509D01*
X039074Y036539D01*
X039068Y036570D01*
X039066Y036601D01*
X039316Y036601D01*
X039066Y036601D02*
X039068Y036632D01*
X039074Y036663D01*
X039084Y036693D01*
X039097Y036721D01*
X039114Y036748D01*
X039134Y036772D01*
X039157Y036794D01*
X039182Y036812D01*
X039210Y036827D01*
X039239Y036839D01*
X039269Y036847D01*
X039300Y036851D01*
X039332Y036851D01*
X039363Y036847D01*
X039393Y036839D01*
X039422Y036827D01*
X039450Y036812D01*
X039475Y036794D01*
X039498Y036772D01*
X039518Y036748D01*
X039535Y036721D01*
X039548Y036693D01*
X039558Y036663D01*
X039564Y036632D01*
X039566Y036601D01*
X039564Y036570D01*
X039558Y036539D01*
X039548Y036509D01*
X039535Y036481D01*
X039518Y036454D01*
X039498Y036430D01*
X039475Y036408D01*
X039450Y036390D01*
X039422Y036375D01*
X039393Y036363D01*
X039363Y036355D01*
X039332Y036351D01*
X039300Y036351D01*
X039269Y036355D01*
X039239Y036363D01*
X039210Y036375D01*
X039182Y036390D01*
X039157Y036408D01*
X039134Y036430D01*
X039114Y036454D01*
X039097Y036481D01*
X039084Y036509D01*
X039074Y036539D01*
X039068Y036570D01*
X039066Y036601D01*
X039316Y036601D02*
X039316Y036851D01*
X039316Y036601D02*
X039316Y036351D01*
X043566Y038601D02*
X043816Y038601D01*
X043816Y033601D02*
X043566Y033601D01*
X042816Y029601D02*
X038566Y029601D01*
X038566Y029101D01*
X042691Y029101D01*
X042816Y029101D01*
X042816Y029601D01*
X042691Y029101D02*
X042691Y027976D01*
X042595Y027880D01*
X042524Y027851D02*
X038816Y027851D01*
X038720Y027946D01*
X038691Y028017D02*
X038691Y029101D01*
X038691Y028017D02*
X038693Y027997D01*
X038699Y027979D01*
X038708Y027961D01*
X038720Y027946D01*
X042524Y027851D02*
X042544Y027853D01*
X042562Y027859D01*
X042580Y027868D01*
X042595Y027880D01*
X031441Y035101D02*
X027191Y035101D01*
X027191Y035601D01*
X027316Y035601D01*
X027316Y036726D01*
X031316Y036726D01*
X031316Y035601D01*
X031441Y035601D01*
X031441Y035101D01*
X031316Y035601D02*
X027316Y035601D01*
X025816Y035601D02*
X025816Y033601D01*
X024816Y033601D01*
X024816Y035601D01*
X025816Y035601D01*
X025816Y036601D02*
X024816Y036601D01*
X024816Y038601D01*
X020816Y038601D01*
X020816Y030601D01*
X024816Y030601D01*
X024816Y032601D01*
X025816Y032601D01*
X025816Y030601D01*
X026816Y030601D01*
X026816Y038601D01*
X025816Y038601D01*
X025816Y036601D01*
X025816Y038601D02*
X024816Y038601D01*
X026816Y038851D02*
X026816Y041601D01*
X020816Y041601D01*
X020816Y038851D01*
X026816Y038851D01*
X027316Y038851D02*
X027316Y041601D01*
X030066Y041601D01*
X030066Y038851D01*
X027316Y038851D01*
X027816Y038351D02*
X028941Y038351D01*
X029066Y038351D01*
X029066Y037351D01*
X029816Y037351D01*
X029066Y037351D02*
X028941Y037351D01*
X027816Y037351D01*
X029066Y038351D02*
X029816Y038351D01*
X025816Y030601D02*
X024816Y030601D01*
X025316Y029101D02*
X024316Y029101D01*
X024316Y027101D01*
X025316Y027101D01*
X025316Y029101D01*
X026316Y029101D02*
X026316Y027101D01*
X027316Y027101D01*
X027316Y029101D01*
X026316Y029101D01*
X023316Y029101D02*
X023316Y027101D01*
X022316Y027101D01*
X022316Y029101D01*
X023316Y029101D01*
X020316Y030601D02*
X020316Y038601D01*
X019316Y038601D01*
X019316Y036601D01*
X018316Y036601D01*
X018316Y038601D01*
X014316Y038601D01*
X014316Y030601D01*
X018316Y030601D01*
X018316Y032601D01*
X019316Y032601D01*
X019316Y030601D01*
X020316Y030601D01*
X019316Y030601D02*
X018316Y030601D01*
X018316Y033601D02*
X019316Y033601D01*
X019316Y035601D01*
X018316Y035601D01*
X018316Y033601D01*
X013816Y030601D02*
X012816Y030601D01*
X012816Y032601D01*
X011816Y032601D01*
X011816Y030601D01*
X012816Y030601D01*
X013816Y030601D02*
X013816Y038601D01*
X012816Y038601D01*
X012816Y036601D01*
X011816Y036601D01*
X011816Y038601D01*
X007816Y038601D01*
X007816Y030601D01*
X011816Y030601D01*
X011816Y029101D02*
X011816Y028101D01*
X009816Y028101D01*
X009816Y029101D01*
X011816Y029101D01*
X008816Y029101D02*
X008816Y028101D01*
X006816Y028101D01*
X006816Y029101D01*
X008816Y029101D01*
X007025Y025101D02*
X007027Y025157D01*
X007033Y025212D01*
X007043Y025267D01*
X007056Y025321D01*
X007074Y025374D01*
X007095Y025426D01*
X007120Y025476D01*
X007148Y025524D01*
X007179Y025570D01*
X007214Y025614D01*
X007252Y025655D01*
X007292Y025694D01*
X007335Y025729D01*
X007381Y025762D01*
X007429Y025791D01*
X007478Y025816D01*
X007529Y025838D01*
X007582Y025857D01*
X007636Y025871D01*
X007691Y025882D01*
X007746Y025889D01*
X007802Y025892D01*
X007858Y025891D01*
X007913Y025886D01*
X007969Y025877D01*
X008023Y025864D01*
X008076Y025848D01*
X008128Y025828D01*
X008179Y025804D01*
X008228Y025777D01*
X008274Y025746D01*
X008318Y025712D01*
X008360Y025675D01*
X008399Y025635D01*
X008436Y025593D01*
X008469Y025548D01*
X008499Y025501D01*
X008525Y025451D01*
X008548Y025400D01*
X008567Y025348D01*
X008583Y025294D01*
X008595Y025240D01*
X008603Y025185D01*
X008607Y025129D01*
X008607Y025073D01*
X008603Y025017D01*
X008595Y024962D01*
X008583Y024908D01*
X008567Y024854D01*
X008548Y024802D01*
X008525Y024751D01*
X008499Y024701D01*
X008469Y024654D01*
X008436Y024609D01*
X008399Y024567D01*
X008360Y024527D01*
X008318Y024490D01*
X008274Y024456D01*
X008228Y024425D01*
X008179Y024398D01*
X008128Y024374D01*
X008076Y024354D01*
X008023Y024338D01*
X007969Y024325D01*
X007913Y024316D01*
X007858Y024311D01*
X007802Y024310D01*
X007746Y024313D01*
X007691Y024320D01*
X007636Y024331D01*
X007582Y024345D01*
X007529Y024364D01*
X007478Y024386D01*
X007429Y024411D01*
X007381Y024440D01*
X007335Y024473D01*
X007292Y024508D01*
X007252Y024547D01*
X007214Y024588D01*
X007179Y024632D01*
X007148Y024678D01*
X007120Y024726D01*
X007095Y024776D01*
X007074Y024828D01*
X007056Y024881D01*
X007043Y024935D01*
X007033Y024990D01*
X007027Y025045D01*
X007025Y025101D01*
X006816Y021851D02*
X007566Y021851D01*
X011816Y033601D02*
X012816Y033601D01*
X012816Y035601D01*
X011816Y035601D01*
X011816Y033601D01*
X011816Y038601D02*
X012816Y038601D01*
X013816Y038851D02*
X013816Y041601D01*
X007816Y041601D01*
X007816Y038851D01*
X013816Y038851D01*
X014316Y038851D02*
X020316Y038851D01*
X020316Y041601D01*
X014316Y041601D01*
X014316Y038851D01*
X018316Y038601D02*
X019316Y038601D01*
X024066Y018851D02*
X024066Y018351D01*
X024066Y018851D02*
X028566Y018851D01*
X028566Y018351D01*
X028566Y017351D02*
X028566Y016851D01*
X024066Y016851D01*
X024066Y017351D01*
X023816Y016601D02*
X023816Y015601D01*
X025816Y015601D01*
X025816Y016601D01*
X023816Y016601D01*
X026816Y016601D02*
X026816Y015601D01*
X028816Y015601D01*
X028816Y016601D01*
X026816Y016601D01*
X027316Y015101D02*
X028316Y015101D01*
X033816Y015601D02*
X033818Y015687D01*
X033824Y015773D01*
X033835Y015858D01*
X033850Y015942D01*
X033868Y016026D01*
X033891Y016109D01*
X033918Y016191D01*
X033949Y016271D01*
X033984Y016349D01*
X034023Y016426D01*
X034065Y016501D01*
X034111Y016573D01*
X034160Y016643D01*
X034213Y016711D01*
X034269Y016776D01*
X034329Y016838D01*
X034391Y016898D01*
X034456Y016954D01*
X034524Y017007D01*
X034594Y017056D01*
X034666Y017102D01*
X034741Y017144D01*
X034818Y017183D01*
X034896Y017218D01*
X034976Y017249D01*
X035058Y017276D01*
X035141Y017299D01*
X035225Y017317D01*
X035309Y017332D01*
X035394Y017343D01*
X035480Y017349D01*
X035566Y017351D01*
X035652Y017349D01*
X035738Y017343D01*
X035823Y017332D01*
X035907Y017317D01*
X035991Y017299D01*
X036074Y017276D01*
X036156Y017249D01*
X036236Y017218D01*
X036314Y017183D01*
X036391Y017144D01*
X036466Y017102D01*
X036538Y017056D01*
X036608Y017007D01*
X036676Y016954D01*
X036741Y016898D01*
X036803Y016838D01*
X036863Y016776D01*
X036919Y016711D01*
X036972Y016643D01*
X037021Y016573D01*
X037067Y016501D01*
X037109Y016426D01*
X037148Y016349D01*
X037183Y016271D01*
X037214Y016191D01*
X037241Y016109D01*
X037264Y016026D01*
X037282Y015942D01*
X037297Y015858D01*
X037308Y015773D01*
X037314Y015687D01*
X037316Y015601D01*
X037314Y015515D01*
X037308Y015429D01*
X037297Y015344D01*
X037282Y015260D01*
X037264Y015176D01*
X037241Y015093D01*
X037214Y015011D01*
X037183Y014931D01*
X037148Y014853D01*
X037109Y014776D01*
X037067Y014701D01*
X037021Y014629D01*
X036972Y014559D01*
X036919Y014491D01*
X036863Y014426D01*
X036803Y014364D01*
X036741Y014304D01*
X036676Y014248D01*
X036608Y014195D01*
X036538Y014146D01*
X036466Y014100D01*
X036391Y014058D01*
X036314Y014019D01*
X036236Y013984D01*
X036156Y013953D01*
X036074Y013926D01*
X035991Y013903D01*
X035907Y013885D01*
X035823Y013870D01*
X035738Y013859D01*
X035652Y013853D01*
X035566Y013851D01*
X035480Y013853D01*
X035394Y013859D01*
X035309Y013870D01*
X035225Y013885D01*
X035141Y013903D01*
X035058Y013926D01*
X034976Y013953D01*
X034896Y013984D01*
X034818Y014019D01*
X034741Y014058D01*
X034666Y014100D01*
X034594Y014146D01*
X034524Y014195D01*
X034456Y014248D01*
X034391Y014304D01*
X034329Y014364D01*
X034269Y014426D01*
X034213Y014491D01*
X034160Y014559D01*
X034111Y014629D01*
X034065Y014701D01*
X034023Y014776D01*
X033984Y014853D01*
X033949Y014931D01*
X033918Y015011D01*
X033891Y015093D01*
X033868Y015176D01*
X033850Y015260D01*
X033835Y015344D01*
X033824Y015429D01*
X033818Y015515D01*
X033816Y015601D01*
D11*
X031436Y014664D02*
X031436Y014551D01*
X031380Y014494D01*
X031210Y014494D01*
X031323Y014494D02*
X031436Y014381D01*
X031210Y014381D02*
X031210Y014721D01*
X031380Y014721D01*
X031436Y014664D01*
X031077Y014721D02*
X030964Y014721D01*
X031021Y014721D02*
X031021Y014381D01*
X031077Y014381D02*
X030964Y014381D01*
X030823Y014437D02*
X030823Y014664D01*
X030766Y014721D01*
X030596Y014721D01*
X030596Y014381D01*
X030766Y014381D01*
X030823Y014437D01*
X030832Y013721D02*
X030832Y013381D01*
X031059Y013381D01*
X031201Y013381D02*
X031201Y013721D01*
X031371Y013721D01*
X031428Y013664D01*
X031428Y013551D01*
X031371Y013494D01*
X031201Y013494D01*
X030946Y013551D02*
X030832Y013551D01*
X030832Y013721D02*
X031059Y013721D01*
X030691Y013721D02*
X030464Y013721D01*
X030577Y013721D02*
X030577Y013381D01*
X030323Y013437D02*
X030266Y013381D01*
X030152Y013381D01*
X030096Y013437D01*
X030152Y013551D02*
X030266Y013551D01*
X030323Y013494D01*
X030323Y013437D01*
X030152Y013551D02*
X030096Y013608D01*
X030096Y013664D01*
X030152Y013721D01*
X030266Y013721D01*
X030323Y013664D01*
X030402Y012721D02*
X030346Y012664D01*
X030346Y012608D01*
X030402Y012551D01*
X030516Y012551D01*
X030573Y012494D01*
X030573Y012437D01*
X030516Y012381D01*
X030402Y012381D01*
X030346Y012437D01*
X030402Y012721D02*
X030516Y012721D01*
X030573Y012664D01*
X030714Y012721D02*
X030714Y012381D01*
X030941Y012381D01*
X031082Y012381D02*
X031082Y012721D01*
X031253Y012721D01*
X031309Y012664D01*
X031309Y012551D01*
X031253Y012494D01*
X031082Y012494D01*
X031091Y011821D02*
X031091Y011481D01*
X030836Y011537D02*
X030779Y011481D01*
X030666Y011481D01*
X030609Y011537D01*
X030666Y011651D02*
X030779Y011651D01*
X030836Y011594D01*
X030836Y011537D01*
X030666Y011651D02*
X030609Y011708D01*
X030609Y011764D01*
X030666Y011821D01*
X030779Y011821D01*
X030836Y011764D01*
X030977Y011821D02*
X031204Y011821D01*
X030468Y011764D02*
X030468Y011651D01*
X030411Y011594D01*
X030241Y011594D01*
X030354Y011594D02*
X030468Y011481D01*
X030241Y011481D02*
X030241Y011821D01*
X030411Y011821D01*
X030468Y011764D01*
X030596Y010721D02*
X030709Y010608D01*
X030823Y010721D01*
X030823Y010381D01*
X030964Y010437D02*
X031021Y010381D01*
X031134Y010381D01*
X031191Y010437D01*
X031191Y010494D01*
X031134Y010551D01*
X031077Y010551D01*
X031134Y010551D02*
X031191Y010608D01*
X031191Y010664D01*
X031134Y010721D01*
X031021Y010721D01*
X030964Y010664D01*
X030596Y010721D02*
X030596Y010381D01*
X030596Y009721D02*
X030709Y009608D01*
X030823Y009721D01*
X030823Y009381D01*
X030964Y009381D02*
X031191Y009608D01*
X031191Y009664D01*
X031134Y009721D01*
X031021Y009721D01*
X030964Y009664D01*
X030964Y009381D02*
X031191Y009381D01*
X030596Y009381D02*
X030596Y009721D01*
X030596Y008721D02*
X030709Y008608D01*
X030823Y008721D01*
X030823Y008381D01*
X030964Y008381D02*
X031191Y008381D01*
X031077Y008381D02*
X031077Y008721D01*
X030964Y008608D01*
X030596Y008721D02*
X030596Y008381D01*
X030596Y007721D02*
X030596Y007381D01*
X030823Y007381D01*
X030964Y007381D02*
X030964Y007721D01*
X031191Y007381D01*
X031191Y007721D01*
X030823Y007721D02*
X030596Y007721D01*
X030596Y007551D02*
X030709Y007551D01*
X028786Y007937D02*
X028729Y007881D01*
X028502Y008108D01*
X028729Y008108D01*
X028786Y008051D01*
X028786Y007937D01*
X028729Y007881D02*
X028502Y007881D01*
X028445Y007937D01*
X028445Y008051D01*
X028502Y008108D01*
X028729Y008249D02*
X028729Y008306D01*
X028786Y008306D01*
X028786Y008249D01*
X028729Y008249D01*
X028786Y008433D02*
X028786Y008660D01*
X028786Y008547D02*
X028445Y008547D01*
X028559Y008433D01*
X028559Y008801D02*
X028729Y008801D01*
X028786Y008858D01*
X028786Y009028D01*
X028559Y009028D01*
X027941Y009437D02*
X027884Y009381D01*
X027714Y009381D01*
X027714Y009721D01*
X027884Y009721D01*
X027941Y009664D01*
X027941Y009608D01*
X027884Y009551D01*
X027714Y009551D01*
X027573Y009608D02*
X027573Y009664D01*
X027516Y009721D01*
X027402Y009721D01*
X027346Y009664D01*
X027573Y009608D02*
X027346Y009381D01*
X027573Y009381D01*
X027884Y009551D02*
X027941Y009494D01*
X027941Y009437D01*
X028559Y010381D02*
X028445Y010494D01*
X028786Y010494D01*
X028786Y010381D02*
X028786Y010608D01*
X028786Y010749D02*
X028445Y010749D01*
X028616Y010806D02*
X028786Y010976D01*
X028672Y010749D02*
X028445Y010976D01*
X027884Y012381D02*
X027714Y012381D01*
X027714Y012721D01*
X027884Y012721D01*
X027941Y012664D01*
X027941Y012608D01*
X027884Y012551D01*
X027714Y012551D01*
X027884Y012551D02*
X027941Y012494D01*
X027941Y012437D01*
X027884Y012381D01*
X027573Y012381D02*
X027346Y012381D01*
X027459Y012381D02*
X027459Y012721D01*
X027346Y012608D01*
X028445Y013437D02*
X028445Y013551D01*
X028502Y013608D01*
X028729Y013381D01*
X028786Y013437D01*
X028786Y013551D01*
X028729Y013608D01*
X028502Y013608D01*
X028445Y013437D02*
X028502Y013381D01*
X028729Y013381D01*
X028729Y013749D02*
X028729Y013806D01*
X028786Y013806D01*
X028786Y013749D01*
X028729Y013749D01*
X028786Y013933D02*
X028786Y014160D01*
X028786Y014047D02*
X028445Y014047D01*
X028559Y013933D01*
X028559Y014301D02*
X028729Y014301D01*
X028786Y014358D01*
X028786Y014528D01*
X028559Y014528D01*
X018436Y014551D02*
X018380Y014494D01*
X018210Y014494D01*
X018323Y014494D02*
X018436Y014381D01*
X018436Y014551D02*
X018436Y014664D01*
X018380Y014721D01*
X018210Y014721D01*
X018210Y014381D01*
X018077Y014381D02*
X017964Y014381D01*
X018021Y014381D02*
X018021Y014721D01*
X018077Y014721D02*
X017964Y014721D01*
X017823Y014664D02*
X017766Y014721D01*
X017596Y014721D01*
X017596Y014381D01*
X017766Y014381D01*
X017823Y014437D01*
X017823Y014664D01*
X017832Y013721D02*
X017832Y013381D01*
X018059Y013381D01*
X018201Y013381D02*
X018201Y013721D01*
X018371Y013721D01*
X018428Y013664D01*
X018428Y013551D01*
X018371Y013494D01*
X018201Y013494D01*
X017946Y013551D02*
X017832Y013551D01*
X017832Y013721D02*
X018059Y013721D01*
X017691Y013721D02*
X017464Y013721D01*
X017577Y013721D02*
X017577Y013381D01*
X017323Y013437D02*
X017266Y013381D01*
X017152Y013381D01*
X017096Y013437D01*
X017152Y013551D02*
X017266Y013551D01*
X017323Y013494D01*
X017323Y013437D01*
X017152Y013551D02*
X017096Y013608D01*
X017096Y013664D01*
X017152Y013721D01*
X017266Y013721D01*
X017323Y013664D01*
X017402Y012721D02*
X017346Y012664D01*
X017346Y012608D01*
X017402Y012551D01*
X017516Y012551D01*
X017573Y012494D01*
X017573Y012437D01*
X017516Y012381D01*
X017402Y012381D01*
X017346Y012437D01*
X017402Y012721D02*
X017516Y012721D01*
X017573Y012664D01*
X017714Y012721D02*
X017714Y012381D01*
X017941Y012381D01*
X018082Y012381D02*
X018082Y012721D01*
X018253Y012721D01*
X018309Y012664D01*
X018309Y012551D01*
X018253Y012494D01*
X018082Y012494D01*
X018091Y011821D02*
X018091Y011481D01*
X017836Y011537D02*
X017779Y011481D01*
X017666Y011481D01*
X017609Y011537D01*
X017666Y011651D02*
X017779Y011651D01*
X017836Y011594D01*
X017836Y011537D01*
X017666Y011651D02*
X017609Y011708D01*
X017609Y011764D01*
X017666Y011821D01*
X017779Y011821D01*
X017836Y011764D01*
X017977Y011821D02*
X018204Y011821D01*
X017468Y011764D02*
X017468Y011651D01*
X017411Y011594D01*
X017241Y011594D01*
X017354Y011594D02*
X017468Y011481D01*
X017241Y011481D02*
X017241Y011821D01*
X017411Y011821D01*
X017468Y011764D01*
X017596Y010721D02*
X017709Y010608D01*
X017823Y010721D01*
X017823Y010381D01*
X017964Y010437D02*
X018021Y010381D01*
X018134Y010381D01*
X018191Y010437D01*
X018191Y010494D01*
X018134Y010551D01*
X018077Y010551D01*
X018134Y010551D02*
X018191Y010608D01*
X018191Y010664D01*
X018134Y010721D01*
X018021Y010721D01*
X017964Y010664D01*
X017596Y010721D02*
X017596Y010381D01*
X017596Y009721D02*
X017709Y009608D01*
X017823Y009721D01*
X017823Y009381D01*
X017964Y009381D02*
X018191Y009608D01*
X018191Y009664D01*
X018134Y009721D01*
X018021Y009721D01*
X017964Y009664D01*
X017964Y009381D02*
X018191Y009381D01*
X017596Y009381D02*
X017596Y009721D01*
X017596Y008721D02*
X017709Y008608D01*
X017823Y008721D01*
X017823Y008381D01*
X017964Y008381D02*
X018191Y008381D01*
X018077Y008381D02*
X018077Y008721D01*
X017964Y008608D01*
X017596Y008721D02*
X017596Y008381D01*
X017596Y007721D02*
X017596Y007381D01*
X017823Y007381D01*
X017964Y007381D02*
X017964Y007721D01*
X018191Y007381D01*
X018191Y007721D01*
X017823Y007721D02*
X017596Y007721D01*
X017596Y007551D02*
X017709Y007551D01*
X015786Y007937D02*
X015729Y007881D01*
X015502Y008108D01*
X015729Y008108D01*
X015786Y008051D01*
X015786Y007937D01*
X015729Y007881D02*
X015502Y007881D01*
X015445Y007937D01*
X015445Y008051D01*
X015502Y008108D01*
X015729Y008249D02*
X015729Y008306D01*
X015786Y008306D01*
X015786Y008249D01*
X015729Y008249D01*
X015786Y008433D02*
X015786Y008660D01*
X015786Y008547D02*
X015445Y008547D01*
X015559Y008433D01*
X015559Y008801D02*
X015729Y008801D01*
X015786Y008858D01*
X015786Y009028D01*
X015559Y009028D01*
X014941Y009437D02*
X014884Y009381D01*
X014714Y009381D01*
X014714Y009721D01*
X014884Y009721D01*
X014941Y009664D01*
X014941Y009608D01*
X014884Y009551D01*
X014714Y009551D01*
X014573Y009608D02*
X014346Y009381D01*
X014573Y009381D01*
X014573Y009608D02*
X014573Y009664D01*
X014516Y009721D01*
X014402Y009721D01*
X014346Y009664D01*
X014884Y009551D02*
X014941Y009494D01*
X014941Y009437D01*
X015559Y010381D02*
X015445Y010494D01*
X015786Y010494D01*
X015786Y010381D02*
X015786Y010608D01*
X015786Y010749D02*
X015445Y010749D01*
X015616Y010806D02*
X015786Y010976D01*
X015672Y010749D02*
X015445Y010976D01*
X014884Y012381D02*
X014714Y012381D01*
X014714Y012721D01*
X014884Y012721D01*
X014941Y012664D01*
X014941Y012608D01*
X014884Y012551D01*
X014714Y012551D01*
X014884Y012551D02*
X014941Y012494D01*
X014941Y012437D01*
X014884Y012381D01*
X014573Y012381D02*
X014346Y012381D01*
X014459Y012381D02*
X014459Y012721D01*
X014346Y012608D01*
X015445Y013437D02*
X015445Y013551D01*
X015502Y013608D01*
X015729Y013381D01*
X015786Y013437D01*
X015786Y013551D01*
X015729Y013608D01*
X015502Y013608D01*
X015445Y013437D02*
X015502Y013381D01*
X015729Y013381D01*
X015729Y013749D02*
X015729Y013806D01*
X015786Y013806D01*
X015786Y013749D01*
X015729Y013749D01*
X015786Y013933D02*
X015786Y014160D01*
X015786Y014047D02*
X015445Y014047D01*
X015559Y013933D01*
X015559Y014301D02*
X015729Y014301D01*
X015786Y014358D01*
X015786Y014528D01*
X015559Y014528D01*
X015516Y030881D02*
X015573Y030937D01*
X015573Y031164D01*
X015516Y031221D01*
X015346Y031221D01*
X015346Y030881D01*
X015516Y030881D01*
X015714Y030881D02*
X015827Y030881D01*
X015771Y030881D02*
X015771Y031221D01*
X015827Y031221D02*
X015714Y031221D01*
X015960Y031221D02*
X016130Y031221D01*
X016186Y031164D01*
X016186Y031051D01*
X016130Y030994D01*
X015960Y030994D01*
X016073Y030994D02*
X016186Y030881D01*
X015960Y030881D02*
X015960Y031221D01*
X016082Y031881D02*
X016309Y031881D01*
X016451Y031881D02*
X016451Y032221D01*
X016621Y032221D01*
X016678Y032164D01*
X016678Y032051D01*
X016621Y031994D01*
X016451Y031994D01*
X016196Y032051D02*
X016082Y032051D01*
X016082Y032221D02*
X016082Y031881D01*
X015827Y031881D02*
X015827Y032221D01*
X015714Y032221D02*
X015941Y032221D01*
X016082Y032221D02*
X016309Y032221D01*
X016082Y032881D02*
X016082Y033221D01*
X016253Y033221D01*
X016309Y033164D01*
X016309Y033051D01*
X016253Y032994D01*
X016082Y032994D01*
X015941Y032881D02*
X015714Y032881D01*
X015714Y033221D01*
X015573Y033164D02*
X015516Y033221D01*
X015402Y033221D01*
X015346Y033164D01*
X015346Y033108D01*
X015402Y033051D01*
X015516Y033051D01*
X015573Y032994D01*
X015573Y032937D01*
X015516Y032881D01*
X015402Y032881D01*
X015346Y032937D01*
X015402Y032221D02*
X015346Y032164D01*
X015346Y032108D01*
X015402Y032051D01*
X015516Y032051D01*
X015573Y031994D01*
X015573Y031937D01*
X015516Y031881D01*
X015402Y031881D01*
X015346Y031937D01*
X015402Y032221D02*
X015516Y032221D01*
X015573Y032164D01*
X015573Y033881D02*
X015459Y033994D01*
X015516Y033994D02*
X015346Y033994D01*
X015346Y033881D02*
X015346Y034221D01*
X015516Y034221D01*
X015573Y034164D01*
X015573Y034051D01*
X015516Y033994D01*
X015714Y033937D02*
X015771Y033881D01*
X015884Y033881D01*
X015941Y033937D01*
X015941Y033994D01*
X015884Y034051D01*
X015771Y034051D01*
X015714Y034108D01*
X015714Y034164D01*
X015771Y034221D01*
X015884Y034221D01*
X015941Y034164D01*
X016082Y034221D02*
X016309Y034221D01*
X016196Y034221D02*
X016196Y033881D01*
X015884Y034881D02*
X015771Y034881D01*
X015714Y034937D01*
X015573Y034881D02*
X015573Y035221D01*
X015459Y035108D01*
X015346Y035221D01*
X015346Y034881D01*
X015714Y035164D02*
X015771Y035221D01*
X015884Y035221D01*
X015941Y035164D01*
X015941Y035108D01*
X015884Y035051D01*
X015941Y034994D01*
X015941Y034937D01*
X015884Y034881D01*
X015884Y035051D02*
X015827Y035051D01*
X015714Y035881D02*
X015941Y036108D01*
X015941Y036164D01*
X015884Y036221D01*
X015771Y036221D01*
X015714Y036164D01*
X015573Y036221D02*
X015573Y035881D01*
X015714Y035881D02*
X015941Y035881D01*
X015573Y036221D02*
X015459Y036108D01*
X015346Y036221D01*
X015346Y035881D01*
X015346Y036881D02*
X015346Y037221D01*
X015459Y037108D01*
X015573Y037221D01*
X015573Y036881D01*
X015714Y036881D02*
X015941Y036881D01*
X015827Y036881D02*
X015827Y037221D01*
X015714Y037108D01*
X015714Y037881D02*
X015714Y038221D01*
X015941Y037881D01*
X015941Y038221D01*
X015573Y038221D02*
X015346Y038221D01*
X015346Y037881D01*
X015573Y037881D01*
X015459Y038051D02*
X015346Y038051D01*
X012941Y036164D02*
X012941Y036108D01*
X012884Y036051D01*
X012714Y036051D01*
X012573Y036108D02*
X012573Y036164D01*
X012516Y036221D01*
X012402Y036221D01*
X012346Y036164D01*
X012573Y036108D02*
X012346Y035881D01*
X012573Y035881D01*
X012714Y035881D02*
X012884Y035881D01*
X012941Y035937D01*
X012941Y035994D01*
X012884Y036051D01*
X012941Y036164D02*
X012884Y036221D01*
X012714Y036221D01*
X012714Y035881D01*
X012714Y033221D02*
X012884Y033221D01*
X012941Y033164D01*
X012941Y033108D01*
X012884Y033051D01*
X012714Y033051D01*
X012714Y032881D02*
X012714Y033221D01*
X012884Y033051D02*
X012941Y032994D01*
X012941Y032937D01*
X012884Y032881D01*
X012714Y032881D01*
X012573Y032881D02*
X012346Y032881D01*
X012459Y032881D02*
X012459Y033221D01*
X012346Y033108D01*
X010178Y032164D02*
X010178Y032051D01*
X010121Y031994D01*
X009951Y031994D01*
X009951Y031881D02*
X009951Y032221D01*
X010121Y032221D01*
X010178Y032164D01*
X009809Y032221D02*
X009582Y032221D01*
X009582Y031881D01*
X009809Y031881D01*
X009696Y032051D02*
X009582Y032051D01*
X009441Y032221D02*
X009214Y032221D01*
X009327Y032221D02*
X009327Y031881D01*
X009073Y031937D02*
X009016Y031881D01*
X008902Y031881D01*
X008846Y031937D01*
X008902Y032051D02*
X009016Y032051D01*
X009073Y031994D01*
X009073Y031937D01*
X008902Y032051D02*
X008846Y032108D01*
X008846Y032164D01*
X008902Y032221D01*
X009016Y032221D01*
X009073Y032164D01*
X009016Y032881D02*
X008902Y032881D01*
X008846Y032937D01*
X008902Y033051D02*
X009016Y033051D01*
X009073Y032994D01*
X009073Y032937D01*
X009016Y032881D01*
X009214Y032881D02*
X009441Y032881D01*
X009582Y032881D02*
X009582Y033221D01*
X009753Y033221D01*
X009809Y033164D01*
X009809Y033051D01*
X009753Y032994D01*
X009582Y032994D01*
X009214Y032881D02*
X009214Y033221D01*
X009073Y033164D02*
X009016Y033221D01*
X008902Y033221D01*
X008846Y033164D01*
X008846Y033108D01*
X008902Y033051D01*
X008846Y033881D02*
X008846Y034221D01*
X009016Y034221D01*
X009073Y034164D01*
X009073Y034051D01*
X009016Y033994D01*
X008846Y033994D01*
X008959Y033994D02*
X009073Y033881D01*
X009214Y033937D02*
X009271Y033881D01*
X009384Y033881D01*
X009441Y033937D01*
X009441Y033994D01*
X009384Y034051D01*
X009271Y034051D01*
X009214Y034108D01*
X009214Y034164D01*
X009271Y034221D01*
X009384Y034221D01*
X009441Y034164D01*
X009582Y034221D02*
X009809Y034221D01*
X009696Y034221D02*
X009696Y033881D01*
X009384Y034881D02*
X009271Y034881D01*
X009214Y034937D01*
X009073Y034881D02*
X009073Y035221D01*
X008959Y035108D01*
X008846Y035221D01*
X008846Y034881D01*
X009214Y035164D02*
X009271Y035221D01*
X009384Y035221D01*
X009441Y035164D01*
X009441Y035108D01*
X009384Y035051D01*
X009441Y034994D01*
X009441Y034937D01*
X009384Y034881D01*
X009384Y035051D02*
X009327Y035051D01*
X009214Y035881D02*
X009441Y036108D01*
X009441Y036164D01*
X009384Y036221D01*
X009271Y036221D01*
X009214Y036164D01*
X009073Y036221D02*
X009073Y035881D01*
X009214Y035881D02*
X009441Y035881D01*
X009073Y036221D02*
X008959Y036108D01*
X008846Y036221D01*
X008846Y035881D01*
X008846Y036881D02*
X008846Y037221D01*
X008959Y037108D01*
X009073Y037221D01*
X009073Y036881D01*
X009214Y036881D02*
X009441Y036881D01*
X009327Y036881D02*
X009327Y037221D01*
X009214Y037108D01*
X009214Y037881D02*
X009214Y038221D01*
X009441Y037881D01*
X009441Y038221D01*
X009073Y038221D02*
X008846Y038221D01*
X008846Y037881D01*
X009073Y037881D01*
X008959Y038051D02*
X008846Y038051D01*
X008846Y031221D02*
X009016Y031221D01*
X009073Y031164D01*
X009073Y030937D01*
X009016Y030881D01*
X008846Y030881D01*
X008846Y031221D01*
X009214Y031221D02*
X009327Y031221D01*
X009271Y031221D02*
X009271Y030881D01*
X009327Y030881D02*
X009214Y030881D01*
X009460Y030881D02*
X009460Y031221D01*
X009630Y031221D01*
X009686Y031164D01*
X009686Y031051D01*
X009630Y030994D01*
X009460Y030994D01*
X009573Y030994D02*
X009686Y030881D01*
X018846Y032881D02*
X019073Y032881D01*
X018959Y032881D02*
X018959Y033221D01*
X018846Y033108D01*
X019214Y033051D02*
X019384Y033051D01*
X019441Y032994D01*
X019441Y032937D01*
X019384Y032881D01*
X019214Y032881D01*
X019214Y033221D01*
X019384Y033221D01*
X019441Y033164D01*
X019441Y033108D01*
X019384Y033051D01*
X021846Y033108D02*
X021902Y033051D01*
X022016Y033051D01*
X022073Y032994D01*
X022073Y032937D01*
X022016Y032881D01*
X021902Y032881D01*
X021846Y032937D01*
X021846Y033108D02*
X021846Y033164D01*
X021902Y033221D01*
X022016Y033221D01*
X022073Y033164D01*
X022214Y033221D02*
X022214Y032881D01*
X022441Y032881D01*
X022582Y032881D02*
X022582Y033221D01*
X022753Y033221D01*
X022809Y033164D01*
X022809Y033051D01*
X022753Y032994D01*
X022582Y032994D01*
X022582Y032221D02*
X022582Y031881D01*
X022809Y031881D01*
X022951Y031881D02*
X022951Y032221D01*
X023121Y032221D01*
X023178Y032164D01*
X023178Y032051D01*
X023121Y031994D01*
X022951Y031994D01*
X022696Y032051D02*
X022582Y032051D01*
X022582Y032221D02*
X022809Y032221D01*
X022441Y032221D02*
X022214Y032221D01*
X022327Y032221D02*
X022327Y031881D01*
X022073Y031937D02*
X022016Y031881D01*
X021902Y031881D01*
X021846Y031937D01*
X021902Y032051D02*
X022016Y032051D01*
X022073Y031994D01*
X022073Y031937D01*
X021902Y032051D02*
X021846Y032108D01*
X021846Y032164D01*
X021902Y032221D01*
X022016Y032221D01*
X022073Y032164D01*
X022016Y031221D02*
X021846Y031221D01*
X021846Y030881D01*
X022016Y030881D01*
X022073Y030937D01*
X022073Y031164D01*
X022016Y031221D01*
X022214Y031221D02*
X022327Y031221D01*
X022271Y031221D02*
X022271Y030881D01*
X022327Y030881D02*
X022214Y030881D01*
X022460Y030881D02*
X022460Y031221D01*
X022630Y031221D01*
X022686Y031164D01*
X022686Y031051D01*
X022630Y030994D01*
X022460Y030994D01*
X022573Y030994D02*
X022686Y030881D01*
X025346Y032881D02*
X025573Y032881D01*
X025459Y032881D02*
X025459Y033221D01*
X025346Y033108D01*
X025714Y033051D02*
X025884Y033051D01*
X025941Y032994D01*
X025941Y032937D01*
X025884Y032881D01*
X025714Y032881D01*
X025714Y033221D01*
X025884Y033221D01*
X025941Y033164D01*
X025941Y033108D01*
X025884Y033051D01*
X025884Y035881D02*
X025714Y035881D01*
X025714Y036221D01*
X025884Y036221D01*
X025941Y036164D01*
X025941Y036108D01*
X025884Y036051D01*
X025714Y036051D01*
X025573Y036108D02*
X025573Y036164D01*
X025516Y036221D01*
X025402Y036221D01*
X025346Y036164D01*
X025573Y036108D02*
X025346Y035881D01*
X025573Y035881D01*
X025884Y035881D02*
X025941Y035937D01*
X025941Y035994D01*
X025884Y036051D01*
X022441Y036108D02*
X022441Y036164D01*
X022384Y036221D01*
X022271Y036221D01*
X022214Y036164D01*
X022073Y036221D02*
X022073Y035881D01*
X022214Y035881D02*
X022441Y036108D01*
X022441Y035881D02*
X022214Y035881D01*
X021959Y036108D02*
X022073Y036221D01*
X021959Y036108D02*
X021846Y036221D01*
X021846Y035881D01*
X021846Y035221D02*
X021959Y035108D01*
X022073Y035221D01*
X022073Y034881D01*
X022214Y034937D02*
X022271Y034881D01*
X022384Y034881D01*
X022441Y034937D01*
X022441Y034994D01*
X022384Y035051D01*
X022327Y035051D01*
X022384Y035051D02*
X022441Y035108D01*
X022441Y035164D01*
X022384Y035221D01*
X022271Y035221D01*
X022214Y035164D01*
X021846Y035221D02*
X021846Y034881D01*
X021846Y034221D02*
X022016Y034221D01*
X022073Y034164D01*
X022073Y034051D01*
X022016Y033994D01*
X021846Y033994D01*
X021959Y033994D02*
X022073Y033881D01*
X022214Y033937D02*
X022271Y033881D01*
X022384Y033881D01*
X022441Y033937D01*
X022441Y033994D01*
X022384Y034051D01*
X022271Y034051D01*
X022214Y034108D01*
X022214Y034164D01*
X022271Y034221D01*
X022384Y034221D01*
X022441Y034164D01*
X022582Y034221D02*
X022809Y034221D01*
X022696Y034221D02*
X022696Y033881D01*
X021846Y033881D02*
X021846Y034221D01*
X019441Y035937D02*
X019384Y035881D01*
X019214Y035881D01*
X019214Y036221D01*
X019384Y036221D01*
X019441Y036164D01*
X019441Y036108D01*
X019384Y036051D01*
X019214Y036051D01*
X019073Y036108D02*
X019073Y036164D01*
X019016Y036221D01*
X018902Y036221D01*
X018846Y036164D01*
X019073Y036108D02*
X018846Y035881D01*
X019073Y035881D01*
X019384Y036051D02*
X019441Y035994D01*
X019441Y035937D01*
X021846Y036881D02*
X021846Y037221D01*
X021959Y037108D01*
X022073Y037221D01*
X022073Y036881D01*
X022214Y036881D02*
X022441Y036881D01*
X022327Y036881D02*
X022327Y037221D01*
X022214Y037108D01*
X030695Y032906D02*
X030695Y032792D01*
X030752Y032736D01*
X030809Y032736D01*
X030866Y032792D01*
X030866Y032906D01*
X030922Y032962D01*
X030979Y032962D01*
X031036Y032906D01*
X031036Y032792D01*
X030979Y032736D01*
X030979Y032594D02*
X030752Y032594D01*
X030695Y032537D01*
X030695Y032367D01*
X031036Y032367D01*
X031036Y032537D01*
X030979Y032594D01*
X031036Y032226D02*
X031036Y031999D01*
X030695Y031999D01*
X030695Y032226D01*
X030866Y032112D02*
X030866Y031999D01*
X031036Y031858D02*
X031036Y031631D01*
X030695Y031631D01*
X031346Y031201D02*
X031773Y031201D01*
X031559Y031414D02*
X031559Y030987D01*
X032846Y031201D02*
X033273Y031201D01*
X033059Y031414D02*
X033059Y030987D01*
X034346Y031201D02*
X034773Y031201D01*
X034559Y031414D02*
X034559Y030987D01*
X035945Y028179D02*
X035945Y027952D01*
X036286Y027952D01*
X036286Y028179D01*
X036116Y028066D02*
X036116Y027952D01*
X036229Y027811D02*
X036286Y027754D01*
X036286Y027641D01*
X036229Y027584D01*
X036002Y027584D01*
X035945Y027641D01*
X035945Y027754D01*
X036002Y027811D01*
X036002Y027442D02*
X036116Y027442D01*
X036172Y027386D01*
X036172Y027216D01*
X036172Y027329D02*
X036286Y027442D01*
X036286Y027216D02*
X035945Y027216D01*
X035945Y027386D01*
X036002Y027442D01*
X035945Y027074D02*
X036229Y027074D01*
X036286Y027017D01*
X036286Y026904D01*
X036229Y026847D01*
X035945Y026847D01*
X036002Y026706D02*
X035945Y026649D01*
X035945Y026536D01*
X036002Y026479D01*
X036229Y026479D01*
X036286Y026536D01*
X036286Y026649D01*
X036229Y026706D01*
X036002Y026706D01*
X036002Y026337D02*
X035945Y026281D01*
X035945Y026167D01*
X036002Y026111D01*
X036059Y026111D01*
X036116Y026167D01*
X036116Y026281D01*
X036172Y026337D01*
X036229Y026337D01*
X036286Y026281D01*
X036286Y026167D01*
X036229Y026111D01*
X036172Y025601D02*
X035945Y025601D01*
X035945Y025374D02*
X036172Y025374D01*
X036286Y025487D01*
X036172Y025601D01*
X036116Y025233D02*
X036059Y025176D01*
X036059Y025119D01*
X036116Y025006D01*
X035945Y025006D01*
X035945Y025233D01*
X036116Y025233D02*
X036229Y025233D01*
X036286Y025176D01*
X036286Y025062D01*
X036229Y025006D01*
X030695Y032906D02*
X030752Y032962D01*
D12*
X031856Y033141D02*
X031856Y033561D01*
X032066Y033561D01*
X032136Y033491D01*
X032136Y033351D01*
X032066Y033281D01*
X031856Y033281D01*
X031996Y033281D02*
X032136Y033141D01*
X032316Y033141D02*
X032596Y033561D01*
X032316Y033561D02*
X032596Y033141D01*
X033356Y033561D02*
X033636Y033561D01*
X033496Y033561D02*
X033496Y033141D01*
X033816Y033141D02*
X034096Y033561D01*
X033816Y033561D02*
X034096Y033141D01*
X035981Y033061D02*
X035981Y032641D01*
X035981Y032781D02*
X036191Y032781D01*
X036261Y032851D01*
X036261Y032991D01*
X036191Y033061D01*
X035981Y033061D01*
X036441Y032991D02*
X036441Y032711D01*
X036511Y032641D01*
X036651Y032641D01*
X036721Y032711D01*
X036721Y032991D01*
X036651Y033061D01*
X036511Y033061D01*
X036441Y032991D01*
X036902Y033061D02*
X036902Y032641D01*
X037042Y032781D01*
X037182Y032641D01*
X037182Y033061D01*
X037362Y033061D02*
X037362Y032641D01*
X037642Y032641D01*
X037822Y032641D02*
X037822Y033061D01*
X038032Y033061D01*
X038103Y032991D01*
X038103Y032851D01*
X038032Y032781D01*
X037822Y032781D01*
X037962Y032781D02*
X038103Y032641D01*
X037642Y033061D02*
X037362Y033061D01*
X037362Y032851D02*
X037502Y032851D01*
X038314Y031311D02*
X038455Y031311D01*
X038525Y031241D01*
X038244Y030961D01*
X038314Y030891D01*
X038455Y030891D01*
X038525Y030961D01*
X038525Y031241D01*
X038314Y031311D02*
X038244Y031241D01*
X038244Y030961D01*
X038705Y030961D02*
X038775Y030961D01*
X038775Y030891D01*
X038705Y030891D01*
X038705Y030961D01*
X038935Y030891D02*
X039215Y030891D01*
X039075Y030891D02*
X039075Y031311D01*
X038935Y031171D01*
X039395Y031171D02*
X039395Y030961D01*
X039465Y030891D01*
X039676Y030891D01*
X039676Y031171D01*
X039685Y030311D02*
X039755Y030241D01*
X039755Y030171D01*
X039685Y030101D01*
X039545Y030101D01*
X039475Y030171D01*
X039475Y030241D01*
X039545Y030311D01*
X039685Y030311D01*
X039685Y030101D02*
X039755Y030031D01*
X039755Y029961D01*
X039685Y029891D01*
X039545Y029891D01*
X039475Y029961D01*
X039475Y030031D01*
X039545Y030101D01*
X039294Y030241D02*
X039014Y029961D01*
X039014Y029891D01*
X039014Y030311D02*
X039294Y030311D01*
X039294Y030241D01*
X039935Y030241D02*
X040005Y030311D01*
X040145Y030311D01*
X040215Y030241D01*
X039935Y029961D01*
X040005Y029891D01*
X040145Y029891D01*
X040215Y029961D01*
X040215Y030241D01*
X040395Y030311D02*
X040395Y030101D01*
X040535Y030171D01*
X040606Y030171D01*
X040676Y030101D01*
X040676Y029961D01*
X040606Y029891D01*
X040465Y029891D01*
X040395Y029961D01*
X040395Y030311D02*
X040676Y030311D01*
X039935Y030241D02*
X039935Y029961D01*
X042730Y031281D02*
X043151Y031281D01*
X043151Y031141D02*
X043151Y031421D01*
X043081Y031601D02*
X042800Y031881D01*
X043081Y031881D01*
X043151Y031811D01*
X043151Y031671D01*
X043081Y031601D01*
X042800Y031601D01*
X042730Y031671D01*
X042730Y031811D01*
X042800Y031881D01*
X042871Y032061D02*
X043081Y032061D01*
X043151Y032131D01*
X043151Y032342D01*
X042871Y032342D01*
X042941Y032522D02*
X042941Y032662D01*
X043151Y032522D02*
X042730Y032522D01*
X042730Y032802D01*
X042730Y031281D02*
X042871Y031141D01*
X042855Y035391D02*
X043206Y035391D01*
X043276Y035461D01*
X043276Y035601D01*
X043206Y035671D01*
X042855Y035671D01*
X042925Y035851D02*
X042855Y035921D01*
X042855Y036061D01*
X042925Y036131D01*
X043066Y036061D02*
X043136Y036131D01*
X043206Y036131D01*
X043276Y036061D01*
X043276Y035921D01*
X043206Y035851D01*
X043066Y035921D02*
X043066Y036061D01*
X043066Y035921D02*
X042996Y035851D01*
X042925Y035851D01*
X042855Y036311D02*
X042855Y036522D01*
X042925Y036592D01*
X042996Y036592D01*
X043066Y036522D01*
X043066Y036311D01*
X043276Y036311D02*
X043276Y036522D01*
X043206Y036592D01*
X043136Y036592D01*
X043066Y036522D01*
X043276Y036311D02*
X042855Y036311D01*
X039023Y035991D02*
X039023Y035711D01*
X038953Y035641D01*
X038813Y035641D01*
X038743Y035711D01*
X039023Y035991D01*
X038953Y036061D01*
X038813Y036061D01*
X038743Y035991D01*
X038743Y035711D01*
X038563Y035711D02*
X038493Y035641D01*
X038353Y035641D01*
X038283Y035711D01*
X038563Y035991D01*
X038563Y035711D01*
X038563Y035991D02*
X038493Y036061D01*
X038353Y036061D01*
X038283Y035991D01*
X038283Y035711D01*
X038103Y035641D02*
X037822Y035641D01*
X038103Y035921D01*
X038103Y035991D01*
X038032Y036061D01*
X037892Y036061D01*
X037822Y035991D01*
X037642Y035991D02*
X037572Y036061D01*
X037432Y036061D01*
X037362Y035991D01*
X037182Y035991D02*
X037182Y035851D01*
X037112Y035781D01*
X036902Y035781D01*
X036902Y035641D02*
X036902Y036061D01*
X037112Y036061D01*
X037182Y035991D01*
X037362Y035641D02*
X037642Y035921D01*
X037642Y035991D01*
X037642Y035641D02*
X037362Y035641D01*
X036721Y035711D02*
X036651Y035641D01*
X036511Y035641D01*
X036441Y035711D01*
X036441Y035991D01*
X036511Y036061D01*
X036651Y036061D01*
X036721Y035991D01*
X036261Y036061D02*
X036261Y035641D01*
X035981Y035641D02*
X035981Y036061D01*
X036121Y035921D01*
X036261Y036061D01*
X034176Y036391D02*
X033965Y036601D01*
X033895Y036531D02*
X034176Y036811D01*
X033895Y036811D02*
X033895Y036391D01*
X033715Y036391D02*
X033435Y036391D01*
X033575Y036391D02*
X033575Y036811D01*
X033435Y036671D01*
X032676Y036811D02*
X032395Y036531D01*
X032465Y036601D02*
X032676Y036391D01*
X032395Y036391D02*
X032395Y036811D01*
X032075Y036811D02*
X032075Y036391D01*
X031935Y036391D02*
X032215Y036391D01*
X031935Y036671D02*
X032075Y036811D01*
X032725Y037641D02*
X033005Y037641D01*
X032865Y037641D02*
X032865Y038061D01*
X032725Y037921D01*
X033185Y037991D02*
X033255Y038061D01*
X033395Y038061D01*
X033465Y037991D01*
X033185Y037711D01*
X033255Y037641D01*
X033395Y037641D01*
X033465Y037711D01*
X033465Y037991D01*
X033645Y038061D02*
X033645Y037641D01*
X033645Y037781D02*
X033926Y038061D01*
X033715Y037851D02*
X033926Y037641D01*
X033185Y037711D02*
X033185Y037991D01*
X031245Y035061D02*
X031245Y034641D01*
X030965Y035061D01*
X030965Y034641D01*
X030714Y034641D02*
X030714Y035061D01*
X030504Y034851D01*
X030784Y034851D01*
X030324Y034851D02*
X030044Y034851D01*
X030254Y035061D01*
X030254Y034641D01*
X029864Y034641D02*
X029583Y034641D01*
X029583Y034711D01*
X029864Y034991D01*
X029864Y035061D01*
X029583Y035061D01*
X029403Y035061D02*
X029123Y035061D01*
X029123Y034641D01*
X028943Y034641D02*
X028803Y034781D01*
X028873Y034781D02*
X028663Y034781D01*
X028663Y034641D02*
X028663Y035061D01*
X028873Y035061D01*
X028943Y034991D01*
X028943Y034851D01*
X028873Y034781D01*
X029123Y034851D02*
X029263Y034851D01*
X028496Y035061D02*
X028356Y035061D01*
X028426Y035061D02*
X028426Y034641D01*
X028356Y034641D02*
X028496Y034641D01*
X027526Y037516D02*
X027105Y037516D01*
X027105Y037726D01*
X027175Y037796D01*
X027456Y037796D01*
X027526Y037726D01*
X027526Y037516D01*
X027316Y037976D02*
X027316Y038256D01*
X027526Y038186D02*
X027105Y038186D01*
X027316Y037976D01*
X024526Y037960D02*
X024246Y037960D01*
X024246Y037680D02*
X024456Y037680D01*
X024526Y037750D01*
X024526Y037960D01*
X024526Y037500D02*
X024526Y037220D01*
X024526Y037360D02*
X024105Y037360D01*
X024246Y037220D01*
X024456Y037060D02*
X024526Y037060D01*
X024526Y036990D01*
X024456Y036990D01*
X024456Y037060D01*
X024456Y036810D02*
X024526Y036739D01*
X024526Y036599D01*
X024456Y036529D01*
X024175Y036810D01*
X024456Y036810D01*
X024175Y036810D02*
X024105Y036739D01*
X024105Y036599D01*
X024175Y036529D01*
X024456Y036529D01*
X024526Y034631D02*
X024316Y034421D01*
X024386Y034351D02*
X024105Y034631D01*
X024105Y034351D02*
X024526Y034351D01*
X024526Y034171D02*
X024526Y033891D01*
X024526Y034031D02*
X024105Y034031D01*
X024246Y033891D01*
X024246Y032210D02*
X024526Y032210D01*
X024526Y032000D01*
X024456Y031930D01*
X024246Y031930D01*
X024526Y031750D02*
X024526Y031470D01*
X024526Y031610D02*
X024105Y031610D01*
X024246Y031470D01*
X024456Y031310D02*
X024526Y031310D01*
X024526Y031240D01*
X024456Y031240D01*
X024456Y031310D01*
X024456Y031060D02*
X024175Y031060D01*
X024456Y030779D01*
X024526Y030849D01*
X024526Y030989D01*
X024456Y031060D01*
X024175Y031060D02*
X024105Y030989D01*
X024105Y030849D01*
X024175Y030779D01*
X024456Y030779D01*
X024026Y028572D02*
X023746Y028572D01*
X024026Y028572D02*
X024026Y028362D01*
X023956Y028292D01*
X023746Y028292D01*
X024026Y028111D02*
X024026Y027831D01*
X024026Y027971D02*
X023605Y027971D01*
X023746Y027831D01*
X023956Y027671D02*
X024026Y027671D01*
X024026Y027601D01*
X023956Y027601D01*
X023956Y027671D01*
X023956Y027421D02*
X024026Y027351D01*
X024026Y027211D01*
X023956Y027141D01*
X023675Y027421D01*
X023956Y027421D01*
X023956Y027141D02*
X023675Y027141D01*
X023605Y027211D01*
X023605Y027351D01*
X023675Y027421D01*
X022026Y027351D02*
X022026Y027211D01*
X021956Y027141D01*
X021675Y027421D01*
X021956Y027421D01*
X022026Y027351D01*
X021956Y027141D02*
X021675Y027141D01*
X021605Y027211D01*
X021605Y027351D01*
X021675Y027421D01*
X021956Y027601D02*
X021956Y027671D01*
X022026Y027671D01*
X022026Y027601D01*
X021956Y027601D01*
X022026Y027831D02*
X022026Y028111D01*
X022026Y027971D02*
X021605Y027971D01*
X021746Y027831D01*
X021746Y028292D02*
X021956Y028292D01*
X022026Y028362D01*
X022026Y028572D01*
X021746Y028572D01*
X025605Y028272D02*
X025605Y028061D01*
X026026Y028061D01*
X025886Y028061D02*
X025886Y028272D01*
X025816Y028342D01*
X025675Y028342D01*
X025605Y028272D01*
X025886Y028202D02*
X026026Y028342D01*
X025956Y027881D02*
X025675Y027881D01*
X025956Y027601D01*
X026026Y027671D01*
X026026Y027811D01*
X025956Y027881D01*
X025956Y027601D02*
X025675Y027601D01*
X025605Y027671D01*
X025605Y027811D01*
X025675Y027881D01*
X026026Y027421D02*
X026026Y027141D01*
X026026Y027281D02*
X025605Y027281D01*
X025746Y027141D01*
X020926Y023241D02*
X020926Y023101D01*
X020856Y023031D01*
X020645Y023031D01*
X020645Y022891D02*
X020645Y023311D01*
X020856Y023311D01*
X020926Y023241D01*
X020465Y023101D02*
X020185Y023101D01*
X020395Y023311D01*
X020395Y022891D01*
X020005Y022961D02*
X019935Y022891D01*
X019795Y022891D01*
X019725Y022961D01*
X019725Y023031D01*
X019795Y023101D01*
X019935Y023101D01*
X020005Y023031D01*
X020005Y022961D01*
X019935Y023101D02*
X020005Y023171D01*
X020005Y023241D01*
X019935Y023311D01*
X019795Y023311D01*
X019725Y023241D01*
X019725Y023171D01*
X019795Y023101D01*
X019544Y023171D02*
X019544Y023241D01*
X019474Y023311D01*
X019334Y023311D01*
X019264Y023241D01*
X019544Y023171D02*
X019264Y022891D01*
X019544Y022891D01*
X019084Y022891D02*
X018804Y022891D01*
X018944Y022891D02*
X018944Y023311D01*
X018804Y023171D01*
X018624Y023171D02*
X018624Y022891D01*
X018624Y023101D02*
X018343Y023101D01*
X018343Y023171D02*
X018343Y022891D01*
X018163Y022961D02*
X018163Y023101D01*
X018023Y023101D01*
X017883Y023241D02*
X017883Y022961D01*
X017953Y022891D01*
X018093Y022891D01*
X018163Y022961D01*
X018343Y023171D02*
X018484Y023311D01*
X018624Y023171D01*
X018163Y023241D02*
X018093Y023311D01*
X017953Y023311D01*
X017883Y023241D01*
X017703Y023311D02*
X017423Y023311D01*
X017423Y022891D01*
X017703Y022891D01*
X017563Y023101D02*
X017423Y023101D01*
X017242Y023311D02*
X017242Y022891D01*
X016962Y022891D02*
X016962Y023311D01*
X017102Y023171D01*
X017242Y023311D01*
X016782Y023311D02*
X016502Y023311D01*
X016642Y023311D02*
X016642Y022891D01*
X016322Y022891D02*
X016322Y023171D01*
X016182Y023311D01*
X016041Y023171D01*
X016041Y022891D01*
X016041Y023101D02*
X016322Y023101D01*
X012868Y018561D02*
X012658Y018561D01*
X012658Y018141D01*
X012868Y018141D01*
X012938Y018211D01*
X012938Y018491D01*
X012868Y018561D01*
X012478Y018491D02*
X012407Y018561D01*
X012267Y018561D01*
X012197Y018491D01*
X012197Y018421D01*
X012267Y018351D01*
X012407Y018351D01*
X012478Y018281D01*
X012478Y018211D01*
X012407Y018141D01*
X012267Y018141D01*
X012197Y018211D01*
X012017Y018561D02*
X011737Y018141D01*
X011557Y018211D02*
X011557Y018491D01*
X011487Y018561D01*
X011277Y018561D01*
X011277Y018141D01*
X011487Y018141D01*
X011557Y018211D01*
X011096Y018211D02*
X011026Y018141D01*
X010886Y018141D01*
X010816Y018211D01*
X010816Y018491D01*
X010886Y018561D01*
X011026Y018561D01*
X011096Y018491D01*
X010636Y018141D02*
X010356Y018141D01*
X010356Y018561D01*
X010373Y011811D02*
X010163Y011811D01*
X010163Y011391D01*
X010163Y011531D02*
X010373Y011531D01*
X010443Y011601D01*
X010443Y011741D01*
X010373Y011811D01*
X010623Y011811D02*
X010903Y011811D01*
X011083Y011811D02*
X011364Y011811D01*
X011364Y011741D01*
X011083Y011461D01*
X011083Y011391D01*
X011364Y011391D01*
X011544Y011601D02*
X011824Y011601D01*
X012004Y011601D02*
X012284Y011601D01*
X012214Y011391D02*
X012214Y011811D01*
X012004Y011601D01*
X011754Y011391D02*
X011754Y011811D01*
X011544Y011601D01*
X010763Y011601D02*
X010623Y011601D01*
X010623Y011391D02*
X010623Y011811D01*
X010303Y011531D02*
X010443Y011391D01*
X009996Y011391D02*
X009856Y011391D01*
X009926Y011391D02*
X009926Y011811D01*
X009856Y011811D02*
X009996Y011811D01*
X008651Y011092D02*
X008511Y010952D01*
X008511Y011022D02*
X008511Y010811D01*
X008651Y010811D02*
X008230Y010811D01*
X008230Y011022D01*
X008300Y011092D01*
X008441Y011092D01*
X008511Y011022D01*
X008581Y010631D02*
X008651Y010561D01*
X008651Y010421D01*
X008581Y010351D01*
X008300Y010631D01*
X008581Y010631D01*
X008581Y010351D02*
X008300Y010351D01*
X008230Y010421D01*
X008230Y010561D01*
X008300Y010631D01*
X008651Y010171D02*
X008651Y009891D01*
X008651Y010031D02*
X008230Y010031D01*
X008371Y009891D01*
X007276Y008897D02*
X006855Y008897D01*
X006855Y009177D01*
X007066Y009037D02*
X007066Y008897D01*
X006996Y008717D02*
X007276Y008717D01*
X007276Y008506D01*
X007206Y008436D01*
X006996Y008436D01*
X006925Y008256D02*
X007206Y007976D01*
X007276Y008046D01*
X007276Y008186D01*
X007206Y008256D01*
X006925Y008256D01*
X006855Y008186D01*
X006855Y008046D01*
X006925Y007976D01*
X007206Y007976D01*
X007276Y007796D02*
X007276Y007516D01*
X007276Y007656D02*
X006855Y007656D01*
X006996Y007516D01*
X006526Y007976D02*
X006105Y007976D01*
X006316Y007766D01*
X006316Y008046D01*
X006386Y008226D02*
X006105Y008506D01*
X006105Y008686D02*
X006105Y008967D01*
X006175Y008967D01*
X006456Y008686D01*
X006526Y008686D01*
X006526Y008506D02*
X006316Y008296D01*
X006526Y008226D02*
X006105Y008226D01*
X011856Y008641D02*
X012066Y008641D01*
X012136Y008711D01*
X012136Y008991D01*
X012066Y009061D01*
X011856Y009061D01*
X011856Y008641D01*
X012316Y008641D02*
X012596Y008641D01*
X012456Y008641D02*
X012456Y009061D01*
X012316Y008921D01*
X012465Y011391D02*
X012465Y011811D01*
X012745Y011391D01*
X012745Y011811D01*
X019606Y011101D02*
X019886Y011101D01*
X020066Y011031D02*
X020346Y011311D01*
X020527Y011311D02*
X020807Y011311D01*
X020807Y011241D01*
X020527Y010961D01*
X020527Y010891D01*
X020346Y010891D02*
X020136Y011101D01*
X020066Y011311D02*
X020066Y010891D01*
X019816Y010891D02*
X019816Y011311D01*
X019606Y011101D01*
X019606Y012891D02*
X019886Y012891D01*
X019746Y012891D02*
X019746Y013311D01*
X019606Y013171D01*
X020066Y013241D02*
X020066Y012961D01*
X020346Y013241D01*
X020346Y012961D01*
X020276Y012891D01*
X020136Y012891D01*
X020066Y012961D01*
X020066Y013241D02*
X020136Y013311D01*
X020276Y013311D01*
X020346Y013241D01*
X020527Y013311D02*
X020527Y012891D01*
X020527Y013031D02*
X020737Y013031D01*
X020807Y013101D01*
X020807Y013241D01*
X020737Y013311D01*
X020527Y013311D01*
X020667Y013031D02*
X020807Y012891D01*
X022606Y011811D02*
X022746Y011811D01*
X022676Y011811D02*
X022676Y011391D01*
X022606Y011391D02*
X022746Y011391D01*
X022913Y011391D02*
X022913Y011811D01*
X023123Y011811D01*
X023193Y011741D01*
X023193Y011601D01*
X023123Y011531D01*
X022913Y011531D01*
X023053Y011531D02*
X023193Y011391D01*
X023373Y011391D02*
X023373Y011811D01*
X023653Y011811D01*
X023833Y011811D02*
X024114Y011811D01*
X024114Y011741D01*
X023833Y011461D01*
X023833Y011391D01*
X024114Y011391D01*
X024294Y011601D02*
X024574Y011601D01*
X024754Y011601D02*
X025034Y011601D01*
X024964Y011391D02*
X024964Y011811D01*
X024754Y011601D01*
X024504Y011391D02*
X024504Y011811D01*
X024294Y011601D01*
X023513Y011601D02*
X023373Y011601D01*
X025215Y011391D02*
X025215Y011811D01*
X025495Y011391D01*
X025495Y011811D01*
X025526Y009061D02*
X025386Y009061D01*
X025316Y008991D01*
X025136Y008991D02*
X025066Y009061D01*
X024856Y009061D01*
X024856Y008641D01*
X025066Y008641D01*
X025136Y008711D01*
X025136Y008991D01*
X025316Y008641D02*
X025596Y008921D01*
X025596Y008991D01*
X025526Y009061D01*
X025596Y008641D02*
X025316Y008641D01*
X021776Y008717D02*
X021776Y008506D01*
X021706Y008436D01*
X021496Y008436D01*
X021425Y008256D02*
X021706Y008256D01*
X021776Y008186D01*
X021776Y008046D01*
X021706Y007976D01*
X021425Y008256D01*
X021355Y008186D01*
X021355Y008046D01*
X021425Y007976D01*
X021706Y007976D01*
X021776Y007796D02*
X021776Y007516D01*
X021776Y007656D02*
X021355Y007656D01*
X021496Y007516D01*
X021496Y008717D02*
X021776Y008717D01*
X021776Y008897D02*
X021355Y008897D01*
X021355Y009177D01*
X021566Y009037D02*
X021566Y008897D01*
X023175Y015641D02*
X023105Y015711D01*
X023105Y015851D01*
X023175Y015921D01*
X023246Y015921D01*
X023526Y015641D01*
X023526Y015921D01*
X023526Y016101D02*
X023246Y016381D01*
X023175Y016381D01*
X023105Y016311D01*
X023105Y016171D01*
X023175Y016101D01*
X023526Y016101D02*
X023526Y016381D01*
X023526Y016561D02*
X023526Y016772D01*
X023456Y016842D01*
X023316Y016842D01*
X023246Y016772D01*
X023246Y016561D01*
X023666Y016561D01*
X023728Y018391D02*
X023447Y018391D01*
X023728Y018671D01*
X023447Y018671D01*
X023267Y018601D02*
X023267Y018391D01*
X023267Y018601D02*
X023197Y018671D01*
X023057Y018671D01*
X022987Y018601D01*
X022987Y018811D02*
X022987Y018391D01*
X022807Y018391D02*
X022807Y018811D01*
X022667Y018671D01*
X022527Y018811D01*
X022527Y018391D01*
X022346Y018461D02*
X022346Y018741D01*
X022066Y018461D01*
X022136Y018391D01*
X022276Y018391D01*
X022346Y018461D01*
X022066Y018461D02*
X022066Y018741D01*
X022136Y018811D01*
X022276Y018811D01*
X022346Y018741D01*
X021886Y018741D02*
X021816Y018811D01*
X021676Y018811D01*
X021606Y018741D01*
X021886Y018741D02*
X021886Y018671D01*
X021606Y018391D01*
X021886Y018391D01*
X028855Y016311D02*
X028855Y016171D01*
X028925Y016101D01*
X028925Y015921D02*
X028855Y015851D01*
X028855Y015711D01*
X028925Y015641D01*
X028925Y015921D02*
X028996Y015921D01*
X029276Y015641D01*
X029276Y015921D01*
X029276Y016101D02*
X028996Y016381D01*
X028925Y016381D01*
X028855Y016311D01*
X028996Y016561D02*
X028996Y016772D01*
X029066Y016842D01*
X029206Y016842D01*
X029276Y016772D01*
X029276Y016561D01*
X029416Y016561D02*
X028996Y016561D01*
X029276Y016381D02*
X029276Y016101D01*
X034355Y015772D02*
X034425Y015842D01*
X034706Y015561D01*
X034776Y015631D01*
X034776Y015772D01*
X034706Y015842D01*
X034425Y015842D01*
X034355Y015772D02*
X034355Y015631D01*
X034425Y015561D01*
X034706Y015561D01*
X034706Y015381D02*
X034425Y015381D01*
X034706Y015101D01*
X034776Y015171D01*
X034776Y015311D01*
X034706Y015381D01*
X034706Y015101D02*
X034425Y015101D01*
X034355Y015171D01*
X034355Y015311D01*
X034425Y015381D01*
X034776Y014921D02*
X034776Y014641D01*
X034776Y014781D02*
X034355Y014781D01*
X034496Y014641D01*
X034496Y016022D02*
X034706Y016022D01*
X034776Y016092D01*
X034776Y016302D01*
X034496Y016302D01*
X034566Y016482D02*
X034566Y016622D01*
X034776Y016482D02*
X034355Y016482D01*
X034355Y016762D01*
X036356Y016726D02*
X036636Y016726D01*
X036496Y016866D02*
X036496Y016586D01*
X035487Y013061D02*
X035557Y012991D01*
X035557Y012851D01*
X035487Y012781D01*
X035277Y012781D01*
X035417Y012781D02*
X035557Y012641D01*
X035277Y012641D02*
X035277Y013061D01*
X035487Y013061D01*
X035096Y012991D02*
X034816Y012711D01*
X034886Y012641D01*
X035026Y012641D01*
X035096Y012711D01*
X035096Y012991D01*
X035026Y013061D01*
X034886Y013061D01*
X034816Y012991D01*
X034816Y012711D01*
X034636Y012641D02*
X034356Y012641D01*
X034496Y012641D02*
X034496Y013061D01*
X034356Y012921D01*
X034566Y011061D02*
X034356Y010851D01*
X034636Y010851D01*
X034816Y010781D02*
X035096Y011061D01*
X035277Y011061D02*
X035557Y011061D01*
X035557Y010991D01*
X035277Y010711D01*
X035277Y010641D01*
X035096Y010641D02*
X034886Y010851D01*
X034816Y011061D02*
X034816Y010641D01*
X034566Y010641D02*
X034566Y011061D01*
X033480Y009302D02*
X033480Y009022D01*
X033901Y009022D01*
X033901Y008842D02*
X033621Y008842D01*
X033691Y009022D02*
X033691Y009162D01*
X033901Y008842D02*
X033901Y008631D01*
X033831Y008561D01*
X033621Y008561D01*
X033550Y008381D02*
X033831Y008101D01*
X033901Y008171D01*
X033901Y008311D01*
X033831Y008381D01*
X033550Y008381D01*
X033480Y008311D01*
X033480Y008171D01*
X033550Y008101D01*
X033831Y008101D01*
X033901Y007921D02*
X033901Y007641D01*
X033901Y007781D02*
X033480Y007781D01*
X033621Y007641D01*
X037106Y011641D02*
X037246Y011641D01*
X037176Y011641D02*
X037176Y012061D01*
X037106Y012061D02*
X037246Y012061D01*
X037413Y012061D02*
X037623Y012061D01*
X037693Y011991D01*
X037693Y011851D01*
X037623Y011781D01*
X037413Y011781D01*
X037553Y011781D02*
X037693Y011641D01*
X037873Y011641D02*
X038083Y011641D01*
X038153Y011711D01*
X038153Y011781D01*
X038083Y011851D01*
X037873Y011851D01*
X037873Y012061D02*
X038083Y012061D01*
X038153Y011991D01*
X038153Y011921D01*
X038083Y011851D01*
X037873Y011641D02*
X037873Y012061D01*
X037413Y012061D02*
X037413Y011641D01*
X038333Y011641D02*
X038614Y011641D01*
X038794Y011711D02*
X038794Y011781D01*
X038864Y011851D01*
X039004Y011851D01*
X039074Y011781D01*
X039074Y011711D01*
X039004Y011641D01*
X038864Y011641D01*
X038794Y011711D01*
X038864Y011851D02*
X038794Y011921D01*
X038794Y011991D01*
X038864Y012061D01*
X039004Y012061D01*
X039074Y011991D01*
X039074Y011921D01*
X039004Y011851D01*
X039254Y011711D02*
X039254Y011641D01*
X039254Y011711D02*
X039534Y011991D01*
X039534Y012061D01*
X039254Y012061D01*
X039715Y011851D02*
X039995Y011851D01*
X039925Y011641D02*
X039925Y012061D01*
X039715Y011851D01*
X040175Y011991D02*
X040245Y012061D01*
X040385Y012061D01*
X040455Y011991D01*
X040455Y011921D01*
X040385Y011851D01*
X040455Y011781D01*
X040455Y011711D01*
X040385Y011641D01*
X040245Y011641D01*
X040175Y011711D01*
X040315Y011851D02*
X040385Y011851D01*
X038333Y012061D02*
X038333Y011641D01*
X039106Y009811D02*
X039316Y009811D01*
X039386Y009741D01*
X039386Y009461D01*
X039316Y009391D01*
X039106Y009391D01*
X039106Y009811D01*
X039566Y009741D02*
X039636Y009811D01*
X039776Y009811D01*
X039846Y009741D01*
X039846Y009671D01*
X039776Y009601D01*
X039846Y009531D01*
X039846Y009461D01*
X039776Y009391D01*
X039636Y009391D01*
X039566Y009461D01*
X039706Y009601D02*
X039776Y009601D01*
X041355Y022641D02*
X041355Y022851D01*
X041425Y022921D01*
X041496Y022921D01*
X041566Y022851D01*
X041566Y022641D01*
X041776Y022641D02*
X041776Y022851D01*
X041706Y022921D01*
X041636Y022921D01*
X041566Y022851D01*
X041706Y023101D02*
X041776Y023171D01*
X041776Y023311D01*
X041706Y023381D01*
X041355Y023381D01*
X041355Y023561D02*
X041355Y023842D01*
X041425Y023842D01*
X041706Y023561D01*
X041776Y023561D01*
X041776Y023842D01*
X041776Y024022D02*
X041776Y024302D01*
X041776Y024482D02*
X041776Y024762D01*
X041776Y024943D02*
X041355Y024943D01*
X041355Y025153D01*
X041425Y025223D01*
X041566Y025223D01*
X041636Y025153D01*
X041636Y024943D01*
X041636Y025083D02*
X041776Y025223D01*
X041355Y024762D02*
X041355Y024482D01*
X041776Y024482D01*
X041566Y024482D02*
X041566Y024622D01*
X041425Y024302D02*
X041706Y024022D01*
X041776Y024022D01*
X041355Y024022D02*
X041355Y024302D01*
X041425Y024302D01*
X041355Y023101D02*
X041706Y023101D01*
X041776Y022641D02*
X041355Y022641D01*
X035526Y022671D02*
X035526Y022391D01*
X035526Y022531D02*
X035105Y022531D01*
X035246Y022391D01*
X035175Y022851D02*
X035105Y022921D01*
X035105Y023061D01*
X035175Y023131D01*
X035456Y022851D01*
X035526Y022921D01*
X035526Y023061D01*
X035456Y023131D01*
X035175Y023131D01*
X035246Y023311D02*
X035456Y023311D01*
X035526Y023381D01*
X035526Y023592D01*
X035246Y023592D01*
X035316Y023772D02*
X035316Y024052D01*
X035526Y024052D02*
X035105Y024052D01*
X035105Y023772D02*
X035526Y023772D01*
X035456Y022851D02*
X035175Y022851D01*
X035145Y028016D02*
X035145Y028436D01*
X035215Y028226D02*
X035426Y028016D01*
X035145Y028156D02*
X035426Y028436D01*
X034825Y028436D02*
X034825Y028016D01*
X034685Y028016D02*
X034965Y028016D01*
X034685Y028296D02*
X034825Y028436D01*
X033537Y028891D02*
X033537Y029171D01*
X033257Y029171D02*
X033257Y028961D01*
X033327Y028891D01*
X033537Y028891D01*
X033077Y028891D02*
X032796Y028891D01*
X032936Y028891D02*
X032936Y029311D01*
X032796Y029171D01*
X032636Y028961D02*
X032636Y028891D01*
X032566Y028891D01*
X032566Y028961D01*
X032636Y028961D01*
X032386Y028961D02*
X032316Y028891D01*
X032176Y028891D01*
X032106Y028961D01*
X032386Y029241D01*
X032386Y028961D01*
X032386Y029241D02*
X032316Y029311D01*
X032176Y029311D01*
X032106Y029241D01*
X032106Y028961D01*
X031520Y040876D02*
X031520Y041296D01*
X031731Y041296D01*
X031801Y041226D01*
X031801Y041086D01*
X031731Y041016D01*
X031520Y041016D01*
X031340Y041016D02*
X031060Y041016D01*
X031340Y041296D01*
X031340Y041366D01*
X031270Y041436D01*
X031130Y041436D01*
X031060Y041366D01*
X030880Y041366D02*
X030810Y041436D01*
X030670Y041436D01*
X030600Y041366D01*
X030880Y041366D02*
X030880Y041296D01*
X030600Y041016D01*
X030880Y041016D01*
X033606Y041266D02*
X033886Y041266D01*
X033746Y041266D02*
X033746Y041686D01*
X033606Y041546D01*
X034066Y041616D02*
X034136Y041686D01*
X034276Y041686D01*
X034346Y041616D01*
X034346Y041546D01*
X034066Y041266D01*
X034346Y041266D01*
X034527Y041266D02*
X034527Y041686D01*
X034667Y041546D01*
X034807Y041686D01*
X034807Y041266D01*
X034987Y041266D02*
X034987Y041686D01*
X035057Y041546D02*
X035197Y041546D01*
X035267Y041476D01*
X035267Y041266D01*
X035447Y041266D02*
X035728Y041266D01*
X035728Y041546D02*
X035447Y041546D01*
X035447Y041266D02*
X035728Y041546D01*
X035057Y041546D02*
X034987Y041476D01*
X038100Y041366D02*
X038170Y041436D01*
X038310Y041436D01*
X038380Y041366D01*
X038380Y041296D01*
X038100Y041016D01*
X038380Y041016D01*
X038560Y041016D02*
X038840Y041296D01*
X038840Y041366D01*
X038770Y041436D01*
X038630Y041436D01*
X038560Y041366D01*
X038560Y041016D02*
X038840Y041016D01*
X039020Y041016D02*
X039231Y041016D01*
X039301Y041086D01*
X039301Y041226D01*
X039231Y041296D01*
X039020Y041296D01*
X039020Y040876D01*
X039731Y041086D02*
X039731Y041366D01*
X039801Y041436D01*
X039941Y041436D01*
X040011Y041366D01*
X039731Y041086D01*
X039801Y041016D01*
X039941Y041016D01*
X040011Y041086D01*
X040011Y041366D01*
X040191Y041086D02*
X040261Y041086D01*
X040261Y041016D01*
X040191Y041016D01*
X040191Y041086D01*
X040421Y041016D02*
X040702Y041016D01*
X040561Y041016D02*
X040561Y041436D01*
X040421Y041296D01*
X040882Y041296D02*
X040882Y041086D01*
X040952Y041016D01*
X041162Y041016D01*
X041162Y041296D01*
X018026Y038210D02*
X018026Y038000D01*
X017956Y037930D01*
X017746Y037930D01*
X017746Y038210D02*
X018026Y038210D01*
X018026Y037750D02*
X018026Y037470D01*
X018026Y037610D02*
X017605Y037610D01*
X017746Y037470D01*
X017956Y037310D02*
X018026Y037310D01*
X018026Y037240D01*
X017956Y037240D01*
X017956Y037310D01*
X017956Y037060D02*
X018026Y036989D01*
X018026Y036849D01*
X017956Y036779D01*
X017675Y037060D01*
X017956Y037060D01*
X017675Y037060D02*
X017605Y036989D01*
X017605Y036849D01*
X017675Y036779D01*
X017956Y036779D01*
X018026Y034631D02*
X017816Y034421D01*
X017886Y034351D02*
X017605Y034631D01*
X017605Y034351D02*
X018026Y034351D01*
X018026Y034171D02*
X018026Y033891D01*
X018026Y034031D02*
X017605Y034031D01*
X017746Y033891D01*
X017746Y032210D02*
X018026Y032210D01*
X018026Y032000D01*
X017956Y031930D01*
X017746Y031930D01*
X018026Y031750D02*
X018026Y031470D01*
X018026Y031610D02*
X017605Y031610D01*
X017746Y031470D01*
X017956Y031310D02*
X018026Y031310D01*
X018026Y031240D01*
X017956Y031240D01*
X017956Y031310D01*
X017956Y031060D02*
X018026Y030989D01*
X018026Y030849D01*
X017956Y030779D01*
X017675Y031060D01*
X017956Y031060D01*
X017675Y031060D02*
X017605Y030989D01*
X017605Y030849D01*
X017675Y030779D01*
X017956Y030779D01*
X011526Y030849D02*
X011456Y030779D01*
X011175Y031060D01*
X011456Y031060D01*
X011526Y030989D01*
X011526Y030849D01*
X011456Y030779D02*
X011175Y030779D01*
X011105Y030849D01*
X011105Y030989D01*
X011175Y031060D01*
X011456Y031240D02*
X011456Y031310D01*
X011526Y031310D01*
X011526Y031240D01*
X011456Y031240D01*
X011526Y031470D02*
X011526Y031750D01*
X011526Y031610D02*
X011105Y031610D01*
X011246Y031470D01*
X011246Y031930D02*
X011456Y031930D01*
X011526Y032000D01*
X011526Y032210D01*
X011246Y032210D01*
X011246Y033891D02*
X011105Y034031D01*
X011526Y034031D01*
X011526Y033891D02*
X011526Y034171D01*
X011526Y034351D02*
X011105Y034351D01*
X011316Y034421D02*
X011526Y034631D01*
X011386Y034351D02*
X011105Y034631D01*
X011175Y036779D02*
X011105Y036849D01*
X011105Y036989D01*
X011175Y037060D01*
X011456Y036779D01*
X011526Y036849D01*
X011526Y036989D01*
X011456Y037060D01*
X011175Y037060D01*
X011175Y036779D02*
X011456Y036779D01*
X011456Y037240D02*
X011456Y037310D01*
X011526Y037310D01*
X011526Y037240D01*
X011456Y037240D01*
X011526Y037470D02*
X011526Y037750D01*
X011526Y037610D02*
X011105Y037610D01*
X011246Y037470D01*
X011246Y037930D02*
X011456Y037930D01*
X011526Y038000D01*
X011526Y038210D01*
X011246Y038210D01*
X010825Y029811D02*
X010685Y029671D01*
X010825Y029811D02*
X010825Y029391D01*
X010685Y029391D02*
X010965Y029391D01*
X011145Y029461D02*
X011215Y029391D01*
X011426Y029391D01*
X011426Y029671D01*
X011145Y029671D02*
X011145Y029461D01*
X010525Y029461D02*
X010525Y029391D01*
X010455Y029391D01*
X010455Y029461D01*
X010525Y029461D01*
X010275Y029461D02*
X010205Y029391D01*
X010064Y029391D01*
X009994Y029461D01*
X010275Y029741D01*
X010275Y029461D01*
X010275Y029741D02*
X010205Y029811D01*
X010064Y029811D01*
X009994Y029741D01*
X009994Y029461D01*
X008057Y029391D02*
X007847Y029601D01*
X007777Y029531D02*
X008057Y029811D01*
X007777Y029811D02*
X007777Y029391D01*
X007596Y029461D02*
X007526Y029391D01*
X007386Y029391D01*
X007316Y029461D01*
X007596Y029741D01*
X007596Y029461D01*
X007316Y029461D02*
X007316Y029741D01*
X007386Y029811D01*
X007526Y029811D01*
X007596Y029741D01*
X007136Y029391D02*
X006856Y029391D01*
X006996Y029391D02*
X006996Y029811D01*
X006856Y029671D01*
D13*
X006236Y026894D02*
X005395Y026894D01*
X005395Y026614D02*
X005395Y027174D01*
X005395Y026253D02*
X005395Y025693D01*
X006236Y025693D01*
X006236Y026253D01*
X005815Y025973D02*
X005815Y025693D01*
X005956Y025333D02*
X005815Y025193D01*
X005815Y024912D01*
X005675Y024772D01*
X005535Y024772D01*
X005395Y024912D01*
X005395Y025193D01*
X005535Y025333D01*
X005956Y025333D02*
X006096Y025333D01*
X006236Y025193D01*
X006236Y024912D01*
X006096Y024772D01*
X006236Y024412D02*
X006236Y023851D01*
X005395Y023851D01*
X005395Y024412D01*
X005815Y024132D02*
X005815Y023851D01*
X005815Y023491D02*
X005956Y023351D01*
X005956Y022931D01*
X006236Y022931D02*
X005395Y022931D01*
X005395Y023351D01*
X005535Y023491D01*
X005815Y023491D01*
X005956Y023211D02*
X006236Y023491D01*
D14*
X012936Y029221D02*
X013776Y030482D01*
X012936Y030482D02*
X013776Y029221D01*
X019436Y030272D02*
X019856Y029851D01*
X019856Y029221D01*
X019856Y029851D02*
X020276Y030272D01*
X020276Y030482D01*
X019436Y030482D02*
X019436Y030272D01*
X025936Y030482D02*
X026776Y030482D01*
X026776Y030272D01*
X025936Y029431D01*
X025936Y029221D01*
X026776Y029221D01*
X030186Y016482D02*
X030186Y015221D01*
X031026Y015221D01*
X031567Y015221D02*
X032408Y016061D01*
X032408Y016272D01*
X032197Y016482D01*
X031777Y016482D01*
X031567Y016272D01*
X031026Y016482D02*
X030186Y016482D01*
X030186Y015851D02*
X030606Y015851D01*
X031567Y015221D02*
X032408Y015221D01*
X037270Y016278D02*
X038111Y016278D01*
X037690Y015858D02*
X037690Y016699D01*
X037690Y013936D02*
X037690Y013096D01*
X019158Y015221D02*
X018317Y015221D01*
X018737Y015221D02*
X018737Y016482D01*
X018317Y016061D01*
X017776Y016482D02*
X016936Y016482D01*
X016936Y015221D01*
X017776Y015221D01*
X017356Y015851D02*
X016936Y015851D01*
D15*
X016892Y004116D02*
X017049Y003959D01*
X017206Y004116D01*
X017206Y003646D01*
X017408Y003724D02*
X017486Y003646D01*
X017643Y003646D01*
X017721Y003724D01*
X017721Y004038D01*
X017643Y004116D01*
X017486Y004116D01*
X017408Y004038D01*
X017408Y003724D01*
X016892Y003646D02*
X016892Y004116D01*
X016533Y004116D02*
X016533Y003646D01*
X016376Y003646D02*
X016690Y003646D01*
X016376Y003959D02*
X016533Y004116D01*
X016174Y004116D02*
X015861Y004116D01*
X015861Y003646D01*
X016174Y003646D01*
X016018Y003881D02*
X015861Y003881D01*
X017923Y004116D02*
X018237Y004116D01*
X018080Y004116D02*
X018080Y003646D01*
X018439Y003724D02*
X018517Y003646D01*
X018674Y003646D01*
X018753Y003724D01*
X018753Y004038D01*
X018674Y004116D01*
X018517Y004116D01*
X018439Y004038D01*
X018439Y003724D01*
X018955Y003646D02*
X018955Y004116D01*
X019190Y004116D01*
X019268Y004038D01*
X019268Y003881D01*
X019190Y003802D01*
X018955Y003802D01*
X019111Y003802D02*
X019268Y003646D01*
X020611Y004116D02*
X020924Y004116D01*
X020768Y004116D02*
X020768Y003646D01*
X021126Y003646D02*
X021126Y004116D01*
X021205Y003959D02*
X021362Y003959D01*
X021440Y003881D01*
X021440Y003646D01*
X021642Y003724D02*
X021642Y003881D01*
X021720Y003959D01*
X021877Y003959D01*
X021956Y003881D01*
X021956Y003802D01*
X021642Y003802D01*
X021642Y003724D02*
X021720Y003646D01*
X021877Y003646D01*
X022158Y003646D02*
X022158Y003959D01*
X022314Y003959D02*
X022393Y003959D01*
X022314Y003959D02*
X022158Y003802D01*
X022587Y003646D02*
X022587Y003959D01*
X022666Y003959D01*
X022744Y003881D01*
X022823Y003959D01*
X022901Y003881D01*
X022901Y003646D01*
X022744Y003646D02*
X022744Y003881D01*
X023861Y003881D02*
X024174Y003881D01*
X024174Y004116D02*
X024174Y003646D01*
X024376Y003646D02*
X024690Y004116D01*
X024892Y004116D02*
X024892Y003646D01*
X025206Y003646D01*
X025408Y003646D02*
X025721Y003959D01*
X025721Y004038D01*
X025643Y004116D01*
X025486Y004116D01*
X025408Y004038D01*
X025206Y004116D02*
X024892Y004116D01*
X024892Y003881D02*
X025049Y003881D01*
X025408Y003646D02*
X025721Y003646D01*
X023861Y003646D02*
X023861Y004116D01*
X021205Y003959D02*
X021126Y003881D01*
X028861Y003881D02*
X029018Y003881D01*
X029174Y004116D02*
X028861Y004116D01*
X028861Y003646D01*
X029174Y003646D01*
X029376Y003646D02*
X029690Y003959D01*
X029690Y004038D01*
X029612Y004116D01*
X029455Y004116D01*
X029376Y004038D01*
X029376Y003646D02*
X029690Y003646D01*
X029892Y003646D02*
X029892Y004116D01*
X030049Y003959D01*
X030206Y004116D01*
X030206Y003646D01*
X030408Y003724D02*
X030486Y003646D01*
X030643Y003646D01*
X030721Y003724D01*
X030721Y004038D01*
X030643Y004116D01*
X030486Y004116D01*
X030408Y004038D01*
X030408Y003724D01*
X030923Y004116D02*
X031237Y004116D01*
X031080Y004116D02*
X031080Y003646D01*
X031439Y003724D02*
X031517Y003646D01*
X031674Y003646D01*
X031753Y003724D01*
X031753Y004038D01*
X031674Y004116D01*
X031517Y004116D01*
X031439Y004038D01*
X031439Y003724D01*
X031955Y003646D02*
X031955Y004116D01*
X032190Y004116D01*
X032268Y004038D01*
X032268Y003881D01*
X032190Y003802D01*
X031955Y003802D01*
X032111Y003802D02*
X032268Y003646D01*
X034111Y004116D02*
X034424Y004116D01*
X034268Y004116D02*
X034268Y003646D01*
X034626Y003646D02*
X034626Y004116D01*
X034705Y003959D02*
X034862Y003959D01*
X034940Y003881D01*
X034940Y003646D01*
X035142Y003724D02*
X035142Y003881D01*
X035220Y003959D01*
X035377Y003959D01*
X035456Y003881D01*
X035456Y003802D01*
X035142Y003802D01*
X035142Y003724D02*
X035220Y003646D01*
X035377Y003646D01*
X035658Y003646D02*
X035658Y003959D01*
X035814Y003959D02*
X035893Y003959D01*
X035814Y003959D02*
X035658Y003802D01*
X036087Y003646D02*
X036087Y003959D01*
X036166Y003959D01*
X036244Y003881D01*
X036323Y003959D01*
X036401Y003881D01*
X036401Y003646D01*
X036244Y003646D02*
X036244Y003881D01*
X037251Y003821D02*
X037565Y003821D01*
X037767Y003821D02*
X037924Y003821D01*
X038081Y004056D02*
X037767Y004056D01*
X037767Y003586D01*
X038081Y003586D01*
X038283Y003586D02*
X038283Y003899D01*
X038439Y004056D01*
X038596Y003899D01*
X038596Y003586D01*
X038596Y003821D02*
X038283Y003821D01*
X038798Y004056D02*
X039112Y004056D01*
X038955Y004056D02*
X038955Y003586D01*
X039314Y003586D02*
X039314Y004056D01*
X039549Y004056D01*
X039627Y003978D01*
X039627Y003899D01*
X039549Y003821D01*
X039314Y003821D01*
X039549Y003821D02*
X039627Y003742D01*
X039627Y003664D01*
X039549Y003586D01*
X039314Y003586D01*
X039829Y003586D02*
X039829Y004056D01*
X040143Y004056D01*
X040345Y004056D02*
X040580Y004056D01*
X040659Y003978D01*
X040659Y003664D01*
X040580Y003586D01*
X040345Y003586D01*
X040345Y004056D01*
X039986Y003821D02*
X039829Y003821D01*
X039829Y003586D02*
X040143Y003586D01*
X037565Y003586D02*
X037565Y004056D01*
X037251Y004056D02*
X037251Y003586D01*
X034705Y003959D02*
X034626Y003881D01*
X038111Y012271D02*
X038424Y012271D01*
X038268Y012271D02*
X038268Y012741D01*
X038111Y012584D01*
X038626Y012663D02*
X038705Y012741D01*
X038862Y012741D01*
X038940Y012663D01*
X038940Y012584D01*
X038626Y012271D01*
X038940Y012271D01*
X039142Y012427D02*
X039142Y012741D01*
X039142Y012427D02*
X039299Y012271D01*
X039456Y012427D01*
X039456Y012741D01*
X040173Y012584D02*
X040330Y012741D01*
X040330Y012271D01*
X040173Y012271D02*
X040487Y012271D01*
X040689Y012349D02*
X040767Y012271D01*
X040924Y012271D01*
X041003Y012349D01*
X041003Y012506D01*
X040924Y012584D01*
X040846Y012584D01*
X040689Y012506D01*
X040689Y012741D01*
X041003Y012741D01*
X041205Y012584D02*
X041361Y012741D01*
X041518Y012584D01*
X041518Y012271D01*
X041518Y012506D02*
X041205Y012506D01*
X041205Y012584D02*
X041205Y012271D01*
X042236Y012271D02*
X042393Y012271D01*
X042314Y012271D02*
X042314Y012741D01*
X042236Y012741D02*
X042393Y012741D01*
X042580Y012741D02*
X042893Y012271D01*
X042893Y012741D01*
X042580Y012741D02*
X042580Y012271D01*
X012721Y003646D02*
X012408Y003646D01*
X012564Y003646D02*
X012564Y004116D01*
X012408Y003959D01*
X012206Y004116D02*
X011892Y004116D01*
X011892Y003646D01*
X012206Y003646D01*
X012049Y003881D02*
X011892Y003881D01*
X011690Y004116D02*
X011376Y003646D01*
X011174Y003646D02*
X011174Y004116D01*
X011174Y003881D02*
X010861Y003881D01*
X010861Y003646D02*
X010861Y004116D01*
X009901Y003881D02*
X009901Y003646D01*
X009744Y003646D02*
X009744Y003881D01*
X009823Y003959D01*
X009901Y003881D01*
X009744Y003881D02*
X009666Y003959D01*
X009587Y003959D01*
X009587Y003646D01*
X009393Y003959D02*
X009314Y003959D01*
X009158Y003802D01*
X009158Y003646D02*
X009158Y003959D01*
X008956Y003881D02*
X008956Y003802D01*
X008642Y003802D01*
X008642Y003724D02*
X008642Y003881D01*
X008720Y003959D01*
X008877Y003959D01*
X008956Y003881D01*
X008877Y003646D02*
X008720Y003646D01*
X008642Y003724D01*
X008440Y003646D02*
X008440Y003881D01*
X008362Y003959D01*
X008205Y003959D01*
X008126Y003881D01*
X008126Y004116D02*
X008126Y003646D01*
X007768Y003646D02*
X007768Y004116D01*
X007924Y004116D02*
X007611Y004116D01*
X007861Y041646D02*
X008174Y042116D01*
X008376Y042116D02*
X008376Y041646D01*
X008174Y041646D02*
X007861Y042116D01*
X008376Y042116D02*
X008533Y041959D01*
X008690Y042116D01*
X008690Y041646D01*
X008892Y041724D02*
X008892Y042038D01*
X008970Y042116D01*
X009127Y042116D01*
X009206Y042038D01*
X009206Y041724D01*
X009127Y041646D01*
X008970Y041646D01*
X008892Y041724D01*
X009408Y042116D02*
X009721Y042116D01*
X009564Y042116D02*
X009564Y041646D01*
X009923Y041724D02*
X009923Y042038D01*
X010002Y042116D01*
X010159Y042116D01*
X010237Y042038D01*
X010237Y041724D01*
X010159Y041646D01*
X010002Y041646D01*
X009923Y041724D01*
X010439Y041646D02*
X010439Y042116D01*
X010674Y042116D01*
X010753Y042038D01*
X010753Y041881D01*
X010674Y041802D01*
X010439Y041802D01*
X010596Y041802D02*
X010753Y041646D01*
X014361Y042038D02*
X014518Y041881D01*
X014518Y041646D01*
X014518Y041881D02*
X014674Y042038D01*
X014674Y042116D01*
X014876Y042116D02*
X015033Y041959D01*
X015190Y042116D01*
X015190Y041646D01*
X015392Y041724D02*
X015470Y041646D01*
X015627Y041646D01*
X015706Y041724D01*
X015706Y042038D01*
X015627Y042116D01*
X015470Y042116D01*
X015392Y042038D01*
X015392Y041724D01*
X014876Y041646D02*
X014876Y042116D01*
X014361Y042116D02*
X014361Y042038D01*
X015908Y042116D02*
X016221Y042116D01*
X016064Y042116D02*
X016064Y041646D01*
X016423Y041724D02*
X016423Y042038D01*
X016502Y042116D01*
X016659Y042116D01*
X016737Y042038D01*
X016737Y041724D01*
X016659Y041646D01*
X016502Y041646D01*
X016423Y041724D01*
X016939Y041646D02*
X016939Y042116D01*
X017174Y042116D01*
X017253Y042038D01*
X017253Y041881D01*
X017174Y041802D01*
X016939Y041802D01*
X017096Y041802D02*
X017253Y041646D01*
X020861Y041646D02*
X021174Y041646D01*
X021376Y041646D02*
X021376Y042116D01*
X021533Y041959D01*
X021690Y042116D01*
X021690Y041646D01*
X021892Y041724D02*
X021970Y041646D01*
X022127Y041646D01*
X022206Y041724D01*
X022206Y042038D01*
X022127Y042116D01*
X021970Y042116D01*
X021892Y042038D01*
X021892Y041724D01*
X022408Y042116D02*
X022721Y042116D01*
X022564Y042116D02*
X022564Y041646D01*
X022923Y041724D02*
X022923Y042038D01*
X023002Y042116D01*
X023159Y042116D01*
X023237Y042038D01*
X023237Y041724D01*
X023159Y041646D01*
X023002Y041646D01*
X022923Y041724D01*
X023439Y041646D02*
X023439Y042116D01*
X023674Y042116D01*
X023753Y042038D01*
X023753Y041881D01*
X023674Y041802D01*
X023439Y041802D01*
X023596Y041802D02*
X023753Y041646D01*
X021174Y042038D02*
X020861Y041724D01*
X020861Y041646D01*
X020861Y042116D02*
X021174Y042116D01*
X021174Y042038D01*
X027361Y042116D02*
X027361Y041646D01*
X027361Y041881D02*
X027518Y041881D01*
X027361Y042116D02*
X027674Y042116D01*
X027876Y041959D02*
X027876Y041646D01*
X027876Y041881D02*
X028190Y041881D01*
X028190Y041959D02*
X028190Y041646D01*
X028392Y041646D02*
X028392Y042116D01*
X028706Y041646D01*
X028706Y042116D01*
X028190Y041959D02*
X028033Y042116D01*
X027876Y041959D01*
D16*
X029316Y035351D03*
X040691Y029351D03*
X023941Y011101D03*
D17*
X010816Y011101D03*
X038816Y011351D03*
D18*
X007816Y025226D03*
D19*
X007816Y024726D03*
D20*
X014381Y017296D02*
X014381Y016666D01*
X014801Y016666D01*
X015081Y016666D02*
X015501Y017086D01*
X015780Y017086D02*
X015991Y017086D01*
X015885Y017191D02*
X015885Y016771D01*
X015991Y016666D01*
X016247Y016666D02*
X016247Y017086D01*
X016457Y017086D02*
X016562Y017086D01*
X016457Y017086D02*
X016247Y016876D01*
X016830Y016771D02*
X016935Y016666D01*
X017250Y016666D01*
X017250Y017086D01*
X017530Y016981D02*
X017635Y017086D01*
X017950Y017086D01*
X017950Y017296D02*
X017950Y016666D01*
X017635Y016666D01*
X017530Y016771D01*
X017530Y016981D01*
X016830Y017086D02*
X016830Y016771D01*
X015501Y016666D02*
X015081Y017086D01*
X014801Y017296D02*
X014381Y017296D01*
X014381Y016981D02*
X014591Y016981D01*
X018230Y016981D02*
X018230Y016771D01*
X018335Y016666D01*
X018545Y016666D01*
X018650Y016876D02*
X018230Y016876D01*
X018230Y016981D02*
X018335Y017086D01*
X018545Y017086D01*
X018650Y016981D01*
X018650Y016876D01*
X018929Y016876D02*
X019140Y017086D01*
X019245Y017086D01*
X018929Y017086D02*
X018929Y016666D01*
D21*
X016667Y016301D02*
X016667Y016246D01*
X016447Y016246D01*
X016447Y016301D02*
X016502Y016356D01*
X016612Y016356D01*
X016667Y016301D01*
X016612Y016136D02*
X016502Y016136D01*
X016447Y016191D01*
X016447Y016301D01*
X016311Y016136D02*
X016201Y016136D01*
X016256Y016136D02*
X016256Y016466D01*
X016201Y016466D01*
X016053Y016356D02*
X016053Y016081D01*
X015998Y016026D01*
X015943Y016026D01*
X015888Y016136D02*
X016053Y016136D01*
X015888Y016136D02*
X015833Y016191D01*
X015833Y016301D01*
X015888Y016356D01*
X016053Y016356D01*
X015685Y016301D02*
X015630Y016356D01*
X015465Y016356D01*
X015465Y016136D01*
X015329Y016136D02*
X015219Y016136D01*
X015274Y016136D02*
X015274Y016356D01*
X015219Y016356D01*
X015274Y016466D02*
X015274Y016521D01*
X015071Y016411D02*
X015016Y016466D01*
X014906Y016466D01*
X014851Y016411D01*
X014851Y016356D01*
X014906Y016301D01*
X015016Y016301D01*
X015071Y016246D01*
X015071Y016191D01*
X015016Y016136D01*
X014906Y016136D01*
X014851Y016191D01*
X015685Y016136D02*
X015685Y016301D01*
X030101Y016941D02*
X030156Y016886D01*
X030266Y016886D01*
X030321Y016941D01*
X030321Y017161D01*
X030266Y017216D01*
X030156Y017216D01*
X030101Y017161D01*
X030101Y016941D01*
X030469Y016886D02*
X030634Y016886D01*
X030689Y016941D01*
X030689Y017051D01*
X030634Y017106D01*
X030469Y017106D01*
X030469Y016776D01*
X030892Y016941D02*
X030947Y016886D01*
X030892Y016941D02*
X030892Y017161D01*
X030837Y017106D02*
X030947Y017106D01*
X031083Y017106D02*
X031138Y017106D01*
X031138Y016886D01*
X031083Y016886D02*
X031193Y016886D01*
X031328Y016941D02*
X031384Y016886D01*
X031494Y016886D01*
X031549Y016941D01*
X031549Y017051D01*
X031494Y017106D01*
X031384Y017106D01*
X031328Y017051D01*
X031328Y016941D01*
X031138Y017216D02*
X031138Y017271D01*
X031697Y017106D02*
X031862Y017106D01*
X031917Y017051D01*
X031917Y016886D01*
X032065Y016941D02*
X032120Y016996D01*
X032285Y016996D01*
X032285Y017051D02*
X032285Y016886D01*
X032120Y016886D01*
X032065Y016941D01*
X032120Y017106D02*
X032230Y017106D01*
X032285Y017051D01*
X032433Y017216D02*
X032488Y017216D01*
X032488Y016886D01*
X032433Y016886D02*
X032543Y016886D01*
X031697Y016886D02*
X031697Y017106D01*
D22*
X034191Y009351D02*
X034191Y008726D01*
X034191Y009351D02*
X035816Y009351D01*
X036191Y008976D01*
X036191Y008726D01*
X036191Y007976D02*
X036191Y007601D01*
X035941Y007476D01*
X034191Y007476D01*
X034191Y007976D01*
X038941Y008351D02*
X038941Y009351D01*
X024691Y008601D02*
X024691Y007601D01*
X022566Y007601D02*
X022191Y007226D01*
X020566Y007226D01*
X020566Y007851D01*
X020566Y008601D02*
X020566Y009226D01*
X022191Y009226D01*
X022566Y008851D01*
X022566Y008601D01*
X011691Y008601D02*
X011691Y007601D01*
X009816Y007726D02*
X009816Y007976D01*
X009816Y007726D02*
X009441Y007351D01*
X007816Y007351D01*
X007816Y007976D01*
X007816Y008726D02*
X007816Y009351D01*
X009441Y009351D01*
X009816Y008976D01*
X009816Y008726D01*
X009066Y009726D02*
X009066Y010976D01*
X036316Y028976D02*
X036316Y029726D01*
X036441Y029851D01*
X036316Y029976D01*
X036316Y030726D01*
X036441Y030851D01*
X036316Y030976D01*
X036316Y031726D01*
X036441Y031851D01*
X037191Y031851D01*
X037316Y031726D01*
X037316Y030976D01*
X037191Y030851D01*
X037316Y030726D01*
X037316Y029976D01*
X037191Y029851D01*
X037316Y029726D01*
X037316Y028976D01*
X037191Y028851D01*
X036441Y028851D01*
X036316Y028976D01*
X040566Y031101D02*
X040566Y033101D01*
X042191Y033101D01*
X042566Y032726D01*
X042566Y031476D01*
X042191Y031101D01*
X040566Y031101D01*
X037641Y023976D02*
X037644Y024101D01*
X037653Y024226D01*
X037669Y024350D01*
X037690Y024473D01*
X037717Y024596D01*
X037751Y024716D01*
X037790Y024835D01*
X037835Y024952D01*
X037886Y025066D01*
X037942Y025178D01*
X038004Y025287D01*
X038071Y025393D01*
X038143Y025495D01*
X038220Y025594D01*
X038302Y025688D01*
X038388Y025779D01*
X038479Y025865D01*
X038573Y025947D01*
X038672Y026024D01*
X038774Y026096D01*
X038880Y026163D01*
X038989Y026225D01*
X039101Y026281D01*
X039215Y026332D01*
X039332Y026377D01*
X039451Y026416D01*
X039571Y026450D01*
X039694Y026477D01*
X039817Y026498D01*
X039941Y026514D01*
X040066Y026523D01*
X040191Y026526D01*
X040316Y026523D01*
X040441Y026514D01*
X040565Y026498D01*
X040688Y026477D01*
X040811Y026450D01*
X040931Y026416D01*
X041050Y026377D01*
X041167Y026332D01*
X041281Y026281D01*
X041393Y026225D01*
X041502Y026163D01*
X041608Y026096D01*
X041710Y026024D01*
X041809Y025947D01*
X041903Y025865D01*
X041994Y025779D01*
X042080Y025688D01*
X042162Y025594D01*
X042239Y025495D01*
X042311Y025393D01*
X042378Y025287D01*
X042440Y025178D01*
X042496Y025066D01*
X042547Y024952D01*
X042592Y024835D01*
X042631Y024716D01*
X042665Y024596D01*
X042692Y024473D01*
X042713Y024350D01*
X042729Y024226D01*
X042738Y024101D01*
X042741Y023976D01*
X042738Y023851D01*
X042729Y023726D01*
X042713Y023602D01*
X042692Y023479D01*
X042665Y023356D01*
X042631Y023236D01*
X042592Y023117D01*
X042547Y023000D01*
X042496Y022886D01*
X042440Y022774D01*
X042378Y022665D01*
X042311Y022559D01*
X042239Y022457D01*
X042162Y022358D01*
X042080Y022264D01*
X041994Y022173D01*
X041903Y022087D01*
X041809Y022005D01*
X041710Y021928D01*
X041608Y021856D01*
X041502Y021789D01*
X041393Y021727D01*
X041281Y021671D01*
X041167Y021620D01*
X041050Y021575D01*
X040931Y021536D01*
X040811Y021502D01*
X040688Y021475D01*
X040565Y021454D01*
X040441Y021438D01*
X040316Y021429D01*
X040191Y021426D01*
X040066Y021429D01*
X039941Y021438D01*
X039817Y021454D01*
X039694Y021475D01*
X039571Y021502D01*
X039451Y021536D01*
X039332Y021575D01*
X039215Y021620D01*
X039101Y021671D01*
X038989Y021727D01*
X038880Y021789D01*
X038774Y021856D01*
X038672Y021928D01*
X038573Y022005D01*
X038479Y022087D01*
X038388Y022173D01*
X038302Y022264D01*
X038220Y022358D01*
X038143Y022457D01*
X038071Y022559D01*
X038004Y022665D01*
X037942Y022774D01*
X037886Y022886D01*
X037835Y023000D01*
X037790Y023117D01*
X037751Y023236D01*
X037717Y023356D01*
X037690Y023479D01*
X037669Y023602D01*
X037653Y023726D01*
X037644Y023851D01*
X037641Y023976D01*
X028941Y037351D02*
X028941Y038351D01*
D23*
X042265Y011837D03*
X042288Y011825D03*
X042300Y011825D03*
X042253Y011801D03*
X042253Y011778D03*
X042335Y011754D03*
X042217Y011636D03*
X042206Y011518D03*
X042217Y011506D03*
X042206Y011494D03*
X042111Y011376D03*
X042099Y011376D03*
X042099Y011282D03*
X042087Y011282D03*
X042087Y011258D03*
X042076Y011258D03*
X042064Y011258D03*
X042099Y011258D03*
X042111Y011258D03*
X042135Y011258D03*
X042146Y011258D03*
X042146Y011282D03*
X042135Y011282D03*
X042123Y011282D03*
X042111Y011282D03*
X042158Y011282D03*
X042170Y011282D03*
X042182Y011282D03*
X042194Y011282D03*
X042206Y011282D03*
X042217Y011282D03*
X042229Y011282D03*
X042229Y011258D03*
X042170Y011258D03*
X042170Y011305D03*
X042017Y011258D03*
X042005Y011258D03*
X041993Y011258D03*
X041981Y011246D03*
X041969Y011246D03*
X041946Y011235D03*
X041922Y011223D03*
X041910Y011211D03*
X041898Y011211D03*
X041887Y011199D03*
X041875Y011187D03*
X041851Y011175D03*
X041839Y011164D03*
X041828Y011152D03*
X041816Y011140D03*
X041804Y011128D03*
X041792Y011116D03*
X041769Y011081D03*
X041745Y011046D03*
X041733Y011022D03*
X041721Y010998D03*
X041627Y010998D03*
X041603Y011010D03*
X041580Y011022D03*
X041568Y011034D03*
X041556Y011046D03*
X041544Y011057D03*
X041615Y011105D03*
X041627Y011105D03*
X041639Y011105D03*
X041662Y011093D03*
X041674Y011105D03*
X041698Y011140D03*
X041686Y011152D03*
X041674Y011164D03*
X041662Y011175D03*
X041650Y011199D03*
X041639Y011223D03*
X041639Y011246D03*
X041662Y011270D03*
X041686Y011258D03*
X041698Y011258D03*
X041709Y011258D03*
X041721Y011246D03*
X041745Y011235D03*
X041757Y011223D03*
X041769Y011223D03*
X041780Y011235D03*
X041792Y011246D03*
X041875Y011341D03*
X041863Y011353D03*
X041851Y011364D03*
X041828Y011376D03*
X041816Y011388D03*
X041804Y011388D03*
X041792Y011388D03*
X041780Y011376D03*
X041898Y011317D03*
X041910Y011317D03*
X041922Y011329D03*
X041934Y011329D03*
X042017Y011423D03*
X042005Y011447D03*
X041993Y011459D03*
X041969Y011459D03*
X041957Y011459D03*
X041922Y011494D03*
X041922Y011530D03*
X041946Y011565D03*
X041981Y011601D03*
X042052Y011140D03*
X042040Y011128D03*
X042017Y011069D03*
X042135Y011105D03*
X042158Y010975D03*
X042170Y010975D03*
X042123Y010880D03*
X042028Y010868D03*
X042017Y010868D03*
X042017Y010892D03*
X042028Y010892D03*
X041993Y010904D03*
X041993Y010880D03*
X041981Y010880D03*
X041981Y010857D03*
X041993Y010857D03*
X041993Y010798D03*
X041969Y010750D03*
X041934Y010609D03*
X041934Y010561D03*
X041934Y010538D03*
X041946Y010526D03*
X041957Y010514D03*
X041957Y010549D03*
X041981Y010573D03*
X042052Y010549D03*
X042017Y010502D03*
X041993Y010490D03*
X041969Y010455D03*
X042005Y010420D03*
X042005Y010372D03*
X041934Y010408D03*
X041910Y010420D03*
X041898Y010431D03*
X041887Y010431D03*
X041875Y010443D03*
X041863Y010455D03*
X041851Y010467D03*
X041828Y010479D03*
X041816Y010490D03*
X041804Y010502D03*
X041792Y010526D03*
X041780Y010538D03*
X041769Y010549D03*
X041757Y010573D03*
X041745Y010585D03*
X041674Y010514D03*
X041686Y010502D03*
X041698Y010479D03*
X041686Y010467D03*
X041674Y010455D03*
X041662Y010443D03*
X041627Y010384D03*
X041639Y010372D03*
X041650Y010360D03*
X041674Y010360D03*
X041686Y010360D03*
X041709Y010372D03*
X041721Y010372D03*
X041733Y010384D03*
X041745Y010384D03*
X041757Y010396D03*
X041769Y010396D03*
X041792Y010384D03*
X041875Y010290D03*
X041887Y010301D03*
X041898Y010313D03*
X041910Y010301D03*
X041922Y010301D03*
X041934Y010290D03*
X041863Y010266D03*
X041839Y010254D03*
X041828Y010242D03*
X041804Y010231D03*
X041792Y010242D03*
X041780Y010242D03*
X041780Y010124D03*
X041698Y010124D03*
X041686Y010124D03*
X041674Y010124D03*
X041662Y010124D03*
X041662Y010030D03*
X041674Y010030D03*
X041686Y010030D03*
X041698Y010030D03*
X041709Y010030D03*
X041709Y009994D03*
X041698Y009994D03*
X041686Y009994D03*
X041674Y009994D03*
X041674Y009900D03*
X041686Y009900D03*
X041698Y009900D03*
X041709Y009900D03*
X041721Y009900D03*
X041733Y009900D03*
X041745Y009900D03*
X041757Y009900D03*
X041757Y009864D03*
X041745Y009864D03*
X041733Y009864D03*
X041721Y009864D03*
X041709Y009864D03*
X041721Y009817D03*
X041615Y009853D03*
X041580Y009853D03*
X041603Y009900D03*
X041615Y009900D03*
X041650Y009687D03*
X041721Y009699D03*
X041733Y009699D03*
X041745Y009699D03*
X041757Y009699D03*
X041698Y009557D03*
X041686Y009557D03*
X041674Y009557D03*
X041662Y009557D03*
X041650Y009557D03*
X041639Y009557D03*
X041603Y009605D03*
X041615Y009463D03*
X041627Y009427D03*
X041639Y009427D03*
X041650Y009427D03*
X041662Y009427D03*
X041674Y009427D03*
X041674Y009463D03*
X041662Y009463D03*
X041686Y009463D03*
X041698Y009463D03*
X041709Y009463D03*
X041721Y009463D03*
X041733Y009463D03*
X041745Y009463D03*
X041757Y009463D03*
X041922Y009593D03*
X041946Y009628D03*
X042017Y009640D03*
X041993Y009569D03*
X041993Y009546D03*
X042028Y009546D03*
X042123Y009475D03*
X042146Y009451D03*
X042028Y009392D03*
X041993Y009309D03*
X041993Y009274D03*
X042017Y009238D03*
X042017Y009215D03*
X042005Y009215D03*
X041993Y009227D03*
X042005Y009191D03*
X042028Y009191D03*
X042111Y009085D03*
X042146Y009085D03*
X042158Y009085D03*
X042170Y009026D03*
X042170Y009002D03*
X042087Y008990D03*
X042087Y008931D03*
X042217Y008908D03*
X042229Y008908D03*
X042241Y008896D03*
X042253Y008908D03*
X042229Y008860D03*
X042217Y008860D03*
X042206Y008813D03*
X042194Y008813D03*
X042182Y008813D03*
X042265Y008542D03*
X042288Y008530D03*
X042300Y008530D03*
X042253Y008506D03*
X042253Y008483D03*
X042335Y008459D03*
X042217Y008341D03*
X042170Y008223D03*
X042111Y008152D03*
X042135Y008128D03*
X042111Y008116D03*
X042123Y008081D03*
X042135Y008057D03*
X042146Y008022D03*
X042146Y007998D03*
X042123Y007998D03*
X042123Y007975D03*
X042135Y007975D03*
X042146Y007939D03*
X042158Y007857D03*
X042217Y007857D03*
X042265Y007975D03*
X042253Y007986D03*
X042265Y007998D03*
X042241Y008093D03*
X042076Y008211D03*
X042005Y008211D03*
X041993Y008211D03*
X041981Y008305D03*
X041757Y008329D03*
X041745Y008329D03*
X041733Y008329D03*
X041721Y008329D03*
X041709Y008329D03*
X041698Y008329D03*
X041686Y008329D03*
X041674Y008329D03*
X041662Y008329D03*
X041615Y008329D03*
X041603Y008329D03*
X041650Y008282D03*
X041698Y008423D03*
X041709Y008423D03*
X041721Y008423D03*
X041733Y008423D03*
X041745Y008423D03*
X041745Y008471D03*
X041757Y008471D03*
X041733Y008471D03*
X041721Y008471D03*
X041709Y008471D03*
X041709Y008506D03*
X041698Y008506D03*
X041686Y008506D03*
X041674Y008506D03*
X041580Y008459D03*
X041650Y008648D03*
X041662Y008648D03*
X041745Y008778D03*
X041757Y008778D03*
X041769Y008778D03*
X041721Y009179D03*
X041709Y009179D03*
X041698Y009179D03*
X041603Y009168D03*
X042158Y009286D03*
X042359Y009475D03*
X042288Y009557D03*
X042276Y009557D03*
X042229Y009581D03*
X042206Y009581D03*
X042217Y009711D03*
X042300Y009735D03*
X042335Y009817D03*
X042300Y009864D03*
X042300Y009888D03*
X042288Y009888D03*
X042265Y009900D03*
X042253Y009864D03*
X042241Y009864D03*
X042229Y009817D03*
X042206Y009829D03*
X042182Y009983D03*
X042182Y010148D03*
X042087Y010183D03*
X042076Y010172D03*
X042017Y010195D03*
X041981Y010160D03*
X041957Y010160D03*
X041993Y010136D03*
X041993Y010242D03*
X042158Y010372D03*
X042194Y010349D03*
X042347Y010384D03*
X042359Y010396D03*
X042371Y010396D03*
X042383Y010408D03*
X042394Y010408D03*
X042406Y010420D03*
X042418Y010431D03*
X042430Y010431D03*
X042442Y010443D03*
X042454Y010455D03*
X042465Y010455D03*
X042477Y010467D03*
X042489Y010479D03*
X042501Y010490D03*
X042513Y010502D03*
X042524Y010514D03*
X042536Y010538D03*
X042548Y010549D03*
X042572Y010585D03*
X042583Y010609D03*
X042643Y010526D03*
X042654Y010526D03*
X042666Y010526D03*
X042690Y010514D03*
X042702Y010514D03*
X042713Y010514D03*
X042725Y010514D03*
X042737Y010514D03*
X042749Y010514D03*
X042761Y010514D03*
X042772Y010561D03*
X042761Y010573D03*
X042749Y010585D03*
X042737Y010597D03*
X042713Y010609D03*
X042702Y010620D03*
X042713Y010679D03*
X042725Y010679D03*
X042737Y010679D03*
X042749Y010679D03*
X042761Y010679D03*
X042772Y010679D03*
X042796Y010691D03*
X042808Y010691D03*
X042820Y010691D03*
X042831Y010727D03*
X042820Y010738D03*
X042808Y010750D03*
X042796Y010750D03*
X042784Y010762D03*
X042761Y010774D03*
X042749Y010774D03*
X042725Y010786D03*
X042725Y010845D03*
X042737Y010845D03*
X042749Y010845D03*
X042772Y010857D03*
X042784Y010857D03*
X042796Y010868D03*
X042808Y010880D03*
X042820Y010880D03*
X042831Y010892D03*
X042820Y010927D03*
X042808Y010927D03*
X042796Y010939D03*
X042784Y010939D03*
X042772Y010939D03*
X042761Y010939D03*
X042749Y010939D03*
X042737Y010939D03*
X042725Y010939D03*
X042713Y010939D03*
X042713Y011010D03*
X042725Y011022D03*
X042737Y011034D03*
X042761Y011057D03*
X042772Y011069D03*
X042772Y011093D03*
X042690Y011105D03*
X042678Y011105D03*
X042654Y011093D03*
X042631Y011116D03*
X042631Y011152D03*
X042643Y011175D03*
X042654Y011187D03*
X042666Y011211D03*
X042666Y011258D03*
X042654Y011270D03*
X042643Y011270D03*
X042619Y011258D03*
X042607Y011258D03*
X042595Y011246D03*
X042583Y011246D03*
X042572Y011235D03*
X042560Y011223D03*
X042548Y011223D03*
X042524Y011235D03*
X042513Y011246D03*
X042501Y011258D03*
X042454Y011187D03*
X042442Y011187D03*
X042430Y011199D03*
X042418Y011211D03*
X042406Y011211D03*
X042394Y011223D03*
X042371Y011235D03*
X042359Y011235D03*
X042371Y011329D03*
X042383Y011329D03*
X042406Y011317D03*
X042418Y011317D03*
X042430Y011329D03*
X042442Y011341D03*
X042454Y011353D03*
X042465Y011364D03*
X042477Y011376D03*
X042489Y011376D03*
X042501Y011388D03*
X042513Y011388D03*
X042524Y011376D03*
X042465Y011175D03*
X042477Y011164D03*
X042489Y011152D03*
X042501Y011140D03*
X042513Y011128D03*
X042524Y011116D03*
X042536Y011105D03*
X042548Y011081D03*
X042560Y011069D03*
X042572Y011046D03*
X042335Y011022D03*
X042335Y010963D03*
X042347Y010927D03*
X042359Y010927D03*
X042300Y011093D03*
X042288Y011140D03*
X042265Y010679D03*
X042253Y010632D03*
X042265Y010597D03*
X042324Y010668D03*
X042064Y010490D03*
X042371Y010290D03*
X042394Y010301D03*
X042406Y010301D03*
X042418Y010313D03*
X042430Y010290D03*
X042442Y010278D03*
X042454Y010266D03*
X042465Y010254D03*
X042477Y010254D03*
X042489Y010242D03*
X042501Y010231D03*
X042513Y010231D03*
X042524Y010242D03*
X042513Y010349D03*
X042501Y010360D03*
X042513Y010372D03*
X042524Y010384D03*
X042536Y010396D03*
X042548Y010408D03*
X042560Y010396D03*
X042572Y010384D03*
X042583Y010384D03*
X042595Y010372D03*
X042607Y010372D03*
X042619Y010360D03*
X042631Y010360D03*
X042643Y010360D03*
X042654Y010349D03*
X042666Y010360D03*
X042643Y010455D03*
X042631Y010467D03*
X042359Y010160D03*
X042347Y010160D03*
X042335Y010160D03*
X042324Y010160D03*
X042312Y010172D03*
X042335Y010136D03*
X041662Y010526D03*
X041650Y010526D03*
X041627Y010514D03*
X041615Y010514D03*
X041603Y010514D03*
X041591Y010514D03*
X041580Y010514D03*
X041568Y010514D03*
X041556Y010514D03*
X041544Y010561D03*
X041556Y010573D03*
X041568Y010585D03*
X041580Y010597D03*
X041591Y010609D03*
X041615Y010620D03*
X041627Y010620D03*
X041603Y010679D03*
X041591Y010679D03*
X041580Y010679D03*
X041568Y010679D03*
X041556Y010679D03*
X041544Y010679D03*
X041509Y010691D03*
X041497Y010691D03*
X041509Y010750D03*
X041520Y010762D03*
X041532Y010762D03*
X041544Y010774D03*
X041556Y010774D03*
X041568Y010774D03*
X041568Y010845D03*
X041580Y010845D03*
X041544Y010857D03*
X041532Y010857D03*
X041520Y010868D03*
X041509Y010868D03*
X041497Y010880D03*
X041497Y010927D03*
X041520Y010939D03*
X041532Y010939D03*
X041544Y010939D03*
X041556Y010939D03*
X041568Y010939D03*
X041580Y010939D03*
X041591Y010939D03*
X041603Y010939D03*
X042595Y008447D03*
X042383Y007762D03*
X042383Y007679D03*
X042383Y007609D03*
X042276Y007514D03*
X042241Y007538D03*
X042064Y007526D03*
X042017Y007514D03*
X042005Y007538D03*
X041993Y007549D03*
X041969Y007514D03*
X042005Y007479D03*
X041993Y007455D03*
X041981Y007455D03*
X041957Y007573D03*
X041733Y007656D03*
X041721Y007656D03*
X041709Y007656D03*
X041698Y007656D03*
X041686Y007656D03*
X041674Y007656D03*
X041650Y007703D03*
X041650Y007798D03*
X041662Y007798D03*
X041674Y007798D03*
X041650Y007845D03*
X041733Y007798D03*
X041733Y007951D03*
X041721Y007951D03*
X041721Y008069D03*
X041615Y008105D03*
X041898Y008010D03*
X042028Y007809D03*
X041721Y007620D03*
X041780Y007349D03*
X041757Y007325D03*
X041745Y007325D03*
X041733Y007325D03*
X041721Y007325D03*
X041650Y007313D03*
X041603Y007231D03*
X041662Y007183D03*
X041674Y007183D03*
X041686Y007183D03*
X041686Y007053D03*
X041698Y007053D03*
X041709Y007053D03*
X041721Y007053D03*
X041674Y007053D03*
X041580Y007042D03*
X041650Y006912D03*
X041662Y006912D03*
X041662Y006876D03*
X041650Y006876D03*
X041674Y006876D03*
X041733Y006876D03*
X041650Y006782D03*
X041650Y006735D03*
X041639Y006735D03*
X041662Y006735D03*
X041674Y006735D03*
X041686Y006735D03*
X041839Y006675D03*
X041839Y006593D03*
X041922Y006794D03*
X042064Y006711D03*
X042170Y006699D03*
X042335Y006569D03*
X042418Y006971D03*
X042312Y007183D03*
X042335Y007195D03*
X042146Y007242D03*
X042111Y007242D03*
X042099Y007242D03*
X042087Y007242D03*
X042076Y007231D03*
X042028Y007254D03*
X041993Y007301D03*
X041946Y007278D03*
X041946Y007325D03*
X041946Y007231D03*
X041993Y007195D03*
X042076Y006971D03*
X042099Y006959D03*
X042099Y006935D03*
X042111Y006935D03*
X042076Y006935D03*
D24*
X042064Y006929D03*
X042005Y007012D03*
X041981Y007012D03*
X041757Y007059D03*
X041745Y007059D03*
X041733Y007059D03*
X041733Y007095D03*
X041721Y007095D03*
X041709Y007095D03*
X041698Y007095D03*
X041686Y007095D03*
X041674Y007095D03*
X041662Y007095D03*
X041650Y007095D03*
X041639Y007095D03*
X041639Y007048D03*
X041650Y007048D03*
X041662Y007048D03*
X041627Y007048D03*
X041615Y007048D03*
X041615Y006953D03*
X041639Y006918D03*
X041674Y006918D03*
X041686Y006870D03*
X041639Y006870D03*
X041639Y006788D03*
X041662Y006776D03*
X041674Y006776D03*
X041686Y006776D03*
X041709Y006776D03*
X041721Y006776D03*
X041733Y006776D03*
X041745Y006776D03*
X041733Y006740D03*
X041721Y006740D03*
X041709Y006740D03*
X041698Y006740D03*
X041745Y006729D03*
X041745Y006634D03*
X041733Y006634D03*
X041721Y006634D03*
X041709Y006634D03*
X041698Y006634D03*
X041686Y006634D03*
X041674Y006634D03*
X041662Y006634D03*
X041650Y006634D03*
X041639Y006634D03*
X041627Y006634D03*
X041615Y006634D03*
X041603Y006634D03*
X041591Y006634D03*
X041580Y006634D03*
X041591Y006729D03*
X041603Y006729D03*
X041615Y006729D03*
X041627Y006729D03*
X041745Y006870D03*
X041745Y007000D03*
X041733Y007012D03*
X041721Y007012D03*
X041709Y007000D03*
X041650Y007177D03*
X041639Y007177D03*
X041615Y007177D03*
X041615Y007225D03*
X041650Y007225D03*
X041662Y007225D03*
X041674Y007225D03*
X041686Y007225D03*
X041698Y007225D03*
X041709Y007225D03*
X041721Y007225D03*
X041733Y007225D03*
X041745Y007225D03*
X041757Y007225D03*
X041769Y007189D03*
X041780Y007189D03*
X041733Y007189D03*
X041721Y007189D03*
X041709Y007189D03*
X041698Y007189D03*
X041615Y007272D03*
X041639Y007307D03*
X041662Y007319D03*
X041674Y007319D03*
X041686Y007319D03*
X041698Y007319D03*
X041709Y007319D03*
X041757Y007355D03*
X041769Y007355D03*
X041745Y007508D03*
X041733Y007508D03*
X041721Y007508D03*
X041709Y007508D03*
X041698Y007508D03*
X041686Y007508D03*
X041674Y007508D03*
X041650Y007508D03*
X041639Y007508D03*
X041627Y007508D03*
X041615Y007508D03*
X041603Y007508D03*
X041591Y007520D03*
X041591Y007603D03*
X041591Y007650D03*
X041580Y007650D03*
X041603Y007650D03*
X041615Y007650D03*
X041627Y007650D03*
X041639Y007650D03*
X041650Y007650D03*
X041662Y007650D03*
X041662Y007697D03*
X041674Y007697D03*
X041686Y007697D03*
X041709Y007697D03*
X041721Y007697D03*
X041733Y007697D03*
X041745Y007697D03*
X041745Y007662D03*
X041757Y007662D03*
X041733Y007614D03*
X041639Y007709D03*
X041639Y007792D03*
X041686Y007792D03*
X041686Y007839D03*
X041698Y007839D03*
X041709Y007839D03*
X041721Y007839D03*
X041733Y007839D03*
X041745Y007839D03*
X041745Y007792D03*
X041674Y007839D03*
X041662Y007839D03*
X041639Y007851D03*
X041639Y007933D03*
X041650Y007933D03*
X041662Y007945D03*
X041662Y008016D03*
X041650Y008016D03*
X041639Y008016D03*
X041674Y008016D03*
X041686Y008016D03*
X041698Y008016D03*
X041709Y008016D03*
X041721Y008016D03*
X041733Y008016D03*
X041745Y008016D03*
X041733Y008063D03*
X041733Y008110D03*
X041721Y008110D03*
X041709Y008110D03*
X041698Y008110D03*
X041686Y008110D03*
X041674Y008110D03*
X041662Y008110D03*
X041650Y008110D03*
X041650Y008193D03*
X041662Y008193D03*
X041674Y008193D03*
X041686Y008193D03*
X041698Y008193D03*
X041709Y008193D03*
X041721Y008193D03*
X041733Y008193D03*
X041745Y008205D03*
X041745Y008276D03*
X041733Y008288D03*
X041721Y008288D03*
X041709Y008288D03*
X041698Y008288D03*
X041686Y008288D03*
X041674Y008288D03*
X041662Y008288D03*
X041639Y008276D03*
X041639Y008335D03*
X041650Y008335D03*
X041639Y008406D03*
X041650Y008418D03*
X041662Y008418D03*
X041674Y008418D03*
X041686Y008418D03*
X041686Y008465D03*
X041698Y008465D03*
X041674Y008465D03*
X041662Y008465D03*
X041650Y008465D03*
X041639Y008465D03*
X041627Y008465D03*
X041615Y008465D03*
X041650Y008512D03*
X041662Y008512D03*
X041639Y008524D03*
X041615Y008559D03*
X041639Y008595D03*
X041650Y008607D03*
X041662Y008607D03*
X041674Y008654D03*
X041639Y008654D03*
X041615Y008689D03*
X041709Y008736D03*
X041721Y008748D03*
X041733Y008748D03*
X041780Y008772D03*
X041733Y008618D03*
X041721Y008618D03*
X041745Y008607D03*
X041745Y008512D03*
X041733Y008512D03*
X041721Y008512D03*
X041757Y008429D03*
X041957Y008311D03*
X041969Y008311D03*
X041993Y008311D03*
X041981Y008252D03*
X042087Y008205D03*
X042135Y008170D03*
X042206Y008099D03*
X042253Y008099D03*
X042288Y008016D03*
X042253Y007957D03*
X042123Y008040D03*
X041757Y008110D03*
X041745Y008110D03*
X041639Y008205D03*
X042206Y008465D03*
X042276Y008536D03*
X042312Y008524D03*
X042324Y008524D03*
X042182Y008595D03*
X042170Y008748D03*
X042229Y008831D03*
X042241Y008843D03*
X042158Y008866D03*
X042076Y008973D03*
X042206Y009032D03*
X042135Y009457D03*
X042017Y009445D03*
X041922Y009622D03*
X041957Y009670D03*
X041969Y009670D03*
X041993Y009670D03*
X042206Y009717D03*
X042300Y009764D03*
X042229Y009847D03*
X042276Y009894D03*
X042312Y009894D03*
X042324Y009882D03*
X042182Y009953D03*
X042182Y010012D03*
X042005Y010177D03*
X041993Y010166D03*
X041957Y010213D03*
X041957Y010248D03*
X041993Y010390D03*
X041946Y010425D03*
X042005Y010473D03*
X042017Y010461D03*
X042040Y010449D03*
X042040Y010485D03*
X042052Y010485D03*
X042028Y010496D03*
X042064Y010555D03*
X041946Y010555D03*
X041934Y010650D03*
X041733Y010614D03*
X041721Y010638D03*
X041709Y010662D03*
X041615Y010650D03*
X041532Y010544D03*
X041544Y010520D03*
X041650Y010425D03*
X041639Y010402D03*
X041804Y010366D03*
X041792Y010331D03*
X041769Y010130D03*
X041733Y010130D03*
X041721Y010130D03*
X041709Y010130D03*
X041650Y010118D03*
X041639Y010118D03*
X041615Y010118D03*
X041639Y010036D03*
X041650Y010036D03*
X041650Y009988D03*
X041662Y009988D03*
X041639Y009977D03*
X041650Y009906D03*
X041662Y009906D03*
X041662Y009859D03*
X041650Y009859D03*
X041639Y009859D03*
X041627Y009859D03*
X041674Y009859D03*
X041686Y009859D03*
X041698Y009859D03*
X041733Y009811D03*
X041745Y009799D03*
X041745Y009764D03*
X041733Y009764D03*
X041721Y009764D03*
X041709Y009764D03*
X041698Y009764D03*
X041686Y009764D03*
X041674Y009764D03*
X041662Y009764D03*
X041650Y009764D03*
X041639Y009764D03*
X041639Y009811D03*
X041662Y009693D03*
X041674Y009693D03*
X041686Y009693D03*
X041698Y009693D03*
X041709Y009693D03*
X041639Y009681D03*
X041615Y009646D03*
X041615Y009599D03*
X041650Y009599D03*
X041662Y009599D03*
X041674Y009599D03*
X041686Y009599D03*
X041698Y009599D03*
X041709Y009599D03*
X041721Y009599D03*
X041733Y009599D03*
X041745Y009599D03*
X041757Y009599D03*
X041757Y009563D03*
X041745Y009563D03*
X041733Y009563D03*
X041721Y009563D03*
X041709Y009563D03*
X041627Y009551D03*
X041615Y009551D03*
X041580Y009551D03*
X041639Y009469D03*
X041650Y009469D03*
X041615Y009422D03*
X041603Y009422D03*
X041591Y009422D03*
X041580Y009410D03*
X041580Y009327D03*
X041591Y009327D03*
X041603Y009327D03*
X041615Y009327D03*
X041627Y009327D03*
X041639Y009327D03*
X041650Y009327D03*
X041662Y009327D03*
X041674Y009327D03*
X041686Y009327D03*
X041721Y009327D03*
X041733Y009327D03*
X041745Y009327D03*
X041757Y009327D03*
X041686Y009422D03*
X041686Y009173D03*
X041674Y009173D03*
X041662Y009173D03*
X041650Y009173D03*
X041639Y009173D03*
X041627Y009173D03*
X041615Y009173D03*
X041591Y009162D03*
X041591Y009067D03*
X041580Y009067D03*
X041603Y009067D03*
X041615Y009067D03*
X041627Y009067D03*
X041639Y009067D03*
X041650Y009067D03*
X041662Y009067D03*
X041674Y009067D03*
X041686Y009067D03*
X041698Y009067D03*
X041709Y009067D03*
X041721Y009067D03*
X041733Y009067D03*
X041745Y009067D03*
X041733Y009032D03*
X041721Y009032D03*
X041709Y009032D03*
X041698Y009020D03*
X041662Y009020D03*
X041650Y009032D03*
X041639Y009032D03*
X041627Y009032D03*
X041615Y009032D03*
X041603Y009032D03*
X041591Y009020D03*
X041591Y008937D03*
X041603Y008925D03*
X041745Y009020D03*
X041745Y009173D03*
X041733Y009173D03*
X042241Y009587D03*
X042300Y009551D03*
X041757Y010000D03*
X041745Y010000D03*
X041733Y010000D03*
X041721Y010000D03*
X041721Y010036D03*
X041733Y010036D03*
X041461Y010307D03*
X042253Y010591D03*
X042324Y010638D03*
X042560Y010567D03*
X042595Y010638D03*
X042607Y010662D03*
X042690Y010626D03*
X042772Y010532D03*
X042631Y010508D03*
X042619Y010485D03*
X042654Y010437D03*
X042666Y010414D03*
X042524Y010319D03*
X042359Y010284D03*
X042324Y011004D03*
X042288Y011051D03*
X042276Y011040D03*
X042300Y011063D03*
X042288Y011099D03*
X042276Y011099D03*
X042276Y011134D03*
X042265Y011146D03*
X042135Y011075D03*
X042111Y011075D03*
X042087Y011075D03*
X042076Y011075D03*
X042064Y011040D03*
X042005Y011075D03*
X042111Y011110D03*
X042052Y011264D03*
X042146Y011323D03*
X042359Y011347D03*
X042359Y011453D03*
X042524Y011299D03*
X042513Y011276D03*
X042678Y011240D03*
X042643Y011099D03*
X042583Y011028D03*
X042595Y011004D03*
X042607Y010969D03*
X042690Y010992D03*
X042749Y011040D03*
X042206Y011760D03*
X042276Y011831D03*
X042312Y011819D03*
X041993Y011607D03*
X041969Y011607D03*
X041957Y011607D03*
X041887Y011323D03*
X041792Y011288D03*
X041804Y011264D03*
X041650Y011264D03*
X041532Y011347D03*
X041544Y011099D03*
X041532Y011075D03*
X041686Y011122D03*
X041757Y011063D03*
X041780Y011099D03*
X041709Y010969D03*
X041532Y011878D03*
X041485Y011878D03*
X042713Y008713D03*
X042713Y008666D03*
X042702Y008642D03*
X042690Y008630D03*
X042678Y008607D03*
X042666Y008583D03*
X042654Y008559D03*
X042643Y008536D03*
X042631Y008512D03*
X042619Y008488D03*
X042607Y008465D03*
X042583Y008429D03*
X042572Y008406D03*
X042017Y007555D03*
X041946Y007485D03*
X041957Y007307D03*
X041957Y007272D03*
X041863Y006670D03*
X042761Y006563D03*
D25*
X042524Y006557D03*
X042052Y006923D03*
X041887Y006735D03*
X041875Y006735D03*
X041745Y006923D03*
X041686Y006935D03*
X041615Y006829D03*
X041580Y006711D03*
X041461Y006557D03*
X041615Y007136D03*
X041639Y007231D03*
X041745Y007183D03*
X041745Y007101D03*
X041969Y007219D03*
X042064Y007455D03*
X042158Y007396D03*
X042276Y007727D03*
X042383Y007727D03*
X042253Y007892D03*
X042276Y007963D03*
X042300Y008069D03*
X042241Y008164D03*
X042111Y008046D03*
X042135Y008010D03*
X042135Y007892D03*
X042170Y007892D03*
X042017Y008246D03*
X042005Y008246D03*
X041993Y008246D03*
X041969Y008246D03*
X041934Y008246D03*
X041934Y008305D03*
X041946Y008305D03*
X041922Y008305D03*
X042206Y008353D03*
X042300Y008388D03*
X042253Y008447D03*
X042182Y008648D03*
X042158Y008825D03*
X042194Y008872D03*
X042253Y008837D03*
X042194Y009014D03*
X042158Y009026D03*
X042005Y008920D03*
X042017Y008742D03*
X041745Y008742D03*
X041745Y008660D03*
X041686Y008672D03*
X041745Y008943D03*
X041674Y009014D03*
X041580Y008943D03*
X041580Y009156D03*
X041615Y009510D03*
X041639Y009605D03*
X041922Y009664D03*
X041934Y009664D03*
X041946Y009664D03*
X042028Y009427D03*
X042253Y009805D03*
X042135Y009959D03*
X042229Y010018D03*
X042194Y010183D03*
X042158Y010337D03*
X042064Y010396D03*
X041981Y010396D03*
X041946Y010467D03*
X042005Y010573D03*
X041957Y010786D03*
X041698Y010703D03*
X041698Y010927D03*
X041615Y010975D03*
X041780Y011329D03*
X041946Y011353D03*
X042028Y011258D03*
X042040Y011258D03*
X042111Y011152D03*
X042135Y011152D03*
X042146Y011152D03*
X042158Y011152D03*
X042099Y011069D03*
X042182Y010963D03*
X042335Y011081D03*
X042619Y011140D03*
X042702Y010951D03*
X042619Y010927D03*
X042619Y010703D03*
X042702Y010668D03*
X042678Y010384D03*
X042713Y010195D03*
X042560Y009923D03*
X042524Y009923D03*
X042017Y010101D03*
X041969Y010160D03*
X041745Y010124D03*
X041745Y010042D03*
X041615Y010077D03*
X041615Y009947D03*
X041639Y009912D03*
X042276Y010679D03*
X042702Y011364D03*
X042737Y011364D03*
X042702Y011872D03*
X042300Y011683D03*
X042253Y011742D03*
X042206Y011648D03*
X041946Y011601D03*
X041934Y011601D03*
X041615Y008376D03*
X041615Y008152D03*
X041639Y008116D03*
X041639Y008069D03*
X041745Y008057D03*
X041745Y007939D03*
X041615Y007892D03*
X041615Y007750D03*
X041580Y007585D03*
X041580Y007526D03*
X041674Y007549D03*
X041745Y007609D03*
X042725Y008022D03*
X042761Y008022D03*
X042560Y008376D03*
X042524Y008376D03*
D26*
X042335Y008500D03*
X042300Y008465D03*
X042229Y008477D03*
X042324Y008583D03*
X042335Y008583D03*
X042347Y008583D03*
X042158Y008748D03*
X042182Y008855D03*
X042182Y009020D03*
X042217Y009020D03*
X042749Y008713D03*
X041946Y008252D03*
X042111Y007992D03*
X042158Y007957D03*
X042194Y007969D03*
X042158Y007898D03*
X042146Y007898D03*
X042288Y007969D03*
X042276Y007780D03*
X042017Y007792D03*
X042028Y007614D03*
X042028Y007544D03*
X041957Y007508D03*
X041946Y007532D03*
X041946Y007425D03*
X041946Y007366D03*
X042087Y007414D03*
X042076Y007461D03*
X042087Y007473D03*
X041993Y007095D03*
X042182Y006953D03*
X042217Y006953D03*
X042229Y006705D03*
X042536Y006551D03*
X042560Y006551D03*
X042725Y006563D03*
X042749Y006563D03*
X041851Y006729D03*
X041839Y006729D03*
X041627Y006941D03*
X041473Y006551D03*
X041615Y008240D03*
X041627Y008677D03*
X041580Y009008D03*
X041615Y009740D03*
X041780Y010296D03*
X041957Y010449D03*
X042076Y010402D03*
X042087Y010355D03*
X042241Y010508D03*
X042347Y010508D03*
X042288Y010614D03*
X042182Y010910D03*
X042324Y010945D03*
X042324Y011087D03*
X042265Y011099D03*
X042146Y011087D03*
X042076Y011134D03*
X042052Y011087D03*
X042040Y011087D03*
X042028Y011087D03*
X042005Y010874D03*
X042241Y011240D03*
X042135Y011323D03*
X042123Y011323D03*
X042111Y011323D03*
X041946Y011441D03*
X042229Y011772D03*
X042300Y011760D03*
X042335Y011796D03*
X042713Y011866D03*
X042725Y011866D03*
X042737Y011866D03*
X041520Y011878D03*
X041509Y011878D03*
X041497Y011878D03*
X041497Y011347D03*
X041520Y011347D03*
X041485Y010910D03*
X041485Y010721D03*
X041473Y010307D03*
X042170Y010118D03*
X042135Y010012D03*
X042229Y009965D03*
X042300Y009823D03*
X042536Y009929D03*
X042725Y010189D03*
X042737Y010189D03*
X042536Y010272D03*
D27*
X042749Y007431D03*
D28*
X042749Y009817D03*
D29*
X042737Y007284D03*
D30*
X042737Y009351D03*
D31*
X042276Y009321D03*
X042182Y009522D03*
X042017Y009392D03*
X042017Y009321D03*
X042146Y009026D03*
X042017Y008908D03*
X042028Y008742D03*
X042064Y008589D03*
X042312Y008589D03*
X042347Y008483D03*
X042158Y008152D03*
X042170Y007963D03*
X042194Y007904D03*
X042265Y007904D03*
X042123Y007904D03*
X042040Y007526D03*
X041981Y007313D03*
X042182Y007018D03*
X042324Y007101D03*
X041863Y006723D03*
X041662Y007526D03*
X041568Y007561D03*
X041615Y007998D03*
X041757Y008034D03*
X041568Y008979D03*
X041757Y009782D03*
X042052Y009947D03*
X042028Y010101D03*
X041946Y010195D03*
X041981Y010254D03*
X041946Y010372D03*
X042158Y010420D03*
X042276Y010620D03*
X042347Y010738D03*
X042158Y010798D03*
X042170Y010904D03*
X042312Y010951D03*
X042312Y011093D03*
X042347Y011235D03*
X042536Y011353D03*
X042099Y011329D03*
X042087Y011128D03*
X042158Y011093D03*
X041957Y010727D03*
X041957Y010656D03*
X042158Y010112D03*
X042312Y009947D03*
X042324Y009947D03*
X042335Y009947D03*
X042347Y009947D03*
X042335Y009864D03*
X042347Y009841D03*
X042725Y008707D03*
X042347Y011778D03*
D32*
X042725Y011565D03*
X042725Y009002D03*
D33*
X042005Y009374D03*
X042040Y010307D03*
X042312Y010307D03*
X041946Y010709D03*
X042713Y011429D03*
X042347Y007933D03*
X042335Y007933D03*
X042324Y007933D03*
X042312Y007933D03*
X042300Y007933D03*
X042040Y007366D03*
X042182Y006610D03*
X042194Y006610D03*
D34*
X042076Y006599D03*
X041922Y006693D03*
X042052Y006811D03*
X042064Y006811D03*
X042194Y006799D03*
X042076Y007343D03*
X042028Y007366D03*
X041969Y007366D03*
X042064Y008713D03*
X042241Y009280D03*
X042253Y009280D03*
X042253Y009457D03*
X042265Y009457D03*
X042241Y009457D03*
X042052Y010071D03*
X042076Y010284D03*
X042288Y010744D03*
X042631Y010815D03*
D35*
X042548Y008240D03*
D36*
X042536Y008618D03*
D37*
X042241Y008264D03*
X041993Y007933D03*
X042300Y007756D03*
X042312Y007756D03*
X042324Y007756D03*
X042335Y007756D03*
X042347Y007756D03*
X042347Y007591D03*
X042335Y007591D03*
X042324Y007591D03*
X042300Y007591D03*
X042335Y007366D03*
X042017Y007378D03*
X041957Y007402D03*
X042087Y007000D03*
X042241Y007000D03*
X042359Y006977D03*
X042371Y006977D03*
X042383Y006977D03*
X042394Y006977D03*
X042406Y006977D03*
X042182Y006811D03*
X042040Y006811D03*
X042028Y006811D03*
X042005Y006799D03*
X041910Y006705D03*
X041993Y006610D03*
X042017Y006599D03*
X042028Y006599D03*
X042052Y006587D03*
X042229Y006599D03*
X042040Y009020D03*
X042028Y009020D03*
X042017Y009020D03*
X042276Y009044D03*
X042288Y009280D03*
X042300Y009280D03*
X042312Y009280D03*
X042206Y009386D03*
X042276Y009457D03*
X042288Y009457D03*
X042300Y009457D03*
X042312Y009457D03*
X042300Y009646D03*
X042276Y009646D03*
X042265Y009646D03*
X042017Y010319D03*
X041957Y010343D03*
X042052Y010969D03*
X042028Y010981D03*
X041993Y010992D03*
X042288Y011370D03*
X042241Y011559D03*
X042229Y011559D03*
D38*
X042265Y011565D03*
X042146Y011731D03*
X042017Y011672D03*
X042040Y010963D03*
X041686Y010821D03*
X042064Y010290D03*
X042335Y010313D03*
X042146Y009794D03*
X042017Y009735D03*
X042347Y009652D03*
X042229Y009380D03*
X042217Y009380D03*
X042265Y009286D03*
X042099Y009203D03*
X042087Y009203D03*
X042076Y009203D03*
X042064Y009203D03*
X042052Y009203D03*
X042040Y009203D03*
X042040Y009380D03*
X042076Y009380D03*
X042087Y009380D03*
X042099Y009380D03*
X042064Y009014D03*
X042052Y009014D03*
X042146Y008435D03*
X042017Y008376D03*
X042347Y008282D03*
X042312Y007585D03*
X042087Y007585D03*
X042064Y007349D03*
X042017Y006805D03*
X041993Y006794D03*
X042170Y006593D03*
X042217Y006593D03*
X042371Y006675D03*
X042383Y006675D03*
X042394Y006675D03*
D39*
X042312Y007101D03*
X042229Y007278D03*
X042217Y007278D03*
X042206Y007278D03*
X042194Y007290D03*
X042158Y007313D03*
X042241Y007290D03*
X042253Y007290D03*
X042276Y007431D03*
X042276Y007585D03*
X042217Y007585D03*
X042111Y007585D03*
X042099Y007750D03*
X042146Y007762D03*
X042206Y007762D03*
X042229Y007762D03*
X042206Y007927D03*
X041993Y008128D03*
X042076Y008294D03*
X042064Y008317D03*
X042099Y008636D03*
X042111Y008636D03*
X042135Y008860D03*
X042099Y008872D03*
X042265Y008872D03*
X042253Y009038D03*
X042099Y009038D03*
X041957Y009038D03*
X041910Y009038D03*
X041568Y009109D03*
X041698Y009368D03*
X041993Y009392D03*
X042111Y009380D03*
X042135Y009380D03*
X042146Y009380D03*
X042158Y009380D03*
X042229Y009238D03*
X042335Y009274D03*
X042359Y009628D03*
X042064Y009675D03*
X042076Y009817D03*
X042099Y009994D03*
X042111Y009994D03*
X042123Y009994D03*
X042123Y010124D03*
X042111Y010231D03*
X042158Y010254D03*
X042206Y010219D03*
X042217Y010219D03*
X042229Y010219D03*
X042241Y010231D03*
X042253Y010231D03*
X042371Y010219D03*
X042276Y009994D03*
X042276Y010502D03*
X042265Y010502D03*
X042241Y010632D03*
X042123Y010632D03*
X042111Y010632D03*
X042087Y010644D03*
X042123Y010798D03*
X042135Y010798D03*
X042135Y010927D03*
X042146Y010927D03*
X042111Y010927D03*
X042099Y010927D03*
X042087Y010939D03*
X042076Y010939D03*
X041969Y010975D03*
X042123Y011116D03*
X042170Y011116D03*
X042182Y011116D03*
X042194Y011116D03*
X042206Y011116D03*
X042217Y011116D03*
X042288Y011235D03*
X042300Y011235D03*
X042265Y011376D03*
X042241Y011388D03*
X042217Y011400D03*
X042194Y011412D03*
X042064Y011612D03*
X042324Y011778D03*
X042194Y010927D03*
X042265Y010798D03*
X042276Y010786D03*
X041934Y010727D03*
X041757Y010089D03*
X041757Y008553D03*
X041698Y007738D03*
X041757Y007148D03*
X042076Y007160D03*
X041757Y006817D03*
X041698Y006817D03*
X041757Y006675D03*
D40*
X041568Y006670D03*
X041627Y007142D03*
X041627Y007260D03*
X041792Y007142D03*
X042005Y007095D03*
X042111Y007012D03*
X042241Y007154D03*
X042312Y006977D03*
X042324Y006977D03*
X042335Y006977D03*
X042347Y007366D03*
X042265Y007449D03*
X042253Y007449D03*
X042241Y007461D03*
X042229Y007461D03*
X042146Y007461D03*
X042123Y007449D03*
X042111Y007449D03*
X042099Y007449D03*
X042123Y007591D03*
X042135Y007591D03*
X042158Y007591D03*
X042182Y007591D03*
X042194Y007591D03*
X042206Y007591D03*
X042217Y007756D03*
X042194Y007756D03*
X042182Y007756D03*
X042170Y007756D03*
X042158Y007756D03*
X042135Y007756D03*
X042111Y007756D03*
X042241Y007756D03*
X042253Y007756D03*
X042265Y007756D03*
X042076Y008134D03*
X042064Y008134D03*
X042052Y008134D03*
X042040Y008134D03*
X042028Y008134D03*
X042017Y008134D03*
X042005Y008134D03*
X042123Y008299D03*
X042076Y008453D03*
X042087Y008465D03*
X042099Y008465D03*
X042111Y008465D03*
X042123Y008465D03*
X042135Y008465D03*
X042265Y008465D03*
X042265Y008630D03*
X042276Y008630D03*
X042253Y008630D03*
X042241Y008630D03*
X042229Y008630D03*
X042217Y008630D03*
X042194Y008630D03*
X042170Y008630D03*
X042146Y008630D03*
X042135Y008630D03*
X042123Y008630D03*
X042099Y008748D03*
X042087Y008748D03*
X042076Y008748D03*
X042040Y008736D03*
X042064Y008878D03*
X042111Y008866D03*
X042135Y009044D03*
X042229Y009044D03*
X042241Y009044D03*
X042182Y009221D03*
X042170Y009221D03*
X042158Y009221D03*
X042146Y009221D03*
X042206Y009233D03*
X042217Y009233D03*
X042005Y009044D03*
X041993Y009044D03*
X041981Y009044D03*
X041969Y009044D03*
X041757Y008973D03*
X041757Y008701D03*
X041568Y009362D03*
X041627Y009634D03*
X041627Y009941D03*
X041627Y010083D03*
X041792Y010083D03*
X041969Y010272D03*
X042099Y010390D03*
X042111Y010390D03*
X042123Y010390D03*
X042229Y010402D03*
X042241Y010402D03*
X042253Y010390D03*
X042265Y010390D03*
X042276Y010378D03*
X042347Y010307D03*
X042324Y010508D03*
X042312Y010508D03*
X042300Y010508D03*
X042288Y010508D03*
X042253Y010803D03*
X042241Y010803D03*
X042229Y010803D03*
X042217Y010803D03*
X042206Y010803D03*
X042206Y010933D03*
X042217Y010933D03*
X042229Y010933D03*
X042241Y010933D03*
X042265Y010933D03*
X042241Y011122D03*
X042229Y011122D03*
X042276Y011240D03*
X042312Y011240D03*
X042371Y011394D03*
X042111Y011595D03*
X042099Y011595D03*
X042076Y011748D03*
X042087Y011760D03*
X042099Y011760D03*
X042111Y011760D03*
X042123Y011760D03*
X042135Y011760D03*
X042265Y011760D03*
X041934Y010957D03*
X041993Y010733D03*
X041969Y010650D03*
X042076Y010107D03*
X042087Y010107D03*
X042146Y009988D03*
X042194Y009988D03*
X042217Y009988D03*
X042241Y009988D03*
X042253Y009988D03*
X042265Y009988D03*
X042265Y009823D03*
X042135Y009823D03*
X042123Y009823D03*
X042111Y009823D03*
X042099Y009823D03*
X042087Y009823D03*
X042076Y009670D03*
X042111Y009658D03*
X042123Y009658D03*
X042217Y009634D03*
X042229Y009646D03*
X042111Y009540D03*
D41*
X042312Y009664D03*
X042335Y009664D03*
X042324Y010301D03*
X042017Y010727D03*
X042276Y011565D03*
X042111Y008258D03*
X041898Y008152D03*
X041910Y007927D03*
X041922Y007927D03*
X041934Y007927D03*
X041946Y007927D03*
X041957Y007927D03*
X041969Y007927D03*
X041981Y007927D03*
X042040Y007738D03*
X042324Y007360D03*
X042265Y006770D03*
X042359Y006687D03*
X042087Y006605D03*
X042064Y006605D03*
D42*
X041993Y006965D03*
X042123Y006988D03*
X042135Y006988D03*
X042146Y006988D03*
X042158Y006988D03*
X042170Y006988D03*
X042194Y006988D03*
X042229Y007000D03*
X042347Y006977D03*
X042265Y007296D03*
X042276Y007307D03*
X042288Y007591D03*
X042170Y007603D03*
X042099Y007591D03*
X042123Y007768D03*
X042288Y007756D03*
X042241Y007933D03*
X042229Y007933D03*
X042217Y007933D03*
X042182Y007933D03*
X042170Y008146D03*
X042099Y008288D03*
X042087Y008288D03*
X042005Y008359D03*
X042064Y008441D03*
X042076Y008618D03*
X042087Y008630D03*
X042040Y008618D03*
X042028Y008618D03*
X042288Y008630D03*
X042123Y008866D03*
X042076Y008890D03*
X041946Y009032D03*
X041934Y009032D03*
X041922Y009032D03*
X041898Y009032D03*
X041887Y009032D03*
X041757Y009114D03*
X042028Y009303D03*
X042111Y009209D03*
X042324Y009280D03*
X042347Y009280D03*
X042347Y009457D03*
X042335Y009457D03*
X042324Y009457D03*
X042253Y009622D03*
X042099Y009540D03*
X042087Y009540D03*
X042076Y009540D03*
X042040Y009540D03*
X042005Y009717D03*
X042064Y009799D03*
X042040Y009977D03*
X042028Y009977D03*
X042087Y009988D03*
X042288Y009988D03*
X042265Y010236D03*
X042276Y010248D03*
X042229Y010626D03*
X042217Y010626D03*
X042206Y010626D03*
X042194Y010626D03*
X042182Y010626D03*
X042170Y010626D03*
X042158Y010626D03*
X042146Y010626D03*
X042135Y010626D03*
X042099Y010638D03*
X042087Y010803D03*
X042111Y010803D03*
X042017Y010981D03*
X042005Y010981D03*
X041981Y010981D03*
X042324Y010744D03*
X042276Y011370D03*
X042253Y011382D03*
X042229Y011394D03*
X042206Y011406D03*
X042170Y011429D03*
X042158Y011429D03*
X042146Y011441D03*
X042135Y011441D03*
X042123Y011453D03*
X042111Y011453D03*
X042005Y011654D03*
X042064Y011736D03*
X042359Y011559D03*
X042265Y009044D03*
X042359Y008264D03*
X042347Y008122D03*
X041981Y008122D03*
X041757Y007555D03*
D43*
X042052Y007372D03*
X042312Y007360D03*
X042217Y006782D03*
X042087Y006805D03*
X042076Y006805D03*
X042347Y006699D03*
X042253Y008223D03*
X042206Y008223D03*
X042040Y008376D03*
X042324Y009675D03*
X042028Y009735D03*
X042028Y010290D03*
X042052Y010313D03*
X042028Y010727D03*
X042312Y010715D03*
X042028Y011660D03*
X042040Y011672D03*
D44*
X042076Y011601D03*
X042087Y011601D03*
X042123Y011589D03*
X042135Y011577D03*
X042217Y011577D03*
X042276Y011742D03*
X042265Y011235D03*
X042253Y011235D03*
X042324Y011235D03*
X042335Y011235D03*
X042253Y011116D03*
X042288Y010939D03*
X042253Y010927D03*
X042123Y010939D03*
X042146Y010798D03*
X042335Y010750D03*
X042217Y010396D03*
X042087Y010242D03*
X042099Y010112D03*
X042111Y010112D03*
X042135Y010112D03*
X042040Y010101D03*
X042158Y009983D03*
X042170Y009983D03*
X042206Y009983D03*
X042276Y009805D03*
X042241Y009652D03*
X042135Y009652D03*
X042099Y009664D03*
X042087Y009664D03*
X042123Y009534D03*
X042135Y009534D03*
X042123Y009227D03*
X042194Y009227D03*
X042123Y009038D03*
X042111Y009026D03*
X042087Y009049D03*
X042076Y009049D03*
X042052Y008884D03*
X042087Y008860D03*
X042146Y008849D03*
X042135Y008754D03*
X042123Y008754D03*
X042111Y008754D03*
X042158Y008624D03*
X042206Y008624D03*
X042276Y008447D03*
X042135Y008282D03*
X042194Y008128D03*
X042111Y007916D03*
X042288Y007880D03*
X042241Y007597D03*
X042229Y007597D03*
X042146Y007597D03*
X042135Y007467D03*
X042158Y007467D03*
X042217Y007455D03*
X042087Y007301D03*
X042123Y007172D03*
X042135Y007172D03*
X042146Y007172D03*
X042158Y007172D03*
X042170Y007172D03*
X042194Y007172D03*
X042217Y007160D03*
X042229Y007160D03*
X042099Y007160D03*
X042087Y007160D03*
X042076Y007030D03*
X042099Y007018D03*
X042005Y006947D03*
X041981Y006947D03*
X041757Y006959D03*
X041627Y006829D03*
X041627Y007750D03*
X041627Y007892D03*
X041627Y008034D03*
X041627Y008235D03*
X041627Y008364D03*
X041757Y008246D03*
X041627Y008565D03*
X041698Y008707D03*
X041709Y009357D03*
X041627Y009782D03*
X041946Y010290D03*
X041957Y010963D03*
X042064Y011105D03*
X042347Y008920D03*
X042017Y007715D03*
D45*
X042324Y008229D03*
X042347Y011477D03*
X042300Y011477D03*
D46*
X042087Y011412D03*
X042052Y011672D03*
X042170Y011695D03*
X042040Y010727D03*
X042300Y010715D03*
X042288Y010301D03*
X042135Y010325D03*
X042170Y009758D03*
X042052Y009735D03*
X042052Y008672D03*
X042052Y008376D03*
X042170Y008400D03*
X042217Y008211D03*
X041922Y008164D03*
X042288Y007360D03*
X042335Y006699D03*
X041934Y006699D03*
D47*
X042335Y008229D03*
X042194Y008347D03*
D48*
X042182Y008152D03*
X041969Y008116D03*
X041957Y008116D03*
X041946Y008116D03*
X041934Y008116D03*
X042005Y007927D03*
X042017Y007927D03*
X042028Y007927D03*
X042040Y007927D03*
X042052Y007927D03*
X042064Y007927D03*
X042076Y007927D03*
X042087Y007750D03*
X042028Y007727D03*
X042253Y007573D03*
X042265Y007573D03*
X042146Y007337D03*
X042135Y007337D03*
X042206Y006994D03*
X042170Y006817D03*
X042158Y006817D03*
X042146Y006817D03*
X042135Y006817D03*
X042123Y006817D03*
X042229Y006805D03*
X042265Y006605D03*
X042158Y006581D03*
X042146Y006581D03*
X042135Y006581D03*
X042123Y006581D03*
X042040Y006593D03*
X042005Y006605D03*
X042276Y008884D03*
X042335Y008920D03*
X042335Y009061D03*
X042135Y009227D03*
X042123Y009380D03*
X042170Y009380D03*
X042182Y009380D03*
X042194Y009380D03*
X042076Y009983D03*
X042005Y010727D03*
X042099Y010798D03*
X042064Y010951D03*
X042182Y011423D03*
X042099Y011459D03*
X042253Y011553D03*
D49*
X042206Y011583D03*
X042312Y011736D03*
X041922Y011583D03*
X042099Y011134D03*
X042158Y010910D03*
X042276Y010933D03*
X042300Y010945D03*
X041946Y010957D03*
X041922Y010969D03*
X041934Y010827D03*
X041591Y010815D03*
X041969Y010366D03*
X041981Y010331D03*
X042005Y010307D03*
X042099Y010248D03*
X042123Y010248D03*
X042194Y010248D03*
X042146Y010107D03*
X042300Y009953D03*
X042324Y009823D03*
X042312Y009799D03*
X042206Y009646D03*
X042170Y009528D03*
X042158Y009528D03*
X042146Y009528D03*
X042194Y009516D03*
X042206Y009516D03*
X042217Y009516D03*
X042229Y009504D03*
X041993Y009492D03*
X041627Y009492D03*
X041686Y008985D03*
X042028Y008890D03*
X042040Y008890D03*
X042170Y008843D03*
X042146Y008748D03*
X042300Y008595D03*
X042324Y008465D03*
X042312Y008441D03*
X042276Y007898D03*
X042040Y007603D03*
X041981Y007390D03*
X042005Y007366D03*
X042099Y007307D03*
X042111Y007307D03*
X042123Y007307D03*
X042111Y007166D03*
X042182Y007166D03*
X042206Y007166D03*
X042217Y007024D03*
X041804Y007130D03*
X041698Y006965D03*
X041898Y006717D03*
X041627Y008134D03*
X042276Y009244D03*
X041804Y010071D03*
X042087Y010425D03*
X042253Y010508D03*
X042335Y010508D03*
D50*
X042335Y011494D03*
X042312Y011494D03*
D51*
X042194Y011677D03*
X042182Y011677D03*
X042182Y010319D03*
X042170Y010319D03*
X042182Y009740D03*
X042194Y009740D03*
X042300Y008229D03*
X042182Y007378D03*
X042170Y007378D03*
X042265Y007059D03*
X042276Y007059D03*
X042028Y007036D03*
X042324Y006693D03*
D52*
X042040Y007036D03*
X042052Y007662D03*
X042076Y007662D03*
X042064Y007685D03*
X042276Y008217D03*
X042182Y008370D03*
X042312Y008985D03*
X042324Y008985D03*
X042076Y010721D03*
X042064Y010733D03*
D53*
X042324Y011500D03*
D54*
X042265Y008211D03*
X042253Y007065D03*
X042017Y007030D03*
X041957Y006699D03*
X042312Y006699D03*
D55*
X042253Y006699D03*
X042241Y006699D03*
X042099Y008046D03*
X042312Y008223D03*
D56*
X042300Y008979D03*
X042288Y008979D03*
X042064Y009451D03*
X042052Y009451D03*
X041981Y006699D03*
X041969Y006699D03*
X042288Y006699D03*
X042300Y006699D03*
D57*
X042300Y007048D03*
X042064Y007071D03*
X042052Y007071D03*
X041946Y006705D03*
X042288Y009693D03*
X042064Y010036D03*
X042146Y010331D03*
X042300Y010296D03*
X042076Y011418D03*
X042064Y011418D03*
X042052Y011418D03*
X042040Y011418D03*
D58*
X042028Y011418D03*
X042158Y011701D03*
X042158Y009764D03*
X042040Y009740D03*
X042158Y008406D03*
X042028Y008359D03*
X041910Y008158D03*
X042300Y007366D03*
D59*
X042288Y007053D03*
X042229Y008211D03*
X042052Y010727D03*
D60*
X042288Y008258D03*
D61*
X042288Y011607D03*
D62*
X042087Y008022D03*
X042276Y006699D03*
D63*
X042206Y006699D03*
D64*
X042111Y006705D03*
X042099Y006705D03*
D65*
X041509Y011536D03*
D66*
X041497Y008429D03*
X041485Y008429D03*
D67*
X004631Y004990D02*
X004631Y041211D01*
X005576Y041211D02*
X005578Y041261D01*
X005584Y041311D01*
X005594Y041360D01*
X005608Y041408D01*
X005625Y041455D01*
X005646Y041500D01*
X005671Y041544D01*
X005699Y041585D01*
X005731Y041624D01*
X005765Y041661D01*
X005802Y041695D01*
X005842Y041725D01*
X005884Y041752D01*
X005928Y041776D01*
X005974Y041797D01*
X006021Y041813D01*
X006069Y041826D01*
X006119Y041835D01*
X006168Y041840D01*
X006219Y041841D01*
X006269Y041838D01*
X006318Y041831D01*
X006367Y041820D01*
X006415Y041805D01*
X006461Y041787D01*
X006506Y041765D01*
X006549Y041739D01*
X006590Y041710D01*
X006629Y041678D01*
X006665Y041643D01*
X006697Y041605D01*
X006727Y041565D01*
X006754Y041522D01*
X006777Y041478D01*
X006796Y041432D01*
X006812Y041384D01*
X006824Y041335D01*
X006832Y041286D01*
X006836Y041236D01*
X006836Y041186D01*
X006832Y041136D01*
X006824Y041087D01*
X006812Y041038D01*
X006796Y040990D01*
X006777Y040944D01*
X006754Y040900D01*
X006727Y040857D01*
X006697Y040817D01*
X006665Y040779D01*
X006629Y040744D01*
X006590Y040712D01*
X006549Y040683D01*
X006506Y040657D01*
X006461Y040635D01*
X006415Y040617D01*
X006367Y040602D01*
X006318Y040591D01*
X006269Y040584D01*
X006219Y040581D01*
X006168Y040582D01*
X006119Y040587D01*
X006069Y040596D01*
X006021Y040609D01*
X005974Y040625D01*
X005928Y040646D01*
X005884Y040670D01*
X005842Y040697D01*
X005802Y040727D01*
X005765Y040761D01*
X005731Y040798D01*
X005699Y040837D01*
X005671Y040878D01*
X005646Y040922D01*
X005625Y040967D01*
X005608Y041014D01*
X005594Y041062D01*
X005584Y041111D01*
X005578Y041161D01*
X005576Y041211D01*
X004631Y041211D02*
X004633Y041288D01*
X004639Y041365D01*
X004648Y041442D01*
X004661Y041518D01*
X004678Y041594D01*
X004699Y041668D01*
X004723Y041742D01*
X004751Y041814D01*
X004782Y041884D01*
X004817Y041953D01*
X004855Y042021D01*
X004896Y042086D01*
X004941Y042149D01*
X004989Y042210D01*
X005039Y042269D01*
X005092Y042325D01*
X005148Y042378D01*
X005207Y042428D01*
X005268Y042476D01*
X005331Y042521D01*
X005396Y042562D01*
X005464Y042600D01*
X005533Y042635D01*
X005603Y042666D01*
X005675Y042694D01*
X005749Y042718D01*
X005823Y042739D01*
X005899Y042756D01*
X005975Y042769D01*
X006052Y042778D01*
X006129Y042784D01*
X006206Y042786D01*
X042426Y042786D01*
X041796Y041211D02*
X041798Y041261D01*
X041804Y041311D01*
X041814Y041360D01*
X041828Y041408D01*
X041845Y041455D01*
X041866Y041500D01*
X041891Y041544D01*
X041919Y041585D01*
X041951Y041624D01*
X041985Y041661D01*
X042022Y041695D01*
X042062Y041725D01*
X042104Y041752D01*
X042148Y041776D01*
X042194Y041797D01*
X042241Y041813D01*
X042289Y041826D01*
X042339Y041835D01*
X042388Y041840D01*
X042439Y041841D01*
X042489Y041838D01*
X042538Y041831D01*
X042587Y041820D01*
X042635Y041805D01*
X042681Y041787D01*
X042726Y041765D01*
X042769Y041739D01*
X042810Y041710D01*
X042849Y041678D01*
X042885Y041643D01*
X042917Y041605D01*
X042947Y041565D01*
X042974Y041522D01*
X042997Y041478D01*
X043016Y041432D01*
X043032Y041384D01*
X043044Y041335D01*
X043052Y041286D01*
X043056Y041236D01*
X043056Y041186D01*
X043052Y041136D01*
X043044Y041087D01*
X043032Y041038D01*
X043016Y040990D01*
X042997Y040944D01*
X042974Y040900D01*
X042947Y040857D01*
X042917Y040817D01*
X042885Y040779D01*
X042849Y040744D01*
X042810Y040712D01*
X042769Y040683D01*
X042726Y040657D01*
X042681Y040635D01*
X042635Y040617D01*
X042587Y040602D01*
X042538Y040591D01*
X042489Y040584D01*
X042439Y040581D01*
X042388Y040582D01*
X042339Y040587D01*
X042289Y040596D01*
X042241Y040609D01*
X042194Y040625D01*
X042148Y040646D01*
X042104Y040670D01*
X042062Y040697D01*
X042022Y040727D01*
X041985Y040761D01*
X041951Y040798D01*
X041919Y040837D01*
X041891Y040878D01*
X041866Y040922D01*
X041845Y040967D01*
X041828Y041014D01*
X041814Y041062D01*
X041804Y041111D01*
X041798Y041161D01*
X041796Y041211D01*
X042426Y042786D02*
X042503Y042784D01*
X042580Y042778D01*
X042657Y042769D01*
X042733Y042756D01*
X042809Y042739D01*
X042883Y042718D01*
X042957Y042694D01*
X043029Y042666D01*
X043099Y042635D01*
X043168Y042600D01*
X043236Y042562D01*
X043301Y042521D01*
X043364Y042476D01*
X043425Y042428D01*
X043484Y042378D01*
X043540Y042325D01*
X043593Y042269D01*
X043643Y042210D01*
X043691Y042149D01*
X043736Y042086D01*
X043777Y042021D01*
X043815Y041953D01*
X043850Y041884D01*
X043881Y041814D01*
X043909Y041742D01*
X043933Y041668D01*
X043954Y041594D01*
X043971Y041518D01*
X043984Y041442D01*
X043993Y041365D01*
X043999Y041288D01*
X044001Y041211D01*
X044001Y004990D01*
X041796Y004990D02*
X041798Y005040D01*
X041804Y005090D01*
X041814Y005139D01*
X041828Y005187D01*
X041845Y005234D01*
X041866Y005279D01*
X041891Y005323D01*
X041919Y005364D01*
X041951Y005403D01*
X041985Y005440D01*
X042022Y005474D01*
X042062Y005504D01*
X042104Y005531D01*
X042148Y005555D01*
X042194Y005576D01*
X042241Y005592D01*
X042289Y005605D01*
X042339Y005614D01*
X042388Y005619D01*
X042439Y005620D01*
X042489Y005617D01*
X042538Y005610D01*
X042587Y005599D01*
X042635Y005584D01*
X042681Y005566D01*
X042726Y005544D01*
X042769Y005518D01*
X042810Y005489D01*
X042849Y005457D01*
X042885Y005422D01*
X042917Y005384D01*
X042947Y005344D01*
X042974Y005301D01*
X042997Y005257D01*
X043016Y005211D01*
X043032Y005163D01*
X043044Y005114D01*
X043052Y005065D01*
X043056Y005015D01*
X043056Y004965D01*
X043052Y004915D01*
X043044Y004866D01*
X043032Y004817D01*
X043016Y004769D01*
X042997Y004723D01*
X042974Y004679D01*
X042947Y004636D01*
X042917Y004596D01*
X042885Y004558D01*
X042849Y004523D01*
X042810Y004491D01*
X042769Y004462D01*
X042726Y004436D01*
X042681Y004414D01*
X042635Y004396D01*
X042587Y004381D01*
X042538Y004370D01*
X042489Y004363D01*
X042439Y004360D01*
X042388Y004361D01*
X042339Y004366D01*
X042289Y004375D01*
X042241Y004388D01*
X042194Y004404D01*
X042148Y004425D01*
X042104Y004449D01*
X042062Y004476D01*
X042022Y004506D01*
X041985Y004540D01*
X041951Y004577D01*
X041919Y004616D01*
X041891Y004657D01*
X041866Y004701D01*
X041845Y004746D01*
X041828Y004793D01*
X041814Y004841D01*
X041804Y004890D01*
X041798Y004940D01*
X041796Y004990D01*
X042426Y003415D02*
X042503Y003417D01*
X042580Y003423D01*
X042657Y003432D01*
X042733Y003445D01*
X042809Y003462D01*
X042883Y003483D01*
X042957Y003507D01*
X043029Y003535D01*
X043099Y003566D01*
X043168Y003601D01*
X043236Y003639D01*
X043301Y003680D01*
X043364Y003725D01*
X043425Y003773D01*
X043484Y003823D01*
X043540Y003876D01*
X043593Y003932D01*
X043643Y003991D01*
X043691Y004052D01*
X043736Y004115D01*
X043777Y004180D01*
X043815Y004248D01*
X043850Y004317D01*
X043881Y004387D01*
X043909Y004459D01*
X043933Y004533D01*
X043954Y004607D01*
X043971Y004683D01*
X043984Y004759D01*
X043993Y004836D01*
X043999Y004913D01*
X044001Y004990D01*
X042902Y006427D02*
X042902Y006443D01*
X042902Y006449D02*
X042898Y006449D01*
X042898Y006453D01*
X042902Y006453D01*
X042902Y006449D01*
X042902Y006460D02*
X042879Y006476D01*
X042879Y006482D02*
X042902Y006482D01*
X042902Y006498D01*
X042898Y006504D02*
X042902Y006507D01*
X042902Y006515D01*
X042898Y006519D01*
X042891Y006519D01*
X042887Y006515D01*
X042887Y006507D01*
X042891Y006504D01*
X042898Y006504D01*
X042898Y006525D02*
X042902Y006529D01*
X042902Y006541D01*
X042906Y006541D02*
X042887Y006541D01*
X042887Y006529D01*
X042891Y006525D01*
X042898Y006525D01*
X042910Y006533D02*
X042910Y006537D01*
X042906Y006541D01*
X042898Y006547D02*
X042902Y006551D01*
X042902Y006559D01*
X042898Y006563D01*
X042891Y006563D01*
X042887Y006559D01*
X042887Y006551D01*
X042891Y006547D01*
X042898Y006547D01*
X042902Y006569D02*
X042902Y006581D01*
X042898Y006585D01*
X042894Y006581D01*
X042894Y006573D01*
X042891Y006569D01*
X042887Y006573D01*
X042887Y006585D01*
X042902Y006591D02*
X042879Y006606D01*
X042879Y006612D02*
X042879Y006616D01*
X042902Y006616D01*
X042902Y006612D02*
X042902Y006620D01*
X042898Y006627D02*
X042902Y006631D01*
X042902Y006639D01*
X042898Y006643D01*
X042891Y006643D01*
X042887Y006639D01*
X042887Y006631D01*
X042891Y006627D01*
X042898Y006627D01*
X042898Y006649D02*
X042902Y006652D01*
X042902Y006664D01*
X042906Y006664D02*
X042887Y006664D01*
X042887Y006652D01*
X042891Y006649D01*
X042898Y006649D01*
X042910Y006656D02*
X042910Y006660D01*
X042906Y006664D01*
X042898Y006670D02*
X042902Y006674D01*
X042902Y006682D01*
X042898Y006686D01*
X042891Y006686D01*
X042887Y006682D01*
X042887Y006674D01*
X042891Y006670D01*
X042898Y006670D01*
X042898Y006692D02*
X042898Y006696D01*
X042902Y006696D01*
X042902Y006692D01*
X042898Y006692D01*
X042902Y006703D02*
X042902Y006715D01*
X042898Y006719D01*
X042891Y006719D01*
X042887Y006715D01*
X042887Y006703D01*
X042879Y006703D02*
X042902Y006703D01*
X042902Y006725D02*
X042887Y006725D01*
X042887Y006729D01*
X042891Y006733D01*
X042887Y006737D01*
X042891Y006740D01*
X042902Y006740D01*
X042902Y006746D02*
X042902Y006758D01*
X042898Y006762D01*
X042891Y006762D01*
X042887Y006758D01*
X042887Y006746D01*
X042910Y006746D01*
X042902Y006733D02*
X042891Y006733D01*
X042891Y006453D02*
X042891Y006449D01*
X042887Y006449D01*
X042887Y006453D01*
X042891Y006453D01*
X042883Y006443D02*
X042898Y006427D01*
X042902Y006427D01*
X042879Y006427D02*
X042879Y006443D01*
X042883Y006443D01*
X042426Y003416D02*
X006206Y003416D01*
X005576Y004990D02*
X005578Y005040D01*
X005584Y005090D01*
X005594Y005139D01*
X005608Y005187D01*
X005625Y005234D01*
X005646Y005279D01*
X005671Y005323D01*
X005699Y005364D01*
X005731Y005403D01*
X005765Y005440D01*
X005802Y005474D01*
X005842Y005504D01*
X005884Y005531D01*
X005928Y005555D01*
X005974Y005576D01*
X006021Y005592D01*
X006069Y005605D01*
X006119Y005614D01*
X006168Y005619D01*
X006219Y005620D01*
X006269Y005617D01*
X006318Y005610D01*
X006367Y005599D01*
X006415Y005584D01*
X006461Y005566D01*
X006506Y005544D01*
X006549Y005518D01*
X006590Y005489D01*
X006629Y005457D01*
X006665Y005422D01*
X006697Y005384D01*
X006727Y005344D01*
X006754Y005301D01*
X006777Y005257D01*
X006796Y005211D01*
X006812Y005163D01*
X006824Y005114D01*
X006832Y005065D01*
X006836Y005015D01*
X006836Y004965D01*
X006832Y004915D01*
X006824Y004866D01*
X006812Y004817D01*
X006796Y004769D01*
X006777Y004723D01*
X006754Y004679D01*
X006727Y004636D01*
X006697Y004596D01*
X006665Y004558D01*
X006629Y004523D01*
X006590Y004491D01*
X006549Y004462D01*
X006506Y004436D01*
X006461Y004414D01*
X006415Y004396D01*
X006367Y004381D01*
X006318Y004370D01*
X006269Y004363D01*
X006219Y004360D01*
X006168Y004361D01*
X006119Y004366D01*
X006069Y004375D01*
X006021Y004388D01*
X005974Y004404D01*
X005928Y004425D01*
X005884Y004449D01*
X005842Y004476D01*
X005802Y004506D01*
X005765Y004540D01*
X005731Y004577D01*
X005699Y004616D01*
X005671Y004657D01*
X005646Y004701D01*
X005625Y004746D01*
X005608Y004793D01*
X005594Y004841D01*
X005584Y004890D01*
X005578Y004940D01*
X005576Y004990D01*
X004631Y004990D02*
X004633Y004913D01*
X004639Y004836D01*
X004648Y004759D01*
X004661Y004683D01*
X004678Y004607D01*
X004699Y004533D01*
X004723Y004459D01*
X004751Y004387D01*
X004782Y004317D01*
X004817Y004248D01*
X004855Y004180D01*
X004896Y004115D01*
X004941Y004052D01*
X004989Y003991D01*
X005039Y003932D01*
X005092Y003876D01*
X005148Y003823D01*
X005207Y003773D01*
X005268Y003725D01*
X005331Y003680D01*
X005396Y003639D01*
X005464Y003601D01*
X005533Y003566D01*
X005603Y003535D01*
X005675Y003507D01*
X005749Y003483D01*
X005823Y003462D01*
X005899Y003445D01*
X005975Y003432D01*
X006052Y003423D01*
X006129Y003417D01*
X006206Y003415D01*
D68*
X036465Y024994D02*
X036465Y025220D01*
X036540Y025295D01*
X036691Y025295D01*
X036766Y025220D01*
X036766Y024994D01*
X036916Y024994D02*
X036465Y024994D01*
X036540Y025455D02*
X036615Y025455D01*
X036691Y025530D01*
X036691Y025680D01*
X036766Y025755D01*
X036841Y025755D01*
X036916Y025680D01*
X036916Y025530D01*
X036841Y025455D01*
X036540Y025455D02*
X036465Y025530D01*
X036465Y025680D01*
X036540Y025755D01*
X036465Y025915D02*
X036841Y025915D01*
X036916Y025990D01*
X036916Y026140D01*
X036841Y026216D01*
X036465Y026216D01*
X036441Y026851D02*
X036441Y028351D01*
X036941Y028351D01*
X036941Y026851D01*
X036441Y026851D01*
X036566Y026976D02*
X036566Y027726D01*
X036816Y027726D01*
X036816Y026976D01*
X036566Y026976D01*
X036566Y027226D02*
X036566Y027476D01*
X036591Y027476D01*
X036591Y027226D01*
X036566Y027226D01*
X036591Y027226D02*
X036641Y027226D01*
X036641Y027476D01*
X036691Y027476D01*
X036691Y027226D01*
X036741Y027226D01*
X036741Y027476D01*
X036791Y027476D01*
X036791Y027226D01*
X036741Y027226D01*
X036791Y027226D02*
X036816Y027226D01*
X036816Y027476D01*
X036791Y027476D01*
X036741Y027476D02*
X036691Y027476D01*
X036641Y027476D02*
X036591Y027476D01*
X036641Y027226D02*
X036691Y027226D01*
X037191Y026851D02*
X037191Y028351D01*
X037691Y028351D01*
X037691Y026851D01*
X037191Y026851D01*
X037378Y027038D02*
X037378Y027163D01*
X037391Y027163D01*
X037441Y027163D01*
X037441Y027038D01*
X037491Y027038D01*
X037491Y027163D01*
X037503Y027163D01*
X037503Y027038D01*
X037491Y027038D01*
X037441Y027038D02*
X037391Y027038D01*
X037391Y027163D01*
X037441Y027163D02*
X037491Y027163D01*
X037391Y027038D02*
X037378Y027038D01*
X037316Y027476D02*
X037316Y028226D01*
X037566Y028226D01*
X037566Y027476D01*
X037316Y027476D01*
X037316Y027726D02*
X037316Y027976D01*
X037341Y027976D01*
X037341Y027726D01*
X037316Y027726D01*
X037341Y027726D02*
X037391Y027726D01*
X037391Y027976D01*
X037441Y027976D01*
X037441Y027726D01*
X037491Y027726D01*
X037491Y027976D01*
X037541Y027976D01*
X037541Y027726D01*
X037491Y027726D01*
X037541Y027726D02*
X037566Y027726D01*
X037566Y027976D01*
X037541Y027976D01*
X037491Y027976D02*
X037441Y027976D01*
X037391Y027976D02*
X037341Y027976D01*
X037391Y027726D02*
X037441Y027726D01*
X036753Y028038D02*
X036753Y028163D01*
X036741Y028163D01*
X036741Y028038D01*
X036691Y028038D01*
X036691Y028163D01*
X036641Y028163D01*
X036641Y028038D01*
X036628Y028038D01*
X036628Y028163D01*
X036641Y028163D01*
X036691Y028163D02*
X036741Y028163D01*
X036753Y028038D02*
X036741Y028038D01*
X036691Y028038D02*
X036641Y028038D01*
X037290Y026216D02*
X037365Y026216D01*
X037441Y026140D01*
X037441Y025915D01*
X037516Y025755D02*
X037591Y025755D01*
X037666Y025680D01*
X037666Y025530D01*
X037591Y025455D01*
X037591Y025295D02*
X037215Y025295D01*
X037290Y025455D02*
X037365Y025455D01*
X037441Y025530D01*
X037441Y025680D01*
X037516Y025755D01*
X037666Y025915D02*
X037215Y025915D01*
X037215Y026140D01*
X037290Y026216D01*
X037441Y026140D02*
X037516Y026216D01*
X037591Y026216D01*
X037666Y026140D01*
X037666Y025915D01*
X037290Y025755D02*
X037215Y025680D01*
X037215Y025530D01*
X037290Y025455D01*
X037591Y025295D02*
X037666Y025220D01*
X037666Y025070D01*
X037591Y024994D01*
X037215Y024994D01*
M02*
