%
M48
M72
T01C0.0236
T02C0.0320
T03C0.0374
T04C0.0400
T05C0.0440
T06C0.0470
T07C0.0520
T08C0.0790
T09C0.0906
T10C0.1181
T11C0.1260
T12C0.1300
%
T01
X7921Y40059
X8866Y37146
X8551Y36004
X11232Y34528
X8669Y32796
X8610Y4981
X10343Y4981
X12075Y4981
X13886Y4981
X15618Y4981
X17350Y4981
X19083Y4941
X20894Y4981
X22626Y7776
X21091Y7973
X23127Y9573
X21012Y11201
X22245Y12612
X23492Y12422
X25490Y12307
X26041Y12307
X26553Y12307
X27065Y12307
X27616Y12307
X28128Y12307
X28640Y12307
X27075Y8445
X25579Y7973
X25579Y7461
X25579Y6949
X25579Y6437
X25579Y5689
X28413Y5689
X28413Y6437
X31051Y5689
X32862Y5689
X35579Y5689
X38689Y4154
X38925Y29685
X38256Y29685
X37646Y29685
X37055Y29685
X36406Y29685
X35795Y29685
X35205Y29685
X26366Y34331
X27961Y32441
X19634Y29626
X19024Y29626
X18433Y29626
X17764Y29626
X17154Y29626
X16563Y29626
X15913Y29626
X15303Y29626
X14713Y29626
X11839Y27146
X16858Y18662
X17862Y17540
X18335Y20650
X18335Y21674
X19240Y23366
X21602Y26122
X23020Y28091
X24831Y22815
X25343Y22815
X25343Y22303
X21445Y18918
X23453Y15256
X18512Y11477
X17862Y8799
X17114Y7500
X12547Y9784
X12547Y9075
X12547Y7933
X29988Y23209
X30539Y23209
X31130Y23209
X31681Y23209
X32232Y23209
X32783Y23209
X33335Y23209
X35657Y21555
X35106Y18366
X35933Y15256
X40146Y13603
X35146Y12146
X37055Y31398
X35815Y39725
X31898Y37244
X31878Y38780
X32468Y33051
X34437Y33012
X33512Y31083
T02
X7067Y31260
X8067Y31260
X16961Y11356
X16961Y10356
X16961Y9356
X19961Y9356
X19961Y10356
X19961Y11356
X19961Y12356
X19961Y13356
X19961Y14356
X19961Y15356
X19961Y16356
X16961Y16356
X16961Y15356
X16961Y14356
X16961Y13356
X16961Y12356
X24199Y16477
X24949Y16977
X24949Y15977
X15622Y22811
X14622Y22811
X13622Y22811
X12622Y22811
X13622Y25811
X12622Y25811
X14622Y25811
X15622Y25811
X41406Y31331
X41406Y41780
X41406Y40780
X41406Y32331
X41169Y8768
X41169Y7768
T03
X5504Y38327
X5504Y37343
X5504Y36555
X5504Y35571
X40339Y37264
X39551Y37264
X39551Y36280
X40339Y36280
X38006Y20028
X38006Y19044
X38006Y18256
X38006Y17272
X38006Y13621
X38006Y12637
X38006Y11850
X38006Y10865
T04
X7598Y41516
X8598Y41516
X9583Y26437
X8583Y26437
X27272Y41674
X28272Y41674
X29272Y41674
X30272Y41674
X31272Y41674
X32272Y41674
X34677Y41674
X35677Y41674
X36677Y41674
X27272Y31437
X28272Y31437
X29272Y31437
X30272Y31437
X31272Y31437
X32272Y31437
T05
X14142Y15280
X14142Y16280
X14142Y17280
T06
X17390Y25583
X19358Y25583
X20783Y37481
X20783Y35512
T07
X28495Y20283
X27695Y17933
X28495Y15583
X33295Y15583
X33295Y20283
T08
X6563Y24351
X6563Y8209
T09
X4437Y39536
X4437Y34362
X41406Y39142
X41406Y34402
X39073Y21237
X39073Y16063
X39073Y14830
X39073Y9657
T10
X38929Y25453
X40071Y23603
X37748Y23603
T11
X5185Y41280
X5185Y31831
X5579Y27107
X4791Y24646
X4594Y21004
X9319Y16280
X14043Y11555
X5579Y5453
X4791Y7914
X4594Y11555
X14043Y21004
X20933Y41280
X25657Y41280
X25657Y31831
X20933Y31831
X38846Y31831
X41012Y27107
X38846Y41280
X41012Y5453
T12
X7242Y16280
M30
