G75*
G70*
%OFA0B0*%
%FSLAX24Y24*%
%IPPOS*%
%LPD*%
%AMOC8*
5,1,8,0,0,1.08239X$1,22.5*
%
%ADD10C,0.0100*%
%ADD11C,0.0060*%
%ADD12C,0.0080*%
%ADD13C,0.0160*%
%ADD14C,0.0240*%
%ADD15C,0.0090*%
%ADD16R,0.4250X0.0500*%
%ADD17R,0.4000X0.0500*%
%ADD18R,0.1500X0.1250*%
%ADD19R,0.1500X0.0750*%
%ADD20C,0.0130*%
%ADD21C,0.0070*%
%ADD22C,0.0020*%
%ADD23C,0.0040*%
%ADD24R,0.0079X0.0079*%
%ADD25R,0.0098X0.0059*%
%ADD26R,0.0256X0.0526*%
%ADD27R,0.0900X0.0250*%
%ADD28C,0.0050*%
%ADD29R,0.0394X0.0354*%
%ADD30R,0.0118X0.0354*%
%ADD31C,0.0200*%
%ADD32R,0.4200X0.0300*%
%ADD33R,0.0750X0.0200*%
%ADD34R,0.0300X0.0200*%
D10*
X007316Y003601D02*
X007316Y011351D01*
X008066Y011601D02*
X008066Y011851D01*
X008066Y011601D02*
X005316Y011601D01*
X005316Y014351D01*
X007316Y014351D01*
X007566Y014601D02*
X007566Y014851D01*
X006816Y014851D01*
X008566Y014851D01*
X008566Y011851D01*
X006816Y011851D01*
X006816Y014851D01*
X006816Y015351D02*
X006816Y018351D01*
X008566Y018351D01*
X008566Y015351D01*
X006816Y015351D01*
X008066Y015351D02*
X008066Y015101D01*
X005316Y015101D01*
X005316Y017851D01*
X007316Y017851D01*
X007566Y018351D02*
X006816Y018351D01*
X006816Y018851D02*
X006816Y021851D01*
X008566Y021851D01*
X008566Y018851D01*
X006816Y018851D01*
X008066Y018851D02*
X008066Y018601D01*
X005316Y018601D01*
X005316Y021351D01*
X007566Y021351D01*
X007566Y021851D02*
X006816Y021851D01*
X008566Y021851D02*
X009316Y021851D01*
X009316Y018851D01*
X008566Y018851D01*
X009316Y018851D01*
X009316Y021851D01*
X008566Y021851D01*
X010316Y019351D02*
X010316Y026351D01*
X012816Y026351D01*
X012816Y023851D01*
X012566Y023851D02*
X012566Y021851D01*
X013316Y021851D01*
X013316Y018851D01*
X009816Y018851D01*
X009816Y026851D01*
X013316Y026851D01*
X013316Y023851D01*
X012566Y023851D01*
X013316Y023851D02*
X013316Y021851D01*
X012816Y021851D02*
X012816Y019351D01*
X010316Y019351D01*
X009316Y018351D02*
X008566Y018351D01*
X009316Y018351D01*
X009316Y015351D01*
X008566Y015351D01*
X009316Y015351D01*
X009316Y018351D01*
X012066Y019601D02*
X012316Y019601D01*
X012316Y020101D01*
X012066Y020101D01*
X012066Y019601D01*
X012316Y019601D02*
X012566Y019601D01*
X012566Y020101D01*
X012316Y020101D01*
X013816Y020601D02*
X013816Y022351D01*
X013870Y022353D01*
X013923Y022359D01*
X013975Y022368D01*
X014027Y022381D01*
X014078Y022398D01*
X014128Y022419D01*
X014175Y022443D01*
X014221Y022470D01*
X014265Y022501D01*
X014307Y022534D01*
X014346Y022571D01*
X014383Y022610D01*
X014416Y022652D01*
X014447Y022696D01*
X014474Y022742D01*
X014498Y022789D01*
X014519Y022839D01*
X014536Y022890D01*
X014549Y022942D01*
X014558Y022994D01*
X014564Y023047D01*
X014566Y023101D01*
X014564Y023155D01*
X014558Y023208D01*
X014549Y023260D01*
X014536Y023312D01*
X014519Y023363D01*
X014498Y023413D01*
X014474Y023460D01*
X014447Y023506D01*
X014416Y023550D01*
X014383Y023592D01*
X014346Y023631D01*
X014307Y023668D01*
X014265Y023701D01*
X014221Y023732D01*
X014175Y023759D01*
X014128Y023783D01*
X014078Y023804D01*
X014027Y023821D01*
X013975Y023834D01*
X013923Y023843D01*
X013870Y023849D01*
X013816Y023851D01*
X013816Y025601D01*
X034566Y025601D01*
X034566Y020601D01*
X013816Y020601D01*
X013316Y015101D02*
X014316Y015101D01*
X014316Y013101D01*
X015316Y013101D01*
X015316Y015101D01*
X019316Y015101D01*
X019316Y007101D01*
X015316Y007101D01*
X014316Y007101D01*
X014316Y009101D01*
X015316Y009101D01*
X015316Y007101D01*
X014316Y007101D02*
X013316Y007101D01*
X013316Y015101D01*
X014316Y015101D02*
X015316Y015101D01*
X012316Y014851D02*
X012316Y013851D01*
X010316Y013851D01*
X010316Y014851D01*
X012316Y014851D01*
X012316Y013101D02*
X010316Y013101D01*
X010316Y012101D01*
X012316Y012101D01*
X012316Y013101D01*
X013066Y011351D02*
X013066Y010851D01*
X012816Y010851D01*
X012816Y009851D01*
X009316Y009851D01*
X009316Y010851D01*
X009066Y010851D01*
X009066Y011351D01*
X013066Y011351D01*
X012816Y010851D02*
X009316Y010851D01*
X009316Y011851D02*
X008566Y011851D01*
X009316Y011851D01*
X009316Y014851D01*
X008566Y014851D01*
X009316Y014851D01*
X009316Y011851D01*
X010566Y008601D02*
X011816Y008601D01*
X011816Y007601D01*
X010566Y007601D01*
X010316Y007101D02*
X010316Y004351D01*
X013066Y004351D01*
X013066Y007101D01*
X010316Y007101D01*
X009816Y007101D02*
X009816Y006351D01*
X007816Y006351D01*
X007816Y007101D01*
X009816Y007101D01*
X009816Y004601D01*
X007816Y004601D01*
X007816Y006351D01*
X007816Y007101D02*
X007816Y004601D01*
X009816Y004601D01*
X009816Y006351D01*
X009816Y007101D02*
X007816Y007101D01*
X007816Y008351D02*
X007818Y008414D01*
X007824Y008476D01*
X007834Y008538D01*
X007847Y008600D01*
X007865Y008660D01*
X007886Y008719D01*
X007911Y008777D01*
X007940Y008833D01*
X007972Y008887D01*
X008007Y008939D01*
X008045Y008988D01*
X008087Y009036D01*
X008131Y009080D01*
X008179Y009122D01*
X008228Y009160D01*
X008280Y009195D01*
X008334Y009227D01*
X008390Y009256D01*
X008448Y009281D01*
X008507Y009302D01*
X008567Y009320D01*
X008629Y009333D01*
X008691Y009343D01*
X008753Y009349D01*
X008816Y009351D01*
X008879Y009349D01*
X008941Y009343D01*
X009003Y009333D01*
X009065Y009320D01*
X009125Y009302D01*
X009184Y009281D01*
X009242Y009256D01*
X009298Y009227D01*
X009352Y009195D01*
X009404Y009160D01*
X009453Y009122D01*
X009501Y009080D01*
X009545Y009036D01*
X009587Y008988D01*
X009625Y008939D01*
X009660Y008887D01*
X009692Y008833D01*
X009721Y008777D01*
X009746Y008719D01*
X009767Y008660D01*
X009785Y008600D01*
X009798Y008538D01*
X009808Y008476D01*
X009814Y008414D01*
X009816Y008351D01*
X009814Y008288D01*
X009808Y008226D01*
X009798Y008164D01*
X009785Y008102D01*
X009767Y008042D01*
X009746Y007983D01*
X009721Y007925D01*
X009692Y007869D01*
X009660Y007815D01*
X009625Y007763D01*
X009587Y007714D01*
X009545Y007666D01*
X009501Y007622D01*
X009453Y007580D01*
X009404Y007542D01*
X009352Y007507D01*
X009298Y007475D01*
X009242Y007446D01*
X009184Y007421D01*
X009125Y007400D01*
X009065Y007382D01*
X009003Y007369D01*
X008941Y007359D01*
X008879Y007353D01*
X008816Y007351D01*
X008753Y007353D01*
X008691Y007359D01*
X008629Y007369D01*
X008567Y007382D01*
X008507Y007400D01*
X008448Y007421D01*
X008390Y007446D01*
X008334Y007475D01*
X008280Y007507D01*
X008228Y007542D01*
X008179Y007580D01*
X008131Y007622D01*
X008087Y007666D01*
X008045Y007714D01*
X008007Y007763D01*
X007972Y007815D01*
X007940Y007869D01*
X007911Y007925D01*
X007886Y007983D01*
X007865Y008042D01*
X007847Y008102D01*
X007834Y008164D01*
X007824Y008226D01*
X007818Y008288D01*
X007816Y008351D01*
X011816Y008601D02*
X012566Y008601D01*
X012566Y007601D02*
X011816Y007601D01*
X013316Y006851D02*
X013316Y004351D01*
X019316Y004351D01*
X019316Y006851D01*
X013316Y006851D01*
X014316Y010101D02*
X015316Y010101D01*
X015316Y012101D01*
X014316Y012101D01*
X014316Y010101D01*
X019566Y009851D02*
X019566Y010851D01*
X021566Y010851D01*
X021566Y009851D01*
X019566Y009851D01*
X020066Y009351D02*
X020066Y003601D01*
X020816Y004601D02*
X020816Y006351D01*
X022816Y006351D01*
X022816Y004601D01*
X020816Y004601D01*
X020816Y007101D01*
X020816Y006351D01*
X020816Y007101D02*
X022816Y007101D01*
X022816Y006351D01*
X022816Y007101D02*
X022816Y004601D01*
X020816Y004601D01*
X020816Y007101D02*
X022816Y007101D01*
X023316Y007101D02*
X023316Y004351D01*
X026066Y004351D01*
X026066Y007101D01*
X023316Y007101D01*
X023566Y007601D02*
X024816Y007601D01*
X024816Y008601D01*
X025566Y008601D01*
X024816Y008601D02*
X023566Y008601D01*
X024816Y007601D02*
X025566Y007601D01*
X026316Y007101D02*
X026316Y015101D01*
X027316Y015101D01*
X027316Y013101D01*
X028316Y013101D01*
X028316Y015101D01*
X032316Y015101D01*
X032316Y007101D01*
X028316Y007101D01*
X028316Y009101D01*
X027316Y009101D01*
X027316Y007101D01*
X028316Y007101D01*
X027316Y007101D02*
X026316Y007101D01*
X026316Y006851D02*
X032316Y006851D01*
X032316Y004351D01*
X026316Y004351D01*
X026316Y006851D01*
X025816Y009851D02*
X025816Y010851D01*
X022066Y010851D01*
X022066Y009851D01*
X025816Y009851D01*
X025816Y010851D02*
X026066Y010851D01*
X026066Y011351D01*
X021816Y011351D01*
X021816Y010851D01*
X022066Y010851D01*
X021566Y011601D02*
X021566Y012601D01*
X019566Y012601D01*
X019566Y011601D01*
X021566Y011601D01*
X020066Y013601D02*
X020066Y019351D01*
X023816Y016601D02*
X023816Y015601D01*
X025816Y015601D01*
X025816Y016601D01*
X023816Y016601D01*
X024066Y016851D02*
X024066Y017351D01*
X024066Y016851D02*
X028566Y016851D01*
X028566Y017351D01*
X028816Y016601D02*
X028816Y015601D01*
X026816Y015601D01*
X026816Y016601D01*
X028816Y016601D01*
X028316Y015101D02*
X027316Y015101D01*
X027316Y012101D02*
X027316Y010101D01*
X028316Y010101D01*
X028316Y012101D01*
X027316Y012101D01*
X020785Y008351D02*
X020787Y008415D01*
X020793Y008479D01*
X020803Y008542D01*
X020817Y008605D01*
X020834Y008667D01*
X020856Y008727D01*
X020881Y008786D01*
X020910Y008843D01*
X020942Y008899D01*
X020978Y008952D01*
X021017Y009003D01*
X021059Y009051D01*
X021104Y009097D01*
X021152Y009140D01*
X021202Y009179D01*
X021255Y009216D01*
X021310Y009249D01*
X021367Y009279D01*
X021425Y009305D01*
X021485Y009327D01*
X021547Y009346D01*
X021609Y009361D01*
X021672Y009372D01*
X021736Y009379D01*
X021800Y009382D01*
X021864Y009381D01*
X021928Y009376D01*
X021992Y009367D01*
X022054Y009354D01*
X022116Y009337D01*
X022177Y009317D01*
X022236Y009292D01*
X022294Y009264D01*
X022350Y009233D01*
X022404Y009198D01*
X022455Y009160D01*
X022504Y009119D01*
X022551Y009074D01*
X022594Y009027D01*
X022635Y008978D01*
X022672Y008925D01*
X022706Y008871D01*
X022737Y008815D01*
X022764Y008757D01*
X022787Y008697D01*
X022807Y008636D01*
X022823Y008574D01*
X022835Y008511D01*
X022843Y008447D01*
X022847Y008383D01*
X022847Y008319D01*
X022843Y008255D01*
X022835Y008191D01*
X022823Y008128D01*
X022807Y008066D01*
X022787Y008005D01*
X022764Y007945D01*
X022737Y007887D01*
X022706Y007831D01*
X022672Y007777D01*
X022635Y007724D01*
X022594Y007675D01*
X022551Y007628D01*
X022504Y007583D01*
X022455Y007542D01*
X022404Y007504D01*
X022350Y007469D01*
X022294Y007438D01*
X022236Y007410D01*
X022177Y007385D01*
X022116Y007365D01*
X022054Y007348D01*
X021992Y007335D01*
X021928Y007326D01*
X021864Y007321D01*
X021800Y007320D01*
X021736Y007323D01*
X021672Y007330D01*
X021609Y007341D01*
X021547Y007356D01*
X021485Y007375D01*
X021425Y007397D01*
X021367Y007423D01*
X021310Y007453D01*
X021255Y007486D01*
X021202Y007523D01*
X021152Y007562D01*
X021104Y007605D01*
X021059Y007651D01*
X021017Y007699D01*
X020978Y007750D01*
X020942Y007803D01*
X020910Y007859D01*
X020881Y007916D01*
X020856Y007975D01*
X020834Y008035D01*
X020817Y008097D01*
X020803Y008160D01*
X020793Y008223D01*
X020787Y008287D01*
X020785Y008351D01*
X024066Y018351D02*
X024066Y018851D01*
X028566Y018851D01*
X028566Y018351D01*
X033316Y019351D02*
X033316Y003601D01*
X034316Y004601D02*
X034316Y006351D01*
X036316Y006351D01*
X036316Y004601D01*
X034316Y004601D01*
X034316Y007101D01*
X034316Y006351D01*
X034316Y007101D02*
X036316Y007101D01*
X036316Y006351D01*
X036316Y007101D02*
X036316Y004601D01*
X034316Y004601D01*
X034316Y007101D02*
X036316Y007101D01*
X036816Y008101D02*
X036816Y004601D01*
X040816Y004601D01*
X040816Y008101D01*
X036816Y008101D01*
X037816Y008351D02*
X039066Y008351D01*
X039066Y009351D01*
X039816Y009351D01*
X039066Y009351D02*
X037816Y009351D01*
X037066Y010101D02*
X037066Y011101D01*
X036816Y011101D01*
X036816Y011601D01*
X040816Y011601D01*
X040816Y011101D01*
X040566Y011101D01*
X040566Y010101D01*
X037066Y010101D01*
X036316Y009601D02*
X036316Y010601D01*
X034316Y010601D01*
X034316Y009601D01*
X036316Y009601D01*
X034285Y008351D02*
X034287Y008415D01*
X034293Y008479D01*
X034303Y008542D01*
X034317Y008605D01*
X034334Y008667D01*
X034356Y008727D01*
X034381Y008786D01*
X034410Y008843D01*
X034442Y008899D01*
X034478Y008952D01*
X034517Y009003D01*
X034559Y009051D01*
X034604Y009097D01*
X034652Y009140D01*
X034702Y009179D01*
X034755Y009216D01*
X034810Y009249D01*
X034867Y009279D01*
X034925Y009305D01*
X034985Y009327D01*
X035047Y009346D01*
X035109Y009361D01*
X035172Y009372D01*
X035236Y009379D01*
X035300Y009382D01*
X035364Y009381D01*
X035428Y009376D01*
X035492Y009367D01*
X035554Y009354D01*
X035616Y009337D01*
X035677Y009317D01*
X035736Y009292D01*
X035794Y009264D01*
X035850Y009233D01*
X035904Y009198D01*
X035955Y009160D01*
X036004Y009119D01*
X036051Y009074D01*
X036094Y009027D01*
X036135Y008978D01*
X036172Y008925D01*
X036206Y008871D01*
X036237Y008815D01*
X036264Y008757D01*
X036287Y008697D01*
X036307Y008636D01*
X036323Y008574D01*
X036335Y008511D01*
X036343Y008447D01*
X036347Y008383D01*
X036347Y008319D01*
X036343Y008255D01*
X036335Y008191D01*
X036323Y008128D01*
X036307Y008066D01*
X036287Y008005D01*
X036264Y007945D01*
X036237Y007887D01*
X036206Y007831D01*
X036172Y007777D01*
X036135Y007724D01*
X036094Y007675D01*
X036051Y007628D01*
X036004Y007583D01*
X035955Y007542D01*
X035904Y007504D01*
X035850Y007469D01*
X035794Y007438D01*
X035736Y007410D01*
X035677Y007385D01*
X035616Y007365D01*
X035554Y007348D01*
X035492Y007335D01*
X035428Y007326D01*
X035364Y007321D01*
X035300Y007320D01*
X035236Y007323D01*
X035172Y007330D01*
X035109Y007341D01*
X035047Y007356D01*
X034985Y007375D01*
X034925Y007397D01*
X034867Y007423D01*
X034810Y007453D01*
X034755Y007486D01*
X034702Y007523D01*
X034652Y007562D01*
X034604Y007605D01*
X034559Y007651D01*
X034517Y007699D01*
X034478Y007750D01*
X034442Y007803D01*
X034410Y007859D01*
X034381Y007916D01*
X034356Y007975D01*
X034334Y008035D01*
X034317Y008097D01*
X034303Y008160D01*
X034293Y008223D01*
X034287Y008287D01*
X034285Y008351D01*
X037066Y011101D02*
X040566Y011101D01*
X039816Y008351D02*
X039066Y008351D01*
X036316Y011351D02*
X036316Y012351D01*
X034316Y012351D01*
X034316Y011351D01*
X036316Y011351D01*
X039316Y015601D02*
X039316Y019601D01*
X043066Y019601D01*
X043066Y015601D01*
X039316Y015601D01*
X033816Y016351D02*
X033818Y016437D01*
X033824Y016523D01*
X033835Y016608D01*
X033850Y016692D01*
X033868Y016776D01*
X033891Y016859D01*
X033918Y016941D01*
X033949Y017021D01*
X033984Y017099D01*
X034023Y017176D01*
X034065Y017251D01*
X034111Y017323D01*
X034160Y017393D01*
X034213Y017461D01*
X034269Y017526D01*
X034329Y017588D01*
X034391Y017648D01*
X034456Y017704D01*
X034524Y017757D01*
X034594Y017806D01*
X034666Y017852D01*
X034741Y017894D01*
X034818Y017933D01*
X034896Y017968D01*
X034976Y017999D01*
X035058Y018026D01*
X035141Y018049D01*
X035225Y018067D01*
X035309Y018082D01*
X035394Y018093D01*
X035480Y018099D01*
X035566Y018101D01*
X035652Y018099D01*
X035738Y018093D01*
X035823Y018082D01*
X035907Y018067D01*
X035991Y018049D01*
X036074Y018026D01*
X036156Y017999D01*
X036236Y017968D01*
X036314Y017933D01*
X036391Y017894D01*
X036466Y017852D01*
X036538Y017806D01*
X036608Y017757D01*
X036676Y017704D01*
X036741Y017648D01*
X036803Y017588D01*
X036863Y017526D01*
X036919Y017461D01*
X036972Y017393D01*
X037021Y017323D01*
X037067Y017251D01*
X037109Y017176D01*
X037148Y017099D01*
X037183Y017021D01*
X037214Y016941D01*
X037241Y016859D01*
X037264Y016776D01*
X037282Y016692D01*
X037297Y016608D01*
X037308Y016523D01*
X037314Y016437D01*
X037316Y016351D01*
X037314Y016265D01*
X037308Y016179D01*
X037297Y016094D01*
X037282Y016010D01*
X037264Y015926D01*
X037241Y015843D01*
X037214Y015761D01*
X037183Y015681D01*
X037148Y015603D01*
X037109Y015526D01*
X037067Y015451D01*
X037021Y015379D01*
X036972Y015309D01*
X036919Y015241D01*
X036863Y015176D01*
X036803Y015114D01*
X036741Y015054D01*
X036676Y014998D01*
X036608Y014945D01*
X036538Y014896D01*
X036466Y014850D01*
X036391Y014808D01*
X036314Y014769D01*
X036236Y014734D01*
X036156Y014703D01*
X036074Y014676D01*
X035991Y014653D01*
X035907Y014635D01*
X035823Y014620D01*
X035738Y014609D01*
X035652Y014603D01*
X035566Y014601D01*
X035480Y014603D01*
X035394Y014609D01*
X035309Y014620D01*
X035225Y014635D01*
X035141Y014653D01*
X035058Y014676D01*
X034976Y014703D01*
X034896Y014734D01*
X034818Y014769D01*
X034741Y014808D01*
X034666Y014850D01*
X034594Y014896D01*
X034524Y014945D01*
X034456Y014998D01*
X034391Y015054D01*
X034329Y015114D01*
X034269Y015176D01*
X034213Y015241D01*
X034160Y015309D01*
X034111Y015379D01*
X034065Y015451D01*
X034023Y015526D01*
X033984Y015603D01*
X033949Y015681D01*
X033918Y015761D01*
X033891Y015843D01*
X033868Y015926D01*
X033850Y016010D01*
X033835Y016094D01*
X033824Y016179D01*
X033818Y016265D01*
X033816Y016351D01*
X035316Y021601D02*
X035316Y024601D01*
X036316Y024601D01*
X036316Y021601D01*
X035316Y021601D01*
X037116Y022977D02*
X037116Y023284D01*
X037192Y023361D01*
X037346Y023361D01*
X037423Y023284D01*
X037423Y022977D01*
X037346Y022901D01*
X037192Y022901D01*
X037116Y022977D01*
X037631Y022901D02*
X037631Y023361D01*
X037862Y023361D01*
X037938Y023284D01*
X037938Y023131D01*
X037862Y023054D01*
X037631Y023054D01*
X038147Y023131D02*
X038300Y023131D01*
X038147Y023361D02*
X038147Y022901D01*
X038454Y022901D01*
X038663Y022901D02*
X038663Y023361D01*
X038970Y022901D01*
X038970Y023361D01*
X039178Y023361D02*
X039178Y022901D01*
X039178Y023131D02*
X039485Y023131D01*
X039694Y023131D02*
X040001Y023131D01*
X040001Y023208D02*
X040001Y022901D01*
X040210Y022901D02*
X040210Y023361D01*
X040440Y023361D01*
X040517Y023284D01*
X040517Y023131D01*
X040440Y023054D01*
X040210Y023054D01*
X040363Y023054D02*
X040517Y022901D01*
X040725Y022901D02*
X040955Y022901D01*
X041032Y022977D01*
X041032Y023284D01*
X040955Y023361D01*
X040725Y023361D01*
X040725Y022901D01*
X040950Y022708D02*
X040874Y022631D01*
X040874Y022477D01*
X040950Y022401D01*
X041180Y022401D01*
X041389Y022477D02*
X041466Y022401D01*
X041619Y022401D01*
X041696Y022477D01*
X041696Y022631D01*
X041619Y022708D01*
X041466Y022708D01*
X041389Y022631D01*
X041389Y022477D01*
X041180Y022708D02*
X040950Y022708D01*
X040692Y022477D02*
X040692Y022401D01*
X040616Y022401D01*
X040616Y022477D01*
X040692Y022477D01*
X041241Y022901D02*
X041394Y023054D01*
X041548Y022901D01*
X041548Y023361D01*
X041757Y023208D02*
X041910Y023361D01*
X042063Y023208D01*
X042063Y022901D01*
X042272Y022901D02*
X042272Y023361D01*
X042502Y023361D01*
X042579Y023284D01*
X042579Y023131D01*
X042502Y023054D01*
X042272Y023054D01*
X042426Y023054D02*
X042579Y022901D01*
X042788Y022901D02*
X043095Y022901D01*
X042909Y022708D02*
X042985Y022631D01*
X042985Y022401D01*
X042755Y022401D01*
X042678Y022477D01*
X042755Y022554D01*
X042985Y022554D01*
X042909Y022708D02*
X042755Y022708D01*
X042788Y022901D02*
X042788Y023361D01*
X043095Y023361D01*
X042941Y023131D02*
X042788Y023131D01*
X042470Y022708D02*
X042163Y022401D01*
X042470Y022401D01*
X042470Y022708D02*
X042163Y022708D01*
X041982Y022477D02*
X041905Y022477D01*
X041905Y022401D01*
X041982Y022401D01*
X041982Y022477D01*
X041757Y022901D02*
X041757Y023208D01*
X041757Y023131D02*
X042063Y023131D01*
X041241Y023361D02*
X041241Y022901D01*
X040001Y023208D02*
X039847Y023361D01*
X039694Y023208D01*
X039694Y022901D01*
X039485Y022901D02*
X039485Y023361D01*
X038825Y023651D02*
X038749Y023651D01*
X038749Y023727D01*
X038825Y023727D01*
X038825Y023651D01*
X038558Y023651D02*
X038405Y023651D01*
X038482Y023651D02*
X038482Y023958D01*
X038405Y023958D01*
X038482Y024111D02*
X038482Y024188D01*
X038205Y023958D02*
X037975Y023804D01*
X038205Y023651D01*
X037975Y023651D02*
X037975Y024111D01*
X037708Y024111D02*
X037708Y024188D01*
X037708Y023958D02*
X037708Y023651D01*
X037631Y023651D02*
X037785Y023651D01*
X037708Y023958D02*
X037631Y023958D01*
X037423Y023958D02*
X037423Y023727D01*
X037346Y023651D01*
X037269Y023727D01*
X037192Y023651D01*
X037116Y023727D01*
X037116Y023958D01*
X038147Y023361D02*
X038454Y023361D01*
X039816Y026601D02*
X042566Y026601D01*
X042566Y029601D01*
X039816Y029601D01*
X039816Y031601D02*
X037816Y031601D01*
X037816Y032601D01*
X039816Y032601D01*
X039816Y031601D01*
X040285Y032101D02*
X040287Y032165D01*
X040293Y032229D01*
X040303Y032292D01*
X040317Y032355D01*
X040334Y032417D01*
X040356Y032477D01*
X040381Y032536D01*
X040410Y032593D01*
X040442Y032649D01*
X040478Y032702D01*
X040517Y032753D01*
X040559Y032801D01*
X040604Y032847D01*
X040652Y032890D01*
X040702Y032929D01*
X040755Y032966D01*
X040810Y032999D01*
X040867Y033029D01*
X040925Y033055D01*
X040985Y033077D01*
X041047Y033096D01*
X041109Y033111D01*
X041172Y033122D01*
X041236Y033129D01*
X041300Y033132D01*
X041364Y033131D01*
X041428Y033126D01*
X041492Y033117D01*
X041554Y033104D01*
X041616Y033087D01*
X041677Y033067D01*
X041736Y033042D01*
X041794Y033014D01*
X041850Y032983D01*
X041904Y032948D01*
X041955Y032910D01*
X042004Y032869D01*
X042051Y032824D01*
X042094Y032777D01*
X042135Y032728D01*
X042172Y032675D01*
X042206Y032621D01*
X042237Y032565D01*
X042264Y032507D01*
X042287Y032447D01*
X042307Y032386D01*
X042323Y032324D01*
X042335Y032261D01*
X042343Y032197D01*
X042347Y032133D01*
X042347Y032069D01*
X042343Y032005D01*
X042335Y031941D01*
X042323Y031878D01*
X042307Y031816D01*
X042287Y031755D01*
X042264Y031695D01*
X042237Y031637D01*
X042206Y031581D01*
X042172Y031527D01*
X042135Y031474D01*
X042094Y031425D01*
X042051Y031378D01*
X042004Y031333D01*
X041955Y031292D01*
X041904Y031254D01*
X041850Y031219D01*
X041794Y031188D01*
X041736Y031160D01*
X041677Y031135D01*
X041616Y031115D01*
X041554Y031098D01*
X041492Y031085D01*
X041428Y031076D01*
X041364Y031071D01*
X041300Y031070D01*
X041236Y031073D01*
X041172Y031080D01*
X041109Y031091D01*
X041047Y031106D01*
X040985Y031125D01*
X040925Y031147D01*
X040867Y031173D01*
X040810Y031203D01*
X040755Y031236D01*
X040702Y031273D01*
X040652Y031312D01*
X040604Y031355D01*
X040559Y031401D01*
X040517Y031449D01*
X040478Y031500D01*
X040442Y031553D01*
X040410Y031609D01*
X040381Y031666D01*
X040356Y031725D01*
X040334Y031785D01*
X040317Y031847D01*
X040303Y031910D01*
X040293Y031973D01*
X040287Y032037D01*
X040285Y032101D01*
X040316Y033601D02*
X041816Y033601D01*
X040316Y033601D02*
X040316Y038601D01*
X041816Y038601D01*
X040316Y038851D02*
X040316Y040851D01*
X039316Y040851D01*
X039316Y038851D01*
X040316Y038851D01*
X039066Y038851D02*
X039066Y040851D01*
X038066Y040851D01*
X038066Y038851D01*
X039066Y038851D01*
X037316Y038601D02*
X032316Y038601D01*
X032316Y039351D01*
X031566Y038851D02*
X031566Y040851D01*
X030566Y040851D01*
X030566Y038851D01*
X031566Y038851D01*
X032566Y038351D02*
X030566Y038351D01*
X030566Y037351D01*
X032566Y037351D01*
X032566Y038351D01*
X032316Y040351D02*
X032316Y041101D01*
X037316Y041101D01*
X037316Y040351D01*
X037316Y039351D02*
X037316Y038601D01*
X039316Y036851D02*
X039566Y036601D01*
X039316Y036351D01*
X039066Y036601D01*
X039316Y036851D01*
X039566Y036851D01*
X039566Y036601D01*
X039316Y036601D01*
X039066Y036601D02*
X039068Y036632D01*
X039074Y036663D01*
X039084Y036693D01*
X039097Y036721D01*
X039114Y036748D01*
X039134Y036772D01*
X039157Y036794D01*
X039182Y036812D01*
X039210Y036827D01*
X039239Y036839D01*
X039269Y036847D01*
X039300Y036851D01*
X039332Y036851D01*
X039363Y036847D01*
X039393Y036839D01*
X039422Y036827D01*
X039450Y036812D01*
X039475Y036794D01*
X039498Y036772D01*
X039518Y036748D01*
X039535Y036721D01*
X039548Y036693D01*
X039558Y036663D01*
X039564Y036632D01*
X039566Y036601D01*
X039564Y036570D01*
X039558Y036539D01*
X039548Y036509D01*
X039535Y036481D01*
X039518Y036454D01*
X039498Y036430D01*
X039475Y036408D01*
X039450Y036390D01*
X039422Y036375D01*
X039393Y036363D01*
X039363Y036355D01*
X039332Y036351D01*
X039300Y036351D01*
X039269Y036355D01*
X039239Y036363D01*
X039210Y036375D01*
X039182Y036390D01*
X039157Y036408D01*
X039134Y036430D01*
X039114Y036454D01*
X039097Y036481D01*
X039084Y036509D01*
X039074Y036539D01*
X039068Y036570D01*
X039066Y036601D01*
X039316Y036601D01*
X039066Y036601D02*
X039068Y036632D01*
X039074Y036663D01*
X039084Y036693D01*
X039097Y036721D01*
X039114Y036748D01*
X039134Y036772D01*
X039157Y036794D01*
X039182Y036812D01*
X039210Y036827D01*
X039239Y036839D01*
X039269Y036847D01*
X039300Y036851D01*
X039332Y036851D01*
X039363Y036847D01*
X039393Y036839D01*
X039422Y036827D01*
X039450Y036812D01*
X039475Y036794D01*
X039498Y036772D01*
X039518Y036748D01*
X039535Y036721D01*
X039548Y036693D01*
X039558Y036663D01*
X039564Y036632D01*
X039566Y036601D01*
X039564Y036570D01*
X039558Y036539D01*
X039548Y036509D01*
X039535Y036481D01*
X039518Y036454D01*
X039498Y036430D01*
X039475Y036408D01*
X039450Y036390D01*
X039422Y036375D01*
X039393Y036363D01*
X039363Y036355D01*
X039332Y036351D01*
X039300Y036351D01*
X039269Y036355D01*
X039239Y036363D01*
X039210Y036375D01*
X039182Y036390D01*
X039157Y036408D01*
X039134Y036430D01*
X039114Y036454D01*
X039097Y036481D01*
X039084Y036509D01*
X039074Y036539D01*
X039068Y036570D01*
X039066Y036601D01*
X039316Y036601D02*
X039316Y036851D01*
X039316Y036601D02*
X039316Y036351D01*
X039816Y037101D02*
X039816Y034101D01*
X034816Y034101D01*
X034816Y037101D01*
X039816Y037101D01*
X043566Y038601D02*
X043816Y038601D01*
X043816Y033601D02*
X043566Y033601D01*
X037066Y032101D02*
X037066Y031601D01*
X036816Y031351D01*
X037066Y031101D01*
X037066Y030601D01*
X036816Y030351D01*
X036316Y030351D01*
X036066Y030601D01*
X036066Y031101D01*
X036316Y031351D01*
X036066Y031601D01*
X036066Y032101D01*
X036316Y032351D01*
X036816Y032351D01*
X037066Y032101D01*
X035816Y031101D02*
X035816Y033101D01*
X034816Y033101D01*
X034816Y031601D01*
X034316Y031601D02*
X034316Y033101D01*
X033316Y033101D01*
X033316Y031601D01*
X032816Y031601D02*
X032816Y033101D01*
X031816Y033101D01*
X031816Y031601D01*
X032066Y031101D02*
X032566Y031101D01*
X032066Y030601D02*
X032066Y029601D01*
X034066Y029601D01*
X034066Y030601D01*
X032066Y030601D01*
X033566Y031101D02*
X034066Y031101D01*
X034816Y030601D02*
X035816Y030601D01*
X035816Y028601D01*
X034816Y028601D01*
X034816Y030601D01*
X035066Y031101D02*
X035816Y031101D01*
X034316Y034101D02*
X033316Y034101D01*
X033316Y036101D01*
X034316Y036101D01*
X034316Y034101D01*
X032816Y034101D02*
X032816Y036101D01*
X031816Y036101D01*
X031816Y034101D01*
X032816Y034101D01*
X031566Y035101D02*
X031566Y035601D01*
X031316Y035601D01*
X031316Y036601D01*
X027566Y036601D01*
X027566Y035601D01*
X031316Y035601D01*
X031566Y035101D02*
X027316Y035101D01*
X027316Y035601D01*
X027566Y035601D01*
X025816Y035601D02*
X025816Y033601D01*
X024816Y033601D01*
X024816Y035601D01*
X025816Y035601D01*
X025816Y036601D02*
X024816Y036601D01*
X024816Y038601D01*
X020816Y038601D01*
X020816Y030601D01*
X024816Y030601D01*
X024816Y032601D01*
X025816Y032601D01*
X025816Y030601D01*
X026816Y030601D01*
X026816Y038601D01*
X025816Y038601D01*
X025816Y036601D01*
X025816Y038601D02*
X024816Y038601D01*
X026816Y038851D02*
X026816Y041601D01*
X020816Y041601D01*
X020816Y038851D01*
X026816Y038851D01*
X027316Y038851D02*
X027316Y041601D01*
X030066Y041601D01*
X030066Y038851D01*
X027316Y038851D01*
X027816Y038351D02*
X029066Y038351D01*
X029066Y037351D01*
X029816Y037351D01*
X029066Y037351D02*
X027816Y037351D01*
X029066Y038351D02*
X029816Y038351D01*
X025816Y030601D02*
X024816Y030601D01*
X025316Y029101D02*
X024316Y029101D01*
X024316Y027101D01*
X025316Y027101D01*
X025316Y029101D01*
X026316Y029101D02*
X026316Y027101D01*
X027316Y027101D01*
X027316Y029101D01*
X026316Y029101D01*
X023316Y029101D02*
X023316Y027101D01*
X022316Y027101D01*
X022316Y029101D01*
X023316Y029101D01*
X020316Y030601D02*
X020316Y038601D01*
X019316Y038601D01*
X019316Y036601D01*
X018316Y036601D01*
X018316Y038601D01*
X014316Y038601D01*
X014316Y030601D01*
X018316Y030601D01*
X018316Y032601D01*
X019316Y032601D01*
X019316Y030601D01*
X020316Y030601D01*
X019316Y030601D02*
X018316Y030601D01*
X018316Y033601D02*
X019316Y033601D01*
X019316Y035601D01*
X018316Y035601D01*
X018316Y033601D01*
X013816Y030601D02*
X012816Y030601D01*
X012816Y032601D01*
X011816Y032601D01*
X011816Y030601D01*
X012816Y030601D01*
X013816Y030601D02*
X013816Y038601D01*
X012816Y038601D01*
X012816Y036601D01*
X011816Y036601D01*
X011816Y038601D01*
X007816Y038601D01*
X007816Y030601D01*
X011816Y030601D01*
X011816Y029101D02*
X011816Y028101D01*
X009816Y028101D01*
X009816Y029101D01*
X011816Y029101D01*
X008816Y029101D02*
X008816Y028101D01*
X006816Y028101D01*
X006816Y029101D01*
X008816Y029101D01*
X007025Y025101D02*
X007027Y025157D01*
X007033Y025212D01*
X007043Y025267D01*
X007056Y025321D01*
X007074Y025374D01*
X007095Y025426D01*
X007120Y025476D01*
X007148Y025524D01*
X007179Y025570D01*
X007214Y025614D01*
X007252Y025655D01*
X007292Y025694D01*
X007335Y025729D01*
X007381Y025762D01*
X007429Y025791D01*
X007478Y025816D01*
X007529Y025838D01*
X007582Y025857D01*
X007636Y025871D01*
X007691Y025882D01*
X007746Y025889D01*
X007802Y025892D01*
X007858Y025891D01*
X007913Y025886D01*
X007969Y025877D01*
X008023Y025864D01*
X008076Y025848D01*
X008128Y025828D01*
X008179Y025804D01*
X008228Y025777D01*
X008274Y025746D01*
X008318Y025712D01*
X008360Y025675D01*
X008399Y025635D01*
X008436Y025593D01*
X008469Y025548D01*
X008499Y025501D01*
X008525Y025451D01*
X008548Y025400D01*
X008567Y025348D01*
X008583Y025294D01*
X008595Y025240D01*
X008603Y025185D01*
X008607Y025129D01*
X008607Y025073D01*
X008603Y025017D01*
X008595Y024962D01*
X008583Y024908D01*
X008567Y024854D01*
X008548Y024802D01*
X008525Y024751D01*
X008499Y024701D01*
X008469Y024654D01*
X008436Y024609D01*
X008399Y024567D01*
X008360Y024527D01*
X008318Y024490D01*
X008274Y024456D01*
X008228Y024425D01*
X008179Y024398D01*
X008128Y024374D01*
X008076Y024354D01*
X008023Y024338D01*
X007969Y024325D01*
X007913Y024316D01*
X007858Y024311D01*
X007802Y024310D01*
X007746Y024313D01*
X007691Y024320D01*
X007636Y024331D01*
X007582Y024345D01*
X007529Y024364D01*
X007478Y024386D01*
X007429Y024411D01*
X007381Y024440D01*
X007335Y024473D01*
X007292Y024508D01*
X007252Y024547D01*
X007214Y024588D01*
X007179Y024632D01*
X007148Y024678D01*
X007120Y024726D01*
X007095Y024776D01*
X007074Y024828D01*
X007056Y024881D01*
X007043Y024935D01*
X007033Y024990D01*
X007027Y025045D01*
X007025Y025101D01*
X011816Y033601D02*
X012816Y033601D01*
X012816Y035601D01*
X011816Y035601D01*
X011816Y033601D01*
X011816Y038601D02*
X012816Y038601D01*
X013816Y038851D02*
X013816Y041601D01*
X007816Y041601D01*
X007816Y038851D01*
X013816Y038851D01*
X014316Y038851D02*
X020316Y038851D01*
X020316Y041601D01*
X014316Y041601D01*
X014316Y038851D01*
X018316Y038601D02*
X019316Y038601D01*
X033316Y027851D02*
X033316Y026851D01*
D11*
X034716Y025701D02*
X013916Y025701D01*
X013916Y023601D01*
X013960Y023599D01*
X014003Y023593D01*
X014045Y023584D01*
X014087Y023571D01*
X014127Y023554D01*
X014166Y023534D01*
X014203Y023511D01*
X014237Y023484D01*
X014270Y023455D01*
X014299Y023422D01*
X014326Y023388D01*
X014349Y023351D01*
X014369Y023312D01*
X014386Y023272D01*
X014399Y023230D01*
X014408Y023188D01*
X014414Y023145D01*
X014416Y023101D01*
X014414Y023057D01*
X014408Y023014D01*
X014399Y022972D01*
X014386Y022930D01*
X014369Y022890D01*
X014349Y022851D01*
X014326Y022814D01*
X014299Y022780D01*
X014270Y022747D01*
X014237Y022718D01*
X014203Y022691D01*
X014166Y022668D01*
X014127Y022648D01*
X014087Y022631D01*
X014045Y022618D01*
X014003Y022609D01*
X013960Y022603D01*
X013916Y022601D01*
X013916Y020501D01*
X034716Y020501D01*
X034716Y025701D01*
X039235Y026880D02*
X039656Y026880D01*
X039235Y026880D02*
X039235Y029321D01*
X039656Y029321D01*
X038164Y030037D02*
X038107Y029981D01*
X037994Y029981D01*
X037937Y030037D01*
X037937Y030264D01*
X037994Y030321D01*
X038107Y030321D01*
X038164Y030264D01*
X037796Y030264D02*
X037739Y030321D01*
X037626Y030321D01*
X037569Y030264D01*
X037569Y030037D01*
X037626Y029981D01*
X037739Y029981D01*
X037796Y030037D01*
X037428Y030094D02*
X037428Y030321D01*
X037428Y030094D02*
X037314Y029981D01*
X037201Y030094D01*
X037201Y030321D01*
X037059Y030264D02*
X037059Y030208D01*
X037003Y030151D01*
X036832Y030151D01*
X036691Y030094D02*
X036691Y030037D01*
X036634Y029981D01*
X036521Y029981D01*
X036464Y030037D01*
X036521Y030151D02*
X036634Y030151D01*
X036691Y030094D01*
X036691Y030264D02*
X036634Y030321D01*
X036521Y030321D01*
X036464Y030264D01*
X036464Y030208D01*
X036521Y030151D01*
X036323Y030037D02*
X036323Y030321D01*
X036096Y030321D02*
X036096Y030037D01*
X036152Y029981D01*
X036266Y029981D01*
X036323Y030037D01*
X036832Y029981D02*
X037003Y029981D01*
X037059Y030037D01*
X037059Y030094D01*
X037003Y030151D01*
X037059Y030264D02*
X037003Y030321D01*
X036832Y030321D01*
X036832Y029981D01*
X034773Y031201D02*
X034346Y031201D01*
X034559Y031414D02*
X034559Y030987D01*
X033273Y031201D02*
X032846Y031201D01*
X033059Y031414D02*
X033059Y030987D01*
X031773Y031201D02*
X031346Y031201D01*
X031559Y031414D02*
X031559Y030987D01*
X031536Y031631D02*
X031195Y031631D01*
X031536Y031631D02*
X031536Y031858D01*
X031536Y031999D02*
X031536Y032226D01*
X031536Y032367D02*
X031536Y032537D01*
X031479Y032594D01*
X031252Y032594D01*
X031195Y032537D01*
X031195Y032367D01*
X031536Y032367D01*
X031366Y032112D02*
X031366Y031999D01*
X031536Y031999D02*
X031195Y031999D01*
X031195Y032226D01*
X031252Y032736D02*
X031195Y032792D01*
X031195Y032906D01*
X031252Y032962D01*
X031366Y032906D02*
X031422Y032962D01*
X031479Y032962D01*
X031536Y032906D01*
X031536Y032792D01*
X031479Y032736D01*
X031366Y032792D02*
X031366Y032906D01*
X031366Y032792D02*
X031309Y032736D01*
X031252Y032736D01*
X031316Y035551D02*
X031266Y036701D01*
X031166Y036801D01*
X027466Y036801D01*
X027366Y036701D01*
X027316Y035551D01*
X025941Y035937D02*
X025884Y035881D01*
X025714Y035881D01*
X025714Y036221D01*
X025884Y036221D01*
X025941Y036164D01*
X025941Y036108D01*
X025884Y036051D01*
X025714Y036051D01*
X025573Y036108D02*
X025573Y036164D01*
X025516Y036221D01*
X025402Y036221D01*
X025346Y036164D01*
X025573Y036108D02*
X025346Y035881D01*
X025573Y035881D01*
X025884Y036051D02*
X025941Y035994D01*
X025941Y035937D01*
X026666Y038551D02*
X024316Y038551D01*
X024314Y038507D01*
X024308Y038464D01*
X024299Y038422D01*
X024286Y038380D01*
X024269Y038340D01*
X024249Y038301D01*
X024226Y038264D01*
X024199Y038230D01*
X024170Y038197D01*
X024137Y038168D01*
X024103Y038141D01*
X024066Y038118D01*
X024027Y038098D01*
X023987Y038081D01*
X023945Y038068D01*
X023903Y038059D01*
X023860Y038053D01*
X023816Y038051D01*
X023772Y038053D01*
X023729Y038059D01*
X023687Y038068D01*
X023645Y038081D01*
X023605Y038098D01*
X023566Y038118D01*
X023529Y038141D01*
X023495Y038168D01*
X023462Y038197D01*
X023433Y038230D01*
X023406Y038264D01*
X023383Y038301D01*
X023363Y038340D01*
X023346Y038380D01*
X023333Y038422D01*
X023324Y038464D01*
X023318Y038507D01*
X023316Y038551D01*
X020966Y038551D01*
X020966Y030651D01*
X026666Y030651D01*
X026666Y038551D01*
X022441Y036881D02*
X022214Y036881D01*
X022327Y036881D02*
X022327Y037221D01*
X022214Y037108D01*
X022073Y037221D02*
X022073Y036881D01*
X021846Y036881D02*
X021846Y037221D01*
X021959Y037108D01*
X022073Y037221D01*
X022073Y036221D02*
X022073Y035881D01*
X022214Y035881D02*
X022441Y036108D01*
X022441Y036164D01*
X022384Y036221D01*
X022271Y036221D01*
X022214Y036164D01*
X022073Y036221D02*
X021959Y036108D01*
X021846Y036221D01*
X021846Y035881D01*
X022214Y035881D02*
X022441Y035881D01*
X022384Y035221D02*
X022441Y035164D01*
X022441Y035108D01*
X022384Y035051D01*
X022441Y034994D01*
X022441Y034937D01*
X022384Y034881D01*
X022271Y034881D01*
X022214Y034937D01*
X022073Y034881D02*
X022073Y035221D01*
X021959Y035108D01*
X021846Y035221D01*
X021846Y034881D01*
X022214Y035164D02*
X022271Y035221D01*
X022384Y035221D01*
X022384Y035051D02*
X022327Y035051D01*
X022271Y034221D02*
X022214Y034164D01*
X022214Y034108D01*
X022271Y034051D01*
X022384Y034051D01*
X022441Y033994D01*
X022441Y033937D01*
X022384Y033881D01*
X022271Y033881D01*
X022214Y033937D01*
X022073Y033881D02*
X021959Y033994D01*
X022016Y033994D02*
X021846Y033994D01*
X021846Y033881D02*
X021846Y034221D01*
X022016Y034221D01*
X022073Y034164D01*
X022073Y034051D01*
X022016Y033994D01*
X022271Y034221D02*
X022384Y034221D01*
X022441Y034164D01*
X022582Y034221D02*
X022809Y034221D01*
X022696Y034221D02*
X022696Y033881D01*
X022753Y033221D02*
X022809Y033164D01*
X022809Y033051D01*
X022753Y032994D01*
X022582Y032994D01*
X022582Y032881D02*
X022582Y033221D01*
X022753Y033221D01*
X022441Y032881D02*
X022214Y032881D01*
X022214Y033221D01*
X022073Y033164D02*
X022016Y033221D01*
X021902Y033221D01*
X021846Y033164D01*
X021846Y033108D01*
X021902Y033051D01*
X022016Y033051D01*
X022073Y032994D01*
X022073Y032937D01*
X022016Y032881D01*
X021902Y032881D01*
X021846Y032937D01*
X021902Y032221D02*
X021846Y032164D01*
X021846Y032108D01*
X021902Y032051D01*
X022016Y032051D01*
X022073Y031994D01*
X022073Y031937D01*
X022016Y031881D01*
X021902Y031881D01*
X021846Y031937D01*
X021902Y032221D02*
X022016Y032221D01*
X022073Y032164D01*
X022214Y032221D02*
X022441Y032221D01*
X022327Y032221D02*
X022327Y031881D01*
X022582Y031881D02*
X022582Y032221D01*
X022809Y032221D01*
X022951Y032221D02*
X022951Y031881D01*
X022951Y031994D02*
X023121Y031994D01*
X023178Y032051D01*
X023178Y032164D01*
X023121Y032221D01*
X022951Y032221D01*
X022696Y032051D02*
X022582Y032051D01*
X022582Y031881D02*
X022809Y031881D01*
X022630Y031221D02*
X022686Y031164D01*
X022686Y031051D01*
X022630Y030994D01*
X022460Y030994D01*
X022573Y030994D02*
X022686Y030881D01*
X022460Y030881D02*
X022460Y031221D01*
X022630Y031221D01*
X022327Y031221D02*
X022214Y031221D01*
X022271Y031221D02*
X022271Y030881D01*
X022327Y030881D02*
X022214Y030881D01*
X022073Y030937D02*
X022073Y031164D01*
X022016Y031221D01*
X021846Y031221D01*
X021846Y030881D01*
X022016Y030881D01*
X022073Y030937D01*
X020166Y030651D02*
X020166Y038551D01*
X017816Y038551D01*
X017814Y038507D01*
X017808Y038464D01*
X017799Y038422D01*
X017786Y038380D01*
X017769Y038340D01*
X017749Y038301D01*
X017726Y038264D01*
X017699Y038230D01*
X017670Y038197D01*
X017637Y038168D01*
X017603Y038141D01*
X017566Y038118D01*
X017527Y038098D01*
X017487Y038081D01*
X017445Y038068D01*
X017403Y038059D01*
X017360Y038053D01*
X017316Y038051D01*
X017272Y038053D01*
X017229Y038059D01*
X017187Y038068D01*
X017145Y038081D01*
X017105Y038098D01*
X017066Y038118D01*
X017029Y038141D01*
X016995Y038168D01*
X016962Y038197D01*
X016933Y038230D01*
X016906Y038264D01*
X016883Y038301D01*
X016863Y038340D01*
X016846Y038380D01*
X016833Y038422D01*
X016824Y038464D01*
X016818Y038507D01*
X016816Y038551D01*
X014466Y038551D01*
X014466Y030651D01*
X020166Y030651D01*
X019384Y032881D02*
X019214Y032881D01*
X019214Y033221D01*
X019384Y033221D01*
X019441Y033164D01*
X019441Y033108D01*
X019384Y033051D01*
X019214Y033051D01*
X019384Y033051D02*
X019441Y032994D01*
X019441Y032937D01*
X019384Y032881D01*
X019073Y032881D02*
X018846Y032881D01*
X018959Y032881D02*
X018959Y033221D01*
X018846Y033108D01*
X016678Y032164D02*
X016678Y032051D01*
X016621Y031994D01*
X016451Y031994D01*
X016451Y031881D02*
X016451Y032221D01*
X016621Y032221D01*
X016678Y032164D01*
X016309Y032221D02*
X016082Y032221D01*
X016082Y031881D01*
X016309Y031881D01*
X016196Y032051D02*
X016082Y032051D01*
X015941Y032221D02*
X015714Y032221D01*
X015827Y032221D02*
X015827Y031881D01*
X015573Y031937D02*
X015516Y031881D01*
X015402Y031881D01*
X015346Y031937D01*
X015402Y032051D02*
X015516Y032051D01*
X015573Y031994D01*
X015573Y031937D01*
X015402Y032051D02*
X015346Y032108D01*
X015346Y032164D01*
X015402Y032221D01*
X015516Y032221D01*
X015573Y032164D01*
X015516Y032881D02*
X015402Y032881D01*
X015346Y032937D01*
X015402Y033051D02*
X015516Y033051D01*
X015573Y032994D01*
X015573Y032937D01*
X015516Y032881D01*
X015714Y032881D02*
X015714Y033221D01*
X015573Y033164D02*
X015516Y033221D01*
X015402Y033221D01*
X015346Y033164D01*
X015346Y033108D01*
X015402Y033051D01*
X015714Y032881D02*
X015941Y032881D01*
X016082Y032881D02*
X016082Y033221D01*
X016253Y033221D01*
X016309Y033164D01*
X016309Y033051D01*
X016253Y032994D01*
X016082Y032994D01*
X016196Y033881D02*
X016196Y034221D01*
X016309Y034221D02*
X016082Y034221D01*
X015941Y034164D02*
X015884Y034221D01*
X015771Y034221D01*
X015714Y034164D01*
X015714Y034108D01*
X015771Y034051D01*
X015884Y034051D01*
X015941Y033994D01*
X015941Y033937D01*
X015884Y033881D01*
X015771Y033881D01*
X015714Y033937D01*
X015573Y033881D02*
X015459Y033994D01*
X015516Y033994D02*
X015346Y033994D01*
X015346Y033881D02*
X015346Y034221D01*
X015516Y034221D01*
X015573Y034164D01*
X015573Y034051D01*
X015516Y033994D01*
X015573Y034881D02*
X015573Y035221D01*
X015459Y035108D01*
X015346Y035221D01*
X015346Y034881D01*
X015714Y034937D02*
X015771Y034881D01*
X015884Y034881D01*
X015941Y034937D01*
X015941Y034994D01*
X015884Y035051D01*
X015827Y035051D01*
X015884Y035051D02*
X015941Y035108D01*
X015941Y035164D01*
X015884Y035221D01*
X015771Y035221D01*
X015714Y035164D01*
X015714Y035881D02*
X015941Y036108D01*
X015941Y036164D01*
X015884Y036221D01*
X015771Y036221D01*
X015714Y036164D01*
X015573Y036221D02*
X015573Y035881D01*
X015714Y035881D02*
X015941Y035881D01*
X015573Y036221D02*
X015459Y036108D01*
X015346Y036221D01*
X015346Y035881D01*
X015346Y036881D02*
X015346Y037221D01*
X015459Y037108D01*
X015573Y037221D01*
X015573Y036881D01*
X015714Y036881D02*
X015941Y036881D01*
X015827Y036881D02*
X015827Y037221D01*
X015714Y037108D01*
X015714Y037881D02*
X015714Y038221D01*
X015941Y037881D01*
X015941Y038221D01*
X015573Y038221D02*
X015346Y038221D01*
X015346Y037881D01*
X015573Y037881D01*
X015459Y038051D02*
X015346Y038051D01*
X013666Y038551D02*
X013666Y030651D01*
X007966Y030651D01*
X007966Y038551D01*
X010316Y038551D01*
X010318Y038507D01*
X010324Y038464D01*
X010333Y038422D01*
X010346Y038380D01*
X010363Y038340D01*
X010383Y038301D01*
X010406Y038264D01*
X010433Y038230D01*
X010462Y038197D01*
X010495Y038168D01*
X010529Y038141D01*
X010566Y038118D01*
X010605Y038098D01*
X010645Y038081D01*
X010687Y038068D01*
X010729Y038059D01*
X010772Y038053D01*
X010816Y038051D01*
X010860Y038053D01*
X010903Y038059D01*
X010945Y038068D01*
X010987Y038081D01*
X011027Y038098D01*
X011066Y038118D01*
X011103Y038141D01*
X011137Y038168D01*
X011170Y038197D01*
X011199Y038230D01*
X011226Y038264D01*
X011249Y038301D01*
X011269Y038340D01*
X011286Y038380D01*
X011299Y038422D01*
X011308Y038464D01*
X011314Y038507D01*
X011316Y038551D01*
X013666Y038551D01*
X012884Y036221D02*
X012941Y036164D01*
X012941Y036108D01*
X012884Y036051D01*
X012714Y036051D01*
X012573Y036108D02*
X012573Y036164D01*
X012516Y036221D01*
X012402Y036221D01*
X012346Y036164D01*
X012573Y036108D02*
X012346Y035881D01*
X012573Y035881D01*
X012714Y035881D02*
X012884Y035881D01*
X012941Y035937D01*
X012941Y035994D01*
X012884Y036051D01*
X012884Y036221D02*
X012714Y036221D01*
X012714Y035881D01*
X012714Y033221D02*
X012884Y033221D01*
X012941Y033164D01*
X012941Y033108D01*
X012884Y033051D01*
X012714Y033051D01*
X012714Y032881D02*
X012714Y033221D01*
X012884Y033051D02*
X012941Y032994D01*
X012941Y032937D01*
X012884Y032881D01*
X012714Y032881D01*
X012573Y032881D02*
X012346Y032881D01*
X012459Y032881D02*
X012459Y033221D01*
X012346Y033108D01*
X010178Y032164D02*
X010178Y032051D01*
X010121Y031994D01*
X009951Y031994D01*
X009951Y031881D02*
X009951Y032221D01*
X010121Y032221D01*
X010178Y032164D01*
X009809Y032221D02*
X009582Y032221D01*
X009582Y031881D01*
X009809Y031881D01*
X009696Y032051D02*
X009582Y032051D01*
X009441Y032221D02*
X009214Y032221D01*
X009327Y032221D02*
X009327Y031881D01*
X009073Y031937D02*
X009016Y031881D01*
X008902Y031881D01*
X008846Y031937D01*
X008902Y032051D02*
X009016Y032051D01*
X009073Y031994D01*
X009073Y031937D01*
X008902Y032051D02*
X008846Y032108D01*
X008846Y032164D01*
X008902Y032221D01*
X009016Y032221D01*
X009073Y032164D01*
X009016Y032881D02*
X008902Y032881D01*
X008846Y032937D01*
X008902Y033051D02*
X009016Y033051D01*
X009073Y032994D01*
X009073Y032937D01*
X009016Y032881D01*
X009214Y032881D02*
X009441Y032881D01*
X009582Y032881D02*
X009582Y033221D01*
X009753Y033221D01*
X009809Y033164D01*
X009809Y033051D01*
X009753Y032994D01*
X009582Y032994D01*
X009214Y032881D02*
X009214Y033221D01*
X009073Y033164D02*
X009016Y033221D01*
X008902Y033221D01*
X008846Y033164D01*
X008846Y033108D01*
X008902Y033051D01*
X008846Y033881D02*
X008846Y034221D01*
X009016Y034221D01*
X009073Y034164D01*
X009073Y034051D01*
X009016Y033994D01*
X008846Y033994D01*
X008959Y033994D02*
X009073Y033881D01*
X009214Y033937D02*
X009271Y033881D01*
X009384Y033881D01*
X009441Y033937D01*
X009441Y033994D01*
X009384Y034051D01*
X009271Y034051D01*
X009214Y034108D01*
X009214Y034164D01*
X009271Y034221D01*
X009384Y034221D01*
X009441Y034164D01*
X009582Y034221D02*
X009809Y034221D01*
X009696Y034221D02*
X009696Y033881D01*
X009384Y034881D02*
X009271Y034881D01*
X009214Y034937D01*
X009073Y034881D02*
X009073Y035221D01*
X008959Y035108D01*
X008846Y035221D01*
X008846Y034881D01*
X009214Y035164D02*
X009271Y035221D01*
X009384Y035221D01*
X009441Y035164D01*
X009441Y035108D01*
X009384Y035051D01*
X009441Y034994D01*
X009441Y034937D01*
X009384Y034881D01*
X009384Y035051D02*
X009327Y035051D01*
X009214Y035881D02*
X009441Y036108D01*
X009441Y036164D01*
X009384Y036221D01*
X009271Y036221D01*
X009214Y036164D01*
X009073Y036221D02*
X009073Y035881D01*
X009214Y035881D02*
X009441Y035881D01*
X009073Y036221D02*
X008959Y036108D01*
X008846Y036221D01*
X008846Y035881D01*
X008846Y036881D02*
X008846Y037221D01*
X008959Y037108D01*
X009073Y037221D01*
X009073Y036881D01*
X009214Y036881D02*
X009441Y036881D01*
X009327Y036881D02*
X009327Y037221D01*
X009214Y037108D01*
X009214Y037881D02*
X009214Y038221D01*
X009441Y037881D01*
X009441Y038221D01*
X009073Y038221D02*
X008846Y038221D01*
X008846Y037881D01*
X009073Y037881D01*
X008959Y038051D02*
X008846Y038051D01*
X008846Y031221D02*
X009016Y031221D01*
X009073Y031164D01*
X009073Y030937D01*
X009016Y030881D01*
X008846Y030881D01*
X008846Y031221D01*
X009214Y031221D02*
X009327Y031221D01*
X009271Y031221D02*
X009271Y030881D01*
X009327Y030881D02*
X009214Y030881D01*
X009460Y030881D02*
X009460Y031221D01*
X009630Y031221D01*
X009686Y031164D01*
X009686Y031051D01*
X009630Y030994D01*
X009460Y030994D01*
X009573Y030994D02*
X009686Y030881D01*
X015346Y030881D02*
X015516Y030881D01*
X015573Y030937D01*
X015573Y031164D01*
X015516Y031221D01*
X015346Y031221D01*
X015346Y030881D01*
X015714Y030881D02*
X015827Y030881D01*
X015771Y030881D02*
X015771Y031221D01*
X015827Y031221D02*
X015714Y031221D01*
X015960Y031221D02*
X016130Y031221D01*
X016186Y031164D01*
X016186Y031051D01*
X016130Y030994D01*
X015960Y030994D01*
X016073Y030994D02*
X016186Y030881D01*
X015960Y030881D02*
X015960Y031221D01*
X018846Y035881D02*
X019073Y036108D01*
X019073Y036164D01*
X019016Y036221D01*
X018902Y036221D01*
X018846Y036164D01*
X018846Y035881D02*
X019073Y035881D01*
X019214Y035881D02*
X019384Y035881D01*
X019441Y035937D01*
X019441Y035994D01*
X019384Y036051D01*
X019214Y036051D01*
X019214Y036221D02*
X019384Y036221D01*
X019441Y036164D01*
X019441Y036108D01*
X019384Y036051D01*
X019214Y035881D02*
X019214Y036221D01*
X025346Y033108D02*
X025459Y033221D01*
X025459Y032881D01*
X025346Y032881D02*
X025573Y032881D01*
X025714Y032881D02*
X025884Y032881D01*
X025941Y032937D01*
X025941Y032994D01*
X025884Y033051D01*
X025714Y033051D01*
X025714Y032881D02*
X025714Y033221D01*
X025884Y033221D01*
X025941Y033164D01*
X025941Y033108D01*
X025884Y033051D01*
X032566Y039001D02*
X032566Y039401D01*
X032566Y039001D02*
X032568Y038984D01*
X032572Y038967D01*
X032579Y038951D01*
X032589Y038937D01*
X032602Y038924D01*
X032616Y038914D01*
X032632Y038907D01*
X032649Y038903D01*
X032666Y038901D01*
X036966Y038901D01*
X036983Y038903D01*
X037000Y038907D01*
X037016Y038914D01*
X037030Y038924D01*
X037043Y038937D01*
X037053Y038951D01*
X037060Y038967D01*
X037064Y038984D01*
X037066Y039001D01*
X037066Y039401D01*
X037066Y040301D02*
X037066Y040701D01*
X037064Y040718D01*
X037060Y040735D01*
X037053Y040751D01*
X037043Y040765D01*
X037030Y040778D01*
X037016Y040788D01*
X037000Y040795D01*
X036983Y040799D01*
X036966Y040801D01*
X032666Y040801D01*
X032649Y040799D01*
X032632Y040795D01*
X032616Y040788D01*
X032602Y040778D01*
X032589Y040765D01*
X032579Y040751D01*
X032572Y040735D01*
X032568Y040718D01*
X032566Y040701D01*
X032566Y040301D01*
X034566Y040101D02*
X034566Y039851D01*
X034566Y039601D01*
X034716Y039601D02*
X034716Y040101D01*
X034916Y040101D01*
X034916Y039601D01*
X034716Y039601D01*
X035066Y039601D02*
X035066Y039851D01*
X035066Y040101D01*
X040316Y032101D02*
X040318Y032164D01*
X040324Y032226D01*
X040334Y032288D01*
X040347Y032350D01*
X040365Y032410D01*
X040386Y032469D01*
X040411Y032527D01*
X040440Y032583D01*
X040472Y032637D01*
X040507Y032689D01*
X040545Y032738D01*
X040587Y032786D01*
X040631Y032830D01*
X040679Y032872D01*
X040728Y032910D01*
X040780Y032945D01*
X040834Y032977D01*
X040890Y033006D01*
X040948Y033031D01*
X041007Y033052D01*
X041067Y033070D01*
X041129Y033083D01*
X041191Y033093D01*
X041253Y033099D01*
X041316Y033101D01*
X041379Y033099D01*
X041441Y033093D01*
X041503Y033083D01*
X041565Y033070D01*
X041625Y033052D01*
X041684Y033031D01*
X041742Y033006D01*
X041798Y032977D01*
X041852Y032945D01*
X041904Y032910D01*
X041953Y032872D01*
X042001Y032830D01*
X042045Y032786D01*
X042087Y032738D01*
X042125Y032689D01*
X042160Y032637D01*
X042192Y032583D01*
X042221Y032527D01*
X042246Y032469D01*
X042267Y032410D01*
X042285Y032350D01*
X042298Y032288D01*
X042308Y032226D01*
X042314Y032164D01*
X042316Y032101D01*
X042314Y032038D01*
X042308Y031976D01*
X042298Y031914D01*
X042285Y031852D01*
X042267Y031792D01*
X042246Y031733D01*
X042221Y031675D01*
X042192Y031619D01*
X042160Y031565D01*
X042125Y031513D01*
X042087Y031464D01*
X042045Y031416D01*
X042001Y031372D01*
X041953Y031330D01*
X041904Y031292D01*
X041852Y031257D01*
X041798Y031225D01*
X041742Y031196D01*
X041684Y031171D01*
X041625Y031150D01*
X041565Y031132D01*
X041503Y031119D01*
X041441Y031109D01*
X041379Y031103D01*
X041316Y031101D01*
X041253Y031103D01*
X041191Y031109D01*
X041129Y031119D01*
X041067Y031132D01*
X041007Y031150D01*
X040948Y031171D01*
X040890Y031196D01*
X040834Y031225D01*
X040780Y031257D01*
X040728Y031292D01*
X040679Y031330D01*
X040631Y031372D01*
X040587Y031416D01*
X040545Y031464D01*
X040507Y031513D01*
X040472Y031565D01*
X040440Y031619D01*
X040411Y031675D01*
X040386Y031733D01*
X040365Y031792D01*
X040347Y031852D01*
X040334Y031914D01*
X040324Y031976D01*
X040318Y032038D01*
X040316Y032101D01*
X041616Y031401D02*
X041816Y031401D01*
X041716Y031501D02*
X041716Y031301D01*
X042026Y019566D02*
X039426Y019566D01*
X039426Y015636D01*
X039346Y015636D01*
X039346Y019566D01*
X039426Y019566D01*
X039746Y018586D02*
X039748Y018614D01*
X039754Y018641D01*
X039763Y018667D01*
X039776Y018692D01*
X039793Y018715D01*
X039812Y018735D01*
X039834Y018752D01*
X039858Y018766D01*
X039884Y018776D01*
X039911Y018783D01*
X039939Y018786D01*
X039967Y018785D01*
X039994Y018780D01*
X040021Y018771D01*
X040046Y018759D01*
X040069Y018744D01*
X040090Y018725D01*
X040108Y018704D01*
X040123Y018680D01*
X040134Y018654D01*
X040142Y018628D01*
X040146Y018600D01*
X040146Y018572D01*
X040142Y018544D01*
X040134Y018518D01*
X040123Y018492D01*
X040108Y018468D01*
X040090Y018447D01*
X040069Y018428D01*
X040046Y018413D01*
X040021Y018401D01*
X039994Y018392D01*
X039967Y018387D01*
X039939Y018386D01*
X039911Y018389D01*
X039884Y018396D01*
X039858Y018406D01*
X039834Y018420D01*
X039812Y018437D01*
X039793Y018457D01*
X039776Y018480D01*
X039763Y018505D01*
X039754Y018531D01*
X039748Y018558D01*
X039746Y018586D01*
X039746Y016616D02*
X039748Y016644D01*
X039754Y016671D01*
X039763Y016697D01*
X039776Y016722D01*
X039793Y016745D01*
X039812Y016765D01*
X039834Y016782D01*
X039858Y016796D01*
X039884Y016806D01*
X039911Y016813D01*
X039939Y016816D01*
X039967Y016815D01*
X039994Y016810D01*
X040021Y016801D01*
X040046Y016789D01*
X040069Y016774D01*
X040090Y016755D01*
X040108Y016734D01*
X040123Y016710D01*
X040134Y016684D01*
X040142Y016658D01*
X040146Y016630D01*
X040146Y016602D01*
X040142Y016574D01*
X040134Y016548D01*
X040123Y016522D01*
X040108Y016498D01*
X040090Y016477D01*
X040069Y016458D01*
X040046Y016443D01*
X040021Y016431D01*
X039994Y016422D01*
X039967Y016417D01*
X039939Y016416D01*
X039911Y016419D01*
X039884Y016426D01*
X039858Y016436D01*
X039834Y016450D01*
X039812Y016467D01*
X039793Y016487D01*
X039776Y016510D01*
X039763Y016535D01*
X039754Y016561D01*
X039748Y016588D01*
X039746Y016616D01*
X039426Y015636D02*
X042026Y015636D01*
X042026Y016266D01*
X042026Y015636D02*
X042966Y015636D01*
X042966Y019566D01*
X042026Y019566D01*
X042026Y018936D01*
X042026Y018236D02*
X042026Y016966D01*
X036366Y017651D02*
X036066Y017651D01*
X036216Y017801D02*
X036216Y017501D01*
X036016Y016701D02*
X035566Y016701D01*
X035116Y016701D01*
X035116Y016451D01*
X036016Y016451D01*
X036016Y016701D01*
X035566Y016701D02*
X035566Y016801D01*
X033816Y016351D02*
X033818Y016437D01*
X033824Y016523D01*
X033835Y016608D01*
X033850Y016692D01*
X033868Y016776D01*
X033891Y016859D01*
X033918Y016941D01*
X033949Y017021D01*
X033984Y017099D01*
X034023Y017176D01*
X034065Y017251D01*
X034111Y017323D01*
X034160Y017393D01*
X034213Y017461D01*
X034269Y017526D01*
X034329Y017588D01*
X034391Y017648D01*
X034456Y017704D01*
X034524Y017757D01*
X034594Y017806D01*
X034666Y017852D01*
X034741Y017894D01*
X034818Y017933D01*
X034896Y017968D01*
X034976Y017999D01*
X035058Y018026D01*
X035141Y018049D01*
X035225Y018067D01*
X035309Y018082D01*
X035394Y018093D01*
X035480Y018099D01*
X035566Y018101D01*
X035652Y018099D01*
X035738Y018093D01*
X035823Y018082D01*
X035907Y018067D01*
X035991Y018049D01*
X036074Y018026D01*
X036156Y017999D01*
X036236Y017968D01*
X036314Y017933D01*
X036391Y017894D01*
X036466Y017852D01*
X036538Y017806D01*
X036608Y017757D01*
X036676Y017704D01*
X036741Y017648D01*
X036803Y017588D01*
X036863Y017526D01*
X036919Y017461D01*
X036972Y017393D01*
X037021Y017323D01*
X037067Y017251D01*
X037109Y017176D01*
X037148Y017099D01*
X037183Y017021D01*
X037214Y016941D01*
X037241Y016859D01*
X037264Y016776D01*
X037282Y016692D01*
X037297Y016608D01*
X037308Y016523D01*
X037314Y016437D01*
X037316Y016351D01*
X037314Y016265D01*
X037308Y016179D01*
X037297Y016094D01*
X037282Y016010D01*
X037264Y015926D01*
X037241Y015843D01*
X037214Y015761D01*
X037183Y015681D01*
X037148Y015603D01*
X037109Y015526D01*
X037067Y015451D01*
X037021Y015379D01*
X036972Y015309D01*
X036919Y015241D01*
X036863Y015176D01*
X036803Y015114D01*
X036741Y015054D01*
X036676Y014998D01*
X036608Y014945D01*
X036538Y014896D01*
X036466Y014850D01*
X036391Y014808D01*
X036314Y014769D01*
X036236Y014734D01*
X036156Y014703D01*
X036074Y014676D01*
X035991Y014653D01*
X035907Y014635D01*
X035823Y014620D01*
X035738Y014609D01*
X035652Y014603D01*
X035566Y014601D01*
X035480Y014603D01*
X035394Y014609D01*
X035309Y014620D01*
X035225Y014635D01*
X035141Y014653D01*
X035058Y014676D01*
X034976Y014703D01*
X034896Y014734D01*
X034818Y014769D01*
X034741Y014808D01*
X034666Y014850D01*
X034594Y014896D01*
X034524Y014945D01*
X034456Y014998D01*
X034391Y015054D01*
X034329Y015114D01*
X034269Y015176D01*
X034213Y015241D01*
X034160Y015309D01*
X034111Y015379D01*
X034065Y015451D01*
X034023Y015526D01*
X033984Y015603D01*
X033949Y015681D01*
X033918Y015761D01*
X033891Y015843D01*
X033868Y015926D01*
X033850Y016010D01*
X033835Y016094D01*
X033824Y016179D01*
X033818Y016265D01*
X033816Y016351D01*
X035566Y016101D02*
X035566Y015901D01*
X032166Y015051D02*
X032166Y007151D01*
X029816Y007151D01*
X029814Y007195D01*
X029808Y007238D01*
X029799Y007280D01*
X029786Y007322D01*
X029769Y007362D01*
X029749Y007401D01*
X029726Y007438D01*
X029699Y007472D01*
X029670Y007505D01*
X029637Y007534D01*
X029603Y007561D01*
X029566Y007584D01*
X029527Y007604D01*
X029487Y007621D01*
X029445Y007634D01*
X029403Y007643D01*
X029360Y007649D01*
X029316Y007651D01*
X029272Y007649D01*
X029229Y007643D01*
X029187Y007634D01*
X029145Y007621D01*
X029105Y007604D01*
X029066Y007584D01*
X029029Y007561D01*
X028995Y007534D01*
X028962Y007505D01*
X028933Y007472D01*
X028906Y007438D01*
X028883Y007401D01*
X028863Y007362D01*
X028846Y007322D01*
X028833Y007280D01*
X028824Y007238D01*
X028818Y007195D01*
X028816Y007151D01*
X026466Y007151D01*
X026466Y015051D01*
X032166Y015051D01*
X031436Y014664D02*
X031436Y014551D01*
X031380Y014494D01*
X031210Y014494D01*
X031323Y014494D02*
X031436Y014381D01*
X031210Y014381D02*
X031210Y014721D01*
X031380Y014721D01*
X031436Y014664D01*
X031077Y014721D02*
X030964Y014721D01*
X031021Y014721D02*
X031021Y014381D01*
X031077Y014381D02*
X030964Y014381D01*
X030823Y014437D02*
X030823Y014664D01*
X030766Y014721D01*
X030596Y014721D01*
X030596Y014381D01*
X030766Y014381D01*
X030823Y014437D01*
X030832Y013721D02*
X030832Y013381D01*
X031059Y013381D01*
X031201Y013381D02*
X031201Y013721D01*
X031371Y013721D01*
X031428Y013664D01*
X031428Y013551D01*
X031371Y013494D01*
X031201Y013494D01*
X030946Y013551D02*
X030832Y013551D01*
X030832Y013721D02*
X031059Y013721D01*
X030691Y013721D02*
X030464Y013721D01*
X030577Y013721D02*
X030577Y013381D01*
X030323Y013437D02*
X030266Y013381D01*
X030152Y013381D01*
X030096Y013437D01*
X030152Y013551D02*
X030266Y013551D01*
X030323Y013494D01*
X030323Y013437D01*
X030152Y013551D02*
X030096Y013608D01*
X030096Y013664D01*
X030152Y013721D01*
X030266Y013721D01*
X030323Y013664D01*
X030402Y012721D02*
X030346Y012664D01*
X030346Y012608D01*
X030402Y012551D01*
X030516Y012551D01*
X030573Y012494D01*
X030573Y012437D01*
X030516Y012381D01*
X030402Y012381D01*
X030346Y012437D01*
X030402Y012721D02*
X030516Y012721D01*
X030573Y012664D01*
X030714Y012721D02*
X030714Y012381D01*
X030941Y012381D01*
X031082Y012381D02*
X031082Y012721D01*
X031253Y012721D01*
X031309Y012664D01*
X031309Y012551D01*
X031253Y012494D01*
X031082Y012494D01*
X031091Y011821D02*
X031091Y011481D01*
X030836Y011537D02*
X030779Y011481D01*
X030666Y011481D01*
X030609Y011537D01*
X030666Y011651D02*
X030779Y011651D01*
X030836Y011594D01*
X030836Y011537D01*
X030666Y011651D02*
X030609Y011708D01*
X030609Y011764D01*
X030666Y011821D01*
X030779Y011821D01*
X030836Y011764D01*
X030977Y011821D02*
X031204Y011821D01*
X030468Y011764D02*
X030468Y011651D01*
X030411Y011594D01*
X030241Y011594D01*
X030354Y011594D02*
X030468Y011481D01*
X030241Y011481D02*
X030241Y011821D01*
X030411Y011821D01*
X030468Y011764D01*
X030596Y010721D02*
X030709Y010608D01*
X030823Y010721D01*
X030823Y010381D01*
X030964Y010437D02*
X031021Y010381D01*
X031134Y010381D01*
X031191Y010437D01*
X031191Y010494D01*
X031134Y010551D01*
X031077Y010551D01*
X031134Y010551D02*
X031191Y010608D01*
X031191Y010664D01*
X031134Y010721D01*
X031021Y010721D01*
X030964Y010664D01*
X030596Y010721D02*
X030596Y010381D01*
X030596Y009721D02*
X030709Y009608D01*
X030823Y009721D01*
X030823Y009381D01*
X030964Y009381D02*
X031191Y009608D01*
X031191Y009664D01*
X031134Y009721D01*
X031021Y009721D01*
X030964Y009664D01*
X030964Y009381D02*
X031191Y009381D01*
X030596Y009381D02*
X030596Y009721D01*
X030596Y008721D02*
X030709Y008608D01*
X030823Y008721D01*
X030823Y008381D01*
X030964Y008381D02*
X031191Y008381D01*
X031077Y008381D02*
X031077Y008721D01*
X030964Y008608D01*
X030596Y008721D02*
X030596Y008381D01*
X030596Y007721D02*
X030596Y007381D01*
X030823Y007381D01*
X030964Y007381D02*
X030964Y007721D01*
X031191Y007381D01*
X031191Y007721D01*
X030823Y007721D02*
X030596Y007721D01*
X030596Y007551D02*
X030709Y007551D01*
X028786Y007937D02*
X028729Y007881D01*
X028502Y008108D01*
X028729Y008108D01*
X028786Y008051D01*
X028786Y007937D01*
X028729Y007881D02*
X028502Y007881D01*
X028445Y007937D01*
X028445Y008051D01*
X028502Y008108D01*
X028729Y008249D02*
X028729Y008306D01*
X028786Y008306D01*
X028786Y008249D01*
X028729Y008249D01*
X028786Y008433D02*
X028786Y008660D01*
X028786Y008547D02*
X028445Y008547D01*
X028559Y008433D01*
X028559Y008801D02*
X028729Y008801D01*
X028786Y008858D01*
X028786Y009028D01*
X028559Y009028D01*
X027941Y009437D02*
X027884Y009381D01*
X027714Y009381D01*
X027714Y009721D01*
X027884Y009721D01*
X027941Y009664D01*
X027941Y009608D01*
X027884Y009551D01*
X027714Y009551D01*
X027573Y009608D02*
X027573Y009664D01*
X027516Y009721D01*
X027402Y009721D01*
X027346Y009664D01*
X027573Y009608D02*
X027346Y009381D01*
X027573Y009381D01*
X027884Y009551D02*
X027941Y009494D01*
X027941Y009437D01*
X028559Y010381D02*
X028445Y010494D01*
X028786Y010494D01*
X028786Y010381D02*
X028786Y010608D01*
X028786Y010749D02*
X028445Y010749D01*
X028616Y010806D02*
X028786Y010976D01*
X028672Y010749D02*
X028445Y010976D01*
X027884Y012381D02*
X027714Y012381D01*
X027714Y012721D01*
X027884Y012721D01*
X027941Y012664D01*
X027941Y012608D01*
X027884Y012551D01*
X027714Y012551D01*
X027884Y012551D02*
X027941Y012494D01*
X027941Y012437D01*
X027884Y012381D01*
X027573Y012381D02*
X027346Y012381D01*
X027459Y012381D02*
X027459Y012721D01*
X027346Y012608D01*
X028445Y013437D02*
X028445Y013551D01*
X028502Y013608D01*
X028729Y013381D01*
X028786Y013437D01*
X028786Y013551D01*
X028729Y013608D01*
X028502Y013608D01*
X028445Y013437D02*
X028502Y013381D01*
X028729Y013381D01*
X028729Y013749D02*
X028729Y013806D01*
X028786Y013806D01*
X028786Y013749D01*
X028729Y013749D01*
X028786Y013933D02*
X028786Y014160D01*
X028786Y014047D02*
X028445Y014047D01*
X028559Y013933D01*
X028559Y014301D02*
X028729Y014301D01*
X028786Y014358D01*
X028786Y014528D01*
X028559Y014528D01*
X028466Y016901D02*
X024166Y016901D01*
X024149Y016903D01*
X024132Y016907D01*
X024116Y016914D01*
X024102Y016924D01*
X024089Y016937D01*
X024079Y016951D01*
X024072Y016967D01*
X024068Y016984D01*
X024066Y017001D01*
X024066Y017401D01*
X024066Y018301D02*
X024066Y018701D01*
X024068Y018718D01*
X024072Y018735D01*
X024079Y018751D01*
X024089Y018765D01*
X024102Y018778D01*
X024116Y018788D01*
X024132Y018795D01*
X024149Y018799D01*
X024166Y018801D01*
X028466Y018801D01*
X028483Y018799D01*
X028500Y018795D01*
X028516Y018788D01*
X028530Y018778D01*
X028543Y018765D01*
X028553Y018751D01*
X028560Y018735D01*
X028564Y018718D01*
X028566Y018701D01*
X028566Y018301D01*
X028566Y017401D02*
X028566Y017001D01*
X028564Y016984D01*
X028560Y016967D01*
X028553Y016951D01*
X028543Y016937D01*
X028530Y016924D01*
X028516Y016914D01*
X028500Y016907D01*
X028483Y016903D01*
X028466Y016901D01*
X026566Y017601D02*
X026566Y017851D01*
X026566Y018101D01*
X026416Y018101D02*
X026216Y018101D01*
X026216Y017601D01*
X026416Y017601D01*
X026416Y018101D01*
X026066Y018101D02*
X026066Y017851D01*
X026066Y017601D01*
X026066Y010901D02*
X026016Y009751D01*
X025916Y009651D01*
X022216Y009651D01*
X022116Y009751D01*
X022066Y010901D01*
X020816Y008351D02*
X020818Y008414D01*
X020824Y008476D01*
X020834Y008538D01*
X020847Y008600D01*
X020865Y008660D01*
X020886Y008719D01*
X020911Y008777D01*
X020940Y008833D01*
X020972Y008887D01*
X021007Y008939D01*
X021045Y008988D01*
X021087Y009036D01*
X021131Y009080D01*
X021179Y009122D01*
X021228Y009160D01*
X021280Y009195D01*
X021334Y009227D01*
X021390Y009256D01*
X021448Y009281D01*
X021507Y009302D01*
X021567Y009320D01*
X021629Y009333D01*
X021691Y009343D01*
X021753Y009349D01*
X021816Y009351D01*
X021879Y009349D01*
X021941Y009343D01*
X022003Y009333D01*
X022065Y009320D01*
X022125Y009302D01*
X022184Y009281D01*
X022242Y009256D01*
X022298Y009227D01*
X022352Y009195D01*
X022404Y009160D01*
X022453Y009122D01*
X022501Y009080D01*
X022545Y009036D01*
X022587Y008988D01*
X022625Y008939D01*
X022660Y008887D01*
X022692Y008833D01*
X022721Y008777D01*
X022746Y008719D01*
X022767Y008660D01*
X022785Y008600D01*
X022798Y008538D01*
X022808Y008476D01*
X022814Y008414D01*
X022816Y008351D01*
X022814Y008288D01*
X022808Y008226D01*
X022798Y008164D01*
X022785Y008102D01*
X022767Y008042D01*
X022746Y007983D01*
X022721Y007925D01*
X022692Y007869D01*
X022660Y007815D01*
X022625Y007763D01*
X022587Y007714D01*
X022545Y007666D01*
X022501Y007622D01*
X022453Y007580D01*
X022404Y007542D01*
X022352Y007507D01*
X022298Y007475D01*
X022242Y007446D01*
X022184Y007421D01*
X022125Y007400D01*
X022065Y007382D01*
X022003Y007369D01*
X021941Y007359D01*
X021879Y007353D01*
X021816Y007351D01*
X021753Y007353D01*
X021691Y007359D01*
X021629Y007369D01*
X021567Y007382D01*
X021507Y007400D01*
X021448Y007421D01*
X021390Y007446D01*
X021334Y007475D01*
X021280Y007507D01*
X021228Y007542D01*
X021179Y007580D01*
X021131Y007622D01*
X021087Y007666D01*
X021045Y007714D01*
X021007Y007763D01*
X020972Y007815D01*
X020940Y007869D01*
X020911Y007925D01*
X020886Y007983D01*
X020865Y008042D01*
X020847Y008102D01*
X020834Y008164D01*
X020824Y008226D01*
X020818Y008288D01*
X020816Y008351D01*
X022266Y007851D02*
X022366Y007851D01*
X022366Y007751D01*
X022366Y007851D02*
X022366Y007951D01*
X022366Y007851D02*
X022466Y007851D01*
X019166Y007151D02*
X019166Y015051D01*
X013466Y015051D01*
X013466Y007151D01*
X015816Y007151D01*
X015818Y007195D01*
X015824Y007238D01*
X015833Y007280D01*
X015846Y007322D01*
X015863Y007362D01*
X015883Y007401D01*
X015906Y007438D01*
X015933Y007472D01*
X015962Y007505D01*
X015995Y007534D01*
X016029Y007561D01*
X016066Y007584D01*
X016105Y007604D01*
X016145Y007621D01*
X016187Y007634D01*
X016229Y007643D01*
X016272Y007649D01*
X016316Y007651D01*
X016360Y007649D01*
X016403Y007643D01*
X016445Y007634D01*
X016487Y007621D01*
X016527Y007604D01*
X016566Y007584D01*
X016603Y007561D01*
X016637Y007534D01*
X016670Y007505D01*
X016699Y007472D01*
X016726Y007438D01*
X016749Y007401D01*
X016769Y007362D01*
X016786Y007322D01*
X016799Y007280D01*
X016808Y007238D01*
X016814Y007195D01*
X016816Y007151D01*
X019166Y007151D01*
X018191Y007381D02*
X018191Y007721D01*
X017964Y007721D02*
X017964Y007381D01*
X017823Y007381D02*
X017596Y007381D01*
X017596Y007721D01*
X017823Y007721D01*
X017964Y007721D02*
X018191Y007381D01*
X017709Y007551D02*
X017596Y007551D01*
X017596Y008381D02*
X017596Y008721D01*
X017709Y008608D01*
X017823Y008721D01*
X017823Y008381D01*
X017964Y008381D02*
X018191Y008381D01*
X018077Y008381D02*
X018077Y008721D01*
X017964Y008608D01*
X017964Y009381D02*
X018191Y009608D01*
X018191Y009664D01*
X018134Y009721D01*
X018021Y009721D01*
X017964Y009664D01*
X017823Y009721D02*
X017823Y009381D01*
X017964Y009381D02*
X018191Y009381D01*
X017823Y009721D02*
X017709Y009608D01*
X017596Y009721D01*
X017596Y009381D01*
X017596Y010381D02*
X017596Y010721D01*
X017709Y010608D01*
X017823Y010721D01*
X017823Y010381D01*
X017964Y010437D02*
X018021Y010381D01*
X018134Y010381D01*
X018191Y010437D01*
X018191Y010494D01*
X018134Y010551D01*
X018077Y010551D01*
X018134Y010551D02*
X018191Y010608D01*
X018191Y010664D01*
X018134Y010721D01*
X018021Y010721D01*
X017964Y010664D01*
X018091Y011481D02*
X018091Y011821D01*
X018204Y011821D02*
X017977Y011821D01*
X017836Y011764D02*
X017779Y011821D01*
X017666Y011821D01*
X017609Y011764D01*
X017609Y011708D01*
X017666Y011651D01*
X017779Y011651D01*
X017836Y011594D01*
X017836Y011537D01*
X017779Y011481D01*
X017666Y011481D01*
X017609Y011537D01*
X017468Y011481D02*
X017354Y011594D01*
X017411Y011594D02*
X017241Y011594D01*
X017241Y011481D02*
X017241Y011821D01*
X017411Y011821D01*
X017468Y011764D01*
X017468Y011651D01*
X017411Y011594D01*
X017402Y012381D02*
X017346Y012437D01*
X017402Y012381D02*
X017516Y012381D01*
X017573Y012437D01*
X017573Y012494D01*
X017516Y012551D01*
X017402Y012551D01*
X017346Y012608D01*
X017346Y012664D01*
X017402Y012721D01*
X017516Y012721D01*
X017573Y012664D01*
X017714Y012721D02*
X017714Y012381D01*
X017941Y012381D01*
X018082Y012381D02*
X018082Y012721D01*
X018253Y012721D01*
X018309Y012664D01*
X018309Y012551D01*
X018253Y012494D01*
X018082Y012494D01*
X018059Y013381D02*
X017832Y013381D01*
X017832Y013721D01*
X018059Y013721D01*
X018201Y013721D02*
X018371Y013721D01*
X018428Y013664D01*
X018428Y013551D01*
X018371Y013494D01*
X018201Y013494D01*
X018201Y013381D02*
X018201Y013721D01*
X017946Y013551D02*
X017832Y013551D01*
X017691Y013721D02*
X017464Y013721D01*
X017577Y013721D02*
X017577Y013381D01*
X017323Y013437D02*
X017266Y013381D01*
X017152Y013381D01*
X017096Y013437D01*
X017152Y013551D02*
X017266Y013551D01*
X017323Y013494D01*
X017323Y013437D01*
X017152Y013551D02*
X017096Y013608D01*
X017096Y013664D01*
X017152Y013721D01*
X017266Y013721D01*
X017323Y013664D01*
X017596Y014381D02*
X017766Y014381D01*
X017823Y014437D01*
X017823Y014664D01*
X017766Y014721D01*
X017596Y014721D01*
X017596Y014381D01*
X017964Y014381D02*
X018077Y014381D01*
X018021Y014381D02*
X018021Y014721D01*
X018077Y014721D02*
X017964Y014721D01*
X018210Y014721D02*
X018210Y014381D01*
X018210Y014494D02*
X018380Y014494D01*
X018436Y014551D01*
X018436Y014664D01*
X018380Y014721D01*
X018210Y014721D01*
X018323Y014494D02*
X018436Y014381D01*
X015786Y014358D02*
X015786Y014528D01*
X015559Y014528D01*
X015559Y014301D02*
X015729Y014301D01*
X015786Y014358D01*
X015786Y014160D02*
X015786Y013933D01*
X015786Y014047D02*
X015445Y014047D01*
X015559Y013933D01*
X015729Y013806D02*
X015786Y013806D01*
X015786Y013749D01*
X015729Y013749D01*
X015729Y013806D01*
X015729Y013608D02*
X015502Y013608D01*
X015729Y013381D01*
X015786Y013437D01*
X015786Y013551D01*
X015729Y013608D01*
X015502Y013608D02*
X015445Y013551D01*
X015445Y013437D01*
X015502Y013381D01*
X015729Y013381D01*
X014941Y012664D02*
X014941Y012608D01*
X014884Y012551D01*
X014714Y012551D01*
X014714Y012381D02*
X014714Y012721D01*
X014884Y012721D01*
X014941Y012664D01*
X014884Y012551D02*
X014941Y012494D01*
X014941Y012437D01*
X014884Y012381D01*
X014714Y012381D01*
X014573Y012381D02*
X014346Y012381D01*
X014459Y012381D02*
X014459Y012721D01*
X014346Y012608D01*
X015445Y010976D02*
X015672Y010749D01*
X015616Y010806D02*
X015786Y010976D01*
X015786Y010749D02*
X015445Y010749D01*
X015445Y010494D02*
X015786Y010494D01*
X015786Y010381D02*
X015786Y010608D01*
X015559Y010381D02*
X015445Y010494D01*
X014884Y009721D02*
X014941Y009664D01*
X014941Y009608D01*
X014884Y009551D01*
X014714Y009551D01*
X014573Y009608D02*
X014346Y009381D01*
X014573Y009381D01*
X014714Y009381D02*
X014714Y009721D01*
X014884Y009721D01*
X014884Y009551D02*
X014941Y009494D01*
X014941Y009437D01*
X014884Y009381D01*
X014714Y009381D01*
X014573Y009608D02*
X014573Y009664D01*
X014516Y009721D01*
X014402Y009721D01*
X014346Y009664D01*
X015559Y009028D02*
X015786Y009028D01*
X015786Y008858D01*
X015729Y008801D01*
X015559Y008801D01*
X015786Y008660D02*
X015786Y008433D01*
X015786Y008547D02*
X015445Y008547D01*
X015559Y008433D01*
X015729Y008306D02*
X015786Y008306D01*
X015786Y008249D01*
X015729Y008249D01*
X015729Y008306D01*
X015729Y008108D02*
X015502Y008108D01*
X015729Y007881D01*
X015786Y007937D01*
X015786Y008051D01*
X015729Y008108D01*
X015502Y008108D02*
X015445Y008051D01*
X015445Y007937D01*
X015502Y007881D01*
X015729Y007881D01*
X013016Y009751D02*
X013066Y010901D01*
X013016Y009751D02*
X012916Y009651D01*
X009216Y009651D01*
X009116Y009751D01*
X009066Y010901D01*
X007816Y008351D02*
X007818Y008414D01*
X007824Y008476D01*
X007834Y008538D01*
X007847Y008600D01*
X007865Y008660D01*
X007886Y008719D01*
X007911Y008777D01*
X007940Y008833D01*
X007972Y008887D01*
X008007Y008939D01*
X008045Y008988D01*
X008087Y009036D01*
X008131Y009080D01*
X008179Y009122D01*
X008228Y009160D01*
X008280Y009195D01*
X008334Y009227D01*
X008390Y009256D01*
X008448Y009281D01*
X008507Y009302D01*
X008567Y009320D01*
X008629Y009333D01*
X008691Y009343D01*
X008753Y009349D01*
X008816Y009351D01*
X008879Y009349D01*
X008941Y009343D01*
X009003Y009333D01*
X009065Y009320D01*
X009125Y009302D01*
X009184Y009281D01*
X009242Y009256D01*
X009298Y009227D01*
X009352Y009195D01*
X009404Y009160D01*
X009453Y009122D01*
X009501Y009080D01*
X009545Y009036D01*
X009587Y008988D01*
X009625Y008939D01*
X009660Y008887D01*
X009692Y008833D01*
X009721Y008777D01*
X009746Y008719D01*
X009767Y008660D01*
X009785Y008600D01*
X009798Y008538D01*
X009808Y008476D01*
X009814Y008414D01*
X009816Y008351D01*
X009814Y008288D01*
X009808Y008226D01*
X009798Y008164D01*
X009785Y008102D01*
X009767Y008042D01*
X009746Y007983D01*
X009721Y007925D01*
X009692Y007869D01*
X009660Y007815D01*
X009625Y007763D01*
X009587Y007714D01*
X009545Y007666D01*
X009501Y007622D01*
X009453Y007580D01*
X009404Y007542D01*
X009352Y007507D01*
X009298Y007475D01*
X009242Y007446D01*
X009184Y007421D01*
X009125Y007400D01*
X009065Y007382D01*
X009003Y007369D01*
X008941Y007359D01*
X008879Y007353D01*
X008816Y007351D01*
X008753Y007353D01*
X008691Y007359D01*
X008629Y007369D01*
X008567Y007382D01*
X008507Y007400D01*
X008448Y007421D01*
X008390Y007446D01*
X008334Y007475D01*
X008280Y007507D01*
X008228Y007542D01*
X008179Y007580D01*
X008131Y007622D01*
X008087Y007666D01*
X008045Y007714D01*
X008007Y007763D01*
X007972Y007815D01*
X007940Y007869D01*
X007911Y007925D01*
X007886Y007983D01*
X007865Y008042D01*
X007847Y008102D01*
X007834Y008164D01*
X007824Y008226D01*
X007818Y008288D01*
X007816Y008351D01*
X009266Y007851D02*
X009366Y007851D01*
X009366Y007751D01*
X009366Y007851D02*
X009366Y007951D01*
X009366Y007851D02*
X009466Y007851D01*
X034316Y008351D02*
X034318Y008414D01*
X034324Y008476D01*
X034334Y008538D01*
X034347Y008600D01*
X034365Y008660D01*
X034386Y008719D01*
X034411Y008777D01*
X034440Y008833D01*
X034472Y008887D01*
X034507Y008939D01*
X034545Y008988D01*
X034587Y009036D01*
X034631Y009080D01*
X034679Y009122D01*
X034728Y009160D01*
X034780Y009195D01*
X034834Y009227D01*
X034890Y009256D01*
X034948Y009281D01*
X035007Y009302D01*
X035067Y009320D01*
X035129Y009333D01*
X035191Y009343D01*
X035253Y009349D01*
X035316Y009351D01*
X035379Y009349D01*
X035441Y009343D01*
X035503Y009333D01*
X035565Y009320D01*
X035625Y009302D01*
X035684Y009281D01*
X035742Y009256D01*
X035798Y009227D01*
X035852Y009195D01*
X035904Y009160D01*
X035953Y009122D01*
X036001Y009080D01*
X036045Y009036D01*
X036087Y008988D01*
X036125Y008939D01*
X036160Y008887D01*
X036192Y008833D01*
X036221Y008777D01*
X036246Y008719D01*
X036267Y008660D01*
X036285Y008600D01*
X036298Y008538D01*
X036308Y008476D01*
X036314Y008414D01*
X036316Y008351D01*
X036314Y008288D01*
X036308Y008226D01*
X036298Y008164D01*
X036285Y008102D01*
X036267Y008042D01*
X036246Y007983D01*
X036221Y007925D01*
X036192Y007869D01*
X036160Y007815D01*
X036125Y007763D01*
X036087Y007714D01*
X036045Y007666D01*
X036001Y007622D01*
X035953Y007580D01*
X035904Y007542D01*
X035852Y007507D01*
X035798Y007475D01*
X035742Y007446D01*
X035684Y007421D01*
X035625Y007400D01*
X035565Y007382D01*
X035503Y007369D01*
X035441Y007359D01*
X035379Y007353D01*
X035316Y007351D01*
X035253Y007353D01*
X035191Y007359D01*
X035129Y007369D01*
X035067Y007382D01*
X035007Y007400D01*
X034948Y007421D01*
X034890Y007446D01*
X034834Y007475D01*
X034780Y007507D01*
X034728Y007542D01*
X034679Y007580D01*
X034631Y007622D01*
X034587Y007666D01*
X034545Y007714D01*
X034507Y007763D01*
X034472Y007815D01*
X034440Y007869D01*
X034411Y007925D01*
X034386Y007983D01*
X034365Y008042D01*
X034347Y008102D01*
X034334Y008164D01*
X034324Y008226D01*
X034318Y008288D01*
X034316Y008351D01*
X035766Y007851D02*
X035866Y007851D01*
X035866Y007751D01*
X035866Y007851D02*
X035866Y007951D01*
X035866Y007851D02*
X035966Y007851D01*
X036852Y007991D02*
X036852Y008071D01*
X040781Y008071D01*
X040781Y007991D01*
X040781Y005391D01*
X040781Y004451D01*
X036852Y004451D01*
X036852Y005391D01*
X036852Y007991D01*
X040781Y007991D01*
X039601Y007471D02*
X039603Y007499D01*
X039609Y007526D01*
X039618Y007552D01*
X039631Y007577D01*
X039648Y007600D01*
X039667Y007620D01*
X039689Y007637D01*
X039713Y007651D01*
X039739Y007661D01*
X039766Y007668D01*
X039794Y007671D01*
X039822Y007670D01*
X039849Y007665D01*
X039876Y007656D01*
X039901Y007644D01*
X039924Y007629D01*
X039945Y007610D01*
X039963Y007589D01*
X039978Y007565D01*
X039989Y007539D01*
X039997Y007513D01*
X040001Y007485D01*
X040001Y007457D01*
X039997Y007429D01*
X039989Y007403D01*
X039978Y007377D01*
X039963Y007353D01*
X039945Y007332D01*
X039924Y007313D01*
X039901Y007298D01*
X039876Y007286D01*
X039849Y007277D01*
X039822Y007272D01*
X039794Y007271D01*
X039766Y007274D01*
X039739Y007281D01*
X039713Y007291D01*
X039689Y007305D01*
X039667Y007322D01*
X039648Y007342D01*
X039631Y007365D01*
X039618Y007390D01*
X039609Y007416D01*
X039603Y007443D01*
X039601Y007471D01*
X037631Y007471D02*
X037633Y007499D01*
X037639Y007526D01*
X037648Y007552D01*
X037661Y007577D01*
X037678Y007600D01*
X037697Y007620D01*
X037719Y007637D01*
X037743Y007651D01*
X037769Y007661D01*
X037796Y007668D01*
X037824Y007671D01*
X037852Y007670D01*
X037879Y007665D01*
X037906Y007656D01*
X037931Y007644D01*
X037954Y007629D01*
X037975Y007610D01*
X037993Y007589D01*
X038008Y007565D01*
X038019Y007539D01*
X038027Y007513D01*
X038031Y007485D01*
X038031Y007457D01*
X038027Y007429D01*
X038019Y007403D01*
X038008Y007377D01*
X037993Y007353D01*
X037975Y007332D01*
X037954Y007313D01*
X037931Y007298D01*
X037906Y007286D01*
X037879Y007277D01*
X037852Y007272D01*
X037824Y007271D01*
X037796Y007274D01*
X037769Y007281D01*
X037743Y007291D01*
X037719Y007305D01*
X037697Y007322D01*
X037678Y007342D01*
X037661Y007365D01*
X037648Y007390D01*
X037639Y007416D01*
X037633Y007443D01*
X037631Y007471D01*
X037481Y005391D02*
X036852Y005391D01*
X038181Y005391D02*
X039452Y005391D01*
X040152Y005391D02*
X040781Y005391D01*
X040666Y009901D02*
X036966Y009901D01*
X036866Y010001D01*
X036816Y011151D01*
X040816Y011151D02*
X040766Y010001D01*
X040666Y009901D01*
D12*
X039846Y009741D02*
X039846Y009671D01*
X039776Y009601D01*
X039846Y009531D01*
X039846Y009461D01*
X039776Y009391D01*
X039636Y009391D01*
X039566Y009461D01*
X039721Y009422D02*
X039721Y009362D01*
X039721Y009422D02*
X037910Y009422D01*
X037910Y009362D01*
X037910Y008339D02*
X037910Y008280D01*
X039721Y008280D01*
X039721Y008339D01*
X039052Y008457D02*
X039052Y009244D01*
X039106Y009391D02*
X039316Y009391D01*
X039386Y009461D01*
X039386Y009741D01*
X039316Y009811D01*
X039106Y009811D01*
X039106Y009391D01*
X039566Y009741D02*
X039636Y009811D01*
X039776Y009811D01*
X039846Y009741D01*
X039776Y009601D02*
X039706Y009601D01*
X039925Y011641D02*
X039925Y012061D01*
X039715Y011851D01*
X039995Y011851D01*
X040175Y011991D02*
X040245Y012061D01*
X040385Y012061D01*
X040455Y011991D01*
X040455Y011921D01*
X040385Y011851D01*
X040455Y011781D01*
X040455Y011711D01*
X040385Y011641D01*
X040245Y011641D01*
X040175Y011711D01*
X040315Y011851D02*
X040385Y011851D01*
X039534Y011991D02*
X039254Y011711D01*
X039254Y011641D01*
X039074Y011711D02*
X039004Y011641D01*
X038864Y011641D01*
X038794Y011711D01*
X038794Y011781D01*
X038864Y011851D01*
X039004Y011851D01*
X039074Y011781D01*
X039074Y011711D01*
X039004Y011851D02*
X039074Y011921D01*
X039074Y011991D01*
X039004Y012061D01*
X038864Y012061D01*
X038794Y011991D01*
X038794Y011921D01*
X038864Y011851D01*
X038614Y011641D02*
X038333Y011641D01*
X038333Y012061D01*
X038153Y011991D02*
X038153Y011921D01*
X038083Y011851D01*
X037873Y011851D01*
X037693Y011851D02*
X037623Y011781D01*
X037413Y011781D01*
X037553Y011781D02*
X037693Y011641D01*
X037873Y011641D02*
X038083Y011641D01*
X038153Y011711D01*
X038153Y011781D01*
X038083Y011851D01*
X038153Y011991D02*
X038083Y012061D01*
X037873Y012061D01*
X037873Y011641D01*
X037693Y011851D02*
X037693Y011991D01*
X037623Y012061D01*
X037413Y012061D01*
X037413Y011641D01*
X037246Y011641D02*
X037106Y011641D01*
X037176Y011641D02*
X037176Y012061D01*
X037106Y012061D02*
X037246Y012061D01*
X035557Y012641D02*
X035417Y012781D01*
X035487Y012781D02*
X035277Y012781D01*
X035277Y012641D02*
X035277Y013061D01*
X035487Y013061D01*
X035557Y012991D01*
X035557Y012851D01*
X035487Y012781D01*
X035096Y012711D02*
X035026Y012641D01*
X034886Y012641D01*
X034816Y012711D01*
X035096Y012991D01*
X035096Y012711D01*
X034816Y012711D02*
X034816Y012991D01*
X034886Y013061D01*
X035026Y013061D01*
X035096Y012991D01*
X034636Y012641D02*
X034356Y012641D01*
X034496Y012641D02*
X034496Y013061D01*
X034356Y012921D01*
X034566Y011061D02*
X034356Y010851D01*
X034636Y010851D01*
X034816Y010781D02*
X035096Y011061D01*
X035277Y011061D02*
X035557Y011061D01*
X035557Y010991D01*
X035277Y010711D01*
X035277Y010641D01*
X035096Y010641D02*
X034886Y010851D01*
X034816Y011061D02*
X034816Y010641D01*
X034566Y010641D02*
X034566Y011061D01*
X033855Y009302D02*
X033855Y009022D01*
X034276Y009022D01*
X034276Y008842D02*
X033996Y008842D01*
X034066Y009022D02*
X034066Y009162D01*
X034276Y008842D02*
X034276Y008631D01*
X034206Y008561D01*
X033996Y008561D01*
X033925Y008381D02*
X034206Y008101D01*
X034276Y008171D01*
X034276Y008311D01*
X034206Y008381D01*
X033925Y008381D01*
X033855Y008311D01*
X033855Y008171D01*
X033925Y008101D01*
X034206Y008101D01*
X034276Y007921D02*
X034276Y007641D01*
X034276Y007781D02*
X033855Y007781D01*
X033996Y007641D01*
X032355Y006939D02*
X032355Y004498D01*
X026410Y004498D01*
X026410Y006939D01*
X032355Y006939D01*
X032355Y004498D02*
X032355Y004183D01*
X026410Y004183D01*
X026410Y004498D01*
X026005Y004262D02*
X026005Y006703D01*
X023249Y006703D01*
X023249Y007018D01*
X026005Y007018D01*
X026005Y006703D01*
X025471Y007530D02*
X023660Y007530D01*
X023660Y007589D01*
X022886Y007601D02*
X022606Y007601D01*
X022746Y007741D02*
X022746Y007461D01*
X023249Y006703D02*
X023249Y004262D01*
X026005Y004262D01*
X025471Y007530D02*
X025471Y007589D01*
X024802Y007707D02*
X024802Y008494D01*
X024856Y008641D02*
X025066Y008641D01*
X025136Y008711D01*
X025136Y008991D01*
X025066Y009061D01*
X024856Y009061D01*
X024856Y008641D01*
X025316Y008641D02*
X025596Y008921D01*
X025596Y008991D01*
X025526Y009061D01*
X025386Y009061D01*
X025316Y008991D01*
X025316Y008641D02*
X025596Y008641D01*
X025471Y008672D02*
X025471Y008612D01*
X025471Y008672D02*
X023660Y008672D01*
X023660Y008612D01*
X020776Y008631D02*
X020706Y008561D01*
X020496Y008561D01*
X020425Y008381D02*
X020706Y008381D01*
X020776Y008311D01*
X020776Y008171D01*
X020706Y008101D01*
X020425Y008381D01*
X020355Y008311D01*
X020355Y008171D01*
X020425Y008101D01*
X020706Y008101D01*
X020776Y007921D02*
X020776Y007641D01*
X020776Y007781D02*
X020355Y007781D01*
X020496Y007641D01*
X020776Y008631D02*
X020776Y008842D01*
X020496Y008842D01*
X020566Y009022D02*
X020566Y009162D01*
X020776Y009022D02*
X020355Y009022D01*
X020355Y009302D01*
X020346Y010891D02*
X020136Y011101D01*
X020066Y011031D02*
X020346Y011311D01*
X020527Y011311D02*
X020807Y011311D01*
X020807Y011241D01*
X020527Y010961D01*
X020527Y010891D01*
X020066Y010891D02*
X020066Y011311D01*
X019816Y011311D02*
X019606Y011101D01*
X019886Y011101D01*
X019816Y010891D02*
X019816Y011311D01*
X019886Y012891D02*
X019606Y012891D01*
X019746Y012891D02*
X019746Y013311D01*
X019606Y013171D01*
X020066Y013241D02*
X020066Y012961D01*
X020346Y013241D01*
X020346Y012961D01*
X020276Y012891D01*
X020136Y012891D01*
X020066Y012961D01*
X020066Y013241D02*
X020136Y013311D01*
X020276Y013311D01*
X020346Y013241D01*
X020527Y013311D02*
X020527Y012891D01*
X020527Y013031D02*
X020737Y013031D01*
X020807Y013101D01*
X020807Y013241D01*
X020737Y013311D01*
X020527Y013311D01*
X020667Y013031D02*
X020807Y012891D01*
X022606Y011811D02*
X022746Y011811D01*
X022676Y011811D02*
X022676Y011391D01*
X022606Y011391D02*
X022746Y011391D01*
X022913Y011391D02*
X022913Y011811D01*
X023123Y011811D01*
X023193Y011741D01*
X023193Y011601D01*
X023123Y011531D01*
X022913Y011531D01*
X023053Y011531D02*
X023193Y011391D01*
X023373Y011391D02*
X023373Y011811D01*
X023653Y011811D01*
X023833Y011811D02*
X024114Y011811D01*
X024114Y011741D01*
X023833Y011461D01*
X023833Y011391D01*
X024114Y011391D01*
X024294Y011601D02*
X024574Y011601D01*
X024754Y011601D02*
X025034Y011601D01*
X024964Y011391D02*
X024964Y011811D01*
X024754Y011601D01*
X024504Y011391D02*
X024504Y011811D01*
X024294Y011601D01*
X023513Y011601D02*
X023373Y011601D01*
X025215Y011391D02*
X025215Y011811D01*
X025495Y011391D01*
X025495Y011811D01*
X023526Y015641D02*
X023246Y015921D01*
X023175Y015921D01*
X023105Y015851D01*
X023105Y015711D01*
X023175Y015641D01*
X023526Y015641D02*
X023526Y015921D01*
X023526Y016101D02*
X023246Y016381D01*
X023175Y016381D01*
X023105Y016311D01*
X023105Y016171D01*
X023175Y016101D01*
X023526Y016101D02*
X023526Y016381D01*
X023526Y016561D02*
X023526Y016772D01*
X023456Y016842D01*
X023316Y016842D01*
X023246Y016772D01*
X023246Y016561D01*
X023666Y016561D01*
X023728Y018391D02*
X023447Y018391D01*
X023728Y018671D01*
X023447Y018671D01*
X023267Y018601D02*
X023267Y018391D01*
X023267Y018601D02*
X023197Y018671D01*
X023057Y018671D01*
X022987Y018601D01*
X022987Y018811D02*
X022987Y018391D01*
X022807Y018391D02*
X022807Y018811D01*
X022667Y018671D01*
X022527Y018811D01*
X022527Y018391D01*
X022346Y018461D02*
X022346Y018741D01*
X022066Y018461D01*
X022136Y018391D01*
X022276Y018391D01*
X022346Y018461D01*
X022066Y018461D02*
X022066Y018741D01*
X022136Y018811D01*
X022276Y018811D01*
X022346Y018741D01*
X021886Y018741D02*
X021816Y018811D01*
X021676Y018811D01*
X021606Y018741D01*
X021886Y018741D02*
X021886Y018671D01*
X021606Y018391D01*
X021886Y018391D01*
X020645Y022891D02*
X020645Y023311D01*
X020856Y023311D01*
X020926Y023241D01*
X020926Y023101D01*
X020856Y023031D01*
X020645Y023031D01*
X020465Y023101D02*
X020185Y023101D01*
X020395Y023311D01*
X020395Y022891D01*
X020005Y022961D02*
X019935Y022891D01*
X019795Y022891D01*
X019725Y022961D01*
X019725Y023031D01*
X019795Y023101D01*
X019935Y023101D01*
X020005Y023031D01*
X020005Y022961D01*
X019935Y023101D02*
X020005Y023171D01*
X020005Y023241D01*
X019935Y023311D01*
X019795Y023311D01*
X019725Y023241D01*
X019725Y023171D01*
X019795Y023101D01*
X019544Y023171D02*
X019544Y023241D01*
X019474Y023311D01*
X019334Y023311D01*
X019264Y023241D01*
X019544Y023171D02*
X019264Y022891D01*
X019544Y022891D01*
X019084Y022891D02*
X018804Y022891D01*
X018944Y022891D02*
X018944Y023311D01*
X018804Y023171D01*
X018624Y023171D02*
X018624Y022891D01*
X018624Y023101D02*
X018343Y023101D01*
X018343Y023171D02*
X018343Y022891D01*
X018163Y022961D02*
X018163Y023101D01*
X018023Y023101D01*
X017883Y023241D02*
X017883Y022961D01*
X017953Y022891D01*
X018093Y022891D01*
X018163Y022961D01*
X018343Y023171D02*
X018484Y023311D01*
X018624Y023171D01*
X018163Y023241D02*
X018093Y023311D01*
X017953Y023311D01*
X017883Y023241D01*
X017703Y023311D02*
X017423Y023311D01*
X017423Y022891D01*
X017703Y022891D01*
X017563Y023101D02*
X017423Y023101D01*
X017242Y023311D02*
X017242Y022891D01*
X016962Y022891D02*
X016962Y023311D01*
X017102Y023171D01*
X017242Y023311D01*
X016782Y023311D02*
X016502Y023311D01*
X016642Y023311D02*
X016642Y022891D01*
X016322Y022891D02*
X016322Y023171D01*
X016182Y023311D01*
X016041Y023171D01*
X016041Y022891D01*
X016041Y023101D02*
X016322Y023101D01*
X013337Y023717D02*
X013337Y021985D01*
X012747Y021985D01*
X012747Y023717D01*
X013337Y023717D01*
X013337Y026827D01*
X009794Y026827D01*
X009794Y018874D01*
X009833Y018874D02*
X013337Y018874D01*
X013337Y021985D01*
X012658Y021101D02*
X012658Y020601D01*
X012658Y018561D02*
X012868Y018561D01*
X012938Y018491D01*
X012938Y018211D01*
X012868Y018141D01*
X012658Y018141D01*
X012658Y018561D01*
X012478Y018491D02*
X012407Y018561D01*
X012267Y018561D01*
X012197Y018491D01*
X012197Y018421D01*
X012267Y018351D01*
X012407Y018351D01*
X012478Y018281D01*
X012478Y018211D01*
X012407Y018141D01*
X012267Y018141D01*
X012197Y018211D01*
X012017Y018561D02*
X011737Y018141D01*
X011557Y018211D02*
X011557Y018491D01*
X011487Y018561D01*
X011277Y018561D01*
X011277Y018141D01*
X011487Y018141D01*
X011557Y018211D01*
X011096Y018211D02*
X011026Y018141D01*
X010886Y018141D01*
X010816Y018211D01*
X010816Y018491D01*
X010886Y018561D01*
X011026Y018561D01*
X011096Y018491D01*
X010636Y018141D02*
X010356Y018141D01*
X010356Y018561D01*
X007983Y018662D02*
X007668Y018662D01*
X007668Y021418D01*
X007983Y021418D01*
X007983Y018662D01*
X007668Y018662D02*
X005227Y018662D01*
X005227Y021418D01*
X007668Y021418D01*
X007668Y017918D02*
X005227Y017918D01*
X005227Y015162D01*
X007668Y015162D01*
X007668Y017918D01*
X007983Y017918D01*
X007983Y015162D01*
X007668Y015162D01*
X007668Y014418D02*
X007668Y011662D01*
X005227Y011662D01*
X005227Y014418D01*
X007668Y014418D01*
X007983Y014418D01*
X007983Y011662D01*
X007668Y011662D01*
X008105Y011052D02*
X008105Y010772D01*
X008526Y010772D01*
X008526Y010592D02*
X008246Y010592D01*
X008316Y010772D02*
X008316Y010912D01*
X008526Y010592D02*
X008526Y010381D01*
X008456Y010311D01*
X008246Y010311D01*
X008175Y010131D02*
X008456Y009851D01*
X008526Y009921D01*
X008526Y010061D01*
X008456Y010131D01*
X008175Y010131D01*
X008105Y010061D01*
X008105Y009921D01*
X008175Y009851D01*
X008456Y009851D01*
X008526Y009671D02*
X008526Y009391D01*
X008526Y009531D02*
X008105Y009531D01*
X008246Y009391D01*
X009746Y007741D02*
X009746Y007461D01*
X009606Y007601D02*
X009886Y007601D01*
X010249Y007018D02*
X013005Y007018D01*
X013005Y006703D01*
X010249Y006703D01*
X010249Y007018D01*
X010249Y006703D02*
X010249Y004262D01*
X013005Y004262D01*
X013005Y006703D01*
X013410Y006939D02*
X013410Y004498D01*
X019355Y004498D01*
X019355Y004183D01*
X013410Y004183D01*
X013410Y004498D01*
X013410Y006939D02*
X019355Y006939D01*
X019355Y004498D01*
X012471Y007530D02*
X010660Y007530D01*
X010660Y007589D01*
X010660Y008612D02*
X010660Y008672D01*
X012471Y008672D01*
X012471Y008612D01*
X012456Y008641D02*
X012456Y009061D01*
X012316Y008921D01*
X012136Y008991D02*
X012066Y009061D01*
X011856Y009061D01*
X011856Y008641D01*
X012066Y008641D01*
X012136Y008711D01*
X012136Y008991D01*
X012316Y008641D02*
X012596Y008641D01*
X011802Y008494D02*
X011802Y007707D01*
X012471Y007589D02*
X012471Y007530D01*
X012465Y011391D02*
X012465Y011811D01*
X012745Y011391D01*
X012745Y011811D01*
X012284Y011601D02*
X012004Y011601D01*
X012214Y011811D01*
X012214Y011391D01*
X011824Y011601D02*
X011544Y011601D01*
X011754Y011811D01*
X011754Y011391D01*
X011364Y011391D02*
X011083Y011391D01*
X011083Y011461D01*
X011364Y011741D01*
X011364Y011811D01*
X011083Y011811D01*
X010903Y011811D02*
X010623Y011811D01*
X010623Y011391D01*
X010443Y011391D02*
X010303Y011531D01*
X010373Y011531D02*
X010163Y011531D01*
X010163Y011391D02*
X010163Y011811D01*
X010373Y011811D01*
X010443Y011741D01*
X010443Y011601D01*
X010373Y011531D01*
X010623Y011601D02*
X010763Y011601D01*
X009996Y011811D02*
X009856Y011811D01*
X009926Y011811D02*
X009926Y011391D01*
X009856Y011391D02*
X009996Y011391D01*
X010356Y013141D02*
X010636Y013141D01*
X010496Y013141D02*
X010496Y013561D01*
X010356Y013421D01*
X010816Y013491D02*
X010886Y013561D01*
X011026Y013561D01*
X011096Y013491D01*
X010816Y013211D01*
X010886Y013141D01*
X011026Y013141D01*
X011096Y013211D01*
X011096Y013491D01*
X011277Y013561D02*
X011277Y013141D01*
X011277Y013281D02*
X011487Y013281D01*
X011557Y013351D01*
X011557Y013491D01*
X011487Y013561D01*
X011277Y013561D01*
X011417Y013281D02*
X011557Y013141D01*
X010816Y013211D02*
X010816Y013491D01*
X010816Y015141D02*
X010816Y015561D01*
X010886Y015351D02*
X011096Y015141D01*
X011277Y015141D02*
X011277Y015211D01*
X011557Y015491D01*
X011557Y015561D01*
X011277Y015561D01*
X011096Y015561D02*
X010816Y015281D01*
X010636Y015351D02*
X010356Y015351D01*
X010566Y015561D01*
X010566Y015141D01*
X021675Y027141D02*
X021605Y027211D01*
X021605Y027351D01*
X021675Y027421D01*
X021956Y027141D01*
X022026Y027211D01*
X022026Y027351D01*
X021956Y027421D01*
X021675Y027421D01*
X021675Y027141D02*
X021956Y027141D01*
X021956Y027601D02*
X021956Y027671D01*
X022026Y027671D01*
X022026Y027601D01*
X021956Y027601D01*
X022026Y027831D02*
X022026Y028111D01*
X022026Y027971D02*
X021605Y027971D01*
X021746Y027831D01*
X021746Y028292D02*
X021956Y028292D01*
X022026Y028362D01*
X022026Y028572D01*
X021746Y028572D01*
X023605Y027971D02*
X024026Y027971D01*
X024026Y027831D02*
X024026Y028111D01*
X023956Y028292D02*
X023746Y028292D01*
X023956Y028292D02*
X024026Y028362D01*
X024026Y028572D01*
X023746Y028572D01*
X023605Y027971D02*
X023746Y027831D01*
X023956Y027671D02*
X024026Y027671D01*
X024026Y027601D01*
X023956Y027601D01*
X023956Y027671D01*
X023956Y027421D02*
X024026Y027351D01*
X024026Y027211D01*
X023956Y027141D01*
X023675Y027421D01*
X023956Y027421D01*
X023956Y027141D02*
X023675Y027141D01*
X023605Y027211D01*
X023605Y027351D01*
X023675Y027421D01*
X025605Y027281D02*
X025746Y027141D01*
X025605Y027281D02*
X026026Y027281D01*
X026026Y027141D02*
X026026Y027421D01*
X025956Y027601D02*
X025675Y027881D01*
X025956Y027881D01*
X026026Y027811D01*
X026026Y027671D01*
X025956Y027601D01*
X025675Y027601D01*
X025605Y027671D01*
X025605Y027811D01*
X025675Y027881D01*
X025605Y028061D02*
X025605Y028272D01*
X025675Y028342D01*
X025816Y028342D01*
X025886Y028272D01*
X025886Y028061D01*
X026026Y028061D02*
X025605Y028061D01*
X025886Y028202D02*
X026026Y028342D01*
X024456Y030779D02*
X024175Y030779D01*
X024105Y030849D01*
X024105Y030989D01*
X024175Y031060D01*
X024456Y030779D01*
X024526Y030849D01*
X024526Y030989D01*
X024456Y031060D01*
X024175Y031060D01*
X024456Y031240D02*
X024456Y031310D01*
X024526Y031310D01*
X024526Y031240D01*
X024456Y031240D01*
X024526Y031470D02*
X024526Y031750D01*
X024526Y031610D02*
X024105Y031610D01*
X024246Y031470D01*
X024246Y031930D02*
X024456Y031930D01*
X024526Y032000D01*
X024526Y032210D01*
X024246Y032210D01*
X024246Y033891D02*
X024105Y034031D01*
X024526Y034031D01*
X024526Y033891D02*
X024526Y034171D01*
X024526Y034351D02*
X024105Y034351D01*
X024316Y034421D02*
X024526Y034631D01*
X024386Y034351D02*
X024105Y034631D01*
X024175Y036529D02*
X024105Y036599D01*
X024105Y036739D01*
X024175Y036810D01*
X024456Y036529D01*
X024526Y036599D01*
X024526Y036739D01*
X024456Y036810D01*
X024175Y036810D01*
X024175Y036529D02*
X024456Y036529D01*
X024456Y036990D02*
X024456Y037060D01*
X024526Y037060D01*
X024526Y036990D01*
X024456Y036990D01*
X024526Y037220D02*
X024526Y037500D01*
X024526Y037360D02*
X024105Y037360D01*
X024246Y037220D01*
X024246Y037680D02*
X024456Y037680D01*
X024526Y037750D01*
X024526Y037960D01*
X024246Y037960D01*
X026721Y038762D02*
X026721Y041203D01*
X020776Y041203D01*
X020776Y041518D01*
X026721Y041518D01*
X026721Y041203D01*
X027249Y041203D02*
X027249Y041518D01*
X030005Y041518D01*
X030005Y041203D01*
X027249Y041203D01*
X027249Y038762D01*
X030005Y038762D01*
X030005Y041203D01*
X030475Y041141D02*
X030755Y041421D01*
X030755Y041491D01*
X030685Y041561D01*
X030545Y041561D01*
X030475Y041491D01*
X030475Y041141D02*
X030755Y041141D01*
X030935Y041141D02*
X031215Y041421D01*
X031215Y041491D01*
X031145Y041561D01*
X031005Y041561D01*
X030935Y041491D01*
X030935Y041141D02*
X031215Y041141D01*
X031395Y041141D02*
X031606Y041141D01*
X031676Y041211D01*
X031676Y041351D01*
X031606Y041421D01*
X031395Y041421D01*
X031395Y041001D01*
X032855Y038342D02*
X033136Y038061D01*
X033066Y038131D02*
X033276Y038342D01*
X033276Y038061D02*
X032855Y038061D01*
X032925Y037881D02*
X033206Y037601D01*
X033276Y037671D01*
X033276Y037811D01*
X033206Y037881D01*
X032925Y037881D01*
X032855Y037811D01*
X032855Y037671D01*
X032925Y037601D01*
X033206Y037601D01*
X033276Y037421D02*
X033276Y037141D01*
X033276Y037281D02*
X032855Y037281D01*
X032996Y037141D01*
X032676Y036811D02*
X032395Y036531D01*
X032465Y036601D02*
X032676Y036391D01*
X032395Y036391D02*
X032395Y036811D01*
X032075Y036811D02*
X032075Y036391D01*
X031935Y036391D02*
X032215Y036391D01*
X031935Y036671D02*
X032075Y036811D01*
X033435Y036671D02*
X033575Y036811D01*
X033575Y036391D01*
X033435Y036391D02*
X033715Y036391D01*
X033895Y036391D02*
X033895Y036811D01*
X033965Y036601D02*
X034176Y036391D01*
X033895Y036531D02*
X034176Y036811D01*
X034796Y037136D02*
X034796Y034144D01*
X039835Y034144D01*
X039835Y037136D01*
X034796Y037136D01*
X035606Y035561D02*
X035746Y035421D01*
X035886Y035561D01*
X035886Y035141D01*
X036066Y035211D02*
X036136Y035141D01*
X036276Y035141D01*
X036346Y035211D01*
X036527Y035281D02*
X036737Y035281D01*
X036807Y035351D01*
X036807Y035491D01*
X036737Y035561D01*
X036527Y035561D01*
X036527Y035141D01*
X036346Y035491D02*
X036276Y035561D01*
X036136Y035561D01*
X036066Y035491D01*
X036066Y035211D01*
X035606Y035141D02*
X035606Y035561D01*
X036987Y035491D02*
X037057Y035561D01*
X037197Y035561D01*
X037267Y035491D01*
X037267Y035421D01*
X036987Y035141D01*
X037267Y035141D01*
X037447Y035141D02*
X037728Y035421D01*
X037728Y035491D01*
X037657Y035561D01*
X037517Y035561D01*
X037447Y035491D01*
X037447Y035141D02*
X037728Y035141D01*
X037908Y035211D02*
X038188Y035491D01*
X038188Y035211D01*
X038118Y035141D01*
X037978Y035141D01*
X037908Y035211D01*
X037908Y035491D01*
X037978Y035561D01*
X038118Y035561D01*
X038188Y035491D01*
X038368Y035491D02*
X038438Y035561D01*
X038578Y035561D01*
X038648Y035491D01*
X038368Y035211D01*
X038438Y035141D01*
X038578Y035141D01*
X038648Y035211D01*
X038648Y035491D01*
X038368Y035491D02*
X038368Y035211D01*
X039319Y036742D02*
X039321Y036770D01*
X039327Y036797D01*
X039336Y036824D01*
X039350Y036849D01*
X039366Y036871D01*
X039386Y036891D01*
X039408Y036909D01*
X039432Y036923D01*
X039458Y036933D01*
X039485Y036940D01*
X039513Y036943D01*
X039541Y036942D01*
X039569Y036937D01*
X039595Y036928D01*
X039620Y036916D01*
X039644Y036900D01*
X039665Y036882D01*
X039683Y036860D01*
X039697Y036836D01*
X039709Y036811D01*
X039717Y036784D01*
X039721Y036756D01*
X039721Y036728D01*
X039717Y036700D01*
X039709Y036673D01*
X039697Y036648D01*
X039683Y036624D01*
X039665Y036602D01*
X039644Y036584D01*
X039621Y036568D01*
X039595Y036556D01*
X039569Y036547D01*
X039541Y036542D01*
X039513Y036541D01*
X039485Y036544D01*
X039458Y036551D01*
X039432Y036561D01*
X039408Y036575D01*
X039386Y036593D01*
X039366Y036613D01*
X039350Y036635D01*
X039336Y036660D01*
X039327Y036687D01*
X039321Y036714D01*
X039319Y036742D01*
X040267Y038463D02*
X040267Y033738D01*
X041802Y033738D01*
X042355Y032802D02*
X042355Y032522D01*
X042776Y032522D01*
X042776Y032342D02*
X042496Y032342D01*
X042566Y032522D02*
X042566Y032662D01*
X042776Y032342D02*
X042776Y032131D01*
X042706Y032061D01*
X042496Y032061D01*
X042425Y031881D02*
X042706Y031881D01*
X042776Y031811D01*
X042776Y031671D01*
X042706Y031601D01*
X042425Y031881D01*
X042355Y031811D01*
X042355Y031671D01*
X042425Y031601D01*
X042706Y031601D01*
X042776Y031421D02*
X042776Y031141D01*
X042776Y031281D02*
X042355Y031281D01*
X042496Y031141D01*
X042136Y031601D02*
X041856Y031601D01*
X041996Y031741D02*
X041996Y031461D01*
X041426Y030061D02*
X041145Y030061D01*
X041145Y029851D01*
X041285Y029921D01*
X041356Y029921D01*
X041426Y029851D01*
X041426Y029711D01*
X041356Y029641D01*
X041215Y029641D01*
X041145Y029711D01*
X040965Y029711D02*
X040895Y029641D01*
X040755Y029641D01*
X040685Y029711D01*
X040965Y029991D01*
X040895Y030061D01*
X040755Y030061D01*
X040685Y029991D01*
X040685Y029711D01*
X040505Y029711D02*
X040435Y029641D01*
X040295Y029641D01*
X040225Y029711D01*
X040225Y029781D01*
X040295Y029851D01*
X040435Y029851D01*
X040505Y029781D01*
X040505Y029711D01*
X040435Y029851D02*
X040505Y029921D01*
X040505Y029991D01*
X040435Y030061D01*
X040295Y030061D01*
X040225Y029991D01*
X040225Y029921D01*
X040295Y029851D01*
X040044Y029991D02*
X039764Y029711D01*
X039764Y029641D01*
X039764Y030061D02*
X040044Y030061D01*
X040044Y029991D01*
X040965Y029991D02*
X040965Y029711D01*
X039676Y030891D02*
X039465Y030891D01*
X039395Y030961D01*
X039395Y031171D01*
X039676Y031171D02*
X039676Y030891D01*
X039215Y030891D02*
X038935Y030891D01*
X039075Y030891D02*
X039075Y031311D01*
X038935Y031171D01*
X038775Y030961D02*
X038775Y030891D01*
X038705Y030891D01*
X038705Y030961D01*
X038775Y030961D01*
X038525Y030961D02*
X038455Y030891D01*
X038314Y030891D01*
X038244Y030961D01*
X038525Y031241D01*
X038525Y030961D01*
X038525Y031241D02*
X038455Y031311D01*
X038314Y031311D01*
X038244Y031241D01*
X038244Y030961D01*
X037066Y031101D02*
X037066Y030601D01*
X036816Y030351D01*
X036316Y030351D01*
X036066Y030601D01*
X036066Y031101D01*
X036316Y031351D01*
X036066Y031601D01*
X036066Y032101D01*
X036316Y032351D01*
X036816Y032351D01*
X037066Y032101D01*
X037066Y031601D01*
X036816Y031351D01*
X037066Y031101D01*
X037027Y032641D02*
X037167Y032781D01*
X037307Y032641D01*
X037307Y033061D01*
X037487Y033061D02*
X037487Y032641D01*
X037767Y032641D01*
X037947Y032641D02*
X037947Y033061D01*
X038157Y033061D01*
X038228Y032991D01*
X038228Y032851D01*
X038157Y032781D01*
X037947Y032781D01*
X038087Y032781D02*
X038228Y032641D01*
X037767Y033061D02*
X037487Y033061D01*
X037487Y032851D02*
X037627Y032851D01*
X037027Y033061D02*
X037027Y032641D01*
X036846Y032711D02*
X036776Y032641D01*
X036636Y032641D01*
X036566Y032711D01*
X036566Y032991D01*
X036636Y033061D01*
X036776Y033061D01*
X036846Y032991D01*
X036846Y032711D01*
X036386Y032851D02*
X036316Y032781D01*
X036106Y032781D01*
X036106Y032641D02*
X036106Y033061D01*
X036316Y033061D01*
X036386Y032991D01*
X036386Y032851D01*
X034096Y033141D02*
X033816Y033561D01*
X033636Y033561D02*
X033356Y033561D01*
X033496Y033561D02*
X033496Y033141D01*
X033816Y033141D02*
X034096Y033561D01*
X032596Y033561D02*
X032316Y033141D01*
X032136Y033141D02*
X031996Y033281D01*
X032066Y033281D02*
X031856Y033281D01*
X031856Y033141D02*
X031856Y033561D01*
X032066Y033561D01*
X032136Y033491D01*
X032136Y033351D01*
X032066Y033281D01*
X032316Y033561D02*
X032596Y033141D01*
X031245Y034641D02*
X031245Y035061D01*
X030965Y035061D02*
X030965Y034641D01*
X030714Y034641D02*
X030714Y035061D01*
X030504Y034851D01*
X030784Y034851D01*
X030965Y035061D02*
X031245Y034641D01*
X030324Y034851D02*
X030044Y034851D01*
X030254Y035061D01*
X030254Y034641D01*
X029864Y034641D02*
X029583Y034641D01*
X029583Y034711D01*
X029864Y034991D01*
X029864Y035061D01*
X029583Y035061D01*
X029403Y035061D02*
X029123Y035061D01*
X029123Y034641D01*
X028943Y034641D02*
X028803Y034781D01*
X028873Y034781D02*
X028663Y034781D01*
X028663Y034641D02*
X028663Y035061D01*
X028873Y035061D01*
X028943Y034991D01*
X028943Y034851D01*
X028873Y034781D01*
X029123Y034851D02*
X029263Y034851D01*
X028496Y035061D02*
X028356Y035061D01*
X028426Y035061D02*
X028426Y034641D01*
X028356Y034641D02*
X028496Y034641D01*
X027910Y037280D02*
X027910Y037339D01*
X027910Y037280D02*
X029721Y037280D01*
X029721Y037339D01*
X029052Y037457D02*
X029052Y038244D01*
X029721Y038362D02*
X029721Y038422D01*
X027910Y038422D01*
X027910Y038362D01*
X027526Y038311D02*
X027105Y038311D01*
X027316Y038101D01*
X027316Y038381D01*
X027456Y037921D02*
X027175Y037921D01*
X027105Y037851D01*
X027105Y037641D01*
X027526Y037641D01*
X027526Y037851D01*
X027456Y037921D01*
X026721Y038762D02*
X020776Y038762D01*
X020776Y041203D01*
X020221Y041203D02*
X020221Y041518D01*
X014276Y041518D01*
X014276Y041203D01*
X020221Y041203D01*
X020221Y038762D01*
X014276Y038762D01*
X014276Y041203D01*
X013721Y041203D02*
X013721Y041518D01*
X007776Y041518D01*
X007776Y041203D01*
X013721Y041203D01*
X013721Y038762D01*
X007776Y038762D01*
X007776Y041203D01*
X011246Y038210D02*
X011526Y038210D01*
X011526Y038000D01*
X011456Y037930D01*
X011246Y037930D01*
X011526Y037750D02*
X011526Y037470D01*
X011526Y037610D02*
X011105Y037610D01*
X011246Y037470D01*
X011456Y037310D02*
X011526Y037310D01*
X011526Y037240D01*
X011456Y037240D01*
X011456Y037310D01*
X011456Y037060D02*
X011175Y037060D01*
X011456Y036779D01*
X011526Y036849D01*
X011526Y036989D01*
X011456Y037060D01*
X011175Y037060D02*
X011105Y036989D01*
X011105Y036849D01*
X011175Y036779D01*
X011456Y036779D01*
X011526Y034631D02*
X011316Y034421D01*
X011386Y034351D02*
X011105Y034631D01*
X011105Y034351D02*
X011526Y034351D01*
X011526Y034171D02*
X011526Y033891D01*
X011526Y034031D02*
X011105Y034031D01*
X011246Y033891D01*
X011246Y032210D02*
X011526Y032210D01*
X011526Y032000D01*
X011456Y031930D01*
X011246Y031930D01*
X011526Y031750D02*
X011526Y031470D01*
X011526Y031610D02*
X011105Y031610D01*
X011246Y031470D01*
X011456Y031310D02*
X011526Y031310D01*
X011526Y031240D01*
X011456Y031240D01*
X011456Y031310D01*
X011456Y031060D02*
X011175Y031060D01*
X011456Y030779D01*
X011526Y030849D01*
X011526Y030989D01*
X011456Y031060D01*
X011175Y031060D02*
X011105Y030989D01*
X011105Y030849D01*
X011175Y030779D01*
X011456Y030779D01*
X011426Y029671D02*
X011426Y029391D01*
X011215Y029391D01*
X011145Y029461D01*
X011145Y029671D01*
X010965Y029391D02*
X010685Y029391D01*
X010825Y029391D02*
X010825Y029811D01*
X010685Y029671D01*
X010525Y029461D02*
X010525Y029391D01*
X010455Y029391D01*
X010455Y029461D01*
X010525Y029461D01*
X010275Y029461D02*
X010205Y029391D01*
X010064Y029391D01*
X009994Y029461D01*
X010275Y029741D01*
X010275Y029461D01*
X010275Y029741D02*
X010205Y029811D01*
X010064Y029811D01*
X009994Y029741D01*
X009994Y029461D01*
X008057Y029391D02*
X007847Y029601D01*
X007777Y029531D02*
X008057Y029811D01*
X007777Y029811D02*
X007777Y029391D01*
X007596Y029461D02*
X007526Y029391D01*
X007386Y029391D01*
X007316Y029461D01*
X007596Y029741D01*
X007596Y029461D01*
X007316Y029461D02*
X007316Y029741D01*
X007386Y029811D01*
X007526Y029811D01*
X007596Y029741D01*
X007136Y029391D02*
X006856Y029391D01*
X006996Y029391D02*
X006996Y029811D01*
X006856Y029671D01*
X017605Y030849D02*
X017605Y030989D01*
X017675Y031060D01*
X017956Y030779D01*
X018026Y030849D01*
X018026Y030989D01*
X017956Y031060D01*
X017675Y031060D01*
X017605Y030849D02*
X017675Y030779D01*
X017956Y030779D01*
X017956Y031240D02*
X017956Y031310D01*
X018026Y031310D01*
X018026Y031240D01*
X017956Y031240D01*
X018026Y031470D02*
X018026Y031750D01*
X018026Y031610D02*
X017605Y031610D01*
X017746Y031470D01*
X017746Y031930D02*
X017956Y031930D01*
X018026Y032000D01*
X018026Y032210D01*
X017746Y032210D01*
X017746Y033891D02*
X017605Y034031D01*
X018026Y034031D01*
X018026Y033891D02*
X018026Y034171D01*
X018026Y034351D02*
X017605Y034351D01*
X017816Y034421D02*
X018026Y034631D01*
X017886Y034351D02*
X017605Y034631D01*
X017675Y036779D02*
X017605Y036849D01*
X017605Y036989D01*
X017675Y037060D01*
X017956Y036779D01*
X018026Y036849D01*
X018026Y036989D01*
X017956Y037060D01*
X017675Y037060D01*
X017675Y036779D02*
X017956Y036779D01*
X017956Y037240D02*
X017956Y037310D01*
X018026Y037310D01*
X018026Y037240D01*
X017956Y037240D01*
X018026Y037470D02*
X018026Y037750D01*
X018026Y037610D02*
X017605Y037610D01*
X017746Y037470D01*
X017746Y037930D02*
X017956Y037930D01*
X018026Y038000D01*
X018026Y038210D01*
X017746Y038210D01*
X032106Y029241D02*
X032106Y028961D01*
X032386Y029241D01*
X032386Y028961D01*
X032316Y028891D01*
X032176Y028891D01*
X032106Y028961D01*
X032106Y029241D02*
X032176Y029311D01*
X032316Y029311D01*
X032386Y029241D01*
X032566Y028961D02*
X032636Y028961D01*
X032636Y028891D01*
X032566Y028891D01*
X032566Y028961D01*
X032796Y028891D02*
X033077Y028891D01*
X032936Y028891D02*
X032936Y029311D01*
X032796Y029171D01*
X033257Y029171D02*
X033257Y028961D01*
X033327Y028891D01*
X033537Y028891D01*
X033537Y029171D01*
X034935Y028171D02*
X035075Y028311D01*
X035075Y027891D01*
X034935Y027891D02*
X035215Y027891D01*
X035395Y027891D02*
X035395Y028311D01*
X035465Y028101D02*
X035676Y027891D01*
X035395Y028031D02*
X035676Y028311D01*
X035605Y024052D02*
X036026Y024052D01*
X035816Y024052D02*
X035816Y023772D01*
X035746Y023592D02*
X036026Y023592D01*
X036026Y023381D01*
X035956Y023311D01*
X035746Y023311D01*
X035675Y023131D02*
X035956Y022851D01*
X036026Y022921D01*
X036026Y023061D01*
X035956Y023131D01*
X035675Y023131D01*
X035605Y023061D01*
X035605Y022921D01*
X035675Y022851D01*
X035956Y022851D01*
X036026Y022671D02*
X036026Y022391D01*
X036026Y022531D02*
X035605Y022531D01*
X035746Y022391D01*
X035146Y022156D02*
X036485Y022156D01*
X036485Y024046D01*
X035146Y024046D01*
X035146Y022156D01*
X035605Y023772D02*
X036026Y023772D01*
X034355Y017512D02*
X034355Y017232D01*
X034776Y017232D01*
X034776Y017052D02*
X034496Y017052D01*
X034566Y017232D02*
X034566Y017372D01*
X034776Y017052D02*
X034776Y016842D01*
X034706Y016772D01*
X034496Y016772D01*
X034425Y016592D02*
X034706Y016311D01*
X034776Y016381D01*
X034776Y016522D01*
X034706Y016592D01*
X034425Y016592D01*
X034355Y016522D01*
X034355Y016381D01*
X034425Y016311D01*
X034706Y016311D01*
X034706Y016131D02*
X034776Y016061D01*
X034776Y015921D01*
X034706Y015851D01*
X034425Y016131D01*
X034706Y016131D01*
X034706Y015851D02*
X034425Y015851D01*
X034355Y015921D01*
X034355Y016061D01*
X034425Y016131D01*
X034776Y015671D02*
X034776Y015391D01*
X034776Y015531D02*
X034355Y015531D01*
X034496Y015391D01*
X036356Y017101D02*
X036636Y017101D01*
X036496Y017241D02*
X036496Y016961D01*
X039254Y012061D02*
X039534Y012061D01*
X039534Y011991D01*
X036246Y007741D02*
X036246Y007461D01*
X036106Y007601D02*
X036386Y007601D01*
X029276Y015641D02*
X028996Y015921D01*
X028925Y015921D01*
X028855Y015851D01*
X028855Y015711D01*
X028925Y015641D01*
X029276Y015641D02*
X029276Y015921D01*
X029276Y016101D02*
X028996Y016381D01*
X028925Y016381D01*
X028855Y016311D01*
X028855Y016171D01*
X028925Y016101D01*
X029276Y016101D02*
X029276Y016381D01*
X029276Y016561D02*
X029276Y016772D01*
X029206Y016842D01*
X029066Y016842D01*
X028996Y016772D01*
X028996Y016561D01*
X029416Y016561D01*
X043456Y033738D02*
X044952Y033738D01*
X043276Y035461D02*
X043276Y035601D01*
X043206Y035671D01*
X042855Y035671D01*
X042925Y035851D02*
X042855Y035921D01*
X042855Y036061D01*
X042925Y036131D01*
X043066Y036061D02*
X043136Y036131D01*
X043206Y036131D01*
X043276Y036061D01*
X043276Y035921D01*
X043206Y035851D01*
X043066Y035921D02*
X043066Y036061D01*
X043066Y035921D02*
X042996Y035851D01*
X042925Y035851D01*
X042855Y036311D02*
X042855Y036522D01*
X042925Y036592D01*
X042996Y036592D01*
X043066Y036522D01*
X043066Y036311D01*
X043276Y036311D02*
X043276Y036522D01*
X043206Y036592D01*
X043136Y036592D01*
X043066Y036522D01*
X043276Y036311D02*
X042855Y036311D01*
X043276Y035461D02*
X043206Y035391D01*
X042855Y035391D01*
X043456Y038463D02*
X044952Y038463D01*
X041802Y038463D02*
X040267Y038463D01*
X040425Y039141D02*
X040355Y039211D01*
X040355Y039351D01*
X040425Y039421D01*
X040706Y039141D01*
X040776Y039211D01*
X040776Y039351D01*
X040706Y039421D01*
X040425Y039421D01*
X040425Y039141D02*
X040706Y039141D01*
X040706Y039601D02*
X040706Y039671D01*
X040776Y039671D01*
X040776Y039601D01*
X040706Y039601D01*
X040776Y039831D02*
X040776Y040111D01*
X040776Y039971D02*
X040355Y039971D01*
X040496Y039831D01*
X040496Y040292D02*
X040706Y040292D01*
X040776Y040362D01*
X040776Y040572D01*
X040496Y040572D01*
X039176Y041211D02*
X039106Y041141D01*
X038895Y041141D01*
X038895Y041001D02*
X038895Y041421D01*
X039106Y041421D01*
X039176Y041351D01*
X039176Y041211D01*
X038715Y041141D02*
X038435Y041141D01*
X038715Y041421D01*
X038715Y041491D01*
X038645Y041561D01*
X038505Y041561D01*
X038435Y041491D01*
X038255Y041491D02*
X038185Y041561D01*
X038045Y041561D01*
X037975Y041491D01*
X038255Y041491D02*
X038255Y041421D01*
X037975Y041141D01*
X038255Y041141D01*
X037228Y041391D02*
X036947Y041391D01*
X037228Y041671D01*
X036947Y041671D01*
X036767Y041601D02*
X036767Y041391D01*
X036767Y041601D02*
X036697Y041671D01*
X036557Y041671D01*
X036487Y041601D01*
X036487Y041811D02*
X036487Y041391D01*
X036307Y041391D02*
X036307Y041811D01*
X036167Y041671D01*
X036027Y041811D01*
X036027Y041391D01*
X035846Y041391D02*
X035566Y041391D01*
X035846Y041671D01*
X035846Y041741D01*
X035776Y041811D01*
X035636Y041811D01*
X035566Y041741D01*
X035246Y041811D02*
X035246Y041391D01*
X035106Y041391D02*
X035386Y041391D01*
X035106Y041671D02*
X035246Y041811D01*
D13*
X036816Y024351D02*
X036816Y022351D01*
X040066Y022351D01*
X039066Y024351D02*
X043066Y024351D01*
X043066Y023851D01*
X006236Y023851D02*
X006236Y024412D01*
X006096Y024772D02*
X006236Y024912D01*
X006236Y025193D01*
X006096Y025333D01*
X005956Y025333D01*
X005815Y025193D01*
X005815Y024912D01*
X005675Y024772D01*
X005535Y024772D01*
X005395Y024912D01*
X005395Y025193D01*
X005535Y025333D01*
X005395Y025693D02*
X006236Y025693D01*
X006236Y026253D01*
X005815Y025973D02*
X005815Y025693D01*
X005395Y025693D02*
X005395Y026253D01*
X005395Y026614D02*
X005395Y027174D01*
X005395Y026894D02*
X006236Y026894D01*
X005395Y024412D02*
X005395Y023851D01*
X006236Y023851D01*
X006236Y023491D02*
X005956Y023211D01*
X005956Y023351D02*
X005956Y022931D01*
X006236Y022931D02*
X005395Y022931D01*
X005395Y023351D01*
X005535Y023491D01*
X005815Y023491D01*
X005956Y023351D01*
X005815Y023851D02*
X005815Y024132D01*
D14*
X012936Y029221D02*
X013776Y030482D01*
X012936Y030482D02*
X013776Y029221D01*
X019436Y030272D02*
X019856Y029851D01*
X019856Y029221D01*
X019856Y029851D02*
X020276Y030272D01*
X020276Y030482D01*
X019436Y030482D02*
X019436Y030272D01*
X025936Y030482D02*
X026776Y030482D01*
X026776Y030272D01*
X025936Y029431D01*
X025936Y029221D01*
X026776Y029221D01*
X037895Y018903D02*
X038736Y018903D01*
X038315Y018483D02*
X038315Y019324D01*
X038315Y016561D02*
X038315Y015721D01*
X032408Y016061D02*
X032408Y016272D01*
X032197Y016482D01*
X031777Y016482D01*
X031567Y016272D01*
X031026Y016482D02*
X030186Y016482D01*
X030186Y015221D01*
X031026Y015221D01*
X031567Y015221D02*
X032408Y016061D01*
X032408Y015221D02*
X031567Y015221D01*
X030606Y015851D02*
X030186Y015851D01*
X019158Y015221D02*
X018317Y015221D01*
X018737Y015221D02*
X018737Y016482D01*
X018317Y016061D01*
X017776Y016482D02*
X016936Y016482D01*
X016936Y015221D01*
X017776Y015221D01*
X017356Y015851D02*
X016936Y015851D01*
D15*
X005771Y006396D02*
X005300Y006396D01*
X005300Y006709D01*
X005300Y006911D02*
X005771Y007225D01*
X005300Y007225D01*
X005300Y007427D02*
X005300Y007662D01*
X005379Y007741D01*
X005692Y007741D01*
X005771Y007662D01*
X005771Y007427D01*
X005300Y007427D01*
X005300Y006911D02*
X005771Y006911D01*
X005771Y006709D02*
X005771Y006396D01*
X005536Y006396D02*
X005536Y006552D01*
X005457Y007943D02*
X005536Y008021D01*
X005536Y008178D01*
X005614Y008256D01*
X005692Y008256D01*
X005771Y008178D01*
X005771Y008021D01*
X005692Y007943D01*
X005457Y007943D02*
X005379Y007943D01*
X005300Y008021D01*
X005300Y008178D01*
X005379Y008256D01*
X005300Y008458D02*
X005300Y008772D01*
X005300Y008615D02*
X005771Y008615D01*
X005692Y008974D02*
X005771Y009052D01*
X005771Y009209D01*
X005692Y009287D01*
X005379Y009287D01*
X005300Y009209D01*
X005300Y009052D01*
X005379Y008974D01*
X005692Y008974D01*
X005614Y009489D02*
X005614Y009725D01*
X005536Y009803D01*
X005379Y009803D01*
X005300Y009725D01*
X005300Y009489D01*
X005771Y009489D01*
X005692Y010005D02*
X005771Y010084D01*
X005771Y010240D01*
X005692Y010319D01*
X005614Y010319D01*
X005536Y010240D01*
X005536Y010084D01*
X005457Y010005D01*
X005379Y010005D01*
X005300Y010084D01*
X005300Y010240D01*
X005379Y010319D01*
X005457Y010521D02*
X005536Y010521D01*
X005536Y010599D01*
X005457Y010599D01*
X005457Y010521D01*
X005692Y010521D02*
X005771Y010521D01*
X005771Y010599D01*
X005692Y010599D01*
X005692Y010521D01*
X005692Y011146D02*
X005771Y011146D01*
X005771Y011459D01*
X005692Y011146D02*
X005379Y011459D01*
X005300Y011459D01*
X005300Y011146D01*
X005360Y014630D02*
X005439Y014630D01*
X005596Y014787D01*
X005831Y014787D01*
X005596Y014787D02*
X005439Y014944D01*
X005360Y014944D01*
X005300Y018146D02*
X005771Y018459D01*
X005771Y018146D02*
X005300Y018459D01*
X007611Y004116D02*
X007924Y004116D01*
X007768Y004116D02*
X007768Y003646D01*
X008126Y003646D02*
X008126Y004116D01*
X008205Y003959D02*
X008362Y003959D01*
X008440Y003881D01*
X008440Y003646D01*
X008642Y003724D02*
X008642Y003881D01*
X008720Y003959D01*
X008877Y003959D01*
X008956Y003881D01*
X008956Y003802D01*
X008642Y003802D01*
X008642Y003724D02*
X008720Y003646D01*
X008877Y003646D01*
X009158Y003646D02*
X009158Y003959D01*
X009314Y003959D02*
X009158Y003802D01*
X009314Y003959D02*
X009393Y003959D01*
X009587Y003959D02*
X009666Y003959D01*
X009744Y003881D01*
X009823Y003959D01*
X009901Y003881D01*
X009901Y003646D01*
X009744Y003646D02*
X009744Y003881D01*
X009587Y003959D02*
X009587Y003646D01*
X010861Y003646D02*
X010861Y004116D01*
X010861Y003881D02*
X011174Y003881D01*
X011174Y004116D02*
X011174Y003646D01*
X011376Y003646D02*
X011690Y004116D01*
X011892Y004116D02*
X011892Y003646D01*
X012206Y003646D01*
X012408Y003646D02*
X012721Y003646D01*
X012564Y003646D02*
X012564Y004116D01*
X012408Y003959D01*
X012206Y004116D02*
X011892Y004116D01*
X011892Y003881D02*
X012049Y003881D01*
X015861Y003881D02*
X016018Y003881D01*
X016174Y004116D02*
X015861Y004116D01*
X015861Y003646D01*
X016174Y003646D01*
X016376Y003646D02*
X016690Y003646D01*
X016533Y003646D02*
X016533Y004116D01*
X016376Y003959D01*
X016892Y004116D02*
X017049Y003959D01*
X017206Y004116D01*
X017206Y003646D01*
X017408Y003724D02*
X017486Y003646D01*
X017643Y003646D01*
X017721Y003724D01*
X017721Y004038D01*
X017643Y004116D01*
X017486Y004116D01*
X017408Y004038D01*
X017408Y003724D01*
X016892Y003646D02*
X016892Y004116D01*
X017923Y004116D02*
X018237Y004116D01*
X018080Y004116D02*
X018080Y003646D01*
X018439Y003724D02*
X018517Y003646D01*
X018674Y003646D01*
X018753Y003724D01*
X018753Y004038D01*
X018674Y004116D01*
X018517Y004116D01*
X018439Y004038D01*
X018439Y003724D01*
X018955Y003646D02*
X018955Y004116D01*
X019190Y004116D01*
X019268Y004038D01*
X019268Y003881D01*
X019190Y003802D01*
X018955Y003802D01*
X019111Y003802D02*
X019268Y003646D01*
X020611Y004116D02*
X020924Y004116D01*
X020768Y004116D02*
X020768Y003646D01*
X021126Y003646D02*
X021126Y004116D01*
X021205Y003959D02*
X021362Y003959D01*
X021440Y003881D01*
X021440Y003646D01*
X021642Y003724D02*
X021642Y003881D01*
X021720Y003959D01*
X021877Y003959D01*
X021956Y003881D01*
X021956Y003802D01*
X021642Y003802D01*
X021642Y003724D02*
X021720Y003646D01*
X021877Y003646D01*
X022158Y003646D02*
X022158Y003959D01*
X022314Y003959D02*
X022393Y003959D01*
X022314Y003959D02*
X022158Y003802D01*
X022587Y003646D02*
X022587Y003959D01*
X022666Y003959D01*
X022744Y003881D01*
X022823Y003959D01*
X022901Y003881D01*
X022901Y003646D01*
X022744Y003646D02*
X022744Y003881D01*
X023861Y003881D02*
X024174Y003881D01*
X024174Y004116D02*
X024174Y003646D01*
X024376Y003646D02*
X024690Y004116D01*
X024892Y004116D02*
X024892Y003646D01*
X025206Y003646D01*
X025408Y003646D02*
X025721Y003959D01*
X025721Y004038D01*
X025643Y004116D01*
X025486Y004116D01*
X025408Y004038D01*
X025206Y004116D02*
X024892Y004116D01*
X024892Y003881D02*
X025049Y003881D01*
X025408Y003646D02*
X025721Y003646D01*
X023861Y003646D02*
X023861Y004116D01*
X021205Y003959D02*
X021126Y003881D01*
X028861Y003881D02*
X029018Y003881D01*
X029174Y004116D02*
X028861Y004116D01*
X028861Y003646D01*
X029174Y003646D01*
X029376Y003646D02*
X029690Y003959D01*
X029690Y004038D01*
X029612Y004116D01*
X029455Y004116D01*
X029376Y004038D01*
X029376Y003646D02*
X029690Y003646D01*
X029892Y003646D02*
X029892Y004116D01*
X030049Y003959D01*
X030206Y004116D01*
X030206Y003646D01*
X030408Y003724D02*
X030486Y003646D01*
X030643Y003646D01*
X030721Y003724D01*
X030721Y004038D01*
X030643Y004116D01*
X030486Y004116D01*
X030408Y004038D01*
X030408Y003724D01*
X030923Y004116D02*
X031237Y004116D01*
X031080Y004116D02*
X031080Y003646D01*
X031439Y003724D02*
X031517Y003646D01*
X031674Y003646D01*
X031753Y003724D01*
X031753Y004038D01*
X031674Y004116D01*
X031517Y004116D01*
X031439Y004038D01*
X031439Y003724D01*
X031955Y003646D02*
X031955Y004116D01*
X032190Y004116D01*
X032268Y004038D01*
X032268Y003881D01*
X032190Y003802D01*
X031955Y003802D01*
X032111Y003802D02*
X032268Y003646D01*
X034111Y004116D02*
X034424Y004116D01*
X034268Y004116D02*
X034268Y003646D01*
X034626Y003646D02*
X034626Y004116D01*
X034705Y003959D02*
X034862Y003959D01*
X034940Y003881D01*
X034940Y003646D01*
X035142Y003724D02*
X035142Y003881D01*
X035220Y003959D01*
X035377Y003959D01*
X035456Y003881D01*
X035456Y003802D01*
X035142Y003802D01*
X035142Y003724D02*
X035220Y003646D01*
X035377Y003646D01*
X035658Y003646D02*
X035658Y003959D01*
X035814Y003959D02*
X035893Y003959D01*
X035814Y003959D02*
X035658Y003802D01*
X036087Y003646D02*
X036087Y003959D01*
X036166Y003959D01*
X036244Y003881D01*
X036323Y003959D01*
X036401Y003881D01*
X036401Y003646D01*
X036244Y003646D02*
X036244Y003881D01*
X037251Y003821D02*
X037565Y003821D01*
X037767Y003821D02*
X037924Y003821D01*
X038081Y004056D02*
X037767Y004056D01*
X037767Y003586D01*
X038081Y003586D01*
X038283Y003586D02*
X038283Y003899D01*
X038439Y004056D01*
X038596Y003899D01*
X038596Y003586D01*
X038596Y003821D02*
X038283Y003821D01*
X038798Y004056D02*
X039112Y004056D01*
X038955Y004056D02*
X038955Y003586D01*
X039314Y003586D02*
X039314Y004056D01*
X039549Y004056D01*
X039627Y003978D01*
X039627Y003899D01*
X039549Y003821D01*
X039314Y003821D01*
X039549Y003821D02*
X039627Y003742D01*
X039627Y003664D01*
X039549Y003586D01*
X039314Y003586D01*
X039829Y003586D02*
X039829Y004056D01*
X040143Y004056D01*
X040345Y004056D02*
X040580Y004056D01*
X040659Y003978D01*
X040659Y003664D01*
X040580Y003586D01*
X040345Y003586D01*
X040345Y004056D01*
X039986Y003821D02*
X039829Y003821D01*
X039829Y003586D02*
X040143Y003586D01*
X037565Y003586D02*
X037565Y004056D01*
X037251Y004056D02*
X037251Y003586D01*
X034705Y003959D02*
X034626Y003881D01*
X038111Y014646D02*
X038424Y014646D01*
X038268Y014646D02*
X038268Y015116D01*
X038111Y014959D01*
X038626Y015038D02*
X038705Y015116D01*
X038862Y015116D01*
X038940Y015038D01*
X038940Y014959D01*
X038626Y014646D01*
X038940Y014646D01*
X039142Y014802D02*
X039142Y015116D01*
X039142Y014802D02*
X039299Y014646D01*
X039456Y014802D01*
X039456Y015116D01*
X040173Y014959D02*
X040330Y015116D01*
X040330Y014646D01*
X040173Y014646D02*
X040487Y014646D01*
X040689Y014724D02*
X040767Y014646D01*
X040924Y014646D01*
X041003Y014724D01*
X041003Y014881D01*
X040924Y014959D01*
X040846Y014959D01*
X040689Y014881D01*
X040689Y015116D01*
X041003Y015116D01*
X041205Y014959D02*
X041361Y015116D01*
X041518Y014959D01*
X041518Y014646D01*
X041518Y014881D02*
X041205Y014881D01*
X041205Y014959D02*
X041205Y014646D01*
X042236Y014646D02*
X042393Y014646D01*
X042314Y014646D02*
X042314Y015116D01*
X042236Y015116D02*
X042393Y015116D01*
X042580Y015116D02*
X042893Y014646D01*
X042893Y015116D01*
X042580Y015116D02*
X042580Y014646D01*
X028706Y041646D02*
X028706Y042116D01*
X028392Y042116D02*
X028706Y041646D01*
X028392Y041646D02*
X028392Y042116D01*
X028190Y041959D02*
X028190Y041646D01*
X028190Y041881D02*
X027876Y041881D01*
X027876Y041959D02*
X028033Y042116D01*
X028190Y041959D01*
X027876Y041959D02*
X027876Y041646D01*
X027518Y041881D02*
X027361Y041881D01*
X027361Y042116D02*
X027674Y042116D01*
X027361Y042116D02*
X027361Y041646D01*
X023753Y041646D02*
X023596Y041802D01*
X023674Y041802D02*
X023439Y041802D01*
X023439Y041646D02*
X023439Y042116D01*
X023674Y042116D01*
X023753Y042038D01*
X023753Y041881D01*
X023674Y041802D01*
X023237Y041724D02*
X023237Y042038D01*
X023159Y042116D01*
X023002Y042116D01*
X022923Y042038D01*
X022923Y041724D01*
X023002Y041646D01*
X023159Y041646D01*
X023237Y041724D01*
X022721Y042116D02*
X022408Y042116D01*
X022564Y042116D02*
X022564Y041646D01*
X022206Y041724D02*
X022206Y042038D01*
X022127Y042116D01*
X021970Y042116D01*
X021892Y042038D01*
X021892Y041724D01*
X021970Y041646D01*
X022127Y041646D01*
X022206Y041724D01*
X021690Y041646D02*
X021690Y042116D01*
X021533Y041959D01*
X021376Y042116D01*
X021376Y041646D01*
X021174Y041646D02*
X020861Y041646D01*
X020861Y041724D01*
X021174Y042038D01*
X021174Y042116D01*
X020861Y042116D01*
X017253Y042038D02*
X017253Y041881D01*
X017174Y041802D01*
X016939Y041802D01*
X016939Y041646D02*
X016939Y042116D01*
X017174Y042116D01*
X017253Y042038D01*
X017096Y041802D02*
X017253Y041646D01*
X016737Y041724D02*
X016737Y042038D01*
X016659Y042116D01*
X016502Y042116D01*
X016423Y042038D01*
X016423Y041724D01*
X016502Y041646D01*
X016659Y041646D01*
X016737Y041724D01*
X016221Y042116D02*
X015908Y042116D01*
X016064Y042116D02*
X016064Y041646D01*
X015706Y041724D02*
X015706Y042038D01*
X015627Y042116D01*
X015470Y042116D01*
X015392Y042038D01*
X015392Y041724D01*
X015470Y041646D01*
X015627Y041646D01*
X015706Y041724D01*
X015190Y041646D02*
X015190Y042116D01*
X015033Y041959D01*
X014876Y042116D01*
X014876Y041646D01*
X014518Y041646D02*
X014518Y041881D01*
X014674Y042038D01*
X014674Y042116D01*
X014518Y041881D02*
X014361Y042038D01*
X014361Y042116D01*
X010753Y042038D02*
X010753Y041881D01*
X010674Y041802D01*
X010439Y041802D01*
X010439Y041646D02*
X010439Y042116D01*
X010674Y042116D01*
X010753Y042038D01*
X010596Y041802D02*
X010753Y041646D01*
X010237Y041724D02*
X010237Y042038D01*
X010159Y042116D01*
X010002Y042116D01*
X009923Y042038D01*
X009923Y041724D01*
X010002Y041646D01*
X010159Y041646D01*
X010237Y041724D01*
X009721Y042116D02*
X009408Y042116D01*
X009564Y042116D02*
X009564Y041646D01*
X009206Y041724D02*
X009206Y042038D01*
X009127Y042116D01*
X008970Y042116D01*
X008892Y042038D01*
X008892Y041724D01*
X008970Y041646D01*
X009127Y041646D01*
X009206Y041724D01*
X008690Y041646D02*
X008690Y042116D01*
X008533Y041959D01*
X008376Y042116D01*
X008376Y041646D01*
X008174Y041646D02*
X007861Y042116D01*
X008174Y042116D02*
X007861Y041646D01*
X008205Y003959D02*
X008126Y003881D01*
D16*
X023941Y011101D03*
X029441Y035351D03*
D17*
X038816Y011351D03*
X011066Y011101D03*
D18*
X007816Y025226D03*
D19*
X007816Y024726D03*
D20*
X014381Y017296D02*
X014381Y016666D01*
X014801Y016666D01*
X015081Y016666D02*
X015501Y017086D01*
X015780Y017086D02*
X015991Y017086D01*
X015885Y017191D02*
X015885Y016771D01*
X015991Y016666D01*
X016247Y016666D02*
X016247Y017086D01*
X016457Y017086D02*
X016562Y017086D01*
X016457Y017086D02*
X016247Y016876D01*
X016830Y016771D02*
X016935Y016666D01*
X017250Y016666D01*
X017250Y017086D01*
X017530Y016981D02*
X017635Y017086D01*
X017950Y017086D01*
X017950Y017296D02*
X017950Y016666D01*
X017635Y016666D01*
X017530Y016771D01*
X017530Y016981D01*
X016830Y017086D02*
X016830Y016771D01*
X015501Y016666D02*
X015081Y017086D01*
X014801Y017296D02*
X014381Y017296D01*
X014381Y016981D02*
X014591Y016981D01*
X018230Y016981D02*
X018230Y016771D01*
X018335Y016666D01*
X018545Y016666D01*
X018650Y016876D02*
X018230Y016876D01*
X018230Y016981D02*
X018335Y017086D01*
X018545Y017086D01*
X018650Y016981D01*
X018650Y016876D01*
X018929Y016876D02*
X019140Y017086D01*
X019245Y017086D01*
X018929Y017086D02*
X018929Y016666D01*
D21*
X016667Y016301D02*
X016667Y016246D01*
X016447Y016246D01*
X016447Y016301D02*
X016502Y016356D01*
X016612Y016356D01*
X016667Y016301D01*
X016612Y016136D02*
X016502Y016136D01*
X016447Y016191D01*
X016447Y016301D01*
X016311Y016136D02*
X016201Y016136D01*
X016256Y016136D02*
X016256Y016466D01*
X016201Y016466D01*
X016053Y016356D02*
X016053Y016081D01*
X015998Y016026D01*
X015943Y016026D01*
X015888Y016136D02*
X016053Y016136D01*
X015888Y016136D02*
X015833Y016191D01*
X015833Y016301D01*
X015888Y016356D01*
X016053Y016356D01*
X015685Y016301D02*
X015630Y016356D01*
X015465Y016356D01*
X015465Y016136D01*
X015329Y016136D02*
X015219Y016136D01*
X015274Y016136D02*
X015274Y016356D01*
X015219Y016356D01*
X015274Y016466D02*
X015274Y016521D01*
X015071Y016411D02*
X015016Y016466D01*
X014906Y016466D01*
X014851Y016411D01*
X014851Y016356D01*
X014906Y016301D01*
X015016Y016301D01*
X015071Y016246D01*
X015071Y016191D01*
X015016Y016136D01*
X014906Y016136D01*
X014851Y016191D01*
X015685Y016136D02*
X015685Y016301D01*
X030101Y016941D02*
X030156Y016886D01*
X030266Y016886D01*
X030321Y016941D01*
X030321Y017161D01*
X030266Y017216D01*
X030156Y017216D01*
X030101Y017161D01*
X030101Y016941D01*
X030469Y016886D02*
X030634Y016886D01*
X030689Y016941D01*
X030689Y017051D01*
X030634Y017106D01*
X030469Y017106D01*
X030469Y016776D01*
X030892Y016941D02*
X030947Y016886D01*
X030892Y016941D02*
X030892Y017161D01*
X030837Y017106D02*
X030947Y017106D01*
X031083Y017106D02*
X031138Y017106D01*
X031138Y016886D01*
X031083Y016886D02*
X031193Y016886D01*
X031328Y016941D02*
X031384Y016886D01*
X031494Y016886D01*
X031549Y016941D01*
X031549Y017051D01*
X031494Y017106D01*
X031384Y017106D01*
X031328Y017051D01*
X031328Y016941D01*
X031138Y017216D02*
X031138Y017271D01*
X031697Y017106D02*
X031862Y017106D01*
X031917Y017051D01*
X031917Y016886D01*
X032065Y016941D02*
X032120Y016996D01*
X032285Y016996D01*
X032285Y017051D02*
X032285Y016886D01*
X032120Y016886D01*
X032065Y016941D01*
X032120Y017106D02*
X032230Y017106D01*
X032285Y017051D01*
X032433Y017216D02*
X032488Y017216D01*
X032488Y016886D01*
X032433Y016886D02*
X032543Y016886D01*
X031697Y016886D02*
X031697Y017106D01*
D22*
X031215Y014841D02*
X031105Y014841D01*
X031105Y014621D01*
X031105Y014694D02*
X031215Y014694D01*
X031252Y014731D01*
X031252Y014804D01*
X031215Y014841D01*
X031178Y014694D02*
X031252Y014621D01*
X031031Y014621D02*
X030957Y014621D01*
X030994Y014621D02*
X030994Y014841D01*
X030957Y014841D02*
X031031Y014841D01*
X030883Y014804D02*
X030847Y014841D01*
X030736Y014841D01*
X030736Y014621D01*
X030847Y014621D01*
X030883Y014657D01*
X030883Y014804D01*
X030884Y013841D02*
X030884Y013621D01*
X031031Y013621D01*
X031105Y013621D02*
X031105Y013841D01*
X031215Y013841D01*
X031252Y013804D01*
X031252Y013731D01*
X031215Y013694D01*
X031105Y013694D01*
X030957Y013731D02*
X030884Y013731D01*
X030884Y013841D02*
X031031Y013841D01*
X030810Y013841D02*
X030663Y013841D01*
X030736Y013841D02*
X030736Y013621D01*
X030589Y013657D02*
X030552Y013621D01*
X030478Y013621D01*
X030442Y013657D01*
X030478Y013731D02*
X030552Y013731D01*
X030589Y013694D01*
X030589Y013657D01*
X030478Y013731D02*
X030442Y013767D01*
X030442Y013804D01*
X030478Y013841D01*
X030552Y013841D01*
X030589Y013804D01*
X030699Y012841D02*
X030663Y012804D01*
X030663Y012767D01*
X030699Y012731D01*
X030773Y012731D01*
X030810Y012694D01*
X030810Y012657D01*
X030773Y012621D01*
X030699Y012621D01*
X030663Y012657D01*
X030699Y012841D02*
X030773Y012841D01*
X030810Y012804D01*
X030884Y012841D02*
X030884Y012621D01*
X031031Y012621D01*
X031105Y012621D02*
X031105Y012841D01*
X031215Y012841D01*
X031252Y012804D01*
X031252Y012731D01*
X031215Y012694D01*
X031105Y012694D01*
X031105Y011841D02*
X031252Y011841D01*
X031178Y011841D02*
X031178Y011621D01*
X031031Y011657D02*
X030994Y011621D01*
X030920Y011621D01*
X030884Y011657D01*
X030920Y011731D02*
X030994Y011731D01*
X031031Y011694D01*
X031031Y011657D01*
X030920Y011731D02*
X030884Y011767D01*
X030884Y011804D01*
X030920Y011841D01*
X030994Y011841D01*
X031031Y011804D01*
X030810Y011804D02*
X030810Y011731D01*
X030773Y011694D01*
X030663Y011694D01*
X030736Y011694D02*
X030810Y011621D01*
X030663Y011621D02*
X030663Y011841D01*
X030773Y011841D01*
X030810Y011804D01*
X030810Y010841D02*
X030810Y010621D01*
X030884Y010657D02*
X030920Y010621D01*
X030994Y010621D01*
X031031Y010657D01*
X031031Y010694D01*
X030994Y010731D01*
X030920Y010731D01*
X030884Y010767D01*
X030884Y010804D01*
X030920Y010841D01*
X030994Y010841D01*
X031031Y010804D01*
X031105Y010804D02*
X031141Y010841D01*
X031215Y010841D01*
X031252Y010804D01*
X031252Y010767D01*
X031215Y010731D01*
X031252Y010694D01*
X031252Y010657D01*
X031215Y010621D01*
X031141Y010621D01*
X031105Y010657D01*
X031178Y010731D02*
X031215Y010731D01*
X030810Y010841D02*
X030736Y010767D01*
X030663Y010841D01*
X030663Y010621D01*
X030663Y009841D02*
X030736Y009767D01*
X030810Y009841D01*
X030810Y009621D01*
X030884Y009657D02*
X030920Y009621D01*
X030994Y009621D01*
X031031Y009657D01*
X031031Y009694D01*
X030994Y009731D01*
X030920Y009731D01*
X030884Y009767D01*
X030884Y009804D01*
X030920Y009841D01*
X030994Y009841D01*
X031031Y009804D01*
X031105Y009804D02*
X031141Y009841D01*
X031215Y009841D01*
X031252Y009804D01*
X031252Y009767D01*
X031105Y009621D01*
X031252Y009621D01*
X030663Y009621D02*
X030663Y009841D01*
X030663Y008841D02*
X030736Y008767D01*
X030810Y008841D01*
X030810Y008621D01*
X030884Y008657D02*
X030920Y008621D01*
X030994Y008621D01*
X031031Y008657D01*
X031031Y008694D01*
X030994Y008731D01*
X030920Y008731D01*
X030884Y008767D01*
X030884Y008804D01*
X030920Y008841D01*
X030994Y008841D01*
X031031Y008804D01*
X031105Y008767D02*
X031178Y008841D01*
X031178Y008621D01*
X031105Y008621D02*
X031252Y008621D01*
X031252Y007841D02*
X031252Y007621D01*
X031105Y007841D01*
X031105Y007621D01*
X031031Y007621D02*
X030884Y007621D01*
X030884Y007841D01*
X031031Y007841D01*
X030957Y007731D02*
X030884Y007731D01*
X030663Y008621D02*
X030663Y008841D01*
X027915Y008544D02*
X027878Y008581D01*
X027768Y008581D01*
X027768Y008361D01*
X027878Y008361D01*
X027915Y008397D01*
X027915Y008544D01*
X027694Y008581D02*
X027694Y008361D01*
X027547Y008581D01*
X027547Y008361D01*
X027473Y008397D02*
X027473Y008471D01*
X027399Y008471D01*
X027326Y008544D02*
X027326Y008397D01*
X027362Y008361D01*
X027436Y008361D01*
X027473Y008397D01*
X027473Y008544D02*
X027436Y008581D01*
X027362Y008581D01*
X027326Y008544D01*
X027326Y009361D02*
X027473Y009507D01*
X027473Y009544D01*
X027436Y009581D01*
X027362Y009581D01*
X027326Y009544D01*
X027326Y009361D02*
X027473Y009361D01*
X027547Y009361D02*
X027657Y009361D01*
X027694Y009397D01*
X027694Y009434D01*
X027657Y009471D01*
X027547Y009471D01*
X027657Y009471D02*
X027694Y009507D01*
X027694Y009544D01*
X027657Y009581D01*
X027547Y009581D01*
X027547Y009361D01*
X027547Y010361D02*
X027547Y010507D01*
X027620Y010581D01*
X027694Y010507D01*
X027694Y010361D01*
X027694Y010471D02*
X027547Y010471D01*
X027473Y010507D02*
X027473Y010544D01*
X027436Y010581D01*
X027362Y010581D01*
X027326Y010544D01*
X027473Y010507D02*
X027326Y010361D01*
X027473Y010361D01*
X027473Y011361D02*
X027326Y011361D01*
X027399Y011361D02*
X027399Y011581D01*
X027326Y011507D01*
X027547Y011507D02*
X027620Y011581D01*
X027694Y011507D01*
X027694Y011361D01*
X027694Y011471D02*
X027547Y011471D01*
X027547Y011507D02*
X027547Y011361D01*
X027547Y012361D02*
X027657Y012361D01*
X027694Y012397D01*
X027694Y012434D01*
X027657Y012471D01*
X027547Y012471D01*
X027657Y012471D02*
X027694Y012507D01*
X027694Y012544D01*
X027657Y012581D01*
X027547Y012581D01*
X027547Y012361D01*
X027473Y012361D02*
X027326Y012361D01*
X027399Y012361D02*
X027399Y012581D01*
X027326Y012507D01*
X027399Y013361D02*
X027473Y013434D01*
X027473Y013581D01*
X027547Y013581D02*
X027657Y013581D01*
X027694Y013544D01*
X027694Y013397D01*
X027657Y013361D01*
X027547Y013361D01*
X027547Y013581D01*
X027768Y013581D02*
X027878Y013581D01*
X027915Y013544D01*
X027915Y013397D01*
X027878Y013361D01*
X027768Y013361D01*
X027768Y013581D01*
X027399Y013361D02*
X027326Y013434D01*
X027326Y013581D01*
X027362Y014361D02*
X027436Y014361D01*
X027473Y014397D01*
X027473Y014471D01*
X027399Y014471D01*
X027326Y014544D02*
X027326Y014397D01*
X027362Y014361D01*
X027547Y014361D02*
X027547Y014581D01*
X027694Y014361D01*
X027694Y014581D01*
X027768Y014581D02*
X027878Y014581D01*
X027915Y014544D01*
X027915Y014397D01*
X027878Y014361D01*
X027768Y014361D01*
X027768Y014581D01*
X027473Y014544D02*
X027436Y014581D01*
X027362Y014581D01*
X027326Y014544D01*
X027666Y017051D02*
X024966Y017051D01*
X024966Y017351D02*
X027666Y017351D01*
X027704Y017352D01*
X027741Y017357D01*
X027778Y017364D01*
X027814Y017373D01*
X027850Y017386D01*
X027884Y017401D01*
X028327Y018301D02*
X028295Y018346D01*
X028259Y018388D01*
X028220Y018428D01*
X028178Y018465D01*
X028135Y018499D01*
X028088Y018530D01*
X028040Y018558D01*
X027990Y018582D01*
X027939Y018603D01*
X027886Y018620D01*
X027832Y018634D01*
X027777Y018643D01*
X027722Y018649D01*
X027666Y018651D01*
X024966Y018651D01*
X024966Y018351D02*
X027666Y018351D01*
X027704Y018350D01*
X027741Y018345D01*
X027778Y018338D01*
X027814Y018329D01*
X027850Y018316D01*
X027884Y018301D01*
X028327Y017401D02*
X028295Y017356D01*
X028259Y017314D01*
X028220Y017274D01*
X028179Y017237D01*
X028135Y017203D01*
X028088Y017172D01*
X028040Y017144D01*
X027990Y017120D01*
X027939Y017099D01*
X027886Y017082D01*
X027832Y017068D01*
X027777Y017059D01*
X027722Y017053D01*
X027666Y017051D01*
X026716Y017851D02*
X026566Y017851D01*
X026066Y017851D02*
X025916Y017851D01*
X024966Y018651D02*
X024910Y018649D01*
X024855Y018643D01*
X024800Y018634D01*
X024746Y018620D01*
X024693Y018603D01*
X024642Y018582D01*
X024592Y018558D01*
X024544Y018530D01*
X024497Y018499D01*
X024453Y018465D01*
X024412Y018428D01*
X024373Y018388D01*
X024337Y018346D01*
X024305Y018301D01*
X024305Y017401D02*
X024337Y017356D01*
X024373Y017314D01*
X024412Y017274D01*
X024454Y017237D01*
X024497Y017203D01*
X024544Y017172D01*
X024592Y017144D01*
X024642Y017120D01*
X024693Y017099D01*
X024746Y017082D01*
X024800Y017068D01*
X024855Y017059D01*
X024910Y017053D01*
X024966Y017051D01*
X024966Y017351D02*
X024928Y017352D01*
X024891Y017357D01*
X024854Y017364D01*
X024818Y017373D01*
X024782Y017386D01*
X024748Y017401D01*
X024748Y018301D02*
X024782Y018316D01*
X024818Y018329D01*
X024854Y018338D01*
X024891Y018345D01*
X024928Y018350D01*
X024966Y018351D01*
X018252Y014804D02*
X018252Y014731D01*
X018215Y014694D01*
X018105Y014694D01*
X018178Y014694D02*
X018252Y014621D01*
X018105Y014621D02*
X018105Y014841D01*
X018215Y014841D01*
X018252Y014804D01*
X018031Y014841D02*
X017957Y014841D01*
X017994Y014841D02*
X017994Y014621D01*
X017957Y014621D02*
X018031Y014621D01*
X017883Y014657D02*
X017883Y014804D01*
X017847Y014841D01*
X017736Y014841D01*
X017736Y014621D01*
X017847Y014621D01*
X017883Y014657D01*
X017884Y013841D02*
X017884Y013621D01*
X018031Y013621D01*
X018105Y013621D02*
X018105Y013841D01*
X018215Y013841D01*
X018252Y013804D01*
X018252Y013731D01*
X018215Y013694D01*
X018105Y013694D01*
X017957Y013731D02*
X017884Y013731D01*
X017884Y013841D02*
X018031Y013841D01*
X017810Y013841D02*
X017663Y013841D01*
X017736Y013841D02*
X017736Y013621D01*
X017589Y013657D02*
X017552Y013621D01*
X017478Y013621D01*
X017442Y013657D01*
X017478Y013731D02*
X017552Y013731D01*
X017589Y013694D01*
X017589Y013657D01*
X017478Y013731D02*
X017442Y013767D01*
X017442Y013804D01*
X017478Y013841D01*
X017552Y013841D01*
X017589Y013804D01*
X017699Y012841D02*
X017663Y012804D01*
X017663Y012767D01*
X017699Y012731D01*
X017773Y012731D01*
X017810Y012694D01*
X017810Y012657D01*
X017773Y012621D01*
X017699Y012621D01*
X017663Y012657D01*
X017699Y012841D02*
X017773Y012841D01*
X017810Y012804D01*
X017884Y012841D02*
X017884Y012621D01*
X018031Y012621D01*
X018105Y012621D02*
X018105Y012841D01*
X018215Y012841D01*
X018252Y012804D01*
X018252Y012731D01*
X018215Y012694D01*
X018105Y012694D01*
X018105Y011841D02*
X018252Y011841D01*
X018178Y011841D02*
X018178Y011621D01*
X018031Y011657D02*
X017994Y011621D01*
X017920Y011621D01*
X017884Y011657D01*
X017920Y011731D02*
X017994Y011731D01*
X018031Y011694D01*
X018031Y011657D01*
X017920Y011731D02*
X017884Y011767D01*
X017884Y011804D01*
X017920Y011841D01*
X017994Y011841D01*
X018031Y011804D01*
X017810Y011804D02*
X017810Y011731D01*
X017773Y011694D01*
X017663Y011694D01*
X017736Y011694D02*
X017810Y011621D01*
X017663Y011621D02*
X017663Y011841D01*
X017773Y011841D01*
X017810Y011804D01*
X017810Y010841D02*
X017810Y010621D01*
X017884Y010657D02*
X017920Y010621D01*
X017994Y010621D01*
X018031Y010657D01*
X018031Y010694D01*
X017994Y010731D01*
X017920Y010731D01*
X017884Y010767D01*
X017884Y010804D01*
X017920Y010841D01*
X017994Y010841D01*
X018031Y010804D01*
X018105Y010804D02*
X018141Y010841D01*
X018215Y010841D01*
X018252Y010804D01*
X018252Y010767D01*
X018215Y010731D01*
X018252Y010694D01*
X018252Y010657D01*
X018215Y010621D01*
X018141Y010621D01*
X018105Y010657D01*
X018178Y010731D02*
X018215Y010731D01*
X017810Y010841D02*
X017736Y010767D01*
X017663Y010841D01*
X017663Y010621D01*
X017663Y009841D02*
X017736Y009767D01*
X017810Y009841D01*
X017810Y009621D01*
X017884Y009657D02*
X017920Y009621D01*
X017994Y009621D01*
X018031Y009657D01*
X018031Y009694D01*
X017994Y009731D01*
X017920Y009731D01*
X017884Y009767D01*
X017884Y009804D01*
X017920Y009841D01*
X017994Y009841D01*
X018031Y009804D01*
X018105Y009804D02*
X018141Y009841D01*
X018215Y009841D01*
X018252Y009804D01*
X018252Y009767D01*
X018105Y009621D01*
X018252Y009621D01*
X017663Y009621D02*
X017663Y009841D01*
X017663Y008841D02*
X017736Y008767D01*
X017810Y008841D01*
X017810Y008621D01*
X017884Y008657D02*
X017920Y008621D01*
X017994Y008621D01*
X018031Y008657D01*
X018031Y008694D01*
X017994Y008731D01*
X017920Y008731D01*
X017884Y008767D01*
X017884Y008804D01*
X017920Y008841D01*
X017994Y008841D01*
X018031Y008804D01*
X018105Y008767D02*
X018178Y008841D01*
X018178Y008621D01*
X018105Y008621D02*
X018252Y008621D01*
X017663Y008621D02*
X017663Y008841D01*
X017884Y007841D02*
X017884Y007621D01*
X018031Y007621D01*
X018105Y007621D02*
X018105Y007841D01*
X018252Y007621D01*
X018252Y007841D01*
X018031Y007841D02*
X017884Y007841D01*
X017884Y007731D02*
X017957Y007731D01*
X015062Y007507D02*
X014989Y007507D01*
X015025Y007544D02*
X015025Y007397D01*
X015062Y007361D01*
X014915Y007397D02*
X014915Y007471D01*
X014878Y007507D01*
X014804Y007507D01*
X014768Y007471D01*
X014768Y007397D01*
X014804Y007361D01*
X014878Y007361D01*
X014915Y007397D01*
X014694Y007361D02*
X014694Y007471D01*
X014657Y007507D01*
X014620Y007471D01*
X014620Y007361D01*
X014547Y007361D02*
X014547Y007507D01*
X014583Y007507D01*
X014620Y007471D01*
X014473Y007434D02*
X014473Y007581D01*
X014473Y007434D02*
X014399Y007361D01*
X014326Y007434D01*
X014326Y007581D01*
X014362Y008361D02*
X014436Y008361D01*
X014473Y008397D01*
X014473Y008471D01*
X014399Y008471D01*
X014326Y008544D02*
X014326Y008397D01*
X014362Y008361D01*
X014547Y008361D02*
X014547Y008581D01*
X014694Y008361D01*
X014694Y008581D01*
X014768Y008581D02*
X014878Y008581D01*
X014915Y008544D01*
X014915Y008397D01*
X014878Y008361D01*
X014768Y008361D01*
X014768Y008581D01*
X014473Y008544D02*
X014436Y008581D01*
X014362Y008581D01*
X014326Y008544D01*
X014326Y009361D02*
X014473Y009507D01*
X014473Y009544D01*
X014436Y009581D01*
X014362Y009581D01*
X014326Y009544D01*
X014326Y009361D02*
X014473Y009361D01*
X014547Y009361D02*
X014657Y009361D01*
X014694Y009397D01*
X014694Y009434D01*
X014657Y009471D01*
X014547Y009471D01*
X014657Y009471D02*
X014694Y009507D01*
X014694Y009544D01*
X014657Y009581D01*
X014547Y009581D01*
X014547Y009361D01*
X014547Y010361D02*
X014547Y010507D01*
X014620Y010581D01*
X014694Y010507D01*
X014694Y010361D01*
X014694Y010471D02*
X014547Y010471D01*
X014473Y010507D02*
X014473Y010544D01*
X014436Y010581D01*
X014362Y010581D01*
X014326Y010544D01*
X014473Y010507D02*
X014326Y010361D01*
X014473Y010361D01*
X014473Y011361D02*
X014326Y011361D01*
X014399Y011361D02*
X014399Y011581D01*
X014326Y011507D01*
X014547Y011507D02*
X014620Y011581D01*
X014694Y011507D01*
X014694Y011361D01*
X014694Y011471D02*
X014547Y011471D01*
X014547Y011507D02*
X014547Y011361D01*
X014547Y012361D02*
X014657Y012361D01*
X014694Y012397D01*
X014694Y012434D01*
X014657Y012471D01*
X014547Y012471D01*
X014657Y012471D02*
X014694Y012507D01*
X014694Y012544D01*
X014657Y012581D01*
X014547Y012581D01*
X014547Y012361D01*
X014473Y012361D02*
X014326Y012361D01*
X014399Y012361D02*
X014399Y012581D01*
X014326Y012507D01*
X014399Y013361D02*
X014473Y013434D01*
X014473Y013581D01*
X014547Y013581D02*
X014657Y013581D01*
X014694Y013544D01*
X014694Y013397D01*
X014657Y013361D01*
X014547Y013361D01*
X014547Y013581D01*
X014768Y013581D02*
X014878Y013581D01*
X014915Y013544D01*
X014915Y013397D01*
X014878Y013361D01*
X014768Y013361D01*
X014768Y013581D01*
X014399Y013361D02*
X014326Y013434D01*
X014326Y013581D01*
X014362Y014361D02*
X014436Y014361D01*
X014473Y014397D01*
X014473Y014471D01*
X014399Y014471D01*
X014326Y014544D02*
X014326Y014397D01*
X014362Y014361D01*
X014547Y014361D02*
X014547Y014581D01*
X014694Y014361D01*
X014694Y014581D01*
X014768Y014581D02*
X014878Y014581D01*
X014915Y014544D01*
X014915Y014397D01*
X014878Y014361D01*
X014768Y014361D01*
X014768Y014581D01*
X014473Y014544D02*
X014436Y014581D01*
X014362Y014581D01*
X014326Y014544D01*
X027326Y007581D02*
X027326Y007434D01*
X027399Y007361D01*
X027473Y007434D01*
X027473Y007581D01*
X027547Y007507D02*
X027583Y007507D01*
X027620Y007471D01*
X027657Y007507D01*
X027694Y007471D01*
X027694Y007361D01*
X027620Y007361D02*
X027620Y007471D01*
X027547Y007507D02*
X027547Y007361D01*
X027768Y007397D02*
X027804Y007361D01*
X027878Y007361D01*
X027915Y007397D01*
X027915Y007471D01*
X027878Y007507D01*
X027804Y007507D01*
X027768Y007471D01*
X027768Y007397D01*
X027989Y007507D02*
X028062Y007507D01*
X028025Y007544D02*
X028025Y007397D01*
X028062Y007361D01*
X025715Y031121D02*
X025752Y031157D01*
X025752Y031304D01*
X025715Y031341D01*
X025605Y031341D01*
X025605Y031121D01*
X025715Y031121D01*
X025531Y031121D02*
X025531Y031341D01*
X025384Y031341D02*
X025531Y031121D01*
X025384Y031121D02*
X025384Y031341D01*
X025310Y031304D02*
X025273Y031341D01*
X025199Y031341D01*
X025163Y031304D01*
X025163Y031157D01*
X025199Y031121D01*
X025273Y031121D01*
X025310Y031157D01*
X025310Y031231D01*
X025236Y031231D01*
X025236Y032121D02*
X025310Y032194D01*
X025310Y032341D01*
X025384Y032341D02*
X025384Y032121D01*
X025494Y032121D01*
X025531Y032157D01*
X025531Y032304D01*
X025494Y032341D01*
X025384Y032341D01*
X025605Y032341D02*
X025715Y032341D01*
X025752Y032304D01*
X025752Y032157D01*
X025715Y032121D01*
X025605Y032121D01*
X025605Y032341D01*
X025236Y032121D02*
X025163Y032194D01*
X025163Y032341D01*
X025384Y033121D02*
X025531Y033121D01*
X025605Y033121D02*
X025715Y033121D01*
X025752Y033157D01*
X025752Y033194D01*
X025715Y033231D01*
X025605Y033231D01*
X025605Y033341D02*
X025715Y033341D01*
X025752Y033304D01*
X025752Y033267D01*
X025715Y033231D01*
X025605Y033121D02*
X025605Y033341D01*
X025457Y033341D02*
X025457Y033121D01*
X025384Y033267D02*
X025457Y033341D01*
X025457Y034121D02*
X025457Y034341D01*
X025384Y034267D01*
X025384Y034121D02*
X025531Y034121D01*
X025605Y034121D02*
X025605Y034267D01*
X025678Y034341D01*
X025752Y034267D01*
X025752Y034121D01*
X025752Y034231D02*
X025605Y034231D01*
X025605Y035121D02*
X025605Y035267D01*
X025678Y035341D01*
X025752Y035267D01*
X025752Y035121D01*
X025752Y035231D02*
X025605Y035231D01*
X025531Y035267D02*
X025531Y035304D01*
X025494Y035341D01*
X025420Y035341D01*
X025384Y035304D01*
X025531Y035267D02*
X025384Y035121D01*
X025531Y035121D01*
X025531Y036121D02*
X025384Y036121D01*
X025531Y036267D01*
X025531Y036304D01*
X025494Y036341D01*
X025420Y036341D01*
X025384Y036304D01*
X025605Y036341D02*
X025715Y036341D01*
X025752Y036304D01*
X025752Y036267D01*
X025715Y036231D01*
X025605Y036231D01*
X025605Y036121D02*
X025605Y036341D01*
X025715Y036231D02*
X025752Y036194D01*
X025752Y036157D01*
X025715Y036121D01*
X025605Y036121D01*
X025605Y037121D02*
X025715Y037121D01*
X025752Y037157D01*
X025752Y037304D01*
X025715Y037341D01*
X025605Y037341D01*
X025605Y037121D01*
X025531Y037121D02*
X025531Y037341D01*
X025384Y037341D02*
X025531Y037121D01*
X025384Y037121D02*
X025384Y037341D01*
X025310Y037304D02*
X025273Y037341D01*
X025199Y037341D01*
X025163Y037304D01*
X025163Y037157D01*
X025199Y037121D01*
X025273Y037121D01*
X025310Y037157D01*
X025310Y037231D01*
X025236Y037231D01*
X025236Y038121D02*
X025236Y038267D01*
X025273Y038267D01*
X025310Y038231D01*
X025347Y038267D01*
X025383Y038231D01*
X025383Y038121D01*
X025310Y038121D02*
X025310Y038231D01*
X025457Y038231D02*
X025457Y038157D01*
X025494Y038121D01*
X025568Y038121D01*
X025604Y038157D01*
X025604Y038231D01*
X025568Y038267D01*
X025494Y038267D01*
X025457Y038231D01*
X025678Y038267D02*
X025752Y038267D01*
X025715Y038304D02*
X025715Y038157D01*
X025752Y038121D01*
X025162Y038194D02*
X025162Y038341D01*
X025015Y038341D02*
X025015Y038194D01*
X025089Y038121D01*
X025162Y038194D01*
X022194Y038081D02*
X022194Y037861D01*
X022047Y038081D01*
X022047Y037861D01*
X021973Y037861D02*
X021826Y037861D01*
X021826Y038081D01*
X021973Y038081D01*
X021899Y037971D02*
X021826Y037971D01*
X021826Y037081D02*
X021899Y037007D01*
X021973Y037081D01*
X021973Y036861D01*
X022047Y036897D02*
X022083Y036861D01*
X022157Y036861D01*
X022194Y036897D01*
X022194Y036934D01*
X022157Y036971D01*
X022083Y036971D01*
X022047Y037007D01*
X022047Y037044D01*
X022083Y037081D01*
X022157Y037081D01*
X022194Y037044D01*
X022268Y037007D02*
X022341Y037081D01*
X022341Y036861D01*
X022268Y036861D02*
X022415Y036861D01*
X021826Y036861D02*
X021826Y037081D01*
X021826Y036081D02*
X021899Y036007D01*
X021973Y036081D01*
X021973Y035861D01*
X022047Y035897D02*
X022083Y035861D01*
X022157Y035861D01*
X022194Y035897D01*
X022194Y035934D01*
X022157Y035971D01*
X022083Y035971D01*
X022047Y036007D01*
X022047Y036044D01*
X022083Y036081D01*
X022157Y036081D01*
X022194Y036044D01*
X022268Y036044D02*
X022304Y036081D01*
X022378Y036081D01*
X022415Y036044D01*
X022415Y036007D01*
X022268Y035861D01*
X022415Y035861D01*
X021826Y035861D02*
X021826Y036081D01*
X021826Y035081D02*
X021899Y035007D01*
X021973Y035081D01*
X021973Y034861D01*
X022047Y034897D02*
X022083Y034861D01*
X022157Y034861D01*
X022194Y034897D01*
X022194Y034934D01*
X022157Y034971D01*
X022083Y034971D01*
X022047Y035007D01*
X022047Y035044D01*
X022083Y035081D01*
X022157Y035081D01*
X022194Y035044D01*
X022268Y035044D02*
X022304Y035081D01*
X022378Y035081D01*
X022415Y035044D01*
X022415Y035007D01*
X022378Y034971D01*
X022415Y034934D01*
X022415Y034897D01*
X022378Y034861D01*
X022304Y034861D01*
X022268Y034897D01*
X022341Y034971D02*
X022378Y034971D01*
X021826Y034861D02*
X021826Y035081D01*
X021826Y034081D02*
X021936Y034081D01*
X021973Y034044D01*
X021973Y033971D01*
X021936Y033934D01*
X021826Y033934D01*
X021899Y033934D02*
X021973Y033861D01*
X022047Y033897D02*
X022083Y033861D01*
X022157Y033861D01*
X022194Y033897D01*
X022194Y033934D01*
X022157Y033971D01*
X022083Y033971D01*
X022047Y034007D01*
X022047Y034044D01*
X022083Y034081D01*
X022157Y034081D01*
X022194Y034044D01*
X022268Y034081D02*
X022415Y034081D01*
X022341Y034081D02*
X022341Y033861D01*
X021826Y033861D02*
X021826Y034081D01*
X021862Y033081D02*
X021826Y033044D01*
X021826Y033007D01*
X021862Y032971D01*
X021936Y032971D01*
X021973Y032934D01*
X021973Y032897D01*
X021936Y032861D01*
X021862Y032861D01*
X021826Y032897D01*
X021862Y033081D02*
X021936Y033081D01*
X021973Y033044D01*
X022047Y033081D02*
X022047Y032861D01*
X022194Y032861D01*
X022268Y032861D02*
X022268Y033081D01*
X022378Y033081D01*
X022415Y033044D01*
X022415Y032971D01*
X022378Y032934D01*
X022268Y032934D01*
X022268Y032081D02*
X022268Y031861D01*
X022415Y031861D01*
X022489Y031861D02*
X022489Y032081D01*
X022599Y032081D01*
X022636Y032044D01*
X022636Y031971D01*
X022599Y031934D01*
X022489Y031934D01*
X022341Y031971D02*
X022268Y031971D01*
X022268Y032081D02*
X022415Y032081D01*
X022194Y032081D02*
X022047Y032081D01*
X022120Y032081D02*
X022120Y031861D01*
X021973Y031897D02*
X021936Y031861D01*
X021862Y031861D01*
X021826Y031897D01*
X021862Y031971D02*
X021936Y031971D01*
X021973Y031934D01*
X021973Y031897D01*
X021862Y031971D02*
X021826Y032007D01*
X021826Y032044D01*
X021862Y032081D01*
X021936Y032081D01*
X021973Y032044D01*
X021936Y031081D02*
X021826Y031081D01*
X021826Y030861D01*
X021936Y030861D01*
X021973Y030897D01*
X021973Y031044D01*
X021936Y031081D01*
X022047Y031081D02*
X022120Y031081D01*
X022083Y031081D02*
X022083Y030861D01*
X022047Y030861D02*
X022120Y030861D01*
X022194Y030861D02*
X022194Y031081D01*
X022304Y031081D01*
X022341Y031044D01*
X022341Y030971D01*
X022304Y030934D01*
X022194Y030934D01*
X022267Y030934D02*
X022341Y030861D01*
X019252Y031157D02*
X019252Y031304D01*
X019215Y031341D01*
X019105Y031341D01*
X019105Y031121D01*
X019215Y031121D01*
X019252Y031157D01*
X019031Y031121D02*
X019031Y031341D01*
X018884Y031341D02*
X018884Y031121D01*
X018810Y031157D02*
X018810Y031231D01*
X018736Y031231D01*
X018663Y031304D02*
X018663Y031157D01*
X018699Y031121D01*
X018773Y031121D01*
X018810Y031157D01*
X018810Y031304D02*
X018773Y031341D01*
X018699Y031341D01*
X018663Y031304D01*
X018884Y031341D02*
X019031Y031121D01*
X018994Y032121D02*
X019031Y032157D01*
X019031Y032304D01*
X018994Y032341D01*
X018884Y032341D01*
X018884Y032121D01*
X018994Y032121D01*
X019105Y032121D02*
X019105Y032341D01*
X019215Y032341D01*
X019252Y032304D01*
X019252Y032157D01*
X019215Y032121D01*
X019105Y032121D01*
X018810Y032194D02*
X018810Y032341D01*
X018810Y032194D02*
X018736Y032121D01*
X018663Y032194D01*
X018663Y032341D01*
X018884Y033121D02*
X019031Y033121D01*
X019105Y033121D02*
X019215Y033121D01*
X019252Y033157D01*
X019252Y033194D01*
X019215Y033231D01*
X019105Y033231D01*
X019105Y033341D02*
X019215Y033341D01*
X019252Y033304D01*
X019252Y033267D01*
X019215Y033231D01*
X019105Y033121D02*
X019105Y033341D01*
X018957Y033341D02*
X018957Y033121D01*
X018884Y033267D02*
X018957Y033341D01*
X018957Y034121D02*
X018957Y034341D01*
X018884Y034267D01*
X018884Y034121D02*
X019031Y034121D01*
X019105Y034121D02*
X019105Y034267D01*
X019178Y034341D01*
X019252Y034267D01*
X019252Y034121D01*
X019252Y034231D02*
X019105Y034231D01*
X019105Y035121D02*
X019105Y035267D01*
X019178Y035341D01*
X019252Y035267D01*
X019252Y035121D01*
X019252Y035231D02*
X019105Y035231D01*
X019031Y035267D02*
X019031Y035304D01*
X018994Y035341D01*
X018920Y035341D01*
X018884Y035304D01*
X019031Y035267D02*
X018884Y035121D01*
X019031Y035121D01*
X019031Y036121D02*
X018884Y036121D01*
X019031Y036267D01*
X019031Y036304D01*
X018994Y036341D01*
X018920Y036341D01*
X018884Y036304D01*
X019105Y036341D02*
X019105Y036121D01*
X019215Y036121D01*
X019252Y036157D01*
X019252Y036194D01*
X019215Y036231D01*
X019105Y036231D01*
X019105Y036341D02*
X019215Y036341D01*
X019252Y036304D01*
X019252Y036267D01*
X019215Y036231D01*
X019215Y037121D02*
X019252Y037157D01*
X019252Y037304D01*
X019215Y037341D01*
X019105Y037341D01*
X019105Y037121D01*
X019215Y037121D01*
X019031Y037121D02*
X019031Y037341D01*
X018884Y037341D02*
X018884Y037121D01*
X018810Y037157D02*
X018810Y037231D01*
X018736Y037231D01*
X018663Y037304D02*
X018663Y037157D01*
X018699Y037121D01*
X018773Y037121D01*
X018810Y037157D01*
X018810Y037304D02*
X018773Y037341D01*
X018699Y037341D01*
X018663Y037304D01*
X018884Y037341D02*
X019031Y037121D01*
X018994Y038121D02*
X019068Y038121D01*
X019104Y038157D01*
X019104Y038231D01*
X019068Y038267D01*
X018994Y038267D01*
X018957Y038231D01*
X018957Y038157D01*
X018994Y038121D01*
X018883Y038121D02*
X018883Y038231D01*
X018847Y038267D01*
X018810Y038231D01*
X018810Y038121D01*
X018736Y038121D02*
X018736Y038267D01*
X018773Y038267D01*
X018810Y038231D01*
X018662Y038194D02*
X018662Y038341D01*
X018515Y038341D02*
X018515Y038194D01*
X018589Y038121D01*
X018662Y038194D01*
X019178Y038267D02*
X019252Y038267D01*
X019215Y038304D02*
X019215Y038157D01*
X019252Y038121D01*
X015694Y038081D02*
X015694Y037861D01*
X015547Y038081D01*
X015547Y037861D01*
X015473Y037861D02*
X015326Y037861D01*
X015326Y038081D01*
X015473Y038081D01*
X015399Y037971D02*
X015326Y037971D01*
X015326Y037081D02*
X015399Y037007D01*
X015473Y037081D01*
X015473Y036861D01*
X015547Y036897D02*
X015583Y036861D01*
X015657Y036861D01*
X015694Y036897D01*
X015694Y036934D01*
X015657Y036971D01*
X015583Y036971D01*
X015547Y037007D01*
X015547Y037044D01*
X015583Y037081D01*
X015657Y037081D01*
X015694Y037044D01*
X015768Y037007D02*
X015841Y037081D01*
X015841Y036861D01*
X015768Y036861D02*
X015915Y036861D01*
X015326Y036861D02*
X015326Y037081D01*
X015326Y036081D02*
X015399Y036007D01*
X015473Y036081D01*
X015473Y035861D01*
X015547Y035897D02*
X015583Y035861D01*
X015657Y035861D01*
X015694Y035897D01*
X015694Y035934D01*
X015657Y035971D01*
X015583Y035971D01*
X015547Y036007D01*
X015547Y036044D01*
X015583Y036081D01*
X015657Y036081D01*
X015694Y036044D01*
X015768Y036044D02*
X015804Y036081D01*
X015878Y036081D01*
X015915Y036044D01*
X015915Y036007D01*
X015768Y035861D01*
X015915Y035861D01*
X015326Y035861D02*
X015326Y036081D01*
X015326Y035081D02*
X015399Y035007D01*
X015473Y035081D01*
X015473Y034861D01*
X015547Y034897D02*
X015583Y034861D01*
X015657Y034861D01*
X015694Y034897D01*
X015694Y034934D01*
X015657Y034971D01*
X015583Y034971D01*
X015547Y035007D01*
X015547Y035044D01*
X015583Y035081D01*
X015657Y035081D01*
X015694Y035044D01*
X015768Y035044D02*
X015804Y035081D01*
X015878Y035081D01*
X015915Y035044D01*
X015915Y035007D01*
X015878Y034971D01*
X015915Y034934D01*
X015915Y034897D01*
X015878Y034861D01*
X015804Y034861D01*
X015768Y034897D01*
X015841Y034971D02*
X015878Y034971D01*
X015326Y034861D02*
X015326Y035081D01*
X015326Y034081D02*
X015436Y034081D01*
X015473Y034044D01*
X015473Y033971D01*
X015436Y033934D01*
X015326Y033934D01*
X015399Y033934D02*
X015473Y033861D01*
X015547Y033897D02*
X015583Y033861D01*
X015657Y033861D01*
X015694Y033897D01*
X015694Y033934D01*
X015657Y033971D01*
X015583Y033971D01*
X015547Y034007D01*
X015547Y034044D01*
X015583Y034081D01*
X015657Y034081D01*
X015694Y034044D01*
X015768Y034081D02*
X015915Y034081D01*
X015841Y034081D02*
X015841Y033861D01*
X015326Y033861D02*
X015326Y034081D01*
X015362Y033081D02*
X015326Y033044D01*
X015326Y033007D01*
X015362Y032971D01*
X015436Y032971D01*
X015473Y032934D01*
X015473Y032897D01*
X015436Y032861D01*
X015362Y032861D01*
X015326Y032897D01*
X015362Y033081D02*
X015436Y033081D01*
X015473Y033044D01*
X015547Y033081D02*
X015547Y032861D01*
X015694Y032861D01*
X015768Y032861D02*
X015768Y033081D01*
X015878Y033081D01*
X015915Y033044D01*
X015915Y032971D01*
X015878Y032934D01*
X015768Y032934D01*
X015768Y032081D02*
X015768Y031861D01*
X015915Y031861D01*
X015989Y031861D02*
X015989Y032081D01*
X016099Y032081D01*
X016136Y032044D01*
X016136Y031971D01*
X016099Y031934D01*
X015989Y031934D01*
X015841Y031971D02*
X015768Y031971D01*
X015768Y032081D02*
X015915Y032081D01*
X015694Y032081D02*
X015547Y032081D01*
X015620Y032081D02*
X015620Y031861D01*
X015473Y031897D02*
X015436Y031861D01*
X015362Y031861D01*
X015326Y031897D01*
X015362Y031971D02*
X015436Y031971D01*
X015473Y031934D01*
X015473Y031897D01*
X015362Y031971D02*
X015326Y032007D01*
X015326Y032044D01*
X015362Y032081D01*
X015436Y032081D01*
X015473Y032044D01*
X015436Y031081D02*
X015326Y031081D01*
X015326Y030861D01*
X015436Y030861D01*
X015473Y030897D01*
X015473Y031044D01*
X015436Y031081D01*
X015547Y031081D02*
X015620Y031081D01*
X015583Y031081D02*
X015583Y030861D01*
X015547Y030861D02*
X015620Y030861D01*
X015694Y030861D02*
X015694Y031081D01*
X015804Y031081D01*
X015841Y031044D01*
X015841Y030971D01*
X015804Y030934D01*
X015694Y030934D01*
X015767Y030934D02*
X015841Y030861D01*
X012752Y031157D02*
X012752Y031304D01*
X012715Y031341D01*
X012605Y031341D01*
X012605Y031121D01*
X012715Y031121D01*
X012752Y031157D01*
X012531Y031121D02*
X012531Y031341D01*
X012384Y031341D02*
X012531Y031121D01*
X012384Y031121D02*
X012384Y031341D01*
X012310Y031304D02*
X012273Y031341D01*
X012199Y031341D01*
X012163Y031304D01*
X012163Y031157D01*
X012199Y031121D01*
X012273Y031121D01*
X012310Y031157D01*
X012310Y031231D01*
X012236Y031231D01*
X012236Y032121D02*
X012163Y032194D01*
X012163Y032341D01*
X012310Y032341D02*
X012310Y032194D01*
X012236Y032121D01*
X012384Y032121D02*
X012494Y032121D01*
X012531Y032157D01*
X012531Y032304D01*
X012494Y032341D01*
X012384Y032341D01*
X012384Y032121D01*
X012605Y032121D02*
X012715Y032121D01*
X012752Y032157D01*
X012752Y032304D01*
X012715Y032341D01*
X012605Y032341D01*
X012605Y032121D01*
X012605Y033121D02*
X012715Y033121D01*
X012752Y033157D01*
X012752Y033194D01*
X012715Y033231D01*
X012605Y033231D01*
X012605Y033341D02*
X012715Y033341D01*
X012752Y033304D01*
X012752Y033267D01*
X012715Y033231D01*
X012605Y033121D02*
X012605Y033341D01*
X012457Y033341D02*
X012457Y033121D01*
X012384Y033121D02*
X012531Y033121D01*
X012384Y033267D02*
X012457Y033341D01*
X012457Y034121D02*
X012457Y034341D01*
X012384Y034267D01*
X012384Y034121D02*
X012531Y034121D01*
X012605Y034121D02*
X012605Y034267D01*
X012678Y034341D01*
X012752Y034267D01*
X012752Y034121D01*
X012752Y034231D02*
X012605Y034231D01*
X012605Y035121D02*
X012605Y035267D01*
X012678Y035341D01*
X012752Y035267D01*
X012752Y035121D01*
X012752Y035231D02*
X012605Y035231D01*
X012531Y035267D02*
X012531Y035304D01*
X012494Y035341D01*
X012420Y035341D01*
X012384Y035304D01*
X012531Y035267D02*
X012384Y035121D01*
X012531Y035121D01*
X012531Y036121D02*
X012384Y036121D01*
X012531Y036267D01*
X012531Y036304D01*
X012494Y036341D01*
X012420Y036341D01*
X012384Y036304D01*
X012605Y036341D02*
X012715Y036341D01*
X012752Y036304D01*
X012752Y036267D01*
X012715Y036231D01*
X012605Y036231D01*
X012605Y036121D02*
X012605Y036341D01*
X012715Y036231D02*
X012752Y036194D01*
X012752Y036157D01*
X012715Y036121D01*
X012605Y036121D01*
X012605Y037121D02*
X012715Y037121D01*
X012752Y037157D01*
X012752Y037304D01*
X012715Y037341D01*
X012605Y037341D01*
X012605Y037121D01*
X012531Y037121D02*
X012531Y037341D01*
X012384Y037341D02*
X012531Y037121D01*
X012384Y037121D02*
X012384Y037341D01*
X012310Y037304D02*
X012273Y037341D01*
X012199Y037341D01*
X012163Y037304D01*
X012163Y037157D01*
X012199Y037121D01*
X012273Y037121D01*
X012310Y037157D01*
X012310Y037231D01*
X012236Y037231D01*
X012236Y038121D02*
X012236Y038267D01*
X012273Y038267D01*
X012310Y038231D01*
X012347Y038267D01*
X012383Y038231D01*
X012383Y038121D01*
X012310Y038121D02*
X012310Y038231D01*
X012457Y038231D02*
X012457Y038157D01*
X012494Y038121D01*
X012568Y038121D01*
X012604Y038157D01*
X012604Y038231D01*
X012568Y038267D01*
X012494Y038267D01*
X012457Y038231D01*
X012678Y038267D02*
X012752Y038267D01*
X012715Y038304D02*
X012715Y038157D01*
X012752Y038121D01*
X012162Y038194D02*
X012162Y038341D01*
X012015Y038341D02*
X012015Y038194D01*
X012089Y038121D01*
X012162Y038194D01*
X009341Y037081D02*
X009341Y036861D01*
X009268Y036861D02*
X009415Y036861D01*
X009268Y037007D02*
X009341Y037081D01*
X009194Y037044D02*
X009157Y037081D01*
X009083Y037081D01*
X009047Y037044D01*
X009047Y037007D01*
X009083Y036971D01*
X009157Y036971D01*
X009194Y036934D01*
X009194Y036897D01*
X009157Y036861D01*
X009083Y036861D01*
X009047Y036897D01*
X008973Y036861D02*
X008973Y037081D01*
X008899Y037007D01*
X008826Y037081D01*
X008826Y036861D01*
X008826Y036081D02*
X008899Y036007D01*
X008973Y036081D01*
X008973Y035861D01*
X009047Y035897D02*
X009083Y035861D01*
X009157Y035861D01*
X009194Y035897D01*
X009194Y035934D01*
X009157Y035971D01*
X009083Y035971D01*
X009047Y036007D01*
X009047Y036044D01*
X009083Y036081D01*
X009157Y036081D01*
X009194Y036044D01*
X009268Y036044D02*
X009304Y036081D01*
X009378Y036081D01*
X009415Y036044D01*
X009415Y036007D01*
X009268Y035861D01*
X009415Y035861D01*
X008826Y035861D02*
X008826Y036081D01*
X008826Y035081D02*
X008899Y035007D01*
X008973Y035081D01*
X008973Y034861D01*
X009047Y034897D02*
X009083Y034861D01*
X009157Y034861D01*
X009194Y034897D01*
X009194Y034934D01*
X009157Y034971D01*
X009083Y034971D01*
X009047Y035007D01*
X009047Y035044D01*
X009083Y035081D01*
X009157Y035081D01*
X009194Y035044D01*
X009268Y035044D02*
X009304Y035081D01*
X009378Y035081D01*
X009415Y035044D01*
X009415Y035007D01*
X009378Y034971D01*
X009415Y034934D01*
X009415Y034897D01*
X009378Y034861D01*
X009304Y034861D01*
X009268Y034897D01*
X009341Y034971D02*
X009378Y034971D01*
X008826Y034861D02*
X008826Y035081D01*
X008826Y034081D02*
X008936Y034081D01*
X008973Y034044D01*
X008973Y033971D01*
X008936Y033934D01*
X008826Y033934D01*
X008899Y033934D02*
X008973Y033861D01*
X009047Y033897D02*
X009083Y033861D01*
X009157Y033861D01*
X009194Y033897D01*
X009194Y033934D01*
X009157Y033971D01*
X009083Y033971D01*
X009047Y034007D01*
X009047Y034044D01*
X009083Y034081D01*
X009157Y034081D01*
X009194Y034044D01*
X009268Y034081D02*
X009415Y034081D01*
X009341Y034081D02*
X009341Y033861D01*
X008826Y033861D02*
X008826Y034081D01*
X008862Y033081D02*
X008826Y033044D01*
X008826Y033007D01*
X008862Y032971D01*
X008936Y032971D01*
X008973Y032934D01*
X008973Y032897D01*
X008936Y032861D01*
X008862Y032861D01*
X008826Y032897D01*
X008862Y033081D02*
X008936Y033081D01*
X008973Y033044D01*
X009047Y033081D02*
X009047Y032861D01*
X009194Y032861D01*
X009268Y032861D02*
X009268Y033081D01*
X009378Y033081D01*
X009415Y033044D01*
X009415Y032971D01*
X009378Y032934D01*
X009268Y032934D01*
X009268Y032081D02*
X009268Y031861D01*
X009415Y031861D01*
X009489Y031861D02*
X009489Y032081D01*
X009599Y032081D01*
X009636Y032044D01*
X009636Y031971D01*
X009599Y031934D01*
X009489Y031934D01*
X009341Y031971D02*
X009268Y031971D01*
X009268Y032081D02*
X009415Y032081D01*
X009194Y032081D02*
X009047Y032081D01*
X009120Y032081D02*
X009120Y031861D01*
X008973Y031897D02*
X008936Y031861D01*
X008862Y031861D01*
X008826Y031897D01*
X008862Y031971D02*
X008936Y031971D01*
X008973Y031934D01*
X008973Y031897D01*
X008862Y031971D02*
X008826Y032007D01*
X008826Y032044D01*
X008862Y032081D01*
X008936Y032081D01*
X008973Y032044D01*
X008936Y031081D02*
X008826Y031081D01*
X008826Y030861D01*
X008936Y030861D01*
X008973Y030897D01*
X008973Y031044D01*
X008936Y031081D01*
X009047Y031081D02*
X009120Y031081D01*
X009083Y031081D02*
X009083Y030861D01*
X009047Y030861D02*
X009120Y030861D01*
X009194Y030861D02*
X009194Y031081D01*
X009304Y031081D01*
X009341Y031044D01*
X009341Y030971D01*
X009304Y030934D01*
X009194Y030934D01*
X009267Y030934D02*
X009341Y030861D01*
X009194Y037861D02*
X009194Y038081D01*
X009047Y038081D02*
X009194Y037861D01*
X009047Y037861D02*
X009047Y038081D01*
X008973Y038081D02*
X008826Y038081D01*
X008826Y037861D01*
X008973Y037861D01*
X008899Y037971D02*
X008826Y037971D01*
X033466Y039051D02*
X036166Y039051D01*
X036166Y039351D02*
X033466Y039351D01*
X032805Y040301D02*
X032837Y040346D01*
X032873Y040388D01*
X032912Y040428D01*
X032953Y040465D01*
X032997Y040499D01*
X033044Y040530D01*
X033092Y040558D01*
X033142Y040582D01*
X033193Y040603D01*
X033246Y040620D01*
X033300Y040634D01*
X033355Y040643D01*
X033410Y040649D01*
X033466Y040651D01*
X036166Y040651D01*
X036166Y040351D02*
X033466Y040351D01*
X033428Y040350D01*
X033391Y040345D01*
X033354Y040338D01*
X033318Y040329D01*
X033282Y040316D01*
X033248Y040301D01*
X032805Y039401D02*
X032837Y039356D01*
X032873Y039314D01*
X032912Y039274D01*
X032954Y039237D01*
X032997Y039203D01*
X033044Y039172D01*
X033092Y039144D01*
X033142Y039120D01*
X033193Y039099D01*
X033246Y039082D01*
X033300Y039068D01*
X033355Y039059D01*
X033410Y039053D01*
X033466Y039051D01*
X033466Y039351D02*
X033428Y039352D01*
X033391Y039357D01*
X033354Y039364D01*
X033318Y039373D01*
X033282Y039386D01*
X033248Y039401D01*
X034416Y039851D02*
X034566Y039851D01*
X035066Y039851D02*
X035216Y039851D01*
X036166Y039051D02*
X036222Y039053D01*
X036277Y039059D01*
X036332Y039068D01*
X036386Y039082D01*
X036439Y039099D01*
X036490Y039120D01*
X036540Y039144D01*
X036588Y039172D01*
X036635Y039203D01*
X036679Y039237D01*
X036720Y039274D01*
X036759Y039314D01*
X036795Y039356D01*
X036827Y039401D01*
X036827Y040301D02*
X036795Y040346D01*
X036759Y040388D01*
X036720Y040428D01*
X036678Y040465D01*
X036635Y040499D01*
X036588Y040530D01*
X036540Y040558D01*
X036490Y040582D01*
X036439Y040603D01*
X036386Y040620D01*
X036332Y040634D01*
X036277Y040643D01*
X036222Y040649D01*
X036166Y040651D01*
X036166Y040351D02*
X036204Y040350D01*
X036241Y040345D01*
X036278Y040338D01*
X036314Y040329D01*
X036350Y040316D01*
X036384Y040301D01*
X036384Y039401D02*
X036350Y039386D01*
X036314Y039373D01*
X036278Y039364D01*
X036241Y039357D01*
X036204Y039352D01*
X036166Y039351D01*
D23*
X035119Y032318D02*
X035096Y032295D01*
X035076Y032269D01*
X035059Y032241D01*
X035045Y032212D01*
X035034Y032181D01*
X035027Y032150D01*
X035023Y032117D01*
X035023Y032085D01*
X035027Y032052D01*
X035034Y032021D01*
X035045Y031990D01*
X035059Y031961D01*
X035076Y031933D01*
X035096Y031907D01*
X035119Y031884D01*
X035513Y031884D02*
X035536Y031907D01*
X035556Y031933D01*
X035573Y031961D01*
X035587Y031990D01*
X035598Y032021D01*
X035605Y032052D01*
X035609Y032085D01*
X035609Y032117D01*
X035605Y032150D01*
X035598Y032181D01*
X035587Y032212D01*
X035573Y032241D01*
X035556Y032269D01*
X035536Y032295D01*
X035513Y032318D01*
X034013Y032318D02*
X034036Y032295D01*
X034056Y032269D01*
X034073Y032241D01*
X034087Y032212D01*
X034098Y032181D01*
X034105Y032150D01*
X034109Y032117D01*
X034109Y032085D01*
X034105Y032052D01*
X034098Y032021D01*
X034087Y031990D01*
X034073Y031961D01*
X034056Y031933D01*
X034036Y031907D01*
X034013Y031884D01*
X033619Y031884D02*
X033596Y031907D01*
X033576Y031933D01*
X033559Y031961D01*
X033545Y031990D01*
X033534Y032021D01*
X033527Y032052D01*
X033523Y032085D01*
X033523Y032117D01*
X033527Y032150D01*
X033534Y032181D01*
X033545Y032212D01*
X033559Y032241D01*
X033576Y032269D01*
X033596Y032295D01*
X033619Y032318D01*
X032513Y032318D02*
X032536Y032295D01*
X032556Y032269D01*
X032573Y032241D01*
X032587Y032212D01*
X032598Y032181D01*
X032605Y032150D01*
X032609Y032117D01*
X032609Y032085D01*
X032605Y032052D01*
X032598Y032021D01*
X032587Y031990D01*
X032573Y031961D01*
X032556Y031933D01*
X032536Y031907D01*
X032513Y031884D01*
X032119Y031884D02*
X032096Y031907D01*
X032076Y031933D01*
X032059Y031961D01*
X032045Y031990D01*
X032034Y032021D01*
X032027Y032052D01*
X032023Y032085D01*
X032023Y032117D01*
X032027Y032150D01*
X032034Y032181D01*
X032045Y032212D01*
X032059Y032241D01*
X032076Y032269D01*
X032096Y032295D01*
X032119Y032318D01*
D24*
X032316Y032101D03*
X033816Y032101D03*
X035316Y032101D03*
D25*
X035542Y032307D03*
X034042Y032307D03*
X032542Y032307D03*
D26*
X035816Y024338D03*
X035816Y021863D03*
D27*
X035566Y016126D03*
D28*
X040090Y015992D02*
X040240Y015841D01*
X040090Y015992D02*
X040541Y015992D01*
X040541Y016142D02*
X040541Y015841D01*
X040541Y017791D02*
X040240Y018092D01*
X040165Y018092D01*
X040090Y018017D01*
X040090Y017866D01*
X040165Y017791D01*
X040541Y017791D02*
X040541Y018092D01*
X039232Y007326D02*
X039082Y007326D01*
X039006Y007251D01*
X039232Y007326D02*
X039307Y007251D01*
X039307Y007176D01*
X039006Y006876D01*
X039307Y006876D01*
X037357Y006876D02*
X037056Y006876D01*
X037207Y006876D02*
X037207Y007326D01*
X037056Y007176D01*
X008997Y023801D02*
X006635Y023801D01*
X006635Y026400D01*
X008997Y026400D01*
X008997Y023801D01*
X007422Y025101D02*
X007424Y025140D01*
X007430Y025179D01*
X007440Y025217D01*
X007453Y025254D01*
X007470Y025289D01*
X007490Y025323D01*
X007514Y025354D01*
X007541Y025383D01*
X007570Y025409D01*
X007602Y025432D01*
X007636Y025452D01*
X007672Y025468D01*
X007709Y025480D01*
X007748Y025489D01*
X007787Y025494D01*
X007826Y025495D01*
X007865Y025492D01*
X007904Y025485D01*
X007941Y025474D01*
X007978Y025460D01*
X008013Y025442D01*
X008046Y025421D01*
X008077Y025396D01*
X008105Y025369D01*
X008130Y025339D01*
X008152Y025306D01*
X008171Y025272D01*
X008186Y025236D01*
X008198Y025198D01*
X008206Y025160D01*
X008210Y025121D01*
X008210Y025081D01*
X008206Y025042D01*
X008198Y025004D01*
X008186Y024966D01*
X008171Y024930D01*
X008152Y024896D01*
X008130Y024863D01*
X008105Y024833D01*
X008077Y024806D01*
X008046Y024781D01*
X008013Y024760D01*
X007978Y024742D01*
X007941Y024728D01*
X007904Y024717D01*
X007865Y024710D01*
X007826Y024707D01*
X007787Y024708D01*
X007748Y024713D01*
X007709Y024722D01*
X007672Y024734D01*
X007636Y024750D01*
X007602Y024770D01*
X007570Y024793D01*
X007541Y024819D01*
X007514Y024848D01*
X007490Y024879D01*
X007470Y024913D01*
X007453Y024948D01*
X007440Y024985D01*
X007430Y025023D01*
X007424Y025062D01*
X007422Y025101D01*
X007224Y025101D02*
X007226Y025149D01*
X007232Y025197D01*
X007242Y025244D01*
X007255Y025291D01*
X007273Y025336D01*
X007294Y025379D01*
X007318Y025421D01*
X007346Y025461D01*
X007377Y025498D01*
X007410Y025532D01*
X007447Y025564D01*
X007486Y025592D01*
X007527Y025618D01*
X007570Y025640D01*
X007615Y025658D01*
X007661Y025672D01*
X007708Y025683D01*
X007756Y025690D01*
X007804Y025693D01*
X007852Y025692D01*
X007900Y025687D01*
X007948Y025678D01*
X007994Y025665D01*
X008040Y025649D01*
X008084Y025629D01*
X008126Y025605D01*
X008166Y025579D01*
X008204Y025548D01*
X008239Y025515D01*
X008271Y025479D01*
X008301Y025441D01*
X008327Y025400D01*
X008349Y025358D01*
X008369Y025314D01*
X008384Y025268D01*
X008396Y025221D01*
X008404Y025173D01*
X008408Y025125D01*
X008408Y025077D01*
X008404Y025029D01*
X008396Y024981D01*
X008384Y024934D01*
X008369Y024888D01*
X008349Y024844D01*
X008327Y024802D01*
X008301Y024761D01*
X008271Y024723D01*
X008239Y024687D01*
X008204Y024654D01*
X008166Y024623D01*
X008126Y024597D01*
X008084Y024573D01*
X008040Y024553D01*
X007994Y024537D01*
X007948Y024524D01*
X007900Y024515D01*
X007852Y024510D01*
X007804Y024509D01*
X007756Y024512D01*
X007708Y024519D01*
X007661Y024530D01*
X007615Y024544D01*
X007570Y024562D01*
X007527Y024584D01*
X007486Y024610D01*
X007447Y024638D01*
X007410Y024670D01*
X007377Y024704D01*
X007346Y024741D01*
X007318Y024781D01*
X007294Y024823D01*
X007273Y024866D01*
X007255Y024911D01*
X007242Y024958D01*
X007232Y025005D01*
X007226Y025053D01*
X007224Y025101D01*
D29*
X039038Y028101D03*
D30*
X039176Y028998D03*
X039176Y027203D03*
D31*
X031086Y036561D03*
X037046Y010141D03*
X022296Y009891D03*
X009296Y009891D03*
D32*
X011066Y011201D03*
X024066Y011201D03*
X038816Y011451D03*
X029316Y035251D03*
D33*
X031041Y035501D03*
X027591Y035501D03*
X025791Y010951D03*
X022341Y010951D03*
X012791Y010951D03*
X009341Y010951D03*
X037091Y011201D03*
X040541Y011201D03*
D34*
X039316Y011201D03*
X038316Y011201D03*
X024566Y010951D03*
X023566Y010951D03*
X011566Y010951D03*
X010566Y010951D03*
X028816Y035501D03*
X029816Y035501D03*
M02*
