G75*
G70*
%OFA0B0*%
%FSLAX24Y24*%
%IPPOS*%
%LPD*%
%AMOC8*
5,1,8,0,0,1.08239X$1,22.5*
%
%ADD10C,0.0660*%
%ADD11C,0.1300*%
%ADD12C,0.0520*%
%ADD13C,0.0591*%
%ADD14C,0.1000*%
%ADD15OC8,0.1000*%
%ADD16OC8,0.0520*%
%ADD17C,0.0520*%
%ADD18OC8,0.0740*%
%ADD19C,0.0740*%
%ADD20C,0.0705*%
%ADD21R,0.0800X0.0800*%
%ADD22C,0.0800*%
%ADD23C,0.0600*%
%ADD24OC8,0.0630*%
%ADD25C,0.0630*%
%ADD26C,0.0594*%
%ADD27C,0.0554*%
%ADD28C,0.0560*%
%ADD29C,0.0400*%
%ADD30C,0.0320*%
%ADD31C,0.0500*%
%ADD32R,0.0396X0.0396*%
%ADD33C,0.1500*%
%ADD34C,0.0700*%
%ADD35C,0.0240*%
%ADD36C,0.0760*%
D10*
X040786Y035609D03*
X041566Y035609D03*
X041566Y036593D03*
X040786Y036593D03*
D11*
X042636Y038471D03*
X042636Y033731D03*
D12*
X033816Y026361D02*
X033816Y025841D01*
X032816Y025841D02*
X032816Y026361D01*
X031816Y026361D02*
X031816Y025841D01*
X030816Y025841D02*
X030816Y026361D01*
X029816Y026361D02*
X029816Y025841D01*
X028816Y025841D02*
X028816Y026361D01*
X027816Y026361D02*
X027816Y025841D01*
X026816Y025841D02*
X026816Y026361D01*
X025816Y026361D02*
X025816Y025841D01*
X024816Y025841D02*
X024816Y026361D01*
X023816Y026361D02*
X023816Y025841D01*
X022816Y025841D02*
X022816Y026361D01*
X021816Y026361D02*
X021816Y025841D01*
X020816Y025841D02*
X020816Y026361D01*
X019816Y026361D02*
X019816Y025841D01*
X018816Y025841D02*
X018816Y026361D01*
X017816Y026361D02*
X017816Y025841D01*
X016816Y025841D02*
X016816Y026361D01*
X015816Y026361D02*
X015816Y025841D01*
X014816Y025841D02*
X014816Y026361D01*
X014816Y020361D02*
X014816Y019841D01*
X015816Y019841D02*
X015816Y020361D01*
X016816Y020361D02*
X016816Y019841D01*
X017816Y019841D02*
X017816Y020361D01*
X018816Y020361D02*
X018816Y019841D01*
X019816Y019841D02*
X019816Y020361D01*
X020816Y020361D02*
X020816Y019841D01*
X021816Y019841D02*
X021816Y020361D01*
X022816Y020361D02*
X022816Y019841D01*
X023816Y019841D02*
X023816Y020361D01*
X024816Y020361D02*
X024816Y019841D01*
X025816Y019841D02*
X025816Y020361D01*
X026816Y020361D02*
X026816Y019841D01*
X027816Y019841D02*
X027816Y020361D01*
X028816Y020361D02*
X028816Y019841D01*
X029816Y019841D02*
X029816Y020361D01*
X030816Y020361D02*
X030816Y019841D01*
X031816Y019841D02*
X031816Y020361D01*
X032816Y020361D02*
X032816Y019841D01*
X033816Y019841D02*
X033816Y020361D01*
D13*
X035816Y021101D03*
X035816Y025101D03*
D14*
X035566Y017351D03*
D15*
X035566Y015351D03*
D16*
X040916Y032101D03*
D17*
X041716Y032101D03*
D18*
X012116Y024851D03*
X012116Y023851D03*
X012116Y022851D03*
X012116Y021851D03*
X011016Y021851D03*
X011016Y022851D03*
X011016Y023851D03*
X011016Y024851D03*
X011016Y020851D03*
X012116Y020851D03*
D19*
X036566Y030781D03*
X036566Y031921D03*
D20*
X040963Y018585D02*
X041668Y018585D01*
X041668Y016616D02*
X040963Y016616D01*
X039800Y006453D02*
X039800Y005748D01*
X037831Y005748D02*
X037831Y006453D01*
D21*
X027316Y005601D03*
X025316Y005601D03*
X014316Y005601D03*
X012316Y005601D03*
X006566Y012351D03*
X006566Y015851D03*
X006566Y019351D03*
X012816Y040101D03*
X019316Y040101D03*
X025816Y040101D03*
X029316Y040101D03*
D22*
X027938Y040101D03*
X024438Y040101D03*
X023060Y040101D03*
X021682Y040101D03*
X017938Y040101D03*
X016560Y040101D03*
X015182Y040101D03*
X011438Y040101D03*
X010060Y040101D03*
X008682Y040101D03*
X006566Y020729D03*
X006566Y017229D03*
X006566Y013729D03*
X010938Y005601D03*
X015694Y005601D03*
X017072Y005601D03*
X018450Y005601D03*
X023938Y005601D03*
X028694Y005601D03*
X030072Y005601D03*
X031450Y005601D03*
D23*
X025066Y010051D02*
X025066Y010651D01*
X024066Y010651D02*
X024066Y010051D01*
X023066Y010051D02*
X023066Y010651D01*
X012066Y010651D02*
X012066Y010051D01*
X011066Y010051D02*
X011066Y010651D01*
X010066Y010651D02*
X010066Y010051D01*
X028316Y035801D02*
X028316Y036401D01*
X029316Y036401D02*
X029316Y035801D01*
X030316Y035801D02*
X030316Y036401D01*
X037816Y010901D02*
X037816Y010301D01*
X038816Y010301D02*
X038816Y010901D01*
X039816Y010901D02*
X039816Y010301D01*
D24*
X034816Y008351D03*
X021316Y008351D03*
X008316Y008351D03*
D25*
X009316Y008351D03*
X022316Y008351D03*
X035816Y008351D03*
D26*
X035816Y006148D02*
X035816Y005554D01*
X034816Y005554D02*
X034816Y006148D01*
X022316Y006148D02*
X022316Y005554D01*
X021316Y005554D02*
X021316Y006148D01*
X009316Y006148D02*
X009316Y005554D01*
X008316Y005554D02*
X008316Y006148D01*
X008363Y012351D02*
X007769Y012351D01*
X007769Y013351D02*
X008363Y013351D01*
X008363Y014351D02*
X007769Y014351D01*
X007769Y015851D02*
X008363Y015851D01*
X008363Y016851D02*
X007769Y016851D01*
X007769Y017851D02*
X008363Y017851D01*
X008363Y019351D02*
X007769Y019351D01*
X007769Y020351D02*
X008363Y020351D01*
X008363Y021351D02*
X007769Y021351D01*
D27*
X013816Y014601D03*
X013816Y013601D03*
X013816Y012601D03*
X013816Y011601D03*
X013816Y010601D03*
X013816Y009601D03*
X013816Y008601D03*
X013816Y007601D03*
X018816Y007601D03*
X018816Y008601D03*
X018816Y009601D03*
X018816Y010601D03*
X018816Y011601D03*
X018816Y012601D03*
X018816Y013601D03*
X018816Y014601D03*
X026816Y014601D03*
X026816Y013601D03*
X026816Y012601D03*
X026816Y011601D03*
X026816Y010601D03*
X026816Y009601D03*
X026816Y008601D03*
X026816Y007601D03*
X031816Y007601D03*
X031816Y008601D03*
X031816Y009601D03*
X031816Y010601D03*
X031816Y011601D03*
X031816Y012601D03*
X031816Y013601D03*
X031816Y014601D03*
X026316Y031101D03*
X026316Y032101D03*
X026316Y033101D03*
X026316Y034101D03*
X026316Y035101D03*
X026316Y036101D03*
X026316Y037101D03*
X026316Y038101D03*
X021316Y038101D03*
X021316Y037101D03*
X021316Y036101D03*
X021316Y035101D03*
X021316Y034101D03*
X021316Y033101D03*
X021316Y032101D03*
X021316Y031101D03*
X019816Y031101D03*
X019816Y032101D03*
X019816Y033101D03*
X019816Y034101D03*
X019816Y035101D03*
X019816Y036101D03*
X019816Y037101D03*
X019816Y038101D03*
X014816Y038101D03*
X014816Y037101D03*
X014816Y036101D03*
X014816Y035101D03*
X014816Y034101D03*
X014816Y033101D03*
X014816Y032101D03*
X014816Y031101D03*
X013316Y031101D03*
X013316Y032101D03*
X013316Y033101D03*
X013316Y034101D03*
X013316Y035101D03*
X013316Y036101D03*
X013316Y037101D03*
X013316Y038101D03*
X008316Y038101D03*
X008316Y037101D03*
X008316Y036101D03*
X008316Y035101D03*
X008316Y034101D03*
X008316Y033101D03*
X008316Y032101D03*
X008316Y031101D03*
D28*
X026316Y038101D02*
X026316Y038601D01*
X026816Y039101D01*
X029066Y039101D01*
X029316Y039351D01*
X029316Y040101D01*
X036566Y034851D02*
X036566Y031921D01*
X037816Y031601D02*
X038316Y032101D01*
X040916Y032101D01*
X037816Y031601D02*
X037816Y029601D01*
X036566Y034851D02*
X038308Y036593D01*
X040786Y036593D01*
X027816Y009601D02*
X026816Y009601D01*
X027816Y009601D02*
X028066Y009351D01*
X028066Y006351D01*
X027316Y005601D01*
X013816Y008601D02*
X012566Y008601D01*
X012066Y009101D01*
X012066Y010351D01*
X012066Y011351D01*
X011816Y011601D01*
X009316Y011601D01*
X008316Y010601D01*
X008316Y008351D01*
D29*
X009316Y028601D02*
X009316Y031601D01*
X009816Y032101D01*
X013316Y032101D01*
X013816Y032101D01*
X014066Y031851D01*
X014066Y030601D01*
X014316Y030351D01*
X016066Y030351D01*
X016316Y030601D01*
X016316Y031851D01*
X016566Y032101D01*
X019816Y032101D01*
X020316Y032101D01*
X020566Y031851D01*
X020566Y030601D01*
X020816Y030351D01*
X022816Y030351D01*
X023066Y030601D01*
X023066Y031851D01*
X023316Y032101D01*
X026316Y032101D01*
X026316Y031101D02*
X024566Y031101D01*
X023316Y029851D01*
X020316Y029851D01*
X019816Y030351D01*
X019816Y031101D01*
X017566Y031101D01*
X017316Y030851D01*
X017316Y030601D01*
X016316Y029601D01*
X014066Y029601D01*
X013316Y030351D01*
X013316Y031101D01*
D30*
X014066Y029101D02*
X012566Y027601D01*
X011566Y027601D01*
X012066Y027101D02*
X011816Y026851D01*
X007816Y026851D01*
X006816Y027851D01*
X006816Y029101D01*
X007066Y029351D01*
X007066Y037101D01*
X008066Y038101D01*
X008316Y038101D01*
X008066Y038101D02*
X007816Y038101D01*
X007566Y038351D01*
X007566Y040601D01*
X008066Y041101D01*
X014066Y041101D01*
X014066Y038601D01*
X014566Y038101D01*
X014816Y038101D01*
X014066Y041101D02*
X020316Y041101D01*
X020566Y040851D01*
X020566Y038351D01*
X020816Y038101D01*
X021316Y038101D01*
X027066Y033351D02*
X027066Y030601D01*
X026566Y030101D01*
X024566Y030101D01*
X023566Y029101D01*
X014066Y029101D01*
X014316Y028601D02*
X012816Y027101D01*
X012066Y027101D01*
X012566Y026351D02*
X011316Y026351D01*
X010066Y025101D01*
X010066Y014351D01*
X009566Y013601D02*
X009066Y014101D01*
X008316Y014101D01*
X008066Y014351D01*
X008316Y014351D01*
X009066Y015101D01*
X009066Y017851D01*
X008066Y017851D01*
X009066Y017851D02*
X009066Y021101D01*
X008816Y021351D01*
X008066Y021351D01*
X008066Y025851D01*
X006316Y027601D01*
X006316Y029601D01*
X006566Y029851D01*
X012566Y026351D02*
X013816Y025101D01*
X015566Y025101D01*
X015816Y025351D01*
X015816Y026101D01*
X014316Y028601D02*
X020066Y028601D01*
X020816Y027851D01*
X020816Y026101D01*
X027066Y033351D02*
X034566Y033351D01*
X035066Y032601D02*
X032816Y032601D01*
X031066Y030851D01*
X030316Y031101D02*
X030316Y031351D01*
X031316Y032351D01*
X030066Y031851D02*
X028566Y031851D01*
X031316Y034101D02*
X031316Y036101D01*
X032066Y036851D01*
X033316Y036851D01*
X033816Y037351D01*
X035566Y034851D02*
X035566Y033101D01*
X035066Y032601D01*
X020066Y018601D02*
X019566Y018101D01*
X019566Y008101D01*
X019066Y007601D01*
X018816Y007601D01*
X019316Y007101D01*
X019316Y004851D01*
X019816Y004351D01*
X032066Y004351D01*
X032566Y004851D01*
X032566Y006101D01*
X031816Y006851D01*
X031816Y007601D01*
X026066Y012351D02*
X026066Y013101D01*
X026566Y013601D01*
X026816Y013601D01*
X026066Y012351D02*
X025566Y011851D01*
X023066Y011851D01*
X022316Y011101D01*
X022066Y011101D01*
X014566Y014351D02*
X014566Y015601D01*
X014316Y015851D01*
X013066Y015851D01*
X012316Y015101D01*
X012316Y013851D01*
X012066Y013601D01*
X012566Y013601D01*
X012066Y013601D02*
X009566Y013601D01*
X011816Y011601D02*
X012566Y011601D01*
X013066Y012101D01*
X013066Y014101D01*
X013566Y014601D01*
X013816Y014601D01*
X014566Y014351D02*
X013816Y013601D01*
D31*
X006655Y006347D02*
X006640Y006357D01*
X006609Y006364D01*
X006579Y006375D01*
X006561Y006375D01*
X006457Y006397D01*
X006441Y006405D01*
X006409Y006408D01*
X006378Y006414D01*
X006360Y006411D01*
X006264Y006418D01*
X006255Y006422D01*
X006214Y006422D01*
X006174Y006424D01*
X006165Y006422D01*
X005281Y006422D01*
X005281Y039780D01*
X006165Y039780D01*
X006174Y039777D01*
X006214Y039780D01*
X006255Y039780D01*
X006264Y039783D01*
X006360Y039790D01*
X006378Y039787D01*
X006409Y039794D01*
X006441Y039796D01*
X006457Y039804D01*
X006561Y039827D01*
X006579Y039826D01*
X006609Y039837D01*
X006640Y039844D01*
X006655Y039854D01*
X006754Y039891D01*
X006772Y039893D01*
X006800Y039909D01*
X006830Y039920D01*
X006844Y039932D01*
X006936Y039983D01*
X006954Y039987D01*
X006980Y040006D01*
X007008Y040022D01*
X007019Y040036D01*
X007076Y040078D01*
X007076Y038253D01*
X007150Y038073D01*
X007248Y037976D01*
X006650Y037378D01*
X006576Y037198D01*
X006576Y030379D01*
X006302Y030379D01*
X006181Y030329D01*
X006088Y030236D01*
X006038Y030114D01*
X006038Y030016D01*
X005900Y029878D01*
X005826Y029698D01*
X005826Y027503D01*
X005900Y027323D01*
X006038Y027185D01*
X007576Y025648D01*
X007576Y021949D01*
X007414Y021882D01*
X007237Y021706D01*
X007142Y021475D01*
X007142Y021226D01*
X007157Y021190D01*
X007131Y021224D01*
X007061Y021294D01*
X006983Y021354D01*
X006898Y021403D01*
X006807Y021440D01*
X006712Y021466D01*
X006615Y021479D01*
X006566Y021479D01*
X006566Y020729D01*
X006566Y020729D01*
X006566Y021479D01*
X006517Y021479D01*
X006419Y021466D01*
X006324Y021440D01*
X006233Y021403D01*
X006148Y021354D01*
X006070Y021294D01*
X006001Y021224D01*
X005941Y021146D01*
X005892Y021061D01*
X005854Y020970D01*
X005829Y020875D01*
X005816Y020778D01*
X005816Y020729D01*
X006566Y020729D01*
X006566Y020729D01*
X005816Y020729D01*
X005816Y020679D01*
X005829Y020582D01*
X005854Y020487D01*
X005892Y020396D01*
X005941Y020311D01*
X006001Y020233D01*
X006070Y020164D01*
X006148Y020104D01*
X006188Y020081D01*
X006100Y020081D01*
X005979Y020030D01*
X005886Y019938D01*
X005836Y019816D01*
X005836Y018885D01*
X005886Y018764D01*
X005979Y018671D01*
X006100Y018621D01*
X007031Y018621D01*
X007153Y018671D01*
X007246Y018764D01*
X007296Y018885D01*
X007296Y018937D01*
X007414Y018819D01*
X007644Y018724D01*
X008487Y018724D01*
X008576Y018760D01*
X008576Y018441D01*
X008487Y018478D01*
X007644Y018478D01*
X007414Y018382D01*
X007237Y018206D01*
X007142Y017975D01*
X007142Y017726D01*
X007157Y017690D01*
X007131Y017724D01*
X007061Y017794D01*
X006983Y017854D01*
X006898Y017903D01*
X006807Y017940D01*
X006712Y017966D01*
X006615Y017979D01*
X006566Y017979D01*
X006566Y017229D01*
X006566Y017229D01*
X006566Y017979D01*
X006517Y017979D01*
X006419Y017966D01*
X006324Y017940D01*
X006233Y017903D01*
X006148Y017854D01*
X006070Y017794D01*
X006001Y017724D01*
X005941Y017646D01*
X005892Y017561D01*
X005854Y017470D01*
X005829Y017375D01*
X005816Y017278D01*
X005816Y017229D01*
X006566Y017229D01*
X006566Y017229D01*
X005816Y017229D01*
X005816Y017179D01*
X005829Y017082D01*
X005854Y016987D01*
X005892Y016896D01*
X005941Y016811D01*
X006001Y016733D01*
X006070Y016664D01*
X006148Y016604D01*
X006188Y016581D01*
X006100Y016581D01*
X005979Y016530D01*
X005886Y016438D01*
X005836Y016316D01*
X005836Y015385D01*
X005886Y015264D01*
X005979Y015171D01*
X006100Y015121D01*
X007031Y015121D01*
X007153Y015171D01*
X007246Y015264D01*
X007296Y015385D01*
X007296Y015437D01*
X007414Y015319D01*
X007644Y015224D01*
X008487Y015224D01*
X008502Y015230D01*
X008250Y014978D01*
X007644Y014978D01*
X007414Y014882D01*
X007237Y014706D01*
X007142Y014475D01*
X007142Y014226D01*
X007157Y014190D01*
X007131Y014224D01*
X007061Y014294D01*
X006983Y014354D01*
X006898Y014403D01*
X006807Y014440D01*
X006712Y014466D01*
X006615Y014479D01*
X006566Y014479D01*
X006566Y013729D01*
X006566Y013729D01*
X006566Y014479D01*
X006517Y014479D01*
X006419Y014466D01*
X006324Y014440D01*
X006233Y014403D01*
X006148Y014354D01*
X006070Y014294D01*
X006001Y014224D01*
X005941Y014146D01*
X005892Y014061D01*
X005854Y013970D01*
X005829Y013875D01*
X005816Y013778D01*
X005816Y013729D01*
X006566Y013729D01*
X006566Y013729D01*
X005816Y013729D01*
X005816Y013679D01*
X005829Y013582D01*
X005854Y013487D01*
X005892Y013396D01*
X005941Y013311D01*
X006001Y013233D01*
X006070Y013164D01*
X006148Y013104D01*
X006188Y013081D01*
X006100Y013081D01*
X005979Y013030D01*
X005886Y012938D01*
X005836Y012816D01*
X005836Y011885D01*
X005886Y011764D01*
X005979Y011671D01*
X006100Y011621D01*
X007031Y011621D01*
X007153Y011671D01*
X007246Y011764D01*
X007296Y011885D01*
X007296Y011937D01*
X007414Y011819D01*
X007644Y011724D01*
X008487Y011724D01*
X008718Y011819D01*
X008894Y011996D01*
X008989Y012226D01*
X008989Y012475D01*
X008894Y012706D01*
X008760Y012840D01*
X008790Y012863D01*
X008850Y012923D01*
X008902Y012991D01*
X008944Y013064D01*
X008976Y013142D01*
X008998Y013224D01*
X009009Y013308D01*
X009009Y013351D01*
X009009Y013393D01*
X008999Y013475D01*
X009288Y013185D01*
X009468Y013111D01*
X012210Y013111D01*
X012302Y013073D01*
X012829Y013073D01*
X012951Y013123D01*
X013044Y013216D01*
X013094Y013337D01*
X013094Y013864D01*
X013044Y013986D01*
X012951Y014079D01*
X012829Y014129D01*
X012806Y014129D01*
X012806Y014898D01*
X013269Y015361D01*
X014076Y015361D01*
X014076Y015172D01*
X014056Y015182D01*
X013963Y015212D01*
X013865Y015228D01*
X013816Y015228D01*
X013816Y014601D01*
X013816Y014601D01*
X013816Y015228D01*
X013766Y015228D01*
X013669Y015212D01*
X013575Y015182D01*
X013487Y015137D01*
X013407Y015079D01*
X013337Y015009D01*
X013279Y014929D01*
X013235Y014841D01*
X013204Y014748D01*
X013189Y014650D01*
X013189Y014601D01*
X013816Y014601D01*
X013816Y014601D01*
X013189Y014601D01*
X013189Y014551D01*
X013204Y014454D01*
X013235Y014360D01*
X013279Y014272D01*
X013337Y014192D01*
X013407Y014122D01*
X013449Y014092D01*
X013301Y013945D01*
X013209Y013721D01*
X013209Y013480D01*
X013301Y013257D01*
X013457Y013101D01*
X013301Y012945D01*
X013209Y012721D01*
X013209Y012480D01*
X013301Y012257D01*
X013457Y012101D01*
X013301Y011945D01*
X013209Y011721D01*
X013209Y011480D01*
X013301Y011257D01*
X013457Y011101D01*
X013301Y010945D01*
X013209Y010721D01*
X013209Y010480D01*
X013301Y010257D01*
X013457Y010101D01*
X013301Y009945D01*
X013209Y009721D01*
X013209Y009480D01*
X013301Y009257D01*
X013449Y009109D01*
X013407Y009079D01*
X013337Y009009D01*
X013279Y008929D01*
X013235Y008841D01*
X013204Y008748D01*
X013189Y008650D01*
X013189Y008601D01*
X013816Y008601D01*
X014443Y008601D01*
X014443Y008650D01*
X014427Y008748D01*
X014397Y008841D01*
X014352Y008929D01*
X014294Y009009D01*
X014283Y009021D01*
X014486Y009021D01*
X014486Y006591D01*
X014226Y006331D01*
X013850Y006331D01*
X013729Y006280D01*
X013636Y006188D01*
X013586Y006066D01*
X013586Y005135D01*
X013636Y005014D01*
X013729Y004921D01*
X013850Y004871D01*
X014781Y004871D01*
X014903Y004921D01*
X014996Y005014D01*
X015046Y005135D01*
X015046Y005257D01*
X015075Y005187D01*
X015280Y004982D01*
X015548Y004871D01*
X015839Y004871D01*
X016107Y004982D01*
X016313Y005187D01*
X016383Y005356D01*
X016453Y005187D01*
X016658Y004982D01*
X016926Y004871D01*
X017217Y004871D01*
X017485Y004982D01*
X017691Y005187D01*
X017761Y005356D01*
X017831Y005187D01*
X018036Y004982D01*
X018304Y004871D01*
X018595Y004871D01*
X018826Y004966D01*
X018826Y004753D01*
X018900Y004573D01*
X019038Y004435D01*
X019408Y004066D01*
X007637Y004066D01*
X007637Y004950D01*
X007640Y004959D01*
X007637Y004999D01*
X007637Y005040D01*
X007633Y005049D01*
X007626Y005145D01*
X007629Y005163D01*
X007623Y005194D01*
X007620Y005226D01*
X007612Y005242D01*
X007590Y005346D01*
X007590Y005364D01*
X007579Y005394D01*
X007572Y005425D01*
X007562Y005440D01*
X007525Y005539D01*
X007523Y005557D01*
X007508Y005585D01*
X007497Y005615D01*
X007484Y005628D01*
X007434Y005721D01*
X007429Y005739D01*
X007410Y005764D01*
X007395Y005792D01*
X007380Y005804D01*
X007317Y005889D01*
X007310Y005905D01*
X007288Y005928D01*
X007268Y005954D01*
X007253Y005963D01*
X007178Y006038D01*
X007169Y006053D01*
X007143Y006072D01*
X007121Y006095D01*
X007104Y006102D01*
X007019Y006165D01*
X007008Y006180D01*
X006980Y006195D01*
X006954Y006214D01*
X006936Y006218D01*
X006844Y006269D01*
X006830Y006282D01*
X006800Y006293D01*
X006772Y006308D01*
X006754Y006310D01*
X006655Y006347D01*
X007134Y006081D02*
X007669Y006081D01*
X007669Y006190D02*
X007669Y005851D01*
X008316Y005851D01*
X008316Y005851D01*
X008316Y006794D01*
X008358Y006794D01*
X008442Y006783D01*
X008524Y006761D01*
X008602Y006729D01*
X008676Y006686D01*
X008743Y006635D01*
X008803Y006575D01*
X008826Y006545D01*
X008961Y006679D01*
X009191Y006774D01*
X009440Y006774D01*
X009671Y006679D01*
X009847Y006503D01*
X009943Y006272D01*
X009943Y005429D01*
X009847Y005199D01*
X009671Y005022D01*
X009440Y004927D01*
X009191Y004927D01*
X008961Y005022D01*
X008826Y005157D01*
X008803Y005126D01*
X008743Y005066D01*
X008676Y005015D01*
X008602Y004972D01*
X008524Y004940D01*
X008442Y004918D01*
X008358Y004907D01*
X008316Y004907D01*
X008316Y005851D01*
X008316Y006794D01*
X008273Y006794D01*
X008189Y006783D01*
X008107Y006761D01*
X008029Y006729D01*
X007956Y006686D01*
X007888Y006635D01*
X007828Y006575D01*
X007777Y006508D01*
X007734Y006434D01*
X007702Y006356D01*
X007680Y006274D01*
X007669Y006190D01*
X007669Y005851D02*
X007669Y005511D01*
X007680Y005427D01*
X007702Y005345D01*
X007734Y005267D01*
X007777Y005194D01*
X007828Y005126D01*
X007888Y005066D01*
X007956Y005015D01*
X008029Y004972D01*
X008107Y004940D01*
X008189Y004918D01*
X008273Y004907D01*
X008316Y004907D01*
X008316Y005851D01*
X008316Y005851D01*
X008316Y005851D01*
X007669Y005851D01*
X007669Y005583D02*
X007509Y005583D01*
X007631Y005084D02*
X007871Y005084D01*
X008316Y005084D02*
X008316Y005084D01*
X008761Y005084D02*
X008899Y005084D01*
X008316Y005583D02*
X008316Y005583D01*
X008316Y006081D02*
X008316Y006081D01*
X008316Y006580D02*
X008316Y006580D01*
X008798Y006580D02*
X008861Y006580D01*
X009770Y006580D02*
X014475Y006580D01*
X014486Y007078D02*
X014141Y007078D01*
X014160Y007086D02*
X013937Y006993D01*
X013695Y006993D01*
X013472Y007086D01*
X013301Y007257D01*
X013209Y007480D01*
X013209Y007721D01*
X013301Y007945D01*
X013449Y008092D01*
X013407Y008122D01*
X013337Y008192D01*
X013279Y008272D01*
X013235Y008360D01*
X013204Y008454D01*
X013189Y008551D01*
X013189Y008601D01*
X013816Y008601D01*
X013816Y008601D01*
X014443Y008601D01*
X014443Y008551D01*
X014427Y008454D01*
X014397Y008360D01*
X014352Y008272D01*
X014294Y008192D01*
X014224Y008122D01*
X014183Y008092D01*
X014330Y007945D01*
X014423Y007721D01*
X014423Y007480D01*
X014330Y007257D01*
X014160Y007086D01*
X014423Y007577D02*
X014486Y007577D01*
X014486Y008075D02*
X014200Y008075D01*
X014443Y008574D02*
X014486Y008574D01*
X013816Y008601D02*
X013816Y008601D01*
X013189Y008574D02*
X009922Y008574D01*
X009961Y008479D02*
X009863Y008716D01*
X009681Y008897D01*
X009444Y008996D01*
X009187Y008996D01*
X008950Y008897D01*
X008830Y008777D01*
X008591Y009016D01*
X008316Y009016D01*
X008316Y008351D01*
X008316Y008351D01*
X008316Y009016D01*
X008040Y009016D01*
X007651Y008626D01*
X007651Y008351D01*
X008316Y008351D01*
X008316Y008351D01*
X008316Y007686D01*
X008591Y007686D01*
X008830Y007924D01*
X008950Y007804D01*
X009187Y007706D01*
X009444Y007706D01*
X009681Y007804D01*
X009863Y007985D01*
X009961Y008222D01*
X009961Y008479D01*
X009900Y008075D02*
X013432Y008075D01*
X013209Y007577D02*
X005281Y007577D01*
X005281Y008075D02*
X007651Y008075D01*
X008040Y007686D01*
X008316Y007686D01*
X008316Y008351D01*
X008316Y008351D01*
X007651Y008351D01*
X007651Y008075D01*
X007651Y008574D02*
X005281Y008574D01*
X005281Y009072D02*
X013400Y009072D01*
X013209Y009571D02*
X012505Y009571D01*
X012495Y009561D02*
X012555Y009621D01*
X012607Y009689D01*
X012650Y009763D01*
X012683Y009841D01*
X012705Y009924D01*
X012716Y010008D01*
X012716Y010351D01*
X012716Y010693D01*
X012705Y010778D01*
X012683Y010860D01*
X012650Y010939D01*
X012607Y011013D01*
X012555Y011080D01*
X012495Y011140D01*
X012428Y011192D01*
X012354Y011235D01*
X012275Y011267D01*
X012193Y011290D01*
X012108Y011301D01*
X012066Y011301D01*
X012066Y010351D01*
X012066Y010351D01*
X012716Y010351D01*
X012066Y010351D01*
X012066Y010351D01*
X012066Y011301D01*
X012023Y011301D01*
X011939Y011290D01*
X011856Y011267D01*
X011778Y011235D01*
X011704Y011192D01*
X011636Y011140D01*
X011576Y011080D01*
X011555Y011053D01*
X011423Y011185D01*
X011191Y011281D01*
X010940Y011281D01*
X010709Y011185D01*
X010566Y011042D01*
X010423Y011185D01*
X010191Y011281D01*
X009940Y011281D01*
X009709Y011185D01*
X009532Y011008D01*
X009436Y010776D01*
X009436Y009925D01*
X009532Y009694D01*
X009709Y009517D01*
X009940Y009421D01*
X010191Y009421D01*
X010423Y009517D01*
X010566Y009660D01*
X010709Y009517D01*
X010940Y009421D01*
X011191Y009421D01*
X011423Y009517D01*
X011555Y009649D01*
X011576Y009621D01*
X011636Y009561D01*
X011704Y009509D01*
X011778Y009466D01*
X011856Y009434D01*
X011939Y009412D01*
X012023Y009401D01*
X012066Y009401D01*
X012108Y009401D01*
X012193Y009412D01*
X012275Y009434D01*
X012354Y009466D01*
X012428Y009509D01*
X012495Y009561D01*
X012066Y009571D02*
X012066Y009571D01*
X012066Y009401D02*
X012066Y010351D01*
X012066Y010351D01*
X012066Y009401D01*
X011627Y009571D02*
X011477Y009571D01*
X012066Y010069D02*
X012066Y010069D01*
X012066Y010568D02*
X012066Y010568D01*
X012066Y011066D02*
X012066Y011066D01*
X012566Y011066D02*
X013423Y011066D01*
X013209Y010568D02*
X012716Y010568D01*
X012716Y010069D02*
X013426Y010069D01*
X013816Y009601D02*
X014816Y009601D01*
X015066Y009351D01*
X015066Y006351D01*
X014316Y005601D01*
X015025Y005084D02*
X015178Y005084D01*
X015694Y005601D02*
X016066Y005973D01*
X016066Y010101D01*
X015566Y010601D01*
X013816Y010601D01*
X013816Y011601D02*
X016316Y011601D01*
X017066Y010851D01*
X017066Y005607D01*
X017072Y005601D01*
X017588Y005084D02*
X017934Y005084D01*
X018450Y005601D02*
X018066Y005985D01*
X018066Y011851D01*
X017316Y012601D01*
X013816Y012601D01*
X013417Y013060D02*
X008942Y013060D01*
X009009Y013351D02*
X008066Y013351D01*
X009009Y013351D01*
X008954Y012562D02*
X013209Y012562D01*
X013420Y012063D02*
X008922Y012063D01*
X009590Y011066D02*
X005281Y011066D01*
X005281Y010568D02*
X009436Y010568D01*
X009436Y010069D02*
X005281Y010069D01*
X005281Y009571D02*
X009655Y009571D01*
X010477Y009571D02*
X010655Y009571D01*
X010590Y011066D02*
X010541Y011066D01*
X011541Y011066D02*
X011565Y011066D01*
X013209Y011565D02*
X005281Y011565D01*
X005281Y012063D02*
X005836Y012063D01*
X005836Y012562D02*
X005281Y012562D01*
X005281Y013060D02*
X006051Y013060D01*
X005835Y013559D02*
X005281Y013559D01*
X005281Y014057D02*
X005890Y014057D01*
X006566Y014057D02*
X006566Y014057D01*
X007175Y014556D02*
X005281Y014556D01*
X005281Y015054D02*
X008326Y015054D01*
X008066Y013351D02*
X008066Y013351D01*
X005836Y015553D02*
X005281Y015553D01*
X005281Y016051D02*
X005836Y016051D01*
X006025Y016550D02*
X005281Y016550D01*
X005281Y017048D02*
X005838Y017048D01*
X005886Y017547D02*
X005281Y017547D01*
X005281Y018045D02*
X007171Y018045D01*
X006566Y017547D02*
X006566Y017547D01*
X005281Y018544D02*
X008576Y018544D01*
X006000Y020039D02*
X005281Y020039D01*
X005281Y019541D02*
X005836Y019541D01*
X005836Y019042D02*
X005281Y019042D01*
X005281Y020538D02*
X005840Y020538D01*
X005881Y021036D02*
X005281Y021036D01*
X005281Y021535D02*
X007167Y021535D01*
X007576Y022033D02*
X005281Y022033D01*
X005281Y022532D02*
X007576Y022532D01*
X007576Y023030D02*
X005281Y023030D01*
X005281Y023529D02*
X007576Y023529D01*
X007576Y024027D02*
X005281Y024027D01*
X005281Y024526D02*
X007576Y024526D01*
X007576Y025024D02*
X005281Y025024D01*
X005281Y025523D02*
X007576Y025523D01*
X007202Y026021D02*
X005281Y026021D01*
X005281Y026520D02*
X006704Y026520D01*
X006205Y027018D02*
X005281Y027018D01*
X005281Y027517D02*
X005826Y027517D01*
X005826Y028015D02*
X005281Y028015D01*
X005281Y028514D02*
X005826Y028514D01*
X005826Y029012D02*
X005281Y029012D01*
X005281Y029511D02*
X005826Y029511D01*
X006031Y030009D02*
X005281Y030009D01*
X005281Y030508D02*
X006576Y030508D01*
X006576Y031006D02*
X005281Y031006D01*
X005281Y031505D02*
X006576Y031505D01*
X006576Y032003D02*
X005281Y032003D01*
X005281Y032502D02*
X006576Y032502D01*
X006576Y033000D02*
X005281Y033000D01*
X005281Y033499D02*
X006576Y033499D01*
X006576Y033997D02*
X005281Y033997D01*
X005281Y034496D02*
X006576Y034496D01*
X006576Y034994D02*
X005281Y034994D01*
X005281Y035493D02*
X006576Y035493D01*
X006576Y035991D02*
X005281Y035991D01*
X005281Y036490D02*
X006576Y036490D01*
X006576Y036988D02*
X005281Y036988D01*
X005281Y037487D02*
X006759Y037487D01*
X007238Y037985D02*
X005281Y037985D01*
X005281Y038484D02*
X007076Y038484D01*
X007076Y038982D02*
X005281Y038982D01*
X005281Y039481D02*
X007076Y039481D01*
X007076Y039979D02*
X006930Y039979D01*
X007637Y041364D02*
X007637Y042136D01*
X040995Y042136D01*
X040995Y041251D01*
X040992Y041243D01*
X040995Y041202D01*
X040995Y041161D01*
X040998Y041153D01*
X041005Y041056D01*
X041002Y041038D01*
X041009Y041007D01*
X041011Y040975D01*
X041019Y040959D01*
X041042Y040856D01*
X041041Y040837D01*
X041052Y040808D01*
X041059Y040776D01*
X041069Y040761D01*
X041106Y040662D01*
X041108Y040644D01*
X041124Y040616D01*
X041135Y040586D01*
X041147Y040573D01*
X041198Y040480D01*
X041202Y040462D01*
X041222Y040437D01*
X041237Y040409D01*
X041251Y040397D01*
X041314Y040313D01*
X041321Y040296D01*
X041344Y040273D01*
X041363Y040248D01*
X041379Y040238D01*
X041454Y040164D01*
X041463Y040148D01*
X041488Y040129D01*
X041511Y040106D01*
X041528Y040099D01*
X041612Y040036D01*
X041624Y040022D01*
X041652Y040006D01*
X041677Y039987D01*
X041695Y039983D01*
X041788Y039932D01*
X041801Y039920D01*
X041831Y039909D01*
X041859Y039893D01*
X041877Y039891D01*
X041976Y039854D01*
X041991Y039844D01*
X042023Y039837D01*
X042052Y039826D01*
X042071Y039827D01*
X042174Y039804D01*
X042190Y039796D01*
X042222Y039794D01*
X042253Y039787D01*
X042271Y039790D01*
X042368Y039783D01*
X042376Y039780D01*
X042417Y039780D01*
X042458Y039777D01*
X042466Y039780D01*
X043351Y039780D01*
X043351Y039142D01*
X043191Y039301D01*
X042831Y039451D01*
X042441Y039451D01*
X042081Y039301D01*
X041805Y039026D01*
X041656Y038666D01*
X041656Y038276D01*
X041805Y037916D01*
X042081Y037640D01*
X042441Y037491D01*
X042831Y037491D01*
X043191Y037640D01*
X043351Y037800D01*
X043351Y034402D01*
X043191Y034561D01*
X042831Y034711D01*
X042441Y034711D01*
X042081Y034561D01*
X041805Y034286D01*
X041656Y033926D01*
X041656Y033536D01*
X041805Y033176D01*
X042081Y032900D01*
X042441Y032751D01*
X042831Y032751D01*
X043191Y032900D01*
X043351Y033060D01*
X043351Y006422D01*
X042466Y006422D01*
X042458Y006424D01*
X042417Y006422D01*
X042376Y006422D01*
X042368Y006418D01*
X042271Y006411D01*
X042253Y006414D01*
X042222Y006408D01*
X042190Y006405D01*
X042174Y006397D01*
X042071Y006375D01*
X042052Y006375D01*
X042023Y006364D01*
X041991Y006357D01*
X041976Y006347D01*
X041877Y006310D01*
X041859Y006308D01*
X041831Y006293D01*
X041801Y006282D01*
X041788Y006269D01*
X041695Y006218D01*
X041677Y006214D01*
X041652Y006195D01*
X041624Y006180D01*
X041612Y006165D01*
X041528Y006102D01*
X041511Y006095D01*
X041488Y006072D01*
X041463Y006053D01*
X041454Y006038D01*
X041379Y005963D01*
X041363Y005954D01*
X041344Y005928D01*
X041321Y005905D01*
X041314Y005889D01*
X041251Y005804D01*
X041237Y005792D01*
X041222Y005764D01*
X041202Y005739D01*
X041198Y005721D01*
X041147Y005628D01*
X041135Y005615D01*
X041124Y005585D01*
X041108Y005557D01*
X041106Y005539D01*
X041069Y005440D01*
X041059Y005425D01*
X041052Y005394D01*
X041041Y005364D01*
X041042Y005346D01*
X041019Y005242D01*
X041011Y005226D01*
X041009Y005194D01*
X041002Y005163D01*
X041005Y005145D01*
X040998Y005049D01*
X040995Y005040D01*
X040995Y004999D01*
X040992Y004959D01*
X040995Y004950D01*
X040995Y004066D01*
X032474Y004066D01*
X032481Y004073D01*
X032981Y004573D01*
X033056Y004753D01*
X033056Y006198D01*
X032981Y006378D01*
X032843Y006516D01*
X032306Y007054D01*
X032306Y007232D01*
X032330Y007257D01*
X032423Y007480D01*
X032423Y007721D01*
X032330Y007945D01*
X032174Y008101D01*
X032330Y008257D01*
X032423Y008480D01*
X032423Y008721D01*
X032330Y008945D01*
X032174Y009101D01*
X032330Y009257D01*
X032423Y009480D01*
X032423Y009721D01*
X032330Y009945D01*
X032174Y010101D01*
X032330Y010257D01*
X032423Y010480D01*
X032423Y010721D01*
X032330Y010945D01*
X032174Y011101D01*
X032330Y011257D01*
X032423Y011480D01*
X032423Y011721D01*
X032330Y011945D01*
X032174Y012101D01*
X032330Y012257D01*
X032387Y012393D01*
X033038Y011742D01*
X033038Y011587D01*
X033088Y011466D01*
X033181Y011373D01*
X033302Y011323D01*
X033829Y011323D01*
X033866Y011338D01*
X033866Y009511D01*
X033934Y009346D01*
X034061Y009219D01*
X034402Y008878D01*
X034151Y008626D01*
X034151Y008351D01*
X034816Y008351D01*
X034816Y007601D01*
X035066Y007351D01*
X036066Y007351D01*
X036566Y007851D01*
X036566Y014351D01*
X035566Y015351D01*
X035566Y015351D01*
X035566Y016201D01*
X035918Y016201D01*
X036416Y015703D01*
X036416Y015351D01*
X035566Y015351D01*
X035566Y015351D01*
X035566Y016201D01*
X035214Y016201D01*
X034716Y015703D01*
X034716Y015351D01*
X035566Y015351D01*
X036416Y015351D01*
X036416Y014999D01*
X035918Y014501D01*
X035566Y014501D01*
X035566Y015351D01*
X035566Y015351D01*
X035566Y015351D01*
X034716Y015351D01*
X034716Y014999D01*
X035214Y014501D01*
X035566Y014501D01*
X035566Y015351D01*
X035566Y015553D02*
X035566Y015553D01*
X035566Y016051D02*
X035566Y016051D01*
X035401Y016521D02*
X035731Y016521D01*
X036036Y016647D01*
X036269Y016880D01*
X036396Y017186D01*
X036396Y017516D01*
X036269Y017821D01*
X036036Y018054D01*
X035731Y018181D01*
X035401Y018181D01*
X035096Y018054D01*
X034862Y017821D01*
X034736Y017516D01*
X034736Y017186D01*
X034862Y016880D01*
X035096Y016647D01*
X035401Y016521D01*
X035331Y016550D02*
X033016Y016550D01*
X033016Y016537D02*
X033016Y016664D01*
X035197Y018846D01*
X035266Y019011D01*
X035266Y020795D01*
X035286Y020746D01*
X035462Y020571D01*
X035691Y020475D01*
X035940Y020475D01*
X036170Y020571D01*
X036346Y020746D01*
X036441Y020976D01*
X036441Y021225D01*
X036346Y021455D01*
X036170Y021631D01*
X035940Y021726D01*
X035691Y021726D01*
X035462Y021631D01*
X035286Y021455D01*
X035190Y021225D01*
X035190Y021112D01*
X035071Y021232D01*
X033821Y022482D01*
X033655Y022551D01*
X031652Y022551D01*
X032071Y022969D01*
X032197Y023096D01*
X032266Y023261D01*
X032266Y025456D01*
X032316Y025506D01*
X032482Y025340D01*
X032698Y025251D01*
X032933Y025251D01*
X033150Y025340D01*
X033316Y025506D01*
X033482Y025340D01*
X033698Y025251D01*
X033933Y025251D01*
X034150Y025340D01*
X034316Y025506D01*
X034406Y025723D01*
X034406Y026478D01*
X034388Y026521D01*
X036931Y026521D01*
X037056Y026573D01*
X037079Y026573D01*
X037201Y026623D01*
X037294Y026716D01*
X037344Y026837D01*
X037344Y026860D01*
X037396Y026985D01*
X037396Y027216D01*
X037344Y027341D01*
X037344Y027364D01*
X037294Y027486D01*
X037201Y027579D01*
X037079Y027629D01*
X037056Y027629D01*
X036931Y027681D01*
X034306Y027681D01*
X033557Y028429D01*
X033394Y028592D01*
X033181Y028681D01*
X030306Y028681D01*
X028396Y030591D01*
X028396Y031323D01*
X028829Y031323D01*
X028922Y031361D01*
X029710Y031361D01*
X029788Y031328D01*
X029788Y030837D01*
X029838Y030716D01*
X029931Y030623D01*
X030052Y030573D01*
X030544Y030573D01*
X030588Y030466D01*
X030681Y030373D01*
X030802Y030323D01*
X031329Y030323D01*
X031451Y030373D01*
X031544Y030466D01*
X031594Y030587D01*
X031594Y030686D01*
X033019Y032111D01*
X035163Y032111D01*
X035343Y032185D01*
X035481Y032323D01*
X035956Y032798D01*
X035956Y032277D01*
X035866Y032060D01*
X035866Y031781D01*
X035972Y031524D01*
X036146Y031351D01*
X035972Y031177D01*
X035866Y030920D01*
X035866Y030641D01*
X035972Y030384D01*
X036169Y030187D01*
X036427Y030081D01*
X036705Y030081D01*
X036962Y030187D01*
X037159Y030384D01*
X037266Y030641D01*
X037266Y030920D01*
X037159Y031177D01*
X036986Y031351D01*
X037159Y031524D01*
X037266Y031781D01*
X037266Y032060D01*
X037176Y032277D01*
X037176Y034598D01*
X038561Y035983D01*
X040227Y035983D01*
X040226Y035982D01*
X040126Y035740D01*
X040126Y035477D01*
X040226Y035235D01*
X040412Y035049D01*
X040654Y034949D01*
X040917Y034949D01*
X041160Y035049D01*
X041176Y035065D01*
X041192Y035049D01*
X041434Y034949D01*
X041697Y034949D01*
X041940Y035049D01*
X042125Y035235D01*
X042226Y035477D01*
X042226Y035740D01*
X042125Y035982D01*
X042021Y036087D01*
X042078Y036143D01*
X042132Y036214D01*
X042177Y036291D01*
X042211Y036374D01*
X042234Y036460D01*
X042246Y036548D01*
X042246Y036593D01*
X042246Y036637D01*
X042234Y036726D01*
X042211Y036812D01*
X042177Y036894D01*
X042132Y036971D01*
X042078Y037042D01*
X042015Y037105D01*
X041944Y037159D01*
X041867Y037204D01*
X041785Y037238D01*
X041699Y037261D01*
X041610Y037273D01*
X041566Y037273D01*
X041566Y036593D01*
X042246Y036593D01*
X041566Y036593D01*
X041566Y036593D01*
X041566Y036593D01*
X041566Y037273D01*
X041521Y037273D01*
X041433Y037261D01*
X041347Y037238D01*
X041264Y037204D01*
X041187Y037159D01*
X041168Y037144D01*
X041160Y037152D01*
X040917Y037253D01*
X040654Y037253D01*
X040534Y037203D01*
X038187Y037203D01*
X037962Y037110D01*
X036220Y035368D01*
X036057Y035204D01*
X036044Y035236D01*
X035951Y035329D01*
X035829Y035379D01*
X035302Y035379D01*
X035181Y035329D01*
X035088Y035236D01*
X035038Y035114D01*
X035038Y034587D01*
X035076Y034495D01*
X035076Y033658D01*
X035044Y033736D01*
X034951Y033829D01*
X034829Y033879D01*
X034302Y033879D01*
X034210Y033841D01*
X031844Y033841D01*
X031844Y034364D01*
X031806Y034456D01*
X031806Y035898D01*
X032269Y036361D01*
X033413Y036361D01*
X033593Y036435D01*
X033981Y036823D01*
X034079Y036823D01*
X034201Y036873D01*
X034294Y036966D01*
X034344Y037087D01*
X034344Y037614D01*
X034294Y037736D01*
X034201Y037829D01*
X034079Y037879D01*
X033552Y037879D01*
X033431Y037829D01*
X033338Y037736D01*
X033288Y037614D01*
X033288Y037516D01*
X033113Y037341D01*
X031968Y037341D01*
X031788Y037266D01*
X031650Y037128D01*
X031038Y036516D01*
X030946Y036424D01*
X030946Y036526D01*
X030850Y036758D01*
X030673Y036935D01*
X030441Y037031D01*
X030190Y037031D01*
X029959Y036935D01*
X029816Y036792D01*
X029673Y036935D01*
X029441Y037031D01*
X029190Y037031D01*
X028959Y036935D01*
X028827Y036803D01*
X028805Y036830D01*
X028745Y036890D01*
X028678Y036942D01*
X028604Y036985D01*
X028525Y037017D01*
X028443Y037040D01*
X028358Y037051D01*
X028316Y037051D01*
X028316Y036101D01*
X028316Y036101D01*
X028316Y037051D01*
X028273Y037051D01*
X028189Y037040D01*
X028106Y037017D01*
X028028Y036985D01*
X027954Y036942D01*
X027896Y036898D01*
X027896Y037466D01*
X027807Y037679D01*
X027057Y038429D01*
X027032Y038454D01*
X027068Y038491D01*
X029187Y038491D01*
X029411Y038584D01*
X029661Y038834D01*
X029833Y039005D01*
X029926Y039229D01*
X029926Y039444D01*
X029996Y039514D01*
X030046Y039635D01*
X030046Y040566D01*
X029996Y040688D01*
X029903Y040780D01*
X029781Y040831D01*
X028850Y040831D01*
X028729Y040780D01*
X028636Y040688D01*
X028586Y040566D01*
X028586Y040444D01*
X028557Y040514D01*
X028351Y040720D01*
X028083Y040831D01*
X027793Y040831D01*
X027524Y040720D01*
X027319Y040514D01*
X027208Y040246D01*
X027208Y039955D01*
X027309Y039711D01*
X026694Y039711D01*
X026546Y039649D01*
X026546Y040566D01*
X026496Y040688D01*
X026403Y040780D01*
X026281Y040831D01*
X025350Y040831D01*
X025229Y040780D01*
X025136Y040688D01*
X025086Y040566D01*
X025086Y040444D01*
X025057Y040514D01*
X024851Y040720D01*
X024583Y040831D01*
X024293Y040831D01*
X024024Y040720D01*
X023819Y040514D01*
X023749Y040345D01*
X023679Y040514D01*
X023473Y040720D01*
X023205Y040831D01*
X022915Y040831D01*
X022646Y040720D01*
X022441Y040514D01*
X022371Y040345D01*
X022301Y040514D01*
X022095Y040720D01*
X021827Y040831D01*
X021537Y040831D01*
X021268Y040720D01*
X021063Y040514D01*
X021056Y040497D01*
X021056Y040948D01*
X020981Y041128D01*
X020731Y041378D01*
X020593Y041516D01*
X020413Y041591D01*
X007968Y041591D01*
X007788Y041516D01*
X007637Y041364D01*
X007637Y041475D02*
X007747Y041475D01*
X007637Y041973D02*
X040995Y041973D01*
X040995Y041475D02*
X020635Y041475D01*
X021044Y040976D02*
X041011Y040976D01*
X041199Y040478D02*
X030046Y040478D01*
X030046Y039979D02*
X041702Y039979D01*
X041787Y038982D02*
X029810Y038982D01*
X029962Y039481D02*
X043351Y039481D01*
X041656Y038484D02*
X027061Y038484D01*
X027057Y038429D02*
X027057Y038429D01*
X026566Y038101D02*
X026316Y038101D01*
X026566Y038101D02*
X027316Y037351D01*
X027316Y034601D01*
X027844Y034360D02*
X027896Y034485D01*
X027896Y035304D01*
X027954Y035259D01*
X028028Y035216D01*
X028106Y035184D01*
X028189Y035162D01*
X028273Y035151D01*
X028316Y035151D01*
X028358Y035151D01*
X028443Y035162D01*
X028525Y035184D01*
X028604Y035216D01*
X028678Y035259D01*
X028745Y035311D01*
X028805Y035371D01*
X028827Y035399D01*
X028959Y035267D01*
X029190Y035171D01*
X029441Y035171D01*
X029673Y035267D01*
X029816Y035410D01*
X029959Y035267D01*
X030190Y035171D01*
X030441Y035171D01*
X030673Y035267D01*
X030826Y035420D01*
X030826Y034456D01*
X030788Y034364D01*
X030788Y033841D01*
X026968Y033841D01*
X026844Y033789D01*
X026923Y033980D01*
X026923Y034131D01*
X026931Y034123D01*
X027052Y034073D01*
X027075Y034073D01*
X027200Y034021D01*
X027431Y034021D01*
X027556Y034073D01*
X027579Y034073D01*
X027701Y034123D01*
X027794Y034216D01*
X027844Y034337D01*
X027844Y034360D01*
X027896Y034496D02*
X030826Y034496D01*
X030826Y034994D02*
X027896Y034994D01*
X028316Y035151D02*
X028316Y036101D01*
X028316Y035151D01*
X028316Y035493D02*
X028316Y035493D01*
X028316Y035991D02*
X028316Y035991D01*
X028316Y036101D02*
X028316Y036101D01*
X028316Y036490D02*
X028316Y036490D01*
X028316Y036988D02*
X028316Y036988D01*
X028596Y036988D02*
X029088Y036988D01*
X029544Y036988D02*
X030088Y036988D01*
X030544Y036988D02*
X031510Y036988D01*
X031650Y037128D02*
X031650Y037128D01*
X031038Y036516D02*
X031038Y036516D01*
X031012Y036490D02*
X030946Y036490D01*
X031899Y035991D02*
X036844Y035991D01*
X037342Y036490D02*
X033648Y036490D01*
X034303Y036988D02*
X037841Y036988D01*
X038070Y035493D02*
X040126Y035493D01*
X040544Y034994D02*
X037572Y034994D01*
X037176Y034496D02*
X042015Y034496D01*
X041807Y034994D02*
X043351Y034994D01*
X043351Y034496D02*
X043257Y034496D01*
X043351Y035493D02*
X042226Y035493D01*
X042116Y035991D02*
X043351Y035991D01*
X043351Y036490D02*
X042238Y036490D01*
X042119Y036988D02*
X043351Y036988D01*
X043351Y037487D02*
X034344Y037487D01*
X033259Y037487D02*
X027887Y037487D01*
X027896Y036988D02*
X028036Y036988D01*
X027501Y037985D02*
X041776Y037985D01*
X041566Y036988D02*
X041566Y036988D01*
X041324Y034994D02*
X041027Y034994D01*
X041685Y033997D02*
X037176Y033997D01*
X037176Y033499D02*
X041671Y033499D01*
X041980Y033000D02*
X037176Y033000D01*
X037176Y032502D02*
X040454Y032502D01*
X040306Y032353D02*
X040306Y032101D01*
X040916Y032101D01*
X040916Y032101D01*
X040916Y032711D01*
X041168Y032711D01*
X041330Y032549D01*
X041382Y032601D01*
X041598Y032691D01*
X041833Y032691D01*
X042050Y032601D01*
X042216Y032435D01*
X042306Y032218D01*
X042306Y031983D01*
X042216Y031766D01*
X042050Y031600D01*
X041833Y031511D01*
X041598Y031511D01*
X041382Y031600D01*
X041330Y031652D01*
X041168Y031491D01*
X040916Y031491D01*
X040916Y032101D01*
X040916Y032711D01*
X040663Y032711D01*
X040306Y032353D01*
X040306Y032101D02*
X040306Y031848D01*
X040663Y031491D01*
X040916Y031491D01*
X040916Y032101D01*
X040916Y032101D01*
X040916Y032101D01*
X040306Y032101D01*
X040306Y032003D02*
X037266Y032003D01*
X037140Y031505D02*
X040649Y031505D01*
X040916Y031505D02*
X040916Y031505D01*
X041182Y031505D02*
X043351Y031505D01*
X043351Y032003D02*
X042306Y032003D01*
X042149Y032502D02*
X043351Y032502D01*
X043351Y033000D02*
X043291Y033000D01*
X043351Y031006D02*
X037230Y031006D01*
X037210Y030508D02*
X043351Y030508D01*
X043351Y030009D02*
X028977Y030009D01*
X028479Y030508D02*
X030570Y030508D01*
X029788Y031006D02*
X028396Y031006D01*
X027816Y030351D02*
X027816Y032601D01*
X028066Y032851D01*
X026923Y033997D02*
X030788Y033997D01*
X031844Y033997D02*
X035076Y033997D01*
X035075Y034496D02*
X031806Y034496D01*
X031806Y034994D02*
X035038Y034994D01*
X036345Y035493D02*
X031806Y035493D01*
X032911Y032003D02*
X035866Y032003D01*
X035956Y032502D02*
X035660Y032502D01*
X035992Y031505D02*
X032413Y031505D01*
X031914Y031006D02*
X035901Y031006D01*
X035921Y030508D02*
X031561Y030508D01*
X029974Y029012D02*
X043351Y029012D01*
X043351Y028514D02*
X033473Y028514D01*
X033066Y028101D02*
X030066Y028101D01*
X027816Y030351D01*
X027282Y030124D02*
X027324Y030022D01*
X027487Y029859D01*
X029737Y027609D01*
X029878Y027551D01*
X029229Y027551D01*
X029201Y027579D01*
X029079Y027629D01*
X028552Y027629D01*
X028431Y027579D01*
X028338Y027486D01*
X028288Y027364D01*
X028288Y026837D01*
X028337Y026717D01*
X028316Y026695D01*
X028150Y026861D01*
X027933Y026951D01*
X027698Y026951D01*
X027482Y026861D01*
X027316Y026695D01*
X027150Y026861D01*
X026933Y026951D01*
X026698Y026951D01*
X026482Y026861D01*
X026316Y026695D01*
X026150Y026861D01*
X025933Y026951D01*
X025698Y026951D01*
X025482Y026861D01*
X025316Y026695D01*
X025150Y026861D01*
X024933Y026951D01*
X024698Y026951D01*
X024482Y026861D01*
X024322Y026701D01*
X024281Y026758D01*
X024213Y026826D01*
X024135Y026882D01*
X024050Y026926D01*
X023959Y026956D01*
X023864Y026971D01*
X023816Y026971D01*
X023816Y026101D01*
X023816Y026101D01*
X023816Y026971D01*
X023768Y026971D01*
X023673Y026956D01*
X023582Y026926D01*
X023496Y026882D01*
X023418Y026826D01*
X023350Y026758D01*
X023309Y026701D01*
X023150Y026861D01*
X022933Y026951D01*
X022698Y026951D01*
X022482Y026861D01*
X022316Y026695D01*
X022150Y026861D01*
X021933Y026951D01*
X021698Y026951D01*
X021482Y026861D01*
X021316Y026695D01*
X021306Y026705D01*
X021306Y027948D01*
X021231Y028128D01*
X020749Y028611D01*
X023663Y028611D01*
X023843Y028685D01*
X023981Y028823D01*
X024769Y029611D01*
X026663Y029611D01*
X026843Y029685D01*
X026981Y029823D01*
X027282Y030124D01*
X027337Y030009D02*
X027167Y030009D01*
X027835Y029511D02*
X024669Y029511D01*
X024170Y029012D02*
X028334Y029012D01*
X028832Y028514D02*
X020846Y028514D01*
X021278Y028015D02*
X029331Y028015D01*
X028369Y027517D02*
X021306Y027517D01*
X021306Y027018D02*
X028288Y027018D01*
X029476Y029511D02*
X043351Y029511D01*
X043351Y028015D02*
X033971Y028015D01*
X033066Y028101D02*
X034066Y027101D01*
X036816Y027101D01*
X037396Y027018D02*
X043351Y027018D01*
X043351Y026520D02*
X034388Y026520D01*
X034406Y026021D02*
X043351Y026021D01*
X043351Y025523D02*
X036278Y025523D01*
X036346Y025455D02*
X036170Y025631D01*
X035940Y025726D01*
X035691Y025726D01*
X035462Y025631D01*
X035286Y025455D01*
X035190Y025225D01*
X035190Y024976D01*
X035286Y024746D01*
X035462Y024571D01*
X035691Y024475D01*
X035940Y024475D01*
X036170Y024571D01*
X036346Y024746D01*
X036441Y024976D01*
X036441Y025225D01*
X036346Y025455D01*
X036441Y025024D02*
X043351Y025024D01*
X043351Y024526D02*
X036062Y024526D01*
X035570Y024526D02*
X032266Y024526D01*
X032266Y025024D02*
X035190Y025024D01*
X035353Y025523D02*
X034323Y025523D01*
X032266Y024027D02*
X043351Y024027D01*
X043351Y023529D02*
X032266Y023529D01*
X032132Y023030D02*
X043351Y023030D01*
X043351Y022532D02*
X033701Y022532D01*
X034270Y022033D02*
X043351Y022033D01*
X043351Y021535D02*
X036266Y021535D01*
X036441Y021036D02*
X043351Y021036D01*
X043351Y020538D02*
X036090Y020538D01*
X035541Y020538D02*
X035266Y020538D01*
X035266Y020039D02*
X043351Y020039D01*
X043351Y019541D02*
X035266Y019541D01*
X035266Y019042D02*
X040455Y019042D01*
X040385Y018972D02*
X040281Y018721D01*
X040281Y018449D01*
X040385Y018198D01*
X040577Y018006D01*
X040827Y017902D01*
X041804Y017902D01*
X042055Y018006D01*
X042247Y018198D01*
X042351Y018449D01*
X042351Y018721D01*
X042247Y018972D01*
X042055Y019164D01*
X041804Y019267D01*
X040827Y019267D01*
X040577Y019164D01*
X040385Y018972D01*
X040281Y018544D02*
X034895Y018544D01*
X035086Y018045D02*
X034397Y018045D01*
X034749Y017547D02*
X033898Y017547D01*
X033400Y017048D02*
X034793Y017048D01*
X035064Y016051D02*
X033502Y016051D01*
X033571Y015982D02*
X033016Y016537D01*
X033571Y015982D02*
X033697Y015856D01*
X033766Y015690D01*
X033766Y013287D01*
X034571Y012482D01*
X034697Y012356D01*
X034766Y012190D01*
X034766Y009787D01*
X035002Y009551D01*
X035405Y009551D01*
X035571Y009482D01*
X036071Y008982D01*
X036071Y008982D01*
X036137Y008916D01*
X036181Y008897D01*
X036363Y008716D01*
X036461Y008479D01*
X036461Y008222D01*
X036363Y007985D01*
X036181Y007804D01*
X035944Y007706D01*
X035687Y007706D01*
X035450Y007804D01*
X035330Y007924D01*
X035091Y007686D01*
X034816Y007686D01*
X034816Y008351D01*
X034816Y008351D01*
X034816Y008351D01*
X034151Y008351D01*
X034151Y008075D01*
X032200Y008075D01*
X032423Y007577D02*
X036751Y007577D01*
X036751Y008075D02*
X036400Y008075D01*
X036751Y008224D02*
X036751Y005958D01*
X036825Y005684D01*
X036967Y005438D01*
X037168Y005236D01*
X037415Y005094D01*
X037689Y005021D01*
X037974Y005021D01*
X038248Y005094D01*
X038495Y005236D01*
X038696Y005438D01*
X038838Y005684D01*
X038911Y005958D01*
X038911Y007919D01*
X039680Y008688D01*
X039822Y008934D01*
X039896Y009208D01*
X039896Y009656D01*
X039943Y009662D01*
X040025Y009684D01*
X040104Y009716D01*
X040178Y009759D01*
X040245Y009811D01*
X040305Y009871D01*
X040357Y009939D01*
X040400Y010013D01*
X040433Y010091D01*
X040455Y010174D01*
X040466Y010258D01*
X040466Y010601D01*
X040466Y010943D01*
X040455Y011028D01*
X040433Y011110D01*
X040400Y011189D01*
X040357Y011263D01*
X040305Y011330D01*
X040245Y011390D01*
X040178Y011442D01*
X040104Y011485D01*
X040025Y011517D01*
X039943Y011540D01*
X039858Y011551D01*
X039816Y011551D01*
X039816Y010601D01*
X039816Y010601D01*
X040466Y010601D01*
X039816Y010601D01*
X039816Y010601D01*
X039816Y011551D01*
X039773Y011551D01*
X039689Y011540D01*
X039606Y011517D01*
X039528Y011485D01*
X039454Y011442D01*
X039445Y011436D01*
X039418Y011503D01*
X039218Y011703D01*
X038957Y011811D01*
X038675Y011811D01*
X038414Y011703D01*
X038214Y011503D01*
X038182Y011426D01*
X038173Y011435D01*
X037941Y011531D01*
X037690Y011531D01*
X037459Y011435D01*
X037282Y011258D01*
X037186Y011026D01*
X037186Y010175D01*
X037282Y009944D01*
X037459Y009767D01*
X037632Y009695D01*
X036967Y009030D01*
X036825Y008783D01*
X036751Y008509D01*
X036751Y008224D01*
X036769Y008574D02*
X036422Y008574D01*
X035981Y009072D02*
X037010Y009072D01*
X037508Y009571D02*
X034982Y009571D01*
X034766Y010069D02*
X037230Y010069D01*
X037186Y010568D02*
X034766Y010568D01*
X034766Y011066D02*
X037202Y011066D01*
X038276Y011565D02*
X034766Y011565D01*
X034766Y012063D02*
X043351Y012063D01*
X043351Y011565D02*
X039356Y011565D01*
X039816Y011066D02*
X039816Y011066D01*
X040444Y011066D02*
X043351Y011066D01*
X043351Y010568D02*
X040466Y010568D01*
X040423Y010069D02*
X043351Y010069D01*
X043351Y009571D02*
X039896Y009571D01*
X039859Y009072D02*
X043351Y009072D01*
X043351Y008574D02*
X039566Y008574D01*
X039068Y008075D02*
X043351Y008075D01*
X043351Y007577D02*
X038911Y007577D01*
X038911Y007078D02*
X039525Y007078D01*
X039413Y007032D02*
X039664Y007136D01*
X039936Y007136D01*
X040187Y007032D01*
X040379Y006840D01*
X040482Y006589D01*
X040482Y005612D01*
X040379Y005362D01*
X040187Y005170D01*
X039936Y005066D01*
X039664Y005066D01*
X039413Y005170D01*
X039221Y005362D01*
X039118Y005612D01*
X039118Y006589D01*
X039221Y006840D01*
X039413Y007032D01*
X039118Y006580D02*
X038911Y006580D01*
X038911Y006081D02*
X039118Y006081D01*
X039130Y005583D02*
X038780Y005583D01*
X038211Y005084D02*
X039620Y005084D01*
X039980Y005084D02*
X041001Y005084D01*
X040995Y004586D02*
X032986Y004586D01*
X033056Y005084D02*
X034371Y005084D01*
X034388Y005066D02*
X034456Y005015D01*
X034529Y004972D01*
X034607Y004940D01*
X034689Y004918D01*
X034773Y004907D01*
X034816Y004907D01*
X034858Y004907D01*
X034942Y004918D01*
X035024Y004940D01*
X035102Y004972D01*
X035176Y005015D01*
X035243Y005066D01*
X035303Y005126D01*
X035326Y005157D01*
X035461Y005022D01*
X035691Y004927D01*
X035940Y004927D01*
X036171Y005022D01*
X036347Y005199D01*
X036443Y005429D01*
X036443Y006272D01*
X036347Y006503D01*
X036171Y006679D01*
X035940Y006774D01*
X035691Y006774D01*
X035461Y006679D01*
X035326Y006545D01*
X035303Y006575D01*
X035243Y006635D01*
X035176Y006686D01*
X035102Y006729D01*
X035024Y006761D01*
X034942Y006783D01*
X034858Y006794D01*
X034816Y006794D01*
X034816Y005851D01*
X034816Y005851D01*
X034816Y006794D01*
X034773Y006794D01*
X034689Y006783D01*
X034607Y006761D01*
X034529Y006729D01*
X034456Y006686D01*
X034388Y006635D01*
X034328Y006575D01*
X034277Y006508D01*
X034234Y006434D01*
X034202Y006356D01*
X034180Y006274D01*
X034169Y006190D01*
X034169Y005851D01*
X034816Y005851D01*
X034816Y005851D01*
X034816Y004907D01*
X034816Y005851D01*
X034816Y005851D01*
X034169Y005851D01*
X034169Y005511D01*
X034180Y005427D01*
X034202Y005345D01*
X034234Y005267D01*
X034277Y005194D01*
X034328Y005126D01*
X034388Y005066D01*
X034816Y005084D02*
X034816Y005084D01*
X035261Y005084D02*
X035399Y005084D01*
X034816Y005583D02*
X034816Y005583D01*
X034816Y006081D02*
X034816Y006081D01*
X034816Y006580D02*
X034816Y006580D01*
X035298Y006580D02*
X035361Y006580D01*
X036270Y006580D02*
X036751Y006580D01*
X036751Y007078D02*
X032306Y007078D01*
X032780Y006580D02*
X034333Y006580D01*
X034169Y006081D02*
X033056Y006081D01*
X033056Y005583D02*
X034169Y005583D01*
X036233Y005084D02*
X037452Y005084D01*
X036883Y005583D02*
X036443Y005583D01*
X036443Y006081D02*
X036751Y006081D01*
X034816Y007686D02*
X034816Y008351D01*
X034816Y008075D02*
X034816Y008075D01*
X034816Y007686D02*
X034540Y007686D01*
X034151Y008075D01*
X034151Y008574D02*
X032423Y008574D01*
X032203Y009072D02*
X034208Y009072D01*
X034061Y009219D02*
X034061Y009219D01*
X033866Y009571D02*
X032423Y009571D01*
X032206Y010069D02*
X033866Y010069D01*
X033866Y010568D02*
X032423Y010568D01*
X032209Y011066D02*
X033866Y011066D01*
X033047Y011565D02*
X032423Y011565D01*
X032212Y012063D02*
X032717Y012063D01*
X033993Y013060D02*
X043351Y013060D01*
X043351Y012562D02*
X034491Y012562D01*
X033766Y013559D02*
X043351Y013559D01*
X043351Y014057D02*
X033766Y014057D01*
X033766Y014556D02*
X035159Y014556D01*
X035566Y014556D02*
X035566Y014556D01*
X035973Y014556D02*
X043351Y014556D01*
X043351Y015054D02*
X036416Y015054D01*
X036416Y015553D02*
X043351Y015553D01*
X043351Y016051D02*
X042086Y016051D01*
X042059Y016031D02*
X042132Y016087D01*
X042198Y016152D01*
X042254Y016225D01*
X042300Y016305D01*
X042335Y016390D01*
X042359Y016479D01*
X042371Y016570D01*
X042371Y016616D01*
X041316Y016616D01*
X041316Y015914D01*
X041714Y015914D01*
X041806Y015926D01*
X041895Y015950D01*
X041980Y015985D01*
X042059Y016031D01*
X042368Y016550D02*
X043351Y016550D01*
X043351Y017048D02*
X042222Y017048D01*
X042198Y017081D02*
X042132Y017146D01*
X042059Y017202D01*
X041980Y017248D01*
X041895Y017283D01*
X041806Y017307D01*
X041714Y017319D01*
X041316Y017319D01*
X041316Y016616D01*
X041316Y016616D01*
X041316Y016616D01*
X041316Y015914D01*
X040917Y015914D01*
X040826Y015926D01*
X040737Y015950D01*
X040652Y015985D01*
X040572Y016031D01*
X040499Y016087D01*
X040434Y016152D01*
X040378Y016225D01*
X040332Y016305D01*
X040297Y016390D01*
X040273Y016479D01*
X040261Y016570D01*
X040261Y016616D01*
X041316Y016616D01*
X042371Y016616D01*
X042371Y016662D01*
X042359Y016754D01*
X042335Y016843D01*
X042300Y016928D01*
X042254Y017008D01*
X042198Y017081D01*
X041316Y017048D02*
X041316Y017048D01*
X041316Y017319D02*
X040917Y017319D01*
X040826Y017307D01*
X040737Y017283D01*
X040652Y017248D01*
X040572Y017202D01*
X040499Y017146D01*
X040434Y017081D01*
X040378Y017008D01*
X040332Y016928D01*
X040297Y016843D01*
X040273Y016754D01*
X040261Y016662D01*
X040261Y016616D01*
X041316Y016616D01*
X041316Y016616D01*
X041316Y016616D01*
X041316Y017319D01*
X040538Y018045D02*
X036045Y018045D01*
X036383Y017547D02*
X043351Y017547D01*
X043351Y018045D02*
X042094Y018045D01*
X042351Y018544D02*
X043351Y018544D01*
X043351Y019042D02*
X042176Y019042D01*
X040409Y017048D02*
X036339Y017048D01*
X035801Y016550D02*
X040263Y016550D01*
X040546Y016051D02*
X036067Y016051D01*
X035566Y015054D02*
X035566Y015054D01*
X034716Y015054D02*
X033766Y015054D01*
X033766Y015553D02*
X034716Y015553D01*
X032122Y018544D02*
X023016Y018544D01*
X023016Y018651D02*
X023155Y018651D01*
X023321Y018719D01*
X023447Y018846D01*
X023852Y019251D01*
X023933Y019251D01*
X024150Y019340D01*
X024309Y019500D01*
X024350Y019443D01*
X024418Y019375D01*
X024496Y019319D01*
X024582Y019275D01*
X024673Y019246D01*
X024768Y019231D01*
X024816Y019231D01*
X024864Y019231D01*
X024959Y019246D01*
X025050Y019275D01*
X025135Y019319D01*
X025213Y019375D01*
X025281Y019443D01*
X025322Y019500D01*
X025482Y019340D01*
X025698Y019251D01*
X025933Y019251D01*
X026150Y019340D01*
X026316Y019506D01*
X026482Y019340D01*
X026698Y019251D01*
X026933Y019251D01*
X027150Y019340D01*
X027316Y019506D01*
X027482Y019340D01*
X027698Y019251D01*
X027933Y019251D01*
X028150Y019340D01*
X028316Y019506D01*
X028482Y019340D01*
X028698Y019251D01*
X028933Y019251D01*
X029038Y019294D01*
X029038Y018837D01*
X029088Y018716D01*
X029181Y018623D01*
X029302Y018573D01*
X029829Y018573D01*
X029951Y018623D01*
X029979Y018651D01*
X031653Y018651D01*
X031681Y018623D01*
X031802Y018573D01*
X032151Y018573D01*
X030879Y017301D01*
X025726Y017301D01*
X025561Y017232D01*
X025434Y017106D01*
X024629Y016301D01*
X023079Y016301D01*
X023094Y016337D01*
X023094Y016864D01*
X023044Y016986D01*
X023016Y017014D01*
X023016Y018651D01*
X023644Y019042D02*
X029038Y019042D01*
X031125Y017547D02*
X023016Y017547D01*
X023016Y018045D02*
X031624Y018045D01*
X030879Y014901D02*
X031209Y014571D01*
X031209Y014480D01*
X031301Y014257D01*
X031457Y014101D01*
X031301Y013945D01*
X031209Y013721D01*
X031209Y013480D01*
X031301Y013257D01*
X031457Y013101D01*
X031301Y012945D01*
X031209Y012721D01*
X031209Y012528D01*
X030644Y013092D01*
X030431Y013181D01*
X030200Y013181D01*
X027254Y013181D01*
X027330Y013257D01*
X027423Y013480D01*
X027423Y013721D01*
X027330Y013945D01*
X027183Y014092D01*
X027224Y014122D01*
X027294Y014192D01*
X027352Y014272D01*
X027397Y014360D01*
X027427Y014454D01*
X027443Y014551D01*
X027443Y014601D01*
X027443Y014650D01*
X027427Y014748D01*
X027397Y014841D01*
X027367Y014901D01*
X030879Y014901D01*
X031209Y014556D02*
X027443Y014556D01*
X027443Y014601D02*
X026816Y014601D01*
X027443Y014601D01*
X027218Y014057D02*
X031414Y014057D01*
X031209Y013559D02*
X027423Y013559D01*
X026449Y014092D02*
X026432Y014076D01*
X026288Y014016D01*
X026150Y013878D01*
X026073Y013801D01*
X024729Y013801D01*
X024701Y013829D01*
X024579Y013879D01*
X024052Y013879D01*
X023931Y013829D01*
X023838Y013736D01*
X023788Y013614D01*
X023788Y013087D01*
X023838Y012966D01*
X023931Y012873D01*
X024052Y012823D01*
X024579Y012823D01*
X024701Y012873D01*
X024729Y012901D01*
X025576Y012901D01*
X025576Y012554D01*
X025363Y012341D01*
X022968Y012341D01*
X022788Y012266D01*
X022650Y012128D01*
X022151Y011629D01*
X021802Y011629D01*
X021681Y011579D01*
X021588Y011486D01*
X021538Y011364D01*
X021538Y010837D01*
X021588Y010716D01*
X021681Y010623D01*
X021802Y010573D01*
X022329Y010573D01*
X022436Y010617D01*
X022436Y009925D01*
X022532Y009694D01*
X022709Y009517D01*
X022940Y009421D01*
X023191Y009421D01*
X023423Y009517D01*
X023566Y009660D01*
X023709Y009517D01*
X023940Y009421D01*
X024191Y009421D01*
X024423Y009517D01*
X024555Y009649D01*
X024576Y009621D01*
X024636Y009561D01*
X024704Y009509D01*
X024778Y009466D01*
X024856Y009434D01*
X024939Y009412D01*
X025023Y009401D01*
X025066Y009401D01*
X025108Y009401D01*
X025193Y009412D01*
X025275Y009434D01*
X025354Y009466D01*
X025428Y009509D01*
X025495Y009561D01*
X025555Y009621D01*
X025607Y009689D01*
X025650Y009763D01*
X025683Y009841D01*
X025705Y009924D01*
X025716Y010008D01*
X025716Y010351D01*
X025716Y010693D01*
X025705Y010778D01*
X025683Y010860D01*
X025650Y010939D01*
X025607Y011013D01*
X025555Y011080D01*
X025495Y011140D01*
X025428Y011192D01*
X025354Y011235D01*
X025275Y011267D01*
X025193Y011290D01*
X025108Y011301D01*
X025066Y011301D01*
X025066Y010351D01*
X025066Y010351D01*
X025716Y010351D01*
X025066Y010351D01*
X025066Y010351D01*
X025066Y011301D01*
X025023Y011301D01*
X024939Y011290D01*
X024856Y011267D01*
X024778Y011235D01*
X024704Y011192D01*
X024636Y011140D01*
X024576Y011080D01*
X024555Y011053D01*
X024423Y011185D01*
X024191Y011281D01*
X023940Y011281D01*
X023709Y011185D01*
X023566Y011042D01*
X023423Y011185D01*
X023191Y011281D01*
X023189Y011281D01*
X023269Y011361D01*
X025663Y011361D01*
X025843Y011435D01*
X026265Y011856D01*
X026209Y011721D01*
X026209Y011480D01*
X026301Y011257D01*
X026457Y011101D01*
X026301Y010945D01*
X026209Y010721D01*
X026209Y010480D01*
X026301Y010257D01*
X026455Y010103D01*
X026299Y009946D01*
X026206Y009722D01*
X026206Y009479D01*
X026299Y009255D01*
X026446Y009107D01*
X026407Y009079D01*
X026337Y009009D01*
X026279Y008929D01*
X026235Y008841D01*
X026204Y008748D01*
X026189Y008650D01*
X026189Y008601D01*
X026816Y008601D01*
X027443Y008601D01*
X027443Y008650D01*
X027427Y008748D01*
X027397Y008841D01*
X027352Y008929D01*
X027308Y008991D01*
X027456Y008991D01*
X027456Y006603D01*
X027183Y006331D01*
X026850Y006331D01*
X026729Y006280D01*
X026636Y006188D01*
X026586Y006066D01*
X026586Y005135D01*
X026636Y005014D01*
X026729Y004921D01*
X026850Y004871D01*
X027781Y004871D01*
X027903Y004921D01*
X027996Y005014D01*
X028046Y005135D01*
X028046Y005257D01*
X028075Y005187D01*
X028280Y004982D01*
X028548Y004871D01*
X028839Y004871D01*
X029107Y004982D01*
X029313Y005187D01*
X029383Y005356D01*
X029453Y005187D01*
X029658Y004982D01*
X029926Y004871D01*
X030217Y004871D01*
X030485Y004982D01*
X030691Y005187D01*
X030761Y005356D01*
X030831Y005187D01*
X031036Y004982D01*
X031304Y004871D01*
X031595Y004871D01*
X031863Y004982D01*
X032068Y005187D01*
X032076Y005205D01*
X032076Y005054D01*
X031863Y004841D01*
X020019Y004841D01*
X019806Y005054D01*
X019806Y007198D01*
X019731Y007378D01*
X019634Y007476D01*
X019843Y007685D01*
X019981Y007823D01*
X020056Y008003D01*
X020056Y009043D01*
X020088Y008966D01*
X020181Y008873D01*
X020302Y008823D01*
X020829Y008823D01*
X020860Y008835D01*
X020651Y008626D01*
X020651Y008351D01*
X021316Y008351D01*
X021316Y008351D01*
X021316Y009016D01*
X021591Y009016D01*
X021830Y008777D01*
X021950Y008897D01*
X022187Y008996D01*
X022444Y008996D01*
X022681Y008897D01*
X022863Y008716D01*
X022961Y008479D01*
X022961Y008222D01*
X022863Y007985D01*
X022681Y007804D01*
X022444Y007706D01*
X022187Y007706D01*
X021950Y007804D01*
X021830Y007924D01*
X021591Y007686D01*
X021316Y007686D01*
X021316Y008351D01*
X021316Y009016D01*
X021064Y009016D01*
X021094Y009087D01*
X021094Y009614D01*
X021044Y009736D01*
X021016Y009764D01*
X021016Y014088D01*
X021052Y014073D01*
X021579Y014073D01*
X021701Y014123D01*
X021729Y014151D01*
X025655Y014151D01*
X025821Y014219D01*
X026189Y014587D01*
X026189Y014551D01*
X026204Y014454D01*
X026235Y014360D01*
X026279Y014272D01*
X026337Y014192D01*
X026407Y014122D01*
X026449Y014092D01*
X026387Y014057D02*
X021016Y014057D01*
X021016Y013559D02*
X023788Y013559D01*
X023799Y013060D02*
X021016Y013060D01*
X021016Y012562D02*
X025576Y012562D01*
X025973Y011565D02*
X026209Y011565D01*
X026423Y011066D02*
X025566Y011066D01*
X025066Y011066D02*
X025066Y011066D01*
X025066Y010568D02*
X025066Y010568D01*
X025066Y010351D02*
X025066Y009351D01*
X024816Y009101D01*
X021566Y009101D01*
X021316Y008851D01*
X021316Y008351D01*
X021316Y008351D01*
X021316Y008351D01*
X020651Y008351D01*
X020651Y008075D01*
X020056Y008075D01*
X020056Y008574D02*
X020651Y008574D01*
X020651Y008075D02*
X021040Y007686D01*
X021316Y007686D01*
X021316Y008351D01*
X021316Y008574D02*
X021316Y008574D01*
X021316Y008075D02*
X021316Y008075D01*
X021088Y009072D02*
X026400Y009072D01*
X026066Y008851D02*
X026316Y008601D01*
X026816Y008601D01*
X026816Y008601D01*
X027443Y008601D01*
X027443Y008551D01*
X027427Y008454D01*
X027397Y008360D01*
X027352Y008272D01*
X027294Y008192D01*
X027224Y008122D01*
X027183Y008092D01*
X027330Y007945D01*
X027423Y007721D01*
X027423Y007480D01*
X027330Y007257D01*
X027160Y007086D01*
X026937Y006993D01*
X026695Y006993D01*
X026472Y007086D01*
X026301Y007257D01*
X026209Y007480D01*
X026209Y007721D01*
X026301Y007945D01*
X026449Y008092D01*
X026407Y008122D01*
X026337Y008192D01*
X026279Y008272D01*
X026235Y008360D01*
X026204Y008454D01*
X026189Y008551D01*
X026189Y008601D01*
X026816Y008601D01*
X026816Y008601D01*
X026189Y008574D02*
X022922Y008574D01*
X022900Y008075D02*
X026432Y008075D01*
X026209Y007577D02*
X019735Y007577D01*
X019806Y007078D02*
X026491Y007078D01*
X027141Y007078D02*
X027456Y007078D01*
X027456Y007577D02*
X027423Y007577D01*
X027456Y008075D02*
X027200Y008075D01*
X027443Y008574D02*
X027456Y008574D01*
X026066Y008851D02*
X026066Y009351D01*
X025066Y010351D01*
X025066Y009401D01*
X025066Y010351D01*
X025066Y010351D01*
X025066Y010069D02*
X025066Y010069D01*
X025066Y009571D02*
X025066Y009571D01*
X025505Y009571D02*
X026206Y009571D01*
X026422Y010069D02*
X025716Y010069D01*
X025716Y010568D02*
X026209Y010568D01*
X026816Y010601D02*
X028566Y010601D01*
X029066Y010101D01*
X029066Y005973D01*
X028694Y005601D01*
X029210Y005084D02*
X029556Y005084D01*
X030066Y005601D02*
X030072Y005601D01*
X030066Y005601D02*
X030066Y010851D01*
X029316Y011601D01*
X026816Y011601D01*
X026816Y012601D02*
X030316Y012601D01*
X031066Y011851D01*
X031066Y005985D01*
X031450Y005601D01*
X031965Y005084D02*
X032076Y005084D01*
X032495Y004087D02*
X040995Y004087D01*
X041122Y005583D02*
X040470Y005583D01*
X040482Y006081D02*
X041497Y006081D01*
X040482Y006580D02*
X043351Y006580D01*
X043351Y007078D02*
X040075Y007078D01*
X031417Y013060D02*
X030676Y013060D01*
X031175Y012562D02*
X031209Y012562D01*
X026816Y014601D02*
X026816Y014601D01*
X026189Y014556D02*
X026157Y014556D01*
X024878Y016550D02*
X023094Y016550D01*
X023016Y017048D02*
X025377Y017048D01*
X024816Y019231D02*
X024816Y020101D01*
X024816Y020101D01*
X024816Y019231D01*
X024816Y019541D02*
X024816Y019541D01*
X024816Y020039D02*
X024816Y020039D01*
X023816Y026520D02*
X023816Y026520D01*
X023363Y029591D02*
X013968Y029591D01*
X013788Y029516D01*
X012363Y028091D01*
X011922Y028091D01*
X011829Y028129D01*
X011302Y028129D01*
X011181Y028079D01*
X011088Y027986D01*
X011038Y027864D01*
X011038Y027341D01*
X008019Y027341D01*
X007306Y028054D01*
X007306Y028898D01*
X007343Y028935D01*
X007481Y029073D01*
X007556Y029253D01*
X007556Y036898D01*
X007709Y037051D01*
X007709Y036980D01*
X007801Y036757D01*
X007957Y036601D01*
X007801Y036445D01*
X007709Y036221D01*
X007709Y035980D01*
X007801Y035757D01*
X007957Y035601D01*
X007801Y035445D01*
X007709Y035221D01*
X007709Y034980D01*
X007801Y034757D01*
X007957Y034601D01*
X007801Y034445D01*
X007709Y034221D01*
X007709Y033980D01*
X007801Y033757D01*
X007957Y033601D01*
X007801Y033445D01*
X007709Y033221D01*
X007709Y032980D01*
X007801Y032757D01*
X007957Y032601D01*
X007801Y032445D01*
X007709Y032221D01*
X007709Y031980D01*
X007801Y031757D01*
X007957Y031601D01*
X007801Y031445D01*
X007709Y031221D01*
X007709Y030980D01*
X007801Y030757D01*
X007972Y030586D01*
X008195Y030493D01*
X008437Y030493D01*
X008660Y030586D01*
X008786Y030712D01*
X008786Y028495D01*
X008788Y028491D01*
X008788Y028337D01*
X008838Y028216D01*
X008931Y028123D01*
X009052Y028073D01*
X009206Y028073D01*
X009210Y028071D01*
X009421Y028071D01*
X009426Y028073D01*
X009579Y028073D01*
X009701Y028123D01*
X009794Y028216D01*
X009844Y028337D01*
X009844Y028491D01*
X009846Y028495D01*
X009846Y031381D01*
X010035Y031571D01*
X012899Y031571D01*
X012837Y031509D01*
X012779Y031429D01*
X012735Y031341D01*
X012704Y031248D01*
X012689Y031150D01*
X012689Y031101D01*
X013316Y031101D01*
X013316Y031101D01*
X013316Y030473D01*
X013365Y030473D01*
X013463Y030489D01*
X013536Y030513D01*
X013536Y030495D01*
X013616Y030300D01*
X013866Y030050D01*
X014016Y029901D01*
X014210Y029821D01*
X016171Y029821D01*
X016366Y029901D01*
X016616Y030151D01*
X016765Y030300D01*
X016846Y030495D01*
X016846Y031571D01*
X019399Y031571D01*
X019337Y031509D01*
X019279Y031429D01*
X019235Y031341D01*
X019204Y031248D01*
X019189Y031150D01*
X019189Y031101D01*
X019816Y031101D01*
X019816Y031101D01*
X019816Y030473D01*
X019865Y030473D01*
X019963Y030489D01*
X020036Y030513D01*
X020036Y030495D01*
X020116Y030300D01*
X020366Y030050D01*
X020516Y029901D01*
X020710Y029821D01*
X022921Y029821D01*
X023116Y029901D01*
X023366Y030151D01*
X023515Y030300D01*
X023596Y030495D01*
X023596Y031571D01*
X025899Y031571D01*
X025837Y031509D01*
X025779Y031429D01*
X025735Y031341D01*
X025704Y031248D01*
X025689Y031150D01*
X025689Y031101D01*
X026316Y031101D01*
X026316Y031101D01*
X025689Y031101D01*
X025689Y031051D01*
X025704Y030954D01*
X025735Y030860D01*
X025779Y030772D01*
X025837Y030692D01*
X025907Y030622D01*
X025951Y030591D01*
X024468Y030591D01*
X024288Y030516D01*
X023363Y029591D01*
X023224Y030009D02*
X023781Y030009D01*
X023596Y030508D02*
X024280Y030508D01*
X023596Y031006D02*
X025696Y031006D01*
X025834Y031505D02*
X023596Y031505D01*
X022566Y033101D02*
X022066Y033601D01*
X022066Y039717D01*
X021682Y040101D01*
X022316Y040478D02*
X022426Y040478D01*
X023060Y040101D02*
X023066Y040095D01*
X023066Y034601D01*
X023566Y034101D01*
X026316Y034101D01*
X026316Y035101D02*
X024566Y035101D01*
X024066Y035601D01*
X024066Y039729D01*
X024438Y040101D01*
X025072Y040478D02*
X025086Y040478D01*
X025816Y040101D02*
X025066Y039351D01*
X025066Y036351D01*
X025316Y036101D01*
X026316Y036101D01*
X025849Y036681D02*
X025646Y036681D01*
X025646Y039110D01*
X025906Y039371D01*
X026223Y039371D01*
X025799Y038946D01*
X025706Y038722D01*
X025706Y038479D01*
X025706Y037979D01*
X025799Y037755D01*
X025946Y037607D01*
X025907Y037579D01*
X025837Y037509D01*
X025779Y037429D01*
X025735Y037341D01*
X025704Y037248D01*
X025689Y037150D01*
X025689Y037101D01*
X026316Y037101D01*
X026316Y037101D01*
X025689Y037101D01*
X025689Y037051D01*
X025704Y036954D01*
X025735Y036860D01*
X025779Y036772D01*
X025837Y036692D01*
X025849Y036681D01*
X025699Y036988D02*
X025646Y036988D01*
X025646Y037487D02*
X025821Y037487D01*
X025706Y037985D02*
X025646Y037985D01*
X025646Y038484D02*
X025706Y038484D01*
X025646Y038982D02*
X025835Y038982D01*
X026546Y039979D02*
X027208Y039979D01*
X027304Y040478D02*
X026546Y040478D01*
X028572Y040478D02*
X028586Y040478D01*
X023804Y040478D02*
X023694Y040478D01*
X020718Y037611D02*
X020538Y037685D01*
X020370Y037853D01*
X020330Y037757D01*
X020183Y037609D01*
X020224Y037579D01*
X020294Y037509D01*
X020352Y037429D01*
X020397Y037341D01*
X020427Y037248D01*
X020443Y037150D01*
X020443Y037101D01*
X019816Y037101D01*
X019816Y037101D01*
X020443Y037101D01*
X020443Y037051D01*
X020427Y036954D01*
X020397Y036860D01*
X020352Y036772D01*
X020294Y036692D01*
X020224Y036622D01*
X020183Y036592D01*
X020330Y036445D01*
X020423Y036221D01*
X020423Y035980D01*
X020330Y035757D01*
X020174Y035601D01*
X020330Y035445D01*
X020423Y035221D01*
X020423Y034980D01*
X020330Y034757D01*
X020174Y034601D01*
X020330Y034445D01*
X020423Y034221D01*
X020423Y033980D01*
X020330Y033757D01*
X020174Y033601D01*
X020330Y033445D01*
X020423Y033221D01*
X020423Y032980D01*
X020330Y032757D01*
X020204Y032631D01*
X020421Y032631D01*
X020616Y032550D01*
X020778Y032388D01*
X020801Y032445D01*
X020957Y032601D01*
X020801Y032757D01*
X020709Y032980D01*
X020709Y033221D01*
X020801Y033445D01*
X020957Y033601D01*
X020801Y033757D01*
X020709Y033980D01*
X020709Y034221D01*
X020801Y034445D01*
X020957Y034601D01*
X020801Y034757D01*
X020709Y034980D01*
X020709Y035221D01*
X020801Y035445D01*
X020957Y035601D01*
X020801Y035757D01*
X020709Y035980D01*
X020709Y036221D01*
X020801Y036445D01*
X020957Y036601D01*
X020801Y036757D01*
X020709Y036980D01*
X020709Y037221D01*
X020801Y037445D01*
X020957Y037601D01*
X020947Y037611D01*
X020718Y037611D01*
X020843Y037487D02*
X020311Y037487D01*
X020433Y036988D02*
X020709Y036988D01*
X020846Y036490D02*
X020285Y036490D01*
X020423Y035991D02*
X020709Y035991D01*
X020849Y035493D02*
X020282Y035493D01*
X020423Y034994D02*
X020709Y034994D01*
X020852Y034496D02*
X020279Y034496D01*
X019816Y034101D02*
X017066Y034101D01*
X016566Y034601D01*
X016566Y040095D01*
X016560Y040101D01*
X015566Y039717D02*
X015182Y040101D01*
X015566Y039717D02*
X015566Y033601D01*
X016066Y033101D01*
X019816Y033101D01*
X020276Y033499D02*
X020855Y033499D01*
X020709Y033997D02*
X020423Y033997D01*
X020423Y033000D02*
X020709Y033000D01*
X020664Y032502D02*
X020858Y032502D01*
X019816Y031101D02*
X019816Y031101D01*
X019189Y031101D01*
X019189Y031051D01*
X019204Y030954D01*
X019235Y030860D01*
X019279Y030772D01*
X019337Y030692D01*
X019407Y030622D01*
X019487Y030564D01*
X019575Y030519D01*
X019669Y030489D01*
X019766Y030473D01*
X019816Y030473D01*
X019816Y031101D01*
X019816Y031006D02*
X019816Y031006D01*
X019816Y030508D02*
X019816Y030508D01*
X020020Y030508D02*
X020036Y030508D01*
X019611Y030508D02*
X016846Y030508D01*
X016846Y031006D02*
X019196Y031006D01*
X019334Y031505D02*
X016846Y031505D01*
X016474Y030009D02*
X020408Y030009D01*
X022566Y033101D02*
X026316Y033101D01*
X019816Y035101D02*
X018066Y035101D01*
X017566Y035601D01*
X017566Y039729D01*
X017938Y040101D01*
X018566Y039351D02*
X019316Y040101D01*
X019962Y039481D02*
X020076Y039481D01*
X019996Y039514D02*
X020046Y039635D01*
X020046Y040566D01*
X020027Y040611D01*
X020076Y040611D01*
X020076Y038650D01*
X019937Y038708D01*
X019695Y038708D01*
X019472Y038615D01*
X019301Y038445D01*
X019209Y038221D01*
X019209Y037980D01*
X019301Y037757D01*
X019449Y037609D01*
X019407Y037579D01*
X019337Y037509D01*
X019279Y037429D01*
X019235Y037341D01*
X019204Y037248D01*
X019189Y037150D01*
X019189Y037101D01*
X019816Y037101D01*
X019816Y037101D01*
X019189Y037101D01*
X019189Y037051D01*
X019204Y036954D01*
X019235Y036860D01*
X019279Y036772D01*
X019337Y036692D01*
X019349Y036681D01*
X019146Y036681D01*
X019146Y039110D01*
X019406Y039371D01*
X019781Y039371D01*
X019903Y039421D01*
X019996Y039514D01*
X020046Y039979D02*
X020076Y039979D01*
X020046Y040478D02*
X020076Y040478D01*
X018566Y039351D02*
X018566Y036351D01*
X018816Y036101D01*
X019816Y036101D01*
X019199Y036988D02*
X019146Y036988D01*
X019146Y037487D02*
X019321Y037487D01*
X019209Y037985D02*
X019146Y037985D01*
X019146Y038484D02*
X019340Y038484D01*
X019146Y038982D02*
X020076Y038982D01*
X014457Y037601D02*
X014432Y037626D01*
X014288Y037685D01*
X013923Y038051D01*
X013923Y037980D01*
X013830Y037757D01*
X013683Y037609D01*
X013724Y037579D01*
X013794Y037509D01*
X013852Y037429D01*
X013897Y037341D01*
X013927Y037248D01*
X013943Y037150D01*
X013943Y037101D01*
X013316Y037101D01*
X013316Y037101D01*
X013943Y037101D01*
X013943Y037051D01*
X013927Y036954D01*
X013897Y036860D01*
X013852Y036772D01*
X013794Y036692D01*
X013724Y036622D01*
X013683Y036592D01*
X013830Y036445D01*
X013923Y036221D01*
X013923Y035980D01*
X013830Y035757D01*
X013674Y035601D01*
X013830Y035445D01*
X013923Y035221D01*
X013923Y034980D01*
X013830Y034757D01*
X013674Y034601D01*
X013830Y034445D01*
X013923Y034221D01*
X013923Y033980D01*
X013830Y033757D01*
X013674Y033601D01*
X013830Y033445D01*
X013923Y033221D01*
X013923Y032980D01*
X013830Y032757D01*
X013704Y032631D01*
X013921Y032631D01*
X014116Y032550D01*
X014278Y032388D01*
X014301Y032445D01*
X014457Y032601D01*
X014301Y032757D01*
X014209Y032980D01*
X014209Y033221D01*
X014301Y033445D01*
X014457Y033601D01*
X014301Y033757D01*
X014209Y033980D01*
X014209Y034221D01*
X014301Y034445D01*
X014457Y034601D01*
X014301Y034757D01*
X014209Y034980D01*
X014209Y035221D01*
X014301Y035445D01*
X014457Y035601D01*
X014301Y035757D01*
X014209Y035980D01*
X014209Y036221D01*
X014301Y036445D01*
X014457Y036601D01*
X014301Y036757D01*
X014209Y036980D01*
X014209Y037221D01*
X014301Y037445D01*
X014457Y037601D01*
X014343Y037487D02*
X013811Y037487D01*
X013923Y037985D02*
X013988Y037985D01*
X013576Y038650D02*
X013437Y038708D01*
X013195Y038708D01*
X012972Y038615D01*
X012801Y038445D01*
X012709Y038221D01*
X012709Y037980D01*
X012801Y037757D01*
X012949Y037609D01*
X012907Y037579D01*
X012837Y037509D01*
X012779Y037429D01*
X012735Y037341D01*
X012704Y037248D01*
X012689Y037150D01*
X012689Y037101D01*
X013316Y037101D01*
X013316Y037101D01*
X012689Y037101D01*
X012689Y037051D01*
X012704Y036954D01*
X012735Y036860D01*
X012779Y036772D01*
X012837Y036692D01*
X012849Y036681D01*
X012646Y036681D01*
X012646Y039110D01*
X012906Y039371D01*
X013281Y039371D01*
X013403Y039421D01*
X013496Y039514D01*
X013546Y039635D01*
X013546Y040566D01*
X013527Y040611D01*
X013576Y040611D01*
X013576Y038650D01*
X013576Y038982D02*
X012646Y038982D01*
X012646Y038484D02*
X012840Y038484D01*
X012709Y037985D02*
X012646Y037985D01*
X012646Y037487D02*
X012821Y037487D01*
X012699Y036988D02*
X012646Y036988D01*
X012066Y036351D02*
X012066Y039351D01*
X012816Y040101D01*
X013546Y039979D02*
X013576Y039979D01*
X013576Y039481D02*
X013462Y039481D01*
X013546Y040478D02*
X013576Y040478D01*
X011438Y040101D02*
X011066Y039729D01*
X011066Y035601D01*
X011566Y035101D01*
X013316Y035101D01*
X013782Y035493D02*
X014349Y035493D01*
X014209Y035991D02*
X013923Y035991D01*
X013785Y036490D02*
X014346Y036490D01*
X014209Y036988D02*
X013933Y036988D01*
X013316Y036101D02*
X012316Y036101D01*
X012066Y036351D01*
X013923Y034994D02*
X014209Y034994D01*
X014352Y034496D02*
X013779Y034496D01*
X013316Y034101D02*
X010566Y034101D01*
X010066Y034601D01*
X010066Y040095D01*
X010060Y040101D01*
X009066Y039601D02*
X008566Y040101D01*
X009066Y039601D02*
X009066Y033601D01*
X009566Y033101D01*
X013316Y033101D01*
X013776Y033499D02*
X014355Y033499D01*
X014209Y033997D02*
X013923Y033997D01*
X013923Y033000D02*
X014209Y033000D01*
X014164Y032502D02*
X014358Y032502D01*
X013316Y031101D02*
X013316Y031101D01*
X012689Y031101D01*
X012689Y031051D01*
X012704Y030954D01*
X012735Y030860D01*
X012779Y030772D01*
X012837Y030692D01*
X012907Y030622D01*
X012987Y030564D01*
X013075Y030519D01*
X013169Y030489D01*
X013266Y030473D01*
X013316Y030473D01*
X013316Y031101D01*
X013316Y031006D02*
X013316Y031006D01*
X013316Y030508D02*
X013316Y030508D01*
X013520Y030508D02*
X013536Y030508D01*
X013111Y030508D02*
X009846Y030508D01*
X009846Y031006D02*
X012696Y031006D01*
X012834Y031505D02*
X009969Y031505D01*
X008786Y030508D02*
X008471Y030508D01*
X008161Y030508D02*
X007556Y030508D01*
X007556Y031006D02*
X007709Y031006D01*
X007556Y031505D02*
X007861Y031505D01*
X007709Y032003D02*
X007556Y032003D01*
X007556Y032502D02*
X007858Y032502D01*
X007709Y033000D02*
X007556Y033000D01*
X007556Y033499D02*
X007855Y033499D01*
X007709Y033997D02*
X007556Y033997D01*
X007556Y034496D02*
X007852Y034496D01*
X007709Y034994D02*
X007556Y034994D01*
X007556Y035493D02*
X007849Y035493D01*
X007709Y035991D02*
X007556Y035991D01*
X007556Y036490D02*
X007846Y036490D01*
X007709Y036988D02*
X007646Y036988D01*
X007556Y030009D02*
X008786Y030009D01*
X008786Y029511D02*
X007556Y029511D01*
X007420Y029012D02*
X008786Y029012D01*
X008786Y028514D02*
X007306Y028514D01*
X007344Y028015D02*
X011117Y028015D01*
X011038Y027517D02*
X007843Y027517D01*
X009846Y028514D02*
X012786Y028514D01*
X013284Y029012D02*
X009846Y029012D01*
X009846Y029511D02*
X013783Y029511D01*
X013908Y030009D02*
X009846Y030009D01*
X006566Y021036D02*
X006566Y021036D01*
X011016Y020851D02*
X011316Y020851D01*
X011316Y017851D01*
X012962Y015054D02*
X013382Y015054D01*
X013816Y015054D02*
X013816Y015054D01*
X013189Y014556D02*
X012806Y014556D01*
X012972Y014057D02*
X013414Y014057D01*
X013209Y013559D02*
X013094Y013559D01*
X008316Y008574D02*
X008316Y008574D01*
X008316Y008075D02*
X008316Y008075D01*
X007833Y006580D02*
X005281Y006580D01*
X005281Y007078D02*
X013491Y007078D01*
X012903Y006280D02*
X012781Y006331D01*
X011850Y006331D01*
X011729Y006280D01*
X011636Y006188D01*
X011586Y006066D01*
X011586Y005944D01*
X011557Y006014D01*
X011351Y006220D01*
X011083Y006331D01*
X010793Y006331D01*
X010524Y006220D01*
X010319Y006014D01*
X010208Y005746D01*
X010208Y005455D01*
X010319Y005187D01*
X010524Y004982D01*
X010793Y004871D01*
X011083Y004871D01*
X011351Y004982D01*
X011557Y005187D01*
X011586Y005257D01*
X011586Y005135D01*
X011636Y005014D01*
X011729Y004921D01*
X011850Y004871D01*
X012781Y004871D01*
X012903Y004921D01*
X012996Y005014D01*
X013046Y005135D01*
X013046Y006066D01*
X012996Y006188D01*
X012903Y006280D01*
X013040Y006081D02*
X013592Y006081D01*
X013586Y005583D02*
X013046Y005583D01*
X013025Y005084D02*
X013607Y005084D01*
X011607Y005084D02*
X011454Y005084D01*
X011490Y006081D02*
X011592Y006081D01*
X010386Y006081D02*
X009943Y006081D01*
X009943Y005583D02*
X010208Y005583D01*
X010422Y005084D02*
X009733Y005084D01*
X007637Y004586D02*
X018895Y004586D01*
X019386Y004087D02*
X007637Y004087D01*
X016210Y005084D02*
X016556Y005084D01*
X019806Y005084D02*
X020871Y005084D01*
X020888Y005066D02*
X020956Y005015D01*
X021029Y004972D01*
X021107Y004940D01*
X021189Y004918D01*
X021273Y004907D01*
X021316Y004907D01*
X021358Y004907D01*
X021442Y004918D01*
X021524Y004940D01*
X021602Y004972D01*
X021676Y005015D01*
X021743Y005066D01*
X021803Y005126D01*
X021826Y005157D01*
X021961Y005022D01*
X022191Y004927D01*
X022440Y004927D01*
X022671Y005022D01*
X022847Y005199D01*
X022943Y005429D01*
X022943Y006272D01*
X022847Y006503D01*
X022671Y006679D01*
X022440Y006774D01*
X022191Y006774D01*
X021961Y006679D01*
X021826Y006545D01*
X021803Y006575D01*
X021743Y006635D01*
X021676Y006686D01*
X021602Y006729D01*
X021524Y006761D01*
X021442Y006783D01*
X021358Y006794D01*
X021316Y006794D01*
X021316Y005851D01*
X021316Y005851D01*
X021316Y006794D01*
X021273Y006794D01*
X021189Y006783D01*
X021107Y006761D01*
X021029Y006729D01*
X020956Y006686D01*
X020888Y006635D01*
X020828Y006575D01*
X020777Y006508D01*
X020734Y006434D01*
X020702Y006356D01*
X020680Y006274D01*
X020669Y006190D01*
X020669Y005851D01*
X021316Y005851D01*
X021316Y005851D01*
X021316Y004907D01*
X021316Y005851D01*
X021316Y005851D01*
X020669Y005851D01*
X020669Y005511D01*
X020680Y005427D01*
X020702Y005345D01*
X020734Y005267D01*
X020777Y005194D01*
X020828Y005126D01*
X020888Y005066D01*
X021316Y005084D02*
X021316Y005084D01*
X021761Y005084D02*
X021899Y005084D01*
X021316Y005583D02*
X021316Y005583D01*
X021316Y006081D02*
X021316Y006081D01*
X021316Y006580D02*
X021316Y006580D01*
X021798Y006580D02*
X021861Y006580D01*
X022770Y006580D02*
X027432Y006580D01*
X026592Y006081D02*
X026040Y006081D01*
X026046Y006066D02*
X025996Y006188D01*
X025903Y006280D01*
X025781Y006331D01*
X024850Y006331D01*
X024729Y006280D01*
X024636Y006188D01*
X024586Y006066D01*
X024586Y005944D01*
X024557Y006014D01*
X024351Y006220D01*
X024083Y006331D01*
X023793Y006331D01*
X023524Y006220D01*
X023319Y006014D01*
X023208Y005746D01*
X023208Y005455D01*
X023319Y005187D01*
X023524Y004982D01*
X023793Y004871D01*
X024083Y004871D01*
X024351Y004982D01*
X024557Y005187D01*
X024586Y005257D01*
X024586Y005135D01*
X024636Y005014D01*
X024729Y004921D01*
X024850Y004871D01*
X025781Y004871D01*
X025903Y004921D01*
X025996Y005014D01*
X026046Y005135D01*
X026046Y006066D01*
X026046Y005583D02*
X026586Y005583D01*
X026607Y005084D02*
X026025Y005084D01*
X024607Y005084D02*
X024454Y005084D01*
X024490Y006081D02*
X024592Y006081D01*
X023422Y005084D02*
X022733Y005084D01*
X022943Y005583D02*
X023208Y005583D01*
X023386Y006081D02*
X022943Y006081D01*
X020833Y006580D02*
X019806Y006580D01*
X019806Y006081D02*
X020669Y006081D01*
X020669Y005583D02*
X019806Y005583D01*
X021094Y009571D02*
X022655Y009571D01*
X022436Y010069D02*
X021016Y010069D01*
X021016Y010568D02*
X022436Y010568D01*
X021538Y011066D02*
X021016Y011066D01*
X021016Y011565D02*
X021667Y011565D01*
X021016Y012063D02*
X022585Y012063D01*
X023541Y011066D02*
X023590Y011066D01*
X024541Y011066D02*
X024565Y011066D01*
X024627Y009571D02*
X024477Y009571D01*
X023655Y009571D02*
X023477Y009571D01*
X028025Y005084D02*
X028178Y005084D01*
X030588Y005084D02*
X030934Y005084D01*
X041316Y016051D02*
X041316Y016051D01*
X041316Y016550D02*
X041316Y016550D01*
X035365Y021535D02*
X034768Y021535D01*
X037263Y027517D02*
X043351Y027517D01*
X040916Y032003D02*
X040916Y032003D01*
X040916Y032502D02*
X040916Y032502D01*
D32*
X037816Y029601D03*
X036816Y027101D03*
X031066Y030851D03*
X030316Y031101D03*
X030066Y031851D03*
X031316Y032351D03*
X031316Y034101D03*
X034566Y033351D03*
X035566Y034851D03*
X033816Y037351D03*
X028066Y032851D03*
X028566Y031851D03*
X027316Y034601D03*
X028816Y027101D03*
X030316Y024601D03*
X025566Y024101D03*
X023816Y024851D03*
X025566Y022101D03*
X029566Y019101D03*
X032066Y019101D03*
X033566Y011851D03*
X024316Y013351D03*
X022566Y015851D03*
X022566Y016601D03*
X021316Y016101D03*
X021316Y015351D03*
X021316Y014601D03*
X022066Y011101D03*
X020566Y009351D03*
X012566Y013601D03*
X010066Y014351D03*
X011316Y017851D03*
X020066Y018601D03*
X011566Y027601D03*
X009316Y028601D03*
X006566Y029851D03*
D33*
X035566Y015351D02*
X036066Y014851D01*
X039816Y014851D01*
X041316Y016351D01*
X041316Y016616D01*
X041316Y011601D01*
X040316Y010601D01*
X038816Y009601D02*
X038816Y009351D01*
X037831Y008366D01*
X037831Y006101D01*
D34*
X039816Y010601D02*
X040316Y010601D01*
D35*
X035816Y008601D02*
X035816Y008351D01*
X035816Y008601D02*
X035316Y009101D01*
X034816Y009101D01*
X034316Y009601D01*
X034316Y012101D01*
X033316Y013101D01*
X033316Y015601D01*
X032566Y016351D01*
X032566Y016851D01*
X034816Y019101D01*
X034816Y020851D01*
X033566Y022101D01*
X025566Y022101D01*
X025316Y023851D02*
X025566Y024101D01*
X025316Y023851D02*
X016816Y023851D01*
X016316Y024351D01*
X016316Y026601D01*
X016066Y026851D01*
X015566Y026851D01*
X014816Y026101D01*
X013316Y024601D02*
X013316Y024101D01*
X014066Y023351D01*
X031066Y023351D01*
X031316Y023601D01*
X031316Y026851D01*
X031566Y027101D01*
X032566Y027101D01*
X032816Y026851D01*
X032816Y026101D01*
X031816Y026101D02*
X031816Y023351D01*
X031316Y022851D01*
X013816Y022851D01*
X012816Y023851D01*
X012816Y024351D01*
X012316Y024851D01*
X012116Y024851D01*
X012316Y025601D02*
X011566Y025601D01*
X011016Y025051D01*
X011016Y024851D01*
X012116Y023851D02*
X012116Y023801D01*
X013566Y022351D01*
X021816Y022351D01*
X023316Y020851D01*
X033566Y020851D01*
X033816Y020601D01*
X033816Y020101D01*
X032816Y020101D02*
X032816Y018601D01*
X031066Y016851D01*
X025816Y016851D01*
X024816Y015851D01*
X022566Y015851D01*
X022566Y016601D02*
X022566Y018851D01*
X022816Y019101D01*
X023066Y019101D01*
X023816Y019851D01*
X023816Y020101D01*
X022816Y020101D02*
X022816Y020601D01*
X021566Y021851D01*
X013316Y021851D01*
X012316Y022851D01*
X012116Y022851D01*
X012116Y021851D02*
X012566Y021851D01*
X013066Y021351D01*
X021066Y021351D01*
X021816Y020601D01*
X021816Y020101D01*
X020816Y020601D02*
X020566Y020851D01*
X012116Y020851D01*
X013316Y024601D02*
X012316Y025601D01*
X020816Y016101D02*
X020566Y015851D01*
X020566Y009351D01*
X024316Y013351D02*
X026316Y013351D01*
X026566Y013601D01*
X025566Y014601D02*
X026316Y015351D01*
X031066Y015351D01*
X031816Y014601D01*
X032566Y015351D02*
X032566Y012851D01*
X033566Y011851D01*
X032566Y015351D02*
X031816Y016101D01*
X026066Y016101D01*
X025316Y015351D01*
X021316Y015351D01*
X021316Y014601D02*
X025566Y014601D01*
X021316Y016101D02*
X020816Y016101D01*
X029566Y019101D02*
X032066Y019101D01*
X030316Y024601D02*
X030316Y026851D01*
X030066Y027101D01*
X028816Y027101D01*
X029816Y026101D02*
X029816Y025351D01*
X029316Y024851D01*
X023816Y024851D01*
D36*
X038816Y011101D02*
X038816Y009601D01*
M02*
