G75*
G70*
%OFA0B0*%
%FSLAX24Y24*%
%IPPOS*%
%LPD*%
%AMOC8*
5,1,8,0,0,1.08239X$1,22.5*
%
%ADD10C,0.0160*%
%ADD11C,0.0130*%
%ADD12C,0.0080*%
%ADD13C,0.0110*%
%ADD14C,0.0300*%
%ADD15C,0.0400*%
%ADD16C,0.0100*%
%ADD17C,0.0120*%
%ADD18C,0.0200*%
D10*
X007816Y004601D02*
X007816Y007101D01*
X009816Y007101D01*
X009816Y004601D01*
X007816Y004601D01*
X010316Y004101D02*
X010316Y007101D01*
X013066Y007101D01*
X013066Y004101D01*
X010316Y004101D01*
X013566Y004101D02*
X013566Y006851D01*
X019316Y006851D01*
X019316Y004101D01*
X013566Y004101D01*
X020816Y004601D02*
X022816Y004601D01*
X022816Y007101D01*
X020816Y007101D01*
X020816Y004601D01*
X023316Y004351D02*
X023316Y007101D01*
X026066Y007101D01*
X026066Y004351D01*
X023316Y004351D01*
X026566Y004351D02*
X032316Y004351D01*
X032316Y006851D01*
X026566Y006851D01*
X026566Y004351D01*
X034316Y004601D02*
X036316Y004601D01*
X036316Y007101D01*
X034316Y007101D01*
X034316Y004601D01*
X036816Y004601D02*
X040816Y004601D01*
X040816Y008101D01*
X036816Y008101D01*
X036816Y004601D01*
X039316Y015601D02*
X043066Y015601D01*
X043066Y019601D01*
X039316Y019601D01*
X039316Y015601D01*
X040316Y033851D02*
X040316Y038351D01*
X041816Y038351D01*
X043566Y038351D02*
X043816Y038351D01*
X043816Y033851D02*
X043566Y033851D01*
X041816Y033851D02*
X040316Y033851D01*
X030066Y038851D02*
X030066Y041601D01*
X027316Y041601D01*
X027316Y038851D01*
X030066Y038851D01*
X026816Y038851D02*
X026816Y041601D01*
X020816Y041601D01*
X020816Y038851D01*
X026816Y038851D01*
X020316Y038851D02*
X014316Y038851D01*
X014316Y041601D01*
X020316Y041601D01*
X020316Y038851D01*
X013816Y038851D02*
X007816Y038851D01*
X007816Y041601D01*
X013816Y041601D01*
X013816Y038851D01*
X009316Y021851D02*
X006816Y021851D01*
X006566Y021601D02*
X005066Y021601D01*
X005066Y018601D01*
X008066Y018601D01*
X008316Y018851D02*
X009316Y018851D01*
X009316Y021851D01*
X009316Y018351D02*
X006816Y018351D01*
X006816Y018101D02*
X005066Y018101D01*
X005066Y015101D01*
X008066Y015101D01*
X008316Y015351D02*
X009316Y015351D01*
X009316Y018351D01*
X009316Y014851D02*
X006816Y014851D01*
X006816Y014601D02*
X005066Y014601D01*
X005066Y011601D01*
X008066Y011601D01*
X008316Y011851D02*
X009316Y011851D01*
X009316Y014851D01*
D11*
X011471Y014662D02*
X012001Y014662D01*
X012001Y014308D02*
X011471Y014308D01*
X011471Y014080D02*
X011471Y013903D01*
X011471Y013991D02*
X012001Y013991D01*
X012001Y013903D02*
X012001Y014080D01*
X012001Y014308D02*
X011471Y014662D01*
X011913Y015330D02*
X011736Y015506D01*
X011471Y015506D01*
X011736Y015506D02*
X011913Y015683D01*
X012001Y015683D01*
X012001Y015330D02*
X011913Y015330D01*
X011736Y015937D02*
X011736Y016291D01*
X011471Y016545D02*
X012001Y016545D01*
X011824Y016722D01*
X012001Y016899D01*
X011471Y016899D01*
X011471Y017153D02*
X011471Y017330D01*
X011471Y017241D02*
X012001Y017241D01*
X012001Y017153D02*
X012001Y017330D01*
X012001Y017558D02*
X011471Y017912D01*
X012001Y017912D01*
X012001Y017558D02*
X011471Y017558D01*
X011471Y019080D02*
X012001Y019433D01*
X012001Y019080D02*
X011471Y019433D01*
X011736Y019687D02*
X011736Y020041D01*
X012001Y020295D02*
X011824Y020472D01*
X012001Y020649D01*
X011471Y020649D01*
X011471Y020903D02*
X011471Y021080D01*
X011471Y020991D02*
X012001Y020991D01*
X012001Y020903D02*
X012001Y021080D01*
X012001Y021308D02*
X011471Y021662D01*
X012001Y021662D01*
X012001Y021308D02*
X011471Y021308D01*
X011471Y020295D02*
X012001Y020295D01*
X012001Y013649D02*
X011471Y013649D01*
X011471Y013295D02*
X012001Y013295D01*
X011824Y013472D01*
X012001Y013649D01*
X011736Y013041D02*
X011736Y012687D01*
X011913Y012433D02*
X011559Y012080D01*
X011471Y012080D01*
X011471Y012433D01*
X011913Y012433D02*
X012001Y012433D01*
X012001Y012080D01*
D12*
X012812Y008211D02*
X012812Y007891D01*
X012812Y008051D02*
X013026Y008051D01*
X013026Y007891D02*
X013026Y008211D01*
X012657Y008051D02*
X012657Y007944D01*
X012604Y007891D01*
X012497Y007891D01*
X012444Y007944D01*
X012444Y008051D01*
X012497Y008104D01*
X012604Y008104D01*
X012657Y008051D01*
X012289Y008104D02*
X012182Y008104D01*
X012236Y008158D02*
X012236Y007944D01*
X012182Y007891D01*
X012044Y007944D02*
X012044Y008051D01*
X011990Y008104D01*
X011883Y008104D01*
X011830Y008051D01*
X011830Y007997D01*
X012044Y007997D01*
X012044Y007944D02*
X011990Y007891D01*
X011883Y007891D01*
X011675Y007891D02*
X011675Y008104D01*
X011515Y008104D01*
X011462Y008051D01*
X011462Y007891D01*
X011307Y007944D02*
X011307Y008051D01*
X011254Y008104D01*
X011093Y008104D01*
X011093Y008211D02*
X011093Y007891D01*
X011254Y007891D01*
X011307Y007944D01*
X011307Y007604D02*
X011307Y007391D01*
X011307Y007497D02*
X011200Y007604D01*
X011147Y007604D01*
X011462Y007551D02*
X011462Y007497D01*
X011675Y007497D01*
X011675Y007444D02*
X011675Y007551D01*
X011622Y007604D01*
X011515Y007604D01*
X011462Y007551D01*
X011515Y007391D02*
X011622Y007391D01*
X011675Y007444D01*
X011814Y007391D02*
X011867Y007444D01*
X011867Y007658D01*
X011814Y007604D02*
X011921Y007604D01*
X012076Y007551D02*
X012076Y007391D01*
X012236Y007391D01*
X012289Y007444D01*
X012236Y007497D01*
X012076Y007497D01*
X012076Y007551D02*
X012129Y007604D01*
X012236Y007604D01*
X012444Y007551D02*
X012444Y007497D01*
X012657Y007497D01*
X012657Y007444D02*
X012657Y007551D01*
X012604Y007604D01*
X012497Y007604D01*
X012444Y007551D01*
X012497Y007391D02*
X012604Y007391D01*
X012657Y007444D01*
X012812Y007391D02*
X012812Y007711D01*
X012812Y007551D02*
X013026Y007551D01*
X013026Y007391D02*
X013026Y007711D01*
X014003Y007854D02*
X014056Y007854D01*
X014163Y007747D01*
X014163Y007641D02*
X014163Y007854D01*
X014318Y007801D02*
X014371Y007854D01*
X014478Y007854D01*
X014531Y007801D01*
X014531Y007694D01*
X014478Y007641D01*
X014371Y007641D01*
X014318Y007694D01*
X014318Y007801D01*
X014670Y007854D02*
X014777Y007854D01*
X014723Y007908D02*
X014723Y007694D01*
X014670Y007641D01*
X014600Y007461D02*
X014706Y007354D01*
X014600Y007461D02*
X014600Y007141D01*
X014706Y007141D02*
X014493Y007141D01*
X014985Y007641D02*
X014932Y007694D01*
X014932Y007801D01*
X014985Y007854D01*
X015092Y007854D01*
X015145Y007801D01*
X015145Y007694D01*
X015092Y007641D01*
X014985Y007641D01*
X015300Y007641D02*
X015300Y007961D01*
X015407Y007854D01*
X015513Y007961D01*
X015513Y007641D01*
X015590Y007354D02*
X015537Y007301D01*
X015537Y007247D01*
X015750Y007247D01*
X015750Y007194D02*
X015750Y007301D01*
X015697Y007354D01*
X015590Y007354D01*
X015382Y007354D02*
X015382Y007141D01*
X015382Y007247D02*
X015275Y007354D01*
X015222Y007354D01*
X015590Y007141D02*
X015697Y007141D01*
X015750Y007194D01*
X015905Y007141D02*
X016065Y007141D01*
X016118Y007194D01*
X016118Y007301D01*
X016065Y007354D01*
X015905Y007354D01*
X015905Y007461D02*
X015905Y007141D01*
X016273Y007141D02*
X016273Y007354D01*
X016273Y007141D02*
X016433Y007141D01*
X016487Y007194D01*
X016487Y007354D01*
X016633Y007354D02*
X016687Y007354D01*
X016794Y007247D01*
X016794Y007141D02*
X016794Y007354D01*
X016932Y007354D02*
X017039Y007354D01*
X016986Y007408D02*
X016986Y007194D01*
X016932Y007141D01*
X017194Y007141D02*
X017407Y007354D01*
X017562Y007461D02*
X017776Y007461D01*
X017776Y007141D01*
X017562Y007141D01*
X017407Y007141D02*
X017194Y007354D01*
X017294Y007534D02*
X017294Y007854D01*
X017133Y007854D01*
X017080Y007801D01*
X017080Y007694D01*
X017133Y007641D01*
X017294Y007641D01*
X017448Y007747D02*
X017662Y007747D01*
X017662Y007694D02*
X017662Y007801D01*
X017609Y007854D01*
X017502Y007854D01*
X017448Y007801D01*
X017448Y007747D01*
X017502Y007641D02*
X017609Y007641D01*
X017662Y007694D01*
X017801Y007641D02*
X017854Y007694D01*
X017854Y007908D01*
X017907Y007854D02*
X017801Y007854D01*
X018062Y007908D02*
X018116Y007961D01*
X018222Y007961D01*
X018276Y007908D01*
X018276Y007854D01*
X018222Y007801D01*
X018116Y007801D01*
X018062Y007747D01*
X018062Y007694D01*
X018116Y007641D01*
X018222Y007641D01*
X018276Y007694D01*
X017776Y007301D02*
X017669Y007301D01*
X016925Y007534D02*
X016925Y007854D01*
X016765Y007854D01*
X016712Y007801D01*
X016712Y007694D01*
X016765Y007641D01*
X016925Y007641D01*
X016557Y007694D02*
X016557Y007801D01*
X016504Y007854D01*
X016397Y007854D01*
X016343Y007801D01*
X016343Y007747D01*
X016557Y007747D01*
X016557Y007694D02*
X016504Y007641D01*
X016397Y007641D01*
X016189Y007641D02*
X016189Y007854D01*
X016189Y007747D02*
X016082Y007854D01*
X016028Y007854D01*
X019608Y007604D02*
X019661Y007604D01*
X019768Y007497D01*
X019768Y007391D02*
X019768Y007604D01*
X019923Y007551D02*
X019976Y007604D01*
X020083Y007604D01*
X020136Y007551D01*
X020136Y007444D01*
X020083Y007391D01*
X019976Y007391D01*
X019923Y007444D01*
X019923Y007551D01*
X020275Y007604D02*
X020382Y007604D01*
X020328Y007658D02*
X020328Y007444D01*
X020275Y007391D01*
X020537Y007444D02*
X020590Y007497D01*
X020697Y007497D01*
X020750Y007551D01*
X020697Y007604D01*
X020537Y007604D01*
X020537Y007444D02*
X020590Y007391D01*
X020750Y007391D01*
X020889Y007391D02*
X020996Y007391D01*
X020942Y007391D02*
X020942Y007604D01*
X020996Y007604D01*
X020942Y007711D02*
X020942Y007764D01*
X021004Y007891D02*
X020843Y007891D01*
X020843Y008211D01*
X020843Y008104D02*
X021004Y008104D01*
X021057Y008051D01*
X021057Y007944D01*
X021004Y007891D01*
X021212Y007891D02*
X021212Y008051D01*
X021265Y008104D01*
X021425Y008104D01*
X021425Y007891D01*
X021580Y007997D02*
X021794Y007997D01*
X021794Y007944D02*
X021794Y008051D01*
X021740Y008104D01*
X021633Y008104D01*
X021580Y008051D01*
X021580Y007997D01*
X021633Y007891D02*
X021740Y007891D01*
X021794Y007944D01*
X021932Y007891D02*
X021986Y007944D01*
X021986Y008158D01*
X022039Y008104D02*
X021932Y008104D01*
X022194Y008051D02*
X022247Y008104D01*
X022354Y008104D01*
X022407Y008051D01*
X022407Y007944D01*
X022354Y007891D01*
X022247Y007891D01*
X022194Y007944D01*
X022194Y008051D01*
X022562Y008051D02*
X022776Y008051D01*
X022776Y007891D02*
X022776Y008211D01*
X022562Y008211D02*
X022562Y007891D01*
X022562Y007711D02*
X022776Y007711D01*
X022669Y007711D02*
X022669Y007391D01*
X022407Y007391D02*
X022407Y007711D01*
X022354Y007604D02*
X022247Y007604D01*
X022194Y007551D01*
X022194Y007391D01*
X022039Y007444D02*
X022039Y007551D01*
X021986Y007604D01*
X021879Y007604D01*
X021826Y007551D01*
X021826Y007497D01*
X022039Y007497D01*
X022039Y007444D02*
X021986Y007391D01*
X021879Y007391D01*
X021671Y007391D02*
X021671Y007604D01*
X021671Y007497D02*
X021564Y007604D01*
X021511Y007604D01*
X021364Y007604D02*
X021310Y007604D01*
X021257Y007551D01*
X021204Y007604D01*
X021150Y007551D01*
X021150Y007391D01*
X021257Y007391D02*
X021257Y007551D01*
X021364Y007604D02*
X021364Y007391D01*
X022354Y007604D02*
X022407Y007551D01*
X023357Y007891D02*
X023570Y007891D01*
X023357Y008104D01*
X023357Y008158D01*
X023410Y008211D01*
X023517Y008211D01*
X023570Y008158D01*
X024093Y008211D02*
X024093Y007891D01*
X024254Y007891D01*
X024307Y007944D01*
X024307Y008051D01*
X024254Y008104D01*
X024093Y008104D01*
X024462Y008051D02*
X024462Y007891D01*
X024462Y008051D02*
X024515Y008104D01*
X024675Y008104D01*
X024675Y007891D01*
X024830Y007997D02*
X025044Y007997D01*
X025044Y007944D02*
X025044Y008051D01*
X024990Y008104D01*
X024883Y008104D01*
X024830Y008051D01*
X024830Y007997D01*
X024883Y007891D02*
X024990Y007891D01*
X025044Y007944D01*
X025182Y007891D02*
X025236Y007944D01*
X025236Y008158D01*
X025289Y008104D02*
X025182Y008104D01*
X025444Y008051D02*
X025497Y008104D01*
X025604Y008104D01*
X025657Y008051D01*
X025657Y007944D01*
X025604Y007891D01*
X025497Y007891D01*
X025444Y007944D01*
X025444Y008051D01*
X025812Y008051D02*
X026026Y008051D01*
X026026Y007891D02*
X026026Y008211D01*
X025812Y008211D02*
X025812Y007891D01*
X025812Y007711D02*
X025812Y007391D01*
X025812Y007551D02*
X026026Y007551D01*
X026026Y007391D02*
X026026Y007711D01*
X025657Y007551D02*
X025604Y007604D01*
X025497Y007604D01*
X025444Y007551D01*
X025444Y007497D01*
X025657Y007497D01*
X025657Y007444D02*
X025657Y007551D01*
X025657Y007444D02*
X025604Y007391D01*
X025497Y007391D01*
X025289Y007444D02*
X025236Y007497D01*
X025076Y007497D01*
X025076Y007551D02*
X025076Y007391D01*
X025236Y007391D01*
X025289Y007444D01*
X025236Y007604D02*
X025129Y007604D01*
X025076Y007551D01*
X024921Y007604D02*
X024814Y007604D01*
X024867Y007658D02*
X024867Y007444D01*
X024814Y007391D01*
X024675Y007444D02*
X024675Y007551D01*
X024622Y007604D01*
X024515Y007604D01*
X024462Y007551D01*
X024462Y007497D01*
X024675Y007497D01*
X024675Y007444D02*
X024622Y007391D01*
X024515Y007391D01*
X024307Y007391D02*
X024307Y007604D01*
X024307Y007497D02*
X024200Y007604D01*
X024147Y007604D01*
X027003Y007854D02*
X027056Y007854D01*
X027163Y007747D01*
X027163Y007641D02*
X027163Y007854D01*
X027318Y007801D02*
X027318Y007694D01*
X027371Y007641D01*
X027478Y007641D01*
X027531Y007694D01*
X027531Y007801D01*
X027478Y007854D01*
X027371Y007854D01*
X027318Y007801D01*
X027670Y007854D02*
X027777Y007854D01*
X027723Y007908D02*
X027723Y007694D01*
X027670Y007641D01*
X027796Y007461D02*
X027903Y007461D01*
X027956Y007408D01*
X027796Y007461D02*
X027743Y007408D01*
X027743Y007354D01*
X027956Y007141D01*
X027743Y007141D01*
X027985Y007641D02*
X027932Y007694D01*
X027932Y007801D01*
X027985Y007854D01*
X028092Y007854D01*
X028145Y007801D01*
X028145Y007694D01*
X028092Y007641D01*
X027985Y007641D01*
X028300Y007641D02*
X028300Y007961D01*
X028407Y007854D01*
X028513Y007961D01*
X028513Y007641D01*
X028525Y007354D02*
X028472Y007354D01*
X028525Y007354D02*
X028632Y007247D01*
X028632Y007141D02*
X028632Y007354D01*
X028787Y007301D02*
X028787Y007247D01*
X029000Y007247D01*
X029000Y007194D02*
X029000Y007301D01*
X028947Y007354D01*
X028840Y007354D01*
X028787Y007301D01*
X028840Y007141D02*
X028947Y007141D01*
X029000Y007194D01*
X029155Y007141D02*
X029315Y007141D01*
X029368Y007194D01*
X029368Y007301D01*
X029315Y007354D01*
X029155Y007354D01*
X029155Y007461D02*
X029155Y007141D01*
X029523Y007141D02*
X029523Y007354D01*
X029523Y007141D02*
X029683Y007141D01*
X029737Y007194D01*
X029737Y007354D01*
X029883Y007354D02*
X029937Y007354D01*
X030044Y007247D01*
X030044Y007141D02*
X030044Y007354D01*
X030182Y007354D02*
X030289Y007354D01*
X030236Y007408D02*
X030236Y007194D01*
X030182Y007141D01*
X030444Y007141D02*
X030657Y007354D01*
X030812Y007461D02*
X031026Y007461D01*
X031026Y007141D01*
X030812Y007141D01*
X030657Y007141D02*
X030444Y007354D01*
X030294Y007534D02*
X030294Y007854D01*
X030133Y007854D01*
X030080Y007801D01*
X030080Y007694D01*
X030133Y007641D01*
X030294Y007641D01*
X030448Y007747D02*
X030662Y007747D01*
X030662Y007694D02*
X030662Y007801D01*
X030609Y007854D01*
X030502Y007854D01*
X030448Y007801D01*
X030448Y007747D01*
X030502Y007641D02*
X030609Y007641D01*
X030662Y007694D01*
X030801Y007641D02*
X030854Y007694D01*
X030854Y007908D01*
X030907Y007854D02*
X030801Y007854D01*
X031062Y007908D02*
X031116Y007961D01*
X031222Y007961D01*
X031276Y007908D01*
X031276Y007854D01*
X031222Y007801D01*
X031116Y007801D01*
X031062Y007747D01*
X031062Y007694D01*
X031116Y007641D01*
X031222Y007641D01*
X031276Y007694D01*
X031026Y007301D02*
X030919Y007301D01*
X029925Y007534D02*
X029925Y007854D01*
X029765Y007854D01*
X029712Y007801D01*
X029712Y007694D01*
X029765Y007641D01*
X029925Y007641D01*
X029557Y007694D02*
X029557Y007801D01*
X029504Y007854D01*
X029397Y007854D01*
X029343Y007801D01*
X029343Y007747D01*
X029557Y007747D01*
X029557Y007694D02*
X029504Y007641D01*
X029397Y007641D01*
X029189Y007641D02*
X029189Y007854D01*
X029189Y007747D02*
X029082Y007854D01*
X029028Y007854D01*
X033108Y007354D02*
X033161Y007354D01*
X033268Y007247D01*
X033268Y007141D02*
X033268Y007354D01*
X033423Y007301D02*
X033476Y007354D01*
X033583Y007354D01*
X033636Y007301D01*
X033636Y007194D01*
X033583Y007141D01*
X033476Y007141D01*
X033423Y007194D01*
X033423Y007301D01*
X033486Y007641D02*
X033539Y007694D01*
X033539Y007801D01*
X033486Y007854D01*
X033326Y007854D01*
X033326Y007961D02*
X033326Y007641D01*
X033486Y007641D01*
X033694Y007747D02*
X033907Y007747D01*
X033907Y007694D02*
X033907Y007801D01*
X033854Y007854D01*
X033747Y007854D01*
X033694Y007801D01*
X033694Y007747D01*
X033747Y007641D02*
X033854Y007641D01*
X033907Y007694D01*
X034062Y007694D02*
X034116Y007641D01*
X034276Y007641D01*
X034276Y007961D01*
X034116Y007961D01*
X034062Y007908D01*
X034062Y007854D01*
X034116Y007801D01*
X034276Y007801D01*
X034116Y007801D02*
X034062Y007747D01*
X034062Y007694D01*
X034037Y007354D02*
X034197Y007354D01*
X034250Y007301D01*
X034197Y007247D01*
X034090Y007247D01*
X034037Y007194D01*
X034090Y007141D01*
X034250Y007141D01*
X034389Y007141D02*
X034496Y007141D01*
X034442Y007141D02*
X034442Y007354D01*
X034496Y007354D01*
X034442Y007461D02*
X034442Y007514D01*
X034650Y007301D02*
X034650Y007141D01*
X034757Y007141D02*
X034757Y007301D01*
X034704Y007354D01*
X034650Y007301D01*
X034757Y007301D02*
X034810Y007354D01*
X034864Y007354D01*
X034864Y007141D01*
X035011Y007354D02*
X035064Y007354D01*
X035171Y007247D01*
X035171Y007141D02*
X035171Y007354D01*
X035326Y007301D02*
X035326Y007247D01*
X035539Y007247D01*
X035539Y007194D02*
X035539Y007301D01*
X035486Y007354D01*
X035379Y007354D01*
X035326Y007301D01*
X035379Y007141D02*
X035486Y007141D01*
X035539Y007194D01*
X035694Y007141D02*
X035694Y007301D01*
X035747Y007354D01*
X035854Y007354D01*
X035907Y007301D01*
X035907Y007461D02*
X035907Y007141D01*
X036169Y007141D02*
X036169Y007461D01*
X036276Y007461D02*
X036062Y007461D01*
X033882Y007354D02*
X033775Y007354D01*
X033828Y007408D02*
X033828Y007194D01*
X033775Y007141D01*
X038475Y008391D02*
X038635Y008391D01*
X038689Y008444D01*
X038689Y008551D01*
X038635Y008604D01*
X038475Y008604D01*
X038475Y008711D02*
X038475Y008391D01*
X038843Y008497D02*
X039057Y008497D01*
X039057Y008444D02*
X039057Y008551D01*
X039004Y008604D01*
X038897Y008604D01*
X038843Y008551D01*
X038843Y008497D01*
X038897Y008391D02*
X039004Y008391D01*
X039057Y008444D01*
X039212Y008444D02*
X039212Y008551D01*
X039265Y008604D01*
X039425Y008604D01*
X039425Y008711D02*
X039425Y008391D01*
X039265Y008391D01*
X039212Y008444D01*
X039564Y008391D02*
X039617Y008444D01*
X039617Y008658D01*
X039564Y008604D02*
X039671Y008604D01*
X039826Y008551D02*
X039826Y008391D01*
X039986Y008391D01*
X040039Y008444D01*
X039986Y008497D01*
X039826Y008497D01*
X039826Y008551D02*
X039879Y008604D01*
X039986Y008604D01*
X040194Y008551D02*
X040194Y008497D01*
X040407Y008497D01*
X040407Y008444D02*
X040407Y008551D01*
X040354Y008604D01*
X040247Y008604D01*
X040194Y008551D01*
X040247Y008391D02*
X040354Y008391D01*
X040407Y008444D01*
X040562Y008391D02*
X040562Y008711D01*
X040562Y008551D02*
X040776Y008551D01*
X040776Y008391D02*
X040776Y008711D01*
X040552Y019891D02*
X040446Y019891D01*
X040499Y019891D02*
X040499Y020211D01*
X040552Y020211D02*
X040446Y020211D01*
X040307Y020211D02*
X040093Y019891D01*
X040093Y020211D01*
X040307Y020211D02*
X040307Y019891D01*
X041076Y019997D02*
X041182Y019891D01*
X041289Y019997D01*
X041289Y020211D01*
X041444Y020158D02*
X041497Y020211D01*
X041604Y020211D01*
X041657Y020158D01*
X041444Y020158D02*
X041444Y020104D01*
X041657Y019891D01*
X041444Y019891D01*
X041812Y019891D02*
X042026Y019891D01*
X041919Y019891D02*
X041919Y020211D01*
X042026Y020104D01*
X041076Y019997D02*
X041076Y020211D01*
X043259Y035536D02*
X043206Y035589D01*
X043206Y035696D01*
X043259Y035749D01*
X043526Y035749D01*
X043473Y035904D02*
X043419Y035904D01*
X043366Y035957D01*
X043366Y036064D01*
X043313Y036118D01*
X043259Y036118D01*
X043206Y036064D01*
X043206Y035957D01*
X043259Y035904D01*
X043473Y035904D02*
X043526Y035957D01*
X043526Y036064D01*
X043473Y036118D01*
X043526Y036272D02*
X043526Y036432D01*
X043473Y036486D01*
X043419Y036486D01*
X043366Y036432D01*
X043366Y036272D01*
X043206Y036272D02*
X043526Y036272D01*
X043366Y036432D02*
X043313Y036486D01*
X043259Y036486D01*
X043206Y036432D01*
X043206Y036272D01*
X043259Y035536D02*
X043526Y035536D01*
X030526Y038141D02*
X030312Y038141D01*
X030157Y038141D02*
X029944Y038354D01*
X029789Y038354D02*
X029682Y038354D01*
X029736Y038408D02*
X029736Y038194D01*
X029682Y038141D01*
X029544Y038141D02*
X029544Y038354D01*
X029544Y038247D02*
X029437Y038354D01*
X029383Y038354D01*
X029237Y038354D02*
X029237Y038194D01*
X029183Y038141D01*
X029023Y038141D01*
X029023Y038354D01*
X028868Y038301D02*
X028815Y038354D01*
X028655Y038354D01*
X028655Y038461D02*
X028655Y038141D01*
X028815Y038141D01*
X028868Y038194D01*
X028868Y038301D01*
X028500Y038301D02*
X028447Y038354D01*
X028340Y038354D01*
X028287Y038301D01*
X028287Y038247D01*
X028500Y038247D01*
X028500Y038194D02*
X028500Y038301D01*
X028500Y038194D02*
X028447Y038141D01*
X028340Y038141D01*
X028132Y038141D02*
X028132Y038354D01*
X028132Y038247D02*
X028025Y038354D01*
X027972Y038354D01*
X027456Y038301D02*
X027350Y038301D01*
X027456Y038461D02*
X027243Y038461D01*
X027456Y038461D02*
X027456Y038141D01*
X027088Y038194D02*
X027035Y038247D01*
X026875Y038247D01*
X026875Y038301D02*
X026875Y038141D01*
X027035Y038141D01*
X027088Y038194D01*
X027035Y038354D02*
X026928Y038354D01*
X026875Y038301D01*
X026720Y038354D02*
X026560Y038354D01*
X026506Y038301D01*
X026506Y038141D01*
X026720Y038141D02*
X026720Y038354D01*
X024776Y038461D02*
X024562Y038461D01*
X024562Y038408D01*
X024776Y038194D01*
X024776Y038141D01*
X024562Y038141D01*
X024407Y038301D02*
X024194Y038301D01*
X024039Y038461D02*
X023932Y038354D01*
X023826Y038461D01*
X023826Y038141D01*
X023671Y038194D02*
X023617Y038141D01*
X023511Y038141D01*
X023457Y038194D01*
X023457Y038408D01*
X023511Y038461D01*
X023617Y038461D01*
X023671Y038408D01*
X023671Y038194D01*
X024039Y038141D02*
X024039Y038461D01*
X023302Y038461D02*
X023089Y038461D01*
X023196Y038461D02*
X023196Y038141D01*
X022934Y038194D02*
X022881Y038141D01*
X022774Y038141D01*
X022721Y038194D01*
X022721Y038408D01*
X022774Y038461D01*
X022881Y038461D01*
X022934Y038408D01*
X022934Y038194D01*
X022566Y038141D02*
X022566Y038461D01*
X022406Y038461D01*
X022352Y038408D01*
X022352Y038301D01*
X022406Y038247D01*
X022566Y038247D01*
X022459Y038247D02*
X022352Y038141D01*
X018526Y038408D02*
X018419Y038301D01*
X018419Y038141D01*
X018419Y038301D02*
X018312Y038408D01*
X018312Y038461D01*
X018526Y038461D02*
X018526Y038408D01*
X018157Y038301D02*
X017944Y038301D01*
X017789Y038461D02*
X017682Y038354D01*
X017576Y038461D01*
X017576Y038141D01*
X017421Y038194D02*
X017367Y038141D01*
X017261Y038141D01*
X017207Y038194D01*
X017207Y038408D01*
X017261Y038461D01*
X017367Y038461D01*
X017421Y038408D01*
X017421Y038194D01*
X017789Y038141D02*
X017789Y038461D01*
X017052Y038461D02*
X016839Y038461D01*
X016946Y038461D02*
X016946Y038141D01*
X016684Y038194D02*
X016631Y038141D01*
X016524Y038141D01*
X016471Y038194D01*
X016471Y038408D01*
X016524Y038461D01*
X016631Y038461D01*
X016684Y038408D01*
X016684Y038194D01*
X016316Y038141D02*
X016316Y038461D01*
X016156Y038461D01*
X016102Y038408D01*
X016102Y038301D01*
X016156Y038247D01*
X016316Y038247D01*
X016209Y038247D02*
X016102Y038141D01*
X012026Y038141D02*
X011812Y038461D01*
X012026Y038461D02*
X011812Y038141D01*
X011657Y038301D02*
X011444Y038301D01*
X011289Y038461D02*
X011182Y038354D01*
X011076Y038461D01*
X011076Y038141D01*
X010921Y038194D02*
X010867Y038141D01*
X010761Y038141D01*
X010707Y038194D01*
X010707Y038408D01*
X010761Y038461D01*
X010867Y038461D01*
X010921Y038408D01*
X010921Y038194D01*
X011289Y038141D02*
X011289Y038461D01*
X010552Y038461D02*
X010339Y038461D01*
X010446Y038461D02*
X010446Y038141D01*
X010184Y038194D02*
X010131Y038141D01*
X010024Y038141D01*
X009971Y038194D01*
X009971Y038408D01*
X010024Y038461D01*
X010131Y038461D01*
X010184Y038408D01*
X010184Y038194D01*
X009816Y038141D02*
X009816Y038461D01*
X009656Y038461D01*
X009602Y038408D01*
X009602Y038301D01*
X009656Y038247D01*
X009816Y038247D01*
X009709Y038247D02*
X009602Y038141D01*
X029944Y038141D02*
X030157Y038354D01*
X030312Y038461D02*
X030526Y038461D01*
X030526Y038141D01*
X030526Y038301D02*
X030419Y038301D01*
X020267Y008211D02*
X020320Y008158D01*
X020267Y008211D02*
X020160Y008211D01*
X020107Y008158D01*
X020107Y008104D01*
X020320Y007891D01*
X020107Y007891D01*
X010776Y007891D02*
X010562Y007891D01*
X010669Y007891D02*
X010669Y008211D01*
X010776Y008104D01*
X009776Y008051D02*
X009562Y008051D01*
X009407Y008051D02*
X009407Y007944D01*
X009354Y007891D01*
X009247Y007891D01*
X009194Y007944D01*
X009194Y008051D01*
X009247Y008104D01*
X009354Y008104D01*
X009407Y008051D01*
X009562Y008211D02*
X009562Y007891D01*
X009562Y007711D02*
X009776Y007711D01*
X009669Y007711D02*
X009669Y007391D01*
X009407Y007391D02*
X009407Y007711D01*
X009354Y007604D02*
X009247Y007604D01*
X009194Y007551D01*
X009194Y007391D01*
X009039Y007444D02*
X009039Y007551D01*
X008986Y007604D01*
X008879Y007604D01*
X008826Y007551D01*
X008826Y007497D01*
X009039Y007497D01*
X009039Y007444D02*
X008986Y007391D01*
X008879Y007391D01*
X008671Y007391D02*
X008671Y007604D01*
X008671Y007497D02*
X008564Y007604D01*
X008511Y007604D01*
X008364Y007604D02*
X008310Y007604D01*
X008257Y007551D01*
X008204Y007604D01*
X008150Y007551D01*
X008150Y007391D01*
X008257Y007391D02*
X008257Y007551D01*
X008364Y007604D02*
X008364Y007391D01*
X007996Y007391D02*
X007889Y007391D01*
X007942Y007391D02*
X007942Y007604D01*
X007996Y007604D01*
X007942Y007711D02*
X007942Y007764D01*
X008004Y007891D02*
X008057Y007944D01*
X008057Y008051D01*
X008004Y008104D01*
X007843Y008104D01*
X007843Y008211D02*
X007843Y007891D01*
X008004Y007891D01*
X008212Y007891D02*
X008212Y008051D01*
X008265Y008104D01*
X008425Y008104D01*
X008425Y007891D01*
X008580Y007997D02*
X008794Y007997D01*
X008794Y007944D02*
X008794Y008051D01*
X008740Y008104D01*
X008633Y008104D01*
X008580Y008051D01*
X008580Y007997D01*
X008633Y007891D02*
X008740Y007891D01*
X008794Y007944D01*
X008932Y007891D02*
X008986Y007944D01*
X008986Y008158D01*
X009039Y008104D02*
X008932Y008104D01*
X009354Y007604D02*
X009407Y007551D01*
X009776Y007891D02*
X009776Y008211D01*
X007750Y007551D02*
X007697Y007604D01*
X007537Y007604D01*
X007590Y007497D02*
X007697Y007497D01*
X007750Y007551D01*
X007750Y007391D02*
X007590Y007391D01*
X007537Y007444D01*
X007590Y007497D01*
X007382Y007604D02*
X007275Y007604D01*
X007328Y007658D02*
X007328Y007444D01*
X007275Y007391D01*
X007136Y007444D02*
X007083Y007391D01*
X006976Y007391D01*
X006923Y007444D01*
X006923Y007551D01*
X006976Y007604D01*
X007083Y007604D01*
X007136Y007551D01*
X007136Y007444D01*
X006768Y007391D02*
X006768Y007604D01*
X006768Y007497D02*
X006661Y007604D01*
X006608Y007604D01*
D13*
X009676Y012156D02*
X009601Y012231D01*
X009601Y012381D01*
X009751Y012381D01*
X009601Y012531D02*
X009676Y012606D01*
X009826Y012606D01*
X009901Y012531D01*
X009901Y012231D01*
X009826Y012156D01*
X009676Y012156D01*
X010095Y012156D02*
X010245Y012156D01*
X010170Y012156D02*
X010170Y012606D01*
X010245Y012606D02*
X010095Y012606D01*
X010460Y012531D02*
X010536Y012606D01*
X010686Y012606D01*
X010761Y012531D01*
X010761Y012456D01*
X010686Y012381D01*
X010536Y012381D01*
X010460Y012306D01*
X010460Y012231D01*
X010536Y012156D01*
X010686Y012156D01*
X010761Y012231D01*
X010786Y013156D02*
X010710Y013231D01*
X010710Y013381D01*
X010861Y013381D01*
X011011Y013531D02*
X011011Y013231D01*
X010936Y013156D01*
X010786Y013156D01*
X010495Y013156D02*
X010495Y013606D01*
X010195Y013156D01*
X010195Y013606D01*
X009979Y013606D02*
X009754Y013606D01*
X009679Y013531D01*
X009679Y013231D01*
X009754Y013156D01*
X009979Y013156D01*
X009979Y013606D01*
X010710Y013531D02*
X010786Y013606D01*
X010936Y013606D01*
X011011Y013531D01*
X010436Y014156D02*
X010511Y014231D01*
X010436Y014156D02*
X010286Y014156D01*
X010210Y014231D01*
X010210Y014381D01*
X010286Y014456D01*
X010361Y014456D01*
X010511Y014381D01*
X010511Y014606D01*
X010210Y014606D01*
X009995Y014606D02*
X009995Y014306D01*
X009845Y014156D01*
X009695Y014306D01*
X009695Y014606D01*
X009676Y015656D02*
X009601Y015731D01*
X009601Y015881D01*
X009751Y015881D01*
X009601Y016031D02*
X009676Y016106D01*
X009826Y016106D01*
X009901Y016031D01*
X009901Y015731D01*
X009826Y015656D01*
X009676Y015656D01*
X010095Y015656D02*
X010245Y015656D01*
X010170Y015656D02*
X010170Y016106D01*
X010245Y016106D02*
X010095Y016106D01*
X010460Y016031D02*
X010536Y016106D01*
X010686Y016106D01*
X010761Y016031D01*
X010761Y015956D01*
X010686Y015881D01*
X010536Y015881D01*
X010460Y015806D01*
X010460Y015731D01*
X010536Y015656D01*
X010686Y015656D01*
X010761Y015731D01*
X010786Y016656D02*
X010710Y016731D01*
X010710Y016881D01*
X010861Y016881D01*
X011011Y017031D02*
X011011Y016731D01*
X010936Y016656D01*
X010786Y016656D01*
X010495Y016656D02*
X010495Y017106D01*
X010195Y016656D01*
X010195Y017106D01*
X009979Y017106D02*
X009754Y017106D01*
X009679Y017031D01*
X009679Y016731D01*
X009754Y016656D01*
X009979Y016656D01*
X009979Y017106D01*
X009845Y017656D02*
X009695Y017806D01*
X009695Y018106D01*
X009995Y018106D02*
X009995Y017806D01*
X009845Y017656D01*
X010210Y017731D02*
X010286Y017656D01*
X010436Y017656D01*
X010511Y017731D01*
X010511Y017881D02*
X010361Y017956D01*
X010286Y017956D01*
X010210Y017881D01*
X010210Y017731D01*
X010511Y017881D02*
X010511Y018106D01*
X010210Y018106D01*
X010786Y017106D02*
X010710Y017031D01*
X010786Y017106D02*
X010936Y017106D01*
X011011Y017031D01*
X010686Y019156D02*
X010761Y019231D01*
X010686Y019156D02*
X010536Y019156D01*
X010460Y019231D01*
X010460Y019306D01*
X010536Y019381D01*
X010686Y019381D01*
X010761Y019456D01*
X010761Y019531D01*
X010686Y019606D01*
X010536Y019606D01*
X010460Y019531D01*
X010245Y019606D02*
X010095Y019606D01*
X010170Y019606D02*
X010170Y019156D01*
X010245Y019156D02*
X010095Y019156D01*
X009901Y019231D02*
X009826Y019156D01*
X009676Y019156D01*
X009601Y019231D01*
X009601Y019381D01*
X009751Y019381D01*
X009601Y019531D02*
X009676Y019606D01*
X009826Y019606D01*
X009901Y019531D01*
X009901Y019231D01*
X009979Y020156D02*
X009754Y020156D01*
X009679Y020231D01*
X009679Y020531D01*
X009754Y020606D01*
X009979Y020606D01*
X009979Y020156D01*
X010195Y020156D02*
X010195Y020606D01*
X010495Y020606D02*
X010195Y020156D01*
X010495Y020156D02*
X010495Y020606D01*
X010710Y020531D02*
X010786Y020606D01*
X010936Y020606D01*
X011011Y020531D01*
X011011Y020231D01*
X010936Y020156D01*
X010786Y020156D01*
X010710Y020231D01*
X010710Y020381D01*
X010861Y020381D01*
X010436Y021156D02*
X010511Y021231D01*
X010436Y021156D02*
X010286Y021156D01*
X010210Y021231D01*
X010210Y021381D01*
X010286Y021456D01*
X010361Y021456D01*
X010511Y021381D01*
X010511Y021606D01*
X010210Y021606D01*
X009995Y021606D02*
X009995Y021306D01*
X009845Y021156D01*
X009695Y021306D01*
X009695Y021606D01*
D14*
X040865Y020351D02*
X041666Y020351D01*
X041265Y019951D02*
X041265Y020752D01*
X041316Y015170D02*
X041316Y014369D01*
D15*
X007316Y013351D02*
X007066Y013601D01*
X007066Y012351D02*
X007316Y012351D01*
X007316Y015851D02*
X007066Y015851D01*
X007316Y016851D02*
X007066Y017101D01*
X007066Y019351D02*
X007316Y019351D01*
X007316Y020351D02*
X007066Y020601D01*
D16*
X015116Y018150D02*
X015316Y018150D01*
X015383Y018083D01*
X015383Y017950D01*
X015316Y017883D01*
X015516Y017883D02*
X015116Y017883D01*
X015116Y017690D02*
X015116Y017490D01*
X015182Y017423D01*
X015316Y017423D01*
X015383Y017490D01*
X015383Y017690D01*
X015383Y017249D02*
X015383Y017116D01*
X015449Y017183D02*
X015182Y017183D01*
X015116Y017249D01*
X015116Y016943D02*
X015116Y016809D01*
X015116Y016876D02*
X015383Y016876D01*
X015383Y016809D01*
X015516Y016876D02*
X015583Y016876D01*
X015866Y016856D02*
X015932Y016789D01*
X015866Y016722D01*
X015932Y016656D01*
X016133Y016656D01*
X016199Y016462D02*
X016266Y016395D01*
X016266Y016262D01*
X016199Y016195D01*
X016133Y016195D01*
X016066Y016262D01*
X016066Y016395D01*
X015999Y016462D01*
X015932Y016462D01*
X015866Y016395D01*
X015866Y016262D01*
X015932Y016195D01*
X015516Y016088D02*
X015516Y015955D01*
X015449Y015888D01*
X015383Y015888D01*
X015316Y015955D01*
X015316Y016088D01*
X015249Y016155D01*
X015182Y016155D01*
X015116Y016088D01*
X015116Y015955D01*
X015182Y015888D01*
X015449Y016155D02*
X015516Y016088D01*
X015383Y016349D02*
X015182Y016349D01*
X015116Y016415D01*
X015182Y016482D01*
X015116Y016549D01*
X015182Y016616D01*
X015383Y016616D01*
X015866Y016856D02*
X015932Y016923D01*
X016133Y016923D01*
X016133Y017116D02*
X016133Y017183D01*
X015866Y017183D01*
X015866Y017249D02*
X015866Y017116D01*
X015932Y017490D02*
X015866Y017556D01*
X015932Y017490D02*
X016199Y017490D01*
X016133Y017556D02*
X016133Y017423D01*
X016266Y017183D02*
X016333Y017183D01*
X016066Y017730D02*
X015932Y017730D01*
X015866Y017797D01*
X015866Y017997D01*
X015866Y018190D02*
X016266Y018190D01*
X016133Y018257D02*
X016133Y018390D01*
X016066Y018457D01*
X015866Y018457D01*
X016066Y018190D02*
X016133Y018257D01*
X016133Y017997D02*
X016133Y017797D01*
X016066Y017730D01*
X016066Y015541D02*
X015866Y015541D01*
X016066Y015541D02*
X016133Y015475D01*
X016133Y015274D01*
X015866Y015274D01*
X015932Y015081D02*
X016066Y015081D01*
X016133Y015014D01*
X016133Y014881D01*
X016066Y014814D01*
X015932Y014814D01*
X015866Y014881D01*
X015866Y015014D01*
X015932Y015081D01*
X015383Y015168D02*
X015383Y014968D01*
X015116Y014968D01*
X015182Y014774D02*
X015116Y014707D01*
X015116Y014574D01*
X015182Y014507D01*
X015316Y014507D01*
X015383Y014574D01*
X015383Y014707D01*
X015316Y014774D01*
X015182Y014774D01*
X015383Y015168D02*
X015316Y015234D01*
X015116Y015234D01*
X015932Y014160D02*
X016199Y014160D01*
X016266Y014093D01*
X016266Y013960D01*
X016199Y013893D01*
X015932Y013893D01*
X015866Y013960D01*
X015866Y014093D01*
X015932Y014160D01*
X015866Y013700D02*
X016266Y013700D01*
X016266Y013433D02*
X015866Y013433D01*
X015999Y013239D02*
X015999Y012972D01*
X016133Y012972D02*
X016133Y013239D01*
X016266Y013433D02*
X015866Y013700D01*
X015516Y013653D02*
X015449Y013586D01*
X015182Y013586D01*
X015116Y013653D01*
X015116Y013786D01*
X015182Y013853D01*
X015449Y013853D02*
X015516Y013786D01*
X015516Y013653D01*
X015383Y013393D02*
X015383Y013126D01*
X015249Y013126D02*
X015249Y013393D01*
X015182Y012932D02*
X015116Y012866D01*
X015116Y012666D01*
X015516Y012666D01*
X015516Y012866D01*
X015449Y012932D01*
X015182Y012932D01*
X015116Y012472D02*
X015516Y012472D01*
X015516Y012205D02*
X015116Y012205D01*
X015182Y012012D02*
X015116Y011945D01*
X015116Y011811D01*
X015182Y011745D01*
X015449Y011745D01*
X015516Y011811D01*
X015516Y011945D01*
X015449Y012012D01*
X015316Y012012D02*
X015316Y011878D01*
X015316Y012012D02*
X015182Y012012D01*
X015516Y012205D02*
X015116Y012472D01*
X015866Y012579D02*
X015866Y012712D01*
X015932Y012779D01*
X016066Y012779D01*
X016066Y012646D01*
X016199Y012779D02*
X016266Y012712D01*
X016266Y012579D01*
X016199Y012512D01*
X015932Y012512D01*
X015866Y012579D01*
X015866Y012339D02*
X015866Y012205D01*
X015866Y012272D02*
X016266Y012272D01*
X016266Y012205D02*
X016266Y012339D01*
X016199Y012012D02*
X016266Y011945D01*
X016266Y011811D01*
X016199Y011745D01*
X016133Y011745D01*
X016066Y011811D01*
X016066Y011945D01*
X015999Y012012D01*
X015932Y012012D01*
X015866Y011945D01*
X015866Y011811D01*
X015932Y011745D01*
X023338Y031401D02*
X023271Y031467D01*
X023271Y031734D01*
X023338Y031801D01*
X023538Y031801D01*
X023538Y031401D01*
X023338Y031401D01*
X023731Y031401D02*
X023998Y031401D01*
X023998Y031801D01*
X023731Y031801D01*
X023865Y031601D02*
X023998Y031601D01*
X024192Y031601D02*
X024259Y031534D01*
X024459Y031534D01*
X024459Y031401D02*
X024459Y031801D01*
X024259Y031801D01*
X024192Y031734D01*
X024192Y031601D01*
X024325Y031534D02*
X024192Y031401D01*
X024652Y031534D02*
X024919Y031534D01*
X024919Y031668D02*
X024652Y031668D01*
X025113Y031601D02*
X025380Y031601D01*
X025179Y031801D01*
X025179Y031401D01*
X025179Y032151D02*
X025313Y032151D01*
X025380Y032217D01*
X025246Y032351D02*
X025179Y032351D01*
X025113Y032284D01*
X025113Y032217D01*
X025179Y032151D01*
X025179Y032351D02*
X025113Y032418D01*
X025113Y032484D01*
X025179Y032551D01*
X025313Y032551D01*
X025380Y032484D01*
X025380Y032901D02*
X025113Y032901D01*
X024919Y033034D02*
X024652Y033034D01*
X024652Y033168D02*
X024919Y033168D01*
X025113Y033168D02*
X025113Y033234D01*
X025179Y033301D01*
X025313Y033301D01*
X025380Y033234D01*
X025113Y033168D02*
X025380Y032901D01*
X024919Y032418D02*
X024652Y032418D01*
X024652Y032284D02*
X024919Y032284D01*
X024459Y032351D02*
X024259Y032351D01*
X024192Y032284D01*
X024192Y032217D01*
X024259Y032151D01*
X024459Y032151D01*
X024459Y032551D01*
X024259Y032551D01*
X024192Y032484D01*
X024192Y032418D01*
X024259Y032351D01*
X023998Y032551D02*
X023998Y032151D01*
X023731Y032151D01*
X023538Y032217D02*
X023471Y032151D01*
X023338Y032151D01*
X023271Y032217D01*
X023271Y032551D01*
X023078Y032551D02*
X023078Y032151D01*
X022811Y032151D01*
X022944Y032351D02*
X023078Y032351D01*
X023078Y032551D02*
X022811Y032551D01*
X022811Y032901D02*
X023078Y032901D01*
X023078Y033301D01*
X022811Y033301D01*
X022617Y033301D02*
X022350Y032901D01*
X022350Y033301D01*
X022617Y033301D02*
X022617Y032901D01*
X022944Y033101D02*
X023078Y033101D01*
X023271Y033301D02*
X023538Y033301D01*
X023538Y032901D01*
X023271Y032901D01*
X023405Y033101D02*
X023538Y033101D01*
X023731Y033101D02*
X023798Y033034D01*
X023998Y033034D01*
X023865Y033034D02*
X023731Y032901D01*
X023731Y033101D02*
X023731Y033234D01*
X023798Y033301D01*
X023998Y033301D01*
X023998Y032901D01*
X024192Y032967D02*
X024192Y033101D01*
X024325Y033101D01*
X024192Y033234D02*
X024259Y033301D01*
X024392Y033301D01*
X024459Y033234D01*
X024459Y032967D01*
X024392Y032901D01*
X024259Y032901D01*
X024192Y032967D01*
X023538Y032551D02*
X023538Y032217D01*
X023538Y033651D02*
X023538Y033918D01*
X023405Y034051D01*
X023271Y033918D01*
X023271Y033651D01*
X023271Y033851D02*
X023538Y033851D01*
X023731Y033651D02*
X023998Y033651D01*
X023998Y034051D01*
X024192Y033984D02*
X024259Y034051D01*
X024459Y034051D01*
X024459Y033651D01*
X024259Y033651D01*
X024192Y033717D01*
X024192Y033784D01*
X024259Y033851D01*
X024459Y033851D01*
X024259Y033851D02*
X024192Y033918D01*
X024192Y033984D01*
X024152Y034267D02*
X024152Y034668D01*
X023952Y034668D01*
X023885Y034601D01*
X023885Y034467D01*
X023952Y034401D01*
X024152Y034401D01*
X024345Y034534D02*
X024612Y034534D01*
X024612Y034467D02*
X024612Y034601D01*
X024546Y034668D01*
X024412Y034668D01*
X024345Y034601D01*
X024345Y034534D01*
X024412Y034401D02*
X024546Y034401D01*
X024612Y034467D01*
X024786Y034401D02*
X024852Y034467D01*
X024852Y034734D01*
X024786Y034668D02*
X024919Y034668D01*
X025113Y034734D02*
X025179Y034801D01*
X025313Y034801D01*
X025380Y034734D01*
X025380Y034668D01*
X025313Y034601D01*
X025179Y034601D01*
X025113Y034534D01*
X025113Y034467D01*
X025179Y034401D01*
X025313Y034401D01*
X025380Y034467D01*
X025246Y034051D02*
X025246Y033651D01*
X025113Y033651D02*
X025380Y033651D01*
X025380Y033918D02*
X025246Y034051D01*
X024919Y033918D02*
X024652Y033918D01*
X024652Y033784D02*
X024919Y033784D01*
X023691Y034267D02*
X023691Y034668D01*
X023491Y034668D01*
X023425Y034601D01*
X023425Y034467D01*
X023491Y034401D01*
X023691Y034401D01*
X023231Y034467D02*
X023231Y034601D01*
X023164Y034668D01*
X023031Y034668D01*
X022964Y034601D01*
X022964Y034534D01*
X023231Y034534D01*
X023231Y034467D02*
X023164Y034401D01*
X023031Y034401D01*
X022771Y034401D02*
X022771Y034668D01*
X022637Y034668D02*
X022571Y034668D01*
X022637Y034668D02*
X022771Y034534D01*
X022877Y034051D02*
X023011Y034051D01*
X023078Y033984D01*
X023078Y033717D01*
X023011Y033651D01*
X022877Y033651D01*
X022811Y033717D01*
X022617Y033651D02*
X022617Y034051D01*
X022811Y033984D02*
X022877Y034051D01*
X022617Y033784D02*
X022350Y034051D01*
X022550Y033851D02*
X022350Y033651D01*
X021927Y034401D02*
X021927Y034801D01*
X021793Y034668D01*
X021660Y034801D01*
X021660Y034401D01*
X021466Y034467D02*
X021400Y034401D01*
X021266Y034401D01*
X021199Y034467D01*
X021199Y034601D01*
X021266Y034668D01*
X021400Y034668D01*
X021466Y034601D01*
X021466Y034467D01*
X021006Y034668D02*
X020872Y034668D01*
X020939Y034734D02*
X020939Y034467D01*
X020872Y034401D01*
X020699Y034467D02*
X020632Y034401D01*
X020499Y034401D01*
X020432Y034467D01*
X020432Y034601D01*
X020499Y034668D01*
X020632Y034668D01*
X020699Y034601D01*
X020699Y034467D01*
X020239Y034401D02*
X020239Y034668D01*
X020239Y034534D02*
X020105Y034668D01*
X020038Y034668D01*
X019394Y034801D02*
X019394Y034401D01*
X019261Y034534D01*
X019128Y034401D01*
X019128Y034801D01*
X018934Y034668D02*
X018867Y034668D01*
X018867Y034401D01*
X018801Y034401D02*
X018934Y034401D01*
X018627Y034401D02*
X018627Y034668D01*
X018494Y034668D02*
X018627Y034534D01*
X018494Y034668D02*
X018427Y034668D01*
X018243Y034668D02*
X018177Y034668D01*
X018177Y034401D01*
X018243Y034401D02*
X018110Y034401D01*
X017937Y034401D02*
X017937Y034668D01*
X017736Y034668D01*
X017670Y034601D01*
X017670Y034401D01*
X017476Y034467D02*
X017476Y034601D01*
X017409Y034668D01*
X017209Y034668D01*
X017209Y034334D01*
X017276Y034267D01*
X017343Y034267D01*
X017409Y034401D02*
X017209Y034401D01*
X017409Y034401D02*
X017476Y034467D01*
X018177Y034801D02*
X018177Y034868D01*
X018867Y034868D02*
X018867Y034801D01*
D17*
X007316Y007101D02*
X007316Y003601D01*
X007316Y007851D02*
X007316Y011351D01*
X004816Y011351D02*
X004816Y022101D01*
X018316Y022101D01*
X018316Y011351D01*
X004816Y011351D01*
X004566Y023351D02*
X013816Y023351D01*
X019816Y019351D02*
X019816Y007851D01*
X019816Y007101D02*
X019816Y003601D01*
X033066Y003601D02*
X033066Y006851D01*
X033066Y007851D02*
X033066Y013351D01*
X043816Y013351D01*
X043816Y022351D02*
X034816Y022351D01*
X033066Y019351D02*
X033066Y013351D01*
X032066Y026851D02*
X032066Y042601D01*
X027066Y042601D02*
X027066Y026851D01*
X007316Y026601D02*
X007316Y042601D01*
D18*
X016916Y018874D02*
X016916Y018740D01*
X017049Y018740D01*
X017049Y018874D01*
X016916Y018874D01*
X017316Y018874D02*
X017316Y018740D01*
X017450Y018740D01*
X017450Y018874D01*
X017316Y018874D01*
X017450Y018353D02*
X017450Y017953D01*
X017316Y017819D01*
X017183Y017953D01*
X017183Y018220D01*
X017049Y018353D01*
X016916Y018220D01*
X016916Y017819D01*
X017049Y017432D02*
X016916Y017299D01*
X016916Y016899D01*
X016649Y016899D02*
X017450Y016899D01*
X017450Y017299D01*
X017316Y017432D01*
X017049Y017432D01*
X017049Y016512D02*
X017316Y016512D01*
X017450Y016378D01*
X017450Y016111D01*
X017316Y015978D01*
X017049Y015978D01*
X016916Y016111D01*
X016916Y016378D01*
X017049Y016512D01*
X016916Y015631D02*
X017049Y015497D01*
X017583Y015497D01*
X017450Y015364D02*
X017450Y015631D01*
X017450Y014977D02*
X017450Y014577D01*
X017316Y014443D01*
X017183Y014577D01*
X017183Y014844D01*
X017049Y014977D01*
X016916Y014844D01*
X016916Y014443D01*
X016916Y014056D02*
X016916Y013656D01*
X017049Y013522D01*
X017316Y013522D01*
X017450Y013656D01*
X017450Y014056D01*
X017716Y014056D02*
X016916Y014056D01*
X016916Y013135D02*
X017316Y013135D01*
X017450Y013002D01*
X017450Y012602D01*
X016916Y012602D01*
X016916Y012215D02*
X016916Y011681D01*
X017716Y011681D01*
X017716Y012215D01*
X017316Y011948D02*
X017316Y011681D01*
M02*
