G75*
G70*
%OFA0B0*%
%FSLAX24Y24*%
%IPPOS*%
%LPD*%
%AMOC8*
5,1,8,0,0,1.08239X$1,22.5*
%
%ADD10C,0.0740*%
%ADD11C,0.1380*%
%ADD12C,0.0600*%
%ADD13C,0.0671*%
%ADD14C,0.1080*%
%ADD15OC8,0.1080*%
%ADD16OC8,0.0600*%
%ADD17C,0.0600*%
%ADD18OC8,0.0820*%
%ADD19C,0.0820*%
%ADD20C,0.0785*%
%ADD21R,0.0880X0.0880*%
%ADD22C,0.0880*%
%ADD23C,0.0680*%
%ADD24OC8,0.0710*%
%ADD25C,0.0710*%
%ADD26C,0.0674*%
%ADD27C,0.0634*%
%ADD28C,0.1340*%
%ADD29R,0.0476X0.0476*%
D10*
X040786Y035609D03*
X041566Y035609D03*
X041566Y036593D03*
X040786Y036593D03*
D11*
X042636Y038471D03*
X042636Y033731D03*
D12*
X033816Y026361D02*
X033816Y025841D01*
X032816Y025841D02*
X032816Y026361D01*
X031816Y026361D02*
X031816Y025841D01*
X030816Y025841D02*
X030816Y026361D01*
X029816Y026361D02*
X029816Y025841D01*
X028816Y025841D02*
X028816Y026361D01*
X027816Y026361D02*
X027816Y025841D01*
X026816Y025841D02*
X026816Y026361D01*
X025816Y026361D02*
X025816Y025841D01*
X024816Y025841D02*
X024816Y026361D01*
X023816Y026361D02*
X023816Y025841D01*
X022816Y025841D02*
X022816Y026361D01*
X021816Y026361D02*
X021816Y025841D01*
X020816Y025841D02*
X020816Y026361D01*
X019816Y026361D02*
X019816Y025841D01*
X018816Y025841D02*
X018816Y026361D01*
X017816Y026361D02*
X017816Y025841D01*
X016816Y025841D02*
X016816Y026361D01*
X015816Y026361D02*
X015816Y025841D01*
X014816Y025841D02*
X014816Y026361D01*
X014816Y020361D02*
X014816Y019841D01*
X015816Y019841D02*
X015816Y020361D01*
X016816Y020361D02*
X016816Y019841D01*
X017816Y019841D02*
X017816Y020361D01*
X018816Y020361D02*
X018816Y019841D01*
X019816Y019841D02*
X019816Y020361D01*
X020816Y020361D02*
X020816Y019841D01*
X021816Y019841D02*
X021816Y020361D01*
X022816Y020361D02*
X022816Y019841D01*
X023816Y019841D02*
X023816Y020361D01*
X024816Y020361D02*
X024816Y019841D01*
X025816Y019841D02*
X025816Y020361D01*
X026816Y020361D02*
X026816Y019841D01*
X027816Y019841D02*
X027816Y020361D01*
X028816Y020361D02*
X028816Y019841D01*
X029816Y019841D02*
X029816Y020361D01*
X030816Y020361D02*
X030816Y019841D01*
X031816Y019841D02*
X031816Y020361D01*
X032816Y020361D02*
X032816Y019841D01*
X033816Y019841D02*
X033816Y020361D01*
D13*
X035816Y021101D03*
X035816Y025101D03*
D14*
X035566Y017351D03*
D15*
X035566Y015351D03*
D16*
X040916Y032101D03*
D17*
X041716Y032101D03*
D18*
X012116Y024851D03*
X012116Y023851D03*
X012116Y022851D03*
X012116Y021851D03*
X011016Y021851D03*
X011016Y022851D03*
X011016Y023851D03*
X011016Y024851D03*
X011016Y020851D03*
X012116Y020851D03*
D19*
X036566Y030781D03*
X036566Y031921D03*
D20*
X040963Y018585D02*
X041668Y018585D01*
X041668Y016616D02*
X040963Y016616D01*
X039800Y006453D02*
X039800Y005748D01*
X037831Y005748D02*
X037831Y006453D01*
D21*
X027316Y005601D03*
X025316Y005601D03*
X014316Y005601D03*
X012316Y005601D03*
X006566Y012351D03*
X006566Y015851D03*
X006566Y019351D03*
X012816Y040101D03*
X019316Y040101D03*
X025816Y040101D03*
X029316Y040101D03*
D22*
X027938Y040101D03*
X024438Y040101D03*
X023060Y040101D03*
X021682Y040101D03*
X017938Y040101D03*
X016560Y040101D03*
X015182Y040101D03*
X011438Y040101D03*
X010060Y040101D03*
X008682Y040101D03*
X006566Y020729D03*
X006566Y017229D03*
X006566Y013729D03*
X010938Y005601D03*
X015694Y005601D03*
X017072Y005601D03*
X018450Y005601D03*
X023938Y005601D03*
X028694Y005601D03*
X030072Y005601D03*
X031450Y005601D03*
D23*
X025066Y010051D02*
X025066Y010651D01*
X024066Y010651D02*
X024066Y010051D01*
X023066Y010051D02*
X023066Y010651D01*
X012066Y010651D02*
X012066Y010051D01*
X011066Y010051D02*
X011066Y010651D01*
X010066Y010651D02*
X010066Y010051D01*
X028316Y035801D02*
X028316Y036401D01*
X029316Y036401D02*
X029316Y035801D01*
X030316Y035801D02*
X030316Y036401D01*
X037816Y010901D02*
X037816Y010301D01*
X038816Y010301D02*
X038816Y010901D01*
X039816Y010901D02*
X039816Y010301D01*
D24*
X034816Y008351D03*
X021316Y008351D03*
X008316Y008351D03*
D25*
X009316Y008351D03*
X022316Y008351D03*
X035816Y008351D03*
D26*
X035816Y006148D02*
X035816Y005554D01*
X034816Y005554D02*
X034816Y006148D01*
X022316Y006148D02*
X022316Y005554D01*
X021316Y005554D02*
X021316Y006148D01*
X009316Y006148D02*
X009316Y005554D01*
X008316Y005554D02*
X008316Y006148D01*
X008363Y012351D02*
X007769Y012351D01*
X007769Y013351D02*
X008363Y013351D01*
X008363Y014351D02*
X007769Y014351D01*
X007769Y015851D02*
X008363Y015851D01*
X008363Y016851D02*
X007769Y016851D01*
X007769Y017851D02*
X008363Y017851D01*
X008363Y019351D02*
X007769Y019351D01*
X007769Y020351D02*
X008363Y020351D01*
X008363Y021351D02*
X007769Y021351D01*
D27*
X013816Y014601D03*
X013816Y013601D03*
X013816Y012601D03*
X013816Y011601D03*
X013816Y010601D03*
X013816Y009601D03*
X013816Y008601D03*
X013816Y007601D03*
X018816Y007601D03*
X018816Y008601D03*
X018816Y009601D03*
X018816Y010601D03*
X018816Y011601D03*
X018816Y012601D03*
X018816Y013601D03*
X018816Y014601D03*
X026816Y014601D03*
X026816Y013601D03*
X026816Y012601D03*
X026816Y011601D03*
X026816Y010601D03*
X026816Y009601D03*
X026816Y008601D03*
X026816Y007601D03*
X031816Y007601D03*
X031816Y008601D03*
X031816Y009601D03*
X031816Y010601D03*
X031816Y011601D03*
X031816Y012601D03*
X031816Y013601D03*
X031816Y014601D03*
X026316Y031101D03*
X026316Y032101D03*
X026316Y033101D03*
X026316Y034101D03*
X026316Y035101D03*
X026316Y036101D03*
X026316Y037101D03*
X026316Y038101D03*
X021316Y038101D03*
X021316Y037101D03*
X021316Y036101D03*
X021316Y035101D03*
X021316Y034101D03*
X021316Y033101D03*
X021316Y032101D03*
X021316Y031101D03*
X019816Y031101D03*
X019816Y032101D03*
X019816Y033101D03*
X019816Y034101D03*
X019816Y035101D03*
X019816Y036101D03*
X019816Y037101D03*
X019816Y038101D03*
X014816Y038101D03*
X014816Y037101D03*
X014816Y036101D03*
X014816Y035101D03*
X014816Y034101D03*
X014816Y033101D03*
X014816Y032101D03*
X014816Y031101D03*
X013316Y031101D03*
X013316Y032101D03*
X013316Y033101D03*
X013316Y034101D03*
X013316Y035101D03*
X013316Y036101D03*
X013316Y037101D03*
X013316Y038101D03*
X008316Y038101D03*
X008316Y037101D03*
X008316Y036101D03*
X008316Y035101D03*
X008316Y034101D03*
X008316Y033101D03*
X008316Y032101D03*
X008316Y031101D03*
D28*
X006206Y004990D03*
X042426Y004990D03*
X042426Y041211D03*
X006206Y041211D03*
D29*
X006566Y029851D03*
X009316Y028601D03*
X011566Y027601D03*
X020066Y018601D03*
X021316Y016101D03*
X021316Y015351D03*
X021316Y014601D03*
X022566Y015851D03*
X022566Y016601D03*
X024316Y013351D03*
X022066Y011101D03*
X020566Y009351D03*
X012566Y013601D03*
X010066Y014351D03*
X011316Y017851D03*
X023816Y024851D03*
X025566Y024101D03*
X025566Y022101D03*
X029566Y019101D03*
X032066Y019101D03*
X030316Y024601D03*
X028816Y027101D03*
X031066Y030851D03*
X030316Y031101D03*
X030066Y031851D03*
X031316Y032351D03*
X031316Y034101D03*
X034566Y033351D03*
X035566Y034851D03*
X033816Y037351D03*
X028066Y032851D03*
X028566Y031851D03*
X027316Y034601D03*
X036816Y027101D03*
X037816Y029601D03*
X033566Y011851D03*
M02*
