G75*
G70*
%OFA0B0*%
%FSLAX24Y24*%
%IPPOS*%
%LPD*%
%AMOC8*
5,1,8,0,0,1.08239X$1,22.5*
%
%ADD10C,0.0000*%
%ADD11C,0.0100*%
%ADD12C,0.0080*%
%ADD13C,0.0160*%
%ADD14C,0.0110*%
%ADD15C,0.0040*%
%ADD16C,0.0060*%
%ADD17C,0.0050*%
D10*
X002501Y002916D02*
X002503Y002966D01*
X002509Y003016D01*
X002519Y003065D01*
X002533Y003113D01*
X002550Y003160D01*
X002571Y003205D01*
X002596Y003249D01*
X002624Y003290D01*
X002656Y003329D01*
X002690Y003366D01*
X002727Y003400D01*
X002767Y003430D01*
X002809Y003457D01*
X002853Y003481D01*
X002899Y003502D01*
X002946Y003518D01*
X002994Y003531D01*
X003044Y003540D01*
X003093Y003545D01*
X003144Y003546D01*
X003194Y003543D01*
X003243Y003536D01*
X003292Y003525D01*
X003340Y003510D01*
X003386Y003492D01*
X003431Y003470D01*
X003474Y003444D01*
X003515Y003415D01*
X003554Y003383D01*
X003590Y003348D01*
X003622Y003310D01*
X003652Y003270D01*
X003679Y003227D01*
X003702Y003183D01*
X003721Y003137D01*
X003737Y003089D01*
X003749Y003040D01*
X003757Y002991D01*
X003761Y002941D01*
X003761Y002891D01*
X003757Y002841D01*
X003749Y002792D01*
X003737Y002743D01*
X003721Y002695D01*
X003702Y002649D01*
X003679Y002605D01*
X003652Y002562D01*
X003622Y002522D01*
X003590Y002484D01*
X003554Y002449D01*
X003515Y002417D01*
X003474Y002388D01*
X003431Y002362D01*
X003386Y002340D01*
X003340Y002322D01*
X003292Y002307D01*
X003243Y002296D01*
X003194Y002289D01*
X003144Y002286D01*
X003093Y002287D01*
X003044Y002292D01*
X002994Y002301D01*
X002946Y002314D01*
X002899Y002330D01*
X002853Y002351D01*
X002809Y002375D01*
X002767Y002402D01*
X002727Y002432D01*
X002690Y002466D01*
X002656Y002503D01*
X002624Y002542D01*
X002596Y002583D01*
X002571Y002627D01*
X002550Y002672D01*
X002533Y002719D01*
X002519Y002767D01*
X002509Y002816D01*
X002503Y002866D01*
X002501Y002916D01*
X002842Y005502D02*
X002844Y005548D01*
X002850Y005593D01*
X002859Y005638D01*
X002873Y005682D01*
X002890Y005725D01*
X002911Y005766D01*
X002935Y005805D01*
X002962Y005842D01*
X002992Y005876D01*
X003026Y005908D01*
X003061Y005937D01*
X003099Y005963D01*
X003139Y005985D01*
X003181Y006004D01*
X003225Y006019D01*
X003269Y006031D01*
X003314Y006039D01*
X003360Y006043D01*
X003406Y006043D01*
X003452Y006039D01*
X003497Y006031D01*
X003541Y006019D01*
X003585Y006004D01*
X003627Y005985D01*
X003667Y005963D01*
X003705Y005937D01*
X003740Y005908D01*
X003774Y005876D01*
X003804Y005842D01*
X003831Y005805D01*
X003855Y005766D01*
X003876Y005725D01*
X003893Y005682D01*
X003907Y005638D01*
X003916Y005593D01*
X003922Y005548D01*
X003924Y005502D01*
X003922Y005456D01*
X003916Y005411D01*
X003907Y005366D01*
X003893Y005322D01*
X003876Y005279D01*
X003855Y005238D01*
X003831Y005199D01*
X003804Y005162D01*
X003774Y005128D01*
X003740Y005096D01*
X003705Y005067D01*
X003667Y005041D01*
X003627Y005019D01*
X003585Y005000D01*
X003541Y004985D01*
X003497Y004973D01*
X003452Y004965D01*
X003406Y004961D01*
X003360Y004961D01*
X003314Y004965D01*
X003269Y004973D01*
X003225Y004985D01*
X003181Y005000D01*
X003139Y005019D01*
X003099Y005041D01*
X003061Y005067D01*
X003026Y005096D01*
X002992Y005128D01*
X002962Y005162D01*
X002935Y005199D01*
X002911Y005238D01*
X002890Y005279D01*
X002873Y005322D01*
X002859Y005366D01*
X002850Y005411D01*
X002844Y005456D01*
X002842Y005502D01*
X025676Y005502D02*
X025678Y005548D01*
X025684Y005593D01*
X025693Y005638D01*
X025707Y005682D01*
X025724Y005725D01*
X025745Y005766D01*
X025769Y005805D01*
X025796Y005842D01*
X025826Y005876D01*
X025860Y005908D01*
X025895Y005937D01*
X025933Y005963D01*
X025973Y005985D01*
X026015Y006004D01*
X026059Y006019D01*
X026103Y006031D01*
X026148Y006039D01*
X026194Y006043D01*
X026240Y006043D01*
X026286Y006039D01*
X026331Y006031D01*
X026375Y006019D01*
X026419Y006004D01*
X026461Y005985D01*
X026501Y005963D01*
X026539Y005937D01*
X026574Y005908D01*
X026608Y005876D01*
X026638Y005842D01*
X026665Y005805D01*
X026689Y005766D01*
X026710Y005725D01*
X026727Y005682D01*
X026741Y005638D01*
X026750Y005593D01*
X026756Y005548D01*
X026758Y005502D01*
X026756Y005456D01*
X026750Y005411D01*
X026741Y005366D01*
X026727Y005322D01*
X026710Y005279D01*
X026689Y005238D01*
X026665Y005199D01*
X026638Y005162D01*
X026608Y005128D01*
X026574Y005096D01*
X026539Y005067D01*
X026501Y005041D01*
X026461Y005019D01*
X026419Y005000D01*
X026375Y004985D01*
X026331Y004973D01*
X026286Y004965D01*
X026240Y004961D01*
X026194Y004961D01*
X026148Y004965D01*
X026103Y004973D01*
X026059Y004985D01*
X026015Y005000D01*
X025973Y005019D01*
X025933Y005041D01*
X025895Y005067D01*
X025860Y005096D01*
X025826Y005128D01*
X025796Y005162D01*
X025769Y005199D01*
X025745Y005238D01*
X025724Y005279D01*
X025707Y005322D01*
X025693Y005366D01*
X025684Y005411D01*
X025678Y005456D01*
X025676Y005502D01*
X033800Y002916D02*
X033802Y002966D01*
X033808Y003016D01*
X033818Y003065D01*
X033832Y003113D01*
X033849Y003160D01*
X033870Y003205D01*
X033895Y003249D01*
X033923Y003290D01*
X033955Y003329D01*
X033989Y003366D01*
X034026Y003400D01*
X034066Y003430D01*
X034108Y003457D01*
X034152Y003481D01*
X034198Y003502D01*
X034245Y003518D01*
X034293Y003531D01*
X034343Y003540D01*
X034392Y003545D01*
X034443Y003546D01*
X034493Y003543D01*
X034542Y003536D01*
X034591Y003525D01*
X034639Y003510D01*
X034685Y003492D01*
X034730Y003470D01*
X034773Y003444D01*
X034814Y003415D01*
X034853Y003383D01*
X034889Y003348D01*
X034921Y003310D01*
X034951Y003270D01*
X034978Y003227D01*
X035001Y003183D01*
X035020Y003137D01*
X035036Y003089D01*
X035048Y003040D01*
X035056Y002991D01*
X035060Y002941D01*
X035060Y002891D01*
X035056Y002841D01*
X035048Y002792D01*
X035036Y002743D01*
X035020Y002695D01*
X035001Y002649D01*
X034978Y002605D01*
X034951Y002562D01*
X034921Y002522D01*
X034889Y002484D01*
X034853Y002449D01*
X034814Y002417D01*
X034773Y002388D01*
X034730Y002362D01*
X034685Y002340D01*
X034639Y002322D01*
X034591Y002307D01*
X034542Y002296D01*
X034493Y002289D01*
X034443Y002286D01*
X034392Y002287D01*
X034343Y002292D01*
X034293Y002301D01*
X034245Y002314D01*
X034198Y002330D01*
X034152Y002351D01*
X034108Y002375D01*
X034066Y002402D01*
X034026Y002432D01*
X033989Y002466D01*
X033955Y002503D01*
X033923Y002542D01*
X033895Y002583D01*
X033870Y002627D01*
X033849Y002672D01*
X033832Y002719D01*
X033818Y002767D01*
X033808Y002816D01*
X033802Y002866D01*
X033800Y002916D01*
X025676Y024793D02*
X025678Y024839D01*
X025684Y024884D01*
X025693Y024929D01*
X025707Y024973D01*
X025724Y025016D01*
X025745Y025057D01*
X025769Y025096D01*
X025796Y025133D01*
X025826Y025167D01*
X025860Y025199D01*
X025895Y025228D01*
X025933Y025254D01*
X025973Y025276D01*
X026015Y025295D01*
X026059Y025310D01*
X026103Y025322D01*
X026148Y025330D01*
X026194Y025334D01*
X026240Y025334D01*
X026286Y025330D01*
X026331Y025322D01*
X026375Y025310D01*
X026419Y025295D01*
X026461Y025276D01*
X026501Y025254D01*
X026539Y025228D01*
X026574Y025199D01*
X026608Y025167D01*
X026638Y025133D01*
X026665Y025096D01*
X026689Y025057D01*
X026710Y025016D01*
X026727Y024973D01*
X026741Y024929D01*
X026750Y024884D01*
X026756Y024839D01*
X026758Y024793D01*
X026756Y024747D01*
X026750Y024702D01*
X026741Y024657D01*
X026727Y024613D01*
X026710Y024570D01*
X026689Y024529D01*
X026665Y024490D01*
X026638Y024453D01*
X026608Y024419D01*
X026574Y024387D01*
X026539Y024358D01*
X026501Y024332D01*
X026461Y024310D01*
X026419Y024291D01*
X026375Y024276D01*
X026331Y024264D01*
X026286Y024256D01*
X026240Y024252D01*
X026194Y024252D01*
X026148Y024256D01*
X026103Y024264D01*
X026059Y024276D01*
X026015Y024291D01*
X025973Y024310D01*
X025933Y024332D01*
X025895Y024358D01*
X025860Y024387D01*
X025826Y024419D01*
X025796Y024453D01*
X025769Y024490D01*
X025745Y024529D01*
X025724Y024570D01*
X025707Y024613D01*
X025693Y024657D01*
X025684Y024702D01*
X025678Y024747D01*
X025676Y024793D01*
X033800Y027522D02*
X033802Y027572D01*
X033808Y027622D01*
X033818Y027671D01*
X033832Y027719D01*
X033849Y027766D01*
X033870Y027811D01*
X033895Y027855D01*
X033923Y027896D01*
X033955Y027935D01*
X033989Y027972D01*
X034026Y028006D01*
X034066Y028036D01*
X034108Y028063D01*
X034152Y028087D01*
X034198Y028108D01*
X034245Y028124D01*
X034293Y028137D01*
X034343Y028146D01*
X034392Y028151D01*
X034443Y028152D01*
X034493Y028149D01*
X034542Y028142D01*
X034591Y028131D01*
X034639Y028116D01*
X034685Y028098D01*
X034730Y028076D01*
X034773Y028050D01*
X034814Y028021D01*
X034853Y027989D01*
X034889Y027954D01*
X034921Y027916D01*
X034951Y027876D01*
X034978Y027833D01*
X035001Y027789D01*
X035020Y027743D01*
X035036Y027695D01*
X035048Y027646D01*
X035056Y027597D01*
X035060Y027547D01*
X035060Y027497D01*
X035056Y027447D01*
X035048Y027398D01*
X035036Y027349D01*
X035020Y027301D01*
X035001Y027255D01*
X034978Y027211D01*
X034951Y027168D01*
X034921Y027128D01*
X034889Y027090D01*
X034853Y027055D01*
X034814Y027023D01*
X034773Y026994D01*
X034730Y026968D01*
X034685Y026946D01*
X034639Y026928D01*
X034591Y026913D01*
X034542Y026902D01*
X034493Y026895D01*
X034443Y026892D01*
X034392Y026893D01*
X034343Y026898D01*
X034293Y026907D01*
X034245Y026920D01*
X034198Y026936D01*
X034152Y026957D01*
X034108Y026981D01*
X034066Y027008D01*
X034026Y027038D01*
X033989Y027072D01*
X033955Y027109D01*
X033923Y027148D01*
X033895Y027189D01*
X033870Y027233D01*
X033849Y027278D01*
X033832Y027325D01*
X033818Y027373D01*
X033808Y027422D01*
X033802Y027472D01*
X033800Y027522D01*
X002842Y024793D02*
X002844Y024839D01*
X002850Y024884D01*
X002859Y024929D01*
X002873Y024973D01*
X002890Y025016D01*
X002911Y025057D01*
X002935Y025096D01*
X002962Y025133D01*
X002992Y025167D01*
X003026Y025199D01*
X003061Y025228D01*
X003099Y025254D01*
X003139Y025276D01*
X003181Y025295D01*
X003225Y025310D01*
X003269Y025322D01*
X003314Y025330D01*
X003360Y025334D01*
X003406Y025334D01*
X003452Y025330D01*
X003497Y025322D01*
X003541Y025310D01*
X003585Y025295D01*
X003627Y025276D01*
X003667Y025254D01*
X003705Y025228D01*
X003740Y025199D01*
X003774Y025167D01*
X003804Y025133D01*
X003831Y025096D01*
X003855Y025057D01*
X003876Y025016D01*
X003893Y024973D01*
X003907Y024929D01*
X003916Y024884D01*
X003922Y024839D01*
X003924Y024793D01*
X003922Y024747D01*
X003916Y024702D01*
X003907Y024657D01*
X003893Y024613D01*
X003876Y024570D01*
X003855Y024529D01*
X003831Y024490D01*
X003804Y024453D01*
X003774Y024419D01*
X003740Y024387D01*
X003705Y024358D01*
X003667Y024332D01*
X003627Y024310D01*
X003585Y024291D01*
X003541Y024276D01*
X003497Y024264D01*
X003452Y024256D01*
X003406Y024252D01*
X003360Y024252D01*
X003314Y024256D01*
X003269Y024264D01*
X003225Y024276D01*
X003181Y024291D01*
X003139Y024310D01*
X003099Y024332D01*
X003061Y024358D01*
X003026Y024387D01*
X002992Y024419D01*
X002962Y024453D01*
X002935Y024490D01*
X002911Y024529D01*
X002890Y024570D01*
X002873Y024613D01*
X002859Y024657D01*
X002850Y024702D01*
X002844Y024747D01*
X002842Y024793D01*
X002501Y027522D02*
X002503Y027572D01*
X002509Y027622D01*
X002519Y027671D01*
X002533Y027719D01*
X002550Y027766D01*
X002571Y027811D01*
X002596Y027855D01*
X002624Y027896D01*
X002656Y027935D01*
X002690Y027972D01*
X002727Y028006D01*
X002767Y028036D01*
X002809Y028063D01*
X002853Y028087D01*
X002899Y028108D01*
X002946Y028124D01*
X002994Y028137D01*
X003044Y028146D01*
X003093Y028151D01*
X003144Y028152D01*
X003194Y028149D01*
X003243Y028142D01*
X003292Y028131D01*
X003340Y028116D01*
X003386Y028098D01*
X003431Y028076D01*
X003474Y028050D01*
X003515Y028021D01*
X003554Y027989D01*
X003590Y027954D01*
X003622Y027916D01*
X003652Y027876D01*
X003679Y027833D01*
X003702Y027789D01*
X003721Y027743D01*
X003737Y027695D01*
X003749Y027646D01*
X003757Y027597D01*
X003761Y027547D01*
X003761Y027497D01*
X003757Y027447D01*
X003749Y027398D01*
X003737Y027349D01*
X003721Y027301D01*
X003702Y027255D01*
X003679Y027211D01*
X003652Y027168D01*
X003622Y027128D01*
X003590Y027090D01*
X003554Y027055D01*
X003515Y027023D01*
X003474Y026994D01*
X003431Y026968D01*
X003386Y026946D01*
X003340Y026928D01*
X003292Y026913D01*
X003243Y026902D01*
X003194Y026895D01*
X003144Y026892D01*
X003093Y026893D01*
X003044Y026898D01*
X002994Y026907D01*
X002946Y026920D01*
X002899Y026936D01*
X002853Y026957D01*
X002809Y026981D01*
X002767Y027008D01*
X002727Y027038D01*
X002690Y027072D01*
X002656Y027109D01*
X002624Y027148D01*
X002596Y027189D01*
X002571Y027233D01*
X002550Y027278D01*
X002533Y027325D01*
X002519Y027373D01*
X002509Y027422D01*
X002503Y027472D01*
X002501Y027522D01*
D11*
X001753Y027522D02*
X001753Y002916D01*
X001755Y002843D01*
X001761Y002770D01*
X001771Y002697D01*
X001784Y002625D01*
X001802Y002553D01*
X001823Y002483D01*
X001848Y002414D01*
X001876Y002347D01*
X001908Y002281D01*
X001944Y002216D01*
X001983Y002154D01*
X002025Y002094D01*
X002070Y002036D01*
X002118Y001981D01*
X002170Y001929D01*
X002224Y001879D01*
X002280Y001832D01*
X002339Y001788D01*
X002400Y001748D01*
X002463Y001711D01*
X002528Y001677D01*
X002595Y001646D01*
X002664Y001620D01*
X002733Y001597D01*
X002804Y001577D01*
X002876Y001562D01*
X002948Y001550D01*
X003021Y001542D01*
X003094Y001538D01*
X003168Y001538D01*
X003241Y001542D01*
X003314Y001550D01*
X003386Y001562D01*
X003458Y001577D01*
X003529Y001597D01*
X003598Y001620D01*
X003667Y001646D01*
X003734Y001677D01*
X003799Y001711D01*
X003862Y001748D01*
X003923Y001788D01*
X003982Y001832D01*
X004038Y001879D01*
X004092Y001929D01*
X004144Y001981D01*
X004192Y002036D01*
X004237Y002094D01*
X004279Y002154D01*
X004318Y002216D01*
X004354Y002281D01*
X004386Y002347D01*
X004414Y002414D01*
X004439Y002483D01*
X004460Y002553D01*
X004478Y002625D01*
X004491Y002697D01*
X004501Y002770D01*
X004507Y002843D01*
X004509Y002916D01*
X004509Y003500D01*
X004531Y003523D01*
X004507Y003514D02*
X008050Y003514D01*
X008020Y003514D02*
X004567Y003514D01*
X004509Y003500D01*
X008020Y003514D02*
X008565Y004060D01*
X028909Y004097D01*
X029499Y003507D01*
X033052Y003507D01*
X033036Y003495D01*
X033052Y003506D01*
X029509Y003506D01*
X033052Y003506D02*
X033052Y002916D01*
X033054Y002843D01*
X033060Y002770D01*
X033070Y002697D01*
X033083Y002625D01*
X033101Y002553D01*
X033122Y002483D01*
X033147Y002414D01*
X033175Y002347D01*
X033207Y002281D01*
X033243Y002216D01*
X033282Y002154D01*
X033324Y002094D01*
X033369Y002036D01*
X033417Y001981D01*
X033469Y001929D01*
X033523Y001879D01*
X033579Y001832D01*
X033638Y001788D01*
X033699Y001748D01*
X033762Y001711D01*
X033827Y001677D01*
X033894Y001646D01*
X033963Y001620D01*
X034032Y001597D01*
X034103Y001577D01*
X034175Y001562D01*
X034247Y001550D01*
X034320Y001542D01*
X034393Y001538D01*
X034467Y001538D01*
X034540Y001542D01*
X034613Y001550D01*
X034685Y001562D01*
X034757Y001577D01*
X034828Y001597D01*
X034897Y001620D01*
X034966Y001646D01*
X035033Y001677D01*
X035098Y001711D01*
X035161Y001748D01*
X035222Y001788D01*
X035281Y001832D01*
X035337Y001879D01*
X035391Y001929D01*
X035443Y001981D01*
X035491Y002036D01*
X035536Y002094D01*
X035578Y002154D01*
X035617Y002216D01*
X035653Y002281D01*
X035685Y002347D01*
X035713Y002414D01*
X035738Y002483D01*
X035759Y002553D01*
X035777Y002625D01*
X035790Y002697D01*
X035800Y002770D01*
X035806Y002843D01*
X035808Y002916D01*
X035808Y027522D01*
X035806Y027595D01*
X035800Y027668D01*
X035790Y027741D01*
X035777Y027813D01*
X035759Y027885D01*
X035738Y027955D01*
X035713Y028024D01*
X035685Y028091D01*
X035653Y028157D01*
X035617Y028222D01*
X035578Y028284D01*
X035536Y028344D01*
X035491Y028402D01*
X035443Y028457D01*
X035391Y028509D01*
X035337Y028559D01*
X035281Y028606D01*
X035222Y028650D01*
X035161Y028690D01*
X035098Y028727D01*
X035033Y028761D01*
X034966Y028792D01*
X034897Y028818D01*
X034828Y028841D01*
X034757Y028861D01*
X034685Y028876D01*
X034613Y028888D01*
X034540Y028896D01*
X034467Y028900D01*
X034393Y028900D01*
X034320Y028896D01*
X034247Y028888D01*
X034175Y028876D01*
X034103Y028861D01*
X034032Y028841D01*
X033963Y028818D01*
X033894Y028792D01*
X033827Y028761D01*
X033762Y028727D01*
X033699Y028690D01*
X033638Y028650D01*
X033579Y028606D01*
X033523Y028559D01*
X033469Y028509D01*
X033417Y028457D01*
X033369Y028402D01*
X033324Y028344D01*
X033282Y028284D01*
X033243Y028222D01*
X033207Y028157D01*
X033175Y028091D01*
X033147Y028024D01*
X033122Y027955D01*
X033101Y027885D01*
X033083Y027813D01*
X033070Y027741D01*
X033060Y027668D01*
X033054Y027595D01*
X033052Y027522D01*
X033052Y026144D01*
X004509Y026144D01*
X004509Y027522D01*
X004507Y027595D01*
X004501Y027668D01*
X004491Y027741D01*
X004478Y027813D01*
X004460Y027885D01*
X004439Y027955D01*
X004414Y028024D01*
X004386Y028091D01*
X004354Y028157D01*
X004318Y028222D01*
X004279Y028284D01*
X004237Y028344D01*
X004192Y028402D01*
X004144Y028457D01*
X004092Y028509D01*
X004038Y028559D01*
X003982Y028606D01*
X003923Y028650D01*
X003862Y028690D01*
X003799Y028727D01*
X003734Y028761D01*
X003667Y028792D01*
X003598Y028818D01*
X003529Y028841D01*
X003458Y028861D01*
X003386Y028876D01*
X003314Y028888D01*
X003241Y028896D01*
X003168Y028900D01*
X003094Y028900D01*
X003021Y028896D01*
X002948Y028888D01*
X002876Y028876D01*
X002804Y028861D01*
X002733Y028841D01*
X002664Y028818D01*
X002595Y028792D01*
X002528Y028761D01*
X002463Y028727D01*
X002400Y028690D01*
X002339Y028650D01*
X002280Y028606D01*
X002224Y028559D01*
X002170Y028509D01*
X002118Y028457D01*
X002070Y028402D01*
X002025Y028344D01*
X001983Y028284D01*
X001944Y028222D01*
X001908Y028157D01*
X001876Y028091D01*
X001848Y028024D01*
X001823Y027955D01*
X001802Y027885D01*
X001784Y027813D01*
X001771Y027741D01*
X001761Y027668D01*
X001755Y027595D01*
X001753Y027522D01*
D12*
X005305Y023795D02*
X005305Y023375D01*
X005445Y023375D02*
X005165Y023375D01*
X005445Y023655D02*
X005305Y023795D01*
X007665Y022850D02*
X007945Y022850D01*
X007805Y022850D02*
X007805Y023270D01*
X007945Y023130D01*
X014766Y020370D02*
X015046Y020370D01*
X015046Y019950D01*
X014766Y019950D01*
X014906Y020160D02*
X015046Y020160D01*
X015226Y019950D02*
X015507Y019950D01*
X015507Y020370D01*
X015687Y020300D02*
X015687Y020230D01*
X015757Y020160D01*
X015967Y020160D01*
X016147Y020160D02*
X016428Y020160D01*
X016428Y020230D02*
X016287Y020370D01*
X016147Y020230D01*
X016147Y019950D01*
X015967Y019950D02*
X015757Y019950D01*
X015687Y020020D01*
X015687Y020090D01*
X015757Y020160D01*
X015687Y020300D02*
X015757Y020370D01*
X015967Y020370D01*
X015967Y019950D01*
X016428Y019950D02*
X016428Y020230D01*
X016608Y020300D02*
X016678Y020370D01*
X016818Y020370D01*
X016888Y020300D01*
X016888Y020020D01*
X016818Y019950D01*
X016678Y019950D01*
X016608Y020020D01*
X017528Y019950D02*
X017528Y020370D01*
X017809Y020370D02*
X017528Y019950D01*
X017809Y019950D02*
X017809Y020370D01*
X017989Y020300D02*
X018059Y020370D01*
X018199Y020370D01*
X018269Y020300D01*
X018269Y020020D01*
X018199Y019950D01*
X018059Y019950D01*
X017989Y020020D01*
X017989Y020300D01*
X018436Y020370D02*
X018576Y020370D01*
X018506Y020370D02*
X018506Y019950D01*
X018576Y019950D02*
X018436Y019950D01*
X018756Y020020D02*
X018826Y019950D01*
X018966Y019950D01*
X019036Y020020D01*
X018966Y020160D02*
X018826Y020160D01*
X018756Y020090D01*
X018756Y020020D01*
X018966Y020160D02*
X019036Y020230D01*
X019036Y020300D01*
X018966Y020370D01*
X018826Y020370D01*
X018756Y020300D01*
X019217Y020370D02*
X019217Y019950D01*
X019497Y020370D01*
X019497Y019950D01*
X019677Y019950D02*
X019677Y020230D01*
X019817Y020370D01*
X019957Y020230D01*
X019957Y019950D01*
X019957Y020160D02*
X019677Y020160D01*
X020137Y020160D02*
X020137Y020300D01*
X020207Y020370D01*
X020418Y020370D01*
X020418Y019950D01*
X020418Y020090D02*
X020207Y020090D01*
X020137Y020160D01*
X020598Y019950D02*
X020878Y020370D01*
X021058Y020370D02*
X021338Y020370D01*
X021338Y019950D01*
X021058Y019950D01*
X020878Y019950D02*
X020598Y020370D01*
X021198Y020160D02*
X021338Y020160D01*
X021966Y019950D02*
X022106Y019950D01*
X022036Y019950D02*
X022036Y020370D01*
X022106Y020370D02*
X021966Y020370D01*
X022286Y020300D02*
X022286Y020160D01*
X022356Y020090D01*
X022566Y020090D01*
X022566Y019950D02*
X022566Y020370D01*
X022356Y020370D01*
X022286Y020300D01*
X023207Y020300D02*
X023207Y020370D01*
X023207Y020300D02*
X023347Y020160D01*
X023347Y019950D01*
X023347Y020160D02*
X023487Y020300D01*
X023487Y020370D01*
X023667Y020300D02*
X023667Y020160D01*
X023737Y020090D01*
X023947Y020090D01*
X023807Y020090D02*
X023667Y019950D01*
X023947Y019950D02*
X023947Y020370D01*
X023737Y020370D01*
X023667Y020300D01*
X024127Y020300D02*
X024127Y020160D01*
X024197Y020090D01*
X024408Y020090D01*
X024408Y019950D02*
X024408Y020370D01*
X024197Y020370D01*
X024127Y020300D01*
X024268Y020090D02*
X024127Y019950D01*
X024588Y019950D02*
X024868Y019950D01*
X024868Y020370D01*
X024588Y020370D01*
X024728Y020160D02*
X024868Y020160D01*
X025048Y020090D02*
X025048Y020020D01*
X025118Y019950D01*
X025328Y019950D01*
X025328Y020370D01*
X025118Y020370D01*
X025048Y020300D01*
X025048Y020230D01*
X025118Y020160D01*
X025328Y020160D01*
X025509Y020160D02*
X025579Y020090D01*
X025789Y020090D01*
X025789Y019950D02*
X025789Y020370D01*
X025579Y020370D01*
X025509Y020300D01*
X025509Y020160D01*
X025118Y020160D02*
X025048Y020090D01*
X025969Y020090D02*
X025969Y020020D01*
X026039Y019950D01*
X026179Y019950D01*
X026249Y020020D01*
X026179Y020160D02*
X026039Y020160D01*
X025969Y020090D01*
X025969Y020300D02*
X026039Y020370D01*
X026179Y020370D01*
X026249Y020300D01*
X026249Y020230D01*
X026179Y020160D01*
X026429Y020160D02*
X026710Y020160D01*
X026710Y020230D02*
X026569Y020370D01*
X026429Y020230D01*
X026429Y019950D01*
X026710Y019950D02*
X026710Y020230D01*
X026890Y020160D02*
X026960Y020090D01*
X027170Y020090D01*
X027170Y019950D02*
X027170Y020370D01*
X026960Y020370D01*
X026890Y020300D01*
X026890Y020160D01*
X027030Y020090D02*
X026890Y019950D01*
X027399Y020875D02*
X027540Y020875D01*
X027610Y020945D01*
X027329Y021225D01*
X027329Y020945D01*
X027399Y020875D01*
X027610Y020945D02*
X027610Y021225D01*
X027540Y021295D01*
X027399Y021295D01*
X027329Y021225D01*
X027790Y021085D02*
X028070Y021085D01*
X027860Y021295D01*
X027860Y020875D01*
X024595Y023400D02*
X024595Y023820D01*
X024385Y023820D01*
X024315Y023750D01*
X024315Y023610D01*
X024385Y023540D01*
X024595Y023540D01*
X024455Y023540D02*
X024315Y023400D01*
X024135Y023400D02*
X024135Y023680D01*
X023994Y023820D01*
X023854Y023680D01*
X023854Y023400D01*
X023674Y023470D02*
X023604Y023400D01*
X023464Y023400D01*
X023394Y023470D01*
X023394Y023540D01*
X023464Y023610D01*
X023604Y023610D01*
X023674Y023680D01*
X023674Y023750D01*
X023604Y023820D01*
X023464Y023820D01*
X023394Y023750D01*
X023214Y023820D02*
X023214Y023400D01*
X023214Y023540D02*
X023004Y023540D01*
X022934Y023610D01*
X022934Y023750D01*
X023004Y023820D01*
X023214Y023820D01*
X022753Y023820D02*
X022753Y023400D01*
X022543Y023400D01*
X022473Y023470D01*
X022473Y023540D01*
X022543Y023610D01*
X022753Y023610D01*
X022543Y023610D02*
X022473Y023680D01*
X022473Y023750D01*
X022543Y023820D01*
X022753Y023820D01*
X022293Y023820D02*
X022293Y023400D01*
X022013Y023400D01*
X021833Y023400D02*
X021833Y023820D01*
X021622Y023820D01*
X021552Y023750D01*
X021552Y023610D01*
X021622Y023540D01*
X021833Y023540D01*
X021693Y023540D02*
X021552Y023400D01*
X021372Y023400D02*
X021372Y023820D01*
X021162Y023820D01*
X021092Y023750D01*
X021092Y023610D01*
X021162Y023540D01*
X021372Y023540D01*
X021232Y023540D02*
X021092Y023400D01*
X020772Y023400D02*
X020772Y023610D01*
X020632Y023750D01*
X020632Y023820D01*
X020772Y023610D02*
X020912Y023750D01*
X020912Y023820D01*
X019991Y023820D02*
X019991Y023400D01*
X019991Y023540D02*
X019781Y023540D01*
X019711Y023610D01*
X019711Y023750D01*
X019781Y023820D01*
X019991Y023820D01*
X019531Y023820D02*
X019391Y023820D01*
X019461Y023820D02*
X019461Y023400D01*
X019531Y023400D02*
X019391Y023400D01*
X018763Y023470D02*
X018693Y023400D01*
X018553Y023400D01*
X018483Y023470D01*
X018483Y023540D01*
X018553Y023610D01*
X018693Y023610D01*
X018763Y023680D01*
X018763Y023750D01*
X018693Y023820D01*
X018553Y023820D01*
X018483Y023750D01*
X018303Y023820D02*
X018023Y023820D01*
X018163Y023820D02*
X018163Y023400D01*
X017843Y023400D02*
X017843Y023680D01*
X017702Y023820D01*
X017562Y023680D01*
X017562Y023400D01*
X017382Y023470D02*
X017312Y023400D01*
X017172Y023400D01*
X017102Y023470D01*
X016922Y023400D02*
X016922Y023820D01*
X017102Y023750D02*
X017172Y023820D01*
X017312Y023820D01*
X017382Y023750D01*
X017382Y023470D01*
X017562Y023610D02*
X017843Y023610D01*
X016922Y023540D02*
X016642Y023820D01*
X016852Y023610D02*
X016642Y023400D01*
X022013Y023820D02*
X022293Y023820D01*
X022293Y023610D02*
X022153Y023610D01*
X023854Y023610D02*
X024135Y023610D01*
X024924Y025175D02*
X025065Y025175D01*
X025135Y025245D01*
X024854Y025525D01*
X024854Y025245D01*
X024924Y025175D01*
X025135Y025245D02*
X025135Y025525D01*
X025065Y025595D01*
X024924Y025595D01*
X024854Y025525D01*
X025315Y025385D02*
X025595Y025385D01*
X025385Y025595D01*
X025385Y025175D01*
X032919Y021950D02*
X032919Y021670D01*
X032989Y021600D01*
X033199Y021600D01*
X033199Y022020D01*
X032989Y022020D01*
X032919Y021950D01*
X033379Y022020D02*
X033379Y021600D01*
X033660Y022020D01*
X033660Y021600D01*
X033840Y021670D02*
X033840Y021810D01*
X033980Y021810D01*
X034120Y021950D02*
X034120Y021670D01*
X034050Y021600D01*
X033910Y021600D01*
X033840Y021670D01*
X033840Y021950D02*
X033910Y022020D01*
X034050Y022020D01*
X034120Y021950D01*
X034125Y014120D02*
X034195Y014050D01*
X034195Y013770D01*
X034125Y013700D01*
X033985Y013700D01*
X033915Y013770D01*
X033915Y013910D01*
X034055Y013910D01*
X033915Y014050D02*
X033985Y014120D01*
X034125Y014120D01*
X033735Y014120D02*
X033735Y013700D01*
X033735Y013840D02*
X033524Y013840D01*
X033454Y013910D01*
X033454Y014050D01*
X033524Y014120D01*
X033735Y014120D01*
X033274Y014120D02*
X033134Y014120D01*
X033204Y014120D02*
X033204Y013700D01*
X033274Y013700D02*
X033134Y013700D01*
X032967Y013770D02*
X032967Y014050D01*
X032897Y014120D01*
X032757Y014120D01*
X032687Y014050D01*
X032687Y013770D01*
X032757Y013700D01*
X032897Y013700D01*
X032967Y013770D01*
X032969Y013370D02*
X033249Y013090D01*
X033179Y013160D02*
X032969Y012950D01*
X033249Y012950D02*
X033249Y013370D01*
X033429Y013300D02*
X033499Y013370D01*
X033640Y013370D01*
X033710Y013300D01*
X033710Y013020D01*
X033640Y012950D01*
X033499Y012950D01*
X033429Y013020D01*
X033499Y012595D02*
X033429Y012525D01*
X033429Y012245D01*
X033499Y012175D01*
X033640Y012175D01*
X033710Y012245D01*
X033710Y012525D01*
X033640Y012595D01*
X033499Y012595D01*
X033249Y012525D02*
X033249Y012455D01*
X033179Y012385D01*
X033039Y012385D01*
X032969Y012315D01*
X032969Y012245D01*
X033039Y012175D01*
X033179Y012175D01*
X033249Y012245D01*
X033249Y012525D02*
X033179Y012595D01*
X033039Y012595D01*
X032969Y012525D01*
X032789Y012595D02*
X032649Y012595D01*
X032719Y012595D02*
X032719Y012175D01*
X032789Y012175D02*
X032649Y012175D01*
X032757Y011820D02*
X032687Y011750D01*
X032687Y011470D01*
X032757Y011400D01*
X032897Y011400D01*
X032967Y011470D01*
X032967Y011750D01*
X032897Y011820D01*
X032757Y011820D01*
X033147Y011750D02*
X033218Y011820D01*
X033358Y011820D01*
X033428Y011750D01*
X033428Y011680D01*
X033358Y011610D01*
X033218Y011610D01*
X033147Y011540D01*
X033147Y011470D01*
X033218Y011400D01*
X033358Y011400D01*
X033428Y011470D01*
X033594Y011400D02*
X033735Y011400D01*
X033665Y011400D02*
X033665Y011820D01*
X033735Y011820D02*
X033594Y011820D01*
X033915Y011820D02*
X034055Y011680D01*
X034195Y011820D01*
X034195Y011400D01*
X033915Y011400D02*
X033915Y011820D01*
X033890Y012175D02*
X033890Y012595D01*
X034030Y012455D01*
X034170Y012595D01*
X034170Y012175D01*
X034100Y012950D02*
X034170Y013020D01*
X034100Y012950D02*
X033960Y012950D01*
X033890Y013020D01*
X033890Y013090D01*
X033960Y013160D01*
X034100Y013160D01*
X034170Y013230D01*
X034170Y013300D01*
X034100Y013370D01*
X033960Y013370D01*
X033890Y013300D01*
X032507Y013700D02*
X032507Y013770D01*
X032227Y014050D01*
X032227Y014120D01*
X032507Y014120D01*
X032367Y011020D02*
X032367Y010600D01*
X032507Y010600D02*
X032227Y010600D01*
X032047Y010600D02*
X032047Y010670D01*
X031766Y010950D01*
X031766Y011020D01*
X032047Y011020D01*
X032367Y011020D02*
X032507Y010880D01*
X032687Y010950D02*
X032687Y010670D01*
X032757Y010600D01*
X032897Y010600D01*
X032967Y010670D01*
X032967Y010950D01*
X032897Y011020D01*
X032757Y011020D01*
X032687Y010950D01*
X033134Y011020D02*
X033274Y011020D01*
X033204Y011020D02*
X033204Y010600D01*
X033274Y010600D02*
X033134Y010600D01*
X033454Y010810D02*
X033524Y010740D01*
X033735Y010740D01*
X033735Y010600D02*
X033735Y011020D01*
X033524Y011020D01*
X033454Y010950D01*
X033454Y010810D01*
X033915Y010810D02*
X034055Y010810D01*
X033915Y010810D02*
X033915Y010670D01*
X033985Y010600D01*
X034125Y010600D01*
X034195Y010670D01*
X034195Y010950D01*
X034125Y011020D01*
X033985Y011020D01*
X033915Y010950D01*
X033935Y008645D02*
X034075Y008645D01*
X034145Y008575D01*
X034145Y008295D01*
X034075Y008225D01*
X033935Y008225D01*
X033865Y008295D01*
X033865Y008435D01*
X034005Y008435D01*
X033865Y008575D02*
X033935Y008645D01*
X033685Y008645D02*
X033685Y008225D01*
X033404Y008225D02*
X033404Y008645D01*
X033224Y008645D02*
X033014Y008645D01*
X032944Y008575D01*
X032944Y008295D01*
X033014Y008225D01*
X033224Y008225D01*
X033224Y008645D01*
X033404Y008225D02*
X033685Y008645D01*
X033710Y007895D02*
X033499Y007895D01*
X033429Y007825D01*
X033429Y007685D01*
X033499Y007615D01*
X033710Y007615D01*
X033710Y007475D02*
X033710Y007895D01*
X033890Y007825D02*
X033960Y007895D01*
X034100Y007895D01*
X034170Y007825D01*
X034170Y007545D01*
X034100Y007475D01*
X033960Y007475D01*
X033890Y007545D01*
X033890Y007685D01*
X034030Y007685D01*
X033249Y007475D02*
X033109Y007475D01*
X033179Y007475D02*
X033179Y007895D01*
X033249Y007895D02*
X033109Y007895D01*
X032942Y007825D02*
X032942Y007545D01*
X032872Y007475D01*
X032732Y007475D01*
X032662Y007545D01*
X032662Y007825D01*
X032732Y007895D01*
X032872Y007895D01*
X032942Y007825D01*
X032482Y007755D02*
X032342Y007895D01*
X032342Y007475D01*
X032482Y007475D02*
X032202Y007475D01*
X032022Y007545D02*
X032022Y007615D01*
X031951Y007685D01*
X031811Y007685D01*
X031741Y007615D01*
X031741Y007545D01*
X031811Y007475D01*
X031951Y007475D01*
X032022Y007545D01*
X031951Y007685D02*
X032022Y007755D01*
X032022Y007825D01*
X031951Y007895D01*
X031811Y007895D01*
X031741Y007825D01*
X031741Y007755D01*
X031811Y007685D01*
X022645Y009739D02*
X022575Y009669D01*
X022505Y009669D01*
X022435Y009739D01*
X022435Y009879D01*
X022365Y009949D01*
X022295Y009949D01*
X022225Y009879D01*
X022225Y009739D01*
X022295Y009669D01*
X022645Y009739D02*
X022645Y009879D01*
X022575Y009949D01*
X022575Y010129D02*
X022295Y010129D01*
X022225Y010199D01*
X022225Y010339D01*
X022295Y010409D01*
X022225Y010590D02*
X022225Y010870D01*
X022225Y010590D02*
X022645Y010590D01*
X022575Y010409D02*
X022645Y010339D01*
X022645Y010199D01*
X022575Y010129D01*
X021645Y010154D02*
X021645Y010364D01*
X021575Y010434D01*
X021295Y010434D01*
X021225Y010364D01*
X021225Y010154D01*
X021645Y010154D01*
X021575Y009974D02*
X021645Y009904D01*
X021645Y009764D01*
X021575Y009694D01*
X021505Y009694D01*
X021435Y009764D01*
X021435Y009904D01*
X021365Y009974D01*
X021295Y009974D01*
X021225Y009904D01*
X021225Y009764D01*
X021295Y009694D01*
X020620Y009739D02*
X020550Y009669D01*
X020620Y009739D02*
X020620Y009879D01*
X020550Y009949D01*
X020480Y009949D01*
X020410Y009879D01*
X020340Y009949D01*
X020270Y009949D01*
X020200Y009879D01*
X020200Y009739D01*
X020270Y009669D01*
X020410Y009809D02*
X020410Y009879D01*
X020340Y010129D02*
X020200Y010269D01*
X020340Y010409D01*
X020620Y010409D01*
X020550Y010590D02*
X020620Y010660D01*
X020620Y010800D01*
X020550Y010870D01*
X020480Y010870D01*
X020410Y010800D01*
X020340Y010870D01*
X020270Y010870D01*
X020200Y010800D01*
X020200Y010660D01*
X020270Y010590D01*
X020410Y010730D02*
X020410Y010800D01*
X020340Y010129D02*
X020620Y010129D01*
X021225Y010615D02*
X021505Y010615D01*
X021645Y010755D01*
X021505Y010895D01*
X021225Y010895D01*
X021435Y010895D02*
X021435Y010615D01*
X019670Y010615D02*
X019670Y010825D01*
X019600Y010895D01*
X019320Y010895D01*
X019250Y010825D01*
X019250Y010615D01*
X019670Y010615D01*
X019670Y010434D02*
X019250Y010434D01*
X019670Y010154D01*
X019250Y010154D01*
X019320Y009974D02*
X019460Y009974D01*
X019460Y009834D01*
X019320Y009974D02*
X019250Y009904D01*
X019250Y009764D01*
X019320Y009694D01*
X019600Y009694D01*
X019670Y009764D01*
X019670Y009904D01*
X019600Y009974D01*
X019200Y007445D02*
X018920Y007445D01*
X018850Y007375D01*
X018850Y007165D01*
X019270Y007165D01*
X019270Y007375D01*
X019200Y007445D01*
X019270Y006984D02*
X018850Y006984D01*
X019270Y006704D01*
X018850Y006704D01*
X018920Y006524D02*
X019060Y006524D01*
X019060Y006384D01*
X018920Y006524D02*
X018850Y006454D01*
X018850Y006314D01*
X018920Y006244D01*
X019200Y006244D01*
X019270Y006314D01*
X019270Y006454D01*
X019200Y006524D01*
X018270Y006429D02*
X018270Y006289D01*
X018200Y006219D01*
X017920Y006219D01*
X017850Y006289D01*
X017850Y006429D01*
X017920Y006499D01*
X018060Y006499D01*
X018060Y006359D01*
X018200Y006499D02*
X018270Y006429D01*
X018270Y006679D02*
X017850Y006679D01*
X017850Y006959D02*
X018270Y006959D01*
X018270Y007140D02*
X018270Y007350D01*
X018200Y007420D01*
X017920Y007420D01*
X017850Y007350D01*
X017850Y007140D01*
X018270Y007140D01*
X017850Y006959D02*
X018270Y006679D01*
X017245Y006724D02*
X017175Y006654D01*
X016895Y006654D01*
X016825Y006724D01*
X016825Y006864D01*
X016895Y006934D01*
X016895Y007115D02*
X016825Y007185D01*
X016825Y007325D01*
X016895Y007395D01*
X017175Y007395D02*
X017245Y007325D01*
X017245Y007185D01*
X017175Y007115D01*
X016895Y007115D01*
X017175Y006934D02*
X017245Y006864D01*
X017245Y006724D01*
X017245Y006474D02*
X016965Y006474D01*
X016825Y006334D01*
X016965Y006194D01*
X017245Y006194D01*
X016245Y006229D02*
X016245Y006509D01*
X016245Y006369D02*
X015825Y006369D01*
X015825Y006690D02*
X016245Y006970D01*
X016245Y006690D02*
X015825Y006970D01*
X015245Y006995D02*
X014825Y006715D01*
X014825Y006534D02*
X014965Y006394D01*
X014965Y006464D02*
X014965Y006254D01*
X014825Y006254D02*
X015245Y006254D01*
X015245Y006464D01*
X015175Y006534D01*
X015035Y006534D01*
X014965Y006464D01*
X015245Y006715D02*
X014825Y006995D01*
X014245Y006984D02*
X014245Y006704D01*
X014245Y006844D02*
X013825Y006844D01*
X013825Y007165D02*
X014245Y007165D01*
X014245Y007375D01*
X014175Y007445D01*
X014035Y007445D01*
X013965Y007375D01*
X013965Y007165D01*
X013965Y007305D02*
X013825Y007445D01*
X013895Y006524D02*
X014175Y006524D01*
X014245Y006454D01*
X014245Y006244D01*
X013825Y006244D01*
X013825Y006454D01*
X013895Y006524D01*
X007770Y009775D02*
X007770Y010195D01*
X007630Y010055D01*
X007490Y010195D01*
X007490Y009775D01*
X007310Y009845D02*
X007240Y009775D01*
X007099Y009775D01*
X007029Y009845D01*
X007029Y010125D01*
X007099Y010195D01*
X007240Y010195D01*
X007310Y010125D01*
X007310Y009845D01*
X006849Y009845D02*
X006779Y009775D01*
X006639Y009775D01*
X006569Y009845D01*
X006569Y009915D01*
X006639Y009985D01*
X006779Y009985D01*
X006849Y010055D01*
X006849Y010125D01*
X006779Y010195D01*
X006639Y010195D01*
X006569Y010125D01*
X006389Y010195D02*
X006249Y010195D01*
X006319Y010195D02*
X006319Y009775D01*
X006389Y009775D02*
X006249Y009775D01*
X006332Y010550D02*
X006262Y010620D01*
X006262Y010900D01*
X006332Y010970D01*
X006472Y010970D01*
X006542Y010900D01*
X006542Y010620D01*
X006472Y010550D01*
X006332Y010550D01*
X006709Y010550D02*
X006849Y010550D01*
X006779Y010550D02*
X006779Y010970D01*
X006849Y010970D02*
X006709Y010970D01*
X007029Y010900D02*
X007099Y010970D01*
X007240Y010970D01*
X007310Y010900D01*
X007310Y010830D01*
X007240Y010760D01*
X007099Y010760D01*
X007029Y010690D01*
X007029Y010620D01*
X007099Y010550D01*
X007240Y010550D01*
X007310Y010620D01*
X007490Y010550D02*
X007490Y010970D01*
X007630Y010830D01*
X007770Y010970D01*
X007770Y010550D01*
X007749Y011350D02*
X007609Y011350D01*
X007679Y011350D02*
X007679Y011770D01*
X007749Y011770D02*
X007609Y011770D01*
X007442Y011700D02*
X007442Y011420D01*
X007372Y011350D01*
X007232Y011350D01*
X007162Y011420D01*
X007162Y011700D01*
X007232Y011770D01*
X007372Y011770D01*
X007442Y011700D01*
X006982Y011700D02*
X006912Y011770D01*
X006772Y011770D01*
X006702Y011700D01*
X006702Y011630D01*
X006982Y011350D01*
X006702Y011350D01*
X006522Y011420D02*
X006522Y011490D01*
X006451Y011560D01*
X006311Y011560D01*
X006241Y011490D01*
X006241Y011420D01*
X006311Y011350D01*
X006451Y011350D01*
X006522Y011420D01*
X006451Y011560D02*
X006522Y011630D01*
X006522Y011700D01*
X006451Y011770D01*
X006311Y011770D01*
X006241Y011700D01*
X006241Y011630D01*
X006311Y011560D01*
X006219Y012900D02*
X006429Y013110D01*
X006499Y013040D02*
X006219Y013320D01*
X006499Y013320D02*
X006499Y012900D01*
X006679Y012970D02*
X006749Y012900D01*
X006890Y012900D01*
X006960Y012970D01*
X006960Y013250D01*
X006890Y013320D01*
X006749Y013320D01*
X006679Y013250D01*
X007140Y013250D02*
X007210Y013320D01*
X007350Y013320D01*
X007420Y013250D01*
X007420Y013180D01*
X007350Y013110D01*
X007210Y013110D01*
X007140Y013040D01*
X007140Y012970D01*
X007210Y012900D01*
X007350Y012900D01*
X007420Y012970D01*
X007999Y011770D02*
X007929Y011700D01*
X007929Y011560D01*
X007999Y011490D01*
X008210Y011490D01*
X008210Y011350D02*
X008210Y011770D01*
X007999Y011770D01*
X008390Y011700D02*
X008460Y011770D01*
X008600Y011770D01*
X008670Y011700D01*
X008670Y011420D01*
X008600Y011350D01*
X008460Y011350D01*
X008390Y011420D01*
X008390Y011560D01*
X008530Y011560D01*
X008150Y014475D02*
X008010Y014475D01*
X007940Y014545D01*
X007940Y014685D01*
X008080Y014685D01*
X008220Y014545D02*
X008150Y014475D01*
X008220Y014545D02*
X008220Y014825D01*
X008150Y014895D01*
X008010Y014895D01*
X007940Y014825D01*
X007760Y014895D02*
X007549Y014895D01*
X007479Y014825D01*
X007479Y014685D01*
X007549Y014615D01*
X007760Y014615D01*
X007760Y014475D02*
X007760Y014895D01*
X007299Y014895D02*
X007159Y014895D01*
X007229Y014895D02*
X007229Y014475D01*
X007299Y014475D02*
X007159Y014475D01*
X006992Y014545D02*
X006922Y014475D01*
X006782Y014475D01*
X006712Y014545D01*
X006712Y014825D01*
X006782Y014895D01*
X006922Y014895D01*
X006992Y014825D01*
X006992Y014545D01*
X006532Y014545D02*
X006462Y014475D01*
X006322Y014475D01*
X006252Y014545D01*
X006252Y014615D01*
X006322Y014685D01*
X006462Y014685D01*
X006532Y014755D01*
X006532Y014825D01*
X006462Y014895D01*
X006322Y014895D01*
X006252Y014825D01*
X006252Y014755D01*
X006322Y014685D01*
X006462Y014685D02*
X006532Y014615D01*
X006532Y014545D01*
X006574Y008595D02*
X006364Y008595D01*
X006294Y008525D01*
X006294Y008245D01*
X006364Y008175D01*
X006574Y008175D01*
X006574Y008595D01*
X006754Y008595D02*
X006754Y008175D01*
X007035Y008595D01*
X007035Y008175D01*
X007215Y008245D02*
X007215Y008385D01*
X007355Y008385D01*
X007495Y008245D02*
X007425Y008175D01*
X007285Y008175D01*
X007215Y008245D01*
X007495Y008245D02*
X007495Y008525D01*
X007425Y008595D01*
X007285Y008595D01*
X007215Y008525D01*
X007285Y007820D02*
X007215Y007750D01*
X007215Y007680D01*
X007285Y007610D01*
X007215Y007540D01*
X007215Y007470D01*
X007285Y007400D01*
X007425Y007400D01*
X007495Y007470D01*
X007355Y007610D02*
X007285Y007610D01*
X007285Y007820D02*
X007425Y007820D01*
X007495Y007750D01*
X007035Y007820D02*
X007035Y007540D01*
X006894Y007400D01*
X006754Y007540D01*
X006754Y007820D01*
X006574Y007750D02*
X006504Y007820D01*
X006364Y007820D01*
X006294Y007750D01*
X006294Y007680D01*
X006364Y007610D01*
X006294Y007540D01*
X006294Y007470D01*
X006364Y007400D01*
X006504Y007400D01*
X006574Y007470D01*
X006434Y007610D02*
X006364Y007610D01*
D13*
X011460Y013685D02*
X011460Y015460D01*
X001785Y015460D01*
X007210Y020910D02*
X007485Y020635D01*
X026960Y020635D01*
X027210Y020885D01*
X027210Y022385D01*
X026960Y022635D01*
X007485Y022635D01*
X007210Y022360D01*
X007210Y020910D01*
X011460Y016435D02*
X011460Y015460D01*
X011944Y015595D02*
X012364Y015595D01*
X012504Y015455D01*
X012364Y015315D01*
X011944Y015315D01*
X011944Y015735D01*
X012084Y015875D01*
X012364Y015875D01*
X012865Y015875D02*
X013425Y015315D01*
X012865Y015315D01*
X012865Y015875D02*
X013425Y015875D01*
X013745Y015455D02*
X013745Y015315D01*
X013886Y015315D01*
X013886Y015455D01*
X013745Y015455D01*
X014246Y015455D02*
X014246Y015735D01*
X014386Y015875D01*
X014666Y015875D01*
X014806Y015735D01*
X014806Y015455D01*
X014666Y015315D01*
X014386Y015315D01*
X014246Y015455D01*
X015167Y015315D02*
X015587Y015315D01*
X015727Y015455D01*
X015727Y015735D01*
X015587Y015875D01*
X015167Y015875D01*
X016047Y015455D02*
X016047Y015315D01*
X016187Y015315D01*
X016187Y015455D01*
X016047Y015455D01*
X016548Y015595D02*
X017108Y015595D01*
X017108Y015455D02*
X017108Y015735D01*
X016968Y015875D01*
X016688Y015875D01*
X016548Y015735D01*
X016548Y015595D01*
X016688Y015315D02*
X016968Y015315D01*
X017108Y015455D01*
X017455Y015875D02*
X017595Y015875D01*
X017876Y015595D01*
X017876Y015315D02*
X017876Y015875D01*
X018236Y015735D02*
X018236Y015315D01*
X018656Y015315D01*
X018796Y015455D01*
X018656Y015595D01*
X018236Y015595D01*
X018236Y015735D02*
X018376Y015875D01*
X018656Y015875D01*
X019157Y015875D02*
X019157Y015455D01*
X019297Y015315D01*
X019437Y015455D01*
X019577Y015315D01*
X019717Y015455D01*
X019717Y015875D01*
X020077Y015875D02*
X020498Y015875D01*
X020638Y015735D01*
X020638Y015455D01*
X020498Y015315D01*
X020077Y015315D01*
X020077Y016156D01*
X020985Y015875D02*
X021125Y015875D01*
X021405Y015595D01*
X021405Y015315D02*
X021405Y015875D01*
X021766Y015735D02*
X021766Y015315D01*
X022186Y015315D01*
X022326Y015455D01*
X022186Y015595D01*
X021766Y015595D01*
X021766Y015735D02*
X021906Y015875D01*
X022186Y015875D01*
X022686Y015735D02*
X023247Y015735D01*
X023607Y015735D02*
X023607Y015315D01*
X023247Y015315D02*
X023247Y016156D01*
X023607Y015735D02*
X023747Y015875D01*
X024168Y015875D01*
X024168Y015315D01*
X024528Y015595D02*
X025088Y015595D01*
X025088Y015455D02*
X025088Y015735D01*
X024948Y015875D01*
X024668Y015875D01*
X024528Y015735D01*
X024528Y015595D01*
X024668Y015315D02*
X024948Y015315D01*
X025088Y015455D01*
X025449Y015455D02*
X025449Y015735D01*
X025589Y015875D01*
X026009Y015875D01*
X026009Y015035D01*
X026009Y015315D02*
X025589Y015315D01*
X025449Y015455D01*
X026370Y015455D02*
X026510Y015315D01*
X026790Y015315D01*
X026930Y015455D01*
X026930Y016016D01*
X026790Y016156D01*
X026510Y016156D01*
X026370Y016016D01*
X026370Y015455D01*
X027435Y015460D02*
X027435Y013685D01*
X011460Y013685D01*
X011460Y016435D02*
X027435Y016435D01*
X027435Y015460D01*
X027460Y015460D02*
X034260Y015460D01*
X022686Y015315D02*
X022686Y016156D01*
D14*
X022661Y014581D02*
X022661Y013990D01*
X022661Y014285D02*
X023055Y014285D01*
X023055Y013990D02*
X023055Y014581D01*
X022410Y014581D02*
X022410Y014482D01*
X022214Y014285D01*
X022214Y013990D01*
X022214Y014285D02*
X022017Y014482D01*
X022017Y014581D01*
X021766Y014482D02*
X021667Y014581D01*
X021471Y014581D01*
X021372Y014482D01*
X021372Y014384D01*
X021766Y013990D01*
X021372Y013990D01*
X021121Y014088D02*
X021121Y014187D01*
X021023Y014285D01*
X020826Y014285D01*
X020728Y014187D01*
X020728Y014088D01*
X020826Y013990D01*
X021023Y013990D01*
X021121Y014088D01*
X021023Y014285D02*
X021121Y014384D01*
X021121Y014482D01*
X021023Y014581D01*
X020826Y014581D01*
X020728Y014482D01*
X020728Y014384D01*
X020826Y014285D01*
X020477Y014285D02*
X020182Y014285D01*
X020083Y014187D01*
X020083Y014088D01*
X020182Y013990D01*
X020477Y013990D01*
X020477Y014581D01*
X020182Y014581D01*
X020083Y014482D01*
X020083Y014384D01*
X020182Y014285D01*
X019832Y014285D02*
X019439Y014285D01*
X019188Y014187D02*
X018892Y014187D01*
X018794Y014285D01*
X018794Y014482D01*
X018892Y014581D01*
X019188Y014581D01*
X019188Y013990D01*
X018991Y014187D02*
X018794Y013990D01*
X018543Y013990D02*
X018543Y014581D01*
X018248Y014581D01*
X018149Y014482D01*
X018149Y014285D01*
X018248Y014187D01*
X018543Y014187D01*
X017899Y013990D02*
X017702Y013990D01*
X017800Y013990D02*
X017800Y014581D01*
X017702Y014581D02*
X017899Y014581D01*
X017469Y014285D02*
X017075Y014285D01*
X016824Y014581D02*
X016431Y014581D01*
X016628Y014581D02*
X016628Y013990D01*
X016180Y013990D02*
X016180Y014581D01*
X015786Y014581D01*
X015535Y014581D02*
X015142Y014581D01*
X015338Y014581D02*
X015338Y013990D01*
X015983Y014285D02*
X016180Y014285D01*
D15*
X006803Y021723D02*
X006803Y021857D01*
X006770Y021890D01*
X006703Y021890D01*
X006670Y021857D01*
X006670Y021790D02*
X006736Y021790D01*
X006670Y021790D02*
X006670Y021723D01*
X006703Y021690D01*
X006770Y021690D01*
X006803Y021723D01*
X006582Y021690D02*
X006582Y021890D01*
X006449Y021690D01*
X006449Y021890D01*
X006361Y021890D02*
X006361Y021690D01*
X006261Y021690D01*
X006228Y021723D01*
X006228Y021857D01*
X006261Y021890D01*
X006361Y021890D01*
D16*
X007228Y022396D02*
X007228Y020896D01*
X007478Y020646D01*
X007978Y020646D01*
X008228Y020896D01*
X008478Y020646D01*
X008978Y020646D01*
X009228Y020896D01*
X009478Y020646D01*
X009978Y020646D01*
X010228Y020896D01*
X010478Y020646D01*
X010978Y020646D01*
X011228Y020896D01*
X011478Y020646D01*
X011978Y020646D01*
X012228Y020896D01*
X012478Y020646D01*
X012978Y020646D01*
X013228Y020896D01*
X013478Y020646D01*
X013978Y020646D01*
X014228Y020896D01*
X014478Y020646D01*
X014978Y020646D01*
X015228Y020896D01*
X015478Y020646D01*
X015978Y020646D01*
X016228Y020896D01*
X016478Y020646D01*
X016978Y020646D01*
X017228Y020896D01*
X017478Y020646D01*
X017978Y020646D01*
X018228Y020896D01*
X018478Y020646D01*
X018978Y020646D01*
X019228Y020896D01*
X019478Y020646D01*
X019978Y020646D01*
X020228Y020896D01*
X020478Y020646D01*
X020978Y020646D01*
X021228Y020896D01*
X021478Y020646D01*
X021978Y020646D01*
X022228Y020896D01*
X022478Y020646D01*
X022978Y020646D01*
X023228Y020896D01*
X023478Y020646D01*
X023978Y020646D01*
X024228Y020896D01*
X024478Y020646D01*
X024978Y020646D01*
X025228Y020896D01*
X025478Y020646D01*
X025978Y020646D01*
X026228Y020896D01*
X026478Y020646D01*
X026978Y020646D01*
X027228Y020896D01*
X027228Y022396D01*
X026978Y022646D01*
X026478Y022646D01*
X026228Y022396D01*
X025978Y022646D01*
X025478Y022646D01*
X025228Y022396D01*
X024978Y022646D01*
X024478Y022646D01*
X024228Y022396D01*
X023978Y022646D01*
X023478Y022646D01*
X023228Y022396D01*
X022978Y022646D01*
X022478Y022646D01*
X022228Y022396D01*
X021978Y022646D01*
X021478Y022646D01*
X021228Y022396D01*
X020978Y022646D01*
X020478Y022646D01*
X020228Y022396D01*
X019978Y022646D01*
X019478Y022646D01*
X019228Y022396D01*
X018978Y022646D01*
X018478Y022646D01*
X018228Y022396D01*
X017978Y022646D01*
X017478Y022646D01*
X017228Y022396D01*
X016978Y022646D01*
X016478Y022646D01*
X016228Y022396D01*
X015978Y022646D01*
X015478Y022646D01*
X015228Y022396D01*
X014978Y022646D01*
X014478Y022646D01*
X014228Y022396D01*
X013978Y022646D01*
X013478Y022646D01*
X013228Y022396D01*
X012978Y022646D01*
X012478Y022646D01*
X012228Y022396D01*
X011978Y022646D01*
X011478Y022646D01*
X011228Y022396D01*
X010978Y022646D01*
X010478Y022646D01*
X010228Y022396D01*
X009978Y022646D01*
X009478Y022646D01*
X009228Y022396D01*
X008978Y022646D01*
X008478Y022646D01*
X008228Y022396D01*
X007978Y022646D01*
X007478Y022646D01*
X007228Y022396D01*
D17*
X007664Y022821D02*
X007964Y022821D01*
X007814Y022821D02*
X007814Y023272D01*
X007964Y023122D01*
M02*
