%
M48
M72
T01C0.0236
T02C0.0394
T03C0.0400
T04C0.1083
T05C0.1260
%
T01
X4903Y23388
X5671Y22585
X5671Y21798
X5671Y21010
X5671Y20223
X5671Y19435
X5671Y18648
X5671Y17861
X5671Y17073
X5671Y16286
X5671Y15498
X5671Y14711
X5671Y13924
X5671Y13136
X5671Y12349
X5671Y11561
X5671Y10774
X5671Y9987
X5671Y9199
X5671Y8412
X5671Y7624
X6445Y6134
X3360Y7185
X9030Y8877
X9820Y9884
X12110Y9460
X14246Y10960
X11820Y12384
X9820Y12259
X9037Y12641
X11820Y14009
X11195Y15009
X10320Y15634
X9024Y16161
X10195Y17009
X11195Y17009
X12320Y17009
X13810Y17510
X15195Y19159
X15795Y19159
X16310Y19160
X16820Y19009
X17435Y19035
X16820Y18134
X17945Y18009
X17945Y17009
X18945Y19634
X16309Y20107
X15782Y20097
X15195Y20097
X14195Y20134
X11945Y19884
X10945Y19759
X10070Y20134
X9070Y19759
X6593Y23202
X8052Y23388
X4036Y21789
X3445Y22634
X3445Y20759
X17029Y12924
X22320Y16009
X21446Y17340
X27945Y18009
X30454Y17490
X31070Y17009
X31445Y16509
X31695Y15884
X32820Y16509
X33195Y15884
X33570Y17009
X34805Y17073
X34805Y16286
X34805Y15498
X34805Y14711
X34805Y13924
X34805Y13136
X34805Y12349
X34805Y11561
X34805Y10774
X34805Y9987
X34805Y9199
X34805Y8412
X34805Y7624
X34710Y5735
X29652Y10790
X30820Y11509
X30195Y11884
X29570Y12259
X32671Y10470
X33420Y10547
X34805Y17861
X34805Y18648
X34805Y19435
X34805Y20223
X34805Y21010
X34805Y21798
X34805Y22585
X29895Y22622
X25442Y22940
T02
X5300Y25293
X6300Y25293
X6300Y24293
X5300Y24293
X7300Y24293
X7300Y25293
X8300Y25293
X9300Y25293
X9300Y24293
X8300Y24293
X10300Y24293
X10300Y25293
X11300Y25293
X12300Y25293
X12300Y24293
X11300Y24293
X13300Y24293
X13300Y25293
X14300Y25293
X15300Y25293
X15300Y24293
X14300Y24293
X16300Y24293
X16300Y25293
X17300Y25293
X18300Y25293
X18300Y24293
X17300Y24293
X19300Y24293
X20300Y24293
X20300Y25293
X19300Y25293
X21300Y25293
X21300Y24293
X22300Y24293
X23300Y24293
X23300Y25293
X22300Y25293
X24300Y25293
X24300Y24293
T03
X7728Y22146
X8728Y22146
X9728Y22146
X10728Y22146
X11728Y22146
X12728Y22146
X13728Y22146
X14728Y22146
X15728Y22146
X16728Y22146
X17728Y22146
X18728Y22146
X19728Y22146
X20728Y22146
X21728Y22146
X22728Y22146
X23728Y22146
X24728Y22146
X25728Y22146
X26728Y22146
X26728Y21146
X25728Y21146
X24728Y21146
X23728Y21146
X22728Y21146
X21728Y21146
X20728Y21146
X19728Y21146
X18728Y21146
X17728Y21146
X16728Y21146
X15728Y21146
X14728Y21146
X13728Y21146
X12728Y21146
X11728Y21146
X10728Y21146
X9728Y21146
X8728Y21146
X7728Y21146
X19470Y9181
X20470Y9081
X21470Y9181
X22470Y9081
X19072Y5581
X18072Y5681
X17072Y5581
X16072Y5681
X15072Y5581
X14072Y5681
X23995Y14715
X24995Y14715
T04
X3383Y24793
X26217Y24793
X26217Y5502
X3383Y5502
T05
X3131Y27522
X34430Y27522
X34430Y2916
X3131Y2916
M30
