G75*
G70*
%OFA0B0*%
%FSLAX24Y24*%
%IPPOS*%
%LPD*%
%AMOC8*
5,1,8,0,0,1.08239X$1,22.5*
%
%ADD10C,0.0440*%
%ADD11C,0.0800*%
%ADD12C,0.0660*%
%ADD13C,0.1300*%
%ADD14OC8,0.0520*%
%ADD15C,0.0740*%
%ADD16C,0.0520*%
%ADD17C,0.0554*%
%ADD18C,0.0080*%
%ADD19R,0.0500X0.0250*%
%ADD20C,0.0594*%
%ADD21OC8,0.0630*%
%ADD22C,0.0630*%
%ADD23C,0.0591*%
%ADD24R,0.0740X0.0740*%
%ADD25OC8,0.0740*%
%ADD26C,0.0660*%
%ADD27C,0.0705*%
%ADD28C,0.1024*%
%ADD29C,0.1000*%
%ADD30OC8,0.1000*%
%ADD31C,0.1142*%
%ADD32R,0.0250X0.0500*%
%ADD33C,0.0600*%
%ADD34C,0.0500*%
%ADD35C,0.0160*%
%ADD36R,0.0396X0.0396*%
%ADD37C,0.0320*%
%ADD38C,0.0240*%
%ADD39C,0.0560*%
%ADD40C,0.1000*%
%ADD41C,0.1500*%
D10*
X053925Y011586D02*
X053925Y012026D01*
X055925Y012026D02*
X055925Y011586D01*
X061675Y005526D02*
X061675Y005086D01*
X063675Y005086D02*
X063675Y005526D01*
D11*
X065675Y005856D03*
X065675Y004756D03*
X059675Y004756D03*
X057725Y004931D03*
X056625Y004931D03*
X059675Y005856D03*
X051675Y005756D03*
X050425Y005756D03*
X048175Y005756D03*
X048175Y006856D03*
X050425Y006856D03*
X051675Y006856D03*
X061425Y011256D03*
X061425Y012356D03*
X064875Y013806D03*
X065975Y013806D03*
X067250Y013806D03*
X068350Y013806D03*
X048725Y012556D03*
X047625Y012556D03*
X047625Y024556D03*
X048725Y024556D03*
X049875Y024556D03*
X050975Y024556D03*
X055875Y024556D03*
X056975Y024556D03*
X058125Y024556D03*
X059225Y024556D03*
X064125Y024556D03*
X065225Y024556D03*
X066375Y024556D03*
X067475Y024556D03*
X072375Y024556D03*
X073475Y024556D03*
X042725Y024556D03*
X041625Y024556D03*
X040475Y024556D03*
X039375Y024556D03*
X034475Y024556D03*
X033375Y024556D03*
D12*
X071145Y012548D03*
X071925Y012548D03*
X071925Y011564D03*
X071145Y011564D03*
D13*
X072995Y009686D03*
X072995Y014426D03*
D14*
X072425Y019806D03*
X072425Y022806D03*
X064175Y022806D03*
X064175Y019806D03*
X055925Y019806D03*
X055925Y022806D03*
X047675Y022806D03*
X047675Y019806D03*
X039425Y019806D03*
X038175Y017556D03*
X035925Y017556D03*
X033675Y017556D03*
X030675Y017306D03*
X024925Y017306D03*
X018925Y017306D03*
X018925Y020306D03*
X024925Y020306D03*
X030675Y020306D03*
X029425Y022931D03*
X031675Y023806D03*
X031675Y024806D03*
X032425Y022931D03*
X026425Y022931D03*
X025675Y023806D03*
X025675Y024806D03*
X023425Y022931D03*
X020425Y022931D03*
X019675Y023806D03*
X019675Y024806D03*
X017425Y022931D03*
X033675Y014556D03*
X035925Y014556D03*
X038175Y014556D03*
X046675Y010556D03*
X049675Y010556D03*
X066925Y007306D03*
X066925Y006306D03*
X066925Y005306D03*
X069925Y005306D03*
X071175Y005806D03*
X072175Y005806D03*
X069925Y006306D03*
X069925Y007306D03*
X071175Y007806D03*
X072175Y007806D03*
X039425Y022806D03*
X017800Y012056D03*
X014800Y012056D03*
X014800Y010681D03*
X017800Y010681D03*
X018175Y008306D03*
X019175Y008306D03*
X016550Y008306D03*
X015550Y008306D03*
D15*
X055895Y003446D03*
X058455Y003446D03*
X060395Y003446D03*
X062955Y003446D03*
X062955Y001666D03*
X060395Y001666D03*
X058455Y001666D03*
X055895Y001666D03*
X019675Y025556D03*
X025675Y025681D03*
X031675Y025681D03*
X031675Y028681D03*
X025675Y028681D03*
X019675Y028556D03*
D16*
X039425Y014566D02*
X039425Y014046D01*
X040425Y014046D02*
X040425Y014566D01*
X041425Y014566D02*
X041425Y014046D01*
X042425Y014046D02*
X042425Y014566D01*
X043425Y014566D02*
X043425Y014046D01*
X044425Y014046D02*
X044425Y014566D01*
X045425Y014566D02*
X045425Y014046D01*
X046425Y014046D02*
X046425Y014566D01*
X047425Y014566D02*
X047425Y014046D01*
X048425Y014046D02*
X048425Y014566D01*
X049425Y014566D02*
X049425Y014046D01*
X050425Y014046D02*
X050425Y014566D01*
X051425Y014566D02*
X051425Y014046D01*
X052425Y014046D02*
X052425Y014566D01*
X053425Y014566D02*
X053425Y014046D01*
X054425Y014046D02*
X054425Y014566D01*
X055425Y014566D02*
X055425Y014046D01*
X056425Y014046D02*
X056425Y014566D01*
X057425Y014566D02*
X057425Y014046D01*
X058425Y014046D02*
X058425Y014566D01*
X058425Y008566D02*
X058425Y008046D01*
X057425Y008046D02*
X057425Y008566D01*
X056425Y008566D02*
X056425Y008046D01*
X055425Y008046D02*
X055425Y008566D01*
X054425Y008566D02*
X054425Y008046D01*
X053425Y008046D02*
X053425Y008566D01*
X052425Y008566D02*
X052425Y008046D01*
X051425Y008046D02*
X051425Y008566D01*
X050425Y008566D02*
X050425Y008046D01*
X049425Y008046D02*
X049425Y008566D01*
X048425Y008566D02*
X048425Y008046D01*
X047425Y008046D02*
X047425Y008566D01*
X046425Y008566D02*
X046425Y008046D01*
X045425Y008046D02*
X045425Y008566D01*
X044425Y008566D02*
X044425Y008046D01*
X043425Y008046D02*
X043425Y008566D01*
X042425Y008566D02*
X042425Y008046D01*
X041425Y008046D02*
X041425Y008566D01*
X040425Y008566D02*
X040425Y008046D01*
X039425Y008046D02*
X039425Y008566D01*
D17*
X039425Y018556D03*
X040425Y018556D03*
X041675Y018556D03*
X042675Y018556D03*
X043675Y018556D03*
X044675Y018556D03*
X045675Y018556D03*
X046675Y018556D03*
X047675Y018556D03*
X048675Y018556D03*
X049925Y018556D03*
X050925Y018556D03*
X051925Y018556D03*
X052925Y018556D03*
X053925Y018556D03*
X054925Y018556D03*
X055925Y018556D03*
X056925Y018556D03*
X058175Y018556D03*
X059175Y018556D03*
X060175Y018556D03*
X061175Y018556D03*
X062175Y018556D03*
X063175Y018556D03*
X064175Y018556D03*
X065175Y018556D03*
X066425Y018556D03*
X067425Y018556D03*
X068425Y018556D03*
X069425Y018556D03*
X070425Y018556D03*
X071425Y018556D03*
X072425Y018556D03*
X073425Y018556D03*
X073425Y023556D03*
X072425Y023556D03*
X071425Y023556D03*
X070425Y023556D03*
X069425Y023556D03*
X068425Y023556D03*
X067425Y023556D03*
X066425Y023556D03*
X065175Y023556D03*
X064175Y023556D03*
X063175Y023556D03*
X062175Y023556D03*
X061175Y023556D03*
X060175Y023556D03*
X059175Y023556D03*
X058175Y023556D03*
X056925Y023556D03*
X055925Y023556D03*
X054925Y023556D03*
X053925Y023556D03*
X052925Y023556D03*
X051925Y023556D03*
X050925Y023556D03*
X049925Y023556D03*
X048675Y023556D03*
X047675Y023556D03*
X046675Y023556D03*
X045675Y023556D03*
X044675Y023556D03*
X043675Y023556D03*
X042675Y023556D03*
X041675Y023556D03*
X040425Y023556D03*
X039425Y023556D03*
X038425Y023556D03*
X037425Y023556D03*
X036425Y023556D03*
X035425Y023556D03*
X034425Y023556D03*
X033425Y023556D03*
X033425Y018556D03*
X034425Y018556D03*
X035425Y018556D03*
X036425Y018556D03*
X037425Y018556D03*
X038425Y018556D03*
D18*
X036425Y019406D02*
X036425Y019706D01*
X035425Y019706D02*
X035425Y019406D01*
X043675Y019406D02*
X043675Y019706D01*
X044675Y019706D02*
X044675Y019406D01*
X051925Y019406D02*
X051925Y019706D01*
X052925Y019706D02*
X052925Y019406D01*
X060175Y019406D02*
X060175Y019706D01*
X061175Y019706D02*
X061175Y019406D01*
X068425Y019406D02*
X068425Y019706D01*
X069425Y019706D02*
X069425Y019406D01*
X016575Y004306D02*
X016275Y004306D01*
D19*
X035425Y019356D03*
X035425Y019756D03*
X036425Y019756D03*
X036425Y019356D03*
X043675Y019356D03*
X043675Y019756D03*
X044675Y019756D03*
X044675Y019356D03*
X051925Y019356D03*
X051925Y019756D03*
X052925Y019756D03*
X052925Y019356D03*
X060175Y019356D03*
X060175Y019756D03*
X061175Y019756D03*
X061175Y019356D03*
X068425Y019356D03*
X068425Y019756D03*
X069425Y019756D03*
X069425Y019356D03*
D20*
X069425Y026009D02*
X069425Y026603D01*
X070425Y026603D02*
X070425Y026009D01*
X071425Y026009D02*
X071425Y026603D01*
X068425Y026603D02*
X068425Y026009D01*
X063175Y026009D02*
X063175Y026603D01*
X062175Y026603D02*
X062175Y026009D01*
X061175Y026009D02*
X061175Y026603D01*
X060175Y026603D02*
X060175Y026009D01*
X054925Y026009D02*
X054925Y026603D01*
X053925Y026603D02*
X053925Y026009D01*
X052925Y026009D02*
X052925Y026603D01*
X051925Y026603D02*
X051925Y026009D01*
X046675Y026009D02*
X046675Y026603D01*
X045675Y026603D02*
X045675Y026009D01*
X044675Y026009D02*
X044675Y026603D01*
X043675Y026603D02*
X043675Y026009D01*
X038425Y026009D02*
X038425Y026603D01*
X037425Y026603D02*
X037425Y026009D01*
X036425Y026009D02*
X036425Y026603D01*
X035425Y026603D02*
X035425Y026009D01*
X036425Y002853D02*
X036425Y002259D01*
X037425Y002259D02*
X037425Y002853D01*
X039675Y002853D02*
X039675Y002259D01*
X040675Y002259D02*
X040675Y002853D01*
X042925Y002853D02*
X042925Y002259D01*
X043925Y002259D02*
X043925Y002853D01*
X044925Y002853D02*
X044925Y002259D01*
X047425Y002259D02*
X047425Y002853D01*
X048425Y002853D02*
X048425Y002259D01*
X049425Y002259D02*
X049425Y002853D01*
X051925Y002853D02*
X051925Y002259D01*
X052925Y002259D02*
X052925Y002853D01*
X053925Y002853D02*
X053925Y002259D01*
X034175Y002259D02*
X034175Y002853D01*
X033175Y002853D02*
X033175Y002259D01*
D21*
X032300Y013431D03*
X034550Y013431D03*
X036800Y013431D03*
D22*
X035550Y013431D03*
X033300Y013431D03*
X037800Y013431D03*
D23*
X059925Y013431D03*
X059925Y009431D03*
D24*
X037300Y011181D03*
D25*
X036300Y011181D03*
X035300Y011181D03*
X035300Y010181D03*
X036300Y010181D03*
X037300Y010181D03*
D26*
X028925Y021476D02*
X028925Y022136D01*
X027925Y022136D02*
X027925Y021476D01*
X026925Y021476D02*
X026925Y022136D01*
X023175Y022136D02*
X023175Y021476D01*
X022175Y021476D02*
X022175Y022136D01*
X021175Y022136D02*
X021175Y021476D01*
X017175Y021476D02*
X017175Y022136D01*
X016175Y022136D02*
X016175Y021476D01*
X015175Y021476D02*
X015175Y022136D01*
D27*
X015691Y025204D02*
X015691Y025909D01*
X017659Y025909D02*
X017659Y025204D01*
X021691Y025204D02*
X021691Y025909D01*
X023659Y025909D02*
X023659Y025204D01*
X027691Y025204D02*
X027691Y025909D01*
X029659Y025909D02*
X029659Y025204D01*
D28*
X012437Y023681D02*
X011413Y023681D01*
X011413Y021681D02*
X012437Y021681D01*
X012437Y019681D02*
X011413Y019681D01*
X011413Y017681D02*
X012437Y017681D01*
X012437Y014056D02*
X011413Y014056D01*
X011413Y012056D02*
X012437Y012056D01*
X012437Y010056D02*
X011413Y010056D01*
X011413Y008056D02*
X012437Y008056D01*
D29*
X023300Y010681D03*
X026925Y010681D03*
D30*
X028925Y010681D03*
X021300Y010681D03*
D31*
X008839Y010115D03*
X006674Y010115D03*
X006674Y011769D03*
X008839Y011769D03*
X008839Y013422D03*
X006674Y013422D03*
X006674Y015076D03*
X008839Y015076D03*
X008839Y016729D03*
X006674Y016729D03*
X006674Y018383D03*
X008839Y018383D03*
X008839Y020036D03*
X006674Y020036D03*
X006674Y021690D03*
X008839Y021690D03*
X008839Y023344D03*
X006674Y023344D03*
X006674Y024997D03*
X008839Y024997D03*
X008839Y026651D03*
X006674Y026651D03*
X006674Y008462D03*
X008839Y008462D03*
D32*
X014998Y004306D03*
X015352Y004306D03*
X016225Y004306D03*
X016625Y004306D03*
D33*
X044425Y006381D02*
X044425Y006981D01*
X045425Y006981D02*
X045425Y006381D01*
X054425Y006381D02*
X054425Y006981D01*
X055425Y006981D02*
X055425Y006381D01*
X056425Y006381D02*
X056425Y006981D01*
X057425Y006981D02*
X057425Y006381D01*
X060300Y014881D02*
X060300Y015481D01*
X061300Y015481D02*
X061300Y014881D01*
X062300Y014881D02*
X062300Y015481D01*
D34*
X062175Y018556D02*
X063175Y018556D01*
X070425Y018556D02*
X071425Y018556D01*
X072425Y022806D02*
X072425Y023556D01*
X072425Y024556D01*
X072375Y024556D01*
X073425Y024556D02*
X073425Y023556D01*
X073425Y024556D02*
X073475Y024556D01*
X071425Y023556D02*
X071425Y026306D01*
X070425Y026306D02*
X070425Y023556D01*
X069425Y023556D02*
X069425Y023806D01*
X069425Y026306D01*
X068425Y026306D02*
X068425Y023556D01*
X066425Y023556D02*
X066425Y024506D01*
X066375Y024556D01*
X066425Y024556D01*
X065225Y024556D02*
X065175Y024556D01*
X065175Y023556D01*
X064175Y023556D02*
X064175Y022806D01*
X064175Y023556D02*
X064175Y024556D01*
X064125Y024556D01*
X063175Y023556D02*
X063175Y026306D01*
X062175Y026306D02*
X062175Y023556D01*
X061175Y023556D02*
X061175Y026306D01*
X060175Y026306D02*
X060175Y023556D01*
X058175Y023556D02*
X058175Y024506D01*
X058125Y024556D01*
X056975Y024556D02*
X056925Y024556D01*
X056925Y023556D01*
X055925Y023556D02*
X055925Y022806D01*
X055925Y023556D02*
X055925Y024556D01*
X055875Y024556D01*
X054925Y023556D02*
X054925Y026306D01*
X053925Y026306D02*
X053925Y023556D01*
X052925Y023556D02*
X052925Y026306D01*
X051925Y026306D02*
X051925Y023806D01*
X051925Y023556D01*
X050975Y023556D02*
X050975Y024556D01*
X049925Y024556D02*
X049875Y024556D01*
X049925Y024506D01*
X049925Y023556D01*
X048675Y023556D02*
X048675Y024556D01*
X048725Y024556D01*
X047675Y023556D02*
X047675Y022806D01*
X046675Y023556D02*
X046675Y026306D01*
X045675Y026306D02*
X045675Y023556D01*
X044675Y023556D02*
X044675Y026306D01*
X043675Y026306D02*
X043675Y023806D01*
X043675Y023556D01*
X042675Y023556D02*
X042675Y024556D01*
X042725Y024556D01*
X041925Y024556D02*
X041925Y024306D01*
X041675Y023556D01*
X040425Y023556D02*
X040425Y024556D01*
X040475Y024556D01*
X039425Y024556D02*
X039425Y023556D01*
X039425Y022806D01*
X038425Y023556D02*
X038425Y026306D01*
X037425Y026306D02*
X037425Y023556D01*
X036425Y023556D02*
X036425Y026306D01*
X035425Y026306D02*
X035425Y023556D01*
X034425Y023556D02*
X034425Y024556D01*
X034475Y024556D01*
X039375Y024556D02*
X039425Y024556D01*
X041625Y024556D02*
X041925Y024556D01*
X050925Y023556D02*
X050975Y023556D01*
X053925Y018556D02*
X054925Y018556D01*
X046675Y018556D02*
X045675Y018556D01*
X038425Y018556D02*
X037425Y018556D01*
D35*
X014698Y003764D02*
X009998Y003764D01*
X009839Y003922D02*
X014698Y003922D01*
X014698Y003977D02*
X014698Y003549D01*
X014744Y003438D01*
X014921Y003261D01*
X015005Y003177D01*
X015115Y003131D01*
X016110Y003131D01*
X016175Y003158D01*
X016240Y003131D01*
X021324Y003131D01*
X021402Y003053D01*
X021948Y003053D01*
X022053Y003158D01*
X022053Y003704D01*
X021948Y003809D01*
X021402Y003809D01*
X021324Y003731D01*
X016525Y003731D01*
X016525Y003876D01*
X016825Y003876D01*
X016930Y003982D01*
X016930Y004631D01*
X016925Y004636D01*
X016925Y005030D01*
X016928Y005033D01*
X016928Y005579D01*
X016836Y005671D01*
X020192Y005671D01*
X024830Y001034D01*
X024903Y000961D01*
X024938Y000946D01*
X014082Y000946D01*
X014140Y001163D01*
X014140Y001450D01*
X014066Y001727D01*
X013922Y001976D01*
X013719Y002179D01*
X023685Y002179D01*
X023526Y002337D02*
X013415Y002337D01*
X013471Y002322D02*
X013194Y002396D01*
X012906Y002396D01*
X012629Y002322D01*
X012381Y002179D01*
X011583Y002179D01*
X011424Y002337D02*
X012685Y002337D01*
X012381Y002179D02*
X012178Y001976D01*
X012034Y001727D01*
X008596Y005165D01*
X008844Y005309D01*
X009047Y005512D01*
X009191Y005760D01*
X009265Y006038D01*
X009265Y006325D01*
X009191Y006602D01*
X009047Y006851D01*
X008844Y007054D01*
X008596Y007197D01*
X008319Y007271D01*
X008031Y007271D01*
X007754Y007197D01*
X007506Y007054D01*
X007303Y006851D01*
X007159Y006602D01*
X006065Y007696D01*
X006065Y008009D01*
X006249Y007825D01*
X006525Y007711D01*
X006823Y007711D01*
X007099Y007825D01*
X007311Y008036D01*
X007425Y008312D01*
X007425Y008611D01*
X007311Y008887D01*
X007099Y009098D01*
X006823Y009212D01*
X006525Y009212D01*
X006249Y009098D01*
X006065Y008914D01*
X006065Y009662D01*
X006249Y009479D01*
X006525Y009364D01*
X006823Y009364D01*
X007099Y009479D01*
X007311Y009690D01*
X007425Y009966D01*
X007425Y010265D01*
X007311Y010540D01*
X007099Y010752D01*
X006823Y010866D01*
X006525Y010866D01*
X006249Y010752D01*
X006065Y010568D01*
X006065Y011316D01*
X006249Y011132D01*
X006525Y011018D01*
X006823Y011018D01*
X007099Y011132D01*
X007311Y011343D01*
X007425Y011619D01*
X007425Y011918D01*
X007311Y012194D01*
X007099Y012405D01*
X006823Y012520D01*
X006525Y012520D01*
X006249Y012405D01*
X006065Y012222D01*
X006065Y012969D01*
X006249Y012786D01*
X006525Y012671D01*
X006823Y012671D01*
X007099Y012786D01*
X007311Y012997D01*
X007425Y013273D01*
X007425Y013572D01*
X007311Y013848D01*
X007099Y014059D01*
X006823Y014173D01*
X006525Y014173D01*
X006249Y014059D01*
X006065Y013875D01*
X006065Y014623D01*
X006249Y014439D01*
X006525Y014325D01*
X006823Y014325D01*
X007099Y014439D01*
X007311Y014650D01*
X007425Y014926D01*
X007425Y015225D01*
X007311Y015501D01*
X007099Y015712D01*
X006823Y015827D01*
X006525Y015827D01*
X006249Y015712D01*
X006065Y015529D01*
X006065Y016499D01*
X006089Y016441D01*
X006132Y016367D01*
X006184Y016299D01*
X006244Y016239D01*
X006312Y016187D01*
X006386Y016144D01*
X006464Y016112D01*
X006547Y016090D01*
X006594Y016083D01*
X006594Y016649D01*
X006754Y016649D01*
X006754Y016083D01*
X006801Y016090D01*
X006884Y016112D01*
X006963Y016144D01*
X007036Y016187D01*
X007104Y016239D01*
X007164Y016299D01*
X007216Y016367D01*
X007259Y016441D01*
X007292Y016520D01*
X007314Y016602D01*
X007320Y016649D01*
X006754Y016649D01*
X006754Y016809D01*
X007320Y016809D01*
X007314Y016857D01*
X007292Y016939D01*
X007259Y017018D01*
X007216Y017092D01*
X007164Y017159D01*
X007104Y017220D01*
X007036Y017272D01*
X006963Y017314D01*
X006884Y017347D01*
X006801Y017369D01*
X006754Y017375D01*
X006754Y016809D01*
X006594Y016809D01*
X006594Y017375D01*
X006547Y017369D01*
X006464Y017347D01*
X006386Y017314D01*
X006312Y017272D01*
X006244Y017220D01*
X006184Y017159D01*
X006132Y017092D01*
X006089Y017018D01*
X006065Y016960D01*
X006065Y017930D01*
X006249Y017746D01*
X006525Y017632D01*
X006823Y017632D01*
X007099Y017746D01*
X007311Y017958D01*
X007425Y018234D01*
X007425Y018532D01*
X007311Y018808D01*
X007099Y019019D01*
X006823Y019134D01*
X006525Y019134D01*
X006249Y019019D01*
X006065Y018836D01*
X006065Y019806D01*
X006089Y019748D01*
X006132Y019674D01*
X006184Y019606D01*
X006244Y019546D01*
X006312Y019494D01*
X006386Y019451D01*
X006464Y019419D01*
X006547Y019397D01*
X006594Y019390D01*
X006594Y019956D01*
X006754Y019956D01*
X006754Y019390D01*
X006801Y019397D01*
X006884Y019419D01*
X006963Y019451D01*
X007036Y019494D01*
X007104Y019546D01*
X007164Y019606D01*
X007216Y019674D01*
X007259Y019748D01*
X007292Y019827D01*
X007314Y019909D01*
X007320Y019956D01*
X006754Y019956D01*
X006754Y020116D01*
X007320Y020116D01*
X007314Y020164D01*
X007292Y020246D01*
X007259Y020325D01*
X007216Y020399D01*
X007164Y020466D01*
X007104Y020527D01*
X007036Y020579D01*
X006963Y020621D01*
X006884Y020654D01*
X006801Y020676D01*
X006754Y020682D01*
X006754Y020116D01*
X006594Y020116D01*
X006594Y020682D01*
X006547Y020676D01*
X006464Y020654D01*
X006386Y020621D01*
X006312Y020579D01*
X006244Y020527D01*
X006184Y020466D01*
X006132Y020399D01*
X006089Y020325D01*
X006065Y020267D01*
X006065Y021237D01*
X006249Y021053D01*
X006525Y020939D01*
X006823Y020939D01*
X007099Y021053D01*
X007311Y021265D01*
X007425Y021541D01*
X007425Y021839D01*
X007311Y022115D01*
X007099Y022327D01*
X006823Y022441D01*
X006525Y022441D01*
X006249Y022327D01*
X006065Y022143D01*
X006065Y022681D01*
X008476Y022681D01*
X008690Y022593D01*
X008989Y022593D01*
X009202Y022681D01*
X015325Y022681D01*
X015362Y022592D01*
X015502Y022451D01*
X015502Y022384D01*
X015488Y022403D01*
X015442Y022449D01*
X015390Y022487D01*
X015332Y022516D01*
X015271Y022536D01*
X015207Y022546D01*
X015205Y022546D01*
X015205Y021836D01*
X015145Y021836D01*
X015145Y021776D01*
X015205Y021776D01*
X015205Y021066D01*
X015207Y021066D01*
X015271Y021076D01*
X015332Y021096D01*
X015390Y021125D01*
X015442Y021163D01*
X015488Y021209D01*
X015526Y021261D01*
X015555Y021319D01*
X015575Y021380D01*
X015585Y021444D01*
X015585Y021450D01*
X015594Y021427D01*
X015679Y021341D01*
X015743Y021187D01*
X015886Y021044D01*
X016074Y020966D01*
X016276Y020966D01*
X016464Y021044D01*
X016607Y021187D01*
X016670Y021339D01*
X016677Y021346D01*
X016743Y021187D01*
X016886Y021044D01*
X017074Y020966D01*
X017276Y020966D01*
X017464Y021044D01*
X017557Y021137D01*
X018485Y020341D01*
X018485Y020124D01*
X018743Y019866D01*
X019107Y019866D01*
X019365Y020124D01*
X019365Y020488D01*
X019107Y020746D01*
X018811Y020746D01*
X017685Y021711D01*
X017685Y022238D01*
X017607Y022425D01*
X017541Y022491D01*
X017607Y022491D01*
X017797Y022681D01*
X020053Y022681D01*
X020243Y022491D01*
X020607Y022491D01*
X020797Y022681D01*
X021245Y022681D01*
X021245Y022621D01*
X021282Y022533D01*
X021271Y022536D01*
X021207Y022546D01*
X021205Y022546D01*
X021205Y021836D01*
X021145Y021836D01*
X021145Y021776D01*
X021205Y021776D01*
X021205Y021066D01*
X021207Y021066D01*
X021271Y021076D01*
X021332Y021096D01*
X021390Y021125D01*
X021442Y021163D01*
X021488Y021209D01*
X021526Y021261D01*
X021555Y021319D01*
X021575Y021380D01*
X021585Y021444D01*
X021585Y021454D01*
X021599Y021421D01*
X021679Y021340D01*
X021743Y021187D01*
X021886Y021044D01*
X022074Y020966D01*
X022276Y020966D01*
X022464Y021044D01*
X022607Y021187D01*
X022671Y021340D01*
X022677Y021346D01*
X022743Y021187D01*
X022886Y021044D01*
X023074Y020966D01*
X023276Y020966D01*
X023464Y021044D01*
X023557Y021137D01*
X024485Y020341D01*
X024485Y020124D01*
X024743Y019866D01*
X025107Y019866D01*
X025365Y020124D01*
X025365Y020488D01*
X025107Y020746D01*
X024811Y020746D01*
X023685Y021711D01*
X023685Y022238D01*
X023607Y022425D01*
X023541Y022491D01*
X023607Y022491D01*
X023797Y022681D01*
X026053Y022681D01*
X026243Y022491D01*
X026607Y022491D01*
X026797Y022681D01*
X026995Y022681D01*
X026995Y022621D01*
X027032Y022533D01*
X027021Y022536D01*
X026957Y022546D01*
X026955Y022546D01*
X026955Y021836D01*
X026895Y021836D01*
X026895Y021776D01*
X026955Y021776D01*
X026955Y021066D01*
X026957Y021066D01*
X027021Y021076D01*
X027082Y021096D01*
X027140Y021125D01*
X027192Y021163D01*
X027238Y021209D01*
X027276Y021261D01*
X027305Y021319D01*
X027325Y021380D01*
X027335Y021444D01*
X027335Y021454D01*
X027349Y021421D01*
X027429Y021340D01*
X027493Y021187D01*
X027636Y021044D01*
X027824Y020966D01*
X028026Y020966D01*
X028214Y021044D01*
X028357Y021187D01*
X028421Y021340D01*
X028427Y021346D01*
X028493Y021187D01*
X028636Y021044D01*
X028824Y020966D01*
X029026Y020966D01*
X029214Y021044D01*
X029307Y021137D01*
X030235Y020341D01*
X030235Y020124D01*
X030493Y019866D01*
X030857Y019866D01*
X031115Y020124D01*
X031115Y020488D01*
X030857Y020746D01*
X030561Y020746D01*
X029435Y021711D01*
X029435Y022238D01*
X029357Y022425D01*
X029291Y022491D01*
X029607Y022491D01*
X029797Y022681D01*
X031175Y022681D01*
X031175Y017424D01*
X031115Y017484D01*
X031115Y017488D01*
X030857Y017746D01*
X030493Y017746D01*
X030235Y017488D01*
X030235Y017124D01*
X030393Y016966D01*
X025207Y016966D01*
X025365Y017124D01*
X025365Y017488D01*
X025107Y017746D01*
X024743Y017746D01*
X024485Y017488D01*
X024485Y017124D01*
X024643Y016966D01*
X019778Y016966D01*
X019365Y017291D01*
X019365Y017488D01*
X019107Y017746D01*
X018743Y017746D01*
X018485Y017488D01*
X018485Y017124D01*
X018743Y016866D01*
X019064Y016866D01*
X019515Y016511D01*
X019540Y016486D01*
X019555Y016480D01*
X019567Y016470D01*
X019602Y016460D01*
X019636Y016446D01*
X019652Y016446D01*
X019667Y016442D01*
X019703Y016446D01*
X021382Y016446D01*
X021113Y016290D01*
X020791Y015968D01*
X020563Y015574D01*
X020445Y015134D01*
X020445Y014678D01*
X020563Y014238D01*
X020791Y013844D01*
X021113Y013522D01*
X021507Y013294D01*
X021947Y013176D01*
X022403Y013176D01*
X022843Y013294D01*
X023237Y013522D01*
X023559Y013844D01*
X023787Y014238D01*
X023905Y014678D01*
X023905Y015134D01*
X023787Y015574D01*
X023559Y015968D01*
X023237Y016290D01*
X022968Y016446D01*
X027132Y016446D01*
X026863Y016290D01*
X026541Y015968D01*
X026313Y015574D01*
X026195Y015134D01*
X026195Y014678D01*
X026313Y014238D01*
X026541Y013844D01*
X026863Y013522D01*
X027257Y013294D01*
X027697Y013176D01*
X028153Y013176D01*
X028593Y013294D01*
X028987Y013522D01*
X029309Y013844D01*
X029537Y014238D01*
X029655Y014678D01*
X029655Y015134D01*
X029537Y015574D01*
X029309Y015968D01*
X028987Y016290D01*
X028718Y016446D01*
X030818Y016446D01*
X031175Y016030D01*
X031175Y015771D01*
X030906Y015771D01*
X030629Y015697D01*
X030381Y015554D01*
X030178Y015351D01*
X030034Y015102D01*
X029960Y014825D01*
X029960Y014538D01*
X030034Y014260D01*
X030178Y014012D01*
X030381Y013809D01*
X030629Y013665D01*
X030906Y013591D01*
X031175Y013591D01*
X031175Y008286D01*
X031153Y008277D01*
X031080Y008203D01*
X031040Y008108D01*
X031040Y001441D01*
X025158Y001441D01*
X020520Y006078D01*
X020447Y006152D01*
X020352Y006191D01*
X010283Y006191D01*
X009935Y006539D01*
X009935Y007108D01*
X009895Y007203D01*
X009822Y007277D01*
X009395Y007703D01*
X009322Y007777D01*
X009235Y007813D01*
X009265Y007825D01*
X009476Y008036D01*
X009590Y008312D01*
X009590Y008611D01*
X009476Y008887D01*
X009265Y009098D01*
X008989Y009212D01*
X008690Y009212D01*
X008414Y009098D01*
X008203Y008887D01*
X008089Y008611D01*
X008089Y008312D01*
X008203Y008036D01*
X008414Y007825D01*
X008436Y007816D01*
X008158Y007816D01*
X008060Y007914D01*
X008060Y020948D01*
X008290Y021178D01*
X008414Y021053D01*
X008690Y020939D01*
X008989Y020939D01*
X009265Y021053D01*
X009476Y021265D01*
X009590Y021541D01*
X009590Y021839D01*
X009476Y022115D01*
X009265Y022327D01*
X008989Y022441D01*
X008690Y022441D01*
X008414Y022327D01*
X008203Y022115D01*
X008089Y021839D01*
X008089Y021712D01*
X007580Y021203D01*
X007540Y021108D01*
X007540Y007754D01*
X007580Y007659D01*
X007653Y007586D01*
X007903Y007336D01*
X007998Y007296D01*
X009067Y007296D01*
X009415Y006948D01*
X009415Y006379D01*
X009455Y006284D01*
X009528Y006211D01*
X010028Y005711D01*
X010123Y005671D01*
X011764Y005671D01*
X011672Y005579D01*
X011672Y005033D01*
X011750Y004955D01*
X011750Y004746D01*
X011796Y004636D01*
X011880Y004552D01*
X012380Y004052D01*
X012490Y004006D01*
X014693Y004006D01*
X014693Y003982D01*
X014698Y003977D01*
X014698Y003605D02*
X010156Y003605D01*
X010315Y003447D02*
X014740Y003447D01*
X014894Y003288D02*
X010473Y003288D01*
X010632Y003130D02*
X021326Y003130D01*
X022024Y003130D02*
X022734Y003130D01*
X022575Y003288D02*
X022053Y003288D01*
X022053Y003447D02*
X022417Y003447D01*
X022258Y003605D02*
X022053Y003605D01*
X022100Y003764D02*
X021993Y003764D01*
X021941Y003922D02*
X016870Y003922D01*
X016930Y004081D02*
X021783Y004081D01*
X021624Y004239D02*
X016930Y004239D01*
X016930Y004398D02*
X021466Y004398D01*
X021307Y004556D02*
X016930Y004556D01*
X016925Y004715D02*
X021149Y004715D01*
X020990Y004873D02*
X016925Y004873D01*
X016926Y005032D02*
X020832Y005032D01*
X020673Y005190D02*
X016928Y005190D01*
X016928Y005349D02*
X020515Y005349D01*
X020356Y005507D02*
X016928Y005507D01*
X016841Y005666D02*
X020198Y005666D01*
X020300Y005931D02*
X010175Y005931D01*
X009675Y006431D01*
X009675Y007056D01*
X009175Y007556D01*
X008050Y007556D01*
X007800Y007806D01*
X007800Y021056D01*
X008425Y021681D01*
X008800Y021681D01*
X008809Y021690D01*
X008839Y021690D01*
X008800Y021681D02*
X008925Y021681D01*
X009590Y021674D02*
X011848Y021674D01*
X011848Y021604D02*
X010826Y021604D01*
X010836Y021543D01*
X010865Y021454D01*
X010907Y021371D01*
X010962Y021296D01*
X011028Y021230D01*
X011103Y021175D01*
X011186Y021133D01*
X011275Y021104D01*
X011367Y021089D01*
X011848Y021089D01*
X011848Y021604D01*
X012002Y021604D01*
X012002Y021089D01*
X012483Y021089D01*
X012575Y021104D01*
X012664Y021133D01*
X012747Y021175D01*
X012822Y021230D01*
X012888Y021296D01*
X012943Y021371D01*
X012985Y021454D01*
X013014Y021543D01*
X013024Y021604D01*
X012002Y021604D01*
X012002Y021759D01*
X011848Y021759D01*
X011848Y022273D01*
X011367Y022273D01*
X011275Y022258D01*
X011186Y022230D01*
X011103Y022187D01*
X011028Y022133D01*
X010962Y022067D01*
X010907Y021991D01*
X009527Y021991D01*
X009590Y021833D02*
X010840Y021833D01*
X010836Y021820D02*
X010826Y021759D01*
X011848Y021759D01*
X011848Y021604D01*
X011848Y021516D02*
X012002Y021516D01*
X012002Y021674D02*
X014765Y021674D01*
X014765Y021776D02*
X014765Y021444D01*
X014775Y021380D01*
X014795Y021319D01*
X014824Y021261D01*
X014862Y021209D01*
X014908Y021163D01*
X014960Y021125D01*
X015018Y021096D01*
X015079Y021076D01*
X015143Y021066D01*
X015145Y021066D01*
X015145Y021776D01*
X014765Y021776D01*
X014765Y021836D02*
X015145Y021836D01*
X015145Y022546D01*
X015143Y022546D01*
X015079Y022536D01*
X015018Y022516D01*
X014960Y022487D01*
X014908Y022449D01*
X014862Y022403D01*
X014824Y022351D01*
X014795Y022293D01*
X014775Y022232D01*
X014765Y022168D01*
X014765Y021836D01*
X014765Y021991D02*
X012943Y021991D01*
X012888Y022067D01*
X012822Y022133D01*
X012747Y022187D01*
X012664Y022230D01*
X012575Y022258D01*
X012483Y022273D01*
X012002Y022273D01*
X012002Y021759D01*
X013024Y021759D01*
X013014Y021820D01*
X012985Y021908D01*
X012943Y021991D01*
X013010Y021833D02*
X015145Y021833D01*
X015145Y021991D02*
X015205Y021991D01*
X015205Y022150D02*
X015145Y022150D01*
X015145Y022308D02*
X015205Y022308D01*
X015205Y022467D02*
X015145Y022467D01*
X014932Y022467D02*
X006065Y022467D01*
X006065Y022625D02*
X008612Y022625D01*
X008396Y022308D02*
X007118Y022308D01*
X007276Y022150D02*
X008237Y022150D01*
X008151Y021991D02*
X007362Y021991D01*
X007425Y021833D02*
X008089Y021833D01*
X008050Y021674D02*
X007425Y021674D01*
X007415Y021516D02*
X007892Y021516D01*
X007733Y021357D02*
X007349Y021357D01*
X007244Y021199D02*
X007578Y021199D01*
X007540Y021040D02*
X007067Y021040D01*
X007055Y020565D02*
X007540Y020565D01*
X007540Y020723D02*
X006065Y020723D01*
X006065Y020565D02*
X006293Y020565D01*
X006137Y020406D02*
X006065Y020406D01*
X006594Y020406D02*
X006754Y020406D01*
X006754Y020248D02*
X006594Y020248D01*
X006754Y020089D02*
X007540Y020089D01*
X007540Y019931D02*
X007317Y019931D01*
X007269Y019772D02*
X007540Y019772D01*
X007540Y019614D02*
X007170Y019614D01*
X006969Y019455D02*
X007540Y019455D01*
X007540Y019297D02*
X006065Y019297D01*
X006065Y019455D02*
X006379Y019455D01*
X006594Y019455D02*
X006754Y019455D01*
X006754Y019614D02*
X006594Y019614D01*
X006594Y019772D02*
X006754Y019772D01*
X006754Y019931D02*
X006594Y019931D01*
X006079Y019772D02*
X006065Y019772D01*
X006065Y019614D02*
X006178Y019614D01*
X006065Y019138D02*
X007540Y019138D01*
X007540Y018980D02*
X007139Y018980D01*
X007298Y018821D02*
X007540Y018821D01*
X007540Y018663D02*
X007371Y018663D01*
X007425Y018504D02*
X007540Y018504D01*
X007540Y018346D02*
X007425Y018346D01*
X007406Y018187D02*
X007540Y018187D01*
X007540Y018029D02*
X007340Y018029D01*
X007223Y017870D02*
X007540Y017870D01*
X007540Y017712D02*
X007015Y017712D01*
X007540Y017553D02*
X006065Y017553D01*
X006065Y017395D02*
X007540Y017395D01*
X007540Y017236D02*
X007083Y017236D01*
X007225Y017078D02*
X007540Y017078D01*
X007540Y016919D02*
X007297Y016919D01*
X007540Y016761D02*
X006754Y016761D01*
X006754Y016919D02*
X006594Y016919D01*
X006594Y017078D02*
X006754Y017078D01*
X006754Y017236D02*
X006594Y017236D01*
X006265Y017236D02*
X006065Y017236D01*
X006065Y017078D02*
X006124Y017078D01*
X006088Y016444D02*
X006065Y016444D01*
X006065Y016285D02*
X006198Y016285D01*
X006065Y016127D02*
X006428Y016127D01*
X006594Y016127D02*
X006754Y016127D01*
X006754Y016285D02*
X006594Y016285D01*
X006594Y016444D02*
X006754Y016444D01*
X006754Y016602D02*
X006594Y016602D01*
X006920Y016127D02*
X007540Y016127D01*
X007540Y016285D02*
X007150Y016285D01*
X007260Y016444D02*
X007540Y016444D01*
X007540Y016602D02*
X007314Y016602D01*
X008060Y016602D02*
X008200Y016602D01*
X008222Y016520D01*
X008254Y016441D01*
X008297Y016367D01*
X008349Y016299D01*
X008409Y016239D01*
X008477Y016187D01*
X008551Y016144D01*
X008630Y016112D01*
X008712Y016090D01*
X008759Y016083D01*
X008759Y016649D01*
X008193Y016649D01*
X008200Y016602D01*
X008253Y016444D02*
X008060Y016444D01*
X008060Y016285D02*
X008363Y016285D01*
X008594Y016127D02*
X008060Y016127D01*
X008060Y015968D02*
X009960Y015968D01*
X009960Y015810D02*
X009030Y015810D01*
X008989Y015827D02*
X008690Y015827D01*
X008414Y015712D01*
X008203Y015501D01*
X008089Y015225D01*
X008089Y014926D01*
X008203Y014650D01*
X008414Y014439D01*
X008690Y014325D01*
X008989Y014325D01*
X009265Y014439D01*
X009476Y014650D01*
X009590Y014926D01*
X009590Y015225D01*
X009476Y015501D01*
X009265Y015712D01*
X008989Y015827D01*
X008967Y016090D02*
X009049Y016112D01*
X009128Y016144D01*
X009202Y016187D01*
X009269Y016239D01*
X009330Y016299D01*
X009382Y016367D01*
X009424Y016441D01*
X009457Y016520D01*
X009479Y016602D01*
X009960Y016602D01*
X009960Y016444D02*
X009425Y016444D01*
X009479Y016602D02*
X009485Y016649D01*
X008919Y016649D01*
X008919Y016083D01*
X008967Y016090D01*
X008919Y016127D02*
X008759Y016127D01*
X008759Y016285D02*
X008919Y016285D01*
X008919Y016444D02*
X008759Y016444D01*
X008759Y016602D02*
X008919Y016602D01*
X008919Y016649D02*
X008759Y016649D01*
X008759Y016809D01*
X008193Y016809D01*
X008200Y016857D01*
X008222Y016939D01*
X008254Y017018D01*
X008297Y017092D01*
X008349Y017159D01*
X008409Y017220D01*
X008477Y017272D01*
X008551Y017314D01*
X008630Y017347D01*
X008712Y017369D01*
X008759Y017375D01*
X008759Y016809D01*
X008919Y016809D01*
X008919Y017375D01*
X008967Y017369D01*
X009049Y017347D01*
X009128Y017314D01*
X009202Y017272D01*
X009269Y017220D01*
X009330Y017159D01*
X009382Y017092D01*
X009424Y017018D01*
X009457Y016939D01*
X009479Y016857D01*
X009485Y016809D01*
X008919Y016809D01*
X008919Y016649D01*
X008919Y016761D02*
X009960Y016761D01*
X009960Y016919D02*
X009462Y016919D01*
X009390Y017078D02*
X009993Y017078D01*
X010012Y017124D02*
X009960Y016999D01*
X009960Y008363D01*
X010012Y008239D01*
X010107Y008143D01*
X010482Y007768D01*
X010607Y007716D01*
X010805Y007716D01*
X010827Y007664D01*
X011021Y007470D01*
X011276Y007364D01*
X012574Y007364D01*
X012829Y007470D01*
X013023Y007664D01*
X013129Y007918D01*
X013129Y008194D01*
X013023Y008448D01*
X012829Y008643D01*
X012574Y008748D01*
X011276Y008748D01*
X011021Y008643D01*
X010827Y008448D01*
X010808Y008404D01*
X010640Y008572D01*
X010640Y016790D01*
X010983Y017133D01*
X011021Y017095D01*
X011276Y016989D01*
X012574Y016989D01*
X012829Y017095D01*
X013023Y017289D01*
X013129Y017543D01*
X013129Y017819D01*
X013023Y018073D01*
X012829Y018268D01*
X012574Y018373D01*
X011276Y018373D01*
X011021Y018268D01*
X010827Y018073D01*
X010732Y017844D01*
X010012Y017124D01*
X010124Y017236D02*
X009248Y017236D01*
X008919Y017236D02*
X008759Y017236D01*
X008759Y017078D02*
X008919Y017078D01*
X008919Y016919D02*
X008759Y016919D01*
X008759Y016761D02*
X008060Y016761D01*
X008060Y016919D02*
X008216Y016919D01*
X008289Y017078D02*
X008060Y017078D01*
X008060Y017236D02*
X008431Y017236D01*
X008060Y017395D02*
X010283Y017395D01*
X010441Y017553D02*
X008060Y017553D01*
X008060Y017712D02*
X010600Y017712D01*
X010743Y017870D02*
X009240Y017870D01*
X009269Y017892D02*
X009330Y017953D01*
X009382Y018020D01*
X009424Y018094D01*
X009457Y018173D01*
X009479Y018256D01*
X009485Y018303D01*
X008919Y018303D01*
X008919Y017737D01*
X008967Y017743D01*
X009049Y017765D01*
X009128Y017798D01*
X009202Y017841D01*
X009269Y017892D01*
X009386Y018029D02*
X010808Y018029D01*
X010941Y018187D02*
X009461Y018187D01*
X009485Y018463D02*
X008919Y018463D01*
X008759Y018463D01*
X008759Y018303D01*
X008193Y018303D01*
X008200Y018256D01*
X008222Y018173D01*
X008254Y018094D01*
X008297Y018020D01*
X008349Y017953D01*
X008409Y017892D01*
X008477Y017841D01*
X008551Y017798D01*
X008630Y017765D01*
X008712Y017743D01*
X008759Y017737D01*
X008759Y018303D01*
X008919Y018303D01*
X008919Y018463D01*
X008919Y019029D01*
X008967Y019023D01*
X009049Y019001D01*
X009128Y018968D01*
X009202Y018925D01*
X009269Y018873D01*
X009330Y018813D01*
X009382Y018745D01*
X009424Y018671D01*
X009457Y018593D01*
X009479Y018510D01*
X009485Y018463D01*
X009480Y018504D02*
X031175Y018504D01*
X031175Y018346D02*
X012640Y018346D01*
X012909Y018187D02*
X031175Y018187D01*
X031175Y018029D02*
X013042Y018029D01*
X013107Y017870D02*
X031175Y017870D01*
X031175Y017712D02*
X030892Y017712D01*
X031050Y017553D02*
X031175Y017553D01*
X030925Y017306D02*
X030675Y017306D01*
X030925Y017306D02*
X032175Y016056D01*
X057425Y016056D01*
X058675Y016056D01*
X058925Y015806D01*
X058925Y014806D01*
X058925Y011306D01*
X057425Y009806D01*
X057425Y008306D01*
X058675Y007306D02*
X059125Y007681D01*
X061125Y007681D01*
X061413Y007944D01*
X061425Y011256D01*
X059925Y011056D02*
X059925Y009431D01*
X060800Y008931D01*
X060800Y008094D01*
X062925Y009431D02*
X062925Y011056D01*
X063050Y011181D01*
X067675Y011181D01*
X068550Y012056D01*
X068550Y012806D01*
X068425Y012931D01*
X068350Y013806D02*
X069887Y013806D01*
X071145Y012548D01*
X071925Y012548D02*
X071925Y014181D01*
X071425Y014681D01*
X067550Y014681D01*
X067300Y014431D01*
X067300Y013856D01*
X067250Y013806D01*
X065975Y013806D01*
X069175Y011806D02*
X069175Y008306D01*
X068550Y008431D02*
X068550Y010056D01*
X058050Y012306D02*
X057675Y012306D01*
X056800Y013181D01*
X049800Y013181D01*
X049425Y013556D01*
X049425Y014306D01*
X051925Y015306D02*
X041175Y015306D01*
X040675Y015556D01*
X031925Y015556D01*
X030938Y016706D01*
X019688Y016706D01*
X018925Y017306D01*
X018485Y017236D02*
X012970Y017236D01*
X013067Y017395D02*
X018485Y017395D01*
X018550Y017553D02*
X013129Y017553D01*
X013129Y017712D02*
X018708Y017712D01*
X019142Y017712D02*
X024708Y017712D01*
X024550Y017553D02*
X019300Y017553D01*
X019365Y017395D02*
X024485Y017395D01*
X024485Y017236D02*
X019434Y017236D01*
X019636Y017078D02*
X024531Y017078D01*
X025319Y017078D02*
X030281Y017078D01*
X030235Y017236D02*
X025365Y017236D01*
X025365Y017395D02*
X030235Y017395D01*
X030300Y017553D02*
X025300Y017553D01*
X025142Y017712D02*
X030458Y017712D01*
X031175Y018663D02*
X009428Y018663D01*
X009322Y018821D02*
X031175Y018821D01*
X031175Y018980D02*
X009100Y018980D01*
X008919Y018980D02*
X008759Y018980D01*
X008759Y019029D02*
X008712Y019023D01*
X008630Y019001D01*
X008551Y018968D01*
X008477Y018925D01*
X008409Y018873D01*
X008349Y018813D01*
X008297Y018745D01*
X008254Y018671D01*
X008222Y018593D01*
X008200Y018510D01*
X008193Y018463D01*
X008759Y018463D01*
X008759Y019029D01*
X008579Y018980D02*
X008060Y018980D01*
X008060Y019138D02*
X011175Y019138D01*
X011186Y019133D02*
X011275Y019104D01*
X011367Y019089D01*
X011848Y019089D01*
X011848Y019604D01*
X012002Y019604D01*
X012002Y019089D01*
X012483Y019089D01*
X012575Y019104D01*
X012664Y019133D01*
X012747Y019175D01*
X012822Y019230D01*
X012888Y019296D01*
X012943Y019371D01*
X012985Y019454D01*
X013014Y019543D01*
X013024Y019604D01*
X012002Y019604D01*
X012002Y019759D01*
X011848Y019759D01*
X011848Y020273D01*
X011367Y020273D01*
X011275Y020258D01*
X011186Y020230D01*
X011103Y020187D01*
X011028Y020133D01*
X010962Y020067D01*
X010907Y019991D01*
X010865Y019908D01*
X010836Y019820D01*
X010826Y019759D01*
X011848Y019759D01*
X011848Y019604D01*
X010826Y019604D01*
X010836Y019543D01*
X010865Y019454D01*
X010907Y019371D01*
X010962Y019296D01*
X011028Y019230D01*
X011103Y019175D01*
X011186Y019133D01*
X010961Y019297D02*
X009015Y019297D01*
X008989Y019286D02*
X009265Y019400D01*
X009476Y019611D01*
X009590Y019887D01*
X009590Y020186D01*
X009476Y020462D01*
X009265Y020673D01*
X008989Y020787D01*
X008690Y020787D01*
X008414Y020673D01*
X008203Y020462D01*
X008089Y020186D01*
X008089Y019887D01*
X008203Y019611D01*
X008414Y019400D01*
X008690Y019286D01*
X008989Y019286D01*
X008663Y019297D02*
X008060Y019297D01*
X008060Y019455D02*
X008359Y019455D01*
X008202Y019614D02*
X008060Y019614D01*
X008060Y019772D02*
X008136Y019772D01*
X008089Y019931D02*
X008060Y019931D01*
X008060Y020089D02*
X008089Y020089D01*
X008114Y020248D02*
X008060Y020248D01*
X008060Y020406D02*
X008180Y020406D01*
X008060Y020565D02*
X008306Y020565D01*
X008535Y020723D02*
X008060Y020723D01*
X008060Y020882D02*
X017854Y020882D01*
X017669Y021040D02*
X017455Y021040D01*
X016895Y021040D02*
X016455Y021040D01*
X016612Y021199D02*
X016738Y021199D01*
X015895Y021040D02*
X009232Y021040D01*
X009410Y021199D02*
X011071Y021199D01*
X010917Y021357D02*
X009514Y021357D01*
X009580Y021516D02*
X010845Y021516D01*
X010836Y021820D02*
X010865Y021908D01*
X010907Y021991D01*
X011051Y022150D02*
X009442Y022150D01*
X009283Y022308D02*
X014802Y022308D01*
X014765Y022150D02*
X012799Y022150D01*
X012002Y022150D02*
X011848Y022150D01*
X011848Y021991D02*
X012002Y021991D01*
X012002Y021833D02*
X011848Y021833D01*
X013005Y021516D02*
X014765Y021516D01*
X014783Y021357D02*
X012933Y021357D01*
X012779Y021199D02*
X014873Y021199D01*
X015145Y021199D02*
X015205Y021199D01*
X015205Y021357D02*
X015145Y021357D01*
X015145Y021516D02*
X015205Y021516D01*
X015205Y021674D02*
X015145Y021674D01*
X015567Y021357D02*
X015663Y021357D01*
X015738Y021199D02*
X015477Y021199D01*
X017175Y021806D02*
X018925Y020306D01*
X019365Y020248D02*
X024485Y020248D01*
X024520Y020089D02*
X019330Y020089D01*
X019172Y019931D02*
X024678Y019931D01*
X024925Y020306D02*
X023175Y021806D01*
X023685Y021833D02*
X026895Y021833D01*
X026895Y021836D02*
X026515Y021836D01*
X026515Y022168D01*
X026525Y022232D01*
X026545Y022293D01*
X026574Y022351D01*
X026612Y022403D01*
X026658Y022449D01*
X026710Y022487D01*
X026768Y022516D01*
X026829Y022536D01*
X026893Y022546D01*
X026895Y022546D01*
X026895Y021836D01*
X026895Y021776D02*
X026515Y021776D01*
X026515Y021444D01*
X026525Y021380D01*
X026545Y021319D01*
X026574Y021261D01*
X026612Y021209D01*
X026658Y021163D01*
X026710Y021125D01*
X026768Y021096D01*
X026829Y021076D01*
X026893Y021066D01*
X026895Y021066D01*
X026895Y021776D01*
X026895Y021674D02*
X026955Y021674D01*
X026955Y021516D02*
X026895Y021516D01*
X026895Y021357D02*
X026955Y021357D01*
X026955Y021199D02*
X026895Y021199D01*
X026623Y021199D02*
X024283Y021199D01*
X024098Y021357D02*
X026533Y021357D01*
X026515Y021516D02*
X023913Y021516D01*
X023729Y021674D02*
X026515Y021674D01*
X026515Y021991D02*
X023685Y021991D01*
X023685Y022150D02*
X026515Y022150D01*
X026552Y022308D02*
X023656Y022308D01*
X023566Y022467D02*
X026682Y022467D01*
X026741Y022625D02*
X026995Y022625D01*
X026955Y022467D02*
X026895Y022467D01*
X026895Y022308D02*
X026955Y022308D01*
X026955Y022150D02*
X026895Y022150D01*
X026895Y021991D02*
X026955Y021991D01*
X027317Y021357D02*
X027412Y021357D01*
X027488Y021199D02*
X027227Y021199D01*
X027645Y021040D02*
X024468Y021040D01*
X024653Y020882D02*
X029604Y020882D01*
X029419Y021040D02*
X029205Y021040D01*
X028645Y021040D02*
X028205Y021040D01*
X028362Y021199D02*
X028488Y021199D01*
X029479Y021674D02*
X031175Y021674D01*
X031175Y021516D02*
X029663Y021516D01*
X029848Y021357D02*
X031175Y021357D01*
X031175Y021199D02*
X030033Y021199D01*
X030218Y021040D02*
X031175Y021040D01*
X031175Y020882D02*
X030403Y020882D01*
X030880Y020723D02*
X031175Y020723D01*
X031175Y020565D02*
X031039Y020565D01*
X031115Y020406D02*
X031175Y020406D01*
X031175Y020248D02*
X031115Y020248D01*
X031080Y020089D02*
X031175Y020089D01*
X031175Y019931D02*
X030922Y019931D01*
X031175Y019772D02*
X013022Y019772D01*
X013024Y019759D02*
X013014Y019820D01*
X012985Y019908D01*
X012943Y019991D01*
X012888Y020067D01*
X012822Y020133D01*
X012747Y020187D01*
X012664Y020230D01*
X012575Y020258D01*
X012483Y020273D01*
X012002Y020273D01*
X012002Y019759D01*
X013024Y019759D01*
X012974Y019931D02*
X018678Y019931D01*
X018520Y020089D02*
X012866Y020089D01*
X012609Y020248D02*
X018485Y020248D01*
X018409Y020406D02*
X009499Y020406D01*
X009565Y020248D02*
X011241Y020248D01*
X010984Y020089D02*
X009590Y020089D01*
X009590Y019931D02*
X010876Y019931D01*
X010828Y019772D02*
X009543Y019772D01*
X009477Y019614D02*
X011848Y019614D01*
X012002Y019614D02*
X031175Y019614D01*
X031175Y019455D02*
X012986Y019455D01*
X012889Y019297D02*
X031175Y019297D01*
X031175Y019138D02*
X012675Y019138D01*
X012002Y019138D02*
X011848Y019138D01*
X011848Y019297D02*
X012002Y019297D01*
X012002Y019455D02*
X011848Y019455D01*
X011848Y019772D02*
X012002Y019772D01*
X012002Y019931D02*
X011848Y019931D01*
X011848Y020089D02*
X012002Y020089D01*
X012002Y020248D02*
X011848Y020248D01*
X011848Y021199D02*
X012002Y021199D01*
X012002Y021357D02*
X011848Y021357D01*
X009373Y020565D02*
X018224Y020565D01*
X018039Y020723D02*
X009144Y020723D01*
X008446Y021040D02*
X008152Y021040D01*
X007540Y020882D02*
X006065Y020882D01*
X006065Y021040D02*
X006281Y021040D01*
X006104Y021199D02*
X006065Y021199D01*
X006594Y020565D02*
X006754Y020565D01*
X007211Y020406D02*
X007540Y020406D01*
X007540Y020248D02*
X007291Y020248D01*
X009320Y019455D02*
X010864Y019455D01*
X008919Y018821D02*
X008759Y018821D01*
X008759Y018663D02*
X008919Y018663D01*
X008919Y018504D02*
X008759Y018504D01*
X008759Y018346D02*
X008060Y018346D01*
X008060Y018504D02*
X008199Y018504D01*
X008251Y018663D02*
X008060Y018663D01*
X008060Y018821D02*
X008357Y018821D01*
X008218Y018187D02*
X008060Y018187D01*
X008060Y018029D02*
X008292Y018029D01*
X008439Y017870D02*
X008060Y017870D01*
X008759Y017870D02*
X008919Y017870D01*
X008919Y018029D02*
X008759Y018029D01*
X008759Y018187D02*
X008919Y018187D01*
X008919Y018346D02*
X011210Y018346D01*
X011063Y017078D02*
X010927Y017078D01*
X010769Y016919D02*
X018690Y016919D01*
X018531Y017078D02*
X012787Y017078D01*
X010640Y016761D02*
X019198Y016761D01*
X019399Y016602D02*
X016530Y016602D01*
X016403Y016636D02*
X015947Y016636D01*
X015507Y016518D01*
X015113Y016290D01*
X014791Y015968D01*
X014563Y015574D01*
X014445Y015134D01*
X014445Y014678D01*
X014563Y014238D01*
X014791Y013844D01*
X015113Y013522D01*
X015507Y013294D01*
X015947Y013176D01*
X016403Y013176D01*
X016843Y013294D01*
X017237Y013522D01*
X017559Y013844D01*
X017787Y014238D01*
X017905Y014678D01*
X017905Y015134D01*
X017787Y015574D01*
X017559Y015968D01*
X017237Y016290D01*
X016843Y016518D01*
X016403Y016636D01*
X015820Y016602D02*
X010640Y016602D01*
X010640Y016444D02*
X015378Y016444D01*
X015107Y016285D02*
X010640Y016285D01*
X010640Y016127D02*
X014949Y016127D01*
X014790Y015968D02*
X010640Y015968D01*
X010640Y015810D02*
X014699Y015810D01*
X014607Y015651D02*
X010640Y015651D01*
X010640Y015493D02*
X014541Y015493D01*
X014499Y015334D02*
X010640Y015334D01*
X010640Y015176D02*
X014456Y015176D01*
X014445Y015017D02*
X010640Y015017D01*
X010640Y014859D02*
X014445Y014859D01*
X014445Y014700D02*
X012690Y014700D01*
X012574Y014748D02*
X011276Y014748D01*
X011021Y014643D01*
X010827Y014448D01*
X010721Y014194D01*
X010721Y013918D01*
X010827Y013664D01*
X011021Y013470D01*
X011276Y013364D01*
X012574Y013364D01*
X012829Y013470D01*
X013023Y013664D01*
X013045Y013716D01*
X013659Y013716D01*
X014762Y012614D01*
X014762Y012614D01*
X014857Y012518D01*
X014910Y012496D01*
X014618Y012496D01*
X014360Y012238D01*
X014360Y011874D01*
X014618Y011616D01*
X014982Y011616D01*
X015240Y011874D01*
X015240Y012238D01*
X015012Y012466D01*
X017588Y012466D01*
X017360Y012238D01*
X017360Y011874D01*
X017618Y011616D01*
X017982Y011616D01*
X018082Y011716D01*
X018784Y011716D01*
X018835Y011665D01*
X018835Y008588D01*
X018735Y008488D01*
X018735Y008124D01*
X018993Y007866D01*
X019357Y007866D01*
X019615Y008124D01*
X019615Y008488D01*
X019515Y008588D01*
X019515Y011874D01*
X019463Y011999D01*
X019368Y012094D01*
X019118Y012344D01*
X018993Y012396D01*
X018082Y012396D01*
X018012Y012466D01*
X021909Y012466D01*
X022960Y011415D01*
X022960Y011276D01*
X022915Y011258D01*
X022724Y011066D01*
X022620Y010816D01*
X022620Y010546D01*
X022724Y010296D01*
X022915Y010105D01*
X023165Y010001D01*
X023435Y010001D01*
X023685Y010105D01*
X023876Y010296D01*
X023980Y010546D01*
X023980Y010816D01*
X023876Y011066D01*
X023685Y011258D01*
X023640Y011276D01*
X023640Y011624D01*
X023588Y011749D01*
X023493Y011844D01*
X022243Y013094D01*
X022118Y013146D01*
X015191Y013146D01*
X013993Y014344D01*
X013868Y014396D01*
X013045Y014396D01*
X013023Y014448D01*
X012829Y014643D01*
X012574Y014748D01*
X012930Y014542D02*
X014482Y014542D01*
X014524Y014383D02*
X013899Y014383D01*
X014112Y014225D02*
X014571Y014225D01*
X014662Y014066D02*
X014271Y014066D01*
X014429Y013908D02*
X014754Y013908D01*
X014885Y013749D02*
X014588Y013749D01*
X014746Y013591D02*
X015044Y013591D01*
X014905Y013432D02*
X015268Y013432D01*
X015063Y013274D02*
X015584Y013274D01*
X016766Y013274D02*
X021584Y013274D01*
X021268Y013432D02*
X017082Y013432D01*
X017306Y013591D02*
X021044Y013591D01*
X020885Y013749D02*
X017465Y013749D01*
X017596Y013908D02*
X020754Y013908D01*
X020662Y014066D02*
X017688Y014066D01*
X017779Y014225D02*
X020571Y014225D01*
X020524Y014383D02*
X017826Y014383D01*
X017868Y014542D02*
X020482Y014542D01*
X020445Y014700D02*
X017905Y014700D01*
X017905Y014859D02*
X020445Y014859D01*
X020445Y015017D02*
X017905Y015017D01*
X017894Y015176D02*
X020456Y015176D01*
X020499Y015334D02*
X017851Y015334D01*
X017809Y015493D02*
X020541Y015493D01*
X020607Y015651D02*
X017743Y015651D01*
X017651Y015810D02*
X020699Y015810D01*
X020790Y015968D02*
X017560Y015968D01*
X017401Y016127D02*
X020949Y016127D01*
X021107Y016285D02*
X017243Y016285D01*
X016972Y016444D02*
X019661Y016444D01*
X019681Y016444D02*
X021378Y016444D01*
X022972Y016444D02*
X027128Y016444D01*
X026857Y016285D02*
X023243Y016285D01*
X023401Y016127D02*
X026699Y016127D01*
X026540Y015968D02*
X023560Y015968D01*
X023651Y015810D02*
X026449Y015810D01*
X026357Y015651D02*
X023743Y015651D01*
X023809Y015493D02*
X026291Y015493D01*
X026249Y015334D02*
X023851Y015334D01*
X023894Y015176D02*
X026206Y015176D01*
X026195Y015017D02*
X023905Y015017D01*
X023905Y014859D02*
X026195Y014859D01*
X026195Y014700D02*
X023905Y014700D01*
X023868Y014542D02*
X026232Y014542D01*
X026274Y014383D02*
X023826Y014383D01*
X023779Y014225D02*
X026321Y014225D01*
X026412Y014066D02*
X023688Y014066D01*
X023596Y013908D02*
X026504Y013908D01*
X026635Y013749D02*
X023465Y013749D01*
X023306Y013591D02*
X026794Y013591D01*
X027018Y013432D02*
X023082Y013432D01*
X022766Y013274D02*
X027334Y013274D01*
X028516Y013274D02*
X031175Y013274D01*
X031175Y013432D02*
X028832Y013432D01*
X029056Y013591D02*
X031175Y013591D01*
X031175Y013115D02*
X022193Y013115D01*
X022380Y012957D02*
X031175Y012957D01*
X031175Y012798D02*
X022539Y012798D01*
X022697Y012640D02*
X031175Y012640D01*
X031175Y012481D02*
X022856Y012481D01*
X023014Y012323D02*
X031175Y012323D01*
X031175Y012164D02*
X023173Y012164D01*
X023331Y012006D02*
X031175Y012006D01*
X031175Y011847D02*
X023490Y011847D01*
X023613Y011689D02*
X031175Y011689D01*
X031175Y011530D02*
X023640Y011530D01*
X023640Y011372D02*
X031175Y011372D01*
X031175Y011213D02*
X029213Y011213D01*
X029165Y011261D02*
X028945Y011261D01*
X028945Y010701D01*
X029505Y010701D01*
X029505Y010921D01*
X029165Y011261D01*
X028945Y011213D02*
X028905Y011213D01*
X028905Y011261D02*
X028685Y011261D01*
X028345Y010921D01*
X028345Y010701D01*
X028905Y010701D01*
X028905Y010661D01*
X028945Y010661D01*
X028945Y010101D01*
X029165Y010101D01*
X029505Y010441D01*
X029505Y010661D01*
X028945Y010661D01*
X028945Y010701D01*
X028905Y010701D01*
X028905Y011261D01*
X028905Y011055D02*
X028945Y011055D01*
X028945Y010896D02*
X028905Y010896D01*
X028905Y010738D02*
X028945Y010738D01*
X028905Y010661D02*
X028345Y010661D01*
X028345Y010441D01*
X028685Y010101D01*
X028905Y010101D01*
X028905Y010661D01*
X028905Y010579D02*
X028945Y010579D01*
X028945Y010421D02*
X028905Y010421D01*
X028905Y010262D02*
X028945Y010262D01*
X028945Y010104D02*
X028905Y010104D01*
X028682Y010104D02*
X027308Y010104D01*
X027310Y010105D02*
X027501Y010296D01*
X027605Y010546D01*
X027605Y010816D01*
X027501Y011066D01*
X027310Y011258D01*
X027060Y011361D01*
X026790Y011361D01*
X026540Y011258D01*
X026349Y011066D01*
X026245Y010816D01*
X026245Y010546D01*
X026349Y010296D01*
X026540Y010105D01*
X026790Y010001D01*
X027060Y010001D01*
X027310Y010105D01*
X027468Y010262D02*
X028524Y010262D01*
X028365Y010421D02*
X027553Y010421D01*
X027605Y010579D02*
X028345Y010579D01*
X028345Y010738D02*
X027605Y010738D01*
X027572Y010896D02*
X028345Y010896D01*
X028478Y011055D02*
X027506Y011055D01*
X027355Y011213D02*
X028637Y011213D01*
X029372Y011055D02*
X031175Y011055D01*
X031175Y010896D02*
X029505Y010896D01*
X029505Y010738D02*
X031175Y010738D01*
X031175Y010579D02*
X029505Y010579D01*
X029485Y010421D02*
X031175Y010421D01*
X031175Y010262D02*
X029326Y010262D01*
X029168Y010104D02*
X031175Y010104D01*
X031175Y009945D02*
X019515Y009945D01*
X019515Y009787D02*
X031175Y009787D01*
X031175Y009628D02*
X019515Y009628D01*
X019515Y009470D02*
X031175Y009470D01*
X031175Y009311D02*
X019515Y009311D01*
X019515Y009153D02*
X031175Y009153D01*
X031175Y008994D02*
X019515Y008994D01*
X019515Y008836D02*
X031175Y008836D01*
X031175Y008677D02*
X019515Y008677D01*
X019585Y008519D02*
X031175Y008519D01*
X031175Y008360D02*
X019615Y008360D01*
X019615Y008202D02*
X031079Y008202D01*
X031040Y008043D02*
X019534Y008043D01*
X019376Y007885D02*
X031040Y007885D01*
X031040Y007726D02*
X013049Y007726D01*
X013115Y007885D02*
X016349Y007885D01*
X016368Y007866D02*
X016732Y007866D01*
X016990Y008124D01*
X016990Y008265D01*
X018088Y009364D01*
X018140Y009488D01*
X018140Y010399D01*
X018240Y010499D01*
X018240Y010863D01*
X017982Y011121D01*
X017618Y011121D01*
X017360Y010863D01*
X017360Y010499D01*
X017460Y010399D01*
X017460Y009697D01*
X016509Y008746D01*
X016368Y008746D01*
X016110Y008488D01*
X016110Y008124D01*
X016368Y007866D01*
X016191Y008043D02*
X015768Y008043D01*
X015691Y007966D02*
X015890Y008165D01*
X015890Y008306D01*
X015550Y008306D01*
X015550Y007966D01*
X015691Y007966D01*
X015550Y007966D02*
X015550Y008306D01*
X015550Y008306D01*
X015550Y008306D01*
X015210Y008306D01*
X015210Y008165D01*
X015409Y007966D01*
X015550Y007966D01*
X015550Y008043D02*
X015550Y008043D01*
X015550Y008202D02*
X015550Y008202D01*
X015550Y008306D02*
X015550Y008306D01*
X015890Y008306D01*
X015890Y008447D01*
X015691Y008646D01*
X015550Y008646D01*
X015550Y008306D01*
X015210Y008306D01*
X015210Y008447D01*
X015409Y008646D01*
X015550Y008646D01*
X015550Y008306D01*
X015550Y008306D01*
X015550Y008360D02*
X015550Y008360D01*
X015550Y008519D02*
X015550Y008519D01*
X015818Y008519D02*
X016140Y008519D01*
X016110Y008360D02*
X015890Y008360D01*
X015890Y008202D02*
X016110Y008202D01*
X016751Y007885D02*
X018974Y007885D01*
X018816Y008043D02*
X018393Y008043D01*
X018316Y007966D02*
X018515Y008165D01*
X018515Y008306D01*
X018175Y008306D01*
X018175Y007966D01*
X018316Y007966D01*
X018175Y007966D02*
X018175Y008306D01*
X018175Y008306D01*
X018175Y008306D01*
X017835Y008306D01*
X017835Y008165D01*
X018034Y007966D01*
X018175Y007966D01*
X018175Y008043D02*
X018175Y008043D01*
X018175Y008202D02*
X018175Y008202D01*
X018175Y008306D02*
X018175Y008306D01*
X018515Y008306D01*
X018515Y008447D01*
X018316Y008646D01*
X018175Y008646D01*
X018175Y008306D01*
X017835Y008306D01*
X017835Y008447D01*
X018034Y008646D01*
X018175Y008646D01*
X018175Y008306D01*
X018175Y008306D01*
X018175Y008360D02*
X018175Y008360D01*
X018175Y008519D02*
X018175Y008519D01*
X018443Y008519D02*
X018765Y008519D01*
X018735Y008360D02*
X018515Y008360D01*
X018515Y008202D02*
X018735Y008202D01*
X017957Y008043D02*
X016909Y008043D01*
X016990Y008202D02*
X017835Y008202D01*
X017835Y008360D02*
X017085Y008360D01*
X017243Y008519D02*
X017907Y008519D01*
X017560Y008836D02*
X018835Y008836D01*
X018835Y008994D02*
X017719Y008994D01*
X017877Y009153D02*
X018835Y009153D01*
X018835Y009311D02*
X018036Y009311D01*
X018132Y009470D02*
X018835Y009470D01*
X018835Y009628D02*
X018140Y009628D01*
X018140Y009787D02*
X018835Y009787D01*
X018835Y009945D02*
X018140Y009945D01*
X018140Y010104D02*
X018835Y010104D01*
X018835Y010262D02*
X018140Y010262D01*
X018162Y010421D02*
X018835Y010421D01*
X018835Y010579D02*
X018240Y010579D01*
X018240Y010738D02*
X018835Y010738D01*
X018835Y010896D02*
X018207Y010896D01*
X018049Y011055D02*
X018835Y011055D01*
X018835Y011213D02*
X010640Y011213D01*
X010640Y011055D02*
X014551Y011055D01*
X014618Y011121D02*
X014360Y010863D01*
X014360Y010499D01*
X014618Y010241D01*
X014982Y010241D01*
X015240Y010499D01*
X015240Y010863D01*
X014982Y011121D01*
X014618Y011121D01*
X014393Y010896D02*
X010640Y010896D01*
X010640Y010738D02*
X014360Y010738D01*
X014360Y010579D02*
X012714Y010579D01*
X012747Y010562D02*
X012664Y010605D01*
X012575Y010633D01*
X012483Y010648D01*
X012002Y010648D01*
X012002Y010134D01*
X011848Y010134D01*
X011848Y010648D01*
X011367Y010648D01*
X011275Y010633D01*
X011186Y010605D01*
X011103Y010562D01*
X011028Y010508D01*
X010962Y010442D01*
X010907Y010366D01*
X010865Y010283D01*
X010836Y010195D01*
X010826Y010134D01*
X011848Y010134D01*
X011848Y009979D01*
X012002Y009979D01*
X012002Y009464D01*
X012483Y009464D01*
X012575Y009479D01*
X012664Y009508D01*
X012747Y009550D01*
X012822Y009605D01*
X012888Y009671D01*
X012943Y009746D01*
X012985Y009829D01*
X013014Y009918D01*
X013024Y009979D01*
X012002Y009979D01*
X012002Y010134D01*
X013024Y010134D01*
X013014Y010195D01*
X012985Y010283D01*
X012943Y010366D01*
X012888Y010442D01*
X012822Y010508D01*
X012747Y010562D01*
X012904Y010421D02*
X014438Y010421D01*
X014597Y010262D02*
X012992Y010262D01*
X013018Y009945D02*
X017460Y009945D01*
X017460Y009787D02*
X012964Y009787D01*
X012846Y009628D02*
X017391Y009628D01*
X017233Y009470D02*
X012516Y009470D01*
X012002Y009470D02*
X011848Y009470D01*
X011848Y009464D02*
X011848Y009979D01*
X010826Y009979D01*
X010836Y009918D01*
X010865Y009829D01*
X010907Y009746D01*
X010962Y009671D01*
X011028Y009605D01*
X011103Y009550D01*
X011186Y009508D01*
X011275Y009479D01*
X011367Y009464D01*
X011848Y009464D01*
X011848Y009628D02*
X012002Y009628D01*
X012002Y009787D02*
X011848Y009787D01*
X011848Y009945D02*
X012002Y009945D01*
X012002Y010104D02*
X017460Y010104D01*
X017460Y010262D02*
X015003Y010262D01*
X015162Y010421D02*
X017438Y010421D01*
X017360Y010579D02*
X015240Y010579D01*
X015240Y010738D02*
X017360Y010738D01*
X017393Y010896D02*
X015207Y010896D01*
X015049Y011055D02*
X017551Y011055D01*
X017545Y011689D02*
X015055Y011689D01*
X015213Y011847D02*
X017387Y011847D01*
X017360Y012006D02*
X015240Y012006D01*
X015240Y012164D02*
X017360Y012164D01*
X017444Y012323D02*
X015156Y012323D01*
X014736Y012640D02*
X012536Y012640D01*
X012575Y012633D02*
X012483Y012648D01*
X012002Y012648D01*
X012002Y012134D01*
X011848Y012134D01*
X011848Y012648D01*
X011367Y012648D01*
X011275Y012633D01*
X011186Y012605D01*
X011103Y012562D01*
X011028Y012508D01*
X010962Y012442D01*
X010907Y012366D01*
X010865Y012283D01*
X010836Y012195D01*
X010826Y012134D01*
X011848Y012134D01*
X011848Y011979D01*
X012002Y011979D01*
X012002Y011464D01*
X012483Y011464D01*
X012575Y011479D01*
X012664Y011508D01*
X012747Y011550D01*
X012822Y011605D01*
X012888Y011671D01*
X012943Y011746D01*
X012985Y011829D01*
X013014Y011918D01*
X013024Y011979D01*
X012002Y011979D01*
X012002Y012134D01*
X013024Y012134D01*
X013014Y012195D01*
X012985Y012283D01*
X012943Y012366D01*
X012888Y012442D01*
X012822Y012508D01*
X012747Y012562D01*
X012664Y012605D01*
X012575Y012633D01*
X012849Y012481D02*
X014603Y012481D01*
X014444Y012323D02*
X012965Y012323D01*
X013019Y012164D02*
X014360Y012164D01*
X014360Y012006D02*
X012002Y012006D01*
X011848Y012006D02*
X010640Y012006D01*
X010640Y012164D02*
X010831Y012164D01*
X010885Y012323D02*
X010640Y012323D01*
X010640Y012481D02*
X011001Y012481D01*
X011314Y012640D02*
X010640Y012640D01*
X010640Y012798D02*
X014577Y012798D01*
X014419Y012957D02*
X010640Y012957D01*
X010640Y013115D02*
X014260Y013115D01*
X014102Y013274D02*
X010640Y013274D01*
X010640Y013432D02*
X011112Y013432D01*
X010900Y013591D02*
X010640Y013591D01*
X010640Y013749D02*
X010792Y013749D01*
X010726Y013908D02*
X010640Y013908D01*
X010640Y014066D02*
X010721Y014066D01*
X010734Y014225D02*
X010640Y014225D01*
X010640Y014383D02*
X010800Y014383D01*
X010920Y014542D02*
X010640Y014542D01*
X010640Y014700D02*
X011160Y014700D01*
X009960Y014700D02*
X009496Y014700D01*
X009562Y014859D02*
X009960Y014859D01*
X009960Y015017D02*
X009590Y015017D01*
X009590Y015176D02*
X009960Y015176D01*
X009960Y015334D02*
X009545Y015334D01*
X009479Y015493D02*
X009960Y015493D01*
X009960Y015651D02*
X009326Y015651D01*
X008649Y015810D02*
X008060Y015810D01*
X008060Y015651D02*
X008353Y015651D01*
X008199Y015493D02*
X008060Y015493D01*
X008060Y015334D02*
X008134Y015334D01*
X008089Y015176D02*
X008060Y015176D01*
X008060Y015017D02*
X008089Y015017D01*
X008060Y014859D02*
X008117Y014859D01*
X008060Y014700D02*
X008182Y014700D01*
X008060Y014542D02*
X008312Y014542D01*
X008550Y014383D02*
X008060Y014383D01*
X008060Y014225D02*
X009960Y014225D01*
X009960Y014383D02*
X009129Y014383D01*
X008989Y014173D02*
X008690Y014173D01*
X008414Y014059D01*
X008203Y013848D01*
X008089Y013572D01*
X008089Y013273D01*
X008203Y012997D01*
X008414Y012786D01*
X008690Y012671D01*
X008989Y012671D01*
X009265Y012786D01*
X009476Y012997D01*
X009590Y013273D01*
X009590Y013572D01*
X009476Y013848D01*
X009265Y014059D01*
X008989Y014173D01*
X009247Y014066D02*
X009960Y014066D01*
X009960Y013908D02*
X009416Y013908D01*
X009517Y013749D02*
X009960Y013749D01*
X009960Y013591D02*
X009582Y013591D01*
X009590Y013432D02*
X009960Y013432D01*
X009960Y013274D02*
X009590Y013274D01*
X009525Y013115D02*
X009960Y013115D01*
X009960Y012957D02*
X009436Y012957D01*
X009277Y012798D02*
X009960Y012798D01*
X009960Y012640D02*
X008060Y012640D01*
X008060Y012798D02*
X008402Y012798D01*
X008243Y012957D02*
X008060Y012957D01*
X008060Y013115D02*
X008154Y013115D01*
X008089Y013274D02*
X008060Y013274D01*
X008060Y013432D02*
X008089Y013432D01*
X008096Y013591D02*
X008060Y013591D01*
X008060Y013749D02*
X008162Y013749D01*
X008060Y013908D02*
X008263Y013908D01*
X008432Y014066D02*
X008060Y014066D01*
X007540Y014066D02*
X007082Y014066D01*
X007251Y013908D02*
X007540Y013908D01*
X007540Y013749D02*
X007351Y013749D01*
X007417Y013591D02*
X007540Y013591D01*
X007540Y013432D02*
X007425Y013432D01*
X007425Y013274D02*
X007540Y013274D01*
X007540Y013115D02*
X007359Y013115D01*
X007270Y012957D02*
X007540Y012957D01*
X007540Y012798D02*
X007112Y012798D01*
X007540Y012640D02*
X006065Y012640D01*
X006065Y012798D02*
X006236Y012798D01*
X006078Y012957D02*
X006065Y012957D01*
X006065Y012481D02*
X006432Y012481D01*
X006166Y012323D02*
X006065Y012323D01*
X006916Y012481D02*
X007540Y012481D01*
X007540Y012323D02*
X007182Y012323D01*
X007323Y012164D02*
X007540Y012164D01*
X007540Y012006D02*
X007389Y012006D01*
X007425Y011847D02*
X007540Y011847D01*
X007540Y011689D02*
X007425Y011689D01*
X007388Y011530D02*
X007540Y011530D01*
X007540Y011372D02*
X007322Y011372D01*
X007180Y011213D02*
X007540Y011213D01*
X007540Y011055D02*
X006912Y011055D01*
X007114Y010738D02*
X007540Y010738D01*
X007540Y010896D02*
X006065Y010896D01*
X006065Y010738D02*
X006235Y010738D01*
X006076Y010579D02*
X006065Y010579D01*
X006065Y011055D02*
X006436Y011055D01*
X006168Y011213D02*
X006065Y011213D01*
X007272Y010579D02*
X007540Y010579D01*
X007540Y010421D02*
X007360Y010421D01*
X007425Y010262D02*
X007540Y010262D01*
X007540Y010104D02*
X007425Y010104D01*
X007416Y009945D02*
X007540Y009945D01*
X007540Y009787D02*
X007351Y009787D01*
X007249Y009628D02*
X007540Y009628D01*
X007540Y009470D02*
X007077Y009470D01*
X006968Y009153D02*
X007540Y009153D01*
X007540Y009311D02*
X006065Y009311D01*
X006065Y009153D02*
X006380Y009153D01*
X006145Y008994D02*
X006065Y008994D01*
X006065Y009470D02*
X006271Y009470D01*
X006099Y009628D02*
X006065Y009628D01*
X007203Y008994D02*
X007540Y008994D01*
X007540Y008836D02*
X007332Y008836D01*
X007398Y008677D02*
X007540Y008677D01*
X007540Y008519D02*
X007425Y008519D01*
X007425Y008360D02*
X007540Y008360D01*
X007540Y008202D02*
X007379Y008202D01*
X007313Y008043D02*
X007540Y008043D01*
X007540Y007885D02*
X007159Y007885D01*
X006860Y007726D02*
X007552Y007726D01*
X007671Y007568D02*
X006194Y007568D01*
X006065Y007726D02*
X006488Y007726D01*
X006189Y007885D02*
X006065Y007885D01*
X006352Y007409D02*
X007829Y007409D01*
X007954Y007251D02*
X006511Y007251D01*
X006669Y007092D02*
X007572Y007092D01*
X007386Y006934D02*
X006828Y006934D01*
X006986Y006775D02*
X007259Y006775D01*
X007167Y006617D02*
X007145Y006617D01*
X008396Y007251D02*
X009113Y007251D01*
X009271Y007092D02*
X008778Y007092D01*
X008964Y006934D02*
X009415Y006934D01*
X009415Y006775D02*
X009091Y006775D01*
X009183Y006617D02*
X009415Y006617D01*
X009415Y006458D02*
X009229Y006458D01*
X009265Y006300D02*
X009448Y006300D01*
X009528Y006211D02*
X009528Y006211D01*
X009597Y006141D02*
X009265Y006141D01*
X009250Y005983D02*
X009756Y005983D01*
X009914Y005824D02*
X009208Y005824D01*
X009136Y005666D02*
X011759Y005666D01*
X011672Y005507D02*
X009043Y005507D01*
X008884Y005349D02*
X011672Y005349D01*
X011672Y005190D02*
X008639Y005190D01*
X008730Y005032D02*
X011674Y005032D01*
X011750Y004873D02*
X008888Y004873D01*
X009047Y004715D02*
X011763Y004715D01*
X011876Y004556D02*
X009205Y004556D01*
X009364Y004398D02*
X012034Y004398D01*
X012193Y004239D02*
X009522Y004239D01*
X009681Y004081D02*
X012351Y004081D01*
X010949Y002813D02*
X023051Y002813D01*
X022892Y002971D02*
X010790Y002971D01*
X011107Y002654D02*
X023209Y002654D01*
X023368Y002496D02*
X011266Y002496D01*
X011741Y002020D02*
X012222Y002020D01*
X012112Y001862D02*
X011900Y001862D01*
X013471Y002322D02*
X013719Y002179D01*
X013878Y002020D02*
X023843Y002020D01*
X024002Y001862D02*
X013988Y001862D01*
X014072Y001703D02*
X024160Y001703D01*
X024319Y001545D02*
X014115Y001545D01*
X014140Y001386D02*
X024477Y001386D01*
X024636Y001228D02*
X014140Y001228D01*
X014115Y001069D02*
X024794Y001069D01*
X024830Y001034D02*
X024830Y001034D01*
X025050Y001181D02*
X020300Y005931D01*
X020458Y006141D02*
X031040Y006141D01*
X031040Y005983D02*
X020616Y005983D01*
X020520Y006078D02*
X020520Y006078D01*
X020775Y005824D02*
X031040Y005824D01*
X031040Y005666D02*
X020933Y005666D01*
X021092Y005507D02*
X031040Y005507D01*
X031040Y005349D02*
X021250Y005349D01*
X021409Y005190D02*
X031040Y005190D01*
X031040Y005032D02*
X021567Y005032D01*
X021726Y004873D02*
X031040Y004873D01*
X031040Y004715D02*
X021884Y004715D01*
X022043Y004556D02*
X031040Y004556D01*
X031040Y004398D02*
X022201Y004398D01*
X022360Y004239D02*
X031040Y004239D01*
X031040Y004081D02*
X022518Y004081D01*
X022677Y003922D02*
X031040Y003922D01*
X031040Y003764D02*
X022835Y003764D01*
X022994Y003605D02*
X031040Y003605D01*
X031040Y003447D02*
X023152Y003447D01*
X023311Y003288D02*
X031040Y003288D01*
X031040Y003130D02*
X023469Y003130D01*
X023628Y002971D02*
X031040Y002971D01*
X031040Y002813D02*
X023786Y002813D01*
X023945Y002654D02*
X031040Y002654D01*
X031040Y002496D02*
X024103Y002496D01*
X024262Y002337D02*
X031040Y002337D01*
X031040Y002179D02*
X024420Y002179D01*
X024579Y002020D02*
X031040Y002020D01*
X031040Y001862D02*
X024737Y001862D01*
X024896Y001703D02*
X031040Y001703D01*
X031040Y001545D02*
X025054Y001545D01*
X025050Y001181D02*
X025550Y001181D01*
X031300Y001181D01*
X031300Y008056D01*
X035050Y008056D01*
X035425Y009056D02*
X034925Y009556D01*
X032675Y009556D01*
X037300Y010181D02*
X037425Y008056D01*
X042925Y002556D01*
X054050Y004931D02*
X055425Y004931D01*
X055925Y004431D01*
X055925Y003431D01*
X041425Y009681D02*
X040925Y009181D01*
X039300Y009181D01*
X038800Y008681D01*
X038800Y008056D01*
X038550Y008056D01*
X041425Y009681D02*
X041425Y012806D01*
X040175Y013306D02*
X045925Y013306D01*
X046425Y013806D01*
X046425Y014306D01*
X051925Y015306D02*
X052425Y014806D01*
X052425Y014306D01*
X051925Y018556D02*
X051925Y019356D01*
X051925Y019756D02*
X052925Y019756D01*
X053475Y019756D01*
X053675Y019556D01*
X053675Y019056D01*
X055675Y019056D01*
X055925Y019306D01*
X055925Y019806D01*
X055925Y019756D01*
X058175Y019306D02*
X058175Y020556D01*
X065925Y020556D01*
X066425Y020056D01*
X066425Y019306D01*
X066425Y018556D01*
X067425Y018556D02*
X067425Y019806D01*
X068425Y019806D01*
X068425Y019756D01*
X069425Y019756D01*
X069975Y019756D01*
X070175Y019556D01*
X070175Y019056D01*
X072175Y019056D01*
X072425Y019306D01*
X072425Y019806D01*
X072425Y019756D01*
X073425Y018556D02*
X073425Y017806D01*
X072925Y017306D01*
X071175Y017306D01*
X069425Y018556D02*
X069425Y019356D01*
X068425Y019356D02*
X068425Y018556D01*
X064175Y019306D02*
X064175Y019806D01*
X064175Y019756D01*
X064175Y019306D02*
X063925Y019056D01*
X061925Y019056D01*
X061925Y019556D01*
X061725Y019756D01*
X061175Y019756D01*
X060175Y019756D01*
X060175Y019806D01*
X059175Y019806D01*
X059175Y018556D01*
X058175Y018556D02*
X058175Y019306D01*
X060175Y019356D02*
X060175Y018556D01*
X061175Y018556D02*
X061175Y019356D01*
X058175Y020556D02*
X049925Y020556D01*
X049925Y018556D01*
X049925Y019306D01*
X050925Y019806D02*
X050925Y018556D01*
X052925Y018556D02*
X052925Y019356D01*
X051925Y019756D02*
X051925Y019806D01*
X050925Y019806D01*
X049925Y020556D02*
X041925Y020556D01*
X041925Y019306D01*
X041675Y018556D01*
X042675Y018556D02*
X042675Y019806D01*
X043425Y019806D01*
X044675Y019806D01*
X045175Y019806D01*
X045425Y019556D01*
X045425Y019056D01*
X047425Y019056D01*
X047675Y019306D01*
X047675Y019806D01*
X044675Y019756D02*
X044675Y019806D01*
X044675Y019756D01*
X043675Y019756D01*
X043675Y019806D01*
X043425Y019806D01*
X043675Y019356D02*
X043675Y018556D01*
X044675Y018556D02*
X044675Y019356D01*
X041925Y020556D02*
X033925Y020556D01*
X033425Y020056D01*
X033425Y018556D01*
X033425Y019056D01*
X034425Y018556D02*
X034425Y019756D01*
X035425Y019756D01*
X036425Y019756D01*
X036425Y019806D01*
X036925Y019806D01*
X037175Y019556D01*
X037175Y019056D01*
X039175Y019056D01*
X039425Y019306D01*
X039425Y019806D01*
X036425Y019356D02*
X036425Y018556D01*
X035425Y018556D02*
X035425Y019356D01*
X030675Y020306D02*
X028925Y021806D01*
X029435Y021833D02*
X031175Y021833D01*
X031175Y021991D02*
X029435Y021991D01*
X029435Y022150D02*
X031175Y022150D01*
X031175Y022308D02*
X029406Y022308D01*
X029316Y022467D02*
X031175Y022467D01*
X031175Y022625D02*
X029741Y022625D01*
X030883Y024301D02*
X027950Y024301D01*
X027925Y024326D01*
X025675Y024806D02*
X025050Y024806D01*
X024533Y024289D01*
X022433Y024289D01*
X022433Y024801D01*
X022170Y025064D01*
X021245Y022625D02*
X020741Y022625D01*
X020908Y022449D02*
X020862Y022403D01*
X020824Y022351D01*
X020795Y022293D01*
X020775Y022232D01*
X020765Y022168D01*
X020765Y021836D01*
X021145Y021836D01*
X021145Y022546D01*
X021143Y022546D01*
X021079Y022536D01*
X021018Y022516D01*
X020960Y022487D01*
X020908Y022449D01*
X020932Y022467D02*
X017566Y022467D01*
X017656Y022308D02*
X020802Y022308D01*
X020765Y022150D02*
X017685Y022150D01*
X017685Y021991D02*
X020765Y021991D01*
X020765Y021776D02*
X020765Y021444D01*
X020775Y021380D01*
X020795Y021319D01*
X020824Y021261D01*
X020862Y021209D01*
X020908Y021163D01*
X020960Y021125D01*
X021018Y021096D01*
X021079Y021076D01*
X021143Y021066D01*
X021145Y021066D01*
X021145Y021776D01*
X020765Y021776D01*
X020765Y021674D02*
X017729Y021674D01*
X017685Y021833D02*
X021145Y021833D01*
X021145Y021991D02*
X021205Y021991D01*
X021205Y022150D02*
X021145Y022150D01*
X021145Y022308D02*
X021205Y022308D01*
X021205Y022467D02*
X021145Y022467D01*
X020109Y022625D02*
X017741Y022625D01*
X015487Y022467D02*
X015418Y022467D01*
X015348Y022625D02*
X009067Y022625D01*
X006230Y022308D02*
X006065Y022308D01*
X006065Y022150D02*
X006072Y022150D01*
X006065Y018980D02*
X006209Y018980D01*
X006125Y017870D02*
X006065Y017870D01*
X006065Y017712D02*
X006333Y017712D01*
X009085Y016127D02*
X009960Y016127D01*
X009960Y016285D02*
X009316Y016285D01*
X007540Y015968D02*
X006065Y015968D01*
X006065Y015810D02*
X006483Y015810D01*
X006187Y015651D02*
X006065Y015651D01*
X006865Y015810D02*
X007540Y015810D01*
X007540Y015651D02*
X007161Y015651D01*
X007314Y015493D02*
X007540Y015493D01*
X007540Y015334D02*
X007380Y015334D01*
X007425Y015176D02*
X007540Y015176D01*
X007540Y015017D02*
X007425Y015017D01*
X007397Y014859D02*
X007540Y014859D01*
X007540Y014700D02*
X007331Y014700D01*
X007202Y014542D02*
X007540Y014542D01*
X007540Y014383D02*
X006964Y014383D01*
X006384Y014383D02*
X006065Y014383D01*
X006065Y014225D02*
X007540Y014225D01*
X006266Y014066D02*
X006065Y014066D01*
X006065Y013908D02*
X006097Y013908D01*
X006065Y014542D02*
X006146Y014542D01*
X009367Y014542D02*
X009960Y014542D01*
X012738Y013432D02*
X013943Y013432D01*
X013785Y013591D02*
X012950Y013591D01*
X012002Y012640D02*
X011848Y012640D01*
X011848Y012481D02*
X012002Y012481D01*
X012002Y012323D02*
X011848Y012323D01*
X011848Y012164D02*
X012002Y012164D01*
X011848Y011979D02*
X010826Y011979D01*
X010836Y011918D01*
X010865Y011829D01*
X010907Y011746D01*
X010962Y011671D01*
X011028Y011605D01*
X011103Y011550D01*
X011186Y011508D01*
X011275Y011479D01*
X011367Y011464D01*
X011848Y011464D01*
X011848Y011979D01*
X011848Y011847D02*
X012002Y011847D01*
X012002Y011689D02*
X011848Y011689D01*
X011848Y011530D02*
X012002Y011530D01*
X012708Y011530D02*
X018835Y011530D01*
X018835Y011372D02*
X010640Y011372D01*
X010640Y011530D02*
X011142Y011530D01*
X010949Y011689D02*
X010640Y011689D01*
X010640Y011847D02*
X010859Y011847D01*
X009960Y011847D02*
X009590Y011847D01*
X009590Y011918D02*
X009590Y011619D01*
X009476Y011343D01*
X009265Y011132D01*
X008989Y011018D01*
X008690Y011018D01*
X008414Y011132D01*
X008203Y011343D01*
X008089Y011619D01*
X008089Y011918D01*
X008203Y012194D01*
X008414Y012405D01*
X008690Y012520D01*
X008989Y012520D01*
X009265Y012405D01*
X009476Y012194D01*
X009590Y011918D01*
X009554Y012006D02*
X009960Y012006D01*
X009960Y012164D02*
X009488Y012164D01*
X009347Y012323D02*
X009960Y012323D01*
X009960Y012481D02*
X009082Y012481D01*
X008597Y012481D02*
X008060Y012481D01*
X008060Y012323D02*
X008331Y012323D01*
X008190Y012164D02*
X008060Y012164D01*
X008060Y012006D02*
X008125Y012006D01*
X008089Y011847D02*
X008060Y011847D01*
X008060Y011689D02*
X008089Y011689D01*
X008060Y011530D02*
X008125Y011530D01*
X008060Y011372D02*
X008191Y011372D01*
X008060Y011213D02*
X008333Y011213D01*
X008601Y011055D02*
X008060Y011055D01*
X008060Y010896D02*
X009960Y010896D01*
X009960Y010738D02*
X009279Y010738D01*
X009265Y010752D02*
X008989Y010866D01*
X008690Y010866D01*
X008414Y010752D01*
X008203Y010540D01*
X008089Y010265D01*
X008089Y009966D01*
X008203Y009690D01*
X008414Y009479D01*
X008690Y009364D01*
X008989Y009364D01*
X009265Y009479D01*
X009476Y009690D01*
X009590Y009966D01*
X009590Y010265D01*
X009476Y010540D01*
X009265Y010752D01*
X009437Y010579D02*
X009960Y010579D01*
X009960Y010421D02*
X009526Y010421D01*
X009590Y010262D02*
X009960Y010262D01*
X009960Y010104D02*
X009590Y010104D01*
X009582Y009945D02*
X009960Y009945D01*
X009960Y009787D02*
X009516Y009787D01*
X009414Y009628D02*
X009960Y009628D01*
X009960Y009470D02*
X009243Y009470D01*
X009133Y009153D02*
X009960Y009153D01*
X009960Y009311D02*
X008060Y009311D01*
X008060Y009153D02*
X008545Y009153D01*
X008310Y008994D02*
X008060Y008994D01*
X008060Y008836D02*
X008182Y008836D01*
X008116Y008677D02*
X008060Y008677D01*
X008060Y008519D02*
X008089Y008519D01*
X008089Y008360D02*
X008060Y008360D01*
X008060Y008202D02*
X008134Y008202D01*
X008200Y008043D02*
X008060Y008043D01*
X008089Y007885D02*
X008355Y007885D01*
X009324Y007885D02*
X010366Y007885D01*
X010207Y008043D02*
X009479Y008043D01*
X009544Y008202D02*
X010049Y008202D01*
X009961Y008360D02*
X009590Y008360D01*
X009590Y008519D02*
X009960Y008519D01*
X009960Y008677D02*
X009563Y008677D01*
X009497Y008836D02*
X009960Y008836D01*
X009960Y008994D02*
X009369Y008994D01*
X010640Y008994D02*
X016757Y008994D01*
X016599Y008836D02*
X010640Y008836D01*
X010640Y008677D02*
X011104Y008677D01*
X010897Y008519D02*
X010693Y008519D01*
X010640Y009153D02*
X016916Y009153D01*
X017074Y009311D02*
X010640Y009311D01*
X010640Y009470D02*
X011334Y009470D01*
X011004Y009628D02*
X010640Y009628D01*
X010640Y009787D02*
X010886Y009787D01*
X010832Y009945D02*
X010640Y009945D01*
X010640Y010104D02*
X011848Y010104D01*
X011848Y010262D02*
X012002Y010262D01*
X012002Y010421D02*
X011848Y010421D01*
X011848Y010579D02*
X012002Y010579D01*
X011136Y010579D02*
X010640Y010579D01*
X010640Y010421D02*
X010946Y010421D01*
X010858Y010262D02*
X010640Y010262D01*
X009960Y011055D02*
X009077Y011055D01*
X009346Y011213D02*
X009960Y011213D01*
X009960Y011372D02*
X009488Y011372D01*
X009553Y011530D02*
X009960Y011530D01*
X009960Y011689D02*
X009590Y011689D01*
X008400Y010738D02*
X008060Y010738D01*
X008060Y010579D02*
X008241Y010579D01*
X008153Y010421D02*
X008060Y010421D01*
X008060Y010262D02*
X008089Y010262D01*
X008089Y010104D02*
X008060Y010104D01*
X008060Y009945D02*
X008097Y009945D01*
X008060Y009787D02*
X008163Y009787D01*
X008265Y009628D02*
X008060Y009628D01*
X008060Y009470D02*
X008436Y009470D01*
X009373Y007726D02*
X010583Y007726D01*
X010923Y007568D02*
X009531Y007568D01*
X009690Y007409D02*
X011168Y007409D01*
X009935Y007092D02*
X031040Y007092D01*
X031040Y006934D02*
X009935Y006934D01*
X009935Y006775D02*
X031040Y006775D01*
X031040Y006617D02*
X009935Y006617D01*
X010016Y006458D02*
X031040Y006458D01*
X031040Y006300D02*
X010174Y006300D01*
X009848Y007251D02*
X031040Y007251D01*
X031040Y007409D02*
X012682Y007409D01*
X012927Y007568D02*
X031040Y007568D01*
X026542Y010104D02*
X023683Y010104D01*
X023843Y010262D02*
X026382Y010262D01*
X026297Y010421D02*
X023928Y010421D01*
X023980Y010579D02*
X026245Y010579D01*
X026245Y010738D02*
X023980Y010738D01*
X023947Y010896D02*
X026278Y010896D01*
X026344Y011055D02*
X023881Y011055D01*
X023730Y011213D02*
X026495Y011213D01*
X022960Y011372D02*
X019515Y011372D01*
X019515Y011530D02*
X022845Y011530D01*
X022687Y011689D02*
X019515Y011689D01*
X019515Y011847D02*
X022528Y011847D01*
X022370Y012006D02*
X019456Y012006D01*
X019298Y012164D02*
X022211Y012164D01*
X022053Y012323D02*
X019139Y012323D01*
X018812Y011689D02*
X018055Y011689D01*
X019515Y011213D02*
X021012Y011213D01*
X021060Y011261D02*
X020720Y010921D01*
X020720Y010701D01*
X021280Y010701D01*
X021280Y010661D01*
X021320Y010661D01*
X021320Y010101D01*
X021540Y010101D01*
X021880Y010441D01*
X021880Y010661D01*
X021320Y010661D01*
X021320Y010701D01*
X021880Y010701D01*
X021880Y010921D01*
X021540Y011261D01*
X021320Y011261D01*
X021320Y010701D01*
X021280Y010701D01*
X021280Y011261D01*
X021060Y011261D01*
X021280Y011213D02*
X021320Y011213D01*
X021320Y011055D02*
X021280Y011055D01*
X021280Y010896D02*
X021320Y010896D01*
X021320Y010738D02*
X021280Y010738D01*
X021280Y010661D02*
X020720Y010661D01*
X020720Y010441D01*
X021060Y010101D01*
X021280Y010101D01*
X021280Y010661D01*
X021280Y010579D02*
X021320Y010579D01*
X021320Y010421D02*
X021280Y010421D01*
X021280Y010262D02*
X021320Y010262D01*
X021320Y010104D02*
X021280Y010104D01*
X021057Y010104D02*
X019515Y010104D01*
X019515Y010262D02*
X020899Y010262D01*
X020740Y010421D02*
X019515Y010421D01*
X019515Y010579D02*
X020720Y010579D01*
X020720Y010738D02*
X019515Y010738D01*
X019515Y010896D02*
X020720Y010896D01*
X020853Y011055D02*
X019515Y011055D01*
X021588Y011213D02*
X022870Y011213D01*
X022719Y011055D02*
X021747Y011055D01*
X021880Y010896D02*
X022653Y010896D01*
X022620Y010738D02*
X021880Y010738D01*
X021880Y010579D02*
X022620Y010579D01*
X022672Y010421D02*
X021860Y010421D01*
X021701Y010262D02*
X022757Y010262D01*
X022917Y010104D02*
X021543Y010104D01*
X018835Y008677D02*
X017402Y008677D01*
X016299Y008677D02*
X012746Y008677D01*
X012953Y008519D02*
X015282Y008519D01*
X015210Y008360D02*
X013060Y008360D01*
X013125Y008202D02*
X015210Y008202D01*
X015332Y008043D02*
X013129Y008043D01*
X009822Y007277D02*
X009822Y007277D01*
X016525Y003764D02*
X021357Y003764D01*
X014545Y011689D02*
X012901Y011689D01*
X012991Y011847D02*
X014387Y011847D01*
X029215Y013749D02*
X030484Y013749D01*
X030282Y013908D02*
X029346Y013908D01*
X029438Y014066D02*
X030146Y014066D01*
X030055Y014225D02*
X029529Y014225D01*
X029576Y014383D02*
X030001Y014383D01*
X029960Y014542D02*
X029618Y014542D01*
X029655Y014700D02*
X029960Y014700D01*
X029969Y014859D02*
X029655Y014859D01*
X029655Y015017D02*
X030011Y015017D01*
X030077Y015176D02*
X029644Y015176D01*
X029601Y015334D02*
X030168Y015334D01*
X030320Y015493D02*
X029559Y015493D01*
X029493Y015651D02*
X030550Y015651D01*
X031175Y015810D02*
X029401Y015810D01*
X029310Y015968D02*
X031175Y015968D01*
X031092Y016127D02*
X029151Y016127D01*
X028993Y016285D02*
X030956Y016285D01*
X030820Y016444D02*
X028722Y016444D01*
X035925Y014556D02*
X037425Y014556D01*
X037925Y015056D01*
X038175Y015056D01*
X040425Y015056D01*
X040425Y014306D01*
X030428Y019931D02*
X025172Y019931D01*
X025330Y020089D02*
X030270Y020089D01*
X030235Y020248D02*
X025365Y020248D01*
X025365Y020406D02*
X030159Y020406D01*
X029974Y020565D02*
X025289Y020565D01*
X025130Y020723D02*
X029789Y020723D01*
X034425Y022306D02*
X034800Y021931D01*
X040175Y021931D01*
X040425Y022181D01*
X040675Y021931D01*
X042425Y021931D01*
X042675Y022181D01*
X042675Y023556D01*
X040425Y024556D02*
X040425Y022056D01*
X040425Y022181D02*
X040425Y024556D01*
X042675Y022181D02*
X042925Y021931D01*
X048300Y021931D01*
X048675Y022306D01*
X048675Y024556D01*
X048675Y023556D02*
X048675Y022306D01*
X049050Y021931D01*
X050550Y021931D01*
X050975Y022356D01*
X050975Y024556D01*
X050925Y023556D02*
X050925Y022431D01*
X051425Y021931D01*
X056550Y021931D01*
X056925Y022306D01*
X056925Y024556D01*
X055875Y024556D02*
X055875Y022856D01*
X055925Y022806D01*
X056925Y022306D02*
X056925Y023556D01*
X058125Y024556D02*
X058125Y024856D01*
X059175Y024506D02*
X059175Y022306D01*
X058800Y021931D01*
X057300Y021931D01*
X056925Y022306D01*
X059175Y022306D02*
X059175Y023556D01*
X059175Y024506D01*
X059225Y024556D01*
X059175Y022306D02*
X059550Y021931D01*
X066925Y021931D01*
X067475Y022481D01*
X067475Y024556D01*
X067425Y024506D01*
X067425Y023556D01*
X067425Y022306D01*
X067800Y021931D01*
X072675Y021931D01*
X073425Y022681D01*
X073425Y024556D01*
X072375Y024556D02*
X072375Y022856D01*
X072425Y022806D01*
X073425Y021306D02*
X074925Y021306D01*
X075175Y021306D01*
X066375Y024556D02*
X066375Y024606D01*
X065175Y024556D02*
X065175Y024806D01*
X064125Y024556D02*
X064125Y022856D01*
X064175Y022806D01*
X034425Y022306D02*
X034425Y023556D01*
X033425Y023556D02*
X033425Y024506D01*
X033375Y024556D01*
X031675Y025094D02*
X030883Y024301D01*
X031675Y025094D02*
X031675Y025681D01*
X026109Y022625D02*
X023741Y022625D01*
X021205Y021674D02*
X021145Y021674D01*
X021145Y021516D02*
X021205Y021516D01*
X021205Y021357D02*
X021145Y021357D01*
X021145Y021199D02*
X021205Y021199D01*
X021477Y021199D02*
X021738Y021199D01*
X021662Y021357D02*
X021567Y021357D01*
X021895Y021040D02*
X018468Y021040D01*
X018283Y021199D02*
X020873Y021199D01*
X020783Y021357D02*
X018098Y021357D01*
X017913Y021516D02*
X020765Y021516D01*
X018653Y020882D02*
X023854Y020882D01*
X023669Y021040D02*
X023455Y021040D01*
X022895Y021040D02*
X022455Y021040D01*
X022612Y021199D02*
X022738Y021199D01*
X024039Y020723D02*
X019130Y020723D01*
X019289Y020565D02*
X024224Y020565D01*
X024409Y020406D02*
X019365Y020406D01*
D36*
X040175Y013306D03*
X041425Y012806D03*
X032675Y009556D03*
X035425Y009056D03*
X035050Y008056D03*
X038550Y008056D03*
X054050Y004931D03*
X058675Y007306D03*
X060800Y008094D03*
X062925Y009431D03*
X059925Y011056D03*
X058050Y012306D03*
X068425Y012931D03*
X069175Y011806D03*
X068550Y010056D03*
X068550Y008431D03*
X069175Y008306D03*
X071175Y017306D03*
X073425Y021306D03*
X075175Y021306D03*
X021675Y003431D03*
X016550Y005306D03*
X014925Y005306D03*
X012050Y005306D03*
D37*
X011925Y008056D02*
X010675Y008056D01*
X010300Y008431D01*
X010300Y016931D01*
X011050Y017681D01*
X011925Y017681D01*
X011925Y014056D02*
X013800Y014056D01*
X015050Y012806D01*
X022050Y012806D01*
X023300Y011556D01*
X023300Y010681D01*
X019175Y011806D02*
X019175Y008306D01*
X017800Y009556D02*
X016550Y008306D01*
X017800Y009556D02*
X017800Y010681D01*
X018925Y012056D02*
X019175Y011806D01*
X018925Y012056D02*
X017800Y012056D01*
X031675Y011960D02*
X041085Y011960D01*
X041085Y011642D02*
X037914Y011642D01*
X037930Y011603D02*
X037890Y011698D01*
X037817Y011772D01*
X037722Y011811D01*
X036878Y011811D01*
X036783Y011772D01*
X036710Y011698D01*
X036699Y011673D01*
X036561Y011811D01*
X036039Y011811D01*
X035800Y011572D01*
X035561Y011811D01*
X035039Y011811D01*
X034670Y011442D01*
X034670Y010920D01*
X034980Y010610D01*
X034770Y010401D01*
X034770Y010181D01*
X034770Y009962D01*
X034835Y009896D01*
X033096Y009896D01*
X033094Y009901D01*
X033020Y009975D01*
X032925Y010014D01*
X032425Y010014D01*
X032330Y009975D01*
X032256Y009901D01*
X032217Y009806D01*
X032217Y009306D01*
X032256Y009211D01*
X032330Y009138D01*
X032425Y009098D01*
X032925Y009098D01*
X033020Y009138D01*
X033094Y009211D01*
X033096Y009216D01*
X034784Y009216D01*
X034967Y009033D01*
X034967Y008806D01*
X035006Y008711D01*
X035080Y008638D01*
X035175Y008598D01*
X035675Y008598D01*
X035770Y008638D01*
X035844Y008711D01*
X035883Y008806D01*
X035883Y009306D01*
X035844Y009401D01*
X035770Y009475D01*
X035675Y009514D01*
X035448Y009514D01*
X035311Y009651D01*
X035520Y009651D01*
X035729Y009861D01*
X036039Y009551D01*
X036561Y009551D01*
X036800Y009790D01*
X036994Y009596D01*
X037085Y008046D01*
X037085Y007988D01*
X037089Y007979D01*
X037090Y007969D01*
X037115Y007917D01*
X037137Y007864D01*
X037144Y007856D01*
X037149Y007847D01*
X037192Y007809D01*
X042368Y002632D01*
X042368Y002148D01*
X042453Y001944D01*
X042610Y001787D01*
X042814Y001702D01*
X043036Y001702D01*
X043240Y001787D01*
X043397Y001944D01*
X043481Y002147D01*
X043502Y002084D01*
X043534Y002020D01*
X043577Y001962D01*
X043627Y001911D01*
X043686Y001869D01*
X043750Y001836D01*
X043818Y001814D01*
X043889Y001802D01*
X043925Y001802D01*
X043961Y001802D01*
X044032Y001814D01*
X044100Y001836D01*
X044164Y001869D01*
X044223Y001911D01*
X044273Y001962D01*
X044316Y002020D01*
X044348Y002084D01*
X044369Y002147D01*
X044453Y001944D01*
X044610Y001787D01*
X044814Y001702D01*
X045036Y001702D01*
X045240Y001787D01*
X045397Y001944D01*
X045482Y002148D01*
X045482Y002964D01*
X045397Y003168D01*
X045240Y003325D01*
X045036Y003410D01*
X044814Y003410D01*
X044610Y003325D01*
X044453Y003168D01*
X044369Y002965D01*
X044348Y003028D01*
X044316Y003092D01*
X044273Y003151D01*
X044223Y003201D01*
X044164Y003244D01*
X044100Y003276D01*
X044032Y003299D01*
X043961Y003310D01*
X043925Y003310D01*
X043889Y003310D01*
X043818Y003299D01*
X043750Y003276D01*
X043686Y003244D01*
X043627Y003201D01*
X043577Y003151D01*
X043534Y003092D01*
X043502Y003028D01*
X043481Y002965D01*
X043397Y003168D01*
X043240Y003325D01*
X043036Y003410D01*
X042814Y003410D01*
X042629Y003333D01*
X038364Y007598D01*
X038800Y007598D01*
X038895Y007638D01*
X038969Y007711D01*
X038985Y007751D01*
X039130Y007605D01*
X039322Y007526D01*
X039528Y007526D01*
X039720Y007605D01*
X039866Y007752D01*
X039925Y007894D01*
X039984Y007752D01*
X040130Y007605D01*
X040322Y007526D01*
X040528Y007526D01*
X040720Y007605D01*
X040866Y007752D01*
X040925Y007894D01*
X040984Y007752D01*
X041130Y007605D01*
X041322Y007526D01*
X041528Y007526D01*
X041720Y007605D01*
X041866Y007752D01*
X041925Y007894D01*
X041984Y007752D01*
X042130Y007605D01*
X042322Y007526D01*
X042528Y007526D01*
X042720Y007605D01*
X042866Y007752D01*
X042925Y007894D01*
X042984Y007752D01*
X043130Y007605D01*
X043322Y007526D01*
X043528Y007526D01*
X043720Y007605D01*
X043866Y007752D01*
X043925Y007894D01*
X043984Y007752D01*
X044130Y007605D01*
X044299Y007535D01*
X044108Y007456D01*
X043950Y007298D01*
X043865Y007092D01*
X043865Y006270D01*
X043950Y006064D01*
X044108Y005906D01*
X044314Y005821D01*
X044536Y005821D01*
X044742Y005906D01*
X044900Y006064D01*
X044981Y006260D01*
X044999Y006205D01*
X045032Y006140D01*
X045074Y006081D01*
X045125Y006030D01*
X045184Y005988D01*
X045248Y005955D01*
X045317Y005932D01*
X045389Y005921D01*
X045425Y005921D01*
X045461Y005921D01*
X045533Y005932D01*
X045602Y005955D01*
X045666Y005988D01*
X045725Y006030D01*
X045776Y006081D01*
X045818Y006140D01*
X045851Y006205D01*
X045874Y006273D01*
X045885Y006345D01*
X045885Y006681D01*
X045425Y006681D01*
X045425Y005921D01*
X045425Y006681D01*
X045425Y006681D01*
X045425Y006681D01*
X045885Y006681D01*
X045885Y007017D01*
X045874Y007089D01*
X045851Y007158D01*
X045818Y007222D01*
X045776Y007281D01*
X045725Y007332D01*
X045666Y007375D01*
X045602Y007407D01*
X045533Y007430D01*
X045461Y007441D01*
X045425Y007441D01*
X045425Y006681D01*
X045425Y007441D01*
X045389Y007441D01*
X045317Y007430D01*
X045248Y007407D01*
X045184Y007375D01*
X045125Y007332D01*
X045074Y007281D01*
X045032Y007222D01*
X044999Y007158D01*
X044981Y007103D01*
X044900Y007298D01*
X044742Y007456D01*
X044551Y007535D01*
X044720Y007605D01*
X044866Y007752D01*
X044925Y007894D01*
X044984Y007752D01*
X045130Y007605D01*
X045322Y007526D01*
X045528Y007526D01*
X045720Y007605D01*
X045866Y007752D01*
X045925Y007894D01*
X045984Y007752D01*
X046130Y007605D01*
X046322Y007526D01*
X046528Y007526D01*
X046720Y007605D01*
X046866Y007752D01*
X046925Y007894D01*
X046984Y007752D01*
X047130Y007605D01*
X047322Y007526D01*
X047528Y007526D01*
X047720Y007605D01*
X047866Y007752D01*
X047925Y007894D01*
X047984Y007752D01*
X048130Y007605D01*
X048322Y007526D01*
X048528Y007526D01*
X048720Y007605D01*
X048866Y007752D01*
X048945Y007943D01*
X048945Y008670D01*
X048866Y008861D01*
X048720Y009007D01*
X048528Y009086D01*
X048322Y009086D01*
X048130Y009007D01*
X047984Y008861D01*
X047925Y008718D01*
X047866Y008861D01*
X047720Y009007D01*
X047528Y009086D01*
X047322Y009086D01*
X047130Y009007D01*
X046984Y008861D01*
X046925Y008718D01*
X046866Y008861D01*
X046720Y009007D01*
X046528Y009086D01*
X046322Y009086D01*
X046130Y009007D01*
X045984Y008861D01*
X045925Y008718D01*
X045866Y008861D01*
X045720Y009007D01*
X045528Y009086D01*
X045322Y009086D01*
X045130Y009007D01*
X044984Y008861D01*
X044925Y008718D01*
X044866Y008861D01*
X044720Y009007D01*
X044528Y009086D01*
X044322Y009086D01*
X044130Y009007D01*
X043984Y008861D01*
X043925Y008718D01*
X043866Y008861D01*
X043720Y009007D01*
X043528Y009086D01*
X043322Y009086D01*
X043130Y009007D01*
X042984Y008861D01*
X042925Y008718D01*
X042866Y008861D01*
X042720Y009007D01*
X042528Y009086D01*
X042322Y009086D01*
X042130Y009007D01*
X041984Y008861D01*
X041925Y008718D01*
X041866Y008861D01*
X041720Y009007D01*
X041528Y009086D01*
X041322Y009086D01*
X041303Y009079D01*
X041713Y009489D01*
X041765Y009613D01*
X041765Y012385D01*
X041770Y012388D01*
X041844Y012461D01*
X041883Y012556D01*
X041883Y012966D01*
X045993Y012966D01*
X046118Y013018D01*
X046618Y013518D01*
X046695Y013595D01*
X046720Y013605D01*
X046866Y013752D01*
X046925Y013894D01*
X046984Y013752D01*
X047045Y013691D01*
X047045Y012881D01*
X046965Y012687D01*
X046965Y012425D01*
X047065Y012182D01*
X047251Y011997D01*
X047494Y011896D01*
X047756Y011896D01*
X047999Y011997D01*
X048185Y012182D01*
X048230Y012293D01*
X048246Y012263D01*
X048298Y012191D01*
X048360Y012129D01*
X048431Y012077D01*
X048510Y012037D01*
X048594Y012010D01*
X048681Y011996D01*
X048725Y011996D01*
X048725Y012556D01*
X048725Y011996D01*
X048769Y011996D01*
X048856Y012010D01*
X048940Y012037D01*
X049019Y012077D01*
X049090Y012129D01*
X049152Y012191D01*
X049204Y012263D01*
X049244Y012341D01*
X049271Y012425D01*
X049285Y012512D01*
X049285Y012556D01*
X048725Y012556D01*
X048725Y012556D01*
X048725Y012556D01*
X049285Y012556D01*
X049285Y012600D01*
X049271Y012687D01*
X049244Y012771D01*
X049204Y012850D01*
X049152Y012921D01*
X049090Y012983D01*
X049019Y013035D01*
X048940Y013075D01*
X048856Y013102D01*
X048769Y013116D01*
X048725Y013116D01*
X048681Y013116D01*
X048594Y013102D01*
X048510Y013075D01*
X048431Y013035D01*
X048360Y012983D01*
X048298Y012921D01*
X048246Y012850D01*
X048230Y012819D01*
X048185Y012930D01*
X047999Y013116D01*
X047805Y013196D01*
X047805Y013691D01*
X047866Y013752D01*
X047945Y013943D01*
X047945Y014670D01*
X047866Y014861D01*
X047760Y014966D01*
X048297Y014966D01*
X048264Y014955D01*
X048205Y014925D01*
X048151Y014886D01*
X048105Y014840D01*
X048066Y014786D01*
X048036Y014727D01*
X048015Y014664D01*
X048005Y014599D01*
X048005Y014306D01*
X048005Y014013D01*
X048015Y013948D01*
X048036Y013885D01*
X048066Y013826D01*
X048105Y013772D01*
X048151Y013726D01*
X048205Y013687D01*
X048264Y013657D01*
X048327Y013636D01*
X048392Y013626D01*
X048425Y013626D01*
X048425Y014306D01*
X048425Y013626D01*
X048458Y013626D01*
X048523Y013636D01*
X048586Y013657D01*
X048645Y013687D01*
X048699Y013726D01*
X048745Y013772D01*
X048784Y013826D01*
X048814Y013885D01*
X048835Y013948D01*
X048845Y014013D01*
X048845Y014306D01*
X048425Y014306D01*
X048425Y014306D01*
X048425Y014306D01*
X048005Y014306D01*
X048425Y014306D01*
X048425Y014306D01*
X048845Y014306D01*
X048845Y014599D01*
X048835Y014664D01*
X048814Y014727D01*
X048784Y014786D01*
X048745Y014840D01*
X048699Y014886D01*
X048645Y014925D01*
X048586Y014955D01*
X048553Y014966D01*
X049090Y014966D01*
X048984Y014861D01*
X048905Y014670D01*
X048905Y013943D01*
X048984Y013752D01*
X049085Y013651D01*
X049085Y013488D01*
X049137Y013364D01*
X049232Y013268D01*
X049607Y012893D01*
X049732Y012841D01*
X056659Y012841D01*
X057482Y012018D01*
X057607Y011966D01*
X057629Y011966D01*
X057631Y011961D01*
X057705Y011888D01*
X057800Y011848D01*
X058300Y011848D01*
X058395Y011888D01*
X058469Y011961D01*
X058508Y012056D01*
X058508Y012556D01*
X058469Y012651D01*
X058395Y012725D01*
X058300Y012764D01*
X057800Y012764D01*
X057728Y012734D01*
X057088Y013374D01*
X056993Y013469D01*
X056868Y013521D01*
X049941Y013521D01*
X049788Y013674D01*
X049866Y013752D01*
X049925Y013894D01*
X049984Y013752D01*
X050130Y013605D01*
X050322Y013526D01*
X050528Y013526D01*
X050720Y013605D01*
X050866Y013752D01*
X050925Y013894D01*
X050984Y013752D01*
X051130Y013605D01*
X051322Y013526D01*
X051528Y013526D01*
X051720Y013605D01*
X051866Y013752D01*
X051925Y013894D01*
X051984Y013752D01*
X052130Y013605D01*
X052322Y013526D01*
X052528Y013526D01*
X052720Y013605D01*
X052866Y013752D01*
X052925Y013894D01*
X052984Y013752D01*
X053130Y013605D01*
X053322Y013526D01*
X053528Y013526D01*
X053720Y013605D01*
X053866Y013752D01*
X053925Y013894D01*
X053984Y013752D01*
X054130Y013605D01*
X054322Y013526D01*
X054528Y013526D01*
X054720Y013605D01*
X054866Y013752D01*
X054925Y013894D01*
X054984Y013752D01*
X055130Y013605D01*
X055322Y013526D01*
X055528Y013526D01*
X055720Y013605D01*
X055866Y013752D01*
X055925Y013894D01*
X055984Y013752D01*
X056130Y013605D01*
X056322Y013526D01*
X056528Y013526D01*
X056720Y013605D01*
X056866Y013752D01*
X056925Y013894D01*
X056984Y013752D01*
X057130Y013605D01*
X057322Y013526D01*
X057528Y013526D01*
X057720Y013605D01*
X057866Y013752D01*
X057925Y013894D01*
X057984Y013752D01*
X058130Y013605D01*
X058322Y013526D01*
X058528Y013526D01*
X058585Y013550D01*
X058585Y011447D01*
X057232Y010094D01*
X057137Y009999D01*
X057085Y009874D01*
X057085Y008961D01*
X056984Y008861D01*
X056925Y008718D01*
X056866Y008861D01*
X056720Y009007D01*
X056528Y009086D01*
X056322Y009086D01*
X056130Y009007D01*
X055984Y008861D01*
X055925Y008718D01*
X055866Y008861D01*
X055720Y009007D01*
X055528Y009086D01*
X055322Y009086D01*
X055130Y009007D01*
X054984Y008861D01*
X054925Y008718D01*
X054866Y008861D01*
X054720Y009007D01*
X054528Y009086D01*
X054322Y009086D01*
X054130Y009007D01*
X053984Y008861D01*
X053925Y008718D01*
X053866Y008861D01*
X053720Y009007D01*
X053528Y009086D01*
X053322Y009086D01*
X053130Y009007D01*
X052984Y008861D01*
X052925Y008718D01*
X052866Y008861D01*
X052720Y009007D01*
X052528Y009086D01*
X052322Y009086D01*
X052130Y009007D01*
X051984Y008861D01*
X051925Y008718D01*
X051866Y008861D01*
X051805Y008921D01*
X051805Y009649D01*
X052332Y010176D01*
X055001Y010176D01*
X055140Y010234D01*
X056012Y011106D01*
X056020Y011106D01*
X056197Y011179D01*
X056332Y011314D01*
X056405Y011491D01*
X056405Y012122D01*
X056332Y012298D01*
X056197Y012433D01*
X056020Y012506D01*
X055830Y012506D01*
X055653Y012433D01*
X055518Y012298D01*
X055445Y012122D01*
X055445Y011614D01*
X054768Y010936D01*
X052099Y010936D01*
X051960Y010878D01*
X051853Y010771D01*
X051103Y010021D01*
X051045Y009882D01*
X051045Y008921D01*
X050984Y008861D01*
X050925Y008718D01*
X050866Y008861D01*
X050805Y008921D01*
X050805Y010399D01*
X051832Y011426D01*
X053472Y011426D01*
X053518Y011314D01*
X053653Y011179D01*
X053830Y011106D01*
X054020Y011106D01*
X054197Y011179D01*
X054332Y011314D01*
X054405Y011491D01*
X054405Y012122D01*
X054332Y012298D01*
X054197Y012433D01*
X054020Y012506D01*
X053830Y012506D01*
X053653Y012433D01*
X053518Y012298D01*
X053472Y012186D01*
X051599Y012186D01*
X051460Y012128D01*
X051353Y012021D01*
X050149Y010817D01*
X049890Y011076D01*
X049460Y011076D01*
X049155Y010771D01*
X049155Y010341D01*
X049460Y010036D01*
X049890Y010036D01*
X050045Y010191D01*
X050045Y008921D01*
X049984Y008861D01*
X049905Y008670D01*
X049905Y007943D01*
X049984Y007752D01*
X050130Y007605D01*
X050322Y007526D01*
X050528Y007526D01*
X050720Y007605D01*
X050866Y007752D01*
X050925Y007894D01*
X050984Y007752D01*
X051130Y007605D01*
X051322Y007526D01*
X051528Y007526D01*
X051720Y007605D01*
X051866Y007752D01*
X051925Y007894D01*
X051984Y007752D01*
X052130Y007605D01*
X052322Y007526D01*
X052528Y007526D01*
X052720Y007605D01*
X052866Y007752D01*
X052925Y007894D01*
X052984Y007752D01*
X053130Y007605D01*
X053322Y007526D01*
X053528Y007526D01*
X053720Y007605D01*
X053866Y007752D01*
X053925Y007894D01*
X053984Y007752D01*
X054130Y007605D01*
X054299Y007535D01*
X054108Y007456D01*
X053950Y007298D01*
X053865Y007092D01*
X053865Y006270D01*
X053950Y006064D01*
X054108Y005906D01*
X054314Y005821D01*
X054536Y005821D01*
X054742Y005906D01*
X054900Y006064D01*
X054925Y006125D01*
X054950Y006064D01*
X055108Y005906D01*
X055314Y005821D01*
X055536Y005821D01*
X055742Y005906D01*
X055900Y006064D01*
X055925Y006125D01*
X055950Y006064D01*
X056108Y005906D01*
X056314Y005821D01*
X056536Y005821D01*
X056742Y005906D01*
X056900Y006064D01*
X056925Y006125D01*
X056950Y006064D01*
X057108Y005906D01*
X057314Y005821D01*
X057536Y005821D01*
X057742Y005906D01*
X057900Y006064D01*
X057985Y006270D01*
X057985Y007092D01*
X057900Y007298D01*
X057742Y007456D01*
X057551Y007535D01*
X057720Y007605D01*
X057866Y007752D01*
X057925Y007894D01*
X057984Y007752D01*
X058130Y007605D01*
X058322Y007526D01*
X058528Y007526D01*
X058720Y007605D01*
X058866Y007752D01*
X058945Y007943D01*
X058945Y008670D01*
X058866Y008861D01*
X058720Y009007D01*
X058528Y009086D01*
X058322Y009086D01*
X058130Y009007D01*
X057984Y008861D01*
X057925Y008718D01*
X057866Y008861D01*
X057765Y008961D01*
X057765Y009665D01*
X059213Y011114D01*
X059265Y011238D01*
X059265Y015874D01*
X059213Y015999D01*
X059118Y016094D01*
X058868Y016344D01*
X058743Y016396D01*
X032316Y016396D01*
X031675Y017037D01*
X031675Y022681D01*
X031940Y022681D01*
X032210Y022411D01*
X032640Y022411D01*
X032910Y022681D01*
X038905Y022681D01*
X038905Y022591D01*
X039210Y022286D01*
X039640Y022286D01*
X039945Y022591D01*
X039945Y022681D01*
X047155Y022681D01*
X047155Y022591D01*
X047460Y022286D01*
X047890Y022286D01*
X048195Y022591D01*
X048195Y022681D01*
X055405Y022681D01*
X055405Y022591D01*
X055710Y022286D01*
X056140Y022286D01*
X056445Y022591D01*
X056445Y022681D01*
X063655Y022681D01*
X063655Y022591D01*
X063960Y022286D01*
X064390Y022286D01*
X064695Y022591D01*
X064695Y022681D01*
X071905Y022681D01*
X071905Y022591D01*
X072210Y022286D01*
X072640Y022286D01*
X072945Y022591D01*
X072945Y022681D01*
X074955Y022681D01*
X074955Y021764D01*
X074925Y021764D01*
X074830Y021725D01*
X074756Y021651D01*
X074754Y021646D01*
X073846Y021646D01*
X073844Y021651D01*
X073770Y021725D01*
X073675Y021764D01*
X073175Y021764D01*
X073080Y021725D01*
X073006Y021651D01*
X072967Y021556D01*
X072967Y021056D01*
X073006Y020961D01*
X073080Y020888D01*
X073175Y020848D01*
X073675Y020848D01*
X073770Y020888D01*
X073844Y020961D01*
X073846Y020966D01*
X074754Y020966D01*
X074756Y020961D01*
X074830Y020888D01*
X074925Y020848D01*
X074955Y020848D01*
X074955Y008818D01*
X074829Y008851D01*
X074521Y008851D01*
X074223Y008772D01*
X073956Y008618D01*
X073739Y008400D01*
X073585Y008133D01*
X073505Y007835D01*
X073505Y007527D01*
X073585Y007229D01*
X073739Y006963D01*
X073956Y006745D01*
X074045Y006694D01*
X069208Y001857D01*
X069111Y002025D01*
X068894Y002243D01*
X068627Y002397D01*
X068329Y002476D01*
X068021Y002476D01*
X067723Y002397D01*
X067456Y002243D01*
X067239Y002025D01*
X067085Y001758D01*
X067005Y001460D01*
X067005Y001152D01*
X067039Y001026D01*
X031675Y001026D01*
X031675Y007716D01*
X034629Y007716D01*
X034631Y007711D01*
X034705Y007638D01*
X034800Y007598D01*
X035300Y007598D01*
X035395Y007638D01*
X035469Y007711D01*
X035508Y007806D01*
X035508Y008306D01*
X035469Y008401D01*
X035395Y008475D01*
X035300Y008514D01*
X034800Y008514D01*
X034705Y008475D01*
X034631Y008401D01*
X034629Y008396D01*
X031675Y008396D01*
X031675Y013691D01*
X031769Y013745D01*
X031986Y013963D01*
X032140Y014229D01*
X032220Y014527D01*
X032220Y014835D01*
X032140Y015133D01*
X032092Y015216D01*
X037604Y015216D01*
X037284Y014896D01*
X036320Y014896D01*
X036140Y015076D01*
X035710Y015076D01*
X035405Y014771D01*
X035405Y014341D01*
X035710Y014036D01*
X036140Y014036D01*
X036320Y014216D01*
X037493Y014216D01*
X037618Y014268D01*
X037673Y014323D01*
X037960Y014036D01*
X038390Y014036D01*
X038695Y014341D01*
X038695Y014716D01*
X038924Y014716D01*
X038905Y014670D01*
X038905Y013943D01*
X038984Y013752D01*
X039130Y013605D01*
X039322Y013526D01*
X039528Y013526D01*
X039720Y013605D01*
X039750Y013636D01*
X039717Y013556D01*
X039717Y013056D01*
X039756Y012961D01*
X039830Y012888D01*
X039925Y012848D01*
X040425Y012848D01*
X040520Y012888D01*
X040594Y012961D01*
X040596Y012966D01*
X040967Y012966D01*
X040967Y012556D01*
X041006Y012461D01*
X041080Y012388D01*
X041085Y012385D01*
X041085Y009822D01*
X040784Y009521D01*
X039232Y009521D01*
X039107Y009469D01*
X038607Y008969D01*
X038512Y008874D01*
X038460Y008749D01*
X038460Y008514D01*
X038300Y008514D01*
X038205Y008475D01*
X038131Y008401D01*
X038092Y008306D01*
X038092Y007870D01*
X037757Y008205D01*
X037671Y009661D01*
X037930Y009920D01*
X037930Y010442D01*
X037792Y010580D01*
X037817Y010591D01*
X037890Y010664D01*
X037930Y010759D01*
X037930Y011603D01*
X037930Y011323D02*
X041085Y011323D01*
X041085Y011005D02*
X037930Y011005D01*
X037900Y010686D02*
X041085Y010686D01*
X041085Y010368D02*
X037930Y010368D01*
X037930Y010049D02*
X041085Y010049D01*
X040994Y009731D02*
X037740Y009731D01*
X037686Y009412D02*
X039050Y009412D01*
X038732Y009094D02*
X037705Y009094D01*
X037723Y008775D02*
X038471Y008775D01*
X038187Y008457D02*
X037742Y008457D01*
X037824Y008138D02*
X038092Y008138D01*
X037179Y007820D02*
X035508Y007820D01*
X035508Y008138D02*
X037080Y008138D01*
X037061Y008457D02*
X035413Y008457D01*
X034980Y008775D02*
X031675Y008775D01*
X031675Y008457D02*
X034687Y008457D01*
X035870Y008775D02*
X037042Y008775D01*
X037023Y009094D02*
X035883Y009094D01*
X035833Y009412D02*
X037005Y009412D01*
X036860Y009731D02*
X036740Y009731D01*
X035860Y009731D02*
X035599Y009731D01*
X034770Y010049D02*
X031675Y010049D01*
X031675Y009731D02*
X032217Y009731D01*
X032217Y009412D02*
X031675Y009412D01*
X031675Y009094D02*
X034907Y009094D01*
X034770Y010181D02*
X035300Y010181D01*
X035300Y010181D01*
X034770Y010181D01*
X034770Y010368D02*
X031675Y010368D01*
X031675Y010686D02*
X034904Y010686D01*
X034670Y011005D02*
X031675Y011005D01*
X031675Y011323D02*
X034670Y011323D01*
X034870Y011642D02*
X031675Y011642D01*
X031675Y012279D02*
X041085Y012279D01*
X040967Y012597D02*
X031675Y012597D01*
X031675Y012916D02*
X033042Y012916D01*
X032974Y012944D02*
X033186Y012856D01*
X033414Y012856D01*
X033626Y012944D01*
X033787Y013105D01*
X033875Y013317D01*
X033875Y013545D01*
X033787Y013757D01*
X033626Y013919D01*
X033414Y014006D01*
X033186Y014006D01*
X032974Y013919D01*
X032813Y013757D01*
X032764Y013639D01*
X032497Y013906D01*
X032300Y013906D01*
X032103Y013906D01*
X031825Y013628D01*
X031825Y013431D01*
X031825Y013234D01*
X031675Y013234D01*
X031825Y013234D02*
X032103Y012956D01*
X032300Y012956D01*
X032497Y012956D01*
X032764Y013223D01*
X032813Y013105D01*
X032974Y012944D01*
X033558Y012916D02*
X035292Y012916D01*
X035224Y012944D02*
X035436Y012856D01*
X035664Y012856D01*
X035876Y012944D01*
X036037Y013105D01*
X036125Y013317D01*
X036125Y013545D01*
X036037Y013757D01*
X035876Y013919D01*
X035664Y014006D01*
X035436Y014006D01*
X035224Y013919D01*
X035063Y013757D01*
X035014Y013639D01*
X034747Y013906D01*
X034550Y013906D01*
X034353Y013906D01*
X034075Y013628D01*
X034075Y013431D01*
X034075Y013234D01*
X033841Y013234D01*
X034075Y013234D02*
X034353Y012956D01*
X034550Y012956D01*
X034747Y012956D01*
X035014Y013223D01*
X035063Y013105D01*
X035224Y012944D01*
X035808Y012916D02*
X037542Y012916D01*
X037474Y012944D02*
X037686Y012856D01*
X037914Y012856D01*
X038126Y012944D01*
X038287Y013105D01*
X038375Y013317D01*
X038375Y013545D01*
X038287Y013757D01*
X038126Y013919D01*
X037914Y014006D01*
X037686Y014006D01*
X037474Y013919D01*
X037313Y013757D01*
X037264Y013639D01*
X036997Y013906D01*
X036800Y013906D01*
X036603Y013906D01*
X036325Y013628D01*
X036325Y013431D01*
X036325Y013234D01*
X036091Y013234D01*
X036325Y013234D02*
X036603Y012956D01*
X036800Y012956D01*
X036997Y012956D01*
X037264Y013223D01*
X037313Y013105D01*
X037474Y012944D01*
X038058Y012916D02*
X039802Y012916D01*
X039717Y013234D02*
X038341Y013234D01*
X038372Y013553D02*
X039258Y013553D01*
X039592Y013553D02*
X039717Y013553D01*
X038935Y013871D02*
X038173Y013871D01*
X037806Y014190D02*
X036294Y014190D01*
X036568Y013871D02*
X035923Y013871D01*
X036122Y013553D02*
X036325Y013553D01*
X036325Y013431D02*
X036800Y013431D01*
X036800Y012956D01*
X036800Y013431D01*
X036800Y013431D01*
X036325Y013431D01*
X036800Y013431D02*
X036800Y013431D01*
X036800Y013906D01*
X036800Y013431D01*
X036800Y013431D01*
X036800Y013553D02*
X036800Y013553D01*
X036800Y013871D02*
X036800Y013871D01*
X037032Y013871D02*
X037427Y013871D01*
X036800Y013234D02*
X036800Y013234D01*
X035177Y013871D02*
X034782Y013871D01*
X034550Y013871D02*
X034550Y013871D01*
X034550Y013906D02*
X034550Y013431D01*
X034550Y012956D01*
X034550Y013431D01*
X034550Y013431D01*
X034075Y013431D01*
X034550Y013431D01*
X034550Y013431D01*
X034550Y013431D01*
X034550Y013906D01*
X034318Y013871D02*
X033673Y013871D01*
X033460Y014036D02*
X033890Y014036D01*
X034195Y014341D01*
X034195Y014771D01*
X033890Y015076D01*
X033460Y015076D01*
X033155Y014771D01*
X033155Y014341D01*
X033460Y014036D01*
X033306Y014190D02*
X032117Y014190D01*
X032068Y013871D02*
X031895Y013871D01*
X031825Y013553D02*
X031675Y013553D01*
X031825Y013431D02*
X032300Y013431D01*
X032300Y012956D01*
X032300Y013431D01*
X032300Y013431D01*
X031825Y013431D01*
X032300Y013431D02*
X032300Y013431D01*
X032300Y013906D01*
X032300Y013431D01*
X032300Y013431D01*
X032300Y013553D02*
X032300Y013553D01*
X032300Y013871D02*
X032300Y013871D01*
X032532Y013871D02*
X032927Y013871D01*
X033872Y013553D02*
X034075Y013553D01*
X034550Y013553D02*
X034550Y013553D01*
X034550Y013234D02*
X034550Y013234D01*
X034044Y014190D02*
X035556Y014190D01*
X035405Y014508D02*
X034195Y014508D01*
X034140Y014827D02*
X035460Y014827D01*
X037533Y015145D02*
X032133Y015145D01*
X032220Y014827D02*
X033210Y014827D01*
X033155Y014508D02*
X032215Y014508D01*
X032300Y013234D02*
X032300Y013234D01*
X035730Y011642D02*
X035870Y011642D01*
X040548Y012916D02*
X040967Y012916D01*
X041883Y012916D02*
X047045Y012916D01*
X047045Y013234D02*
X046334Y013234D01*
X046652Y013553D02*
X047045Y013553D01*
X046935Y013871D02*
X046915Y013871D01*
X047805Y013553D02*
X049085Y013553D01*
X048935Y013871D02*
X048807Y013871D01*
X048845Y014190D02*
X048905Y014190D01*
X048905Y014508D02*
X048845Y014508D01*
X048755Y014827D02*
X048970Y014827D01*
X048095Y014827D02*
X047880Y014827D01*
X047945Y014508D02*
X048005Y014508D01*
X048005Y014190D02*
X047945Y014190D01*
X047915Y013871D02*
X048043Y013871D01*
X048425Y013871D02*
X048425Y013871D01*
X048425Y014190D02*
X048425Y014190D01*
X049915Y013871D02*
X049935Y013871D01*
X049909Y013553D02*
X050258Y013553D01*
X050592Y013553D02*
X051258Y013553D01*
X051592Y013553D02*
X052258Y013553D01*
X052592Y013553D02*
X053258Y013553D01*
X053592Y013553D02*
X054258Y013553D01*
X054592Y013553D02*
X055258Y013553D01*
X055592Y013553D02*
X056258Y013553D01*
X056592Y013553D02*
X057258Y013553D01*
X057228Y013234D02*
X058585Y013234D01*
X058585Y012916D02*
X057546Y012916D01*
X056903Y012597D02*
X049285Y012597D01*
X049212Y012279D02*
X053510Y012279D01*
X054340Y012279D02*
X055510Y012279D01*
X055445Y011960D02*
X054405Y011960D01*
X054405Y011642D02*
X055445Y011642D01*
X055155Y011323D02*
X054336Y011323D01*
X054836Y011005D02*
X051411Y011005D01*
X051729Y011323D02*
X053514Y011323D01*
X051768Y010686D02*
X051092Y010686D01*
X050805Y010368D02*
X051449Y010368D01*
X051131Y010049D02*
X050805Y010049D01*
X050805Y009731D02*
X051045Y009731D01*
X051045Y009412D02*
X050805Y009412D01*
X050805Y009094D02*
X051045Y009094D01*
X050949Y008775D02*
X050901Y008775D01*
X050045Y009094D02*
X041318Y009094D01*
X041637Y009412D02*
X050045Y009412D01*
X050045Y009731D02*
X041765Y009731D01*
X041765Y010049D02*
X046447Y010049D01*
X046460Y010036D02*
X046890Y010036D01*
X047195Y010341D01*
X047195Y010771D01*
X046890Y011076D01*
X046460Y011076D01*
X046155Y010771D01*
X046155Y010341D01*
X046460Y010036D01*
X046903Y010049D02*
X049447Y010049D01*
X049155Y010368D02*
X047195Y010368D01*
X047195Y010686D02*
X049155Y010686D01*
X049388Y011005D02*
X046962Y011005D01*
X046388Y011005D02*
X041765Y011005D01*
X041765Y011323D02*
X050655Y011323D01*
X050973Y011642D02*
X041765Y011642D01*
X041765Y011960D02*
X047339Y011960D01*
X047026Y012279D02*
X041765Y012279D01*
X041883Y012597D02*
X046965Y012597D01*
X048190Y012916D02*
X048294Y012916D01*
X048725Y012916D02*
X048725Y012916D01*
X048725Y013116D02*
X048725Y012556D01*
X048725Y012556D01*
X048725Y013116D01*
X049156Y012916D02*
X049585Y012916D01*
X049266Y013234D02*
X047805Y013234D01*
X048725Y012597D02*
X048725Y012597D01*
X048725Y012279D02*
X048725Y012279D01*
X048238Y012279D02*
X048224Y012279D01*
X047911Y011960D02*
X051292Y011960D01*
X050336Y011005D02*
X049962Y011005D01*
X049903Y010049D02*
X050045Y010049D01*
X051887Y009731D02*
X057085Y009731D01*
X057085Y009412D02*
X051805Y009412D01*
X051805Y009094D02*
X057085Y009094D01*
X056949Y008775D02*
X056901Y008775D01*
X055949Y008775D02*
X055901Y008775D01*
X054949Y008775D02*
X054901Y008775D01*
X053949Y008775D02*
X053901Y008775D01*
X052949Y008775D02*
X052901Y008775D01*
X051949Y008775D02*
X051901Y008775D01*
X051894Y007820D02*
X051956Y007820D01*
X051843Y007501D02*
X054217Y007501D01*
X053956Y007820D02*
X053894Y007820D01*
X053902Y007183D02*
X052254Y007183D01*
X052235Y007230D02*
X052049Y007416D01*
X051806Y007516D01*
X051544Y007516D01*
X051301Y007416D01*
X051115Y007230D01*
X051050Y007072D01*
X050985Y007230D01*
X050799Y007416D01*
X050556Y007516D01*
X050294Y007516D01*
X050051Y007416D01*
X049865Y007230D01*
X049765Y006987D01*
X049765Y006725D01*
X049865Y006482D01*
X050051Y006297D01*
X050162Y006251D01*
X050131Y006235D01*
X050060Y006183D01*
X049998Y006121D01*
X049946Y006050D01*
X049906Y005971D01*
X049879Y005887D01*
X049865Y005800D01*
X049865Y005756D01*
X049865Y005712D01*
X049879Y005625D01*
X049906Y005541D01*
X049946Y005463D01*
X049998Y005391D01*
X050060Y005329D01*
X050131Y005277D01*
X050210Y005237D01*
X050294Y005210D01*
X050381Y005196D01*
X050425Y005196D01*
X050425Y005756D01*
X050425Y005196D01*
X050469Y005196D01*
X050556Y005210D01*
X050640Y005237D01*
X050719Y005277D01*
X050790Y005329D01*
X050852Y005391D01*
X050904Y005463D01*
X050944Y005541D01*
X050971Y005625D01*
X050985Y005712D01*
X050985Y005756D01*
X050425Y005756D01*
X050425Y005756D01*
X050425Y005756D01*
X049865Y005756D01*
X050425Y005756D01*
X050425Y005756D01*
X050985Y005756D01*
X050985Y005800D01*
X050971Y005887D01*
X050944Y005971D01*
X050904Y006050D01*
X050852Y006121D01*
X050790Y006183D01*
X050719Y006235D01*
X050688Y006251D01*
X050799Y006297D01*
X050985Y006482D01*
X051050Y006640D01*
X051115Y006482D01*
X051301Y006297D01*
X051412Y006251D01*
X051381Y006235D01*
X051310Y006183D01*
X051248Y006121D01*
X051196Y006050D01*
X051156Y005971D01*
X051129Y005887D01*
X051115Y005800D01*
X051115Y005756D01*
X051115Y005712D01*
X051129Y005625D01*
X051156Y005541D01*
X051196Y005463D01*
X051248Y005391D01*
X051310Y005329D01*
X051381Y005277D01*
X051460Y005237D01*
X051544Y005210D01*
X051631Y005196D01*
X051675Y005196D01*
X051675Y005756D01*
X051675Y005196D01*
X051719Y005196D01*
X051806Y005210D01*
X051890Y005237D01*
X051969Y005277D01*
X052040Y005329D01*
X052102Y005391D01*
X052154Y005463D01*
X052194Y005541D01*
X052221Y005625D01*
X052235Y005712D01*
X052235Y005756D01*
X051675Y005756D01*
X051675Y005756D01*
X051115Y005756D01*
X051675Y005756D01*
X051675Y005756D01*
X051675Y005756D01*
X052235Y005756D01*
X052235Y005800D01*
X052221Y005887D01*
X052194Y005971D01*
X052154Y006050D01*
X052102Y006121D01*
X052040Y006183D01*
X051969Y006235D01*
X051938Y006251D01*
X052049Y006297D01*
X052235Y006482D01*
X052335Y006725D01*
X052335Y006987D01*
X052235Y007230D01*
X052335Y006864D02*
X053865Y006864D01*
X053865Y006546D02*
X052261Y006546D01*
X051089Y006546D02*
X051011Y006546D01*
X050730Y006227D02*
X051370Y006227D01*
X051136Y005909D02*
X050964Y005909D01*
X050960Y005590D02*
X051140Y005590D01*
X051392Y005272D02*
X050708Y005272D01*
X050425Y005272D02*
X050425Y005272D01*
X050142Y005272D02*
X048458Y005272D01*
X048469Y005277D02*
X048540Y005329D01*
X048602Y005391D01*
X048654Y005463D01*
X048694Y005541D01*
X048721Y005625D01*
X048735Y005712D01*
X048735Y005756D01*
X048175Y005756D01*
X048175Y005196D01*
X048175Y005756D01*
X048175Y005756D01*
X047615Y005756D01*
X047615Y005712D01*
X047629Y005625D01*
X047656Y005541D01*
X047696Y005463D01*
X047748Y005391D01*
X047810Y005329D01*
X047881Y005277D01*
X047960Y005237D01*
X048044Y005210D01*
X048131Y005196D01*
X048175Y005196D01*
X048219Y005196D01*
X048306Y005210D01*
X048390Y005237D01*
X048469Y005277D01*
X048175Y005272D02*
X048175Y005272D01*
X047892Y005272D02*
X040690Y005272D01*
X040372Y005590D02*
X047640Y005590D01*
X047615Y005756D02*
X048175Y005756D01*
X048175Y005756D01*
X048175Y005756D01*
X048735Y005756D01*
X048735Y005800D01*
X048721Y005887D01*
X048694Y005971D01*
X048654Y006050D01*
X048602Y006121D01*
X048540Y006183D01*
X048469Y006235D01*
X048438Y006251D01*
X048549Y006297D01*
X048735Y006482D01*
X048835Y006725D01*
X048835Y006987D01*
X048735Y007230D01*
X048549Y007416D01*
X048306Y007516D01*
X048044Y007516D01*
X047801Y007416D01*
X047615Y007230D01*
X047515Y006987D01*
X047515Y006725D01*
X047615Y006482D01*
X047801Y006297D01*
X047912Y006251D01*
X047881Y006235D01*
X047810Y006183D01*
X047748Y006121D01*
X047696Y006050D01*
X047656Y005971D01*
X047629Y005887D01*
X047615Y005800D01*
X047615Y005756D01*
X047636Y005909D02*
X044744Y005909D01*
X044967Y006227D02*
X044991Y006227D01*
X045425Y006227D02*
X045425Y006227D01*
X045859Y006227D02*
X047870Y006227D01*
X048480Y006227D02*
X050120Y006227D01*
X049886Y005909D02*
X048714Y005909D01*
X048710Y005590D02*
X049890Y005590D01*
X050425Y005590D02*
X050425Y005590D01*
X051675Y005590D02*
X051675Y005590D01*
X051675Y005272D02*
X051675Y005272D01*
X051958Y005272D02*
X053629Y005272D01*
X053631Y005276D02*
X053592Y005181D01*
X053592Y004681D01*
X053631Y004586D01*
X053705Y004513D01*
X053800Y004473D01*
X054300Y004473D01*
X054395Y004513D01*
X054469Y004586D01*
X054471Y004591D01*
X055284Y004591D01*
X055585Y004290D01*
X055585Y004000D01*
X055538Y003980D01*
X055361Y003803D01*
X055265Y003571D01*
X055265Y003321D01*
X055361Y003089D01*
X055538Y002912D01*
X055770Y002816D01*
X056020Y002816D01*
X056252Y002912D01*
X056429Y003089D01*
X056525Y003321D01*
X056525Y003571D01*
X056429Y003803D01*
X056265Y003967D01*
X056265Y004366D01*
X056494Y004271D01*
X056756Y004271D01*
X056999Y004372D01*
X057175Y004548D01*
X057351Y004372D01*
X057594Y004271D01*
X057856Y004271D01*
X058099Y004372D01*
X058285Y004557D01*
X058385Y004800D01*
X058385Y005062D01*
X058285Y005305D01*
X058099Y005491D01*
X057856Y005591D01*
X057594Y005591D01*
X057351Y005491D01*
X057175Y005314D01*
X056999Y005491D01*
X056756Y005591D01*
X056494Y005591D01*
X056251Y005491D01*
X056065Y005305D01*
X055965Y005062D01*
X055965Y004872D01*
X055618Y005219D01*
X055493Y005271D01*
X054471Y005271D01*
X054469Y005276D01*
X054395Y005350D01*
X054300Y005389D01*
X053800Y005389D01*
X053705Y005350D01*
X053631Y005276D01*
X053592Y004953D02*
X041009Y004953D01*
X041327Y004635D02*
X053611Y004635D01*
X054471Y005272D02*
X056052Y005272D01*
X055965Y004953D02*
X055884Y004953D01*
X055559Y004316D02*
X041646Y004316D01*
X041964Y003998D02*
X055580Y003998D01*
X055310Y003679D02*
X042283Y003679D01*
X042601Y003361D02*
X042695Y003361D01*
X043155Y003361D02*
X044695Y003361D01*
X044401Y003042D02*
X044341Y003042D01*
X043925Y003042D02*
X043925Y003042D01*
X043925Y003310D02*
X043925Y002556D01*
X043925Y001802D01*
X043925Y002556D01*
X043925Y002556D01*
X043925Y002556D01*
X043925Y003310D01*
X043509Y003042D02*
X043449Y003042D01*
X043925Y002724D02*
X043925Y002724D01*
X043925Y002405D02*
X043925Y002405D01*
X043925Y002087D02*
X043925Y002087D01*
X044349Y002087D02*
X044394Y002087D01*
X043501Y002087D02*
X043456Y002087D01*
X042394Y002087D02*
X041206Y002087D01*
X041232Y002148D02*
X041232Y002964D01*
X041147Y003168D01*
X040990Y003325D01*
X040786Y003410D01*
X040564Y003410D01*
X040360Y003325D01*
X040203Y003168D01*
X040119Y002965D01*
X040098Y003028D01*
X040066Y003092D01*
X040023Y003151D01*
X039973Y003201D01*
X039914Y003244D01*
X039850Y003276D01*
X039782Y003299D01*
X039711Y003310D01*
X039675Y003310D01*
X039639Y003310D01*
X039568Y003299D01*
X039500Y003276D01*
X039436Y003244D01*
X039377Y003201D01*
X039327Y003151D01*
X039284Y003092D01*
X039252Y003028D01*
X039229Y002960D01*
X039218Y002889D01*
X039218Y002556D01*
X039218Y002223D01*
X039229Y002152D01*
X039252Y002084D01*
X039284Y002020D01*
X039327Y001962D01*
X039377Y001911D01*
X039436Y001869D01*
X039500Y001836D01*
X039568Y001814D01*
X039639Y001802D01*
X039675Y001802D01*
X039711Y001802D01*
X039782Y001814D01*
X039850Y001836D01*
X039914Y001869D01*
X039973Y001911D01*
X040023Y001962D01*
X040066Y002020D01*
X040098Y002084D01*
X040119Y002147D01*
X040203Y001944D01*
X040360Y001787D01*
X040564Y001702D01*
X040786Y001702D01*
X040990Y001787D01*
X041147Y001944D01*
X041232Y002148D01*
X041232Y002405D02*
X042368Y002405D01*
X042277Y002724D02*
X041232Y002724D01*
X041199Y003042D02*
X041958Y003042D01*
X041640Y003361D02*
X040905Y003361D01*
X040445Y003361D02*
X037655Y003361D01*
X037740Y003325D02*
X037536Y003410D01*
X037314Y003410D01*
X037110Y003325D01*
X036953Y003168D01*
X036869Y002965D01*
X036848Y003028D01*
X036816Y003092D01*
X036773Y003151D01*
X036723Y003201D01*
X036664Y003244D01*
X036600Y003276D01*
X036532Y003299D01*
X036461Y003310D01*
X036425Y003310D01*
X036389Y003310D01*
X036318Y003299D01*
X036250Y003276D01*
X036186Y003244D01*
X036127Y003201D01*
X036077Y003151D01*
X036034Y003092D01*
X036002Y003028D01*
X035979Y002960D01*
X035968Y002889D01*
X035968Y002556D01*
X035968Y002223D01*
X035979Y002152D01*
X036002Y002084D01*
X036034Y002020D01*
X036077Y001962D01*
X036127Y001911D01*
X036186Y001869D01*
X036250Y001836D01*
X036318Y001814D01*
X036389Y001802D01*
X036425Y001802D01*
X036461Y001802D01*
X036532Y001814D01*
X036600Y001836D01*
X036664Y001869D01*
X036723Y001911D01*
X036773Y001962D01*
X036816Y002020D01*
X036848Y002084D01*
X036869Y002147D01*
X036953Y001944D01*
X037110Y001787D01*
X037314Y001702D01*
X037536Y001702D01*
X037740Y001787D01*
X037897Y001944D01*
X037982Y002148D01*
X037982Y002964D01*
X037897Y003168D01*
X037740Y003325D01*
X037949Y003042D02*
X039259Y003042D01*
X039218Y002724D02*
X037982Y002724D01*
X037982Y002405D02*
X039218Y002405D01*
X039218Y002556D02*
X039675Y002556D01*
X039675Y001802D01*
X039675Y002556D01*
X039675Y002556D01*
X039675Y002556D01*
X039218Y002556D01*
X039675Y002556D02*
X039675Y003310D01*
X039675Y002556D01*
X039675Y002556D01*
X039675Y002405D02*
X039675Y002405D01*
X039675Y002087D02*
X039675Y002087D01*
X040099Y002087D02*
X040144Y002087D01*
X040406Y001768D02*
X037694Y001768D01*
X037156Y001768D02*
X034444Y001768D01*
X034490Y001787D02*
X034286Y001702D01*
X034064Y001702D01*
X033860Y001787D01*
X033703Y001944D01*
X033619Y002147D01*
X033598Y002084D01*
X033566Y002020D01*
X033523Y001962D01*
X033473Y001911D01*
X033414Y001869D01*
X033350Y001836D01*
X033282Y001814D01*
X033211Y001802D01*
X033175Y001802D01*
X033175Y002556D01*
X033175Y002556D01*
X033175Y001802D01*
X033139Y001802D01*
X033068Y001814D01*
X033000Y001836D01*
X032936Y001869D01*
X032877Y001911D01*
X032827Y001962D01*
X032784Y002020D01*
X032752Y002084D01*
X032729Y002152D01*
X032718Y002223D01*
X032718Y002556D01*
X033175Y002556D01*
X033175Y002556D01*
X032718Y002556D01*
X032718Y002889D01*
X032729Y002960D01*
X032752Y003028D01*
X032784Y003092D01*
X032827Y003151D01*
X032877Y003201D01*
X032936Y003244D01*
X033000Y003276D01*
X033068Y003299D01*
X033139Y003310D01*
X033175Y003310D01*
X033175Y002556D01*
X033175Y002556D01*
X033175Y003310D01*
X033211Y003310D01*
X033282Y003299D01*
X033350Y003276D01*
X033414Y003244D01*
X033473Y003201D01*
X033523Y003151D01*
X033566Y003092D01*
X033598Y003028D01*
X033619Y002965D01*
X033703Y003168D01*
X033860Y003325D01*
X034064Y003410D01*
X034286Y003410D01*
X034490Y003325D01*
X034647Y003168D01*
X034732Y002964D01*
X034732Y002148D01*
X034647Y001944D01*
X034490Y001787D01*
X034706Y002087D02*
X036001Y002087D01*
X035968Y002405D02*
X034732Y002405D01*
X034732Y002724D02*
X035968Y002724D01*
X035968Y002556D02*
X036425Y002556D01*
X036425Y001802D01*
X036425Y002556D01*
X036425Y002556D01*
X035968Y002556D01*
X036425Y002556D02*
X036425Y002556D01*
X036425Y003310D01*
X036425Y002556D01*
X036425Y002556D01*
X036425Y002405D02*
X036425Y002405D01*
X036425Y002087D02*
X036425Y002087D01*
X036849Y002087D02*
X036894Y002087D01*
X036425Y002724D02*
X036425Y002724D01*
X036425Y003042D02*
X036425Y003042D01*
X036841Y003042D02*
X036901Y003042D01*
X037195Y003361D02*
X034405Y003361D01*
X034699Y003042D02*
X036009Y003042D01*
X033945Y003361D02*
X031675Y003361D01*
X031675Y003679D02*
X041321Y003679D01*
X041003Y003998D02*
X031675Y003998D01*
X031675Y004316D02*
X040684Y004316D01*
X040366Y004635D02*
X031675Y004635D01*
X031675Y004953D02*
X040047Y004953D01*
X039729Y005272D02*
X031675Y005272D01*
X031675Y005590D02*
X039410Y005590D01*
X039092Y005909D02*
X031675Y005909D01*
X031675Y006227D02*
X038773Y006227D01*
X039735Y006227D02*
X043883Y006227D01*
X044106Y005909D02*
X040053Y005909D01*
X039416Y006546D02*
X043865Y006546D01*
X043865Y006864D02*
X039098Y006864D01*
X038779Y007183D02*
X043902Y007183D01*
X044217Y007501D02*
X038461Y007501D01*
X037818Y007183D02*
X031675Y007183D01*
X031675Y007501D02*
X037499Y007501D01*
X038136Y006864D02*
X031675Y006864D01*
X031675Y006546D02*
X038455Y006546D01*
X039894Y007820D02*
X039956Y007820D01*
X040894Y007820D02*
X040956Y007820D01*
X041894Y007820D02*
X041956Y007820D01*
X042894Y007820D02*
X042956Y007820D01*
X043894Y007820D02*
X043956Y007820D01*
X044633Y007501D02*
X048007Y007501D01*
X047956Y007820D02*
X047894Y007820D01*
X048343Y007501D02*
X050257Y007501D01*
X050593Y007501D02*
X051507Y007501D01*
X051096Y007183D02*
X051004Y007183D01*
X050956Y007820D02*
X050894Y007820D01*
X049956Y007820D02*
X049780Y007820D01*
X049784Y007826D02*
X049814Y007885D01*
X049835Y007948D01*
X049845Y008013D01*
X049845Y008306D01*
X049425Y008306D01*
X049425Y007626D01*
X049425Y008306D01*
X049425Y008306D01*
X049425Y008306D01*
X049005Y008306D01*
X049005Y008013D01*
X049015Y007948D01*
X049036Y007885D01*
X049066Y007826D01*
X049105Y007772D01*
X049151Y007726D01*
X049205Y007687D01*
X049264Y007657D01*
X049327Y007636D01*
X049392Y007626D01*
X049425Y007626D01*
X049458Y007626D01*
X049523Y007636D01*
X049586Y007657D01*
X049645Y007687D01*
X049699Y007726D01*
X049745Y007772D01*
X049784Y007826D01*
X049845Y008138D02*
X049905Y008138D01*
X049845Y008306D02*
X049845Y008599D01*
X049835Y008664D01*
X049814Y008727D01*
X049784Y008786D01*
X049745Y008840D01*
X049699Y008886D01*
X049645Y008925D01*
X049586Y008955D01*
X049523Y008976D01*
X049458Y008986D01*
X049425Y008986D01*
X049392Y008986D01*
X049327Y008976D01*
X049264Y008955D01*
X049205Y008925D01*
X049151Y008886D01*
X049105Y008840D01*
X049066Y008786D01*
X049036Y008727D01*
X049015Y008664D01*
X049005Y008599D01*
X049005Y008306D01*
X049425Y008306D01*
X049425Y008306D01*
X049845Y008306D01*
X049845Y008457D02*
X049905Y008457D01*
X049949Y008775D02*
X049790Y008775D01*
X049425Y008775D02*
X049425Y008775D01*
X049425Y008986D02*
X049425Y008306D01*
X049425Y008306D01*
X049425Y008986D01*
X049060Y008775D02*
X048901Y008775D01*
X048945Y008457D02*
X049005Y008457D01*
X049005Y008138D02*
X048945Y008138D01*
X048894Y007820D02*
X049070Y007820D01*
X049425Y007820D02*
X049425Y007820D01*
X049425Y008138D02*
X049425Y008138D01*
X049425Y008457D02*
X049425Y008457D01*
X047949Y008775D02*
X047901Y008775D01*
X046949Y008775D02*
X046901Y008775D01*
X045949Y008775D02*
X045901Y008775D01*
X044949Y008775D02*
X044901Y008775D01*
X043949Y008775D02*
X043901Y008775D01*
X042949Y008775D02*
X042901Y008775D01*
X041949Y008775D02*
X041901Y008775D01*
X044894Y007820D02*
X044956Y007820D01*
X045894Y007820D02*
X045956Y007820D01*
X046894Y007820D02*
X046956Y007820D01*
X047596Y007183D02*
X045839Y007183D01*
X045885Y006864D02*
X047515Y006864D01*
X047589Y006546D02*
X045885Y006546D01*
X045425Y006546D02*
X045425Y006546D01*
X045425Y006681D02*
X045425Y006681D01*
X045425Y006864D02*
X045425Y006864D01*
X045425Y007183D02*
X045425Y007183D01*
X045011Y007183D02*
X044948Y007183D01*
X048754Y007183D02*
X049846Y007183D01*
X049765Y006864D02*
X048835Y006864D01*
X048761Y006546D02*
X049839Y006546D01*
X051980Y006227D02*
X053883Y006227D01*
X054106Y005909D02*
X052214Y005909D01*
X052210Y005590D02*
X056491Y005590D01*
X056759Y005590D02*
X057591Y005590D01*
X057859Y005590D02*
X059071Y005590D01*
X059115Y005482D02*
X059301Y005297D01*
X059412Y005251D01*
X059381Y005235D01*
X059310Y005183D01*
X059248Y005121D01*
X059196Y005050D01*
X059156Y004971D01*
X059129Y004887D01*
X059115Y004800D01*
X059115Y004756D01*
X059115Y004712D01*
X059129Y004625D01*
X059156Y004541D01*
X059196Y004463D01*
X059248Y004391D01*
X059310Y004329D01*
X059381Y004277D01*
X059460Y004237D01*
X059544Y004210D01*
X059631Y004196D01*
X059675Y004196D01*
X059675Y004756D01*
X059675Y004196D01*
X059719Y004196D01*
X059806Y004210D01*
X059890Y004237D01*
X059969Y004277D01*
X060040Y004329D01*
X060102Y004391D01*
X060154Y004463D01*
X060194Y004541D01*
X060221Y004625D01*
X060235Y004712D01*
X060235Y004756D01*
X059675Y004756D01*
X059675Y004756D01*
X059115Y004756D01*
X059675Y004756D01*
X059675Y004756D01*
X059675Y004756D01*
X060235Y004756D01*
X060235Y004800D01*
X060221Y004887D01*
X060194Y004971D01*
X060154Y005050D01*
X060102Y005121D01*
X060040Y005183D01*
X059969Y005235D01*
X059938Y005251D01*
X060049Y005297D01*
X060235Y005482D01*
X060335Y005725D01*
X060335Y005987D01*
X060235Y006230D01*
X060049Y006416D01*
X059806Y006516D01*
X059544Y006516D01*
X059301Y006416D01*
X059115Y006230D01*
X059015Y005987D01*
X059015Y005725D01*
X059115Y005482D01*
X059362Y005272D02*
X058298Y005272D01*
X058385Y004953D02*
X059150Y004953D01*
X059127Y004635D02*
X058317Y004635D01*
X057965Y004316D02*
X059328Y004316D01*
X059675Y004316D02*
X059675Y004316D01*
X059675Y004635D02*
X059675Y004635D01*
X060022Y004316D02*
X065328Y004316D01*
X065310Y004329D02*
X065381Y004277D01*
X065460Y004237D01*
X065544Y004210D01*
X065631Y004196D01*
X065675Y004196D01*
X065675Y004756D01*
X065675Y004196D01*
X065719Y004196D01*
X065806Y004210D01*
X065890Y004237D01*
X065969Y004277D01*
X066040Y004329D01*
X066102Y004391D01*
X066154Y004463D01*
X066194Y004541D01*
X066221Y004625D01*
X066235Y004712D01*
X066235Y004756D01*
X065675Y004756D01*
X065675Y004756D01*
X065115Y004756D01*
X065115Y004712D01*
X065129Y004625D01*
X065156Y004541D01*
X065196Y004463D01*
X065248Y004391D01*
X065310Y004329D01*
X065127Y004635D02*
X063839Y004635D01*
X063770Y004606D02*
X063947Y004679D01*
X064082Y004814D01*
X064155Y004991D01*
X064155Y005622D01*
X064082Y005798D01*
X063947Y005933D01*
X063770Y006006D01*
X063580Y006006D01*
X063403Y005933D01*
X063268Y005798D01*
X063195Y005622D01*
X063195Y004991D01*
X063268Y004814D01*
X063403Y004679D01*
X063580Y004606D01*
X063770Y004606D01*
X063511Y004635D02*
X061839Y004635D01*
X061770Y004606D02*
X061947Y004679D01*
X062082Y004814D01*
X062155Y004991D01*
X062155Y005622D01*
X062082Y005798D01*
X061947Y005933D01*
X061770Y006006D01*
X061580Y006006D01*
X061403Y005933D01*
X061268Y005798D01*
X061195Y005622D01*
X061195Y004991D01*
X061268Y004814D01*
X061403Y004679D01*
X061580Y004606D01*
X061770Y004606D01*
X061511Y004635D02*
X060223Y004635D01*
X060200Y004953D02*
X061211Y004953D01*
X061195Y005272D02*
X059988Y005272D01*
X060279Y005590D02*
X061195Y005590D01*
X061379Y005909D02*
X060335Y005909D01*
X060236Y006227D02*
X065114Y006227D01*
X065115Y006230D02*
X065015Y005987D01*
X065015Y005725D01*
X065115Y005482D01*
X065301Y005297D01*
X065412Y005251D01*
X065381Y005235D01*
X065310Y005183D01*
X065248Y005121D01*
X065196Y005050D01*
X065156Y004971D01*
X065129Y004887D01*
X065115Y004800D01*
X065115Y004756D01*
X065675Y004756D01*
X065675Y004756D01*
X065675Y004756D01*
X066235Y004756D01*
X066235Y004800D01*
X066221Y004887D01*
X066194Y004971D01*
X066154Y005050D01*
X066102Y005121D01*
X066040Y005183D01*
X065969Y005235D01*
X065938Y005251D01*
X066049Y005297D01*
X066235Y005482D01*
X066335Y005725D01*
X066335Y005987D01*
X066235Y006230D01*
X066049Y006416D01*
X065806Y006516D01*
X065544Y006516D01*
X065301Y006416D01*
X065115Y006230D01*
X065015Y005909D02*
X063971Y005909D01*
X064155Y005590D02*
X065071Y005590D01*
X065362Y005272D02*
X064155Y005272D01*
X064139Y004953D02*
X065150Y004953D01*
X065675Y004635D02*
X065675Y004635D01*
X065675Y004316D02*
X065675Y004316D01*
X066022Y004316D02*
X071667Y004316D01*
X071985Y004635D02*
X066223Y004635D01*
X066200Y004953D02*
X066543Y004953D01*
X066405Y005091D02*
X066710Y004786D01*
X067140Y004786D01*
X067445Y005091D01*
X067445Y005521D01*
X067160Y005806D01*
X067445Y006091D01*
X067445Y006521D01*
X067160Y006806D01*
X067445Y007091D01*
X067445Y007521D01*
X067140Y007826D01*
X066710Y007826D01*
X066405Y007521D01*
X066405Y007091D01*
X066690Y006806D01*
X066405Y006521D01*
X066405Y006091D01*
X066690Y005806D01*
X066405Y005521D01*
X066405Y005091D01*
X066405Y005272D02*
X065988Y005272D01*
X066279Y005590D02*
X066474Y005590D01*
X066587Y005909D02*
X066335Y005909D01*
X066405Y006227D02*
X066236Y006227D01*
X067263Y005909D02*
X069587Y005909D01*
X069690Y005806D02*
X069405Y005521D01*
X069405Y005091D01*
X069710Y004786D01*
X070140Y004786D01*
X070445Y005091D01*
X070445Y005521D01*
X070160Y005806D01*
X070445Y006091D01*
X070445Y006521D01*
X070160Y006806D01*
X070445Y007091D01*
X070445Y007521D01*
X070140Y007826D01*
X069710Y007826D01*
X069405Y007521D01*
X069405Y007091D01*
X069690Y006806D01*
X069405Y006521D01*
X069405Y006091D01*
X069690Y005806D01*
X069474Y005590D02*
X067376Y005590D01*
X067445Y005272D02*
X069405Y005272D01*
X069543Y004953D02*
X067307Y004953D01*
X067445Y006227D02*
X069405Y006227D01*
X070263Y005909D02*
X070655Y005909D01*
X070655Y006021D02*
X070655Y005591D01*
X070960Y005286D01*
X071390Y005286D01*
X071675Y005571D01*
X071960Y005286D01*
X072390Y005286D01*
X072695Y005591D01*
X072695Y006021D01*
X072390Y006326D01*
X071960Y006326D01*
X071675Y006041D01*
X071390Y006326D01*
X070960Y006326D01*
X070655Y006021D01*
X070861Y006227D02*
X070445Y006227D01*
X071489Y006227D02*
X071861Y006227D01*
X072489Y006227D02*
X073578Y006227D01*
X073259Y005909D02*
X072695Y005909D01*
X072694Y005590D02*
X072941Y005590D01*
X072622Y005272D02*
X070445Y005272D01*
X070376Y005590D02*
X070656Y005590D01*
X070307Y004953D02*
X072304Y004953D01*
X071348Y003998D02*
X058770Y003998D01*
X058812Y003980D02*
X058580Y004076D01*
X058330Y004076D01*
X058098Y003980D01*
X057921Y003803D01*
X057825Y003571D01*
X057825Y003321D01*
X057921Y003089D01*
X058098Y002912D01*
X058330Y002816D01*
X058580Y002816D01*
X058812Y002912D01*
X058989Y003089D01*
X059085Y003321D01*
X059085Y003571D01*
X058989Y003803D01*
X058812Y003980D01*
X059040Y003679D02*
X059919Y003679D01*
X059904Y003650D02*
X059878Y003570D01*
X059865Y003488D01*
X059865Y003446D01*
X059865Y003404D01*
X059878Y003322D01*
X059904Y003243D01*
X059942Y003168D01*
X059991Y003101D01*
X060050Y003042D01*
X060117Y002993D01*
X060192Y002955D01*
X060271Y002929D01*
X060353Y002916D01*
X060395Y002916D01*
X060437Y002916D01*
X060519Y002929D01*
X060598Y002955D01*
X060673Y002993D01*
X060740Y003042D01*
X060799Y003101D01*
X060848Y003168D01*
X060886Y003243D01*
X060912Y003322D01*
X060925Y003404D01*
X060925Y003446D01*
X060395Y003446D01*
X060395Y002916D01*
X060395Y003446D01*
X060395Y003446D01*
X060395Y003446D01*
X059865Y003446D01*
X060395Y003446D01*
X060395Y003446D01*
X060925Y003446D01*
X060925Y003488D01*
X060912Y003570D01*
X060886Y003650D01*
X060848Y003724D01*
X060799Y003791D01*
X060740Y003850D01*
X060673Y003899D01*
X060598Y003937D01*
X060519Y003963D01*
X060437Y003976D01*
X060395Y003976D01*
X060395Y003446D01*
X060395Y003976D01*
X060353Y003976D01*
X060271Y003963D01*
X060192Y003937D01*
X060117Y003899D01*
X060050Y003850D01*
X059991Y003791D01*
X059942Y003724D01*
X059904Y003650D01*
X059872Y003361D02*
X059085Y003361D01*
X058942Y003042D02*
X060050Y003042D01*
X060395Y003042D02*
X060395Y003042D01*
X060395Y003361D02*
X060395Y003361D01*
X060395Y003446D02*
X060395Y003446D01*
X060395Y003679D02*
X060395Y003679D01*
X060871Y003679D02*
X062479Y003679D01*
X062464Y003650D02*
X062438Y003570D01*
X062425Y003488D01*
X062425Y003446D01*
X062425Y003404D01*
X062438Y003322D01*
X062464Y003243D01*
X062502Y003168D01*
X062551Y003101D01*
X062610Y003042D01*
X062677Y002993D01*
X062752Y002955D01*
X062831Y002929D01*
X062913Y002916D01*
X062955Y002916D01*
X062997Y002916D01*
X063079Y002929D01*
X063158Y002955D01*
X063233Y002993D01*
X063300Y003042D01*
X063359Y003101D01*
X063408Y003168D01*
X063446Y003243D01*
X063472Y003322D01*
X063485Y003404D01*
X063485Y003446D01*
X062955Y003446D01*
X062955Y002916D01*
X062955Y003446D01*
X062955Y003446D01*
X062955Y003446D01*
X062425Y003446D01*
X062955Y003446D01*
X062955Y003446D01*
X063485Y003446D01*
X063485Y003488D01*
X063472Y003570D01*
X063446Y003650D01*
X063408Y003724D01*
X063359Y003791D01*
X063300Y003850D01*
X063233Y003899D01*
X063158Y003937D01*
X063079Y003963D01*
X062997Y003976D01*
X062955Y003976D01*
X062955Y003446D01*
X062955Y003976D01*
X062913Y003976D01*
X062831Y003963D01*
X062752Y003937D01*
X062677Y003899D01*
X062610Y003850D01*
X062551Y003791D01*
X062502Y003724D01*
X062464Y003650D01*
X062432Y003361D02*
X060918Y003361D01*
X060740Y003042D02*
X062610Y003042D01*
X062955Y003042D02*
X062955Y003042D01*
X062955Y003361D02*
X062955Y003361D01*
X062955Y003446D02*
X062955Y003446D01*
X062955Y003679D02*
X062955Y003679D01*
X063431Y003679D02*
X071030Y003679D01*
X070711Y003361D02*
X063478Y003361D01*
X063300Y003042D02*
X070393Y003042D01*
X070074Y002724D02*
X054482Y002724D01*
X054482Y002964D02*
X054397Y003168D01*
X054240Y003325D01*
X054036Y003410D01*
X053814Y003410D01*
X053610Y003325D01*
X053453Y003168D01*
X053369Y002965D01*
X053348Y003028D01*
X053316Y003092D01*
X053273Y003151D01*
X053223Y003201D01*
X053164Y003244D01*
X053100Y003276D01*
X053032Y003299D01*
X052961Y003310D01*
X052925Y003310D01*
X052889Y003310D01*
X052818Y003299D01*
X052750Y003276D01*
X052686Y003244D01*
X052627Y003201D01*
X052577Y003151D01*
X052534Y003092D01*
X052502Y003028D01*
X052481Y002965D01*
X052397Y003168D01*
X052240Y003325D01*
X052036Y003410D01*
X051814Y003410D01*
X051610Y003325D01*
X051453Y003168D01*
X051368Y002964D01*
X051368Y002148D01*
X051453Y001944D01*
X051610Y001787D01*
X051814Y001702D01*
X052036Y001702D01*
X052240Y001787D01*
X052397Y001944D01*
X052481Y002147D01*
X052502Y002084D01*
X052534Y002020D01*
X052577Y001962D01*
X052627Y001911D01*
X052686Y001869D01*
X052750Y001836D01*
X052818Y001814D01*
X052889Y001802D01*
X052925Y001802D01*
X052961Y001802D01*
X053032Y001814D01*
X053100Y001836D01*
X053164Y001869D01*
X053223Y001911D01*
X053273Y001962D01*
X053316Y002020D01*
X053348Y002084D01*
X053369Y002147D01*
X053453Y001944D01*
X053610Y001787D01*
X053814Y001702D01*
X054036Y001702D01*
X054240Y001787D01*
X054397Y001944D01*
X054482Y002148D01*
X054482Y002964D01*
X054449Y003042D02*
X055408Y003042D01*
X055265Y003361D02*
X054155Y003361D01*
X053695Y003361D02*
X052155Y003361D01*
X052449Y003042D02*
X052509Y003042D01*
X052925Y003042D02*
X052925Y003042D01*
X052925Y003310D02*
X052925Y002556D01*
X052925Y001802D01*
X052925Y002556D01*
X052925Y002556D01*
X052925Y002556D01*
X052925Y003310D01*
X053341Y003042D02*
X053401Y003042D01*
X052925Y002724D02*
X052925Y002724D01*
X052925Y002405D02*
X052925Y002405D01*
X052925Y002087D02*
X052925Y002087D01*
X053349Y002087D02*
X053394Y002087D01*
X052501Y002087D02*
X052456Y002087D01*
X052194Y001768D02*
X053656Y001768D01*
X054194Y001768D02*
X055375Y001768D01*
X055378Y001790D02*
X055365Y001708D01*
X055365Y001666D01*
X055365Y001624D01*
X055378Y001542D01*
X055404Y001463D01*
X055442Y001388D01*
X055491Y001321D01*
X055550Y001262D01*
X055617Y001213D01*
X055692Y001175D01*
X055771Y001149D01*
X055853Y001136D01*
X055895Y001136D01*
X055937Y001136D01*
X056019Y001149D01*
X056098Y001175D01*
X056173Y001213D01*
X056240Y001262D01*
X056299Y001321D01*
X056348Y001388D01*
X056386Y001463D01*
X056412Y001542D01*
X056425Y001624D01*
X056425Y001666D01*
X055895Y001666D01*
X055895Y001136D01*
X055895Y001666D01*
X055895Y001666D01*
X055895Y001666D01*
X055365Y001666D01*
X055895Y001666D01*
X055895Y001666D01*
X056425Y001666D01*
X056425Y001708D01*
X056412Y001790D01*
X056386Y001870D01*
X056348Y001944D01*
X056299Y002011D01*
X056240Y002070D01*
X056173Y002119D01*
X056098Y002157D01*
X056019Y002183D01*
X055937Y002196D01*
X055895Y002196D01*
X055895Y001666D01*
X055895Y002196D01*
X055853Y002196D01*
X055771Y002183D01*
X055692Y002157D01*
X055617Y002119D01*
X055550Y002070D01*
X055491Y002011D01*
X055442Y001944D01*
X055404Y001870D01*
X055378Y001790D01*
X055572Y002087D02*
X054456Y002087D01*
X054482Y002405D02*
X067755Y002405D01*
X067300Y002087D02*
X063425Y002087D01*
X063489Y002023D02*
X063312Y002200D01*
X063080Y002296D01*
X062830Y002296D01*
X062598Y002200D01*
X062421Y002023D01*
X062325Y001791D01*
X062325Y001541D01*
X062421Y001309D01*
X062598Y001132D01*
X062830Y001036D01*
X063080Y001036D01*
X063312Y001132D01*
X063489Y001309D01*
X063585Y001541D01*
X063585Y001791D01*
X063489Y002023D01*
X063585Y001768D02*
X067090Y001768D01*
X067005Y001450D02*
X063547Y001450D01*
X063310Y001131D02*
X067010Y001131D01*
X069050Y002087D02*
X069437Y002087D01*
X069756Y002405D02*
X068595Y002405D01*
X063211Y004953D02*
X062139Y004953D01*
X062155Y005272D02*
X063195Y005272D01*
X063195Y005590D02*
X062155Y005590D01*
X061971Y005909D02*
X063379Y005909D01*
X066429Y006546D02*
X057985Y006546D01*
X057985Y006864D02*
X066632Y006864D01*
X066405Y007183D02*
X057948Y007183D01*
X057633Y007501D02*
X066405Y007501D01*
X066703Y007820D02*
X061248Y007820D01*
X061258Y007844D02*
X061258Y008343D01*
X061219Y008439D01*
X061145Y008512D01*
X061140Y008514D01*
X061140Y008910D01*
X061146Y008955D01*
X061140Y008977D01*
X061140Y008999D01*
X061122Y009041D01*
X061110Y009086D01*
X061097Y009103D01*
X061088Y009124D01*
X061056Y009156D01*
X061027Y009193D01*
X061008Y009204D01*
X060993Y009219D01*
X060950Y009237D01*
X060480Y009505D01*
X060480Y009542D01*
X060396Y009746D01*
X060265Y009876D01*
X060265Y010635D01*
X060270Y010638D01*
X060344Y010711D01*
X060383Y010806D01*
X060383Y011306D01*
X060344Y011401D01*
X060270Y011475D01*
X060175Y011514D01*
X059675Y011514D01*
X059580Y011475D01*
X059506Y011401D01*
X059467Y011306D01*
X059467Y010806D01*
X059506Y010711D01*
X059580Y010638D01*
X059585Y010635D01*
X059585Y009876D01*
X059454Y009746D01*
X059370Y009542D01*
X059370Y009321D01*
X059454Y009117D01*
X059610Y008960D01*
X059815Y008876D01*
X060035Y008876D01*
X060137Y008918D01*
X060460Y008734D01*
X060460Y008514D01*
X060455Y008512D01*
X060381Y008439D01*
X060342Y008343D01*
X060342Y007844D01*
X060381Y007748D01*
X060455Y007675D01*
X060550Y007635D01*
X061050Y007635D01*
X061145Y007675D01*
X061219Y007748D01*
X061258Y007844D01*
X061258Y008138D02*
X068110Y008138D01*
X068092Y008181D02*
X068131Y008086D01*
X068205Y008013D01*
X068300Y007973D01*
X068751Y007973D01*
X068756Y007961D01*
X068830Y007888D01*
X068925Y007848D01*
X069425Y007848D01*
X069520Y007888D01*
X069594Y007961D01*
X069633Y008056D01*
X069633Y008556D01*
X069594Y008651D01*
X069520Y008725D01*
X069515Y008727D01*
X069515Y011385D01*
X069520Y011388D01*
X069594Y011461D01*
X069633Y011556D01*
X069633Y012056D01*
X069594Y012151D01*
X069520Y012225D01*
X069425Y012264D01*
X068925Y012264D01*
X068890Y012250D01*
X068890Y012874D01*
X068883Y012890D01*
X068883Y013181D01*
X068844Y013276D01*
X068799Y013321D01*
X068910Y013432D01*
X068924Y013466D01*
X069746Y013466D01*
X070555Y012657D01*
X070555Y012431D01*
X070645Y012214D01*
X070803Y012056D01*
X070645Y011898D01*
X070555Y011681D01*
X070555Y011447D01*
X070645Y011230D01*
X070811Y011064D01*
X071028Y010974D01*
X071262Y010974D01*
X071479Y011064D01*
X071535Y011120D01*
X071591Y011064D01*
X071808Y010974D01*
X072042Y010974D01*
X072259Y011064D01*
X072425Y011230D01*
X072515Y011447D01*
X072515Y011681D01*
X072425Y011898D01*
X072259Y012064D01*
X072146Y012111D01*
X072182Y012129D01*
X072244Y012174D01*
X072299Y012229D01*
X072344Y012291D01*
X072379Y012360D01*
X072403Y012433D01*
X072415Y012510D01*
X072415Y012548D01*
X071925Y012548D01*
X071925Y012548D01*
X072415Y012548D01*
X072415Y012587D01*
X072403Y012663D01*
X072379Y012736D01*
X072344Y012805D01*
X072299Y012867D01*
X072244Y012922D01*
X072182Y012967D01*
X072113Y013002D01*
X072040Y013026D01*
X071964Y013038D01*
X071925Y013038D01*
X071886Y013038D01*
X071810Y013026D01*
X071737Y013002D01*
X071668Y012967D01*
X071606Y012922D01*
X071606Y012922D01*
X071479Y013048D01*
X071262Y013138D01*
X071036Y013138D01*
X070080Y014094D01*
X069955Y014146D01*
X068924Y014146D01*
X068910Y014180D01*
X068724Y014366D01*
X068481Y014466D01*
X068219Y014466D01*
X067976Y014366D01*
X067790Y014180D01*
X067745Y014069D01*
X067729Y014100D01*
X067677Y014171D01*
X067615Y014233D01*
X067544Y014285D01*
X067465Y014325D01*
X067381Y014352D01*
X067294Y014366D01*
X067250Y014366D01*
X067206Y014366D01*
X067119Y014352D01*
X067035Y014325D01*
X066956Y014285D01*
X066885Y014233D01*
X066823Y014171D01*
X066771Y014100D01*
X066731Y014021D01*
X066704Y013937D01*
X066690Y013850D01*
X066690Y013806D01*
X066690Y013762D01*
X066704Y013675D01*
X066731Y013591D01*
X066771Y013513D01*
X066823Y013441D01*
X066885Y013379D01*
X066956Y013327D01*
X067035Y013287D01*
X067119Y013260D01*
X067206Y013246D01*
X067250Y013246D01*
X067250Y013806D01*
X067250Y013246D01*
X067294Y013246D01*
X067381Y013260D01*
X067465Y013287D01*
X067544Y013327D01*
X067615Y013379D01*
X067677Y013441D01*
X067729Y013513D01*
X067745Y013543D01*
X067790Y013432D01*
X067976Y013247D01*
X067991Y013240D01*
X067967Y013181D01*
X067967Y012681D01*
X068006Y012586D01*
X068080Y012513D01*
X068175Y012473D01*
X068210Y012473D01*
X068210Y012197D01*
X067534Y011521D01*
X062982Y011521D01*
X062857Y011469D01*
X062762Y011374D01*
X062637Y011249D01*
X062585Y011124D01*
X062585Y009852D01*
X062580Y009850D01*
X062506Y009776D01*
X062467Y009681D01*
X062467Y009181D01*
X062506Y009086D01*
X062580Y009013D01*
X062675Y008973D01*
X063175Y008973D01*
X063270Y009013D01*
X063344Y009086D01*
X063383Y009181D01*
X063383Y009681D01*
X063344Y009776D01*
X063270Y009850D01*
X063265Y009852D01*
X063265Y010841D01*
X067743Y010841D01*
X067868Y010893D01*
X068717Y011742D01*
X068717Y011556D01*
X068756Y011461D01*
X068830Y011388D01*
X068835Y011385D01*
X068835Y010500D01*
X068800Y010514D01*
X068300Y010514D01*
X068205Y010475D01*
X068131Y010401D01*
X068092Y010306D01*
X068092Y009806D01*
X068131Y009711D01*
X068205Y009638D01*
X068210Y009635D01*
X068210Y008852D01*
X068205Y008850D01*
X068131Y008776D01*
X068092Y008681D01*
X068092Y008181D01*
X068092Y008457D02*
X061201Y008457D01*
X061140Y008775D02*
X068131Y008775D01*
X068210Y009094D02*
X063347Y009094D01*
X063383Y009412D02*
X068210Y009412D01*
X068123Y009731D02*
X063363Y009731D01*
X063265Y010049D02*
X068092Y010049D01*
X068117Y010368D02*
X063265Y010368D01*
X063265Y010686D02*
X068835Y010686D01*
X069515Y010686D02*
X074955Y010686D01*
X074955Y010368D02*
X073600Y010368D01*
X073510Y010458D02*
X073766Y010202D01*
X073905Y009867D01*
X073905Y009505D01*
X073766Y009171D01*
X073510Y008915D01*
X073176Y008776D01*
X072814Y008776D01*
X072480Y008915D01*
X072224Y009171D01*
X072085Y009505D01*
X072085Y009867D01*
X072224Y010202D01*
X072480Y010458D01*
X072814Y010596D01*
X073176Y010596D01*
X073510Y010458D01*
X072390Y010368D02*
X069515Y010368D01*
X069515Y010049D02*
X072160Y010049D01*
X072085Y009731D02*
X069515Y009731D01*
X069515Y009412D02*
X072124Y009412D01*
X072301Y009094D02*
X069515Y009094D01*
X069515Y008775D02*
X074236Y008775D01*
X073796Y008457D02*
X069633Y008457D01*
X069633Y008138D02*
X070772Y008138D01*
X070655Y008021D02*
X070655Y007591D01*
X070960Y007286D01*
X071390Y007286D01*
X071675Y007571D01*
X071960Y007286D01*
X072390Y007286D01*
X072695Y007591D01*
X072695Y008021D01*
X072390Y008326D01*
X071960Y008326D01*
X071675Y008041D01*
X071390Y008326D01*
X070960Y008326D01*
X070655Y008021D01*
X070655Y007820D02*
X070147Y007820D01*
X070445Y007501D02*
X070745Y007501D01*
X070445Y007183D02*
X073612Y007183D01*
X073512Y007501D02*
X072605Y007501D01*
X072695Y007820D02*
X073505Y007820D01*
X073588Y008138D02*
X072578Y008138D01*
X071772Y008138D02*
X071578Y008138D01*
X071605Y007501D02*
X071745Y007501D01*
X070218Y006864D02*
X073837Y006864D01*
X073896Y006546D02*
X070421Y006546D01*
X069632Y006864D02*
X067218Y006864D01*
X067421Y006546D02*
X069429Y006546D01*
X069405Y007183D02*
X067445Y007183D01*
X067445Y007501D02*
X069405Y007501D01*
X069703Y007820D02*
X067147Y007820D01*
X062503Y009094D02*
X061104Y009094D01*
X060644Y009412D02*
X062467Y009412D01*
X062487Y009731D02*
X060402Y009731D01*
X060265Y010049D02*
X062585Y010049D01*
X062585Y010368D02*
X060265Y010368D01*
X060319Y010686D02*
X062585Y010686D01*
X061944Y011041D02*
X061904Y010963D01*
X061852Y010891D01*
X061790Y010829D01*
X061719Y010777D01*
X061640Y010737D01*
X061556Y010710D01*
X061469Y010696D01*
X061425Y010696D01*
X061425Y011256D01*
X061425Y011256D01*
X061425Y010696D01*
X061381Y010696D01*
X061294Y010710D01*
X061210Y010737D01*
X061131Y010777D01*
X061060Y010829D01*
X060998Y010891D01*
X060946Y010963D01*
X060906Y011041D01*
X060879Y011125D01*
X060865Y011212D01*
X060865Y011256D01*
X061425Y011256D01*
X061425Y011256D01*
X061425Y011256D01*
X061985Y011256D01*
X061985Y011212D01*
X061971Y011125D01*
X061944Y011041D01*
X061925Y011005D02*
X062585Y011005D01*
X062711Y011323D02*
X061981Y011323D01*
X061985Y011300D02*
X061971Y011387D01*
X061944Y011471D01*
X061904Y011550D01*
X061852Y011621D01*
X061790Y011683D01*
X061719Y011735D01*
X061688Y011751D01*
X061799Y011797D01*
X061985Y011982D01*
X062085Y012225D01*
X062085Y012487D01*
X061985Y012730D01*
X061799Y012916D01*
X061556Y013016D01*
X061294Y013016D01*
X061051Y012916D01*
X060865Y012730D01*
X060765Y012487D01*
X060765Y012225D01*
X060865Y011982D01*
X061051Y011797D01*
X061162Y011751D01*
X061131Y011735D01*
X061060Y011683D01*
X060998Y011621D01*
X060946Y011550D01*
X060906Y011471D01*
X060879Y011387D01*
X060865Y011300D01*
X060865Y011256D01*
X061425Y011256D01*
X061985Y011256D01*
X061985Y011300D01*
X061425Y011005D02*
X061425Y011005D01*
X060925Y011005D02*
X060383Y011005D01*
X060376Y011323D02*
X060869Y011323D01*
X061019Y011642D02*
X059265Y011642D01*
X059265Y011960D02*
X060888Y011960D01*
X060765Y012279D02*
X059265Y012279D01*
X059265Y012597D02*
X060810Y012597D01*
X061051Y012916D02*
X060131Y012916D01*
X060035Y012876D02*
X060240Y012960D01*
X060396Y013117D01*
X060480Y013321D01*
X060480Y013542D01*
X060396Y013746D01*
X060240Y013902D01*
X060035Y013986D01*
X059815Y013986D01*
X059610Y013902D01*
X059454Y013746D01*
X059370Y013542D01*
X059370Y013321D01*
X059454Y013117D01*
X059610Y012960D01*
X059815Y012876D01*
X060035Y012876D01*
X059719Y012916D02*
X059265Y012916D01*
X059265Y013234D02*
X059406Y013234D01*
X059374Y013553D02*
X059265Y013553D01*
X059265Y013871D02*
X059580Y013871D01*
X059265Y014190D02*
X064325Y014190D01*
X064315Y014180D02*
X064215Y013937D01*
X064215Y013675D01*
X064315Y013432D01*
X064501Y013247D01*
X064744Y013146D01*
X065006Y013146D01*
X065249Y013247D01*
X065435Y013432D01*
X065480Y013543D01*
X065496Y013513D01*
X065548Y013441D01*
X065610Y013379D01*
X065681Y013327D01*
X065760Y013287D01*
X065844Y013260D01*
X065931Y013246D01*
X065975Y013246D01*
X065975Y013806D01*
X065975Y013246D01*
X066019Y013246D01*
X066106Y013260D01*
X066190Y013287D01*
X066269Y013327D01*
X066340Y013379D01*
X066402Y013441D01*
X066454Y013513D01*
X066494Y013591D01*
X066521Y013675D01*
X066535Y013762D01*
X066535Y013806D01*
X065975Y013806D01*
X065975Y013806D01*
X065975Y013806D01*
X066535Y013806D01*
X066535Y013850D01*
X066521Y013937D01*
X066494Y014021D01*
X066454Y014100D01*
X066402Y014171D01*
X066340Y014233D01*
X066269Y014285D01*
X066190Y014325D01*
X066106Y014352D01*
X066019Y014366D01*
X065975Y014366D01*
X065931Y014366D01*
X065844Y014352D01*
X065760Y014325D01*
X065681Y014285D01*
X065610Y014233D01*
X065548Y014171D01*
X065496Y014100D01*
X065480Y014069D01*
X065435Y014180D01*
X065249Y014366D01*
X065006Y014466D01*
X064744Y014466D01*
X064501Y014366D01*
X064315Y014180D01*
X064215Y013871D02*
X060270Y013871D01*
X060476Y013553D02*
X064266Y013553D01*
X064531Y013234D02*
X060444Y013234D01*
X061799Y012916D02*
X067967Y012916D01*
X067989Y013234D02*
X065219Y013234D01*
X065975Y013553D02*
X065975Y013553D01*
X065975Y013806D02*
X065975Y014366D01*
X065975Y013806D01*
X065975Y013806D01*
X065975Y013871D02*
X065975Y013871D01*
X065975Y014190D02*
X065975Y014190D01*
X066383Y014190D02*
X066842Y014190D01*
X066693Y013871D02*
X066532Y013871D01*
X066690Y013806D02*
X067250Y013806D01*
X067250Y013806D01*
X066690Y013806D01*
X066751Y013553D02*
X066474Y013553D01*
X067250Y013553D02*
X067250Y013553D01*
X067250Y013806D02*
X067250Y013806D01*
X067250Y014366D01*
X067250Y013806D01*
X067250Y013806D01*
X067250Y013871D02*
X067250Y013871D01*
X067250Y014190D02*
X067250Y014190D01*
X067658Y014190D02*
X067800Y014190D01*
X068900Y014190D02*
X072108Y014190D01*
X072085Y014245D02*
X072224Y013911D01*
X072480Y013655D01*
X072814Y013516D01*
X073176Y013516D01*
X073510Y013655D01*
X073766Y013911D01*
X073905Y014245D01*
X073905Y014607D01*
X073766Y014942D01*
X073510Y015198D01*
X073176Y015336D01*
X072814Y015336D01*
X072480Y015198D01*
X072224Y014942D01*
X072085Y014607D01*
X072085Y014245D01*
X072085Y014508D02*
X062569Y014508D01*
X062541Y014488D02*
X062600Y014530D01*
X062651Y014581D01*
X062693Y014640D01*
X062726Y014705D01*
X062749Y014773D01*
X062760Y014845D01*
X062760Y015181D01*
X062300Y015181D01*
X062300Y014421D01*
X062336Y014421D01*
X062408Y014432D01*
X062477Y014455D01*
X062541Y014488D01*
X062300Y014508D02*
X062300Y014508D01*
X062300Y014421D02*
X062300Y015181D01*
X062300Y015181D01*
X062300Y015181D01*
X062760Y015181D01*
X062760Y015517D01*
X062749Y015589D01*
X062726Y015658D01*
X062693Y015722D01*
X062651Y015781D01*
X062600Y015832D01*
X062541Y015875D01*
X062477Y015907D01*
X062408Y015930D01*
X062336Y015941D01*
X062300Y015941D01*
X062300Y015181D01*
X062300Y015941D01*
X062264Y015941D01*
X062192Y015930D01*
X062123Y015907D01*
X062059Y015875D01*
X062000Y015832D01*
X061949Y015781D01*
X061907Y015722D01*
X061874Y015658D01*
X061856Y015603D01*
X061775Y015798D01*
X061617Y015956D01*
X061411Y016041D01*
X061189Y016041D01*
X060983Y015956D01*
X060825Y015798D01*
X060800Y015737D01*
X060775Y015798D01*
X060617Y015956D01*
X060411Y016041D01*
X060189Y016041D01*
X059983Y015956D01*
X059825Y015798D01*
X059740Y015592D01*
X059740Y014770D01*
X059825Y014564D01*
X059983Y014406D01*
X060189Y014321D01*
X060411Y014321D01*
X060617Y014406D01*
X060775Y014564D01*
X060800Y014625D01*
X060825Y014564D01*
X060983Y014406D01*
X061189Y014321D01*
X061411Y014321D01*
X061617Y014406D01*
X061775Y014564D01*
X061856Y014760D01*
X061874Y014705D01*
X061907Y014640D01*
X061949Y014581D01*
X062000Y014530D01*
X062059Y014488D01*
X062123Y014455D01*
X062192Y014432D01*
X062264Y014421D01*
X062300Y014421D01*
X062031Y014508D02*
X061719Y014508D01*
X062300Y014827D02*
X062300Y014827D01*
X062300Y015145D02*
X062300Y015145D01*
X062300Y015181D02*
X062300Y015181D01*
X062300Y015464D02*
X062300Y015464D01*
X062300Y015782D02*
X062300Y015782D01*
X062650Y015782D02*
X074955Y015782D01*
X074955Y015464D02*
X062760Y015464D01*
X061950Y015782D02*
X061781Y015782D01*
X060819Y015782D02*
X060781Y015782D01*
X059819Y015782D02*
X059265Y015782D01*
X059265Y015464D02*
X059740Y015464D01*
X059740Y015145D02*
X059265Y015145D01*
X059265Y014827D02*
X059740Y014827D01*
X059881Y014508D02*
X059265Y014508D01*
X060719Y014508D02*
X060881Y014508D01*
X062757Y014827D02*
X072176Y014827D01*
X072427Y015145D02*
X062760Y015145D01*
X065425Y014190D02*
X065567Y014190D01*
X068861Y013234D02*
X069978Y013234D01*
X070297Y012916D02*
X068883Y012916D01*
X068890Y012597D02*
X070555Y012597D01*
X070618Y012279D02*
X068890Y012279D01*
X068210Y012279D02*
X062085Y012279D01*
X062040Y012597D02*
X068002Y012597D01*
X067973Y011960D02*
X061962Y011960D01*
X061831Y011642D02*
X067655Y011642D01*
X068298Y011323D02*
X068835Y011323D01*
X068835Y011005D02*
X067979Y011005D01*
X068616Y011642D02*
X068717Y011642D01*
X069515Y011323D02*
X070606Y011323D01*
X070555Y011642D02*
X069633Y011642D01*
X069633Y011960D02*
X070707Y011960D01*
X071925Y012548D02*
X071925Y013038D01*
X071925Y012548D01*
X071925Y012548D01*
X071925Y012597D02*
X071925Y012597D01*
X071925Y012916D02*
X071925Y012916D01*
X072251Y012916D02*
X074955Y012916D01*
X074955Y013234D02*
X070940Y013234D01*
X070621Y013553D02*
X072726Y013553D01*
X073264Y013553D02*
X074955Y013553D01*
X074955Y013871D02*
X073727Y013871D01*
X073882Y014190D02*
X074955Y014190D01*
X074955Y014508D02*
X073905Y014508D01*
X073814Y014827D02*
X074955Y014827D01*
X074955Y015145D02*
X073563Y015145D01*
X074955Y016101D02*
X059111Y016101D01*
X059068Y018019D02*
X059282Y018019D01*
X059479Y018101D01*
X059630Y018252D01*
X059675Y018360D01*
X059720Y018252D01*
X059871Y018101D01*
X060068Y018019D01*
X060282Y018019D01*
X060479Y018101D01*
X060630Y018252D01*
X060675Y018360D01*
X060720Y018252D01*
X060871Y018101D01*
X061068Y018019D01*
X061282Y018019D01*
X061479Y018101D01*
X061630Y018252D01*
X061675Y018360D01*
X061720Y018252D01*
X061871Y018101D01*
X062068Y018019D01*
X062282Y018019D01*
X062347Y018046D01*
X063003Y018046D01*
X063068Y018019D01*
X063282Y018019D01*
X063479Y018101D01*
X063630Y018252D01*
X063675Y018360D01*
X063720Y018252D01*
X063871Y018101D01*
X064068Y018019D01*
X064282Y018019D01*
X064479Y018101D01*
X064630Y018252D01*
X064675Y018360D01*
X064720Y018252D01*
X064871Y018101D01*
X065068Y018019D01*
X065282Y018019D01*
X065479Y018101D01*
X065630Y018252D01*
X065712Y018449D01*
X065712Y018663D01*
X065630Y018860D01*
X065479Y019011D01*
X065282Y019093D01*
X065068Y019093D01*
X064871Y019011D01*
X064720Y018860D01*
X064675Y018753D01*
X064630Y018860D01*
X064479Y019011D01*
X064396Y019046D01*
X064463Y019114D01*
X064515Y019238D01*
X064515Y019411D01*
X064695Y019591D01*
X064695Y020021D01*
X064500Y020216D01*
X065784Y020216D01*
X066085Y019915D01*
X066085Y018976D01*
X065970Y018860D01*
X065888Y018663D01*
X065888Y018449D01*
X065970Y018252D01*
X066121Y018101D01*
X066318Y018019D01*
X066532Y018019D01*
X066729Y018101D01*
X066880Y018252D01*
X066925Y018360D01*
X066970Y018252D01*
X067121Y018101D01*
X067318Y018019D01*
X067532Y018019D01*
X067729Y018101D01*
X067880Y018252D01*
X067925Y018360D01*
X067970Y018252D01*
X068121Y018101D01*
X068318Y018019D01*
X068532Y018019D01*
X068729Y018101D01*
X068880Y018252D01*
X068925Y018360D01*
X068970Y018252D01*
X069121Y018101D01*
X069318Y018019D01*
X069532Y018019D01*
X069729Y018101D01*
X069880Y018252D01*
X069925Y018360D01*
X069970Y018252D01*
X070121Y018101D01*
X070318Y018019D01*
X070532Y018019D01*
X070597Y018046D01*
X071253Y018046D01*
X071318Y018019D01*
X071532Y018019D01*
X071729Y018101D01*
X071880Y018252D01*
X071925Y018360D01*
X071970Y018252D01*
X072121Y018101D01*
X072318Y018019D01*
X072532Y018019D01*
X072729Y018101D01*
X072880Y018252D01*
X072925Y018360D01*
X072970Y018252D01*
X073085Y018136D01*
X073085Y017947D01*
X072784Y017646D01*
X071596Y017646D01*
X071594Y017651D01*
X071520Y017725D01*
X071425Y017764D01*
X070925Y017764D01*
X070830Y017725D01*
X070756Y017651D01*
X070717Y017556D01*
X070717Y017056D01*
X038410Y017056D01*
X038390Y017036D02*
X038695Y017341D01*
X038695Y017771D01*
X038448Y018019D01*
X038532Y018019D01*
X038729Y018101D01*
X038880Y018252D01*
X038925Y018360D01*
X038970Y018252D01*
X039121Y018101D01*
X039318Y018019D01*
X039532Y018019D01*
X039729Y018101D01*
X039880Y018252D01*
X039925Y018360D01*
X039970Y018252D01*
X040121Y018101D01*
X040318Y018019D01*
X040532Y018019D01*
X040729Y018101D01*
X040880Y018252D01*
X040962Y018449D01*
X040962Y018663D01*
X040880Y018860D01*
X040729Y019011D01*
X040532Y019093D01*
X040318Y019093D01*
X040121Y019011D01*
X039970Y018860D01*
X039925Y018753D01*
X039880Y018860D01*
X039729Y019011D01*
X039646Y019046D01*
X039713Y019114D01*
X039765Y019238D01*
X039765Y019411D01*
X039945Y019591D01*
X039945Y020021D01*
X039750Y020216D01*
X041585Y020216D01*
X041585Y019361D01*
X041484Y019058D01*
X041371Y019011D01*
X041220Y018860D01*
X041138Y018663D01*
X041138Y018449D01*
X041220Y018252D01*
X041371Y018101D01*
X041568Y018019D01*
X041782Y018019D01*
X041979Y018101D01*
X042130Y018252D01*
X042175Y018360D01*
X042220Y018252D01*
X042371Y018101D01*
X042568Y018019D01*
X042782Y018019D01*
X042979Y018101D01*
X043130Y018252D01*
X043175Y018360D01*
X043220Y018252D01*
X043371Y018101D01*
X043568Y018019D01*
X043782Y018019D01*
X043979Y018101D01*
X044130Y018252D01*
X044175Y018360D01*
X044220Y018252D01*
X044371Y018101D01*
X044568Y018019D01*
X044782Y018019D01*
X044979Y018101D01*
X045130Y018252D01*
X045175Y018360D01*
X045220Y018252D01*
X045371Y018101D01*
X045568Y018019D01*
X045782Y018019D01*
X045847Y018046D01*
X046503Y018046D01*
X046568Y018019D01*
X046782Y018019D01*
X046979Y018101D01*
X047130Y018252D01*
X047175Y018360D01*
X047220Y018252D01*
X047371Y018101D01*
X047568Y018019D01*
X047782Y018019D01*
X047979Y018101D01*
X048130Y018252D01*
X048175Y018360D01*
X048220Y018252D01*
X048371Y018101D01*
X048568Y018019D01*
X048782Y018019D01*
X048979Y018101D01*
X049130Y018252D01*
X049212Y018449D01*
X049212Y018663D01*
X049130Y018860D01*
X048979Y019011D01*
X048782Y019093D01*
X048568Y019093D01*
X048371Y019011D01*
X048220Y018860D01*
X048175Y018753D01*
X048130Y018860D01*
X047979Y019011D01*
X047896Y019046D01*
X047963Y019114D01*
X048015Y019238D01*
X048015Y019411D01*
X048195Y019591D01*
X048195Y020021D01*
X048000Y020216D01*
X049585Y020216D01*
X049585Y018976D01*
X049470Y018860D01*
X049388Y018663D01*
X049388Y018449D01*
X049470Y018252D01*
X049621Y018101D01*
X049818Y018019D01*
X050032Y018019D01*
X050229Y018101D01*
X050380Y018252D01*
X050425Y018360D01*
X050470Y018252D01*
X050621Y018101D01*
X050818Y018019D01*
X051032Y018019D01*
X051229Y018101D01*
X051380Y018252D01*
X051425Y018360D01*
X051470Y018252D01*
X051621Y018101D01*
X051818Y018019D01*
X052032Y018019D01*
X052229Y018101D01*
X052380Y018252D01*
X052425Y018360D01*
X052470Y018252D01*
X052621Y018101D01*
X052818Y018019D01*
X053032Y018019D01*
X053229Y018101D01*
X053380Y018252D01*
X053425Y018360D01*
X053470Y018252D01*
X053621Y018101D01*
X053818Y018019D01*
X054032Y018019D01*
X054097Y018046D01*
X054753Y018046D01*
X054818Y018019D01*
X055032Y018019D01*
X055229Y018101D01*
X055380Y018252D01*
X055425Y018360D01*
X055470Y018252D01*
X055621Y018101D01*
X055818Y018019D01*
X056032Y018019D01*
X056229Y018101D01*
X056380Y018252D01*
X056425Y018360D01*
X056470Y018252D01*
X056621Y018101D01*
X056818Y018019D01*
X057032Y018019D01*
X057229Y018101D01*
X057380Y018252D01*
X057462Y018449D01*
X057462Y018663D01*
X057380Y018860D01*
X057229Y019011D01*
X057032Y019093D01*
X056818Y019093D01*
X056621Y019011D01*
X056470Y018860D01*
X056425Y018753D01*
X056380Y018860D01*
X056229Y019011D01*
X056146Y019046D01*
X056213Y019114D01*
X056265Y019238D01*
X056265Y019411D01*
X056445Y019591D01*
X056445Y020021D01*
X056250Y020216D01*
X057835Y020216D01*
X057835Y018976D01*
X057720Y018860D01*
X057638Y018663D01*
X057638Y018449D01*
X057720Y018252D01*
X057871Y018101D01*
X058068Y018019D01*
X058282Y018019D01*
X058479Y018101D01*
X058630Y018252D01*
X058675Y018360D01*
X058720Y018252D01*
X058871Y018101D01*
X059068Y018019D01*
X058687Y018330D02*
X058663Y018330D01*
X059663Y018330D02*
X059687Y018330D01*
X060663Y018330D02*
X060687Y018330D01*
X061663Y018330D02*
X061687Y018330D01*
X063663Y018330D02*
X063687Y018330D01*
X064663Y018330D02*
X064687Y018330D01*
X065663Y018330D02*
X065937Y018330D01*
X065888Y018649D02*
X065712Y018649D01*
X065524Y018967D02*
X066076Y018967D01*
X066085Y019286D02*
X064515Y019286D01*
X064524Y018967D02*
X064826Y018967D01*
X064695Y019604D02*
X066085Y019604D01*
X066078Y019923D02*
X064695Y019923D01*
X066118Y020844D02*
X066618Y020344D01*
X066713Y020249D01*
X066765Y020124D01*
X066765Y018976D01*
X066880Y018860D01*
X066925Y018753D01*
X066970Y018860D01*
X067085Y018976D01*
X067085Y019874D01*
X067137Y019999D01*
X067232Y020094D01*
X067357Y020146D01*
X068493Y020146D01*
X068505Y020141D01*
X068727Y020141D01*
X068822Y020102D01*
X068828Y020096D01*
X069022Y020096D01*
X069028Y020102D01*
X069123Y020141D01*
X069727Y020141D01*
X069822Y020102D01*
X069828Y020096D01*
X070043Y020096D01*
X070168Y020044D01*
X070368Y019844D01*
X070463Y019749D01*
X070515Y019624D01*
X070515Y019396D01*
X072034Y019396D01*
X072067Y019429D01*
X071905Y019591D01*
X071905Y020021D01*
X072210Y020326D01*
X072640Y020326D01*
X072945Y020021D01*
X072945Y019591D01*
X072765Y019411D01*
X072765Y019238D01*
X072713Y019114D01*
X072646Y019046D01*
X072729Y019011D01*
X072880Y018860D01*
X072925Y018753D01*
X072970Y018860D01*
X073121Y019011D01*
X073318Y019093D01*
X073532Y019093D01*
X073729Y019011D01*
X073880Y018860D01*
X073962Y018663D01*
X073962Y018449D01*
X073880Y018252D01*
X073765Y018136D01*
X073765Y017738D01*
X073713Y017614D01*
X073618Y017518D01*
X073118Y017018D01*
X072993Y016966D01*
X071596Y016966D01*
X071594Y016961D01*
X071520Y016888D01*
X071425Y016848D01*
X070925Y016848D01*
X070830Y016888D01*
X070756Y016961D01*
X070717Y017056D01*
X070717Y017375D02*
X038695Y017375D01*
X038695Y017693D02*
X070798Y017693D01*
X071552Y017693D02*
X072831Y017693D01*
X073085Y018012D02*
X038455Y018012D01*
X037930Y018046D02*
X037655Y017771D01*
X037655Y017341D01*
X037960Y017036D01*
X038390Y017036D01*
X037940Y017056D02*
X036160Y017056D01*
X036140Y017036D02*
X036445Y017341D01*
X036445Y017771D01*
X036140Y018076D01*
X035710Y018076D01*
X035405Y017771D01*
X035405Y017341D01*
X035710Y017036D01*
X036140Y017036D01*
X035690Y017056D02*
X033910Y017056D01*
X033890Y017036D02*
X034195Y017341D01*
X034195Y017771D01*
X033890Y018076D01*
X033670Y018076D01*
X033729Y018101D01*
X033880Y018252D01*
X033925Y018360D01*
X033970Y018252D01*
X034121Y018101D01*
X034318Y018019D01*
X034532Y018019D01*
X034729Y018101D01*
X034880Y018252D01*
X034925Y018360D01*
X034970Y018252D01*
X035121Y018101D01*
X035318Y018019D01*
X035532Y018019D01*
X035729Y018101D01*
X035880Y018252D01*
X035925Y018360D01*
X035970Y018252D01*
X036121Y018101D01*
X036318Y018019D01*
X036532Y018019D01*
X036729Y018101D01*
X036880Y018252D01*
X036925Y018360D01*
X036970Y018252D01*
X037121Y018101D01*
X037318Y018019D01*
X037532Y018019D01*
X037597Y018046D01*
X037930Y018046D01*
X037895Y018012D02*
X036205Y018012D01*
X036445Y017693D02*
X037655Y017693D01*
X037655Y017375D02*
X036445Y017375D01*
X035645Y018012D02*
X033955Y018012D01*
X033937Y018330D02*
X033913Y018330D01*
X033402Y018019D02*
X033155Y017771D01*
X033155Y017341D01*
X033460Y017036D01*
X033890Y017036D01*
X033440Y017056D02*
X031675Y017056D01*
X031675Y017375D02*
X033155Y017375D01*
X033155Y017693D02*
X031675Y017693D01*
X031675Y018012D02*
X033395Y018012D01*
X033402Y018019D02*
X033318Y018019D01*
X033121Y018101D01*
X032970Y018252D01*
X032888Y018449D01*
X032888Y018663D01*
X032970Y018860D01*
X033085Y018976D01*
X033085Y020124D01*
X033137Y020249D01*
X033637Y020749D01*
X033732Y020844D01*
X033857Y020896D01*
X065993Y020896D01*
X066118Y020844D01*
X066036Y020878D02*
X073103Y020878D01*
X072967Y021197D02*
X031675Y021197D01*
X031675Y021515D02*
X072967Y021515D01*
X073747Y020878D02*
X074853Y020878D01*
X074955Y020560D02*
X066402Y020560D01*
X066716Y020241D02*
X072125Y020241D01*
X072725Y020241D02*
X074955Y020241D01*
X074955Y019923D02*
X072945Y019923D01*
X072945Y019604D02*
X074955Y019604D01*
X074955Y019286D02*
X072765Y019286D01*
X072774Y018967D02*
X073076Y018967D01*
X073774Y018967D02*
X074955Y018967D01*
X074955Y018649D02*
X073962Y018649D01*
X073913Y018330D02*
X074955Y018330D01*
X074955Y018012D02*
X073765Y018012D01*
X073746Y017693D02*
X074955Y017693D01*
X074955Y017375D02*
X073474Y017375D01*
X073156Y017056D02*
X074955Y017056D01*
X074955Y016738D02*
X031974Y016738D01*
X032293Y016419D02*
X074955Y016419D01*
X072937Y018330D02*
X072913Y018330D01*
X071937Y018330D02*
X071913Y018330D01*
X069937Y018330D02*
X069913Y018330D01*
X068937Y018330D02*
X068913Y018330D01*
X067937Y018330D02*
X067913Y018330D01*
X066937Y018330D02*
X066913Y018330D01*
X066774Y018967D02*
X067076Y018967D01*
X067085Y019286D02*
X066765Y019286D01*
X066765Y019604D02*
X067085Y019604D01*
X067105Y019923D02*
X066765Y019923D01*
X070289Y019923D02*
X071905Y019923D01*
X071905Y019604D02*
X070515Y019604D01*
X074955Y021834D02*
X031675Y021834D01*
X031675Y022152D02*
X074955Y022152D01*
X074955Y022471D02*
X072825Y022471D01*
X072025Y022471D02*
X064575Y022471D01*
X063775Y022471D02*
X056325Y022471D01*
X055525Y022471D02*
X048075Y022471D01*
X047275Y022471D02*
X039825Y022471D01*
X039025Y022471D02*
X032700Y022471D01*
X032150Y022471D02*
X031675Y022471D01*
X031675Y020878D02*
X033814Y020878D01*
X033448Y020560D02*
X031675Y020560D01*
X031675Y020241D02*
X033134Y020241D01*
X033085Y019923D02*
X031675Y019923D01*
X031675Y019604D02*
X033085Y019604D01*
X033085Y019286D02*
X031675Y019286D01*
X031675Y018967D02*
X033076Y018967D01*
X032888Y018649D02*
X031675Y018649D01*
X031675Y018330D02*
X032937Y018330D01*
X034195Y017693D02*
X035405Y017693D01*
X035405Y017375D02*
X034195Y017375D01*
X034913Y018330D02*
X034937Y018330D01*
X035913Y018330D02*
X035937Y018330D01*
X036913Y018330D02*
X036937Y018330D01*
X038913Y018330D02*
X038937Y018330D01*
X039913Y018330D02*
X039937Y018330D01*
X040076Y018967D02*
X039774Y018967D01*
X039765Y019286D02*
X041560Y019286D01*
X041585Y019604D02*
X039945Y019604D01*
X039945Y019923D02*
X041585Y019923D01*
X041326Y018967D02*
X040774Y018967D01*
X040962Y018649D02*
X041138Y018649D01*
X041187Y018330D02*
X040913Y018330D01*
X042163Y018330D02*
X042187Y018330D01*
X043163Y018330D02*
X043187Y018330D01*
X044163Y018330D02*
X044187Y018330D01*
X045163Y018330D02*
X045187Y018330D01*
X047163Y018330D02*
X047187Y018330D01*
X048163Y018330D02*
X048187Y018330D01*
X049163Y018330D02*
X049437Y018330D01*
X049388Y018649D02*
X049212Y018649D01*
X049024Y018967D02*
X049576Y018967D01*
X049585Y019286D02*
X048015Y019286D01*
X048024Y018967D02*
X048326Y018967D01*
X048195Y019604D02*
X049585Y019604D01*
X049585Y019923D02*
X048195Y019923D01*
X050413Y018330D02*
X050437Y018330D01*
X051413Y018330D02*
X051437Y018330D01*
X052413Y018330D02*
X052437Y018330D01*
X053413Y018330D02*
X053437Y018330D01*
X055413Y018330D02*
X055437Y018330D01*
X056413Y018330D02*
X056437Y018330D01*
X057413Y018330D02*
X057687Y018330D01*
X057638Y018649D02*
X057462Y018649D01*
X057274Y018967D02*
X057826Y018967D01*
X057835Y019286D02*
X056265Y019286D01*
X056274Y018967D02*
X056576Y018967D01*
X056445Y019604D02*
X057835Y019604D01*
X057835Y019923D02*
X056445Y019923D01*
X056915Y013871D02*
X056935Y013871D01*
X057592Y013553D02*
X058258Y013553D01*
X057935Y013871D02*
X057915Y013871D01*
X055935Y013871D02*
X055915Y013871D01*
X054935Y013871D02*
X054915Y013871D01*
X053935Y013871D02*
X053915Y013871D01*
X052935Y013871D02*
X052915Y013871D01*
X051935Y013871D02*
X051915Y013871D01*
X050935Y013871D02*
X050915Y013871D01*
X056340Y012279D02*
X057222Y012279D01*
X057632Y011960D02*
X056405Y011960D01*
X056405Y011642D02*
X058585Y011642D01*
X058585Y011960D02*
X058468Y011960D01*
X058508Y012279D02*
X058585Y012279D01*
X058585Y012597D02*
X058491Y012597D01*
X058461Y011323D02*
X056336Y011323D01*
X055911Y011005D02*
X058143Y011005D01*
X059104Y011005D02*
X059467Y011005D01*
X059474Y011323D02*
X059265Y011323D01*
X059531Y010686D02*
X058786Y010686D01*
X058467Y010368D02*
X059585Y010368D01*
X059585Y010049D02*
X058149Y010049D01*
X057830Y009731D02*
X059448Y009731D01*
X059370Y009412D02*
X057765Y009412D01*
X057765Y009094D02*
X059477Y009094D01*
X058901Y008775D02*
X060388Y008775D01*
X060399Y008457D02*
X058945Y008457D01*
X058945Y008138D02*
X060342Y008138D01*
X060352Y007820D02*
X058894Y007820D01*
X057956Y007820D02*
X057894Y007820D01*
X057901Y008775D02*
X057949Y008775D01*
X057187Y010049D02*
X052205Y010049D01*
X055274Y010368D02*
X057506Y010368D01*
X057824Y010686D02*
X055592Y010686D01*
X052956Y007820D02*
X052894Y007820D01*
X054744Y005909D02*
X055106Y005909D01*
X055744Y005909D02*
X056106Y005909D01*
X056744Y005909D02*
X057106Y005909D01*
X057744Y005909D02*
X059015Y005909D01*
X059114Y006227D02*
X057967Y006227D01*
X057485Y004316D02*
X056865Y004316D01*
X056385Y004316D02*
X056265Y004316D01*
X056265Y003998D02*
X058140Y003998D01*
X057870Y003679D02*
X056480Y003679D01*
X056525Y003361D02*
X057825Y003361D01*
X057968Y003042D02*
X056382Y003042D01*
X056218Y002087D02*
X058132Y002087D01*
X058110Y002070D02*
X058177Y002119D01*
X058252Y002157D01*
X058331Y002183D01*
X058413Y002196D01*
X058455Y002196D01*
X058497Y002196D01*
X058579Y002183D01*
X058658Y002157D01*
X058733Y002119D01*
X058800Y002070D01*
X058859Y002011D01*
X058908Y001944D01*
X058946Y001870D01*
X058972Y001790D01*
X058985Y001708D01*
X058985Y001666D01*
X058455Y001666D01*
X058455Y001136D01*
X058497Y001136D01*
X058579Y001149D01*
X058658Y001175D01*
X058733Y001213D01*
X058800Y001262D01*
X058859Y001321D01*
X058908Y001388D01*
X058946Y001463D01*
X058972Y001542D01*
X058985Y001624D01*
X058985Y001666D01*
X058455Y001666D01*
X058455Y001666D01*
X058455Y001136D01*
X058413Y001136D01*
X058331Y001149D01*
X058252Y001175D01*
X058177Y001213D01*
X058110Y001262D01*
X058051Y001321D01*
X058002Y001388D01*
X057964Y001463D01*
X057938Y001542D01*
X057925Y001624D01*
X057925Y001666D01*
X058455Y001666D01*
X058455Y001666D01*
X058455Y001666D01*
X057925Y001666D01*
X057925Y001708D01*
X057938Y001790D01*
X057964Y001870D01*
X058002Y001944D01*
X058051Y002011D01*
X058110Y002070D01*
X058455Y002087D02*
X058455Y002087D01*
X058455Y002196D02*
X058455Y001666D01*
X058455Y002196D01*
X058778Y002087D02*
X059925Y002087D01*
X059861Y002023D02*
X060038Y002200D01*
X060270Y002296D01*
X060520Y002296D01*
X060752Y002200D01*
X060929Y002023D01*
X061025Y001791D01*
X061025Y001541D01*
X060929Y001309D01*
X060752Y001132D01*
X060520Y001036D01*
X060270Y001036D01*
X060038Y001132D01*
X059861Y001309D01*
X059765Y001541D01*
X059765Y001791D01*
X059861Y002023D01*
X059765Y001768D02*
X058975Y001768D01*
X058939Y001450D02*
X059803Y001450D01*
X060040Y001131D02*
X031675Y001131D01*
X031675Y001450D02*
X055410Y001450D01*
X055895Y001450D02*
X055895Y001450D01*
X055895Y001666D02*
X055895Y001666D01*
X055895Y001768D02*
X055895Y001768D01*
X056415Y001768D02*
X057935Y001768D01*
X057970Y001450D02*
X056379Y001450D01*
X058455Y001450D02*
X058455Y001450D01*
X058455Y001666D02*
X058455Y001666D01*
X058455Y001768D02*
X058455Y001768D01*
X060750Y001131D02*
X062600Y001131D01*
X062363Y001450D02*
X060987Y001450D01*
X061025Y001768D02*
X062325Y001768D01*
X062485Y002087D02*
X060865Y002087D01*
X055895Y002087D02*
X055895Y002087D01*
X051656Y001768D02*
X049694Y001768D01*
X049740Y001787D02*
X049536Y001702D01*
X049314Y001702D01*
X049110Y001787D01*
X048953Y001944D01*
X048869Y002147D01*
X048848Y002084D01*
X048816Y002020D01*
X048773Y001962D01*
X048723Y001911D01*
X048664Y001869D01*
X048600Y001836D01*
X048532Y001814D01*
X048461Y001802D01*
X048425Y001802D01*
X048425Y002556D01*
X048425Y002556D01*
X048425Y001802D01*
X048389Y001802D01*
X048318Y001814D01*
X048250Y001836D01*
X048186Y001869D01*
X048127Y001911D01*
X048077Y001962D01*
X048034Y002020D01*
X048002Y002084D01*
X047981Y002147D01*
X047897Y001944D01*
X047740Y001787D01*
X047536Y001702D01*
X047314Y001702D01*
X047110Y001787D01*
X046953Y001944D01*
X046868Y002148D01*
X046868Y002964D01*
X046953Y003168D01*
X047110Y003325D01*
X047314Y003410D01*
X047536Y003410D01*
X047740Y003325D01*
X047897Y003168D01*
X047981Y002965D01*
X048002Y003028D01*
X048034Y003092D01*
X048077Y003151D01*
X048127Y003201D01*
X048186Y003244D01*
X048250Y003276D01*
X048318Y003299D01*
X048389Y003310D01*
X048425Y003310D01*
X048425Y002556D01*
X048425Y002556D01*
X048425Y003310D01*
X048461Y003310D01*
X048532Y003299D01*
X048600Y003276D01*
X048664Y003244D01*
X048723Y003201D01*
X048773Y003151D01*
X048816Y003092D01*
X048848Y003028D01*
X048869Y002965D01*
X048953Y003168D01*
X049110Y003325D01*
X049314Y003410D01*
X049536Y003410D01*
X049740Y003325D01*
X049897Y003168D01*
X049982Y002964D01*
X049982Y002148D01*
X049897Y001944D01*
X049740Y001787D01*
X049956Y002087D02*
X051394Y002087D01*
X051368Y002405D02*
X049982Y002405D01*
X049982Y002724D02*
X051368Y002724D01*
X051401Y003042D02*
X049949Y003042D01*
X049655Y003361D02*
X051695Y003361D01*
X049195Y003361D02*
X047655Y003361D01*
X047949Y003042D02*
X048009Y003042D01*
X048425Y003042D02*
X048425Y003042D01*
X048425Y002724D02*
X048425Y002724D01*
X048425Y002405D02*
X048425Y002405D01*
X048425Y002087D02*
X048425Y002087D01*
X048849Y002087D02*
X048894Y002087D01*
X048001Y002087D02*
X047956Y002087D01*
X047694Y001768D02*
X049156Y001768D01*
X047156Y001768D02*
X045194Y001768D01*
X044656Y001768D02*
X043194Y001768D01*
X042656Y001768D02*
X040944Y001768D01*
X039251Y002087D02*
X037956Y002087D01*
X039675Y002724D02*
X039675Y002724D01*
X039675Y003042D02*
X039675Y003042D01*
X040091Y003042D02*
X040151Y003042D01*
X045155Y003361D02*
X047195Y003361D01*
X046901Y003042D02*
X045449Y003042D01*
X045482Y002724D02*
X046868Y002724D01*
X046868Y002405D02*
X045482Y002405D01*
X045456Y002087D02*
X046894Y002087D01*
X048841Y003042D02*
X048901Y003042D01*
X048175Y005590D02*
X048175Y005590D01*
X046155Y010368D02*
X041765Y010368D01*
X041765Y010686D02*
X046155Y010686D01*
X038905Y014190D02*
X038544Y014190D01*
X038695Y014508D02*
X038905Y014508D01*
X033651Y003042D02*
X033591Y003042D01*
X033175Y003042D02*
X033175Y003042D01*
X033175Y002724D02*
X033175Y002724D01*
X033175Y002405D02*
X033175Y002405D01*
X033175Y002087D02*
X033175Y002087D01*
X033599Y002087D02*
X033644Y002087D01*
X032751Y002087D02*
X031675Y002087D01*
X031675Y002405D02*
X032718Y002405D01*
X032718Y002724D02*
X031675Y002724D01*
X031675Y003042D02*
X032759Y003042D01*
X031675Y001768D02*
X033906Y001768D01*
X069515Y011005D02*
X070954Y011005D01*
X071336Y011005D02*
X071734Y011005D01*
X072116Y011005D02*
X074955Y011005D01*
X074955Y011323D02*
X072464Y011323D01*
X072515Y011642D02*
X074955Y011642D01*
X074955Y011960D02*
X072363Y011960D01*
X072335Y012279D02*
X074955Y012279D01*
X074955Y012597D02*
X072413Y012597D01*
X072263Y013871D02*
X070303Y013871D01*
X073830Y010049D02*
X074955Y010049D01*
X074955Y009731D02*
X073905Y009731D01*
X073866Y009412D02*
X074955Y009412D01*
X074955Y009094D02*
X073689Y009094D01*
D38*
X055925Y011556D02*
X055925Y011806D01*
X055925Y011556D02*
X054925Y010556D01*
X052175Y010556D01*
X051425Y009806D01*
X051425Y008306D01*
X050425Y008306D02*
X050425Y010556D01*
X051675Y011806D01*
X053925Y011806D01*
X047625Y012556D02*
X047425Y012731D01*
X047425Y014306D01*
X021675Y003431D02*
X016300Y003431D01*
X016225Y003506D01*
X016225Y004306D01*
X016175Y004256D01*
X016175Y003556D01*
X016050Y003431D01*
X015175Y003431D01*
X014998Y003608D01*
X014998Y004306D01*
X012550Y004306D01*
X012050Y004806D01*
X012050Y005306D01*
X014925Y005306D02*
X015352Y004879D01*
X015352Y004306D01*
X016625Y004306D02*
X016625Y005231D01*
X016550Y005306D01*
D39*
X017425Y023306D02*
X017425Y023471D01*
X017280Y023471D01*
X017280Y024697D01*
X017328Y024663D01*
X017416Y024617D01*
X017511Y024587D01*
X017609Y024571D01*
X017659Y024571D01*
X017659Y025556D01*
X017659Y025556D01*
X017659Y026541D01*
X017609Y026541D01*
X017511Y026526D01*
X017416Y026495D01*
X017328Y026450D01*
X017247Y026391D01*
X017177Y026321D01*
X017118Y026240D01*
X017117Y026237D01*
X017115Y026241D01*
X017081Y026282D01*
X017054Y026328D01*
X016986Y026396D01*
X016925Y026470D01*
X016881Y026501D01*
X016844Y026539D01*
X016761Y026587D01*
X016682Y026642D01*
X016632Y026661D01*
X016586Y026687D01*
X016493Y026712D01*
X016403Y026746D01*
X016350Y026751D01*
X016299Y026764D01*
X016203Y026764D01*
X016107Y026773D01*
X016054Y026764D01*
X016001Y026764D01*
X015908Y026739D01*
X015354Y026645D01*
X015084Y026521D01*
X014855Y026331D01*
X014683Y026088D01*
X014579Y025809D01*
X014552Y025513D01*
X014602Y025220D01*
X014726Y024949D01*
X014916Y024720D01*
X015020Y024646D01*
X015020Y023306D01*
X013135Y023306D01*
X013148Y023330D01*
X013188Y023426D01*
X013215Y023526D01*
X013229Y023629D01*
X013229Y023681D01*
X011925Y023681D01*
X010621Y023681D01*
X010621Y023629D01*
X010635Y023526D01*
X010662Y023426D01*
X010702Y023330D01*
X010715Y023306D01*
X009790Y023306D01*
X009790Y023533D01*
X009645Y023882D01*
X009378Y024150D01*
X009328Y024170D01*
X009378Y024191D01*
X009645Y024458D01*
X009790Y024808D01*
X009790Y025186D01*
X009645Y025536D01*
X009378Y025803D01*
X009328Y025824D01*
X009378Y025844D01*
X009645Y026112D01*
X009790Y026461D01*
X009790Y026840D01*
X009645Y027189D01*
X009378Y027457D01*
X009029Y027601D01*
X008650Y027601D01*
X008301Y027457D01*
X008033Y027189D01*
X007889Y026840D01*
X007889Y026461D01*
X008033Y026112D01*
X008301Y025844D01*
X008351Y025824D01*
X008301Y025803D01*
X008033Y025536D01*
X007889Y025186D01*
X007889Y024808D01*
X008033Y024458D01*
X008301Y024191D01*
X008351Y024170D01*
X008301Y024150D01*
X008033Y023882D01*
X007889Y023533D01*
X007889Y023306D01*
X007625Y023306D01*
X007625Y023533D01*
X007480Y023882D01*
X007213Y024150D01*
X007163Y024170D01*
X007213Y024191D01*
X007480Y024458D01*
X007625Y024808D01*
X007625Y025186D01*
X007480Y025536D01*
X007213Y025803D01*
X007163Y025824D01*
X007213Y025844D01*
X007480Y026112D01*
X007625Y026461D01*
X007625Y026840D01*
X007480Y027189D01*
X007244Y027425D01*
X007457Y027639D01*
X007627Y027933D01*
X007715Y028261D01*
X007715Y028591D01*
X011229Y028591D01*
X011008Y028464D01*
X010768Y028223D01*
X010598Y027929D01*
X010510Y027601D01*
X010510Y027261D01*
X010598Y026933D01*
X010768Y026639D01*
X011008Y026399D01*
X011302Y026229D01*
X011630Y026141D01*
X011970Y026141D01*
X012298Y026229D01*
X012592Y026399D01*
X012832Y026639D01*
X013002Y026933D01*
X013090Y027261D01*
X013090Y027601D01*
X013002Y027929D01*
X012832Y028223D01*
X012592Y028464D01*
X012371Y028591D01*
X019025Y028591D01*
X019025Y028556D01*
X019025Y028513D01*
X019036Y028429D01*
X019058Y028347D01*
X019091Y028268D01*
X019133Y028194D01*
X019185Y028127D01*
X019246Y028066D01*
X019313Y028014D01*
X019387Y027972D01*
X019466Y027939D01*
X019548Y027917D01*
X019632Y027906D01*
X019675Y027906D01*
X019718Y027906D01*
X019802Y027917D01*
X019884Y027939D01*
X019963Y027972D01*
X020037Y028014D01*
X020104Y028066D01*
X020165Y028127D01*
X020217Y028194D01*
X020259Y028268D01*
X020292Y028347D01*
X020314Y028429D01*
X020325Y028513D01*
X020325Y028556D01*
X019675Y028556D01*
X019675Y027906D01*
X019675Y028556D01*
X019675Y028556D01*
X019675Y028556D01*
X019025Y028556D01*
X019675Y028556D01*
X019675Y028556D01*
X020325Y028556D01*
X020325Y028591D01*
X025031Y028591D01*
X025036Y028554D01*
X025058Y028472D01*
X025091Y028393D01*
X025133Y028319D01*
X025185Y028252D01*
X025246Y028191D01*
X025313Y028139D01*
X025387Y028097D01*
X025466Y028064D01*
X025548Y028042D01*
X025632Y028031D01*
X025675Y028031D01*
X025718Y028031D01*
X025802Y028042D01*
X025884Y028064D01*
X025963Y028097D01*
X026037Y028139D01*
X026104Y028191D01*
X026165Y028252D01*
X026217Y028319D01*
X026259Y028393D01*
X026292Y028472D01*
X026314Y028554D01*
X026319Y028591D01*
X031031Y028591D01*
X031036Y028554D01*
X031058Y028472D01*
X031091Y028393D01*
X031133Y028319D01*
X031185Y028252D01*
X031246Y028191D01*
X031313Y028139D01*
X031387Y028097D01*
X031466Y028064D01*
X031548Y028042D01*
X031632Y028031D01*
X031675Y028031D01*
X031718Y028031D01*
X031802Y028042D01*
X031884Y028064D01*
X031963Y028097D01*
X032037Y028139D01*
X032104Y028191D01*
X032165Y028252D01*
X032217Y028319D01*
X032259Y028393D01*
X032292Y028472D01*
X032314Y028554D01*
X032319Y028591D01*
X073385Y028591D01*
X073385Y028261D01*
X073473Y027933D01*
X073643Y027639D01*
X073883Y027399D01*
X074177Y027229D01*
X074505Y027141D01*
X074835Y027141D01*
X074835Y023306D01*
X074033Y023306D01*
X074082Y023425D01*
X074082Y023687D01*
X074055Y023752D01*
X074055Y024033D01*
X074136Y024114D01*
X074255Y024401D01*
X074255Y024711D01*
X074136Y024998D01*
X073917Y025217D01*
X073630Y025336D01*
X073320Y025336D01*
X073033Y025217D01*
X072925Y025109D01*
X072817Y025217D01*
X072530Y025336D01*
X072220Y025336D01*
X072055Y025268D01*
X072055Y025762D01*
X072102Y025875D01*
X072102Y026738D01*
X071999Y026986D01*
X071808Y027177D01*
X071560Y027280D01*
X071290Y027280D01*
X071042Y027177D01*
X070925Y027060D01*
X070808Y027177D01*
X070560Y027280D01*
X070290Y027280D01*
X070042Y027177D01*
X069925Y027060D01*
X069808Y027177D01*
X069560Y027280D01*
X069290Y027280D01*
X069042Y027177D01*
X068925Y027060D01*
X068808Y027177D01*
X068560Y027280D01*
X068290Y027280D01*
X068042Y027177D01*
X067851Y026986D01*
X067748Y026738D01*
X067748Y025875D01*
X067795Y025762D01*
X067795Y025268D01*
X067630Y025336D01*
X067320Y025336D01*
X067033Y025217D01*
X066854Y025038D01*
X066824Y025068D01*
X066754Y025123D01*
X066676Y025167D01*
X066594Y025201D01*
X066508Y025224D01*
X066420Y025236D01*
X066375Y025236D01*
X066330Y025236D01*
X066242Y025224D01*
X066156Y025201D01*
X066074Y025167D01*
X065996Y025123D01*
X065926Y025068D01*
X065871Y025013D01*
X065667Y025217D01*
X065380Y025336D01*
X065070Y025336D01*
X064783Y025217D01*
X064675Y025109D01*
X064567Y025217D01*
X064280Y025336D01*
X063970Y025336D01*
X063805Y025268D01*
X063805Y025762D01*
X063852Y025875D01*
X063852Y026738D01*
X063749Y026986D01*
X063558Y027177D01*
X063310Y027280D01*
X063040Y027280D01*
X062792Y027177D01*
X062675Y027060D01*
X062558Y027177D01*
X062310Y027280D01*
X062040Y027280D01*
X061792Y027177D01*
X061675Y027060D01*
X061558Y027177D01*
X061310Y027280D01*
X061040Y027280D01*
X060792Y027177D01*
X060675Y027060D01*
X060558Y027177D01*
X060310Y027280D01*
X060040Y027280D01*
X059792Y027177D01*
X059601Y026986D01*
X059498Y026738D01*
X059498Y025875D01*
X059545Y025762D01*
X059545Y025268D01*
X059380Y025336D01*
X059070Y025336D01*
X058783Y025217D01*
X058604Y025038D01*
X058574Y025068D01*
X058504Y025123D01*
X058426Y025167D01*
X058344Y025201D01*
X058258Y025224D01*
X058170Y025236D01*
X058125Y025236D01*
X058080Y025236D01*
X057992Y025224D01*
X057906Y025201D01*
X057824Y025167D01*
X057746Y025123D01*
X057676Y025068D01*
X057621Y025013D01*
X057417Y025217D01*
X057130Y025336D01*
X056820Y025336D01*
X056533Y025217D01*
X056425Y025109D01*
X056317Y025217D01*
X056030Y025336D01*
X055720Y025336D01*
X055555Y025268D01*
X055555Y025762D01*
X055602Y025875D01*
X055602Y026738D01*
X055499Y026986D01*
X055308Y027177D01*
X055060Y027280D01*
X054790Y027280D01*
X054542Y027177D01*
X054425Y027060D01*
X054308Y027177D01*
X054060Y027280D01*
X053790Y027280D01*
X053542Y027177D01*
X053425Y027060D01*
X053308Y027177D01*
X053060Y027280D01*
X052790Y027280D01*
X052542Y027177D01*
X052425Y027060D01*
X052308Y027177D01*
X052060Y027280D01*
X051790Y027280D01*
X051542Y027177D01*
X051351Y026986D01*
X051248Y026738D01*
X051248Y025875D01*
X051295Y025762D01*
X051295Y025268D01*
X051130Y025336D01*
X050820Y025336D01*
X050533Y025217D01*
X050354Y025038D01*
X050324Y025068D01*
X050254Y025123D01*
X050176Y025167D01*
X050094Y025201D01*
X050008Y025224D01*
X049920Y025236D01*
X049875Y025236D01*
X049830Y025236D01*
X049742Y025224D01*
X049656Y025201D01*
X049574Y025167D01*
X049496Y025123D01*
X049426Y025068D01*
X049371Y025013D01*
X049167Y025217D01*
X048880Y025336D01*
X048570Y025336D01*
X048283Y025217D01*
X048175Y025109D01*
X048067Y025217D01*
X047780Y025336D01*
X047470Y025336D01*
X047305Y025268D01*
X047305Y025762D01*
X047352Y025875D01*
X047352Y026738D01*
X047249Y026986D01*
X047058Y027177D01*
X046810Y027280D01*
X046540Y027280D01*
X046292Y027177D01*
X046175Y027060D01*
X046058Y027177D01*
X045810Y027280D01*
X045540Y027280D01*
X045292Y027177D01*
X045175Y027060D01*
X045058Y027177D01*
X044810Y027280D01*
X044540Y027280D01*
X044292Y027177D01*
X044175Y027060D01*
X044058Y027177D01*
X043810Y027280D01*
X043540Y027280D01*
X043292Y027177D01*
X043101Y026986D01*
X042998Y026738D01*
X042998Y025875D01*
X043045Y025762D01*
X043045Y025268D01*
X042880Y025336D01*
X042570Y025336D01*
X042283Y025217D01*
X042104Y025038D01*
X042074Y025068D01*
X042004Y025123D01*
X041926Y025167D01*
X041844Y025201D01*
X041758Y025224D01*
X041670Y025236D01*
X041625Y025236D01*
X041580Y025236D01*
X041492Y025224D01*
X041406Y025201D01*
X041324Y025167D01*
X041246Y025123D01*
X041176Y025068D01*
X041121Y025013D01*
X040917Y025217D01*
X040630Y025336D01*
X040320Y025336D01*
X040033Y025217D01*
X039925Y025109D01*
X039817Y025217D01*
X039530Y025336D01*
X039220Y025336D01*
X039055Y025268D01*
X039055Y025762D01*
X039102Y025875D01*
X039102Y026738D01*
X038999Y026986D01*
X038808Y027177D01*
X038560Y027280D01*
X038290Y027280D01*
X038042Y027177D01*
X037925Y027060D01*
X037808Y027177D01*
X037560Y027280D01*
X037290Y027280D01*
X037042Y027177D01*
X036925Y027060D01*
X036808Y027177D01*
X036560Y027280D01*
X036290Y027280D01*
X036042Y027177D01*
X035925Y027060D01*
X035808Y027177D01*
X035560Y027280D01*
X035290Y027280D01*
X035042Y027177D01*
X034851Y026986D01*
X034748Y026738D01*
X034748Y025875D01*
X034795Y025762D01*
X034795Y025268D01*
X034630Y025336D01*
X034320Y025336D01*
X034033Y025217D01*
X033854Y025038D01*
X033824Y025068D01*
X033754Y025123D01*
X033676Y025167D01*
X033594Y025201D01*
X033508Y025224D01*
X033420Y025236D01*
X033375Y025236D01*
X033330Y025236D01*
X033242Y025224D01*
X033156Y025201D01*
X033074Y025167D01*
X032996Y025123D01*
X032926Y025068D01*
X032863Y025005D01*
X032808Y024935D01*
X032764Y024858D01*
X032730Y024775D01*
X032707Y024689D01*
X032695Y024601D01*
X032695Y024556D01*
X032695Y024512D01*
X032707Y024423D01*
X032730Y024337D01*
X032764Y024255D01*
X032808Y024178D01*
X032863Y024107D01*
X032926Y024044D01*
X032996Y023989D01*
X033043Y023962D01*
X033000Y023919D01*
X032948Y023848D01*
X032909Y023770D01*
X032882Y023687D01*
X032868Y023600D01*
X032868Y023556D01*
X032868Y023512D01*
X032882Y023426D01*
X032904Y023358D01*
X032690Y023571D01*
X032315Y023571D01*
X032315Y024071D01*
X032080Y024306D01*
X032315Y024541D01*
X032315Y025071D01*
X032220Y025166D01*
X032311Y025256D01*
X032425Y025532D01*
X032425Y025830D01*
X032311Y026106D01*
X032100Y026317D01*
X031824Y026431D01*
X031526Y026431D01*
X031250Y026317D01*
X031039Y026106D01*
X030925Y025830D01*
X030925Y025532D01*
X031039Y025256D01*
X031113Y025182D01*
X030692Y024761D01*
X030111Y024761D01*
X030142Y024792D01*
X030200Y024872D01*
X030245Y024961D01*
X030276Y025055D01*
X030292Y025154D01*
X030292Y025556D01*
X029659Y025556D01*
X029659Y026541D01*
X029609Y026541D01*
X029511Y026526D01*
X029416Y026495D01*
X029328Y026450D01*
X029247Y026391D01*
X029177Y026321D01*
X029118Y026240D01*
X029073Y026151D01*
X029042Y026057D01*
X029027Y025958D01*
X029027Y025576D01*
X028978Y025758D01*
X028829Y026016D01*
X028385Y026460D01*
X028127Y026609D01*
X027840Y026686D01*
X027542Y026686D01*
X027255Y026609D01*
X026997Y026460D01*
X026787Y026250D01*
X026638Y025992D01*
X026561Y025705D01*
X026561Y025407D01*
X026638Y025120D01*
X026787Y024862D01*
X026795Y024854D01*
X026795Y023466D01*
X026690Y023571D01*
X026315Y023571D01*
X026315Y024071D01*
X026080Y024306D01*
X026315Y024541D01*
X026315Y025071D01*
X026220Y025166D01*
X026311Y025256D01*
X026425Y025532D01*
X026425Y025830D01*
X026311Y026106D01*
X026100Y026317D01*
X025824Y026431D01*
X025526Y026431D01*
X025250Y026317D01*
X025039Y026106D01*
X024925Y025830D01*
X024925Y025532D01*
X025035Y025266D01*
X024958Y025266D01*
X024789Y025196D01*
X024342Y024749D01*
X024099Y024749D01*
X024142Y024792D01*
X024200Y024872D01*
X024245Y024961D01*
X024276Y025055D01*
X024292Y025154D01*
X024292Y025556D01*
X023659Y025556D01*
X023659Y026541D01*
X023609Y026541D01*
X023511Y026526D01*
X023416Y026495D01*
X023328Y026450D01*
X023247Y026391D01*
X023177Y026321D01*
X023118Y026240D01*
X023073Y026151D01*
X023042Y026057D01*
X023027Y025958D01*
X023027Y025818D01*
X022385Y026460D01*
X022127Y026609D01*
X021840Y026686D01*
X021542Y026686D01*
X021255Y026609D01*
X020997Y026460D01*
X020787Y026250D01*
X020638Y025992D01*
X020561Y025705D01*
X020561Y025407D01*
X020638Y025120D01*
X020787Y024862D01*
X021045Y024604D01*
X021045Y023306D01*
X020955Y023306D01*
X020690Y023571D01*
X020315Y023571D01*
X020315Y024071D01*
X020080Y024306D01*
X020315Y024541D01*
X020315Y025071D01*
X020283Y025103D01*
X020311Y025131D01*
X020425Y025407D01*
X020425Y025705D01*
X020311Y025981D01*
X020100Y026192D01*
X019824Y026306D01*
X019526Y026306D01*
X019250Y026192D01*
X019039Y025981D01*
X018925Y025705D01*
X018925Y025407D01*
X019039Y025131D01*
X019067Y025103D01*
X019035Y025071D01*
X019035Y024541D01*
X019270Y024306D01*
X019035Y024071D01*
X019035Y023541D01*
X019270Y023306D01*
X017814Y023306D01*
X017649Y023471D01*
X017425Y023471D01*
X017425Y023306D01*
X017425Y023306D01*
X017425Y023442D02*
X017425Y023442D01*
X017678Y023442D02*
X019134Y023442D01*
X019035Y024000D02*
X017280Y024000D01*
X017280Y024559D02*
X019035Y024559D01*
X018245Y024961D02*
X018276Y025055D01*
X018292Y025154D01*
X018292Y025556D01*
X017659Y025556D01*
X017659Y025556D01*
X017659Y024571D01*
X017709Y024571D01*
X017807Y024587D01*
X017902Y024617D01*
X017991Y024663D01*
X018071Y024721D01*
X018142Y024792D01*
X018200Y024872D01*
X018245Y024961D01*
X018286Y025117D02*
X019053Y025117D01*
X018292Y025556D02*
X018292Y025958D01*
X018276Y026057D01*
X018245Y026151D01*
X018200Y026240D01*
X018142Y026321D01*
X018071Y026391D01*
X017991Y026450D01*
X017902Y026495D01*
X017807Y026526D01*
X017709Y026541D01*
X017659Y026541D01*
X017659Y025556D01*
X017659Y025556D01*
X018292Y025556D01*
X018292Y025676D02*
X018925Y025676D01*
X019352Y026234D02*
X018203Y026234D01*
X017659Y026234D02*
X017659Y026234D01*
X017659Y025676D02*
X017659Y025676D01*
X017659Y025117D02*
X017659Y025117D01*
X015020Y024559D02*
X009687Y024559D01*
X010702Y024032D02*
X010753Y024122D01*
X010817Y024204D01*
X010890Y024278D01*
X010972Y024341D01*
X011062Y024393D01*
X011158Y024433D01*
X011258Y024459D01*
X011361Y024473D01*
X011925Y024473D01*
X011925Y023681D01*
X011925Y023681D01*
X011925Y023681D01*
X010621Y023681D01*
X010621Y023733D01*
X010635Y023836D01*
X010662Y023936D01*
X010702Y024032D01*
X010688Y024000D02*
X009528Y024000D01*
X009790Y023442D02*
X010658Y023442D01*
X011925Y023681D02*
X011925Y023681D01*
X013229Y023681D01*
X013229Y023733D01*
X013215Y023836D01*
X013188Y023936D01*
X013148Y024032D01*
X013097Y024122D01*
X013033Y024204D01*
X012960Y024278D01*
X012878Y024341D01*
X012788Y024393D01*
X012692Y024433D01*
X012592Y024459D01*
X012489Y024473D01*
X011925Y024473D01*
X011925Y023681D01*
X011925Y024000D02*
X011925Y024000D01*
X013162Y024000D02*
X015020Y024000D01*
X015020Y023442D02*
X013192Y023442D01*
X014649Y025117D02*
X009790Y025117D01*
X009506Y025676D02*
X014567Y025676D01*
X014786Y026234D02*
X012307Y026234D01*
X011293Y026234D02*
X009696Y026234D01*
X009790Y026793D02*
X010679Y026793D01*
X010510Y027351D02*
X009484Y027351D01*
X010592Y027910D02*
X007614Y027910D01*
X007715Y028468D02*
X011016Y028468D01*
X012584Y028468D02*
X019031Y028468D01*
X019675Y028468D02*
X019675Y028468D01*
X020319Y028468D02*
X025060Y028468D01*
X025675Y028468D02*
X025675Y028468D01*
X025675Y028591D02*
X025675Y028031D01*
X025675Y028591D01*
X025675Y028591D01*
X026290Y028468D02*
X031060Y028468D01*
X031675Y028468D02*
X031675Y028468D01*
X031675Y028591D02*
X031675Y028031D01*
X031675Y028591D01*
X031675Y028591D01*
X032290Y028468D02*
X073385Y028468D01*
X073486Y027910D02*
X019744Y027910D01*
X019675Y027910D02*
X019675Y027910D01*
X019606Y027910D02*
X013008Y027910D01*
X013090Y027351D02*
X073965Y027351D01*
X074835Y026793D02*
X072079Y026793D01*
X072102Y026234D02*
X074835Y026234D01*
X074835Y025676D02*
X072055Y025676D01*
X072917Y025117D02*
X072933Y025117D01*
X074017Y025117D02*
X074835Y025117D01*
X074835Y024559D02*
X074255Y024559D01*
X074055Y024000D02*
X074835Y024000D01*
X074835Y023442D02*
X074082Y023442D01*
X067795Y025676D02*
X063805Y025676D01*
X063852Y026234D02*
X067748Y026234D01*
X067771Y026793D02*
X063829Y026793D01*
X059521Y026793D02*
X055579Y026793D01*
X055602Y026234D02*
X059498Y026234D01*
X059545Y025676D02*
X055555Y025676D01*
X056417Y025117D02*
X056433Y025117D01*
X057517Y025117D02*
X057739Y025117D01*
X058125Y025117D02*
X058125Y025117D01*
X058125Y025236D02*
X058125Y024556D01*
X058125Y024556D01*
X058125Y025236D01*
X058511Y025117D02*
X058683Y025117D01*
X058125Y024559D02*
X058125Y024559D01*
X057621Y024099D02*
X057676Y024044D01*
X057746Y023989D01*
X057793Y023962D01*
X057750Y023919D01*
X057698Y023848D01*
X057659Y023770D01*
X057632Y023687D01*
X057618Y023600D01*
X057618Y023556D01*
X057618Y023512D01*
X057632Y023426D01*
X057659Y023342D01*
X057677Y023306D01*
X057533Y023306D01*
X057582Y023425D01*
X057582Y023687D01*
X057555Y023752D01*
X057555Y024033D01*
X057621Y024099D01*
X057555Y024000D02*
X057733Y024000D01*
X057618Y023556D02*
X058175Y023556D01*
X057618Y023556D01*
X057629Y023442D02*
X057582Y023442D01*
X058175Y023556D02*
X058175Y023556D01*
X064667Y025117D02*
X064683Y025117D01*
X065767Y025117D02*
X065989Y025117D01*
X066375Y025117D02*
X066375Y025117D01*
X066375Y025236D02*
X066375Y024556D01*
X066695Y024556D01*
X066695Y024556D01*
X066375Y024556D01*
X066375Y024556D01*
X066375Y024556D01*
X066375Y025236D01*
X066761Y025117D02*
X066933Y025117D01*
X066375Y024559D02*
X066375Y024559D01*
X065871Y024099D02*
X065926Y024044D01*
X065996Y023989D01*
X066043Y023962D01*
X066000Y023919D01*
X065948Y023848D01*
X065909Y023770D01*
X065882Y023687D01*
X065868Y023600D01*
X065868Y023556D01*
X065868Y023512D01*
X065882Y023426D01*
X065909Y023342D01*
X065927Y023306D01*
X065783Y023306D01*
X065832Y023425D01*
X065832Y023687D01*
X065805Y023752D01*
X065805Y024033D01*
X065871Y024099D01*
X065805Y024000D02*
X065983Y024000D01*
X065868Y023556D02*
X066425Y023556D01*
X066425Y023306D01*
X066425Y023556D01*
X066425Y023556D01*
X066425Y023556D01*
X066768Y023556D01*
X066768Y023556D01*
X066425Y023556D01*
X065868Y023556D01*
X065879Y023442D02*
X065832Y023442D01*
X066425Y023442D02*
X066425Y023442D01*
X066425Y023556D02*
X066425Y023556D01*
X066425Y023877D01*
X066425Y023877D01*
X066425Y023556D01*
X066425Y023556D01*
X066425Y023306D02*
X066425Y023306D01*
X051295Y025676D02*
X047305Y025676D01*
X047352Y026234D02*
X051248Y026234D01*
X051271Y026793D02*
X047329Y026793D01*
X048167Y025117D02*
X048183Y025117D01*
X049267Y025117D02*
X049489Y025117D01*
X049875Y025117D02*
X049875Y025117D01*
X049875Y025236D02*
X049875Y024556D01*
X050195Y024556D01*
X050195Y024556D01*
X049875Y024556D01*
X049875Y024556D01*
X049875Y024556D01*
X049875Y025236D01*
X050261Y025117D02*
X050433Y025117D01*
X049875Y024559D02*
X049875Y024559D01*
X049371Y024099D02*
X049426Y024044D01*
X049496Y023989D01*
X049543Y023962D01*
X049500Y023919D01*
X049448Y023848D01*
X049409Y023770D01*
X049382Y023687D01*
X049368Y023600D01*
X049368Y023556D01*
X049368Y023512D01*
X049382Y023426D01*
X049409Y023342D01*
X049427Y023306D01*
X049283Y023306D01*
X049332Y023425D01*
X049332Y023687D01*
X049305Y023752D01*
X049305Y024033D01*
X049371Y024099D01*
X049305Y024000D02*
X049483Y024000D01*
X049368Y023556D02*
X049925Y023556D01*
X049368Y023556D01*
X049379Y023442D02*
X049332Y023442D01*
X049925Y023556D02*
X049925Y023556D01*
X043045Y025676D02*
X039055Y025676D01*
X039102Y026234D02*
X042998Y026234D01*
X043021Y026793D02*
X039079Y026793D01*
X034771Y026793D02*
X012921Y026793D01*
X008195Y027351D02*
X007318Y027351D01*
X007625Y026793D02*
X007889Y026793D01*
X007983Y026234D02*
X007531Y026234D01*
X007340Y025676D02*
X008173Y025676D01*
X007889Y025117D02*
X007625Y025117D01*
X007522Y024559D02*
X007992Y024559D01*
X008151Y024000D02*
X007362Y024000D01*
X007625Y023442D02*
X007889Y023442D01*
X019998Y026234D02*
X020777Y026234D01*
X020561Y025676D02*
X020425Y025676D01*
X020297Y025117D02*
X020639Y025117D01*
X020315Y024559D02*
X021045Y024559D01*
X021045Y024000D02*
X020315Y024000D01*
X020820Y023442D02*
X021045Y023442D01*
X024286Y025117D02*
X024710Y025117D01*
X024292Y025556D02*
X024292Y025958D01*
X024276Y026057D01*
X024245Y026151D01*
X024200Y026240D01*
X024142Y026321D01*
X024071Y026391D01*
X023991Y026450D01*
X023902Y026495D01*
X023807Y026526D01*
X023709Y026541D01*
X023659Y026541D01*
X023659Y025556D01*
X023659Y025556D01*
X023659Y025556D01*
X024292Y025556D01*
X024292Y025676D02*
X024925Y025676D01*
X025167Y026234D02*
X024203Y026234D01*
X023659Y026234D02*
X023659Y026234D01*
X023115Y026234D02*
X022611Y026234D01*
X023659Y025676D02*
X023659Y025676D01*
X026183Y026234D02*
X026777Y026234D01*
X026561Y025676D02*
X026425Y025676D01*
X026269Y025117D02*
X026639Y025117D01*
X026795Y024559D02*
X026315Y024559D01*
X026315Y024000D02*
X026795Y024000D01*
X029659Y025556D02*
X029659Y025556D01*
X029659Y026541D01*
X029709Y026541D01*
X029807Y026526D01*
X029902Y026495D01*
X029991Y026450D01*
X030071Y026391D01*
X030142Y026321D01*
X030200Y026240D01*
X030245Y026151D01*
X030276Y026057D01*
X030292Y025958D01*
X030292Y025556D01*
X029659Y025556D01*
X029659Y025556D01*
X029659Y025676D02*
X029659Y025676D01*
X029027Y025676D02*
X029000Y025676D01*
X029115Y026234D02*
X028611Y026234D01*
X029659Y026234D02*
X029659Y026234D01*
X030203Y026234D02*
X031167Y026234D01*
X032183Y026234D02*
X034748Y026234D01*
X034795Y025676D02*
X032425Y025676D01*
X032269Y025117D02*
X032989Y025117D01*
X033375Y025117D02*
X033375Y025117D01*
X033375Y025236D02*
X033375Y024556D01*
X032695Y024556D01*
X033375Y024556D01*
X033375Y024556D01*
X033375Y024556D01*
X033375Y025236D01*
X033761Y025117D02*
X033933Y025117D01*
X033375Y024559D02*
X033375Y024559D01*
X032695Y024559D02*
X032315Y024559D01*
X032315Y024000D02*
X032983Y024000D01*
X032868Y023556D02*
X033425Y023556D01*
X032868Y023556D01*
X032879Y023442D02*
X032820Y023442D01*
X033425Y023556D02*
X033425Y023556D01*
X031048Y025117D02*
X030286Y025117D01*
X030292Y025676D02*
X030925Y025676D01*
X039917Y025117D02*
X039933Y025117D01*
X041017Y025117D02*
X041239Y025117D01*
X041625Y025117D02*
X041625Y025117D01*
X041625Y025236D02*
X041625Y024556D01*
X041945Y024556D01*
X041945Y024556D01*
X041625Y024556D01*
X041625Y024556D01*
X041625Y024556D01*
X041625Y025236D01*
X042011Y025117D02*
X042183Y025117D01*
X041625Y024559D02*
X041625Y024559D01*
X041121Y024099D02*
X041176Y024044D01*
X041246Y023989D01*
X041293Y023962D01*
X041250Y023919D01*
X041198Y023848D01*
X041159Y023770D01*
X041132Y023687D01*
X041118Y023600D01*
X041118Y023556D01*
X041118Y023512D01*
X041132Y023426D01*
X041159Y023342D01*
X041177Y023306D01*
X041033Y023306D01*
X041082Y023425D01*
X041082Y023687D01*
X041055Y023752D01*
X041055Y024033D01*
X041121Y024099D01*
X041055Y024000D02*
X041233Y024000D01*
X041118Y023556D02*
X041675Y023556D01*
X041118Y023556D01*
X041129Y023442D02*
X041082Y023442D01*
X041675Y023556D02*
X041675Y023556D01*
D40*
X027925Y022806D02*
X027925Y022306D01*
X027925Y021806D01*
X022175Y021806D02*
X022175Y022306D01*
X022175Y022806D01*
X016188Y022906D02*
X016175Y021806D01*
X016188Y022906D02*
X016150Y023119D01*
D41*
X016150Y025634D01*
X015691Y025556D01*
X021691Y025556D02*
X022175Y025072D01*
X022175Y022806D01*
X027925Y022806D02*
X027925Y024326D01*
X027925Y025322D01*
X027691Y025556D01*
M02*
