G75*
G70*
%OFA0B0*%
%FSLAX24Y24*%
%IPPOS*%
%LPD*%
%AMOC8*
5,1,8,0,0,1.08239X$1,22.5*
%
%ADD10R,0.0820X0.0820*%
%ADD11OC8,0.0820*%
%ADD12C,0.1300*%
%ADD13C,0.0680*%
%ADD14C,0.0600*%
%ADD15OC8,0.0600*%
%ADD16R,0.0674X0.0674*%
%ADD17R,0.1346X0.1346*%
%ADD18R,0.0680X0.0680*%
%ADD19C,0.0680*%
%ADD20C,0.1340*%
%ADD21C,0.0860*%
%ADD22C,0.0050*%
%ADD23R,0.2521X0.2363*%
%ADD24R,0.1261X0.0710*%
%ADD25R,0.1261X0.1143*%
%ADD26R,0.1123X0.0513*%
%ADD27R,0.1458X0.0631*%
%ADD28R,0.1458X0.0474*%
%ADD29R,0.1064X0.0631*%
%ADD30C,0.0710*%
%ADD31C,0.0513*%
%ADD32C,0.0820*%
%ADD33C,0.0674*%
%ADD34C,0.0820*%
%ADD35R,0.0476X0.0476*%
D10*
X033031Y011181D03*
D11*
X032031Y011181D03*
X031031Y011181D03*
X031031Y010181D03*
X032031Y010181D03*
X033031Y010181D03*
D12*
X008781Y001306D03*
X003906Y006181D03*
X011826Y008289D03*
X014451Y008314D03*
X026781Y014681D03*
X007531Y027431D03*
X002156Y028431D03*
X067426Y007826D03*
X070406Y007681D03*
X067413Y005814D03*
X063906Y001306D03*
X070406Y028431D03*
D13*
X058031Y015481D02*
X058031Y014881D01*
X057031Y014881D02*
X057031Y015481D01*
X056031Y015481D02*
X056031Y014881D01*
X053156Y006981D02*
X053156Y006381D01*
X052156Y006381D02*
X052156Y006981D01*
X051156Y006981D02*
X051156Y006381D01*
X050156Y006381D02*
X050156Y006981D01*
X041156Y006981D02*
X041156Y006381D01*
X040156Y006381D02*
X040156Y006981D01*
X023388Y020014D02*
X023388Y020614D01*
X022388Y020614D02*
X022388Y020014D01*
X021388Y020014D02*
X021388Y020614D01*
X020388Y020614D02*
X020388Y020014D01*
X019388Y020014D02*
X019388Y020614D01*
X018388Y020614D02*
X018388Y020014D01*
X017388Y020014D02*
X017388Y020614D01*
X016388Y020614D02*
X016388Y020014D01*
D14*
X016401Y021554D02*
X016401Y022074D01*
X017401Y022074D02*
X017401Y021554D01*
X018401Y021554D02*
X018401Y022074D01*
X019401Y022074D02*
X019401Y021554D01*
X020401Y021554D02*
X020401Y022074D01*
X021401Y022074D02*
X021401Y021554D01*
X022401Y021554D02*
X022401Y022074D01*
X023401Y022074D02*
X023401Y021554D01*
X015401Y021554D02*
X015401Y022074D01*
X014401Y022074D02*
X014401Y021554D01*
X013401Y021554D02*
X013401Y022074D01*
X012401Y022074D02*
X012401Y021554D01*
X011401Y021554D02*
X011401Y022074D01*
X010401Y022074D02*
X010401Y021554D01*
X010401Y024554D02*
X010401Y025074D01*
X011401Y025074D02*
X011401Y024554D01*
X012401Y024554D02*
X012401Y025074D01*
X013401Y025074D02*
X013401Y024554D01*
X014401Y024554D02*
X014401Y025074D01*
X015401Y025074D02*
X015401Y024554D01*
X016401Y024554D02*
X016401Y025074D01*
X017401Y025074D02*
X017401Y024554D01*
X018401Y024554D02*
X018401Y025074D01*
X019401Y025074D02*
X019401Y024554D01*
X020401Y024554D02*
X020401Y025074D01*
X021401Y025074D02*
X021401Y024554D01*
X022401Y024554D02*
X022401Y025074D01*
X023401Y025074D02*
X023401Y024554D01*
X020526Y015161D02*
X020526Y014641D01*
X019526Y014641D02*
X019526Y015161D01*
X018526Y015161D02*
X018526Y014641D01*
X017526Y014641D02*
X017526Y015161D01*
X016526Y015161D02*
X016526Y014641D01*
X015526Y014641D02*
X015526Y015161D01*
X014526Y015161D02*
X014526Y014641D01*
X013526Y014641D02*
X013526Y015161D01*
X013526Y012161D02*
X013526Y011641D01*
X014526Y011641D02*
X014526Y012161D01*
X015526Y012161D02*
X015526Y011641D01*
X016526Y011641D02*
X016526Y012161D01*
X017526Y012161D02*
X017526Y011641D01*
X018526Y011641D02*
X018526Y012161D01*
X019526Y012161D02*
X019526Y011641D01*
X020526Y011641D02*
X020526Y012161D01*
D15*
X024463Y021864D03*
X025463Y021876D03*
X026451Y021889D03*
X026451Y024889D03*
X025463Y024876D03*
X024463Y024864D03*
X014163Y026614D03*
X011163Y026614D03*
D16*
X058911Y012785D03*
X058911Y011801D03*
X058911Y010817D03*
X064619Y010817D03*
X064619Y012785D03*
D17*
X061863Y014203D03*
X061863Y009400D03*
D18*
X012050Y028401D03*
D19*
X013050Y028401D03*
X014050Y028401D03*
X015050Y028401D03*
X016050Y028401D03*
X017050Y028401D03*
X018050Y028401D03*
X019050Y028401D03*
X020050Y028401D03*
X021050Y028401D03*
X022050Y028401D03*
X023050Y028401D03*
X024050Y028401D03*
X025050Y028401D03*
X026050Y028401D03*
X027050Y028401D03*
D20*
X009098Y028401D03*
X045712Y028401D03*
X045712Y006748D03*
X009098Y006748D03*
D21*
X014561Y004101D02*
X015341Y004101D01*
X010951Y003491D02*
X010951Y002711D01*
X014561Y002101D02*
X015341Y002101D01*
D22*
X016398Y002419D02*
X016381Y002482D01*
X016374Y002548D01*
X016381Y002614D01*
X016399Y002678D01*
X016428Y002737D01*
X016466Y002791D01*
X016514Y002837D01*
X016569Y002874D01*
X016629Y002901D01*
X016693Y002917D01*
X016759Y002922D01*
X016831Y002914D01*
X016900Y002893D01*
X016963Y002858D01*
X017019Y002811D01*
X017064Y002755D01*
X017097Y002691D01*
X017118Y002621D01*
X017124Y002549D01*
X017119Y002485D01*
X017103Y002422D01*
X017077Y002363D01*
X017040Y002309D01*
X016995Y002263D01*
X016943Y002225D01*
X016885Y002197D01*
X016822Y002180D01*
X016758Y002173D01*
X016692Y002178D01*
X016628Y002194D01*
X016568Y002222D01*
X016513Y002259D01*
X016466Y002305D01*
X016427Y002359D01*
X016398Y002419D01*
X016402Y002411D02*
X017098Y002411D01*
X017113Y002459D02*
X016387Y002459D01*
X016378Y002508D02*
X017121Y002508D01*
X017123Y002556D02*
X016375Y002556D01*
X016380Y002605D02*
X017119Y002605D01*
X017108Y002653D02*
X016392Y002653D01*
X016410Y002702D02*
X017092Y002702D01*
X017066Y002750D02*
X016437Y002750D01*
X016475Y002799D02*
X017029Y002799D01*
X016976Y002847D02*
X016529Y002847D01*
X016617Y002896D02*
X016889Y002896D01*
X016822Y003282D02*
X016758Y003275D01*
X016692Y003280D01*
X016628Y003296D01*
X016568Y003324D01*
X016513Y003361D01*
X016466Y003407D01*
X016427Y003461D01*
X016398Y003521D01*
X016381Y003584D01*
X016374Y003650D01*
X016381Y003716D01*
X016399Y003780D01*
X016428Y003839D01*
X016466Y003893D01*
X016514Y003939D01*
X016569Y003976D01*
X016629Y004003D01*
X016693Y004019D01*
X016759Y004024D01*
X016831Y004016D01*
X016900Y003995D01*
X016963Y003960D01*
X017019Y003913D01*
X017064Y003857D01*
X017097Y003793D01*
X017118Y003723D01*
X017124Y003651D01*
X017119Y003587D01*
X017103Y003524D01*
X017077Y003465D01*
X017040Y003411D01*
X016995Y003365D01*
X016943Y003327D01*
X016885Y003299D01*
X016822Y003282D01*
X016830Y003284D02*
X016677Y003284D01*
X016555Y003332D02*
X016950Y003332D01*
X017011Y003381D02*
X016493Y003381D01*
X016450Y003429D02*
X017053Y003429D01*
X017083Y003478D02*
X016419Y003478D01*
X016397Y003526D02*
X017104Y003526D01*
X017116Y003575D02*
X016383Y003575D01*
X016377Y003623D02*
X017122Y003623D01*
X017122Y003672D02*
X016376Y003672D01*
X016382Y003720D02*
X017118Y003720D01*
X017104Y003769D02*
X016396Y003769D01*
X016417Y003817D02*
X017085Y003817D01*
X017057Y003866D02*
X016447Y003866D01*
X016489Y003914D02*
X017017Y003914D01*
X016958Y003963D02*
X016549Y003963D01*
X016661Y004011D02*
X016847Y004011D01*
X017076Y002362D02*
X016425Y002362D01*
X016459Y002314D02*
X017043Y002314D01*
X016997Y002265D02*
X016507Y002265D01*
X016578Y002217D02*
X016925Y002217D01*
X018159Y017470D02*
X018097Y017486D01*
X018038Y017513D01*
X017984Y017549D01*
X017938Y017594D01*
X017900Y017647D01*
X017872Y017705D01*
X017855Y017767D01*
X017848Y017832D01*
X017853Y017898D01*
X017869Y017962D01*
X017897Y018022D01*
X017934Y018077D01*
X017980Y018124D01*
X018034Y018163D01*
X018093Y018191D01*
X018157Y018209D01*
X018223Y018216D01*
X018289Y018209D01*
X018352Y018191D01*
X018412Y018162D01*
X018466Y018123D01*
X018512Y018076D01*
X018549Y018021D01*
X018576Y017961D01*
X018592Y017897D01*
X018597Y017831D01*
X018589Y017759D01*
X018567Y017690D01*
X018533Y017626D01*
X018486Y017571D01*
X018430Y017526D01*
X018366Y017492D01*
X018296Y017472D01*
X018224Y017466D01*
X018159Y017470D01*
X018079Y017494D02*
X018370Y017494D01*
X018451Y017543D02*
X017994Y017543D01*
X017941Y017591D02*
X018503Y017591D01*
X018540Y017640D02*
X017905Y017640D01*
X017880Y017688D02*
X018567Y017688D01*
X018582Y017737D02*
X017863Y017737D01*
X017853Y017785D02*
X018592Y017785D01*
X018597Y017834D02*
X017848Y017834D01*
X017852Y017882D02*
X018593Y017882D01*
X018584Y017931D02*
X017862Y017931D01*
X017877Y017979D02*
X018568Y017979D01*
X018544Y018028D02*
X017901Y018028D01*
X017934Y018076D02*
X018511Y018076D01*
X018463Y018125D02*
X017981Y018125D01*
X018057Y018173D02*
X018388Y018173D01*
X018971Y017962D02*
X018999Y018022D01*
X019036Y018077D01*
X019082Y018124D01*
X019136Y018163D01*
X019195Y018191D01*
X019259Y018209D01*
X019325Y018216D01*
X019391Y018209D01*
X019454Y018191D01*
X019514Y018162D01*
X019568Y018123D01*
X019614Y018076D01*
X019651Y018021D01*
X019678Y017961D01*
X019694Y017897D01*
X019699Y017831D01*
X019691Y017759D01*
X019669Y017690D01*
X019635Y017626D01*
X019588Y017571D01*
X019532Y017526D01*
X019468Y017492D01*
X019398Y017472D01*
X019326Y017466D01*
X019261Y017470D01*
X019199Y017486D01*
X019140Y017513D01*
X019086Y017549D01*
X019040Y017594D01*
X019002Y017647D01*
X018974Y017705D01*
X018957Y017767D01*
X018950Y017832D01*
X018955Y017898D01*
X018971Y017962D01*
X018979Y017979D02*
X019670Y017979D01*
X019686Y017931D02*
X018964Y017931D01*
X018954Y017882D02*
X019695Y017882D01*
X019699Y017834D02*
X018950Y017834D01*
X018955Y017785D02*
X019694Y017785D01*
X019684Y017737D02*
X018965Y017737D01*
X018982Y017688D02*
X019669Y017688D01*
X019642Y017640D02*
X019007Y017640D01*
X019043Y017591D02*
X019605Y017591D01*
X019553Y017543D02*
X019096Y017543D01*
X019181Y017494D02*
X019472Y017494D01*
X019646Y018028D02*
X019003Y018028D01*
X019036Y018076D02*
X019613Y018076D01*
X019565Y018125D02*
X019083Y018125D01*
X019159Y018173D02*
X019490Y018173D01*
X025318Y019332D02*
X025336Y019269D01*
X025365Y019209D01*
X025403Y019155D01*
X025450Y019109D01*
X025505Y019072D01*
X025565Y019044D01*
X025630Y019028D01*
X025695Y019023D01*
X025760Y019030D01*
X025822Y019047D01*
X025880Y019075D01*
X025933Y019113D01*
X025978Y019159D01*
X026014Y019213D01*
X026041Y019272D01*
X026057Y019335D01*
X026062Y019399D01*
X026055Y019471D01*
X026035Y019541D01*
X026002Y019605D01*
X025956Y019661D01*
X025901Y019708D01*
X025837Y019743D01*
X025768Y019764D01*
X025697Y019772D01*
X025631Y019767D01*
X025566Y019751D01*
X025506Y019724D01*
X025451Y019687D01*
X025404Y019641D01*
X025365Y019587D01*
X025336Y019528D01*
X025318Y019464D01*
X025311Y019398D01*
X025318Y019332D01*
X025318Y019337D02*
X026057Y019337D01*
X026061Y019386D02*
X025313Y019386D01*
X025315Y019434D02*
X026058Y019434D01*
X026052Y019483D02*
X025324Y019483D01*
X025338Y019531D02*
X026038Y019531D01*
X026015Y019580D02*
X025362Y019580D01*
X025395Y019628D02*
X025983Y019628D01*
X025938Y019677D02*
X025441Y019677D01*
X025509Y019725D02*
X025869Y019725D01*
X025760Y020132D02*
X025695Y020125D01*
X025630Y020130D01*
X025565Y020146D01*
X025505Y020174D01*
X025450Y020211D01*
X025403Y020257D01*
X025365Y020311D01*
X025336Y020371D01*
X025318Y020434D01*
X025311Y020500D01*
X025318Y020566D01*
X025336Y020630D01*
X025365Y020689D01*
X025404Y020743D01*
X025451Y020789D01*
X025506Y020826D01*
X025566Y020853D01*
X025631Y020869D01*
X025697Y020874D01*
X025768Y020866D01*
X025837Y020845D01*
X025901Y020810D01*
X025956Y020763D01*
X026002Y020707D01*
X026035Y020643D01*
X026055Y020573D01*
X026062Y020501D01*
X026057Y020437D01*
X026041Y020374D01*
X026014Y020315D01*
X025978Y020261D01*
X025933Y020215D01*
X025880Y020177D01*
X025822Y020149D01*
X025760Y020132D01*
X025848Y020162D02*
X025531Y020162D01*
X025451Y020210D02*
X025926Y020210D01*
X025975Y020259D02*
X025402Y020259D01*
X025367Y020307D02*
X026009Y020307D01*
X026033Y020356D02*
X025343Y020356D01*
X025326Y020404D02*
X026049Y020404D01*
X026058Y020453D02*
X025316Y020453D01*
X025312Y020501D02*
X026061Y020501D01*
X026057Y020550D02*
X025317Y020550D01*
X025327Y020598D02*
X026048Y020598D01*
X026033Y020647D02*
X025345Y020647D01*
X025370Y020695D02*
X026008Y020695D01*
X025972Y020744D02*
X025405Y020744D01*
X025456Y020792D02*
X025922Y020792D01*
X025844Y020841D02*
X025539Y020841D01*
X025330Y019289D02*
X026045Y019289D01*
X026027Y019240D02*
X025349Y019240D01*
X025377Y019192D02*
X026000Y019192D01*
X025962Y019143D02*
X025415Y019143D01*
X025471Y019095D02*
X025908Y019095D01*
X025819Y019046D02*
X025561Y019046D01*
X013874Y020293D02*
X013866Y020221D01*
X013844Y020152D01*
X013810Y020089D01*
X013763Y020033D01*
X013707Y019988D01*
X013643Y019955D01*
X013573Y019934D01*
X013501Y019928D01*
X013436Y019933D01*
X013374Y019949D01*
X013315Y019975D01*
X013261Y020012D01*
X013215Y020057D01*
X013177Y020109D01*
X013149Y020168D01*
X013132Y020230D01*
X013125Y020294D01*
X013130Y020360D01*
X013146Y020424D01*
X013174Y020484D01*
X013211Y020539D01*
X013257Y020586D01*
X013311Y020625D01*
X013370Y020654D01*
X013434Y020672D01*
X013500Y020678D01*
X013566Y020671D01*
X013629Y020653D01*
X013689Y020625D01*
X013743Y020586D01*
X013789Y020538D01*
X013826Y020484D01*
X013853Y020423D01*
X013869Y020359D01*
X013874Y020293D01*
X013873Y020307D02*
X013126Y020307D01*
X013129Y020259D02*
X013870Y020259D01*
X013863Y020210D02*
X013137Y020210D01*
X013152Y020162D02*
X013847Y020162D01*
X013823Y020113D02*
X013175Y020113D01*
X013209Y020065D02*
X013790Y020065D01*
X013742Y020016D02*
X013256Y020016D01*
X013331Y019968D02*
X013668Y019968D01*
X013869Y020356D02*
X013130Y020356D01*
X013141Y020404D02*
X013858Y020404D01*
X013840Y020453D02*
X013159Y020453D01*
X013185Y020501D02*
X013814Y020501D01*
X013777Y020550D02*
X013221Y020550D01*
X013274Y020598D02*
X013725Y020598D01*
X013643Y020647D02*
X013356Y020647D01*
X012751Y020423D02*
X012767Y020359D01*
X012772Y020293D01*
X012764Y020221D01*
X012742Y020152D01*
X012708Y020089D01*
X012661Y020033D01*
X012605Y019988D01*
X012541Y019955D01*
X012471Y019934D01*
X012399Y019928D01*
X012334Y019933D01*
X012272Y019949D01*
X012213Y019975D01*
X012159Y020012D01*
X012113Y020057D01*
X012075Y020109D01*
X012047Y020168D01*
X012030Y020230D01*
X012023Y020294D01*
X012028Y020360D01*
X012044Y020424D01*
X012072Y020484D01*
X012109Y020539D01*
X012155Y020586D01*
X012209Y020625D01*
X012268Y020654D01*
X012332Y020672D01*
X012398Y020678D01*
X012464Y020671D01*
X012527Y020653D01*
X012587Y020625D01*
X012641Y020586D01*
X012687Y020538D01*
X012724Y020484D01*
X012751Y020423D01*
X012756Y020404D02*
X012039Y020404D01*
X012028Y020356D02*
X012767Y020356D01*
X012771Y020307D02*
X012024Y020307D01*
X012027Y020259D02*
X012768Y020259D01*
X012761Y020210D02*
X012035Y020210D01*
X012050Y020162D02*
X012745Y020162D01*
X012721Y020113D02*
X012073Y020113D01*
X012107Y020065D02*
X012688Y020065D01*
X012640Y020016D02*
X012154Y020016D01*
X012229Y019968D02*
X012566Y019968D01*
X012738Y020453D02*
X012057Y020453D01*
X012083Y020501D02*
X012712Y020501D01*
X012675Y020550D02*
X012119Y020550D01*
X012172Y020598D02*
X012623Y020598D01*
X012541Y020647D02*
X012254Y020647D01*
D23*
X023550Y017826D03*
D24*
X020724Y016928D03*
X020724Y018724D03*
D25*
X003241Y020924D03*
X003241Y009861D03*
D26*
X004527Y011682D03*
X004527Y012321D03*
X004527Y013306D03*
X004527Y014290D03*
X004212Y015274D03*
X004212Y016258D03*
X004527Y017243D03*
X004724Y018227D03*
X003621Y019211D03*
D27*
X010958Y010097D03*
D28*
X010958Y010648D03*
D29*
X011155Y011318D03*
D30*
X004363Y020314D03*
D31*
X004363Y010550D03*
D32*
X018808Y003929D03*
X021368Y003929D03*
X021368Y002149D03*
X018808Y002149D03*
D33*
X023776Y004092D02*
X023776Y004685D01*
X024776Y004685D02*
X024776Y004092D01*
X025776Y004092D02*
X025776Y004685D01*
D34*
X038226Y014476D02*
X038226Y015216D01*
X039226Y015216D02*
X039226Y014476D01*
X040226Y014476D02*
X040226Y015216D01*
D35*
X036118Y016120D03*
X036726Y013151D03*
X032976Y013151D03*
X028851Y012151D03*
X023851Y013651D03*
X022101Y015526D03*
X015101Y017026D03*
X011351Y016651D03*
X010601Y016651D03*
X009976Y017401D03*
X010976Y017776D03*
X007876Y016864D03*
X006726Y017276D03*
X006101Y017776D03*
X007851Y015976D03*
X005476Y014651D03*
X011351Y015526D03*
X019351Y019151D03*
X026463Y018226D03*
X053101Y013026D03*
X054851Y008401D03*
X023851Y009401D03*
X017476Y006526D03*
M02*
