G75*
G70*
%OFA0B0*%
%FSLAX24Y24*%
%IPPOS*%
%LPD*%
%AMOC8*
5,1,8,0,0,1.08239X$1,22.5*
%
%ADD10C,0.0100*%
%ADD11C,0.0030*%
%ADD12R,0.0740X0.0740*%
%ADD13OC8,0.0740*%
%ADD14C,0.0000*%
%ADD15C,0.0600*%
%ADD16C,0.0520*%
%ADD17OC8,0.0520*%
%ADD18R,0.0594X0.0594*%
%ADD19R,0.1266X0.1266*%
%ADD20R,0.0600X0.0600*%
%ADD21C,0.0600*%
%ADD22C,0.0780*%
%ADD23C,0.0800*%
%ADD24C,0.0740*%
%ADD25C,0.0594*%
%ADD26C,0.0740*%
%ADD27R,0.0531X0.0591*%
%ADD28R,0.0394X0.0551*%
%ADD29R,0.0394X0.0512*%
%ADD30R,0.0591X0.0295*%
%ADD31C,0.0760*%
%ADD32C,0.1500*%
%ADD33OC8,0.0630*%
%ADD34C,0.0705*%
%ADD35R,0.2283X0.2441*%
%ADD36R,0.0630X0.1181*%
%ADD37R,0.0710X0.0630*%
%ADD38R,0.0630X0.0710*%
%ADD39C,0.0160*%
%ADD40R,0.0396X0.0396*%
%ADD41C,0.0400*%
%ADD42C,0.0120*%
%ADD43C,0.0396*%
D10*
X001600Y007439D02*
X008725Y000314D01*
X027312Y000314D01*
X027762Y000764D01*
X027762Y005114D01*
X028075Y005426D01*
X060487Y005426D01*
X060837Y005076D01*
X060837Y000564D01*
X061087Y000314D01*
X064862Y000314D01*
X071850Y007301D01*
X071862Y007301D02*
X071862Y009389D01*
X071854Y009631D01*
X071862Y009423D01*
X071849Y014528D01*
X071850Y014489D02*
X071837Y014476D01*
X071849Y017914D02*
X071849Y017927D01*
X070042Y017927D01*
X070300Y017926D02*
X028775Y017926D01*
X028757Y029436D01*
X028192Y029426D02*
X071852Y029426D01*
X071852Y007526D01*
X028192Y029426D02*
X027937Y029426D01*
X010125Y029426D01*
X001600Y029426D01*
X001600Y028739D01*
X001600Y007439D01*
X001615Y029421D02*
X001600Y029426D01*
D11*
X067317Y021890D02*
X067317Y021868D01*
X067339Y021846D01*
X067383Y021846D01*
X067404Y021824D01*
X067404Y021803D01*
X067383Y021781D01*
X067339Y021781D01*
X067317Y021803D01*
X067317Y021824D01*
X067339Y021846D01*
X067383Y021846D02*
X067404Y021868D01*
X067404Y021890D01*
X067383Y021911D01*
X067339Y021911D01*
X067317Y021890D01*
D12*
X033467Y011181D03*
D13*
X032467Y011181D03*
X031467Y011181D03*
X031467Y010181D03*
X032467Y010181D03*
X033467Y010181D03*
X057262Y027096D03*
X058262Y027096D03*
X059262Y027096D03*
X059262Y028096D03*
X058262Y028096D03*
X057262Y028096D03*
D14*
X045518Y028401D02*
X045520Y028451D01*
X045526Y028501D01*
X045536Y028550D01*
X045550Y028598D01*
X045567Y028645D01*
X045588Y028690D01*
X045613Y028734D01*
X045641Y028775D01*
X045673Y028814D01*
X045707Y028851D01*
X045744Y028885D01*
X045784Y028915D01*
X045826Y028942D01*
X045870Y028966D01*
X045916Y028987D01*
X045963Y029003D01*
X046011Y029016D01*
X046061Y029025D01*
X046110Y029030D01*
X046161Y029031D01*
X046211Y029028D01*
X046260Y029021D01*
X046309Y029010D01*
X046357Y028995D01*
X046403Y028977D01*
X046448Y028955D01*
X046491Y028929D01*
X046532Y028900D01*
X046571Y028868D01*
X046607Y028833D01*
X046639Y028795D01*
X046669Y028755D01*
X046696Y028712D01*
X046719Y028668D01*
X046738Y028622D01*
X046754Y028574D01*
X046766Y028525D01*
X046774Y028476D01*
X046778Y028426D01*
X046778Y028376D01*
X046774Y028326D01*
X046766Y028277D01*
X046754Y028228D01*
X046738Y028180D01*
X046719Y028134D01*
X046696Y028090D01*
X046669Y028047D01*
X046639Y028007D01*
X046607Y027969D01*
X046571Y027934D01*
X046532Y027902D01*
X046491Y027873D01*
X046448Y027847D01*
X046403Y027825D01*
X046357Y027807D01*
X046309Y027792D01*
X046260Y027781D01*
X046211Y027774D01*
X046161Y027771D01*
X046110Y027772D01*
X046061Y027777D01*
X046011Y027786D01*
X045963Y027799D01*
X045916Y027815D01*
X045870Y027836D01*
X045826Y027860D01*
X045784Y027887D01*
X045744Y027917D01*
X045707Y027951D01*
X045673Y027988D01*
X045641Y028027D01*
X045613Y028068D01*
X045588Y028112D01*
X045567Y028157D01*
X045550Y028204D01*
X045536Y028252D01*
X045526Y028301D01*
X045520Y028351D01*
X045518Y028401D01*
X044968Y023340D02*
X044970Y023390D01*
X044976Y023440D01*
X044986Y023490D01*
X044999Y023538D01*
X045016Y023586D01*
X045037Y023632D01*
X045061Y023676D01*
X045089Y023718D01*
X045120Y023758D01*
X045154Y023795D01*
X045191Y023830D01*
X045230Y023861D01*
X045271Y023890D01*
X045315Y023915D01*
X045361Y023937D01*
X045408Y023955D01*
X045456Y023969D01*
X045505Y023980D01*
X045555Y023987D01*
X045605Y023990D01*
X045656Y023989D01*
X045706Y023984D01*
X045756Y023975D01*
X045804Y023963D01*
X045852Y023946D01*
X045898Y023926D01*
X045943Y023903D01*
X045986Y023876D01*
X046026Y023846D01*
X046064Y023813D01*
X046099Y023777D01*
X046132Y023738D01*
X046161Y023697D01*
X046187Y023654D01*
X046210Y023609D01*
X046229Y023562D01*
X046244Y023514D01*
X046256Y023465D01*
X046264Y023415D01*
X046268Y023365D01*
X046268Y023315D01*
X046264Y023265D01*
X046256Y023215D01*
X046244Y023166D01*
X046229Y023118D01*
X046210Y023071D01*
X046187Y023026D01*
X046161Y022983D01*
X046132Y022942D01*
X046099Y022903D01*
X046064Y022867D01*
X046026Y022834D01*
X045986Y022804D01*
X045943Y022777D01*
X045898Y022754D01*
X045852Y022734D01*
X045804Y022717D01*
X045756Y022705D01*
X045706Y022696D01*
X045656Y022691D01*
X045605Y022690D01*
X045555Y022693D01*
X045505Y022700D01*
X045456Y022711D01*
X045408Y022725D01*
X045361Y022743D01*
X045315Y022765D01*
X045271Y022790D01*
X045230Y022819D01*
X045191Y022850D01*
X045154Y022885D01*
X045120Y022922D01*
X045089Y022962D01*
X045061Y023004D01*
X045037Y023048D01*
X045016Y023094D01*
X044999Y023142D01*
X044986Y023190D01*
X044976Y023240D01*
X044970Y023290D01*
X044968Y023340D01*
X026607Y014681D02*
X026609Y014730D01*
X026615Y014779D01*
X026625Y014827D01*
X026638Y014874D01*
X026656Y014920D01*
X026677Y014964D01*
X026701Y015007D01*
X026729Y015047D01*
X026760Y015086D01*
X026794Y015121D01*
X026831Y015154D01*
X026870Y015183D01*
X026912Y015209D01*
X026955Y015232D01*
X027001Y015251D01*
X027047Y015267D01*
X027095Y015279D01*
X027143Y015287D01*
X027192Y015291D01*
X027242Y015291D01*
X027291Y015287D01*
X027339Y015279D01*
X027387Y015267D01*
X027433Y015251D01*
X027479Y015232D01*
X027522Y015209D01*
X027564Y015183D01*
X027603Y015154D01*
X027640Y015121D01*
X027674Y015086D01*
X027705Y015047D01*
X027733Y015007D01*
X027757Y014964D01*
X027778Y014920D01*
X027796Y014874D01*
X027809Y014827D01*
X027819Y014779D01*
X027825Y014730D01*
X027827Y014681D01*
X027825Y014632D01*
X027819Y014583D01*
X027809Y014535D01*
X027796Y014488D01*
X027778Y014442D01*
X027757Y014398D01*
X027733Y014355D01*
X027705Y014315D01*
X027674Y014276D01*
X027640Y014241D01*
X027603Y014208D01*
X027564Y014179D01*
X027522Y014153D01*
X027479Y014130D01*
X027433Y014111D01*
X027387Y014095D01*
X027339Y014083D01*
X027291Y014075D01*
X027242Y014071D01*
X027192Y014071D01*
X027143Y014075D01*
X027095Y014083D01*
X027047Y014095D01*
X027001Y014111D01*
X026955Y014130D01*
X026912Y014153D01*
X026870Y014179D01*
X026831Y014208D01*
X026794Y014241D01*
X026760Y014276D01*
X026729Y014315D01*
X026701Y014355D01*
X026677Y014398D01*
X026656Y014442D01*
X026638Y014488D01*
X026625Y014535D01*
X026615Y014583D01*
X026609Y014632D01*
X026607Y014681D01*
X014277Y008314D02*
X014279Y008363D01*
X014285Y008412D01*
X014295Y008460D01*
X014308Y008507D01*
X014326Y008553D01*
X014347Y008597D01*
X014371Y008640D01*
X014399Y008680D01*
X014430Y008719D01*
X014464Y008754D01*
X014501Y008787D01*
X014540Y008816D01*
X014582Y008842D01*
X014625Y008865D01*
X014671Y008884D01*
X014717Y008900D01*
X014765Y008912D01*
X014813Y008920D01*
X014862Y008924D01*
X014912Y008924D01*
X014961Y008920D01*
X015009Y008912D01*
X015057Y008900D01*
X015103Y008884D01*
X015149Y008865D01*
X015192Y008842D01*
X015234Y008816D01*
X015273Y008787D01*
X015310Y008754D01*
X015344Y008719D01*
X015375Y008680D01*
X015403Y008640D01*
X015427Y008597D01*
X015448Y008553D01*
X015466Y008507D01*
X015479Y008460D01*
X015489Y008412D01*
X015495Y008363D01*
X015497Y008314D01*
X015495Y008265D01*
X015489Y008216D01*
X015479Y008168D01*
X015466Y008121D01*
X015448Y008075D01*
X015427Y008031D01*
X015403Y007988D01*
X015375Y007948D01*
X015344Y007909D01*
X015310Y007874D01*
X015273Y007841D01*
X015234Y007812D01*
X015192Y007786D01*
X015149Y007763D01*
X015103Y007744D01*
X015057Y007728D01*
X015009Y007716D01*
X014961Y007708D01*
X014912Y007704D01*
X014862Y007704D01*
X014813Y007708D01*
X014765Y007716D01*
X014717Y007728D01*
X014671Y007744D01*
X014625Y007763D01*
X014582Y007786D01*
X014540Y007812D01*
X014501Y007841D01*
X014464Y007874D01*
X014430Y007909D01*
X014399Y007948D01*
X014371Y007988D01*
X014347Y008031D01*
X014326Y008075D01*
X014308Y008121D01*
X014295Y008168D01*
X014285Y008216D01*
X014279Y008265D01*
X014277Y008314D01*
X011652Y008289D02*
X011654Y008338D01*
X011660Y008387D01*
X011670Y008435D01*
X011683Y008482D01*
X011701Y008528D01*
X011722Y008572D01*
X011746Y008615D01*
X011774Y008655D01*
X011805Y008694D01*
X011839Y008729D01*
X011876Y008762D01*
X011915Y008791D01*
X011957Y008817D01*
X012000Y008840D01*
X012046Y008859D01*
X012092Y008875D01*
X012140Y008887D01*
X012188Y008895D01*
X012237Y008899D01*
X012287Y008899D01*
X012336Y008895D01*
X012384Y008887D01*
X012432Y008875D01*
X012478Y008859D01*
X012524Y008840D01*
X012567Y008817D01*
X012609Y008791D01*
X012648Y008762D01*
X012685Y008729D01*
X012719Y008694D01*
X012750Y008655D01*
X012778Y008615D01*
X012802Y008572D01*
X012823Y008528D01*
X012841Y008482D01*
X012854Y008435D01*
X012864Y008387D01*
X012870Y008338D01*
X012872Y008289D01*
X012870Y008240D01*
X012864Y008191D01*
X012854Y008143D01*
X012841Y008096D01*
X012823Y008050D01*
X012802Y008006D01*
X012778Y007963D01*
X012750Y007923D01*
X012719Y007884D01*
X012685Y007849D01*
X012648Y007816D01*
X012609Y007787D01*
X012567Y007761D01*
X012524Y007738D01*
X012478Y007719D01*
X012432Y007703D01*
X012384Y007691D01*
X012336Y007683D01*
X012287Y007679D01*
X012237Y007679D01*
X012188Y007683D01*
X012140Y007691D01*
X012092Y007703D01*
X012046Y007719D01*
X012000Y007738D01*
X011957Y007761D01*
X011915Y007787D01*
X011876Y007816D01*
X011839Y007849D01*
X011805Y007884D01*
X011774Y007923D01*
X011746Y007963D01*
X011722Y008006D01*
X011701Y008050D01*
X011683Y008096D01*
X011670Y008143D01*
X011660Y008191D01*
X011654Y008240D01*
X011652Y008289D01*
X008904Y006748D02*
X008906Y006798D01*
X008912Y006848D01*
X008922Y006897D01*
X008936Y006945D01*
X008953Y006992D01*
X008974Y007037D01*
X008999Y007081D01*
X009027Y007122D01*
X009059Y007161D01*
X009093Y007198D01*
X009130Y007232D01*
X009170Y007262D01*
X009212Y007289D01*
X009256Y007313D01*
X009302Y007334D01*
X009349Y007350D01*
X009397Y007363D01*
X009447Y007372D01*
X009496Y007377D01*
X009547Y007378D01*
X009597Y007375D01*
X009646Y007368D01*
X009695Y007357D01*
X009743Y007342D01*
X009789Y007324D01*
X009834Y007302D01*
X009877Y007276D01*
X009918Y007247D01*
X009957Y007215D01*
X009993Y007180D01*
X010025Y007142D01*
X010055Y007102D01*
X010082Y007059D01*
X010105Y007015D01*
X010124Y006969D01*
X010140Y006921D01*
X010152Y006872D01*
X010160Y006823D01*
X010164Y006773D01*
X010164Y006723D01*
X010160Y006673D01*
X010152Y006624D01*
X010140Y006575D01*
X010124Y006527D01*
X010105Y006481D01*
X010082Y006437D01*
X010055Y006394D01*
X010025Y006354D01*
X009993Y006316D01*
X009957Y006281D01*
X009918Y006249D01*
X009877Y006220D01*
X009834Y006194D01*
X009789Y006172D01*
X009743Y006154D01*
X009695Y006139D01*
X009646Y006128D01*
X009597Y006121D01*
X009547Y006118D01*
X009496Y006119D01*
X009447Y006124D01*
X009397Y006133D01*
X009349Y006146D01*
X009302Y006162D01*
X009256Y006183D01*
X009212Y006207D01*
X009170Y006234D01*
X009130Y006264D01*
X009093Y006298D01*
X009059Y006335D01*
X009027Y006374D01*
X008999Y006415D01*
X008974Y006459D01*
X008953Y006504D01*
X008936Y006551D01*
X008922Y006599D01*
X008912Y006648D01*
X008906Y006698D01*
X008904Y006748D01*
X003732Y006181D02*
X003734Y006230D01*
X003740Y006279D01*
X003750Y006327D01*
X003763Y006374D01*
X003781Y006420D01*
X003802Y006464D01*
X003826Y006507D01*
X003854Y006547D01*
X003885Y006586D01*
X003919Y006621D01*
X003956Y006654D01*
X003995Y006683D01*
X004037Y006709D01*
X004080Y006732D01*
X004126Y006751D01*
X004172Y006767D01*
X004220Y006779D01*
X004268Y006787D01*
X004317Y006791D01*
X004367Y006791D01*
X004416Y006787D01*
X004464Y006779D01*
X004512Y006767D01*
X004558Y006751D01*
X004604Y006732D01*
X004647Y006709D01*
X004689Y006683D01*
X004728Y006654D01*
X004765Y006621D01*
X004799Y006586D01*
X004830Y006547D01*
X004858Y006507D01*
X004882Y006464D01*
X004903Y006420D01*
X004921Y006374D01*
X004934Y006327D01*
X004944Y006279D01*
X004950Y006230D01*
X004952Y006181D01*
X004950Y006132D01*
X004944Y006083D01*
X004934Y006035D01*
X004921Y005988D01*
X004903Y005942D01*
X004882Y005898D01*
X004858Y005855D01*
X004830Y005815D01*
X004799Y005776D01*
X004765Y005741D01*
X004728Y005708D01*
X004689Y005679D01*
X004647Y005653D01*
X004604Y005630D01*
X004558Y005611D01*
X004512Y005595D01*
X004464Y005583D01*
X004416Y005575D01*
X004367Y005571D01*
X004317Y005571D01*
X004268Y005575D01*
X004220Y005583D01*
X004172Y005595D01*
X004126Y005611D01*
X004080Y005630D01*
X004037Y005653D01*
X003995Y005679D01*
X003956Y005708D01*
X003919Y005741D01*
X003885Y005776D01*
X003854Y005815D01*
X003826Y005855D01*
X003802Y005898D01*
X003781Y005942D01*
X003763Y005988D01*
X003750Y006035D01*
X003740Y006083D01*
X003734Y006132D01*
X003732Y006181D01*
X008607Y001306D02*
X008609Y001355D01*
X008615Y001404D01*
X008625Y001452D01*
X008638Y001499D01*
X008656Y001545D01*
X008677Y001589D01*
X008701Y001632D01*
X008729Y001672D01*
X008760Y001711D01*
X008794Y001746D01*
X008831Y001779D01*
X008870Y001808D01*
X008912Y001834D01*
X008955Y001857D01*
X009001Y001876D01*
X009047Y001892D01*
X009095Y001904D01*
X009143Y001912D01*
X009192Y001916D01*
X009242Y001916D01*
X009291Y001912D01*
X009339Y001904D01*
X009387Y001892D01*
X009433Y001876D01*
X009479Y001857D01*
X009522Y001834D01*
X009564Y001808D01*
X009603Y001779D01*
X009640Y001746D01*
X009674Y001711D01*
X009705Y001672D01*
X009733Y001632D01*
X009757Y001589D01*
X009778Y001545D01*
X009796Y001499D01*
X009809Y001452D01*
X009819Y001404D01*
X009825Y001355D01*
X009827Y001306D01*
X009825Y001257D01*
X009819Y001208D01*
X009809Y001160D01*
X009796Y001113D01*
X009778Y001067D01*
X009757Y001023D01*
X009733Y000980D01*
X009705Y000940D01*
X009674Y000901D01*
X009640Y000866D01*
X009603Y000833D01*
X009564Y000804D01*
X009522Y000778D01*
X009479Y000755D01*
X009433Y000736D01*
X009387Y000720D01*
X009339Y000708D01*
X009291Y000700D01*
X009242Y000696D01*
X009192Y000696D01*
X009143Y000700D01*
X009095Y000708D01*
X009047Y000720D01*
X009001Y000736D01*
X008955Y000755D01*
X008912Y000778D01*
X008870Y000804D01*
X008831Y000833D01*
X008794Y000866D01*
X008760Y000901D01*
X008729Y000940D01*
X008701Y000980D01*
X008677Y001023D01*
X008656Y001067D01*
X008638Y001113D01*
X008625Y001160D01*
X008615Y001208D01*
X008609Y001257D01*
X008607Y001306D01*
X006070Y013645D02*
X006072Y013680D01*
X006078Y013715D01*
X006088Y013749D01*
X006101Y013782D01*
X006118Y013813D01*
X006139Y013841D01*
X006162Y013868D01*
X006189Y013891D01*
X006217Y013912D01*
X006248Y013929D01*
X006281Y013942D01*
X006315Y013952D01*
X006350Y013958D01*
X006385Y013960D01*
X006420Y013958D01*
X006455Y013952D01*
X006489Y013942D01*
X006522Y013929D01*
X006553Y013912D01*
X006581Y013891D01*
X006608Y013868D01*
X006631Y013841D01*
X006652Y013813D01*
X006669Y013782D01*
X006682Y013749D01*
X006692Y013715D01*
X006698Y013680D01*
X006700Y013645D01*
X006698Y013610D01*
X006692Y013575D01*
X006682Y013541D01*
X006669Y013508D01*
X006652Y013477D01*
X006631Y013449D01*
X006608Y013422D01*
X006581Y013399D01*
X006553Y013378D01*
X006522Y013361D01*
X006489Y013348D01*
X006455Y013338D01*
X006420Y013332D01*
X006385Y013330D01*
X006350Y013332D01*
X006315Y013338D01*
X006281Y013348D01*
X006248Y013361D01*
X006217Y013378D01*
X006189Y013399D01*
X006162Y013422D01*
X006139Y013449D01*
X006118Y013477D01*
X006101Y013508D01*
X006088Y013541D01*
X006078Y013575D01*
X006072Y013610D01*
X006070Y013645D01*
X006070Y017582D02*
X006072Y017617D01*
X006078Y017652D01*
X006088Y017686D01*
X006101Y017719D01*
X006118Y017750D01*
X006139Y017778D01*
X006162Y017805D01*
X006189Y017828D01*
X006217Y017849D01*
X006248Y017866D01*
X006281Y017879D01*
X006315Y017889D01*
X006350Y017895D01*
X006385Y017897D01*
X006420Y017895D01*
X006455Y017889D01*
X006489Y017879D01*
X006522Y017866D01*
X006553Y017849D01*
X006581Y017828D01*
X006608Y017805D01*
X006631Y017778D01*
X006652Y017750D01*
X006669Y017719D01*
X006682Y017686D01*
X006692Y017652D01*
X006698Y017617D01*
X006700Y017582D01*
X006698Y017547D01*
X006692Y017512D01*
X006682Y017478D01*
X006669Y017445D01*
X006652Y017414D01*
X006631Y017386D01*
X006608Y017359D01*
X006581Y017336D01*
X006553Y017315D01*
X006522Y017298D01*
X006489Y017285D01*
X006455Y017275D01*
X006420Y017269D01*
X006385Y017267D01*
X006350Y017269D01*
X006315Y017275D01*
X006281Y017285D01*
X006248Y017298D01*
X006217Y017315D01*
X006189Y017336D01*
X006162Y017359D01*
X006139Y017386D01*
X006118Y017414D01*
X006101Y017445D01*
X006088Y017478D01*
X006078Y017512D01*
X006072Y017547D01*
X006070Y017582D01*
X007357Y027431D02*
X007359Y027480D01*
X007365Y027529D01*
X007375Y027577D01*
X007388Y027624D01*
X007406Y027670D01*
X007427Y027714D01*
X007451Y027757D01*
X007479Y027797D01*
X007510Y027836D01*
X007544Y027871D01*
X007581Y027904D01*
X007620Y027933D01*
X007662Y027959D01*
X007705Y027982D01*
X007751Y028001D01*
X007797Y028017D01*
X007845Y028029D01*
X007893Y028037D01*
X007942Y028041D01*
X007992Y028041D01*
X008041Y028037D01*
X008089Y028029D01*
X008137Y028017D01*
X008183Y028001D01*
X008229Y027982D01*
X008272Y027959D01*
X008314Y027933D01*
X008353Y027904D01*
X008390Y027871D01*
X008424Y027836D01*
X008455Y027797D01*
X008483Y027757D01*
X008507Y027714D01*
X008528Y027670D01*
X008546Y027624D01*
X008559Y027577D01*
X008569Y027529D01*
X008575Y027480D01*
X008577Y027431D01*
X008575Y027382D01*
X008569Y027333D01*
X008559Y027285D01*
X008546Y027238D01*
X008528Y027192D01*
X008507Y027148D01*
X008483Y027105D01*
X008455Y027065D01*
X008424Y027026D01*
X008390Y026991D01*
X008353Y026958D01*
X008314Y026929D01*
X008272Y026903D01*
X008229Y026880D01*
X008183Y026861D01*
X008137Y026845D01*
X008089Y026833D01*
X008041Y026825D01*
X007992Y026821D01*
X007942Y026821D01*
X007893Y026825D01*
X007845Y026833D01*
X007797Y026845D01*
X007751Y026861D01*
X007705Y026880D01*
X007662Y026903D01*
X007620Y026929D01*
X007581Y026958D01*
X007544Y026991D01*
X007510Y027026D01*
X007479Y027065D01*
X007451Y027105D01*
X007427Y027148D01*
X007406Y027192D01*
X007388Y027238D01*
X007375Y027285D01*
X007365Y027333D01*
X007359Y027382D01*
X007357Y027431D01*
X008904Y028401D02*
X008906Y028451D01*
X008912Y028501D01*
X008922Y028550D01*
X008936Y028598D01*
X008953Y028645D01*
X008974Y028690D01*
X008999Y028734D01*
X009027Y028775D01*
X009059Y028814D01*
X009093Y028851D01*
X009130Y028885D01*
X009170Y028915D01*
X009212Y028942D01*
X009256Y028966D01*
X009302Y028987D01*
X009349Y029003D01*
X009397Y029016D01*
X009447Y029025D01*
X009496Y029030D01*
X009547Y029031D01*
X009597Y029028D01*
X009646Y029021D01*
X009695Y029010D01*
X009743Y028995D01*
X009789Y028977D01*
X009834Y028955D01*
X009877Y028929D01*
X009918Y028900D01*
X009957Y028868D01*
X009993Y028833D01*
X010025Y028795D01*
X010055Y028755D01*
X010082Y028712D01*
X010105Y028668D01*
X010124Y028622D01*
X010140Y028574D01*
X010152Y028525D01*
X010160Y028476D01*
X010164Y028426D01*
X010164Y028376D01*
X010160Y028326D01*
X010152Y028277D01*
X010140Y028228D01*
X010124Y028180D01*
X010105Y028134D01*
X010082Y028090D01*
X010055Y028047D01*
X010025Y028007D01*
X009993Y027969D01*
X009957Y027934D01*
X009918Y027902D01*
X009877Y027873D01*
X009834Y027847D01*
X009789Y027825D01*
X009743Y027807D01*
X009695Y027792D01*
X009646Y027781D01*
X009597Y027774D01*
X009547Y027771D01*
X009496Y027772D01*
X009447Y027777D01*
X009397Y027786D01*
X009349Y027799D01*
X009302Y027815D01*
X009256Y027836D01*
X009212Y027860D01*
X009170Y027887D01*
X009130Y027917D01*
X009093Y027951D01*
X009059Y027988D01*
X009027Y028027D01*
X008999Y028068D01*
X008974Y028112D01*
X008953Y028157D01*
X008936Y028204D01*
X008922Y028252D01*
X008912Y028301D01*
X008906Y028351D01*
X008904Y028401D01*
X001982Y028431D02*
X001984Y028480D01*
X001990Y028529D01*
X002000Y028577D01*
X002013Y028624D01*
X002031Y028670D01*
X002052Y028714D01*
X002076Y028757D01*
X002104Y028797D01*
X002135Y028836D01*
X002169Y028871D01*
X002206Y028904D01*
X002245Y028933D01*
X002287Y028959D01*
X002330Y028982D01*
X002376Y029001D01*
X002422Y029017D01*
X002470Y029029D01*
X002518Y029037D01*
X002567Y029041D01*
X002617Y029041D01*
X002666Y029037D01*
X002714Y029029D01*
X002762Y029017D01*
X002808Y029001D01*
X002854Y028982D01*
X002897Y028959D01*
X002939Y028933D01*
X002978Y028904D01*
X003015Y028871D01*
X003049Y028836D01*
X003080Y028797D01*
X003108Y028757D01*
X003132Y028714D01*
X003153Y028670D01*
X003171Y028624D01*
X003184Y028577D01*
X003194Y028529D01*
X003200Y028480D01*
X003202Y028431D01*
X003200Y028382D01*
X003194Y028333D01*
X003184Y028285D01*
X003171Y028238D01*
X003153Y028192D01*
X003132Y028148D01*
X003108Y028105D01*
X003080Y028065D01*
X003049Y028026D01*
X003015Y027991D01*
X002978Y027958D01*
X002939Y027929D01*
X002897Y027903D01*
X002854Y027880D01*
X002808Y027861D01*
X002762Y027845D01*
X002714Y027833D01*
X002666Y027825D01*
X002617Y027821D01*
X002567Y027821D01*
X002518Y027825D01*
X002470Y027833D01*
X002422Y027845D01*
X002376Y027861D01*
X002330Y027880D01*
X002287Y027903D01*
X002245Y027929D01*
X002206Y027958D01*
X002169Y027991D01*
X002135Y028026D01*
X002104Y028065D01*
X002076Y028105D01*
X002052Y028148D01*
X002031Y028192D01*
X002013Y028238D01*
X002000Y028285D01*
X001990Y028333D01*
X001984Y028382D01*
X001982Y028431D01*
X045518Y006748D02*
X045520Y006798D01*
X045526Y006848D01*
X045536Y006897D01*
X045550Y006945D01*
X045567Y006992D01*
X045588Y007037D01*
X045613Y007081D01*
X045641Y007122D01*
X045673Y007161D01*
X045707Y007198D01*
X045744Y007232D01*
X045784Y007262D01*
X045826Y007289D01*
X045870Y007313D01*
X045916Y007334D01*
X045963Y007350D01*
X046011Y007363D01*
X046061Y007372D01*
X046110Y007377D01*
X046161Y007378D01*
X046211Y007375D01*
X046260Y007368D01*
X046309Y007357D01*
X046357Y007342D01*
X046403Y007324D01*
X046448Y007302D01*
X046491Y007276D01*
X046532Y007247D01*
X046571Y007215D01*
X046607Y007180D01*
X046639Y007142D01*
X046669Y007102D01*
X046696Y007059D01*
X046719Y007015D01*
X046738Y006969D01*
X046754Y006921D01*
X046766Y006872D01*
X046774Y006823D01*
X046778Y006773D01*
X046778Y006723D01*
X046774Y006673D01*
X046766Y006624D01*
X046754Y006575D01*
X046738Y006527D01*
X046719Y006481D01*
X046696Y006437D01*
X046669Y006394D01*
X046639Y006354D01*
X046607Y006316D01*
X046571Y006281D01*
X046532Y006249D01*
X046491Y006220D01*
X046448Y006194D01*
X046403Y006172D01*
X046357Y006154D01*
X046309Y006139D01*
X046260Y006128D01*
X046211Y006121D01*
X046161Y006118D01*
X046110Y006119D01*
X046061Y006124D01*
X046011Y006133D01*
X045963Y006146D01*
X045916Y006162D01*
X045870Y006183D01*
X045826Y006207D01*
X045784Y006234D01*
X045744Y006264D01*
X045707Y006298D01*
X045673Y006335D01*
X045641Y006374D01*
X045613Y006415D01*
X045588Y006459D01*
X045567Y006504D01*
X045550Y006551D01*
X045536Y006599D01*
X045526Y006648D01*
X045520Y006698D01*
X045518Y006748D01*
X063732Y001306D02*
X063734Y001355D01*
X063740Y001404D01*
X063750Y001452D01*
X063763Y001499D01*
X063781Y001545D01*
X063802Y001589D01*
X063826Y001632D01*
X063854Y001672D01*
X063885Y001711D01*
X063919Y001746D01*
X063956Y001779D01*
X063995Y001808D01*
X064037Y001834D01*
X064080Y001857D01*
X064126Y001876D01*
X064172Y001892D01*
X064220Y001904D01*
X064268Y001912D01*
X064317Y001916D01*
X064367Y001916D01*
X064416Y001912D01*
X064464Y001904D01*
X064512Y001892D01*
X064558Y001876D01*
X064604Y001857D01*
X064647Y001834D01*
X064689Y001808D01*
X064728Y001779D01*
X064765Y001746D01*
X064799Y001711D01*
X064830Y001672D01*
X064858Y001632D01*
X064882Y001589D01*
X064903Y001545D01*
X064921Y001499D01*
X064934Y001452D01*
X064944Y001404D01*
X064950Y001355D01*
X064952Y001306D01*
X064950Y001257D01*
X064944Y001208D01*
X064934Y001160D01*
X064921Y001113D01*
X064903Y001067D01*
X064882Y001023D01*
X064858Y000980D01*
X064830Y000940D01*
X064799Y000901D01*
X064765Y000866D01*
X064728Y000833D01*
X064689Y000804D01*
X064647Y000778D01*
X064604Y000755D01*
X064558Y000736D01*
X064512Y000720D01*
X064464Y000708D01*
X064416Y000700D01*
X064367Y000696D01*
X064317Y000696D01*
X064268Y000700D01*
X064220Y000708D01*
X064172Y000720D01*
X064126Y000736D01*
X064080Y000755D01*
X064037Y000778D01*
X063995Y000804D01*
X063956Y000833D01*
X063919Y000866D01*
X063885Y000901D01*
X063854Y000940D01*
X063826Y000980D01*
X063802Y001023D01*
X063781Y001067D01*
X063763Y001113D01*
X063750Y001160D01*
X063740Y001208D01*
X063734Y001257D01*
X063732Y001306D01*
X067240Y005814D02*
X067242Y005863D01*
X067248Y005912D01*
X067258Y005960D01*
X067271Y006007D01*
X067289Y006053D01*
X067310Y006097D01*
X067334Y006140D01*
X067362Y006180D01*
X067393Y006219D01*
X067427Y006254D01*
X067464Y006287D01*
X067503Y006316D01*
X067545Y006342D01*
X067588Y006365D01*
X067634Y006384D01*
X067680Y006400D01*
X067728Y006412D01*
X067776Y006420D01*
X067825Y006424D01*
X067875Y006424D01*
X067924Y006420D01*
X067972Y006412D01*
X068020Y006400D01*
X068066Y006384D01*
X068112Y006365D01*
X068155Y006342D01*
X068197Y006316D01*
X068236Y006287D01*
X068273Y006254D01*
X068307Y006219D01*
X068338Y006180D01*
X068366Y006140D01*
X068390Y006097D01*
X068411Y006053D01*
X068429Y006007D01*
X068442Y005960D01*
X068452Y005912D01*
X068458Y005863D01*
X068460Y005814D01*
X068458Y005765D01*
X068452Y005716D01*
X068442Y005668D01*
X068429Y005621D01*
X068411Y005575D01*
X068390Y005531D01*
X068366Y005488D01*
X068338Y005448D01*
X068307Y005409D01*
X068273Y005374D01*
X068236Y005341D01*
X068197Y005312D01*
X068155Y005286D01*
X068112Y005263D01*
X068066Y005244D01*
X068020Y005228D01*
X067972Y005216D01*
X067924Y005208D01*
X067875Y005204D01*
X067825Y005204D01*
X067776Y005208D01*
X067728Y005216D01*
X067680Y005228D01*
X067634Y005244D01*
X067588Y005263D01*
X067545Y005286D01*
X067503Y005312D01*
X067464Y005341D01*
X067427Y005374D01*
X067393Y005409D01*
X067362Y005448D01*
X067334Y005488D01*
X067310Y005531D01*
X067289Y005575D01*
X067271Y005621D01*
X067258Y005668D01*
X067248Y005716D01*
X067242Y005765D01*
X067240Y005814D01*
X070232Y007681D02*
X070234Y007730D01*
X070240Y007779D01*
X070250Y007827D01*
X070263Y007874D01*
X070281Y007920D01*
X070302Y007964D01*
X070326Y008007D01*
X070354Y008047D01*
X070385Y008086D01*
X070419Y008121D01*
X070456Y008154D01*
X070495Y008183D01*
X070537Y008209D01*
X070580Y008232D01*
X070626Y008251D01*
X070672Y008267D01*
X070720Y008279D01*
X070768Y008287D01*
X070817Y008291D01*
X070867Y008291D01*
X070916Y008287D01*
X070964Y008279D01*
X071012Y008267D01*
X071058Y008251D01*
X071104Y008232D01*
X071147Y008209D01*
X071189Y008183D01*
X071228Y008154D01*
X071265Y008121D01*
X071299Y008086D01*
X071330Y008047D01*
X071358Y008007D01*
X071382Y007964D01*
X071403Y007920D01*
X071421Y007874D01*
X071434Y007827D01*
X071444Y007779D01*
X071450Y007730D01*
X071452Y007681D01*
X071450Y007632D01*
X071444Y007583D01*
X071434Y007535D01*
X071421Y007488D01*
X071403Y007442D01*
X071382Y007398D01*
X071358Y007355D01*
X071330Y007315D01*
X071299Y007276D01*
X071265Y007241D01*
X071228Y007208D01*
X071189Y007179D01*
X071147Y007153D01*
X071104Y007130D01*
X071058Y007111D01*
X071012Y007095D01*
X070964Y007083D01*
X070916Y007075D01*
X070867Y007071D01*
X070817Y007071D01*
X070768Y007075D01*
X070720Y007083D01*
X070672Y007095D01*
X070626Y007111D01*
X070580Y007130D01*
X070537Y007153D01*
X070495Y007179D01*
X070456Y007208D01*
X070419Y007241D01*
X070385Y007276D01*
X070354Y007315D01*
X070326Y007355D01*
X070302Y007398D01*
X070281Y007442D01*
X070263Y007488D01*
X070250Y007535D01*
X070240Y007583D01*
X070234Y007632D01*
X070232Y007681D01*
X067252Y007826D02*
X067254Y007875D01*
X067260Y007924D01*
X067270Y007972D01*
X067283Y008019D01*
X067301Y008065D01*
X067322Y008109D01*
X067346Y008152D01*
X067374Y008192D01*
X067405Y008231D01*
X067439Y008266D01*
X067476Y008299D01*
X067515Y008328D01*
X067557Y008354D01*
X067600Y008377D01*
X067646Y008396D01*
X067692Y008412D01*
X067740Y008424D01*
X067788Y008432D01*
X067837Y008436D01*
X067887Y008436D01*
X067936Y008432D01*
X067984Y008424D01*
X068032Y008412D01*
X068078Y008396D01*
X068124Y008377D01*
X068167Y008354D01*
X068209Y008328D01*
X068248Y008299D01*
X068285Y008266D01*
X068319Y008231D01*
X068350Y008192D01*
X068378Y008152D01*
X068402Y008109D01*
X068423Y008065D01*
X068441Y008019D01*
X068454Y007972D01*
X068464Y007924D01*
X068470Y007875D01*
X068472Y007826D01*
X068470Y007777D01*
X068464Y007728D01*
X068454Y007680D01*
X068441Y007633D01*
X068423Y007587D01*
X068402Y007543D01*
X068378Y007500D01*
X068350Y007460D01*
X068319Y007421D01*
X068285Y007386D01*
X068248Y007353D01*
X068209Y007324D01*
X068167Y007298D01*
X068124Y007275D01*
X068078Y007256D01*
X068032Y007240D01*
X067984Y007228D01*
X067936Y007220D01*
X067887Y007216D01*
X067837Y007216D01*
X067788Y007220D01*
X067740Y007228D01*
X067692Y007240D01*
X067646Y007256D01*
X067600Y007275D01*
X067557Y007298D01*
X067515Y007324D01*
X067476Y007353D01*
X067439Y007386D01*
X067405Y007421D01*
X067374Y007460D01*
X067346Y007500D01*
X067322Y007543D01*
X067301Y007587D01*
X067283Y007633D01*
X067270Y007680D01*
X067260Y007728D01*
X067254Y007777D01*
X067252Y007826D01*
X067825Y021791D02*
X067827Y021826D01*
X067833Y021861D01*
X067843Y021895D01*
X067856Y021928D01*
X067873Y021959D01*
X067894Y021987D01*
X067917Y022014D01*
X067944Y022037D01*
X067972Y022058D01*
X068003Y022075D01*
X068036Y022088D01*
X068070Y022098D01*
X068105Y022104D01*
X068140Y022106D01*
X068175Y022104D01*
X068210Y022098D01*
X068244Y022088D01*
X068277Y022075D01*
X068308Y022058D01*
X068336Y022037D01*
X068363Y022014D01*
X068386Y021987D01*
X068407Y021959D01*
X068424Y021928D01*
X068437Y021895D01*
X068447Y021861D01*
X068453Y021826D01*
X068455Y021791D01*
X068453Y021756D01*
X068447Y021721D01*
X068437Y021687D01*
X068424Y021654D01*
X068407Y021623D01*
X068386Y021595D01*
X068363Y021568D01*
X068336Y021545D01*
X068308Y021524D01*
X068277Y021507D01*
X068244Y021494D01*
X068210Y021484D01*
X068175Y021478D01*
X068140Y021476D01*
X068105Y021478D01*
X068070Y021484D01*
X068036Y021494D01*
X068003Y021507D01*
X067972Y021524D01*
X067944Y021545D01*
X067917Y021568D01*
X067894Y021595D01*
X067873Y021623D01*
X067856Y021654D01*
X067843Y021687D01*
X067833Y021721D01*
X067827Y021756D01*
X067825Y021791D01*
X067825Y025728D02*
X067827Y025763D01*
X067833Y025798D01*
X067843Y025832D01*
X067856Y025865D01*
X067873Y025896D01*
X067894Y025924D01*
X067917Y025951D01*
X067944Y025974D01*
X067972Y025995D01*
X068003Y026012D01*
X068036Y026025D01*
X068070Y026035D01*
X068105Y026041D01*
X068140Y026043D01*
X068175Y026041D01*
X068210Y026035D01*
X068244Y026025D01*
X068277Y026012D01*
X068308Y025995D01*
X068336Y025974D01*
X068363Y025951D01*
X068386Y025924D01*
X068407Y025896D01*
X068424Y025865D01*
X068437Y025832D01*
X068447Y025798D01*
X068453Y025763D01*
X068455Y025728D01*
X068453Y025693D01*
X068447Y025658D01*
X068437Y025624D01*
X068424Y025591D01*
X068407Y025560D01*
X068386Y025532D01*
X068363Y025505D01*
X068336Y025482D01*
X068308Y025461D01*
X068277Y025444D01*
X068244Y025431D01*
X068210Y025421D01*
X068175Y025415D01*
X068140Y025413D01*
X068105Y025415D01*
X068070Y025421D01*
X068036Y025431D01*
X068003Y025444D01*
X067972Y025461D01*
X067944Y025482D01*
X067917Y025505D01*
X067894Y025532D01*
X067873Y025560D01*
X067856Y025591D01*
X067843Y025624D01*
X067833Y025658D01*
X067827Y025693D01*
X067825Y025728D01*
X070232Y028431D02*
X070234Y028480D01*
X070240Y028529D01*
X070250Y028577D01*
X070263Y028624D01*
X070281Y028670D01*
X070302Y028714D01*
X070326Y028757D01*
X070354Y028797D01*
X070385Y028836D01*
X070419Y028871D01*
X070456Y028904D01*
X070495Y028933D01*
X070537Y028959D01*
X070580Y028982D01*
X070626Y029001D01*
X070672Y029017D01*
X070720Y029029D01*
X070768Y029037D01*
X070817Y029041D01*
X070867Y029041D01*
X070916Y029037D01*
X070964Y029029D01*
X071012Y029017D01*
X071058Y029001D01*
X071104Y028982D01*
X071147Y028959D01*
X071189Y028933D01*
X071228Y028904D01*
X071265Y028871D01*
X071299Y028836D01*
X071330Y028797D01*
X071358Y028757D01*
X071382Y028714D01*
X071403Y028670D01*
X071421Y028624D01*
X071434Y028577D01*
X071444Y028529D01*
X071450Y028480D01*
X071452Y028431D01*
X071450Y028382D01*
X071444Y028333D01*
X071434Y028285D01*
X071421Y028238D01*
X071403Y028192D01*
X071382Y028148D01*
X071358Y028105D01*
X071330Y028065D01*
X071299Y028026D01*
X071265Y027991D01*
X071228Y027958D01*
X071189Y027929D01*
X071147Y027903D01*
X071104Y027880D01*
X071058Y027861D01*
X071012Y027845D01*
X070964Y027833D01*
X070916Y027825D01*
X070867Y027821D01*
X070817Y027821D01*
X070768Y027825D01*
X070720Y027833D01*
X070672Y027845D01*
X070626Y027861D01*
X070580Y027880D01*
X070537Y027903D01*
X070495Y027929D01*
X070456Y027958D01*
X070419Y027991D01*
X070385Y028026D01*
X070354Y028065D01*
X070326Y028105D01*
X070302Y028148D01*
X070281Y028192D01*
X070263Y028238D01*
X070250Y028285D01*
X070240Y028333D01*
X070234Y028382D01*
X070232Y028431D01*
D15*
X055822Y024936D02*
X055222Y024936D01*
X055222Y023936D02*
X055822Y023936D01*
X055822Y022936D02*
X055222Y022936D01*
X055222Y021936D02*
X055822Y021936D01*
X055822Y020936D02*
X055222Y020936D01*
X055222Y019936D02*
X055822Y019936D01*
X056467Y015481D02*
X056467Y014881D01*
X057467Y014881D02*
X057467Y015481D01*
X058467Y015481D02*
X058467Y014881D01*
X053592Y006981D02*
X053592Y006381D01*
X052592Y006381D02*
X052592Y006981D01*
X051592Y006981D02*
X051592Y006381D01*
X050592Y006381D02*
X050592Y006981D01*
X041592Y006981D02*
X041592Y006381D01*
X040592Y006381D02*
X040592Y006981D01*
X023825Y020014D02*
X023825Y020614D01*
X022825Y020614D02*
X022825Y020014D01*
X021825Y020014D02*
X021825Y020614D01*
X020825Y020614D02*
X020825Y020014D01*
X019825Y020014D02*
X019825Y020614D01*
X018825Y020614D02*
X018825Y020014D01*
X017825Y020014D02*
X017825Y020614D01*
X016825Y020614D02*
X016825Y020014D01*
D16*
X016837Y021554D02*
X016837Y022074D01*
X015837Y022074D02*
X015837Y021554D01*
X014837Y021554D02*
X014837Y022074D01*
X013837Y022074D02*
X013837Y021554D01*
X012837Y021554D02*
X012837Y022074D01*
X011837Y022074D02*
X011837Y021554D01*
X010837Y021554D02*
X010837Y022074D01*
X010837Y024554D02*
X010837Y025074D01*
X011837Y025074D02*
X011837Y024554D01*
X012837Y024554D02*
X012837Y025074D01*
X013837Y025074D02*
X013837Y024554D01*
X014837Y024554D02*
X014837Y025074D01*
X015837Y025074D02*
X015837Y024554D01*
X016837Y024554D02*
X016837Y025074D01*
X017837Y025074D02*
X017837Y024554D01*
X018837Y024554D02*
X018837Y025074D01*
X019837Y025074D02*
X019837Y024554D01*
X020837Y024554D02*
X020837Y025074D01*
X021837Y025074D02*
X021837Y024554D01*
X022837Y024554D02*
X022837Y025074D01*
X023837Y025074D02*
X023837Y024554D01*
X023837Y022074D02*
X023837Y021554D01*
X022837Y021554D02*
X022837Y022074D01*
X021837Y022074D02*
X021837Y021554D01*
X020837Y021554D02*
X020837Y022074D01*
X019837Y022074D02*
X019837Y021554D01*
X018837Y021554D02*
X018837Y022074D01*
X017837Y022074D02*
X017837Y021554D01*
X017962Y015161D02*
X017962Y014641D01*
X018962Y014641D02*
X018962Y015161D01*
X019962Y015161D02*
X019962Y014641D01*
X020962Y014641D02*
X020962Y015161D01*
X016962Y015161D02*
X016962Y014641D01*
X015962Y014641D02*
X015962Y015161D01*
X014962Y015161D02*
X014962Y014641D01*
X013962Y014641D02*
X013962Y015161D01*
X013962Y012161D02*
X013962Y011641D01*
X014962Y011641D02*
X014962Y012161D01*
X015962Y012161D02*
X015962Y011641D01*
X016962Y011641D02*
X016962Y012161D01*
X017962Y012161D02*
X017962Y011641D01*
X018962Y011641D02*
X018962Y012161D01*
X019962Y012161D02*
X019962Y011641D01*
X020962Y011641D02*
X020962Y012161D01*
X048962Y020656D02*
X049482Y020656D01*
X051962Y020656D02*
X052482Y020656D01*
X061527Y020196D02*
X062047Y020196D01*
X064527Y020196D02*
X065047Y020196D01*
X065047Y021196D02*
X064527Y021196D01*
X064527Y022196D02*
X065047Y022196D01*
X065047Y023196D02*
X064527Y023196D01*
X064527Y024196D02*
X065047Y024196D01*
X065047Y025196D02*
X064527Y025196D01*
X062047Y025196D02*
X061527Y025196D01*
X061527Y024196D02*
X062047Y024196D01*
X062047Y023196D02*
X061527Y023196D01*
X061527Y022196D02*
X062047Y022196D01*
X062047Y021196D02*
X061527Y021196D01*
X061527Y026196D02*
X062047Y026196D01*
X062047Y027196D02*
X061527Y027196D01*
X064527Y027196D02*
X065047Y027196D01*
X065047Y026196D02*
X064527Y026196D01*
D17*
X026887Y024889D03*
X025900Y024876D03*
X024900Y024864D03*
X024900Y021864D03*
X025900Y021876D03*
X026887Y021889D03*
X014600Y026614D03*
X011600Y026614D03*
D18*
X059347Y012785D03*
X059347Y011801D03*
X059347Y010817D03*
X065056Y010817D03*
X065056Y012785D03*
D19*
X062300Y014203D03*
X062300Y009400D03*
D20*
X012487Y028401D03*
D21*
X013487Y028401D03*
X014487Y028401D03*
X015487Y028401D03*
X016487Y028401D03*
X017487Y028401D03*
X018487Y028401D03*
X019487Y028401D03*
X020487Y028401D03*
X021487Y028401D03*
X022487Y028401D03*
X023487Y028401D03*
X024487Y028401D03*
X025487Y028401D03*
X026487Y028401D03*
X027487Y028401D03*
D22*
X015777Y004101D02*
X014997Y004101D01*
X011387Y003491D02*
X011387Y002711D01*
X014997Y002101D02*
X015777Y002101D01*
D23*
X017187Y002551D03*
X017187Y003651D03*
X018662Y017839D03*
X019762Y017839D03*
X013937Y020301D03*
X012837Y020301D03*
X026125Y020501D03*
X026125Y019401D03*
X058652Y025269D03*
X059752Y025269D03*
D24*
X050241Y027195D03*
X050241Y028195D03*
X021805Y003929D03*
X019245Y003929D03*
X019245Y002149D03*
X021805Y002149D03*
D25*
X024212Y004092D02*
X024212Y004685D01*
X025212Y004685D02*
X025212Y004092D01*
X026212Y004092D02*
X026212Y004685D01*
X033196Y026620D02*
X033789Y026620D01*
X033789Y027620D02*
X033196Y027620D01*
D26*
X038662Y015216D02*
X038662Y014476D01*
X039662Y014476D02*
X039662Y015216D01*
X040662Y015216D02*
X040662Y014476D01*
D27*
X070089Y020974D03*
X070069Y026545D03*
X004436Y018399D03*
X004456Y012828D03*
D28*
X004397Y017404D03*
X070128Y021968D03*
D29*
X070128Y025639D03*
X004397Y013733D03*
D30*
X007851Y013517D03*
X007851Y013950D03*
X007851Y014462D03*
X007851Y014895D03*
X007851Y015328D03*
X007851Y015761D03*
X007851Y016194D03*
X007851Y016627D03*
X007851Y017060D03*
X007851Y017493D03*
X066674Y021879D03*
X066674Y022312D03*
X066674Y022745D03*
X066674Y023178D03*
X066674Y023611D03*
X066674Y024045D03*
X066674Y024478D03*
X066674Y024911D03*
X066674Y025422D03*
X066674Y025856D03*
D31*
X039423Y024952D02*
X038663Y024952D01*
D32*
X038382Y023566D02*
X041072Y023566D01*
X043982Y020706D01*
X049212Y020706D01*
X049182Y020776D01*
X049342Y021366D01*
X050202Y022226D01*
X039262Y021836D02*
X034472Y021836D01*
X033922Y022386D01*
X037706Y021890D02*
X039206Y021890D01*
X039206Y023590D02*
X037706Y023590D01*
D33*
X038880Y026631D03*
X035880Y026631D03*
X048755Y025911D03*
X051755Y025911D03*
D34*
X050525Y024250D02*
X049820Y024250D01*
X049820Y022282D02*
X050525Y022282D01*
X034355Y022422D02*
X033650Y022422D01*
X033650Y024390D02*
X034355Y024390D01*
D35*
X059182Y023081D03*
D36*
X058285Y020254D03*
X060080Y020254D03*
D37*
X068912Y027226D03*
X068912Y028346D03*
D38*
X063452Y028336D03*
X062333Y028336D03*
D39*
X010767Y002971D02*
X006817Y002971D01*
X006659Y003130D02*
X010767Y003130D01*
X010767Y003288D02*
X006500Y003288D01*
X006342Y003447D02*
X010767Y003447D01*
X010767Y003605D02*
X006183Y003605D01*
X006025Y003764D02*
X010829Y003764D01*
X010862Y003842D02*
X010767Y003614D01*
X010767Y002588D01*
X010862Y002360D01*
X011036Y002185D01*
X011264Y002091D01*
X011511Y002091D01*
X011739Y002185D01*
X011913Y002360D01*
X012007Y002588D01*
X012007Y003614D01*
X011913Y003842D01*
X011739Y004017D01*
X011511Y004111D01*
X011264Y004111D01*
X011036Y004017D01*
X010862Y003842D01*
X010942Y003922D02*
X005866Y003922D01*
X005708Y004081D02*
X011190Y004081D01*
X011585Y004081D02*
X014377Y004081D01*
X014377Y003978D02*
X014472Y003750D01*
X014646Y003575D01*
X014874Y003481D01*
X015901Y003481D01*
X016129Y003575D01*
X016303Y003750D01*
X016397Y003978D01*
X016397Y004224D01*
X016303Y004452D01*
X016129Y004627D01*
X015901Y004721D01*
X014874Y004721D01*
X014646Y004627D01*
X014472Y004452D01*
X014377Y004224D01*
X014377Y003978D01*
X014401Y003922D02*
X011833Y003922D01*
X011946Y003764D02*
X014466Y003764D01*
X014617Y003605D02*
X012007Y003605D01*
X012007Y003447D02*
X016590Y003447D01*
X016557Y003526D02*
X016653Y003294D01*
X016831Y003117D01*
X017062Y003021D01*
X017087Y003021D01*
X017075Y003019D01*
X017003Y002996D01*
X016936Y002962D01*
X016875Y002917D01*
X016821Y002864D01*
X016777Y002803D01*
X016743Y002735D01*
X016719Y002664D01*
X016707Y002589D01*
X016707Y002571D01*
X017167Y002571D01*
X017167Y002531D01*
X016707Y002531D01*
X016707Y002513D01*
X016719Y002439D01*
X016743Y002367D01*
X016777Y002300D01*
X016821Y002238D01*
X016875Y002185D01*
X016936Y002141D01*
X017003Y002106D01*
X017075Y002083D01*
X017150Y002071D01*
X017167Y002071D01*
X017167Y002531D01*
X017207Y002531D01*
X017207Y002071D01*
X017225Y002071D01*
X017300Y002083D01*
X017372Y002106D01*
X017439Y002141D01*
X017500Y002185D01*
X017554Y002238D01*
X017598Y002300D01*
X017632Y002367D01*
X017656Y002439D01*
X017667Y002513D01*
X017667Y002531D01*
X017207Y002531D01*
X017207Y002571D01*
X017667Y002571D01*
X017667Y002589D01*
X017656Y002664D01*
X017632Y002735D01*
X017598Y002803D01*
X017554Y002864D01*
X017500Y002917D01*
X017439Y002962D01*
X017372Y002996D01*
X017300Y003019D01*
X017288Y003021D01*
X017313Y003021D01*
X017544Y003117D01*
X017722Y003294D01*
X017817Y003526D01*
X017817Y003776D01*
X017722Y004008D01*
X017544Y004185D01*
X017313Y004281D01*
X017062Y004281D01*
X016831Y004185D01*
X016653Y004008D01*
X016557Y003776D01*
X016557Y003526D01*
X016557Y003605D02*
X016158Y003605D01*
X016309Y003764D02*
X016557Y003764D01*
X016618Y003922D02*
X016374Y003922D01*
X016397Y004081D02*
X016726Y004081D01*
X016961Y004239D02*
X016391Y004239D01*
X016326Y004398D02*
X018865Y004398D01*
X018905Y004437D02*
X018736Y004268D01*
X018645Y004048D01*
X018645Y003809D01*
X018736Y003589D01*
X018905Y003420D01*
X019126Y003329D01*
X019364Y003329D01*
X019585Y003420D01*
X019754Y003589D01*
X019845Y003809D01*
X019845Y004048D01*
X019754Y004268D01*
X019585Y004437D01*
X019364Y004529D01*
X019126Y004529D01*
X018905Y004437D01*
X018724Y004239D02*
X017414Y004239D01*
X017649Y004081D02*
X018658Y004081D01*
X018645Y003922D02*
X017757Y003922D01*
X017817Y003764D02*
X018664Y003764D01*
X018730Y003605D02*
X017817Y003605D01*
X017785Y003447D02*
X018879Y003447D01*
X019611Y003447D02*
X021439Y003447D01*
X021465Y003420D02*
X021686Y003329D01*
X021924Y003329D01*
X022145Y003420D01*
X022314Y003589D01*
X022405Y003809D01*
X022405Y004048D01*
X022314Y004268D01*
X022145Y004437D01*
X021924Y004529D01*
X021686Y004529D01*
X021465Y004437D01*
X021296Y004268D01*
X021205Y004048D01*
X021205Y003809D01*
X021296Y003589D01*
X021465Y003420D01*
X021290Y003605D02*
X019760Y003605D01*
X019826Y003764D02*
X021224Y003764D01*
X021205Y003922D02*
X019845Y003922D01*
X019831Y004081D02*
X021218Y004081D01*
X021284Y004239D02*
X019766Y004239D01*
X019625Y004398D02*
X021425Y004398D01*
X022185Y004398D02*
X024194Y004398D01*
X024194Y004407D02*
X024194Y004370D01*
X024231Y004370D01*
X024231Y003715D01*
X024250Y003715D01*
X024322Y003729D01*
X024391Y003758D01*
X024453Y003799D01*
X024505Y003852D01*
X024546Y003913D01*
X024575Y003982D01*
X024589Y004055D01*
X024589Y004370D01*
X024231Y004370D01*
X024231Y004407D01*
X024589Y004407D01*
X024589Y004723D01*
X024575Y004795D01*
X024546Y004864D01*
X024505Y004926D01*
X024453Y004978D01*
X024391Y005019D01*
X024322Y005048D01*
X024250Y005062D01*
X024231Y005062D01*
X024231Y004407D01*
X024194Y004407D01*
X023836Y004407D01*
X023836Y004723D01*
X023850Y004795D01*
X023879Y004864D01*
X023920Y004926D01*
X023972Y004978D01*
X024034Y005019D01*
X024103Y005048D01*
X024175Y005062D01*
X024194Y005062D01*
X024194Y004407D01*
X024194Y004370D02*
X023836Y004370D01*
X023836Y004055D01*
X023850Y003982D01*
X023879Y003913D01*
X023920Y003852D01*
X023972Y003799D01*
X024034Y003758D01*
X024103Y003729D01*
X024175Y003715D01*
X024194Y003715D01*
X024194Y004370D01*
X024231Y004398D02*
X024686Y004398D01*
X024686Y004556D02*
X024589Y004556D01*
X024589Y004715D02*
X024686Y004715D01*
X024686Y004790D02*
X024766Y004984D01*
X024914Y005132D01*
X025108Y005212D01*
X025317Y005212D01*
X025511Y005132D01*
X025659Y004984D01*
X025712Y004855D01*
X025766Y004984D01*
X025914Y005132D01*
X026108Y005212D01*
X026317Y005212D01*
X026511Y005132D01*
X026659Y004984D01*
X026739Y004790D01*
X026739Y003987D01*
X026659Y003793D01*
X026511Y003645D01*
X026317Y003565D01*
X026108Y003565D01*
X025914Y003645D01*
X025766Y003793D01*
X025712Y003922D01*
X025713Y003922D01*
X025712Y003922D02*
X025659Y003793D01*
X025511Y003645D01*
X025317Y003565D01*
X025108Y003565D01*
X024914Y003645D01*
X024766Y003793D01*
X024686Y003987D01*
X024686Y004790D01*
X024720Y004873D02*
X024540Y004873D01*
X024362Y005032D02*
X024813Y005032D01*
X025054Y005190D02*
X004806Y005190D01*
X004763Y005165D02*
X005012Y005309D01*
X005215Y005512D01*
X005358Y005760D01*
X005433Y006038D01*
X005433Y006325D01*
X005358Y006602D01*
X005215Y006851D01*
X005012Y007054D01*
X004763Y007197D01*
X004486Y007271D01*
X004199Y007271D01*
X003922Y007197D01*
X003673Y007054D01*
X003470Y006851D01*
X003327Y006602D01*
X003297Y006491D01*
X002130Y007658D01*
X002130Y027439D01*
X002172Y027415D01*
X002449Y027341D01*
X002736Y027341D01*
X003013Y027415D01*
X003262Y027559D01*
X003465Y027762D01*
X003608Y028010D01*
X003683Y028288D01*
X003683Y028575D01*
X003608Y028852D01*
X003583Y028896D01*
X008538Y028896D01*
X008500Y028830D01*
X008424Y028548D01*
X008424Y028426D01*
X008388Y028447D01*
X008111Y028521D01*
X007824Y028521D01*
X007547Y028447D01*
X007298Y028304D01*
X007095Y028101D01*
X006952Y027852D01*
X006877Y027575D01*
X006877Y027288D01*
X006952Y027010D01*
X007095Y026762D01*
X007298Y026559D01*
X007547Y026415D01*
X007824Y026341D01*
X008111Y026341D01*
X008388Y026415D01*
X008637Y026559D01*
X008840Y026762D01*
X008983Y027010D01*
X009058Y027288D01*
X009058Y027395D01*
X009106Y027367D01*
X009388Y027291D01*
X009680Y027291D01*
X009963Y027367D01*
X010216Y027513D01*
X010422Y027720D01*
X010568Y027973D01*
X010644Y028255D01*
X010644Y028548D01*
X010568Y028830D01*
X010530Y028896D01*
X013296Y028896D01*
X013187Y028851D01*
X013038Y028702D01*
X012957Y028507D01*
X012957Y028296D01*
X013038Y028101D01*
X013187Y027952D01*
X013382Y027871D01*
X013592Y027871D01*
X013787Y027952D01*
X013936Y028101D01*
X013987Y028224D01*
X014038Y028101D01*
X014187Y027952D01*
X014382Y027871D01*
X014592Y027871D01*
X014787Y027952D01*
X014936Y028101D01*
X014987Y028224D01*
X015038Y028101D01*
X015187Y027952D01*
X015382Y027871D01*
X015592Y027871D01*
X015787Y027952D01*
X015936Y028101D01*
X015987Y028224D01*
X016038Y028101D01*
X016187Y027952D01*
X016382Y027871D01*
X016592Y027871D01*
X016787Y027952D01*
X016936Y028101D01*
X016987Y028224D01*
X017038Y028101D01*
X017187Y027952D01*
X017382Y027871D01*
X017592Y027871D01*
X017787Y027952D01*
X017936Y028101D01*
X017987Y028224D01*
X018038Y028101D01*
X018187Y027952D01*
X018382Y027871D01*
X018592Y027871D01*
X018787Y027952D01*
X018936Y028101D01*
X018987Y028224D01*
X019038Y028101D01*
X019187Y027952D01*
X019382Y027871D01*
X019592Y027871D01*
X019787Y027952D01*
X019936Y028101D01*
X019987Y028224D01*
X020038Y028101D01*
X020187Y027952D01*
X020382Y027871D01*
X020592Y027871D01*
X020787Y027952D01*
X020936Y028101D01*
X020987Y028224D01*
X021038Y028101D01*
X021187Y027952D01*
X021382Y027871D01*
X021592Y027871D01*
X021787Y027952D01*
X021936Y028101D01*
X021987Y028224D01*
X022038Y028101D01*
X022187Y027952D01*
X022382Y027871D01*
X022592Y027871D01*
X022787Y027952D01*
X022936Y028101D01*
X022987Y028224D01*
X023038Y028101D01*
X023187Y027952D01*
X023382Y027871D01*
X023592Y027871D01*
X023787Y027952D01*
X023936Y028101D01*
X023987Y028224D01*
X024038Y028101D01*
X024187Y027952D01*
X024382Y027871D01*
X024592Y027871D01*
X024787Y027952D01*
X024936Y028101D01*
X024987Y028224D01*
X025038Y028101D01*
X025187Y027952D01*
X025382Y027871D01*
X025592Y027871D01*
X025787Y027952D01*
X025936Y028101D01*
X025987Y028224D01*
X026038Y028101D01*
X026187Y027952D01*
X026382Y027871D01*
X026592Y027871D01*
X026787Y027952D01*
X026936Y028101D01*
X027017Y028296D01*
X027017Y028507D01*
X026936Y028702D01*
X026787Y028851D01*
X026678Y028896D01*
X028228Y028896D01*
X028245Y017926D01*
X028245Y017821D01*
X028245Y017820D01*
X028286Y017723D01*
X028326Y017626D01*
X028326Y017626D01*
X028326Y017625D01*
X028401Y017551D01*
X028475Y017477D01*
X028475Y017477D01*
X028475Y017476D01*
X028573Y017436D01*
X028670Y017396D01*
X028670Y017396D01*
X028670Y017396D01*
X028775Y017396D01*
X070405Y017396D01*
X070408Y017397D01*
X071322Y017397D01*
X071322Y014716D01*
X066558Y014716D01*
X066402Y014560D01*
X066402Y009438D01*
X066636Y009204D01*
X071322Y009204D01*
X071322Y008663D01*
X071263Y008697D01*
X070986Y008771D01*
X070699Y008771D01*
X070422Y008697D01*
X070173Y008554D01*
X069970Y008351D01*
X069827Y008102D01*
X069752Y007825D01*
X069752Y007538D01*
X069827Y007260D01*
X069970Y007012D01*
X070173Y006809D01*
X070422Y006665D01*
X070455Y006656D01*
X065394Y001595D01*
X065358Y001727D01*
X065215Y001976D01*
X065012Y002179D01*
X065978Y002179D01*
X066136Y002337D02*
X064707Y002337D01*
X064763Y002322D02*
X064486Y002396D01*
X064199Y002396D01*
X063922Y002322D01*
X063673Y002179D01*
X061367Y002179D01*
X061367Y002337D02*
X063978Y002337D01*
X063673Y002179D02*
X063470Y001976D01*
X063327Y001727D01*
X063252Y001450D01*
X063252Y001163D01*
X063327Y000885D01*
X063351Y000844D01*
X061367Y000844D01*
X061367Y005182D01*
X061287Y005376D01*
X060937Y005726D01*
X060788Y005875D01*
X060593Y005956D01*
X053917Y005956D01*
X054042Y006081D01*
X054122Y006276D01*
X054122Y007087D01*
X054042Y007281D01*
X053893Y007430D01*
X053698Y007511D01*
X053487Y007511D01*
X053292Y007430D01*
X053143Y007281D01*
X053092Y007159D01*
X053042Y007281D01*
X052893Y007430D01*
X052698Y007511D01*
X052487Y007511D01*
X052292Y007430D01*
X052143Y007281D01*
X052092Y007159D01*
X052042Y007281D01*
X051893Y007430D01*
X051698Y007511D01*
X051487Y007511D01*
X051292Y007430D01*
X051143Y007281D01*
X051092Y007159D01*
X051042Y007281D01*
X050893Y007430D01*
X050698Y007511D01*
X050487Y007511D01*
X050292Y007430D01*
X050143Y007281D01*
X050062Y007087D01*
X050062Y006276D01*
X050143Y006081D01*
X050268Y005956D01*
X046926Y005956D01*
X047037Y006066D01*
X047183Y006319D01*
X047258Y006602D01*
X047258Y006894D01*
X047183Y007176D01*
X047037Y007429D01*
X046830Y007636D01*
X046577Y007782D01*
X046295Y007858D01*
X046002Y007858D01*
X045720Y007782D01*
X045467Y007636D01*
X045260Y007429D01*
X045114Y007176D01*
X045038Y006894D01*
X045038Y006602D01*
X045114Y006319D01*
X045260Y006066D01*
X045370Y005956D01*
X040917Y005956D01*
X041042Y006081D01*
X041122Y006276D01*
X041122Y007087D01*
X041042Y007281D01*
X040893Y007430D01*
X040698Y007511D01*
X040487Y007511D01*
X040292Y007430D01*
X040143Y007281D01*
X040062Y007087D01*
X040062Y006276D01*
X040143Y006081D01*
X040268Y005956D01*
X027970Y005956D01*
X027775Y005875D01*
X027462Y005563D01*
X027313Y005414D01*
X027232Y005219D01*
X027232Y000983D01*
X027093Y000844D01*
X010209Y000844D01*
X010233Y000885D01*
X010308Y001163D01*
X010308Y001450D01*
X010233Y001727D01*
X010090Y001976D01*
X009887Y002179D01*
X011053Y002179D01*
X010885Y002337D02*
X009582Y002337D01*
X009638Y002322D02*
X009361Y002396D01*
X009074Y002396D01*
X008797Y002322D01*
X008548Y002179D01*
X007610Y002179D01*
X007451Y002337D02*
X008853Y002337D01*
X008548Y002179D02*
X008345Y001976D01*
X008202Y001727D01*
X008172Y001616D01*
X004653Y005136D01*
X004763Y005165D01*
X004757Y005032D02*
X024063Y005032D01*
X024194Y005032D02*
X024231Y005032D01*
X024231Y004873D02*
X024194Y004873D01*
X024194Y004715D02*
X024231Y004715D01*
X024231Y004556D02*
X024194Y004556D01*
X024194Y004239D02*
X024231Y004239D01*
X024231Y004081D02*
X024194Y004081D01*
X024194Y003922D02*
X024231Y003922D01*
X024231Y003764D02*
X024194Y003764D01*
X024025Y003764D02*
X022386Y003764D01*
X022405Y003922D02*
X023875Y003922D01*
X023836Y004081D02*
X022391Y004081D01*
X022326Y004239D02*
X023836Y004239D01*
X023836Y004556D02*
X016199Y004556D01*
X015917Y004715D02*
X023836Y004715D01*
X023885Y004873D02*
X004915Y004873D01*
X005074Y004715D02*
X014858Y004715D01*
X014576Y004556D02*
X005232Y004556D01*
X005391Y004398D02*
X014449Y004398D01*
X014384Y004239D02*
X005549Y004239D01*
X005052Y005349D02*
X027286Y005349D01*
X027232Y005190D02*
X026371Y005190D01*
X026611Y005032D02*
X027232Y005032D01*
X027232Y004873D02*
X026705Y004873D01*
X026739Y004715D02*
X027232Y004715D01*
X027232Y004556D02*
X026739Y004556D01*
X026739Y004398D02*
X027232Y004398D01*
X027232Y004239D02*
X026739Y004239D01*
X026739Y004081D02*
X027232Y004081D01*
X027232Y003922D02*
X026712Y003922D01*
X026629Y003764D02*
X027232Y003764D01*
X027232Y003605D02*
X026414Y003605D01*
X026011Y003605D02*
X025414Y003605D01*
X025629Y003764D02*
X025796Y003764D01*
X025011Y003605D02*
X022320Y003605D01*
X022171Y003447D02*
X027232Y003447D01*
X027232Y003288D02*
X017715Y003288D01*
X017557Y003130D02*
X027232Y003130D01*
X027232Y002971D02*
X017421Y002971D01*
X017591Y002813D02*
X027232Y002813D01*
X027232Y002654D02*
X017657Y002654D01*
X017665Y002496D02*
X018957Y002496D01*
X018952Y002492D02*
X018902Y002442D01*
X018860Y002384D01*
X018828Y002321D01*
X018806Y002254D01*
X018795Y002184D01*
X018795Y002169D01*
X019225Y002169D01*
X019225Y002599D01*
X019210Y002599D01*
X019140Y002588D01*
X019072Y002566D01*
X019009Y002533D01*
X018952Y002492D01*
X018836Y002337D02*
X017617Y002337D01*
X017491Y002179D02*
X018795Y002179D01*
X018795Y002129D02*
X018795Y002113D01*
X018806Y002043D01*
X018828Y001976D01*
X018860Y001913D01*
X018902Y001855D01*
X018952Y001805D01*
X019009Y001764D01*
X019072Y001732D01*
X019140Y001710D01*
X019210Y001699D01*
X019225Y001699D01*
X019225Y002129D01*
X018795Y002129D01*
X018814Y002020D02*
X016240Y002020D01*
X016236Y001991D02*
X016245Y002051D01*
X015437Y002051D01*
X015437Y001631D01*
X015814Y001631D01*
X015888Y001643D01*
X015958Y001666D01*
X016024Y001699D01*
X016084Y001743D01*
X016136Y001795D01*
X016179Y001855D01*
X016213Y001921D01*
X016236Y001991D01*
X016183Y001862D02*
X018897Y001862D01*
X019182Y001703D02*
X016029Y001703D01*
X015437Y001703D02*
X015337Y001703D01*
X015337Y001631D02*
X015337Y002051D01*
X014530Y002051D01*
X014539Y001991D01*
X014562Y001921D01*
X014595Y001855D01*
X014639Y001795D01*
X014691Y001743D01*
X014751Y001699D01*
X014817Y001666D01*
X014887Y001643D01*
X014960Y001631D01*
X015337Y001631D01*
X015337Y001862D02*
X015437Y001862D01*
X015437Y002020D02*
X015337Y002020D01*
X015337Y002051D02*
X015437Y002051D01*
X015437Y002151D01*
X015337Y002151D01*
X015337Y002051D01*
X015337Y002151D02*
X014530Y002151D01*
X014539Y002211D01*
X014562Y002282D01*
X014595Y002347D01*
X014639Y002407D01*
X014691Y002460D01*
X014751Y002503D01*
X014817Y002537D01*
X014887Y002560D01*
X014960Y002571D01*
X015337Y002571D01*
X015337Y002151D01*
X015337Y002179D02*
X015437Y002179D01*
X015437Y002151D02*
X015437Y002571D01*
X015814Y002571D01*
X015888Y002560D01*
X015958Y002537D01*
X016024Y002503D01*
X016084Y002460D01*
X016136Y002407D01*
X016179Y002347D01*
X016213Y002282D01*
X016236Y002211D01*
X016245Y002151D01*
X015437Y002151D01*
X015437Y002337D02*
X015337Y002337D01*
X015337Y002496D02*
X015437Y002496D01*
X016034Y002496D02*
X016710Y002496D01*
X016718Y002654D02*
X012007Y002654D01*
X012007Y002813D02*
X016784Y002813D01*
X016954Y002971D02*
X012007Y002971D01*
X012007Y003130D02*
X016818Y003130D01*
X016660Y003288D02*
X012007Y003288D01*
X010767Y002813D02*
X006976Y002813D01*
X007134Y002654D02*
X010767Y002654D01*
X010806Y002496D02*
X007293Y002496D01*
X007768Y002020D02*
X008390Y002020D01*
X008279Y001862D02*
X007927Y001862D01*
X008085Y001703D02*
X008195Y001703D01*
X009638Y002322D02*
X009887Y002179D01*
X010045Y002020D02*
X014534Y002020D01*
X014534Y002179D02*
X011722Y002179D01*
X011890Y002337D02*
X014590Y002337D01*
X014741Y002496D02*
X011969Y002496D01*
X010240Y001703D02*
X014746Y001703D01*
X014592Y001862D02*
X010156Y001862D01*
X010282Y001545D02*
X027232Y001545D01*
X027232Y001703D02*
X021868Y001703D01*
X021840Y001699D02*
X021910Y001710D01*
X021978Y001732D01*
X022041Y001764D01*
X022098Y001805D01*
X022148Y001855D01*
X022190Y001913D01*
X022222Y001976D01*
X022244Y002043D01*
X022255Y002113D01*
X022255Y002129D01*
X021825Y002129D01*
X021825Y002169D01*
X021785Y002169D01*
X021785Y002599D01*
X021770Y002599D01*
X021700Y002588D01*
X021632Y002566D01*
X021569Y002533D01*
X021512Y002492D01*
X021462Y002442D01*
X021420Y002384D01*
X021388Y002321D01*
X021366Y002254D01*
X021355Y002184D01*
X021355Y002169D01*
X021785Y002169D01*
X021785Y002129D01*
X021355Y002129D01*
X021355Y002113D01*
X021366Y002043D01*
X021388Y001976D01*
X021420Y001913D01*
X021462Y001855D01*
X021512Y001805D01*
X021569Y001764D01*
X021632Y001732D01*
X021700Y001710D01*
X021770Y001699D01*
X021785Y001699D01*
X021785Y002129D01*
X021825Y002129D01*
X021825Y001699D01*
X021840Y001699D01*
X021825Y001703D02*
X021785Y001703D01*
X021742Y001703D02*
X019308Y001703D01*
X019280Y001699D02*
X019350Y001710D01*
X019418Y001732D01*
X019481Y001764D01*
X019538Y001805D01*
X019588Y001855D01*
X019630Y001913D01*
X019662Y001976D01*
X019684Y002043D01*
X019695Y002113D01*
X019695Y002129D01*
X019265Y002129D01*
X019265Y002169D01*
X019225Y002169D01*
X019225Y002129D01*
X019265Y002129D01*
X019265Y001699D01*
X019280Y001699D01*
X019265Y001703D02*
X019225Y001703D01*
X019225Y001862D02*
X019265Y001862D01*
X019265Y002020D02*
X019225Y002020D01*
X019265Y002169D02*
X019695Y002169D01*
X019695Y002184D01*
X019684Y002254D01*
X019662Y002321D01*
X019630Y002384D01*
X019588Y002442D01*
X019538Y002492D01*
X019481Y002533D01*
X019418Y002566D01*
X019350Y002588D01*
X019280Y002599D01*
X019265Y002599D01*
X019265Y002169D01*
X019265Y002179D02*
X019225Y002179D01*
X019225Y002337D02*
X019265Y002337D01*
X019265Y002496D02*
X019225Y002496D01*
X019533Y002496D02*
X021517Y002496D01*
X021396Y002337D02*
X019654Y002337D01*
X019695Y002179D02*
X021355Y002179D01*
X021374Y002020D02*
X019676Y002020D01*
X019593Y001862D02*
X021457Y001862D01*
X021785Y001862D02*
X021825Y001862D01*
X021825Y002020D02*
X021785Y002020D01*
X021825Y002169D02*
X022255Y002169D01*
X022255Y002184D01*
X022244Y002254D01*
X022222Y002321D01*
X022190Y002384D01*
X022148Y002442D01*
X022098Y002492D01*
X022041Y002533D01*
X021978Y002566D01*
X021910Y002588D01*
X021840Y002599D01*
X021825Y002599D01*
X021825Y002169D01*
X021825Y002179D02*
X021785Y002179D01*
X021785Y002337D02*
X021825Y002337D01*
X021825Y002496D02*
X021785Y002496D01*
X022093Y002496D02*
X027232Y002496D01*
X027232Y002337D02*
X022214Y002337D01*
X022255Y002179D02*
X027232Y002179D01*
X027232Y002020D02*
X022236Y002020D01*
X022153Y001862D02*
X027232Y001862D01*
X027232Y001386D02*
X010308Y001386D01*
X010308Y001228D02*
X027232Y001228D01*
X027232Y001069D02*
X010283Y001069D01*
X010240Y000911D02*
X027160Y000911D01*
X024796Y003764D02*
X024400Y003764D01*
X024550Y003922D02*
X024713Y003922D01*
X024686Y004081D02*
X024589Y004081D01*
X024589Y004239D02*
X024686Y004239D01*
X025705Y004873D02*
X025720Y004873D01*
X025813Y005032D02*
X025611Y005032D01*
X025371Y005190D02*
X026054Y005190D01*
X027406Y005507D02*
X005210Y005507D01*
X005304Y005666D02*
X009285Y005666D01*
X009388Y005638D02*
X009106Y005714D01*
X008853Y005860D01*
X008646Y006066D01*
X008500Y006319D01*
X008424Y006602D01*
X008424Y006894D01*
X008500Y007176D01*
X008646Y007429D01*
X008853Y007636D01*
X009106Y007782D01*
X009388Y007858D01*
X009680Y007858D01*
X009963Y007782D01*
X010216Y007636D01*
X010422Y007429D01*
X010568Y007176D01*
X010644Y006894D01*
X010644Y006602D01*
X010568Y006319D01*
X010422Y006066D01*
X010216Y005860D01*
X009963Y005714D01*
X009680Y005638D01*
X009388Y005638D01*
X009783Y005666D02*
X027565Y005666D01*
X027723Y005824D02*
X010154Y005824D01*
X010339Y005983D02*
X040242Y005983D01*
X040118Y006141D02*
X018249Y006141D01*
X018206Y006098D02*
X018341Y006233D01*
X018341Y006516D01*
X022550Y010726D01*
X022597Y010839D01*
X022597Y013898D01*
X022791Y014091D01*
X023099Y014091D01*
X023213Y014138D01*
X023300Y014226D01*
X023800Y014726D01*
X023847Y014839D01*
X023847Y018713D01*
X023800Y018827D01*
X023713Y018914D01*
X023081Y019546D01*
X023125Y019564D01*
X023274Y019713D01*
X023325Y019836D01*
X023376Y019713D01*
X023525Y019564D01*
X023720Y019484D01*
X023930Y019484D01*
X024125Y019564D01*
X024274Y019713D01*
X024355Y019908D01*
X024355Y020719D01*
X024274Y020914D01*
X024125Y021063D01*
X024029Y021103D01*
X024115Y021138D01*
X024174Y021198D01*
X024211Y021161D01*
X024726Y020646D01*
X024726Y017904D01*
X024774Y017791D01*
X024861Y017703D01*
X026707Y015857D01*
X026821Y015810D01*
X036143Y015810D01*
X036261Y015692D01*
X036848Y015692D01*
X036983Y015827D01*
X036983Y016413D01*
X036848Y016548D01*
X036261Y016548D01*
X036143Y016430D01*
X027011Y016430D01*
X025346Y018095D01*
X025346Y020836D01*
X025299Y020950D01*
X024875Y021374D01*
X025103Y021374D01*
X025390Y021661D01*
X025390Y022067D01*
X025103Y022354D01*
X024697Y022354D01*
X024696Y022353D01*
X024696Y023644D01*
X024649Y023758D01*
X024192Y024215D01*
X024253Y024276D01*
X024327Y024456D01*
X024327Y025171D01*
X024253Y025351D01*
X024115Y025489D01*
X023935Y025564D01*
X023740Y025564D01*
X023560Y025489D01*
X023422Y025351D01*
X023347Y025171D01*
X023347Y024456D01*
X023422Y024276D01*
X023530Y024168D01*
X023530Y024066D01*
X023578Y023953D01*
X024076Y023454D01*
X024076Y022505D01*
X023935Y022564D01*
X023740Y022564D01*
X023560Y022489D01*
X023422Y022351D01*
X023347Y022171D01*
X023347Y021456D01*
X023422Y021276D01*
X023560Y021138D01*
X023633Y021108D01*
X023525Y021063D01*
X023376Y020914D01*
X023325Y020791D01*
X023274Y020914D01*
X023125Y021063D01*
X023029Y021103D01*
X023115Y021138D01*
X023253Y021276D01*
X023327Y021456D01*
X023327Y022171D01*
X023253Y022351D01*
X023115Y022489D01*
X022935Y022564D01*
X022740Y022564D01*
X022560Y022489D01*
X022422Y022351D01*
X022347Y022171D01*
X022347Y021456D01*
X022422Y021276D01*
X022560Y021138D01*
X022633Y021108D01*
X022525Y021063D01*
X022376Y020914D01*
X022325Y020791D01*
X022274Y020914D01*
X022125Y021063D01*
X022029Y021103D01*
X022115Y021138D01*
X022253Y021276D01*
X022327Y021456D01*
X022327Y022171D01*
X022253Y022351D01*
X022115Y022489D01*
X021935Y022564D01*
X021740Y022564D01*
X021560Y022489D01*
X021422Y022351D01*
X021347Y022171D01*
X021347Y021456D01*
X021422Y021276D01*
X021560Y021138D01*
X021633Y021108D01*
X021525Y021063D01*
X021376Y020914D01*
X021325Y020791D01*
X021274Y020914D01*
X021125Y021063D01*
X021029Y021103D01*
X021115Y021138D01*
X021253Y021276D01*
X021327Y021456D01*
X021327Y022171D01*
X021253Y022351D01*
X021115Y022489D01*
X020935Y022564D01*
X020740Y022564D01*
X020560Y022489D01*
X020422Y022351D01*
X020347Y022171D01*
X020347Y021456D01*
X020422Y021276D01*
X020560Y021138D01*
X020633Y021108D01*
X020525Y021063D01*
X020376Y020914D01*
X020325Y020791D01*
X020274Y020914D01*
X020125Y021063D01*
X020029Y021103D01*
X020115Y021138D01*
X020253Y021276D01*
X020327Y021456D01*
X020327Y022171D01*
X020253Y022351D01*
X020115Y022489D01*
X019935Y022564D01*
X019740Y022564D01*
X019560Y022489D01*
X019422Y022351D01*
X019347Y022171D01*
X019347Y021456D01*
X019422Y021276D01*
X019560Y021138D01*
X019633Y021108D01*
X019525Y021063D01*
X019376Y020914D01*
X019325Y020791D01*
X019274Y020914D01*
X019125Y021063D01*
X019029Y021103D01*
X019115Y021138D01*
X019253Y021276D01*
X019327Y021456D01*
X019327Y022171D01*
X019253Y022351D01*
X019115Y022489D01*
X018935Y022564D01*
X018740Y022564D01*
X018560Y022489D01*
X018422Y022351D01*
X018347Y022171D01*
X018347Y021456D01*
X018422Y021276D01*
X018560Y021138D01*
X018633Y021108D01*
X018525Y021063D01*
X018376Y020914D01*
X018325Y020791D01*
X018274Y020914D01*
X018125Y021063D01*
X018029Y021103D01*
X018115Y021138D01*
X018253Y021276D01*
X018327Y021456D01*
X018327Y022171D01*
X018253Y022351D01*
X018115Y022489D01*
X017935Y022564D01*
X017740Y022564D01*
X017560Y022489D01*
X017422Y022351D01*
X017347Y022171D01*
X017347Y021456D01*
X017422Y021276D01*
X017560Y021138D01*
X017633Y021108D01*
X017525Y021063D01*
X017376Y020914D01*
X017325Y020791D01*
X017274Y020914D01*
X017125Y021063D01*
X017029Y021103D01*
X017115Y021138D01*
X017253Y021276D01*
X017327Y021456D01*
X017327Y022171D01*
X017253Y022351D01*
X017115Y022489D01*
X016935Y022564D01*
X016740Y022564D01*
X016560Y022489D01*
X016422Y022351D01*
X016347Y022171D01*
X016347Y021456D01*
X016422Y021276D01*
X016560Y021138D01*
X016633Y021108D01*
X016525Y021063D01*
X016376Y020914D01*
X016295Y020719D01*
X016295Y019908D01*
X016376Y019713D01*
X016525Y019564D01*
X016720Y019484D01*
X016930Y019484D01*
X017125Y019564D01*
X017274Y019713D01*
X017325Y019836D01*
X017376Y019713D01*
X017525Y019564D01*
X017720Y019484D01*
X017930Y019484D01*
X018125Y019564D01*
X018274Y019713D01*
X018325Y019836D01*
X018376Y019713D01*
X018525Y019564D01*
X018720Y019484D01*
X018930Y019484D01*
X019125Y019564D01*
X019274Y019713D01*
X019325Y019836D01*
X019376Y019713D01*
X019510Y019579D01*
X019494Y019579D01*
X019359Y019444D01*
X019359Y018858D01*
X019494Y018723D01*
X020081Y018723D01*
X020216Y018858D01*
X020216Y019016D01*
X020291Y019091D01*
X022659Y019091D01*
X023227Y018523D01*
X023227Y015030D01*
X022909Y014711D01*
X022601Y014711D01*
X022487Y014664D01*
X022112Y014289D01*
X022025Y014202D01*
X021977Y014088D01*
X021977Y011030D01*
X017902Y006954D01*
X017619Y006954D01*
X017484Y006819D01*
X017484Y006233D01*
X017619Y006098D01*
X018206Y006098D01*
X018341Y006300D02*
X040062Y006300D01*
X040062Y006458D02*
X018341Y006458D01*
X018441Y006617D02*
X040062Y006617D01*
X040062Y006775D02*
X018600Y006775D01*
X018758Y006934D02*
X040062Y006934D01*
X040065Y007092D02*
X018917Y007092D01*
X019075Y007251D02*
X040130Y007251D01*
X040271Y007409D02*
X019234Y007409D01*
X019392Y007568D02*
X045398Y007568D01*
X045248Y007409D02*
X040914Y007409D01*
X041055Y007251D02*
X041324Y007251D01*
X041350Y007276D02*
X041297Y007223D01*
X041256Y007161D01*
X041227Y007092D01*
X041212Y007019D01*
X041212Y006701D01*
X041572Y006701D01*
X041572Y006661D01*
X041212Y006661D01*
X041212Y006344D01*
X041227Y006270D01*
X041256Y006201D01*
X041297Y006139D01*
X041350Y006086D01*
X041412Y006044D01*
X041482Y006016D01*
X041555Y006001D01*
X041572Y006001D01*
X041572Y006661D01*
X041612Y006661D01*
X041612Y006001D01*
X041630Y006001D01*
X041703Y006016D01*
X041772Y006044D01*
X041835Y006086D01*
X041888Y006139D01*
X041929Y006201D01*
X041958Y006270D01*
X041972Y006344D01*
X041972Y006661D01*
X041612Y006661D01*
X041612Y006701D01*
X041572Y006701D01*
X041572Y007361D01*
X041555Y007361D01*
X041482Y007346D01*
X041412Y007318D01*
X041350Y007276D01*
X041227Y007092D02*
X041120Y007092D01*
X041122Y006934D02*
X041212Y006934D01*
X041212Y006775D02*
X041122Y006775D01*
X041122Y006617D02*
X041212Y006617D01*
X041212Y006458D02*
X041122Y006458D01*
X041122Y006300D02*
X041221Y006300D01*
X041296Y006141D02*
X041067Y006141D01*
X040943Y005983D02*
X045344Y005983D01*
X045217Y006141D02*
X041889Y006141D01*
X041964Y006300D02*
X045126Y006300D01*
X045077Y006458D02*
X041972Y006458D01*
X041972Y006617D02*
X045038Y006617D01*
X045038Y006775D02*
X041972Y006775D01*
X041972Y006701D02*
X041972Y007019D01*
X041958Y007092D01*
X041929Y007161D01*
X041888Y007223D01*
X041835Y007276D01*
X041772Y007318D01*
X041703Y007346D01*
X041630Y007361D01*
X041612Y007361D01*
X041612Y006701D01*
X041972Y006701D01*
X041972Y006934D02*
X045049Y006934D01*
X045092Y007092D02*
X041958Y007092D01*
X041860Y007251D02*
X045157Y007251D01*
X045623Y007726D02*
X019551Y007726D01*
X019709Y007885D02*
X066772Y007885D01*
X066772Y007970D02*
X066772Y007683D01*
X066847Y007405D01*
X066990Y007157D01*
X067193Y006954D01*
X067419Y006823D01*
X067181Y006686D01*
X066978Y006483D01*
X066834Y006234D01*
X066760Y005957D01*
X066760Y005670D01*
X066834Y005393D01*
X066978Y005144D01*
X067181Y004941D01*
X067429Y004798D01*
X067706Y004723D01*
X067993Y004723D01*
X068271Y004798D01*
X068519Y004941D01*
X068722Y005144D01*
X068866Y005393D01*
X068940Y005670D01*
X068940Y005957D01*
X068866Y006234D01*
X068722Y006483D01*
X068519Y006686D01*
X068294Y006816D01*
X068532Y006954D01*
X068735Y007157D01*
X068878Y007405D01*
X068953Y007683D01*
X068953Y007970D01*
X068878Y008247D01*
X068735Y008496D01*
X068532Y008699D01*
X068283Y008842D01*
X068006Y008916D01*
X067719Y008916D01*
X067442Y008842D01*
X067193Y008699D01*
X066990Y008496D01*
X066847Y008247D01*
X066772Y007970D01*
X066792Y008043D02*
X055651Y008043D01*
X055716Y008108D02*
X055581Y007973D01*
X054994Y007973D01*
X054859Y008108D01*
X054859Y008694D01*
X054977Y008813D01*
X054977Y011148D01*
X053527Y012598D01*
X053244Y012598D01*
X053109Y012733D01*
X053109Y013319D01*
X053244Y013454D01*
X053831Y013454D01*
X053966Y013319D01*
X053966Y013036D01*
X055550Y011452D01*
X055597Y011338D01*
X055597Y008813D01*
X055716Y008694D01*
X055716Y008108D01*
X055716Y008202D02*
X066834Y008202D01*
X066912Y008360D02*
X055716Y008360D01*
X055716Y008519D02*
X067013Y008519D01*
X067172Y008677D02*
X063163Y008677D01*
X063163Y008671D02*
X063163Y010128D01*
X063028Y010263D01*
X061572Y010263D01*
X061437Y010128D01*
X061437Y008671D01*
X061572Y008536D01*
X063028Y008536D01*
X063163Y008671D01*
X063163Y008836D02*
X067430Y008836D01*
X068295Y008836D02*
X071322Y008836D01*
X071322Y008994D02*
X063163Y008994D01*
X063163Y009153D02*
X071322Y009153D01*
X071298Y008677D02*
X071322Y008677D01*
X070387Y008677D02*
X068553Y008677D01*
X068712Y008519D02*
X070138Y008519D01*
X069980Y008360D02*
X068813Y008360D01*
X068891Y008202D02*
X069884Y008202D01*
X069811Y008043D02*
X068933Y008043D01*
X068953Y007885D02*
X069768Y007885D01*
X069752Y007726D02*
X068953Y007726D01*
X068922Y007568D02*
X069752Y007568D01*
X069787Y007409D02*
X068879Y007409D01*
X068789Y007251D02*
X069832Y007251D01*
X069924Y007092D02*
X068670Y007092D01*
X068497Y006934D02*
X070048Y006934D01*
X070231Y006775D02*
X068365Y006775D01*
X068589Y006617D02*
X070416Y006617D01*
X070257Y006458D02*
X068737Y006458D01*
X068828Y006300D02*
X070099Y006300D01*
X069940Y006141D02*
X068891Y006141D01*
X068933Y005983D02*
X069782Y005983D01*
X069623Y005824D02*
X068940Y005824D01*
X068939Y005666D02*
X069465Y005666D01*
X069306Y005507D02*
X068897Y005507D01*
X068840Y005349D02*
X069148Y005349D01*
X068989Y005190D02*
X068749Y005190D01*
X068831Y005032D02*
X068610Y005032D01*
X068672Y004873D02*
X068401Y004873D01*
X068514Y004715D02*
X061367Y004715D01*
X061367Y004873D02*
X067299Y004873D01*
X067090Y005032D02*
X061367Y005032D01*
X061364Y005190D02*
X066951Y005190D01*
X066860Y005349D02*
X061298Y005349D01*
X061156Y005507D02*
X066803Y005507D01*
X066761Y005666D02*
X060998Y005666D01*
X060839Y005824D02*
X066760Y005824D01*
X066767Y005983D02*
X053943Y005983D01*
X054067Y006141D02*
X066809Y006141D01*
X066872Y006300D02*
X054122Y006300D01*
X054122Y006458D02*
X066963Y006458D01*
X067111Y006617D02*
X054122Y006617D01*
X054122Y006775D02*
X067335Y006775D01*
X067228Y006934D02*
X054122Y006934D01*
X054120Y007092D02*
X067055Y007092D01*
X066936Y007251D02*
X054055Y007251D01*
X053914Y007409D02*
X066846Y007409D01*
X066803Y007568D02*
X046898Y007568D01*
X047048Y007409D02*
X050271Y007409D01*
X050130Y007251D02*
X047140Y007251D01*
X047205Y007092D02*
X050065Y007092D01*
X050062Y006934D02*
X047248Y006934D01*
X047258Y006775D02*
X050062Y006775D01*
X050062Y006617D02*
X047258Y006617D01*
X047220Y006458D02*
X050062Y006458D01*
X050062Y006300D02*
X047171Y006300D01*
X047080Y006141D02*
X050118Y006141D01*
X050242Y005983D02*
X046953Y005983D01*
X046674Y007726D02*
X066772Y007726D01*
X066530Y009311D02*
X063163Y009311D01*
X063163Y009470D02*
X066402Y009470D01*
X066402Y009628D02*
X063163Y009628D01*
X063163Y009787D02*
X066402Y009787D01*
X066402Y009945D02*
X063163Y009945D01*
X063163Y010104D02*
X066402Y010104D01*
X066402Y010262D02*
X063029Y010262D01*
X061571Y010262D02*
X055597Y010262D01*
X055597Y010104D02*
X061437Y010104D01*
X061437Y009945D02*
X055597Y009945D01*
X055597Y009787D02*
X061437Y009787D01*
X061437Y009628D02*
X055597Y009628D01*
X055597Y009470D02*
X061437Y009470D01*
X061437Y009311D02*
X055597Y009311D01*
X055597Y009153D02*
X061437Y009153D01*
X061437Y008994D02*
X055597Y008994D01*
X055597Y008836D02*
X061437Y008836D01*
X061437Y008677D02*
X055716Y008677D01*
X055287Y008401D02*
X055287Y011276D01*
X053537Y013026D01*
X053109Y012957D02*
X037591Y012957D01*
X037591Y012858D02*
X037456Y012723D01*
X036869Y012723D01*
X036751Y012841D01*
X033824Y012841D01*
X033706Y012723D01*
X033119Y012723D01*
X032984Y012858D01*
X032984Y013444D01*
X033119Y013579D01*
X033706Y013579D01*
X033824Y013461D01*
X036751Y013461D01*
X036869Y013579D01*
X037456Y013579D01*
X037591Y013444D01*
X037591Y012858D01*
X037531Y012798D02*
X053109Y012798D01*
X053203Y012640D02*
X024597Y012640D01*
X024597Y012798D02*
X033044Y012798D01*
X032984Y012957D02*
X024597Y012957D01*
X024597Y013115D02*
X032984Y013115D01*
X032984Y013274D02*
X024631Y013274D01*
X024597Y013240D02*
X024716Y013358D01*
X024716Y013944D01*
X024581Y014079D01*
X023994Y014079D01*
X023859Y013944D01*
X023859Y013358D01*
X023977Y013240D01*
X023977Y009813D01*
X023859Y009694D01*
X023859Y009108D01*
X023994Y008973D01*
X024581Y008973D01*
X024716Y009108D01*
X024716Y009694D01*
X024597Y009813D01*
X024597Y013240D01*
X024716Y013432D02*
X032984Y013432D01*
X033412Y013151D02*
X037162Y013151D01*
X037591Y013115D02*
X053109Y013115D01*
X053109Y013274D02*
X037591Y013274D01*
X037591Y013432D02*
X053222Y013432D01*
X053853Y013432D02*
X061479Y013432D01*
X061437Y013474D02*
X061572Y013340D01*
X063028Y013340D01*
X063163Y013474D01*
X063163Y014931D01*
X063028Y015066D01*
X061572Y015066D01*
X061437Y014931D01*
X061437Y013474D01*
X061437Y013591D02*
X024716Y013591D01*
X024716Y013749D02*
X026651Y013749D01*
X026548Y013809D02*
X026797Y013665D01*
X027074Y013591D01*
X027361Y013591D01*
X027638Y013665D01*
X027887Y013809D01*
X028090Y014012D01*
X028233Y014260D01*
X028308Y014538D01*
X028308Y014825D01*
X028233Y015102D01*
X028090Y015351D01*
X027887Y015554D01*
X027638Y015697D01*
X027361Y015771D01*
X027074Y015771D01*
X026797Y015697D01*
X026548Y015554D01*
X026345Y015351D01*
X026202Y015102D01*
X026127Y014825D01*
X026127Y014538D01*
X026202Y014260D01*
X026345Y014012D01*
X026548Y013809D01*
X026449Y013908D02*
X024716Y013908D01*
X024594Y014066D02*
X026314Y014066D01*
X026222Y014225D02*
X023299Y014225D01*
X023458Y014383D02*
X026169Y014383D01*
X026127Y014542D02*
X023616Y014542D01*
X023775Y014700D02*
X026127Y014700D01*
X026136Y014859D02*
X023847Y014859D01*
X023847Y015017D02*
X026179Y015017D01*
X026244Y015176D02*
X023847Y015176D01*
X023847Y015334D02*
X026336Y015334D01*
X026487Y015493D02*
X023847Y015493D01*
X023847Y015651D02*
X026717Y015651D01*
X026596Y015968D02*
X023847Y015968D01*
X023847Y015810D02*
X036144Y015810D01*
X036554Y016120D02*
X026882Y016120D01*
X025036Y017966D01*
X025036Y020774D01*
X024386Y021424D01*
X024386Y023582D01*
X023840Y024128D01*
X023840Y024811D01*
X023837Y024814D01*
X023347Y024844D02*
X023327Y024844D01*
X023327Y024686D02*
X023347Y024686D01*
X023347Y024527D02*
X023327Y024527D01*
X023327Y024456D02*
X023253Y024276D01*
X023115Y024138D01*
X022935Y024064D01*
X022740Y024064D01*
X022560Y024138D01*
X022422Y024276D01*
X022347Y024456D01*
X022347Y025171D01*
X022422Y025351D01*
X022560Y025489D01*
X022740Y025564D01*
X022935Y025564D01*
X023115Y025489D01*
X023253Y025351D01*
X023327Y025171D01*
X023327Y024456D01*
X023291Y024369D02*
X023384Y024369D01*
X023488Y024210D02*
X023187Y024210D01*
X023537Y024052D02*
X002130Y024052D01*
X002130Y024210D02*
X010488Y024210D01*
X010422Y024276D02*
X010560Y024138D01*
X010740Y024064D01*
X010935Y024064D01*
X011115Y024138D01*
X011253Y024276D01*
X011327Y024456D01*
X011327Y025171D01*
X011253Y025351D01*
X011115Y025489D01*
X010935Y025564D01*
X010740Y025564D01*
X010560Y025489D01*
X010422Y025351D01*
X010347Y025171D01*
X010347Y024456D01*
X010422Y024276D01*
X010384Y024369D02*
X002130Y024369D01*
X002130Y024527D02*
X010347Y024527D01*
X010347Y024686D02*
X002130Y024686D01*
X002130Y024844D02*
X010347Y024844D01*
X010347Y025003D02*
X002130Y025003D01*
X002130Y025161D02*
X010347Y025161D01*
X010409Y025320D02*
X002130Y025320D01*
X002130Y025478D02*
X010549Y025478D01*
X011126Y025478D02*
X011549Y025478D01*
X011560Y025489D02*
X011422Y025351D01*
X011347Y025171D01*
X011347Y024456D01*
X011422Y024276D01*
X011560Y024138D01*
X011740Y024064D01*
X011935Y024064D01*
X012115Y024138D01*
X012253Y024276D01*
X012327Y024456D01*
X012327Y025171D01*
X012253Y025351D01*
X012115Y025489D01*
X011935Y025564D01*
X011740Y025564D01*
X011560Y025489D01*
X011409Y025320D02*
X011266Y025320D01*
X011327Y025161D02*
X011347Y025161D01*
X011347Y025003D02*
X011327Y025003D01*
X011327Y024844D02*
X011347Y024844D01*
X011347Y024686D02*
X011327Y024686D01*
X011327Y024527D02*
X011347Y024527D01*
X011384Y024369D02*
X011291Y024369D01*
X011187Y024210D02*
X011488Y024210D01*
X012187Y024210D02*
X012488Y024210D01*
X012422Y024276D02*
X012560Y024138D01*
X012740Y024064D01*
X012935Y024064D01*
X013115Y024138D01*
X013253Y024276D01*
X013327Y024456D01*
X013327Y025171D01*
X013253Y025351D01*
X013115Y025489D01*
X012935Y025564D01*
X012740Y025564D01*
X012560Y025489D01*
X012422Y025351D01*
X012347Y025171D01*
X012347Y024456D01*
X012422Y024276D01*
X012384Y024369D02*
X012291Y024369D01*
X012327Y024527D02*
X012347Y024527D01*
X012347Y024686D02*
X012327Y024686D01*
X012327Y024844D02*
X012347Y024844D01*
X012347Y025003D02*
X012327Y025003D01*
X012327Y025161D02*
X012347Y025161D01*
X012409Y025320D02*
X012266Y025320D01*
X012126Y025478D02*
X012549Y025478D01*
X013126Y025478D02*
X013549Y025478D01*
X013560Y025489D02*
X013422Y025351D01*
X013347Y025171D01*
X013347Y024456D01*
X013422Y024276D01*
X013560Y024138D01*
X013740Y024064D01*
X013935Y024064D01*
X014115Y024138D01*
X014253Y024276D01*
X014327Y024456D01*
X014327Y025171D01*
X014253Y025351D01*
X014115Y025489D01*
X013935Y025564D01*
X013740Y025564D01*
X013560Y025489D01*
X013409Y025320D02*
X013266Y025320D01*
X013327Y025161D02*
X013347Y025161D01*
X013347Y025003D02*
X013327Y025003D01*
X013327Y024844D02*
X013347Y024844D01*
X013347Y024686D02*
X013327Y024686D01*
X013327Y024527D02*
X013347Y024527D01*
X013384Y024369D02*
X013291Y024369D01*
X013187Y024210D02*
X013488Y024210D01*
X014187Y024210D02*
X015488Y024210D01*
X015422Y024276D02*
X015560Y024138D01*
X015740Y024064D01*
X015935Y024064D01*
X016115Y024138D01*
X016253Y024276D01*
X016327Y024456D01*
X016327Y025171D01*
X016253Y025351D01*
X016115Y025489D01*
X015935Y025564D01*
X015740Y025564D01*
X015560Y025489D01*
X015422Y025351D01*
X015347Y025171D01*
X015347Y024456D01*
X015422Y024276D01*
X015384Y024369D02*
X015123Y024369D01*
X015139Y024393D02*
X015102Y024337D01*
X015054Y024290D01*
X014999Y024252D01*
X014937Y024227D01*
X014871Y024214D01*
X014837Y024214D01*
X014837Y024814D01*
X014837Y024814D01*
X014497Y024814D01*
X014497Y025107D01*
X014511Y025173D01*
X014536Y025235D01*
X014573Y025290D01*
X014621Y025338D01*
X014676Y025375D01*
X014738Y025401D01*
X014804Y025414D01*
X014837Y025414D01*
X014837Y024814D01*
X014837Y024814D01*
X014497Y024814D01*
X014497Y024520D01*
X014511Y024454D01*
X014536Y024393D01*
X014573Y024337D01*
X014621Y024290D01*
X014676Y024252D01*
X014738Y024227D01*
X014804Y024214D01*
X014837Y024214D01*
X014837Y024814D01*
X014837Y025414D01*
X014871Y025414D01*
X014937Y025401D01*
X014999Y025375D01*
X015054Y025338D01*
X015102Y025290D01*
X015139Y025235D01*
X015164Y025173D01*
X015177Y025107D01*
X015177Y024814D01*
X014837Y024814D01*
X014837Y024326D01*
X012912Y022401D01*
X012912Y021889D01*
X012837Y021814D01*
X012837Y021814D01*
X012497Y021814D01*
X012497Y022107D01*
X012511Y022173D01*
X012536Y022235D01*
X012573Y022290D01*
X012621Y022338D01*
X012676Y022375D01*
X012738Y022401D01*
X012804Y022414D01*
X012837Y022414D01*
X012837Y021814D01*
X012837Y021814D01*
X012497Y021814D01*
X012497Y021520D01*
X012511Y021454D01*
X012536Y021393D01*
X012573Y021337D01*
X012621Y021290D01*
X012676Y021252D01*
X012738Y021227D01*
X012804Y021214D01*
X012837Y021214D01*
X012837Y021814D01*
X012837Y022414D01*
X012871Y022414D01*
X012937Y022401D01*
X012999Y022375D01*
X013054Y022338D01*
X013102Y022290D01*
X013139Y022235D01*
X013164Y022173D01*
X013177Y022107D01*
X013177Y021814D01*
X012837Y021814D01*
X012837Y021814D01*
X012837Y021814D01*
X012837Y021214D01*
X012871Y021214D01*
X012937Y021227D01*
X012999Y021252D01*
X013054Y021290D01*
X013102Y021337D01*
X013139Y021393D01*
X013164Y021454D01*
X013177Y021520D01*
X013177Y021814D01*
X012837Y021814D01*
X012837Y021833D02*
X012837Y021833D01*
X012837Y021991D02*
X012837Y021991D01*
X012837Y022150D02*
X012837Y022150D01*
X012837Y022308D02*
X012837Y022308D01*
X012591Y022308D02*
X012084Y022308D01*
X012102Y022290D02*
X012054Y022338D01*
X011999Y022375D01*
X011937Y022401D01*
X011871Y022414D01*
X011837Y022414D01*
X011804Y022414D01*
X011738Y022401D01*
X011676Y022375D01*
X011621Y022338D01*
X011573Y022290D01*
X011536Y022235D01*
X011511Y022173D01*
X011497Y022107D01*
X011497Y021814D01*
X011837Y021814D01*
X011837Y021814D01*
X011837Y022414D01*
X011837Y021814D01*
X011837Y021814D01*
X011497Y021814D01*
X011497Y021520D01*
X011511Y021454D01*
X011536Y021393D01*
X011573Y021337D01*
X011621Y021290D01*
X011676Y021252D01*
X011738Y021227D01*
X011804Y021214D01*
X011837Y021214D01*
X011837Y021814D01*
X011837Y021814D01*
X012177Y021814D01*
X012177Y022107D01*
X012164Y022173D01*
X012139Y022235D01*
X012102Y022290D01*
X012169Y022150D02*
X012506Y022150D01*
X012497Y021991D02*
X012177Y021991D01*
X012177Y021833D02*
X012497Y021833D01*
X012497Y021674D02*
X012177Y021674D01*
X012177Y021814D02*
X012177Y021520D01*
X012164Y021454D01*
X012139Y021393D01*
X012102Y021337D01*
X012054Y021290D01*
X011999Y021252D01*
X011937Y021227D01*
X011871Y021214D01*
X011837Y021214D01*
X011837Y021814D01*
X011837Y021814D01*
X012177Y021814D01*
X012177Y021516D02*
X012498Y021516D01*
X012560Y021357D02*
X012115Y021357D01*
X011837Y021357D02*
X011837Y021357D01*
X011837Y021516D02*
X011837Y021516D01*
X011837Y021674D02*
X011837Y021674D01*
X011837Y021833D02*
X011837Y021833D01*
X011837Y021991D02*
X011837Y021991D01*
X011837Y022150D02*
X011837Y022150D01*
X011837Y022308D02*
X011837Y022308D01*
X011591Y022308D02*
X011084Y022308D01*
X011102Y022290D02*
X011054Y022338D01*
X010999Y022375D01*
X010937Y022401D01*
X010871Y022414D01*
X010837Y022414D01*
X010804Y022414D01*
X010738Y022401D01*
X010676Y022375D01*
X010621Y022338D01*
X010573Y022290D01*
X010536Y022235D01*
X010511Y022173D01*
X010497Y022107D01*
X010497Y021814D01*
X010837Y021814D01*
X010837Y021814D01*
X010837Y022414D01*
X010837Y021814D01*
X010837Y021814D01*
X010497Y021814D01*
X010497Y021520D01*
X010511Y021454D01*
X010536Y021393D01*
X010573Y021337D01*
X010621Y021290D01*
X010676Y021252D01*
X010738Y021227D01*
X010804Y021214D01*
X010837Y021214D01*
X010837Y021814D01*
X010837Y021814D01*
X011177Y021814D01*
X011177Y022107D01*
X011164Y022173D01*
X011139Y022235D01*
X011102Y022290D01*
X011169Y022150D02*
X011506Y022150D01*
X011497Y021991D02*
X011177Y021991D01*
X011177Y021833D02*
X011497Y021833D01*
X011497Y021674D02*
X011177Y021674D01*
X011177Y021814D02*
X011177Y021520D01*
X011164Y021454D01*
X011139Y021393D01*
X011102Y021337D01*
X011054Y021290D01*
X010999Y021252D01*
X010937Y021227D01*
X010871Y021214D01*
X010837Y021214D01*
X010837Y021814D01*
X010837Y021814D01*
X011177Y021814D01*
X011177Y021516D02*
X011498Y021516D01*
X011560Y021357D02*
X011115Y021357D01*
X010837Y021357D02*
X010837Y021357D01*
X010837Y021516D02*
X010837Y021516D01*
X010837Y021674D02*
X010837Y021674D01*
X010837Y021833D02*
X010837Y021833D01*
X010837Y021991D02*
X010837Y021991D01*
X010837Y022150D02*
X010837Y022150D01*
X010837Y022308D02*
X010837Y022308D01*
X010591Y022308D02*
X002130Y022308D01*
X002130Y022150D02*
X010506Y022150D01*
X010497Y021991D02*
X002130Y021991D01*
X002130Y021833D02*
X010497Y021833D01*
X010497Y021674D02*
X002130Y021674D01*
X002130Y021516D02*
X010498Y021516D01*
X010560Y021357D02*
X002130Y021357D01*
X002130Y021199D02*
X013500Y021199D01*
X013560Y021138D02*
X013740Y021064D01*
X013935Y021064D01*
X014115Y021138D01*
X014253Y021276D01*
X014327Y021456D01*
X014327Y022171D01*
X014253Y022351D01*
X014115Y022489D01*
X013935Y022564D01*
X013740Y022564D01*
X013560Y022489D01*
X013422Y022351D01*
X013347Y022171D01*
X013347Y021456D01*
X013422Y021276D01*
X013560Y021138D01*
X013389Y021357D02*
X013115Y021357D01*
X013177Y021516D02*
X013347Y021516D01*
X013347Y021674D02*
X013177Y021674D01*
X013177Y021833D02*
X013347Y021833D01*
X013347Y021991D02*
X013177Y021991D01*
X013169Y022150D02*
X013347Y022150D01*
X013404Y022308D02*
X013084Y022308D01*
X013537Y022467D02*
X002130Y022467D01*
X002130Y022625D02*
X024076Y022625D01*
X024076Y022784D02*
X002130Y022784D01*
X002130Y022942D02*
X024076Y022942D01*
X024076Y023101D02*
X002130Y023101D01*
X002130Y023259D02*
X024076Y023259D01*
X024076Y023418D02*
X002130Y023418D01*
X002130Y023576D02*
X023954Y023576D01*
X023796Y023735D02*
X002130Y023735D01*
X002130Y023893D02*
X023637Y023893D01*
X024197Y024210D02*
X028235Y024210D01*
X028236Y024052D02*
X024355Y024052D01*
X024514Y023893D02*
X028236Y023893D01*
X028236Y023735D02*
X024659Y023735D01*
X024696Y023576D02*
X028236Y023576D01*
X028237Y023418D02*
X024696Y023418D01*
X024696Y023259D02*
X028237Y023259D01*
X028237Y023101D02*
X024696Y023101D01*
X024696Y022942D02*
X028237Y022942D01*
X028238Y022784D02*
X024696Y022784D01*
X024696Y022625D02*
X028238Y022625D01*
X028238Y022467D02*
X024696Y022467D01*
X025148Y022308D02*
X025639Y022308D01*
X025697Y022366D02*
X025410Y022079D01*
X025410Y021673D01*
X025697Y021386D01*
X026103Y021386D01*
X026390Y021673D01*
X026390Y022079D01*
X026103Y022366D01*
X025697Y022366D01*
X025480Y022150D02*
X025307Y022150D01*
X025390Y021991D02*
X025410Y021991D01*
X025410Y021833D02*
X025390Y021833D01*
X025390Y021674D02*
X025410Y021674D01*
X025568Y021516D02*
X025245Y021516D01*
X025050Y021199D02*
X028240Y021199D01*
X028240Y021357D02*
X024892Y021357D01*
X025209Y021040D02*
X025780Y021040D01*
X025768Y021035D02*
X025591Y020858D01*
X025495Y020626D01*
X025495Y020376D01*
X025591Y020144D01*
X025768Y019967D01*
X026000Y019871D01*
X026024Y019871D01*
X026013Y019869D01*
X025941Y019846D01*
X025873Y019812D01*
X025812Y019767D01*
X025759Y019714D01*
X025714Y019653D01*
X025680Y019585D01*
X025657Y019514D01*
X025645Y019439D01*
X025645Y019421D01*
X026105Y019421D01*
X026105Y019381D01*
X026145Y019381D01*
X026145Y018921D01*
X026163Y018921D01*
X026237Y018933D01*
X026309Y018956D01*
X026377Y018991D01*
X026438Y019035D01*
X026491Y019088D01*
X026535Y019150D01*
X026570Y019217D01*
X026593Y019289D01*
X026605Y019363D01*
X026605Y019381D01*
X026145Y019381D01*
X026145Y019421D01*
X026605Y019421D01*
X026605Y019439D01*
X026593Y019514D01*
X026570Y019585D01*
X026535Y019653D01*
X026491Y019714D01*
X026438Y019767D01*
X026377Y019812D01*
X026309Y019846D01*
X026237Y019869D01*
X026226Y019871D01*
X026250Y019871D01*
X026482Y019967D01*
X026659Y020144D01*
X026755Y020376D01*
X026755Y020626D01*
X026659Y020858D01*
X026482Y021035D01*
X026250Y021131D01*
X026000Y021131D01*
X025768Y021035D01*
X025614Y020882D02*
X025328Y020882D01*
X025346Y020723D02*
X025535Y020723D01*
X025495Y020565D02*
X025346Y020565D01*
X025346Y020406D02*
X025495Y020406D01*
X025548Y020248D02*
X025346Y020248D01*
X025346Y020089D02*
X025646Y020089D01*
X025856Y019931D02*
X025346Y019931D01*
X025346Y019772D02*
X025819Y019772D01*
X025694Y019614D02*
X025346Y019614D01*
X025346Y019455D02*
X025648Y019455D01*
X025645Y019381D02*
X025645Y019363D01*
X025657Y019289D01*
X025680Y019217D01*
X025714Y019150D01*
X025759Y019088D01*
X025812Y019035D01*
X025873Y018991D01*
X025941Y018956D01*
X026013Y018933D01*
X026087Y018921D01*
X026105Y018921D01*
X026105Y019381D01*
X025645Y019381D01*
X025656Y019297D02*
X025346Y019297D01*
X025346Y019138D02*
X025723Y019138D01*
X025895Y018980D02*
X025346Y018980D01*
X025346Y018821D02*
X028244Y018821D01*
X028244Y018663D02*
X025346Y018663D01*
X025346Y018504D02*
X028244Y018504D01*
X028244Y018346D02*
X025346Y018346D01*
X025346Y018187D02*
X028245Y018187D01*
X028245Y018029D02*
X025412Y018029D01*
X025571Y017870D02*
X028245Y017870D01*
X028245Y017820D02*
X028245Y017820D01*
X028290Y017712D02*
X025729Y017712D01*
X025888Y017553D02*
X028398Y017553D01*
X026900Y018226D02*
X026900Y020239D01*
X027925Y021264D01*
X027925Y028001D01*
X027512Y028414D01*
X027507Y028421D02*
X027867Y028421D01*
X027867Y028439D01*
X027852Y028512D01*
X027824Y028581D01*
X027782Y028644D01*
X027729Y028697D01*
X027667Y028738D01*
X027598Y028767D01*
X027524Y028781D01*
X027507Y028781D01*
X027507Y028421D01*
X027507Y028381D01*
X027507Y028021D01*
X027524Y028021D01*
X027598Y028036D01*
X027667Y028065D01*
X027729Y028106D01*
X027782Y028159D01*
X027824Y028221D01*
X027852Y028291D01*
X027867Y028364D01*
X027867Y028381D01*
X027507Y028381D01*
X027467Y028381D01*
X027467Y028021D01*
X027450Y028021D01*
X027376Y028036D01*
X027307Y028065D01*
X027245Y028106D01*
X027192Y028159D01*
X027150Y028221D01*
X027122Y028291D01*
X027107Y028364D01*
X027107Y028381D01*
X027467Y028381D01*
X027467Y028421D01*
X027107Y028421D01*
X027107Y028439D01*
X027122Y028512D01*
X027150Y028581D01*
X027192Y028644D01*
X027245Y028697D01*
X027307Y028738D01*
X027376Y028767D01*
X027450Y028781D01*
X027467Y028781D01*
X027467Y028421D01*
X027507Y028421D01*
X027507Y028490D02*
X027467Y028490D01*
X027467Y028648D02*
X027507Y028648D01*
X027778Y028648D02*
X028229Y028648D01*
X028229Y028490D02*
X027857Y028490D01*
X027860Y028331D02*
X028229Y028331D01*
X028229Y028173D02*
X027791Y028173D01*
X027507Y028173D02*
X027467Y028173D01*
X027467Y028331D02*
X027507Y028331D01*
X027183Y028173D02*
X026966Y028173D01*
X027017Y028331D02*
X027114Y028331D01*
X027117Y028490D02*
X027017Y028490D01*
X026958Y028648D02*
X027196Y028648D01*
X026831Y028807D02*
X028228Y028807D01*
X028230Y028014D02*
X026849Y028014D01*
X026125Y028014D02*
X025849Y028014D01*
X025966Y028173D02*
X026008Y028173D01*
X025125Y028014D02*
X024849Y028014D01*
X024966Y028173D02*
X025008Y028173D01*
X024125Y028014D02*
X023849Y028014D01*
X023966Y028173D02*
X024008Y028173D01*
X023125Y028014D02*
X022849Y028014D01*
X022966Y028173D02*
X023008Y028173D01*
X022125Y028014D02*
X021849Y028014D01*
X021966Y028173D02*
X022008Y028173D01*
X021125Y028014D02*
X020849Y028014D01*
X020966Y028173D02*
X021008Y028173D01*
X020125Y028014D02*
X019849Y028014D01*
X019966Y028173D02*
X020008Y028173D01*
X019125Y028014D02*
X018849Y028014D01*
X018966Y028173D02*
X019008Y028173D01*
X018125Y028014D02*
X017849Y028014D01*
X017966Y028173D02*
X018008Y028173D01*
X017125Y028014D02*
X016849Y028014D01*
X016966Y028173D02*
X017008Y028173D01*
X016125Y028014D02*
X015849Y028014D01*
X015966Y028173D02*
X016008Y028173D01*
X015125Y028014D02*
X014849Y028014D01*
X014966Y028173D02*
X015008Y028173D01*
X014125Y028014D02*
X013849Y028014D01*
X013966Y028173D02*
X014008Y028173D01*
X013125Y028014D02*
X010580Y028014D01*
X010622Y028173D02*
X012107Y028173D01*
X012107Y028085D02*
X012119Y028056D01*
X012142Y028034D01*
X012171Y028021D01*
X012467Y028021D01*
X012467Y028381D01*
X012507Y028381D01*
X012507Y028021D01*
X012803Y028021D01*
X012832Y028034D01*
X012855Y028056D01*
X012867Y028085D01*
X012867Y028381D01*
X012507Y028381D01*
X012507Y028421D01*
X012867Y028421D01*
X012867Y028717D01*
X012855Y028747D01*
X012832Y028769D01*
X012803Y028781D01*
X012507Y028781D01*
X012507Y028421D01*
X012467Y028421D01*
X012467Y028381D01*
X012107Y028381D01*
X012107Y028085D01*
X012107Y028331D02*
X010644Y028331D01*
X010644Y028490D02*
X012107Y028490D01*
X012107Y028421D02*
X012467Y028421D01*
X012467Y028781D01*
X012171Y028781D01*
X012142Y028769D01*
X012119Y028747D01*
X012107Y028717D01*
X012107Y028421D01*
X012107Y028648D02*
X010617Y028648D01*
X010575Y028807D02*
X013143Y028807D01*
X013015Y028648D02*
X012867Y028648D01*
X012867Y028490D02*
X012957Y028490D01*
X012957Y028331D02*
X012867Y028331D01*
X012867Y028173D02*
X013008Y028173D01*
X012507Y028173D02*
X012467Y028173D01*
X012467Y028331D02*
X012507Y028331D01*
X012507Y028490D02*
X012467Y028490D01*
X012467Y028648D02*
X012507Y028648D01*
X010501Y027856D02*
X028230Y027856D01*
X028230Y027697D02*
X010400Y027697D01*
X010241Y027539D02*
X028230Y027539D01*
X028231Y027380D02*
X009985Y027380D01*
X009083Y027380D02*
X009058Y027380D01*
X009040Y027222D02*
X028231Y027222D01*
X028231Y027063D02*
X014843Y027063D01*
X014803Y027104D02*
X014397Y027104D01*
X014110Y026817D01*
X014110Y026411D01*
X014397Y026124D01*
X014803Y026124D01*
X015090Y026411D01*
X015090Y026817D01*
X014803Y027104D01*
X015002Y026905D02*
X028231Y026905D01*
X028232Y026746D02*
X015090Y026746D01*
X015090Y026588D02*
X028232Y026588D01*
X028232Y026429D02*
X015090Y026429D01*
X014950Y026271D02*
X028232Y026271D01*
X028233Y026112D02*
X002130Y026112D01*
X002130Y025954D02*
X028233Y025954D01*
X028233Y025795D02*
X002130Y025795D01*
X002130Y025637D02*
X028233Y025637D01*
X028233Y025478D02*
X024126Y025478D01*
X024266Y025320D02*
X024663Y025320D01*
X024697Y025354D02*
X024410Y025067D01*
X024410Y024661D01*
X024697Y024374D01*
X025103Y024374D01*
X025390Y024661D01*
X025390Y025067D01*
X025103Y025354D01*
X024697Y025354D01*
X024504Y025161D02*
X024327Y025161D01*
X024327Y025003D02*
X024410Y025003D01*
X024410Y024844D02*
X024327Y024844D01*
X024327Y024686D02*
X024410Y024686D01*
X024327Y024527D02*
X024544Y024527D01*
X024291Y024369D02*
X028235Y024369D01*
X028235Y024527D02*
X027219Y024527D01*
X027090Y024399D02*
X027377Y024686D01*
X028235Y024686D01*
X028234Y024844D02*
X027377Y024844D01*
X027377Y024686D02*
X027377Y025092D01*
X027090Y025379D01*
X026685Y025379D01*
X026397Y025092D01*
X026397Y024686D01*
X026685Y024399D01*
X027090Y024399D01*
X026556Y024527D02*
X026244Y024527D01*
X026103Y024386D02*
X026390Y024673D01*
X026390Y025079D01*
X026103Y025366D01*
X025697Y025366D01*
X025410Y025079D01*
X025410Y024673D01*
X025697Y024386D01*
X026103Y024386D01*
X026390Y024686D02*
X026398Y024686D01*
X026390Y024844D02*
X026397Y024844D01*
X026390Y025003D02*
X026397Y025003D01*
X026467Y025161D02*
X026308Y025161D01*
X026149Y025320D02*
X026625Y025320D01*
X027149Y025320D02*
X028234Y025320D01*
X028234Y025161D02*
X027308Y025161D01*
X027377Y025003D02*
X028234Y025003D01*
X025650Y025320D02*
X025137Y025320D01*
X025295Y025161D02*
X025492Y025161D01*
X025410Y025003D02*
X025390Y025003D01*
X025390Y024844D02*
X025410Y024844D01*
X025410Y024686D02*
X025390Y024686D01*
X025256Y024527D02*
X025556Y024527D01*
X023549Y025478D02*
X023126Y025478D01*
X023266Y025320D02*
X023409Y025320D01*
X023347Y025161D02*
X023327Y025161D01*
X023327Y025003D02*
X023347Y025003D01*
X022549Y025478D02*
X022126Y025478D01*
X022115Y025489D02*
X021935Y025564D01*
X021740Y025564D01*
X021560Y025489D01*
X021422Y025351D01*
X021347Y025171D01*
X021347Y024456D01*
X021422Y024276D01*
X021560Y024138D01*
X021740Y024064D01*
X021935Y024064D01*
X022115Y024138D01*
X022253Y024276D01*
X022327Y024456D01*
X022327Y025171D01*
X022253Y025351D01*
X022115Y025489D01*
X022266Y025320D02*
X022409Y025320D01*
X022347Y025161D02*
X022327Y025161D01*
X022327Y025003D02*
X022347Y025003D01*
X022347Y024844D02*
X022327Y024844D01*
X022327Y024686D02*
X022347Y024686D01*
X022347Y024527D02*
X022327Y024527D01*
X022291Y024369D02*
X022384Y024369D01*
X022488Y024210D02*
X022187Y024210D01*
X021488Y024210D02*
X021187Y024210D01*
X021253Y024276D02*
X021327Y024456D01*
X021327Y025171D01*
X021253Y025351D01*
X021115Y025489D01*
X020935Y025564D01*
X020740Y025564D01*
X020560Y025489D01*
X020422Y025351D01*
X020347Y025171D01*
X020347Y024456D01*
X020422Y024276D01*
X020560Y024138D01*
X020740Y024064D01*
X020935Y024064D01*
X021115Y024138D01*
X021253Y024276D01*
X021291Y024369D02*
X021384Y024369D01*
X021347Y024527D02*
X021327Y024527D01*
X021327Y024686D02*
X021347Y024686D01*
X021347Y024844D02*
X021327Y024844D01*
X021327Y025003D02*
X021347Y025003D01*
X021347Y025161D02*
X021327Y025161D01*
X021266Y025320D02*
X021409Y025320D01*
X021549Y025478D02*
X021126Y025478D01*
X020549Y025478D02*
X020126Y025478D01*
X020115Y025489D02*
X020253Y025351D01*
X020327Y025171D01*
X020327Y024456D01*
X020253Y024276D01*
X020115Y024138D01*
X019935Y024064D01*
X019740Y024064D01*
X019560Y024138D01*
X019422Y024276D01*
X019347Y024456D01*
X019347Y025171D01*
X019422Y025351D01*
X019560Y025489D01*
X019740Y025564D01*
X019935Y025564D01*
X020115Y025489D01*
X020266Y025320D02*
X020409Y025320D01*
X020347Y025161D02*
X020327Y025161D01*
X020327Y025003D02*
X020347Y025003D01*
X020347Y024844D02*
X020327Y024844D01*
X020327Y024686D02*
X020347Y024686D01*
X020347Y024527D02*
X020327Y024527D01*
X020291Y024369D02*
X020384Y024369D01*
X020488Y024210D02*
X020187Y024210D01*
X019488Y024210D02*
X019187Y024210D01*
X019253Y024276D02*
X019327Y024456D01*
X019327Y025171D01*
X019253Y025351D01*
X019115Y025489D01*
X018935Y025564D01*
X018740Y025564D01*
X018560Y025489D01*
X018422Y025351D01*
X018347Y025171D01*
X018347Y024456D01*
X018422Y024276D01*
X018560Y024138D01*
X018740Y024064D01*
X018935Y024064D01*
X019115Y024138D01*
X019253Y024276D01*
X019291Y024369D02*
X019384Y024369D01*
X019347Y024527D02*
X019327Y024527D01*
X019327Y024686D02*
X019347Y024686D01*
X019347Y024844D02*
X019327Y024844D01*
X019327Y025003D02*
X019347Y025003D01*
X019347Y025161D02*
X019327Y025161D01*
X019266Y025320D02*
X019409Y025320D01*
X019549Y025478D02*
X019126Y025478D01*
X018549Y025478D02*
X018126Y025478D01*
X018115Y025489D02*
X017935Y025564D01*
X017740Y025564D01*
X017560Y025489D01*
X017422Y025351D01*
X017347Y025171D01*
X017347Y024456D01*
X017422Y024276D01*
X017560Y024138D01*
X017740Y024064D01*
X017935Y024064D01*
X018115Y024138D01*
X018253Y024276D01*
X018327Y024456D01*
X018327Y025171D01*
X018253Y025351D01*
X018115Y025489D01*
X018266Y025320D02*
X018409Y025320D01*
X018347Y025161D02*
X018327Y025161D01*
X018327Y025003D02*
X018347Y025003D01*
X018347Y024844D02*
X018327Y024844D01*
X018327Y024686D02*
X018347Y024686D01*
X018347Y024527D02*
X018327Y024527D01*
X018291Y024369D02*
X018384Y024369D01*
X018488Y024210D02*
X018187Y024210D01*
X017488Y024210D02*
X017187Y024210D01*
X017253Y024276D02*
X017327Y024456D01*
X017327Y025171D01*
X017253Y025351D01*
X017115Y025489D01*
X016935Y025564D01*
X016740Y025564D01*
X016560Y025489D01*
X016422Y025351D01*
X016347Y025171D01*
X016347Y024456D01*
X016422Y024276D01*
X016560Y024138D01*
X016740Y024064D01*
X016935Y024064D01*
X017115Y024138D01*
X017253Y024276D01*
X017291Y024369D02*
X017384Y024369D01*
X017347Y024527D02*
X017327Y024527D01*
X017327Y024686D02*
X017347Y024686D01*
X017347Y024844D02*
X017327Y024844D01*
X017327Y025003D02*
X017347Y025003D01*
X017347Y025161D02*
X017327Y025161D01*
X017266Y025320D02*
X017409Y025320D01*
X017549Y025478D02*
X017126Y025478D01*
X016549Y025478D02*
X016126Y025478D01*
X016266Y025320D02*
X016409Y025320D01*
X016347Y025161D02*
X016327Y025161D01*
X016327Y025003D02*
X016347Y025003D01*
X016347Y024844D02*
X016327Y024844D01*
X016327Y024686D02*
X016347Y024686D01*
X016347Y024527D02*
X016327Y024527D01*
X016291Y024369D02*
X016384Y024369D01*
X016488Y024210D02*
X016187Y024210D01*
X015347Y024527D02*
X015177Y024527D01*
X015177Y024520D02*
X015177Y024814D01*
X014837Y024814D01*
X014837Y024814D01*
X014837Y024814D01*
X014837Y024844D02*
X014837Y024844D01*
X014837Y024686D02*
X014837Y024686D01*
X014837Y024527D02*
X014837Y024527D01*
X014837Y024369D02*
X014837Y024369D01*
X014552Y024369D02*
X014291Y024369D01*
X014327Y024527D02*
X014497Y024527D01*
X014497Y024686D02*
X014327Y024686D01*
X014327Y024844D02*
X014497Y024844D01*
X014497Y025003D02*
X014327Y025003D01*
X014327Y025161D02*
X014508Y025161D01*
X014603Y025320D02*
X014266Y025320D01*
X014126Y025478D02*
X015549Y025478D01*
X015409Y025320D02*
X015072Y025320D01*
X015167Y025161D02*
X015347Y025161D01*
X015347Y025003D02*
X015177Y025003D01*
X015177Y024844D02*
X015347Y024844D01*
X015347Y024686D02*
X015177Y024686D01*
X015177Y024520D02*
X015164Y024454D01*
X015139Y024393D01*
X014837Y025003D02*
X014837Y025003D01*
X014837Y025161D02*
X014837Y025161D01*
X014837Y025320D02*
X014837Y025320D01*
X014250Y026271D02*
X011950Y026271D01*
X012090Y026411D02*
X011803Y026124D01*
X011397Y026124D01*
X011110Y026411D01*
X011110Y026817D01*
X011397Y027104D01*
X011803Y027104D01*
X012090Y026817D01*
X012090Y026411D01*
X012090Y026429D02*
X014110Y026429D01*
X014110Y026588D02*
X012090Y026588D01*
X012090Y026746D02*
X014110Y026746D01*
X014198Y026905D02*
X012002Y026905D01*
X011843Y027063D02*
X014356Y027063D01*
X011356Y027063D02*
X008998Y027063D01*
X008922Y026905D02*
X011198Y026905D01*
X011110Y026746D02*
X008824Y026746D01*
X008666Y026588D02*
X011110Y026588D01*
X011110Y026429D02*
X008412Y026429D01*
X007523Y026429D02*
X002130Y026429D01*
X002130Y026271D02*
X011250Y026271D01*
X007269Y026588D02*
X002130Y026588D01*
X002130Y026746D02*
X007111Y026746D01*
X007013Y026905D02*
X002130Y026905D01*
X002130Y027063D02*
X006937Y027063D01*
X006895Y027222D02*
X002130Y027222D01*
X002130Y027380D02*
X002303Y027380D01*
X002882Y027380D02*
X006877Y027380D01*
X006877Y027539D02*
X003227Y027539D01*
X003400Y027697D02*
X006910Y027697D01*
X006954Y027856D02*
X003519Y027856D01*
X003609Y028014D02*
X007045Y028014D01*
X007167Y028173D02*
X003652Y028173D01*
X003683Y028331D02*
X007346Y028331D01*
X007705Y028490D02*
X003683Y028490D01*
X003663Y028648D02*
X008451Y028648D01*
X008424Y028490D02*
X008230Y028490D01*
X008494Y028807D02*
X003621Y028807D01*
X014137Y022467D02*
X014537Y022467D01*
X014560Y022489D02*
X014422Y022351D01*
X014347Y022171D01*
X014347Y021456D01*
X014422Y021276D01*
X014560Y021138D01*
X014740Y021064D01*
X014935Y021064D01*
X015115Y021138D01*
X015253Y021276D01*
X015327Y021456D01*
X015327Y022171D01*
X015253Y022351D01*
X015115Y022489D01*
X014935Y022564D01*
X014740Y022564D01*
X014560Y022489D01*
X014404Y022308D02*
X014271Y022308D01*
X014327Y022150D02*
X014347Y022150D01*
X014347Y021991D02*
X014327Y021991D01*
X014327Y021833D02*
X014347Y021833D01*
X014347Y021674D02*
X014327Y021674D01*
X014327Y021516D02*
X014347Y021516D01*
X014389Y021357D02*
X014286Y021357D01*
X014175Y021199D02*
X014500Y021199D01*
X014294Y020835D02*
X014063Y020931D01*
X013812Y020931D01*
X013581Y020835D01*
X013403Y020658D01*
X013307Y020426D01*
X013307Y020402D01*
X013306Y020414D01*
X013282Y020485D01*
X013248Y020553D01*
X013204Y020614D01*
X013150Y020667D01*
X013089Y020712D01*
X013022Y020746D01*
X012950Y020769D01*
X012875Y020781D01*
X012857Y020781D01*
X012857Y020321D01*
X012817Y020321D01*
X012817Y020281D01*
X012357Y020281D01*
X012357Y020263D01*
X012369Y020189D01*
X012393Y020117D01*
X012427Y020050D01*
X012471Y019988D01*
X012525Y019935D01*
X012586Y019891D01*
X012653Y019856D01*
X012725Y019833D01*
X012800Y019821D01*
X012817Y019821D01*
X012817Y020281D01*
X012857Y020281D01*
X012857Y019821D01*
X012875Y019821D01*
X012950Y019833D01*
X013022Y019856D01*
X013088Y019890D01*
X012553Y019355D01*
X005423Y019355D01*
X005309Y019308D01*
X005222Y019221D01*
X004897Y018896D01*
X004849Y018782D01*
X004849Y016331D01*
X004897Y016218D01*
X004984Y016130D01*
X005616Y015498D01*
X005730Y015451D01*
X007326Y015451D01*
X007326Y014219D01*
X007339Y014206D01*
X007326Y014193D01*
X007326Y013274D01*
X007461Y013139D01*
X008242Y013139D01*
X008377Y013274D01*
X008377Y014193D01*
X008364Y014206D01*
X008377Y014219D01*
X008377Y014585D01*
X009159Y014585D01*
X009273Y014632D01*
X009482Y014841D01*
X010599Y014841D01*
X010713Y014888D01*
X010800Y014976D01*
X011041Y015216D01*
X011376Y015216D01*
X011494Y015098D01*
X012081Y015098D01*
X012216Y015233D01*
X012216Y015716D01*
X017409Y015716D01*
X017617Y015508D01*
X017547Y015439D01*
X017472Y015259D01*
X017472Y014544D01*
X017547Y014364D01*
X017685Y014226D01*
X017865Y014151D01*
X018060Y014151D01*
X018240Y014226D01*
X018378Y014364D01*
X018452Y014544D01*
X018452Y015259D01*
X018378Y015439D01*
X018272Y015544D01*
X018272Y015663D01*
X018250Y015716D01*
X019034Y015716D01*
X019127Y015623D01*
X019060Y015651D01*
X019099Y015651D01*
X019060Y015651D02*
X018865Y015651D01*
X018685Y015577D01*
X018547Y015439D01*
X018472Y015259D01*
X018472Y014544D01*
X018547Y014364D01*
X018685Y014226D01*
X018865Y014151D01*
X019060Y014151D01*
X019240Y014226D01*
X019378Y014364D01*
X019452Y014544D01*
X019452Y015259D01*
X019425Y015325D01*
X019478Y015272D01*
X019472Y015259D01*
X019472Y014544D01*
X019547Y014364D01*
X019685Y014226D01*
X019865Y014151D01*
X020060Y014151D01*
X020240Y014226D01*
X020378Y014364D01*
X020452Y014544D01*
X020452Y015259D01*
X020378Y015439D01*
X020240Y015577D01*
X020060Y015651D01*
X020865Y015651D01*
X020685Y015577D01*
X020547Y015439D01*
X020472Y015259D01*
X020472Y014544D01*
X020547Y014364D01*
X020685Y014226D01*
X020865Y014151D01*
X021060Y014151D01*
X021240Y014226D01*
X021378Y014364D01*
X021452Y014544D01*
X021452Y015259D01*
X021378Y015439D01*
X021240Y015577D01*
X021060Y015651D01*
X023227Y015651D01*
X023227Y015493D02*
X021324Y015493D01*
X021421Y015334D02*
X023227Y015334D01*
X023227Y015176D02*
X021452Y015176D01*
X021452Y015017D02*
X023215Y015017D01*
X023056Y014859D02*
X021452Y014859D01*
X021452Y014700D02*
X022574Y014700D01*
X022364Y014542D02*
X021452Y014542D01*
X021386Y014383D02*
X022206Y014383D01*
X022047Y014225D02*
X021237Y014225D01*
X020688Y014225D02*
X020237Y014225D01*
X020386Y014383D02*
X020539Y014383D01*
X020473Y014542D02*
X020452Y014542D01*
X020452Y014700D02*
X020472Y014700D01*
X020472Y014859D02*
X020452Y014859D01*
X020452Y015017D02*
X020472Y015017D01*
X020472Y015176D02*
X020452Y015176D01*
X020421Y015334D02*
X020504Y015334D01*
X020601Y015493D02*
X020324Y015493D01*
X020060Y015651D02*
X019976Y015651D01*
X019425Y016202D01*
X019338Y016289D01*
X019224Y016336D01*
X018291Y016336D01*
X018175Y016452D01*
X018050Y016577D01*
X017963Y016664D01*
X017849Y016711D01*
X015944Y016711D01*
X015966Y016733D01*
X015966Y017319D01*
X015831Y017454D01*
X015244Y017454D01*
X015126Y017336D01*
X012541Y017336D01*
X012425Y017452D01*
X012338Y017539D01*
X012224Y017586D01*
X010976Y017586D01*
X010862Y017539D01*
X010841Y017518D01*
X010841Y017694D01*
X010706Y017829D01*
X010119Y017829D01*
X009984Y017694D01*
X009984Y017411D01*
X009943Y017370D01*
X008377Y017370D01*
X008377Y017736D01*
X008242Y017871D01*
X007461Y017871D01*
X007326Y017736D01*
X007326Y016817D01*
X007461Y016682D01*
X007476Y016682D01*
X007476Y016627D01*
X007851Y016627D01*
X007851Y016627D01*
X007476Y016627D01*
X007476Y016571D01*
X007461Y016571D01*
X007326Y016437D01*
X007326Y016071D01*
X005920Y016071D01*
X005469Y016522D01*
X005469Y018592D01*
X005613Y018735D01*
X012743Y018735D01*
X012857Y018782D01*
X013765Y019691D01*
X013812Y019671D01*
X014063Y019671D01*
X014294Y019767D01*
X014472Y019944D01*
X014567Y020176D01*
X014567Y020426D01*
X014472Y020658D01*
X014294Y020835D01*
X014182Y020882D02*
X016362Y020882D01*
X016297Y020723D02*
X014406Y020723D01*
X014510Y020565D02*
X016295Y020565D01*
X016295Y020406D02*
X014567Y020406D01*
X014567Y020248D02*
X016295Y020248D01*
X016295Y020089D02*
X014532Y020089D01*
X014458Y019931D02*
X016295Y019931D01*
X016351Y019772D02*
X014299Y019772D01*
X013688Y019614D02*
X016475Y019614D01*
X017174Y019614D02*
X017475Y019614D01*
X017351Y019772D02*
X017299Y019772D01*
X018174Y019614D02*
X018475Y019614D01*
X018351Y019772D02*
X018299Y019772D01*
X019174Y019614D02*
X019475Y019614D01*
X019370Y019455D02*
X013530Y019455D01*
X013371Y019297D02*
X019359Y019297D01*
X019359Y019138D02*
X013213Y019138D01*
X013054Y018980D02*
X019359Y018980D01*
X019396Y018821D02*
X012896Y018821D01*
X012681Y019045D02*
X013937Y020301D01*
X013365Y020565D02*
X013239Y020565D01*
X013307Y020406D02*
X013307Y020406D01*
X013468Y020723D02*
X013067Y020723D01*
X012857Y020723D02*
X012817Y020723D01*
X012817Y020781D02*
X012800Y020781D01*
X012725Y020769D01*
X012653Y020746D01*
X012586Y020712D01*
X012525Y020667D01*
X012471Y020614D01*
X012427Y020553D01*
X012393Y020485D01*
X012369Y020414D01*
X012357Y020339D01*
X012357Y020321D01*
X012817Y020321D01*
X012817Y020781D01*
X012817Y020565D02*
X012857Y020565D01*
X012857Y020406D02*
X012817Y020406D01*
X012737Y020401D02*
X012837Y020301D01*
X012817Y020248D02*
X012857Y020248D01*
X012857Y020089D02*
X012817Y020089D01*
X012817Y019931D02*
X012857Y019931D01*
X012970Y019772D02*
X002130Y019772D01*
X002130Y019614D02*
X012812Y019614D01*
X012653Y019455D02*
X002130Y019455D01*
X002130Y019297D02*
X005298Y019297D01*
X005139Y019138D02*
X002130Y019138D01*
X002130Y018980D02*
X004981Y018980D01*
X004866Y018821D02*
X002130Y018821D01*
X002130Y018663D02*
X004090Y018663D01*
X004090Y018710D02*
X004090Y018451D01*
X004383Y018451D01*
X004383Y018346D01*
X004090Y018346D01*
X004090Y018087D01*
X004102Y018058D01*
X004125Y018035D01*
X004154Y018023D01*
X004383Y018023D01*
X004383Y018346D01*
X004489Y018346D01*
X004489Y018451D01*
X004782Y018451D01*
X004782Y018710D01*
X004770Y018739D01*
X004747Y018762D01*
X004718Y018774D01*
X004489Y018774D01*
X004489Y018451D01*
X004383Y018451D01*
X004383Y018774D01*
X004154Y018774D01*
X004125Y018762D01*
X004102Y018739D01*
X004090Y018710D01*
X004090Y018504D02*
X002130Y018504D01*
X002130Y018346D02*
X004090Y018346D01*
X004090Y018187D02*
X002130Y018187D01*
X002130Y018029D02*
X004142Y018029D01*
X004105Y017910D02*
X003970Y017775D01*
X003970Y017034D01*
X004105Y016899D01*
X004689Y016899D01*
X004824Y017034D01*
X004824Y017775D01*
X004689Y017910D01*
X004105Y017910D01*
X004065Y017870D02*
X002130Y017870D01*
X002130Y017712D02*
X003970Y017712D01*
X003970Y017553D02*
X002130Y017553D01*
X002130Y017395D02*
X003970Y017395D01*
X003970Y017236D02*
X002130Y017236D01*
X002130Y017078D02*
X003970Y017078D01*
X004084Y016919D02*
X002130Y016919D01*
X002130Y016761D02*
X004849Y016761D01*
X004849Y016919D02*
X004709Y016919D01*
X004824Y017078D02*
X004849Y017078D01*
X004849Y017236D02*
X004824Y017236D01*
X004824Y017395D02*
X004849Y017395D01*
X004849Y017553D02*
X004824Y017553D01*
X004824Y017712D02*
X004849Y017712D01*
X004849Y017870D02*
X004729Y017870D01*
X004718Y018023D02*
X004747Y018035D01*
X004770Y018058D01*
X004782Y018087D01*
X004782Y018346D01*
X004489Y018346D01*
X004489Y018023D01*
X004718Y018023D01*
X004730Y018029D02*
X004849Y018029D01*
X004849Y018187D02*
X004782Y018187D01*
X004782Y018346D02*
X004849Y018346D01*
X004849Y018504D02*
X004782Y018504D01*
X004782Y018663D02*
X004849Y018663D01*
X005159Y018720D02*
X005484Y019045D01*
X012681Y019045D01*
X012531Y019931D02*
X002130Y019931D01*
X002130Y020089D02*
X012407Y020089D01*
X012360Y020248D02*
X002130Y020248D01*
X002130Y020406D02*
X012368Y020406D01*
X012436Y020565D02*
X002130Y020565D01*
X002130Y020723D02*
X012608Y020723D01*
X012737Y020401D02*
X009037Y020401D01*
X008287Y019651D01*
X005540Y018663D02*
X023088Y018663D01*
X023227Y018504D02*
X005469Y018504D01*
X005469Y018346D02*
X006152Y018346D01*
X006227Y018377D02*
X005935Y018256D01*
X005711Y018032D01*
X005590Y017740D01*
X005590Y017423D01*
X005711Y017131D01*
X005935Y016908D01*
X006227Y016787D01*
X006543Y016787D01*
X006835Y016908D01*
X007059Y017131D01*
X007180Y017423D01*
X007180Y017740D01*
X007059Y018032D01*
X006835Y018256D01*
X006543Y018377D01*
X006227Y018377D01*
X006618Y018346D02*
X019378Y018346D01*
X019406Y018373D02*
X019228Y018195D01*
X019132Y017964D01*
X019132Y017940D01*
X019131Y017951D01*
X019107Y018023D01*
X019073Y018090D01*
X019029Y018151D01*
X018975Y018205D01*
X018914Y018249D01*
X018847Y018283D01*
X018775Y018307D01*
X018700Y018319D01*
X018682Y018319D01*
X018682Y017859D01*
X018642Y017859D01*
X018642Y017819D01*
X018182Y017819D01*
X018182Y017801D01*
X018194Y017726D01*
X018218Y017654D01*
X018252Y017587D01*
X018296Y017526D01*
X018350Y017472D01*
X018411Y017428D01*
X018478Y017394D01*
X018550Y017370D01*
X018625Y017359D01*
X018642Y017359D01*
X018642Y017819D01*
X018682Y017819D01*
X018682Y017359D01*
X018700Y017359D01*
X018775Y017370D01*
X018847Y017394D01*
X018914Y017428D01*
X018975Y017472D01*
X019029Y017526D01*
X019073Y017587D01*
X019107Y017654D01*
X019131Y017726D01*
X019132Y017738D01*
X019132Y017713D01*
X019228Y017482D01*
X019406Y017305D01*
X019637Y017209D01*
X019888Y017209D01*
X020119Y017305D01*
X020297Y017482D01*
X020392Y017713D01*
X020392Y017964D01*
X020297Y018195D01*
X020119Y018373D01*
X019888Y018469D01*
X019637Y018469D01*
X019406Y018373D01*
X019225Y018187D02*
X018993Y018187D01*
X019104Y018029D02*
X019159Y018029D01*
X019126Y017712D02*
X019133Y017712D01*
X019199Y017553D02*
X019048Y017553D01*
X018848Y017395D02*
X019316Y017395D01*
X019571Y017236D02*
X015966Y017236D01*
X015966Y017078D02*
X023227Y017078D01*
X023227Y017236D02*
X019954Y017236D01*
X020209Y017395D02*
X023227Y017395D01*
X023227Y017553D02*
X020326Y017553D01*
X020392Y017712D02*
X023227Y017712D01*
X023227Y017870D02*
X020392Y017870D01*
X020366Y018029D02*
X023227Y018029D01*
X023227Y018187D02*
X020300Y018187D01*
X020146Y018346D02*
X023227Y018346D01*
X023537Y018651D02*
X023537Y014901D01*
X023037Y014401D01*
X022662Y014401D01*
X022287Y014026D01*
X022287Y010901D01*
X017912Y006526D01*
X017484Y006458D02*
X010606Y006458D01*
X010644Y006617D02*
X017484Y006617D01*
X017484Y006775D02*
X010644Y006775D01*
X010634Y006934D02*
X017598Y006934D01*
X018040Y007092D02*
X010591Y007092D01*
X010526Y007251D02*
X011924Y007251D01*
X011842Y007273D02*
X012119Y007198D01*
X012406Y007198D01*
X012683Y007273D01*
X012932Y007416D01*
X013135Y007619D01*
X013278Y007868D01*
X013353Y008145D01*
X013353Y008432D01*
X013278Y008709D01*
X013135Y008958D01*
X012932Y009161D01*
X012683Y009305D01*
X012406Y009379D01*
X012119Y009379D01*
X011842Y009305D01*
X011593Y009161D01*
X011390Y008958D01*
X011247Y008709D01*
X011172Y008432D01*
X011172Y008145D01*
X011247Y007868D01*
X011390Y007619D01*
X011593Y007416D01*
X011842Y007273D01*
X011605Y007409D02*
X010434Y007409D01*
X010284Y007568D02*
X011442Y007568D01*
X011328Y007726D02*
X010060Y007726D01*
X009009Y007726D02*
X002130Y007726D01*
X002130Y007885D02*
X011242Y007885D01*
X011200Y008043D02*
X002130Y008043D01*
X002130Y008202D02*
X011172Y008202D01*
X011172Y008360D02*
X002130Y008360D01*
X002130Y008519D02*
X011195Y008519D01*
X011238Y008677D02*
X002130Y008677D01*
X002130Y008836D02*
X011319Y008836D01*
X011426Y008994D02*
X002130Y008994D01*
X002130Y009153D02*
X011585Y009153D01*
X011866Y009311D02*
X002130Y009311D01*
X002130Y009470D02*
X020417Y009470D01*
X020259Y009311D02*
X015340Y009311D01*
X015308Y009330D02*
X015031Y009404D01*
X014744Y009404D01*
X014467Y009330D01*
X014218Y009186D01*
X014015Y008983D01*
X013872Y008734D01*
X013797Y008457D01*
X013797Y008170D01*
X013872Y007893D01*
X014015Y007644D01*
X014218Y007441D01*
X014467Y007298D01*
X014744Y007223D01*
X015031Y007223D01*
X015308Y007298D01*
X015557Y007441D01*
X015760Y007644D01*
X015903Y007893D01*
X015978Y008170D01*
X015978Y008457D01*
X015903Y008734D01*
X015760Y008983D01*
X015557Y009186D01*
X015308Y009330D01*
X015590Y009153D02*
X020100Y009153D01*
X019942Y008994D02*
X015749Y008994D01*
X015845Y008836D02*
X019783Y008836D01*
X019625Y008677D02*
X015919Y008677D01*
X015961Y008519D02*
X019466Y008519D01*
X019308Y008360D02*
X015978Y008360D01*
X015978Y008202D02*
X019149Y008202D01*
X018991Y008043D02*
X015944Y008043D01*
X015899Y007885D02*
X018832Y007885D01*
X018674Y007726D02*
X015807Y007726D01*
X015683Y007568D02*
X018515Y007568D01*
X018357Y007409D02*
X015501Y007409D01*
X015132Y007251D02*
X018198Y007251D01*
X017484Y006300D02*
X010557Y006300D01*
X010465Y006141D02*
X017576Y006141D01*
X014643Y007251D02*
X012601Y007251D01*
X012919Y007409D02*
X014274Y007409D01*
X014092Y007568D02*
X013083Y007568D01*
X013197Y007726D02*
X013968Y007726D01*
X013876Y007885D02*
X013283Y007885D01*
X013325Y008043D02*
X013831Y008043D01*
X013797Y008202D02*
X013353Y008202D01*
X013353Y008360D02*
X013797Y008360D01*
X013814Y008519D02*
X013330Y008519D01*
X013287Y008677D02*
X013856Y008677D01*
X013930Y008836D02*
X013206Y008836D01*
X013099Y008994D02*
X014026Y008994D01*
X014185Y009153D02*
X012940Y009153D01*
X012659Y009311D02*
X014435Y009311D01*
X014060Y011151D02*
X014240Y011226D01*
X014378Y011364D01*
X014452Y011544D01*
X014452Y012259D01*
X014378Y012439D01*
X014240Y012577D01*
X014060Y012651D01*
X013865Y012651D01*
X013685Y012577D01*
X013547Y012439D01*
X013472Y012259D01*
X013472Y011544D01*
X013547Y011364D01*
X013685Y011226D01*
X013865Y011151D01*
X014060Y011151D01*
X014209Y011213D02*
X014715Y011213D01*
X014685Y011226D02*
X014865Y011151D01*
X015060Y011151D01*
X015240Y011226D01*
X015378Y011364D01*
X015452Y011544D01*
X015452Y012259D01*
X015378Y012439D01*
X015240Y012577D01*
X015060Y012651D01*
X014865Y012651D01*
X014685Y012577D01*
X014547Y012439D01*
X014472Y012259D01*
X014472Y011544D01*
X014547Y011364D01*
X014685Y011226D01*
X014544Y011372D02*
X014381Y011372D01*
X014447Y011530D02*
X014478Y011530D01*
X014472Y011689D02*
X014452Y011689D01*
X014452Y011847D02*
X014472Y011847D01*
X014472Y012006D02*
X014452Y012006D01*
X014452Y012164D02*
X014472Y012164D01*
X014499Y012323D02*
X014426Y012323D01*
X014335Y012481D02*
X014589Y012481D01*
X014837Y012640D02*
X014088Y012640D01*
X013837Y012640D02*
X004801Y012640D01*
X004801Y012516D02*
X004801Y012775D01*
X004509Y012775D01*
X004509Y012881D01*
X004403Y012881D01*
X004403Y013203D01*
X004174Y013203D01*
X004145Y013191D01*
X004122Y013168D01*
X004110Y013139D01*
X004110Y012881D01*
X004403Y012881D01*
X004403Y012775D01*
X004110Y012775D01*
X004110Y012516D01*
X004122Y012487D01*
X004145Y012465D01*
X004174Y012452D01*
X004403Y012452D01*
X004403Y012775D01*
X004509Y012775D01*
X004509Y012452D01*
X004737Y012452D01*
X004767Y012465D01*
X004789Y012487D01*
X004801Y012516D01*
X004783Y012481D02*
X013589Y012481D01*
X013499Y012323D02*
X002130Y012323D01*
X002130Y012481D02*
X004128Y012481D01*
X004110Y012640D02*
X002130Y012640D01*
X002130Y012798D02*
X004403Y012798D01*
X004509Y012798D02*
X021977Y012798D01*
X021977Y012640D02*
X021088Y012640D01*
X021060Y012651D02*
X020865Y012651D01*
X020685Y012577D01*
X020547Y012439D01*
X020472Y012259D01*
X020472Y011544D01*
X020547Y011364D01*
X020685Y011226D01*
X020865Y011151D01*
X021060Y011151D01*
X021240Y011226D01*
X021378Y011364D01*
X021452Y011544D01*
X021452Y012259D01*
X021378Y012439D01*
X021240Y012577D01*
X021060Y012651D01*
X020837Y012640D02*
X020088Y012640D01*
X020060Y012651D02*
X019865Y012651D01*
X019685Y012577D01*
X019547Y012439D01*
X019472Y012259D01*
X019472Y011544D01*
X019547Y011364D01*
X019685Y011226D01*
X019865Y011151D01*
X020060Y011151D01*
X020240Y011226D01*
X020378Y011364D01*
X020452Y011544D01*
X020452Y012259D01*
X020378Y012439D01*
X020240Y012577D01*
X020060Y012651D01*
X019837Y012640D02*
X019088Y012640D01*
X019060Y012651D02*
X018865Y012651D01*
X018685Y012577D01*
X018547Y012439D01*
X018472Y012259D01*
X018472Y011544D01*
X018547Y011364D01*
X018685Y011226D01*
X018865Y011151D01*
X019060Y011151D01*
X019240Y011226D01*
X019378Y011364D01*
X019452Y011544D01*
X019452Y012259D01*
X019378Y012439D01*
X019240Y012577D01*
X019060Y012651D01*
X018837Y012640D02*
X018088Y012640D01*
X018060Y012651D02*
X017865Y012651D01*
X017685Y012577D01*
X017547Y012439D01*
X017472Y012259D01*
X017472Y011544D01*
X017547Y011364D01*
X017685Y011226D01*
X017865Y011151D01*
X018060Y011151D01*
X018240Y011226D01*
X018378Y011364D01*
X018452Y011544D01*
X018452Y012259D01*
X018378Y012439D01*
X018240Y012577D01*
X018060Y012651D01*
X017837Y012640D02*
X017088Y012640D01*
X017060Y012651D02*
X016865Y012651D01*
X016685Y012577D01*
X016547Y012439D01*
X016472Y012259D01*
X016472Y011544D01*
X016547Y011364D01*
X016685Y011226D01*
X016865Y011151D01*
X017060Y011151D01*
X017240Y011226D01*
X017378Y011364D01*
X017452Y011544D01*
X017452Y012259D01*
X017378Y012439D01*
X017240Y012577D01*
X017060Y012651D01*
X016837Y012640D02*
X016088Y012640D01*
X016060Y012651D02*
X015865Y012651D01*
X015685Y012577D01*
X015547Y012439D01*
X015472Y012259D01*
X015472Y011544D01*
X015547Y011364D01*
X015685Y011226D01*
X015865Y011151D01*
X016060Y011151D01*
X016240Y011226D01*
X016378Y011364D01*
X016452Y011544D01*
X016452Y012259D01*
X016378Y012439D01*
X016240Y012577D01*
X016060Y012651D01*
X015837Y012640D02*
X015088Y012640D01*
X015335Y012481D02*
X015589Y012481D01*
X015499Y012323D02*
X015426Y012323D01*
X015452Y012164D02*
X015472Y012164D01*
X015472Y012006D02*
X015452Y012006D01*
X015452Y011847D02*
X015472Y011847D01*
X015472Y011689D02*
X015452Y011689D01*
X015447Y011530D02*
X015478Y011530D01*
X015544Y011372D02*
X015381Y011372D01*
X015209Y011213D02*
X015715Y011213D01*
X016209Y011213D02*
X016715Y011213D01*
X016544Y011372D02*
X016381Y011372D01*
X016447Y011530D02*
X016478Y011530D01*
X016472Y011689D02*
X016452Y011689D01*
X016452Y011847D02*
X016472Y011847D01*
X016472Y012006D02*
X016452Y012006D01*
X016452Y012164D02*
X016472Y012164D01*
X016499Y012323D02*
X016426Y012323D01*
X016335Y012481D02*
X016589Y012481D01*
X017335Y012481D02*
X017589Y012481D01*
X017499Y012323D02*
X017426Y012323D01*
X017452Y012164D02*
X017472Y012164D01*
X017472Y012006D02*
X017452Y012006D01*
X017452Y011847D02*
X017472Y011847D01*
X017472Y011689D02*
X017452Y011689D01*
X017447Y011530D02*
X017478Y011530D01*
X017544Y011372D02*
X017381Y011372D01*
X017209Y011213D02*
X017715Y011213D01*
X018209Y011213D02*
X018715Y011213D01*
X018544Y011372D02*
X018381Y011372D01*
X018447Y011530D02*
X018478Y011530D01*
X018472Y011689D02*
X018452Y011689D01*
X018452Y011847D02*
X018472Y011847D01*
X018472Y012006D02*
X018452Y012006D01*
X018452Y012164D02*
X018472Y012164D01*
X018499Y012323D02*
X018426Y012323D01*
X018335Y012481D02*
X018589Y012481D01*
X019335Y012481D02*
X019589Y012481D01*
X019499Y012323D02*
X019426Y012323D01*
X019452Y012164D02*
X019472Y012164D01*
X019472Y012006D02*
X019452Y012006D01*
X019452Y011847D02*
X019472Y011847D01*
X019472Y011689D02*
X019452Y011689D01*
X019447Y011530D02*
X019478Y011530D01*
X019544Y011372D02*
X019381Y011372D01*
X019209Y011213D02*
X019715Y011213D01*
X020209Y011213D02*
X020715Y011213D01*
X020544Y011372D02*
X020381Y011372D01*
X020447Y011530D02*
X020478Y011530D01*
X020472Y011689D02*
X020452Y011689D01*
X020452Y011847D02*
X020472Y011847D01*
X020472Y012006D02*
X020452Y012006D01*
X020452Y012164D02*
X020472Y012164D01*
X020499Y012323D02*
X020426Y012323D01*
X020335Y012481D02*
X020589Y012481D01*
X021335Y012481D02*
X021977Y012481D01*
X021977Y012323D02*
X021426Y012323D01*
X021452Y012164D02*
X021977Y012164D01*
X021977Y012006D02*
X021452Y012006D01*
X021452Y011847D02*
X021977Y011847D01*
X021977Y011689D02*
X021452Y011689D01*
X021447Y011530D02*
X021977Y011530D01*
X021977Y011372D02*
X021381Y011372D01*
X021209Y011213D02*
X021977Y011213D01*
X021977Y011055D02*
X002130Y011055D01*
X002130Y011213D02*
X013715Y011213D01*
X013544Y011372D02*
X002130Y011372D01*
X002130Y011530D02*
X013478Y011530D01*
X013472Y011689D02*
X002130Y011689D01*
X002130Y011847D02*
X013472Y011847D01*
X013472Y012006D02*
X002130Y012006D01*
X002130Y012164D02*
X013472Y012164D01*
X014685Y014226D02*
X014865Y014151D01*
X015060Y014151D01*
X015240Y014226D01*
X015378Y014364D01*
X015452Y014544D01*
X015452Y015259D01*
X015378Y015439D01*
X015240Y015577D01*
X015060Y015651D01*
X015865Y015651D01*
X015685Y015577D01*
X015547Y015439D01*
X015472Y015259D01*
X015472Y014544D01*
X015547Y014364D01*
X015685Y014226D01*
X015865Y014151D01*
X016060Y014151D01*
X016240Y014226D01*
X016378Y014364D01*
X016452Y014544D01*
X016452Y015259D01*
X016378Y015439D01*
X016240Y015577D01*
X016060Y015651D01*
X016865Y015651D01*
X016685Y015577D01*
X016547Y015439D01*
X016472Y015259D01*
X016472Y014544D01*
X016547Y014364D01*
X016685Y014226D01*
X016865Y014151D01*
X017060Y014151D01*
X017240Y014226D01*
X017378Y014364D01*
X017452Y014544D01*
X017452Y015259D01*
X017378Y015439D01*
X017240Y015577D01*
X017060Y015651D01*
X017474Y015651D01*
X017601Y015493D02*
X017324Y015493D01*
X017421Y015334D02*
X017504Y015334D01*
X017472Y015176D02*
X017452Y015176D01*
X017452Y015017D02*
X017472Y015017D01*
X017472Y014859D02*
X017452Y014859D01*
X017452Y014700D02*
X017472Y014700D01*
X017473Y014542D02*
X017452Y014542D01*
X017386Y014383D02*
X017539Y014383D01*
X017688Y014225D02*
X017237Y014225D01*
X016688Y014225D02*
X016237Y014225D01*
X016386Y014383D02*
X016539Y014383D01*
X016473Y014542D02*
X016452Y014542D01*
X016452Y014700D02*
X016472Y014700D01*
X016472Y014859D02*
X016452Y014859D01*
X016452Y015017D02*
X016472Y015017D01*
X016472Y015176D02*
X016452Y015176D01*
X016421Y015334D02*
X016504Y015334D01*
X016601Y015493D02*
X016324Y015493D01*
X016060Y015651D02*
X015865Y015651D01*
X015601Y015493D02*
X015324Y015493D01*
X015421Y015334D02*
X015504Y015334D01*
X015472Y015176D02*
X015452Y015176D01*
X015452Y015017D02*
X015472Y015017D01*
X015472Y014859D02*
X015452Y014859D01*
X015452Y014700D02*
X015472Y014700D01*
X015473Y014542D02*
X015452Y014542D01*
X015386Y014383D02*
X015539Y014383D01*
X015688Y014225D02*
X015237Y014225D01*
X014688Y014225D02*
X008377Y014225D01*
X008377Y014383D02*
X013740Y014383D01*
X013746Y014377D02*
X013801Y014340D01*
X013863Y014314D01*
X013929Y014301D01*
X013962Y014301D01*
X013962Y014901D01*
X013622Y014901D01*
X013622Y014608D01*
X013636Y014542D01*
X013661Y014480D01*
X013698Y014424D01*
X013746Y014377D01*
X013636Y014542D02*
X008377Y014542D01*
X008377Y014066D02*
X021977Y014066D01*
X021977Y013908D02*
X008377Y013908D01*
X008377Y013749D02*
X021977Y013749D01*
X021977Y013591D02*
X008377Y013591D01*
X008377Y013432D02*
X021977Y013432D01*
X021977Y013274D02*
X008376Y013274D01*
X007326Y013274D02*
X007092Y013274D01*
X007059Y013194D02*
X007180Y013486D01*
X007180Y013803D01*
X007059Y014095D01*
X006835Y014319D01*
X006543Y014440D01*
X006227Y014440D01*
X005935Y014319D01*
X005711Y014095D01*
X005590Y013803D01*
X005590Y013486D01*
X005711Y013194D01*
X005935Y012971D01*
X006227Y012850D01*
X006543Y012850D01*
X006835Y012971D01*
X007059Y013194D01*
X006980Y013115D02*
X021977Y013115D01*
X021977Y012957D02*
X006801Y012957D01*
X005969Y012957D02*
X004801Y012957D01*
X004801Y012881D02*
X004801Y013139D01*
X004789Y013168D01*
X004767Y013191D01*
X004737Y013203D01*
X004509Y013203D01*
X004509Y012881D01*
X004801Y012881D01*
X004801Y013115D02*
X005790Y013115D01*
X005678Y013274D02*
X004715Y013274D01*
X004689Y013247D02*
X004824Y013382D01*
X004824Y014084D01*
X004689Y014219D01*
X004105Y014219D01*
X003970Y014084D01*
X003970Y013382D01*
X004105Y013247D01*
X004689Y013247D01*
X004509Y013115D02*
X004403Y013115D01*
X004403Y012957D02*
X004509Y012957D01*
X004509Y012640D02*
X004403Y012640D01*
X004403Y012481D02*
X004509Y012481D01*
X004110Y012957D02*
X002130Y012957D01*
X002130Y013115D02*
X004110Y013115D01*
X004078Y013274D02*
X002130Y013274D01*
X002130Y013432D02*
X003970Y013432D01*
X003970Y013591D02*
X002130Y013591D01*
X002130Y013749D02*
X003970Y013749D01*
X003970Y013908D02*
X002130Y013908D01*
X002130Y014066D02*
X003970Y014066D01*
X004824Y014066D02*
X005699Y014066D01*
X005633Y013908D02*
X004824Y013908D01*
X004824Y013749D02*
X005590Y013749D01*
X005590Y013591D02*
X004824Y013591D01*
X004824Y013432D02*
X005612Y013432D01*
X005841Y014225D02*
X002130Y014225D01*
X002130Y014383D02*
X006090Y014383D01*
X006679Y014383D02*
X007326Y014383D01*
X007326Y014225D02*
X006929Y014225D01*
X007071Y014066D02*
X007326Y014066D01*
X007326Y013908D02*
X007136Y013908D01*
X007180Y013749D02*
X007326Y013749D01*
X007326Y013591D02*
X007180Y013591D01*
X007157Y013432D02*
X007326Y013432D01*
X007326Y014542D02*
X002130Y014542D01*
X002130Y014700D02*
X007326Y014700D01*
X007326Y014859D02*
X002130Y014859D01*
X002130Y015017D02*
X007326Y015017D01*
X007326Y015176D02*
X002130Y015176D01*
X002130Y015334D02*
X007326Y015334D01*
X007851Y015328D02*
X009110Y015328D01*
X009308Y015526D01*
X010162Y015526D01*
X010662Y016026D01*
X017537Y016026D01*
X017962Y015601D01*
X017962Y014901D01*
X018452Y014859D02*
X018472Y014859D01*
X018472Y015017D02*
X018452Y015017D01*
X018452Y015176D02*
X018472Y015176D01*
X018504Y015334D02*
X018421Y015334D01*
X018324Y015493D02*
X018601Y015493D01*
X018865Y015651D02*
X018272Y015651D01*
X018162Y016026D02*
X017912Y016276D01*
X017787Y016401D01*
X012037Y016401D01*
X011787Y016651D01*
X012412Y017026D02*
X012162Y017276D01*
X011037Y017276D01*
X010162Y016401D01*
X009304Y016401D01*
X009097Y016194D01*
X007851Y016194D01*
X007851Y016627D02*
X007851Y016627D01*
X008227Y016627D01*
X008227Y016682D01*
X008242Y016682D01*
X008310Y016750D01*
X010073Y016750D01*
X010034Y016711D01*
X009243Y016711D01*
X009129Y016664D01*
X009041Y016577D01*
X009041Y016577D01*
X008969Y016504D01*
X008310Y016504D01*
X008242Y016571D01*
X008227Y016571D01*
X008227Y016627D01*
X007851Y016627D01*
X007476Y016602D02*
X005469Y016602D01*
X005469Y016761D02*
X007383Y016761D01*
X007326Y016919D02*
X006847Y016919D01*
X007005Y017078D02*
X007326Y017078D01*
X007326Y017236D02*
X007102Y017236D01*
X007168Y017395D02*
X007326Y017395D01*
X007326Y017553D02*
X007180Y017553D01*
X007180Y017712D02*
X007326Y017712D01*
X007460Y017870D02*
X007126Y017870D01*
X007060Y018029D02*
X018221Y018029D01*
X018218Y018023D02*
X018194Y017951D01*
X018182Y017876D01*
X018182Y017859D01*
X018642Y017859D01*
X018642Y018319D01*
X018625Y018319D01*
X018550Y018307D01*
X018478Y018283D01*
X018411Y018249D01*
X018350Y018205D01*
X018296Y018151D01*
X018252Y018090D01*
X018218Y018023D01*
X018182Y017870D02*
X008243Y017870D01*
X008377Y017712D02*
X010001Y017712D01*
X009984Y017553D02*
X008377Y017553D01*
X008377Y017395D02*
X009968Y017395D01*
X010276Y017265D02*
X010412Y017401D01*
X010071Y017060D01*
X007851Y017060D01*
X008227Y016602D02*
X009067Y016602D01*
X007851Y015761D02*
X005792Y015761D01*
X005159Y016393D01*
X005159Y018720D01*
X005469Y018187D02*
X005866Y018187D01*
X005710Y018029D02*
X005469Y018029D01*
X005469Y017870D02*
X005644Y017870D01*
X005590Y017712D02*
X005469Y017712D01*
X005469Y017553D02*
X005590Y017553D01*
X005602Y017395D02*
X005469Y017395D01*
X005469Y017236D02*
X005668Y017236D01*
X005765Y017078D02*
X005469Y017078D01*
X005469Y016919D02*
X005923Y016919D01*
X005547Y016444D02*
X007333Y016444D01*
X007326Y016285D02*
X005706Y016285D01*
X005864Y016127D02*
X007326Y016127D01*
X005629Y015493D02*
X002130Y015493D01*
X002130Y015651D02*
X005463Y015651D01*
X005305Y015810D02*
X002130Y015810D01*
X002130Y015968D02*
X005146Y015968D01*
X004988Y016127D02*
X002130Y016127D01*
X002130Y016285D02*
X004869Y016285D01*
X004849Y016444D02*
X002130Y016444D01*
X002130Y016602D02*
X004849Y016602D01*
X004489Y018029D02*
X004383Y018029D01*
X004383Y018187D02*
X004489Y018187D01*
X004489Y018346D02*
X004383Y018346D01*
X004383Y018504D02*
X004489Y018504D01*
X004489Y018663D02*
X004383Y018663D01*
X006904Y018187D02*
X018332Y018187D01*
X018642Y018187D02*
X018682Y018187D01*
X018682Y018029D02*
X018642Y018029D01*
X018642Y017870D02*
X018682Y017870D01*
X018662Y017839D02*
X018662Y017026D01*
X019537Y016151D01*
X021162Y016151D01*
X021787Y015526D01*
X022537Y015526D01*
X023227Y015810D02*
X019817Y015810D01*
X019659Y015968D02*
X023227Y015968D01*
X023227Y016127D02*
X019500Y016127D01*
X019342Y016285D02*
X023227Y016285D01*
X023227Y016444D02*
X018183Y016444D01*
X018025Y016602D02*
X023227Y016602D01*
X023227Y016761D02*
X015966Y016761D01*
X015966Y016919D02*
X023227Y016919D01*
X023847Y016919D02*
X025645Y016919D01*
X025487Y017078D02*
X023847Y017078D01*
X023847Y017236D02*
X025328Y017236D01*
X025170Y017395D02*
X023847Y017395D01*
X023847Y017553D02*
X025011Y017553D01*
X024853Y017712D02*
X023847Y017712D01*
X023847Y017870D02*
X024741Y017870D01*
X024726Y018029D02*
X023847Y018029D01*
X023847Y018187D02*
X024726Y018187D01*
X024726Y018346D02*
X023847Y018346D01*
X023847Y018504D02*
X024726Y018504D01*
X024726Y018663D02*
X023847Y018663D01*
X023803Y018821D02*
X024726Y018821D01*
X024726Y018980D02*
X023647Y018980D01*
X023489Y019138D02*
X024726Y019138D01*
X024726Y019297D02*
X023330Y019297D01*
X023172Y019455D02*
X024726Y019455D01*
X024726Y019614D02*
X024174Y019614D01*
X024299Y019772D02*
X024726Y019772D01*
X024726Y019931D02*
X024355Y019931D01*
X024355Y020089D02*
X024726Y020089D01*
X024726Y020248D02*
X024355Y020248D01*
X024355Y020406D02*
X024726Y020406D01*
X024726Y020565D02*
X024355Y020565D01*
X024353Y020723D02*
X024649Y020723D01*
X024491Y020882D02*
X024288Y020882D01*
X024332Y021040D02*
X024148Y021040D01*
X023502Y021040D02*
X023148Y021040D01*
X023175Y021199D02*
X023500Y021199D01*
X023389Y021357D02*
X023286Y021357D01*
X023327Y021516D02*
X023347Y021516D01*
X023347Y021674D02*
X023327Y021674D01*
X023327Y021833D02*
X023347Y021833D01*
X023347Y021991D02*
X023327Y021991D01*
X023327Y022150D02*
X023347Y022150D01*
X023404Y022308D02*
X023271Y022308D01*
X023137Y022467D02*
X023537Y022467D01*
X022537Y022467D02*
X022137Y022467D01*
X022271Y022308D02*
X022404Y022308D01*
X022347Y022150D02*
X022327Y022150D01*
X022327Y021991D02*
X022347Y021991D01*
X022347Y021833D02*
X022327Y021833D01*
X022327Y021674D02*
X022347Y021674D01*
X022347Y021516D02*
X022327Y021516D01*
X022286Y021357D02*
X022389Y021357D01*
X022500Y021199D02*
X022175Y021199D01*
X022148Y021040D02*
X022502Y021040D01*
X022362Y020882D02*
X022288Y020882D01*
X021502Y021040D02*
X021148Y021040D01*
X021175Y021199D02*
X021500Y021199D01*
X021389Y021357D02*
X021286Y021357D01*
X021327Y021516D02*
X021347Y021516D01*
X021347Y021674D02*
X021327Y021674D01*
X021327Y021833D02*
X021347Y021833D01*
X021347Y021991D02*
X021327Y021991D01*
X021327Y022150D02*
X021347Y022150D01*
X021404Y022308D02*
X021271Y022308D01*
X021137Y022467D02*
X021537Y022467D01*
X020537Y022467D02*
X020137Y022467D01*
X020271Y022308D02*
X020404Y022308D01*
X020347Y022150D02*
X020327Y022150D01*
X020327Y021991D02*
X020347Y021991D01*
X020347Y021833D02*
X020327Y021833D01*
X020327Y021674D02*
X020347Y021674D01*
X020347Y021516D02*
X020327Y021516D01*
X020286Y021357D02*
X020389Y021357D01*
X020500Y021199D02*
X020175Y021199D01*
X020148Y021040D02*
X020502Y021040D01*
X020362Y020882D02*
X020288Y020882D01*
X019502Y021040D02*
X019148Y021040D01*
X019175Y021199D02*
X019500Y021199D01*
X019389Y021357D02*
X019286Y021357D01*
X019327Y021516D02*
X019347Y021516D01*
X019347Y021674D02*
X019327Y021674D01*
X019327Y021833D02*
X019347Y021833D01*
X019347Y021991D02*
X019327Y021991D01*
X019327Y022150D02*
X019347Y022150D01*
X019404Y022308D02*
X019271Y022308D01*
X019137Y022467D02*
X019537Y022467D01*
X018537Y022467D02*
X018137Y022467D01*
X018271Y022308D02*
X018404Y022308D01*
X018347Y022150D02*
X018327Y022150D01*
X018327Y021991D02*
X018347Y021991D01*
X018347Y021833D02*
X018327Y021833D01*
X018327Y021674D02*
X018347Y021674D01*
X018347Y021516D02*
X018327Y021516D01*
X018286Y021357D02*
X018389Y021357D01*
X018500Y021199D02*
X018175Y021199D01*
X018148Y021040D02*
X018502Y021040D01*
X018362Y020882D02*
X018288Y020882D01*
X017502Y021040D02*
X017148Y021040D01*
X017175Y021199D02*
X017500Y021199D01*
X017389Y021357D02*
X017286Y021357D01*
X017327Y021516D02*
X017347Y021516D01*
X017347Y021674D02*
X017327Y021674D01*
X017327Y021833D02*
X017347Y021833D01*
X017347Y021991D02*
X017327Y021991D01*
X017327Y022150D02*
X017347Y022150D01*
X017404Y022308D02*
X017271Y022308D01*
X017137Y022467D02*
X017537Y022467D01*
X016537Y022467D02*
X016137Y022467D01*
X016115Y022489D02*
X015935Y022564D01*
X015740Y022564D01*
X015560Y022489D01*
X015422Y022351D01*
X015347Y022171D01*
X015347Y021456D01*
X015422Y021276D01*
X015560Y021138D01*
X015740Y021064D01*
X015935Y021064D01*
X016115Y021138D01*
X016253Y021276D01*
X016327Y021456D01*
X016327Y022171D01*
X016253Y022351D01*
X016115Y022489D01*
X016271Y022308D02*
X016404Y022308D01*
X016347Y022150D02*
X016327Y022150D01*
X016327Y021991D02*
X016347Y021991D01*
X016347Y021833D02*
X016327Y021833D01*
X016327Y021674D02*
X016347Y021674D01*
X016347Y021516D02*
X016327Y021516D01*
X016286Y021357D02*
X016389Y021357D01*
X016500Y021199D02*
X016175Y021199D01*
X016502Y021040D02*
X002130Y021040D01*
X002130Y020882D02*
X013693Y020882D01*
X012837Y021357D02*
X012837Y021357D01*
X012837Y021516D02*
X012837Y021516D01*
X012837Y021674D02*
X012837Y021674D01*
X015175Y021199D02*
X015500Y021199D01*
X015389Y021357D02*
X015286Y021357D01*
X015327Y021516D02*
X015347Y021516D01*
X015347Y021674D02*
X015327Y021674D01*
X015327Y021833D02*
X015347Y021833D01*
X015347Y021991D02*
X015327Y021991D01*
X015327Y022150D02*
X015347Y022150D01*
X015404Y022308D02*
X015271Y022308D01*
X015137Y022467D02*
X015537Y022467D01*
X017288Y020882D02*
X017362Y020882D01*
X019288Y020882D02*
X019362Y020882D01*
X021288Y020882D02*
X021362Y020882D01*
X023288Y020882D02*
X023362Y020882D01*
X023351Y019772D02*
X023299Y019772D01*
X023174Y019614D02*
X023475Y019614D01*
X022787Y019401D02*
X023537Y018651D01*
X022929Y018821D02*
X020179Y018821D01*
X020216Y018980D02*
X022771Y018980D01*
X022787Y019401D02*
X020162Y019401D01*
X019912Y019151D01*
X019787Y019151D01*
X019351Y019772D02*
X019299Y019772D01*
X018682Y017712D02*
X018642Y017712D01*
X018642Y017553D02*
X018682Y017553D01*
X018682Y017395D02*
X018642Y017395D01*
X018477Y017395D02*
X015891Y017395D01*
X015537Y017026D02*
X012412Y017026D01*
X012482Y017395D02*
X015184Y017395D01*
X012304Y017553D02*
X018277Y017553D01*
X018199Y017712D02*
X010824Y017712D01*
X010841Y017553D02*
X010896Y017553D01*
X010912Y015526D02*
X010537Y015151D01*
X009353Y015151D01*
X009097Y014895D01*
X007851Y014895D01*
X009341Y014700D02*
X013622Y014700D01*
X013622Y014859D02*
X010641Y014859D01*
X010842Y015017D02*
X013622Y015017D01*
X013622Y014901D02*
X013962Y014901D01*
X013962Y014901D01*
X013962Y014901D01*
X013962Y015501D01*
X013929Y015501D01*
X013863Y015488D01*
X013801Y015462D01*
X013746Y015425D01*
X013698Y015378D01*
X013661Y015322D01*
X013636Y015260D01*
X013622Y015195D01*
X013622Y014901D01*
X013622Y015176D02*
X012158Y015176D01*
X012216Y015334D02*
X013669Y015334D01*
X013886Y015493D02*
X012216Y015493D01*
X012216Y015651D02*
X014865Y015651D01*
X014685Y015577D01*
X014547Y015439D01*
X014472Y015259D01*
X014472Y014544D01*
X014547Y014364D01*
X014685Y014226D01*
X014539Y014383D02*
X014185Y014383D01*
X014179Y014377D02*
X014227Y014424D01*
X014264Y014480D01*
X014289Y014542D01*
X014302Y014608D01*
X014302Y014901D01*
X013962Y014901D01*
X013962Y014901D01*
X013962Y014301D01*
X013996Y014301D01*
X014062Y014314D01*
X014124Y014340D01*
X014179Y014377D01*
X014289Y014542D02*
X014473Y014542D01*
X014472Y014700D02*
X014302Y014700D01*
X014302Y014859D02*
X014472Y014859D01*
X014472Y015017D02*
X014302Y015017D01*
X014302Y014901D02*
X014302Y015195D01*
X014289Y015260D01*
X014264Y015322D01*
X014227Y015378D01*
X014179Y015425D01*
X014124Y015462D01*
X014062Y015488D01*
X013996Y015501D01*
X013962Y015501D01*
X013962Y014901D01*
X013962Y014901D01*
X014302Y014901D01*
X014302Y015176D02*
X014472Y015176D01*
X014504Y015334D02*
X014256Y015334D01*
X014039Y015493D02*
X014601Y015493D01*
X014865Y015651D02*
X015060Y015651D01*
X013962Y015493D02*
X013962Y015493D01*
X013962Y015334D02*
X013962Y015334D01*
X013962Y015176D02*
X013962Y015176D01*
X013962Y015017D02*
X013962Y015017D01*
X013962Y014859D02*
X013962Y014859D01*
X013962Y014700D02*
X013962Y014700D01*
X013962Y014542D02*
X013962Y014542D01*
X013962Y014383D02*
X013962Y014383D01*
X011417Y015176D02*
X011000Y015176D01*
X010912Y015526D02*
X011787Y015526D01*
X016865Y015651D02*
X017060Y015651D01*
X018162Y016026D02*
X019162Y016026D01*
X019962Y015226D01*
X019962Y014901D01*
X019472Y014859D02*
X019452Y014859D01*
X019452Y015017D02*
X019472Y015017D01*
X019472Y015176D02*
X019452Y015176D01*
X020865Y015651D02*
X021060Y015651D01*
X019472Y014700D02*
X019452Y014700D01*
X019452Y014542D02*
X019473Y014542D01*
X019539Y014383D02*
X019386Y014383D01*
X019237Y014225D02*
X019688Y014225D01*
X018688Y014225D02*
X018237Y014225D01*
X018386Y014383D02*
X018539Y014383D01*
X018473Y014542D02*
X018452Y014542D01*
X018452Y014700D02*
X018472Y014700D01*
X022607Y013908D02*
X023859Y013908D01*
X023859Y013749D02*
X022597Y013749D01*
X022597Y013591D02*
X023859Y013591D01*
X023859Y013432D02*
X022597Y013432D01*
X022597Y013274D02*
X023944Y013274D01*
X023977Y013115D02*
X022597Y013115D01*
X022597Y012957D02*
X023977Y012957D01*
X023977Y012798D02*
X022597Y012798D01*
X022597Y012640D02*
X023977Y012640D01*
X023977Y012481D02*
X022597Y012481D01*
X022597Y012323D02*
X023977Y012323D01*
X023977Y012164D02*
X022597Y012164D01*
X022597Y012006D02*
X023977Y012006D01*
X023977Y011847D02*
X022597Y011847D01*
X022597Y011689D02*
X023977Y011689D01*
X023977Y011530D02*
X022597Y011530D01*
X022597Y011372D02*
X023977Y011372D01*
X023977Y011213D02*
X022597Y011213D01*
X022597Y011055D02*
X023977Y011055D01*
X023977Y010896D02*
X022597Y010896D01*
X022555Y010738D02*
X023977Y010738D01*
X023977Y010579D02*
X022404Y010579D01*
X022245Y010421D02*
X023977Y010421D01*
X023977Y010262D02*
X022087Y010262D01*
X021928Y010104D02*
X023977Y010104D01*
X023977Y009945D02*
X021770Y009945D01*
X021611Y009787D02*
X023951Y009787D01*
X023859Y009628D02*
X021453Y009628D01*
X021294Y009470D02*
X023859Y009470D01*
X023859Y009311D02*
X021136Y009311D01*
X020977Y009153D02*
X023859Y009153D01*
X023973Y008994D02*
X020819Y008994D01*
X020660Y008836D02*
X029153Y008836D01*
X029025Y008964D02*
X029376Y008613D01*
X029463Y008525D01*
X029577Y008478D01*
X031738Y008478D01*
X031762Y008472D01*
X031799Y008478D01*
X031837Y008478D01*
X031860Y008487D01*
X031893Y008493D01*
X031934Y008494D01*
X031953Y008502D01*
X031974Y008505D01*
X032009Y008527D01*
X032047Y008543D01*
X032061Y008558D01*
X032079Y008569D01*
X032104Y008603D01*
X032660Y009184D01*
X032701Y009226D01*
X032703Y009229D01*
X032705Y009231D01*
X032726Y009286D01*
X032748Y009339D01*
X032748Y009343D01*
X032750Y009346D01*
X032748Y009405D01*
X032748Y009614D01*
X032967Y009833D01*
X033219Y009581D01*
X033716Y009581D01*
X034067Y009933D01*
X034067Y010430D01*
X033916Y010581D01*
X033933Y010581D01*
X034067Y010716D01*
X034067Y011646D01*
X033933Y011781D01*
X033002Y011781D01*
X032867Y011646D01*
X032867Y011630D01*
X032716Y011781D01*
X032219Y011781D01*
X031967Y011530D01*
X031968Y011530D01*
X031967Y011530D02*
X031716Y011781D01*
X031219Y011781D01*
X030867Y011430D01*
X030867Y010933D01*
X031219Y010581D01*
X031231Y010581D01*
X031017Y010367D01*
X031017Y010201D01*
X031447Y010201D01*
X031447Y010161D01*
X031017Y010161D01*
X031017Y009995D01*
X031281Y009731D01*
X031447Y009731D01*
X031447Y010161D01*
X031487Y010161D01*
X031487Y009731D01*
X031654Y009731D01*
X031867Y009945D01*
X031867Y009933D01*
X032128Y009672D01*
X032128Y009525D01*
X031720Y009098D01*
X029767Y009098D01*
X029597Y009268D01*
X029597Y011740D01*
X029716Y011858D01*
X029716Y012444D01*
X029581Y012579D01*
X028994Y012579D01*
X028859Y012444D01*
X028859Y011858D01*
X028977Y011740D01*
X028977Y009077D01*
X029025Y008964D01*
X029012Y008994D02*
X024602Y008994D01*
X024716Y009153D02*
X028977Y009153D01*
X028977Y009311D02*
X024716Y009311D01*
X024716Y009470D02*
X028977Y009470D01*
X028977Y009628D02*
X024716Y009628D01*
X024624Y009787D02*
X028977Y009787D01*
X028977Y009945D02*
X024597Y009945D01*
X024597Y010104D02*
X028977Y010104D01*
X028977Y010262D02*
X024597Y010262D01*
X024597Y010421D02*
X028977Y010421D01*
X028977Y010579D02*
X024597Y010579D01*
X024597Y010738D02*
X028977Y010738D01*
X028977Y010896D02*
X024597Y010896D01*
X024597Y011055D02*
X028977Y011055D01*
X028977Y011213D02*
X024597Y011213D01*
X024597Y011372D02*
X028977Y011372D01*
X028977Y011530D02*
X024597Y011530D01*
X024597Y011689D02*
X028977Y011689D01*
X028870Y011847D02*
X024597Y011847D01*
X024597Y012006D02*
X028859Y012006D01*
X028859Y012164D02*
X024597Y012164D01*
X024597Y012323D02*
X028859Y012323D01*
X028896Y012481D02*
X024597Y012481D01*
X024287Y013651D02*
X024287Y009401D01*
X021527Y010579D02*
X002130Y010579D01*
X002130Y010421D02*
X021368Y010421D01*
X021210Y010262D02*
X002130Y010262D01*
X002130Y010104D02*
X021051Y010104D01*
X020893Y009945D02*
X002130Y009945D01*
X002130Y009787D02*
X020734Y009787D01*
X020576Y009628D02*
X002130Y009628D01*
X002130Y010738D02*
X021685Y010738D01*
X021844Y010896D02*
X002130Y010896D01*
X002221Y007568D02*
X008784Y007568D01*
X008634Y007409D02*
X002379Y007409D01*
X002538Y007251D02*
X004121Y007251D01*
X003740Y007092D02*
X002696Y007092D01*
X002855Y006934D02*
X003553Y006934D01*
X003426Y006775D02*
X003013Y006775D01*
X003172Y006617D02*
X003335Y006617D01*
X004564Y007251D02*
X008543Y007251D01*
X008477Y007092D02*
X004945Y007092D01*
X005132Y006934D02*
X008435Y006934D01*
X008424Y006775D02*
X005258Y006775D01*
X005350Y006617D02*
X008424Y006617D01*
X008463Y006458D02*
X005397Y006458D01*
X005433Y006300D02*
X008511Y006300D01*
X008603Y006141D02*
X005433Y006141D01*
X005418Y005983D02*
X008730Y005983D01*
X008914Y005824D02*
X005375Y005824D01*
X016185Y002337D02*
X016758Y002337D01*
X016884Y002179D02*
X016241Y002179D01*
X017167Y002179D02*
X017207Y002179D01*
X017207Y002337D02*
X017167Y002337D01*
X017167Y002496D02*
X017207Y002496D01*
X019868Y008043D02*
X054924Y008043D01*
X054859Y008202D02*
X020026Y008202D01*
X020185Y008360D02*
X054859Y008360D01*
X054859Y008519D02*
X031996Y008519D01*
X032175Y008677D02*
X054859Y008677D01*
X054977Y008836D02*
X032326Y008836D01*
X032478Y008994D02*
X054977Y008994D01*
X054977Y009153D02*
X032630Y009153D01*
X032737Y009311D02*
X054977Y009311D01*
X054977Y009470D02*
X032748Y009470D01*
X032763Y009628D02*
X033172Y009628D01*
X033014Y009787D02*
X032921Y009787D01*
X032438Y010100D02*
X032438Y009401D01*
X031865Y008802D01*
X031775Y008788D01*
X029638Y008788D01*
X029287Y009139D01*
X029287Y010413D01*
X029287Y010901D01*
X029287Y012151D01*
X029716Y012164D02*
X053961Y012164D01*
X053803Y012323D02*
X029716Y012323D01*
X029679Y012481D02*
X053644Y012481D01*
X054120Y012006D02*
X029716Y012006D01*
X029705Y011847D02*
X054278Y011847D01*
X054437Y011689D02*
X034025Y011689D01*
X034067Y011530D02*
X054595Y011530D01*
X054754Y011372D02*
X034067Y011372D01*
X034067Y011213D02*
X054912Y011213D01*
X054977Y011055D02*
X034067Y011055D01*
X034067Y010896D02*
X054977Y010896D01*
X054977Y010738D02*
X034067Y010738D01*
X033918Y010579D02*
X054977Y010579D01*
X054977Y010421D02*
X034067Y010421D01*
X034067Y010262D02*
X054977Y010262D01*
X054977Y010104D02*
X034067Y010104D01*
X034067Y009945D02*
X054977Y009945D01*
X054977Y009787D02*
X033921Y009787D01*
X033763Y009628D02*
X054977Y009628D01*
X055597Y010421D02*
X058825Y010421D01*
X058820Y010425D02*
X058955Y010290D01*
X059739Y010290D01*
X059874Y010425D01*
X059874Y011209D01*
X059739Y011344D01*
X058955Y011344D01*
X058820Y011209D01*
X058820Y010425D01*
X058820Y010579D02*
X055597Y010579D01*
X055597Y010738D02*
X058820Y010738D01*
X058820Y010896D02*
X055597Y010896D01*
X055597Y011055D02*
X058820Y011055D01*
X058824Y011213D02*
X055597Y011213D01*
X055583Y011372D02*
X066402Y011372D01*
X066402Y011530D02*
X059724Y011530D01*
X059724Y011488D02*
X059724Y011783D01*
X059366Y011783D01*
X059366Y011820D01*
X059329Y011820D01*
X059329Y012178D01*
X059034Y012178D01*
X059005Y012166D01*
X058983Y012143D01*
X058970Y012114D01*
X058970Y011820D01*
X059329Y011820D01*
X059329Y011783D01*
X058970Y011783D01*
X058970Y011488D01*
X058983Y011459D01*
X059005Y011436D01*
X059034Y011424D01*
X059329Y011424D01*
X059329Y011783D01*
X059366Y011783D01*
X059366Y011424D01*
X059660Y011424D01*
X059689Y011436D01*
X059712Y011459D01*
X059724Y011488D01*
X059724Y011689D02*
X066402Y011689D01*
X066402Y011847D02*
X059724Y011847D01*
X059724Y011820D02*
X059724Y012114D01*
X059712Y012143D01*
X059689Y012166D01*
X059660Y012178D01*
X059366Y012178D01*
X059366Y011820D01*
X059724Y011820D01*
X059724Y012006D02*
X066402Y012006D01*
X066402Y012164D02*
X059691Y012164D01*
X059739Y012259D02*
X058955Y012259D01*
X058820Y012393D01*
X058820Y013177D01*
X058955Y013312D01*
X059739Y013312D01*
X059874Y013177D01*
X059874Y012393D01*
X059739Y012259D01*
X059803Y012323D02*
X066402Y012323D01*
X066402Y012481D02*
X065433Y012481D01*
X065433Y012473D02*
X065433Y012767D01*
X065074Y012767D01*
X065074Y012409D01*
X065369Y012409D01*
X065398Y012421D01*
X065421Y012443D01*
X065433Y012473D01*
X065433Y012640D02*
X066402Y012640D01*
X066402Y012798D02*
X065074Y012798D01*
X065074Y012804D02*
X065433Y012804D01*
X065433Y013098D01*
X065421Y013128D01*
X065398Y013150D01*
X065369Y013162D01*
X065074Y013162D01*
X065074Y012804D01*
X065037Y012804D01*
X065037Y012767D01*
X064679Y012767D01*
X064679Y012473D01*
X064691Y012443D01*
X064714Y012421D01*
X064743Y012409D01*
X065037Y012409D01*
X065037Y012767D01*
X065074Y012767D01*
X065074Y012804D01*
X065037Y012804D02*
X065037Y013162D01*
X064743Y013162D01*
X064714Y013150D01*
X064691Y013128D01*
X064679Y013098D01*
X064679Y012804D01*
X065037Y012804D01*
X065037Y012798D02*
X059874Y012798D01*
X059874Y012640D02*
X064679Y012640D01*
X064679Y012481D02*
X059874Y012481D01*
X059366Y012164D02*
X059329Y012164D01*
X059329Y012006D02*
X059366Y012006D01*
X059366Y011847D02*
X059329Y011847D01*
X059329Y011689D02*
X059366Y011689D01*
X059366Y011530D02*
X059329Y011530D01*
X058970Y011530D02*
X055472Y011530D01*
X055313Y011689D02*
X058970Y011689D01*
X058970Y011847D02*
X055155Y011847D01*
X054996Y012006D02*
X058970Y012006D01*
X059003Y012164D02*
X054838Y012164D01*
X054679Y012323D02*
X058891Y012323D01*
X058820Y012481D02*
X054521Y012481D01*
X054362Y012640D02*
X058820Y012640D01*
X058820Y012798D02*
X054204Y012798D01*
X054045Y012957D02*
X058820Y012957D01*
X058820Y013115D02*
X053966Y013115D01*
X053966Y013274D02*
X058916Y013274D01*
X059778Y013274D02*
X066402Y013274D01*
X066402Y013432D02*
X063121Y013432D01*
X063163Y013591D02*
X066402Y013591D01*
X066402Y013749D02*
X063163Y013749D01*
X063163Y013908D02*
X066402Y013908D01*
X066402Y014066D02*
X063163Y014066D01*
X063163Y014225D02*
X066402Y014225D01*
X066402Y014383D02*
X063163Y014383D01*
X063163Y014542D02*
X066402Y014542D01*
X066542Y014700D02*
X063163Y014700D01*
X063163Y014859D02*
X071322Y014859D01*
X071322Y015017D02*
X063077Y015017D01*
X061523Y015017D02*
X058847Y015017D01*
X058847Y015161D02*
X058487Y015161D01*
X058487Y014501D01*
X058505Y014501D01*
X058578Y014516D01*
X058647Y014544D01*
X058710Y014586D01*
X058763Y014639D01*
X058804Y014701D01*
X058833Y014770D01*
X058847Y014844D01*
X058847Y015161D01*
X058847Y015201D02*
X058847Y015519D01*
X058833Y015592D01*
X058804Y015661D01*
X058763Y015723D01*
X058710Y015776D01*
X058647Y015818D01*
X058578Y015846D01*
X058505Y015861D01*
X058487Y015861D01*
X058487Y015201D01*
X058447Y015201D01*
X058447Y015161D01*
X058087Y015161D01*
X058087Y014844D01*
X058102Y014770D01*
X058131Y014701D01*
X058172Y014639D01*
X058225Y014586D01*
X058287Y014544D01*
X058357Y014516D01*
X058430Y014501D01*
X058447Y014501D01*
X058447Y015161D01*
X058487Y015161D01*
X058487Y015201D01*
X058847Y015201D01*
X058847Y015334D02*
X071322Y015334D01*
X071322Y015176D02*
X058487Y015176D01*
X058447Y015176D02*
X057997Y015176D01*
X058087Y015201D02*
X058447Y015201D01*
X058447Y015861D01*
X058430Y015861D01*
X058357Y015846D01*
X058287Y015818D01*
X058225Y015776D01*
X058172Y015723D01*
X058131Y015661D01*
X058102Y015592D01*
X058087Y015519D01*
X058087Y015201D01*
X058087Y015334D02*
X057997Y015334D01*
X057997Y015493D02*
X058087Y015493D01*
X057997Y015587D02*
X057917Y015781D01*
X057768Y015930D01*
X057573Y016011D01*
X057362Y016011D01*
X057167Y015930D01*
X057018Y015781D01*
X056967Y015659D01*
X056917Y015781D01*
X056768Y015930D01*
X056573Y016011D01*
X056362Y016011D01*
X056167Y015930D01*
X056018Y015781D01*
X055937Y015587D01*
X055937Y014776D01*
X056018Y014581D01*
X056167Y014432D01*
X056362Y014351D01*
X056573Y014351D01*
X056768Y014432D01*
X056917Y014581D01*
X056967Y014703D01*
X057018Y014581D01*
X057167Y014432D01*
X057362Y014351D01*
X057573Y014351D01*
X057768Y014432D01*
X057917Y014581D01*
X057997Y014776D01*
X057997Y015587D01*
X057971Y015651D02*
X058127Y015651D01*
X058275Y015810D02*
X057889Y015810D01*
X057677Y015968D02*
X071322Y015968D01*
X071322Y015810D02*
X058660Y015810D01*
X058487Y015810D02*
X058447Y015810D01*
X058447Y015651D02*
X058487Y015651D01*
X058487Y015493D02*
X058447Y015493D01*
X058447Y015334D02*
X058487Y015334D01*
X058487Y015017D02*
X058447Y015017D01*
X058447Y014859D02*
X058487Y014859D01*
X058487Y014700D02*
X058447Y014700D01*
X058447Y014542D02*
X058487Y014542D01*
X058641Y014542D02*
X061437Y014542D01*
X061437Y014700D02*
X058804Y014700D01*
X058847Y014859D02*
X061437Y014859D01*
X061437Y014383D02*
X057650Y014383D01*
X057877Y014542D02*
X058294Y014542D01*
X058131Y014700D02*
X057966Y014700D01*
X057997Y014859D02*
X058087Y014859D01*
X058087Y015017D02*
X057997Y015017D01*
X056969Y014700D02*
X056966Y014700D01*
X056877Y014542D02*
X057057Y014542D01*
X057285Y014383D02*
X056650Y014383D01*
X056285Y014383D02*
X041262Y014383D01*
X041262Y014357D02*
X041262Y015335D01*
X041171Y015556D01*
X041002Y015725D01*
X040782Y015816D01*
X040543Y015816D01*
X040323Y015725D01*
X040162Y015565D01*
X040002Y015725D01*
X039782Y015816D01*
X039543Y015816D01*
X039323Y015725D01*
X039154Y015556D01*
X039082Y015382D01*
X039079Y015389D01*
X039047Y015452D01*
X039006Y015509D01*
X038956Y015559D01*
X038898Y015601D01*
X038835Y015633D01*
X038768Y015655D01*
X038698Y015666D01*
X038692Y015666D01*
X038692Y014876D01*
X038632Y014876D01*
X038632Y014816D01*
X038212Y014816D01*
X038212Y014441D01*
X038224Y014371D01*
X038245Y014303D01*
X038278Y014240D01*
X038319Y014183D01*
X038369Y014133D01*
X038427Y014091D01*
X038490Y014059D01*
X038557Y014037D01*
X038627Y014026D01*
X038632Y014026D01*
X038632Y014816D01*
X038692Y014816D01*
X038692Y014026D01*
X038698Y014026D01*
X038768Y014037D01*
X038835Y014059D01*
X038898Y014091D01*
X038956Y014133D01*
X039006Y014183D01*
X039047Y014240D01*
X039079Y014303D01*
X039082Y014310D01*
X039154Y014136D01*
X039323Y013967D01*
X039543Y013876D01*
X039782Y013876D01*
X040002Y013967D01*
X040162Y014128D01*
X040323Y013967D01*
X040543Y013876D01*
X040782Y013876D01*
X041002Y013967D01*
X041171Y014136D01*
X041262Y014357D01*
X041208Y014225D02*
X061437Y014225D01*
X061437Y014066D02*
X041101Y014066D01*
X040858Y013908D02*
X061437Y013908D01*
X061437Y013749D02*
X027784Y013749D01*
X027986Y013908D02*
X039467Y013908D01*
X039224Y014066D02*
X038849Y014066D01*
X038692Y014066D02*
X038632Y014066D01*
X038476Y014066D02*
X028121Y014066D01*
X028213Y014225D02*
X038289Y014225D01*
X038222Y014383D02*
X028266Y014383D01*
X028308Y014542D02*
X038212Y014542D01*
X038212Y014700D02*
X028308Y014700D01*
X028299Y014859D02*
X038632Y014859D01*
X038632Y014876D02*
X038212Y014876D01*
X038212Y015252D01*
X038224Y015321D01*
X038245Y015389D01*
X038278Y015452D01*
X038319Y015509D01*
X038369Y015559D01*
X038427Y015601D01*
X038490Y015633D01*
X038557Y015655D01*
X038627Y015666D01*
X038632Y015666D01*
X038632Y014876D01*
X038632Y015017D02*
X038692Y015017D01*
X038692Y015176D02*
X038632Y015176D01*
X038632Y015334D02*
X038692Y015334D01*
X038692Y015493D02*
X038632Y015493D01*
X038632Y015651D02*
X038692Y015651D01*
X038780Y015651D02*
X039249Y015651D01*
X039128Y015493D02*
X039018Y015493D01*
X038545Y015651D02*
X027718Y015651D01*
X027948Y015493D02*
X038307Y015493D01*
X038228Y015334D02*
X028099Y015334D01*
X028191Y015176D02*
X038212Y015176D01*
X038212Y015017D02*
X028256Y015017D01*
X026438Y016127D02*
X023847Y016127D01*
X023847Y016285D02*
X026279Y016285D01*
X026121Y016444D02*
X023847Y016444D01*
X023847Y016602D02*
X025962Y016602D01*
X025804Y016761D02*
X023847Y016761D01*
X026046Y017395D02*
X071322Y017395D01*
X071322Y017236D02*
X026205Y017236D01*
X026363Y017078D02*
X071322Y017078D01*
X071322Y016919D02*
X026522Y016919D01*
X026680Y016761D02*
X071322Y016761D01*
X071322Y016602D02*
X026839Y016602D01*
X026997Y016444D02*
X036156Y016444D01*
X036953Y016444D02*
X071322Y016444D01*
X071322Y016285D02*
X036983Y016285D01*
X036983Y016127D02*
X071322Y016127D01*
X071322Y015651D02*
X058808Y015651D01*
X058847Y015493D02*
X071322Y015493D01*
X066402Y013115D02*
X065426Y013115D01*
X065433Y012957D02*
X066402Y012957D01*
X065074Y012957D02*
X065037Y012957D01*
X065037Y013115D02*
X065074Y013115D01*
X064686Y013115D02*
X059874Y013115D01*
X059874Y012957D02*
X064679Y012957D01*
X065037Y012640D02*
X065074Y012640D01*
X065074Y012481D02*
X065037Y012481D01*
X064664Y011344D02*
X064529Y011209D01*
X064529Y010425D01*
X064664Y010290D01*
X065448Y010290D01*
X065583Y010425D01*
X065583Y011209D01*
X065448Y011344D01*
X064664Y011344D01*
X064533Y011213D02*
X059870Y011213D01*
X059874Y011055D02*
X064529Y011055D01*
X064529Y010896D02*
X059874Y010896D01*
X059874Y010738D02*
X064529Y010738D01*
X064529Y010579D02*
X059874Y010579D01*
X059870Y010421D02*
X064533Y010421D01*
X065579Y010421D02*
X066402Y010421D01*
X066402Y010579D02*
X065583Y010579D01*
X065583Y010738D02*
X066402Y010738D01*
X066402Y010896D02*
X065583Y010896D01*
X065583Y011055D02*
X066402Y011055D01*
X066402Y011213D02*
X065579Y011213D01*
X056057Y014542D02*
X041262Y014542D01*
X041262Y014700D02*
X055969Y014700D01*
X055937Y014859D02*
X041262Y014859D01*
X041262Y015017D02*
X055937Y015017D01*
X055937Y015176D02*
X041262Y015176D01*
X041262Y015334D02*
X055937Y015334D01*
X055937Y015493D02*
X041197Y015493D01*
X041076Y015651D02*
X055964Y015651D01*
X056046Y015810D02*
X040798Y015810D01*
X040527Y015810D02*
X039798Y015810D01*
X039527Y015810D02*
X036965Y015810D01*
X036983Y015968D02*
X056258Y015968D01*
X056677Y015968D02*
X057258Y015968D01*
X057046Y015810D02*
X056889Y015810D01*
X059332Y019426D02*
X061572Y019416D01*
X061792Y019496D01*
X061792Y020121D01*
X061787Y020196D01*
X061797Y019471D01*
X062072Y019476D01*
X067732Y019466D01*
X068982Y020716D01*
X068982Y022506D01*
X068912Y022576D01*
X068872Y022576D01*
X068772Y022676D01*
X068772Y026216D01*
X068112Y026876D01*
X068112Y026886D01*
X067102Y027896D01*
X064212Y027896D01*
X063802Y027486D01*
X063802Y027196D01*
X063292Y026686D01*
X061272Y026686D01*
X059855Y025269D01*
X059752Y025269D01*
X059514Y024686D02*
X057312Y024686D01*
X057312Y024844D02*
X058428Y024844D01*
X058401Y024858D02*
X058468Y024824D01*
X058540Y024800D01*
X058615Y024789D01*
X058632Y024789D01*
X058632Y025249D01*
X058172Y025249D01*
X058172Y025231D01*
X058184Y025156D01*
X058208Y025084D01*
X058242Y025017D01*
X058286Y024956D01*
X058340Y024902D01*
X058401Y024858D01*
X058252Y025003D02*
X057312Y025003D01*
X057312Y025161D02*
X058184Y025161D01*
X058172Y025289D02*
X058632Y025289D01*
X058632Y025249D01*
X058672Y025249D01*
X058672Y024789D01*
X058690Y024789D01*
X058765Y024800D01*
X058837Y024824D01*
X058904Y024858D01*
X058965Y024902D01*
X059019Y024956D01*
X059063Y025017D01*
X059097Y025084D01*
X059121Y025156D01*
X059122Y025168D01*
X059122Y025143D01*
X059218Y024912D01*
X059396Y024735D01*
X059627Y024639D01*
X059878Y024639D01*
X060109Y024735D01*
X060287Y024912D01*
X060382Y025143D01*
X060382Y025358D01*
X061063Y026038D01*
X061112Y025919D01*
X061250Y025781D01*
X061430Y025706D01*
X061838Y025706D01*
X061858Y025686D01*
X061430Y025686D01*
X061250Y025612D01*
X061112Y025474D01*
X061037Y025294D01*
X061037Y025099D01*
X061112Y024919D01*
X061250Y024781D01*
X061430Y024706D01*
X062145Y024706D01*
X062325Y024781D01*
X062463Y024919D01*
X062510Y025032D01*
X063010Y024530D01*
X063010Y024529D01*
X063053Y024487D01*
X063096Y024444D01*
X063097Y024443D01*
X063098Y024443D01*
X063154Y024420D01*
X063210Y024396D01*
X063211Y024396D01*
X063212Y024396D01*
X063273Y024396D01*
X063334Y024396D01*
X063334Y024396D01*
X064081Y024399D01*
X064037Y024294D01*
X064037Y024099D01*
X064112Y023919D01*
X064250Y023781D01*
X064430Y023706D01*
X065145Y023706D01*
X065325Y023781D01*
X065463Y023919D01*
X065537Y024099D01*
X065537Y024294D01*
X065491Y024405D01*
X065715Y024406D01*
X065810Y024311D01*
X065897Y024223D01*
X066011Y024176D01*
X066148Y024176D01*
X066148Y023802D01*
X066283Y023667D01*
X066298Y023667D01*
X066298Y023611D01*
X066298Y023556D01*
X066283Y023556D01*
X066233Y023506D01*
X066131Y023506D01*
X066017Y023459D01*
X065930Y023372D01*
X065534Y022976D01*
X065487Y022976D01*
X065537Y023099D01*
X065537Y023294D01*
X065463Y023474D01*
X065325Y023612D01*
X065145Y023686D01*
X064430Y023686D01*
X064250Y023612D01*
X064112Y023474D01*
X064037Y023294D01*
X064037Y023099D01*
X064088Y022976D01*
X063831Y022976D01*
X063717Y022929D01*
X063630Y022842D01*
X063294Y022506D01*
X062430Y022506D01*
X062325Y022612D01*
X062145Y022686D01*
X061430Y022686D01*
X061250Y022612D01*
X061112Y022474D01*
X061037Y022294D01*
X061037Y022099D01*
X061112Y021919D01*
X061250Y021781D01*
X061430Y021706D01*
X062145Y021706D01*
X062325Y021781D01*
X062430Y021886D01*
X063484Y021886D01*
X063598Y021933D01*
X064021Y022356D01*
X064063Y022356D01*
X064037Y022294D01*
X064037Y022099D01*
X064112Y021919D01*
X064250Y021781D01*
X064430Y021706D01*
X065145Y021706D01*
X065325Y021781D01*
X065463Y021919D01*
X065537Y022099D01*
X065537Y022294D01*
X065512Y022356D01*
X065724Y022356D01*
X065838Y022403D01*
X066148Y022714D01*
X066148Y021636D01*
X066283Y021502D01*
X066850Y021502D01*
X066760Y021412D01*
X066712Y021298D01*
X066712Y020288D01*
X066594Y020169D01*
X066594Y019778D01*
X065324Y019780D01*
X065325Y019781D01*
X065463Y019919D01*
X065537Y020099D01*
X065537Y020294D01*
X065463Y020474D01*
X065325Y020612D01*
X065145Y020686D01*
X064430Y020686D01*
X064250Y020612D01*
X064112Y020474D01*
X064037Y020294D01*
X064037Y020099D01*
X064112Y019919D01*
X064248Y019782D01*
X062330Y019786D01*
X062463Y019919D01*
X062537Y020099D01*
X062537Y020294D01*
X062463Y020474D01*
X062325Y020612D01*
X062145Y020686D01*
X061430Y020686D01*
X061250Y020612D01*
X061112Y020474D01*
X061037Y020294D01*
X061037Y020099D01*
X061112Y019919D01*
X061250Y019781D01*
X061380Y019727D01*
X060625Y019730D01*
X060625Y020940D01*
X060490Y021074D01*
X060376Y021074D01*
X060372Y021082D01*
X060372Y021088D01*
X060325Y021202D01*
X060238Y021289D01*
X059928Y021599D01*
X059814Y021646D01*
X057671Y021646D01*
X057557Y021599D01*
X057470Y021512D01*
X057176Y021218D01*
X056275Y021228D01*
X056272Y021236D01*
X056123Y021385D01*
X056000Y021436D01*
X056123Y021487D01*
X056240Y021604D01*
X056394Y021602D01*
X056394Y021523D01*
X056529Y021388D01*
X057116Y021388D01*
X057251Y021523D01*
X057251Y022109D01*
X057116Y022244D01*
X056529Y022244D01*
X056505Y022220D01*
X056277Y022224D01*
X056272Y022236D01*
X056123Y022385D01*
X056000Y022436D01*
X056123Y022487D01*
X056272Y022636D01*
X056352Y022831D01*
X056352Y023042D01*
X056272Y023236D01*
X056123Y023385D01*
X056000Y023436D01*
X056123Y023487D01*
X056262Y023626D01*
X056754Y023626D01*
X056868Y023673D01*
X056955Y023761D01*
X057265Y024071D01*
X057312Y024184D01*
X057312Y025378D01*
X058431Y026496D01*
X058511Y026496D01*
X058762Y026748D01*
X059014Y026496D01*
X059511Y026496D01*
X059801Y026786D01*
X059974Y026786D01*
X060088Y026833D01*
X060128Y026873D01*
X060215Y026961D01*
X060262Y027074D01*
X060262Y028598D01*
X060215Y028712D01*
X060031Y028896D01*
X061897Y028896D01*
X061788Y028786D01*
X061788Y028576D01*
X061661Y028576D01*
X061661Y028599D01*
X061526Y028734D01*
X060939Y028734D01*
X060804Y028599D01*
X060804Y028013D01*
X060939Y027878D01*
X061526Y027878D01*
X061604Y027956D01*
X061788Y027956D01*
X061788Y027886D01*
X061922Y027751D01*
X062743Y027751D01*
X062878Y027886D01*
X062878Y028786D01*
X062768Y028896D01*
X063017Y028896D01*
X062907Y028786D01*
X062907Y027886D01*
X063042Y027751D01*
X063629Y027751D01*
X063540Y027662D01*
X063492Y027548D01*
X063492Y027325D01*
X063164Y026996D01*
X062323Y026996D01*
X062349Y027035D01*
X062374Y027097D01*
X062387Y027163D01*
X062387Y027196D01*
X061787Y027196D01*
X061187Y027196D01*
X061187Y027163D01*
X061201Y027097D01*
X061226Y027035D01*
X061252Y026996D01*
X061211Y026996D01*
X061097Y026949D01*
X061010Y026862D01*
X059997Y025849D01*
X059878Y025899D01*
X059627Y025899D01*
X059396Y025803D01*
X059218Y025625D01*
X059122Y025394D01*
X059122Y025370D01*
X059121Y025381D01*
X059097Y025453D01*
X059063Y025520D01*
X059019Y025581D01*
X058965Y025635D01*
X058904Y025679D01*
X058837Y025713D01*
X058765Y025737D01*
X058690Y025749D01*
X058672Y025749D01*
X058672Y025289D01*
X058632Y025289D01*
X058632Y025749D01*
X058615Y025749D01*
X058540Y025737D01*
X058468Y025713D01*
X058401Y025679D01*
X058340Y025635D01*
X058286Y025581D01*
X058242Y025520D01*
X058208Y025453D01*
X058184Y025381D01*
X058172Y025306D01*
X058172Y025289D01*
X058175Y025320D02*
X057312Y025320D01*
X057413Y025478D02*
X058220Y025478D01*
X058342Y025637D02*
X057571Y025637D01*
X057730Y025795D02*
X059388Y025795D01*
X059229Y025637D02*
X058963Y025637D01*
X059084Y025478D02*
X059157Y025478D01*
X059122Y025161D02*
X059121Y025161D01*
X059181Y025003D02*
X059052Y025003D01*
X058877Y024844D02*
X059286Y024844D01*
X058672Y024844D02*
X058632Y024844D01*
X058632Y025003D02*
X058672Y025003D01*
X058672Y025161D02*
X058632Y025161D01*
X058652Y025269D02*
X058662Y025286D01*
X059682Y026306D01*
X060342Y026306D01*
X061182Y027146D01*
X061737Y027146D01*
X061787Y027196D01*
X061787Y027196D01*
X061187Y027196D01*
X061187Y027230D01*
X061201Y027295D01*
X061226Y027357D01*
X061263Y027413D01*
X061311Y027460D01*
X061366Y027497D01*
X061428Y027523D01*
X061494Y027536D01*
X061787Y027536D01*
X061787Y027196D01*
X061787Y027196D01*
X061787Y027536D01*
X062081Y027536D01*
X062147Y027523D01*
X062209Y027497D01*
X062264Y027460D01*
X062312Y027413D01*
X062349Y027357D01*
X062374Y027295D01*
X062387Y027230D01*
X062387Y027196D01*
X061787Y027196D01*
X061787Y027196D01*
X061787Y027222D02*
X061787Y027222D01*
X061787Y027380D02*
X061787Y027380D01*
X061818Y027856D02*
X060262Y027856D01*
X060262Y028014D02*
X060804Y028014D01*
X060804Y028173D02*
X060262Y028173D01*
X060262Y028331D02*
X060804Y028331D01*
X060804Y028490D02*
X060262Y028490D01*
X060242Y028648D02*
X060853Y028648D01*
X061222Y028326D02*
X061282Y028266D01*
X062192Y028266D01*
X061788Y028648D02*
X061612Y028648D01*
X061808Y028807D02*
X060120Y028807D01*
X059952Y028536D02*
X059642Y028846D01*
X056042Y028846D01*
X054632Y027436D01*
X054632Y020916D01*
X054682Y020866D01*
X055482Y020866D01*
X055542Y020926D01*
X055472Y020856D01*
X054672Y020856D01*
X055542Y020926D02*
X057302Y020906D01*
X057732Y021336D01*
X059752Y021336D01*
X059752Y021316D01*
X060072Y020996D01*
X060072Y020376D01*
X060122Y020326D01*
X060062Y020271D02*
X060080Y020254D01*
X060062Y020271D02*
X060062Y021026D01*
X059752Y021336D01*
X060011Y021516D02*
X061154Y021516D01*
X061112Y021474D02*
X061037Y021294D01*
X061037Y021099D01*
X061112Y020919D01*
X061250Y020781D01*
X061430Y020706D01*
X062145Y020706D01*
X062325Y020781D01*
X062463Y020919D01*
X062537Y021099D01*
X062537Y021294D01*
X062463Y021474D01*
X062325Y021612D01*
X062145Y021686D01*
X061430Y021686D01*
X061250Y021612D01*
X061112Y021474D01*
X061064Y021357D02*
X060170Y021357D01*
X060327Y021199D02*
X061037Y021199D01*
X061062Y021040D02*
X060525Y021040D01*
X060625Y020882D02*
X061149Y020882D01*
X061389Y020723D02*
X060625Y020723D01*
X060625Y020565D02*
X061203Y020565D01*
X061084Y020406D02*
X060625Y020406D01*
X060625Y020248D02*
X061037Y020248D01*
X061041Y020089D02*
X060625Y020089D01*
X060625Y019931D02*
X061107Y019931D01*
X061271Y019772D02*
X060625Y019772D01*
X059332Y019426D02*
X058495Y020254D01*
X058285Y020254D01*
X057937Y019906D01*
X055542Y019926D01*
X056151Y021357D02*
X057315Y021357D01*
X057243Y021516D02*
X057474Y021516D01*
X057251Y021674D02*
X061401Y021674D01*
X061198Y021833D02*
X060399Y021833D01*
X060404Y021844D02*
X060404Y023001D01*
X059262Y023001D01*
X059262Y021780D01*
X060340Y021780D01*
X060370Y021792D01*
X060392Y021815D01*
X060404Y021844D01*
X060404Y021991D02*
X061082Y021991D01*
X061037Y022150D02*
X060404Y022150D01*
X060404Y022308D02*
X061043Y022308D01*
X061109Y022467D02*
X060404Y022467D01*
X060404Y022625D02*
X061283Y022625D01*
X061250Y022781D02*
X061430Y022706D01*
X062145Y022706D01*
X062325Y022781D01*
X062463Y022919D01*
X062537Y023099D01*
X062537Y023294D01*
X062463Y023474D01*
X062325Y023612D01*
X062145Y023686D01*
X061430Y023686D01*
X061250Y023612D01*
X061112Y023474D01*
X061037Y023294D01*
X061037Y023099D01*
X061112Y022919D01*
X061250Y022781D01*
X061247Y022784D02*
X060404Y022784D01*
X060404Y022942D02*
X061102Y022942D01*
X061037Y023101D02*
X059262Y023101D01*
X059262Y023161D02*
X060404Y023161D01*
X060404Y024317D01*
X060392Y024346D01*
X060370Y024369D01*
X061069Y024369D01*
X061037Y024294D02*
X061037Y024099D01*
X061112Y023919D01*
X061250Y023781D01*
X061430Y023706D01*
X062145Y023706D01*
X062325Y023781D01*
X062463Y023919D01*
X062537Y024099D01*
X062537Y024294D01*
X062463Y024474D01*
X062325Y024612D01*
X062145Y024686D01*
X061430Y024686D01*
X061250Y024612D01*
X061112Y024474D01*
X061037Y024294D01*
X061037Y024210D02*
X060404Y024210D01*
X060404Y024052D02*
X061057Y024052D01*
X061138Y023893D02*
X060404Y023893D01*
X060404Y023735D02*
X061361Y023735D01*
X061214Y023576D02*
X060404Y023576D01*
X060404Y023418D02*
X061089Y023418D01*
X061037Y023259D02*
X060404Y023259D01*
X059567Y022696D02*
X059182Y023081D01*
X058662Y023601D01*
X058652Y025269D01*
X058632Y025320D02*
X058672Y025320D01*
X058672Y025478D02*
X058632Y025478D01*
X058632Y025637D02*
X058672Y025637D01*
X058047Y026112D02*
X060260Y026112D01*
X060102Y025954D02*
X057888Y025954D01*
X058205Y026271D02*
X060419Y026271D01*
X060577Y026429D02*
X058364Y026429D01*
X058602Y026588D02*
X058922Y026588D01*
X058764Y026746D02*
X058761Y026746D01*
X058262Y026766D02*
X057002Y025506D01*
X057002Y024246D01*
X056692Y023936D01*
X055552Y023936D01*
X055542Y023926D01*
X056212Y023576D02*
X057961Y023576D01*
X057961Y023418D02*
X056045Y023418D01*
X056249Y023259D02*
X057961Y023259D01*
X057961Y023161D02*
X059102Y023161D01*
X059102Y023001D01*
X057961Y023001D01*
X057961Y021844D01*
X057973Y021815D01*
X057995Y021792D01*
X058025Y021780D01*
X059102Y021780D01*
X059102Y023001D01*
X059262Y023001D01*
X059262Y023161D01*
X059102Y023161D01*
X059102Y024381D01*
X058025Y024381D01*
X057995Y024369D01*
X057973Y024346D01*
X057961Y024317D01*
X057961Y023161D01*
X057961Y022942D02*
X056352Y022942D01*
X056333Y022784D02*
X057961Y022784D01*
X057961Y022625D02*
X056261Y022625D01*
X056074Y022467D02*
X057961Y022467D01*
X057961Y022308D02*
X056200Y022308D01*
X057211Y022150D02*
X057961Y022150D01*
X057961Y021991D02*
X057251Y021991D01*
X057251Y021833D02*
X057966Y021833D01*
X056822Y021816D02*
X056732Y021906D01*
X055542Y021926D01*
X056151Y021516D02*
X056402Y021516D01*
X059102Y021833D02*
X059262Y021833D01*
X059262Y021991D02*
X059102Y021991D01*
X059102Y022150D02*
X059262Y022150D01*
X059262Y022308D02*
X059102Y022308D01*
X059102Y022467D02*
X059262Y022467D01*
X059262Y022625D02*
X059102Y022625D01*
X059102Y022784D02*
X059262Y022784D01*
X059262Y022942D02*
X059102Y022942D01*
X059102Y023101D02*
X056328Y023101D01*
X056929Y023735D02*
X057961Y023735D01*
X057961Y023893D02*
X057088Y023893D01*
X057246Y024052D02*
X057961Y024052D01*
X057961Y024210D02*
X057312Y024210D01*
X057312Y024369D02*
X057995Y024369D01*
X057312Y024527D02*
X061165Y024527D01*
X061429Y024686D02*
X059991Y024686D01*
X060219Y024844D02*
X061187Y024844D01*
X061077Y025003D02*
X060324Y025003D01*
X060382Y025161D02*
X061037Y025161D01*
X061048Y025320D02*
X060382Y025320D01*
X060503Y025478D02*
X061116Y025478D01*
X061310Y025637D02*
X060661Y025637D01*
X060820Y025795D02*
X061236Y025795D01*
X061098Y025954D02*
X060978Y025954D01*
X061787Y026196D02*
X063272Y024706D01*
X065842Y024716D01*
X066072Y024486D01*
X066665Y024486D01*
X066674Y024478D01*
X067251Y024045D02*
X067552Y024346D01*
X067552Y026346D01*
X067222Y026676D01*
X066112Y026676D01*
X065962Y026826D01*
X067472Y028226D02*
X067942Y027756D01*
X067952Y027756D01*
X068472Y027236D01*
X068962Y027236D01*
X067472Y028226D02*
X063822Y028226D01*
X063622Y028426D01*
X062907Y028490D02*
X062878Y028490D01*
X062878Y028648D02*
X062907Y028648D01*
X062928Y028807D02*
X062857Y028807D01*
X062878Y028331D02*
X062907Y028331D01*
X062907Y028173D02*
X062878Y028173D01*
X062878Y028014D02*
X062907Y028014D01*
X062938Y027856D02*
X062847Y027856D01*
X062333Y027380D02*
X063492Y027380D01*
X063492Y027539D02*
X060262Y027539D01*
X060262Y027697D02*
X063575Y027697D01*
X063390Y027222D02*
X062387Y027222D01*
X062360Y027063D02*
X063231Y027063D01*
X061241Y027380D02*
X060262Y027380D01*
X060262Y027222D02*
X061187Y027222D01*
X061215Y027063D02*
X060258Y027063D01*
X060159Y026905D02*
X061053Y026905D01*
X060894Y026746D02*
X059761Y026746D01*
X059602Y026588D02*
X060736Y026588D01*
X059952Y027136D02*
X059952Y028536D01*
X059952Y027136D02*
X059912Y027096D01*
X059262Y027096D01*
X058262Y027096D02*
X058262Y026766D01*
X062498Y025003D02*
X062539Y025003D01*
X062388Y024844D02*
X062697Y024844D01*
X062855Y024686D02*
X062146Y024686D01*
X062409Y024527D02*
X063013Y024527D01*
X062506Y024369D02*
X064069Y024369D01*
X064037Y024210D02*
X062537Y024210D01*
X062518Y024052D02*
X064057Y024052D01*
X064138Y023893D02*
X062437Y023893D01*
X062214Y023735D02*
X064361Y023735D01*
X064214Y023576D02*
X062360Y023576D01*
X062486Y023418D02*
X064089Y023418D01*
X064037Y023259D02*
X062537Y023259D01*
X062537Y023101D02*
X064037Y023101D01*
X063749Y022942D02*
X062473Y022942D01*
X062328Y022784D02*
X063572Y022784D01*
X063413Y022625D02*
X062292Y022625D01*
X062352Y022696D02*
X059567Y022696D01*
X059262Y023161D02*
X059262Y024381D01*
X060340Y024381D01*
X060370Y024369D01*
X059262Y024369D02*
X059102Y024369D01*
X059102Y024210D02*
X059262Y024210D01*
X059262Y024052D02*
X059102Y024052D01*
X059102Y023893D02*
X059262Y023893D01*
X059262Y023735D02*
X059102Y023735D01*
X059102Y023576D02*
X059262Y023576D01*
X059262Y023418D02*
X059102Y023418D01*
X059102Y023259D02*
X059262Y023259D01*
X061787Y022196D02*
X063422Y022196D01*
X063892Y022666D01*
X065662Y022666D01*
X066192Y023196D01*
X066656Y023196D01*
X066674Y023178D01*
X066674Y022746D02*
X066674Y022745D01*
X066674Y022746D02*
X067202Y022746D01*
X067372Y022576D01*
X068872Y022576D01*
X068462Y022886D02*
X067501Y022886D01*
X067465Y022922D01*
X067378Y023009D01*
X067264Y023056D01*
X067199Y023056D01*
X067199Y023421D01*
X067064Y023556D01*
X067049Y023556D01*
X067049Y023611D01*
X066674Y023611D01*
X066674Y023611D01*
X067049Y023611D01*
X067049Y023667D01*
X067064Y023667D01*
X067132Y023735D01*
X067313Y023735D01*
X068462Y023735D01*
X068462Y023893D02*
X067538Y023893D01*
X067426Y023782D02*
X067728Y024083D01*
X067815Y024171D01*
X067862Y024284D01*
X067862Y024982D01*
X067982Y024933D01*
X068298Y024933D01*
X068462Y025001D01*
X068462Y022886D01*
X068462Y022942D02*
X067445Y022942D01*
X067199Y023101D02*
X068462Y023101D01*
X068462Y023259D02*
X067199Y023259D01*
X067199Y023418D02*
X068462Y023418D01*
X068462Y023576D02*
X067049Y023576D01*
X067313Y023735D02*
X067426Y023782D01*
X067251Y024045D02*
X066674Y024045D01*
X066674Y023611D02*
X066298Y023611D01*
X066674Y023611D01*
X065537Y023611D01*
X065422Y023726D01*
X063382Y023726D01*
X062352Y022696D01*
X063814Y022150D02*
X064037Y022150D01*
X064043Y022308D02*
X063973Y022308D01*
X064082Y021991D02*
X063656Y021991D01*
X064198Y021833D02*
X062377Y021833D01*
X062174Y021674D02*
X064401Y021674D01*
X064430Y021686D02*
X064250Y021612D01*
X064112Y021474D01*
X064037Y021294D01*
X064037Y021099D01*
X064112Y020919D01*
X064250Y020781D01*
X064430Y020706D01*
X065145Y020706D01*
X065325Y020781D01*
X065463Y020919D01*
X065537Y021099D01*
X065537Y021294D01*
X065463Y021474D01*
X065325Y021612D01*
X065145Y021686D01*
X064430Y021686D01*
X064154Y021516D02*
X062421Y021516D01*
X062511Y021357D02*
X064064Y021357D01*
X064037Y021199D02*
X062537Y021199D01*
X062513Y021040D02*
X064062Y021040D01*
X064149Y020882D02*
X062426Y020882D01*
X062186Y020723D02*
X064389Y020723D01*
X064203Y020565D02*
X062372Y020565D01*
X062491Y020406D02*
X064084Y020406D01*
X064037Y020248D02*
X062537Y020248D01*
X062533Y020089D02*
X064041Y020089D01*
X064107Y019931D02*
X062468Y019931D01*
X065186Y020723D02*
X066712Y020723D01*
X066712Y020565D02*
X065372Y020565D01*
X065491Y020406D02*
X066712Y020406D01*
X066672Y020248D02*
X065537Y020248D01*
X065533Y020089D02*
X066594Y020089D01*
X066594Y019931D02*
X065468Y019931D01*
X067022Y019876D02*
X067022Y021236D01*
X067372Y021586D01*
X067372Y022146D01*
X067232Y022286D01*
X066700Y022286D01*
X066674Y022312D01*
X066148Y022308D02*
X065531Y022308D01*
X065537Y022150D02*
X066148Y022150D01*
X066148Y021991D02*
X065493Y021991D01*
X065377Y021833D02*
X066148Y021833D01*
X066148Y021674D02*
X065174Y021674D01*
X065421Y021516D02*
X066269Y021516D01*
X066737Y021357D02*
X065511Y021357D01*
X065537Y021199D02*
X066712Y021199D01*
X066712Y021040D02*
X065513Y021040D01*
X065426Y020882D02*
X066712Y020882D01*
X066148Y022467D02*
X065901Y022467D01*
X066060Y022625D02*
X066148Y022625D01*
X065659Y023101D02*
X065537Y023101D01*
X065537Y023259D02*
X065817Y023259D01*
X065976Y023418D02*
X065486Y023418D01*
X065360Y023576D02*
X066298Y023576D01*
X066215Y023735D02*
X065214Y023735D01*
X065437Y023893D02*
X066148Y023893D01*
X066148Y024052D02*
X065518Y024052D01*
X065537Y024210D02*
X065929Y024210D01*
X065752Y024369D02*
X065506Y024369D01*
X066674Y023611D02*
X066674Y023611D01*
X067696Y024052D02*
X068462Y024052D01*
X068462Y024210D02*
X067832Y024210D01*
X067862Y024369D02*
X068462Y024369D01*
X068462Y024527D02*
X067862Y024527D01*
X067862Y024686D02*
X068462Y024686D01*
X068462Y024844D02*
X067862Y024844D01*
X067728Y024083D02*
X067728Y024083D01*
X068032Y028436D02*
X068772Y028436D01*
X068872Y028336D01*
X040249Y015651D02*
X040076Y015651D01*
X038692Y014700D02*
X038632Y014700D01*
X038632Y014542D02*
X038692Y014542D01*
X038692Y014383D02*
X038632Y014383D01*
X038632Y014225D02*
X038692Y014225D01*
X039036Y014225D02*
X039117Y014225D01*
X039858Y013908D02*
X040467Y013908D01*
X040224Y014066D02*
X040101Y014066D01*
X036794Y012798D02*
X033781Y012798D01*
X032910Y011689D02*
X032809Y011689D01*
X032126Y011689D02*
X031809Y011689D01*
X031126Y011689D02*
X029597Y011689D01*
X029597Y011530D02*
X030968Y011530D01*
X030867Y011372D02*
X029597Y011372D01*
X029597Y011213D02*
X030867Y011213D01*
X030867Y011055D02*
X029597Y011055D01*
X029597Y010896D02*
X030904Y010896D01*
X031063Y010738D02*
X029597Y010738D01*
X029597Y010579D02*
X031229Y010579D01*
X031071Y010421D02*
X029597Y010421D01*
X029597Y010262D02*
X031017Y010262D01*
X031017Y010104D02*
X029597Y010104D01*
X029597Y009945D02*
X031067Y009945D01*
X031226Y009787D02*
X029597Y009787D01*
X029597Y009628D02*
X032128Y009628D01*
X032075Y009470D02*
X029597Y009470D01*
X029597Y009311D02*
X031923Y009311D01*
X031772Y009153D02*
X029712Y009153D01*
X029311Y008677D02*
X020502Y008677D01*
X020343Y008519D02*
X029479Y008519D01*
X031447Y009787D02*
X031487Y009787D01*
X031487Y009945D02*
X031447Y009945D01*
X031447Y010104D02*
X031487Y010104D01*
X031709Y009787D02*
X032014Y009787D01*
X032438Y010100D02*
X032467Y010181D01*
X041572Y007251D02*
X041612Y007251D01*
X041612Y007092D02*
X041572Y007092D01*
X041572Y006934D02*
X041612Y006934D01*
X041612Y006775D02*
X041572Y006775D01*
X041572Y006617D02*
X041612Y006617D01*
X041612Y006458D02*
X041572Y006458D01*
X041572Y006300D02*
X041612Y006300D01*
X041612Y006141D02*
X041572Y006141D01*
X050914Y007409D02*
X051271Y007409D01*
X051130Y007251D02*
X051055Y007251D01*
X051914Y007409D02*
X052271Y007409D01*
X052130Y007251D02*
X052055Y007251D01*
X052914Y007409D02*
X053271Y007409D01*
X053130Y007251D02*
X053055Y007251D01*
X061367Y004556D02*
X068355Y004556D01*
X068197Y004398D02*
X061367Y004398D01*
X061367Y004239D02*
X068038Y004239D01*
X067880Y004081D02*
X061367Y004081D01*
X061367Y003922D02*
X067721Y003922D01*
X067563Y003764D02*
X061367Y003764D01*
X061367Y003605D02*
X067404Y003605D01*
X067246Y003447D02*
X061367Y003447D01*
X061367Y003288D02*
X067087Y003288D01*
X066929Y003130D02*
X061367Y003130D01*
X061367Y002971D02*
X066770Y002971D01*
X066612Y002813D02*
X061367Y002813D01*
X061367Y002654D02*
X066453Y002654D01*
X066295Y002496D02*
X061367Y002496D01*
X061367Y002020D02*
X063515Y002020D01*
X063404Y001862D02*
X061367Y001862D01*
X061367Y001703D02*
X063320Y001703D01*
X063278Y001545D02*
X061367Y001545D01*
X061367Y001386D02*
X063252Y001386D01*
X063252Y001228D02*
X061367Y001228D01*
X061367Y001069D02*
X063277Y001069D01*
X063320Y000911D02*
X061367Y000911D01*
X064763Y002322D02*
X065012Y002179D01*
X065170Y002020D02*
X065819Y002020D01*
X065661Y001862D02*
X065281Y001862D01*
X065365Y001703D02*
X065502Y001703D01*
X023981Y014066D02*
X022766Y014066D01*
X026105Y018980D02*
X026145Y018980D01*
X026145Y019138D02*
X026105Y019138D01*
X026105Y019297D02*
X026145Y019297D01*
X026355Y018980D02*
X028243Y018980D01*
X028243Y019138D02*
X026527Y019138D01*
X026594Y019297D02*
X028243Y019297D01*
X028243Y019455D02*
X026602Y019455D01*
X026555Y019614D02*
X028242Y019614D01*
X028242Y019772D02*
X026431Y019772D01*
X026394Y019931D02*
X028242Y019931D01*
X028242Y020089D02*
X026604Y020089D01*
X026702Y020248D02*
X028241Y020248D01*
X028241Y020406D02*
X026755Y020406D01*
X026755Y020565D02*
X028241Y020565D01*
X028241Y020723D02*
X026715Y020723D01*
X026635Y020882D02*
X028240Y020882D01*
X028240Y021040D02*
X026470Y021040D01*
X026685Y021399D02*
X027090Y021399D01*
X027377Y021686D01*
X027377Y022092D01*
X027090Y022379D01*
X026685Y022379D01*
X026397Y022092D01*
X026397Y021686D01*
X026685Y021399D01*
X026568Y021516D02*
X026232Y021516D01*
X026390Y021674D02*
X026409Y021674D01*
X026397Y021833D02*
X026390Y021833D01*
X026390Y021991D02*
X026397Y021991D01*
X026455Y022150D02*
X026319Y022150D01*
X026161Y022308D02*
X026614Y022308D01*
X027161Y022308D02*
X028238Y022308D01*
X028239Y022150D02*
X027319Y022150D01*
X027377Y021991D02*
X028239Y021991D01*
X028239Y021833D02*
X027377Y021833D01*
X027366Y021674D02*
X028239Y021674D01*
X028240Y021516D02*
X027207Y021516D01*
D40*
X019787Y019151D03*
X015537Y017026D03*
X011787Y016651D03*
X011787Y015526D03*
X010412Y017401D03*
X022537Y015526D03*
X024287Y013651D03*
X029287Y012151D03*
X033412Y013151D03*
X037162Y013151D03*
X036554Y016120D03*
X026900Y018226D03*
X024287Y009401D03*
X017912Y006526D03*
X053537Y013026D03*
X055287Y008401D03*
X067022Y019876D03*
X056822Y021816D03*
X065962Y026826D03*
X061232Y028306D03*
D41*
X051692Y027486D02*
X051692Y025973D01*
X051755Y025911D01*
X051692Y027486D02*
X050983Y028195D01*
X050241Y028195D01*
D42*
X050651Y027785D02*
X050813Y027785D01*
X051282Y027316D01*
X051282Y026181D01*
X051230Y026128D01*
X051230Y025693D01*
X051538Y025386D01*
X051973Y025386D01*
X052280Y025693D01*
X052280Y026128D01*
X052102Y026306D01*
X052102Y027568D01*
X052040Y027718D01*
X051925Y027834D01*
X051215Y028543D01*
X051065Y028605D01*
X050651Y028605D01*
X050569Y028687D01*
X050356Y028775D01*
X050125Y028775D01*
X049912Y028687D01*
X049749Y028524D01*
X049661Y028311D01*
X049661Y028080D01*
X049749Y027867D01*
X049912Y027704D01*
X049932Y027695D01*
X049912Y027687D01*
X049749Y027524D01*
X049661Y027311D01*
X049661Y027080D01*
X049749Y026867D01*
X049912Y026704D01*
X050125Y026615D01*
X050356Y026615D01*
X050569Y026704D01*
X050732Y026867D01*
X050821Y027080D01*
X050821Y027311D01*
X050732Y027524D01*
X050569Y027687D01*
X050549Y027695D01*
X050569Y027704D01*
X050651Y027785D01*
X050650Y027784D02*
X050815Y027784D01*
X050933Y027666D02*
X050591Y027666D01*
X050709Y027547D02*
X051052Y027547D01*
X051170Y027429D02*
X050772Y027429D01*
X050821Y027310D02*
X051282Y027310D01*
X051282Y027192D02*
X050821Y027192D01*
X050818Y027073D02*
X051282Y027073D01*
X051282Y026955D02*
X050769Y026955D01*
X050702Y026836D02*
X051282Y026836D01*
X051282Y026718D02*
X050583Y026718D01*
X049898Y026718D02*
X039405Y026718D01*
X039405Y026836D02*
X049780Y026836D01*
X049713Y026955D02*
X039299Y026955D01*
X039405Y026849D02*
X039097Y027156D01*
X038662Y027156D01*
X038355Y026849D01*
X038355Y026414D01*
X038662Y026106D01*
X039097Y026106D01*
X039405Y026414D01*
X039405Y026849D01*
X039405Y026599D02*
X051282Y026599D01*
X051282Y026481D02*
X039405Y026481D01*
X039353Y026362D02*
X051282Y026362D01*
X051282Y026244D02*
X048953Y026244D01*
X048910Y026286D02*
X048775Y026286D01*
X048775Y025931D01*
X048735Y025931D01*
X048735Y026286D01*
X048600Y026286D01*
X048380Y026066D01*
X048380Y025931D01*
X048735Y025931D01*
X048735Y025891D01*
X048380Y025891D01*
X048380Y025755D01*
X048600Y025536D01*
X048735Y025536D01*
X048735Y025891D01*
X048775Y025891D01*
X048775Y025931D01*
X049130Y025931D01*
X049130Y026066D01*
X048910Y026286D01*
X048775Y026244D02*
X048735Y026244D01*
X048735Y026125D02*
X048775Y026125D01*
X048775Y026007D02*
X048735Y026007D01*
X048735Y025888D02*
X048775Y025888D01*
X048775Y025891D02*
X048775Y025536D01*
X048910Y025536D01*
X049130Y025755D01*
X049130Y025891D01*
X048775Y025891D01*
X048775Y025770D02*
X048735Y025770D01*
X048735Y025651D02*
X048775Y025651D01*
X049026Y025651D02*
X051272Y025651D01*
X051230Y025770D02*
X049130Y025770D01*
X049130Y025888D02*
X051230Y025888D01*
X051230Y026007D02*
X049130Y026007D01*
X049071Y026125D02*
X051230Y026125D01*
X052102Y026362D02*
X053312Y026362D01*
X053312Y026244D02*
X052165Y026244D01*
X052280Y026125D02*
X053312Y026125D01*
X053312Y026007D02*
X052280Y026007D01*
X052280Y025888D02*
X053312Y025888D01*
X053312Y025770D02*
X052280Y025770D01*
X052238Y025651D02*
X053312Y025651D01*
X053312Y025533D02*
X052119Y025533D01*
X052001Y025414D02*
X053312Y025414D01*
X053312Y025296D02*
X039914Y025296D01*
X039923Y025286D02*
X039757Y025452D01*
X039540Y025542D01*
X038546Y025542D01*
X038329Y025452D01*
X038163Y025286D01*
X038073Y025070D01*
X038073Y024835D01*
X038163Y024618D01*
X038231Y024550D01*
X037515Y024550D01*
X037162Y024404D01*
X036892Y024134D01*
X036746Y023781D01*
X036746Y023399D01*
X036892Y023046D01*
X037142Y022796D01*
X034870Y022796D01*
X034466Y023200D01*
X034113Y023346D01*
X033732Y023346D01*
X033379Y023200D01*
X033109Y022930D01*
X032962Y022577D01*
X032962Y022195D01*
X033109Y021842D01*
X033929Y021022D01*
X034282Y020876D01*
X039453Y020876D01*
X039806Y021022D01*
X040076Y021292D01*
X040222Y021645D01*
X040222Y022027D01*
X040076Y022380D01*
X039850Y022606D01*
X040680Y022606D01*
X043307Y020024D01*
X043439Y019892D01*
X043443Y019891D01*
X043446Y019888D01*
X043619Y019818D01*
X043792Y019746D01*
X043796Y019746D01*
X043800Y019744D01*
X043987Y019746D01*
X049028Y019746D01*
X049033Y019744D01*
X049218Y019746D01*
X049403Y019746D01*
X049409Y019748D01*
X049415Y019749D01*
X049585Y019821D01*
X049756Y019892D01*
X049761Y019897D01*
X049766Y019899D01*
X049895Y020031D01*
X050026Y020162D01*
X050029Y020168D01*
X050033Y020172D01*
X050102Y020344D01*
X050172Y020515D01*
X050172Y020521D01*
X050175Y020527D01*
X050172Y020712D01*
X050172Y020759D01*
X050202Y020868D01*
X051016Y021682D01*
X051162Y022035D01*
X051162Y022417D01*
X051016Y022770D01*
X050746Y023040D01*
X050393Y023186D01*
X050012Y023186D01*
X049659Y023040D01*
X048754Y022135D01*
X048699Y022104D01*
X048620Y022001D01*
X048529Y021910D01*
X048504Y021852D01*
X048466Y021802D01*
X048432Y021677D01*
X048428Y021666D01*
X044375Y021666D01*
X041748Y024248D01*
X041616Y024380D01*
X041612Y024382D01*
X041609Y024385D01*
X041436Y024455D01*
X041263Y024526D01*
X041259Y024526D01*
X041255Y024528D01*
X041068Y024526D01*
X039831Y024526D01*
X039923Y024618D01*
X040013Y024835D01*
X040013Y025070D01*
X039923Y025286D01*
X039969Y025177D02*
X053312Y025177D01*
X053312Y025059D02*
X040013Y025059D01*
X040013Y024940D02*
X053312Y024940D01*
X053312Y024822D02*
X040008Y024822D01*
X039958Y024703D02*
X053312Y024703D01*
X053312Y024585D02*
X050767Y024585D01*
X050741Y024603D02*
X050683Y024633D01*
X050622Y024653D01*
X050557Y024663D01*
X050230Y024663D01*
X050230Y024308D01*
X050115Y024308D01*
X050115Y024663D01*
X049788Y024663D01*
X049723Y024653D01*
X049662Y024633D01*
X049604Y024603D01*
X049551Y024565D01*
X049505Y024519D01*
X049467Y024467D01*
X049438Y024409D01*
X049418Y024347D01*
X049411Y024308D01*
X050115Y024308D01*
X050115Y024193D01*
X049411Y024193D01*
X049418Y024154D01*
X049438Y024092D01*
X049467Y024034D01*
X049505Y023982D01*
X049551Y023936D01*
X049604Y023898D01*
X049662Y023868D01*
X049723Y023848D01*
X049788Y023838D01*
X050115Y023838D01*
X050115Y024193D01*
X050230Y024193D01*
X050230Y024308D01*
X050933Y024308D01*
X050927Y024347D01*
X050907Y024409D01*
X050878Y024467D01*
X050840Y024519D01*
X050794Y024565D01*
X050741Y024603D01*
X050878Y024466D02*
X053312Y024466D01*
X053312Y024348D02*
X050927Y024348D01*
X050933Y024193D02*
X050230Y024193D01*
X050230Y023838D01*
X050557Y023838D01*
X050622Y023848D01*
X050683Y023868D01*
X050741Y023898D01*
X050794Y023936D01*
X050840Y023982D01*
X050878Y024034D01*
X050907Y024092D01*
X050927Y024154D01*
X050933Y024193D01*
X050913Y024111D02*
X053312Y024111D01*
X053312Y024229D02*
X050230Y024229D01*
X050115Y024229D02*
X046298Y024229D01*
X046300Y024228D02*
X046046Y024374D01*
X045764Y024450D01*
X045472Y024450D01*
X045190Y024374D01*
X044936Y024228D01*
X044730Y024021D01*
X044584Y023768D01*
X044508Y023486D01*
X044508Y023194D01*
X044584Y022911D01*
X044730Y022658D01*
X044936Y022452D01*
X043576Y022452D01*
X043456Y022570D02*
X044818Y022570D01*
X044712Y022689D02*
X043335Y022689D01*
X043214Y022807D02*
X044644Y022807D01*
X044580Y022926D02*
X043094Y022926D01*
X042973Y023044D02*
X044548Y023044D01*
X044516Y023163D02*
X042853Y023163D01*
X042732Y023281D02*
X044508Y023281D01*
X044508Y023400D02*
X042612Y023400D01*
X042491Y023518D02*
X044517Y023518D01*
X044548Y023637D02*
X042370Y023637D01*
X042250Y023755D02*
X044580Y023755D01*
X044645Y023874D02*
X042129Y023874D01*
X042009Y023992D02*
X044713Y023992D01*
X044819Y024111D02*
X041888Y024111D01*
X041768Y024229D02*
X044938Y024229D01*
X045144Y024348D02*
X041649Y024348D01*
X041408Y024466D02*
X049467Y024466D01*
X049418Y024348D02*
X046092Y024348D01*
X046300Y024228D02*
X046506Y024021D01*
X046652Y023768D01*
X046728Y023486D01*
X046728Y023194D01*
X046652Y022911D01*
X046506Y022658D01*
X046300Y022452D01*
X049070Y022452D01*
X049189Y022570D02*
X046418Y022570D01*
X046524Y022689D02*
X049307Y022689D01*
X049426Y022807D02*
X046592Y022807D01*
X046656Y022926D02*
X049544Y022926D01*
X049669Y023044D02*
X046688Y023044D01*
X046720Y023163D02*
X049955Y023163D01*
X050450Y023163D02*
X053312Y023163D01*
X053312Y023281D02*
X046728Y023281D01*
X046728Y023400D02*
X053312Y023400D01*
X053312Y023518D02*
X046719Y023518D01*
X046688Y023637D02*
X053312Y023637D01*
X053312Y023755D02*
X046656Y023755D01*
X046592Y023874D02*
X049651Y023874D01*
X049498Y023992D02*
X046523Y023992D01*
X046417Y024111D02*
X049432Y024111D01*
X049578Y024585D02*
X039890Y024585D01*
X038196Y024585D02*
X034719Y024585D01*
X034708Y024607D02*
X034670Y024659D01*
X034624Y024705D01*
X034571Y024743D01*
X034513Y024773D01*
X034452Y024793D01*
X034387Y024803D01*
X034060Y024803D01*
X034060Y024448D01*
X033945Y024448D01*
X033945Y024803D01*
X033618Y024803D01*
X033553Y024793D01*
X033492Y024773D01*
X033434Y024743D01*
X033381Y024705D01*
X033335Y024659D01*
X033297Y024607D01*
X033268Y024549D01*
X033248Y024487D01*
X033241Y024448D01*
X033945Y024448D01*
X033945Y024333D01*
X033241Y024333D01*
X033248Y024294D01*
X033268Y024232D01*
X033297Y024174D01*
X033335Y024122D01*
X033381Y024076D01*
X033434Y024038D01*
X033492Y024008D01*
X033553Y023988D01*
X033618Y023978D01*
X033945Y023978D01*
X033945Y024333D01*
X034060Y024333D01*
X034060Y024448D01*
X034763Y024448D01*
X034757Y024487D01*
X034737Y024549D01*
X034708Y024607D01*
X034626Y024703D02*
X038128Y024703D01*
X038079Y024822D02*
X029274Y024822D01*
X029274Y024940D02*
X038073Y024940D01*
X038073Y025059D02*
X029274Y025059D01*
X029274Y025177D02*
X038118Y025177D01*
X038172Y025296D02*
X029274Y025296D01*
X029274Y025414D02*
X038290Y025414D01*
X038522Y025533D02*
X029273Y025533D01*
X029273Y025651D02*
X048484Y025651D01*
X048380Y025770D02*
X029273Y025770D01*
X029273Y025888D02*
X048380Y025888D01*
X048380Y026007D02*
X029273Y026007D01*
X029272Y026125D02*
X033066Y026125D01*
X033095Y026113D02*
X033890Y026113D01*
X034077Y026190D01*
X034219Y026333D01*
X034296Y026519D01*
X034296Y026721D01*
X034219Y026907D01*
X034077Y027050D01*
X033907Y027120D01*
X034077Y027190D01*
X034219Y027333D01*
X034296Y027519D01*
X034296Y027721D01*
X034219Y027907D01*
X034077Y028050D01*
X033890Y028127D01*
X033095Y028127D01*
X032909Y028050D01*
X032766Y027907D01*
X032689Y027721D01*
X032689Y027519D01*
X032766Y027333D01*
X032909Y027190D01*
X033078Y027120D01*
X032909Y027050D01*
X032766Y026907D01*
X032689Y026721D01*
X032689Y026519D01*
X032766Y026333D01*
X032909Y026190D01*
X033095Y026113D01*
X032855Y026244D02*
X029272Y026244D01*
X029272Y026362D02*
X032754Y026362D01*
X032705Y026481D02*
X029272Y026481D01*
X029272Y026599D02*
X032689Y026599D01*
X032689Y026718D02*
X029272Y026718D01*
X029271Y026836D02*
X032737Y026836D01*
X032814Y026955D02*
X029271Y026955D01*
X029271Y027073D02*
X032965Y027073D01*
X032907Y027192D02*
X029271Y027192D01*
X029271Y027310D02*
X032789Y027310D01*
X032726Y027429D02*
X029271Y027429D01*
X029270Y027547D02*
X032689Y027547D01*
X032689Y027666D02*
X029270Y027666D01*
X029270Y027784D02*
X032715Y027784D01*
X032764Y027903D02*
X029270Y027903D01*
X029270Y028021D02*
X032880Y028021D01*
X034105Y028021D02*
X045122Y028021D01*
X045133Y027981D02*
X045276Y027732D01*
X045479Y027529D01*
X045728Y027386D01*
X046005Y027311D01*
X046292Y027311D01*
X046569Y027386D01*
X046818Y027529D01*
X047021Y027732D01*
X047164Y027981D01*
X047238Y028258D01*
X049661Y028258D01*
X049661Y028140D02*
X047207Y028140D01*
X047238Y028258D02*
X047238Y028545D01*
X047164Y028822D01*
X047110Y028916D01*
X053312Y028916D01*
X053312Y018436D01*
X029284Y018436D01*
X029268Y028916D01*
X045187Y028916D01*
X045133Y028822D01*
X045058Y028545D01*
X045058Y028258D01*
X029269Y028258D01*
X029269Y028140D02*
X045090Y028140D01*
X045058Y028258D02*
X045133Y027981D01*
X045178Y027903D02*
X034221Y027903D01*
X034270Y027784D02*
X045246Y027784D01*
X045343Y027666D02*
X034296Y027666D01*
X034296Y027547D02*
X045461Y027547D01*
X045654Y027429D02*
X034259Y027429D01*
X034196Y027310D02*
X049661Y027310D01*
X049661Y027192D02*
X034078Y027192D01*
X034020Y027073D02*
X035579Y027073D01*
X035662Y027156D02*
X035355Y026849D01*
X035355Y026414D01*
X035662Y026106D01*
X036097Y026106D01*
X036405Y026414D01*
X036405Y026849D01*
X036097Y027156D01*
X035662Y027156D01*
X035460Y026955D02*
X034172Y026955D01*
X034249Y026836D02*
X035355Y026836D01*
X035355Y026718D02*
X034296Y026718D01*
X034296Y026599D02*
X035355Y026599D01*
X035355Y026481D02*
X034280Y026481D01*
X034231Y026362D02*
X035407Y026362D01*
X035525Y026244D02*
X034130Y026244D01*
X033919Y026125D02*
X035644Y026125D01*
X036116Y026125D02*
X038644Y026125D01*
X038525Y026244D02*
X036234Y026244D01*
X036353Y026362D02*
X038407Y026362D01*
X038355Y026481D02*
X036405Y026481D01*
X036405Y026599D02*
X038355Y026599D01*
X038355Y026718D02*
X036405Y026718D01*
X036405Y026836D02*
X038355Y026836D01*
X038460Y026955D02*
X036299Y026955D01*
X036181Y027073D02*
X038579Y027073D01*
X039181Y027073D02*
X049664Y027073D01*
X049710Y027429D02*
X046643Y027429D01*
X046835Y027547D02*
X049772Y027547D01*
X049891Y027666D02*
X046954Y027666D01*
X047050Y027784D02*
X049832Y027784D01*
X049734Y027903D02*
X047119Y027903D01*
X047175Y028021D02*
X049685Y028021D01*
X049688Y028377D02*
X047238Y028377D01*
X047238Y028495D02*
X049737Y028495D01*
X049839Y028614D02*
X047220Y028614D01*
X047188Y028732D02*
X050021Y028732D01*
X050461Y028732D02*
X053312Y028732D01*
X053312Y028614D02*
X050643Y028614D01*
X051263Y028495D02*
X053312Y028495D01*
X053312Y028377D02*
X051382Y028377D01*
X051500Y028258D02*
X053312Y028258D01*
X053312Y028140D02*
X051619Y028140D01*
X051737Y028021D02*
X053312Y028021D01*
X053312Y027903D02*
X051856Y027903D01*
X051974Y027784D02*
X053312Y027784D01*
X053312Y027666D02*
X052062Y027666D01*
X052102Y027547D02*
X053312Y027547D01*
X053312Y027429D02*
X052102Y027429D01*
X052102Y027310D02*
X053312Y027310D01*
X053312Y027192D02*
X052102Y027192D01*
X052102Y027073D02*
X053312Y027073D01*
X053312Y026955D02*
X052102Y026955D01*
X052102Y026836D02*
X053312Y026836D01*
X053312Y026718D02*
X052102Y026718D01*
X052102Y026599D02*
X053312Y026599D01*
X053312Y026481D02*
X052102Y026481D01*
X051391Y025533D02*
X039564Y025533D01*
X039796Y025414D02*
X051509Y025414D01*
X050230Y024585D02*
X050115Y024585D01*
X050115Y024466D02*
X050230Y024466D01*
X050230Y024348D02*
X050115Y024348D01*
X050115Y024111D02*
X050230Y024111D01*
X050230Y023992D02*
X050115Y023992D01*
X050115Y023874D02*
X050230Y023874D01*
X050694Y023874D02*
X053312Y023874D01*
X053312Y023992D02*
X050847Y023992D01*
X050736Y023044D02*
X053312Y023044D01*
X053312Y022926D02*
X050861Y022926D01*
X050979Y022807D02*
X053312Y022807D01*
X053312Y022689D02*
X051050Y022689D01*
X051099Y022570D02*
X053312Y022570D01*
X053312Y022452D02*
X051148Y022452D01*
X051162Y022333D02*
X053312Y022333D01*
X053312Y022215D02*
X051162Y022215D01*
X051162Y022096D02*
X053312Y022096D01*
X053312Y021978D02*
X051139Y021978D01*
X051090Y021859D02*
X053312Y021859D01*
X053312Y021741D02*
X051040Y021741D01*
X050956Y021622D02*
X053312Y021622D01*
X053312Y021504D02*
X050838Y021504D01*
X050719Y021385D02*
X053312Y021385D01*
X053312Y021267D02*
X050601Y021267D01*
X050482Y021148D02*
X053312Y021148D01*
X053312Y021030D02*
X050364Y021030D01*
X050245Y020911D02*
X051768Y020911D01*
X051758Y020905D02*
X051714Y020860D01*
X051679Y020808D01*
X051655Y020749D01*
X051642Y020688D01*
X051642Y020676D01*
X052202Y020676D01*
X052202Y020636D01*
X051642Y020636D01*
X051642Y020625D01*
X051655Y020563D01*
X051679Y020505D01*
X051714Y020452D01*
X051758Y020408D01*
X051811Y020373D01*
X051869Y020348D01*
X051931Y020336D01*
X052202Y020336D01*
X052202Y020636D01*
X052242Y020636D01*
X052242Y020336D01*
X052514Y020336D01*
X052576Y020348D01*
X052634Y020373D01*
X052686Y020408D01*
X052731Y020452D01*
X052766Y020505D01*
X052790Y020563D01*
X052802Y020625D01*
X052802Y020636D01*
X052242Y020636D01*
X052242Y020676D01*
X052202Y020676D01*
X052202Y020976D01*
X051931Y020976D01*
X051869Y020964D01*
X051811Y020940D01*
X051758Y020905D01*
X051673Y020793D02*
X050182Y020793D01*
X050173Y020674D02*
X052202Y020674D01*
X052242Y020674D02*
X053312Y020674D01*
X053312Y020556D02*
X052787Y020556D01*
X052802Y020676D02*
X052802Y020688D01*
X052790Y020749D01*
X052766Y020808D01*
X052731Y020860D01*
X052686Y020905D01*
X052634Y020940D01*
X052576Y020964D01*
X052514Y020976D01*
X052242Y020976D01*
X052242Y020676D01*
X052802Y020676D01*
X052772Y020793D02*
X053312Y020793D01*
X053312Y020911D02*
X052677Y020911D01*
X052242Y020911D02*
X052202Y020911D01*
X052202Y020793D02*
X052242Y020793D01*
X052242Y020556D02*
X052202Y020556D01*
X052202Y020437D02*
X052242Y020437D01*
X052716Y020437D02*
X053312Y020437D01*
X053312Y020319D02*
X050091Y020319D01*
X050140Y020437D02*
X051729Y020437D01*
X051658Y020556D02*
X050174Y020556D01*
X050044Y020200D02*
X053312Y020200D01*
X053312Y020082D02*
X049946Y020082D01*
X049829Y019963D02*
X053312Y019963D01*
X053312Y019845D02*
X049641Y019845D01*
X053312Y019726D02*
X029282Y019726D01*
X029282Y019608D02*
X053312Y019608D01*
X053312Y019489D02*
X029283Y019489D01*
X029283Y019371D02*
X053312Y019371D01*
X053312Y019252D02*
X029283Y019252D01*
X029283Y019134D02*
X053312Y019134D01*
X053312Y019015D02*
X029283Y019015D01*
X029283Y018897D02*
X053312Y018897D01*
X053312Y018778D02*
X029284Y018778D01*
X029284Y018660D02*
X053312Y018660D01*
X053312Y018541D02*
X029284Y018541D01*
X029282Y019845D02*
X043552Y019845D01*
X043368Y019963D02*
X029282Y019963D01*
X029282Y020082D02*
X043248Y020082D01*
X043128Y020200D02*
X029282Y020200D01*
X029281Y020319D02*
X043007Y020319D01*
X042887Y020437D02*
X029281Y020437D01*
X029281Y020556D02*
X042766Y020556D01*
X042646Y020674D02*
X029281Y020674D01*
X029281Y020793D02*
X042525Y020793D01*
X042404Y020911D02*
X039538Y020911D01*
X039814Y021030D02*
X042284Y021030D01*
X042163Y021148D02*
X039932Y021148D01*
X040051Y021267D02*
X042043Y021267D01*
X041922Y021385D02*
X040115Y021385D01*
X040164Y021504D02*
X041802Y021504D01*
X041681Y021622D02*
X040213Y021622D01*
X040222Y021741D02*
X041560Y021741D01*
X041440Y021859D02*
X040222Y021859D01*
X040222Y021978D02*
X041319Y021978D01*
X041199Y022096D02*
X040194Y022096D01*
X040145Y022215D02*
X041078Y022215D01*
X040958Y022333D02*
X040096Y022333D01*
X040005Y022452D02*
X040837Y022452D01*
X040716Y022570D02*
X039886Y022570D01*
X037131Y022807D02*
X034859Y022807D01*
X034741Y022926D02*
X037012Y022926D01*
X036894Y023044D02*
X034622Y023044D01*
X034504Y023163D02*
X036843Y023163D01*
X036794Y023281D02*
X034271Y023281D01*
X033574Y023281D02*
X029277Y023281D01*
X029277Y023163D02*
X033341Y023163D01*
X033223Y023044D02*
X029277Y023044D01*
X029277Y022926D02*
X033107Y022926D01*
X033058Y022807D02*
X029278Y022807D01*
X029278Y022689D02*
X033009Y022689D01*
X032962Y022570D02*
X029278Y022570D01*
X029278Y022452D02*
X032962Y022452D01*
X032962Y022333D02*
X029278Y022333D01*
X029278Y022215D02*
X032962Y022215D01*
X033004Y022096D02*
X029279Y022096D01*
X029279Y021978D02*
X033053Y021978D01*
X033102Y021859D02*
X029279Y021859D01*
X029279Y021741D02*
X033210Y021741D01*
X033329Y021622D02*
X029279Y021622D01*
X029280Y021504D02*
X033447Y021504D01*
X033566Y021385D02*
X029280Y021385D01*
X029280Y021267D02*
X033684Y021267D01*
X033803Y021148D02*
X029280Y021148D01*
X029280Y021030D02*
X033921Y021030D01*
X034197Y020911D02*
X029280Y020911D01*
X029277Y023400D02*
X036746Y023400D01*
X036746Y023518D02*
X029276Y023518D01*
X029276Y023637D02*
X036746Y023637D01*
X036746Y023755D02*
X029276Y023755D01*
X029276Y023874D02*
X036784Y023874D01*
X036833Y023992D02*
X034464Y023992D01*
X034452Y023988D02*
X034513Y024008D01*
X034571Y024038D01*
X034624Y024076D01*
X034670Y024122D01*
X034708Y024174D01*
X034737Y024232D01*
X034757Y024294D01*
X034763Y024333D01*
X034060Y024333D01*
X034060Y023978D01*
X034387Y023978D01*
X034452Y023988D01*
X034659Y024111D02*
X036882Y024111D01*
X036987Y024229D02*
X034736Y024229D01*
X034761Y024466D02*
X037313Y024466D01*
X037106Y024348D02*
X034060Y024348D01*
X033945Y024348D02*
X029275Y024348D01*
X029275Y024466D02*
X033244Y024466D01*
X033286Y024585D02*
X029275Y024585D01*
X029275Y024703D02*
X033379Y024703D01*
X033945Y024703D02*
X034060Y024703D01*
X034060Y024585D02*
X033945Y024585D01*
X033945Y024466D02*
X034060Y024466D01*
X034060Y024229D02*
X033945Y024229D01*
X033945Y024111D02*
X034060Y024111D01*
X034060Y023992D02*
X033945Y023992D01*
X033541Y023992D02*
X029276Y023992D01*
X029276Y024111D02*
X033346Y024111D01*
X033269Y024229D02*
X029275Y024229D01*
X039116Y026125D02*
X048439Y026125D01*
X048558Y026244D02*
X039234Y026244D01*
X045058Y028377D02*
X029269Y028377D01*
X029269Y028495D02*
X045058Y028495D01*
X045077Y028614D02*
X029269Y028614D01*
X029269Y028732D02*
X045109Y028732D01*
X045149Y028851D02*
X029268Y028851D01*
X043697Y022333D02*
X045142Y022333D01*
X045190Y022305D02*
X045472Y022230D01*
X045764Y022230D01*
X046046Y022305D01*
X046300Y022452D01*
X046094Y022333D02*
X048952Y022333D01*
X048833Y022215D02*
X043817Y022215D01*
X043938Y022096D02*
X048693Y022096D01*
X048596Y021978D02*
X044058Y021978D01*
X044179Y021859D02*
X048508Y021859D01*
X048449Y021741D02*
X044300Y021741D01*
X044936Y022452D02*
X045190Y022305D01*
X047148Y028851D02*
X053312Y028851D01*
D43*
X068032Y028436D03*
M02*
