G75*
G70*
%OFA0B0*%
%FSLAX24Y24*%
%IPPOS*%
%LPD*%
%AMOC8*
5,1,8,0,0,1.08239X$1,22.5*
%
%ADD10R,0.0820X0.0820*%
%ADD11OC8,0.0820*%
%ADD12C,0.1300*%
%ADD13C,0.0680*%
%ADD14C,0.0600*%
%ADD15OC8,0.0600*%
%ADD16R,0.0674X0.0674*%
%ADD17R,0.1346X0.1346*%
%ADD18R,0.0680X0.0680*%
%ADD19C,0.0680*%
%ADD20C,0.1340*%
%ADD21C,0.0860*%
%ADD22C,0.0050*%
%ADD23C,0.0820*%
%ADD24C,0.0674*%
%ADD25C,0.0820*%
%ADD26R,0.0611X0.0671*%
%ADD27R,0.0474X0.0631*%
%ADD28R,0.0474X0.0592*%
%ADD29R,0.0671X0.0375*%
%ADD30C,0.0710*%
%ADD31C,0.0840*%
%ADD32C,0.1580*%
%ADD33C,0.1380*%
%ADD34OC8,0.0710*%
%ADD35C,0.0785*%
%ADD36R,0.2363X0.2521*%
%ADD37R,0.0710X0.1261*%
%ADD38R,0.0790X0.0710*%
%ADD39R,0.0710X0.0790*%
%ADD40R,0.0476X0.0476*%
%ADD41C,0.0476*%
D10*
X033467Y011181D03*
D11*
X032467Y011181D03*
X031467Y011181D03*
X031467Y010181D03*
X032467Y010181D03*
X033467Y010181D03*
X057262Y027096D03*
X058262Y027096D03*
X059262Y027096D03*
X059262Y028096D03*
X058262Y028096D03*
X057262Y028096D03*
D12*
X009217Y001306D03*
X004342Y006181D03*
X012262Y008289D03*
X014887Y008314D03*
X027217Y014681D03*
X007967Y027431D03*
X002592Y028431D03*
X067862Y007826D03*
X070842Y007681D03*
X067850Y005814D03*
X064342Y001306D03*
X070842Y028431D03*
D13*
X055822Y024936D02*
X055222Y024936D01*
X055222Y023936D02*
X055822Y023936D01*
X055822Y022936D02*
X055222Y022936D01*
X055222Y021936D02*
X055822Y021936D01*
X055822Y020936D02*
X055222Y020936D01*
X055222Y019936D02*
X055822Y019936D01*
X056467Y015481D02*
X056467Y014881D01*
X057467Y014881D02*
X057467Y015481D01*
X058467Y015481D02*
X058467Y014881D01*
X053592Y006981D02*
X053592Y006381D01*
X052592Y006381D02*
X052592Y006981D01*
X051592Y006981D02*
X051592Y006381D01*
X050592Y006381D02*
X050592Y006981D01*
X041592Y006981D02*
X041592Y006381D01*
X040592Y006381D02*
X040592Y006981D01*
X023825Y020014D02*
X023825Y020614D01*
X022825Y020614D02*
X022825Y020014D01*
X021825Y020014D02*
X021825Y020614D01*
X020825Y020614D02*
X020825Y020014D01*
X019825Y020014D02*
X019825Y020614D01*
X018825Y020614D02*
X018825Y020014D01*
X017825Y020014D02*
X017825Y020614D01*
X016825Y020614D02*
X016825Y020014D01*
D14*
X016837Y021554D02*
X016837Y022074D01*
X015837Y022074D02*
X015837Y021554D01*
X014837Y021554D02*
X014837Y022074D01*
X013837Y022074D02*
X013837Y021554D01*
X012837Y021554D02*
X012837Y022074D01*
X011837Y022074D02*
X011837Y021554D01*
X010837Y021554D02*
X010837Y022074D01*
X010837Y024554D02*
X010837Y025074D01*
X011837Y025074D02*
X011837Y024554D01*
X012837Y024554D02*
X012837Y025074D01*
X013837Y025074D02*
X013837Y024554D01*
X014837Y024554D02*
X014837Y025074D01*
X015837Y025074D02*
X015837Y024554D01*
X016837Y024554D02*
X016837Y025074D01*
X017837Y025074D02*
X017837Y024554D01*
X018837Y024554D02*
X018837Y025074D01*
X019837Y025074D02*
X019837Y024554D01*
X020837Y024554D02*
X020837Y025074D01*
X021837Y025074D02*
X021837Y024554D01*
X022837Y024554D02*
X022837Y025074D01*
X023837Y025074D02*
X023837Y024554D01*
X023837Y022074D02*
X023837Y021554D01*
X022837Y021554D02*
X022837Y022074D01*
X021837Y022074D02*
X021837Y021554D01*
X020837Y021554D02*
X020837Y022074D01*
X019837Y022074D02*
X019837Y021554D01*
X018837Y021554D02*
X018837Y022074D01*
X017837Y022074D02*
X017837Y021554D01*
X017962Y015161D02*
X017962Y014641D01*
X018962Y014641D02*
X018962Y015161D01*
X019962Y015161D02*
X019962Y014641D01*
X020962Y014641D02*
X020962Y015161D01*
X016962Y015161D02*
X016962Y014641D01*
X015962Y014641D02*
X015962Y015161D01*
X014962Y015161D02*
X014962Y014641D01*
X013962Y014641D02*
X013962Y015161D01*
X013962Y012161D02*
X013962Y011641D01*
X014962Y011641D02*
X014962Y012161D01*
X015962Y012161D02*
X015962Y011641D01*
X016962Y011641D02*
X016962Y012161D01*
X017962Y012161D02*
X017962Y011641D01*
X018962Y011641D02*
X018962Y012161D01*
X019962Y012161D02*
X019962Y011641D01*
X020962Y011641D02*
X020962Y012161D01*
X048962Y020656D02*
X049482Y020656D01*
X051962Y020656D02*
X052482Y020656D01*
X061527Y020196D02*
X062047Y020196D01*
X064527Y020196D02*
X065047Y020196D01*
X065047Y021196D02*
X064527Y021196D01*
X064527Y022196D02*
X065047Y022196D01*
X065047Y023196D02*
X064527Y023196D01*
X064527Y024196D02*
X065047Y024196D01*
X065047Y025196D02*
X064527Y025196D01*
X062047Y025196D02*
X061527Y025196D01*
X061527Y024196D02*
X062047Y024196D01*
X062047Y023196D02*
X061527Y023196D01*
X061527Y022196D02*
X062047Y022196D01*
X062047Y021196D02*
X061527Y021196D01*
X061527Y026196D02*
X062047Y026196D01*
X062047Y027196D02*
X061527Y027196D01*
X064527Y027196D02*
X065047Y027196D01*
X065047Y026196D02*
X064527Y026196D01*
D15*
X026887Y024889D03*
X025900Y024876D03*
X024900Y024864D03*
X024900Y021864D03*
X025900Y021876D03*
X026887Y021889D03*
X014600Y026614D03*
X011600Y026614D03*
D16*
X059347Y012785D03*
X059347Y011801D03*
X059347Y010817D03*
X065056Y010817D03*
X065056Y012785D03*
D17*
X062300Y014203D03*
X062300Y009400D03*
D18*
X012487Y028401D03*
D19*
X013487Y028401D03*
X014487Y028401D03*
X015487Y028401D03*
X016487Y028401D03*
X017487Y028401D03*
X018487Y028401D03*
X019487Y028401D03*
X020487Y028401D03*
X021487Y028401D03*
X022487Y028401D03*
X023487Y028401D03*
X024487Y028401D03*
X025487Y028401D03*
X026487Y028401D03*
X027487Y028401D03*
D20*
X009534Y028401D03*
X046148Y028401D03*
X046148Y006748D03*
X009534Y006748D03*
D21*
X014997Y004101D02*
X015777Y004101D01*
X015777Y002101D02*
X014997Y002101D01*
X011387Y002711D02*
X011387Y003491D01*
D22*
X017010Y003650D02*
X017015Y003689D01*
X017028Y003727D01*
X017050Y003760D01*
X017078Y003787D01*
X017112Y003808D01*
X017150Y003820D01*
X017189Y003824D01*
X017228Y003819D01*
X017264Y003806D01*
X017297Y003786D01*
X017324Y003758D01*
X017344Y003725D01*
X017357Y003689D01*
X017360Y003650D01*
X017357Y003612D01*
X017345Y003576D01*
X017326Y003543D01*
X017299Y003515D01*
X017267Y003494D01*
X017231Y003480D01*
X017193Y003475D01*
X017153Y003479D01*
X017115Y003491D01*
X017081Y003511D01*
X017051Y003539D01*
X017029Y003573D01*
X017015Y003610D01*
X017010Y003650D01*
X017012Y003672D02*
X017358Y003672D01*
X017358Y003623D02*
X017013Y003623D01*
X017028Y003575D02*
X017345Y003575D01*
X017310Y003526D02*
X017065Y003526D01*
X017162Y003478D02*
X017213Y003478D01*
X017346Y003720D02*
X017026Y003720D01*
X017059Y003769D02*
X017313Y003769D01*
X017234Y003817D02*
X017141Y003817D01*
X017189Y002722D02*
X017228Y002717D01*
X017264Y002704D01*
X017297Y002684D01*
X017324Y002656D01*
X017344Y002623D01*
X017357Y002587D01*
X017360Y002548D01*
X017357Y002510D01*
X017345Y002474D01*
X017326Y002441D01*
X017299Y002413D01*
X017267Y002392D01*
X017231Y002378D01*
X017193Y002373D01*
X017153Y002377D01*
X017115Y002389D01*
X017081Y002409D01*
X017051Y002437D01*
X017029Y002471D01*
X017015Y002508D01*
X017356Y002508D01*
X017360Y002556D02*
X017011Y002556D01*
X017010Y002548D02*
X017015Y002587D01*
X017028Y002625D01*
X017050Y002658D01*
X017078Y002685D01*
X017112Y002706D01*
X017150Y002718D01*
X017189Y002722D01*
X017268Y002702D02*
X017106Y002702D01*
X017047Y002653D02*
X017325Y002653D01*
X017350Y002605D02*
X017021Y002605D01*
X017010Y002548D02*
X017015Y002508D01*
X017037Y002459D02*
X017337Y002459D01*
X017296Y002411D02*
X017079Y002411D01*
X018621Y017669D02*
X018585Y017681D01*
X018552Y017700D01*
X018524Y017727D01*
X018503Y017759D01*
X018490Y017795D01*
X018484Y017833D01*
X018488Y017873D01*
X018500Y017911D01*
X018521Y017945D01*
X018549Y017975D01*
X018582Y017997D01*
X018620Y018011D01*
X018659Y018017D01*
X018699Y018011D01*
X018736Y017998D01*
X018769Y017976D01*
X018797Y017948D01*
X018817Y017914D01*
X018830Y017876D01*
X018833Y017837D01*
X018829Y017798D01*
X018816Y017762D01*
X018795Y017729D01*
X018767Y017702D01*
X018734Y017682D01*
X018698Y017670D01*
X018659Y017666D01*
X018621Y017669D01*
X018572Y017688D02*
X018745Y017688D01*
X018800Y017737D02*
X018518Y017737D01*
X018493Y017785D02*
X018824Y017785D01*
X018833Y017834D02*
X018485Y017834D01*
X018491Y017882D02*
X018828Y017882D01*
X018807Y017931D02*
X018512Y017931D01*
X018556Y017979D02*
X018764Y017979D01*
X019590Y017873D02*
X019586Y017833D01*
X019592Y017795D01*
X019605Y017759D01*
X019626Y017727D01*
X019654Y017700D01*
X019687Y017681D01*
X019723Y017669D01*
X019761Y017666D01*
X019800Y017670D01*
X019836Y017682D01*
X019869Y017702D01*
X019897Y017729D01*
X019918Y017762D01*
X019931Y017798D01*
X019935Y017837D01*
X019932Y017876D01*
X019919Y017914D01*
X019899Y017948D01*
X019871Y017976D01*
X019838Y017998D01*
X019801Y018011D01*
X019761Y018017D01*
X019722Y018011D01*
X019684Y017997D01*
X019651Y017975D01*
X019623Y017945D01*
X019602Y017911D01*
X019590Y017873D01*
X019593Y017882D02*
X019930Y017882D01*
X019935Y017834D02*
X019587Y017834D01*
X019595Y017785D02*
X019926Y017785D01*
X019902Y017737D02*
X019620Y017737D01*
X019674Y017688D02*
X019847Y017688D01*
X019909Y017931D02*
X019614Y017931D01*
X019658Y017979D02*
X019866Y017979D01*
X014093Y020224D02*
X014072Y020192D01*
X014044Y020165D01*
X014011Y020145D01*
X013975Y020132D01*
X013936Y020128D01*
X013898Y020131D01*
X013862Y020143D01*
X013829Y020163D01*
X013801Y020189D01*
X013780Y020221D01*
X013767Y020257D01*
X013761Y020295D01*
X013765Y020335D01*
X013777Y020373D01*
X013798Y020408D01*
X013826Y020437D01*
X013859Y020459D01*
X013897Y020474D01*
X013936Y020479D01*
X013976Y020474D01*
X014013Y020460D01*
X014046Y020439D01*
X014074Y020410D01*
X014094Y020376D01*
X014107Y020339D01*
X014110Y020299D01*
X014106Y020261D01*
X014093Y020224D01*
X014084Y020210D02*
X013787Y020210D01*
X013766Y020259D02*
X014105Y020259D01*
X014110Y020307D02*
X013763Y020307D01*
X013772Y020356D02*
X014101Y020356D01*
X014077Y020404D02*
X013796Y020404D01*
X013849Y020453D02*
X014024Y020453D01*
X014040Y020162D02*
X013831Y020162D01*
X013004Y020261D02*
X012991Y020224D01*
X012970Y020192D01*
X012942Y020165D01*
X012909Y020145D01*
X012873Y020132D01*
X012834Y020128D01*
X012796Y020131D01*
X012760Y020143D01*
X012727Y020163D01*
X012699Y020189D01*
X012678Y020221D01*
X012665Y020257D01*
X012659Y020295D01*
X012663Y020335D01*
X012675Y020373D01*
X012696Y020408D01*
X012724Y020437D01*
X012757Y020459D01*
X012795Y020474D01*
X012834Y020479D01*
X012874Y020474D01*
X012911Y020460D01*
X012944Y020439D01*
X012972Y020410D01*
X012992Y020376D01*
X013005Y020339D01*
X013008Y020299D01*
X013004Y020261D01*
X013003Y020259D02*
X012664Y020259D01*
X012661Y020307D02*
X013008Y020307D01*
X012999Y020356D02*
X012670Y020356D01*
X012694Y020404D02*
X012975Y020404D01*
X012922Y020453D02*
X012747Y020453D01*
X012685Y020210D02*
X012982Y020210D01*
X012938Y020162D02*
X012729Y020162D01*
X025947Y020500D02*
X025952Y020539D01*
X025966Y020577D01*
X025987Y020610D01*
X026016Y020637D01*
X026050Y020658D01*
X026088Y020670D01*
X026127Y020674D01*
X026165Y020669D01*
X026202Y020656D01*
X026234Y020636D01*
X026261Y020608D01*
X026282Y020575D01*
X026294Y020539D01*
X026298Y020500D01*
X026295Y020462D01*
X026283Y020426D01*
X026263Y020393D01*
X026237Y020365D01*
X026205Y020344D01*
X026169Y020330D01*
X026131Y020325D01*
X026091Y020329D01*
X026053Y020341D01*
X026018Y020361D01*
X025989Y020389D01*
X025967Y020423D01*
X025953Y020460D01*
X025947Y020500D01*
X025947Y020501D02*
X026298Y020501D01*
X026292Y020453D02*
X025955Y020453D01*
X025979Y020404D02*
X026270Y020404D01*
X026223Y020356D02*
X026027Y020356D01*
X025956Y020550D02*
X026290Y020550D01*
X026267Y020598D02*
X025980Y020598D01*
X026032Y020647D02*
X026216Y020647D01*
X026127Y019572D02*
X026165Y019567D01*
X026202Y019554D01*
X026234Y019534D01*
X026261Y019506D01*
X026282Y019473D01*
X026294Y019437D01*
X026298Y019398D01*
X026295Y019360D01*
X026283Y019324D01*
X026263Y019291D01*
X026237Y019263D01*
X026205Y019242D01*
X026169Y019228D01*
X026131Y019223D01*
X026091Y019227D01*
X026053Y019239D01*
X026018Y019259D01*
X025989Y019287D01*
X025967Y019321D01*
X025953Y019358D01*
X025947Y019398D01*
X025952Y019437D01*
X025966Y019475D01*
X025987Y019508D01*
X026016Y019535D01*
X026050Y019556D01*
X026088Y019568D01*
X026127Y019572D01*
X026236Y019531D02*
X026012Y019531D01*
X025971Y019483D02*
X026276Y019483D01*
X026294Y019434D02*
X025952Y019434D01*
X025949Y019386D02*
X026297Y019386D01*
X026287Y019337D02*
X025960Y019337D01*
X025988Y019289D02*
X026262Y019289D01*
X026201Y019240D02*
X026050Y019240D01*
X058480Y025225D02*
X058474Y025263D01*
X058478Y025303D01*
X058820Y025303D01*
X058820Y025306D02*
X058823Y025267D01*
X058819Y025228D01*
X058806Y025192D01*
X058785Y025159D01*
X058757Y025132D01*
X058724Y025112D01*
X058688Y025100D01*
X058649Y025096D01*
X058611Y025099D01*
X058575Y025111D01*
X058542Y025130D01*
X058514Y025157D01*
X058493Y025189D01*
X058480Y025225D01*
X058487Y025206D02*
X058811Y025206D01*
X058822Y025254D02*
X058476Y025254D01*
X058478Y025303D02*
X058490Y025341D01*
X058511Y025375D01*
X058539Y025405D01*
X058572Y025427D01*
X058610Y025441D01*
X058649Y025447D01*
X058689Y025441D01*
X058726Y025428D01*
X058759Y025406D01*
X058787Y025378D01*
X058807Y025344D01*
X058820Y025306D01*
X058803Y025351D02*
X058497Y025351D01*
X058534Y025400D02*
X058765Y025400D01*
X058783Y025157D02*
X058514Y025157D01*
X058580Y025109D02*
X058715Y025109D01*
X059582Y025225D02*
X059576Y025263D01*
X059580Y025303D01*
X059922Y025303D01*
X059922Y025306D02*
X059925Y025267D01*
X059921Y025228D01*
X059908Y025192D01*
X059887Y025159D01*
X059859Y025132D01*
X059826Y025112D01*
X059790Y025100D01*
X059751Y025096D01*
X059713Y025099D01*
X059677Y025111D01*
X059644Y025130D01*
X059616Y025157D01*
X059595Y025189D01*
X059582Y025225D01*
X059589Y025206D02*
X059913Y025206D01*
X059924Y025254D02*
X059578Y025254D01*
X059580Y025303D02*
X059592Y025341D01*
X059613Y025375D01*
X059641Y025405D01*
X059674Y025427D01*
X059712Y025441D01*
X059751Y025447D01*
X059791Y025441D01*
X059828Y025428D01*
X059861Y025406D01*
X059889Y025378D01*
X059909Y025344D01*
X059922Y025306D01*
X059905Y025351D02*
X059599Y025351D01*
X059636Y025400D02*
X059867Y025400D01*
X059885Y025157D02*
X059616Y025157D01*
X059682Y025109D02*
X059817Y025109D01*
D23*
X050241Y027195D03*
X050241Y028195D03*
X021805Y003929D03*
X019245Y003929D03*
X019245Y002149D03*
X021805Y002149D03*
D24*
X024212Y004092D02*
X024212Y004685D01*
X025212Y004685D02*
X025212Y004092D01*
X026212Y004092D02*
X026212Y004685D01*
X033196Y026620D02*
X033789Y026620D01*
X033789Y027620D02*
X033196Y027620D01*
D25*
X038662Y015216D02*
X038662Y014476D01*
X039662Y014476D02*
X039662Y015216D01*
X040662Y015216D02*
X040662Y014476D01*
D26*
X070089Y020974D03*
X070069Y026545D03*
X004436Y018399D03*
X004456Y012828D03*
D27*
X004397Y017404D03*
X070128Y021968D03*
D28*
X070128Y025639D03*
X004397Y013733D03*
D29*
X007851Y013517D03*
X007851Y013950D03*
X007851Y014462D03*
X007851Y014895D03*
X007851Y015328D03*
X007851Y015761D03*
X007851Y016194D03*
X007851Y016627D03*
X007851Y017060D03*
X007851Y017493D03*
X066674Y021879D03*
X066674Y022312D03*
X066674Y022745D03*
X066674Y023178D03*
X066674Y023611D03*
X066674Y024045D03*
X066674Y024478D03*
X066674Y024911D03*
X066674Y025422D03*
X066674Y025856D03*
D30*
X068140Y025728D03*
X068140Y021791D03*
X006385Y017582D03*
X006385Y013645D03*
D31*
X038663Y024952D02*
X039423Y024952D01*
D32*
X039206Y023590D02*
X037706Y023590D01*
X037706Y021890D02*
X039206Y021890D01*
D33*
X045618Y023340D03*
D34*
X048755Y025911D03*
X051755Y025911D03*
X038880Y026631D03*
X035880Y026631D03*
D35*
X034355Y024390D02*
X033650Y024390D01*
X033650Y022422D02*
X034355Y022422D01*
X049820Y022282D02*
X050525Y022282D01*
X050525Y024250D02*
X049820Y024250D01*
D36*
X059182Y023081D03*
D37*
X058285Y020254D03*
X060080Y020254D03*
D38*
X068912Y027226D03*
X068912Y028346D03*
D39*
X063452Y028336D03*
X062333Y028336D03*
D40*
X061232Y028306D03*
X065962Y026826D03*
X056822Y021816D03*
X067022Y019876D03*
X053537Y013026D03*
X055287Y008401D03*
X037162Y013151D03*
X033412Y013151D03*
X029287Y012151D03*
X024287Y013651D03*
X022537Y015526D03*
X026900Y018226D03*
X019787Y019151D03*
X015537Y017026D03*
X011787Y016651D03*
X011787Y015526D03*
X010412Y017401D03*
X024287Y009401D03*
X017912Y006526D03*
X036554Y016120D03*
D41*
X068032Y028436D03*
M02*
