G75*
G70*
%OFA0B0*%
%FSLAX24Y24*%
%IPPOS*%
%LPD*%
%AMOC8*
5,1,8,0,0,1.08239X$1,22.5*
%
%ADD10C,0.0520*%
%ADD11C,0.0050*%
%ADD12C,0.0740*%
%ADD13C,0.1380*%
%ADD14OC8,0.0600*%
%ADD15C,0.0820*%
%ADD16C,0.0600*%
%ADD17C,0.0634*%
%ADD18R,0.0580X0.0330*%
%ADD19C,0.0674*%
%ADD20OC8,0.0710*%
%ADD21C,0.0710*%
%ADD22C,0.0671*%
%ADD23R,0.0820X0.0820*%
%ADD24OC8,0.0820*%
%ADD25C,0.0740*%
%ADD26C,0.0785*%
%ADD27C,0.1104*%
%ADD28C,0.1080*%
%ADD29OC8,0.1080*%
%ADD30C,0.1222*%
%ADD31C,0.1261*%
%ADD32R,0.0330X0.0580*%
%ADD33C,0.1300*%
%ADD34C,0.0680*%
%ADD35R,0.0476X0.0476*%
D10*
X053925Y011586D02*
X053925Y012026D01*
X055925Y012026D02*
X055925Y011586D01*
X061675Y005526D02*
X061675Y005086D01*
X063675Y005086D02*
X063675Y005526D01*
D11*
X065308Y005786D02*
X065302Y005858D01*
X065307Y005923D01*
X065323Y005985D01*
X065349Y006044D01*
X065386Y006098D01*
X065431Y006144D01*
X065483Y006182D01*
X065541Y006210D01*
X065604Y006228D01*
X065668Y006234D01*
X065734Y006229D01*
X065798Y006213D01*
X065858Y006185D01*
X065913Y006148D01*
X065960Y006102D01*
X065999Y006048D01*
X066028Y005989D01*
X066045Y005925D01*
X066052Y005859D01*
X066045Y005793D01*
X066027Y005730D01*
X065998Y005670D01*
X065960Y005616D01*
X065912Y005570D01*
X065857Y005533D01*
X065797Y005506D01*
X065733Y005490D01*
X065667Y005485D01*
X065595Y005493D01*
X065526Y005515D01*
X065817Y005515D01*
X065902Y005563D02*
X065446Y005563D01*
X065463Y005549D02*
X065407Y005596D01*
X065362Y005652D01*
X065329Y005717D01*
X065308Y005786D01*
X065307Y005806D02*
X066047Y005806D01*
X066052Y005854D02*
X065302Y005854D01*
X065305Y005903D02*
X066048Y005903D01*
X066038Y005951D02*
X065314Y005951D01*
X065329Y006000D02*
X066022Y006000D01*
X065999Y006048D02*
X065352Y006048D01*
X065385Y006097D02*
X065964Y006097D01*
X065916Y006145D02*
X065432Y006145D01*
X065508Y006194D02*
X065840Y006194D01*
X066035Y005757D02*
X065317Y005757D01*
X065333Y005709D02*
X066017Y005709D01*
X065991Y005660D02*
X065358Y005660D01*
X065394Y005612D02*
X065955Y005612D01*
X065526Y005515D02*
X065463Y005549D01*
X065604Y005126D02*
X065668Y005132D01*
X065734Y005127D01*
X065798Y005111D01*
X065858Y005083D01*
X065913Y005046D01*
X065960Y005000D01*
X065999Y004946D01*
X066028Y004887D01*
X066045Y004823D01*
X066052Y004757D01*
X066045Y004691D01*
X066027Y004628D01*
X065998Y004568D01*
X065960Y004514D01*
X065912Y004468D01*
X065857Y004431D01*
X065797Y004404D01*
X065733Y004388D01*
X065667Y004383D01*
X065595Y004391D01*
X065526Y004413D01*
X065463Y004447D01*
X065407Y004494D01*
X065362Y004550D01*
X065329Y004615D01*
X065308Y004684D01*
X065302Y004756D01*
X065307Y004821D01*
X065323Y004883D01*
X065349Y004942D01*
X065386Y004996D01*
X065431Y005042D01*
X065483Y005080D01*
X065541Y005108D01*
X065604Y005126D01*
X065617Y005127D02*
X065735Y005127D01*
X065866Y005078D02*
X065481Y005078D01*
X065419Y005030D02*
X065930Y005030D01*
X065974Y004981D02*
X065376Y004981D01*
X065345Y004933D02*
X066005Y004933D01*
X066028Y004884D02*
X065323Y004884D01*
X065311Y004836D02*
X066042Y004836D01*
X066049Y004787D02*
X065304Y004787D01*
X065303Y004739D02*
X066050Y004739D01*
X066045Y004690D02*
X065308Y004690D01*
X065321Y004642D02*
X066031Y004642D01*
X066011Y004593D02*
X065340Y004593D01*
X065366Y004545D02*
X065982Y004545D01*
X065941Y004496D02*
X065405Y004496D01*
X065462Y004448D02*
X065882Y004448D01*
X065778Y004399D02*
X065568Y004399D01*
X060048Y004754D02*
X060042Y004826D01*
X060021Y004896D01*
X059988Y004960D01*
X059943Y005016D01*
X059887Y005063D01*
X059824Y005098D01*
X059755Y005119D01*
X059683Y005127D01*
X059617Y005122D01*
X059553Y005106D01*
X059493Y005079D01*
X059438Y005042D01*
X059390Y004996D01*
X059352Y004942D01*
X059323Y004883D01*
X059305Y004819D01*
X059298Y004753D01*
X059305Y004687D01*
X059322Y004624D01*
X059351Y004564D01*
X059390Y004510D01*
X059437Y004464D01*
X059492Y004427D01*
X059552Y004399D01*
X059616Y004383D01*
X059682Y004378D01*
X059746Y004385D01*
X059809Y004402D01*
X059867Y004430D01*
X059919Y004468D01*
X059964Y004514D01*
X060001Y004568D01*
X060027Y004627D01*
X060043Y004690D01*
X059304Y004690D01*
X059299Y004739D02*
X060047Y004739D01*
X060048Y004754D02*
X060043Y004690D01*
X060031Y004642D02*
X059317Y004642D01*
X059337Y004593D02*
X060012Y004593D01*
X059985Y004545D02*
X059365Y004545D01*
X059404Y004496D02*
X059947Y004496D01*
X059891Y004448D02*
X059461Y004448D01*
X059552Y004399D02*
X059798Y004399D01*
X060045Y004787D02*
X059301Y004787D01*
X059310Y004836D02*
X060039Y004836D01*
X060025Y004884D02*
X059324Y004884D01*
X059347Y004933D02*
X060002Y004933D01*
X059971Y004981D02*
X059380Y004981D01*
X059425Y005030D02*
X059927Y005030D01*
X059859Y005078D02*
X059492Y005078D01*
X059679Y005127D02*
X059686Y005127D01*
X059682Y005480D02*
X059616Y005485D01*
X059552Y005501D01*
X059492Y005529D01*
X059437Y005566D01*
X059390Y005612D01*
X059960Y005612D01*
X059964Y005616D02*
X059919Y005570D01*
X059867Y005532D01*
X059809Y005504D01*
X059746Y005487D01*
X059682Y005480D01*
X059831Y005515D02*
X059522Y005515D01*
X059441Y005563D02*
X059910Y005563D01*
X059964Y005616D02*
X060001Y005670D01*
X060027Y005729D01*
X060043Y005792D01*
X060048Y005856D01*
X060042Y005928D01*
X060021Y005998D01*
X059988Y006062D01*
X059943Y006118D01*
X059887Y006165D01*
X059824Y006200D01*
X059755Y006221D01*
X059683Y006229D01*
X059617Y006224D01*
X059553Y006208D01*
X059493Y006181D01*
X059438Y006144D01*
X059390Y006098D01*
X059352Y006044D01*
X059323Y005985D01*
X059305Y005921D01*
X059298Y005855D01*
X059305Y005789D01*
X059322Y005726D01*
X059351Y005666D01*
X059390Y005612D01*
X059355Y005660D02*
X059994Y005660D01*
X060018Y005709D02*
X059330Y005709D01*
X059314Y005757D02*
X060035Y005757D01*
X060044Y005806D02*
X059303Y005806D01*
X059298Y005854D02*
X060048Y005854D01*
X060044Y005903D02*
X059303Y005903D01*
X059313Y005951D02*
X060035Y005951D01*
X060020Y006000D02*
X059330Y006000D01*
X059355Y006048D02*
X059995Y006048D01*
X059960Y006097D02*
X059390Y006097D01*
X059440Y006145D02*
X059910Y006145D01*
X059834Y006194D02*
X059521Y006194D01*
X058048Y005127D02*
X057409Y005127D01*
X057418Y005143D02*
X057465Y005199D01*
X057521Y005244D01*
X057585Y005278D01*
X057655Y005298D01*
X057727Y005304D01*
X057792Y005299D01*
X057854Y005283D01*
X057913Y005257D01*
X057967Y005221D01*
X058013Y005175D01*
X057445Y005175D01*
X057418Y005143D02*
X057384Y005080D01*
X057362Y005011D01*
X057354Y004939D01*
X057359Y004873D01*
X057375Y004809D01*
X057402Y004749D01*
X057439Y004694D01*
X057485Y004646D01*
X057539Y004608D01*
X057599Y004579D01*
X057662Y004561D01*
X057728Y004554D01*
X057794Y004561D01*
X057858Y004579D01*
X057917Y004607D01*
X057971Y004646D01*
X058017Y004693D01*
X058054Y004748D01*
X058082Y004808D01*
X058098Y004872D01*
X058103Y004938D01*
X058096Y005002D01*
X058079Y005065D01*
X058051Y005123D01*
X058013Y005175D01*
X057962Y005224D02*
X057496Y005224D01*
X057575Y005272D02*
X057879Y005272D01*
X058072Y005078D02*
X057383Y005078D01*
X057368Y005030D02*
X058089Y005030D01*
X058099Y004981D02*
X057359Y004981D01*
X057354Y004933D02*
X058103Y004933D01*
X058099Y004884D02*
X057358Y004884D01*
X057368Y004836D02*
X058089Y004836D01*
X058072Y004787D02*
X057385Y004787D01*
X057409Y004739D02*
X058048Y004739D01*
X058014Y004690D02*
X057443Y004690D01*
X057492Y004642D02*
X057965Y004642D01*
X057888Y004593D02*
X057569Y004593D01*
X056980Y004808D02*
X056952Y004748D01*
X056915Y004693D01*
X056869Y004646D01*
X056815Y004607D01*
X056756Y004579D01*
X056692Y004561D01*
X056626Y004554D01*
X056560Y004561D01*
X056497Y004579D01*
X056437Y004608D01*
X056383Y004646D01*
X056337Y004694D01*
X056300Y004749D01*
X056273Y004809D01*
X056257Y004873D01*
X056252Y004939D01*
X056260Y005011D01*
X056282Y005080D01*
X056316Y005143D01*
X056363Y005199D01*
X056419Y005244D01*
X056483Y005278D01*
X056553Y005298D01*
X056625Y005304D01*
X056689Y005299D01*
X056752Y005283D01*
X056811Y005257D01*
X056865Y005221D01*
X056911Y005175D01*
X056343Y005175D01*
X056307Y005127D02*
X056946Y005127D01*
X056949Y005123D02*
X056977Y005065D01*
X056994Y005002D01*
X057001Y004938D01*
X056996Y004872D01*
X056980Y004808D01*
X056970Y004787D02*
X056283Y004787D01*
X056266Y004836D02*
X056987Y004836D01*
X056997Y004884D02*
X056256Y004884D01*
X056252Y004933D02*
X057001Y004933D01*
X056997Y004981D02*
X056257Y004981D01*
X056266Y005030D02*
X056987Y005030D01*
X056970Y005078D02*
X056281Y005078D01*
X056394Y005224D02*
X056860Y005224D01*
X056911Y005175D02*
X056949Y005123D01*
X056777Y005272D02*
X056473Y005272D01*
X056307Y004739D02*
X056946Y004739D01*
X056912Y004690D02*
X056341Y004690D01*
X056390Y004642D02*
X056863Y004642D01*
X056786Y004593D02*
X056467Y004593D01*
X052045Y005691D02*
X052027Y005628D01*
X051998Y005568D01*
X051960Y005514D01*
X051912Y005468D01*
X051857Y005431D01*
X051797Y005404D01*
X051733Y005388D01*
X051667Y005383D01*
X051595Y005391D01*
X051526Y005413D01*
X051463Y005447D01*
X051407Y005494D01*
X051362Y005550D01*
X051329Y005615D01*
X051308Y005684D01*
X051302Y005756D01*
X051307Y005821D01*
X051323Y005883D01*
X051349Y005942D01*
X051386Y005996D01*
X051431Y006042D01*
X051483Y006080D01*
X051541Y006108D01*
X051604Y006126D01*
X051668Y006132D01*
X051734Y006127D01*
X051798Y006111D01*
X051858Y006083D01*
X051913Y006046D01*
X051960Y006000D01*
X051999Y005946D01*
X052028Y005887D01*
X052045Y005823D01*
X052052Y005757D01*
X052045Y005691D01*
X052047Y005709D02*
X051306Y005709D01*
X051302Y005757D02*
X052052Y005757D01*
X052047Y005806D02*
X051306Y005806D01*
X051315Y005854D02*
X052037Y005854D01*
X052020Y005903D02*
X051331Y005903D01*
X051355Y005951D02*
X051995Y005951D01*
X051960Y006000D02*
X051390Y006000D01*
X051439Y006048D02*
X051910Y006048D01*
X051829Y006097D02*
X051518Y006097D01*
X051595Y006493D02*
X051526Y006515D01*
X051463Y006549D01*
X051407Y006596D01*
X051362Y006652D01*
X051329Y006717D01*
X051308Y006786D01*
X051302Y006858D01*
X051307Y006923D01*
X051323Y006985D01*
X051349Y007044D01*
X051386Y007098D01*
X051431Y007144D01*
X051483Y007182D01*
X051541Y007210D01*
X051604Y007228D01*
X051668Y007234D01*
X051734Y007229D01*
X051798Y007213D01*
X051858Y007185D01*
X051913Y007148D01*
X051960Y007102D01*
X051999Y007048D01*
X052028Y006989D01*
X052045Y006925D01*
X052052Y006859D01*
X052045Y006793D01*
X052027Y006730D01*
X051998Y006670D01*
X051960Y006616D01*
X051912Y006570D01*
X051857Y006533D01*
X051797Y006506D01*
X051733Y006490D01*
X051667Y006485D01*
X051595Y006493D01*
X051492Y006533D02*
X051858Y006533D01*
X051924Y006582D02*
X051424Y006582D01*
X051380Y006630D02*
X051970Y006630D01*
X052003Y006679D02*
X051348Y006679D01*
X051325Y006727D02*
X052026Y006727D01*
X052040Y006776D02*
X051311Y006776D01*
X051305Y006824D02*
X052048Y006824D01*
X052051Y006873D02*
X051303Y006873D01*
X051307Y006921D02*
X052046Y006921D01*
X052033Y006970D02*
X051319Y006970D01*
X051338Y007018D02*
X052013Y007018D01*
X051986Y007067D02*
X051365Y007067D01*
X051403Y007115D02*
X051947Y007115D01*
X051890Y007164D02*
X051458Y007164D01*
X051550Y007212D02*
X051799Y007212D01*
X050795Y006925D02*
X050802Y006859D01*
X050795Y006793D01*
X050777Y006730D01*
X050748Y006670D01*
X050710Y006616D01*
X050662Y006570D01*
X050607Y006533D01*
X050547Y006506D01*
X050483Y006490D01*
X050417Y006485D01*
X050345Y006493D01*
X050276Y006515D01*
X050213Y006549D01*
X050157Y006596D01*
X050112Y006652D01*
X050079Y006717D01*
X050058Y006786D01*
X050052Y006858D01*
X050057Y006923D01*
X050073Y006985D01*
X050099Y007044D01*
X050136Y007098D01*
X050181Y007144D01*
X050233Y007182D01*
X050291Y007210D01*
X050354Y007228D01*
X050418Y007234D01*
X050484Y007229D01*
X050548Y007213D01*
X050608Y007185D01*
X050663Y007148D01*
X050710Y007102D01*
X050749Y007048D01*
X050778Y006989D01*
X050795Y006925D01*
X050796Y006921D02*
X050057Y006921D01*
X050053Y006873D02*
X050801Y006873D01*
X050798Y006824D02*
X050055Y006824D01*
X050061Y006776D02*
X050790Y006776D01*
X050776Y006727D02*
X050075Y006727D01*
X050098Y006679D02*
X050753Y006679D01*
X050720Y006630D02*
X050130Y006630D01*
X050174Y006582D02*
X050674Y006582D01*
X050608Y006533D02*
X050242Y006533D01*
X050354Y006126D02*
X050418Y006132D01*
X050484Y006127D01*
X050548Y006111D01*
X050608Y006083D01*
X050663Y006046D01*
X050710Y006000D01*
X050749Y005946D01*
X050778Y005887D01*
X050795Y005823D01*
X050802Y005757D01*
X050795Y005691D01*
X050777Y005628D01*
X050748Y005568D01*
X050710Y005514D01*
X050662Y005468D01*
X050607Y005431D01*
X050547Y005404D01*
X050483Y005388D01*
X050417Y005383D01*
X050345Y005391D01*
X050276Y005413D01*
X050213Y005447D01*
X050157Y005494D01*
X050112Y005550D01*
X050079Y005615D01*
X050058Y005684D01*
X050052Y005756D01*
X050057Y005821D01*
X050073Y005883D01*
X050099Y005942D01*
X050136Y005996D01*
X050181Y006042D01*
X050233Y006080D01*
X050291Y006108D01*
X050354Y006126D01*
X050268Y006097D02*
X050579Y006097D01*
X050660Y006048D02*
X050189Y006048D01*
X050140Y006000D02*
X050710Y006000D01*
X050745Y005951D02*
X050105Y005951D01*
X050081Y005903D02*
X050770Y005903D01*
X050787Y005854D02*
X050065Y005854D01*
X050056Y005806D02*
X050797Y005806D01*
X050802Y005757D02*
X050052Y005757D01*
X050056Y005709D02*
X050797Y005709D01*
X050787Y005660D02*
X050065Y005660D01*
X050080Y005612D02*
X050770Y005612D01*
X050745Y005563D02*
X050105Y005563D01*
X050140Y005515D02*
X050710Y005515D01*
X050659Y005466D02*
X050190Y005466D01*
X050267Y005418D02*
X050578Y005418D01*
X051315Y005660D02*
X052037Y005660D01*
X052020Y005612D02*
X051330Y005612D01*
X051355Y005563D02*
X051995Y005563D01*
X051960Y005515D02*
X051390Y005515D01*
X051440Y005466D02*
X051909Y005466D01*
X051828Y005418D02*
X051517Y005418D01*
X048547Y005709D02*
X047806Y005709D01*
X047808Y005684D02*
X047802Y005756D01*
X047807Y005821D01*
X047823Y005883D01*
X047849Y005942D01*
X047886Y005996D01*
X047931Y006042D01*
X047983Y006080D01*
X048041Y006108D01*
X048104Y006126D01*
X048168Y006132D01*
X048234Y006127D01*
X048298Y006111D01*
X048358Y006083D01*
X048413Y006046D01*
X048460Y006000D01*
X048499Y005946D01*
X048528Y005887D01*
X048545Y005823D01*
X048552Y005757D01*
X048545Y005691D01*
X048527Y005628D01*
X048498Y005568D01*
X048460Y005514D01*
X048412Y005468D01*
X048357Y005431D01*
X048297Y005404D01*
X048233Y005388D01*
X048167Y005383D01*
X048095Y005391D01*
X048026Y005413D01*
X047963Y005447D01*
X047907Y005494D01*
X047862Y005550D01*
X047829Y005615D01*
X047808Y005684D01*
X047815Y005660D02*
X048537Y005660D01*
X048520Y005612D02*
X047830Y005612D01*
X047855Y005563D02*
X048495Y005563D01*
X048460Y005515D02*
X047890Y005515D01*
X047940Y005466D02*
X048409Y005466D01*
X048328Y005418D02*
X048017Y005418D01*
X047802Y005757D02*
X048552Y005757D01*
X048547Y005806D02*
X047806Y005806D01*
X047815Y005854D02*
X048537Y005854D01*
X048520Y005903D02*
X047831Y005903D01*
X047855Y005951D02*
X048495Y005951D01*
X048460Y006000D02*
X047890Y006000D01*
X047939Y006048D02*
X048410Y006048D01*
X048329Y006097D02*
X048018Y006097D01*
X048095Y006493D02*
X048026Y006515D01*
X047963Y006549D01*
X047907Y006596D01*
X047862Y006652D01*
X047829Y006717D01*
X047808Y006786D01*
X047802Y006858D01*
X047807Y006923D01*
X047823Y006985D01*
X047849Y007044D01*
X047886Y007098D01*
X047931Y007144D01*
X047983Y007182D01*
X048041Y007210D01*
X048104Y007228D01*
X048168Y007234D01*
X048234Y007229D01*
X048298Y007213D01*
X048358Y007185D01*
X048413Y007148D01*
X048460Y007102D01*
X048499Y007048D01*
X048528Y006989D01*
X048545Y006925D01*
X048552Y006859D01*
X048545Y006793D01*
X048527Y006730D01*
X048498Y006670D01*
X048460Y006616D01*
X048412Y006570D01*
X048357Y006533D01*
X048297Y006506D01*
X048233Y006490D01*
X048167Y006485D01*
X048095Y006493D01*
X047992Y006533D02*
X048358Y006533D01*
X048424Y006582D02*
X047924Y006582D01*
X047880Y006630D02*
X048470Y006630D01*
X048503Y006679D02*
X047848Y006679D01*
X047825Y006727D02*
X048526Y006727D01*
X048540Y006776D02*
X047811Y006776D01*
X047805Y006824D02*
X048548Y006824D01*
X048551Y006873D02*
X047803Y006873D01*
X047807Y006921D02*
X048546Y006921D01*
X048533Y006970D02*
X047819Y006970D01*
X047838Y007018D02*
X048513Y007018D01*
X048486Y007067D02*
X047865Y007067D01*
X047903Y007115D02*
X048447Y007115D01*
X048390Y007164D02*
X047958Y007164D01*
X048050Y007212D02*
X048299Y007212D01*
X050069Y006970D02*
X050783Y006970D01*
X050763Y007018D02*
X050088Y007018D01*
X050115Y007067D02*
X050736Y007067D01*
X050697Y007115D02*
X050153Y007115D01*
X050208Y007164D02*
X050640Y007164D01*
X050549Y007212D02*
X050300Y007212D01*
X061079Y011115D02*
X061058Y011184D01*
X061052Y011256D01*
X061057Y011321D01*
X061073Y011383D01*
X061099Y011442D01*
X061136Y011496D01*
X061181Y011542D01*
X061233Y011580D01*
X061291Y011608D01*
X061354Y011626D01*
X061418Y011632D01*
X061484Y011627D01*
X061548Y011611D01*
X061608Y011583D01*
X061663Y011546D01*
X061710Y011500D01*
X061749Y011446D01*
X061778Y011387D01*
X061795Y011323D01*
X061802Y011257D01*
X061795Y011191D01*
X061777Y011128D01*
X061748Y011068D01*
X061710Y011014D01*
X061662Y010968D01*
X061607Y010931D01*
X061547Y010904D01*
X061483Y010888D01*
X061417Y010883D01*
X061345Y010891D01*
X061276Y010913D01*
X061213Y010947D01*
X061157Y010994D01*
X061112Y011050D01*
X061079Y011115D01*
X061090Y011092D02*
X061760Y011092D01*
X061781Y011141D02*
X061071Y011141D01*
X061058Y011189D02*
X061795Y011189D01*
X061800Y011238D02*
X061054Y011238D01*
X061054Y011286D02*
X061799Y011286D01*
X061792Y011335D02*
X061060Y011335D01*
X061073Y011383D02*
X061778Y011383D01*
X061756Y011432D02*
X061095Y011432D01*
X061125Y011480D02*
X061724Y011480D01*
X061681Y011529D02*
X061168Y011529D01*
X061230Y011577D02*
X061617Y011577D01*
X061489Y011626D02*
X061357Y011626D01*
X061417Y011985D02*
X061345Y011993D01*
X061276Y012015D01*
X061213Y012049D01*
X061157Y012096D01*
X061112Y012152D01*
X061079Y012217D01*
X061058Y012286D01*
X061052Y012358D01*
X061057Y012423D01*
X061073Y012485D01*
X061099Y012544D01*
X061136Y012598D01*
X061181Y012644D01*
X061233Y012682D01*
X061291Y012710D01*
X061354Y012728D01*
X061418Y012734D01*
X061484Y012729D01*
X061548Y012713D01*
X061608Y012685D01*
X061663Y012648D01*
X061710Y012602D01*
X061749Y012548D01*
X061778Y012489D01*
X061795Y012425D01*
X061802Y012359D01*
X061795Y012293D01*
X061777Y012230D01*
X061748Y012170D01*
X061710Y012116D01*
X061662Y012070D01*
X061607Y012033D01*
X061547Y012006D01*
X061483Y011990D01*
X061417Y011985D01*
X061279Y012014D02*
X061564Y012014D01*
X061651Y012062D02*
X061197Y012062D01*
X061145Y012111D02*
X061704Y012111D01*
X061741Y012159D02*
X061108Y012159D01*
X061083Y012208D02*
X061767Y012208D01*
X061785Y012256D02*
X061067Y012256D01*
X061057Y012305D02*
X061796Y012305D01*
X061801Y012353D02*
X061052Y012353D01*
X061055Y012402D02*
X061798Y012402D01*
X061788Y012450D02*
X061064Y012450D01*
X061079Y012499D02*
X061773Y012499D01*
X061749Y012547D02*
X061101Y012547D01*
X061134Y012596D02*
X061715Y012596D01*
X061667Y012644D02*
X061181Y012644D01*
X061256Y012693D02*
X061592Y012693D01*
X064523Y013684D02*
X064550Y013624D01*
X064587Y013569D01*
X064633Y013521D01*
X064687Y013483D01*
X064747Y013454D01*
X064810Y013436D01*
X064876Y013429D01*
X064942Y013436D01*
X065006Y013454D01*
X065065Y013482D01*
X065119Y013521D01*
X065165Y013568D01*
X065202Y013623D01*
X065230Y013683D01*
X065246Y013747D01*
X065251Y013813D01*
X065244Y013877D01*
X065227Y013940D01*
X065199Y013998D01*
X065161Y014050D01*
X065115Y014096D01*
X065061Y014132D01*
X065002Y014158D01*
X064939Y014174D01*
X064875Y014179D01*
X064803Y014173D01*
X064733Y014153D01*
X064669Y014119D01*
X064613Y014074D01*
X064566Y014018D01*
X064532Y013955D01*
X064510Y013886D01*
X064502Y013814D01*
X064507Y013748D01*
X064523Y013684D01*
X064532Y013663D02*
X065221Y013663D01*
X065237Y013711D02*
X064516Y013711D01*
X064506Y013760D02*
X065247Y013760D01*
X065251Y013808D02*
X064502Y013808D01*
X064507Y013857D02*
X065247Y013857D01*
X065237Y013905D02*
X064516Y013905D01*
X064531Y013954D02*
X065220Y013954D01*
X065196Y014002D02*
X064558Y014002D01*
X064594Y014051D02*
X065160Y014051D01*
X065109Y014099D02*
X064645Y014099D01*
X064724Y014148D02*
X065026Y014148D01*
X065634Y013955D02*
X065668Y014018D01*
X065715Y014074D01*
X065771Y014119D01*
X065835Y014153D01*
X065905Y014173D01*
X065977Y014179D01*
X066042Y014174D01*
X066104Y014158D01*
X066163Y014132D01*
X066217Y014096D01*
X066263Y014050D01*
X066301Y013998D01*
X066329Y013940D01*
X066346Y013877D01*
X066353Y013813D01*
X066348Y013747D01*
X066332Y013683D01*
X066304Y013623D01*
X066267Y013568D01*
X066221Y013521D01*
X066167Y013482D01*
X066108Y013454D01*
X066044Y013436D01*
X065978Y013429D01*
X065912Y013436D01*
X065849Y013454D01*
X065789Y013483D01*
X065735Y013521D01*
X065689Y013569D01*
X065652Y013624D01*
X065625Y013684D01*
X065609Y013748D01*
X065604Y013814D01*
X065612Y013886D01*
X065634Y013955D01*
X065633Y013954D02*
X066322Y013954D01*
X066339Y013905D02*
X065618Y013905D01*
X065609Y013857D02*
X066349Y013857D01*
X066353Y013808D02*
X065604Y013808D01*
X065608Y013760D02*
X066349Y013760D01*
X066339Y013711D02*
X065618Y013711D01*
X065634Y013663D02*
X066323Y013663D01*
X066299Y013614D02*
X065658Y013614D01*
X065692Y013566D02*
X066265Y013566D01*
X066216Y013517D02*
X065741Y013517D01*
X065817Y013469D02*
X066139Y013469D01*
X066898Y013684D02*
X066882Y013748D01*
X066877Y013814D01*
X066885Y013886D01*
X066907Y013955D01*
X066941Y014018D01*
X066988Y014074D01*
X067044Y014119D01*
X067108Y014153D01*
X067178Y014173D01*
X067250Y014179D01*
X067314Y014174D01*
X067377Y014158D01*
X067436Y014132D01*
X067490Y014096D01*
X067536Y014050D01*
X067574Y013998D01*
X067602Y013940D01*
X067619Y013877D01*
X067626Y013813D01*
X067621Y013747D01*
X067605Y013683D01*
X067577Y013623D01*
X067540Y013568D01*
X067494Y013521D01*
X067440Y013482D01*
X067381Y013454D01*
X067317Y013436D01*
X067251Y013429D01*
X067185Y013436D01*
X067122Y013454D01*
X067062Y013483D01*
X067008Y013521D01*
X066962Y013569D01*
X066925Y013624D01*
X066898Y013684D01*
X066907Y013663D02*
X067596Y013663D01*
X067612Y013711D02*
X066891Y013711D01*
X066881Y013760D02*
X067622Y013760D01*
X067626Y013808D02*
X066877Y013808D01*
X066882Y013857D02*
X067622Y013857D01*
X067612Y013905D02*
X066891Y013905D01*
X066906Y013954D02*
X067595Y013954D01*
X067571Y014002D02*
X066933Y014002D01*
X066969Y014051D02*
X067535Y014051D01*
X067484Y014099D02*
X067020Y014099D01*
X067099Y014148D02*
X067401Y014148D01*
X068009Y013955D02*
X068043Y014018D01*
X068090Y014074D01*
X068146Y014119D01*
X068210Y014153D01*
X068280Y014173D01*
X068352Y014179D01*
X068417Y014174D01*
X068479Y014158D01*
X068538Y014132D01*
X068592Y014096D01*
X068638Y014050D01*
X068676Y013998D01*
X068704Y013940D01*
X068721Y013877D01*
X068728Y013813D01*
X068723Y013747D01*
X068707Y013683D01*
X068679Y013623D01*
X068642Y013568D01*
X068596Y013521D01*
X068542Y013482D01*
X068483Y013454D01*
X068419Y013436D01*
X068353Y013429D01*
X068287Y013436D01*
X068224Y013454D01*
X068164Y013483D01*
X068110Y013521D01*
X068064Y013569D01*
X068027Y013624D01*
X068000Y013684D01*
X067984Y013748D01*
X067979Y013814D01*
X067987Y013886D01*
X068009Y013955D01*
X068008Y013954D02*
X068697Y013954D01*
X068714Y013905D02*
X067993Y013905D01*
X067984Y013857D02*
X068724Y013857D01*
X068728Y013808D02*
X067979Y013808D01*
X067983Y013760D02*
X068724Y013760D01*
X068714Y013711D02*
X067993Y013711D01*
X068009Y013663D02*
X068698Y013663D01*
X068674Y013614D02*
X068033Y013614D01*
X068067Y013566D02*
X068640Y013566D01*
X068591Y013517D02*
X068116Y013517D01*
X068192Y013469D02*
X068514Y013469D01*
X067572Y013614D02*
X066931Y013614D01*
X066965Y013566D02*
X067538Y013566D01*
X067489Y013517D02*
X067014Y013517D01*
X067090Y013469D02*
X067412Y013469D01*
X068035Y014002D02*
X068673Y014002D01*
X068637Y014051D02*
X068071Y014051D01*
X068122Y014099D02*
X068586Y014099D01*
X068503Y014148D02*
X068201Y014148D01*
X066298Y014002D02*
X065660Y014002D01*
X065696Y014051D02*
X066262Y014051D01*
X066211Y014099D02*
X065747Y014099D01*
X065826Y014148D02*
X066128Y014148D01*
X065197Y013614D02*
X064556Y013614D01*
X064590Y013566D02*
X065163Y013566D01*
X065114Y013517D02*
X064639Y013517D01*
X064715Y013469D02*
X065037Y013469D01*
X061731Y011044D02*
X061117Y011044D01*
X061156Y010995D02*
X061690Y010995D01*
X061631Y010947D02*
X061214Y010947D01*
X061321Y010898D02*
X061525Y010898D01*
X049090Y012476D02*
X049068Y012407D01*
X049034Y012344D01*
X048987Y012288D01*
X048931Y012243D01*
X048867Y012210D01*
X048797Y012189D01*
X048725Y012183D01*
X048661Y012188D01*
X048598Y012204D01*
X048539Y012230D01*
X048485Y012267D01*
X048439Y012312D01*
X048401Y012364D01*
X048373Y012423D01*
X048356Y012485D01*
X048349Y012549D01*
X048354Y012615D01*
X048370Y012679D01*
X048398Y012739D01*
X048435Y012794D01*
X048481Y012841D01*
X048535Y012880D01*
X048594Y012909D01*
X048658Y012927D01*
X048724Y012933D01*
X048790Y012926D01*
X048853Y012908D01*
X048913Y012880D01*
X048967Y012841D01*
X049013Y012793D01*
X049050Y012739D01*
X049077Y012678D01*
X049093Y012614D01*
X049098Y012548D01*
X049090Y012476D01*
X049093Y012499D02*
X048354Y012499D01*
X048349Y012547D02*
X049098Y012547D01*
X049095Y012596D02*
X048353Y012596D01*
X048362Y012644D02*
X049086Y012644D01*
X049070Y012693D02*
X048377Y012693D01*
X048399Y012741D02*
X049048Y012741D01*
X049015Y012790D02*
X048432Y012790D01*
X048478Y012838D02*
X048969Y012838D01*
X048898Y012887D02*
X048549Y012887D01*
X047975Y012678D02*
X047991Y012614D01*
X047996Y012548D01*
X047988Y012476D01*
X047966Y012407D01*
X047932Y012344D01*
X047885Y012288D01*
X047829Y012243D01*
X047765Y012210D01*
X047695Y012189D01*
X047623Y012183D01*
X047558Y012188D01*
X047496Y012204D01*
X047437Y012230D01*
X047383Y012267D01*
X047337Y012312D01*
X047299Y012364D01*
X047271Y012423D01*
X047254Y012485D01*
X047247Y012549D01*
X047252Y012615D01*
X047268Y012679D01*
X047296Y012739D01*
X047333Y012794D01*
X047379Y012841D01*
X047433Y012880D01*
X047492Y012909D01*
X047556Y012927D01*
X047622Y012933D01*
X047688Y012926D01*
X047751Y012908D01*
X047811Y012880D01*
X047865Y012841D01*
X047911Y012793D01*
X047948Y012739D01*
X047975Y012678D01*
X047968Y012693D02*
X047275Y012693D01*
X047260Y012644D02*
X047984Y012644D01*
X047993Y012596D02*
X047251Y012596D01*
X047247Y012547D02*
X047996Y012547D01*
X047991Y012499D02*
X047252Y012499D01*
X047263Y012450D02*
X047980Y012450D01*
X047964Y012402D02*
X047281Y012402D01*
X047307Y012353D02*
X047937Y012353D01*
X047899Y012305D02*
X047344Y012305D01*
X047398Y012256D02*
X047845Y012256D01*
X047759Y012208D02*
X047487Y012208D01*
X047297Y012741D02*
X047946Y012741D01*
X047913Y012790D02*
X047330Y012790D01*
X047376Y012838D02*
X047867Y012838D01*
X047796Y012887D02*
X047447Y012887D01*
X048365Y012450D02*
X049082Y012450D01*
X049066Y012402D02*
X048383Y012402D01*
X048409Y012353D02*
X049039Y012353D01*
X049001Y012305D02*
X048446Y012305D01*
X048501Y012256D02*
X048947Y012256D01*
X048861Y012208D02*
X048589Y012208D01*
X048725Y024183D02*
X048797Y024189D01*
X048867Y024210D01*
X048931Y024243D01*
X048987Y024288D01*
X049034Y024344D01*
X049068Y024407D01*
X049090Y024476D01*
X049098Y024548D01*
X049093Y024614D01*
X049077Y024678D01*
X049050Y024739D01*
X049013Y024793D01*
X048967Y024841D01*
X048913Y024880D01*
X048853Y024908D01*
X048790Y024926D01*
X048724Y024933D01*
X048658Y024927D01*
X048594Y024909D01*
X048535Y024880D01*
X048481Y024841D01*
X048435Y024794D01*
X048398Y024739D01*
X048370Y024679D01*
X048354Y024615D01*
X048349Y024549D01*
X048356Y024485D01*
X048373Y024423D01*
X048401Y024364D01*
X048439Y024312D01*
X048485Y024267D01*
X048539Y024230D01*
X048598Y024204D01*
X048661Y024188D01*
X048725Y024183D01*
X048775Y024187D02*
X048666Y024187D01*
X048531Y024236D02*
X048917Y024236D01*
X048982Y024284D02*
X048467Y024284D01*
X048424Y024333D02*
X049025Y024333D01*
X049054Y024381D02*
X048393Y024381D01*
X048371Y024430D02*
X049076Y024430D01*
X049090Y024478D02*
X048357Y024478D01*
X048351Y024527D02*
X049096Y024527D01*
X049096Y024575D02*
X048351Y024575D01*
X048356Y024624D02*
X049091Y024624D01*
X049078Y024672D02*
X048369Y024672D01*
X048389Y024721D02*
X049058Y024721D01*
X049029Y024769D02*
X048418Y024769D01*
X048458Y024818D02*
X048989Y024818D01*
X048931Y024866D02*
X048516Y024866D01*
X048617Y024915D02*
X048830Y024915D01*
X049518Y024679D02*
X049546Y024739D01*
X049583Y024794D01*
X049629Y024841D01*
X049683Y024880D01*
X049742Y024909D01*
X049806Y024927D01*
X049872Y024933D01*
X049938Y024926D01*
X050001Y024908D01*
X050061Y024880D01*
X050115Y024841D01*
X050161Y024793D01*
X050198Y024739D01*
X050225Y024678D01*
X050241Y024614D01*
X050246Y024548D01*
X050238Y024476D01*
X050216Y024407D01*
X050182Y024344D01*
X050135Y024288D01*
X050079Y024243D01*
X050015Y024210D01*
X049945Y024189D01*
X049873Y024183D01*
X049808Y024188D01*
X049746Y024204D01*
X049687Y024230D01*
X049633Y024267D01*
X049587Y024312D01*
X049549Y024364D01*
X049521Y024423D01*
X049504Y024485D01*
X049497Y024549D01*
X049502Y024615D01*
X049518Y024679D01*
X049517Y024672D02*
X050226Y024672D01*
X050239Y024624D02*
X049504Y024624D01*
X049499Y024575D02*
X050244Y024575D01*
X050244Y024527D02*
X049499Y024527D01*
X049505Y024478D02*
X050238Y024478D01*
X050224Y024430D02*
X049519Y024430D01*
X049541Y024381D02*
X050202Y024381D01*
X050173Y024333D02*
X049572Y024333D01*
X049615Y024284D02*
X050130Y024284D01*
X050065Y024236D02*
X049679Y024236D01*
X049814Y024187D02*
X049923Y024187D01*
X050623Y024423D02*
X050606Y024485D01*
X050599Y024549D01*
X050604Y024615D01*
X050620Y024679D01*
X050648Y024739D01*
X050685Y024794D01*
X050731Y024841D01*
X050785Y024880D01*
X050844Y024909D01*
X050908Y024927D01*
X050974Y024933D01*
X051040Y024926D01*
X051103Y024908D01*
X051163Y024880D01*
X051217Y024841D01*
X051263Y024793D01*
X051300Y024739D01*
X051327Y024678D01*
X051343Y024614D01*
X051348Y024548D01*
X051340Y024476D01*
X051318Y024407D01*
X051284Y024344D01*
X051237Y024288D01*
X051181Y024243D01*
X051117Y024210D01*
X051047Y024189D01*
X050975Y024183D01*
X050911Y024188D01*
X050848Y024204D01*
X050789Y024230D01*
X050735Y024267D01*
X050689Y024312D01*
X050651Y024364D01*
X050623Y024423D01*
X050621Y024430D02*
X051326Y024430D01*
X051340Y024478D02*
X050607Y024478D01*
X050601Y024527D02*
X051346Y024527D01*
X051346Y024575D02*
X050601Y024575D01*
X050606Y024624D02*
X051341Y024624D01*
X051328Y024672D02*
X050619Y024672D01*
X050639Y024721D02*
X051308Y024721D01*
X051279Y024769D02*
X050668Y024769D01*
X050708Y024818D02*
X051239Y024818D01*
X051181Y024866D02*
X050766Y024866D01*
X050867Y024915D02*
X051080Y024915D01*
X050206Y024721D02*
X049537Y024721D01*
X049566Y024769D02*
X050177Y024769D01*
X050137Y024818D02*
X049606Y024818D01*
X049664Y024866D02*
X050079Y024866D01*
X049978Y024915D02*
X049765Y024915D01*
X050643Y024381D02*
X051304Y024381D01*
X051275Y024333D02*
X050674Y024333D01*
X050717Y024284D02*
X051232Y024284D01*
X051167Y024236D02*
X050781Y024236D01*
X050916Y024187D02*
X051025Y024187D01*
X047994Y024527D02*
X047249Y024527D01*
X047247Y024549D02*
X047252Y024615D01*
X047268Y024679D01*
X047296Y024739D01*
X047333Y024794D01*
X047379Y024841D01*
X047433Y024880D01*
X047492Y024909D01*
X047556Y024927D01*
X047622Y024933D01*
X047688Y024926D01*
X047751Y024908D01*
X047811Y024880D01*
X047865Y024841D01*
X047911Y024793D01*
X047948Y024739D01*
X047975Y024678D01*
X047991Y024614D01*
X047996Y024548D01*
X047988Y024476D01*
X047966Y024407D01*
X047932Y024344D01*
X047885Y024288D01*
X047829Y024243D01*
X047765Y024210D01*
X047695Y024189D01*
X047623Y024183D01*
X047558Y024188D01*
X047496Y024204D01*
X047437Y024230D01*
X047383Y024267D01*
X047337Y024312D01*
X047299Y024364D01*
X047271Y024423D01*
X047254Y024485D01*
X047247Y024549D01*
X047249Y024575D02*
X047994Y024575D01*
X047989Y024624D02*
X047254Y024624D01*
X047267Y024672D02*
X047976Y024672D01*
X047956Y024721D02*
X047287Y024721D01*
X047316Y024769D02*
X047927Y024769D01*
X047887Y024818D02*
X047356Y024818D01*
X047414Y024866D02*
X047829Y024866D01*
X047728Y024915D02*
X047515Y024915D01*
X047255Y024478D02*
X047988Y024478D01*
X047974Y024430D02*
X047269Y024430D01*
X047291Y024381D02*
X047952Y024381D01*
X047923Y024333D02*
X047322Y024333D01*
X047365Y024284D02*
X047880Y024284D01*
X047815Y024236D02*
X047429Y024236D01*
X047564Y024187D02*
X047673Y024187D01*
X043098Y024548D02*
X043090Y024476D01*
X043068Y024407D01*
X043034Y024344D01*
X042987Y024288D01*
X042931Y024243D01*
X042867Y024210D01*
X042797Y024189D01*
X042725Y024183D01*
X042661Y024188D01*
X042598Y024204D01*
X042539Y024230D01*
X042485Y024267D01*
X042439Y024312D01*
X042401Y024364D01*
X042373Y024423D01*
X042356Y024485D01*
X042349Y024549D01*
X042354Y024615D01*
X042370Y024679D01*
X042398Y024739D01*
X042435Y024794D01*
X042481Y024841D01*
X042535Y024880D01*
X042594Y024909D01*
X042658Y024927D01*
X042724Y024933D01*
X042790Y024926D01*
X042853Y024908D01*
X042913Y024880D01*
X042967Y024841D01*
X043013Y024793D01*
X043050Y024739D01*
X043077Y024678D01*
X043093Y024614D01*
X043098Y024548D01*
X043096Y024527D02*
X042351Y024527D01*
X042351Y024575D02*
X043096Y024575D01*
X043091Y024624D02*
X042356Y024624D01*
X042369Y024672D02*
X043078Y024672D01*
X043058Y024721D02*
X042389Y024721D01*
X042418Y024769D02*
X043029Y024769D01*
X042989Y024818D02*
X042458Y024818D01*
X042516Y024866D02*
X042931Y024866D01*
X042830Y024915D02*
X042617Y024915D01*
X042357Y024478D02*
X043090Y024478D01*
X043076Y024430D02*
X042371Y024430D01*
X042393Y024381D02*
X043054Y024381D01*
X043025Y024333D02*
X042424Y024333D01*
X042467Y024284D02*
X042982Y024284D01*
X042917Y024236D02*
X042531Y024236D01*
X042666Y024187D02*
X042775Y024187D01*
X041974Y024430D02*
X041269Y024430D01*
X041271Y024423D02*
X041254Y024485D01*
X041247Y024549D01*
X041252Y024615D01*
X041268Y024679D01*
X041296Y024739D01*
X041333Y024794D01*
X041379Y024841D01*
X041433Y024880D01*
X041492Y024909D01*
X041556Y024927D01*
X041622Y024933D01*
X041688Y024926D01*
X041751Y024908D01*
X041811Y024880D01*
X041865Y024841D01*
X041911Y024793D01*
X041948Y024739D01*
X041975Y024678D01*
X041991Y024614D01*
X041996Y024548D01*
X041988Y024476D01*
X041966Y024407D01*
X041932Y024344D01*
X041885Y024288D01*
X041829Y024243D01*
X041765Y024210D01*
X041695Y024189D01*
X041623Y024183D01*
X041558Y024188D01*
X041496Y024204D01*
X041437Y024230D01*
X041383Y024267D01*
X041337Y024312D01*
X041299Y024364D01*
X041271Y024423D01*
X041291Y024381D02*
X041952Y024381D01*
X041923Y024333D02*
X041322Y024333D01*
X041365Y024284D02*
X041880Y024284D01*
X041815Y024236D02*
X041429Y024236D01*
X041564Y024187D02*
X041673Y024187D01*
X041988Y024478D02*
X041255Y024478D01*
X041249Y024527D02*
X041994Y024527D01*
X041994Y024575D02*
X041249Y024575D01*
X041254Y024624D02*
X041989Y024624D01*
X041976Y024672D02*
X041267Y024672D01*
X041287Y024721D02*
X041956Y024721D01*
X041927Y024769D02*
X041316Y024769D01*
X041356Y024818D02*
X041887Y024818D01*
X041829Y024866D02*
X041414Y024866D01*
X041515Y024915D02*
X041728Y024915D01*
X040827Y024678D02*
X040843Y024614D01*
X040848Y024548D01*
X040840Y024476D01*
X040818Y024407D01*
X040784Y024344D01*
X040737Y024288D01*
X040681Y024243D01*
X040617Y024210D01*
X040547Y024189D01*
X040475Y024183D01*
X040411Y024188D01*
X040348Y024204D01*
X040289Y024230D01*
X040235Y024267D01*
X040189Y024312D01*
X040151Y024364D01*
X040123Y024423D01*
X040106Y024485D01*
X040099Y024549D01*
X040104Y024615D01*
X040120Y024679D01*
X040148Y024739D01*
X040185Y024794D01*
X040231Y024841D01*
X040285Y024880D01*
X040344Y024909D01*
X040408Y024927D01*
X040474Y024933D01*
X040540Y024926D01*
X040603Y024908D01*
X040663Y024880D01*
X040717Y024841D01*
X040763Y024793D01*
X040800Y024739D01*
X040827Y024678D01*
X040828Y024672D02*
X040119Y024672D01*
X040106Y024624D02*
X040841Y024624D01*
X040846Y024575D02*
X040101Y024575D01*
X040101Y024527D02*
X040846Y024527D01*
X040840Y024478D02*
X040107Y024478D01*
X040121Y024430D02*
X040826Y024430D01*
X040804Y024381D02*
X040143Y024381D01*
X040174Y024333D02*
X040775Y024333D01*
X040732Y024284D02*
X040217Y024284D01*
X040281Y024236D02*
X040667Y024236D01*
X040525Y024187D02*
X040416Y024187D01*
X039716Y024407D02*
X039682Y024344D01*
X039635Y024288D01*
X039579Y024243D01*
X039515Y024210D01*
X039445Y024189D01*
X039373Y024183D01*
X039308Y024188D01*
X039246Y024204D01*
X039187Y024230D01*
X039133Y024267D01*
X039087Y024312D01*
X039049Y024364D01*
X039021Y024423D01*
X039004Y024485D01*
X038997Y024549D01*
X039002Y024615D01*
X039018Y024679D01*
X039046Y024739D01*
X039083Y024794D01*
X039129Y024841D01*
X039183Y024880D01*
X039242Y024909D01*
X039306Y024927D01*
X039372Y024933D01*
X039438Y024926D01*
X039501Y024908D01*
X039561Y024880D01*
X039615Y024841D01*
X039661Y024793D01*
X039698Y024739D01*
X039725Y024678D01*
X039741Y024614D01*
X039746Y024548D01*
X039738Y024476D01*
X039716Y024407D01*
X039724Y024430D02*
X039019Y024430D01*
X039005Y024478D02*
X039738Y024478D01*
X039744Y024527D02*
X038999Y024527D01*
X038999Y024575D02*
X039744Y024575D01*
X039739Y024624D02*
X039004Y024624D01*
X039017Y024672D02*
X039726Y024672D01*
X039706Y024721D02*
X039037Y024721D01*
X039066Y024769D02*
X039677Y024769D01*
X039637Y024818D02*
X039106Y024818D01*
X039164Y024866D02*
X039579Y024866D01*
X039478Y024915D02*
X039265Y024915D01*
X040139Y024721D02*
X040808Y024721D01*
X040779Y024769D02*
X040168Y024769D01*
X040208Y024818D02*
X040739Y024818D01*
X040681Y024866D02*
X040266Y024866D01*
X040367Y024915D02*
X040580Y024915D01*
X039702Y024381D02*
X039041Y024381D01*
X039072Y024333D02*
X039673Y024333D01*
X039630Y024284D02*
X039115Y024284D01*
X039179Y024236D02*
X039565Y024236D01*
X039423Y024187D02*
X039314Y024187D01*
X034848Y024548D02*
X034840Y024476D01*
X034818Y024407D01*
X034784Y024344D01*
X034737Y024288D01*
X034681Y024243D01*
X034617Y024210D01*
X034547Y024189D01*
X034475Y024183D01*
X034411Y024188D01*
X034348Y024204D01*
X034289Y024230D01*
X034235Y024267D01*
X034189Y024312D01*
X034151Y024364D01*
X034123Y024423D01*
X034106Y024485D01*
X034099Y024549D01*
X034104Y024615D01*
X034120Y024679D01*
X034148Y024739D01*
X034185Y024794D01*
X034231Y024841D01*
X034285Y024880D01*
X034344Y024909D01*
X034408Y024927D01*
X034474Y024933D01*
X034540Y024926D01*
X034603Y024908D01*
X034663Y024880D01*
X034717Y024841D01*
X034763Y024793D01*
X034800Y024739D01*
X034827Y024678D01*
X034843Y024614D01*
X034848Y024548D01*
X034846Y024527D02*
X034101Y024527D01*
X034101Y024575D02*
X034846Y024575D01*
X034841Y024624D02*
X034106Y024624D01*
X034119Y024672D02*
X034828Y024672D01*
X034808Y024721D02*
X034139Y024721D01*
X034168Y024769D02*
X034779Y024769D01*
X034739Y024818D02*
X034208Y024818D01*
X034266Y024866D02*
X034681Y024866D01*
X034580Y024915D02*
X034367Y024915D01*
X034107Y024478D02*
X034840Y024478D01*
X034826Y024430D02*
X034121Y024430D01*
X034143Y024381D02*
X034804Y024381D01*
X034775Y024333D02*
X034174Y024333D01*
X034217Y024284D02*
X034732Y024284D01*
X034667Y024236D02*
X034281Y024236D01*
X034416Y024187D02*
X034525Y024187D01*
X033724Y024430D02*
X033019Y024430D01*
X033021Y024423D02*
X033004Y024485D01*
X032997Y024549D01*
X033002Y024615D01*
X033018Y024679D01*
X033046Y024739D01*
X033083Y024794D01*
X033129Y024841D01*
X033183Y024880D01*
X033242Y024909D01*
X033306Y024927D01*
X033372Y024933D01*
X033438Y024926D01*
X033501Y024908D01*
X033561Y024880D01*
X033615Y024841D01*
X033661Y024793D01*
X033698Y024739D01*
X033725Y024678D01*
X033741Y024614D01*
X033746Y024548D01*
X033738Y024476D01*
X033716Y024407D01*
X033682Y024344D01*
X033635Y024288D01*
X033579Y024243D01*
X033515Y024210D01*
X033445Y024189D01*
X033373Y024183D01*
X033308Y024188D01*
X033246Y024204D01*
X033187Y024230D01*
X033133Y024267D01*
X033087Y024312D01*
X033049Y024364D01*
X033021Y024423D01*
X033041Y024381D02*
X033702Y024381D01*
X033673Y024333D02*
X033072Y024333D01*
X033115Y024284D02*
X033630Y024284D01*
X033565Y024236D02*
X033179Y024236D01*
X033314Y024187D02*
X033423Y024187D01*
X033738Y024478D02*
X033005Y024478D01*
X032999Y024527D02*
X033744Y024527D01*
X033744Y024575D02*
X032999Y024575D01*
X033004Y024624D02*
X033739Y024624D01*
X033726Y024672D02*
X033017Y024672D01*
X033037Y024721D02*
X033706Y024721D01*
X033677Y024769D02*
X033066Y024769D01*
X033106Y024818D02*
X033637Y024818D01*
X033579Y024866D02*
X033164Y024866D01*
X033265Y024915D02*
X033478Y024915D01*
X055497Y024549D02*
X055502Y024615D01*
X055518Y024679D01*
X055546Y024739D01*
X055583Y024794D01*
X055629Y024841D01*
X055683Y024880D01*
X055742Y024909D01*
X055806Y024927D01*
X055872Y024933D01*
X055938Y024926D01*
X056001Y024908D01*
X056061Y024880D01*
X056115Y024841D01*
X056161Y024793D01*
X056198Y024739D01*
X056225Y024678D01*
X056241Y024614D01*
X056246Y024548D01*
X056238Y024476D01*
X056216Y024407D01*
X056182Y024344D01*
X056135Y024288D01*
X056079Y024243D01*
X056015Y024210D01*
X055945Y024189D01*
X055873Y024183D01*
X055808Y024188D01*
X055746Y024204D01*
X055687Y024230D01*
X055633Y024267D01*
X055587Y024312D01*
X055549Y024364D01*
X055521Y024423D01*
X055504Y024485D01*
X055497Y024549D01*
X055499Y024527D02*
X056244Y024527D01*
X056244Y024575D02*
X055499Y024575D01*
X055504Y024624D02*
X056239Y024624D01*
X056226Y024672D02*
X055517Y024672D01*
X055537Y024721D02*
X056206Y024721D01*
X056177Y024769D02*
X055566Y024769D01*
X055606Y024818D02*
X056137Y024818D01*
X056079Y024866D02*
X055664Y024866D01*
X055765Y024915D02*
X055978Y024915D01*
X056238Y024478D02*
X055505Y024478D01*
X055519Y024430D02*
X056224Y024430D01*
X056202Y024381D02*
X055541Y024381D01*
X055572Y024333D02*
X056173Y024333D01*
X056130Y024284D02*
X055615Y024284D01*
X055679Y024236D02*
X056065Y024236D01*
X055923Y024187D02*
X055814Y024187D01*
X056623Y024423D02*
X056606Y024485D01*
X056599Y024549D01*
X056604Y024615D01*
X056620Y024679D01*
X056648Y024739D01*
X056685Y024794D01*
X056731Y024841D01*
X056785Y024880D01*
X056844Y024909D01*
X056908Y024927D01*
X056974Y024933D01*
X057040Y024926D01*
X057103Y024908D01*
X057163Y024880D01*
X057217Y024841D01*
X057263Y024793D01*
X057300Y024739D01*
X057327Y024678D01*
X057343Y024614D01*
X057348Y024548D01*
X057340Y024476D01*
X057318Y024407D01*
X057284Y024344D01*
X057237Y024288D01*
X057181Y024243D01*
X057117Y024210D01*
X057047Y024189D01*
X056975Y024183D01*
X056911Y024188D01*
X056848Y024204D01*
X056789Y024230D01*
X056735Y024267D01*
X056689Y024312D01*
X056651Y024364D01*
X056623Y024423D01*
X056621Y024430D02*
X057326Y024430D01*
X057340Y024478D02*
X056607Y024478D01*
X056601Y024527D02*
X057346Y024527D01*
X057346Y024575D02*
X056601Y024575D01*
X056606Y024624D02*
X057341Y024624D01*
X057328Y024672D02*
X056619Y024672D01*
X056639Y024721D02*
X057308Y024721D01*
X057279Y024769D02*
X056668Y024769D01*
X056708Y024818D02*
X057239Y024818D01*
X057181Y024866D02*
X056766Y024866D01*
X056867Y024915D02*
X057080Y024915D01*
X057768Y024679D02*
X057796Y024739D01*
X057833Y024794D01*
X057879Y024841D01*
X057933Y024880D01*
X057992Y024909D01*
X058056Y024927D01*
X058122Y024933D01*
X058188Y024926D01*
X058251Y024908D01*
X058311Y024880D01*
X058365Y024841D01*
X058411Y024793D01*
X058448Y024739D01*
X058475Y024678D01*
X058491Y024614D01*
X058496Y024548D01*
X058488Y024476D01*
X058466Y024407D01*
X058432Y024344D01*
X058385Y024288D01*
X058329Y024243D01*
X058265Y024210D01*
X058195Y024189D01*
X058123Y024183D01*
X058058Y024188D01*
X057996Y024204D01*
X057937Y024230D01*
X057883Y024267D01*
X057837Y024312D01*
X057799Y024364D01*
X057771Y024423D01*
X057754Y024485D01*
X057747Y024549D01*
X057752Y024615D01*
X057768Y024679D01*
X057767Y024672D02*
X058476Y024672D01*
X058489Y024624D02*
X057754Y024624D01*
X057749Y024575D02*
X058494Y024575D01*
X058494Y024527D02*
X057749Y024527D01*
X057755Y024478D02*
X058488Y024478D01*
X058474Y024430D02*
X057769Y024430D01*
X057791Y024381D02*
X058452Y024381D01*
X058423Y024333D02*
X057822Y024333D01*
X057865Y024284D02*
X058380Y024284D01*
X058315Y024236D02*
X057929Y024236D01*
X058064Y024187D02*
X058173Y024187D01*
X058873Y024423D02*
X058856Y024485D01*
X058849Y024549D01*
X058854Y024615D01*
X058870Y024679D01*
X058898Y024739D01*
X058935Y024794D01*
X058981Y024841D01*
X059035Y024880D01*
X059094Y024909D01*
X059158Y024927D01*
X059224Y024933D01*
X059290Y024926D01*
X059353Y024908D01*
X059413Y024880D01*
X059467Y024841D01*
X059513Y024793D01*
X059550Y024739D01*
X059577Y024678D01*
X059593Y024614D01*
X059598Y024548D01*
X059590Y024476D01*
X059568Y024407D01*
X059534Y024344D01*
X059487Y024288D01*
X059431Y024243D01*
X059367Y024210D01*
X059297Y024189D01*
X059225Y024183D01*
X059161Y024188D01*
X059098Y024204D01*
X059039Y024230D01*
X058985Y024267D01*
X058939Y024312D01*
X058901Y024364D01*
X058873Y024423D01*
X058871Y024430D02*
X059576Y024430D01*
X059590Y024478D02*
X058857Y024478D01*
X058851Y024527D02*
X059596Y024527D01*
X059596Y024575D02*
X058851Y024575D01*
X058856Y024624D02*
X059591Y024624D01*
X059578Y024672D02*
X058869Y024672D01*
X058889Y024721D02*
X059558Y024721D01*
X059529Y024769D02*
X058918Y024769D01*
X058958Y024818D02*
X059489Y024818D01*
X059431Y024866D02*
X059016Y024866D01*
X059117Y024915D02*
X059330Y024915D01*
X059554Y024381D02*
X058893Y024381D01*
X058924Y024333D02*
X059525Y024333D01*
X059482Y024284D02*
X058967Y024284D01*
X059031Y024236D02*
X059417Y024236D01*
X059275Y024187D02*
X059166Y024187D01*
X058456Y024721D02*
X057787Y024721D01*
X057816Y024769D02*
X058427Y024769D01*
X058387Y024818D02*
X057856Y024818D01*
X057914Y024866D02*
X058329Y024866D01*
X058228Y024915D02*
X058015Y024915D01*
X057304Y024381D02*
X056643Y024381D01*
X056674Y024333D02*
X057275Y024333D01*
X057232Y024284D02*
X056717Y024284D01*
X056781Y024236D02*
X057167Y024236D01*
X057025Y024187D02*
X056916Y024187D01*
X063747Y024549D02*
X063752Y024615D01*
X063768Y024679D01*
X063796Y024739D01*
X063833Y024794D01*
X063879Y024841D01*
X063933Y024880D01*
X063992Y024909D01*
X064056Y024927D01*
X064122Y024933D01*
X064188Y024926D01*
X064251Y024908D01*
X064311Y024880D01*
X064365Y024841D01*
X064411Y024793D01*
X064448Y024739D01*
X064475Y024678D01*
X064491Y024614D01*
X064496Y024548D01*
X064488Y024476D01*
X064466Y024407D01*
X064432Y024344D01*
X064385Y024288D01*
X064329Y024243D01*
X064265Y024210D01*
X064195Y024189D01*
X064123Y024183D01*
X064058Y024188D01*
X063996Y024204D01*
X063937Y024230D01*
X063883Y024267D01*
X063837Y024312D01*
X063799Y024364D01*
X063771Y024423D01*
X063754Y024485D01*
X063747Y024549D01*
X063749Y024527D02*
X064494Y024527D01*
X064494Y024575D02*
X063749Y024575D01*
X063754Y024624D02*
X064489Y024624D01*
X064476Y024672D02*
X063767Y024672D01*
X063787Y024721D02*
X064456Y024721D01*
X064427Y024769D02*
X063816Y024769D01*
X063856Y024818D02*
X064387Y024818D01*
X064329Y024866D02*
X063914Y024866D01*
X064015Y024915D02*
X064228Y024915D01*
X064488Y024478D02*
X063755Y024478D01*
X063769Y024430D02*
X064474Y024430D01*
X064452Y024381D02*
X063791Y024381D01*
X063822Y024333D02*
X064423Y024333D01*
X064380Y024284D02*
X063865Y024284D01*
X063929Y024236D02*
X064315Y024236D01*
X064173Y024187D02*
X064064Y024187D01*
X064873Y024423D02*
X064856Y024485D01*
X064849Y024549D01*
X064854Y024615D01*
X064870Y024679D01*
X064898Y024739D01*
X064935Y024794D01*
X064981Y024841D01*
X065035Y024880D01*
X065094Y024909D01*
X065158Y024927D01*
X065224Y024933D01*
X065290Y024926D01*
X065353Y024908D01*
X065413Y024880D01*
X065467Y024841D01*
X065513Y024793D01*
X065550Y024739D01*
X065577Y024678D01*
X065593Y024614D01*
X065598Y024548D01*
X065590Y024476D01*
X065568Y024407D01*
X065534Y024344D01*
X065487Y024288D01*
X065431Y024243D01*
X065367Y024210D01*
X065297Y024189D01*
X065225Y024183D01*
X065161Y024188D01*
X065098Y024204D01*
X065039Y024230D01*
X064985Y024267D01*
X064939Y024312D01*
X064901Y024364D01*
X064873Y024423D01*
X064871Y024430D02*
X065576Y024430D01*
X065590Y024478D02*
X064857Y024478D01*
X064851Y024527D02*
X065596Y024527D01*
X065596Y024575D02*
X064851Y024575D01*
X064856Y024624D02*
X065591Y024624D01*
X065578Y024672D02*
X064869Y024672D01*
X064889Y024721D02*
X065558Y024721D01*
X065529Y024769D02*
X064918Y024769D01*
X064958Y024818D02*
X065489Y024818D01*
X065431Y024866D02*
X065016Y024866D01*
X065117Y024915D02*
X065330Y024915D01*
X066018Y024679D02*
X066046Y024739D01*
X066083Y024794D01*
X066129Y024841D01*
X066183Y024880D01*
X066242Y024909D01*
X066306Y024927D01*
X066372Y024933D01*
X066438Y024926D01*
X066501Y024908D01*
X066561Y024880D01*
X066615Y024841D01*
X066661Y024793D01*
X066698Y024739D01*
X066725Y024678D01*
X066741Y024614D01*
X066746Y024548D01*
X066738Y024476D01*
X066716Y024407D01*
X066682Y024344D01*
X066635Y024288D01*
X066579Y024243D01*
X066515Y024210D01*
X066445Y024189D01*
X066373Y024183D01*
X066308Y024188D01*
X066246Y024204D01*
X066187Y024230D01*
X066133Y024267D01*
X066087Y024312D01*
X066049Y024364D01*
X066021Y024423D01*
X066004Y024485D01*
X065997Y024549D01*
X066002Y024615D01*
X066018Y024679D01*
X066017Y024672D02*
X066726Y024672D01*
X066739Y024624D02*
X066004Y024624D01*
X065999Y024575D02*
X066744Y024575D01*
X066744Y024527D02*
X065999Y024527D01*
X066005Y024478D02*
X066738Y024478D01*
X066724Y024430D02*
X066019Y024430D01*
X066041Y024381D02*
X066702Y024381D01*
X066673Y024333D02*
X066072Y024333D01*
X066115Y024284D02*
X066630Y024284D01*
X066565Y024236D02*
X066179Y024236D01*
X066314Y024187D02*
X066423Y024187D01*
X067123Y024423D02*
X067106Y024485D01*
X067099Y024549D01*
X067104Y024615D01*
X067120Y024679D01*
X067148Y024739D01*
X067185Y024794D01*
X067231Y024841D01*
X067285Y024880D01*
X067344Y024909D01*
X067408Y024927D01*
X067474Y024933D01*
X067540Y024926D01*
X067603Y024908D01*
X067663Y024880D01*
X067717Y024841D01*
X067763Y024793D01*
X067800Y024739D01*
X067827Y024678D01*
X067843Y024614D01*
X067848Y024548D01*
X067840Y024476D01*
X067818Y024407D01*
X067784Y024344D01*
X067737Y024288D01*
X067681Y024243D01*
X067617Y024210D01*
X067547Y024189D01*
X067475Y024183D01*
X067411Y024188D01*
X067348Y024204D01*
X067289Y024230D01*
X067235Y024267D01*
X067189Y024312D01*
X067151Y024364D01*
X067123Y024423D01*
X067121Y024430D02*
X067826Y024430D01*
X067840Y024478D02*
X067107Y024478D01*
X067101Y024527D02*
X067846Y024527D01*
X067846Y024575D02*
X067101Y024575D01*
X067106Y024624D02*
X067841Y024624D01*
X067828Y024672D02*
X067119Y024672D01*
X067139Y024721D02*
X067808Y024721D01*
X067779Y024769D02*
X067168Y024769D01*
X067208Y024818D02*
X067739Y024818D01*
X067681Y024866D02*
X067266Y024866D01*
X067367Y024915D02*
X067580Y024915D01*
X066706Y024721D02*
X066037Y024721D01*
X066066Y024769D02*
X066677Y024769D01*
X066637Y024818D02*
X066106Y024818D01*
X066164Y024866D02*
X066579Y024866D01*
X066478Y024915D02*
X066265Y024915D01*
X065554Y024381D02*
X064893Y024381D01*
X064924Y024333D02*
X065525Y024333D01*
X065482Y024284D02*
X064967Y024284D01*
X065031Y024236D02*
X065417Y024236D01*
X065275Y024187D02*
X065166Y024187D01*
X067143Y024381D02*
X067804Y024381D01*
X067775Y024333D02*
X067174Y024333D01*
X067217Y024284D02*
X067732Y024284D01*
X067667Y024236D02*
X067281Y024236D01*
X067416Y024187D02*
X067525Y024187D01*
X071997Y024549D02*
X072002Y024615D01*
X072018Y024679D01*
X072046Y024739D01*
X072083Y024794D01*
X072129Y024841D01*
X072183Y024880D01*
X072242Y024909D01*
X072306Y024927D01*
X072372Y024933D01*
X072438Y024926D01*
X072501Y024908D01*
X072561Y024880D01*
X072615Y024841D01*
X072661Y024793D01*
X072698Y024739D01*
X072725Y024678D01*
X072741Y024614D01*
X072746Y024548D01*
X072738Y024476D01*
X072716Y024407D01*
X072682Y024344D01*
X072635Y024288D01*
X072579Y024243D01*
X072515Y024210D01*
X072445Y024189D01*
X072373Y024183D01*
X072308Y024188D01*
X072246Y024204D01*
X072187Y024230D01*
X072133Y024267D01*
X072087Y024312D01*
X072049Y024364D01*
X072021Y024423D01*
X072004Y024485D01*
X071997Y024549D01*
X071999Y024527D02*
X072744Y024527D01*
X072744Y024575D02*
X071999Y024575D01*
X072004Y024624D02*
X072739Y024624D01*
X072726Y024672D02*
X072017Y024672D01*
X072037Y024721D02*
X072706Y024721D01*
X072677Y024769D02*
X072066Y024769D01*
X072106Y024818D02*
X072637Y024818D01*
X072579Y024866D02*
X072164Y024866D01*
X072265Y024915D02*
X072478Y024915D01*
X072738Y024478D02*
X072005Y024478D01*
X072019Y024430D02*
X072724Y024430D01*
X072702Y024381D02*
X072041Y024381D01*
X072072Y024333D02*
X072673Y024333D01*
X072630Y024284D02*
X072115Y024284D01*
X072179Y024236D02*
X072565Y024236D01*
X072423Y024187D02*
X072314Y024187D01*
X073123Y024423D02*
X073106Y024485D01*
X073099Y024549D01*
X073104Y024615D01*
X073120Y024679D01*
X073148Y024739D01*
X073185Y024794D01*
X073231Y024841D01*
X073285Y024880D01*
X073344Y024909D01*
X073408Y024927D01*
X073474Y024933D01*
X073540Y024926D01*
X073603Y024908D01*
X073663Y024880D01*
X073717Y024841D01*
X073763Y024793D01*
X073800Y024739D01*
X073827Y024678D01*
X073843Y024614D01*
X073848Y024548D01*
X073840Y024476D01*
X073818Y024407D01*
X073784Y024344D01*
X073737Y024288D01*
X073681Y024243D01*
X073617Y024210D01*
X073547Y024189D01*
X073475Y024183D01*
X073411Y024188D01*
X073348Y024204D01*
X073289Y024230D01*
X073235Y024267D01*
X073189Y024312D01*
X073151Y024364D01*
X073123Y024423D01*
X073121Y024430D02*
X073826Y024430D01*
X073840Y024478D02*
X073107Y024478D01*
X073101Y024527D02*
X073846Y024527D01*
X073846Y024575D02*
X073101Y024575D01*
X073106Y024624D02*
X073841Y024624D01*
X073828Y024672D02*
X073119Y024672D01*
X073139Y024721D02*
X073808Y024721D01*
X073779Y024769D02*
X073168Y024769D01*
X073208Y024818D02*
X073739Y024818D01*
X073681Y024866D02*
X073266Y024866D01*
X073367Y024915D02*
X073580Y024915D01*
X073804Y024381D02*
X073143Y024381D01*
X073174Y024333D02*
X073775Y024333D01*
X073732Y024284D02*
X073217Y024284D01*
X073281Y024236D02*
X073667Y024236D01*
X073525Y024187D02*
X073416Y024187D01*
D12*
X071925Y012548D03*
X071145Y012548D03*
X071145Y011564D03*
X071925Y011564D03*
D13*
X072995Y009686D03*
X072995Y014426D03*
X027925Y014906D03*
X022175Y014906D03*
X016175Y014906D03*
D14*
X018925Y017306D03*
X024925Y017306D03*
X030675Y017306D03*
X033675Y017556D03*
X035925Y017556D03*
X038175Y017556D03*
X039425Y019806D03*
X039425Y022806D03*
X032425Y022931D03*
X031675Y023806D03*
X031675Y024806D03*
X029425Y022931D03*
X026425Y022931D03*
X025675Y023806D03*
X025675Y024806D03*
X023425Y022931D03*
X020425Y022931D03*
X019675Y023806D03*
X019675Y024806D03*
X017425Y022931D03*
X018925Y020306D03*
X024925Y020306D03*
X030675Y020306D03*
X033675Y014556D03*
X035925Y014556D03*
X038175Y014556D03*
X046675Y010556D03*
X049675Y010556D03*
X066925Y007306D03*
X066925Y006306D03*
X066925Y005306D03*
X069925Y005306D03*
X071175Y005806D03*
X072175Y005806D03*
X069925Y006306D03*
X069925Y007306D03*
X071175Y007806D03*
X072175Y007806D03*
X072425Y019806D03*
X072425Y022806D03*
X064175Y022806D03*
X064175Y019806D03*
X055925Y019806D03*
X055925Y022806D03*
X047675Y022806D03*
X047675Y019806D03*
X017800Y012056D03*
X014800Y012056D03*
X014800Y010681D03*
X017800Y010681D03*
X018175Y008306D03*
X019175Y008306D03*
X016550Y008306D03*
X015550Y008306D03*
D15*
X055895Y003446D03*
X058455Y003446D03*
X060395Y003446D03*
X062955Y003446D03*
X062955Y001666D03*
X060395Y001666D03*
X058455Y001666D03*
X055895Y001666D03*
X019675Y025556D03*
X025675Y025681D03*
X031675Y025681D03*
X031675Y028681D03*
X025675Y028681D03*
X019675Y028556D03*
D16*
X039425Y014566D02*
X039425Y014046D01*
X040425Y014046D02*
X040425Y014566D01*
X041425Y014566D02*
X041425Y014046D01*
X042425Y014046D02*
X042425Y014566D01*
X043425Y014566D02*
X043425Y014046D01*
X044425Y014046D02*
X044425Y014566D01*
X045425Y014566D02*
X045425Y014046D01*
X046425Y014046D02*
X046425Y014566D01*
X047425Y014566D02*
X047425Y014046D01*
X048425Y014046D02*
X048425Y014566D01*
X049425Y014566D02*
X049425Y014046D01*
X050425Y014046D02*
X050425Y014566D01*
X051425Y014566D02*
X051425Y014046D01*
X052425Y014046D02*
X052425Y014566D01*
X053425Y014566D02*
X053425Y014046D01*
X054425Y014046D02*
X054425Y014566D01*
X055425Y014566D02*
X055425Y014046D01*
X056425Y014046D02*
X056425Y014566D01*
X057425Y014566D02*
X057425Y014046D01*
X058425Y014046D02*
X058425Y014566D01*
X058425Y008566D02*
X058425Y008046D01*
X057425Y008046D02*
X057425Y008566D01*
X056425Y008566D02*
X056425Y008046D01*
X055425Y008046D02*
X055425Y008566D01*
X054425Y008566D02*
X054425Y008046D01*
X053425Y008046D02*
X053425Y008566D01*
X052425Y008566D02*
X052425Y008046D01*
X051425Y008046D02*
X051425Y008566D01*
X050425Y008566D02*
X050425Y008046D01*
X049425Y008046D02*
X049425Y008566D01*
X048425Y008566D02*
X048425Y008046D01*
X047425Y008046D02*
X047425Y008566D01*
X046425Y008566D02*
X046425Y008046D01*
X045425Y008046D02*
X045425Y008566D01*
X044425Y008566D02*
X044425Y008046D01*
X043425Y008046D02*
X043425Y008566D01*
X042425Y008566D02*
X042425Y008046D01*
X041425Y008046D02*
X041425Y008566D01*
X040425Y008566D02*
X040425Y008046D01*
X039425Y008046D02*
X039425Y008566D01*
D17*
X039425Y018556D03*
X040425Y018556D03*
X041675Y018556D03*
X042675Y018556D03*
X043675Y018556D03*
X044675Y018556D03*
X045675Y018556D03*
X046675Y018556D03*
X047675Y018556D03*
X048675Y018556D03*
X049925Y018556D03*
X050925Y018556D03*
X051925Y018556D03*
X052925Y018556D03*
X053925Y018556D03*
X054925Y018556D03*
X055925Y018556D03*
X056925Y018556D03*
X058175Y018556D03*
X059175Y018556D03*
X060175Y018556D03*
X061175Y018556D03*
X062175Y018556D03*
X063175Y018556D03*
X064175Y018556D03*
X065175Y018556D03*
X066425Y018556D03*
X067425Y018556D03*
X068425Y018556D03*
X069425Y018556D03*
X070425Y018556D03*
X071425Y018556D03*
X072425Y018556D03*
X073425Y018556D03*
X073425Y023556D03*
X072425Y023556D03*
X071425Y023556D03*
X070425Y023556D03*
X069425Y023556D03*
X068425Y023556D03*
X067425Y023556D03*
X066425Y023556D03*
X065175Y023556D03*
X064175Y023556D03*
X063175Y023556D03*
X062175Y023556D03*
X061175Y023556D03*
X060175Y023556D03*
X059175Y023556D03*
X058175Y023556D03*
X056925Y023556D03*
X055925Y023556D03*
X054925Y023556D03*
X053925Y023556D03*
X052925Y023556D03*
X051925Y023556D03*
X050925Y023556D03*
X049925Y023556D03*
X048675Y023556D03*
X047675Y023556D03*
X046675Y023556D03*
X045675Y023556D03*
X044675Y023556D03*
X043675Y023556D03*
X042675Y023556D03*
X041675Y023556D03*
X040425Y023556D03*
X039425Y023556D03*
X038425Y023556D03*
X037425Y023556D03*
X036425Y023556D03*
X035425Y023556D03*
X034425Y023556D03*
X033425Y023556D03*
X033425Y018556D03*
X034425Y018556D03*
X035425Y018556D03*
X036425Y018556D03*
X037425Y018556D03*
X038425Y018556D03*
D18*
X036425Y019356D03*
X036425Y019756D03*
X035425Y019756D03*
X035425Y019356D03*
X043675Y019356D03*
X043675Y019756D03*
X044675Y019756D03*
X044675Y019356D03*
X051925Y019356D03*
X051925Y019756D03*
X052925Y019756D03*
X052925Y019356D03*
X060175Y019356D03*
X060175Y019756D03*
X061175Y019756D03*
X061175Y019356D03*
X068425Y019356D03*
X068425Y019756D03*
X069425Y019756D03*
X069425Y019356D03*
D19*
X069425Y026009D02*
X069425Y026603D01*
X070425Y026603D02*
X070425Y026009D01*
X071425Y026009D02*
X071425Y026603D01*
X068425Y026603D02*
X068425Y026009D01*
X063175Y026009D02*
X063175Y026603D01*
X062175Y026603D02*
X062175Y026009D01*
X061175Y026009D02*
X061175Y026603D01*
X060175Y026603D02*
X060175Y026009D01*
X054925Y026009D02*
X054925Y026603D01*
X053925Y026603D02*
X053925Y026009D01*
X052925Y026009D02*
X052925Y026603D01*
X051925Y026603D02*
X051925Y026009D01*
X046675Y026009D02*
X046675Y026603D01*
X045675Y026603D02*
X045675Y026009D01*
X044675Y026009D02*
X044675Y026603D01*
X043675Y026603D02*
X043675Y026009D01*
X038425Y026009D02*
X038425Y026603D01*
X037425Y026603D02*
X037425Y026009D01*
X036425Y026009D02*
X036425Y026603D01*
X035425Y026603D02*
X035425Y026009D01*
X036425Y002853D02*
X036425Y002259D01*
X037425Y002259D02*
X037425Y002853D01*
X039675Y002853D02*
X039675Y002259D01*
X040675Y002259D02*
X040675Y002853D01*
X042925Y002853D02*
X042925Y002259D01*
X043925Y002259D02*
X043925Y002853D01*
X044925Y002853D02*
X044925Y002259D01*
X047425Y002259D02*
X047425Y002853D01*
X048425Y002853D02*
X048425Y002259D01*
X049425Y002259D02*
X049425Y002853D01*
X051925Y002853D02*
X051925Y002259D01*
X052925Y002259D02*
X052925Y002853D01*
X053925Y002853D02*
X053925Y002259D01*
X034175Y002259D02*
X034175Y002853D01*
X033175Y002853D02*
X033175Y002259D01*
D20*
X032300Y013431D03*
X034550Y013431D03*
X036800Y013431D03*
D21*
X035550Y013431D03*
X033300Y013431D03*
X037800Y013431D03*
D22*
X059925Y013431D03*
X059925Y009431D03*
D23*
X037300Y011181D03*
D24*
X036300Y011181D03*
X035300Y011181D03*
X035300Y010181D03*
X036300Y010181D03*
X037300Y010181D03*
D25*
X028925Y021476D02*
X028925Y022136D01*
X027925Y022136D02*
X027925Y021476D01*
X026925Y021476D02*
X026925Y022136D01*
X023175Y022136D02*
X023175Y021476D01*
X022175Y021476D02*
X022175Y022136D01*
X021175Y022136D02*
X021175Y021476D01*
X017175Y021476D02*
X017175Y022136D01*
X016175Y022136D02*
X016175Y021476D01*
X015175Y021476D02*
X015175Y022136D01*
D26*
X015691Y025204D02*
X015691Y025909D01*
X017659Y025909D02*
X017659Y025204D01*
X021691Y025204D02*
X021691Y025909D01*
X023659Y025909D02*
X023659Y025204D01*
X027691Y025204D02*
X027691Y025909D01*
X029659Y025909D02*
X029659Y025204D01*
D27*
X012437Y023681D02*
X011413Y023681D01*
X011413Y021681D02*
X012437Y021681D01*
X012437Y019681D02*
X011413Y019681D01*
X011413Y017681D02*
X012437Y017681D01*
X012437Y014056D02*
X011413Y014056D01*
X011413Y012056D02*
X012437Y012056D01*
X012437Y010056D02*
X011413Y010056D01*
X011413Y008056D02*
X012437Y008056D01*
D28*
X023300Y010681D03*
X026925Y010681D03*
D29*
X028925Y010681D03*
X021300Y010681D03*
D30*
X008839Y010115D03*
X006674Y010115D03*
X006674Y011769D03*
X008839Y011769D03*
X008839Y013422D03*
X006674Y013422D03*
X006674Y015076D03*
X008839Y015076D03*
X008839Y016729D03*
X006674Y016729D03*
X006674Y018383D03*
X008839Y018383D03*
X008839Y020036D03*
X006674Y020036D03*
X006674Y021690D03*
X008839Y021690D03*
X008839Y023344D03*
X006674Y023344D03*
X006674Y024997D03*
X008839Y024997D03*
X008839Y026651D03*
X006674Y026651D03*
X006674Y008462D03*
X008839Y008462D03*
D31*
X003800Y008462D03*
X003800Y026651D03*
D32*
X014998Y004306D03*
X015352Y004306D03*
X016225Y004306D03*
X016625Y004306D03*
D33*
X013050Y001306D03*
X008175Y006181D03*
X031050Y014681D03*
X011800Y027431D03*
X006425Y028431D03*
X074675Y028431D03*
X074675Y007681D03*
X068175Y001306D03*
D34*
X057425Y006381D02*
X057425Y006981D01*
X056425Y006981D02*
X056425Y006381D01*
X055425Y006381D02*
X055425Y006981D01*
X054425Y006981D02*
X054425Y006381D01*
X045425Y006381D02*
X045425Y006981D01*
X044425Y006981D02*
X044425Y006381D01*
X060300Y014881D02*
X060300Y015481D01*
X061300Y015481D02*
X061300Y014881D01*
X062300Y014881D02*
X062300Y015481D01*
D35*
X068425Y012931D03*
X069175Y011806D03*
X068550Y010056D03*
X068550Y008431D03*
X069175Y008306D03*
X062925Y009431D03*
X060800Y008094D03*
X058675Y007306D03*
X054050Y004931D03*
X038550Y008056D03*
X035425Y009056D03*
X035050Y008056D03*
X032675Y009556D03*
X041425Y012806D03*
X040175Y013306D03*
X058050Y012306D03*
X059925Y011056D03*
X071175Y017306D03*
X073425Y021306D03*
X075175Y021306D03*
X021675Y003431D03*
X016550Y005306D03*
X014925Y005306D03*
X012050Y005306D03*
M02*
