%
M48
M72
T01C0.0197
T02C0.0236
T03C0.0320
T04C0.0374
T05C0.0400
T06C0.0910
T07C0.1180
T08C0.1260
%
T01
X2679Y16655
X2679Y15868
X2679Y15081
X2679Y14293
X2679Y13506
X2679Y12718
X2679Y11931
X2679Y11144
X2679Y10356
X2679Y9569
X2679Y8781
X2679Y7994
X2679Y7207
X2679Y6419
X2679Y5632
X2679Y4844
X2679Y4057
X2679Y3270
X5199Y750
X5986Y750
X6773Y750
X7561Y750
X8348Y750
X9136Y750
X9923Y750
X10710Y750
X11498Y750
X12285Y750
X13073Y750
X13860Y750
X14647Y750
X15435Y750
X16222Y750
X17010Y750
X17797Y750
X18584Y750
X21104Y3270
X21104Y4057
X21104Y4844
X21104Y5632
X21104Y6419
X21104Y7207
X20710Y7652
X20317Y7652
X19923Y7652
X19529Y7652
X19136Y7652
X18742Y7652
X18348Y7652
X17955Y7652
X18348Y8243
X17955Y8834
X18348Y9424
X17955Y10015
X18348Y10605
X18742Y10015
X19136Y10605
X19529Y10015
X19923Y10605
X20317Y10015
X20710Y10605
X20317Y11196
X20710Y11786
X20710Y12298
X20317Y12298
X19923Y12298
X19529Y12298
X19136Y12298
X18742Y12298
X18348Y12298
X17955Y12298
X18348Y11786
X17955Y11196
X17561Y11786
X18742Y11196
X19136Y11786
X19529Y11196
X19923Y11786
X21104Y11196
X21104Y10015
X20710Y9424
X20317Y8834
X19923Y9424
X19529Y8834
X19136Y9424
X18742Y8834
X19136Y8243
X19923Y8243
X20710Y8243
X21104Y8834
X17561Y9424
X17561Y8243
X17561Y10605
X15277Y12089
X14923Y12089
X14569Y12089
X20986Y13112
X21104Y12692
X20986Y13900
X20986Y14687
X20986Y15474
X20986Y16262
X18584Y19175
X17797Y19175
X17010Y19175
X16222Y19175
X15435Y19175
X14647Y19175
X13860Y19175
X13073Y19175
X12285Y19175
X11498Y19175
X10710Y19175
X9923Y19175
X9136Y19175
X8348Y19175
X7561Y19175
X6773Y19175
X5986Y19175
X5199Y19175
X7325Y5632
X7955Y3545
X8624Y3545
X9293Y3545
X9962Y3545
X10632Y3545
X12364Y2955
X12285Y1459
X8821Y2167
X8506Y1616
X8506Y2718
X6773Y2718
X6773Y1616
T02
X9057Y6065
X9057Y8112
X7206Y10474
X9175Y12876
X9175Y15238
X9175Y16419
T03
X14096Y17667
X14096Y16667
X14148Y14637
X14148Y13637
X15498Y7056
X15498Y6056
T04
X5242Y5041
X5242Y6026
X5242Y6813
X5242Y7797
X5242Y12128
X5242Y13112
X5242Y13900
X5242Y14884
T05
X18871Y6695
X18771Y5695
X18871Y4695
X18771Y3695
T06
X4175Y3834
X4175Y9004
X4175Y10921
X4175Y16091
T07
X16426Y14856
X17607Y16707
X18788Y14856
T08
X3427Y1498
X20356Y1498
X20356Y18427
X3427Y18427
M30
