G75*
%MOIN*%
%OFA0B0*%
%FSLAX25Y25*%
%IPPOS*%
%LPD*%
%AMOC8*
5,1,8,0,0,1.08239X$1,22.5*
%
%ADD10C,0.00000*%
%ADD11C,0.00004*%
%ADD12OC8,0.06700*%
%ADD13C,0.06700*%
%ADD14C,0.13500*%
%ADD15C,0.17400*%
%ADD16C,0.06140*%
%ADD17OC8,0.05600*%
%ADD18R,0.07800X0.07800*%
%ADD19C,0.07800*%
%ADD20C,0.27959*%
D10*
X0020490Y0014980D02*
X0020490Y0184271D01*
X0034270Y0198050D02*
X0203561Y0198050D01*
X0217341Y0184271D02*
X0217341Y0014980D01*
X0203561Y0001200D02*
X0034270Y0001200D01*
D11*
X0033937Y0001204D01*
X0033604Y0001216D01*
X0033272Y0001236D01*
X0032940Y0001264D01*
X0032609Y0001300D01*
X0032279Y0001345D01*
X0031950Y0001397D01*
X0031622Y0001457D01*
X0031296Y0001525D01*
X0030972Y0001600D01*
X0030650Y0001684D01*
X0030330Y0001775D01*
X0030012Y0001874D01*
X0029696Y0001981D01*
X0029384Y0002095D01*
X0029074Y0002217D01*
X0028767Y0002347D01*
X0028463Y0002483D01*
X0028163Y0002627D01*
X0027866Y0002778D01*
X0027573Y0002937D01*
X0027284Y0003102D01*
X0026999Y0003274D01*
X0026718Y0003453D01*
X0026442Y0003639D01*
X0026170Y0003832D01*
X0025903Y0004031D01*
X0025641Y0004236D01*
X0025384Y0004448D01*
X0025132Y0004666D01*
X0024886Y0004889D01*
X0024645Y0005119D01*
X0024409Y0005355D01*
X0024179Y0005596D01*
X0023956Y0005842D01*
X0023738Y0006094D01*
X0023526Y0006351D01*
X0023321Y0006613D01*
X0023122Y0006880D01*
X0022929Y0007152D01*
X0022743Y0007428D01*
X0022564Y0007709D01*
X0022392Y0007994D01*
X0022227Y0008283D01*
X0022068Y0008576D01*
X0021917Y0008873D01*
X0021773Y0009173D01*
X0021637Y0009477D01*
X0021507Y0009784D01*
X0021385Y0010094D01*
X0021271Y0010406D01*
X0021164Y0010722D01*
X0021065Y0011040D01*
X0020974Y0011360D01*
X0020890Y0011682D01*
X0020815Y0012006D01*
X0020747Y0012332D01*
X0020687Y0012660D01*
X0020635Y0012989D01*
X0020590Y0013319D01*
X0020554Y0013650D01*
X0020526Y0013982D01*
X0020506Y0014314D01*
X0020494Y0014647D01*
X0020490Y0014980D01*
X0203561Y0001200D02*
X0203894Y0001204D01*
X0204227Y0001216D01*
X0204559Y0001236D01*
X0204891Y0001264D01*
X0205222Y0001300D01*
X0205552Y0001345D01*
X0205881Y0001397D01*
X0206209Y0001457D01*
X0206535Y0001525D01*
X0206859Y0001600D01*
X0207181Y0001684D01*
X0207501Y0001775D01*
X0207819Y0001874D01*
X0208135Y0001981D01*
X0208447Y0002095D01*
X0208757Y0002217D01*
X0209064Y0002347D01*
X0209368Y0002483D01*
X0209668Y0002627D01*
X0209965Y0002778D01*
X0210258Y0002937D01*
X0210547Y0003102D01*
X0210832Y0003274D01*
X0211113Y0003453D01*
X0211389Y0003639D01*
X0211661Y0003832D01*
X0211928Y0004031D01*
X0212190Y0004236D01*
X0212447Y0004448D01*
X0212699Y0004666D01*
X0212945Y0004889D01*
X0213186Y0005119D01*
X0213422Y0005355D01*
X0213652Y0005596D01*
X0213875Y0005842D01*
X0214093Y0006094D01*
X0214305Y0006351D01*
X0214510Y0006613D01*
X0214709Y0006880D01*
X0214902Y0007152D01*
X0215088Y0007428D01*
X0215267Y0007709D01*
X0215439Y0007994D01*
X0215604Y0008283D01*
X0215763Y0008576D01*
X0215914Y0008873D01*
X0216058Y0009173D01*
X0216194Y0009477D01*
X0216324Y0009784D01*
X0216446Y0010094D01*
X0216560Y0010406D01*
X0216667Y0010722D01*
X0216766Y0011040D01*
X0216857Y0011360D01*
X0216941Y0011682D01*
X0217016Y0012006D01*
X0217084Y0012332D01*
X0217144Y0012660D01*
X0217196Y0012989D01*
X0217241Y0013319D01*
X0217277Y0013650D01*
X0217305Y0013982D01*
X0217325Y0014314D01*
X0217337Y0014647D01*
X0217341Y0014980D01*
X0217341Y0184271D02*
X0217337Y0184604D01*
X0217325Y0184937D01*
X0217305Y0185269D01*
X0217277Y0185601D01*
X0217241Y0185932D01*
X0217196Y0186262D01*
X0217144Y0186591D01*
X0217084Y0186919D01*
X0217016Y0187245D01*
X0216941Y0187569D01*
X0216857Y0187891D01*
X0216766Y0188211D01*
X0216667Y0188529D01*
X0216560Y0188845D01*
X0216446Y0189157D01*
X0216324Y0189467D01*
X0216194Y0189774D01*
X0216058Y0190078D01*
X0215914Y0190378D01*
X0215763Y0190675D01*
X0215604Y0190968D01*
X0215439Y0191257D01*
X0215267Y0191542D01*
X0215088Y0191823D01*
X0214902Y0192099D01*
X0214709Y0192371D01*
X0214510Y0192638D01*
X0214305Y0192900D01*
X0214093Y0193157D01*
X0213875Y0193409D01*
X0213652Y0193655D01*
X0213422Y0193896D01*
X0213186Y0194132D01*
X0212945Y0194362D01*
X0212699Y0194585D01*
X0212447Y0194803D01*
X0212190Y0195015D01*
X0211928Y0195220D01*
X0211661Y0195419D01*
X0211389Y0195612D01*
X0211113Y0195798D01*
X0210832Y0195977D01*
X0210547Y0196149D01*
X0210258Y0196314D01*
X0209965Y0196473D01*
X0209668Y0196624D01*
X0209368Y0196768D01*
X0209064Y0196904D01*
X0208757Y0197034D01*
X0208447Y0197156D01*
X0208135Y0197270D01*
X0207819Y0197377D01*
X0207501Y0197476D01*
X0207181Y0197567D01*
X0206859Y0197651D01*
X0206535Y0197726D01*
X0206209Y0197794D01*
X0205881Y0197854D01*
X0205552Y0197906D01*
X0205222Y0197951D01*
X0204891Y0197987D01*
X0204559Y0198015D01*
X0204227Y0198035D01*
X0203894Y0198047D01*
X0203561Y0198051D01*
X0034270Y0198051D02*
X0033937Y0198047D01*
X0033604Y0198035D01*
X0033272Y0198015D01*
X0032940Y0197987D01*
X0032609Y0197951D01*
X0032279Y0197906D01*
X0031950Y0197854D01*
X0031622Y0197794D01*
X0031296Y0197726D01*
X0030972Y0197651D01*
X0030650Y0197567D01*
X0030330Y0197476D01*
X0030012Y0197377D01*
X0029696Y0197270D01*
X0029384Y0197156D01*
X0029074Y0197034D01*
X0028767Y0196904D01*
X0028463Y0196768D01*
X0028163Y0196624D01*
X0027866Y0196473D01*
X0027573Y0196314D01*
X0027284Y0196149D01*
X0026999Y0195977D01*
X0026718Y0195798D01*
X0026442Y0195612D01*
X0026170Y0195419D01*
X0025903Y0195220D01*
X0025641Y0195015D01*
X0025384Y0194803D01*
X0025132Y0194585D01*
X0024886Y0194362D01*
X0024645Y0194132D01*
X0024409Y0193896D01*
X0024179Y0193655D01*
X0023956Y0193409D01*
X0023738Y0193157D01*
X0023526Y0192900D01*
X0023321Y0192638D01*
X0023122Y0192371D01*
X0022929Y0192099D01*
X0022743Y0191823D01*
X0022564Y0191542D01*
X0022392Y0191257D01*
X0022227Y0190968D01*
X0022068Y0190675D01*
X0021917Y0190378D01*
X0021773Y0190078D01*
X0021637Y0189774D01*
X0021507Y0189467D01*
X0021385Y0189157D01*
X0021271Y0188845D01*
X0021164Y0188529D01*
X0021065Y0188211D01*
X0020974Y0187891D01*
X0020890Y0187569D01*
X0020815Y0187245D01*
X0020747Y0186919D01*
X0020687Y0186591D01*
X0020635Y0186262D01*
X0020590Y0185932D01*
X0020554Y0185601D01*
X0020526Y0185269D01*
X0020506Y0184937D01*
X0020494Y0184604D01*
X0020490Y0184271D01*
D12*
X0141484Y0146367D03*
X0154978Y0060560D03*
D13*
X0154978Y0070560D03*
X0141484Y0136367D03*
D14*
X0041750Y0160908D03*
X0041750Y0109208D03*
X0041750Y0090042D03*
X0041750Y0038342D03*
D15*
X0164260Y0148562D03*
X0176071Y0167066D03*
X0187882Y0148562D03*
D16*
X0055289Y0148838D02*
X0049549Y0148838D01*
X0049549Y0138995D02*
X0055289Y0138995D01*
X0055289Y0131121D02*
X0049549Y0131121D01*
X0049549Y0121279D02*
X0055289Y0121279D01*
X0055289Y0077972D02*
X0049549Y0077972D01*
X0049549Y0068129D02*
X0055289Y0068129D01*
X0055289Y0060255D02*
X0049549Y0060255D01*
X0049549Y0050413D02*
X0055289Y0050413D01*
D17*
X0140963Y0166672D03*
X0140963Y0176672D03*
D18*
X0188707Y0066948D03*
D19*
X0187707Y0056948D03*
X0188707Y0046948D03*
X0187707Y0036948D03*
D20*
X0203561Y0014980D03*
X0034270Y0014980D03*
X0034270Y0184271D03*
X0203561Y0184271D03*
M02*
