G75*
G70*
%OFA0B0*%
%FSLAX24Y24*%
%IPPOS*%
%LPD*%
%AMOC8*
5,1,8,0,0,1.08239X$1,22.5*
%
%ADD10C,0.0010*%
%ADD11C,0.0000*%
%ADD12C,0.0120*%
%ADD13R,0.0800X0.0800*%
%ADD14C,0.0800*%
%ADD15OC8,0.0740*%
%ADD16C,0.0740*%
%ADD17R,0.0740X0.0740*%
%ADD18OC8,0.0660*%
%ADD19R,0.0630X0.0710*%
%ADD20R,0.0710X0.0630*%
%ADD21R,0.0591X0.0591*%
%ADD22R,0.0594X0.0594*%
%ADD23R,0.1266X0.1266*%
%ADD24R,0.0600X0.1300*%
%ADD25R,0.0356X0.0356*%
%ADD26C,0.0700*%
%ADD27C,0.0394*%
%ADD28C,0.0240*%
%ADD29C,0.0160*%
D10*
X001892Y001853D02*
X001892Y018979D01*
X001893Y019033D01*
X001897Y019087D01*
X001905Y019141D01*
X001917Y019194D01*
X001933Y019246D01*
X001952Y019296D01*
X001975Y019345D01*
X002001Y019393D01*
X002030Y019438D01*
X002063Y019482D01*
X002098Y019523D01*
X002136Y019561D01*
X002177Y019596D01*
X002221Y019629D01*
X002266Y019658D01*
X002314Y019684D01*
X002363Y019707D01*
X002413Y019726D01*
X002465Y019742D01*
X002518Y019754D01*
X002572Y019762D01*
X002626Y019766D01*
X002680Y019767D01*
X002680Y019766D02*
X005396Y019766D01*
X005438Y019767D01*
X005480Y019771D01*
X005521Y019778D01*
X005561Y019790D01*
X005600Y019805D01*
X005638Y019824D01*
X005673Y019846D01*
X005706Y019871D01*
X005737Y019900D01*
X005765Y019931D01*
X005790Y019964D01*
X005812Y020000D01*
X005831Y020037D01*
X005846Y020076D01*
X005857Y020116D01*
X005865Y020158D01*
X005869Y020199D01*
X005869Y021499D01*
X005869Y021498D02*
X005868Y021540D01*
X005864Y021582D01*
X005857Y021623D01*
X005845Y021663D01*
X005830Y021702D01*
X005811Y021740D01*
X005789Y021775D01*
X005764Y021808D01*
X005735Y021839D01*
X005704Y021867D01*
X005671Y021892D01*
X005635Y021914D01*
X005598Y021933D01*
X005559Y021948D01*
X005519Y021959D01*
X005477Y021967D01*
X005436Y021971D01*
X004845Y021971D01*
X004852Y021978D02*
X004642Y022008D01*
X004542Y022038D01*
X004442Y022088D01*
X004352Y022138D01*
X004272Y022208D01*
X004192Y022288D01*
X004132Y022368D01*
X004082Y022458D01*
X004032Y022558D01*
X003992Y022768D01*
X003392Y029268D01*
X003992Y035758D01*
X004032Y035968D01*
X004082Y036068D01*
X004132Y036158D01*
X004192Y036238D01*
X004272Y036318D01*
X004352Y036388D01*
X004442Y036438D01*
X004542Y036488D01*
X004642Y036518D01*
X004852Y036548D01*
X011342Y036548D01*
X012132Y035758D01*
X015992Y035758D01*
X016202Y035728D01*
X016312Y035698D01*
X016402Y035648D01*
X016492Y035588D01*
X016572Y035518D01*
X016652Y035438D01*
X016712Y035348D01*
X016792Y035148D01*
X016822Y034928D01*
X016822Y029268D01*
X016902Y028638D01*
X017142Y028058D01*
X017522Y027568D01*
X018022Y027188D01*
X018602Y026948D01*
X019222Y026858D01*
X019842Y026948D01*
X020422Y027188D01*
X020922Y027568D01*
X021302Y028058D01*
X021542Y028638D01*
X021622Y029268D01*
X021622Y034928D01*
X021616Y034924D02*
X021614Y034979D01*
X021616Y035034D01*
X021621Y035088D01*
X021630Y035142D01*
X021643Y035195D01*
X021660Y035248D01*
X021681Y035298D01*
X021705Y035348D01*
X021732Y035395D01*
X021763Y035441D01*
X021797Y035484D01*
X021833Y035524D01*
X021873Y035562D01*
X021915Y035597D01*
X021960Y035629D01*
X022007Y035657D01*
X022055Y035683D01*
X022106Y035704D01*
X022157Y035722D01*
X022210Y035737D01*
X022264Y035747D01*
X022318Y035754D01*
X022373Y035757D01*
X022428Y035756D01*
X022483Y035751D01*
X022452Y035758D02*
X026312Y035758D01*
X027092Y036548D01*
X033592Y036548D01*
X033802Y036518D01*
X033902Y036488D01*
X034002Y036438D01*
X034092Y036388D01*
X034172Y036318D01*
X034312Y036158D01*
X034362Y036068D01*
X034402Y035968D01*
X034452Y035758D01*
X035052Y029268D01*
X034452Y022768D01*
X034402Y022558D01*
X034362Y022458D01*
X034312Y022368D01*
X034172Y022208D01*
X034092Y022138D01*
X034002Y022088D01*
X033902Y022038D01*
X033802Y022008D01*
X033592Y021978D01*
X033585Y021971D02*
X031892Y021971D01*
X031893Y021971D02*
X031851Y021970D01*
X031809Y021966D01*
X031768Y021959D01*
X031728Y021947D01*
X031689Y021932D01*
X031651Y021913D01*
X031616Y021891D01*
X031583Y021866D01*
X031552Y021837D01*
X031524Y021806D01*
X031499Y021773D01*
X031477Y021737D01*
X031458Y021700D01*
X031443Y021661D01*
X031432Y021621D01*
X031424Y021579D01*
X031420Y021538D01*
X031420Y020239D01*
X031421Y020197D01*
X031425Y020155D01*
X031432Y020114D01*
X031444Y020074D01*
X031459Y020035D01*
X031478Y019997D01*
X031500Y019962D01*
X031525Y019929D01*
X031554Y019898D01*
X031585Y019870D01*
X031618Y019845D01*
X031654Y019823D01*
X031691Y019804D01*
X031730Y019789D01*
X031770Y019778D01*
X031812Y019770D01*
X031853Y019766D01*
X033113Y019766D01*
X033113Y019767D02*
X033154Y019763D01*
X033196Y019755D01*
X033236Y019744D01*
X033275Y019729D01*
X033312Y019710D01*
X033348Y019688D01*
X033381Y019663D01*
X033412Y019635D01*
X033441Y019604D01*
X033466Y019571D01*
X033488Y019536D01*
X033507Y019498D01*
X033522Y019459D01*
X033534Y019419D01*
X033541Y019378D01*
X033545Y019336D01*
X033546Y019294D01*
X033546Y006656D01*
X033545Y006602D01*
X033541Y006548D01*
X033533Y006494D01*
X033521Y006441D01*
X033505Y006389D01*
X033486Y006339D01*
X033463Y006290D01*
X033437Y006242D01*
X033408Y006197D01*
X033375Y006153D01*
X033340Y006112D01*
X033302Y006074D01*
X033261Y006039D01*
X033217Y006006D01*
X033172Y005977D01*
X033124Y005951D01*
X033075Y005928D01*
X033025Y005909D01*
X032973Y005893D01*
X032920Y005881D01*
X032866Y005873D01*
X032812Y005869D01*
X032758Y005868D01*
X032758Y005869D02*
X027168Y005908D01*
X027114Y005909D01*
X027060Y005913D01*
X027006Y005921D01*
X026953Y005933D01*
X026901Y005949D01*
X026851Y005968D01*
X026802Y005991D01*
X026754Y006017D01*
X026709Y006046D01*
X026665Y006079D01*
X026624Y006114D01*
X026586Y006152D01*
X026551Y006193D01*
X026518Y006237D01*
X026489Y006282D01*
X026463Y006330D01*
X026440Y006379D01*
X026421Y006429D01*
X026405Y006481D01*
X026393Y006534D01*
X026385Y006588D01*
X026381Y006642D01*
X026380Y006696D01*
X026380Y006695D02*
X026380Y019333D01*
X026380Y019334D02*
X026384Y019375D01*
X026392Y019417D01*
X026403Y019457D01*
X026418Y019496D01*
X026437Y019533D01*
X026459Y019569D01*
X026484Y019602D01*
X026512Y019633D01*
X026543Y019662D01*
X026576Y019687D01*
X026611Y019709D01*
X026649Y019728D01*
X026688Y019743D01*
X026728Y019755D01*
X026769Y019762D01*
X026811Y019766D01*
X026853Y019767D01*
X026853Y019766D02*
X027916Y019766D01*
X027958Y019767D01*
X028000Y019771D01*
X028041Y019778D01*
X028081Y019790D01*
X028120Y019805D01*
X028158Y019824D01*
X028193Y019846D01*
X028226Y019871D01*
X028257Y019900D01*
X028285Y019931D01*
X028310Y019964D01*
X028332Y020000D01*
X028351Y020037D01*
X028366Y020076D01*
X028377Y020116D01*
X028385Y020158D01*
X028389Y020199D01*
X028388Y020199D02*
X028388Y021499D01*
X028389Y021498D02*
X028388Y021540D01*
X028384Y021582D01*
X028377Y021623D01*
X028365Y021663D01*
X028350Y021702D01*
X028331Y021740D01*
X028309Y021775D01*
X028284Y021808D01*
X028255Y021839D01*
X028224Y021867D01*
X028191Y021892D01*
X028155Y021914D01*
X028118Y021933D01*
X028079Y021948D01*
X028039Y021959D01*
X027997Y021967D01*
X027956Y021971D01*
X027955Y021971D02*
X027089Y021971D01*
X027092Y021978D02*
X026233Y022060D01*
X012053Y022060D01*
X011342Y021978D01*
X011341Y021971D02*
X009373Y021971D01*
X009331Y021970D01*
X009289Y021966D01*
X009248Y021959D01*
X009208Y021947D01*
X009169Y021932D01*
X009131Y021913D01*
X009096Y021891D01*
X009063Y021866D01*
X009032Y021837D01*
X009004Y021806D01*
X008979Y021773D01*
X008957Y021737D01*
X008938Y021700D01*
X008923Y021661D01*
X008912Y021621D01*
X008904Y021579D01*
X008900Y021538D01*
X008900Y020239D01*
X008901Y020197D01*
X008905Y020155D01*
X008912Y020114D01*
X008924Y020074D01*
X008939Y020035D01*
X008958Y019997D01*
X008980Y019962D01*
X009005Y019929D01*
X009034Y019898D01*
X009065Y019870D01*
X009098Y019845D01*
X009134Y019823D01*
X009171Y019804D01*
X009210Y019789D01*
X009250Y019778D01*
X009292Y019770D01*
X009333Y019766D01*
X019648Y019766D01*
X019648Y019767D02*
X019702Y019766D01*
X019756Y019762D01*
X019810Y019754D01*
X019863Y019742D01*
X019915Y019726D01*
X019965Y019707D01*
X020014Y019684D01*
X020062Y019658D01*
X020107Y019629D01*
X020151Y019596D01*
X020192Y019561D01*
X020230Y019523D01*
X020265Y019482D01*
X020298Y019438D01*
X020327Y019393D01*
X020353Y019345D01*
X020376Y019296D01*
X020395Y019246D01*
X020411Y019194D01*
X020423Y019141D01*
X020431Y019087D01*
X020435Y019033D01*
X020436Y018979D01*
X020436Y014412D01*
X020435Y014412D02*
X020436Y014358D01*
X020440Y014304D01*
X020448Y014250D01*
X020460Y014197D01*
X020476Y014145D01*
X020495Y014095D01*
X020518Y014046D01*
X020544Y013998D01*
X020573Y013953D01*
X020606Y013909D01*
X020641Y013868D01*
X020679Y013830D01*
X020720Y013795D01*
X020764Y013762D01*
X020809Y013733D01*
X020857Y013707D01*
X020906Y013684D01*
X020956Y013665D01*
X021008Y013649D01*
X021061Y013637D01*
X021115Y013629D01*
X021169Y013625D01*
X021223Y013624D01*
X021219Y013615D02*
X021698Y013615D01*
X021898Y013595D01*
X021998Y013555D01*
X022088Y013515D01*
X022178Y013455D01*
X022318Y013315D01*
X022378Y013225D01*
X022428Y013135D01*
X022458Y013035D01*
X022488Y012835D01*
X022488Y008505D01*
X022458Y008295D01*
X022428Y008195D01*
X022378Y008105D01*
X022318Y008025D01*
X022248Y007945D01*
X022178Y007875D01*
X022088Y007815D01*
X021998Y007775D01*
X021898Y007745D01*
X021698Y007715D01*
X021298Y007715D01*
X021263Y007719D02*
X021209Y007718D01*
X021155Y007714D01*
X021101Y007706D01*
X021048Y007694D01*
X020996Y007678D01*
X020946Y007659D01*
X020897Y007636D01*
X020849Y007610D01*
X020804Y007581D01*
X020760Y007548D01*
X020719Y007513D01*
X020681Y007475D01*
X020646Y007434D01*
X020613Y007390D01*
X020584Y007345D01*
X020558Y007297D01*
X020535Y007248D01*
X020516Y007198D01*
X020500Y007146D01*
X020488Y007093D01*
X020480Y007039D01*
X020476Y006985D01*
X020475Y006931D01*
X020475Y006932D02*
X020475Y001853D01*
X020474Y001799D01*
X020470Y001745D01*
X020462Y001691D01*
X020450Y001638D01*
X020434Y001586D01*
X020415Y001536D01*
X020392Y001487D01*
X020366Y001439D01*
X020337Y001394D01*
X020304Y001350D01*
X020269Y001309D01*
X020231Y001271D01*
X020190Y001236D01*
X020146Y001203D01*
X020101Y001174D01*
X020053Y001148D01*
X020004Y001125D01*
X019954Y001106D01*
X019902Y001090D01*
X019849Y001078D01*
X019795Y001070D01*
X019741Y001066D01*
X019687Y001065D01*
X019688Y001066D02*
X002680Y001066D01*
X002680Y001065D02*
X002626Y001066D01*
X002572Y001070D01*
X002518Y001078D01*
X002465Y001090D01*
X002413Y001106D01*
X002363Y001125D01*
X002314Y001148D01*
X002266Y001174D01*
X002221Y001203D01*
X002177Y001236D01*
X002136Y001271D01*
X002098Y001309D01*
X002063Y001350D01*
X002030Y001394D01*
X002001Y001439D01*
X001975Y001487D01*
X001952Y001536D01*
X001933Y001586D01*
X001917Y001638D01*
X001905Y001691D01*
X001897Y001745D01*
X001893Y001799D01*
X001892Y001853D01*
X006422Y023748D02*
X006422Y034857D01*
X010362Y034857D01*
X010362Y023748D01*
X006422Y023748D01*
X028082Y024102D02*
X032012Y024102D01*
X032012Y034543D01*
X028082Y034543D01*
X028082Y024102D01*
D11*
X024097Y029254D02*
X024099Y029304D01*
X024105Y029354D01*
X024115Y029403D01*
X024129Y029451D01*
X024146Y029498D01*
X024167Y029543D01*
X024192Y029587D01*
X024220Y029628D01*
X024252Y029667D01*
X024286Y029704D01*
X024323Y029738D01*
X024363Y029768D01*
X024405Y029795D01*
X024449Y029819D01*
X024495Y029840D01*
X024542Y029856D01*
X024590Y029869D01*
X024640Y029878D01*
X024689Y029883D01*
X024740Y029884D01*
X024790Y029881D01*
X024839Y029874D01*
X024888Y029863D01*
X024936Y029848D01*
X024982Y029830D01*
X025027Y029808D01*
X025070Y029782D01*
X025111Y029753D01*
X025150Y029721D01*
X025186Y029686D01*
X025218Y029648D01*
X025248Y029608D01*
X025275Y029565D01*
X025298Y029521D01*
X025317Y029475D01*
X025333Y029427D01*
X025345Y029378D01*
X025353Y029329D01*
X025357Y029279D01*
X025357Y029229D01*
X025353Y029179D01*
X025345Y029130D01*
X025333Y029081D01*
X025317Y029033D01*
X025298Y028987D01*
X025275Y028943D01*
X025248Y028900D01*
X025218Y028860D01*
X025186Y028822D01*
X025150Y028787D01*
X025111Y028755D01*
X025070Y028726D01*
X025027Y028700D01*
X024982Y028678D01*
X024936Y028660D01*
X024888Y028645D01*
X024839Y028634D01*
X024790Y028627D01*
X024740Y028624D01*
X024689Y028625D01*
X024640Y028630D01*
X024590Y028639D01*
X024542Y028652D01*
X024495Y028668D01*
X024449Y028689D01*
X024405Y028713D01*
X024363Y028740D01*
X024323Y028770D01*
X024286Y028804D01*
X024252Y028841D01*
X024220Y028880D01*
X024192Y028921D01*
X024167Y028965D01*
X024146Y029010D01*
X024129Y029057D01*
X024115Y029105D01*
X024105Y029154D01*
X024099Y029204D01*
X024097Y029254D01*
X033034Y029294D02*
X033036Y029344D01*
X033042Y029394D01*
X033052Y029443D01*
X033066Y029491D01*
X033083Y029538D01*
X033104Y029583D01*
X033129Y029627D01*
X033157Y029668D01*
X033189Y029707D01*
X033223Y029744D01*
X033260Y029778D01*
X033300Y029808D01*
X033342Y029835D01*
X033386Y029859D01*
X033432Y029880D01*
X033479Y029896D01*
X033527Y029909D01*
X033577Y029918D01*
X033626Y029923D01*
X033677Y029924D01*
X033727Y029921D01*
X033776Y029914D01*
X033825Y029903D01*
X033873Y029888D01*
X033919Y029870D01*
X033964Y029848D01*
X034007Y029822D01*
X034048Y029793D01*
X034087Y029761D01*
X034123Y029726D01*
X034155Y029688D01*
X034185Y029648D01*
X034212Y029605D01*
X034235Y029561D01*
X034254Y029515D01*
X034270Y029467D01*
X034282Y029418D01*
X034290Y029369D01*
X034294Y029319D01*
X034294Y029269D01*
X034290Y029219D01*
X034282Y029170D01*
X034270Y029121D01*
X034254Y029073D01*
X034235Y029027D01*
X034212Y028983D01*
X034185Y028940D01*
X034155Y028900D01*
X034123Y028862D01*
X034087Y028827D01*
X034048Y028795D01*
X034007Y028766D01*
X033964Y028740D01*
X033919Y028718D01*
X033873Y028700D01*
X033825Y028685D01*
X033776Y028674D01*
X033727Y028667D01*
X033677Y028664D01*
X033626Y028665D01*
X033577Y028670D01*
X033527Y028679D01*
X033479Y028692D01*
X033432Y028708D01*
X033386Y028729D01*
X033342Y028753D01*
X033300Y028780D01*
X033260Y028810D01*
X033223Y028844D01*
X033189Y028881D01*
X033157Y028920D01*
X033129Y028961D01*
X033104Y029005D01*
X033083Y029050D01*
X033066Y029097D01*
X033052Y029145D01*
X033042Y029194D01*
X033036Y029244D01*
X033034Y029294D01*
X019878Y012635D02*
X019880Y012685D01*
X019886Y012735D01*
X019896Y012784D01*
X019910Y012832D01*
X019927Y012879D01*
X019948Y012924D01*
X019973Y012968D01*
X020001Y013009D01*
X020033Y013048D01*
X020067Y013085D01*
X020104Y013119D01*
X020144Y013149D01*
X020186Y013176D01*
X020230Y013200D01*
X020276Y013221D01*
X020323Y013237D01*
X020371Y013250D01*
X020421Y013259D01*
X020470Y013264D01*
X020521Y013265D01*
X020571Y013262D01*
X020620Y013255D01*
X020669Y013244D01*
X020717Y013229D01*
X020763Y013211D01*
X020808Y013189D01*
X020851Y013163D01*
X020892Y013134D01*
X020931Y013102D01*
X020967Y013067D01*
X020999Y013029D01*
X021029Y012989D01*
X021056Y012946D01*
X021079Y012902D01*
X021098Y012856D01*
X021114Y012808D01*
X021126Y012759D01*
X021134Y012710D01*
X021138Y012660D01*
X021138Y012610D01*
X021134Y012560D01*
X021126Y012511D01*
X021114Y012462D01*
X021098Y012414D01*
X021079Y012368D01*
X021056Y012324D01*
X021029Y012281D01*
X020999Y012241D01*
X020967Y012203D01*
X020931Y012168D01*
X020892Y012136D01*
X020851Y012107D01*
X020808Y012081D01*
X020763Y012059D01*
X020717Y012041D01*
X020669Y012026D01*
X020620Y012015D01*
X020571Y012008D01*
X020521Y012005D01*
X020470Y012006D01*
X020421Y012011D01*
X020371Y012020D01*
X020323Y012033D01*
X020276Y012049D01*
X020230Y012070D01*
X020186Y012094D01*
X020144Y012121D01*
X020104Y012151D01*
X020067Y012185D01*
X020033Y012222D01*
X020001Y012261D01*
X019973Y012302D01*
X019948Y012346D01*
X019927Y012391D01*
X019910Y012438D01*
X019896Y012486D01*
X019886Y012535D01*
X019880Y012585D01*
X019878Y012635D01*
X019878Y008685D02*
X019880Y008735D01*
X019886Y008785D01*
X019896Y008834D01*
X019910Y008882D01*
X019927Y008929D01*
X019948Y008974D01*
X019973Y009018D01*
X020001Y009059D01*
X020033Y009098D01*
X020067Y009135D01*
X020104Y009169D01*
X020144Y009199D01*
X020186Y009226D01*
X020230Y009250D01*
X020276Y009271D01*
X020323Y009287D01*
X020371Y009300D01*
X020421Y009309D01*
X020470Y009314D01*
X020521Y009315D01*
X020571Y009312D01*
X020620Y009305D01*
X020669Y009294D01*
X020717Y009279D01*
X020763Y009261D01*
X020808Y009239D01*
X020851Y009213D01*
X020892Y009184D01*
X020931Y009152D01*
X020967Y009117D01*
X020999Y009079D01*
X021029Y009039D01*
X021056Y008996D01*
X021079Y008952D01*
X021098Y008906D01*
X021114Y008858D01*
X021126Y008809D01*
X021134Y008760D01*
X021138Y008710D01*
X021138Y008660D01*
X021134Y008610D01*
X021126Y008561D01*
X021114Y008512D01*
X021098Y008464D01*
X021079Y008418D01*
X021056Y008374D01*
X021029Y008331D01*
X020999Y008291D01*
X020967Y008253D01*
X020931Y008218D01*
X020892Y008186D01*
X020851Y008157D01*
X020808Y008131D01*
X020763Y008109D01*
X020717Y008091D01*
X020669Y008076D01*
X020620Y008065D01*
X020571Y008058D01*
X020521Y008055D01*
X020470Y008056D01*
X020421Y008061D01*
X020371Y008070D01*
X020323Y008083D01*
X020276Y008099D01*
X020230Y008120D01*
X020186Y008144D01*
X020144Y008171D01*
X020104Y008201D01*
X020067Y008235D01*
X020033Y008272D01*
X020001Y008311D01*
X019973Y008352D01*
X019948Y008396D01*
X019927Y008441D01*
X019910Y008488D01*
X019896Y008536D01*
X019886Y008585D01*
X019880Y008635D01*
X019878Y008685D01*
X011178Y005745D02*
X011180Y005795D01*
X011186Y005845D01*
X011196Y005894D01*
X011210Y005942D01*
X011227Y005989D01*
X011248Y006034D01*
X011273Y006078D01*
X011301Y006119D01*
X011333Y006158D01*
X011367Y006195D01*
X011404Y006229D01*
X011444Y006259D01*
X011486Y006286D01*
X011530Y006310D01*
X011576Y006331D01*
X011623Y006347D01*
X011671Y006360D01*
X011721Y006369D01*
X011770Y006374D01*
X011821Y006375D01*
X011871Y006372D01*
X011920Y006365D01*
X011969Y006354D01*
X012017Y006339D01*
X012063Y006321D01*
X012108Y006299D01*
X012151Y006273D01*
X012192Y006244D01*
X012231Y006212D01*
X012267Y006177D01*
X012299Y006139D01*
X012329Y006099D01*
X012356Y006056D01*
X012379Y006012D01*
X012398Y005966D01*
X012414Y005918D01*
X012426Y005869D01*
X012434Y005820D01*
X012438Y005770D01*
X012438Y005720D01*
X012434Y005670D01*
X012426Y005621D01*
X012414Y005572D01*
X012398Y005524D01*
X012379Y005478D01*
X012356Y005434D01*
X012329Y005391D01*
X012299Y005351D01*
X012267Y005313D01*
X012231Y005278D01*
X012192Y005246D01*
X012151Y005217D01*
X012108Y005191D01*
X012063Y005169D01*
X012017Y005151D01*
X011969Y005136D01*
X011920Y005125D01*
X011871Y005118D01*
X011821Y005115D01*
X011770Y005116D01*
X011721Y005121D01*
X011671Y005130D01*
X011623Y005143D01*
X011576Y005159D01*
X011530Y005180D01*
X011486Y005204D01*
X011444Y005231D01*
X011404Y005261D01*
X011367Y005295D01*
X011333Y005332D01*
X011301Y005371D01*
X011273Y005412D01*
X011248Y005456D01*
X011227Y005501D01*
X011210Y005548D01*
X011196Y005596D01*
X011186Y005645D01*
X011180Y005695D01*
X011178Y005745D01*
X003548Y005745D02*
X003550Y005795D01*
X003556Y005845D01*
X003566Y005894D01*
X003580Y005942D01*
X003597Y005989D01*
X003618Y006034D01*
X003643Y006078D01*
X003671Y006119D01*
X003703Y006158D01*
X003737Y006195D01*
X003774Y006229D01*
X003814Y006259D01*
X003856Y006286D01*
X003900Y006310D01*
X003946Y006331D01*
X003993Y006347D01*
X004041Y006360D01*
X004091Y006369D01*
X004140Y006374D01*
X004191Y006375D01*
X004241Y006372D01*
X004290Y006365D01*
X004339Y006354D01*
X004387Y006339D01*
X004433Y006321D01*
X004478Y006299D01*
X004521Y006273D01*
X004562Y006244D01*
X004601Y006212D01*
X004637Y006177D01*
X004669Y006139D01*
X004699Y006099D01*
X004726Y006056D01*
X004749Y006012D01*
X004768Y005966D01*
X004784Y005918D01*
X004796Y005869D01*
X004804Y005820D01*
X004808Y005770D01*
X004808Y005720D01*
X004804Y005670D01*
X004796Y005621D01*
X004784Y005572D01*
X004768Y005524D01*
X004749Y005478D01*
X004726Y005434D01*
X004699Y005391D01*
X004669Y005351D01*
X004637Y005313D01*
X004601Y005278D01*
X004562Y005246D01*
X004521Y005217D01*
X004478Y005191D01*
X004433Y005169D01*
X004387Y005151D01*
X004339Y005136D01*
X004290Y005125D01*
X004241Y005118D01*
X004191Y005115D01*
X004140Y005116D01*
X004091Y005121D01*
X004041Y005130D01*
X003993Y005143D01*
X003946Y005159D01*
X003900Y005180D01*
X003856Y005204D01*
X003814Y005231D01*
X003774Y005261D01*
X003737Y005295D01*
X003703Y005332D01*
X003671Y005371D01*
X003643Y005412D01*
X003618Y005456D01*
X003597Y005501D01*
X003580Y005548D01*
X003566Y005596D01*
X003556Y005645D01*
X003550Y005695D01*
X003548Y005745D01*
X003558Y015595D02*
X003560Y015645D01*
X003566Y015695D01*
X003576Y015744D01*
X003590Y015792D01*
X003607Y015839D01*
X003628Y015884D01*
X003653Y015928D01*
X003681Y015969D01*
X003713Y016008D01*
X003747Y016045D01*
X003784Y016079D01*
X003824Y016109D01*
X003866Y016136D01*
X003910Y016160D01*
X003956Y016181D01*
X004003Y016197D01*
X004051Y016210D01*
X004101Y016219D01*
X004150Y016224D01*
X004201Y016225D01*
X004251Y016222D01*
X004300Y016215D01*
X004349Y016204D01*
X004397Y016189D01*
X004443Y016171D01*
X004488Y016149D01*
X004531Y016123D01*
X004572Y016094D01*
X004611Y016062D01*
X004647Y016027D01*
X004679Y015989D01*
X004709Y015949D01*
X004736Y015906D01*
X004759Y015862D01*
X004778Y015816D01*
X004794Y015768D01*
X004806Y015719D01*
X004814Y015670D01*
X004818Y015620D01*
X004818Y015570D01*
X004814Y015520D01*
X004806Y015471D01*
X004794Y015422D01*
X004778Y015374D01*
X004759Y015328D01*
X004736Y015284D01*
X004709Y015241D01*
X004679Y015201D01*
X004647Y015163D01*
X004611Y015128D01*
X004572Y015096D01*
X004531Y015067D01*
X004488Y015041D01*
X004443Y015019D01*
X004397Y015001D01*
X004349Y014986D01*
X004300Y014975D01*
X004251Y014968D01*
X004201Y014965D01*
X004150Y014966D01*
X004101Y014971D01*
X004051Y014980D01*
X004003Y014993D01*
X003956Y015009D01*
X003910Y015030D01*
X003866Y015054D01*
X003824Y015081D01*
X003784Y015111D01*
X003747Y015145D01*
X003713Y015182D01*
X003681Y015221D01*
X003653Y015262D01*
X003628Y015306D01*
X003607Y015351D01*
X003590Y015398D01*
X003576Y015446D01*
X003566Y015495D01*
X003560Y015545D01*
X003558Y015595D01*
X011198Y015585D02*
X011200Y015635D01*
X011206Y015685D01*
X011216Y015734D01*
X011230Y015782D01*
X011247Y015829D01*
X011268Y015874D01*
X011293Y015918D01*
X011321Y015959D01*
X011353Y015998D01*
X011387Y016035D01*
X011424Y016069D01*
X011464Y016099D01*
X011506Y016126D01*
X011550Y016150D01*
X011596Y016171D01*
X011643Y016187D01*
X011691Y016200D01*
X011741Y016209D01*
X011790Y016214D01*
X011841Y016215D01*
X011891Y016212D01*
X011940Y016205D01*
X011989Y016194D01*
X012037Y016179D01*
X012083Y016161D01*
X012128Y016139D01*
X012171Y016113D01*
X012212Y016084D01*
X012251Y016052D01*
X012287Y016017D01*
X012319Y015979D01*
X012349Y015939D01*
X012376Y015896D01*
X012399Y015852D01*
X012418Y015806D01*
X012434Y015758D01*
X012446Y015709D01*
X012454Y015660D01*
X012458Y015610D01*
X012458Y015560D01*
X012454Y015510D01*
X012446Y015461D01*
X012434Y015412D01*
X012418Y015364D01*
X012399Y015318D01*
X012376Y015274D01*
X012349Y015231D01*
X012319Y015191D01*
X012287Y015153D01*
X012251Y015118D01*
X012212Y015086D01*
X012171Y015057D01*
X012128Y015031D01*
X012083Y015009D01*
X012037Y014991D01*
X011989Y014976D01*
X011940Y014965D01*
X011891Y014958D01*
X011841Y014955D01*
X011790Y014956D01*
X011741Y014961D01*
X011691Y014970D01*
X011643Y014983D01*
X011596Y014999D01*
X011550Y015020D01*
X011506Y015044D01*
X011464Y015071D01*
X011424Y015101D01*
X011387Y015135D01*
X011353Y015172D01*
X011321Y015211D01*
X011293Y015252D01*
X011268Y015296D01*
X011247Y015341D01*
X011230Y015388D01*
X011216Y015436D01*
X011206Y015485D01*
X011200Y015535D01*
X011198Y015585D01*
X011971Y027286D02*
X011973Y027336D01*
X011979Y027386D01*
X011989Y027435D01*
X012003Y027483D01*
X012020Y027530D01*
X012041Y027575D01*
X012066Y027619D01*
X012094Y027660D01*
X012126Y027699D01*
X012160Y027736D01*
X012197Y027770D01*
X012237Y027800D01*
X012279Y027827D01*
X012323Y027851D01*
X012369Y027872D01*
X012416Y027888D01*
X012464Y027901D01*
X012514Y027910D01*
X012563Y027915D01*
X012614Y027916D01*
X012664Y027913D01*
X012713Y027906D01*
X012762Y027895D01*
X012810Y027880D01*
X012856Y027862D01*
X012901Y027840D01*
X012944Y027814D01*
X012985Y027785D01*
X013024Y027753D01*
X013060Y027718D01*
X013092Y027680D01*
X013122Y027640D01*
X013149Y027597D01*
X013172Y027553D01*
X013191Y027507D01*
X013207Y027459D01*
X013219Y027410D01*
X013227Y027361D01*
X013231Y027311D01*
X013231Y027261D01*
X013227Y027211D01*
X013219Y027162D01*
X013207Y027113D01*
X013191Y027065D01*
X013172Y027019D01*
X013149Y026975D01*
X013122Y026932D01*
X013092Y026892D01*
X013060Y026854D01*
X013024Y026819D01*
X012985Y026787D01*
X012944Y026758D01*
X012901Y026732D01*
X012856Y026710D01*
X012810Y026692D01*
X012762Y026677D01*
X012713Y026666D01*
X012664Y026659D01*
X012614Y026656D01*
X012563Y026657D01*
X012514Y026662D01*
X012464Y026671D01*
X012416Y026684D01*
X012369Y026700D01*
X012323Y026721D01*
X012279Y026745D01*
X012237Y026772D01*
X012197Y026802D01*
X012160Y026836D01*
X012126Y026873D01*
X012094Y026912D01*
X012066Y026953D01*
X012041Y026997D01*
X012020Y027042D01*
X012003Y027089D01*
X011989Y027137D01*
X011979Y027186D01*
X011973Y027236D01*
X011971Y027286D01*
X011971Y031223D02*
X011973Y031273D01*
X011979Y031323D01*
X011989Y031372D01*
X012003Y031420D01*
X012020Y031467D01*
X012041Y031512D01*
X012066Y031556D01*
X012094Y031597D01*
X012126Y031636D01*
X012160Y031673D01*
X012197Y031707D01*
X012237Y031737D01*
X012279Y031764D01*
X012323Y031788D01*
X012369Y031809D01*
X012416Y031825D01*
X012464Y031838D01*
X012514Y031847D01*
X012563Y031852D01*
X012614Y031853D01*
X012664Y031850D01*
X012713Y031843D01*
X012762Y031832D01*
X012810Y031817D01*
X012856Y031799D01*
X012901Y031777D01*
X012944Y031751D01*
X012985Y031722D01*
X013024Y031690D01*
X013060Y031655D01*
X013092Y031617D01*
X013122Y031577D01*
X013149Y031534D01*
X013172Y031490D01*
X013191Y031444D01*
X013207Y031396D01*
X013219Y031347D01*
X013227Y031298D01*
X013231Y031248D01*
X013231Y031198D01*
X013227Y031148D01*
X013219Y031099D01*
X013207Y031050D01*
X013191Y031002D01*
X013172Y030956D01*
X013149Y030912D01*
X013122Y030869D01*
X013092Y030829D01*
X013060Y030791D01*
X013024Y030756D01*
X012985Y030724D01*
X012944Y030695D01*
X012901Y030669D01*
X012856Y030647D01*
X012810Y030629D01*
X012762Y030614D01*
X012713Y030603D01*
X012664Y030596D01*
X012614Y030593D01*
X012563Y030594D01*
X012514Y030599D01*
X012464Y030608D01*
X012416Y030621D01*
X012369Y030637D01*
X012323Y030658D01*
X012279Y030682D01*
X012237Y030709D01*
X012197Y030739D01*
X012160Y030773D01*
X012126Y030810D01*
X012094Y030849D01*
X012066Y030890D01*
X012041Y030934D01*
X012020Y030979D01*
X012003Y031026D01*
X011989Y031074D01*
X011979Y031123D01*
X011973Y031173D01*
X011971Y031223D01*
X004136Y029254D02*
X004138Y029304D01*
X004144Y029354D01*
X004154Y029403D01*
X004168Y029451D01*
X004185Y029498D01*
X004206Y029543D01*
X004231Y029587D01*
X004259Y029628D01*
X004291Y029667D01*
X004325Y029704D01*
X004362Y029738D01*
X004402Y029768D01*
X004444Y029795D01*
X004488Y029819D01*
X004534Y029840D01*
X004581Y029856D01*
X004629Y029869D01*
X004679Y029878D01*
X004728Y029883D01*
X004779Y029884D01*
X004829Y029881D01*
X004878Y029874D01*
X004927Y029863D01*
X004975Y029848D01*
X005021Y029830D01*
X005066Y029808D01*
X005109Y029782D01*
X005150Y029753D01*
X005189Y029721D01*
X005225Y029686D01*
X005257Y029648D01*
X005287Y029608D01*
X005314Y029565D01*
X005337Y029521D01*
X005356Y029475D01*
X005372Y029427D01*
X005384Y029378D01*
X005392Y029329D01*
X005396Y029279D01*
X005396Y029229D01*
X005392Y029179D01*
X005384Y029130D01*
X005372Y029081D01*
X005356Y029033D01*
X005337Y028987D01*
X005314Y028943D01*
X005287Y028900D01*
X005257Y028860D01*
X005225Y028822D01*
X005189Y028787D01*
X005150Y028755D01*
X005109Y028726D01*
X005066Y028700D01*
X005021Y028678D01*
X004975Y028660D01*
X004927Y028645D01*
X004878Y028634D01*
X004829Y028627D01*
X004779Y028624D01*
X004728Y028625D01*
X004679Y028630D01*
X004629Y028639D01*
X004581Y028652D01*
X004534Y028668D01*
X004488Y028689D01*
X004444Y028713D01*
X004402Y028740D01*
X004362Y028770D01*
X004325Y028804D01*
X004291Y028841D01*
X004259Y028880D01*
X004231Y028921D01*
X004206Y028965D01*
X004185Y029010D01*
X004168Y029057D01*
X004154Y029105D01*
X004144Y029154D01*
X004138Y029204D01*
X004136Y029254D01*
D12*
X002063Y001751D02*
X002120Y001565D01*
X002234Y001407D01*
X002392Y001293D01*
X002578Y001236D01*
X002674Y001231D01*
X002678Y001231D01*
X002744Y001232D01*
X002746Y001231D01*
X019622Y001231D01*
X019623Y001232D01*
X019690Y001231D01*
X019693Y001231D01*
X019789Y001236D01*
X019975Y001293D01*
X020134Y001407D01*
X020247Y001565D01*
X020305Y001751D01*
X020310Y001848D01*
X020310Y001851D01*
X020308Y001917D01*
X020310Y001919D01*
X020310Y006930D01*
X020306Y007080D01*
X020306Y007080D01*
X020396Y007372D01*
X020396Y007372D01*
X020574Y007620D01*
X020574Y007620D01*
X020574Y007620D01*
X020822Y007798D01*
X020822Y007798D01*
X021114Y007888D01*
X021114Y007888D01*
X021267Y007884D01*
X021335Y007882D01*
X021337Y007880D01*
X021686Y007880D01*
X021862Y007906D01*
X021941Y007930D01*
X022008Y007960D01*
X022073Y008003D01*
X022128Y008058D01*
X022190Y008129D01*
X022239Y008195D01*
X022275Y008259D01*
X022297Y008330D01*
X022323Y008517D01*
X022323Y012823D01*
X022297Y012999D01*
X022275Y013070D01*
X022237Y013139D01*
X022190Y013210D01*
X022073Y013327D01*
X022008Y013370D01*
X021934Y013403D01*
X021859Y013433D01*
X021690Y013450D01*
X021151Y013450D01*
X021144Y013457D01*
X021075Y013456D01*
X021075Y013456D01*
X020783Y013546D01*
X020783Y013546D01*
X020535Y013724D01*
X020535Y013724D01*
X020535Y013724D01*
X020357Y013972D01*
X020357Y013972D01*
X020267Y014264D01*
X020267Y014264D01*
X020271Y014414D01*
X020271Y018913D01*
X020269Y018915D01*
X020271Y018981D01*
X020271Y018984D01*
X020265Y019081D01*
X020208Y019267D01*
X020094Y019425D01*
X019936Y019539D01*
X019750Y019596D01*
X019653Y019601D01*
X019650Y019601D01*
X019584Y019600D01*
X019582Y019601D01*
X009397Y019601D01*
X009394Y019598D01*
X009330Y019601D01*
X009265Y019601D01*
X009262Y019604D01*
X009203Y019607D01*
X009203Y019607D01*
X008980Y019711D01*
X008952Y019742D01*
X008952Y019739D01*
X008888Y019675D01*
X005842Y019675D01*
X005792Y019725D01*
X005743Y019680D01*
X005743Y019680D01*
X005512Y019596D01*
X005512Y019596D01*
X005393Y019601D01*
X002746Y019601D01*
X002744Y019600D01*
X002678Y019601D01*
X002674Y019601D01*
X002578Y019596D01*
X002392Y019539D01*
X002234Y019425D01*
X002120Y019267D01*
X002063Y019081D01*
X002057Y018984D01*
X002057Y018981D01*
X002059Y018915D01*
X002057Y018913D01*
X002057Y001919D01*
X002059Y001917D01*
X002057Y001851D01*
X002057Y001848D01*
X002063Y001751D01*
X002079Y001698D02*
X020288Y001698D01*
X020308Y001816D02*
X002059Y001816D01*
X002057Y001935D02*
X020310Y001935D01*
X020310Y002053D02*
X002057Y002053D01*
X002057Y002172D02*
X020310Y002172D01*
X020310Y002290D02*
X002057Y002290D01*
X002057Y002409D02*
X020310Y002409D01*
X020310Y002527D02*
X002057Y002527D01*
X002057Y002646D02*
X020310Y002646D01*
X020310Y002764D02*
X002057Y002764D01*
X002057Y002883D02*
X020310Y002883D01*
X020310Y003001D02*
X002057Y003001D01*
X002057Y003120D02*
X020310Y003120D01*
X020310Y003238D02*
X002057Y003238D01*
X002057Y003357D02*
X020310Y003357D01*
X020310Y003475D02*
X002057Y003475D01*
X002057Y003594D02*
X020310Y003594D01*
X020310Y003712D02*
X002057Y003712D01*
X002057Y003831D02*
X020310Y003831D01*
X020310Y003949D02*
X002057Y003949D01*
X002057Y004068D02*
X020310Y004068D01*
X020310Y004186D02*
X002057Y004186D01*
X002057Y004305D02*
X020310Y004305D01*
X020310Y004423D02*
X002057Y004423D01*
X002057Y004542D02*
X020310Y004542D01*
X020310Y004660D02*
X002057Y004660D01*
X002057Y004779D02*
X020310Y004779D01*
X020310Y004897D02*
X002057Y004897D01*
X002057Y005016D02*
X003874Y005016D01*
X003731Y005075D02*
X004021Y004955D01*
X004335Y004955D01*
X004626Y005075D01*
X004848Y005297D01*
X004968Y005588D01*
X004968Y005902D01*
X004848Y006192D01*
X004626Y006415D01*
X004588Y006430D01*
X011353Y006407D01*
X011139Y006192D01*
X011018Y005902D01*
X011018Y005588D01*
X011139Y005297D01*
X011361Y005075D01*
X011651Y004955D01*
X011965Y004955D01*
X012256Y005075D01*
X012478Y005297D01*
X012598Y005588D01*
X012598Y005902D01*
X012478Y006192D01*
X012267Y006403D01*
X015186Y006393D01*
X015187Y006393D01*
X015277Y006393D01*
X015368Y006393D01*
X015369Y006393D01*
X015370Y006393D01*
X015453Y006428D01*
X015537Y006462D01*
X015538Y006463D01*
X015539Y006463D01*
X015603Y006527D01*
X015667Y006591D01*
X015667Y006592D01*
X015798Y006722D01*
X015932Y006778D01*
X016062Y006907D01*
X016141Y006986D01*
X016176Y007072D01*
X016231Y007127D01*
X016231Y007463D01*
X016250Y007509D01*
X016250Y008401D01*
X016231Y008448D01*
X016231Y008524D01*
X015949Y008805D01*
X015851Y008805D01*
X015842Y008809D01*
X015187Y008809D01*
X015130Y008785D01*
X014969Y008785D01*
X014949Y008805D01*
X014552Y008805D01*
X014271Y008524D01*
X014271Y008127D01*
X014291Y008107D01*
X014291Y007544D01*
X014271Y007524D01*
X014271Y007316D01*
X004131Y007352D01*
X004010Y007473D01*
X004010Y010150D01*
X004030Y010170D01*
X004030Y010567D01*
X003749Y010849D01*
X003514Y010849D01*
X003494Y010853D01*
X003494Y010889D01*
X003749Y010889D01*
X004030Y011170D01*
X004030Y011567D01*
X003749Y011849D01*
X003351Y011849D01*
X003331Y011829D01*
X002769Y011829D01*
X002749Y011849D01*
X002351Y011849D01*
X002070Y011567D01*
X002070Y011170D01*
X002351Y010889D01*
X002574Y010889D01*
X002574Y010849D01*
X002351Y010849D01*
X002070Y010567D01*
X002070Y010170D01*
X002351Y009889D01*
X002749Y009889D01*
X002769Y009909D01*
X003090Y009909D01*
X003090Y007191D01*
X003160Y007021D01*
X003614Y006568D01*
X003678Y006503D01*
X003679Y006502D01*
X003763Y006468D01*
X003811Y006448D01*
X003731Y006415D01*
X003509Y006192D01*
X003388Y005902D01*
X003388Y005588D01*
X003509Y005297D01*
X003731Y005075D01*
X003672Y005134D02*
X002057Y005134D01*
X002057Y005253D02*
X003553Y005253D01*
X003478Y005371D02*
X002057Y005371D01*
X002057Y005490D02*
X003429Y005490D01*
X003388Y005608D02*
X002057Y005608D01*
X002057Y005727D02*
X003388Y005727D01*
X003388Y005845D02*
X002057Y005845D01*
X002057Y005964D02*
X003414Y005964D01*
X003463Y006082D02*
X002057Y006082D01*
X002057Y006201D02*
X003517Y006201D01*
X003635Y006319D02*
X002057Y006319D01*
X002057Y006438D02*
X003787Y006438D01*
X003678Y006503D02*
X003678Y006503D01*
X003625Y006556D02*
X002057Y006556D01*
X002057Y006675D02*
X003506Y006675D01*
X003388Y006793D02*
X002057Y006793D01*
X002057Y006912D02*
X003269Y006912D01*
X003156Y007030D02*
X002057Y007030D01*
X002057Y007149D02*
X003107Y007149D01*
X003090Y007267D02*
X002057Y007267D01*
X002057Y007386D02*
X003090Y007386D01*
X003090Y007504D02*
X002057Y007504D01*
X002057Y007623D02*
X003090Y007623D01*
X003090Y007741D02*
X002057Y007741D01*
X002057Y007860D02*
X003090Y007860D01*
X003090Y007978D02*
X002057Y007978D01*
X002057Y008097D02*
X003090Y008097D01*
X003090Y008215D02*
X002057Y008215D01*
X002057Y008334D02*
X003090Y008334D01*
X003090Y008452D02*
X002057Y008452D01*
X002057Y008571D02*
X003090Y008571D01*
X003090Y008689D02*
X002057Y008689D01*
X002057Y008808D02*
X003090Y008808D01*
X003090Y008926D02*
X002057Y008926D01*
X002057Y009045D02*
X003090Y009045D01*
X003090Y009163D02*
X002057Y009163D01*
X002057Y009282D02*
X003090Y009282D01*
X003090Y009400D02*
X002057Y009400D01*
X002057Y009519D02*
X003090Y009519D01*
X003090Y009637D02*
X002057Y009637D01*
X002057Y009756D02*
X003090Y009756D01*
X003090Y009874D02*
X002057Y009874D01*
X002057Y009993D02*
X002247Y009993D01*
X002128Y010111D02*
X002057Y010111D01*
X002057Y010230D02*
X002070Y010230D01*
X002057Y010348D02*
X002070Y010348D01*
X002057Y010467D02*
X002070Y010467D01*
X002057Y010585D02*
X002088Y010585D01*
X002057Y010704D02*
X002206Y010704D01*
X002325Y010822D02*
X002057Y010822D01*
X002057Y010941D02*
X002299Y010941D01*
X002180Y011059D02*
X002057Y011059D01*
X002057Y011178D02*
X002070Y011178D01*
X002057Y011296D02*
X002070Y011296D01*
X002057Y011415D02*
X002070Y011415D01*
X002057Y011533D02*
X002070Y011533D01*
X002057Y011652D02*
X002154Y011652D01*
X002057Y011770D02*
X002273Y011770D01*
X002057Y011889D02*
X006320Y011889D01*
X006330Y011899D02*
X006020Y011588D01*
X006020Y011577D01*
X005749Y011849D01*
X005414Y011849D01*
X005323Y011860D01*
X005274Y011875D01*
X005233Y011871D01*
X005192Y011876D01*
X005143Y011862D01*
X005092Y011857D01*
X005055Y011838D01*
X005023Y011829D01*
X004769Y011829D01*
X004749Y011849D01*
X004351Y011849D01*
X004070Y011567D01*
X004070Y011170D01*
X004351Y010889D01*
X004582Y010889D01*
X004582Y010849D01*
X004351Y010849D01*
X004070Y010567D01*
X004070Y010170D01*
X004351Y009889D01*
X004543Y009889D01*
X004543Y008381D01*
X004537Y008363D01*
X004543Y008290D01*
X004543Y008218D01*
X004550Y008200D01*
X004552Y008180D01*
X004585Y008116D01*
X004613Y008049D01*
X004627Y008035D01*
X004636Y008018D01*
X004691Y007971D01*
X004742Y007920D01*
X004760Y007912D01*
X005202Y007538D01*
X005252Y007488D01*
X005271Y007480D01*
X005287Y007466D01*
X005355Y007445D01*
X005421Y007417D01*
X005441Y007417D01*
X005461Y007411D01*
X005532Y007416D01*
X013493Y007378D01*
X013494Y007377D01*
X013584Y007377D01*
X013674Y007377D01*
X013676Y007377D01*
X013677Y007377D01*
X013760Y007412D01*
X013844Y007446D01*
X013845Y007447D01*
X013846Y007447D01*
X013910Y007511D01*
X013974Y007575D01*
X013974Y007576D01*
X014003Y007605D01*
X014003Y007605D01*
X014133Y007734D01*
X014203Y007903D01*
X014203Y008710D01*
X014327Y008834D01*
X014811Y008834D01*
X014838Y008845D01*
X014949Y008845D01*
X014969Y008865D01*
X015532Y008865D01*
X015552Y008845D01*
X015949Y008845D01*
X016231Y009127D01*
X016231Y009524D01*
X016211Y009544D01*
X016211Y010107D01*
X016231Y010127D01*
X016231Y010524D01*
X016143Y010612D01*
X016141Y010617D01*
X016011Y010747D01*
X016006Y010749D01*
X015959Y010795D01*
X015970Y010795D01*
X016281Y011106D01*
X016281Y011285D01*
X015791Y011285D01*
X015791Y011365D01*
X016281Y011365D01*
X016281Y011545D01*
X015970Y011855D01*
X015959Y011855D01*
X016231Y012127D01*
X016231Y012524D01*
X015949Y012805D01*
X015552Y012805D01*
X015532Y012785D01*
X014969Y012785D01*
X014949Y012805D01*
X014552Y012805D01*
X014533Y012787D01*
X007733Y012824D01*
X007732Y012825D01*
X007642Y012825D01*
X007551Y012825D01*
X007550Y012825D01*
X007549Y012825D01*
X007465Y012790D01*
X007382Y012756D01*
X007381Y012755D01*
X007380Y012755D01*
X007340Y012715D01*
X007316Y012691D01*
X007252Y012627D01*
X007251Y012626D01*
X007211Y012586D01*
X007141Y012417D01*
X007141Y011639D01*
X007080Y011577D01*
X007080Y011588D01*
X006769Y011899D01*
X006590Y011899D01*
X006590Y011409D01*
X006510Y011409D01*
X006510Y011899D01*
X006330Y011899D01*
X006510Y011889D02*
X006590Y011889D01*
X006590Y011770D02*
X006510Y011770D01*
X006510Y011652D02*
X006590Y011652D01*
X006590Y011533D02*
X006510Y011533D01*
X006510Y011415D02*
X006590Y011415D01*
X006590Y011329D02*
X006590Y010839D01*
X006590Y010409D01*
X006510Y010409D01*
X006510Y011329D01*
X006590Y011329D01*
X006590Y011296D02*
X006510Y011296D01*
X006510Y011178D02*
X006590Y011178D01*
X006590Y011059D02*
X006510Y011059D01*
X006510Y010941D02*
X006590Y010941D01*
X006590Y010822D02*
X006510Y010822D01*
X006510Y010704D02*
X006590Y010704D01*
X006590Y010585D02*
X006510Y010585D01*
X006510Y010467D02*
X006590Y010467D01*
X006590Y010329D02*
X006590Y009839D01*
X006769Y009839D01*
X007080Y010149D01*
X007080Y010160D01*
X007351Y009889D01*
X007749Y009889D01*
X008030Y010170D01*
X008030Y010567D01*
X008010Y010587D01*
X008010Y011150D01*
X008030Y011170D01*
X008030Y011253D01*
X008061Y011328D01*
X008061Y011902D01*
X014531Y011867D01*
X014542Y011855D01*
X014531Y011855D01*
X014221Y011545D01*
X014221Y011365D01*
X014711Y011365D01*
X014711Y011285D01*
X014221Y011285D01*
X014221Y011106D01*
X014531Y010795D01*
X014542Y010795D01*
X014512Y010766D01*
X014466Y010747D01*
X014337Y010617D01*
X014318Y010572D01*
X014271Y010524D01*
X014271Y010457D01*
X014267Y010448D01*
X014267Y010403D01*
X014265Y010398D01*
X014267Y010312D01*
X014267Y010226D01*
X014269Y010221D01*
X014271Y010160D01*
X014271Y010127D01*
X014271Y010126D01*
X014276Y009920D01*
X014267Y009897D01*
X014267Y009754D01*
X014045Y009754D01*
X013876Y009684D01*
X013746Y009554D01*
X013353Y009161D01*
X013283Y008992D01*
X013283Y008299D01*
X005684Y008336D01*
X005463Y008523D01*
X005463Y009889D01*
X005749Y009889D01*
X005819Y009959D01*
X005825Y009961D01*
X005838Y009972D01*
X005854Y009979D01*
X005907Y010032D01*
X005963Y010081D01*
X005971Y010096D01*
X005983Y010108D01*
X005994Y010134D01*
X006020Y010160D01*
X006020Y010149D01*
X006330Y009839D01*
X006510Y009839D01*
X006510Y010329D01*
X006590Y010329D01*
X006590Y010230D02*
X006510Y010230D01*
X006510Y010111D02*
X006590Y010111D01*
X006590Y009993D02*
X006510Y009993D01*
X006510Y009874D02*
X006590Y009874D01*
X006805Y009874D02*
X014267Y009874D01*
X014267Y009756D02*
X005463Y009756D01*
X005463Y009874D02*
X006295Y009874D01*
X006176Y009993D02*
X005868Y009993D01*
X005984Y010111D02*
X006058Y010111D01*
X005463Y009637D02*
X013829Y009637D01*
X013711Y009519D02*
X005463Y009519D01*
X005463Y009400D02*
X013592Y009400D01*
X013474Y009282D02*
X005463Y009282D01*
X005463Y009163D02*
X013355Y009163D01*
X013305Y009045D02*
X005463Y009045D01*
X005463Y008926D02*
X013283Y008926D01*
X013283Y008808D02*
X005463Y008808D01*
X005463Y008689D02*
X013283Y008689D01*
X013283Y008571D02*
X005463Y008571D01*
X005546Y008452D02*
X013283Y008452D01*
X013283Y008334D02*
X006079Y008334D01*
X005236Y007504D02*
X004010Y007504D01*
X004010Y007623D02*
X005102Y007623D01*
X004962Y007741D02*
X004010Y007741D01*
X004010Y007860D02*
X004822Y007860D01*
X004682Y007978D02*
X004010Y007978D01*
X004010Y008097D02*
X004593Y008097D01*
X004544Y008215D02*
X004010Y008215D01*
X004010Y008334D02*
X004539Y008334D01*
X004543Y008452D02*
X004010Y008452D01*
X004010Y008571D02*
X004543Y008571D01*
X004543Y008689D02*
X004010Y008689D01*
X004010Y008808D02*
X004543Y008808D01*
X004543Y008926D02*
X004010Y008926D01*
X004010Y009045D02*
X004543Y009045D01*
X004543Y009163D02*
X004010Y009163D01*
X004010Y009282D02*
X004543Y009282D01*
X004543Y009400D02*
X004010Y009400D01*
X004010Y009519D02*
X004543Y009519D01*
X004543Y009637D02*
X004010Y009637D01*
X004010Y009756D02*
X004543Y009756D01*
X004543Y009874D02*
X004010Y009874D01*
X004010Y009993D02*
X004247Y009993D01*
X004128Y010111D02*
X004010Y010111D01*
X004030Y010230D02*
X004070Y010230D01*
X004070Y010348D02*
X004030Y010348D01*
X004030Y010467D02*
X004070Y010467D01*
X004088Y010585D02*
X004012Y010585D01*
X003893Y010704D02*
X004206Y010704D01*
X004325Y010822D02*
X003775Y010822D01*
X003801Y010941D02*
X004299Y010941D01*
X004180Y011059D02*
X003919Y011059D01*
X004030Y011178D02*
X004070Y011178D01*
X004070Y011296D02*
X004030Y011296D01*
X004030Y011415D02*
X004070Y011415D01*
X004070Y011533D02*
X004030Y011533D01*
X003945Y011652D02*
X004154Y011652D01*
X004273Y011770D02*
X003827Y011770D01*
X002057Y012007D02*
X007141Y012007D01*
X007141Y011889D02*
X006779Y011889D01*
X006898Y011770D02*
X007141Y011770D01*
X007141Y011652D02*
X007016Y011652D01*
X007141Y012126D02*
X002057Y012126D01*
X002057Y012244D02*
X007141Y012244D01*
X007141Y012363D02*
X002057Y012363D01*
X002057Y012481D02*
X007168Y012481D01*
X007225Y012600D02*
X002057Y012600D01*
X002057Y012718D02*
X007343Y012718D01*
X008156Y013049D02*
X008285Y012920D01*
X008454Y012850D01*
X008637Y012850D01*
X008768Y012904D01*
X014530Y012867D01*
X014552Y012845D01*
X014949Y012845D01*
X015231Y013127D01*
X015231Y013524D01*
X014949Y013805D01*
X014552Y013805D01*
X014533Y013787D01*
X008694Y013824D01*
X008692Y013825D01*
X008602Y013825D01*
X008512Y013825D01*
X008511Y013825D01*
X008509Y013825D01*
X008426Y013790D01*
X008343Y013756D01*
X008342Y013755D01*
X008340Y013755D01*
X008277Y013691D01*
X008213Y013628D01*
X008212Y013626D01*
X008156Y013570D01*
X008086Y013401D01*
X008086Y013218D01*
X008156Y013049D01*
X008146Y013074D02*
X002057Y013074D01*
X002057Y013192D02*
X008097Y013192D01*
X008086Y013311D02*
X002057Y013311D01*
X002057Y013429D02*
X008098Y013429D01*
X008147Y013548D02*
X002057Y013548D01*
X002057Y013666D02*
X008252Y013666D01*
X008413Y013785D02*
X002057Y013785D01*
X002057Y013903D02*
X009484Y013903D01*
X009557Y013873D02*
X009740Y013873D01*
X009813Y013904D01*
X014530Y013867D01*
X014552Y013845D01*
X014949Y013845D01*
X015231Y014127D01*
X015231Y014524D01*
X014949Y014805D01*
X014552Y014805D01*
X014533Y014787D01*
X012013Y014807D01*
X012276Y014915D01*
X012498Y015137D01*
X012618Y015428D01*
X012618Y015742D01*
X012498Y016032D01*
X012276Y016255D01*
X012083Y016334D01*
X013637Y016317D01*
X013637Y015580D01*
X013707Y015411D01*
X013943Y015175D01*
X014073Y015046D01*
X014242Y014976D01*
X016308Y014976D01*
X016393Y014891D01*
X016393Y010344D01*
X016463Y010175D01*
X016778Y009860D01*
X016907Y009731D01*
X017076Y009661D01*
X018440Y009661D01*
X018582Y009719D01*
X018843Y009719D01*
X018908Y009784D01*
X018908Y010615D01*
X018843Y010679D01*
X018012Y010679D01*
X017948Y010615D01*
X017948Y010581D01*
X017358Y010581D01*
X017313Y010626D01*
X017313Y015173D01*
X017243Y015342D01*
X017113Y015471D01*
X016759Y015826D01*
X016590Y015896D01*
X014557Y015896D01*
X014557Y016669D01*
X014487Y016838D01*
X014358Y016967D01*
X014227Y017098D01*
X014165Y017161D01*
X014163Y017162D01*
X014161Y017164D01*
X014079Y017198D01*
X013997Y017233D01*
X013994Y017233D01*
X013992Y017234D01*
X013903Y017234D01*
X010549Y017271D01*
X010541Y017280D01*
X010541Y017913D01*
X010561Y017933D01*
X010561Y018765D01*
X010497Y018829D01*
X009666Y018829D01*
X009601Y018765D01*
X009601Y017933D01*
X009621Y017913D01*
X009621Y016998D01*
X009691Y016829D01*
X010030Y016490D01*
X010092Y016426D01*
X010094Y016425D01*
X010096Y016424D01*
X010178Y016390D01*
X010260Y016355D01*
X010263Y016355D01*
X010265Y016354D01*
X010354Y016354D01*
X011587Y016340D01*
X011381Y016255D01*
X011159Y016032D01*
X011038Y015742D01*
X011038Y015428D01*
X011159Y015137D01*
X011381Y014915D01*
X011636Y014810D01*
X009773Y014824D01*
X009771Y014825D01*
X009681Y014825D01*
X009592Y014825D01*
X009590Y014825D01*
X009588Y014825D01*
X009505Y014790D01*
X009422Y014757D01*
X009421Y014755D01*
X009419Y014755D01*
X009356Y014691D01*
X009292Y014628D01*
X009291Y014627D01*
X009258Y014594D01*
X009188Y014425D01*
X009188Y014242D01*
X009258Y014073D01*
X009388Y013943D01*
X009557Y013873D01*
X009812Y013903D02*
X009862Y013903D01*
X009309Y014022D02*
X002057Y014022D01*
X002057Y014140D02*
X009230Y014140D01*
X009188Y014259D02*
X002057Y014259D01*
X002057Y014377D02*
X009188Y014377D01*
X009218Y014496D02*
X002057Y014496D01*
X002057Y014614D02*
X009279Y014614D01*
X009397Y014733D02*
X002057Y014733D01*
X002057Y014851D02*
X003919Y014851D01*
X004031Y014805D02*
X004345Y014805D01*
X004636Y014925D01*
X004858Y015147D01*
X004978Y015438D01*
X004978Y015752D01*
X004858Y016042D01*
X004636Y016265D01*
X004345Y016385D01*
X004031Y016385D01*
X003741Y016265D01*
X003519Y016042D01*
X003398Y015752D01*
X003398Y015438D01*
X003519Y015147D01*
X003741Y014925D01*
X004031Y014805D01*
X003696Y014970D02*
X002057Y014970D01*
X002057Y015088D02*
X003578Y015088D01*
X003494Y015207D02*
X002057Y015207D01*
X002057Y015325D02*
X003445Y015325D01*
X003398Y015444D02*
X002057Y015444D01*
X002057Y015562D02*
X003398Y015562D01*
X003398Y015681D02*
X002057Y015681D01*
X002057Y015799D02*
X003418Y015799D01*
X003467Y015918D02*
X002057Y015918D01*
X002057Y016036D02*
X003516Y016036D01*
X003631Y016155D02*
X002057Y016155D01*
X002057Y016273D02*
X003762Y016273D01*
X004614Y016273D02*
X011426Y016273D01*
X011281Y016155D02*
X004745Y016155D01*
X004860Y016036D02*
X011162Y016036D01*
X011111Y015918D02*
X004909Y015918D01*
X004959Y015799D02*
X011062Y015799D01*
X011038Y015681D02*
X004978Y015681D01*
X004978Y015562D02*
X011038Y015562D01*
X011038Y015444D02*
X004978Y015444D01*
X004932Y015325D02*
X011081Y015325D01*
X011130Y015207D02*
X004882Y015207D01*
X004799Y015088D02*
X011208Y015088D01*
X011326Y014970D02*
X004680Y014970D01*
X004457Y014851D02*
X011535Y014851D01*
X012121Y014851D02*
X016393Y014851D01*
X016393Y014733D02*
X016022Y014733D01*
X015949Y014805D02*
X016231Y014524D01*
X016231Y014127D01*
X015949Y013845D01*
X015552Y013845D01*
X015271Y014127D01*
X015271Y014524D01*
X015552Y014805D01*
X015949Y014805D01*
X016140Y014614D02*
X016393Y014614D01*
X016393Y014496D02*
X016231Y014496D01*
X016231Y014377D02*
X016393Y014377D01*
X016393Y014259D02*
X016231Y014259D01*
X016231Y014140D02*
X016393Y014140D01*
X016393Y014022D02*
X016126Y014022D01*
X016007Y013903D02*
X016393Y013903D01*
X016393Y013785D02*
X015970Y013785D01*
X015949Y013805D02*
X015552Y013805D01*
X015271Y013524D01*
X015271Y013127D01*
X015552Y012845D01*
X015949Y012845D01*
X016231Y013127D01*
X016231Y013524D01*
X015949Y013805D01*
X016088Y013666D02*
X016393Y013666D01*
X016393Y013548D02*
X016207Y013548D01*
X016231Y013429D02*
X016393Y013429D01*
X016393Y013311D02*
X016231Y013311D01*
X016231Y013192D02*
X016393Y013192D01*
X016393Y013074D02*
X016178Y013074D01*
X016059Y012955D02*
X016393Y012955D01*
X016393Y012837D02*
X002057Y012837D01*
X002057Y012955D02*
X008250Y012955D01*
X008061Y011889D02*
X010516Y011889D01*
X010351Y011849D02*
X010070Y011567D01*
X010070Y011170D01*
X010351Y010889D01*
X010749Y010889D01*
X011030Y011170D01*
X011030Y011567D01*
X010749Y011849D01*
X010351Y011849D01*
X010273Y011770D02*
X009827Y011770D01*
X009749Y011849D02*
X009351Y011849D01*
X009070Y011567D01*
X009070Y011170D01*
X009090Y011150D01*
X009090Y010587D01*
X009070Y010567D01*
X009070Y010170D01*
X009351Y009889D01*
X009749Y009889D01*
X010030Y010170D01*
X010030Y010567D01*
X010010Y010587D01*
X010010Y011150D01*
X010030Y011170D01*
X010030Y011567D01*
X009749Y011849D01*
X009945Y011652D02*
X010154Y011652D01*
X010070Y011533D02*
X010030Y011533D01*
X010030Y011415D02*
X010070Y011415D01*
X010070Y011296D02*
X010030Y011296D01*
X010030Y011178D02*
X010070Y011178D01*
X010010Y011059D02*
X010180Y011059D01*
X010299Y010941D02*
X010010Y010941D01*
X010010Y010822D02*
X010325Y010822D01*
X010351Y010849D02*
X010070Y010567D01*
X010070Y010170D01*
X010351Y009889D01*
X010749Y009889D01*
X010769Y009909D01*
X011331Y009909D01*
X011351Y009889D01*
X011749Y009889D01*
X012030Y010170D01*
X012030Y010567D01*
X011749Y010849D01*
X011351Y010849D01*
X011331Y010829D01*
X010769Y010829D01*
X010749Y010849D01*
X010351Y010849D01*
X010206Y010704D02*
X010010Y010704D01*
X010012Y010585D02*
X010088Y010585D01*
X010070Y010467D02*
X010030Y010467D01*
X010030Y010348D02*
X010070Y010348D01*
X010070Y010230D02*
X010030Y010230D01*
X009971Y010111D02*
X010128Y010111D01*
X010247Y009993D02*
X009853Y009993D01*
X009247Y009993D02*
X008853Y009993D01*
X008749Y009889D02*
X009030Y010170D01*
X009030Y010567D01*
X009010Y010587D01*
X009010Y011150D01*
X009030Y011170D01*
X009030Y011567D01*
X008749Y011849D01*
X008351Y011849D01*
X008070Y011567D01*
X008070Y011170D01*
X008090Y011150D01*
X008090Y010587D01*
X008070Y010567D01*
X008070Y010170D01*
X008351Y009889D01*
X008749Y009889D01*
X008971Y010111D02*
X009128Y010111D01*
X009070Y010230D02*
X009030Y010230D01*
X009030Y010348D02*
X009070Y010348D01*
X009070Y010467D02*
X009030Y010467D01*
X009012Y010585D02*
X009088Y010585D01*
X009090Y010704D02*
X009010Y010704D01*
X009010Y010822D02*
X009090Y010822D01*
X009090Y010941D02*
X009010Y010941D01*
X009010Y011059D02*
X009090Y011059D01*
X009070Y011178D02*
X009030Y011178D01*
X009030Y011296D02*
X009070Y011296D01*
X009070Y011415D02*
X009030Y011415D01*
X009030Y011533D02*
X009070Y011533D01*
X009154Y011652D02*
X008945Y011652D01*
X008827Y011770D02*
X009273Y011770D01*
X008273Y011770D02*
X008061Y011770D01*
X008061Y011652D02*
X008154Y011652D01*
X008070Y011533D02*
X008061Y011533D01*
X008061Y011415D02*
X008070Y011415D01*
X008070Y011296D02*
X008048Y011296D01*
X008030Y011178D02*
X008070Y011178D01*
X008090Y011059D02*
X008010Y011059D01*
X008010Y010941D02*
X008090Y010941D01*
X008090Y010822D02*
X008010Y010822D01*
X008010Y010704D02*
X008090Y010704D01*
X008088Y010585D02*
X008012Y010585D01*
X008030Y010467D02*
X008070Y010467D01*
X008070Y010348D02*
X008030Y010348D01*
X008030Y010230D02*
X008070Y010230D01*
X008128Y010111D02*
X007971Y010111D01*
X007853Y009993D02*
X008247Y009993D01*
X007247Y009993D02*
X006923Y009993D01*
X007042Y010111D02*
X007128Y010111D01*
X006083Y011652D02*
X005945Y011652D01*
X005827Y011770D02*
X006202Y011770D01*
X004097Y007386D02*
X011817Y007386D01*
X012351Y006319D02*
X020310Y006319D01*
X020310Y006201D02*
X012469Y006201D01*
X012523Y006082D02*
X020310Y006082D01*
X020310Y005964D02*
X012573Y005964D01*
X012598Y005845D02*
X020310Y005845D01*
X020310Y005727D02*
X012598Y005727D01*
X012598Y005608D02*
X020310Y005608D01*
X020310Y005490D02*
X012558Y005490D01*
X012508Y005371D02*
X020310Y005371D01*
X020310Y005253D02*
X012433Y005253D01*
X012315Y005134D02*
X020310Y005134D01*
X020310Y005016D02*
X012112Y005016D01*
X011504Y005016D02*
X004482Y005016D01*
X004685Y005134D02*
X011302Y005134D01*
X011183Y005253D02*
X004803Y005253D01*
X004878Y005371D02*
X011108Y005371D01*
X011059Y005490D02*
X004928Y005490D01*
X004968Y005608D02*
X011018Y005608D01*
X011018Y005727D02*
X004968Y005727D01*
X004968Y005845D02*
X011018Y005845D01*
X011044Y005964D02*
X004943Y005964D01*
X004893Y006082D02*
X011093Y006082D01*
X011147Y006201D02*
X004839Y006201D01*
X004721Y006319D02*
X011265Y006319D01*
X013698Y007386D02*
X014271Y007386D01*
X014271Y007504D02*
X013903Y007504D01*
X014021Y007623D02*
X014291Y007623D01*
X014291Y007741D02*
X014136Y007741D01*
X014185Y007860D02*
X014291Y007860D01*
X014291Y007978D02*
X014203Y007978D01*
X014203Y008097D02*
X014291Y008097D01*
X014271Y008215D02*
X014203Y008215D01*
X014203Y008334D02*
X014271Y008334D01*
X014271Y008452D02*
X014203Y008452D01*
X014203Y008571D02*
X014317Y008571D01*
X014203Y008689D02*
X014436Y008689D01*
X014301Y008808D02*
X015184Y008808D01*
X015845Y008808D02*
X019718Y008808D01*
X019718Y008842D02*
X019718Y008528D01*
X019839Y008237D01*
X020061Y008015D01*
X020351Y007895D01*
X020665Y007895D01*
X020956Y008015D01*
X021178Y008237D01*
X021298Y008528D01*
X021298Y008842D01*
X021178Y009132D01*
X020956Y009355D01*
X020665Y009475D01*
X020351Y009475D01*
X020061Y009355D01*
X019839Y009132D01*
X019718Y008842D01*
X019753Y008926D02*
X016030Y008926D01*
X016149Y009045D02*
X019802Y009045D01*
X019869Y009163D02*
X016231Y009163D01*
X016231Y009282D02*
X019988Y009282D01*
X020171Y009400D02*
X016231Y009400D01*
X016231Y009519D02*
X022323Y009519D01*
X022323Y009637D02*
X016211Y009637D01*
X016211Y009756D02*
X016882Y009756D01*
X016764Y009874D02*
X016211Y009874D01*
X016211Y009993D02*
X016645Y009993D01*
X016527Y010111D02*
X016215Y010111D01*
X016231Y010230D02*
X016440Y010230D01*
X016393Y010348D02*
X016231Y010348D01*
X016231Y010467D02*
X016393Y010467D01*
X016393Y010585D02*
X016169Y010585D01*
X016054Y010704D02*
X016393Y010704D01*
X016393Y010822D02*
X015997Y010822D01*
X016116Y010941D02*
X016393Y010941D01*
X016393Y011059D02*
X016234Y011059D01*
X016281Y011178D02*
X016393Y011178D01*
X016393Y011296D02*
X015791Y011296D01*
X015711Y011296D02*
X014791Y011296D01*
X014791Y011285D02*
X014791Y011365D01*
X015281Y011365D01*
X015711Y011365D01*
X015711Y011285D01*
X014791Y011285D01*
X014711Y011296D02*
X012030Y011296D01*
X012030Y011178D02*
X014221Y011178D01*
X014267Y011059D02*
X011919Y011059D01*
X012030Y011170D02*
X011749Y010889D01*
X011351Y010889D01*
X011070Y011170D01*
X011070Y011567D01*
X011351Y011849D01*
X011749Y011849D01*
X012030Y011567D01*
X012030Y011170D01*
X012030Y011415D02*
X014221Y011415D01*
X014221Y011533D02*
X012030Y011533D01*
X011945Y011652D02*
X014327Y011652D01*
X014446Y011770D02*
X011827Y011770D01*
X011273Y011770D02*
X010827Y011770D01*
X010945Y011652D02*
X011154Y011652D01*
X011070Y011533D02*
X011030Y011533D01*
X011030Y011415D02*
X011070Y011415D01*
X011070Y011296D02*
X011030Y011296D01*
X011030Y011178D02*
X011070Y011178D01*
X011180Y011059D02*
X010919Y011059D01*
X010801Y010941D02*
X011299Y010941D01*
X011775Y010822D02*
X014504Y010822D01*
X014423Y010704D02*
X011893Y010704D01*
X012012Y010585D02*
X014324Y010585D01*
X014271Y010467D02*
X012030Y010467D01*
X012030Y010348D02*
X014266Y010348D01*
X014267Y010230D02*
X012030Y010230D01*
X011971Y010111D02*
X014272Y010111D01*
X014275Y009993D02*
X011853Y009993D01*
X011801Y010941D02*
X014386Y010941D01*
X016055Y011770D02*
X016393Y011770D01*
X016393Y011652D02*
X016174Y011652D01*
X016281Y011533D02*
X016393Y011533D01*
X016393Y011415D02*
X016281Y011415D01*
X016393Y011889D02*
X015993Y011889D01*
X016111Y012007D02*
X016393Y012007D01*
X016393Y012126D02*
X016230Y012126D01*
X016231Y012244D02*
X016393Y012244D01*
X016393Y012363D02*
X016231Y012363D01*
X016231Y012481D02*
X016393Y012481D01*
X016393Y012600D02*
X016155Y012600D01*
X016036Y012718D02*
X016393Y012718D01*
X017313Y012718D02*
X019718Y012718D01*
X019718Y012792D02*
X019718Y012478D01*
X019839Y012187D01*
X020061Y011965D01*
X020351Y011845D01*
X020665Y011845D01*
X020956Y011965D01*
X021178Y012187D01*
X021298Y012478D01*
X021298Y012792D01*
X021178Y013082D01*
X020956Y013305D01*
X020665Y013425D01*
X020351Y013425D01*
X020061Y013305D01*
X019839Y013082D01*
X019718Y012792D01*
X019737Y012837D02*
X017313Y012837D01*
X017313Y012955D02*
X019786Y012955D01*
X019835Y013074D02*
X017313Y013074D01*
X017313Y013192D02*
X019948Y013192D01*
X020076Y013311D02*
X017313Y013311D01*
X017313Y013429D02*
X021868Y013429D01*
X022089Y013311D02*
X020941Y013311D01*
X021068Y013192D02*
X022202Y013192D01*
X022273Y013074D02*
X021181Y013074D01*
X021230Y012955D02*
X022303Y012955D01*
X022321Y012837D02*
X021280Y012837D01*
X021298Y012718D02*
X022323Y012718D01*
X022323Y012600D02*
X021298Y012600D01*
X021298Y012481D02*
X022323Y012481D01*
X022323Y012363D02*
X021250Y012363D01*
X021201Y012244D02*
X022323Y012244D01*
X022323Y012126D02*
X021116Y012126D01*
X020998Y012007D02*
X022323Y012007D01*
X022323Y011889D02*
X020771Y011889D01*
X020245Y011889D02*
X017313Y011889D01*
X017313Y012007D02*
X020019Y012007D01*
X019900Y012126D02*
X017313Y012126D01*
X017313Y012244D02*
X019815Y012244D01*
X019766Y012363D02*
X017313Y012363D01*
X017313Y012481D02*
X019718Y012481D01*
X019718Y012600D02*
X017313Y012600D01*
X017313Y011770D02*
X022323Y011770D01*
X022323Y011652D02*
X018590Y011652D01*
X018523Y011679D02*
X018332Y011679D01*
X018156Y011606D01*
X018021Y011471D01*
X017948Y011295D01*
X017948Y011104D01*
X018021Y010927D01*
X018156Y010792D01*
X018332Y010719D01*
X018523Y010719D01*
X018700Y010792D01*
X018835Y010927D01*
X018908Y011104D01*
X018908Y011295D01*
X018835Y011471D01*
X018700Y011606D01*
X018523Y011679D01*
X018266Y011652D02*
X017313Y011652D01*
X017313Y011533D02*
X018083Y011533D01*
X017997Y011415D02*
X017313Y011415D01*
X017313Y011296D02*
X017948Y011296D01*
X017948Y011178D02*
X017313Y011178D01*
X017313Y011059D02*
X017966Y011059D01*
X018015Y010941D02*
X017313Y010941D01*
X017313Y010822D02*
X018126Y010822D01*
X017948Y010585D02*
X017354Y010585D01*
X017313Y010704D02*
X022323Y010704D01*
X022323Y010822D02*
X018729Y010822D01*
X018840Y010941D02*
X022323Y010941D01*
X022323Y011059D02*
X018889Y011059D01*
X018908Y011178D02*
X022323Y011178D01*
X022323Y011296D02*
X018907Y011296D01*
X018858Y011415D02*
X022323Y011415D01*
X022323Y011533D02*
X018773Y011533D01*
X018908Y010585D02*
X022323Y010585D01*
X022323Y010467D02*
X018908Y010467D01*
X018908Y010348D02*
X022323Y010348D01*
X022323Y010230D02*
X018908Y010230D01*
X018908Y010111D02*
X022323Y010111D01*
X022323Y009993D02*
X018908Y009993D01*
X018908Y009874D02*
X022323Y009874D01*
X022323Y009756D02*
X018880Y009756D01*
X019718Y008689D02*
X016065Y008689D01*
X016184Y008571D02*
X019718Y008571D01*
X019750Y008452D02*
X016231Y008452D01*
X016250Y008334D02*
X019799Y008334D01*
X019861Y008215D02*
X016250Y008215D01*
X016250Y008097D02*
X019979Y008097D01*
X020150Y007978D02*
X016250Y007978D01*
X016250Y007860D02*
X021023Y007860D01*
X020866Y007978D02*
X022036Y007978D01*
X022162Y008097D02*
X021037Y008097D01*
X021156Y008215D02*
X022251Y008215D01*
X022297Y008334D02*
X021218Y008334D01*
X021267Y008452D02*
X022314Y008452D01*
X022323Y008571D02*
X021298Y008571D01*
X021298Y008689D02*
X022323Y008689D01*
X022323Y008808D02*
X021298Y008808D01*
X021263Y008926D02*
X022323Y008926D01*
X022323Y009045D02*
X021214Y009045D01*
X021147Y009163D02*
X022323Y009163D01*
X022323Y009282D02*
X021028Y009282D01*
X020845Y009400D02*
X022323Y009400D01*
X020743Y007741D02*
X016250Y007741D01*
X016250Y007623D02*
X020578Y007623D01*
X020491Y007504D02*
X016248Y007504D01*
X016231Y007386D02*
X020406Y007386D01*
X020364Y007267D02*
X016231Y007267D01*
X016231Y007149D02*
X020327Y007149D01*
X020307Y007030D02*
X016159Y007030D01*
X016066Y006912D02*
X020310Y006912D01*
X020310Y006793D02*
X015948Y006793D01*
X015751Y006675D02*
X020310Y006675D01*
X020310Y006556D02*
X015632Y006556D01*
X015478Y006438D02*
X020310Y006438D01*
X020252Y001579D02*
X002116Y001579D01*
X002195Y001461D02*
X020172Y001461D01*
X020044Y001342D02*
X002324Y001342D01*
X015059Y012955D02*
X015442Y012955D01*
X015323Y013074D02*
X015178Y013074D01*
X015231Y013192D02*
X015271Y013192D01*
X015271Y013311D02*
X015231Y013311D01*
X015231Y013429D02*
X015271Y013429D01*
X015294Y013548D02*
X015207Y013548D01*
X015088Y013666D02*
X015413Y013666D01*
X015531Y013785D02*
X014970Y013785D01*
X015007Y013903D02*
X015494Y013903D01*
X015375Y014022D02*
X015126Y014022D01*
X015231Y014140D02*
X015271Y014140D01*
X015271Y014259D02*
X015231Y014259D01*
X015231Y014377D02*
X015271Y014377D01*
X015271Y014496D02*
X015231Y014496D01*
X015140Y014614D02*
X015361Y014614D01*
X015479Y014733D02*
X015022Y014733D01*
X014030Y015088D02*
X012449Y015088D01*
X012527Y015207D02*
X013911Y015207D01*
X013793Y015325D02*
X012576Y015325D01*
X012618Y015444D02*
X013694Y015444D01*
X013644Y015562D02*
X012618Y015562D01*
X012618Y015681D02*
X013637Y015681D01*
X013637Y015799D02*
X012594Y015799D01*
X012545Y015918D02*
X013637Y015918D01*
X013637Y016036D02*
X012494Y016036D01*
X012375Y016155D02*
X013637Y016155D01*
X013637Y016273D02*
X012230Y016273D01*
X012330Y014970D02*
X016314Y014970D01*
X017022Y015562D02*
X020271Y015562D01*
X020271Y015444D02*
X017141Y015444D01*
X017250Y015325D02*
X020271Y015325D01*
X020271Y015207D02*
X017299Y015207D01*
X017313Y015088D02*
X020271Y015088D01*
X020271Y014970D02*
X017313Y014970D01*
X017313Y014851D02*
X020271Y014851D01*
X020271Y014733D02*
X017313Y014733D01*
X017313Y014614D02*
X020271Y014614D01*
X020271Y014496D02*
X017313Y014496D01*
X017313Y014377D02*
X020270Y014377D01*
X020268Y014259D02*
X017313Y014259D01*
X017313Y014140D02*
X020305Y014140D01*
X020341Y014022D02*
X017313Y014022D01*
X017313Y013903D02*
X020406Y013903D01*
X020491Y013785D02*
X017313Y013785D01*
X017313Y013666D02*
X020615Y013666D01*
X020780Y013548D02*
X017313Y013548D01*
X016904Y015681D02*
X020271Y015681D01*
X020271Y015799D02*
X016785Y015799D01*
X014557Y015918D02*
X020271Y015918D01*
X020271Y016036D02*
X014557Y016036D01*
X014557Y016155D02*
X020271Y016155D01*
X020271Y016273D02*
X014557Y016273D01*
X014557Y016392D02*
X020271Y016392D01*
X020271Y016510D02*
X014557Y016510D01*
X014557Y016629D02*
X020271Y016629D01*
X020271Y016747D02*
X014524Y016747D01*
X014459Y016866D02*
X020271Y016866D01*
X020271Y016984D02*
X014341Y016984D01*
X014222Y017103D02*
X020271Y017103D01*
X020271Y017221D02*
X014024Y017221D01*
X011561Y018253D02*
X011488Y018077D01*
X011353Y017942D01*
X011177Y017869D01*
X010986Y017869D01*
X010809Y017942D01*
X010674Y018077D01*
X010601Y018253D01*
X010601Y018444D01*
X010674Y018621D01*
X010809Y018756D01*
X010986Y018829D01*
X011177Y018829D01*
X011353Y018756D01*
X011488Y018621D01*
X011561Y018444D01*
X011561Y018253D01*
X011561Y018288D02*
X020271Y018288D01*
X020271Y018406D02*
X011561Y018406D01*
X011528Y018525D02*
X020271Y018525D01*
X020271Y018643D02*
X011466Y018643D01*
X011339Y018762D02*
X020271Y018762D01*
X020271Y018880D02*
X002057Y018880D01*
X002057Y018762D02*
X009601Y018762D01*
X009601Y018643D02*
X002057Y018643D01*
X002057Y018525D02*
X009601Y018525D01*
X009601Y018406D02*
X002057Y018406D01*
X002057Y018288D02*
X009601Y018288D01*
X009601Y018169D02*
X002057Y018169D01*
X002057Y018051D02*
X009601Y018051D01*
X009602Y017932D02*
X002057Y017932D01*
X002057Y017814D02*
X009621Y017814D01*
X009621Y017695D02*
X002057Y017695D01*
X002057Y017577D02*
X009621Y017577D01*
X009621Y017458D02*
X002057Y017458D01*
X002057Y017340D02*
X009621Y017340D01*
X009621Y017221D02*
X002057Y017221D01*
X002057Y017103D02*
X009621Y017103D01*
X009627Y016984D02*
X002057Y016984D01*
X002057Y016866D02*
X009676Y016866D01*
X009773Y016747D02*
X002057Y016747D01*
X002057Y016629D02*
X009891Y016629D01*
X010010Y016510D02*
X002057Y016510D01*
X002057Y016392D02*
X010173Y016392D01*
X010541Y017340D02*
X020271Y017340D01*
X020271Y017458D02*
X010541Y017458D01*
X010541Y017577D02*
X020271Y017577D01*
X020271Y017695D02*
X010541Y017695D01*
X010541Y017814D02*
X020271Y017814D01*
X020271Y017932D02*
X011330Y017932D01*
X011462Y018051D02*
X020271Y018051D01*
X020271Y018169D02*
X011526Y018169D01*
X010833Y017932D02*
X010560Y017932D01*
X010561Y018051D02*
X010701Y018051D01*
X010636Y018169D02*
X010561Y018169D01*
X010561Y018288D02*
X010601Y018288D01*
X010601Y018406D02*
X010561Y018406D01*
X010561Y018525D02*
X010635Y018525D01*
X010697Y018643D02*
X010561Y018643D01*
X010561Y018762D02*
X010824Y018762D01*
X008982Y019710D02*
X008922Y019710D01*
X008980Y019711D02*
X008980Y019711D01*
X008980Y019711D01*
X008952Y021989D02*
X008952Y021998D01*
X008888Y022062D01*
X005842Y022062D01*
X005797Y022017D01*
X005789Y022027D01*
X005566Y022131D01*
X005507Y022133D01*
X005504Y022136D01*
X005439Y022136D01*
X005374Y022139D01*
X005371Y022136D01*
X004914Y022136D01*
X004678Y022170D01*
X004603Y022192D01*
X004519Y022234D01*
X004448Y022274D01*
X004385Y022329D01*
X004317Y022397D01*
X004271Y022458D01*
X004228Y022535D01*
X004190Y022612D01*
X004156Y022791D01*
X014649Y022791D01*
X014649Y022909D02*
X004145Y022909D01*
X004156Y022791D02*
X003587Y028949D01*
X003608Y028833D01*
X003822Y028462D01*
X004150Y028187D01*
X004552Y028040D01*
X004980Y028040D01*
X005383Y028187D01*
X005711Y028462D01*
X005925Y028833D01*
X005999Y029254D01*
X005925Y029676D01*
X005925Y029676D01*
X005711Y030047D01*
X005711Y030047D01*
X005711Y030047D01*
X005383Y030322D01*
X005383Y030322D01*
X004980Y030469D01*
X004552Y030469D01*
X004150Y030322D01*
X003822Y030047D01*
X003822Y030047D01*
X003608Y029676D01*
X003582Y029531D01*
X004156Y035735D01*
X004190Y035915D01*
X004228Y035991D01*
X004271Y036068D01*
X004317Y036130D01*
X004385Y036198D01*
X004448Y036252D01*
X004519Y036292D01*
X004603Y036334D01*
X004678Y036357D01*
X004864Y036383D01*
X011274Y036383D01*
X012064Y035593D01*
X015980Y035593D01*
X016169Y035566D01*
X016249Y035544D01*
X016316Y035507D01*
X016392Y035457D01*
X016459Y035398D01*
X016524Y035333D01*
X016565Y035271D01*
X016631Y035106D01*
X016657Y034917D01*
X016657Y029325D01*
X016650Y029315D01*
X016657Y029258D01*
X016657Y029200D01*
X016665Y029191D01*
X016733Y028661D01*
X016723Y028638D01*
X016741Y028596D01*
X016747Y028550D01*
X016766Y028535D01*
X016973Y028036D01*
X016970Y028011D01*
X016998Y027975D01*
X017016Y027932D01*
X017038Y027923D01*
X017365Y027502D01*
X017368Y027478D01*
X017405Y027450D01*
X017434Y027413D01*
X017457Y027410D01*
X017887Y027084D01*
X017896Y027062D01*
X017939Y027044D01*
X017977Y027015D01*
X018000Y027019D01*
X018079Y026986D01*
X017588Y026959D01*
X017509Y026959D01*
X017497Y026954D01*
X017484Y026953D01*
X017413Y026919D01*
X017340Y026889D01*
X017331Y026879D01*
X017319Y026873D01*
X017267Y026815D01*
X016072Y025620D01*
X014714Y025620D01*
X014545Y025550D01*
X013906Y024911D01*
X013187Y024911D01*
X013018Y024841D01*
X012889Y024712D01*
X012889Y024712D01*
X012818Y024641D01*
X012643Y024641D01*
X012578Y024576D01*
X012578Y024352D01*
X012543Y024267D01*
X012543Y024084D01*
X012578Y024000D01*
X012578Y023775D01*
X012643Y023711D01*
X013364Y023711D01*
X013428Y023775D01*
X013428Y023950D01*
X013469Y023991D01*
X014189Y023991D01*
X014358Y024061D01*
X014487Y024191D01*
X014996Y024700D01*
X016354Y024700D01*
X016523Y024770D01*
X016652Y024899D01*
X017802Y026049D01*
X018426Y026084D01*
X018591Y026163D01*
X018713Y026299D01*
X018774Y026472D01*
X018764Y026655D01*
X018711Y026766D01*
X019157Y026701D01*
X019178Y026685D01*
X019222Y026691D01*
X019266Y026685D01*
X019287Y026701D01*
X019821Y026778D01*
X019842Y026770D01*
X019886Y026788D01*
X019933Y026795D01*
X019947Y026813D01*
X020444Y027019D01*
X020467Y027015D01*
X020505Y027044D01*
X020548Y027062D01*
X020557Y027084D01*
X020987Y027410D01*
X021011Y027413D01*
X021039Y027450D01*
X021076Y027478D01*
X021080Y027502D01*
X021406Y027923D01*
X021428Y027932D01*
X021446Y027975D01*
X021474Y028011D01*
X021471Y028036D01*
X021678Y028535D01*
X021697Y028550D01*
X021703Y028596D01*
X021721Y028638D01*
X021711Y028661D01*
X021779Y029191D01*
X021787Y029200D01*
X021787Y029258D01*
X021794Y029315D01*
X021787Y029325D01*
X021787Y034997D01*
X021782Y035002D01*
X021782Y035044D01*
X021841Y035251D01*
X021967Y035424D01*
X022146Y035542D01*
X022355Y035591D01*
X022462Y035587D01*
X022530Y035578D01*
X022549Y035593D01*
X026244Y035593D01*
X026245Y035593D01*
X026313Y035593D01*
X026380Y035593D01*
X026381Y035594D01*
X026381Y035594D01*
X026429Y035642D01*
X026477Y035690D01*
X026477Y035690D01*
X027161Y036383D01*
X033580Y036383D01*
X033766Y036357D01*
X033841Y036334D01*
X033925Y036292D01*
X033997Y036252D01*
X034055Y036201D01*
X034176Y036063D01*
X033374Y036063D01*
X033303Y036092D02*
X032155Y036092D01*
X031986Y036022D01*
X031857Y035893D01*
X031544Y035581D01*
X025620Y035581D01*
X025451Y035511D01*
X025321Y035381D01*
X025006Y035066D01*
X024936Y034897D01*
X024936Y034437D01*
X024886Y034317D01*
X024886Y034114D01*
X024964Y033926D01*
X025107Y033783D01*
X025295Y033705D01*
X025498Y033705D01*
X025685Y033783D01*
X025829Y033926D01*
X025906Y034114D01*
X025906Y034317D01*
X025856Y034437D01*
X025856Y034615D01*
X025902Y034661D01*
X026264Y034661D01*
X026264Y033770D01*
X026329Y033705D01*
X027220Y033705D01*
X027284Y033770D01*
X027284Y034661D01*
X027967Y034661D01*
X027917Y034611D01*
X027917Y024034D01*
X028014Y023937D01*
X032080Y023937D01*
X032177Y024034D01*
X032177Y024264D01*
X032804Y023637D01*
X032973Y023567D01*
X033480Y023567D01*
X033564Y023602D01*
X033789Y023602D01*
X033853Y023666D01*
X033853Y024387D01*
X033789Y024452D01*
X033564Y024452D01*
X033480Y024487D01*
X033255Y024487D01*
X032829Y024913D01*
X032829Y032769D01*
X033570Y033510D01*
X033700Y033640D01*
X033713Y033672D01*
X033729Y033672D01*
X033794Y033736D01*
X033794Y033854D01*
X033848Y033986D01*
X033848Y034169D01*
X033794Y034301D01*
X033794Y034418D01*
X033729Y034483D01*
X033612Y034483D01*
X033480Y034537D01*
X033297Y034537D01*
X033165Y034483D01*
X033048Y034483D01*
X033003Y034438D01*
X032931Y034408D01*
X032802Y034279D01*
X032731Y034110D01*
X032731Y033973D01*
X032177Y033418D01*
X032177Y034611D01*
X032080Y034708D01*
X031939Y034708D01*
X031995Y034731D01*
X032437Y035172D01*
X032983Y035172D01*
X032983Y035114D01*
X033048Y035050D01*
X033165Y035050D01*
X033297Y034995D01*
X033480Y034995D01*
X033612Y035050D01*
X033729Y035050D01*
X033794Y035114D01*
X033794Y035232D01*
X033848Y035364D01*
X033848Y035547D01*
X033794Y035679D01*
X033794Y035796D01*
X033729Y035861D01*
X033634Y035861D01*
X033472Y036022D01*
X033303Y036092D01*
X033550Y035944D02*
X034234Y035944D01*
X034244Y035918D02*
X034289Y035731D01*
X034886Y029268D01*
X034289Y022795D01*
X034244Y022608D01*
X034213Y022529D01*
X034176Y022464D01*
X034055Y022325D01*
X033997Y022274D01*
X033925Y022234D01*
X033841Y022192D01*
X033766Y022170D01*
X033530Y022136D01*
X031896Y022136D01*
X031777Y022141D01*
X031777Y022141D01*
X031546Y022057D01*
X031546Y022057D01*
X031472Y021989D01*
X031472Y021998D01*
X031407Y022062D01*
X028362Y022062D01*
X028317Y022017D01*
X028308Y022027D01*
X028085Y022131D01*
X028027Y022133D01*
X028024Y022136D01*
X027959Y022136D01*
X027894Y022139D01*
X027891Y022136D01*
X027175Y022136D01*
X026308Y022218D01*
X026302Y022225D01*
X026241Y022225D01*
X026181Y022230D01*
X026174Y022225D01*
X012111Y022225D01*
X012102Y022231D01*
X012044Y022225D01*
X011985Y022225D01*
X011977Y022217D01*
X011270Y022136D01*
X009376Y022136D01*
X009257Y022141D01*
X009257Y022141D01*
X009026Y022057D01*
X009026Y022057D01*
X008952Y021989D01*
X009088Y022080D02*
X005674Y022080D01*
X005566Y022131D02*
X005566Y022131D01*
X005789Y022027D02*
X005789Y022027D01*
X004591Y022198D02*
X011815Y022198D01*
X011523Y023711D02*
X012244Y023711D01*
X012309Y023775D01*
X012309Y024000D01*
X012344Y024084D01*
X012344Y024267D01*
X012309Y024352D01*
X012309Y024576D01*
X012244Y024641D01*
X011919Y024641D01*
X011919Y025048D01*
X012201Y025330D01*
X013544Y025330D01*
X013555Y025326D01*
X013636Y025330D01*
X013716Y025330D01*
X013727Y025334D01*
X013738Y025335D01*
X013811Y025369D01*
X013885Y025400D01*
X013893Y025408D01*
X013903Y025413D01*
X013958Y025472D01*
X014015Y025529D01*
X014019Y025540D01*
X014745Y026339D01*
X014802Y026395D01*
X014806Y026406D01*
X014814Y026414D01*
X014841Y026490D01*
X014872Y026565D01*
X014872Y026576D01*
X014876Y026587D01*
X014872Y026667D01*
X014872Y034476D01*
X014885Y034491D01*
X015566Y034491D01*
X015615Y034511D01*
X015657Y034511D01*
X015687Y034541D01*
X015736Y034561D01*
X015865Y034691D01*
X015885Y034739D01*
X015915Y034769D01*
X015915Y034812D01*
X015935Y034860D01*
X015935Y035043D01*
X015915Y035091D01*
X015915Y035134D01*
X015885Y035164D01*
X015865Y035212D01*
X015736Y035341D01*
X015687Y035361D01*
X015657Y035391D01*
X015615Y035391D01*
X015566Y035411D01*
X014751Y035411D01*
X014735Y035417D01*
X014660Y035411D01*
X014584Y035411D01*
X014569Y035405D01*
X014553Y035404D01*
X014485Y035370D01*
X014415Y035341D01*
X014404Y035330D01*
X014389Y035322D01*
X014339Y035265D01*
X014286Y035212D01*
X014279Y035197D01*
X014075Y034962D01*
X014022Y034909D01*
X014016Y034894D01*
X014005Y034881D01*
X013981Y034809D01*
X013952Y034740D01*
X013952Y034723D01*
X013947Y034708D01*
X013952Y034632D01*
X013952Y026834D01*
X013421Y026250D01*
X011919Y026250D01*
X011750Y026180D01*
X011199Y025629D01*
X011069Y025499D01*
X010999Y025330D01*
X010999Y024320D01*
X011069Y024151D01*
X011305Y023915D01*
X011435Y023786D01*
X011459Y023776D01*
X011459Y023775D01*
X011523Y023711D01*
X011495Y023739D02*
X010527Y023739D01*
X010527Y023679D02*
X010527Y034926D01*
X010430Y035022D01*
X006354Y035022D01*
X006257Y034926D01*
X006257Y023679D01*
X006354Y023583D01*
X010430Y023583D01*
X010527Y023679D01*
X010468Y023620D02*
X014690Y023620D01*
X014649Y023662D02*
X014930Y023381D01*
X015327Y023381D01*
X015609Y023662D01*
X015609Y024060D01*
X015327Y024341D01*
X014930Y024341D01*
X014649Y024060D01*
X014649Y023662D01*
X014649Y023739D02*
X013392Y023739D01*
X013428Y023857D02*
X014649Y023857D01*
X014649Y023976D02*
X013454Y023976D01*
X012615Y023739D02*
X012272Y023739D01*
X012309Y023857D02*
X012578Y023857D01*
X012578Y023976D02*
X012309Y023976D01*
X012344Y024094D02*
X012543Y024094D01*
X012543Y024213D02*
X012344Y024213D01*
X012317Y024331D02*
X012570Y024331D01*
X012578Y024450D02*
X012309Y024450D01*
X012309Y024568D02*
X012578Y024568D01*
X012864Y024687D02*
X011919Y024687D01*
X011919Y024805D02*
X012982Y024805D01*
X012150Y025279D02*
X014274Y025279D01*
X014156Y025161D02*
X012032Y025161D01*
X011919Y025042D02*
X014037Y025042D01*
X013919Y024924D02*
X011919Y024924D01*
X011205Y025635D02*
X010527Y025635D01*
X010527Y025753D02*
X011323Y025753D01*
X011442Y025872D02*
X010527Y025872D01*
X010527Y025990D02*
X011560Y025990D01*
X011679Y026109D02*
X010527Y026109D01*
X010527Y026227D02*
X011864Y026227D01*
X012162Y026525D02*
X011890Y026770D01*
X011890Y026770D01*
X011741Y027103D01*
X011741Y027469D01*
X011890Y027802D01*
X011890Y027802D01*
X012162Y028047D01*
X012162Y028047D01*
X012509Y028160D01*
X012509Y028160D01*
X012872Y028122D01*
X012872Y028122D01*
X013189Y027939D01*
X013404Y027643D01*
X013404Y027643D01*
X013480Y027286D01*
X013480Y027286D01*
X013404Y026929D01*
X013404Y026929D01*
X013189Y026633D01*
X013189Y026633D01*
X013189Y026633D01*
X012872Y026450D01*
X012872Y026450D01*
X012509Y026412D01*
X012509Y026412D01*
X012162Y026525D01*
X012162Y026525D01*
X012097Y026583D02*
X010527Y026583D01*
X010527Y026701D02*
X011966Y026701D01*
X011868Y026820D02*
X010527Y026820D01*
X010527Y026938D02*
X011815Y026938D01*
X011762Y027057D02*
X010527Y027057D01*
X010527Y027175D02*
X011741Y027175D01*
X011741Y027294D02*
X010527Y027294D01*
X010527Y027412D02*
X011741Y027412D01*
X011769Y027531D02*
X010527Y027531D01*
X010527Y027649D02*
X011822Y027649D01*
X011875Y027768D02*
X010527Y027768D01*
X010527Y027886D02*
X011983Y027886D01*
X012115Y028005D02*
X010527Y028005D01*
X010527Y028123D02*
X012397Y028123D01*
X012856Y028123D02*
X013952Y028123D01*
X013952Y028005D02*
X013075Y028005D01*
X013189Y027939D02*
X013189Y027939D01*
X013227Y027886D02*
X013952Y027886D01*
X013952Y027768D02*
X013313Y027768D01*
X013399Y027649D02*
X013952Y027649D01*
X013952Y027531D02*
X013428Y027531D01*
X013453Y027412D02*
X013952Y027412D01*
X013952Y027294D02*
X013478Y027294D01*
X013456Y027175D02*
X013952Y027175D01*
X013952Y027057D02*
X013431Y027057D01*
X013406Y026938D02*
X013952Y026938D01*
X013939Y026820D02*
X013325Y026820D01*
X013239Y026701D02*
X013831Y026701D01*
X013724Y026583D02*
X013102Y026583D01*
X012897Y026464D02*
X013616Y026464D01*
X013508Y026346D02*
X010527Y026346D01*
X010527Y026464D02*
X012348Y026464D01*
X011931Y027286D02*
X011933Y027337D01*
X011939Y027388D01*
X011949Y027439D01*
X011962Y027488D01*
X011980Y027536D01*
X012001Y027583D01*
X012025Y027628D01*
X012053Y027671D01*
X012084Y027712D01*
X012118Y027751D01*
X012155Y027786D01*
X012195Y027819D01*
X012237Y027848D01*
X012281Y027875D01*
X012327Y027897D01*
X012375Y027917D01*
X012423Y027932D01*
X012473Y027944D01*
X012524Y027952D01*
X012575Y027956D01*
X012627Y027956D01*
X012678Y027952D01*
X012729Y027944D01*
X012779Y027932D01*
X012827Y027917D01*
X012875Y027897D01*
X012921Y027875D01*
X012965Y027848D01*
X013007Y027819D01*
X013047Y027786D01*
X013084Y027751D01*
X013118Y027712D01*
X013149Y027671D01*
X013177Y027628D01*
X013201Y027583D01*
X013222Y027536D01*
X013240Y027488D01*
X013253Y027439D01*
X013263Y027388D01*
X013269Y027337D01*
X013271Y027286D01*
X013269Y027235D01*
X013263Y027184D01*
X013253Y027133D01*
X013240Y027084D01*
X013222Y027036D01*
X013201Y026989D01*
X013177Y026944D01*
X013149Y026901D01*
X013118Y026860D01*
X013084Y026821D01*
X013047Y026786D01*
X013007Y026753D01*
X012965Y026724D01*
X012921Y026697D01*
X012875Y026675D01*
X012827Y026655D01*
X012779Y026640D01*
X012729Y026628D01*
X012678Y026620D01*
X012627Y026616D01*
X012575Y026616D01*
X012524Y026620D01*
X012473Y026628D01*
X012423Y026640D01*
X012375Y026655D01*
X012327Y026675D01*
X012281Y026697D01*
X012237Y026724D01*
X012195Y026753D01*
X012155Y026786D01*
X012118Y026821D01*
X012084Y026860D01*
X012053Y026901D01*
X012025Y026944D01*
X012001Y026989D01*
X011980Y027036D01*
X011962Y027084D01*
X011949Y027133D01*
X011939Y027184D01*
X011933Y027235D01*
X011931Y027286D01*
X011892Y027286D02*
X011894Y027339D01*
X011900Y027392D01*
X011910Y027444D01*
X011923Y027495D01*
X011941Y027545D01*
X011962Y027594D01*
X011987Y027641D01*
X012015Y027685D01*
X012047Y027728D01*
X012081Y027768D01*
X012119Y027806D01*
X012159Y027840D01*
X012202Y027872D01*
X012247Y027900D01*
X012293Y027925D01*
X012342Y027946D01*
X012392Y027964D01*
X012443Y027977D01*
X012495Y027987D01*
X012548Y027993D01*
X012601Y027995D01*
X012654Y027993D01*
X012707Y027987D01*
X012759Y027977D01*
X012810Y027964D01*
X012860Y027946D01*
X012909Y027925D01*
X012956Y027900D01*
X013000Y027872D01*
X013043Y027840D01*
X013083Y027806D01*
X013121Y027768D01*
X013155Y027728D01*
X013187Y027685D01*
X013215Y027640D01*
X013240Y027594D01*
X013261Y027545D01*
X013279Y027495D01*
X013292Y027444D01*
X013302Y027392D01*
X013308Y027339D01*
X013310Y027286D01*
X013308Y027233D01*
X013302Y027180D01*
X013292Y027128D01*
X013279Y027077D01*
X013261Y027027D01*
X013240Y026978D01*
X013215Y026931D01*
X013187Y026887D01*
X013155Y026844D01*
X013121Y026804D01*
X013083Y026766D01*
X013043Y026732D01*
X013000Y026700D01*
X012955Y026672D01*
X012909Y026647D01*
X012860Y026626D01*
X012810Y026608D01*
X012759Y026595D01*
X012707Y026585D01*
X012654Y026579D01*
X012601Y026577D01*
X012548Y026579D01*
X012495Y026585D01*
X012443Y026595D01*
X012392Y026608D01*
X012342Y026626D01*
X012293Y026647D01*
X012246Y026672D01*
X012202Y026700D01*
X012159Y026732D01*
X012119Y026766D01*
X012081Y026804D01*
X012047Y026844D01*
X012015Y026887D01*
X011987Y026932D01*
X011962Y026978D01*
X011941Y027027D01*
X011923Y027077D01*
X011910Y027128D01*
X011900Y027180D01*
X011894Y027233D01*
X011892Y027286D01*
X010527Y028242D02*
X013952Y028242D01*
X013952Y028360D02*
X010527Y028360D01*
X010527Y028479D02*
X013952Y028479D01*
X013952Y028597D02*
X010527Y028597D01*
X010527Y028716D02*
X013952Y028716D01*
X013952Y028834D02*
X010527Y028834D01*
X010527Y028953D02*
X013952Y028953D01*
X013952Y029071D02*
X010527Y029071D01*
X010527Y029190D02*
X013952Y029190D01*
X013952Y029308D02*
X010527Y029308D01*
X010527Y029427D02*
X013952Y029427D01*
X013952Y029545D02*
X010527Y029545D01*
X010527Y029664D02*
X013952Y029664D01*
X013952Y029782D02*
X010527Y029782D01*
X010527Y029901D02*
X013952Y029901D01*
X013952Y030019D02*
X010527Y030019D01*
X010527Y030138D02*
X013952Y030138D01*
X013952Y030256D02*
X010527Y030256D01*
X010527Y030375D02*
X012250Y030375D01*
X012601Y030305D01*
X012952Y030375D01*
X013952Y030375D01*
X013952Y030493D02*
X013130Y030493D01*
X013250Y030574D02*
X012952Y030375D01*
X012952Y030375D01*
X012601Y030305D02*
X012601Y030305D01*
X012250Y030375D02*
X012250Y030375D01*
X011952Y030574D01*
X011952Y030574D01*
X011952Y030574D01*
X011753Y030872D01*
X011753Y030872D01*
X011683Y031223D01*
X011683Y031223D01*
X011753Y031574D01*
X011753Y031574D01*
X011952Y031872D01*
X011952Y031872D01*
X011952Y031872D01*
X012250Y032071D01*
X012250Y032071D01*
X012601Y032141D01*
X012601Y032141D01*
X012952Y032071D01*
X012952Y032071D01*
X013250Y031872D01*
X013250Y031872D01*
X013449Y031574D01*
X013449Y031574D01*
X013519Y031223D01*
X013449Y030872D01*
X013449Y030872D01*
X013250Y030574D01*
X013250Y030574D01*
X013250Y030574D01*
X013275Y030612D02*
X013952Y030612D01*
X013952Y030730D02*
X013355Y030730D01*
X013434Y030849D02*
X013952Y030849D01*
X013952Y030967D02*
X013468Y030967D01*
X013492Y031086D02*
X013952Y031086D01*
X013952Y031204D02*
X013515Y031204D01*
X013499Y031323D02*
X013952Y031323D01*
X013952Y031441D02*
X013476Y031441D01*
X013452Y031560D02*
X013952Y031560D01*
X013952Y031678D02*
X013380Y031678D01*
X013300Y031797D02*
X013952Y031797D01*
X013952Y031915D02*
X013185Y031915D01*
X013250Y031872D02*
X013250Y031872D01*
X013008Y032034D02*
X013952Y032034D01*
X013952Y032152D02*
X010527Y032152D01*
X010527Y032034D02*
X012194Y032034D01*
X012016Y031915D02*
X010527Y031915D01*
X010527Y031797D02*
X011901Y031797D01*
X011822Y031678D02*
X010527Y031678D01*
X010527Y031560D02*
X011750Y031560D01*
X011726Y031441D02*
X010527Y031441D01*
X010527Y031323D02*
X011703Y031323D01*
X011687Y031204D02*
X010527Y031204D01*
X010527Y031086D02*
X011710Y031086D01*
X011734Y030967D02*
X010527Y030967D01*
X010527Y030849D02*
X011768Y030849D01*
X011847Y030730D02*
X010527Y030730D01*
X010527Y030612D02*
X011926Y030612D01*
X012072Y030493D02*
X010527Y030493D01*
X010527Y032271D02*
X013952Y032271D01*
X013952Y032389D02*
X010527Y032389D01*
X010527Y032508D02*
X013952Y032508D01*
X013952Y032626D02*
X010527Y032626D01*
X010527Y032745D02*
X013952Y032745D01*
X013952Y032863D02*
X010527Y032863D01*
X010527Y032982D02*
X013952Y032982D01*
X013952Y033100D02*
X010527Y033100D01*
X010527Y033219D02*
X013952Y033219D01*
X013952Y033337D02*
X010527Y033337D01*
X010527Y033456D02*
X013952Y033456D01*
X013952Y033574D02*
X010527Y033574D01*
X010527Y033693D02*
X013952Y033693D01*
X013952Y033811D02*
X013583Y033811D01*
X013583Y033770D02*
X013583Y034661D01*
X013519Y034725D01*
X012628Y034725D01*
X012563Y034661D01*
X012563Y033770D01*
X012628Y033705D01*
X013519Y033705D01*
X013583Y033770D01*
X013583Y033930D02*
X013952Y033930D01*
X013952Y034048D02*
X013583Y034048D01*
X013583Y034167D02*
X013952Y034167D01*
X013952Y034285D02*
X013583Y034285D01*
X013583Y034404D02*
X013952Y034404D01*
X013952Y034522D02*
X013583Y034522D01*
X013583Y034641D02*
X013951Y034641D01*
X013960Y034759D02*
X010527Y034759D01*
X010527Y034641D02*
X011400Y034641D01*
X011407Y034647D02*
X011263Y034504D01*
X011185Y034317D01*
X011185Y034114D01*
X011263Y033926D01*
X011407Y033783D01*
X011594Y033705D01*
X011797Y033705D01*
X011984Y033783D01*
X012128Y033926D01*
X012205Y034114D01*
X012205Y034317D01*
X012128Y034504D01*
X011984Y034647D01*
X011797Y034725D01*
X011594Y034725D01*
X011407Y034647D01*
X011281Y034522D02*
X010527Y034522D01*
X010527Y034404D02*
X011222Y034404D01*
X011185Y034285D02*
X010527Y034285D01*
X010527Y034167D02*
X011185Y034167D01*
X011212Y034048D02*
X010527Y034048D01*
X010527Y033930D02*
X011262Y033930D01*
X011378Y033811D02*
X010527Y033811D01*
X010527Y034878D02*
X014004Y034878D01*
X014105Y034996D02*
X010457Y034996D01*
X011594Y036063D02*
X004268Y036063D01*
X004205Y035944D02*
X011713Y035944D01*
X011831Y035826D02*
X004173Y035826D01*
X004153Y035707D02*
X011950Y035707D01*
X011476Y036181D02*
X004369Y036181D01*
X004534Y036300D02*
X011357Y036300D01*
X011991Y034641D02*
X012563Y034641D01*
X012563Y034522D02*
X012109Y034522D01*
X012169Y034404D02*
X012563Y034404D01*
X012563Y034285D02*
X012205Y034285D01*
X012205Y034167D02*
X012563Y034167D01*
X012563Y034048D02*
X012178Y034048D01*
X012129Y033930D02*
X012563Y033930D01*
X012563Y033811D02*
X012013Y033811D01*
X014208Y035115D02*
X004098Y035115D01*
X004109Y035233D02*
X014307Y035233D01*
X014441Y035352D02*
X004120Y035352D01*
X004131Y035470D02*
X016371Y035470D01*
X016505Y035352D02*
X015710Y035352D01*
X015843Y035233D02*
X016580Y035233D01*
X016628Y035115D02*
X015915Y035115D01*
X015935Y034996D02*
X016646Y034996D01*
X016657Y034878D02*
X015935Y034878D01*
X015905Y034759D02*
X016657Y034759D01*
X016657Y034641D02*
X015815Y034641D01*
X015668Y034522D02*
X016657Y034522D01*
X016657Y034404D02*
X015715Y034404D01*
X015678Y034441D02*
X015495Y034441D01*
X015495Y033971D01*
X015965Y033971D01*
X015965Y034154D01*
X015678Y034441D01*
X015495Y034404D02*
X015455Y034404D01*
X015455Y034441D02*
X015272Y034441D01*
X014985Y034154D01*
X014985Y033971D01*
X015455Y033971D01*
X015455Y033931D01*
X015495Y033931D01*
X015495Y033461D01*
X015678Y033461D01*
X015965Y033748D01*
X015965Y033931D01*
X015495Y033931D01*
X015495Y033971D01*
X015455Y033971D01*
X015455Y034441D01*
X015455Y034285D02*
X015495Y034285D01*
X015495Y034167D02*
X015455Y034167D01*
X015455Y034048D02*
X015495Y034048D01*
X015495Y033930D02*
X015455Y033930D01*
X015455Y033931D02*
X015455Y033461D01*
X015272Y033461D01*
X014985Y033748D01*
X014985Y033931D01*
X015455Y033931D01*
X015455Y033811D02*
X015495Y033811D01*
X015495Y033693D02*
X015455Y033693D01*
X015455Y033574D02*
X015495Y033574D01*
X015791Y033574D02*
X016657Y033574D01*
X016657Y033456D02*
X014872Y033456D01*
X014872Y033574D02*
X015159Y033574D01*
X015040Y033693D02*
X014872Y033693D01*
X014872Y033811D02*
X014985Y033811D01*
X014985Y033930D02*
X014872Y033930D01*
X014872Y034048D02*
X014985Y034048D01*
X014997Y034167D02*
X014872Y034167D01*
X014872Y034285D02*
X015116Y034285D01*
X015234Y034404D02*
X014872Y034404D01*
X015834Y034285D02*
X016657Y034285D01*
X016657Y034167D02*
X015952Y034167D01*
X015965Y034048D02*
X016657Y034048D01*
X016657Y033930D02*
X015965Y033930D01*
X015965Y033811D02*
X016657Y033811D01*
X016657Y033693D02*
X015909Y033693D01*
X016657Y033337D02*
X014872Y033337D01*
X014872Y033219D02*
X016657Y033219D01*
X016657Y033100D02*
X014872Y033100D01*
X014872Y032982D02*
X016657Y032982D01*
X016657Y032863D02*
X014872Y032863D01*
X014872Y032745D02*
X016657Y032745D01*
X016657Y032626D02*
X014872Y032626D01*
X014872Y032508D02*
X016657Y032508D01*
X016657Y032389D02*
X014872Y032389D01*
X014872Y032271D02*
X016657Y032271D01*
X016657Y032152D02*
X014872Y032152D01*
X014872Y032034D02*
X016657Y032034D01*
X016657Y031915D02*
X014872Y031915D01*
X014872Y031797D02*
X016657Y031797D01*
X016657Y031678D02*
X014872Y031678D01*
X014872Y031560D02*
X016657Y031560D01*
X016657Y031441D02*
X014872Y031441D01*
X014872Y031323D02*
X016657Y031323D01*
X016657Y031204D02*
X014872Y031204D01*
X014872Y031086D02*
X016657Y031086D01*
X016657Y030967D02*
X014872Y030967D01*
X014872Y030849D02*
X016657Y030849D01*
X016657Y030730D02*
X014872Y030730D01*
X014872Y030612D02*
X016657Y030612D01*
X016657Y030493D02*
X014872Y030493D01*
X014872Y030375D02*
X016657Y030375D01*
X016657Y030256D02*
X014872Y030256D01*
X014872Y030138D02*
X016657Y030138D01*
X016657Y030019D02*
X014872Y030019D01*
X014872Y029901D02*
X016657Y029901D01*
X016657Y029782D02*
X014872Y029782D01*
X014872Y029664D02*
X016657Y029664D01*
X016657Y029545D02*
X014872Y029545D01*
X014872Y029427D02*
X016657Y029427D01*
X016651Y029308D02*
X014872Y029308D01*
X014872Y029190D02*
X016666Y029190D01*
X016681Y029071D02*
X014872Y029071D01*
X014872Y028953D02*
X016696Y028953D01*
X016711Y028834D02*
X014872Y028834D01*
X014872Y028716D02*
X016726Y028716D01*
X016740Y028597D02*
X014872Y028597D01*
X014872Y028479D02*
X016789Y028479D01*
X016838Y028360D02*
X014872Y028360D01*
X014872Y028242D02*
X016887Y028242D01*
X016937Y028123D02*
X014872Y028123D01*
X014872Y028005D02*
X016975Y028005D01*
X017067Y027886D02*
X014872Y027886D01*
X014872Y027768D02*
X017158Y027768D01*
X017250Y027649D02*
X014872Y027649D01*
X014872Y027531D02*
X017342Y027531D01*
X017439Y027412D02*
X014872Y027412D01*
X014872Y027294D02*
X017610Y027294D01*
X017766Y027175D02*
X014872Y027175D01*
X014872Y027057D02*
X017908Y027057D01*
X017454Y026938D02*
X014872Y026938D01*
X014872Y026820D02*
X017271Y026820D01*
X017153Y026701D02*
X014872Y026701D01*
X014874Y026583D02*
X017035Y026583D01*
X016916Y026464D02*
X014832Y026464D01*
X014752Y026346D02*
X016798Y026346D01*
X016679Y026227D02*
X014644Y026227D01*
X014536Y026109D02*
X016561Y026109D01*
X016442Y025990D02*
X014428Y025990D01*
X014321Y025872D02*
X016324Y025872D01*
X016205Y025753D02*
X014213Y025753D01*
X014105Y025635D02*
X016087Y025635D01*
X016795Y025042D02*
X018329Y025042D01*
X018313Y025027D02*
X017739Y024452D01*
X017669Y024283D01*
X017669Y024080D01*
X017659Y024070D01*
X017659Y024080D01*
X017348Y024391D01*
X017169Y024391D01*
X017169Y023901D01*
X017089Y023901D01*
X017089Y024391D01*
X016909Y024391D01*
X016599Y024080D01*
X016599Y024070D01*
X016327Y024341D01*
X015930Y024341D01*
X015649Y024060D01*
X015649Y023662D01*
X015930Y023381D01*
X016327Y023381D01*
X016599Y023652D01*
X016599Y023641D01*
X016879Y023361D01*
X016599Y023080D01*
X016599Y023070D01*
X016327Y023341D01*
X015930Y023341D01*
X015649Y023060D01*
X015649Y022662D01*
X015930Y022381D01*
X016327Y022381D01*
X016599Y022652D01*
X016599Y022641D01*
X016909Y022331D01*
X017089Y022331D01*
X017089Y022821D01*
X017169Y022821D01*
X017169Y022331D01*
X017348Y022331D01*
X017659Y022641D01*
X017659Y022652D01*
X017930Y022381D01*
X018327Y022381D01*
X018609Y022662D01*
X018609Y023060D01*
X018327Y023341D01*
X017930Y023341D01*
X017659Y023070D01*
X017659Y023080D01*
X017378Y023361D01*
X017659Y023641D01*
X017659Y023652D01*
X017930Y023381D01*
X018327Y023381D01*
X018609Y023662D01*
X018609Y024021D01*
X018894Y024306D01*
X018895Y024306D01*
X018649Y024060D01*
X018649Y023662D01*
X018930Y023381D01*
X019327Y023381D01*
X019609Y023662D01*
X019609Y024060D01*
X019362Y024306D01*
X019895Y024306D01*
X019649Y024060D01*
X019649Y023662D01*
X019930Y023381D01*
X020327Y023381D01*
X020609Y023662D01*
X020609Y024060D01*
X020362Y024306D01*
X020895Y024306D01*
X020649Y024060D01*
X020649Y023662D01*
X020930Y023381D01*
X021327Y023381D01*
X021609Y023662D01*
X021609Y024060D01*
X021362Y024306D01*
X021895Y024306D01*
X021649Y024060D01*
X021649Y023662D01*
X021930Y023381D01*
X022327Y023381D01*
X022609Y023662D01*
X022609Y024060D01*
X022362Y024306D01*
X024694Y024306D01*
X024818Y024182D01*
X024818Y023690D01*
X024798Y023641D01*
X024798Y023450D01*
X024871Y023274D01*
X025006Y023139D01*
X025183Y023066D01*
X025374Y023066D01*
X025550Y023139D01*
X025685Y023274D01*
X025757Y023448D01*
X025761Y023422D01*
X025787Y023342D01*
X025825Y023268D01*
X025874Y023201D01*
X025933Y023142D01*
X026000Y023093D01*
X026075Y023055D01*
X026154Y023029D01*
X026236Y023016D01*
X026238Y023016D01*
X026238Y023506D01*
X026318Y023506D01*
X026318Y023586D01*
X026238Y023586D01*
X026238Y024076D01*
X026236Y024076D01*
X026154Y024063D01*
X026075Y024037D01*
X026000Y023999D01*
X025933Y023950D01*
X025874Y023891D01*
X025825Y023824D01*
X025787Y023749D01*
X025761Y023670D01*
X025757Y023644D01*
X025738Y023690D01*
X025738Y024464D01*
X025668Y024633D01*
X025539Y024763D01*
X025145Y025156D01*
X024976Y025226D01*
X018612Y025226D01*
X018443Y025156D01*
X018313Y025027D01*
X018210Y024924D02*
X016677Y024924D01*
X016558Y024805D02*
X018092Y024805D01*
X017973Y024687D02*
X014983Y024687D01*
X014865Y024568D02*
X017855Y024568D01*
X017738Y024450D02*
X014746Y024450D01*
X014628Y024331D02*
X014920Y024331D01*
X014802Y024213D02*
X014509Y024213D01*
X014391Y024094D02*
X014683Y024094D01*
X014809Y023502D02*
X004090Y023502D01*
X004079Y023620D02*
X006316Y023620D01*
X006257Y023739D02*
X004068Y023739D01*
X004057Y023857D02*
X006257Y023857D01*
X006257Y023976D02*
X004046Y023976D01*
X004035Y024094D02*
X006257Y024094D01*
X006257Y024213D02*
X004024Y024213D01*
X004013Y024331D02*
X006257Y024331D01*
X006257Y024450D02*
X004003Y024450D01*
X003992Y024568D02*
X006257Y024568D01*
X006257Y024687D02*
X003981Y024687D01*
X003970Y024805D02*
X006257Y024805D01*
X006257Y024924D02*
X003959Y024924D01*
X003948Y025042D02*
X006257Y025042D01*
X006257Y025161D02*
X003937Y025161D01*
X003926Y025279D02*
X006257Y025279D01*
X006257Y025398D02*
X003915Y025398D01*
X003904Y025516D02*
X006257Y025516D01*
X006257Y025635D02*
X003893Y025635D01*
X003882Y025753D02*
X006257Y025753D01*
X006257Y025872D02*
X003871Y025872D01*
X003860Y025990D02*
X006257Y025990D01*
X006257Y026109D02*
X003849Y026109D01*
X003838Y026227D02*
X006257Y026227D01*
X006257Y026346D02*
X003828Y026346D01*
X003817Y026464D02*
X006257Y026464D01*
X006257Y026583D02*
X003806Y026583D01*
X003795Y026701D02*
X006257Y026701D01*
X006257Y026820D02*
X003784Y026820D01*
X003773Y026938D02*
X006257Y026938D01*
X006257Y027057D02*
X003762Y027057D01*
X003751Y027175D02*
X006257Y027175D01*
X006257Y027294D02*
X003740Y027294D01*
X003729Y027412D02*
X006257Y027412D01*
X006257Y027531D02*
X003718Y027531D01*
X003707Y027649D02*
X006257Y027649D01*
X006257Y027768D02*
X003696Y027768D01*
X003685Y027886D02*
X006257Y027886D01*
X006257Y028005D02*
X003674Y028005D01*
X003663Y028123D02*
X004324Y028123D01*
X004150Y028187D02*
X004150Y028187D01*
X004084Y028242D02*
X003652Y028242D01*
X003642Y028360D02*
X003943Y028360D01*
X003822Y028462D02*
X003822Y028462D01*
X003822Y028462D01*
X003812Y028479D02*
X003631Y028479D01*
X003620Y028597D02*
X003744Y028597D01*
X003675Y028716D02*
X003609Y028716D01*
X003608Y028833D02*
X003608Y028833D01*
X003607Y028834D02*
X003598Y028834D01*
X003583Y029545D02*
X003585Y029545D01*
X003594Y029664D02*
X003605Y029664D01*
X003608Y029676D02*
X003608Y029676D01*
X003605Y029782D02*
X003669Y029782D01*
X003616Y029901D02*
X003737Y029901D01*
X003806Y030019D02*
X003627Y030019D01*
X003638Y030138D02*
X003930Y030138D01*
X004071Y030256D02*
X003649Y030256D01*
X003660Y030375D02*
X004294Y030375D01*
X004150Y030322D02*
X004150Y030322D01*
X003671Y030493D02*
X006257Y030493D01*
X006257Y030375D02*
X005238Y030375D01*
X005461Y030256D02*
X006257Y030256D01*
X006257Y030138D02*
X005603Y030138D01*
X005727Y030019D02*
X006257Y030019D01*
X006257Y029901D02*
X005795Y029901D01*
X005864Y029782D02*
X006257Y029782D01*
X006257Y029664D02*
X005927Y029664D01*
X005948Y029545D02*
X006257Y029545D01*
X006257Y029427D02*
X005969Y029427D01*
X005990Y029308D02*
X006257Y029308D01*
X006257Y029190D02*
X005988Y029190D01*
X005967Y029071D02*
X006257Y029071D01*
X006257Y028953D02*
X005946Y028953D01*
X005925Y028834D02*
X006257Y028834D01*
X006257Y028716D02*
X005857Y028716D01*
X005925Y028833D02*
X005925Y028833D01*
X005789Y028597D02*
X006257Y028597D01*
X006257Y028479D02*
X005721Y028479D01*
X005711Y028462D02*
X005711Y028462D01*
X005590Y028360D02*
X006257Y028360D01*
X006257Y028242D02*
X005449Y028242D01*
X005383Y028187D02*
X005383Y028187D01*
X005209Y028123D02*
X006257Y028123D01*
X003703Y029254D02*
X003705Y029319D01*
X003711Y029383D01*
X003721Y029447D01*
X003734Y029511D01*
X003752Y029573D01*
X003773Y029634D01*
X003798Y029694D01*
X003827Y029752D01*
X003859Y029809D01*
X003895Y029863D01*
X003933Y029915D01*
X003975Y029964D01*
X004020Y030011D01*
X004068Y030055D01*
X004118Y030097D01*
X004170Y030134D01*
X004225Y030169D01*
X004282Y030200D01*
X004341Y030228D01*
X004401Y030252D01*
X004462Y030273D01*
X004525Y030289D01*
X004589Y030302D01*
X004653Y030311D01*
X004717Y030316D01*
X004782Y030317D01*
X004847Y030314D01*
X004911Y030307D01*
X004975Y030296D01*
X005039Y030281D01*
X005101Y030263D01*
X005162Y030241D01*
X005221Y030215D01*
X005279Y030185D01*
X005334Y030152D01*
X005388Y030116D01*
X005440Y030076D01*
X005488Y030034D01*
X005535Y029988D01*
X005578Y029940D01*
X005618Y029889D01*
X005655Y029836D01*
X005689Y029781D01*
X005720Y029724D01*
X005747Y029665D01*
X005770Y029604D01*
X005789Y029542D01*
X005805Y029479D01*
X005817Y029415D01*
X005825Y029351D01*
X005829Y029286D01*
X005829Y029222D01*
X005825Y029157D01*
X005817Y029093D01*
X005805Y029029D01*
X005789Y028966D01*
X005770Y028904D01*
X005747Y028843D01*
X005720Y028784D01*
X005689Y028727D01*
X005655Y028672D01*
X005618Y028619D01*
X005578Y028568D01*
X005535Y028520D01*
X005488Y028474D01*
X005440Y028432D01*
X005388Y028392D01*
X005334Y028356D01*
X005279Y028323D01*
X005221Y028293D01*
X005162Y028267D01*
X005101Y028245D01*
X005039Y028227D01*
X004975Y028212D01*
X004911Y028201D01*
X004847Y028194D01*
X004782Y028191D01*
X004717Y028192D01*
X004653Y028197D01*
X004589Y028206D01*
X004525Y028219D01*
X004462Y028235D01*
X004401Y028256D01*
X004341Y028280D01*
X004282Y028308D01*
X004225Y028339D01*
X004170Y028374D01*
X004118Y028411D01*
X004068Y028453D01*
X004020Y028497D01*
X003975Y028544D01*
X003933Y028593D01*
X003895Y028645D01*
X003859Y028699D01*
X003827Y028756D01*
X003798Y028814D01*
X003773Y028874D01*
X003752Y028935D01*
X003734Y028997D01*
X003721Y029061D01*
X003711Y029125D01*
X003705Y029189D01*
X003703Y029254D01*
X003781Y029254D02*
X003783Y029316D01*
X003789Y029379D01*
X003799Y029440D01*
X003813Y029501D01*
X003830Y029561D01*
X003852Y029620D01*
X003877Y029677D01*
X003905Y029733D01*
X003937Y029787D01*
X003973Y029838D01*
X004011Y029887D01*
X004053Y029934D01*
X004098Y029978D01*
X004145Y030019D01*
X004195Y030056D01*
X004247Y030091D01*
X004301Y030122D01*
X004357Y030150D01*
X004414Y030174D01*
X004474Y030195D01*
X004534Y030211D01*
X004595Y030224D01*
X004657Y030233D01*
X004719Y030238D01*
X004782Y030239D01*
X004844Y030236D01*
X004906Y030229D01*
X004968Y030218D01*
X005028Y030203D01*
X005088Y030185D01*
X005147Y030163D01*
X005203Y030137D01*
X005259Y030107D01*
X005312Y030074D01*
X005363Y030038D01*
X005411Y029998D01*
X005457Y029956D01*
X005500Y029911D01*
X005540Y029863D01*
X005577Y029813D01*
X005611Y029760D01*
X005642Y029705D01*
X005668Y029649D01*
X005692Y029591D01*
X005711Y029532D01*
X005727Y029471D01*
X005739Y029410D01*
X005747Y029348D01*
X005751Y029285D01*
X005751Y029223D01*
X005747Y029160D01*
X005739Y029098D01*
X005727Y029037D01*
X005711Y028976D01*
X005692Y028917D01*
X005668Y028859D01*
X005642Y028803D01*
X005611Y028748D01*
X005577Y028695D01*
X005540Y028645D01*
X005500Y028597D01*
X005457Y028552D01*
X005411Y028510D01*
X005363Y028470D01*
X005312Y028434D01*
X005258Y028401D01*
X005203Y028371D01*
X005147Y028345D01*
X005088Y028323D01*
X005028Y028305D01*
X004968Y028290D01*
X004906Y028279D01*
X004844Y028272D01*
X004782Y028269D01*
X004719Y028270D01*
X004657Y028275D01*
X004595Y028284D01*
X004534Y028297D01*
X004474Y028313D01*
X004414Y028334D01*
X004357Y028358D01*
X004301Y028386D01*
X004247Y028417D01*
X004195Y028452D01*
X004145Y028489D01*
X004098Y028530D01*
X004053Y028574D01*
X004011Y028621D01*
X003973Y028670D01*
X003937Y028721D01*
X003905Y028775D01*
X003877Y028831D01*
X003852Y028888D01*
X003830Y028947D01*
X003813Y029007D01*
X003799Y029068D01*
X003789Y029129D01*
X003783Y029192D01*
X003781Y029254D01*
X003938Y029254D02*
X003940Y029311D01*
X003946Y029368D01*
X003956Y029424D01*
X003969Y029480D01*
X003987Y029534D01*
X004008Y029587D01*
X004033Y029639D01*
X004061Y029688D01*
X004093Y029736D01*
X004128Y029781D01*
X004166Y029824D01*
X004206Y029864D01*
X004250Y029901D01*
X004296Y029935D01*
X004344Y029966D01*
X004394Y029994D01*
X004446Y030018D01*
X004499Y030038D01*
X004554Y030054D01*
X004610Y030067D01*
X004666Y030076D01*
X004723Y030081D01*
X004780Y030082D01*
X004837Y030079D01*
X004894Y030072D01*
X004950Y030061D01*
X005006Y030047D01*
X005060Y030028D01*
X005112Y030006D01*
X005163Y029980D01*
X005213Y029951D01*
X005260Y029919D01*
X005304Y029883D01*
X005346Y029845D01*
X005386Y029803D01*
X005422Y029759D01*
X005455Y029713D01*
X005485Y029664D01*
X005512Y029613D01*
X005535Y029561D01*
X005554Y029507D01*
X005570Y029452D01*
X005582Y029396D01*
X005590Y029340D01*
X005594Y029283D01*
X005594Y029225D01*
X005590Y029168D01*
X005582Y029112D01*
X005570Y029056D01*
X005554Y029001D01*
X005535Y028947D01*
X005512Y028895D01*
X005485Y028844D01*
X005455Y028795D01*
X005422Y028749D01*
X005386Y028705D01*
X005346Y028663D01*
X005304Y028625D01*
X005260Y028589D01*
X005213Y028557D01*
X005163Y028528D01*
X005112Y028502D01*
X005060Y028480D01*
X005006Y028461D01*
X004950Y028447D01*
X004894Y028436D01*
X004837Y028429D01*
X004780Y028426D01*
X004723Y028427D01*
X004666Y028432D01*
X004610Y028441D01*
X004554Y028454D01*
X004499Y028470D01*
X004446Y028490D01*
X004394Y028514D01*
X004344Y028542D01*
X004296Y028573D01*
X004250Y028607D01*
X004206Y028644D01*
X004166Y028684D01*
X004128Y028727D01*
X004093Y028772D01*
X004061Y028820D01*
X004033Y028869D01*
X004008Y028921D01*
X003987Y028974D01*
X003969Y029028D01*
X003956Y029084D01*
X003946Y029140D01*
X003940Y029197D01*
X003938Y029254D01*
X003860Y029254D02*
X003862Y029314D01*
X003868Y029373D01*
X003878Y029433D01*
X003892Y029491D01*
X003909Y029548D01*
X003930Y029604D01*
X003955Y029659D01*
X003984Y029711D01*
X004016Y029762D01*
X004051Y029810D01*
X004089Y029857D01*
X004131Y029900D01*
X004175Y029940D01*
X004221Y029978D01*
X004270Y030012D01*
X004322Y030044D01*
X004375Y030071D01*
X004430Y030095D01*
X004486Y030116D01*
X004544Y030132D01*
X004602Y030145D01*
X004661Y030154D01*
X004721Y030159D01*
X004781Y030160D01*
X004841Y030157D01*
X004900Y030150D01*
X004959Y030139D01*
X005017Y030124D01*
X005074Y030106D01*
X005130Y030084D01*
X005184Y030058D01*
X005236Y030028D01*
X005286Y029996D01*
X005334Y029960D01*
X005380Y029921D01*
X005422Y029879D01*
X005462Y029834D01*
X005499Y029787D01*
X005533Y029737D01*
X005563Y029685D01*
X005590Y029632D01*
X005613Y029576D01*
X005632Y029520D01*
X005648Y029462D01*
X005660Y029403D01*
X005668Y029344D01*
X005672Y029284D01*
X005672Y029224D01*
X005668Y029164D01*
X005660Y029105D01*
X005648Y029046D01*
X005632Y028988D01*
X005613Y028932D01*
X005590Y028876D01*
X005563Y028823D01*
X005533Y028771D01*
X005499Y028721D01*
X005462Y028674D01*
X005422Y028629D01*
X005380Y028587D01*
X005334Y028548D01*
X005286Y028512D01*
X005236Y028480D01*
X005184Y028450D01*
X005130Y028424D01*
X005074Y028402D01*
X005017Y028384D01*
X004959Y028369D01*
X004900Y028358D01*
X004841Y028351D01*
X004781Y028348D01*
X004721Y028349D01*
X004661Y028354D01*
X004602Y028363D01*
X004544Y028376D01*
X004486Y028392D01*
X004430Y028413D01*
X004375Y028437D01*
X004322Y028464D01*
X004270Y028496D01*
X004221Y028530D01*
X004175Y028568D01*
X004131Y028608D01*
X004089Y028651D01*
X004051Y028698D01*
X004016Y028746D01*
X003984Y028797D01*
X003955Y028849D01*
X003930Y028904D01*
X003909Y028960D01*
X003892Y029017D01*
X003878Y029075D01*
X003868Y029135D01*
X003862Y029194D01*
X003860Y029254D01*
X003978Y029254D02*
X003980Y029310D01*
X003986Y029365D01*
X003996Y029420D01*
X004009Y029474D01*
X004027Y029526D01*
X004048Y029578D01*
X004072Y029628D01*
X004100Y029676D01*
X004132Y029722D01*
X004166Y029765D01*
X004204Y029806D01*
X004244Y029845D01*
X004287Y029880D01*
X004333Y029912D01*
X004380Y029941D01*
X004429Y029967D01*
X004481Y029988D01*
X004533Y030007D01*
X004587Y030021D01*
X004641Y030032D01*
X004697Y030039D01*
X004752Y030042D01*
X004808Y030041D01*
X004863Y030036D01*
X004918Y030027D01*
X004972Y030015D01*
X005025Y029998D01*
X005077Y029978D01*
X005127Y029954D01*
X005176Y029927D01*
X005222Y029896D01*
X005267Y029863D01*
X005308Y029826D01*
X005347Y029786D01*
X005383Y029744D01*
X005416Y029699D01*
X005446Y029652D01*
X005472Y029603D01*
X005495Y029552D01*
X005515Y029500D01*
X005530Y029447D01*
X005542Y029392D01*
X005550Y029337D01*
X005554Y029282D01*
X005554Y029226D01*
X005550Y029171D01*
X005542Y029116D01*
X005530Y029061D01*
X005515Y029008D01*
X005495Y028956D01*
X005472Y028905D01*
X005446Y028856D01*
X005416Y028809D01*
X005383Y028764D01*
X005347Y028722D01*
X005308Y028682D01*
X005267Y028645D01*
X005222Y028612D01*
X005176Y028581D01*
X005127Y028554D01*
X005077Y028530D01*
X005025Y028510D01*
X004972Y028493D01*
X004918Y028481D01*
X004863Y028472D01*
X004808Y028467D01*
X004752Y028466D01*
X004697Y028469D01*
X004641Y028476D01*
X004587Y028487D01*
X004533Y028501D01*
X004481Y028520D01*
X004429Y028541D01*
X004380Y028567D01*
X004333Y028596D01*
X004287Y028628D01*
X004244Y028663D01*
X004204Y028702D01*
X004166Y028743D01*
X004132Y028786D01*
X004100Y028832D01*
X004072Y028880D01*
X004048Y028930D01*
X004027Y028982D01*
X004009Y029034D01*
X003996Y029088D01*
X003986Y029143D01*
X003980Y029198D01*
X003978Y029254D01*
X004018Y029254D02*
X004020Y029309D01*
X004026Y029363D01*
X004036Y029417D01*
X004050Y029469D01*
X004067Y029521D01*
X004089Y029571D01*
X004114Y029620D01*
X004142Y029667D01*
X004174Y029711D01*
X004209Y029753D01*
X004247Y029792D01*
X004288Y029829D01*
X004331Y029862D01*
X004376Y029892D01*
X004424Y029919D01*
X004473Y029942D01*
X004524Y029962D01*
X004577Y029978D01*
X004630Y029990D01*
X004684Y029998D01*
X004739Y030002D01*
X004793Y030002D01*
X004848Y029998D01*
X004902Y029990D01*
X004955Y029978D01*
X005008Y029962D01*
X005059Y029942D01*
X005108Y029919D01*
X005156Y029892D01*
X005201Y029862D01*
X005244Y029829D01*
X005285Y029792D01*
X005323Y029753D01*
X005358Y029711D01*
X005390Y029667D01*
X005418Y029620D01*
X005443Y029571D01*
X005465Y029521D01*
X005482Y029469D01*
X005496Y029417D01*
X005506Y029363D01*
X005512Y029309D01*
X005514Y029254D01*
X005512Y029199D01*
X005506Y029145D01*
X005496Y029091D01*
X005482Y029039D01*
X005465Y028987D01*
X005443Y028937D01*
X005418Y028888D01*
X005390Y028841D01*
X005358Y028797D01*
X005323Y028755D01*
X005285Y028716D01*
X005244Y028679D01*
X005201Y028646D01*
X005156Y028616D01*
X005108Y028589D01*
X005059Y028566D01*
X005008Y028546D01*
X004955Y028530D01*
X004902Y028518D01*
X004848Y028510D01*
X004793Y028506D01*
X004739Y028506D01*
X004684Y028510D01*
X004630Y028518D01*
X004577Y028530D01*
X004524Y028546D01*
X004473Y028566D01*
X004424Y028589D01*
X004376Y028616D01*
X004331Y028646D01*
X004288Y028679D01*
X004247Y028716D01*
X004209Y028755D01*
X004174Y028797D01*
X004142Y028841D01*
X004114Y028888D01*
X004089Y028937D01*
X004067Y028987D01*
X004050Y029039D01*
X004036Y029091D01*
X004026Y029145D01*
X004020Y029199D01*
X004018Y029254D01*
X004175Y029254D02*
X004177Y029302D01*
X004183Y029350D01*
X004193Y029397D01*
X004206Y029443D01*
X004224Y029488D01*
X004244Y029532D01*
X004269Y029574D01*
X004297Y029613D01*
X004327Y029650D01*
X004361Y029684D01*
X004398Y029716D01*
X004436Y029745D01*
X004477Y029770D01*
X004520Y029792D01*
X004565Y029810D01*
X004611Y029824D01*
X004658Y029835D01*
X004706Y029842D01*
X004754Y029845D01*
X004802Y029844D01*
X004850Y029839D01*
X004898Y029830D01*
X004944Y029818D01*
X004989Y029801D01*
X005033Y029781D01*
X005075Y029758D01*
X005115Y029731D01*
X005153Y029701D01*
X005188Y029668D01*
X005220Y029632D01*
X005250Y029594D01*
X005276Y029553D01*
X005298Y029510D01*
X005318Y029466D01*
X005333Y029421D01*
X005345Y029374D01*
X005353Y029326D01*
X005357Y029278D01*
X005357Y029230D01*
X005353Y029182D01*
X005345Y029134D01*
X005333Y029087D01*
X005318Y029042D01*
X005298Y028998D01*
X005276Y028955D01*
X005250Y028914D01*
X005220Y028876D01*
X005188Y028840D01*
X005153Y028807D01*
X005115Y028777D01*
X005075Y028750D01*
X005033Y028727D01*
X004989Y028707D01*
X004944Y028690D01*
X004898Y028678D01*
X004850Y028669D01*
X004802Y028664D01*
X004754Y028663D01*
X004706Y028666D01*
X004658Y028673D01*
X004611Y028684D01*
X004565Y028698D01*
X004520Y028716D01*
X004477Y028738D01*
X004436Y028763D01*
X004398Y028792D01*
X004361Y028824D01*
X004327Y028858D01*
X004297Y028895D01*
X004269Y028934D01*
X004244Y028976D01*
X004224Y029020D01*
X004206Y029065D01*
X004193Y029111D01*
X004183Y029158D01*
X004177Y029206D01*
X004175Y029254D01*
X004096Y029254D02*
X004098Y029305D01*
X004104Y029356D01*
X004114Y029407D01*
X004127Y029456D01*
X004145Y029504D01*
X004166Y029551D01*
X004190Y029596D01*
X004218Y029639D01*
X004249Y029680D01*
X004283Y029719D01*
X004320Y029754D01*
X004360Y029787D01*
X004402Y029816D01*
X004446Y029843D01*
X004492Y029865D01*
X004540Y029885D01*
X004588Y029900D01*
X004638Y029912D01*
X004689Y029920D01*
X004740Y029924D01*
X004792Y029924D01*
X004843Y029920D01*
X004894Y029912D01*
X004944Y029900D01*
X004992Y029885D01*
X005040Y029865D01*
X005086Y029843D01*
X005130Y029816D01*
X005172Y029787D01*
X005212Y029754D01*
X005249Y029719D01*
X005283Y029680D01*
X005314Y029639D01*
X005342Y029596D01*
X005366Y029551D01*
X005387Y029504D01*
X005405Y029456D01*
X005418Y029407D01*
X005428Y029356D01*
X005434Y029305D01*
X005436Y029254D01*
X005434Y029203D01*
X005428Y029152D01*
X005418Y029101D01*
X005405Y029052D01*
X005387Y029004D01*
X005366Y028957D01*
X005342Y028912D01*
X005314Y028869D01*
X005283Y028828D01*
X005249Y028789D01*
X005212Y028754D01*
X005172Y028721D01*
X005130Y028692D01*
X005086Y028665D01*
X005040Y028643D01*
X004992Y028623D01*
X004944Y028608D01*
X004894Y028596D01*
X004843Y028588D01*
X004792Y028584D01*
X004740Y028584D01*
X004689Y028588D01*
X004638Y028596D01*
X004588Y028608D01*
X004540Y028623D01*
X004492Y028643D01*
X004446Y028665D01*
X004402Y028692D01*
X004360Y028721D01*
X004320Y028754D01*
X004283Y028789D01*
X004249Y028828D01*
X004218Y028869D01*
X004190Y028912D01*
X004166Y028957D01*
X004145Y029004D01*
X004127Y029052D01*
X004114Y029101D01*
X004104Y029152D01*
X004098Y029203D01*
X004096Y029254D01*
X003682Y030612D02*
X006257Y030612D01*
X006257Y030730D02*
X003693Y030730D01*
X003704Y030849D02*
X006257Y030849D01*
X006257Y030967D02*
X003715Y030967D01*
X003726Y031086D02*
X006257Y031086D01*
X006257Y031204D02*
X003737Y031204D01*
X003748Y031323D02*
X006257Y031323D01*
X006257Y031441D02*
X003759Y031441D01*
X003770Y031560D02*
X006257Y031560D01*
X006257Y031678D02*
X003781Y031678D01*
X003792Y031797D02*
X006257Y031797D01*
X006257Y031915D02*
X003802Y031915D01*
X003813Y032034D02*
X006257Y032034D01*
X006257Y032152D02*
X003824Y032152D01*
X003835Y032271D02*
X006257Y032271D01*
X006257Y032389D02*
X003846Y032389D01*
X003857Y032508D02*
X006257Y032508D01*
X006257Y032626D02*
X003868Y032626D01*
X003879Y032745D02*
X006257Y032745D01*
X006257Y032863D02*
X003890Y032863D01*
X003901Y032982D02*
X006257Y032982D01*
X006257Y033100D02*
X003912Y033100D01*
X003923Y033219D02*
X006257Y033219D01*
X006257Y033337D02*
X003934Y033337D01*
X003945Y033456D02*
X006257Y033456D01*
X006257Y033574D02*
X003956Y033574D01*
X003967Y033693D02*
X006257Y033693D01*
X006257Y033811D02*
X003978Y033811D01*
X003989Y033930D02*
X006257Y033930D01*
X006257Y034048D02*
X004000Y034048D01*
X004011Y034167D02*
X006257Y034167D01*
X006257Y034285D02*
X004022Y034285D01*
X004033Y034404D02*
X006257Y034404D01*
X006257Y034522D02*
X004043Y034522D01*
X004054Y034641D02*
X006257Y034641D01*
X006257Y034759D02*
X004065Y034759D01*
X004076Y034878D02*
X006257Y034878D01*
X006328Y034996D02*
X004087Y034996D01*
X004142Y035589D02*
X016011Y035589D01*
X011853Y031223D02*
X011855Y031278D01*
X011861Y031332D01*
X011871Y031386D01*
X011885Y031438D01*
X011902Y031490D01*
X011924Y031540D01*
X011949Y031589D01*
X011977Y031636D01*
X012009Y031680D01*
X012044Y031722D01*
X012082Y031761D01*
X012123Y031798D01*
X012166Y031831D01*
X012211Y031861D01*
X012259Y031888D01*
X012308Y031911D01*
X012359Y031931D01*
X012412Y031947D01*
X012465Y031959D01*
X012519Y031967D01*
X012574Y031971D01*
X012628Y031971D01*
X012683Y031967D01*
X012737Y031959D01*
X012790Y031947D01*
X012843Y031931D01*
X012894Y031911D01*
X012943Y031888D01*
X012991Y031861D01*
X013036Y031831D01*
X013079Y031798D01*
X013120Y031761D01*
X013158Y031722D01*
X013193Y031680D01*
X013225Y031636D01*
X013253Y031589D01*
X013278Y031540D01*
X013300Y031490D01*
X013317Y031438D01*
X013331Y031386D01*
X013341Y031332D01*
X013347Y031278D01*
X013349Y031223D01*
X013347Y031168D01*
X013341Y031114D01*
X013331Y031060D01*
X013317Y031008D01*
X013300Y030956D01*
X013278Y030906D01*
X013253Y030857D01*
X013225Y030810D01*
X013193Y030766D01*
X013158Y030724D01*
X013120Y030685D01*
X013079Y030648D01*
X013036Y030615D01*
X012991Y030585D01*
X012943Y030558D01*
X012894Y030535D01*
X012843Y030515D01*
X012790Y030499D01*
X012737Y030487D01*
X012683Y030479D01*
X012628Y030475D01*
X012574Y030475D01*
X012519Y030479D01*
X012465Y030487D01*
X012412Y030499D01*
X012359Y030515D01*
X012308Y030535D01*
X012259Y030558D01*
X012211Y030585D01*
X012166Y030615D01*
X012123Y030648D01*
X012082Y030685D01*
X012044Y030724D01*
X012009Y030766D01*
X011977Y030810D01*
X011949Y030857D01*
X011924Y030906D01*
X011902Y030956D01*
X011885Y031008D01*
X011871Y031060D01*
X011861Y031114D01*
X011855Y031168D01*
X011853Y031223D01*
X011924Y031223D02*
X011926Y031275D01*
X011932Y031326D01*
X011942Y031377D01*
X011956Y031427D01*
X011973Y031476D01*
X011994Y031523D01*
X012019Y031569D01*
X012047Y031612D01*
X012079Y031654D01*
X012113Y031692D01*
X012151Y031728D01*
X012191Y031761D01*
X012233Y031791D01*
X012278Y031818D01*
X012324Y031841D01*
X012372Y031860D01*
X012422Y031876D01*
X012472Y031888D01*
X012523Y031896D01*
X012575Y031900D01*
X012627Y031900D01*
X012679Y031896D01*
X012730Y031888D01*
X012780Y031876D01*
X012830Y031860D01*
X012878Y031841D01*
X012924Y031818D01*
X012969Y031791D01*
X013011Y031761D01*
X013051Y031728D01*
X013089Y031692D01*
X013123Y031654D01*
X013155Y031612D01*
X013183Y031569D01*
X013208Y031523D01*
X013229Y031476D01*
X013246Y031427D01*
X013260Y031377D01*
X013270Y031326D01*
X013276Y031275D01*
X013278Y031223D01*
X013276Y031171D01*
X013270Y031120D01*
X013260Y031069D01*
X013246Y031019D01*
X013229Y030970D01*
X013208Y030923D01*
X013183Y030877D01*
X013155Y030834D01*
X013123Y030792D01*
X013089Y030754D01*
X013051Y030718D01*
X013011Y030685D01*
X012969Y030655D01*
X012924Y030628D01*
X012878Y030605D01*
X012830Y030586D01*
X012780Y030570D01*
X012730Y030558D01*
X012679Y030550D01*
X012627Y030546D01*
X012575Y030546D01*
X012523Y030550D01*
X012472Y030558D01*
X012422Y030570D01*
X012372Y030586D01*
X012324Y030605D01*
X012278Y030628D01*
X012233Y030655D01*
X012191Y030685D01*
X012151Y030718D01*
X012113Y030754D01*
X012079Y030792D01*
X012047Y030834D01*
X012019Y030877D01*
X011994Y030923D01*
X011973Y030970D01*
X011956Y031019D01*
X011942Y031069D01*
X011932Y031120D01*
X011926Y031171D01*
X011924Y031223D01*
X011086Y025516D02*
X010527Y025516D01*
X010527Y025398D02*
X011027Y025398D01*
X010999Y025279D02*
X010527Y025279D01*
X010527Y025161D02*
X010999Y025161D01*
X010999Y025042D02*
X010527Y025042D01*
X010527Y024924D02*
X010999Y024924D01*
X010999Y024805D02*
X010527Y024805D01*
X010527Y024687D02*
X010999Y024687D01*
X010999Y024568D02*
X010527Y024568D01*
X010527Y024450D02*
X010999Y024450D01*
X010999Y024331D02*
X010527Y024331D01*
X010527Y024213D02*
X011044Y024213D01*
X011126Y024094D02*
X010527Y024094D01*
X010527Y023976D02*
X011245Y023976D01*
X011363Y023857D02*
X010527Y023857D01*
X013880Y025398D02*
X014393Y025398D01*
X014511Y025516D02*
X014002Y025516D01*
X015337Y024331D02*
X015920Y024331D01*
X015802Y024213D02*
X015455Y024213D01*
X015574Y024094D02*
X015683Y024094D01*
X015649Y023976D02*
X015609Y023976D01*
X015609Y023857D02*
X015649Y023857D01*
X015649Y023739D02*
X015609Y023739D01*
X015567Y023620D02*
X015690Y023620D01*
X015809Y023502D02*
X015448Y023502D01*
X015330Y023383D02*
X015927Y023383D01*
X015854Y023265D02*
X015403Y023265D01*
X015327Y023341D02*
X014930Y023341D01*
X014649Y023060D01*
X014649Y022662D01*
X014930Y022381D01*
X015327Y022381D01*
X015609Y022662D01*
X015609Y023060D01*
X015327Y023341D01*
X015522Y023146D02*
X015735Y023146D01*
X015649Y023028D02*
X015609Y023028D01*
X015609Y022909D02*
X015649Y022909D01*
X015649Y022791D02*
X015609Y022791D01*
X015609Y022672D02*
X015649Y022672D01*
X015757Y022554D02*
X015500Y022554D01*
X015382Y022435D02*
X015875Y022435D01*
X016382Y022435D02*
X016804Y022435D01*
X016686Y022554D02*
X016500Y022554D01*
X017089Y022554D02*
X017169Y022554D01*
X017169Y022672D02*
X017089Y022672D01*
X017089Y022791D02*
X017169Y022791D01*
X017169Y022901D02*
X017089Y022901D01*
X017089Y023391D01*
X017089Y023821D01*
X017169Y023821D01*
X017169Y022901D01*
X017169Y022909D02*
X017089Y022909D01*
X017089Y023028D02*
X017169Y023028D01*
X017169Y023146D02*
X017089Y023146D01*
X017089Y023265D02*
X017169Y023265D01*
X017169Y023383D02*
X017089Y023383D01*
X017089Y023502D02*
X017169Y023502D01*
X017169Y023620D02*
X017089Y023620D01*
X017089Y023739D02*
X017169Y023739D01*
X017169Y023976D02*
X017089Y023976D01*
X017089Y024094D02*
X017169Y024094D01*
X017169Y024213D02*
X017089Y024213D01*
X017089Y024331D02*
X017169Y024331D01*
X017408Y024331D02*
X017689Y024331D01*
X017669Y024213D02*
X017526Y024213D01*
X017645Y024094D02*
X017669Y024094D01*
X017690Y023620D02*
X017638Y023620D01*
X017519Y023502D02*
X017809Y023502D01*
X017927Y023383D02*
X017401Y023383D01*
X017474Y023265D02*
X017854Y023265D01*
X017735Y023146D02*
X017593Y023146D01*
X017571Y022554D02*
X017757Y022554D01*
X017875Y022435D02*
X017453Y022435D01*
X017169Y022435D02*
X017089Y022435D01*
X016665Y023146D02*
X016522Y023146D01*
X016403Y023265D02*
X016783Y023265D01*
X016856Y023383D02*
X016330Y023383D01*
X016448Y023502D02*
X016738Y023502D01*
X016619Y023620D02*
X016567Y023620D01*
X016574Y024094D02*
X016613Y024094D01*
X016731Y024213D02*
X016455Y024213D01*
X016337Y024331D02*
X016850Y024331D01*
X016914Y025161D02*
X018454Y025161D01*
X018479Y026109D02*
X026747Y026109D01*
X026747Y026227D02*
X018649Y026227D01*
X018730Y026346D02*
X026747Y026346D01*
X026747Y026464D02*
X018771Y026464D01*
X018768Y026583D02*
X026747Y026583D01*
X026747Y026701D02*
X019290Y026701D01*
X019154Y026701D02*
X018741Y026701D01*
X017743Y025990D02*
X026747Y025990D01*
X026747Y025974D02*
X026747Y025921D01*
X026747Y023887D01*
X026817Y023718D01*
X027329Y023207D01*
X027458Y023077D01*
X027628Y023007D01*
X031032Y023007D01*
X031502Y022537D01*
X031632Y022408D01*
X031801Y022338D01*
X033370Y022338D01*
X033539Y022408D01*
X033614Y022482D01*
X033789Y022482D01*
X033853Y022547D01*
X033853Y023268D01*
X033789Y023332D01*
X033564Y023332D01*
X033480Y023367D01*
X033297Y023367D01*
X033212Y023332D01*
X032988Y023332D01*
X032923Y023268D01*
X032923Y023258D01*
X032083Y023258D01*
X031484Y023857D01*
X031314Y023927D01*
X027910Y023927D01*
X027667Y024169D01*
X027667Y027141D01*
X027597Y027310D01*
X027468Y027440D01*
X027299Y027510D01*
X027116Y027510D01*
X026947Y027440D01*
X026817Y027310D01*
X026747Y027141D01*
X026747Y025974D01*
X026747Y025872D02*
X017625Y025872D01*
X017506Y025753D02*
X026747Y025753D01*
X026747Y025635D02*
X017388Y025635D01*
X017269Y025516D02*
X026747Y025516D01*
X026747Y025398D02*
X017151Y025398D01*
X017032Y025279D02*
X026747Y025279D01*
X026747Y025161D02*
X025134Y025161D01*
X025259Y025042D02*
X026747Y025042D01*
X026747Y024924D02*
X025377Y024924D01*
X025496Y024805D02*
X026747Y024805D01*
X026747Y024687D02*
X025614Y024687D01*
X025695Y024568D02*
X026747Y024568D01*
X026747Y024450D02*
X025738Y024450D01*
X025738Y024331D02*
X026747Y024331D01*
X026747Y024213D02*
X025738Y024213D01*
X025738Y024094D02*
X026747Y024094D01*
X026747Y023976D02*
X026588Y023976D01*
X026556Y023999D02*
X026482Y024037D01*
X026402Y024063D01*
X026320Y024076D01*
X026318Y024076D01*
X026318Y023586D01*
X026808Y023586D01*
X026808Y023588D01*
X026795Y023670D01*
X026769Y023749D01*
X026731Y023824D01*
X026682Y023891D01*
X026623Y023950D01*
X026556Y023999D01*
X026707Y023857D02*
X026760Y023857D01*
X026773Y023739D02*
X026809Y023739D01*
X026803Y023620D02*
X026915Y023620D01*
X026808Y023506D02*
X026318Y023506D01*
X026318Y023016D01*
X026320Y023016D01*
X026402Y023029D01*
X026482Y023055D01*
X026556Y023093D01*
X026623Y023142D01*
X026682Y023201D01*
X026731Y023268D01*
X026769Y023342D01*
X026795Y023422D01*
X026808Y023504D01*
X026808Y023506D01*
X026808Y023502D02*
X027034Y023502D01*
X027152Y023383D02*
X026783Y023383D01*
X026729Y023265D02*
X027271Y023265D01*
X027389Y023146D02*
X026628Y023146D01*
X026396Y023028D02*
X027578Y023028D01*
X028085Y022131D02*
X028085Y022131D01*
X028194Y022080D02*
X031608Y022080D01*
X031604Y022435D02*
X022382Y022435D01*
X022327Y022381D02*
X022609Y022662D01*
X022609Y023060D01*
X022327Y023341D01*
X021930Y023341D01*
X021649Y023060D01*
X021649Y022662D01*
X021930Y022381D01*
X022327Y022381D01*
X022500Y022554D02*
X031486Y022554D01*
X031367Y022672D02*
X022609Y022672D01*
X022609Y022791D02*
X031249Y022791D01*
X031130Y022909D02*
X022609Y022909D01*
X022609Y023028D02*
X026161Y023028D01*
X026238Y023028D02*
X026318Y023028D01*
X026318Y023146D02*
X026238Y023146D01*
X026238Y023265D02*
X026318Y023265D01*
X026318Y023383D02*
X026238Y023383D01*
X026238Y023502D02*
X026318Y023502D01*
X026318Y023620D02*
X026238Y023620D01*
X026238Y023739D02*
X026318Y023739D01*
X026318Y023857D02*
X026238Y023857D01*
X026238Y023976D02*
X026318Y023976D01*
X025968Y023976D02*
X025738Y023976D01*
X025738Y023857D02*
X025849Y023857D01*
X025784Y023739D02*
X025738Y023739D01*
X025730Y023383D02*
X025774Y023383D01*
X025827Y023265D02*
X025676Y023265D01*
X025557Y023146D02*
X025928Y023146D01*
X024999Y023146D02*
X022522Y023146D01*
X022403Y023265D02*
X024880Y023265D01*
X024826Y023383D02*
X022330Y023383D01*
X022448Y023502D02*
X024798Y023502D01*
X024798Y023620D02*
X022567Y023620D01*
X022609Y023739D02*
X024818Y023739D01*
X024818Y023857D02*
X022609Y023857D01*
X022609Y023976D02*
X024818Y023976D01*
X024818Y024094D02*
X022574Y024094D01*
X022455Y024213D02*
X024787Y024213D01*
X026518Y022198D02*
X033853Y022198D01*
X034046Y022317D02*
X004398Y022317D01*
X004288Y022435D02*
X014875Y022435D01*
X014757Y022554D02*
X004219Y022554D01*
X004178Y022672D02*
X014649Y022672D01*
X014649Y023028D02*
X004134Y023028D01*
X004123Y023146D02*
X014735Y023146D01*
X014854Y023265D02*
X004112Y023265D01*
X004101Y023383D02*
X014927Y023383D01*
X018330Y023383D02*
X018927Y023383D01*
X018930Y023341D02*
X018649Y023060D01*
X018649Y022662D01*
X018930Y022381D01*
X019327Y022381D01*
X019609Y022662D01*
X019609Y023060D01*
X019327Y023341D01*
X018930Y023341D01*
X018854Y023265D02*
X018403Y023265D01*
X018522Y023146D02*
X018735Y023146D01*
X018649Y023028D02*
X018609Y023028D01*
X018609Y022909D02*
X018649Y022909D01*
X018649Y022791D02*
X018609Y022791D01*
X018609Y022672D02*
X018649Y022672D01*
X018757Y022554D02*
X018500Y022554D01*
X018382Y022435D02*
X018875Y022435D01*
X019382Y022435D02*
X019875Y022435D01*
X019930Y022381D02*
X019649Y022662D01*
X019649Y023060D01*
X019930Y023341D01*
X020327Y023341D01*
X020609Y023060D01*
X020609Y022662D01*
X020327Y022381D01*
X019930Y022381D01*
X019757Y022554D02*
X019500Y022554D01*
X019609Y022672D02*
X019649Y022672D01*
X019649Y022791D02*
X019609Y022791D01*
X019609Y022909D02*
X019649Y022909D01*
X019649Y023028D02*
X019609Y023028D01*
X019522Y023146D02*
X019735Y023146D01*
X019854Y023265D02*
X019403Y023265D01*
X019330Y023383D02*
X019927Y023383D01*
X019809Y023502D02*
X019448Y023502D01*
X019567Y023620D02*
X019690Y023620D01*
X019649Y023739D02*
X019609Y023739D01*
X019609Y023857D02*
X019649Y023857D01*
X019649Y023976D02*
X019609Y023976D01*
X019574Y024094D02*
X019683Y024094D01*
X019802Y024213D02*
X019455Y024213D01*
X018802Y024213D02*
X018800Y024213D01*
X018683Y024094D02*
X018682Y024094D01*
X018649Y023976D02*
X018609Y023976D01*
X018609Y023857D02*
X018649Y023857D01*
X018649Y023739D02*
X018609Y023739D01*
X018567Y023620D02*
X018690Y023620D01*
X018809Y023502D02*
X018448Y023502D01*
X020330Y023383D02*
X020927Y023383D01*
X020930Y023341D02*
X020649Y023060D01*
X020649Y022662D01*
X020930Y022381D01*
X021327Y022381D01*
X021609Y022662D01*
X021609Y023060D01*
X021327Y023341D01*
X020930Y023341D01*
X020854Y023265D02*
X020403Y023265D01*
X020522Y023146D02*
X020735Y023146D01*
X020649Y023028D02*
X020609Y023028D01*
X020609Y022909D02*
X020649Y022909D01*
X020649Y022791D02*
X020609Y022791D01*
X020609Y022672D02*
X020649Y022672D01*
X020757Y022554D02*
X020500Y022554D01*
X020382Y022435D02*
X020875Y022435D01*
X021382Y022435D02*
X021875Y022435D01*
X021757Y022554D02*
X021500Y022554D01*
X021609Y022672D02*
X021649Y022672D01*
X021649Y022791D02*
X021609Y022791D01*
X021609Y022909D02*
X021649Y022909D01*
X021649Y023028D02*
X021609Y023028D01*
X021522Y023146D02*
X021735Y023146D01*
X021854Y023265D02*
X021403Y023265D01*
X021330Y023383D02*
X021927Y023383D01*
X021809Y023502D02*
X021448Y023502D01*
X021567Y023620D02*
X021690Y023620D01*
X021649Y023739D02*
X021609Y023739D01*
X021609Y023857D02*
X021649Y023857D01*
X021649Y023976D02*
X021609Y023976D01*
X021574Y024094D02*
X021683Y024094D01*
X021802Y024213D02*
X021455Y024213D01*
X020802Y024213D02*
X020455Y024213D01*
X020574Y024094D02*
X020683Y024094D01*
X020649Y023976D02*
X020609Y023976D01*
X020609Y023857D02*
X020649Y023857D01*
X020649Y023739D02*
X020609Y023739D01*
X020567Y023620D02*
X020690Y023620D01*
X020809Y023502D02*
X020448Y023502D01*
X019963Y026820D02*
X026747Y026820D01*
X026747Y026938D02*
X020250Y026938D01*
X020536Y027057D02*
X026747Y027057D01*
X026761Y027175D02*
X020678Y027175D01*
X020834Y027294D02*
X026810Y027294D01*
X026919Y027412D02*
X021005Y027412D01*
X021102Y027531D02*
X027917Y027531D01*
X027917Y027649D02*
X021194Y027649D01*
X021286Y027768D02*
X027917Y027768D01*
X027917Y027886D02*
X021378Y027886D01*
X021469Y028005D02*
X027917Y028005D01*
X027917Y028123D02*
X021508Y028123D01*
X021557Y028242D02*
X027917Y028242D01*
X027917Y028360D02*
X025045Y028360D01*
X025093Y028370D02*
X025093Y028370D01*
X024727Y028297D01*
X024727Y028297D01*
X024361Y028370D01*
X024050Y028578D01*
X024050Y028578D01*
X023842Y028888D01*
X023842Y028888D01*
X023770Y029254D01*
X023770Y029254D01*
X023842Y029621D01*
X023842Y029621D01*
X024050Y029931D01*
X024050Y029931D01*
X024050Y029931D01*
X024361Y030139D01*
X024361Y030139D01*
X024727Y030212D01*
X024727Y030212D01*
X025093Y030139D01*
X025093Y030139D01*
X025404Y029931D01*
X025404Y029931D01*
X025611Y029621D01*
X025611Y029621D01*
X025684Y029254D01*
X025611Y028888D01*
X025611Y028888D01*
X025404Y028578D01*
X025404Y028578D01*
X025404Y028578D01*
X025093Y028370D01*
X025256Y028479D02*
X027917Y028479D01*
X027917Y028597D02*
X025417Y028597D01*
X025496Y028716D02*
X027917Y028716D01*
X027917Y028834D02*
X025576Y028834D01*
X025624Y028953D02*
X027917Y028953D01*
X027917Y029071D02*
X025648Y029071D01*
X025671Y029190D02*
X027917Y029190D01*
X027917Y029308D02*
X025674Y029308D01*
X025650Y029427D02*
X027917Y029427D01*
X027917Y029545D02*
X025626Y029545D01*
X025583Y029664D02*
X027917Y029664D01*
X027917Y029782D02*
X025504Y029782D01*
X025424Y029901D02*
X027917Y029901D01*
X027917Y030019D02*
X025272Y030019D01*
X025404Y029931D02*
X025404Y029931D01*
X025095Y030138D02*
X027917Y030138D01*
X027917Y030256D02*
X021787Y030256D01*
X021787Y030138D02*
X024359Y030138D01*
X024181Y030019D02*
X021787Y030019D01*
X021787Y029901D02*
X024029Y029901D01*
X023950Y029782D02*
X021787Y029782D01*
X021787Y029664D02*
X023871Y029664D01*
X023827Y029545D02*
X021787Y029545D01*
X021787Y029427D02*
X023804Y029427D01*
X023780Y029308D02*
X021793Y029308D01*
X021778Y029190D02*
X023782Y029190D01*
X023806Y029071D02*
X021763Y029071D01*
X021748Y028953D02*
X023830Y028953D01*
X023878Y028834D02*
X021733Y028834D01*
X021718Y028716D02*
X023958Y028716D01*
X024037Y028597D02*
X021704Y028597D01*
X021655Y028479D02*
X024198Y028479D01*
X024409Y028360D02*
X021606Y028360D01*
X021787Y030375D02*
X027917Y030375D01*
X027917Y030493D02*
X021787Y030493D01*
X021787Y030612D02*
X027917Y030612D01*
X027917Y030730D02*
X021787Y030730D01*
X021787Y030849D02*
X027917Y030849D01*
X027917Y030967D02*
X021787Y030967D01*
X021787Y031086D02*
X027917Y031086D01*
X027917Y031204D02*
X021787Y031204D01*
X021787Y031323D02*
X027917Y031323D01*
X027917Y031441D02*
X021787Y031441D01*
X021787Y031560D02*
X027917Y031560D01*
X027917Y031678D02*
X021787Y031678D01*
X021787Y031797D02*
X027917Y031797D01*
X027917Y031915D02*
X021787Y031915D01*
X021787Y032034D02*
X027917Y032034D01*
X027917Y032152D02*
X021787Y032152D01*
X021787Y032271D02*
X027917Y032271D01*
X027917Y032389D02*
X021787Y032389D01*
X021787Y032508D02*
X027917Y032508D01*
X027917Y032626D02*
X021787Y032626D01*
X021787Y032745D02*
X027917Y032745D01*
X027917Y032863D02*
X021787Y032863D01*
X021787Y032982D02*
X027917Y032982D01*
X027917Y033100D02*
X021787Y033100D01*
X021787Y033219D02*
X027917Y033219D01*
X027917Y033337D02*
X021787Y033337D01*
X021787Y033456D02*
X027917Y033456D01*
X027917Y033574D02*
X021787Y033574D01*
X021787Y033693D02*
X027917Y033693D01*
X027917Y033811D02*
X027284Y033811D01*
X027284Y033930D02*
X027917Y033930D01*
X027917Y034048D02*
X027284Y034048D01*
X027284Y034167D02*
X027917Y034167D01*
X027917Y034285D02*
X027284Y034285D01*
X027284Y034404D02*
X027917Y034404D01*
X027917Y034522D02*
X027284Y034522D01*
X027284Y034641D02*
X027947Y034641D01*
X026728Y035944D02*
X031908Y035944D01*
X031789Y035826D02*
X026611Y035826D01*
X026494Y035707D02*
X031671Y035707D01*
X031552Y035589D02*
X022544Y035589D01*
X022408Y035589D02*
X022346Y035589D01*
X022038Y035470D02*
X025410Y035470D01*
X025292Y035352D02*
X021915Y035352D01*
X021836Y035233D02*
X025173Y035233D01*
X025055Y035115D02*
X021802Y035115D01*
X021787Y034996D02*
X024977Y034996D01*
X024936Y034878D02*
X021787Y034878D01*
X021787Y034759D02*
X024936Y034759D01*
X024936Y034641D02*
X021787Y034641D01*
X021787Y034522D02*
X024936Y034522D01*
X024922Y034404D02*
X021787Y034404D01*
X021787Y034285D02*
X024886Y034285D01*
X024886Y034167D02*
X021787Y034167D01*
X021787Y034048D02*
X024913Y034048D01*
X024962Y033930D02*
X021787Y033930D01*
X021787Y033811D02*
X025079Y033811D01*
X025714Y033811D02*
X026264Y033811D01*
X026264Y033930D02*
X025830Y033930D01*
X025879Y034048D02*
X026264Y034048D01*
X026264Y034167D02*
X025906Y034167D01*
X025906Y034285D02*
X026264Y034285D01*
X026264Y034404D02*
X025870Y034404D01*
X025856Y034522D02*
X026264Y034522D01*
X026264Y034641D02*
X025882Y034641D01*
X026845Y036063D02*
X032084Y036063D01*
X032380Y035115D02*
X032983Y035115D01*
X033294Y034996D02*
X032261Y034996D01*
X032143Y034878D02*
X034368Y034878D01*
X034357Y034996D02*
X033482Y034996D01*
X033794Y035115D02*
X034346Y035115D01*
X034335Y035233D02*
X033794Y035233D01*
X033843Y035352D02*
X034324Y035352D01*
X034313Y035470D02*
X033848Y035470D01*
X033831Y035589D02*
X034302Y035589D01*
X034291Y035707D02*
X033794Y035707D01*
X033764Y035826D02*
X034266Y035826D01*
X034244Y035918D02*
X034213Y035997D01*
X034176Y036063D01*
X034073Y036181D02*
X026962Y036181D01*
X027079Y036300D02*
X033910Y036300D01*
X034379Y034759D02*
X032024Y034759D01*
X032147Y034641D02*
X034390Y034641D01*
X034401Y034522D02*
X033516Y034522D01*
X033261Y034522D02*
X032177Y034522D01*
X032177Y034404D02*
X032927Y034404D01*
X032808Y034285D02*
X032177Y034285D01*
X032177Y034167D02*
X032755Y034167D01*
X032731Y034048D02*
X032177Y034048D01*
X032177Y033930D02*
X032689Y033930D01*
X032570Y033811D02*
X032177Y033811D01*
X032177Y033693D02*
X032452Y033693D01*
X032333Y033574D02*
X032177Y033574D01*
X032177Y033456D02*
X032215Y033456D01*
X032923Y032863D02*
X034554Y032863D01*
X034565Y032745D02*
X032829Y032745D01*
X032829Y032626D02*
X034576Y032626D01*
X034587Y032508D02*
X032829Y032508D01*
X032829Y032389D02*
X034598Y032389D01*
X034609Y032271D02*
X032829Y032271D01*
X032829Y032152D02*
X034620Y032152D01*
X034631Y032034D02*
X032829Y032034D01*
X032829Y031915D02*
X034642Y031915D01*
X034653Y031797D02*
X032829Y031797D01*
X032829Y031678D02*
X034664Y031678D01*
X034674Y031560D02*
X032829Y031560D01*
X032829Y031441D02*
X034685Y031441D01*
X034696Y031323D02*
X032829Y031323D01*
X032829Y031204D02*
X034707Y031204D01*
X034718Y031086D02*
X032829Y031086D01*
X032829Y030967D02*
X034729Y030967D01*
X034740Y030849D02*
X032829Y030849D01*
X032829Y030730D02*
X034751Y030730D01*
X034762Y030612D02*
X032829Y030612D01*
X032829Y030493D02*
X034773Y030493D01*
X034784Y030375D02*
X032829Y030375D01*
X032829Y030256D02*
X034795Y030256D01*
X034806Y030138D02*
X032829Y030138D01*
X032829Y030019D02*
X033243Y030019D01*
X033244Y030021D02*
X032985Y029787D01*
X032843Y029468D01*
X032843Y029119D01*
X032985Y028801D01*
X032985Y028801D01*
X033244Y028567D01*
X033244Y028567D01*
X033576Y028459D01*
X033923Y028496D01*
X033923Y028496D01*
X034226Y028670D01*
X034431Y028952D01*
X034503Y029294D01*
X034431Y029635D01*
X034226Y029918D01*
X034226Y029918D01*
X033923Y030092D01*
X033576Y030129D01*
X033244Y030021D01*
X033244Y030021D01*
X033111Y029901D02*
X032829Y029901D01*
X032829Y029782D02*
X032983Y029782D01*
X032985Y029787D02*
X032985Y029787D01*
X032930Y029664D02*
X032829Y029664D01*
X032829Y029545D02*
X032877Y029545D01*
X032843Y029427D02*
X032829Y029427D01*
X032829Y029308D02*
X032843Y029308D01*
X032829Y029190D02*
X032843Y029190D01*
X032829Y029071D02*
X032864Y029071D01*
X032829Y028953D02*
X032917Y028953D01*
X032970Y028834D02*
X032829Y028834D01*
X032829Y028716D02*
X033079Y028716D01*
X033211Y028597D02*
X032829Y028597D01*
X032829Y028479D02*
X033516Y028479D01*
X033576Y028459D02*
X033576Y028459D01*
X033763Y028479D02*
X034813Y028479D01*
X034824Y028597D02*
X034099Y028597D01*
X034226Y028670D02*
X034226Y028670D01*
X034226Y028670D01*
X034259Y028716D02*
X034835Y028716D01*
X034846Y028834D02*
X034345Y028834D01*
X034431Y028952D02*
X034431Y028952D01*
X034431Y028953D02*
X034857Y028953D01*
X034868Y029071D02*
X034456Y029071D01*
X034481Y029190D02*
X034879Y029190D01*
X034883Y029308D02*
X034500Y029308D01*
X034475Y029427D02*
X034872Y029427D01*
X034861Y029545D02*
X034450Y029545D01*
X034431Y029635D02*
X034431Y029635D01*
X034410Y029664D02*
X034850Y029664D01*
X034839Y029782D02*
X034324Y029782D01*
X034238Y029901D02*
X034828Y029901D01*
X034817Y030019D02*
X034049Y030019D01*
X033923Y030092D02*
X033923Y030092D01*
X033034Y029294D02*
X033036Y029344D01*
X033042Y029394D01*
X033052Y029443D01*
X033066Y029491D01*
X033083Y029538D01*
X033104Y029583D01*
X033129Y029627D01*
X033157Y029668D01*
X033189Y029707D01*
X033223Y029744D01*
X033260Y029778D01*
X033300Y029808D01*
X033342Y029835D01*
X033386Y029859D01*
X033432Y029880D01*
X033479Y029896D01*
X033527Y029909D01*
X033577Y029918D01*
X033626Y029923D01*
X033677Y029924D01*
X033727Y029921D01*
X033776Y029914D01*
X033825Y029903D01*
X033873Y029888D01*
X033919Y029870D01*
X033964Y029848D01*
X034007Y029822D01*
X034048Y029793D01*
X034087Y029761D01*
X034123Y029726D01*
X034155Y029688D01*
X034185Y029648D01*
X034212Y029605D01*
X034235Y029561D01*
X034254Y029515D01*
X034270Y029467D01*
X034282Y029418D01*
X034290Y029369D01*
X034294Y029319D01*
X034294Y029269D01*
X034290Y029219D01*
X034282Y029170D01*
X034270Y029121D01*
X034254Y029073D01*
X034235Y029027D01*
X034212Y028983D01*
X034185Y028940D01*
X034155Y028900D01*
X034123Y028862D01*
X034087Y028827D01*
X034048Y028795D01*
X034007Y028766D01*
X033964Y028740D01*
X033919Y028718D01*
X033873Y028700D01*
X033825Y028685D01*
X033776Y028674D01*
X033727Y028667D01*
X033677Y028664D01*
X033626Y028665D01*
X033577Y028670D01*
X033527Y028679D01*
X033479Y028692D01*
X033432Y028708D01*
X033386Y028729D01*
X033342Y028753D01*
X033300Y028780D01*
X033260Y028810D01*
X033223Y028844D01*
X033189Y028881D01*
X033157Y028920D01*
X033129Y028961D01*
X033104Y029005D01*
X033083Y029050D01*
X033066Y029097D01*
X033052Y029145D01*
X033042Y029194D01*
X033036Y029244D01*
X033034Y029294D01*
X032995Y029294D02*
X032997Y029345D01*
X033003Y029396D01*
X033013Y029446D01*
X033026Y029496D01*
X033044Y029544D01*
X033064Y029591D01*
X033089Y029636D01*
X033117Y029679D01*
X033148Y029720D01*
X033182Y029758D01*
X033219Y029793D01*
X033258Y029826D01*
X033300Y029856D01*
X033344Y029882D01*
X033390Y029904D01*
X033438Y029924D01*
X033487Y029939D01*
X033537Y029951D01*
X033587Y029959D01*
X033638Y029963D01*
X033690Y029963D01*
X033741Y029959D01*
X033791Y029951D01*
X033841Y029939D01*
X033890Y029924D01*
X033938Y029904D01*
X033984Y029882D01*
X034028Y029856D01*
X034070Y029826D01*
X034109Y029793D01*
X034146Y029758D01*
X034180Y029720D01*
X034211Y029679D01*
X034239Y029636D01*
X034264Y029591D01*
X034284Y029544D01*
X034302Y029496D01*
X034315Y029446D01*
X034325Y029396D01*
X034331Y029345D01*
X034333Y029294D01*
X034331Y029243D01*
X034325Y029192D01*
X034315Y029142D01*
X034302Y029092D01*
X034284Y029044D01*
X034264Y028997D01*
X034239Y028952D01*
X034211Y028909D01*
X034180Y028868D01*
X034146Y028830D01*
X034109Y028795D01*
X034070Y028762D01*
X034028Y028732D01*
X033984Y028706D01*
X033938Y028684D01*
X033890Y028664D01*
X033841Y028649D01*
X033791Y028637D01*
X033741Y028629D01*
X033690Y028625D01*
X033638Y028625D01*
X033587Y028629D01*
X033537Y028637D01*
X033487Y028649D01*
X033438Y028664D01*
X033390Y028684D01*
X033344Y028706D01*
X033300Y028732D01*
X033258Y028762D01*
X033219Y028795D01*
X033182Y028830D01*
X033148Y028868D01*
X033117Y028909D01*
X033089Y028952D01*
X033064Y028997D01*
X033044Y029044D01*
X033026Y029092D01*
X033013Y029142D01*
X033003Y029192D01*
X032997Y029243D01*
X032995Y029294D01*
X032829Y028360D02*
X034803Y028360D01*
X034792Y028242D02*
X032829Y028242D01*
X032829Y028123D02*
X034781Y028123D01*
X034770Y028005D02*
X032829Y028005D01*
X032829Y027886D02*
X034759Y027886D01*
X034748Y027768D02*
X032829Y027768D01*
X032829Y027649D02*
X034737Y027649D01*
X034726Y027531D02*
X032829Y027531D01*
X032829Y027412D02*
X034715Y027412D01*
X034704Y027294D02*
X032829Y027294D01*
X032829Y027175D02*
X034693Y027175D01*
X034682Y027057D02*
X032829Y027057D01*
X032829Y026938D02*
X034671Y026938D01*
X034660Y026820D02*
X032829Y026820D01*
X032829Y026701D02*
X034649Y026701D01*
X034638Y026583D02*
X032829Y026583D01*
X032829Y026464D02*
X034628Y026464D01*
X034617Y026346D02*
X032829Y026346D01*
X032829Y026227D02*
X034606Y026227D01*
X034595Y026109D02*
X032829Y026109D01*
X032829Y025990D02*
X034584Y025990D01*
X034573Y025872D02*
X032829Y025872D01*
X032829Y025753D02*
X034562Y025753D01*
X034551Y025635D02*
X032829Y025635D01*
X032829Y025516D02*
X034540Y025516D01*
X034529Y025398D02*
X032829Y025398D01*
X032829Y025279D02*
X034518Y025279D01*
X034507Y025161D02*
X032829Y025161D01*
X032829Y025042D02*
X034496Y025042D01*
X034485Y024924D02*
X032829Y024924D01*
X032937Y024805D02*
X034474Y024805D01*
X034463Y024687D02*
X033055Y024687D01*
X033174Y024568D02*
X034453Y024568D01*
X034442Y024450D02*
X033791Y024450D01*
X033853Y024331D02*
X034431Y024331D01*
X034420Y024213D02*
X033853Y024213D01*
X033853Y024094D02*
X034409Y024094D01*
X034398Y023976D02*
X033853Y023976D01*
X033853Y023857D02*
X034387Y023857D01*
X034376Y023739D02*
X033853Y023739D01*
X033807Y023620D02*
X034365Y023620D01*
X034354Y023502D02*
X031839Y023502D01*
X031957Y023383D02*
X034343Y023383D01*
X034332Y023265D02*
X033853Y023265D01*
X033853Y023146D02*
X034321Y023146D01*
X034310Y023028D02*
X033853Y023028D01*
X033853Y022909D02*
X034299Y022909D01*
X034288Y022791D02*
X033853Y022791D01*
X033853Y022672D02*
X034260Y022672D01*
X034223Y022554D02*
X033853Y022554D01*
X033567Y022435D02*
X034152Y022435D01*
X032923Y023265D02*
X032076Y023265D01*
X031720Y023620D02*
X032844Y023620D01*
X032702Y023739D02*
X031602Y023739D01*
X031483Y023857D02*
X032584Y023857D01*
X032465Y023976D02*
X032119Y023976D01*
X032177Y024094D02*
X032347Y024094D01*
X032228Y024213D02*
X032177Y024213D01*
X028308Y022027D02*
X028308Y022027D01*
X027975Y023976D02*
X027861Y023976D01*
X027917Y024094D02*
X027742Y024094D01*
X027667Y024213D02*
X027917Y024213D01*
X027917Y024331D02*
X027667Y024331D01*
X027667Y024450D02*
X027917Y024450D01*
X027917Y024568D02*
X027667Y024568D01*
X027667Y024687D02*
X027917Y024687D01*
X027917Y024805D02*
X027667Y024805D01*
X027667Y024924D02*
X027917Y024924D01*
X027917Y025042D02*
X027667Y025042D01*
X027667Y025161D02*
X027917Y025161D01*
X027917Y025279D02*
X027667Y025279D01*
X027667Y025398D02*
X027917Y025398D01*
X027917Y025516D02*
X027667Y025516D01*
X027667Y025635D02*
X027917Y025635D01*
X027917Y025753D02*
X027667Y025753D01*
X027667Y025872D02*
X027917Y025872D01*
X027917Y025990D02*
X027667Y025990D01*
X027667Y026109D02*
X027917Y026109D01*
X027917Y026227D02*
X027667Y026227D01*
X027667Y026346D02*
X027917Y026346D01*
X027917Y026464D02*
X027667Y026464D01*
X027667Y026583D02*
X027917Y026583D01*
X027917Y026701D02*
X027667Y026701D01*
X027667Y026820D02*
X027917Y026820D01*
X027917Y026938D02*
X027667Y026938D01*
X027667Y027057D02*
X027917Y027057D01*
X027917Y027175D02*
X027653Y027175D01*
X027604Y027294D02*
X027917Y027294D01*
X027917Y027412D02*
X027495Y027412D01*
X024018Y029254D02*
X024020Y029307D01*
X024026Y029360D01*
X024036Y029412D01*
X024049Y029463D01*
X024067Y029513D01*
X024088Y029562D01*
X024113Y029609D01*
X024141Y029653D01*
X024173Y029696D01*
X024207Y029736D01*
X024245Y029774D01*
X024285Y029808D01*
X024328Y029840D01*
X024373Y029868D01*
X024419Y029893D01*
X024468Y029914D01*
X024518Y029932D01*
X024569Y029945D01*
X024621Y029955D01*
X024674Y029961D01*
X024727Y029963D01*
X024780Y029961D01*
X024833Y029955D01*
X024885Y029945D01*
X024936Y029932D01*
X024986Y029914D01*
X025035Y029893D01*
X025082Y029868D01*
X025126Y029840D01*
X025169Y029808D01*
X025209Y029774D01*
X025247Y029736D01*
X025281Y029696D01*
X025313Y029653D01*
X025341Y029608D01*
X025366Y029562D01*
X025387Y029513D01*
X025405Y029463D01*
X025418Y029412D01*
X025428Y029360D01*
X025434Y029307D01*
X025436Y029254D01*
X025434Y029201D01*
X025428Y029148D01*
X025418Y029096D01*
X025405Y029045D01*
X025387Y028995D01*
X025366Y028946D01*
X025341Y028899D01*
X025313Y028855D01*
X025281Y028812D01*
X025247Y028772D01*
X025209Y028734D01*
X025169Y028700D01*
X025126Y028668D01*
X025081Y028640D01*
X025035Y028615D01*
X024986Y028594D01*
X024936Y028576D01*
X024885Y028563D01*
X024833Y028553D01*
X024780Y028547D01*
X024727Y028545D01*
X024674Y028547D01*
X024621Y028553D01*
X024569Y028563D01*
X024518Y028576D01*
X024468Y028594D01*
X024419Y028615D01*
X024372Y028640D01*
X024328Y028668D01*
X024285Y028700D01*
X024245Y028734D01*
X024207Y028772D01*
X024173Y028812D01*
X024141Y028855D01*
X024113Y028900D01*
X024088Y028946D01*
X024067Y028995D01*
X024049Y029045D01*
X024036Y029096D01*
X024026Y029148D01*
X024020Y029201D01*
X024018Y029254D01*
X023940Y029254D02*
X023942Y029310D01*
X023948Y029365D01*
X023958Y029419D01*
X023971Y029473D01*
X023989Y029526D01*
X024010Y029577D01*
X024034Y029627D01*
X024062Y029675D01*
X024094Y029721D01*
X024128Y029765D01*
X024166Y029806D01*
X024206Y029844D01*
X024249Y029879D01*
X024294Y029911D01*
X024342Y029940D01*
X024391Y029966D01*
X024442Y029988D01*
X024494Y030006D01*
X024548Y030020D01*
X024603Y030031D01*
X024658Y030038D01*
X024713Y030041D01*
X024769Y030040D01*
X024824Y030035D01*
X024879Y030026D01*
X024933Y030014D01*
X024986Y029997D01*
X025038Y029977D01*
X025088Y029953D01*
X025136Y029926D01*
X025183Y029896D01*
X025227Y029862D01*
X025269Y029825D01*
X025307Y029785D01*
X025344Y029743D01*
X025377Y029698D01*
X025406Y029652D01*
X025433Y029603D01*
X025455Y029552D01*
X025475Y029500D01*
X025490Y029446D01*
X025502Y029392D01*
X025510Y029337D01*
X025514Y029282D01*
X025514Y029226D01*
X025510Y029171D01*
X025502Y029116D01*
X025490Y029062D01*
X025475Y029008D01*
X025455Y028956D01*
X025433Y028905D01*
X025406Y028856D01*
X025377Y028810D01*
X025344Y028765D01*
X025307Y028723D01*
X025269Y028683D01*
X025227Y028646D01*
X025183Y028612D01*
X025136Y028582D01*
X025088Y028555D01*
X025038Y028531D01*
X024986Y028511D01*
X024933Y028494D01*
X024879Y028482D01*
X024824Y028473D01*
X024769Y028468D01*
X024713Y028467D01*
X024658Y028470D01*
X024603Y028477D01*
X024548Y028488D01*
X024494Y028502D01*
X024442Y028520D01*
X024391Y028542D01*
X024342Y028568D01*
X024294Y028597D01*
X024249Y028629D01*
X024206Y028664D01*
X024166Y028702D01*
X024128Y028743D01*
X024094Y028787D01*
X024062Y028833D01*
X024034Y028881D01*
X024010Y028931D01*
X023989Y028982D01*
X023971Y029035D01*
X023958Y029089D01*
X023948Y029143D01*
X023942Y029198D01*
X023940Y029254D01*
X024057Y029254D02*
X024059Y029305D01*
X024065Y029356D01*
X024075Y029407D01*
X024088Y029456D01*
X024106Y029504D01*
X024127Y029551D01*
X024151Y029596D01*
X024179Y029639D01*
X024210Y029680D01*
X024244Y029719D01*
X024281Y029754D01*
X024321Y029787D01*
X024363Y029816D01*
X024407Y029843D01*
X024453Y029865D01*
X024501Y029885D01*
X024549Y029900D01*
X024599Y029912D01*
X024650Y029920D01*
X024701Y029924D01*
X024753Y029924D01*
X024804Y029920D01*
X024855Y029912D01*
X024905Y029900D01*
X024953Y029885D01*
X025001Y029865D01*
X025047Y029843D01*
X025091Y029816D01*
X025133Y029787D01*
X025173Y029754D01*
X025210Y029719D01*
X025244Y029680D01*
X025275Y029639D01*
X025303Y029596D01*
X025327Y029551D01*
X025348Y029504D01*
X025366Y029456D01*
X025379Y029407D01*
X025389Y029356D01*
X025395Y029305D01*
X025397Y029254D01*
X025395Y029203D01*
X025389Y029152D01*
X025379Y029101D01*
X025366Y029052D01*
X025348Y029004D01*
X025327Y028957D01*
X025303Y028912D01*
X025275Y028869D01*
X025244Y028828D01*
X025210Y028789D01*
X025173Y028754D01*
X025133Y028721D01*
X025091Y028692D01*
X025047Y028665D01*
X025001Y028643D01*
X024953Y028623D01*
X024905Y028608D01*
X024855Y028596D01*
X024804Y028588D01*
X024753Y028584D01*
X024701Y028584D01*
X024650Y028588D01*
X024599Y028596D01*
X024549Y028608D01*
X024501Y028623D01*
X024453Y028643D01*
X024407Y028665D01*
X024363Y028692D01*
X024321Y028721D01*
X024281Y028754D01*
X024244Y028789D01*
X024210Y028828D01*
X024179Y028869D01*
X024151Y028912D01*
X024127Y028957D01*
X024106Y029004D01*
X024088Y029052D01*
X024075Y029101D01*
X024065Y029152D01*
X024059Y029203D01*
X024057Y029254D01*
X033042Y032982D02*
X034543Y032982D01*
X034532Y033100D02*
X033160Y033100D01*
X033279Y033219D02*
X034521Y033219D01*
X034510Y033337D02*
X033397Y033337D01*
X033516Y033456D02*
X034499Y033456D01*
X034488Y033574D02*
X033634Y033574D01*
X033750Y033693D02*
X034477Y033693D01*
X034466Y033811D02*
X033794Y033811D01*
X033825Y033930D02*
X034455Y033930D01*
X034444Y034048D02*
X033848Y034048D01*
X033848Y034167D02*
X034433Y034167D01*
X034423Y034285D02*
X033800Y034285D01*
X033794Y034404D02*
X034412Y034404D01*
X033107Y019601D02*
X031917Y019601D01*
X031914Y019598D01*
X031849Y019601D01*
X031785Y019601D01*
X031782Y019604D01*
X031723Y019607D01*
X031723Y019607D01*
X031500Y019711D01*
X031500Y019711D01*
X031472Y019742D01*
X031472Y019739D01*
X031407Y019675D01*
X028362Y019675D01*
X028312Y019725D01*
X028263Y019680D01*
X028263Y019680D01*
X028032Y019596D01*
X028032Y019596D01*
X027912Y019601D01*
X026917Y019601D01*
X026914Y019598D01*
X026849Y019601D01*
X026843Y019601D01*
X026789Y019598D01*
X026684Y019560D01*
X026601Y019484D01*
X026553Y019382D01*
X026545Y019327D01*
X026545Y006761D01*
X026547Y006760D01*
X026545Y006693D01*
X026545Y006690D01*
X026551Y006594D01*
X026608Y006408D01*
X026722Y006249D01*
X026880Y006136D01*
X027066Y006078D01*
X027066Y006078D01*
X027162Y006073D01*
X027166Y006073D01*
X027232Y006075D01*
X027234Y006073D01*
X028503Y006064D01*
X028503Y006557D01*
X028903Y006557D01*
X028903Y006677D01*
X028903Y007427D01*
X028642Y007427D01*
X028601Y007416D01*
X028565Y007395D01*
X028535Y007365D01*
X028514Y007328D01*
X028503Y007288D01*
X028503Y006677D01*
X028903Y006677D01*
X029023Y006677D01*
X029023Y007427D01*
X029284Y007427D01*
X029325Y007416D01*
X029361Y007395D01*
X029391Y007365D01*
X029412Y007328D01*
X029423Y007288D01*
X029423Y006677D01*
X029023Y006677D01*
X029023Y006557D01*
X029423Y006557D01*
X029423Y006057D01*
X029553Y006056D01*
X029553Y007312D01*
X029618Y007377D01*
X029773Y007377D01*
X029773Y007667D01*
X029346Y007667D01*
X029281Y007732D01*
X029281Y008179D01*
X029346Y008243D01*
X029589Y008243D01*
X029694Y008349D01*
X029694Y009180D01*
X029686Y009180D01*
X029414Y009451D01*
X029414Y009440D01*
X029104Y009130D01*
X028924Y009130D01*
X028924Y009620D01*
X028844Y009620D01*
X028354Y009620D01*
X028354Y009440D01*
X028665Y009130D01*
X028844Y009130D01*
X028844Y009620D01*
X028844Y009700D01*
X028354Y009700D01*
X028354Y009833D01*
X028047Y009833D01*
X027982Y009897D01*
X027982Y010344D01*
X028047Y010409D01*
X028080Y010409D01*
X028080Y012089D01*
X028572Y012581D01*
X028572Y013061D01*
X028636Y013126D01*
X029321Y013126D01*
X029386Y013061D01*
X029386Y012377D01*
X029321Y012312D01*
X028841Y012312D01*
X028460Y011932D01*
X028460Y010915D01*
X028686Y011140D01*
X029083Y011140D01*
X029364Y010859D01*
X029364Y010461D01*
X029093Y010190D01*
X029104Y010190D01*
X029414Y009880D01*
X029414Y009869D01*
X029686Y010140D01*
X030083Y010140D01*
X030354Y009869D01*
X030354Y009880D01*
X030665Y010190D01*
X030676Y010190D01*
X030404Y010461D01*
X030404Y010859D01*
X030686Y011140D01*
X031083Y011140D01*
X031322Y010901D01*
X032077Y010901D01*
X032077Y010935D01*
X032141Y010999D01*
X032588Y010999D01*
X032653Y010935D01*
X032653Y010488D01*
X032588Y010423D01*
X032141Y010423D01*
X032077Y010488D01*
X032077Y010521D01*
X031364Y010521D01*
X031364Y010461D01*
X031093Y010190D01*
X031104Y010190D01*
X031414Y009880D01*
X031414Y009700D01*
X030924Y009700D01*
X030924Y009620D01*
X030924Y009130D01*
X031104Y009130D01*
X031414Y009440D01*
X031414Y009620D01*
X030924Y009620D01*
X030844Y009620D01*
X030844Y009130D01*
X030665Y009130D01*
X030354Y009440D01*
X030354Y009451D01*
X030153Y009250D01*
X030153Y007377D01*
X030309Y007377D01*
X030373Y007312D01*
X030373Y006050D01*
X030503Y006050D01*
X030503Y006557D01*
X030903Y006557D01*
X030903Y006677D01*
X030903Y007427D01*
X030642Y007427D01*
X030601Y007416D01*
X030565Y007395D01*
X030535Y007365D01*
X030514Y007328D01*
X030503Y007288D01*
X030503Y006677D01*
X030903Y006677D01*
X031023Y006677D01*
X031023Y007427D01*
X031284Y007427D01*
X031325Y007416D01*
X031361Y007395D01*
X031391Y007365D01*
X031412Y007328D01*
X031423Y007288D01*
X031423Y006677D01*
X031023Y006677D01*
X031023Y006557D01*
X031423Y006557D01*
X031423Y006043D01*
X032693Y006034D01*
X032694Y006035D01*
X032761Y006034D01*
X032763Y006034D01*
X032860Y006039D01*
X033046Y006096D01*
X033204Y006210D01*
X033318Y006368D01*
X033375Y006554D01*
X033381Y006651D01*
X033381Y006654D01*
X033379Y006720D01*
X033381Y006722D01*
X033381Y019230D01*
X033378Y019233D01*
X033381Y019297D01*
X033381Y019304D01*
X033378Y019357D01*
X033339Y019463D01*
X033263Y019546D01*
X033162Y019593D01*
X033107Y019601D01*
X033166Y019591D02*
X026770Y019591D01*
X026596Y019473D02*
X033331Y019473D01*
X033378Y019354D02*
X026549Y019354D01*
X026545Y019236D02*
X033378Y019236D01*
X033381Y019117D02*
X026545Y019117D01*
X026545Y018999D02*
X033381Y018999D01*
X033381Y018880D02*
X029313Y018880D01*
X029297Y018885D02*
X029017Y018885D01*
X029017Y018466D01*
X028940Y018466D01*
X028940Y018389D01*
X028522Y018389D01*
X028522Y018110D01*
X028533Y018069D01*
X028554Y018033D01*
X028584Y018003D01*
X028620Y017982D01*
X028661Y017971D01*
X028940Y017971D01*
X028940Y018389D01*
X029017Y018389D01*
X029017Y017971D01*
X029297Y017971D01*
X029338Y017982D01*
X029374Y018003D01*
X029404Y018033D01*
X029425Y018069D01*
X029436Y018110D01*
X029436Y018389D01*
X029017Y018389D01*
X029017Y018466D01*
X029436Y018466D01*
X029436Y018746D01*
X029425Y018786D01*
X029404Y018823D01*
X029374Y018853D01*
X029338Y018874D01*
X029297Y018885D01*
X029431Y018762D02*
X030541Y018762D01*
X030541Y018770D02*
X030541Y018085D01*
X030605Y018021D01*
X031086Y018021D01*
X031190Y017916D01*
X031190Y014412D01*
X030908Y014130D01*
X028519Y014130D01*
X028519Y014163D01*
X028455Y014228D01*
X028007Y014228D01*
X027943Y014163D01*
X027943Y013716D01*
X028007Y013651D01*
X028455Y013651D01*
X028519Y013716D01*
X028519Y013750D01*
X031065Y013750D01*
X031459Y014143D01*
X031570Y014255D01*
X031570Y018073D01*
X031354Y018290D01*
X031354Y018770D01*
X031290Y018835D01*
X030605Y018835D01*
X030541Y018770D01*
X030541Y018643D02*
X029436Y018643D01*
X029436Y018525D02*
X030541Y018525D01*
X030541Y018406D02*
X029017Y018406D01*
X028940Y018406D02*
X026545Y018406D01*
X026545Y018288D02*
X028522Y018288D01*
X028522Y018169D02*
X026545Y018169D01*
X026545Y018051D02*
X028544Y018051D01*
X028940Y018051D02*
X029017Y018051D01*
X029017Y018169D02*
X028940Y018169D01*
X028940Y018288D02*
X029017Y018288D01*
X028940Y018466D02*
X028522Y018466D01*
X028522Y018746D01*
X028533Y018786D01*
X028554Y018823D01*
X028584Y018853D01*
X028620Y018874D01*
X028661Y018885D01*
X028940Y018885D01*
X028940Y018466D01*
X028940Y018525D02*
X029017Y018525D01*
X029017Y018643D02*
X028940Y018643D01*
X028940Y018762D02*
X029017Y018762D01*
X029017Y018880D02*
X028940Y018880D01*
X028645Y018880D02*
X026545Y018880D01*
X026545Y018762D02*
X028526Y018762D01*
X028522Y018643D02*
X026545Y018643D01*
X026545Y018525D02*
X028522Y018525D01*
X029436Y018288D02*
X030541Y018288D01*
X030541Y018169D02*
X029436Y018169D01*
X029414Y018051D02*
X030575Y018051D01*
X031174Y017932D02*
X026545Y017932D01*
X026545Y017814D02*
X031190Y017814D01*
X031190Y017695D02*
X026545Y017695D01*
X026545Y017577D02*
X031190Y017577D01*
X031190Y017458D02*
X026545Y017458D01*
X026545Y017340D02*
X031190Y017340D01*
X031190Y017221D02*
X026545Y017221D01*
X026545Y017103D02*
X031190Y017103D01*
X031190Y016984D02*
X026545Y016984D01*
X026545Y016866D02*
X031190Y016866D01*
X031190Y016747D02*
X026545Y016747D01*
X026545Y016629D02*
X031190Y016629D01*
X031190Y016510D02*
X026545Y016510D01*
X026545Y016392D02*
X026860Y016392D01*
X026883Y016415D02*
X026819Y016350D01*
X026819Y014993D01*
X026883Y014929D01*
X028240Y014929D01*
X028305Y014993D01*
X028305Y016350D01*
X028240Y016415D01*
X026883Y016415D01*
X026819Y016273D02*
X026545Y016273D01*
X026545Y016155D02*
X026819Y016155D01*
X026819Y016036D02*
X026545Y016036D01*
X026545Y015918D02*
X026819Y015918D01*
X026819Y015799D02*
X026545Y015799D01*
X026545Y015681D02*
X026819Y015681D01*
X026819Y015562D02*
X026545Y015562D01*
X026545Y015444D02*
X026819Y015444D01*
X026819Y015325D02*
X026545Y015325D01*
X026545Y015207D02*
X026819Y015207D01*
X026819Y015088D02*
X026545Y015088D01*
X026545Y014970D02*
X026842Y014970D01*
X026545Y014851D02*
X031190Y014851D01*
X031190Y014733D02*
X026545Y014733D01*
X026545Y014614D02*
X031190Y014614D01*
X031190Y014496D02*
X026545Y014496D01*
X026545Y014377D02*
X031156Y014377D01*
X031037Y014259D02*
X026545Y014259D01*
X026545Y014140D02*
X027943Y014140D01*
X027943Y014022D02*
X026545Y014022D01*
X026545Y013903D02*
X027943Y013903D01*
X027943Y013785D02*
X026545Y013785D01*
X026545Y013666D02*
X027992Y013666D01*
X028469Y013666D02*
X033381Y013666D01*
X033381Y013548D02*
X026545Y013548D01*
X026545Y013429D02*
X033381Y013429D01*
X033381Y013311D02*
X026545Y013311D01*
X026545Y013192D02*
X033381Y013192D01*
X033381Y013074D02*
X031342Y013074D01*
X031354Y013061D02*
X031290Y013126D01*
X030605Y013126D01*
X030541Y013061D01*
X030541Y012377D01*
X030605Y012312D01*
X031290Y012312D01*
X031354Y012377D01*
X031354Y013061D01*
X031354Y012955D02*
X033381Y012955D01*
X033381Y012837D02*
X031354Y012837D01*
X031354Y012718D02*
X033381Y012718D01*
X033381Y012600D02*
X031354Y012600D01*
X031354Y012481D02*
X033381Y012481D01*
X033381Y012363D02*
X031340Y012363D01*
X030554Y012363D02*
X030410Y012363D01*
X030409Y012360D02*
X030420Y012401D01*
X030420Y012681D01*
X030002Y012681D01*
X030002Y012757D01*
X030420Y012757D01*
X030420Y013037D01*
X030409Y013078D01*
X030388Y013114D01*
X030358Y013144D01*
X030322Y013165D01*
X030281Y013176D01*
X030002Y013176D01*
X030002Y012757D01*
X029925Y012757D01*
X029925Y012681D01*
X029506Y012681D01*
X029506Y012401D01*
X029517Y012360D01*
X029538Y012324D01*
X029568Y012294D01*
X029605Y012273D01*
X029645Y012262D01*
X029925Y012262D01*
X029925Y012681D01*
X030002Y012681D01*
X030002Y012262D01*
X030281Y012262D01*
X030322Y012273D01*
X030358Y012294D01*
X030388Y012324D01*
X030409Y012360D01*
X030420Y012481D02*
X030541Y012481D01*
X030541Y012600D02*
X030420Y012600D01*
X030541Y012718D02*
X030002Y012718D01*
X029925Y012718D02*
X029386Y012718D01*
X029386Y012600D02*
X029506Y012600D01*
X029506Y012481D02*
X029386Y012481D01*
X029372Y012363D02*
X029517Y012363D01*
X029506Y012757D02*
X029925Y012757D01*
X029925Y013176D01*
X029645Y013176D01*
X029605Y013165D01*
X029568Y013144D01*
X029538Y013114D01*
X029517Y013078D01*
X029506Y013037D01*
X029506Y012757D01*
X029506Y012837D02*
X029386Y012837D01*
X029386Y012955D02*
X029506Y012955D01*
X029516Y013074D02*
X029373Y013074D01*
X029925Y013074D02*
X030002Y013074D01*
X030002Y012955D02*
X029925Y012955D01*
X029925Y012837D02*
X030002Y012837D01*
X030002Y012600D02*
X029925Y012600D01*
X029925Y012481D02*
X030002Y012481D01*
X030002Y012363D02*
X029925Y012363D01*
X030420Y012837D02*
X030541Y012837D01*
X030541Y012955D02*
X030420Y012955D01*
X030410Y013074D02*
X030553Y013074D01*
X031101Y013785D02*
X033381Y013785D01*
X033381Y013903D02*
X031219Y013903D01*
X031338Y014022D02*
X033381Y014022D01*
X033381Y014140D02*
X031456Y014140D01*
X031570Y014259D02*
X033381Y014259D01*
X033381Y014377D02*
X031570Y014377D01*
X031570Y014496D02*
X033381Y014496D01*
X033381Y014614D02*
X031570Y014614D01*
X031570Y014733D02*
X033381Y014733D01*
X033381Y014851D02*
X031570Y014851D01*
X031570Y014970D02*
X031645Y014970D01*
X031622Y014993D02*
X031686Y014929D01*
X033043Y014929D01*
X033108Y014993D01*
X033108Y016350D01*
X033043Y016415D01*
X031686Y016415D01*
X031622Y016350D01*
X031622Y014993D01*
X031622Y015088D02*
X031570Y015088D01*
X031570Y015207D02*
X031622Y015207D01*
X031622Y015325D02*
X031570Y015325D01*
X031570Y015444D02*
X031622Y015444D01*
X031622Y015562D02*
X031570Y015562D01*
X031570Y015681D02*
X031622Y015681D01*
X031622Y015799D02*
X031570Y015799D01*
X031570Y015918D02*
X031622Y015918D01*
X031622Y016036D02*
X031570Y016036D01*
X031570Y016155D02*
X031622Y016155D01*
X031622Y016273D02*
X031570Y016273D01*
X031570Y016392D02*
X031663Y016392D01*
X031570Y016510D02*
X033381Y016510D01*
X033381Y016392D02*
X033066Y016392D01*
X033108Y016273D02*
X033381Y016273D01*
X033381Y016155D02*
X033108Y016155D01*
X033108Y016036D02*
X033381Y016036D01*
X033381Y015918D02*
X033108Y015918D01*
X033108Y015799D02*
X033381Y015799D01*
X033381Y015681D02*
X033108Y015681D01*
X033108Y015562D02*
X033381Y015562D01*
X033381Y015444D02*
X033108Y015444D01*
X033108Y015325D02*
X033381Y015325D01*
X033381Y015207D02*
X033108Y015207D01*
X033108Y015088D02*
X033381Y015088D01*
X033381Y014970D02*
X033084Y014970D01*
X033381Y016629D02*
X031570Y016629D01*
X031570Y016747D02*
X033381Y016747D01*
X033381Y016866D02*
X031570Y016866D01*
X031570Y016984D02*
X033381Y016984D01*
X033381Y017103D02*
X031570Y017103D01*
X031570Y017221D02*
X033381Y017221D01*
X033381Y017340D02*
X031570Y017340D01*
X031570Y017458D02*
X033381Y017458D01*
X033381Y017577D02*
X031570Y017577D01*
X031570Y017695D02*
X033381Y017695D01*
X033381Y017814D02*
X031570Y017814D01*
X031570Y017932D02*
X033381Y017932D01*
X033381Y018051D02*
X031570Y018051D01*
X031475Y018169D02*
X033381Y018169D01*
X033381Y018288D02*
X031356Y018288D01*
X031354Y018406D02*
X033381Y018406D01*
X033381Y018525D02*
X031354Y018525D01*
X031354Y018643D02*
X033381Y018643D01*
X033381Y018762D02*
X031354Y018762D01*
X031442Y019710D02*
X031502Y019710D01*
X028327Y019710D02*
X028295Y019710D01*
X028263Y016392D02*
X031190Y016392D01*
X031190Y016273D02*
X028305Y016273D01*
X028305Y016155D02*
X031190Y016155D01*
X031190Y016036D02*
X028305Y016036D01*
X028305Y015918D02*
X031190Y015918D01*
X031190Y015799D02*
X028305Y015799D01*
X028305Y015681D02*
X031190Y015681D01*
X031190Y015562D02*
X028305Y015562D01*
X028305Y015444D02*
X031190Y015444D01*
X031190Y015325D02*
X028305Y015325D01*
X028305Y015207D02*
X031190Y015207D01*
X031190Y015088D02*
X028305Y015088D01*
X028281Y014970D02*
X031190Y014970D01*
X030919Y014140D02*
X028519Y014140D01*
X028584Y013074D02*
X026545Y013074D01*
X026545Y012955D02*
X028572Y012955D01*
X028572Y012837D02*
X026545Y012837D01*
X026545Y012718D02*
X028572Y012718D01*
X028572Y012600D02*
X026545Y012600D01*
X026545Y012481D02*
X028472Y012481D01*
X028354Y012363D02*
X026545Y012363D01*
X026545Y012244D02*
X028235Y012244D01*
X028117Y012126D02*
X026545Y012126D01*
X026545Y012007D02*
X028080Y012007D01*
X028080Y011889D02*
X026545Y011889D01*
X026545Y011770D02*
X028080Y011770D01*
X028080Y011652D02*
X026545Y011652D01*
X026545Y011533D02*
X028080Y011533D01*
X028080Y011415D02*
X026545Y011415D01*
X026545Y011296D02*
X028080Y011296D01*
X028080Y011178D02*
X026545Y011178D01*
X026545Y011059D02*
X028080Y011059D01*
X028080Y010941D02*
X026545Y010941D01*
X026545Y010822D02*
X028080Y010822D01*
X028080Y010704D02*
X026545Y010704D01*
X026545Y010585D02*
X028080Y010585D01*
X028080Y010467D02*
X026545Y010467D01*
X026545Y010348D02*
X027986Y010348D01*
X027982Y010230D02*
X026545Y010230D01*
X026545Y010111D02*
X027982Y010111D01*
X027982Y009993D02*
X026545Y009993D01*
X026545Y009874D02*
X028005Y009874D01*
X028354Y009756D02*
X026545Y009756D01*
X026545Y009637D02*
X028844Y009637D01*
X028844Y009519D02*
X028924Y009519D01*
X028924Y009400D02*
X028844Y009400D01*
X028844Y009282D02*
X028924Y009282D01*
X028924Y009163D02*
X028844Y009163D01*
X028632Y009163D02*
X026545Y009163D01*
X026545Y009045D02*
X029694Y009045D01*
X029694Y009163D02*
X029137Y009163D01*
X029256Y009282D02*
X029584Y009282D01*
X029465Y009400D02*
X029374Y009400D01*
X029414Y009874D02*
X029420Y009874D01*
X029538Y009993D02*
X029301Y009993D01*
X029183Y010111D02*
X029657Y010111D01*
X029686Y010180D02*
X030083Y010180D01*
X030364Y010461D01*
X030364Y010859D01*
X030083Y011140D01*
X029686Y011140D01*
X029404Y010859D01*
X029404Y010461D01*
X029686Y010180D01*
X029636Y010230D02*
X029133Y010230D01*
X029252Y010348D02*
X029517Y010348D01*
X029404Y010467D02*
X029364Y010467D01*
X029364Y010585D02*
X029404Y010585D01*
X029404Y010704D02*
X029364Y010704D01*
X029364Y010822D02*
X029404Y010822D01*
X029486Y010941D02*
X029282Y010941D01*
X029164Y011059D02*
X029605Y011059D01*
X030164Y011059D02*
X030605Y011059D01*
X030486Y010941D02*
X030282Y010941D01*
X030364Y010822D02*
X030404Y010822D01*
X030404Y010704D02*
X030364Y010704D01*
X030364Y010585D02*
X030404Y010585D01*
X030404Y010467D02*
X030364Y010467D01*
X030252Y010348D02*
X030517Y010348D01*
X030636Y010230D02*
X030133Y010230D01*
X030112Y010111D02*
X030586Y010111D01*
X030468Y009993D02*
X030230Y009993D01*
X030349Y009874D02*
X030354Y009874D01*
X030395Y009400D02*
X030304Y009400D01*
X030185Y009282D02*
X030513Y009282D01*
X030632Y009163D02*
X030153Y009163D01*
X030153Y009045D02*
X033381Y009045D01*
X033381Y009163D02*
X031137Y009163D01*
X031256Y009282D02*
X033381Y009282D01*
X033381Y009400D02*
X031374Y009400D01*
X031414Y009519D02*
X033381Y009519D01*
X033381Y009637D02*
X030924Y009637D01*
X030924Y009519D02*
X030844Y009519D01*
X030844Y009400D02*
X030924Y009400D01*
X030924Y009282D02*
X030844Y009282D01*
X030844Y009163D02*
X030924Y009163D01*
X031414Y009756D02*
X033381Y009756D01*
X033381Y009874D02*
X031414Y009874D01*
X031301Y009993D02*
X033381Y009993D01*
X033381Y010111D02*
X031183Y010111D01*
X031133Y010230D02*
X033381Y010230D01*
X033381Y010348D02*
X031252Y010348D01*
X031364Y010467D02*
X032097Y010467D01*
X032083Y010941D02*
X031282Y010941D01*
X031164Y011059D02*
X033381Y011059D01*
X033381Y010941D02*
X032647Y010941D01*
X032653Y010822D02*
X033381Y010822D01*
X033381Y010704D02*
X032653Y010704D01*
X032653Y010585D02*
X033381Y010585D01*
X033381Y010467D02*
X032632Y010467D01*
X033381Y011178D02*
X028460Y011178D01*
X028460Y011296D02*
X033381Y011296D01*
X033381Y011415D02*
X028460Y011415D01*
X028460Y011533D02*
X033381Y011533D01*
X033381Y011652D02*
X028460Y011652D01*
X028460Y011770D02*
X033381Y011770D01*
X033381Y011889D02*
X028460Y011889D01*
X028536Y012007D02*
X033381Y012007D01*
X033381Y012126D02*
X028654Y012126D01*
X028773Y012244D02*
X033381Y012244D01*
X033381Y008926D02*
X030153Y008926D01*
X030153Y008808D02*
X033381Y008808D01*
X033381Y008689D02*
X030153Y008689D01*
X030153Y008571D02*
X033381Y008571D01*
X033381Y008452D02*
X030153Y008452D01*
X030153Y008334D02*
X033381Y008334D01*
X033381Y008215D02*
X030153Y008215D01*
X030153Y008097D02*
X033381Y008097D01*
X033381Y007978D02*
X030153Y007978D01*
X030153Y007860D02*
X033381Y007860D01*
X033381Y007741D02*
X030153Y007741D01*
X030153Y007623D02*
X033381Y007623D01*
X033381Y007504D02*
X030153Y007504D01*
X030153Y007386D02*
X030556Y007386D01*
X030503Y007267D02*
X030373Y007267D01*
X030373Y007149D02*
X030503Y007149D01*
X030503Y007030D02*
X030373Y007030D01*
X030373Y006912D02*
X030503Y006912D01*
X030503Y006793D02*
X030373Y006793D01*
X030373Y006675D02*
X030903Y006675D01*
X030903Y006793D02*
X031023Y006793D01*
X031023Y006675D02*
X033380Y006675D01*
X033381Y006793D02*
X031423Y006793D01*
X031423Y006912D02*
X033381Y006912D01*
X033381Y007030D02*
X031423Y007030D01*
X031423Y007149D02*
X033381Y007149D01*
X033381Y007267D02*
X031423Y007267D01*
X031370Y007386D02*
X033381Y007386D01*
X033376Y006556D02*
X031423Y006556D01*
X031423Y006438D02*
X033340Y006438D01*
X033283Y006319D02*
X031423Y006319D01*
X031423Y006201D02*
X033192Y006201D01*
X033001Y006082D02*
X031423Y006082D01*
X031023Y006912D02*
X030903Y006912D01*
X030903Y007030D02*
X031023Y007030D01*
X031023Y007149D02*
X030903Y007149D01*
X030903Y007267D02*
X031023Y007267D01*
X031023Y007386D02*
X030903Y007386D01*
X030503Y006556D02*
X030373Y006556D01*
X030373Y006438D02*
X030503Y006438D01*
X030503Y006319D02*
X030373Y006319D01*
X030373Y006201D02*
X030503Y006201D01*
X030503Y006082D02*
X030373Y006082D01*
X029553Y006082D02*
X029423Y006082D01*
X029423Y006201D02*
X029553Y006201D01*
X029553Y006319D02*
X029423Y006319D01*
X029423Y006438D02*
X029553Y006438D01*
X029553Y006556D02*
X029423Y006556D01*
X029553Y006675D02*
X029023Y006675D01*
X029023Y006793D02*
X028903Y006793D01*
X028903Y006675D02*
X026546Y006675D01*
X026545Y006793D02*
X028503Y006793D01*
X028503Y006912D02*
X026545Y006912D01*
X026545Y007030D02*
X028503Y007030D01*
X028503Y007149D02*
X026545Y007149D01*
X026545Y007267D02*
X028503Y007267D01*
X028556Y007386D02*
X026545Y007386D01*
X026545Y007504D02*
X029773Y007504D01*
X029773Y007386D02*
X029370Y007386D01*
X029423Y007267D02*
X029553Y007267D01*
X029553Y007149D02*
X029423Y007149D01*
X029423Y007030D02*
X029553Y007030D01*
X029553Y006912D02*
X029423Y006912D01*
X029423Y006793D02*
X029553Y006793D01*
X029023Y006912D02*
X028903Y006912D01*
X028903Y007030D02*
X029023Y007030D01*
X029023Y007149D02*
X028903Y007149D01*
X028903Y007267D02*
X029023Y007267D01*
X029023Y007386D02*
X028903Y007386D01*
X029281Y007741D02*
X026545Y007741D01*
X026545Y007623D02*
X029773Y007623D01*
X029281Y007860D02*
X026545Y007860D01*
X026545Y007978D02*
X029281Y007978D01*
X029281Y008097D02*
X026545Y008097D01*
X026545Y008215D02*
X029318Y008215D01*
X029679Y008334D02*
X026545Y008334D01*
X026545Y008452D02*
X029694Y008452D01*
X029694Y008571D02*
X026545Y008571D01*
X026545Y008689D02*
X029694Y008689D01*
X029694Y008808D02*
X026545Y008808D01*
X026545Y008926D02*
X029694Y008926D01*
X028513Y009282D02*
X026545Y009282D01*
X026545Y009400D02*
X028395Y009400D01*
X028354Y009519D02*
X026545Y009519D01*
X028460Y010941D02*
X028486Y010941D01*
X028460Y011059D02*
X028605Y011059D01*
X028503Y006556D02*
X026562Y006556D01*
X026599Y006438D02*
X028503Y006438D01*
X028503Y006319D02*
X026672Y006319D01*
X026789Y006201D02*
X028503Y006201D01*
X028503Y006082D02*
X027053Y006082D01*
X020270Y018999D02*
X002058Y018999D01*
X002074Y019117D02*
X020254Y019117D01*
X020217Y019236D02*
X002110Y019236D01*
X002183Y019354D02*
X020145Y019354D01*
X020028Y019473D02*
X002300Y019473D01*
X002563Y019591D02*
X019765Y019591D01*
X005807Y019710D02*
X005775Y019710D01*
D13*
X013073Y034215D03*
X026774Y034215D03*
D14*
X025396Y034215D03*
X011695Y034215D03*
D15*
X015129Y023861D03*
X015129Y022861D03*
X016129Y022861D03*
X016129Y023861D03*
X017129Y023861D03*
X017129Y022861D03*
X018129Y022861D03*
X019129Y022861D03*
X019129Y023861D03*
X018129Y023861D03*
X020129Y023861D03*
X020129Y022861D03*
X021129Y022861D03*
X021129Y023861D03*
X022129Y023861D03*
X022129Y022861D03*
X015751Y014325D03*
X015751Y013325D03*
X015751Y012325D03*
X015751Y011325D03*
X015751Y010325D03*
X015751Y009325D03*
X015751Y008325D03*
X015751Y007325D03*
X014751Y007325D03*
X014751Y008325D03*
X014751Y009325D03*
X014751Y010325D03*
X014751Y011325D03*
X014751Y012325D03*
X014751Y013325D03*
X014751Y014325D03*
X011550Y011369D03*
X010550Y011369D03*
X009550Y011369D03*
X008550Y011369D03*
X007550Y011369D03*
X006550Y011369D03*
X005550Y011369D03*
X004550Y011369D03*
X003550Y011369D03*
X002550Y011369D03*
X002550Y010369D03*
X003550Y010369D03*
X004550Y010369D03*
X005550Y010369D03*
X006550Y010369D03*
X007550Y010369D03*
X008550Y010369D03*
X009550Y010369D03*
X010550Y010369D03*
X011550Y010369D03*
X028884Y010660D03*
X028884Y009660D03*
X029884Y009660D03*
X030884Y009660D03*
X030884Y010660D03*
X029884Y010660D03*
D16*
X018428Y011199D03*
X011081Y018349D03*
X025278Y023546D03*
X026278Y023546D03*
D17*
X018428Y010199D03*
X010081Y018349D03*
D18*
X015475Y033951D03*
X015475Y034951D03*
D19*
X013003Y024176D03*
X011884Y024176D03*
D20*
X033388Y024027D03*
X033388Y022907D03*
D21*
X033388Y034077D03*
X033388Y035455D03*
D22*
X030947Y018428D03*
X028979Y018428D03*
X028979Y012719D03*
X029963Y012719D03*
X030947Y012719D03*
D23*
X032365Y015672D03*
X027562Y015672D03*
D24*
X028963Y006617D03*
X029963Y006617D03*
X030963Y006617D03*
D25*
X029569Y007955D03*
X029451Y009018D03*
X028270Y010121D03*
X031341Y011223D03*
X032365Y010711D03*
X028231Y013940D03*
X028585Y019963D03*
X029018Y019963D03*
X029451Y019963D03*
X029884Y019963D03*
X030317Y019963D03*
X030751Y019963D03*
X031184Y019963D03*
X031184Y021774D03*
X030751Y021774D03*
X030317Y021774D03*
X029884Y021774D03*
X029451Y021774D03*
X029018Y021774D03*
X028585Y021774D03*
X027207Y027050D03*
X018310Y026538D03*
X008664Y021774D03*
X008231Y021774D03*
X007798Y021774D03*
X007365Y021774D03*
X006932Y021774D03*
X006499Y021774D03*
X006066Y021774D03*
X006066Y019963D03*
X006499Y019963D03*
X006932Y019963D03*
X007365Y019963D03*
X007798Y019963D03*
X008231Y019963D03*
X008664Y019963D03*
X009648Y014333D03*
X008546Y013310D03*
D26*
X008601Y013365D01*
X014751Y013325D01*
X014751Y012325D02*
X007640Y012365D01*
X007601Y012325D01*
X007601Y011420D01*
X007550Y011369D01*
X007550Y010369D01*
X008550Y010369D02*
X008550Y011369D01*
X009550Y011369D02*
X009550Y010369D01*
X010550Y010369D02*
X011550Y010369D01*
X012247Y009451D02*
X012247Y008900D01*
X012129Y008782D01*
X006932Y008782D01*
X006538Y009176D01*
X006538Y010357D01*
X006550Y010369D01*
X006550Y011369D01*
X005550Y011369D02*
X005227Y011408D01*
X005042Y011184D01*
X005042Y010408D01*
X005593Y010369D01*
X005550Y010369D01*
X005566Y010369D01*
X005003Y010357D01*
X005003Y008310D01*
X005514Y007877D01*
X013585Y007837D01*
X013743Y007995D01*
X013743Y008900D01*
X014136Y009294D01*
X014719Y009294D01*
X014751Y009325D01*
X014751Y010325D01*
X014727Y010317D02*
X014727Y010357D01*
X015751Y010357D01*
X015751Y009806D01*
X014727Y009806D01*
X014727Y009325D01*
X015751Y009325D01*
X015751Y010325D01*
X015751Y011325D02*
X014751Y011325D01*
X014357Y011325D01*
X013861Y010829D01*
X013861Y010357D01*
X012247Y009451D01*
X014751Y009325D02*
X014727Y010317D01*
X014751Y008325D02*
X015751Y008325D01*
X015751Y008349D02*
X015278Y008349D01*
X015160Y008231D01*
X015160Y007758D01*
X015239Y007680D01*
X015475Y007680D01*
X015554Y007758D01*
X015790Y007601D02*
X015514Y007325D01*
X015672Y007168D01*
X015751Y007247D01*
X015751Y007325D01*
X015278Y006853D01*
X003940Y006892D01*
X003550Y007282D01*
X003550Y010369D01*
X003034Y010487D01*
X003034Y011223D01*
X003377Y011369D01*
X003550Y011369D01*
X003377Y011369D02*
X002550Y011369D01*
X002550Y010369D02*
X003550Y010369D01*
X004550Y010369D02*
X005550Y010369D01*
X005550Y011369D02*
X004550Y011369D01*
X009648Y014333D02*
X009680Y014365D01*
X014751Y014325D01*
X014333Y015436D02*
X014097Y015672D01*
X014097Y016577D01*
X013900Y016774D01*
X010357Y016814D01*
X010081Y017089D01*
X010081Y018349D01*
X014333Y015436D02*
X016499Y015436D01*
X016853Y015081D01*
X016853Y010436D01*
X017168Y010121D01*
X018349Y010121D01*
X018428Y010199D01*
X015790Y008310D02*
X015790Y007601D01*
X015514Y007325D02*
X014751Y007325D01*
X014751Y008325D01*
X015751Y008349D02*
X015790Y008310D01*
X015751Y012325D02*
X014751Y012325D01*
X017129Y023861D02*
X017129Y024609D01*
X018152Y025632D01*
X025672Y025632D01*
X026184Y025239D01*
X026184Y023640D01*
X026278Y023546D01*
X025278Y023546D02*
X025278Y024373D01*
X024884Y024766D01*
X018703Y024766D01*
X018129Y024191D01*
X018129Y023861D01*
X016262Y025160D02*
X014806Y025160D01*
X014097Y024451D01*
X013279Y024451D01*
X013003Y024176D01*
X011884Y024176D02*
X011695Y024176D01*
X011459Y024412D01*
X011459Y025239D01*
X012010Y025790D01*
X013625Y025790D01*
X014412Y026656D01*
X014412Y034648D01*
X014676Y034951D01*
X015475Y034951D01*
X017601Y026499D02*
X018310Y026538D01*
X017601Y026499D02*
X016262Y025160D01*
X025396Y034215D02*
X025396Y034806D01*
X025711Y035121D01*
X031735Y035121D01*
X032247Y035632D01*
X033211Y035632D01*
X033388Y035455D01*
X033388Y034077D02*
X033329Y034018D01*
X033191Y034018D01*
X033310Y033900D01*
X032522Y033113D01*
X027207Y027050D02*
X027207Y026066D01*
X027207Y025829D01*
X027207Y023979D01*
X027719Y023467D01*
X031223Y023467D01*
X031892Y022798D01*
X033279Y022798D01*
X033388Y022907D01*
X033388Y024027D02*
X033065Y024027D01*
X032522Y024569D01*
D27*
X032522Y033113D01*
D28*
X030947Y007247D02*
X030947Y006632D01*
X030963Y006617D01*
D29*
X030947Y006632D02*
X030947Y009597D01*
X030884Y009660D01*
X029963Y009581D02*
X029884Y009660D01*
X029884Y008270D01*
X029569Y007955D01*
X028963Y007695D02*
X028231Y008428D01*
X028231Y009412D01*
X028467Y009648D01*
X028873Y009648D01*
X028884Y009660D01*
X029451Y009018D02*
X028963Y008530D01*
X028963Y006617D01*
X028963Y007695D01*
X029963Y006617D02*
X029963Y009581D01*
X030884Y010660D02*
X030936Y010711D01*
X032365Y010711D01*
X031341Y011223D02*
X030436Y011223D01*
X030317Y011341D01*
X030317Y012365D01*
X029963Y012719D01*
X028979Y012719D02*
X028270Y012010D01*
X028270Y010121D01*
X028231Y013940D02*
X030987Y013940D01*
X031380Y014333D01*
X031380Y017995D01*
X030947Y018428D01*
M02*
