G75*
G70*
%OFA0B0*%
%FSLAX24Y24*%
%IPPOS*%
%LPD*%
%AMOC8*
5,1,8,0,0,1.08239X$1,22.5*
%
%ADD10C,0.0010*%
%ADD11C,0.0000*%
%ADD12C,0.0060*%
%ADD13C,0.0070*%
%ADD14C,0.0120*%
%ADD15C,0.0040*%
D10*
X001892Y001853D02*
X001892Y018979D01*
X001893Y019033D01*
X001897Y019087D01*
X001905Y019141D01*
X001917Y019194D01*
X001933Y019246D01*
X001952Y019296D01*
X001975Y019345D01*
X002001Y019393D01*
X002030Y019438D01*
X002063Y019482D01*
X002098Y019523D01*
X002136Y019561D01*
X002177Y019596D01*
X002221Y019629D01*
X002266Y019658D01*
X002314Y019684D01*
X002363Y019707D01*
X002413Y019726D01*
X002465Y019742D01*
X002518Y019754D01*
X002572Y019762D01*
X002626Y019766D01*
X002680Y019767D01*
X002680Y019766D02*
X005396Y019766D01*
X005438Y019767D01*
X005480Y019771D01*
X005521Y019778D01*
X005561Y019790D01*
X005600Y019805D01*
X005638Y019824D01*
X005673Y019846D01*
X005706Y019871D01*
X005737Y019900D01*
X005765Y019931D01*
X005790Y019964D01*
X005812Y020000D01*
X005831Y020037D01*
X005846Y020076D01*
X005857Y020116D01*
X005865Y020158D01*
X005869Y020199D01*
X005869Y021499D01*
X005869Y021498D02*
X005868Y021540D01*
X005864Y021582D01*
X005857Y021623D01*
X005845Y021663D01*
X005830Y021702D01*
X005811Y021740D01*
X005789Y021775D01*
X005764Y021808D01*
X005735Y021839D01*
X005704Y021867D01*
X005671Y021892D01*
X005635Y021914D01*
X005598Y021933D01*
X005559Y021948D01*
X005519Y021959D01*
X005477Y021967D01*
X005436Y021971D01*
X004845Y021971D01*
X004852Y021978D02*
X004642Y022008D01*
X004542Y022038D01*
X004442Y022088D01*
X004352Y022138D01*
X004272Y022208D01*
X004192Y022288D01*
X004132Y022368D01*
X004082Y022458D01*
X004032Y022558D01*
X003992Y022768D01*
X003392Y029268D01*
X003992Y035758D01*
X004032Y035968D01*
X004082Y036068D01*
X004132Y036158D01*
X004192Y036238D01*
X004272Y036318D01*
X004352Y036388D01*
X004442Y036438D01*
X004542Y036488D01*
X004642Y036518D01*
X004852Y036548D01*
X011342Y036548D01*
X012132Y035758D01*
X015992Y035758D01*
X016202Y035728D01*
X016312Y035698D01*
X016402Y035648D01*
X016492Y035588D01*
X016572Y035518D01*
X016652Y035438D01*
X016712Y035348D01*
X016792Y035148D01*
X016822Y034928D01*
X016822Y029268D01*
X016902Y028638D01*
X017142Y028058D01*
X017522Y027568D01*
X018022Y027188D01*
X018602Y026948D01*
X019222Y026858D01*
X019842Y026948D01*
X020422Y027188D01*
X020922Y027568D01*
X021302Y028058D01*
X021542Y028638D01*
X021622Y029268D01*
X021622Y034928D01*
X021616Y034924D02*
X021614Y034979D01*
X021616Y035034D01*
X021621Y035088D01*
X021630Y035142D01*
X021643Y035195D01*
X021660Y035248D01*
X021681Y035298D01*
X021705Y035348D01*
X021732Y035395D01*
X021763Y035441D01*
X021797Y035484D01*
X021833Y035524D01*
X021873Y035562D01*
X021915Y035597D01*
X021960Y035629D01*
X022007Y035657D01*
X022055Y035683D01*
X022106Y035704D01*
X022157Y035722D01*
X022210Y035737D01*
X022264Y035747D01*
X022318Y035754D01*
X022373Y035757D01*
X022428Y035756D01*
X022483Y035751D01*
X022452Y035758D02*
X026312Y035758D01*
X027092Y036548D01*
X033592Y036548D01*
X033802Y036518D01*
X033902Y036488D01*
X034002Y036438D01*
X034092Y036388D01*
X034172Y036318D01*
X034312Y036158D01*
X034362Y036068D01*
X034402Y035968D01*
X034452Y035758D01*
X035052Y029268D01*
X034452Y022768D01*
X034402Y022558D01*
X034362Y022458D01*
X034312Y022368D01*
X034172Y022208D01*
X034092Y022138D01*
X034002Y022088D01*
X033902Y022038D01*
X033802Y022008D01*
X033592Y021978D01*
X033585Y021971D02*
X031892Y021971D01*
X031893Y021971D02*
X031851Y021970D01*
X031809Y021966D01*
X031768Y021959D01*
X031728Y021947D01*
X031689Y021932D01*
X031651Y021913D01*
X031616Y021891D01*
X031583Y021866D01*
X031552Y021837D01*
X031524Y021806D01*
X031499Y021773D01*
X031477Y021737D01*
X031458Y021700D01*
X031443Y021661D01*
X031432Y021621D01*
X031424Y021579D01*
X031420Y021538D01*
X031420Y020239D01*
X031421Y020197D01*
X031425Y020155D01*
X031432Y020114D01*
X031444Y020074D01*
X031459Y020035D01*
X031478Y019997D01*
X031500Y019962D01*
X031525Y019929D01*
X031554Y019898D01*
X031585Y019870D01*
X031618Y019845D01*
X031654Y019823D01*
X031691Y019804D01*
X031730Y019789D01*
X031770Y019778D01*
X031812Y019770D01*
X031853Y019766D01*
X033113Y019766D01*
X033113Y019767D02*
X033154Y019763D01*
X033196Y019755D01*
X033236Y019744D01*
X033275Y019729D01*
X033312Y019710D01*
X033348Y019688D01*
X033381Y019663D01*
X033412Y019635D01*
X033441Y019604D01*
X033466Y019571D01*
X033488Y019536D01*
X033507Y019498D01*
X033522Y019459D01*
X033534Y019419D01*
X033541Y019378D01*
X033545Y019336D01*
X033546Y019294D01*
X033546Y006656D01*
X033545Y006602D01*
X033541Y006548D01*
X033533Y006494D01*
X033521Y006441D01*
X033505Y006389D01*
X033486Y006339D01*
X033463Y006290D01*
X033437Y006242D01*
X033408Y006197D01*
X033375Y006153D01*
X033340Y006112D01*
X033302Y006074D01*
X033261Y006039D01*
X033217Y006006D01*
X033172Y005977D01*
X033124Y005951D01*
X033075Y005928D01*
X033025Y005909D01*
X032973Y005893D01*
X032920Y005881D01*
X032866Y005873D01*
X032812Y005869D01*
X032758Y005868D01*
X032758Y005869D02*
X027168Y005908D01*
X027114Y005909D01*
X027060Y005913D01*
X027006Y005921D01*
X026953Y005933D01*
X026901Y005949D01*
X026851Y005968D01*
X026802Y005991D01*
X026754Y006017D01*
X026709Y006046D01*
X026665Y006079D01*
X026624Y006114D01*
X026586Y006152D01*
X026551Y006193D01*
X026518Y006237D01*
X026489Y006282D01*
X026463Y006330D01*
X026440Y006379D01*
X026421Y006429D01*
X026405Y006481D01*
X026393Y006534D01*
X026385Y006588D01*
X026381Y006642D01*
X026380Y006696D01*
X026380Y006695D02*
X026380Y019333D01*
X026380Y019334D02*
X026384Y019375D01*
X026392Y019417D01*
X026403Y019457D01*
X026418Y019496D01*
X026437Y019533D01*
X026459Y019569D01*
X026484Y019602D01*
X026512Y019633D01*
X026543Y019662D01*
X026576Y019687D01*
X026611Y019709D01*
X026649Y019728D01*
X026688Y019743D01*
X026728Y019755D01*
X026769Y019762D01*
X026811Y019766D01*
X026853Y019767D01*
X026853Y019766D02*
X027916Y019766D01*
X027958Y019767D01*
X028000Y019771D01*
X028041Y019778D01*
X028081Y019790D01*
X028120Y019805D01*
X028158Y019824D01*
X028193Y019846D01*
X028226Y019871D01*
X028257Y019900D01*
X028285Y019931D01*
X028310Y019964D01*
X028332Y020000D01*
X028351Y020037D01*
X028366Y020076D01*
X028377Y020116D01*
X028385Y020158D01*
X028389Y020199D01*
X028388Y020199D02*
X028388Y021499D01*
X028389Y021498D02*
X028388Y021540D01*
X028384Y021582D01*
X028377Y021623D01*
X028365Y021663D01*
X028350Y021702D01*
X028331Y021740D01*
X028309Y021775D01*
X028284Y021808D01*
X028255Y021839D01*
X028224Y021867D01*
X028191Y021892D01*
X028155Y021914D01*
X028118Y021933D01*
X028079Y021948D01*
X028039Y021959D01*
X027997Y021967D01*
X027956Y021971D01*
X027955Y021971D02*
X027089Y021971D01*
X027092Y021978D02*
X026233Y022060D01*
X012053Y022060D01*
X011342Y021978D01*
X011341Y021971D02*
X009373Y021971D01*
X009331Y021970D01*
X009289Y021966D01*
X009248Y021959D01*
X009208Y021947D01*
X009169Y021932D01*
X009131Y021913D01*
X009096Y021891D01*
X009063Y021866D01*
X009032Y021837D01*
X009004Y021806D01*
X008979Y021773D01*
X008957Y021737D01*
X008938Y021700D01*
X008923Y021661D01*
X008912Y021621D01*
X008904Y021579D01*
X008900Y021538D01*
X008900Y020239D01*
X008901Y020197D01*
X008905Y020155D01*
X008912Y020114D01*
X008924Y020074D01*
X008939Y020035D01*
X008958Y019997D01*
X008980Y019962D01*
X009005Y019929D01*
X009034Y019898D01*
X009065Y019870D01*
X009098Y019845D01*
X009134Y019823D01*
X009171Y019804D01*
X009210Y019789D01*
X009250Y019778D01*
X009292Y019770D01*
X009333Y019766D01*
X019648Y019766D01*
X019648Y019767D02*
X019702Y019766D01*
X019756Y019762D01*
X019810Y019754D01*
X019863Y019742D01*
X019915Y019726D01*
X019965Y019707D01*
X020014Y019684D01*
X020062Y019658D01*
X020107Y019629D01*
X020151Y019596D01*
X020192Y019561D01*
X020230Y019523D01*
X020265Y019482D01*
X020298Y019438D01*
X020327Y019393D01*
X020353Y019345D01*
X020376Y019296D01*
X020395Y019246D01*
X020411Y019194D01*
X020423Y019141D01*
X020431Y019087D01*
X020435Y019033D01*
X020436Y018979D01*
X020436Y014412D01*
X020435Y014412D02*
X020436Y014358D01*
X020440Y014304D01*
X020448Y014250D01*
X020460Y014197D01*
X020476Y014145D01*
X020495Y014095D01*
X020518Y014046D01*
X020544Y013998D01*
X020573Y013953D01*
X020606Y013909D01*
X020641Y013868D01*
X020679Y013830D01*
X020720Y013795D01*
X020764Y013762D01*
X020809Y013733D01*
X020857Y013707D01*
X020906Y013684D01*
X020956Y013665D01*
X021008Y013649D01*
X021061Y013637D01*
X021115Y013629D01*
X021169Y013625D01*
X021223Y013624D01*
X021219Y013615D02*
X021698Y013615D01*
X021898Y013595D01*
X021998Y013555D01*
X022088Y013515D01*
X022178Y013455D01*
X022318Y013315D01*
X022378Y013225D01*
X022428Y013135D01*
X022458Y013035D01*
X022488Y012835D01*
X022488Y008505D01*
X022458Y008295D01*
X022428Y008195D01*
X022378Y008105D01*
X022318Y008025D01*
X022248Y007945D01*
X022178Y007875D01*
X022088Y007815D01*
X021998Y007775D01*
X021898Y007745D01*
X021698Y007715D01*
X021298Y007715D01*
X021263Y007719D02*
X021209Y007718D01*
X021155Y007714D01*
X021101Y007706D01*
X021048Y007694D01*
X020996Y007678D01*
X020946Y007659D01*
X020897Y007636D01*
X020849Y007610D01*
X020804Y007581D01*
X020760Y007548D01*
X020719Y007513D01*
X020681Y007475D01*
X020646Y007434D01*
X020613Y007390D01*
X020584Y007345D01*
X020558Y007297D01*
X020535Y007248D01*
X020516Y007198D01*
X020500Y007146D01*
X020488Y007093D01*
X020480Y007039D01*
X020476Y006985D01*
X020475Y006931D01*
X020475Y006932D02*
X020475Y001853D01*
X020474Y001799D01*
X020470Y001745D01*
X020462Y001691D01*
X020450Y001638D01*
X020434Y001586D01*
X020415Y001536D01*
X020392Y001487D01*
X020366Y001439D01*
X020337Y001394D01*
X020304Y001350D01*
X020269Y001309D01*
X020231Y001271D01*
X020190Y001236D01*
X020146Y001203D01*
X020101Y001174D01*
X020053Y001148D01*
X020004Y001125D01*
X019954Y001106D01*
X019902Y001090D01*
X019849Y001078D01*
X019795Y001070D01*
X019741Y001066D01*
X019687Y001065D01*
X019688Y001066D02*
X002680Y001066D01*
X002680Y001065D02*
X002626Y001066D01*
X002572Y001070D01*
X002518Y001078D01*
X002465Y001090D01*
X002413Y001106D01*
X002363Y001125D01*
X002314Y001148D01*
X002266Y001174D01*
X002221Y001203D01*
X002177Y001236D01*
X002136Y001271D01*
X002098Y001309D01*
X002063Y001350D01*
X002030Y001394D01*
X002001Y001439D01*
X001975Y001487D01*
X001952Y001536D01*
X001933Y001586D01*
X001917Y001638D01*
X001905Y001691D01*
X001897Y001745D01*
X001893Y001799D01*
X001892Y001853D01*
X006422Y023748D02*
X006422Y034857D01*
X010362Y034857D01*
X010362Y023748D01*
X006422Y023748D01*
X028082Y024102D02*
X032012Y024102D01*
X032012Y034543D01*
X028082Y034543D01*
X028082Y024102D01*
D11*
X024097Y029254D02*
X024099Y029304D01*
X024105Y029354D01*
X024115Y029403D01*
X024129Y029451D01*
X024146Y029498D01*
X024167Y029543D01*
X024192Y029587D01*
X024220Y029628D01*
X024252Y029667D01*
X024286Y029704D01*
X024323Y029738D01*
X024363Y029768D01*
X024405Y029795D01*
X024449Y029819D01*
X024495Y029840D01*
X024542Y029856D01*
X024590Y029869D01*
X024640Y029878D01*
X024689Y029883D01*
X024740Y029884D01*
X024790Y029881D01*
X024839Y029874D01*
X024888Y029863D01*
X024936Y029848D01*
X024982Y029830D01*
X025027Y029808D01*
X025070Y029782D01*
X025111Y029753D01*
X025150Y029721D01*
X025186Y029686D01*
X025218Y029648D01*
X025248Y029608D01*
X025275Y029565D01*
X025298Y029521D01*
X025317Y029475D01*
X025333Y029427D01*
X025345Y029378D01*
X025353Y029329D01*
X025357Y029279D01*
X025357Y029229D01*
X025353Y029179D01*
X025345Y029130D01*
X025333Y029081D01*
X025317Y029033D01*
X025298Y028987D01*
X025275Y028943D01*
X025248Y028900D01*
X025218Y028860D01*
X025186Y028822D01*
X025150Y028787D01*
X025111Y028755D01*
X025070Y028726D01*
X025027Y028700D01*
X024982Y028678D01*
X024936Y028660D01*
X024888Y028645D01*
X024839Y028634D01*
X024790Y028627D01*
X024740Y028624D01*
X024689Y028625D01*
X024640Y028630D01*
X024590Y028639D01*
X024542Y028652D01*
X024495Y028668D01*
X024449Y028689D01*
X024405Y028713D01*
X024363Y028740D01*
X024323Y028770D01*
X024286Y028804D01*
X024252Y028841D01*
X024220Y028880D01*
X024192Y028921D01*
X024167Y028965D01*
X024146Y029010D01*
X024129Y029057D01*
X024115Y029105D01*
X024105Y029154D01*
X024099Y029204D01*
X024097Y029254D01*
X033034Y029294D02*
X033036Y029344D01*
X033042Y029394D01*
X033052Y029443D01*
X033066Y029491D01*
X033083Y029538D01*
X033104Y029583D01*
X033129Y029627D01*
X033157Y029668D01*
X033189Y029707D01*
X033223Y029744D01*
X033260Y029778D01*
X033300Y029808D01*
X033342Y029835D01*
X033386Y029859D01*
X033432Y029880D01*
X033479Y029896D01*
X033527Y029909D01*
X033577Y029918D01*
X033626Y029923D01*
X033677Y029924D01*
X033727Y029921D01*
X033776Y029914D01*
X033825Y029903D01*
X033873Y029888D01*
X033919Y029870D01*
X033964Y029848D01*
X034007Y029822D01*
X034048Y029793D01*
X034087Y029761D01*
X034123Y029726D01*
X034155Y029688D01*
X034185Y029648D01*
X034212Y029605D01*
X034235Y029561D01*
X034254Y029515D01*
X034270Y029467D01*
X034282Y029418D01*
X034290Y029369D01*
X034294Y029319D01*
X034294Y029269D01*
X034290Y029219D01*
X034282Y029170D01*
X034270Y029121D01*
X034254Y029073D01*
X034235Y029027D01*
X034212Y028983D01*
X034185Y028940D01*
X034155Y028900D01*
X034123Y028862D01*
X034087Y028827D01*
X034048Y028795D01*
X034007Y028766D01*
X033964Y028740D01*
X033919Y028718D01*
X033873Y028700D01*
X033825Y028685D01*
X033776Y028674D01*
X033727Y028667D01*
X033677Y028664D01*
X033626Y028665D01*
X033577Y028670D01*
X033527Y028679D01*
X033479Y028692D01*
X033432Y028708D01*
X033386Y028729D01*
X033342Y028753D01*
X033300Y028780D01*
X033260Y028810D01*
X033223Y028844D01*
X033189Y028881D01*
X033157Y028920D01*
X033129Y028961D01*
X033104Y029005D01*
X033083Y029050D01*
X033066Y029097D01*
X033052Y029145D01*
X033042Y029194D01*
X033036Y029244D01*
X033034Y029294D01*
X019878Y012635D02*
X019880Y012685D01*
X019886Y012735D01*
X019896Y012784D01*
X019910Y012832D01*
X019927Y012879D01*
X019948Y012924D01*
X019973Y012968D01*
X020001Y013009D01*
X020033Y013048D01*
X020067Y013085D01*
X020104Y013119D01*
X020144Y013149D01*
X020186Y013176D01*
X020230Y013200D01*
X020276Y013221D01*
X020323Y013237D01*
X020371Y013250D01*
X020421Y013259D01*
X020470Y013264D01*
X020521Y013265D01*
X020571Y013262D01*
X020620Y013255D01*
X020669Y013244D01*
X020717Y013229D01*
X020763Y013211D01*
X020808Y013189D01*
X020851Y013163D01*
X020892Y013134D01*
X020931Y013102D01*
X020967Y013067D01*
X020999Y013029D01*
X021029Y012989D01*
X021056Y012946D01*
X021079Y012902D01*
X021098Y012856D01*
X021114Y012808D01*
X021126Y012759D01*
X021134Y012710D01*
X021138Y012660D01*
X021138Y012610D01*
X021134Y012560D01*
X021126Y012511D01*
X021114Y012462D01*
X021098Y012414D01*
X021079Y012368D01*
X021056Y012324D01*
X021029Y012281D01*
X020999Y012241D01*
X020967Y012203D01*
X020931Y012168D01*
X020892Y012136D01*
X020851Y012107D01*
X020808Y012081D01*
X020763Y012059D01*
X020717Y012041D01*
X020669Y012026D01*
X020620Y012015D01*
X020571Y012008D01*
X020521Y012005D01*
X020470Y012006D01*
X020421Y012011D01*
X020371Y012020D01*
X020323Y012033D01*
X020276Y012049D01*
X020230Y012070D01*
X020186Y012094D01*
X020144Y012121D01*
X020104Y012151D01*
X020067Y012185D01*
X020033Y012222D01*
X020001Y012261D01*
X019973Y012302D01*
X019948Y012346D01*
X019927Y012391D01*
X019910Y012438D01*
X019896Y012486D01*
X019886Y012535D01*
X019880Y012585D01*
X019878Y012635D01*
X019878Y008685D02*
X019880Y008735D01*
X019886Y008785D01*
X019896Y008834D01*
X019910Y008882D01*
X019927Y008929D01*
X019948Y008974D01*
X019973Y009018D01*
X020001Y009059D01*
X020033Y009098D01*
X020067Y009135D01*
X020104Y009169D01*
X020144Y009199D01*
X020186Y009226D01*
X020230Y009250D01*
X020276Y009271D01*
X020323Y009287D01*
X020371Y009300D01*
X020421Y009309D01*
X020470Y009314D01*
X020521Y009315D01*
X020571Y009312D01*
X020620Y009305D01*
X020669Y009294D01*
X020717Y009279D01*
X020763Y009261D01*
X020808Y009239D01*
X020851Y009213D01*
X020892Y009184D01*
X020931Y009152D01*
X020967Y009117D01*
X020999Y009079D01*
X021029Y009039D01*
X021056Y008996D01*
X021079Y008952D01*
X021098Y008906D01*
X021114Y008858D01*
X021126Y008809D01*
X021134Y008760D01*
X021138Y008710D01*
X021138Y008660D01*
X021134Y008610D01*
X021126Y008561D01*
X021114Y008512D01*
X021098Y008464D01*
X021079Y008418D01*
X021056Y008374D01*
X021029Y008331D01*
X020999Y008291D01*
X020967Y008253D01*
X020931Y008218D01*
X020892Y008186D01*
X020851Y008157D01*
X020808Y008131D01*
X020763Y008109D01*
X020717Y008091D01*
X020669Y008076D01*
X020620Y008065D01*
X020571Y008058D01*
X020521Y008055D01*
X020470Y008056D01*
X020421Y008061D01*
X020371Y008070D01*
X020323Y008083D01*
X020276Y008099D01*
X020230Y008120D01*
X020186Y008144D01*
X020144Y008171D01*
X020104Y008201D01*
X020067Y008235D01*
X020033Y008272D01*
X020001Y008311D01*
X019973Y008352D01*
X019948Y008396D01*
X019927Y008441D01*
X019910Y008488D01*
X019896Y008536D01*
X019886Y008585D01*
X019880Y008635D01*
X019878Y008685D01*
X011178Y005745D02*
X011180Y005795D01*
X011186Y005845D01*
X011196Y005894D01*
X011210Y005942D01*
X011227Y005989D01*
X011248Y006034D01*
X011273Y006078D01*
X011301Y006119D01*
X011333Y006158D01*
X011367Y006195D01*
X011404Y006229D01*
X011444Y006259D01*
X011486Y006286D01*
X011530Y006310D01*
X011576Y006331D01*
X011623Y006347D01*
X011671Y006360D01*
X011721Y006369D01*
X011770Y006374D01*
X011821Y006375D01*
X011871Y006372D01*
X011920Y006365D01*
X011969Y006354D01*
X012017Y006339D01*
X012063Y006321D01*
X012108Y006299D01*
X012151Y006273D01*
X012192Y006244D01*
X012231Y006212D01*
X012267Y006177D01*
X012299Y006139D01*
X012329Y006099D01*
X012356Y006056D01*
X012379Y006012D01*
X012398Y005966D01*
X012414Y005918D01*
X012426Y005869D01*
X012434Y005820D01*
X012438Y005770D01*
X012438Y005720D01*
X012434Y005670D01*
X012426Y005621D01*
X012414Y005572D01*
X012398Y005524D01*
X012379Y005478D01*
X012356Y005434D01*
X012329Y005391D01*
X012299Y005351D01*
X012267Y005313D01*
X012231Y005278D01*
X012192Y005246D01*
X012151Y005217D01*
X012108Y005191D01*
X012063Y005169D01*
X012017Y005151D01*
X011969Y005136D01*
X011920Y005125D01*
X011871Y005118D01*
X011821Y005115D01*
X011770Y005116D01*
X011721Y005121D01*
X011671Y005130D01*
X011623Y005143D01*
X011576Y005159D01*
X011530Y005180D01*
X011486Y005204D01*
X011444Y005231D01*
X011404Y005261D01*
X011367Y005295D01*
X011333Y005332D01*
X011301Y005371D01*
X011273Y005412D01*
X011248Y005456D01*
X011227Y005501D01*
X011210Y005548D01*
X011196Y005596D01*
X011186Y005645D01*
X011180Y005695D01*
X011178Y005745D01*
X003548Y005745D02*
X003550Y005795D01*
X003556Y005845D01*
X003566Y005894D01*
X003580Y005942D01*
X003597Y005989D01*
X003618Y006034D01*
X003643Y006078D01*
X003671Y006119D01*
X003703Y006158D01*
X003737Y006195D01*
X003774Y006229D01*
X003814Y006259D01*
X003856Y006286D01*
X003900Y006310D01*
X003946Y006331D01*
X003993Y006347D01*
X004041Y006360D01*
X004091Y006369D01*
X004140Y006374D01*
X004191Y006375D01*
X004241Y006372D01*
X004290Y006365D01*
X004339Y006354D01*
X004387Y006339D01*
X004433Y006321D01*
X004478Y006299D01*
X004521Y006273D01*
X004562Y006244D01*
X004601Y006212D01*
X004637Y006177D01*
X004669Y006139D01*
X004699Y006099D01*
X004726Y006056D01*
X004749Y006012D01*
X004768Y005966D01*
X004784Y005918D01*
X004796Y005869D01*
X004804Y005820D01*
X004808Y005770D01*
X004808Y005720D01*
X004804Y005670D01*
X004796Y005621D01*
X004784Y005572D01*
X004768Y005524D01*
X004749Y005478D01*
X004726Y005434D01*
X004699Y005391D01*
X004669Y005351D01*
X004637Y005313D01*
X004601Y005278D01*
X004562Y005246D01*
X004521Y005217D01*
X004478Y005191D01*
X004433Y005169D01*
X004387Y005151D01*
X004339Y005136D01*
X004290Y005125D01*
X004241Y005118D01*
X004191Y005115D01*
X004140Y005116D01*
X004091Y005121D01*
X004041Y005130D01*
X003993Y005143D01*
X003946Y005159D01*
X003900Y005180D01*
X003856Y005204D01*
X003814Y005231D01*
X003774Y005261D01*
X003737Y005295D01*
X003703Y005332D01*
X003671Y005371D01*
X003643Y005412D01*
X003618Y005456D01*
X003597Y005501D01*
X003580Y005548D01*
X003566Y005596D01*
X003556Y005645D01*
X003550Y005695D01*
X003548Y005745D01*
X003558Y015595D02*
X003560Y015645D01*
X003566Y015695D01*
X003576Y015744D01*
X003590Y015792D01*
X003607Y015839D01*
X003628Y015884D01*
X003653Y015928D01*
X003681Y015969D01*
X003713Y016008D01*
X003747Y016045D01*
X003784Y016079D01*
X003824Y016109D01*
X003866Y016136D01*
X003910Y016160D01*
X003956Y016181D01*
X004003Y016197D01*
X004051Y016210D01*
X004101Y016219D01*
X004150Y016224D01*
X004201Y016225D01*
X004251Y016222D01*
X004300Y016215D01*
X004349Y016204D01*
X004397Y016189D01*
X004443Y016171D01*
X004488Y016149D01*
X004531Y016123D01*
X004572Y016094D01*
X004611Y016062D01*
X004647Y016027D01*
X004679Y015989D01*
X004709Y015949D01*
X004736Y015906D01*
X004759Y015862D01*
X004778Y015816D01*
X004794Y015768D01*
X004806Y015719D01*
X004814Y015670D01*
X004818Y015620D01*
X004818Y015570D01*
X004814Y015520D01*
X004806Y015471D01*
X004794Y015422D01*
X004778Y015374D01*
X004759Y015328D01*
X004736Y015284D01*
X004709Y015241D01*
X004679Y015201D01*
X004647Y015163D01*
X004611Y015128D01*
X004572Y015096D01*
X004531Y015067D01*
X004488Y015041D01*
X004443Y015019D01*
X004397Y015001D01*
X004349Y014986D01*
X004300Y014975D01*
X004251Y014968D01*
X004201Y014965D01*
X004150Y014966D01*
X004101Y014971D01*
X004051Y014980D01*
X004003Y014993D01*
X003956Y015009D01*
X003910Y015030D01*
X003866Y015054D01*
X003824Y015081D01*
X003784Y015111D01*
X003747Y015145D01*
X003713Y015182D01*
X003681Y015221D01*
X003653Y015262D01*
X003628Y015306D01*
X003607Y015351D01*
X003590Y015398D01*
X003576Y015446D01*
X003566Y015495D01*
X003560Y015545D01*
X003558Y015595D01*
X011198Y015585D02*
X011200Y015635D01*
X011206Y015685D01*
X011216Y015734D01*
X011230Y015782D01*
X011247Y015829D01*
X011268Y015874D01*
X011293Y015918D01*
X011321Y015959D01*
X011353Y015998D01*
X011387Y016035D01*
X011424Y016069D01*
X011464Y016099D01*
X011506Y016126D01*
X011550Y016150D01*
X011596Y016171D01*
X011643Y016187D01*
X011691Y016200D01*
X011741Y016209D01*
X011790Y016214D01*
X011841Y016215D01*
X011891Y016212D01*
X011940Y016205D01*
X011989Y016194D01*
X012037Y016179D01*
X012083Y016161D01*
X012128Y016139D01*
X012171Y016113D01*
X012212Y016084D01*
X012251Y016052D01*
X012287Y016017D01*
X012319Y015979D01*
X012349Y015939D01*
X012376Y015896D01*
X012399Y015852D01*
X012418Y015806D01*
X012434Y015758D01*
X012446Y015709D01*
X012454Y015660D01*
X012458Y015610D01*
X012458Y015560D01*
X012454Y015510D01*
X012446Y015461D01*
X012434Y015412D01*
X012418Y015364D01*
X012399Y015318D01*
X012376Y015274D01*
X012349Y015231D01*
X012319Y015191D01*
X012287Y015153D01*
X012251Y015118D01*
X012212Y015086D01*
X012171Y015057D01*
X012128Y015031D01*
X012083Y015009D01*
X012037Y014991D01*
X011989Y014976D01*
X011940Y014965D01*
X011891Y014958D01*
X011841Y014955D01*
X011790Y014956D01*
X011741Y014961D01*
X011691Y014970D01*
X011643Y014983D01*
X011596Y014999D01*
X011550Y015020D01*
X011506Y015044D01*
X011464Y015071D01*
X011424Y015101D01*
X011387Y015135D01*
X011353Y015172D01*
X011321Y015211D01*
X011293Y015252D01*
X011268Y015296D01*
X011247Y015341D01*
X011230Y015388D01*
X011216Y015436D01*
X011206Y015485D01*
X011200Y015535D01*
X011198Y015585D01*
X011971Y027286D02*
X011973Y027336D01*
X011979Y027386D01*
X011989Y027435D01*
X012003Y027483D01*
X012020Y027530D01*
X012041Y027575D01*
X012066Y027619D01*
X012094Y027660D01*
X012126Y027699D01*
X012160Y027736D01*
X012197Y027770D01*
X012237Y027800D01*
X012279Y027827D01*
X012323Y027851D01*
X012369Y027872D01*
X012416Y027888D01*
X012464Y027901D01*
X012514Y027910D01*
X012563Y027915D01*
X012614Y027916D01*
X012664Y027913D01*
X012713Y027906D01*
X012762Y027895D01*
X012810Y027880D01*
X012856Y027862D01*
X012901Y027840D01*
X012944Y027814D01*
X012985Y027785D01*
X013024Y027753D01*
X013060Y027718D01*
X013092Y027680D01*
X013122Y027640D01*
X013149Y027597D01*
X013172Y027553D01*
X013191Y027507D01*
X013207Y027459D01*
X013219Y027410D01*
X013227Y027361D01*
X013231Y027311D01*
X013231Y027261D01*
X013227Y027211D01*
X013219Y027162D01*
X013207Y027113D01*
X013191Y027065D01*
X013172Y027019D01*
X013149Y026975D01*
X013122Y026932D01*
X013092Y026892D01*
X013060Y026854D01*
X013024Y026819D01*
X012985Y026787D01*
X012944Y026758D01*
X012901Y026732D01*
X012856Y026710D01*
X012810Y026692D01*
X012762Y026677D01*
X012713Y026666D01*
X012664Y026659D01*
X012614Y026656D01*
X012563Y026657D01*
X012514Y026662D01*
X012464Y026671D01*
X012416Y026684D01*
X012369Y026700D01*
X012323Y026721D01*
X012279Y026745D01*
X012237Y026772D01*
X012197Y026802D01*
X012160Y026836D01*
X012126Y026873D01*
X012094Y026912D01*
X012066Y026953D01*
X012041Y026997D01*
X012020Y027042D01*
X012003Y027089D01*
X011989Y027137D01*
X011979Y027186D01*
X011973Y027236D01*
X011971Y027286D01*
X011971Y031223D02*
X011973Y031273D01*
X011979Y031323D01*
X011989Y031372D01*
X012003Y031420D01*
X012020Y031467D01*
X012041Y031512D01*
X012066Y031556D01*
X012094Y031597D01*
X012126Y031636D01*
X012160Y031673D01*
X012197Y031707D01*
X012237Y031737D01*
X012279Y031764D01*
X012323Y031788D01*
X012369Y031809D01*
X012416Y031825D01*
X012464Y031838D01*
X012514Y031847D01*
X012563Y031852D01*
X012614Y031853D01*
X012664Y031850D01*
X012713Y031843D01*
X012762Y031832D01*
X012810Y031817D01*
X012856Y031799D01*
X012901Y031777D01*
X012944Y031751D01*
X012985Y031722D01*
X013024Y031690D01*
X013060Y031655D01*
X013092Y031617D01*
X013122Y031577D01*
X013149Y031534D01*
X013172Y031490D01*
X013191Y031444D01*
X013207Y031396D01*
X013219Y031347D01*
X013227Y031298D01*
X013231Y031248D01*
X013231Y031198D01*
X013227Y031148D01*
X013219Y031099D01*
X013207Y031050D01*
X013191Y031002D01*
X013172Y030956D01*
X013149Y030912D01*
X013122Y030869D01*
X013092Y030829D01*
X013060Y030791D01*
X013024Y030756D01*
X012985Y030724D01*
X012944Y030695D01*
X012901Y030669D01*
X012856Y030647D01*
X012810Y030629D01*
X012762Y030614D01*
X012713Y030603D01*
X012664Y030596D01*
X012614Y030593D01*
X012563Y030594D01*
X012514Y030599D01*
X012464Y030608D01*
X012416Y030621D01*
X012369Y030637D01*
X012323Y030658D01*
X012279Y030682D01*
X012237Y030709D01*
X012197Y030739D01*
X012160Y030773D01*
X012126Y030810D01*
X012094Y030849D01*
X012066Y030890D01*
X012041Y030934D01*
X012020Y030979D01*
X012003Y031026D01*
X011989Y031074D01*
X011979Y031123D01*
X011973Y031173D01*
X011971Y031223D01*
X004136Y029254D02*
X004138Y029304D01*
X004144Y029354D01*
X004154Y029403D01*
X004168Y029451D01*
X004185Y029498D01*
X004206Y029543D01*
X004231Y029587D01*
X004259Y029628D01*
X004291Y029667D01*
X004325Y029704D01*
X004362Y029738D01*
X004402Y029768D01*
X004444Y029795D01*
X004488Y029819D01*
X004534Y029840D01*
X004581Y029856D01*
X004629Y029869D01*
X004679Y029878D01*
X004728Y029883D01*
X004779Y029884D01*
X004829Y029881D01*
X004878Y029874D01*
X004927Y029863D01*
X004975Y029848D01*
X005021Y029830D01*
X005066Y029808D01*
X005109Y029782D01*
X005150Y029753D01*
X005189Y029721D01*
X005225Y029686D01*
X005257Y029648D01*
X005287Y029608D01*
X005314Y029565D01*
X005337Y029521D01*
X005356Y029475D01*
X005372Y029427D01*
X005384Y029378D01*
X005392Y029329D01*
X005396Y029279D01*
X005396Y029229D01*
X005392Y029179D01*
X005384Y029130D01*
X005372Y029081D01*
X005356Y029033D01*
X005337Y028987D01*
X005314Y028943D01*
X005287Y028900D01*
X005257Y028860D01*
X005225Y028822D01*
X005189Y028787D01*
X005150Y028755D01*
X005109Y028726D01*
X005066Y028700D01*
X005021Y028678D01*
X004975Y028660D01*
X004927Y028645D01*
X004878Y028634D01*
X004829Y028627D01*
X004779Y028624D01*
X004728Y028625D01*
X004679Y028630D01*
X004629Y028639D01*
X004581Y028652D01*
X004534Y028668D01*
X004488Y028689D01*
X004444Y028713D01*
X004402Y028740D01*
X004362Y028770D01*
X004325Y028804D01*
X004291Y028841D01*
X004259Y028880D01*
X004231Y028921D01*
X004206Y028965D01*
X004185Y029010D01*
X004168Y029057D01*
X004154Y029105D01*
X004144Y029154D01*
X004138Y029204D01*
X004136Y029254D01*
D12*
X024127Y023502D02*
X024554Y023502D01*
X024341Y023716D02*
X024341Y023289D01*
X024954Y022878D02*
X025381Y022878D01*
X025598Y022664D02*
X025812Y022878D01*
X026025Y022664D01*
X026025Y022237D01*
X026243Y022237D02*
X026243Y022878D01*
X026670Y022237D01*
X026670Y022878D01*
X026883Y023502D02*
X027310Y023502D01*
X026025Y022558D02*
X025598Y022558D01*
X025598Y022664D02*
X025598Y022237D01*
X025167Y022558D02*
X024954Y022558D01*
X024954Y022878D02*
X024954Y022237D01*
D13*
X032293Y025582D02*
X032365Y025510D01*
X032652Y025510D01*
X032723Y025582D01*
X032723Y025725D01*
X032652Y025797D01*
X032365Y025797D01*
X032293Y025725D01*
X032293Y025582D01*
X032293Y025970D02*
X032293Y026186D01*
X032365Y026257D01*
X032508Y026257D01*
X032580Y026186D01*
X032580Y025970D01*
X032723Y025970D02*
X032293Y025970D01*
X032293Y026431D02*
X032723Y026431D01*
X032723Y026718D01*
X032723Y026891D02*
X032293Y026891D01*
X032723Y027178D01*
X032293Y027178D01*
X032293Y027352D02*
X032723Y027352D01*
X032508Y027352D02*
X032508Y027638D01*
X032508Y027812D02*
X032508Y028099D01*
X032437Y028099D02*
X032723Y028099D01*
X032723Y028272D02*
X032293Y028272D01*
X032293Y028487D01*
X032365Y028559D01*
X032508Y028559D01*
X032580Y028487D01*
X032580Y028272D01*
X032580Y028416D02*
X032723Y028559D01*
X032723Y028733D02*
X032723Y028948D01*
X032652Y029020D01*
X032365Y029020D01*
X032293Y028948D01*
X032293Y028733D01*
X032723Y028733D01*
X032437Y028099D02*
X032293Y027955D01*
X032437Y027812D01*
X032723Y027812D01*
X032723Y027638D02*
X032293Y027638D01*
X032293Y026718D02*
X032293Y026431D01*
X032508Y026431D02*
X032508Y026574D01*
X032293Y029193D02*
X032723Y029193D01*
X032580Y029337D01*
X032723Y029480D01*
X032293Y029480D01*
X032437Y029653D02*
X032293Y029797D01*
X032437Y029940D01*
X032723Y029940D01*
X032723Y030114D02*
X032293Y030114D01*
X032293Y030329D01*
X032365Y030401D01*
X032508Y030401D01*
X032580Y030329D01*
X032580Y030114D01*
X032580Y030257D02*
X032723Y030401D01*
X032723Y030574D02*
X032723Y030861D01*
X032723Y031035D02*
X032652Y031035D01*
X032652Y031106D01*
X032723Y031106D01*
X032723Y031035D01*
X032652Y031265D02*
X032723Y031337D01*
X032723Y031480D01*
X032652Y031552D01*
X032652Y031725D02*
X032723Y031797D01*
X032723Y031940D01*
X032652Y032012D01*
X032365Y032012D01*
X032293Y031940D01*
X032293Y031797D01*
X032365Y031725D01*
X032652Y031725D01*
X032365Y031552D02*
X032293Y031480D01*
X032293Y031337D01*
X032365Y031265D01*
X032652Y031265D01*
X032293Y030861D02*
X032293Y030574D01*
X032723Y030574D01*
X032508Y030574D02*
X032508Y030718D01*
X032508Y029940D02*
X032508Y029653D01*
X032437Y029653D02*
X032723Y029653D01*
X032723Y032186D02*
X032652Y032186D01*
X032652Y032257D01*
X032723Y032257D01*
X032723Y032186D01*
X032723Y032416D02*
X032723Y032703D01*
X032723Y032876D02*
X032437Y032876D01*
X032293Y033020D01*
X032437Y033163D01*
X032723Y033163D01*
X032508Y033163D02*
X032508Y032876D01*
X032365Y032703D02*
X032293Y032703D01*
X032293Y032416D01*
X032365Y032703D02*
X032652Y032416D01*
X032723Y032416D01*
X033856Y033481D02*
X034143Y033481D01*
X034000Y033625D02*
X034000Y033338D01*
X027384Y032534D02*
X027384Y032247D01*
X027312Y032175D01*
X027097Y032175D01*
X027097Y032606D01*
X027312Y032606D01*
X027384Y032534D01*
X026923Y032606D02*
X026923Y032175D01*
X026636Y032606D01*
X026636Y032175D01*
X026463Y032175D02*
X026176Y032175D01*
X026176Y032606D01*
X026463Y032606D01*
X026319Y032390D02*
X026176Y032390D01*
X026003Y032606D02*
X025716Y032606D01*
X025859Y032606D02*
X025859Y032175D01*
X025542Y032247D02*
X025542Y032534D01*
X025470Y032606D01*
X025327Y032606D01*
X025255Y032534D01*
X025255Y032247D01*
X025327Y032175D01*
X025470Y032175D01*
X025542Y032247D01*
X025082Y032175D02*
X025082Y032606D01*
X025082Y032390D02*
X024795Y032390D01*
X024795Y032175D02*
X024795Y032606D01*
X024275Y034046D02*
X024275Y034333D01*
X024132Y034190D02*
X024419Y034190D01*
X016309Y033914D02*
X016022Y033914D01*
X016016Y033224D02*
X015801Y033224D01*
X015801Y032793D01*
X016016Y032793D01*
X016088Y032865D01*
X016088Y033152D01*
X016016Y033224D01*
X015627Y033224D02*
X015340Y033224D01*
X015340Y032793D01*
X015627Y032793D01*
X015484Y033009D02*
X015340Y033009D01*
X015167Y032793D02*
X014880Y032793D01*
X014880Y033224D01*
X013426Y032633D02*
X013426Y032203D01*
X013139Y032203D02*
X013139Y032633D01*
X013282Y032490D01*
X013426Y032633D01*
X012965Y032562D02*
X012965Y032418D01*
X012894Y032346D01*
X012679Y032346D01*
X012822Y032346D02*
X012965Y032203D01*
X012679Y032203D02*
X012679Y032633D01*
X012894Y032633D01*
X012965Y032562D01*
X012505Y032633D02*
X012218Y032633D01*
X012218Y032203D01*
X012505Y032203D01*
X012362Y032418D02*
X012218Y032418D01*
X012045Y032418D02*
X011758Y032418D01*
X011758Y032203D02*
X011758Y032633D01*
X011584Y032633D02*
X011297Y032633D01*
X011441Y032633D02*
X011441Y032203D01*
X012045Y032203D02*
X012045Y032633D01*
X016022Y034977D02*
X016309Y034977D01*
X016165Y034834D02*
X016165Y035121D01*
X006216Y032974D02*
X005929Y032974D01*
X005785Y032831D01*
X005929Y032687D01*
X006216Y032687D01*
X006216Y032514D02*
X006216Y032227D01*
X006144Y032227D01*
X005857Y032514D01*
X005785Y032514D01*
X005785Y032227D01*
X006144Y032068D02*
X006216Y032068D01*
X006216Y031997D01*
X006144Y031997D01*
X006144Y032068D01*
X006144Y031823D02*
X005857Y031823D01*
X005785Y031752D01*
X005785Y031608D01*
X005857Y031536D01*
X006144Y031536D01*
X006216Y031608D01*
X006216Y031752D01*
X006144Y031823D01*
X006144Y031363D02*
X006216Y031291D01*
X006216Y031148D01*
X006144Y031076D01*
X005857Y031076D01*
X005785Y031148D01*
X005785Y031291D01*
X005857Y031363D01*
X006144Y030918D02*
X006216Y030918D01*
X006216Y030846D01*
X006144Y030846D01*
X006144Y030918D01*
X006216Y030672D02*
X006216Y030385D01*
X005785Y030385D01*
X005785Y030672D01*
X006000Y030529D02*
X006000Y030385D01*
X006000Y030212D02*
X006072Y030140D01*
X006072Y029925D01*
X006072Y030068D02*
X006216Y030212D01*
X006000Y030212D02*
X005857Y030212D01*
X005785Y030140D01*
X005785Y029925D01*
X006216Y029925D01*
X006216Y029752D02*
X005929Y029752D01*
X005785Y029608D01*
X005929Y029465D01*
X006216Y029465D01*
X006216Y029291D02*
X005785Y029291D01*
X006000Y029465D02*
X006000Y029752D01*
X006216Y029291D02*
X006072Y029148D01*
X006216Y029004D01*
X005785Y029004D01*
X005857Y028831D02*
X005785Y028759D01*
X005785Y028544D01*
X006216Y028544D01*
X006216Y028759D01*
X006144Y028831D01*
X005857Y028831D01*
X005857Y028370D02*
X006000Y028370D01*
X006072Y028299D01*
X006072Y028083D01*
X006216Y028083D02*
X005785Y028083D01*
X005785Y028299D01*
X005857Y028370D01*
X006072Y028227D02*
X006216Y028370D01*
X006216Y027910D02*
X005929Y027910D01*
X005785Y027766D01*
X005929Y027623D01*
X006216Y027623D01*
X006216Y027450D02*
X005785Y027450D01*
X006000Y027450D02*
X006000Y027163D01*
X005785Y027163D02*
X006216Y027163D01*
X006216Y026989D02*
X005785Y026989D01*
X005785Y026702D02*
X006216Y026989D01*
X006216Y026702D02*
X005785Y026702D01*
X005785Y026529D02*
X005785Y026242D01*
X006216Y026242D01*
X006216Y026529D01*
X006000Y026385D02*
X006000Y026242D01*
X006000Y026068D02*
X006072Y025997D01*
X006072Y025781D01*
X006216Y025781D02*
X005785Y025781D01*
X005785Y025997D01*
X005857Y026068D01*
X006000Y026068D01*
X005857Y025608D02*
X005785Y025536D01*
X005785Y025393D01*
X005857Y025321D01*
X006144Y025321D01*
X006216Y025393D01*
X006216Y025536D01*
X006144Y025608D01*
X005857Y025608D01*
X006000Y027623D02*
X006000Y027910D01*
X006000Y032687D02*
X006000Y032974D01*
X008900Y019371D02*
X008828Y019299D01*
X008828Y019084D01*
X009259Y019084D01*
X009259Y019299D01*
X009187Y019371D01*
X008900Y019371D01*
X008828Y018910D02*
X009259Y018910D01*
X008828Y018623D01*
X009259Y018623D01*
X009259Y018450D02*
X009259Y018163D01*
X008828Y018163D01*
X008828Y018450D01*
X009044Y018306D02*
X009044Y018163D01*
X009044Y017990D02*
X009044Y017703D01*
X008900Y017529D02*
X008828Y017529D01*
X008900Y017529D02*
X009044Y017386D01*
X009259Y017386D01*
X009044Y017386D02*
X008900Y017242D01*
X008828Y017242D01*
X008949Y012515D02*
X008949Y012085D01*
X009236Y012085D01*
X009092Y012300D02*
X008949Y012300D01*
X008775Y012300D02*
X008632Y012300D01*
X008775Y012300D02*
X008775Y012156D01*
X008704Y012085D01*
X008560Y012085D01*
X008488Y012156D01*
X008488Y012443D01*
X008560Y012515D01*
X008704Y012515D01*
X008775Y012443D01*
X008949Y012515D02*
X009236Y012515D01*
X008315Y012372D02*
X008315Y012085D01*
X008315Y012300D02*
X008028Y012300D01*
X008028Y012372D02*
X008028Y012085D01*
X007865Y012085D02*
X007721Y012085D01*
X007793Y012085D02*
X007793Y012515D01*
X007721Y012515D02*
X007865Y012515D01*
X008028Y012372D02*
X008172Y012515D01*
X008315Y012372D01*
X007548Y012443D02*
X007548Y012300D01*
X007476Y012228D01*
X007261Y012228D01*
X007404Y012228D02*
X007548Y012085D01*
X007261Y012085D02*
X007261Y012515D01*
X007476Y012515D01*
X007548Y012443D01*
X007087Y012443D02*
X007087Y012300D01*
X007016Y012228D01*
X006800Y012228D01*
X006800Y012085D02*
X006800Y012515D01*
X007016Y012515D01*
X007087Y012443D01*
X006944Y012228D02*
X007087Y012085D01*
X006627Y012085D02*
X006627Y012372D01*
X006483Y012515D01*
X006340Y012372D01*
X006340Y012085D01*
X006166Y012156D02*
X006095Y012085D01*
X005951Y012085D01*
X005880Y012156D01*
X005880Y012443D01*
X005951Y012515D01*
X006095Y012515D01*
X006166Y012443D01*
X006340Y012300D02*
X006627Y012300D01*
X005706Y012300D02*
X005419Y012300D01*
X005246Y012443D02*
X005246Y012515D01*
X005246Y012443D02*
X005102Y012300D01*
X005102Y012085D01*
X005102Y012300D02*
X004959Y012443D01*
X004959Y012515D01*
X013671Y012444D02*
X013671Y012300D01*
X013743Y012229D01*
X014030Y012229D01*
X014101Y012300D01*
X014101Y012444D01*
X014030Y012516D01*
X013886Y012516D01*
X013886Y012372D01*
X013743Y012516D02*
X013671Y012444D01*
X013671Y012689D02*
X014101Y012689D01*
X014101Y012976D01*
X013886Y012832D02*
X013886Y012689D01*
X013671Y012689D02*
X013671Y012976D01*
X013814Y012055D02*
X014101Y012055D01*
X013886Y012055D02*
X013886Y011768D01*
X013814Y011768D02*
X014101Y011768D01*
X014101Y011605D02*
X014101Y011461D01*
X014101Y011533D02*
X013671Y011533D01*
X013671Y011461D02*
X013671Y011605D01*
X013814Y011768D02*
X013671Y011912D01*
X013814Y012055D01*
X013743Y011288D02*
X013886Y011288D01*
X013958Y011216D01*
X013958Y011001D01*
X013958Y011144D02*
X014101Y011288D01*
X014101Y011001D02*
X013671Y011001D01*
X013671Y011216D01*
X013743Y011288D01*
X013743Y010827D02*
X013886Y010827D01*
X013958Y010756D01*
X013958Y010541D01*
X013958Y010684D02*
X014101Y010827D01*
X014101Y010541D02*
X013671Y010541D01*
X013671Y010756D01*
X013743Y010827D01*
X013814Y010367D02*
X014101Y010367D01*
X013886Y010367D02*
X013886Y010080D01*
X013814Y010080D02*
X014101Y010080D01*
X014030Y009907D02*
X014101Y009835D01*
X014101Y009691D01*
X014030Y009620D01*
X013743Y009620D01*
X013671Y009691D01*
X013671Y009835D01*
X013743Y009907D01*
X013814Y010080D02*
X013671Y010224D01*
X013814Y010367D01*
X013886Y009446D02*
X013886Y009159D01*
X013671Y008986D02*
X014101Y008699D01*
X014101Y008986D02*
X013671Y008699D01*
X016554Y009026D02*
X016841Y009456D01*
X017015Y009241D02*
X017302Y009241D01*
X017475Y009241D02*
X017619Y009241D01*
X017762Y009456D02*
X017475Y009456D01*
X017475Y009026D01*
X017762Y009026D01*
X017936Y009026D02*
X017936Y009456D01*
X018223Y009026D01*
X018223Y009456D01*
X018396Y009456D02*
X018611Y009456D01*
X018683Y009384D01*
X018683Y009097D01*
X018611Y009026D01*
X018396Y009026D01*
X018396Y009456D01*
X016841Y009026D02*
X016554Y009456D01*
X014594Y002791D02*
X014451Y002647D01*
X014451Y002360D01*
X014278Y002360D02*
X013991Y002360D01*
X013991Y002432D01*
X014278Y002719D01*
X014278Y002791D01*
X013991Y002791D01*
X013832Y002432D02*
X013832Y002360D01*
X013760Y002360D01*
X013760Y002432D01*
X013832Y002432D01*
X013587Y002432D02*
X013587Y002719D01*
X013515Y002791D01*
X013372Y002791D01*
X013300Y002719D01*
X013300Y002432D01*
X013372Y002360D01*
X013515Y002360D01*
X013587Y002432D01*
X013127Y002432D02*
X013055Y002360D01*
X012911Y002360D01*
X012840Y002432D01*
X012840Y002719D01*
X012911Y002791D01*
X013055Y002791D01*
X013127Y002719D01*
X012681Y002432D02*
X012681Y002360D01*
X012609Y002360D01*
X012609Y002432D01*
X012681Y002432D01*
X012436Y002360D02*
X012149Y002360D01*
X012149Y002791D01*
X012436Y002791D01*
X012293Y002576D02*
X012149Y002576D01*
X011976Y002576D02*
X011976Y002719D01*
X011904Y002791D01*
X011689Y002791D01*
X011689Y002360D01*
X011689Y002504D02*
X011904Y002504D01*
X011976Y002576D01*
X011832Y002504D02*
X011976Y002360D01*
X011515Y002360D02*
X011515Y002647D01*
X011372Y002791D01*
X011228Y002647D01*
X011228Y002360D01*
X011055Y002360D02*
X011055Y002791D01*
X011228Y002576D02*
X011515Y002576D01*
X011055Y002360D02*
X010911Y002504D01*
X010768Y002360D01*
X010768Y002791D01*
X010594Y002719D02*
X010594Y002432D01*
X010523Y002360D01*
X010308Y002360D01*
X010308Y002791D01*
X010523Y002791D01*
X010594Y002719D01*
X010134Y002719D02*
X010134Y002576D01*
X010062Y002504D01*
X009847Y002504D01*
X009991Y002504D02*
X010134Y002360D01*
X009847Y002360D02*
X009847Y002791D01*
X010062Y002791D01*
X010134Y002719D01*
X009674Y002647D02*
X009674Y002360D01*
X009674Y002576D02*
X009387Y002576D01*
X009387Y002647D02*
X009387Y002360D01*
X009213Y002360D02*
X009213Y002791D01*
X009213Y002576D02*
X008926Y002576D01*
X008926Y002791D02*
X008926Y002360D01*
X008753Y002360D02*
X008753Y002791D01*
X008466Y002791D02*
X008466Y002360D01*
X008292Y002360D02*
X008006Y002360D01*
X008006Y002791D01*
X008292Y002791D01*
X008466Y002791D02*
X008753Y002360D01*
X008149Y002576D02*
X008006Y002576D01*
X007832Y002576D02*
X007760Y002504D01*
X007545Y002504D01*
X007545Y002360D02*
X007545Y002791D01*
X007760Y002791D01*
X007832Y002719D01*
X007832Y002576D01*
X007372Y002719D02*
X007372Y002432D01*
X007300Y002360D01*
X007156Y002360D01*
X007085Y002432D01*
X007085Y002719D01*
X007156Y002791D01*
X007300Y002791D01*
X007372Y002719D01*
X009387Y002647D02*
X009530Y002791D01*
X009674Y002647D01*
X014451Y002576D02*
X014738Y002576D01*
X014738Y002647D02*
X014738Y002360D01*
X014738Y002647D02*
X014594Y002791D01*
D14*
X014491Y006853D02*
X014215Y007129D01*
X014215Y014569D01*
X014491Y014845D01*
X015987Y014845D01*
X016262Y014569D01*
X016262Y007089D01*
X016026Y006853D01*
X014491Y006853D01*
X011814Y009845D02*
X002286Y009845D01*
X002050Y010081D01*
X002050Y011695D01*
X002247Y011892D01*
X011814Y011892D01*
X012050Y011656D01*
X012050Y010081D01*
X011814Y009845D01*
X014884Y022325D02*
X022404Y022325D01*
X022680Y022601D01*
X022680Y024136D01*
X022404Y024412D01*
X014884Y024412D01*
X014569Y024097D01*
X014569Y022640D01*
X014884Y022325D01*
X013467Y023743D02*
X011420Y023743D01*
X011420Y024609D01*
X013467Y024609D01*
X013467Y023743D01*
X014884Y029372D02*
X014884Y029165D01*
X014895Y028957D01*
X014915Y028751D01*
X014945Y028545D01*
X014986Y028341D01*
X015036Y028140D01*
X015096Y027941D01*
X015165Y027745D01*
X015244Y027553D01*
X015332Y027365D01*
X015429Y027182D01*
X015535Y027003D01*
X015649Y026830D01*
X015772Y026662D01*
X015903Y026501D01*
X016041Y026346D01*
X016187Y026198D01*
X016340Y026058D01*
X016499Y025925D01*
X016665Y025800D01*
X016837Y025683D01*
X017014Y025574D01*
X017196Y025474D01*
X017383Y025384D01*
X017574Y025302D01*
X017768Y025230D01*
X017966Y025167D01*
X018167Y025114D01*
X018370Y025071D01*
X018575Y025038D01*
X018782Y025015D01*
X018989Y025001D01*
X019196Y024998D01*
X019404Y025005D01*
X019611Y025022D01*
X019817Y025049D01*
X020021Y025086D01*
X020223Y025133D01*
X020423Y025190D01*
X020620Y025256D01*
X020813Y025332D01*
X021003Y025417D01*
X021188Y025511D01*
X021368Y025614D01*
X021543Y025726D01*
X021712Y025846D01*
X021876Y025974D01*
X022033Y026110D01*
X022183Y026254D01*
X022326Y026404D01*
X022462Y026561D01*
X022589Y026725D01*
X022709Y026895D01*
X022820Y027070D01*
X022923Y027251D01*
X023017Y027436D01*
X023101Y027626D01*
X023177Y027819D01*
X023242Y028016D01*
X023299Y028216D01*
X023345Y028418D01*
X023381Y028623D01*
X023408Y028829D01*
X023424Y029036D01*
X023431Y029243D01*
X023427Y029451D01*
X022089Y029412D02*
X022092Y029273D01*
X022089Y029134D01*
X022078Y028995D01*
X022061Y028858D01*
X022038Y028721D01*
X022008Y028585D01*
X021971Y028451D01*
X021928Y028319D01*
X021878Y028189D01*
X021822Y028062D01*
X021760Y027938D01*
X021692Y027817D01*
X021618Y027699D01*
X021539Y027585D01*
X021454Y027475D01*
X021364Y027369D01*
X021269Y027268D01*
X021169Y027172D01*
X021065Y027080D01*
X020956Y026994D01*
X020843Y026913D01*
X020726Y026838D01*
X020606Y026768D01*
X020482Y026704D01*
X020356Y026647D01*
X020227Y026595D01*
X020095Y026550D01*
X019962Y026512D01*
X019827Y026480D01*
X019690Y026454D01*
X019553Y026436D01*
X019414Y026424D01*
X019275Y026418D01*
X019136Y026420D01*
X018998Y026428D01*
X018860Y026443D01*
X018722Y026465D01*
X018586Y026493D01*
X018452Y026528D01*
X018319Y026569D01*
X018189Y026617D01*
X018061Y026671D01*
X017936Y026731D01*
X017814Y026797D01*
X017695Y026869D01*
X017580Y026947D01*
X017469Y027030D01*
X017362Y027119D01*
X017259Y027213D01*
X017161Y027311D01*
X017068Y027415D01*
X016980Y027522D01*
X016898Y027634D01*
X016821Y027750D01*
X016750Y027869D01*
X016684Y027991D01*
X016625Y028117D01*
X016572Y028245D01*
X016525Y028376D01*
X016484Y028509D01*
X016450Y028644D01*
X016423Y028780D01*
X016402Y028917D01*
X016388Y029055D01*
X016381Y029194D01*
X016381Y029333D01*
X027522Y018270D02*
X027522Y016380D01*
X027562Y014963D02*
X027562Y013073D01*
X032404Y013073D01*
X032404Y015003D01*
X032404Y016380D02*
X032404Y018231D01*
X031302Y018231D01*
X030593Y018270D02*
X029333Y018270D01*
X028625Y018270D02*
X027522Y018270D01*
X028781Y015672D02*
X028783Y015740D01*
X028789Y015808D01*
X028799Y015875D01*
X028812Y015942D01*
X028830Y016008D01*
X028851Y016073D01*
X028876Y016136D01*
X028904Y016198D01*
X028937Y016258D01*
X028972Y016316D01*
X029011Y016372D01*
X029053Y016426D01*
X029098Y016477D01*
X029145Y016526D01*
X029196Y016571D01*
X029249Y016614D01*
X029305Y016654D01*
X029362Y016690D01*
X029422Y016723D01*
X029483Y016752D01*
X029546Y016778D01*
X029611Y016800D01*
X029676Y016819D01*
X029743Y016833D01*
X029810Y016844D01*
X029878Y016851D01*
X029946Y016854D01*
X030014Y016853D01*
X030082Y016848D01*
X030150Y016839D01*
X030217Y016826D01*
X030283Y016810D01*
X030348Y016790D01*
X030411Y016766D01*
X030474Y016738D01*
X030534Y016707D01*
X030593Y016672D01*
X030649Y016634D01*
X030704Y016593D01*
X030756Y016549D01*
X030805Y016502D01*
X030851Y016452D01*
X030895Y016399D01*
X030935Y016345D01*
X030972Y016287D01*
X031006Y016228D01*
X031036Y016167D01*
X031063Y016105D01*
X031086Y016040D01*
X031105Y015975D01*
X031121Y015909D01*
X031133Y015842D01*
X031141Y015774D01*
X031145Y015706D01*
X031145Y015638D01*
X031141Y015570D01*
X031133Y015502D01*
X031121Y015435D01*
X031105Y015369D01*
X031086Y015304D01*
X031063Y015239D01*
X031036Y015177D01*
X031006Y015116D01*
X030972Y015057D01*
X030935Y014999D01*
X030895Y014945D01*
X030851Y014892D01*
X030805Y014842D01*
X030756Y014795D01*
X030704Y014751D01*
X030649Y014710D01*
X030593Y014672D01*
X030534Y014637D01*
X030474Y014606D01*
X030411Y014578D01*
X030348Y014554D01*
X030283Y014534D01*
X030217Y014518D01*
X030150Y014505D01*
X030082Y014496D01*
X030014Y014491D01*
X029946Y014490D01*
X029878Y014493D01*
X029810Y014500D01*
X029743Y014511D01*
X029676Y014525D01*
X029611Y014544D01*
X029546Y014566D01*
X029483Y014592D01*
X029422Y014621D01*
X029362Y014654D01*
X029305Y014690D01*
X029249Y014730D01*
X029196Y014773D01*
X029145Y014818D01*
X029098Y014867D01*
X029053Y014918D01*
X029011Y014972D01*
X028972Y015028D01*
X028937Y015086D01*
X028904Y015146D01*
X028876Y015208D01*
X028851Y015271D01*
X028830Y015336D01*
X028812Y015402D01*
X028799Y015469D01*
X028789Y015536D01*
X028783Y015604D01*
X028781Y015672D01*
X028506Y015672D02*
X028508Y015748D01*
X028514Y015824D01*
X028524Y015900D01*
X028538Y015975D01*
X028556Y016049D01*
X028577Y016122D01*
X028603Y016194D01*
X028632Y016265D01*
X028665Y016333D01*
X028701Y016400D01*
X028741Y016466D01*
X028784Y016528D01*
X028831Y016589D01*
X028880Y016647D01*
X028933Y016702D01*
X028988Y016755D01*
X029046Y016804D01*
X029107Y016851D01*
X029169Y016894D01*
X029234Y016934D01*
X029302Y016970D01*
X029370Y017003D01*
X029441Y017032D01*
X029513Y017058D01*
X029586Y017079D01*
X029660Y017097D01*
X029735Y017111D01*
X029811Y017121D01*
X029887Y017127D01*
X029963Y017129D01*
X030039Y017127D01*
X030115Y017121D01*
X030191Y017111D01*
X030266Y017097D01*
X030340Y017079D01*
X030413Y017058D01*
X030485Y017032D01*
X030556Y017003D01*
X030624Y016970D01*
X030691Y016934D01*
X030757Y016894D01*
X030819Y016851D01*
X030880Y016804D01*
X030938Y016755D01*
X030993Y016702D01*
X031046Y016647D01*
X031095Y016589D01*
X031142Y016528D01*
X031185Y016466D01*
X031225Y016401D01*
X031261Y016333D01*
X031294Y016265D01*
X031323Y016194D01*
X031349Y016122D01*
X031370Y016049D01*
X031388Y015975D01*
X031402Y015900D01*
X031412Y015824D01*
X031418Y015748D01*
X031420Y015672D01*
X031418Y015596D01*
X031412Y015520D01*
X031402Y015444D01*
X031388Y015369D01*
X031370Y015295D01*
X031349Y015222D01*
X031323Y015150D01*
X031294Y015079D01*
X031261Y015011D01*
X031225Y014944D01*
X031185Y014878D01*
X031142Y014816D01*
X031095Y014755D01*
X031046Y014697D01*
X030993Y014642D01*
X030938Y014589D01*
X030880Y014540D01*
X030819Y014493D01*
X030757Y014450D01*
X030692Y014410D01*
X030624Y014374D01*
X030556Y014341D01*
X030485Y014312D01*
X030413Y014286D01*
X030340Y014265D01*
X030266Y014247D01*
X030191Y014233D01*
X030115Y014223D01*
X030039Y014217D01*
X029963Y014215D01*
X029887Y014217D01*
X029811Y014223D01*
X029735Y014233D01*
X029660Y014247D01*
X029586Y014265D01*
X029513Y014286D01*
X029441Y014312D01*
X029370Y014341D01*
X029302Y014374D01*
X029235Y014410D01*
X029169Y014450D01*
X029107Y014493D01*
X029046Y014540D01*
X028988Y014589D01*
X028933Y014642D01*
X028880Y014697D01*
X028831Y014755D01*
X028784Y014816D01*
X028741Y014878D01*
X028701Y014943D01*
X028665Y015011D01*
X028632Y015079D01*
X028603Y015150D01*
X028577Y015222D01*
X028556Y015295D01*
X028538Y015369D01*
X028524Y015444D01*
X028514Y015520D01*
X028508Y015596D01*
X028506Y015672D01*
X032995Y022483D02*
X032995Y024451D01*
X033743Y024451D01*
X033782Y024412D01*
X033782Y022483D01*
X032995Y022483D01*
X032995Y033743D02*
X033743Y033743D01*
X033743Y035790D01*
X033703Y035790D02*
X032995Y035790D01*
X032995Y033743D01*
X031774Y007640D02*
X031499Y007640D01*
X031617Y007522D01*
X031617Y007365D02*
X031774Y007640D01*
X031499Y007640D02*
X031420Y007640D01*
X031617Y007365D01*
X031262Y007286D02*
X030672Y007286D01*
D15*
X030705Y007936D02*
X030891Y007936D01*
X030999Y007936D02*
X031046Y007936D01*
X031046Y007983D01*
X030999Y007983D01*
X030999Y007936D01*
X031147Y007983D02*
X031193Y007936D01*
X031287Y007936D01*
X031333Y007983D01*
X031441Y007983D02*
X031488Y007936D01*
X031581Y007936D01*
X031628Y007983D01*
X031628Y008169D01*
X031581Y008216D01*
X031488Y008216D01*
X031441Y008169D01*
X031441Y007983D01*
X031333Y008169D02*
X031287Y008216D01*
X031193Y008216D01*
X031147Y008169D01*
X031147Y007983D01*
X030891Y008216D02*
X030705Y008216D01*
X030705Y007936D01*
X030597Y007936D02*
X030503Y008029D01*
X030550Y008029D02*
X030410Y008029D01*
X030410Y007936D02*
X030410Y008216D01*
X030550Y008216D01*
X030597Y008169D01*
X030597Y008076D01*
X030550Y008029D01*
X030705Y008076D02*
X030798Y008076D01*
X030302Y008076D02*
X030115Y008076D01*
X030115Y008123D02*
X030209Y008216D01*
X030302Y008123D01*
X030302Y007936D01*
X030115Y007936D02*
X030115Y008123D01*
X030008Y008216D02*
X030008Y007936D01*
X029914Y008029D01*
X029821Y007936D01*
X029821Y008216D01*
X029713Y008169D02*
X029666Y008216D01*
X029526Y008216D01*
X029526Y007936D01*
X029666Y007936D01*
X029713Y007983D01*
X029713Y008169D01*
X029418Y008169D02*
X029371Y008216D01*
X029231Y008216D01*
X029231Y007936D01*
X029231Y008029D02*
X029371Y008029D01*
X029418Y008076D01*
X029418Y008169D01*
X029325Y008029D02*
X029418Y007936D01*
X029124Y007936D02*
X029124Y008123D01*
X029030Y008216D01*
X028937Y008123D01*
X028937Y007936D01*
X028829Y007936D02*
X028829Y008216D01*
X028829Y008076D02*
X028642Y008076D01*
X028642Y007936D02*
X028642Y008216D01*
X028534Y008216D02*
X028534Y007936D01*
X028347Y008216D01*
X028347Y007936D01*
X028240Y007936D02*
X028053Y007936D01*
X028053Y008216D01*
X028240Y008216D01*
X028146Y008076D02*
X028053Y008076D01*
X027945Y008076D02*
X027898Y008029D01*
X027758Y008029D01*
X027758Y007936D02*
X027758Y008216D01*
X027898Y008216D01*
X027945Y008169D01*
X027945Y008076D01*
X027650Y007983D02*
X027650Y008169D01*
X027604Y008216D01*
X027510Y008216D01*
X027463Y008169D01*
X027463Y007983D01*
X027510Y007936D01*
X027604Y007936D01*
X027650Y007983D01*
X028937Y008076D02*
X029124Y008076D01*
X031736Y007983D02*
X031783Y007983D01*
X031783Y007936D01*
X031736Y007936D01*
X031736Y007983D01*
X031883Y007983D02*
X031883Y007936D01*
X032070Y007936D01*
X032178Y007936D02*
X032178Y008123D01*
X032271Y008216D01*
X032365Y008123D01*
X032365Y007936D01*
X032365Y008076D02*
X032178Y008076D01*
X032070Y008169D02*
X031883Y007983D01*
X031883Y008216D02*
X032070Y008216D01*
X032070Y008169D01*
M02*
