G75*
G70*
%OFA0B0*%
%FSLAX24Y24*%
%IPPOS*%
%LPD*%
%AMOC8*
5,1,8,0,0,1.08239X$1,22.5*
%
%ADD10C,0.0010*%
%ADD11C,0.0000*%
%ADD12C,0.1300*%
%ADD13R,0.0840X0.0840*%
%ADD14C,0.0840*%
%ADD15OC8,0.0780*%
%ADD16C,0.0780*%
%ADD17R,0.0780X0.0780*%
%ADD18OC8,0.0700*%
%ADD19R,0.0634X0.0634*%
%ADD20R,0.1306X0.1306*%
%ADD21R,0.0640X0.1340*%
%ADD22R,0.2900X0.1600*%
D10*
X001892Y001853D02*
X001892Y018979D01*
X001893Y019033D01*
X001897Y019087D01*
X001905Y019141D01*
X001917Y019194D01*
X001933Y019246D01*
X001952Y019296D01*
X001975Y019345D01*
X002001Y019393D01*
X002030Y019438D01*
X002063Y019482D01*
X002098Y019523D01*
X002136Y019561D01*
X002177Y019596D01*
X002221Y019629D01*
X002266Y019658D01*
X002314Y019684D01*
X002363Y019707D01*
X002413Y019726D01*
X002465Y019742D01*
X002518Y019754D01*
X002572Y019762D01*
X002626Y019766D01*
X002680Y019767D01*
X002680Y019766D02*
X005396Y019766D01*
X005438Y019767D01*
X005480Y019771D01*
X005521Y019778D01*
X005561Y019790D01*
X005600Y019805D01*
X005638Y019824D01*
X005673Y019846D01*
X005706Y019871D01*
X005737Y019900D01*
X005765Y019931D01*
X005790Y019964D01*
X005812Y020000D01*
X005831Y020037D01*
X005846Y020076D01*
X005857Y020116D01*
X005865Y020158D01*
X005869Y020199D01*
X005869Y021499D01*
X005869Y021498D02*
X005868Y021540D01*
X005864Y021582D01*
X005857Y021623D01*
X005845Y021663D01*
X005830Y021702D01*
X005811Y021740D01*
X005789Y021775D01*
X005764Y021808D01*
X005735Y021839D01*
X005704Y021867D01*
X005671Y021892D01*
X005635Y021914D01*
X005598Y021933D01*
X005559Y021948D01*
X005519Y021959D01*
X005477Y021967D01*
X005436Y021971D01*
X004845Y021971D01*
X004852Y021978D02*
X004642Y022008D01*
X004542Y022038D01*
X004442Y022088D01*
X004352Y022138D01*
X004272Y022208D01*
X004192Y022288D01*
X004132Y022368D01*
X004082Y022458D01*
X004032Y022558D01*
X003992Y022768D01*
X003392Y029268D01*
X003992Y035758D01*
X004032Y035968D01*
X004082Y036068D01*
X004132Y036158D01*
X004192Y036238D01*
X004272Y036318D01*
X004352Y036388D01*
X004442Y036438D01*
X004542Y036488D01*
X004642Y036518D01*
X004852Y036548D01*
X011342Y036548D01*
X012132Y035758D01*
X015992Y035758D01*
X016202Y035728D01*
X016312Y035698D01*
X016402Y035648D01*
X016492Y035588D01*
X016572Y035518D01*
X016652Y035438D01*
X016712Y035348D01*
X016792Y035148D01*
X016822Y034928D01*
X016822Y029268D01*
X016902Y028638D01*
X017142Y028058D01*
X017522Y027568D01*
X018022Y027188D01*
X018602Y026948D01*
X019222Y026858D01*
X019842Y026948D01*
X020422Y027188D01*
X020922Y027568D01*
X021302Y028058D01*
X021542Y028638D01*
X021622Y029268D01*
X021622Y034928D01*
X021616Y034924D02*
X021614Y034979D01*
X021616Y035034D01*
X021621Y035088D01*
X021630Y035142D01*
X021643Y035195D01*
X021660Y035248D01*
X021681Y035298D01*
X021705Y035348D01*
X021732Y035395D01*
X021763Y035441D01*
X021797Y035484D01*
X021833Y035524D01*
X021873Y035562D01*
X021915Y035597D01*
X021960Y035629D01*
X022007Y035657D01*
X022055Y035683D01*
X022106Y035704D01*
X022157Y035722D01*
X022210Y035737D01*
X022264Y035747D01*
X022318Y035754D01*
X022373Y035757D01*
X022428Y035756D01*
X022483Y035751D01*
X022452Y035758D02*
X026312Y035758D01*
X027092Y036548D01*
X033592Y036548D01*
X033802Y036518D01*
X033902Y036488D01*
X034002Y036438D01*
X034092Y036388D01*
X034172Y036318D01*
X034312Y036158D01*
X034362Y036068D01*
X034402Y035968D01*
X034452Y035758D01*
X035052Y029268D01*
X034452Y022768D01*
X034402Y022558D01*
X034362Y022458D01*
X034312Y022368D01*
X034172Y022208D01*
X034092Y022138D01*
X034002Y022088D01*
X033902Y022038D01*
X033802Y022008D01*
X033592Y021978D01*
X033585Y021971D02*
X031892Y021971D01*
X031893Y021971D02*
X031851Y021970D01*
X031809Y021966D01*
X031768Y021959D01*
X031728Y021947D01*
X031689Y021932D01*
X031651Y021913D01*
X031616Y021891D01*
X031583Y021866D01*
X031552Y021837D01*
X031524Y021806D01*
X031499Y021773D01*
X031477Y021737D01*
X031458Y021700D01*
X031443Y021661D01*
X031432Y021621D01*
X031424Y021579D01*
X031420Y021538D01*
X031420Y020239D01*
X031421Y020197D01*
X031425Y020155D01*
X031432Y020114D01*
X031444Y020074D01*
X031459Y020035D01*
X031478Y019997D01*
X031500Y019962D01*
X031525Y019929D01*
X031554Y019898D01*
X031585Y019870D01*
X031618Y019845D01*
X031654Y019823D01*
X031691Y019804D01*
X031730Y019789D01*
X031770Y019778D01*
X031812Y019770D01*
X031853Y019766D01*
X033113Y019766D01*
X033113Y019767D02*
X033154Y019763D01*
X033196Y019755D01*
X033236Y019744D01*
X033275Y019729D01*
X033312Y019710D01*
X033348Y019688D01*
X033381Y019663D01*
X033412Y019635D01*
X033441Y019604D01*
X033466Y019571D01*
X033488Y019536D01*
X033507Y019498D01*
X033522Y019459D01*
X033534Y019419D01*
X033541Y019378D01*
X033545Y019336D01*
X033546Y019294D01*
X033546Y006656D01*
X033545Y006602D01*
X033541Y006548D01*
X033533Y006494D01*
X033521Y006441D01*
X033505Y006389D01*
X033486Y006339D01*
X033463Y006290D01*
X033437Y006242D01*
X033408Y006197D01*
X033375Y006153D01*
X033340Y006112D01*
X033302Y006074D01*
X033261Y006039D01*
X033217Y006006D01*
X033172Y005977D01*
X033124Y005951D01*
X033075Y005928D01*
X033025Y005909D01*
X032973Y005893D01*
X032920Y005881D01*
X032866Y005873D01*
X032812Y005869D01*
X032758Y005868D01*
X032758Y005869D02*
X027168Y005908D01*
X027114Y005909D01*
X027060Y005913D01*
X027006Y005921D01*
X026953Y005933D01*
X026901Y005949D01*
X026851Y005968D01*
X026802Y005991D01*
X026754Y006017D01*
X026709Y006046D01*
X026665Y006079D01*
X026624Y006114D01*
X026586Y006152D01*
X026551Y006193D01*
X026518Y006237D01*
X026489Y006282D01*
X026463Y006330D01*
X026440Y006379D01*
X026421Y006429D01*
X026405Y006481D01*
X026393Y006534D01*
X026385Y006588D01*
X026381Y006642D01*
X026380Y006696D01*
X026380Y006695D02*
X026380Y019333D01*
X026380Y019334D02*
X026384Y019375D01*
X026392Y019417D01*
X026403Y019457D01*
X026418Y019496D01*
X026437Y019533D01*
X026459Y019569D01*
X026484Y019602D01*
X026512Y019633D01*
X026543Y019662D01*
X026576Y019687D01*
X026611Y019709D01*
X026649Y019728D01*
X026688Y019743D01*
X026728Y019755D01*
X026769Y019762D01*
X026811Y019766D01*
X026853Y019767D01*
X026853Y019766D02*
X027916Y019766D01*
X027958Y019767D01*
X028000Y019771D01*
X028041Y019778D01*
X028081Y019790D01*
X028120Y019805D01*
X028158Y019824D01*
X028193Y019846D01*
X028226Y019871D01*
X028257Y019900D01*
X028285Y019931D01*
X028310Y019964D01*
X028332Y020000D01*
X028351Y020037D01*
X028366Y020076D01*
X028377Y020116D01*
X028385Y020158D01*
X028389Y020199D01*
X028388Y020199D02*
X028388Y021499D01*
X028389Y021498D02*
X028388Y021540D01*
X028384Y021582D01*
X028377Y021623D01*
X028365Y021663D01*
X028350Y021702D01*
X028331Y021740D01*
X028309Y021775D01*
X028284Y021808D01*
X028255Y021839D01*
X028224Y021867D01*
X028191Y021892D01*
X028155Y021914D01*
X028118Y021933D01*
X028079Y021948D01*
X028039Y021959D01*
X027997Y021967D01*
X027956Y021971D01*
X027955Y021971D02*
X027089Y021971D01*
X027092Y021978D02*
X026233Y022060D01*
X012053Y022060D01*
X011342Y021978D01*
X011341Y021971D02*
X009373Y021971D01*
X009331Y021970D01*
X009289Y021966D01*
X009248Y021959D01*
X009208Y021947D01*
X009169Y021932D01*
X009131Y021913D01*
X009096Y021891D01*
X009063Y021866D01*
X009032Y021837D01*
X009004Y021806D01*
X008979Y021773D01*
X008957Y021737D01*
X008938Y021700D01*
X008923Y021661D01*
X008912Y021621D01*
X008904Y021579D01*
X008900Y021538D01*
X008900Y020239D01*
X008901Y020197D01*
X008905Y020155D01*
X008912Y020114D01*
X008924Y020074D01*
X008939Y020035D01*
X008958Y019997D01*
X008980Y019962D01*
X009005Y019929D01*
X009034Y019898D01*
X009065Y019870D01*
X009098Y019845D01*
X009134Y019823D01*
X009171Y019804D01*
X009210Y019789D01*
X009250Y019778D01*
X009292Y019770D01*
X009333Y019766D01*
X019648Y019766D01*
X019648Y019767D02*
X019702Y019766D01*
X019756Y019762D01*
X019810Y019754D01*
X019863Y019742D01*
X019915Y019726D01*
X019965Y019707D01*
X020014Y019684D01*
X020062Y019658D01*
X020107Y019629D01*
X020151Y019596D01*
X020192Y019561D01*
X020230Y019523D01*
X020265Y019482D01*
X020298Y019438D01*
X020327Y019393D01*
X020353Y019345D01*
X020376Y019296D01*
X020395Y019246D01*
X020411Y019194D01*
X020423Y019141D01*
X020431Y019087D01*
X020435Y019033D01*
X020436Y018979D01*
X020436Y014412D01*
X020435Y014412D02*
X020436Y014358D01*
X020440Y014304D01*
X020448Y014250D01*
X020460Y014197D01*
X020476Y014145D01*
X020495Y014095D01*
X020518Y014046D01*
X020544Y013998D01*
X020573Y013953D01*
X020606Y013909D01*
X020641Y013868D01*
X020679Y013830D01*
X020720Y013795D01*
X020764Y013762D01*
X020809Y013733D01*
X020857Y013707D01*
X020906Y013684D01*
X020956Y013665D01*
X021008Y013649D01*
X021061Y013637D01*
X021115Y013629D01*
X021169Y013625D01*
X021223Y013624D01*
X021219Y013615D02*
X021698Y013615D01*
X021898Y013595D01*
X021998Y013555D01*
X022088Y013515D01*
X022178Y013455D01*
X022318Y013315D01*
X022378Y013225D01*
X022428Y013135D01*
X022458Y013035D01*
X022488Y012835D01*
X022488Y008505D01*
X022458Y008295D01*
X022428Y008195D01*
X022378Y008105D01*
X022318Y008025D01*
X022248Y007945D01*
X022178Y007875D01*
X022088Y007815D01*
X021998Y007775D01*
X021898Y007745D01*
X021698Y007715D01*
X021298Y007715D01*
X021263Y007719D02*
X021209Y007718D01*
X021155Y007714D01*
X021101Y007706D01*
X021048Y007694D01*
X020996Y007678D01*
X020946Y007659D01*
X020897Y007636D01*
X020849Y007610D01*
X020804Y007581D01*
X020760Y007548D01*
X020719Y007513D01*
X020681Y007475D01*
X020646Y007434D01*
X020613Y007390D01*
X020584Y007345D01*
X020558Y007297D01*
X020535Y007248D01*
X020516Y007198D01*
X020500Y007146D01*
X020488Y007093D01*
X020480Y007039D01*
X020476Y006985D01*
X020475Y006931D01*
X020475Y006932D02*
X020475Y001853D01*
X020474Y001799D01*
X020470Y001745D01*
X020462Y001691D01*
X020450Y001638D01*
X020434Y001586D01*
X020415Y001536D01*
X020392Y001487D01*
X020366Y001439D01*
X020337Y001394D01*
X020304Y001350D01*
X020269Y001309D01*
X020231Y001271D01*
X020190Y001236D01*
X020146Y001203D01*
X020101Y001174D01*
X020053Y001148D01*
X020004Y001125D01*
X019954Y001106D01*
X019902Y001090D01*
X019849Y001078D01*
X019795Y001070D01*
X019741Y001066D01*
X019687Y001065D01*
X019688Y001066D02*
X002680Y001066D01*
X002680Y001065D02*
X002626Y001066D01*
X002572Y001070D01*
X002518Y001078D01*
X002465Y001090D01*
X002413Y001106D01*
X002363Y001125D01*
X002314Y001148D01*
X002266Y001174D01*
X002221Y001203D01*
X002177Y001236D01*
X002136Y001271D01*
X002098Y001309D01*
X002063Y001350D01*
X002030Y001394D01*
X002001Y001439D01*
X001975Y001487D01*
X001952Y001536D01*
X001933Y001586D01*
X001917Y001638D01*
X001905Y001691D01*
X001897Y001745D01*
X001893Y001799D01*
X001892Y001853D01*
X006422Y023748D02*
X006422Y034857D01*
X010362Y034857D01*
X010362Y023748D01*
X006422Y023748D01*
X028082Y024102D02*
X032012Y024102D01*
X032012Y034543D01*
X028082Y034543D01*
X028082Y024102D01*
D11*
X024097Y029254D02*
X024099Y029304D01*
X024105Y029354D01*
X024115Y029403D01*
X024129Y029451D01*
X024146Y029498D01*
X024167Y029543D01*
X024192Y029587D01*
X024220Y029628D01*
X024252Y029667D01*
X024286Y029704D01*
X024323Y029738D01*
X024363Y029768D01*
X024405Y029795D01*
X024449Y029819D01*
X024495Y029840D01*
X024542Y029856D01*
X024590Y029869D01*
X024640Y029878D01*
X024689Y029883D01*
X024740Y029884D01*
X024790Y029881D01*
X024839Y029874D01*
X024888Y029863D01*
X024936Y029848D01*
X024982Y029830D01*
X025027Y029808D01*
X025070Y029782D01*
X025111Y029753D01*
X025150Y029721D01*
X025186Y029686D01*
X025218Y029648D01*
X025248Y029608D01*
X025275Y029565D01*
X025298Y029521D01*
X025317Y029475D01*
X025333Y029427D01*
X025345Y029378D01*
X025353Y029329D01*
X025357Y029279D01*
X025357Y029229D01*
X025353Y029179D01*
X025345Y029130D01*
X025333Y029081D01*
X025317Y029033D01*
X025298Y028987D01*
X025275Y028943D01*
X025248Y028900D01*
X025218Y028860D01*
X025186Y028822D01*
X025150Y028787D01*
X025111Y028755D01*
X025070Y028726D01*
X025027Y028700D01*
X024982Y028678D01*
X024936Y028660D01*
X024888Y028645D01*
X024839Y028634D01*
X024790Y028627D01*
X024740Y028624D01*
X024689Y028625D01*
X024640Y028630D01*
X024590Y028639D01*
X024542Y028652D01*
X024495Y028668D01*
X024449Y028689D01*
X024405Y028713D01*
X024363Y028740D01*
X024323Y028770D01*
X024286Y028804D01*
X024252Y028841D01*
X024220Y028880D01*
X024192Y028921D01*
X024167Y028965D01*
X024146Y029010D01*
X024129Y029057D01*
X024115Y029105D01*
X024105Y029154D01*
X024099Y029204D01*
X024097Y029254D01*
X033034Y029294D02*
X033036Y029344D01*
X033042Y029394D01*
X033052Y029443D01*
X033066Y029491D01*
X033083Y029538D01*
X033104Y029583D01*
X033129Y029627D01*
X033157Y029668D01*
X033189Y029707D01*
X033223Y029744D01*
X033260Y029778D01*
X033300Y029808D01*
X033342Y029835D01*
X033386Y029859D01*
X033432Y029880D01*
X033479Y029896D01*
X033527Y029909D01*
X033577Y029918D01*
X033626Y029923D01*
X033677Y029924D01*
X033727Y029921D01*
X033776Y029914D01*
X033825Y029903D01*
X033873Y029888D01*
X033919Y029870D01*
X033964Y029848D01*
X034007Y029822D01*
X034048Y029793D01*
X034087Y029761D01*
X034123Y029726D01*
X034155Y029688D01*
X034185Y029648D01*
X034212Y029605D01*
X034235Y029561D01*
X034254Y029515D01*
X034270Y029467D01*
X034282Y029418D01*
X034290Y029369D01*
X034294Y029319D01*
X034294Y029269D01*
X034290Y029219D01*
X034282Y029170D01*
X034270Y029121D01*
X034254Y029073D01*
X034235Y029027D01*
X034212Y028983D01*
X034185Y028940D01*
X034155Y028900D01*
X034123Y028862D01*
X034087Y028827D01*
X034048Y028795D01*
X034007Y028766D01*
X033964Y028740D01*
X033919Y028718D01*
X033873Y028700D01*
X033825Y028685D01*
X033776Y028674D01*
X033727Y028667D01*
X033677Y028664D01*
X033626Y028665D01*
X033577Y028670D01*
X033527Y028679D01*
X033479Y028692D01*
X033432Y028708D01*
X033386Y028729D01*
X033342Y028753D01*
X033300Y028780D01*
X033260Y028810D01*
X033223Y028844D01*
X033189Y028881D01*
X033157Y028920D01*
X033129Y028961D01*
X033104Y029005D01*
X033083Y029050D01*
X033066Y029097D01*
X033052Y029145D01*
X033042Y029194D01*
X033036Y029244D01*
X033034Y029294D01*
X019878Y012635D02*
X019880Y012685D01*
X019886Y012735D01*
X019896Y012784D01*
X019910Y012832D01*
X019927Y012879D01*
X019948Y012924D01*
X019973Y012968D01*
X020001Y013009D01*
X020033Y013048D01*
X020067Y013085D01*
X020104Y013119D01*
X020144Y013149D01*
X020186Y013176D01*
X020230Y013200D01*
X020276Y013221D01*
X020323Y013237D01*
X020371Y013250D01*
X020421Y013259D01*
X020470Y013264D01*
X020521Y013265D01*
X020571Y013262D01*
X020620Y013255D01*
X020669Y013244D01*
X020717Y013229D01*
X020763Y013211D01*
X020808Y013189D01*
X020851Y013163D01*
X020892Y013134D01*
X020931Y013102D01*
X020967Y013067D01*
X020999Y013029D01*
X021029Y012989D01*
X021056Y012946D01*
X021079Y012902D01*
X021098Y012856D01*
X021114Y012808D01*
X021126Y012759D01*
X021134Y012710D01*
X021138Y012660D01*
X021138Y012610D01*
X021134Y012560D01*
X021126Y012511D01*
X021114Y012462D01*
X021098Y012414D01*
X021079Y012368D01*
X021056Y012324D01*
X021029Y012281D01*
X020999Y012241D01*
X020967Y012203D01*
X020931Y012168D01*
X020892Y012136D01*
X020851Y012107D01*
X020808Y012081D01*
X020763Y012059D01*
X020717Y012041D01*
X020669Y012026D01*
X020620Y012015D01*
X020571Y012008D01*
X020521Y012005D01*
X020470Y012006D01*
X020421Y012011D01*
X020371Y012020D01*
X020323Y012033D01*
X020276Y012049D01*
X020230Y012070D01*
X020186Y012094D01*
X020144Y012121D01*
X020104Y012151D01*
X020067Y012185D01*
X020033Y012222D01*
X020001Y012261D01*
X019973Y012302D01*
X019948Y012346D01*
X019927Y012391D01*
X019910Y012438D01*
X019896Y012486D01*
X019886Y012535D01*
X019880Y012585D01*
X019878Y012635D01*
X019878Y008685D02*
X019880Y008735D01*
X019886Y008785D01*
X019896Y008834D01*
X019910Y008882D01*
X019927Y008929D01*
X019948Y008974D01*
X019973Y009018D01*
X020001Y009059D01*
X020033Y009098D01*
X020067Y009135D01*
X020104Y009169D01*
X020144Y009199D01*
X020186Y009226D01*
X020230Y009250D01*
X020276Y009271D01*
X020323Y009287D01*
X020371Y009300D01*
X020421Y009309D01*
X020470Y009314D01*
X020521Y009315D01*
X020571Y009312D01*
X020620Y009305D01*
X020669Y009294D01*
X020717Y009279D01*
X020763Y009261D01*
X020808Y009239D01*
X020851Y009213D01*
X020892Y009184D01*
X020931Y009152D01*
X020967Y009117D01*
X020999Y009079D01*
X021029Y009039D01*
X021056Y008996D01*
X021079Y008952D01*
X021098Y008906D01*
X021114Y008858D01*
X021126Y008809D01*
X021134Y008760D01*
X021138Y008710D01*
X021138Y008660D01*
X021134Y008610D01*
X021126Y008561D01*
X021114Y008512D01*
X021098Y008464D01*
X021079Y008418D01*
X021056Y008374D01*
X021029Y008331D01*
X020999Y008291D01*
X020967Y008253D01*
X020931Y008218D01*
X020892Y008186D01*
X020851Y008157D01*
X020808Y008131D01*
X020763Y008109D01*
X020717Y008091D01*
X020669Y008076D01*
X020620Y008065D01*
X020571Y008058D01*
X020521Y008055D01*
X020470Y008056D01*
X020421Y008061D01*
X020371Y008070D01*
X020323Y008083D01*
X020276Y008099D01*
X020230Y008120D01*
X020186Y008144D01*
X020144Y008171D01*
X020104Y008201D01*
X020067Y008235D01*
X020033Y008272D01*
X020001Y008311D01*
X019973Y008352D01*
X019948Y008396D01*
X019927Y008441D01*
X019910Y008488D01*
X019896Y008536D01*
X019886Y008585D01*
X019880Y008635D01*
X019878Y008685D01*
X011178Y005745D02*
X011180Y005795D01*
X011186Y005845D01*
X011196Y005894D01*
X011210Y005942D01*
X011227Y005989D01*
X011248Y006034D01*
X011273Y006078D01*
X011301Y006119D01*
X011333Y006158D01*
X011367Y006195D01*
X011404Y006229D01*
X011444Y006259D01*
X011486Y006286D01*
X011530Y006310D01*
X011576Y006331D01*
X011623Y006347D01*
X011671Y006360D01*
X011721Y006369D01*
X011770Y006374D01*
X011821Y006375D01*
X011871Y006372D01*
X011920Y006365D01*
X011969Y006354D01*
X012017Y006339D01*
X012063Y006321D01*
X012108Y006299D01*
X012151Y006273D01*
X012192Y006244D01*
X012231Y006212D01*
X012267Y006177D01*
X012299Y006139D01*
X012329Y006099D01*
X012356Y006056D01*
X012379Y006012D01*
X012398Y005966D01*
X012414Y005918D01*
X012426Y005869D01*
X012434Y005820D01*
X012438Y005770D01*
X012438Y005720D01*
X012434Y005670D01*
X012426Y005621D01*
X012414Y005572D01*
X012398Y005524D01*
X012379Y005478D01*
X012356Y005434D01*
X012329Y005391D01*
X012299Y005351D01*
X012267Y005313D01*
X012231Y005278D01*
X012192Y005246D01*
X012151Y005217D01*
X012108Y005191D01*
X012063Y005169D01*
X012017Y005151D01*
X011969Y005136D01*
X011920Y005125D01*
X011871Y005118D01*
X011821Y005115D01*
X011770Y005116D01*
X011721Y005121D01*
X011671Y005130D01*
X011623Y005143D01*
X011576Y005159D01*
X011530Y005180D01*
X011486Y005204D01*
X011444Y005231D01*
X011404Y005261D01*
X011367Y005295D01*
X011333Y005332D01*
X011301Y005371D01*
X011273Y005412D01*
X011248Y005456D01*
X011227Y005501D01*
X011210Y005548D01*
X011196Y005596D01*
X011186Y005645D01*
X011180Y005695D01*
X011178Y005745D01*
X003548Y005745D02*
X003550Y005795D01*
X003556Y005845D01*
X003566Y005894D01*
X003580Y005942D01*
X003597Y005989D01*
X003618Y006034D01*
X003643Y006078D01*
X003671Y006119D01*
X003703Y006158D01*
X003737Y006195D01*
X003774Y006229D01*
X003814Y006259D01*
X003856Y006286D01*
X003900Y006310D01*
X003946Y006331D01*
X003993Y006347D01*
X004041Y006360D01*
X004091Y006369D01*
X004140Y006374D01*
X004191Y006375D01*
X004241Y006372D01*
X004290Y006365D01*
X004339Y006354D01*
X004387Y006339D01*
X004433Y006321D01*
X004478Y006299D01*
X004521Y006273D01*
X004562Y006244D01*
X004601Y006212D01*
X004637Y006177D01*
X004669Y006139D01*
X004699Y006099D01*
X004726Y006056D01*
X004749Y006012D01*
X004768Y005966D01*
X004784Y005918D01*
X004796Y005869D01*
X004804Y005820D01*
X004808Y005770D01*
X004808Y005720D01*
X004804Y005670D01*
X004796Y005621D01*
X004784Y005572D01*
X004768Y005524D01*
X004749Y005478D01*
X004726Y005434D01*
X004699Y005391D01*
X004669Y005351D01*
X004637Y005313D01*
X004601Y005278D01*
X004562Y005246D01*
X004521Y005217D01*
X004478Y005191D01*
X004433Y005169D01*
X004387Y005151D01*
X004339Y005136D01*
X004290Y005125D01*
X004241Y005118D01*
X004191Y005115D01*
X004140Y005116D01*
X004091Y005121D01*
X004041Y005130D01*
X003993Y005143D01*
X003946Y005159D01*
X003900Y005180D01*
X003856Y005204D01*
X003814Y005231D01*
X003774Y005261D01*
X003737Y005295D01*
X003703Y005332D01*
X003671Y005371D01*
X003643Y005412D01*
X003618Y005456D01*
X003597Y005501D01*
X003580Y005548D01*
X003566Y005596D01*
X003556Y005645D01*
X003550Y005695D01*
X003548Y005745D01*
X003558Y015595D02*
X003560Y015645D01*
X003566Y015695D01*
X003576Y015744D01*
X003590Y015792D01*
X003607Y015839D01*
X003628Y015884D01*
X003653Y015928D01*
X003681Y015969D01*
X003713Y016008D01*
X003747Y016045D01*
X003784Y016079D01*
X003824Y016109D01*
X003866Y016136D01*
X003910Y016160D01*
X003956Y016181D01*
X004003Y016197D01*
X004051Y016210D01*
X004101Y016219D01*
X004150Y016224D01*
X004201Y016225D01*
X004251Y016222D01*
X004300Y016215D01*
X004349Y016204D01*
X004397Y016189D01*
X004443Y016171D01*
X004488Y016149D01*
X004531Y016123D01*
X004572Y016094D01*
X004611Y016062D01*
X004647Y016027D01*
X004679Y015989D01*
X004709Y015949D01*
X004736Y015906D01*
X004759Y015862D01*
X004778Y015816D01*
X004794Y015768D01*
X004806Y015719D01*
X004814Y015670D01*
X004818Y015620D01*
X004818Y015570D01*
X004814Y015520D01*
X004806Y015471D01*
X004794Y015422D01*
X004778Y015374D01*
X004759Y015328D01*
X004736Y015284D01*
X004709Y015241D01*
X004679Y015201D01*
X004647Y015163D01*
X004611Y015128D01*
X004572Y015096D01*
X004531Y015067D01*
X004488Y015041D01*
X004443Y015019D01*
X004397Y015001D01*
X004349Y014986D01*
X004300Y014975D01*
X004251Y014968D01*
X004201Y014965D01*
X004150Y014966D01*
X004101Y014971D01*
X004051Y014980D01*
X004003Y014993D01*
X003956Y015009D01*
X003910Y015030D01*
X003866Y015054D01*
X003824Y015081D01*
X003784Y015111D01*
X003747Y015145D01*
X003713Y015182D01*
X003681Y015221D01*
X003653Y015262D01*
X003628Y015306D01*
X003607Y015351D01*
X003590Y015398D01*
X003576Y015446D01*
X003566Y015495D01*
X003560Y015545D01*
X003558Y015595D01*
X011198Y015585D02*
X011200Y015635D01*
X011206Y015685D01*
X011216Y015734D01*
X011230Y015782D01*
X011247Y015829D01*
X011268Y015874D01*
X011293Y015918D01*
X011321Y015959D01*
X011353Y015998D01*
X011387Y016035D01*
X011424Y016069D01*
X011464Y016099D01*
X011506Y016126D01*
X011550Y016150D01*
X011596Y016171D01*
X011643Y016187D01*
X011691Y016200D01*
X011741Y016209D01*
X011790Y016214D01*
X011841Y016215D01*
X011891Y016212D01*
X011940Y016205D01*
X011989Y016194D01*
X012037Y016179D01*
X012083Y016161D01*
X012128Y016139D01*
X012171Y016113D01*
X012212Y016084D01*
X012251Y016052D01*
X012287Y016017D01*
X012319Y015979D01*
X012349Y015939D01*
X012376Y015896D01*
X012399Y015852D01*
X012418Y015806D01*
X012434Y015758D01*
X012446Y015709D01*
X012454Y015660D01*
X012458Y015610D01*
X012458Y015560D01*
X012454Y015510D01*
X012446Y015461D01*
X012434Y015412D01*
X012418Y015364D01*
X012399Y015318D01*
X012376Y015274D01*
X012349Y015231D01*
X012319Y015191D01*
X012287Y015153D01*
X012251Y015118D01*
X012212Y015086D01*
X012171Y015057D01*
X012128Y015031D01*
X012083Y015009D01*
X012037Y014991D01*
X011989Y014976D01*
X011940Y014965D01*
X011891Y014958D01*
X011841Y014955D01*
X011790Y014956D01*
X011741Y014961D01*
X011691Y014970D01*
X011643Y014983D01*
X011596Y014999D01*
X011550Y015020D01*
X011506Y015044D01*
X011464Y015071D01*
X011424Y015101D01*
X011387Y015135D01*
X011353Y015172D01*
X011321Y015211D01*
X011293Y015252D01*
X011268Y015296D01*
X011247Y015341D01*
X011230Y015388D01*
X011216Y015436D01*
X011206Y015485D01*
X011200Y015535D01*
X011198Y015585D01*
X011971Y027286D02*
X011973Y027336D01*
X011979Y027386D01*
X011989Y027435D01*
X012003Y027483D01*
X012020Y027530D01*
X012041Y027575D01*
X012066Y027619D01*
X012094Y027660D01*
X012126Y027699D01*
X012160Y027736D01*
X012197Y027770D01*
X012237Y027800D01*
X012279Y027827D01*
X012323Y027851D01*
X012369Y027872D01*
X012416Y027888D01*
X012464Y027901D01*
X012514Y027910D01*
X012563Y027915D01*
X012614Y027916D01*
X012664Y027913D01*
X012713Y027906D01*
X012762Y027895D01*
X012810Y027880D01*
X012856Y027862D01*
X012901Y027840D01*
X012944Y027814D01*
X012985Y027785D01*
X013024Y027753D01*
X013060Y027718D01*
X013092Y027680D01*
X013122Y027640D01*
X013149Y027597D01*
X013172Y027553D01*
X013191Y027507D01*
X013207Y027459D01*
X013219Y027410D01*
X013227Y027361D01*
X013231Y027311D01*
X013231Y027261D01*
X013227Y027211D01*
X013219Y027162D01*
X013207Y027113D01*
X013191Y027065D01*
X013172Y027019D01*
X013149Y026975D01*
X013122Y026932D01*
X013092Y026892D01*
X013060Y026854D01*
X013024Y026819D01*
X012985Y026787D01*
X012944Y026758D01*
X012901Y026732D01*
X012856Y026710D01*
X012810Y026692D01*
X012762Y026677D01*
X012713Y026666D01*
X012664Y026659D01*
X012614Y026656D01*
X012563Y026657D01*
X012514Y026662D01*
X012464Y026671D01*
X012416Y026684D01*
X012369Y026700D01*
X012323Y026721D01*
X012279Y026745D01*
X012237Y026772D01*
X012197Y026802D01*
X012160Y026836D01*
X012126Y026873D01*
X012094Y026912D01*
X012066Y026953D01*
X012041Y026997D01*
X012020Y027042D01*
X012003Y027089D01*
X011989Y027137D01*
X011979Y027186D01*
X011973Y027236D01*
X011971Y027286D01*
X011971Y031223D02*
X011973Y031273D01*
X011979Y031323D01*
X011989Y031372D01*
X012003Y031420D01*
X012020Y031467D01*
X012041Y031512D01*
X012066Y031556D01*
X012094Y031597D01*
X012126Y031636D01*
X012160Y031673D01*
X012197Y031707D01*
X012237Y031737D01*
X012279Y031764D01*
X012323Y031788D01*
X012369Y031809D01*
X012416Y031825D01*
X012464Y031838D01*
X012514Y031847D01*
X012563Y031852D01*
X012614Y031853D01*
X012664Y031850D01*
X012713Y031843D01*
X012762Y031832D01*
X012810Y031817D01*
X012856Y031799D01*
X012901Y031777D01*
X012944Y031751D01*
X012985Y031722D01*
X013024Y031690D01*
X013060Y031655D01*
X013092Y031617D01*
X013122Y031577D01*
X013149Y031534D01*
X013172Y031490D01*
X013191Y031444D01*
X013207Y031396D01*
X013219Y031347D01*
X013227Y031298D01*
X013231Y031248D01*
X013231Y031198D01*
X013227Y031148D01*
X013219Y031099D01*
X013207Y031050D01*
X013191Y031002D01*
X013172Y030956D01*
X013149Y030912D01*
X013122Y030869D01*
X013092Y030829D01*
X013060Y030791D01*
X013024Y030756D01*
X012985Y030724D01*
X012944Y030695D01*
X012901Y030669D01*
X012856Y030647D01*
X012810Y030629D01*
X012762Y030614D01*
X012713Y030603D01*
X012664Y030596D01*
X012614Y030593D01*
X012563Y030594D01*
X012514Y030599D01*
X012464Y030608D01*
X012416Y030621D01*
X012369Y030637D01*
X012323Y030658D01*
X012279Y030682D01*
X012237Y030709D01*
X012197Y030739D01*
X012160Y030773D01*
X012126Y030810D01*
X012094Y030849D01*
X012066Y030890D01*
X012041Y030934D01*
X012020Y030979D01*
X012003Y031026D01*
X011989Y031074D01*
X011979Y031123D01*
X011973Y031173D01*
X011971Y031223D01*
X004136Y029254D02*
X004138Y029304D01*
X004144Y029354D01*
X004154Y029403D01*
X004168Y029451D01*
X004185Y029498D01*
X004206Y029543D01*
X004231Y029587D01*
X004259Y029628D01*
X004291Y029667D01*
X004325Y029704D01*
X004362Y029738D01*
X004402Y029768D01*
X004444Y029795D01*
X004488Y029819D01*
X004534Y029840D01*
X004581Y029856D01*
X004629Y029869D01*
X004679Y029878D01*
X004728Y029883D01*
X004779Y029884D01*
X004829Y029881D01*
X004878Y029874D01*
X004927Y029863D01*
X004975Y029848D01*
X005021Y029830D01*
X005066Y029808D01*
X005109Y029782D01*
X005150Y029753D01*
X005189Y029721D01*
X005225Y029686D01*
X005257Y029648D01*
X005287Y029608D01*
X005314Y029565D01*
X005337Y029521D01*
X005356Y029475D01*
X005372Y029427D01*
X005384Y029378D01*
X005392Y029329D01*
X005396Y029279D01*
X005396Y029229D01*
X005392Y029179D01*
X005384Y029130D01*
X005372Y029081D01*
X005356Y029033D01*
X005337Y028987D01*
X005314Y028943D01*
X005287Y028900D01*
X005257Y028860D01*
X005225Y028822D01*
X005189Y028787D01*
X005150Y028755D01*
X005109Y028726D01*
X005066Y028700D01*
X005021Y028678D01*
X004975Y028660D01*
X004927Y028645D01*
X004878Y028634D01*
X004829Y028627D01*
X004779Y028624D01*
X004728Y028625D01*
X004679Y028630D01*
X004629Y028639D01*
X004581Y028652D01*
X004534Y028668D01*
X004488Y028689D01*
X004444Y028713D01*
X004402Y028740D01*
X004362Y028770D01*
X004325Y028804D01*
X004291Y028841D01*
X004259Y028880D01*
X004231Y028921D01*
X004206Y028965D01*
X004185Y029010D01*
X004168Y029057D01*
X004154Y029105D01*
X004144Y029154D01*
X004138Y029204D01*
X004136Y029254D01*
D12*
X004766Y029254D03*
X012601Y027286D03*
X012601Y031223D03*
X024727Y029254D03*
X033664Y029294D03*
X020508Y012635D03*
X020508Y008685D03*
X011808Y005745D03*
X004178Y005745D03*
X004188Y015595D03*
X011828Y015585D03*
D13*
X013073Y034215D03*
X026774Y034215D03*
D14*
X025396Y034215D03*
X011695Y034215D03*
D15*
X015129Y023861D03*
X015129Y022861D03*
X016129Y022861D03*
X016129Y023861D03*
X017129Y023861D03*
X017129Y022861D03*
X018129Y022861D03*
X019129Y022861D03*
X019129Y023861D03*
X018129Y023861D03*
X020129Y023861D03*
X020129Y022861D03*
X021129Y022861D03*
X021129Y023861D03*
X022129Y023861D03*
X022129Y022861D03*
X015751Y014325D03*
X015751Y013325D03*
X015751Y012325D03*
X015751Y011325D03*
X015751Y010325D03*
X015751Y009325D03*
X015751Y008325D03*
X015751Y007325D03*
X014751Y007325D03*
X014751Y008325D03*
X014751Y009325D03*
X014751Y010325D03*
X014751Y011325D03*
X014751Y012325D03*
X014751Y013325D03*
X014751Y014325D03*
X011550Y011369D03*
X010550Y011369D03*
X009550Y011369D03*
X008550Y011369D03*
X007550Y011369D03*
X006550Y011369D03*
X005550Y011369D03*
X004550Y011369D03*
X003550Y011369D03*
X002550Y011369D03*
X002550Y010369D03*
X003550Y010369D03*
X004550Y010369D03*
X005550Y010369D03*
X006550Y010369D03*
X007550Y010369D03*
X008550Y010369D03*
X009550Y010369D03*
X010550Y010369D03*
X011550Y010369D03*
X028884Y010660D03*
X028884Y009660D03*
X029884Y009660D03*
X030884Y009660D03*
X030884Y010660D03*
X029884Y010660D03*
D16*
X018428Y011199D03*
X011081Y018349D03*
X025278Y023546D03*
X026278Y023546D03*
D17*
X018428Y010199D03*
X010081Y018349D03*
D18*
X015475Y033951D03*
X015475Y034951D03*
D19*
X028979Y018428D03*
X030947Y018428D03*
X030947Y012719D03*
X029963Y012719D03*
X028979Y012719D03*
D20*
X027562Y015672D03*
X032365Y015672D03*
D21*
X030963Y006617D03*
X029963Y006617D03*
X028963Y006617D03*
D22*
X029963Y006617D03*
M02*
