%
M48
M72
T01C0.0236
T02C0.0320
T03C0.0394
T04C0.0400
T05C0.0472
T06C0.0866
T07C0.1260
%
T01
X18310Y26538
X27207Y27050
X28585Y19963
X29018Y19963
X29451Y19963
X29884Y19963
X30317Y19963
X30751Y19963
X31184Y19963
X31184Y21774
X30751Y21774
X30317Y21774
X29884Y21774
X29451Y21774
X29018Y21774
X28585Y21774
X8664Y21774
X8231Y21774
X7798Y21774
X7365Y21774
X6932Y21774
X6499Y21774
X6066Y21774
X6066Y19963
X6499Y19963
X6932Y19963
X7365Y19963
X7798Y19963
X8231Y19963
X8664Y19963
X8546Y13310
X9648Y14333
X29451Y9018
X29569Y7955
X28270Y10121
X31341Y11223
X32365Y10711
X28231Y13940
T02
X15475Y34951
X15475Y33951
T03
X28979Y18428
X30947Y18428
X28979Y12719
X29963Y12719
X30947Y12719
T04
X26278Y23546
X25278Y23546
X10081Y18349
X11081Y18349
X14751Y14325
X15751Y14325
X15751Y13325
X15751Y12325
X15751Y11325
X15751Y10325
X15751Y9325
X15751Y8325
X15751Y7325
X14751Y7325
X14751Y8325
X14751Y9325
X14751Y10325
X14751Y11325
X14751Y12325
X14751Y13325
X11550Y11369
X10550Y11369
X9550Y11369
X8550Y11369
X7550Y11369
X6550Y11369
X5550Y11369
X4550Y11369
X3550Y11369
X2550Y11369
X2550Y10369
X3550Y10369
X4550Y10369
X5550Y10369
X6550Y10369
X7550Y10369
X8550Y10369
X9550Y10369
X10550Y10369
X11550Y10369
X15129Y23861
X15129Y22861
X16129Y22861
X16129Y23861
X17129Y23861
X17129Y22861
X18129Y22861
X19129Y22861
X19129Y23861
X18129Y23861
X20129Y23861
X20129Y22861
X21129Y22861
X21129Y23861
X22129Y23861
X22129Y22861
X28884Y9660
X28884Y10660
X29884Y10660
X30884Y10660
X30884Y9660
X29884Y9660
X18428Y11199
X18428Y10199
T05
X25396Y34215
X26774Y34215
X11695Y34215
X13073Y34215
T06
X32365Y15672
X27562Y15672
T07
X4766Y29254
X24727Y29254
X4188Y15595
X11828Y15585
X20508Y12635
X20508Y8685
X4178Y5745
X11808Y5745
X33664Y29294
X12601Y31223
X12601Y27286
M30
