<?xml version="1.0" encoding="UTF-8" standalone="no"?>
<svg
   xmlns:dc="http://purl.org/dc/elements/1.1/"
   xmlns:cc="http://creativecommons.org/ns#"
   xmlns:rdf="http://www.w3.org/1999/02/22-rdf-syntax-ns#"
   xmlns:svg="http://www.w3.org/2000/svg"
   xmlns="http://www.w3.org/2000/svg"
   xmlns:sodipodi="http://sodipodi.sourceforge.net/DTD/sodipodi-0.dtd"
   xmlns:inkscape="http://www.inkscape.org/namespaces/inkscape"
   id="Layer_1"
   version="1.1"
   viewBox="0 0 23 23"
   xml:space="preserve"
   inkscape:version="0.91 r13725"
   sodipodi:docname="bed.svg"
   width="23"
   height="23"><metadata
     id="metadata41"><rdf:RDF><cc:Work
         rdf:about=""><dc:format>image/svg+xml</dc:format><dc:type
           rdf:resource="http://purl.org/dc/dcmitype/StillImage" /><dc:title></dc:title></cc:Work></rdf:RDF></metadata><defs
     id="defs39" /><sodipodi:namedview
     pagecolor="#ffffff"
     bordercolor="#666666"
     borderopacity="1"
     objecttolerance="10"
     gridtolerance="10"
     guidetolerance="10"
     inkscape:pageopacity="0"
     inkscape:pageshadow="2"
     inkscape:window-width="1920"
     inkscape:window-height="1017"
     id="namedview37"
     showgrid="false"
     inkscape:zoom="6.9532167"
     inkscape:cx="21.080996"
     inkscape:cy="24.834001"
     inkscape:window-x="1912"
     inkscape:window-y="-8"
     inkscape:window-maximized="1"
     inkscape:current-layer="Layer_1" /><style
     type="text/css"
     id="style3">
	.st0{fill:none;stroke:#010000;stroke-width:4;stroke-linecap:round;stroke-miterlimit:10;}
	.st1{fill:none;stroke:#010000;stroke-width:4;stroke-linecap:round;stroke-linejoin:round;stroke-miterlimit:10;}
	.st2{fill:none;stroke:#010000;stroke-width:4;stroke-linejoin:round;stroke-miterlimit:10;}
	.st3{fill:none;stroke:#010000;stroke-width:6;stroke-linecap:round;stroke-linejoin:round;stroke-miterlimit:10;}
	.st4{fill:#010000;}
	.st5{fill:none;stroke:#010000;stroke-width:3.8974;stroke-linejoin:round;stroke-miterlimit:10;}
	.st6{fill:none;stroke:#010000;stroke-width:2;stroke-linecap:round;stroke-linejoin:round;stroke-miterlimit:10;}
	.st7{fill:#010000;stroke:#010000;stroke-width:2;stroke-miterlimit:10;}
	.st8{opacity:0.75;}
	.st9{fill:none;stroke:#010000;stroke-width:2;stroke-linejoin:round;stroke-miterlimit:10;}
	.st10{fill:none;stroke:#010000;stroke-width:6;stroke-linejoin:round;stroke-miterlimit:10;}
	.st11{fill:none;stroke:#010000;stroke-width:3;stroke-linejoin:round;stroke-miterlimit:10;}
	.st12{fill:none;stroke:#010000;stroke-width:3.9497;stroke-linejoin:round;stroke-miterlimit:10;}
	.st13{fill:none;stroke:#010000;stroke-width:1.9008;stroke-linejoin:round;stroke-miterlimit:10;}
	.st14{fill:none;stroke:#010000;stroke-width:1.9935;stroke-linejoin:round;stroke-miterlimit:10;}
	.st15{fill:none;stroke:#010000;stroke-width:4;stroke-miterlimit:10;}
	.st16{fill:none;stroke:#010000;stroke-width:1.9048;stroke-linecap:round;stroke-linejoin:round;stroke-miterlimit:10;}
	.st17{fill:none;stroke:#010000;stroke-width:1.934;stroke-linecap:round;stroke-linejoin:round;stroke-miterlimit:10;}
	.st18{fill:none;stroke:#010000;stroke-width:1.9684;stroke-linecap:round;stroke-linejoin:round;stroke-miterlimit:10;}
	.st19{fill:none;stroke:#010000;stroke-width:1.9343;stroke-linecap:round;stroke-linejoin:round;stroke-miterlimit:10;}
</style><g
     id="g5"
     transform="matrix(0.24791519,0,0,0.25293937,-0.13682448,-2.0383776)"
     style="stroke:#cccccc"><path
       class="st0"
       d="M 90,77.2 C 90,74.9 88.1,73 85.8,73 L 10.2,73 C 7.9,73 6,74.9 6,77.2 l 0,1.6 c 0,2.3 1.9,4.2 4.2,4.2 l 75.6,0 c 2.3,0 4.2,-1.9 4.2,-4.2 l 0,-1.6 z"
       id="path7"
       inkscape:connector-curvature="0"
       style="fill:none;stroke:#cccccc;stroke-width:4;stroke-linecap:round;stroke-miterlimit:10" /></g><line
     class="st0"
     x1="3.5819032"
     x2="4.8214793"
     y1="18.955589"
     y2="16.426197"
     id="line9"
     style="fill:none;stroke:#cccccc;stroke-width:1.0016588;stroke-linecap:round;stroke-miterlimit:10" /><line
     class="st0"
     x1="6.0610552"
     x2="7.300631"
     y1="18.955589"
     y2="16.426197"
     id="line11"
     style="fill:none;stroke:#cccccc;stroke-width:1.0016588;stroke-linecap:round;stroke-miterlimit:10" /><line
     class="st0"
     x1="8.5402079"
     x2="9.7797823"
     y1="18.955589"
     y2="16.426197"
     id="line13"
     style="fill:none;stroke:#cccccc;stroke-width:1.0016588;stroke-linecap:round;stroke-miterlimit:10" /><line
     class="st0"
     x1="11.019359"
     x2="12.258934"
     y1="18.955589"
     y2="16.426197"
     id="line15"
     style="fill:none;stroke:#cccccc;stroke-width:1.0016588;stroke-linecap:round;stroke-miterlimit:10" /><line
     class="st0"
     x1="13.49851"
     x2="14.738087"
     y1="18.955589"
     y2="16.426197"
     id="line17"
     style="fill:none;stroke:#cccccc;stroke-width:1.0016588;stroke-linecap:round;stroke-miterlimit:10" /><line
     class="st0"
     x1="15.977661"
     x2="17.217239"
     y1="18.955589"
     y2="16.426197"
     id="line19"
     style="fill:none;stroke:#cccccc;stroke-width:1.0016588;stroke-linecap:round;stroke-miterlimit:10" /><line
     class="st0"
     x1="18.456816"
     x2="19.69639"
     y1="18.955589"
     y2="16.426197"
     id="line21"
     style="fill:none;stroke:#cccccc;stroke-width:1.0016588;stroke-linecap:round;stroke-miterlimit:10" /><polyline
     class="st2"
     points="14,86 14,92 22,92 22,86 "
     id="polyline23"
     style="fill:none;stroke:#cccccc;stroke-width:4;stroke-linejoin:round;stroke-miterlimit:10"
     transform="matrix(0.24791519,0,0,0.25293937,-0.13682448,-2.0383776)" /><polyline
     class="st2"
     points="74,86 74,92 82,92 82,86 "
     id="polyline25"
     style="fill:none;stroke:#cccccc;stroke-width:4;stroke-linejoin:round;stroke-miterlimit:10"
     transform="matrix(0.24791519,0,0,0.25293937,-0.13682448,-2.0383776)" /><path
     class="st1"
     d="m 11.763105,14.655621 c 0,0 0.99166,-3.08586 0.99166,-4.224088 0,-1.2141086 -1.983322,-2.9593903 -1.983322,-4.2240876 0,-1.1382271 0.991662,-4.2240872 0.991662,-4.2240872"
     id="path27"
     inkscape:connector-curvature="0"
     style="fill:none;stroke:#cccccc;stroke-width:1.0016588;stroke-linecap:round;stroke-linejoin:round;stroke-miterlimit:10" /><path
     class="st1"
     d="m 15.729748,14.655621 c 0,0 0.99166,-3.08586 0.99166,-4.224088 0,-1.2141086 -1.983322,-2.9593903 -1.983322,-4.2240876 0,-1.1382271 0.991662,-4.2240872 0.991662,-4.2240872"
     id="path29"
     inkscape:connector-curvature="0"
     style="fill:none;stroke:#cccccc;stroke-width:1.0016588;stroke-linecap:round;stroke-linejoin:round;stroke-miterlimit:10" /><path
     class="st1"
     d="m 7.7964615,14.655621 c 0,0 0.9916604,-3.08586 0.9916604,-4.224088 0,-1.2141086 -1.9833213,-2.9593903 -1.9833213,-4.2240876 0,-1.1382271 0.9916609,-4.2240872 0.9916609,-4.2240872"
     id="path31"
     inkscape:connector-curvature="0"
     style="fill:none;stroke:#cccccc;stroke-width:1.0016588;stroke-linecap:round;stroke-linejoin:round;stroke-miterlimit:10" /><path
     class="st1"
     d="m 19.69639,14.655621 c 0,0 0.991662,-3.08586 0.991662,-4.224088 0,-1.2141086 -1.983322,-2.9593903 -1.983322,-4.2240876 0,-1.1382271 0.99166,-4.2240872 0.99166,-4.2240872"
     id="path33"
     inkscape:connector-curvature="0"
     style="fill:none;stroke:#cccccc;stroke-width:1.0016588;stroke-linecap:round;stroke-linejoin:round;stroke-miterlimit:10" /><path
     class="st1"
     d="m 3.8298185,14.655621 c 0,0 0.9916607,-3.08586 0.9916607,-4.224088 0,-1.2141086 -1.9833215,-2.9593903 -1.9833215,-4.2240876 0,-1.1382271 0.9916608,-4.2240872 0.9916608,-4.2240872"
     id="path35"
     inkscape:connector-curvature="0"
     style="fill:none;stroke:#cccccc;stroke-width:1.0016588;stroke-linecap:round;stroke-linejoin:round;stroke-miterlimit:10" /></svg>