<?xml version="1.0" encoding="UTF-8" standalone="no"?>
<svg
   xmlns:dc="http://purl.org/dc/elements/1.1/"
   xmlns:cc="http://creativecommons.org/ns#"
   xmlns:rdf="http://www.w3.org/1999/02/22-rdf-syntax-ns#"
   xmlns:svg="http://www.w3.org/2000/svg"
   xmlns="http://www.w3.org/2000/svg"
   xmlns:sodipodi="http://sodipodi.sourceforge.net/DTD/sodipodi-0.dtd"
   xmlns:inkscape="http://www.inkscape.org/namespaces/inkscape"
   version="1.1"
   viewBox="0 0 26 26"
   enable-background="new 0 0 446 446"
   id="svg3379"
   inkscape:version="0.91 r13725"
   sodipodi:docname="fan.svg"
   width="26"
   height="26">
  <metadata
     id="metadata3391">
    <rdf:RDF>
      <cc:Work
         rdf:about="">
        <dc:format>image/svg+xml</dc:format>
        <dc:type
           rdf:resource="http://purl.org/dc/dcmitype/StillImage" />
        <dc:title></dc:title>
      </cc:Work>
    </rdf:RDF>
  </metadata>
  <defs
     id="defs3389" />
  <sodipodi:namedview
     pagecolor="#ffffff"
     bordercolor="#666666"
     borderopacity="1"
     objecttolerance="10"
     gridtolerance="10"
     guidetolerance="10"
     inkscape:pageopacity="0"
     inkscape:pageshadow="2"
     inkscape:window-width="1920"
     inkscape:window-height="1017"
     id="namedview3387"
     showgrid="false"
     inkscape:zoom="16.932735"
     inkscape:cx="7.6723474"
     inkscape:cy="15.997747"
     inkscape:window-x="1912"
     inkscape:window-y="-8"
     inkscape:window-maximized="1"
     inkscape:current-layer="g3381" />
  <g
     id="g3381"
     transform="translate(0,-420)">
    <path
       d="m 25.65175,432.97736 c 0,-6.94231 -5.647941,-12.59025 -12.590177,-12.59025 -27.271045,6.84691 -3.3786623,36.52567 9.254795,20.01462 1.336148,-1.74625 2.441297,-4.33529 3.335382,-7.42437 z m -12.210359,11.44351 0,-1.95159 c 1.343224,-0.0531 2.615713,-0.38597 3.760406,-0.94252 0.243587,0.059 0.49538,0.0936 0.752947,0.10197 0.0408,8.8e-4 0.08137,0.002 0.121946,0.002 0.971461,0 1.880469,-0.37618 2.571037,-1.06675 0.148387,-0.14839 0.148387,-0.38893 0,-0.53724 l -0.608968,-0.60897 c 1.484925,-1.60748 2.422576,-3.72713 2.514814,-6.06066 l 1.951586,0 c -0.197014,6.01241 -5.051207,10.86668 -11.063768,11.06377 z m -3.421998,-11.44351 c 0,-0.81253 0.316374,-1.57648 0.891,-2.15103 0.574625,-0.57463 1.338437,-0.891 2.151104,-0.891 0.812516,0 1.576479,0.31645 2.151105,0.891 1.186026,1.18609 1.186026,3.11595 0,4.30205 -0.574626,0.57455 -1.338514,0.89101 -2.151105,0.89101 -0.81259,0 -1.576479,-0.31646 -2.151104,-0.89101 -0.574626,-0.57455 -0.891,-1.33851 -0.891,-2.15102 z m 3.865483,5.76342 c -0.146181,0.0208 -0.294036,0.0358 -0.443485,0.0455 l 0,-0.55031 z m -0.714501,-1.96427 c 0.847389,-0.0238 1.647823,-0.32245 2.297363,-0.85537 l 1.4306,1.4306 c -0.62006,0.54454 -1.355837,0.95969 -2.165844,1.20282 z m 2.83438,-1.39284 c 0.340383,-0.41575 0.578576,-0.88751 0.716022,-1.38167 l 0.73418,-0.64498 1.415708,0 c -0.08547,1.32012 -0.612538,2.52112 -1.435007,3.45756 z m 2.315066,-2.78644 0.505257,-0.44386 c 0.02082,0.14626 0.03593,0.29433 0.04559,0.44386 z m -1.460991,0.27216 c -0.02302,-0.8183 -0.307106,-1.63035 -0.854075,-2.29835 l 1.430903,-1.43091 c 0.544538,0.61999 0.959761,1.35569 1.202969,2.16562 z m -1.391016,-2.83583 c -0.40998,-0.33643 -0.880363,-0.57887 -1.384481,-0.71868 l -0.641942,-0.7309 0,-1.41572 c 1.319899,0.0855 2.52074,0.61239 3.457099,1.43471 z m -2.786209,-2.31468 -0.443563,-0.50503 c 0.146182,-0.0208 0.294113,-0.0358 0.443563,-0.0456 z m 0.270483,1.45932 c -0.847465,0.0238 -1.647823,0.3226 -2.297287,0.8556 l -1.4305237,-1.43046 c 0.6201366,-0.54469 1.3559887,-0.95999 2.1661487,-1.20319 z m -2.834455,1.39284 c -0.3362814,0.4099 -0.5787288,0.88006 -0.7185291,1.38395 l -0.7310656,0.64232 -1.4154806,0 c 0.085552,-1.31975 0.6123875,-2.52043 1.4346271,-3.45672 z m -2.3144588,2.78598 -0.5051052,0.44379 c -0.020816,-0.14626 -0.03586,-0.29427 -0.045585,-0.44379 z m 1.459092,-0.27056 c 0.02378,0.84739 0.3225289,1.64774 0.8554428,2.29729 l -1.4304484,1.43045 c -0.5445378,-0.62007 -0.9596845,-1.35577 -1.202892,-2.16577 z m 1.3926108,2.83453 c 0.409904,0.33636 0.880136,0.57881 1.384025,0.71868 l 0.642627,0.73153 0,1.41517 c -1.319976,-0.0855 -2.520892,-0.61254 -3.4571758,-1.43485 z m 2.786514,3.62768 c 0.351096,-0.02 0.694823,-0.0679 1.029205,-0.1411 l 0.865168,0.98483 c 0.259315,0.29519 0.557454,0.5412 0.88401,0.73464 -0.867979,0.3375 -1.802667,0.53998 -2.778383,0.58192 z m 2.465123,0.34227 -0.628494,-0.71541 c 0.803093,-0.28804 1.534311,-0.72795 2.159082,-1.28502 l 1.527093,1.52702 c -0.552288,0.50654 -1.16969,0.94296 -1.837997,1.29551 -0.465445,-0.16039 -0.883554,-0.43962 -1.219684,-0.8221 z m 3.595001,0.0639 0.323137,0.32314 c -0.425252,0.32762 -0.926331,0.52615 -1.460992,0.57866 0.402308,-0.27156 0.782428,-0.5735 1.137855,-0.9018 z m -1.527093,-2.60151 c 0.959077,-1.07555 1.571085,-2.46671 1.658536,-3.99631 l 2.160298,0 c -0.09125,2.12413 -0.943957,4.05414 -2.291816,5.52334 z m 1.658536,-4.7561 c -0.02013,-0.35124 -0.06792,-0.69505 -0.141244,-1.02958 l 0.984454,-0.86487 c 0.295252,-0.25947 0.541423,-0.55767 0.73494,-0.88431 0.33765,0.86805 0.540132,1.80289 0.582148,2.77876 z m 1.164144,-3.68504 c -0.160467,0.46544 -0.439764,0.88363 -0.822392,1.21984 l -0.715111,0.62826 c -0.28811,-0.80302 -0.728102,-1.53416 -1.2851,-2.15893 l 1.527016,-1.52702 c 0.50655,0.55222 0.942969,1.16954 1.295587,1.83785 z m -0.758267,-2.37516 0.322986,-0.32299 c 0.327543,0.42517 0.526151,0.92663 0.578727,1.46053 -0.271547,-0.40215 -0.573486,-0.7822 -0.901713,-1.13754 z m -2.601581,1.52709 c -1.075476,-0.95893 -2.466492,-1.57079 -3.995863,-1.65823 l 0,-2.16023 c 2.12398,0.0913 4.053759,0.94388 5.52288,2.29144 z m -4.755649,-1.65815 c -0.351097,0.02 -0.694824,0.0679 -1.029205,0.14108 l -0.864789,-0.9846 c -0.25939,-0.29526 -0.557606,-0.54135 -0.8842378,-0.73487 0.8679028,-0.33749 1.8025908,-0.5399 2.7781558,-0.58192 l 0,2.16031 z m -2.464668,-0.34215 0.628191,0.71527 c -0.803246,0.28811 -1.5346154,0.72818 -2.1594627,1.28541 l -1.5270926,-1.52702 c 0.5524399,-0.50677 1.1700693,-0.94335 1.8386045,-1.29605 0.4654446,0.16047 0.8835545,0.43977 1.2197598,0.82239 z m -3.595685,-0.0637 -0.3233647,-0.32336 c 0.4255564,-0.32792 0.9268625,-0.52637 1.4619036,-0.57896 -0.4026103,0.2717 -0.7829594,0.5738 -1.1385389,0.90232 z m 1.5271691,2.60158 c -0.9587735,1.07549 -1.5706288,2.46634 -1.6581562,3.99549 l -2.1602976,0 c 0.091327,-2.12376 0.9438053,-4.05345 2.2913611,-5.52258 z m -1.6581562,4.75528 c 0.020057,0.35117 0.067926,0.69505 0.1411688,1.02951 l -0.9845305,0.86494 c -0.2952523,0.25946 -0.541423,0.55767 -0.7349404,0.88423 -0.3375723,-0.86805 -0.5400552,-1.80281 -0.5819955,-2.7786 l 2.1602976,0 z m -1.1644469,3.68481 c 0.1605426,-0.46538 0.4398398,-0.88341 0.8225436,-1.21961 l 0.7151104,-0.62827 c 0.2880345,0.80302 0.7279501,1.53424 1.2850249,2.15901 l -1.5270926,1.52701 c -0.5065489,-0.55236 -0.94297,-1.16984 -1.2955863,-1.83814 z m 0.758342,2.37539 -0.3229849,0.3229 c -0.3276194,-0.42532 -0.5263031,-0.92685 -0.5789565,-1.46091 0.2716233,0.40239 0.573562,0.78258 0.9019414,1.13801 z m 2.6015811,-1.5271 c 1.0754765,0.959 2.4665669,1.57094 3.9959399,1.65846 l 0,2.16031 c -2.123981,-0.0913 -4.0539117,-0.94397 -5.5230325,-2.29167 z m 15.8194179,-5.29297 -1.951586,0 c -0.05311,-1.34337 -0.386047,-2.61594 -0.942742,-3.7607 0.05903,-0.24352 0.09361,-0.49523 0.101888,-0.75265 0.03289,-1.01705 -0.345399,-1.97347 -1.064992,-2.69305 -0.07127,-0.0713 -0.167836,-0.11123 -0.268584,-0.11123 -0.100747,0 -0.197392,0.04 -0.268584,0.11123 l -0.608892,0.60888 c -1.607402,-1.48469 -3.726899,-2.42219 -6.060201,-2.51442 l 0,-1.95152 c 6.012411,0.19701 10.866528,5.05113 11.063693,11.06346 z m -11.823478,-11.06346 0,1.95159 c -1.343073,0.0531 -2.615486,0.38589 -3.7600267,0.94244 -0.243663,-0.0591 -0.4956078,-0.0937 -0.7531751,-0.10205 -1.0178086,-0.0336 -1.9739227,0.34541 -2.6936675,1.06515 -0.071268,0.0713 -0.1113081,0.16783 -0.1113081,0.26866 0,0.10083 0.039965,0.19739 0.1113081,0.26865 l 0.609272,0.60928 c -1.4846205,1.60733 -2.4220438,3.72667 -2.5143577,6.05982 l -1.9515848,0 c 0.1971642,-6.01241 5.0512055,-10.86645 11.0635398,-11.06354 z m -11.0635398,11.82325 1.9515848,0 c 0.053111,1.34323 0.3858951,2.61572 0.9425138,3.76041 -0.059113,0.24358 -0.093682,0.49545 -0.1019629,0.75294 -0.032897,1.0169 0.3454743,1.97332 1.065219,2.69299 0.074155,0.0742 0.1714073,0.11123 0.2685842,0.11123 0.097176,0 0.194505,-0.0371 0.2685842,-0.11123 l 0.6088158,-0.60882 c 1.6074021,1.48477 3.7268989,2.42242 6.0602769,2.51467 l 0,1.95158 C 6.6691945,444.22364 1.815078,439.36937 1.6181412,433.35688 Z"
       id="path3383"
       inkscape:connector-curvature="0"
       sodipodi:nodetypes="ccscccccsscccccscsccsssccccccccccccccccccccccccccccccccccccccccccccccccccccccccccccccscccccccccccccccccccccccccccccccccccccccccccccccccccccccccccccccccccccccccccccccccccccccsssccccccccssccccccccccsccccc"
       style="fill:#cccccc;stroke:#cccccc;stroke-width:0.07597853" />
    <ellipse
       style="fill:none;stroke:#cccccc;stroke-width:1.21565676;stroke-miterlimit:4;stroke-dasharray:none"
       id="path3395"
       cx="12.896362"
       cy="433.10428"
       rx="12.189905"
       ry="12.113759" />
  </g>
</svg>
