G75*
G70*
%OFA0B0*%
%FSLAX24Y24*%
%IPPOS*%
%LPD*%
%AMOC8*
5,1,8,0,0,1.08239X$1,22.5*
%
%ADD10C,0.0560*%
%ADD11OC8,0.0560*%
%ADD12C,0.0745*%
%ADD13OC8,0.0670*%
%ADD14C,0.0670*%
%ADD15R,0.0800X0.2140*%
%ADD16R,0.0670X0.0749*%
%ADD17R,0.0670X0.0827*%
%ADD18R,0.0780X0.0780*%
%ADD19C,0.0780*%
%ADD20C,0.0640*%
%ADD21C,0.0000*%
%ADD22C,0.1340*%
%ADD23R,0.0827X0.0631*%
%ADD24R,0.0631X0.0827*%
%ADD25C,0.1300*%
%ADD26R,0.0434X0.0827*%
%ADD27R,0.0749X0.0434*%
%ADD28R,0.0670X0.1221*%
%ADD29R,0.2323X0.2481*%
%ADD30R,0.0749X0.0670*%
%ADD31R,0.0827X0.0670*%
%ADD32R,0.0555X0.0555*%
%ADD33C,0.0555*%
D10*
X011816Y051557D02*
X011816Y052077D01*
X012816Y052077D02*
X012816Y051557D01*
X013816Y051557D02*
X013816Y052077D01*
X014816Y052077D02*
X014816Y051557D01*
X015816Y051557D02*
X015816Y052077D01*
X016816Y052077D02*
X016816Y051557D01*
X017816Y051557D02*
X017816Y052077D01*
X018816Y052077D02*
X018816Y051557D01*
X019816Y051557D02*
X019816Y052077D01*
X021816Y052327D02*
X021816Y051807D01*
X022816Y051807D02*
X022816Y052327D01*
X023816Y052327D02*
X023816Y051807D01*
X024816Y051807D02*
X024816Y052327D01*
X025816Y052327D02*
X025816Y051807D01*
X026816Y051807D02*
X026816Y052327D01*
X027816Y052327D02*
X027816Y051807D01*
X028816Y051807D02*
X028816Y052327D01*
X029816Y052327D02*
X029816Y051807D01*
X029816Y054807D02*
X029816Y055327D01*
X028816Y055327D02*
X028816Y054807D01*
X027816Y054807D02*
X027816Y055327D01*
X026816Y055327D02*
X026816Y054807D01*
X025816Y054807D02*
X025816Y055327D01*
X024816Y055327D02*
X024816Y054807D01*
X023816Y054807D02*
X023816Y055327D01*
X022816Y055327D02*
X022816Y054807D01*
X021816Y054807D02*
X021816Y055327D01*
X019816Y055077D02*
X019816Y054557D01*
X019816Y055932D02*
X019816Y056452D01*
X018816Y056452D02*
X018816Y055932D01*
X018816Y055077D02*
X018816Y054557D01*
X017816Y054557D02*
X017816Y055077D01*
X017816Y055932D02*
X017816Y056452D01*
X016816Y056452D02*
X016816Y055932D01*
X016816Y055077D02*
X016816Y054557D01*
X015816Y054557D02*
X015816Y055077D01*
X015816Y055932D02*
X015816Y056452D01*
X014816Y056452D02*
X014816Y055932D01*
X014816Y055077D02*
X014816Y054557D01*
X013816Y054557D02*
X013816Y055077D01*
X013816Y055932D02*
X013816Y056452D01*
X012816Y056452D02*
X012816Y055932D01*
X012816Y055077D02*
X012816Y054557D01*
X011816Y054557D02*
X011816Y055077D01*
X011816Y055932D02*
X011816Y056452D01*
X011816Y058932D02*
X011816Y059452D01*
X011816Y060432D02*
X011816Y060952D01*
X012816Y060952D02*
X012816Y060432D01*
X012816Y059452D02*
X012816Y058932D01*
X013816Y058932D02*
X013816Y059452D01*
X013816Y060432D02*
X013816Y060952D01*
X014816Y060952D02*
X014816Y060432D01*
X014816Y059452D02*
X014816Y058932D01*
X015816Y058932D02*
X015816Y059452D01*
X015816Y060432D02*
X015816Y060952D01*
X016816Y060952D02*
X016816Y060432D01*
X016816Y059452D02*
X016816Y058932D01*
X017816Y058932D02*
X017816Y059452D01*
X017816Y060432D02*
X017816Y060952D01*
X018816Y060952D02*
X018816Y060432D01*
X018816Y059452D02*
X018816Y058932D01*
X019816Y058932D02*
X019816Y059452D01*
X019816Y060432D02*
X019816Y060952D01*
X020816Y060952D02*
X020816Y060432D01*
X020816Y063432D02*
X020816Y063952D01*
X019816Y063952D02*
X019816Y063432D01*
X018816Y063432D02*
X018816Y063952D01*
X017816Y063952D02*
X017816Y063432D01*
X016816Y063432D02*
X016816Y063952D01*
X015816Y063952D02*
X015816Y063432D01*
X014816Y063432D02*
X014816Y063952D01*
X013816Y063952D02*
X013816Y063432D01*
X012816Y063432D02*
X012816Y063952D01*
X011816Y063952D02*
X011816Y063432D01*
X023316Y063432D02*
X023316Y063952D01*
X024316Y063952D02*
X024316Y063432D01*
X025316Y063432D02*
X025316Y063952D01*
X026316Y063952D02*
X026316Y063432D01*
X027316Y063432D02*
X027316Y063952D01*
X028316Y063952D02*
X028316Y063432D01*
X029316Y063432D02*
X029316Y063952D01*
X030316Y063952D02*
X030316Y063432D01*
X031316Y063432D02*
X031316Y063952D01*
X032316Y063952D02*
X032316Y063432D01*
X033316Y063432D02*
X033316Y063952D01*
X034316Y063952D02*
X034316Y063432D01*
X036056Y062942D02*
X036576Y062942D01*
X036576Y061942D02*
X036056Y061942D01*
X036056Y060942D02*
X036576Y060942D01*
X036576Y059942D02*
X036056Y059942D01*
X036056Y058942D02*
X036576Y058942D01*
X036576Y057942D02*
X036056Y057942D01*
X036056Y056942D02*
X036576Y056942D01*
X036576Y055942D02*
X036056Y055942D01*
X036056Y054942D02*
X036576Y054942D01*
X036576Y053942D02*
X036056Y053942D01*
X036056Y052942D02*
X036576Y052942D01*
X036576Y051942D02*
X036056Y051942D01*
X036056Y050942D02*
X036576Y050942D01*
X039056Y050942D02*
X039576Y050942D01*
X039576Y051942D02*
X039056Y051942D01*
X039056Y052942D02*
X039576Y052942D01*
X039576Y053942D02*
X039056Y053942D01*
X039056Y054942D02*
X039576Y054942D01*
X039576Y055942D02*
X039056Y055942D01*
X039056Y056942D02*
X039576Y056942D01*
X039576Y057942D02*
X039056Y057942D01*
X039056Y058942D02*
X039576Y058942D01*
X039576Y059942D02*
X039056Y059942D01*
X039056Y060942D02*
X039576Y060942D01*
X039576Y061942D02*
X039056Y061942D01*
X039056Y062942D02*
X039576Y062942D01*
X039576Y063942D02*
X039056Y063942D01*
X036576Y063942D02*
X036056Y063942D01*
X034316Y060952D02*
X034316Y060432D01*
X033316Y060432D02*
X033316Y060952D01*
X032316Y060952D02*
X032316Y060432D01*
X031316Y060432D02*
X031316Y060952D01*
X030316Y060952D02*
X030316Y060432D01*
X029316Y060432D02*
X029316Y060952D01*
X028316Y060952D02*
X028316Y060432D01*
X027316Y060432D02*
X027316Y060952D01*
X026316Y060952D02*
X026316Y060432D01*
X025316Y060432D02*
X025316Y060952D01*
X024316Y060952D02*
X024316Y060432D01*
X023316Y060432D02*
X023316Y060952D01*
D11*
X027816Y056942D03*
X030816Y056942D03*
D12*
X030800Y048045D02*
X030800Y047340D01*
X028831Y047340D02*
X028831Y048045D01*
X026800Y048045D02*
X026800Y047340D01*
X024831Y047340D02*
X024831Y048045D01*
X021800Y048045D02*
X021800Y047340D01*
X019831Y047340D02*
X019831Y048045D01*
X017800Y048045D02*
X017800Y047340D01*
X015831Y047340D02*
X015831Y048045D01*
X013800Y048045D02*
X013800Y047340D01*
X011831Y047340D02*
X011831Y048045D01*
X009800Y048045D02*
X009800Y047340D01*
X007831Y047340D02*
X007831Y048045D01*
X008213Y054583D02*
X008918Y054583D01*
X008918Y056551D02*
X008213Y056551D01*
X032831Y048045D02*
X032831Y047340D01*
X034800Y047340D02*
X034800Y048045D01*
X036831Y048045D02*
X036831Y047340D01*
X038800Y047340D02*
X038800Y048045D01*
D13*
X008566Y051067D03*
D14*
X008566Y052067D03*
D15*
X041816Y057542D03*
X041816Y061342D03*
D16*
X042367Y063442D03*
X041265Y063442D03*
X041265Y055442D03*
X042367Y055442D03*
X035492Y072067D03*
X034390Y072067D03*
D17*
X041015Y050942D03*
X042117Y050942D03*
D18*
X034366Y055942D03*
D19*
X034266Y054942D03*
X034366Y053942D03*
X034266Y052942D03*
X040926Y048722D03*
X040926Y046162D03*
X042706Y046162D03*
X042706Y048722D03*
X039566Y065592D03*
X038566Y065692D03*
X037566Y065592D03*
X036566Y065692D03*
X035566Y065592D03*
X034566Y065692D03*
D20*
X009816Y059992D02*
X009816Y059392D01*
X008816Y059392D02*
X008816Y059992D01*
X007816Y059992D02*
X007816Y059392D01*
D21*
X006206Y042694D02*
X042426Y042694D01*
X041796Y044269D02*
X041798Y044319D01*
X041804Y044369D01*
X041814Y044418D01*
X041828Y044466D01*
X041845Y044513D01*
X041866Y044558D01*
X041891Y044602D01*
X041919Y044643D01*
X041951Y044682D01*
X041985Y044719D01*
X042022Y044753D01*
X042062Y044783D01*
X042104Y044810D01*
X042148Y044834D01*
X042194Y044855D01*
X042241Y044871D01*
X042289Y044884D01*
X042339Y044893D01*
X042388Y044898D01*
X042439Y044899D01*
X042489Y044896D01*
X042538Y044889D01*
X042587Y044878D01*
X042635Y044863D01*
X042681Y044845D01*
X042726Y044823D01*
X042769Y044797D01*
X042810Y044768D01*
X042849Y044736D01*
X042885Y044701D01*
X042917Y044663D01*
X042947Y044623D01*
X042974Y044580D01*
X042997Y044536D01*
X043016Y044490D01*
X043032Y044442D01*
X043044Y044393D01*
X043052Y044344D01*
X043056Y044294D01*
X043056Y044244D01*
X043052Y044194D01*
X043044Y044145D01*
X043032Y044096D01*
X043016Y044048D01*
X042997Y044002D01*
X042974Y043958D01*
X042947Y043915D01*
X042917Y043875D01*
X042885Y043837D01*
X042849Y043802D01*
X042810Y043770D01*
X042769Y043741D01*
X042726Y043715D01*
X042681Y043693D01*
X042635Y043675D01*
X042587Y043660D01*
X042538Y043649D01*
X042489Y043642D01*
X042439Y043639D01*
X042388Y043640D01*
X042339Y043645D01*
X042289Y043654D01*
X042241Y043667D01*
X042194Y043683D01*
X042148Y043704D01*
X042104Y043728D01*
X042062Y043755D01*
X042022Y043785D01*
X041985Y043819D01*
X041951Y043856D01*
X041919Y043895D01*
X041891Y043936D01*
X041866Y043980D01*
X041845Y044025D01*
X041828Y044072D01*
X041814Y044120D01*
X041804Y044169D01*
X041798Y044219D01*
X041796Y044269D01*
X042426Y042694D02*
X042503Y042696D01*
X042580Y042702D01*
X042657Y042711D01*
X042733Y042724D01*
X042809Y042741D01*
X042883Y042762D01*
X042957Y042786D01*
X043029Y042814D01*
X043099Y042845D01*
X043168Y042880D01*
X043236Y042918D01*
X043301Y042959D01*
X043364Y043004D01*
X043425Y043052D01*
X043484Y043102D01*
X043540Y043155D01*
X043593Y043211D01*
X043643Y043270D01*
X043691Y043331D01*
X043736Y043394D01*
X043777Y043459D01*
X043815Y043527D01*
X043850Y043596D01*
X043881Y043666D01*
X043909Y043738D01*
X043933Y043812D01*
X043954Y043886D01*
X043971Y043962D01*
X043984Y044038D01*
X043993Y044115D01*
X043999Y044192D01*
X044001Y044269D01*
X044001Y072615D01*
X041796Y072615D02*
X041798Y072665D01*
X041804Y072715D01*
X041814Y072764D01*
X041828Y072812D01*
X041845Y072859D01*
X041866Y072904D01*
X041891Y072948D01*
X041919Y072989D01*
X041951Y073028D01*
X041985Y073065D01*
X042022Y073099D01*
X042062Y073129D01*
X042104Y073156D01*
X042148Y073180D01*
X042194Y073201D01*
X042241Y073217D01*
X042289Y073230D01*
X042339Y073239D01*
X042388Y073244D01*
X042439Y073245D01*
X042489Y073242D01*
X042538Y073235D01*
X042587Y073224D01*
X042635Y073209D01*
X042681Y073191D01*
X042726Y073169D01*
X042769Y073143D01*
X042810Y073114D01*
X042849Y073082D01*
X042885Y073047D01*
X042917Y073009D01*
X042947Y072969D01*
X042974Y072926D01*
X042997Y072882D01*
X043016Y072836D01*
X043032Y072788D01*
X043044Y072739D01*
X043052Y072690D01*
X043056Y072640D01*
X043056Y072590D01*
X043052Y072540D01*
X043044Y072491D01*
X043032Y072442D01*
X043016Y072394D01*
X042997Y072348D01*
X042974Y072304D01*
X042947Y072261D01*
X042917Y072221D01*
X042885Y072183D01*
X042849Y072148D01*
X042810Y072116D01*
X042769Y072087D01*
X042726Y072061D01*
X042681Y072039D01*
X042635Y072021D01*
X042587Y072006D01*
X042538Y071995D01*
X042489Y071988D01*
X042439Y071985D01*
X042388Y071986D01*
X042339Y071991D01*
X042289Y072000D01*
X042241Y072013D01*
X042194Y072029D01*
X042148Y072050D01*
X042104Y072074D01*
X042062Y072101D01*
X042022Y072131D01*
X041985Y072165D01*
X041951Y072202D01*
X041919Y072241D01*
X041891Y072282D01*
X041866Y072326D01*
X041845Y072371D01*
X041828Y072418D01*
X041814Y072466D01*
X041804Y072515D01*
X041798Y072565D01*
X041796Y072615D01*
X042426Y074190D02*
X042503Y074188D01*
X042580Y074182D01*
X042657Y074173D01*
X042733Y074160D01*
X042809Y074143D01*
X042883Y074122D01*
X042957Y074098D01*
X043029Y074070D01*
X043099Y074039D01*
X043168Y074004D01*
X043236Y073966D01*
X043301Y073925D01*
X043364Y073880D01*
X043425Y073832D01*
X043484Y073782D01*
X043540Y073729D01*
X043593Y073673D01*
X043643Y073614D01*
X043691Y073553D01*
X043736Y073490D01*
X043777Y073425D01*
X043815Y073357D01*
X043850Y073288D01*
X043881Y073218D01*
X043909Y073146D01*
X043933Y073072D01*
X043954Y072998D01*
X043971Y072922D01*
X043984Y072846D01*
X043993Y072769D01*
X043999Y072692D01*
X044001Y072615D01*
X042426Y074190D02*
X006206Y074190D01*
X005576Y072615D02*
X005578Y072665D01*
X005584Y072715D01*
X005594Y072764D01*
X005608Y072812D01*
X005625Y072859D01*
X005646Y072904D01*
X005671Y072948D01*
X005699Y072989D01*
X005731Y073028D01*
X005765Y073065D01*
X005802Y073099D01*
X005842Y073129D01*
X005884Y073156D01*
X005928Y073180D01*
X005974Y073201D01*
X006021Y073217D01*
X006069Y073230D01*
X006119Y073239D01*
X006168Y073244D01*
X006219Y073245D01*
X006269Y073242D01*
X006318Y073235D01*
X006367Y073224D01*
X006415Y073209D01*
X006461Y073191D01*
X006506Y073169D01*
X006549Y073143D01*
X006590Y073114D01*
X006629Y073082D01*
X006665Y073047D01*
X006697Y073009D01*
X006727Y072969D01*
X006754Y072926D01*
X006777Y072882D01*
X006796Y072836D01*
X006812Y072788D01*
X006824Y072739D01*
X006832Y072690D01*
X006836Y072640D01*
X006836Y072590D01*
X006832Y072540D01*
X006824Y072491D01*
X006812Y072442D01*
X006796Y072394D01*
X006777Y072348D01*
X006754Y072304D01*
X006727Y072261D01*
X006697Y072221D01*
X006665Y072183D01*
X006629Y072148D01*
X006590Y072116D01*
X006549Y072087D01*
X006506Y072061D01*
X006461Y072039D01*
X006415Y072021D01*
X006367Y072006D01*
X006318Y071995D01*
X006269Y071988D01*
X006219Y071985D01*
X006168Y071986D01*
X006119Y071991D01*
X006069Y072000D01*
X006021Y072013D01*
X005974Y072029D01*
X005928Y072050D01*
X005884Y072074D01*
X005842Y072101D01*
X005802Y072131D01*
X005765Y072165D01*
X005731Y072202D01*
X005699Y072241D01*
X005671Y072282D01*
X005646Y072326D01*
X005625Y072371D01*
X005608Y072418D01*
X005594Y072466D01*
X005584Y072515D01*
X005578Y072565D01*
X005576Y072615D01*
X004631Y072615D02*
X004633Y072692D01*
X004639Y072769D01*
X004648Y072846D01*
X004661Y072922D01*
X004678Y072998D01*
X004699Y073072D01*
X004723Y073146D01*
X004751Y073218D01*
X004782Y073288D01*
X004817Y073357D01*
X004855Y073425D01*
X004896Y073490D01*
X004941Y073553D01*
X004989Y073614D01*
X005039Y073673D01*
X005092Y073729D01*
X005148Y073782D01*
X005207Y073832D01*
X005268Y073880D01*
X005331Y073925D01*
X005396Y073966D01*
X005464Y074004D01*
X005533Y074039D01*
X005603Y074070D01*
X005675Y074098D01*
X005749Y074122D01*
X005823Y074143D01*
X005899Y074160D01*
X005975Y074173D01*
X006052Y074182D01*
X006129Y074188D01*
X006206Y074190D01*
X004631Y072615D02*
X004631Y044269D01*
X005576Y044269D02*
X005578Y044319D01*
X005584Y044369D01*
X005594Y044418D01*
X005608Y044466D01*
X005625Y044513D01*
X005646Y044558D01*
X005671Y044602D01*
X005699Y044643D01*
X005731Y044682D01*
X005765Y044719D01*
X005802Y044753D01*
X005842Y044783D01*
X005884Y044810D01*
X005928Y044834D01*
X005974Y044855D01*
X006021Y044871D01*
X006069Y044884D01*
X006119Y044893D01*
X006168Y044898D01*
X006219Y044899D01*
X006269Y044896D01*
X006318Y044889D01*
X006367Y044878D01*
X006415Y044863D01*
X006461Y044845D01*
X006506Y044823D01*
X006549Y044797D01*
X006590Y044768D01*
X006629Y044736D01*
X006665Y044701D01*
X006697Y044663D01*
X006727Y044623D01*
X006754Y044580D01*
X006777Y044536D01*
X006796Y044490D01*
X006812Y044442D01*
X006824Y044393D01*
X006832Y044344D01*
X006836Y044294D01*
X006836Y044244D01*
X006832Y044194D01*
X006824Y044145D01*
X006812Y044096D01*
X006796Y044048D01*
X006777Y044002D01*
X006754Y043958D01*
X006727Y043915D01*
X006697Y043875D01*
X006665Y043837D01*
X006629Y043802D01*
X006590Y043770D01*
X006549Y043741D01*
X006506Y043715D01*
X006461Y043693D01*
X006415Y043675D01*
X006367Y043660D01*
X006318Y043649D01*
X006269Y043642D01*
X006219Y043639D01*
X006168Y043640D01*
X006119Y043645D01*
X006069Y043654D01*
X006021Y043667D01*
X005974Y043683D01*
X005928Y043704D01*
X005884Y043728D01*
X005842Y043755D01*
X005802Y043785D01*
X005765Y043819D01*
X005731Y043856D01*
X005699Y043895D01*
X005671Y043936D01*
X005646Y043980D01*
X005625Y044025D01*
X005608Y044072D01*
X005594Y044120D01*
X005584Y044169D01*
X005578Y044219D01*
X005576Y044269D01*
X004631Y044269D02*
X004633Y044192D01*
X004639Y044115D01*
X004648Y044038D01*
X004661Y043962D01*
X004678Y043886D01*
X004699Y043812D01*
X004723Y043738D01*
X004751Y043666D01*
X004782Y043596D01*
X004817Y043527D01*
X004855Y043459D01*
X004896Y043394D01*
X004941Y043331D01*
X004989Y043270D01*
X005039Y043211D01*
X005092Y043155D01*
X005148Y043102D01*
X005207Y043052D01*
X005268Y043004D01*
X005331Y042959D01*
X005396Y042918D01*
X005464Y042880D01*
X005533Y042845D01*
X005603Y042814D01*
X005675Y042786D01*
X005749Y042762D01*
X005823Y042741D01*
X005899Y042724D01*
X005975Y042711D01*
X006052Y042702D01*
X006129Y042696D01*
X006206Y042694D01*
X008166Y065592D02*
X008168Y065642D01*
X008174Y065692D01*
X008184Y065742D01*
X008197Y065790D01*
X008214Y065838D01*
X008235Y065884D01*
X008259Y065928D01*
X008287Y065970D01*
X008318Y066010D01*
X008352Y066047D01*
X008389Y066082D01*
X008428Y066113D01*
X008469Y066142D01*
X008513Y066167D01*
X008559Y066189D01*
X008606Y066207D01*
X008654Y066221D01*
X008703Y066232D01*
X008753Y066239D01*
X008803Y066242D01*
X008854Y066241D01*
X008904Y066236D01*
X008954Y066227D01*
X009002Y066215D01*
X009050Y066198D01*
X009096Y066178D01*
X009141Y066155D01*
X009184Y066128D01*
X009224Y066098D01*
X009262Y066065D01*
X009297Y066029D01*
X009330Y065990D01*
X009359Y065949D01*
X009385Y065906D01*
X009408Y065861D01*
X009427Y065814D01*
X009442Y065766D01*
X009454Y065717D01*
X009462Y065667D01*
X009466Y065617D01*
X009466Y065567D01*
X009462Y065517D01*
X009454Y065467D01*
X009442Y065418D01*
X009427Y065370D01*
X009408Y065323D01*
X009385Y065278D01*
X009359Y065235D01*
X009330Y065194D01*
X009297Y065155D01*
X009262Y065119D01*
X009224Y065086D01*
X009184Y065056D01*
X009141Y065029D01*
X009096Y065006D01*
X009050Y064986D01*
X009002Y064969D01*
X008954Y064957D01*
X008904Y064948D01*
X008854Y064943D01*
X008803Y064942D01*
X008753Y064945D01*
X008703Y064952D01*
X008654Y064963D01*
X008606Y064977D01*
X008559Y064995D01*
X008513Y065017D01*
X008469Y065042D01*
X008428Y065071D01*
X008389Y065102D01*
X008352Y065137D01*
X008318Y065174D01*
X008287Y065214D01*
X008259Y065256D01*
X008235Y065300D01*
X008214Y065346D01*
X008197Y065394D01*
X008184Y065442D01*
X008174Y065492D01*
X008168Y065542D01*
X008166Y065592D01*
D22*
X008816Y065592D03*
D23*
X022316Y057533D03*
X022316Y056352D03*
D24*
X008656Y058442D03*
X007475Y058442D03*
D25*
X006206Y072615D03*
X006206Y044269D03*
X042426Y044269D03*
X042426Y072615D03*
D26*
X026027Y072060D03*
X025437Y072060D03*
X024846Y072060D03*
X024256Y072060D03*
X023665Y072060D03*
X023075Y072060D03*
X022484Y072060D03*
X021894Y072060D03*
X021303Y072060D03*
X020712Y072060D03*
X020122Y072060D03*
X019531Y072060D03*
X018941Y072060D03*
X018941Y066942D03*
X019531Y066942D03*
X020122Y066942D03*
X020712Y066942D03*
X021303Y066942D03*
X021894Y066942D03*
X022484Y066942D03*
X023075Y066942D03*
X023665Y066942D03*
X024256Y066942D03*
X024846Y066942D03*
X025437Y066942D03*
X026027Y066942D03*
D27*
X026716Y067434D03*
X026716Y068025D03*
X026716Y068615D03*
X026716Y069206D03*
X026716Y069796D03*
X026716Y070387D03*
X026716Y070978D03*
X026716Y071568D03*
D28*
X013713Y065677D03*
X011918Y065677D03*
D29*
X012816Y068504D03*
D30*
X028691Y067493D03*
X028691Y066391D03*
D31*
X031566Y068516D03*
X031566Y069618D03*
X033691Y069618D03*
X033691Y068516D03*
X035816Y068516D03*
X035816Y069618D03*
X037941Y069618D03*
X037941Y068516D03*
X040066Y068516D03*
X040066Y069618D03*
D32*
X012191Y072192D03*
D33*
X011191Y072192D03*
M02*
