%
M48
M72
T01C0.0236
T02C0.0315
T03C0.0320
T04C0.0400
T05C0.0470
T06C0.1260
T07C0.1300
%
T01
X10441Y52817
X14816Y65692
X16691Y67692
X16816Y69192
X17816Y73067
X19566Y67817
X22316Y62942
X19816Y57692
X20816Y55942
X25816Y59942
X26816Y59942
X26316Y61942
X27816Y59942
X29316Y57692
X30566Y59442
X31816Y57692
X33566Y59192
X30816Y61692
X28316Y62692
X33316Y64942
X36941Y69067
X37191Y71317
X40066Y70442
X40066Y66942
X38941Y66692
X37316Y64192
X38316Y61942
X37316Y60692
X32316Y53942
X42191Y51942
T02
X12191Y72192
X11191Y72192
T03
X8566Y51067
X8566Y52067
X11816Y51817
X12816Y51817
X13816Y51817
X14816Y51817
X15816Y51817
X16816Y51817
X17816Y51817
X18816Y51817
X19816Y51817
X21816Y52067
X22816Y52067
X23816Y52067
X24816Y52067
X25816Y52067
X26816Y52067
X27816Y52067
X28816Y52067
X29816Y52067
X29816Y55067
X28816Y55067
X27816Y55067
X26816Y55067
X25816Y55067
X24816Y55067
X23816Y55067
X22816Y55067
X21816Y55067
X19816Y54817
X18816Y54817
X17816Y54817
X16816Y54817
X15816Y54817
X14816Y54817
X13816Y54817
X12816Y54817
X11816Y54817
X11816Y56192
X12816Y56192
X13816Y56192
X14816Y56192
X15816Y56192
X16816Y56192
X17816Y56192
X18816Y56192
X19816Y56192
X19816Y59192
X18816Y59192
X17816Y59192
X16816Y59192
X15816Y59192
X14816Y59192
X13816Y59192
X12816Y59192
X11816Y59192
X11816Y60692
X12816Y60692
X13816Y60692
X14816Y60692
X15816Y60692
X16816Y60692
X17816Y60692
X18816Y60692
X19816Y60692
X20816Y60692
X20816Y63692
X19816Y63692
X18816Y63692
X17816Y63692
X16816Y63692
X15816Y63692
X14816Y63692
X13816Y63692
X12816Y63692
X11816Y63692
X23316Y63692
X24316Y63692
X25316Y63692
X26316Y63692
X27316Y63692
X28316Y63692
X29316Y63692
X30316Y63692
X31316Y63692
X32316Y63692
X33316Y63692
X34316Y63692
X34316Y60692
X33316Y60692
X32316Y60692
X31316Y60692
X30316Y60692
X29316Y60692
X28316Y60692
X27316Y60692
X26316Y60692
X25316Y60692
X24316Y60692
X23316Y60692
X27816Y56942
X30816Y56942
X36316Y56942
X36316Y57942
X36316Y58942
X36316Y59942
X36316Y60942
X36316Y61942
X36316Y62942
X36316Y63942
X39316Y63942
X39316Y62942
X39316Y61942
X39316Y60942
X39316Y59942
X39316Y58942
X39316Y57942
X39316Y56942
X39316Y55942
X39316Y54942
X39316Y53942
X39316Y52942
X39316Y51942
X39316Y50942
X36316Y50942
X36316Y51942
X36316Y52942
X36316Y53942
X36316Y54942
X36316Y55942
T04
X42706Y46162
X42706Y48722
X40926Y48722
X40926Y46162
X34266Y52942
X34366Y53942
X34266Y54942
X34366Y55942
X35566Y65592
X36566Y65692
X37566Y65592
X38566Y65692
X39566Y65592
X34566Y65692
X9816Y59692
X8816Y59692
X7816Y59692
T05
X7831Y47692
X9800Y47692
X11831Y47692
X13800Y47692
X15831Y47692
X17800Y47692
X19831Y47692
X21800Y47692
X24831Y47692
X26800Y47692
X28831Y47692
X30800Y47692
X32831Y47692
X34800Y47692
X36831Y47692
X38800Y47692
X8566Y56551
X8566Y54583
T06
X42426Y44269
X42426Y72615
X6206Y72615
X6206Y44269
T07
X8816Y65592
M30
