G75*
G70*
%OFA0B0*%
%FSLAX24Y24*%
%IPPOS*%
%LPD*%
%AMOC8*
5,1,8,0,0,1.08239X$1,22.5*
%
%ADD10C,0.0060*%
%ADD11C,0.0100*%
%ADD12C,0.0040*%
%ADD13C,0.0080*%
%ADD14C,0.0050*%
%ADD15C,0.0120*%
%ADD16C,0.0500*%
%ADD17C,0.0090*%
%ADD18C,0.0160*%
%ADD19C,0.0000*%
D10*
X007453Y043472D02*
X007666Y043472D01*
X007773Y043579D01*
X007990Y043579D02*
X007990Y044006D01*
X008097Y044113D01*
X008311Y044113D01*
X008417Y044006D01*
X008417Y043579D01*
X008311Y043472D01*
X008097Y043472D01*
X007990Y043579D01*
X007773Y044006D02*
X007666Y044113D01*
X007453Y044113D01*
X007346Y044006D01*
X007346Y043579D01*
X007453Y043472D01*
X008635Y043472D02*
X009062Y043472D01*
X009279Y043579D02*
X009279Y044113D01*
X009706Y044113D02*
X009706Y043579D01*
X009600Y043472D01*
X009386Y043472D01*
X009279Y043579D01*
X009924Y043472D02*
X009924Y044113D01*
X010137Y043899D01*
X010351Y044113D01*
X010351Y043472D01*
X010568Y043472D02*
X010568Y044113D01*
X010996Y043472D01*
X010996Y044113D01*
X011213Y044006D02*
X011213Y043899D01*
X011320Y043792D01*
X011533Y043792D01*
X011640Y043686D01*
X011640Y043579D01*
X011533Y043472D01*
X011320Y043472D01*
X011213Y043579D01*
X011213Y044006D02*
X011320Y044113D01*
X011533Y044113D01*
X011640Y044006D01*
X011703Y044722D02*
X011916Y044722D01*
X012023Y044829D01*
X012023Y044936D01*
X011916Y045042D01*
X011596Y045042D01*
X011596Y044829D01*
X011703Y044722D01*
X011596Y045042D02*
X011809Y045256D01*
X012023Y045363D01*
X012346Y043899D02*
X012773Y043899D01*
X012773Y043686D02*
X012346Y043686D01*
X013635Y043579D02*
X013742Y043472D01*
X013955Y043472D01*
X014062Y043579D01*
X014062Y043792D01*
X013848Y043792D01*
X013635Y044006D02*
X013635Y043579D01*
X013635Y044006D02*
X013742Y044113D01*
X013955Y044113D01*
X014062Y044006D01*
X014279Y044113D02*
X014279Y043472D01*
X014706Y043472D02*
X014279Y044113D01*
X014706Y044113D02*
X014706Y043472D01*
X014924Y043472D02*
X015244Y043472D01*
X015351Y043579D01*
X015351Y044006D01*
X015244Y044113D01*
X014924Y044113D01*
X014924Y043472D01*
X015916Y044722D02*
X015916Y045363D01*
X015596Y045042D01*
X016023Y045042D01*
X017596Y044829D02*
X017703Y044722D01*
X017916Y044722D01*
X018023Y044829D01*
X018023Y044936D01*
X017916Y045042D01*
X017809Y045042D01*
X017916Y045042D02*
X018023Y045149D01*
X018023Y045256D01*
X017916Y045363D01*
X017703Y045363D01*
X017596Y045256D01*
X019596Y045256D02*
X019703Y045363D01*
X019916Y045363D01*
X020023Y045256D01*
X020023Y045149D01*
X019596Y044722D01*
X020023Y044722D01*
X021596Y044722D02*
X022023Y044722D01*
X021809Y044722D02*
X021809Y045363D01*
X021596Y045149D01*
X024096Y044113D02*
X024096Y043472D01*
X024096Y043686D02*
X024416Y043686D01*
X024523Y043792D01*
X024523Y044006D01*
X024416Y044113D01*
X024096Y044113D01*
X024309Y043686D02*
X024523Y043472D01*
X024740Y043579D02*
X024847Y043472D01*
X025061Y043472D01*
X025167Y043579D01*
X025167Y044006D01*
X025061Y044113D01*
X024847Y044113D01*
X024740Y044006D01*
X024740Y043579D01*
X025385Y043472D02*
X025598Y043686D01*
X025812Y043472D01*
X025812Y044113D01*
X026029Y044006D02*
X026029Y043899D01*
X026136Y043792D01*
X026350Y043792D01*
X026456Y043686D01*
X026456Y043579D01*
X026350Y043472D01*
X026136Y043472D01*
X026029Y043579D01*
X026029Y044006D02*
X026136Y044113D01*
X026350Y044113D01*
X026456Y044006D01*
X026596Y044722D02*
X026596Y044829D01*
X027023Y045256D01*
X027023Y045363D01*
X026596Y045363D01*
X027346Y043899D02*
X027773Y043899D01*
X027773Y043686D02*
X027346Y043686D01*
X028635Y043899D02*
X028848Y044113D01*
X028848Y043472D01*
X028635Y043472D02*
X029062Y043472D01*
X029279Y043472D02*
X029706Y043899D01*
X029706Y044006D01*
X029600Y044113D01*
X029386Y044113D01*
X029279Y044006D01*
X029279Y043472D02*
X029706Y043472D01*
X029924Y043686D02*
X029924Y044113D01*
X030351Y044113D02*
X030351Y043686D01*
X030137Y043472D01*
X029924Y043686D01*
X030703Y044722D02*
X030596Y044829D01*
X030703Y044722D02*
X030916Y044722D01*
X031023Y044829D01*
X031023Y045042D01*
X030916Y045149D01*
X030809Y045149D01*
X030596Y045042D01*
X030596Y045363D01*
X031023Y045363D01*
X032596Y045042D02*
X033023Y045042D01*
X032916Y044722D02*
X032916Y045363D01*
X032596Y045042D01*
X034596Y044829D02*
X034703Y044722D01*
X034916Y044722D01*
X035023Y044829D01*
X035023Y044936D01*
X034916Y045042D01*
X034809Y045042D01*
X034916Y045042D02*
X035023Y045149D01*
X035023Y045256D01*
X034916Y045363D01*
X034703Y045363D01*
X034596Y045256D01*
X036596Y045256D02*
X036703Y045363D01*
X036916Y045363D01*
X037023Y045256D01*
X037023Y045149D01*
X036596Y044722D01*
X037023Y044722D01*
X038596Y044722D02*
X039023Y044722D01*
X038809Y044722D02*
X038809Y045363D01*
X038596Y045149D01*
X040498Y049022D02*
X040498Y049663D01*
X040818Y049663D01*
X040925Y049556D01*
X040925Y049342D01*
X040818Y049236D01*
X040498Y049236D01*
X040712Y049236D02*
X040925Y049022D01*
X041143Y049022D02*
X041143Y049663D01*
X041570Y049663D01*
X041787Y049556D02*
X041787Y049449D01*
X041894Y049342D01*
X042107Y049342D01*
X042214Y049236D01*
X042214Y049129D01*
X042107Y049022D01*
X041894Y049022D01*
X041787Y049129D01*
X041570Y049022D02*
X041143Y049022D01*
X041143Y049342D02*
X041356Y049342D01*
X041787Y049556D02*
X041894Y049663D01*
X042107Y049663D01*
X042214Y049556D01*
X042432Y049663D02*
X042432Y049022D01*
X042859Y049022D01*
X042645Y049342D02*
X042432Y049342D01*
X042432Y049663D02*
X042859Y049663D01*
X043076Y049663D02*
X043503Y049663D01*
X043290Y049663D02*
X043290Y049022D01*
X033062Y052597D02*
X032635Y052597D01*
X032635Y053238D01*
X032417Y053131D02*
X032311Y053238D01*
X032097Y053238D01*
X031990Y053131D01*
X031990Y052704D01*
X032097Y052597D01*
X032311Y052597D01*
X032417Y052704D01*
X031773Y052704D02*
X031666Y052597D01*
X031453Y052597D01*
X031346Y052704D01*
X031453Y052917D02*
X031666Y052917D01*
X031773Y052811D01*
X031773Y052704D01*
X031453Y052917D02*
X031346Y053024D01*
X031346Y053131D01*
X031453Y053238D01*
X031666Y053238D01*
X031773Y053131D01*
X031666Y053597D02*
X031773Y053704D01*
X031773Y053811D01*
X031666Y053917D01*
X031453Y053917D01*
X031346Y054024D01*
X031346Y054131D01*
X031453Y054238D01*
X031666Y054238D01*
X031773Y054131D01*
X031990Y054238D02*
X032311Y054238D01*
X032417Y054131D01*
X032417Y053704D01*
X032311Y053597D01*
X031990Y053597D01*
X031990Y054238D01*
X032097Y054597D02*
X032311Y054597D01*
X032417Y054704D01*
X032635Y054704D02*
X032742Y054597D01*
X032955Y054597D01*
X033062Y054704D01*
X033062Y055131D02*
X032955Y055238D01*
X032742Y055238D01*
X032635Y055131D01*
X032635Y054704D01*
X032417Y055131D02*
X032311Y055238D01*
X032097Y055238D01*
X031990Y055131D01*
X031990Y054704D01*
X032097Y054597D01*
X031773Y054811D02*
X031773Y055238D01*
X031666Y055597D02*
X031773Y055704D01*
X031773Y055917D01*
X031559Y055917D01*
X031346Y055704D02*
X031453Y055597D01*
X031666Y055597D01*
X031990Y055597D02*
X031990Y056238D01*
X032417Y055597D01*
X032417Y056238D01*
X032635Y056238D02*
X032955Y056238D01*
X033062Y056131D01*
X033062Y055704D01*
X032955Y055597D01*
X032635Y055597D01*
X032635Y056238D01*
X031773Y056131D02*
X031666Y056238D01*
X031453Y056238D01*
X031346Y056131D01*
X031346Y055704D01*
X031346Y055238D02*
X031346Y054811D01*
X031559Y054597D01*
X031773Y054811D01*
X032635Y054024D02*
X032848Y054238D01*
X033062Y054024D01*
X033062Y053597D01*
X033062Y053917D02*
X032635Y053917D01*
X032635Y054024D02*
X032635Y053597D01*
X031666Y053597D02*
X031453Y053597D01*
X031346Y053704D01*
X029023Y045363D02*
X028809Y045256D01*
X028596Y045042D01*
X028916Y045042D01*
X029023Y044936D01*
X029023Y044829D01*
X028916Y044722D01*
X028703Y044722D01*
X028596Y044829D01*
X028596Y045042D01*
X025385Y044113D02*
X025385Y043472D01*
X024916Y044722D02*
X024703Y044722D01*
X024596Y044829D01*
X024596Y044936D01*
X024703Y045042D01*
X024916Y045042D01*
X025023Y044936D01*
X025023Y044829D01*
X024916Y044722D01*
X024916Y045042D02*
X025023Y045149D01*
X025023Y045256D01*
X024916Y045363D01*
X024703Y045363D01*
X024596Y045256D01*
X024596Y045149D01*
X024703Y045042D01*
X014023Y045042D02*
X014023Y044829D01*
X013916Y044722D01*
X013703Y044722D01*
X013596Y044829D01*
X013596Y045042D02*
X013809Y045149D01*
X013916Y045149D01*
X014023Y045042D01*
X014023Y045363D02*
X013596Y045363D01*
X013596Y045042D01*
X010023Y045256D02*
X009596Y044829D01*
X009596Y044722D01*
X009596Y045363D02*
X010023Y045363D01*
X010023Y045256D01*
X008635Y044113D02*
X008635Y043472D01*
X007916Y044722D02*
X007703Y044722D01*
X007596Y044829D01*
X007596Y044936D01*
X007703Y045042D01*
X007916Y045042D01*
X008023Y044936D01*
X008023Y044829D01*
X007916Y044722D01*
X007916Y045042D02*
X008023Y045149D01*
X008023Y045256D01*
X007916Y045363D01*
X007703Y045363D01*
X007596Y045256D01*
X007596Y045149D01*
X007703Y045042D01*
X006684Y054329D02*
X006684Y054756D01*
X006471Y054542D02*
X006898Y054542D01*
X006715Y056347D02*
X006715Y056774D01*
X007596Y062597D02*
X007596Y062704D01*
X008023Y063131D01*
X008023Y063238D01*
X007596Y063238D01*
X008240Y063131D02*
X008240Y063024D01*
X008347Y062917D01*
X008561Y062917D01*
X008667Y062811D01*
X008667Y062704D01*
X008561Y062597D01*
X008347Y062597D01*
X008240Y062704D01*
X008240Y062811D01*
X008347Y062917D01*
X008561Y062917D02*
X008667Y063024D01*
X008667Y063131D01*
X008561Y063238D01*
X008347Y063238D01*
X008240Y063131D01*
X008885Y063131D02*
X008885Y062704D01*
X009312Y063131D01*
X009312Y062704D01*
X009205Y062597D01*
X008992Y062597D01*
X008885Y062704D01*
X008885Y063131D02*
X008992Y063238D01*
X009205Y063238D01*
X009312Y063131D01*
X009529Y063238D02*
X009529Y062917D01*
X009743Y063024D01*
X009850Y063024D01*
X009956Y062917D01*
X009956Y062704D01*
X009850Y062597D01*
X009636Y062597D01*
X009529Y062704D01*
X009529Y063238D02*
X009956Y063238D01*
D11*
X011316Y063317D02*
X011316Y061067D01*
X021316Y061067D01*
X021316Y061692D01*
X021272Y061683D01*
X021228Y061678D01*
X021184Y061677D01*
X021139Y061680D01*
X021095Y061686D01*
X021052Y061696D01*
X021009Y061710D01*
X020969Y061728D01*
X020929Y061748D01*
X020892Y061773D01*
X020857Y061800D01*
X020824Y061830D01*
X020794Y061863D01*
X020767Y061899D01*
X020744Y061937D01*
X020723Y061976D01*
X020706Y062017D01*
X020693Y062060D01*
X020684Y062103D01*
X020678Y062148D01*
X020676Y062192D01*
X020678Y062236D01*
X020684Y062281D01*
X020693Y062324D01*
X020706Y062367D01*
X020723Y062408D01*
X020744Y062447D01*
X020767Y062485D01*
X020794Y062521D01*
X020824Y062554D01*
X020857Y062584D01*
X020892Y062611D01*
X020929Y062636D01*
X020969Y062656D01*
X021009Y062674D01*
X021052Y062688D01*
X021095Y062698D01*
X021139Y062704D01*
X021184Y062707D01*
X021228Y062706D01*
X021272Y062701D01*
X021316Y062692D01*
X021316Y063317D01*
X011316Y063317D01*
X010816Y060692D02*
X010816Y066942D01*
X006816Y066942D01*
X006816Y060692D01*
X010816Y060692D01*
X011316Y058817D02*
X020316Y058817D01*
X020316Y058192D01*
X020272Y058201D01*
X020228Y058206D01*
X020184Y058207D01*
X020139Y058204D01*
X020095Y058198D01*
X020052Y058188D01*
X020009Y058174D01*
X019969Y058156D01*
X019929Y058136D01*
X019892Y058111D01*
X019857Y058084D01*
X019824Y058054D01*
X019794Y058021D01*
X019767Y057985D01*
X019744Y057947D01*
X019723Y057908D01*
X019706Y057867D01*
X019693Y057824D01*
X019684Y057781D01*
X019678Y057736D01*
X019676Y057692D01*
X019678Y057648D01*
X019684Y057603D01*
X019693Y057560D01*
X019706Y057517D01*
X019723Y057476D01*
X019744Y057437D01*
X019767Y057399D01*
X019794Y057363D01*
X019824Y057330D01*
X019857Y057300D01*
X019892Y057273D01*
X019929Y057248D01*
X019969Y057228D01*
X020009Y057210D01*
X020052Y057196D01*
X020095Y057186D01*
X020139Y057180D01*
X020184Y057177D01*
X020228Y057178D01*
X020272Y057183D01*
X020316Y057192D01*
X020316Y056567D01*
X011316Y056567D01*
X011316Y058817D01*
X010566Y057567D02*
X006941Y057567D01*
X006441Y057567D01*
X006441Y055567D01*
X006441Y053567D01*
X006941Y053567D01*
X006941Y055567D01*
X006441Y055567D01*
X006941Y055567D02*
X010566Y055567D01*
X010566Y057567D01*
X010566Y055567D02*
X010566Y053567D01*
X006941Y053567D01*
X006941Y055567D02*
X006941Y057567D01*
X007066Y057942D02*
X007066Y058942D01*
X009066Y058942D01*
X009066Y057942D01*
X007066Y057942D01*
X011316Y054442D02*
X011316Y052192D01*
X020316Y052192D01*
X020316Y052817D01*
X020272Y052808D01*
X020228Y052803D01*
X020184Y052802D01*
X020139Y052805D01*
X020095Y052811D01*
X020052Y052821D01*
X020009Y052835D01*
X019969Y052853D01*
X019929Y052873D01*
X019892Y052898D01*
X019857Y052925D01*
X019824Y052955D01*
X019794Y052988D01*
X019767Y053024D01*
X019744Y053062D01*
X019723Y053101D01*
X019706Y053142D01*
X019693Y053185D01*
X019684Y053228D01*
X019678Y053273D01*
X019676Y053317D01*
X019678Y053361D01*
X019684Y053406D01*
X019693Y053449D01*
X019706Y053492D01*
X019723Y053533D01*
X019744Y053572D01*
X019767Y053610D01*
X019794Y053646D01*
X019824Y053679D01*
X019857Y053709D01*
X019892Y053736D01*
X019929Y053761D01*
X019969Y053781D01*
X020009Y053799D01*
X020052Y053813D01*
X020095Y053823D01*
X020139Y053829D01*
X020184Y053832D01*
X020228Y053831D01*
X020272Y053826D01*
X020316Y053817D01*
X020316Y054442D01*
X011316Y054442D01*
X010816Y049442D02*
X008816Y049442D01*
X008816Y045692D01*
X008816Y044442D01*
X006816Y044442D01*
X006816Y042942D01*
X040316Y042942D01*
X040316Y045692D01*
X039816Y045692D01*
X039816Y044442D01*
X037816Y044442D01*
X037816Y049442D01*
X035816Y049442D01*
X035816Y044442D01*
X037816Y044442D01*
X035816Y044442D02*
X033816Y044442D01*
X033816Y049442D01*
X031816Y049442D01*
X031816Y044442D01*
X033816Y044442D01*
X031816Y044442D02*
X029816Y044442D01*
X029816Y049442D01*
X027816Y049442D01*
X027816Y044442D01*
X029816Y044442D01*
X027816Y044442D02*
X025816Y044442D01*
X025816Y049442D01*
X023816Y049442D01*
X023816Y045692D01*
X023816Y044442D01*
X025816Y044442D01*
X023816Y045692D02*
X039816Y045692D01*
X039816Y049442D01*
X037816Y049442D01*
X038316Y050442D02*
X038314Y050486D01*
X038308Y050529D01*
X038299Y050571D01*
X038286Y050613D01*
X038269Y050653D01*
X038249Y050692D01*
X038226Y050729D01*
X038199Y050763D01*
X038170Y050796D01*
X038137Y050825D01*
X038103Y050852D01*
X038066Y050875D01*
X038027Y050895D01*
X037987Y050912D01*
X037945Y050925D01*
X037903Y050934D01*
X037860Y050940D01*
X037816Y050942D01*
X037772Y050940D01*
X037729Y050934D01*
X037687Y050925D01*
X037645Y050912D01*
X037605Y050895D01*
X037566Y050875D01*
X037529Y050852D01*
X037495Y050825D01*
X037462Y050796D01*
X037433Y050763D01*
X037406Y050729D01*
X037383Y050692D01*
X037363Y050653D01*
X037346Y050613D01*
X037333Y050571D01*
X037324Y050529D01*
X037318Y050486D01*
X037316Y050442D01*
X036816Y050442D01*
X036816Y064442D01*
X038816Y064442D01*
X038816Y050442D01*
X038316Y050442D01*
X040566Y050442D02*
X040566Y051442D01*
X042566Y051442D01*
X042566Y050442D01*
X040566Y050442D01*
X041316Y048692D02*
X042316Y048692D01*
X043066Y048442D02*
X043066Y046442D01*
X042316Y046192D02*
X041316Y046192D01*
X041566Y046192D02*
X042066Y046192D01*
X041066Y047442D02*
X041068Y047496D01*
X041074Y047550D01*
X041084Y047603D01*
X041097Y047656D01*
X041114Y047707D01*
X041135Y047757D01*
X041160Y047805D01*
X041188Y047852D01*
X041219Y047896D01*
X041253Y047938D01*
X041290Y047977D01*
X041330Y048014D01*
X041373Y048047D01*
X041418Y048078D01*
X041465Y048105D01*
X041513Y048128D01*
X041564Y048148D01*
X041615Y048165D01*
X041668Y048177D01*
X041721Y048186D01*
X041775Y048191D01*
X041830Y048192D01*
X041884Y048189D01*
X041937Y048182D01*
X041990Y048171D01*
X042043Y048157D01*
X042094Y048139D01*
X042143Y048117D01*
X042191Y048092D01*
X042237Y048063D01*
X042281Y048031D01*
X042322Y047996D01*
X042360Y047958D01*
X042396Y047917D01*
X042429Y047874D01*
X042459Y047829D01*
X042485Y047781D01*
X042508Y047732D01*
X042527Y047681D01*
X042542Y047630D01*
X042554Y047577D01*
X042562Y047523D01*
X042566Y047469D01*
X042566Y047415D01*
X042562Y047361D01*
X042554Y047307D01*
X042542Y047254D01*
X042527Y047203D01*
X042508Y047152D01*
X042485Y047103D01*
X042459Y047055D01*
X042429Y047010D01*
X042396Y046967D01*
X042360Y046926D01*
X042322Y046888D01*
X042281Y046853D01*
X042237Y046821D01*
X042191Y046792D01*
X042143Y046767D01*
X042094Y046745D01*
X042043Y046727D01*
X041990Y046713D01*
X041937Y046702D01*
X041884Y046695D01*
X041830Y046692D01*
X041775Y046693D01*
X041721Y046698D01*
X041668Y046707D01*
X041615Y046719D01*
X041564Y046736D01*
X041513Y046756D01*
X041465Y046779D01*
X041418Y046806D01*
X041373Y046837D01*
X041330Y046870D01*
X041290Y046907D01*
X041253Y046946D01*
X041219Y046988D01*
X041188Y047032D01*
X041160Y047079D01*
X041135Y047127D01*
X041114Y047177D01*
X041097Y047228D01*
X041084Y047281D01*
X041074Y047334D01*
X041068Y047388D01*
X041066Y047442D01*
X040816Y047442D02*
X040818Y047505D01*
X040824Y047567D01*
X040834Y047629D01*
X040847Y047691D01*
X040865Y047751D01*
X040886Y047810D01*
X040911Y047868D01*
X040940Y047924D01*
X040972Y047978D01*
X041007Y048030D01*
X041045Y048079D01*
X041087Y048127D01*
X041131Y048171D01*
X041179Y048213D01*
X041228Y048251D01*
X041280Y048286D01*
X041334Y048318D01*
X041390Y048347D01*
X041448Y048372D01*
X041507Y048393D01*
X041567Y048411D01*
X041629Y048424D01*
X041691Y048434D01*
X041753Y048440D01*
X041816Y048442D01*
X041879Y048440D01*
X041941Y048434D01*
X042003Y048424D01*
X042065Y048411D01*
X042125Y048393D01*
X042184Y048372D01*
X042242Y048347D01*
X042298Y048318D01*
X042352Y048286D01*
X042404Y048251D01*
X042453Y048213D01*
X042501Y048171D01*
X042545Y048127D01*
X042587Y048079D01*
X042625Y048030D01*
X042660Y047978D01*
X042692Y047924D01*
X042721Y047868D01*
X042746Y047810D01*
X042767Y047751D01*
X042785Y047691D01*
X042798Y047629D01*
X042808Y047567D01*
X042814Y047505D01*
X042816Y047442D01*
X042814Y047379D01*
X042808Y047317D01*
X042798Y047255D01*
X042785Y047193D01*
X042767Y047133D01*
X042746Y047074D01*
X042721Y047016D01*
X042692Y046960D01*
X042660Y046906D01*
X042625Y046854D01*
X042587Y046805D01*
X042545Y046757D01*
X042501Y046713D01*
X042453Y046671D01*
X042404Y046633D01*
X042352Y046598D01*
X042298Y046566D01*
X042242Y046537D01*
X042184Y046512D01*
X042125Y046491D01*
X042065Y046473D01*
X042003Y046460D01*
X041941Y046450D01*
X041879Y046444D01*
X041816Y046442D01*
X041753Y046444D01*
X041691Y046450D01*
X041629Y046460D01*
X041567Y046473D01*
X041507Y046491D01*
X041448Y046512D01*
X041390Y046537D01*
X041334Y046566D01*
X041280Y046598D01*
X041228Y046633D01*
X041179Y046671D01*
X041131Y046713D01*
X041087Y046757D01*
X041045Y046805D01*
X041007Y046854D01*
X040972Y046906D01*
X040940Y046960D01*
X040911Y047016D01*
X040886Y047074D01*
X040865Y047133D01*
X040847Y047193D01*
X040834Y047255D01*
X040824Y047317D01*
X040818Y047379D01*
X040816Y047442D01*
X040566Y048192D02*
X040566Y046692D01*
X040566Y046442D02*
X040566Y048442D01*
X040816Y054942D02*
X040816Y055942D01*
X042816Y055942D01*
X042816Y054942D01*
X040816Y054942D01*
X040941Y057942D02*
X040941Y058067D01*
X040941Y060817D01*
X040947Y060875D01*
X040957Y060931D01*
X040970Y060987D01*
X040987Y061042D01*
X041008Y061095D01*
X041032Y061147D01*
X041059Y061198D01*
X041090Y061246D01*
X041123Y061293D01*
X041160Y061337D01*
X041200Y061379D01*
X041242Y061418D01*
X041286Y061454D01*
X041333Y061487D01*
X041382Y061517D01*
X041433Y061544D01*
X041485Y061567D01*
X041539Y061587D01*
X041594Y061603D01*
X041650Y061616D01*
X041707Y061625D01*
X041764Y061630D01*
X041821Y061632D01*
X041878Y061630D01*
X041936Y061624D01*
X041992Y061614D01*
X042048Y061601D01*
X042103Y061584D01*
X042156Y061563D01*
X042208Y061539D01*
X042259Y061512D01*
X042307Y061481D01*
X042354Y061448D01*
X042398Y061411D01*
X042440Y061371D01*
X042479Y061329D01*
X042515Y061285D01*
X042548Y061238D01*
X042578Y061189D01*
X042605Y061138D01*
X042628Y061086D01*
X042648Y061032D01*
X042664Y060977D01*
X042677Y060921D01*
X042686Y060864D01*
X042691Y060807D01*
X042693Y060750D01*
X042691Y060693D01*
X042691Y060692D02*
X042691Y057942D01*
X042691Y057943D02*
X042685Y057885D01*
X042675Y057829D01*
X042662Y057773D01*
X042645Y057718D01*
X042624Y057665D01*
X042600Y057613D01*
X042573Y057562D01*
X042542Y057514D01*
X042509Y057467D01*
X042472Y057423D01*
X042432Y057381D01*
X042390Y057342D01*
X042346Y057306D01*
X042299Y057273D01*
X042250Y057243D01*
X042199Y057216D01*
X042147Y057193D01*
X042093Y057173D01*
X042038Y057157D01*
X041982Y057144D01*
X041925Y057135D01*
X041868Y057130D01*
X041811Y057128D01*
X041754Y057130D01*
X041696Y057136D01*
X041640Y057146D01*
X041584Y057159D01*
X041529Y057176D01*
X041476Y057197D01*
X041424Y057221D01*
X041373Y057248D01*
X041325Y057279D01*
X041278Y057312D01*
X041234Y057349D01*
X041192Y057389D01*
X041153Y057431D01*
X041117Y057475D01*
X041084Y057522D01*
X041054Y057571D01*
X041027Y057622D01*
X041004Y057674D01*
X040984Y057728D01*
X040968Y057783D01*
X040955Y057839D01*
X040946Y057896D01*
X040941Y057953D01*
X040939Y058010D01*
X040941Y058067D01*
X042691Y060692D02*
X042691Y060817D01*
X042816Y062942D02*
X042816Y063942D01*
X040816Y063942D01*
X040816Y062942D01*
X042816Y062942D01*
X040066Y064692D02*
X040066Y067192D01*
X034066Y067192D01*
X034066Y064692D01*
X040066Y064692D01*
X034816Y063317D02*
X034816Y062692D01*
X034772Y062701D01*
X034728Y062706D01*
X034684Y062707D01*
X034639Y062704D01*
X034595Y062698D01*
X034552Y062688D01*
X034509Y062674D01*
X034469Y062656D01*
X034429Y062636D01*
X034392Y062611D01*
X034357Y062584D01*
X034324Y062554D01*
X034294Y062521D01*
X034267Y062485D01*
X034244Y062447D01*
X034223Y062408D01*
X034206Y062367D01*
X034193Y062324D01*
X034184Y062281D01*
X034178Y062236D01*
X034176Y062192D01*
X034178Y062148D01*
X034184Y062103D01*
X034193Y062060D01*
X034206Y062017D01*
X034223Y061976D01*
X034244Y061937D01*
X034267Y061899D01*
X034294Y061863D01*
X034324Y061830D01*
X034357Y061800D01*
X034392Y061773D01*
X034429Y061748D01*
X034469Y061728D01*
X034509Y061710D01*
X034552Y061696D01*
X034595Y061686D01*
X034639Y061680D01*
X034684Y061677D01*
X034728Y061678D01*
X034772Y061683D01*
X034816Y061692D01*
X034816Y061067D01*
X022941Y061067D01*
X022941Y063317D01*
X034816Y063317D01*
X034816Y061692D02*
X034691Y061692D01*
X035441Y056442D02*
X033316Y056442D01*
X033316Y052442D01*
X035441Y052442D01*
X035441Y056442D01*
X035816Y049442D02*
X033816Y049442D01*
X031816Y049442D02*
X029816Y049442D01*
X027816Y049442D02*
X025816Y049442D01*
X023816Y045692D02*
X020816Y045692D01*
X020816Y044442D01*
X018816Y044442D01*
X018816Y045692D01*
X018816Y049442D01*
X020816Y049442D01*
X020816Y045692D01*
X018816Y045692D01*
X016816Y045692D01*
X016816Y044442D01*
X014816Y044442D01*
X014816Y045692D01*
X014816Y049442D01*
X016816Y049442D01*
X016816Y045692D01*
X014816Y045692D01*
X012816Y045692D01*
X012816Y044442D01*
X010816Y044442D01*
X010816Y045692D01*
X010816Y049442D01*
X012816Y049442D01*
X012816Y045692D01*
X010816Y045692D01*
X008816Y045692D01*
X006816Y045692D01*
X006816Y044442D02*
X006816Y049442D01*
X008816Y049442D01*
X008816Y044442D02*
X010816Y044442D01*
X012816Y044442D02*
X014816Y044442D01*
X016816Y044442D02*
X018816Y044442D01*
X020816Y044442D02*
X022816Y044442D01*
X022816Y049442D01*
X020816Y049442D01*
X018816Y049442D02*
X016816Y049442D01*
X014816Y049442D02*
X012816Y049442D01*
X020316Y057192D02*
X020272Y057183D01*
X020228Y057178D01*
X020184Y057177D01*
X020139Y057180D01*
X020095Y057186D01*
X020052Y057196D01*
X020009Y057210D01*
X019969Y057228D01*
X019929Y057248D01*
X019892Y057273D01*
X019857Y057300D01*
X019824Y057330D01*
X019794Y057363D01*
X019767Y057399D01*
X019744Y057437D01*
X019723Y057476D01*
X019706Y057517D01*
X019693Y057560D01*
X019684Y057603D01*
X019678Y057648D01*
X019676Y057692D01*
X019678Y057736D01*
X019684Y057781D01*
X019693Y057824D01*
X019706Y057867D01*
X019723Y057908D01*
X019744Y057947D01*
X019767Y057985D01*
X019794Y058021D01*
X019824Y058054D01*
X019857Y058084D01*
X019892Y058111D01*
X019929Y058136D01*
X019969Y058156D01*
X020009Y058174D01*
X020052Y058188D01*
X020095Y058198D01*
X020139Y058204D01*
X020184Y058207D01*
X020228Y058206D01*
X020272Y058201D01*
X020316Y058192D01*
X021816Y057942D02*
X021816Y055942D01*
X022816Y055942D01*
X022816Y057942D01*
X021816Y057942D01*
X021316Y054692D02*
X021316Y052442D01*
X030316Y052442D01*
X030316Y053192D01*
X030278Y053182D01*
X030239Y053175D01*
X030200Y053172D01*
X030161Y053173D01*
X030122Y053178D01*
X030083Y053187D01*
X030046Y053200D01*
X030010Y053216D01*
X029976Y053235D01*
X029944Y053258D01*
X029915Y053285D01*
X029888Y053313D01*
X029864Y053345D01*
X029844Y053378D01*
X029827Y053414D01*
X029814Y053451D01*
X029804Y053489D01*
X029798Y053528D01*
X029796Y053567D01*
X029798Y053606D01*
X029804Y053645D01*
X029814Y053683D01*
X029827Y053720D01*
X029844Y053756D01*
X029864Y053789D01*
X029888Y053821D01*
X029915Y053849D01*
X029944Y053876D01*
X029976Y053899D01*
X030010Y053918D01*
X030046Y053934D01*
X030083Y053947D01*
X030122Y053956D01*
X030161Y053961D01*
X030200Y053962D01*
X030239Y053959D01*
X030278Y053952D01*
X030316Y053942D01*
X030316Y054692D01*
X021316Y054692D01*
X028066Y056442D02*
X030566Y056442D01*
X030566Y057442D01*
X028066Y057442D01*
X028066Y056442D01*
D12*
X022813Y058267D02*
X022572Y058267D01*
X022753Y058447D01*
X022753Y058087D01*
X022444Y058147D02*
X022384Y058087D01*
X022264Y058087D01*
X022204Y058147D01*
X022444Y058387D01*
X022444Y058147D01*
X022204Y058147D02*
X022204Y058387D01*
X022264Y058447D01*
X022384Y058447D01*
X022444Y058387D01*
X022076Y058087D02*
X021836Y058087D01*
X021956Y058087D02*
X021956Y058447D01*
X021836Y058327D01*
X009546Y052182D02*
X009306Y052182D01*
X009546Y052182D02*
X009546Y052002D01*
X009486Y051942D01*
X009306Y051942D01*
X009245Y051814D02*
X009486Y051574D01*
X009546Y051634D01*
X009546Y051754D01*
X009486Y051814D01*
X009245Y051814D01*
X009185Y051754D01*
X009185Y051634D01*
X009245Y051574D01*
X009486Y051574D01*
X009486Y051446D02*
X009546Y051386D01*
X009546Y051266D01*
X009486Y051205D01*
X009245Y051446D01*
X009486Y051446D01*
X009245Y051446D02*
X009185Y051386D01*
X009185Y051266D01*
X009245Y051205D01*
X009486Y051205D01*
X009546Y051077D02*
X009546Y050837D01*
X009546Y050957D02*
X009185Y050957D01*
X009306Y050837D01*
X006921Y057962D02*
X006921Y058202D01*
X006921Y058082D02*
X006560Y058082D01*
X006681Y057962D01*
X006620Y058330D02*
X006560Y058391D01*
X006560Y058511D01*
X006620Y058571D01*
X006861Y058330D01*
X006921Y058391D01*
X006921Y058511D01*
X006861Y058571D01*
X006620Y058571D01*
X006741Y058699D02*
X006741Y058939D01*
X006921Y058879D02*
X006560Y058879D01*
X006741Y058699D01*
X006861Y058330D02*
X006620Y058330D01*
X034310Y066087D02*
X034551Y066087D01*
X034671Y066207D01*
X034551Y066327D01*
X034310Y066327D01*
X034370Y066455D02*
X034611Y066455D01*
X034671Y066516D01*
X034671Y066636D01*
X034611Y066696D01*
X034611Y066824D02*
X034671Y066884D01*
X034671Y067004D01*
X034611Y067064D01*
X034611Y066824D02*
X034370Y066824D01*
X034310Y066884D01*
X034310Y067004D01*
X034370Y067064D01*
X034370Y066696D02*
X034310Y066636D01*
X034310Y066516D01*
X034370Y066455D01*
X035310Y066455D02*
X035671Y066696D01*
X035310Y066696D01*
X035310Y066824D02*
X035310Y067004D01*
X035370Y067064D01*
X035611Y067064D01*
X035671Y067004D01*
X035671Y066824D01*
X035310Y066824D01*
X035310Y066455D02*
X035671Y066455D01*
X035611Y066327D02*
X035491Y066327D01*
X035491Y066207D01*
X035611Y066087D02*
X035370Y066087D01*
X035310Y066147D01*
X035310Y066267D01*
X035370Y066327D01*
X035611Y066327D02*
X035671Y066267D01*
X035671Y066147D01*
X035611Y066087D01*
X036310Y066147D02*
X036370Y066087D01*
X036431Y066087D01*
X036491Y066147D01*
X036491Y066267D01*
X036551Y066327D01*
X036611Y066327D01*
X036671Y066267D01*
X036671Y066147D01*
X036611Y066087D01*
X036310Y066147D02*
X036310Y066267D01*
X036370Y066327D01*
X036370Y066455D02*
X036611Y066455D01*
X036671Y066516D01*
X036671Y066636D01*
X036611Y066696D01*
X036671Y066824D02*
X036310Y066824D01*
X036370Y066696D02*
X036310Y066636D01*
X036310Y066516D01*
X036370Y066455D01*
X036551Y066824D02*
X036310Y067064D01*
X036491Y066884D02*
X036671Y067064D01*
X037310Y066576D02*
X037310Y066455D01*
X037310Y066516D02*
X037671Y066516D01*
X037671Y066576D02*
X037671Y066455D01*
X037611Y066327D02*
X037370Y066327D01*
X037310Y066267D01*
X037310Y066087D01*
X037671Y066087D01*
X037671Y066267D01*
X037611Y066327D01*
X038310Y066267D02*
X038310Y066087D01*
X038671Y066087D01*
X038671Y066267D01*
X038611Y066327D01*
X038370Y066327D01*
X038310Y066267D01*
X038370Y066455D02*
X038611Y066455D01*
X038671Y066516D01*
X038671Y066636D01*
X038611Y066696D01*
X038370Y066696D01*
X038310Y066636D01*
X038310Y066516D01*
X038370Y066455D01*
X039310Y066516D02*
X039370Y066455D01*
X039431Y066455D01*
X039491Y066516D01*
X039491Y066636D01*
X039551Y066696D01*
X039611Y066696D01*
X039671Y066636D01*
X039671Y066516D01*
X039611Y066455D01*
X039611Y066327D02*
X039671Y066267D01*
X039671Y066147D01*
X039611Y066087D01*
X039370Y066087D01*
X039310Y066147D01*
X039310Y066267D01*
X039370Y066327D01*
X039310Y066516D02*
X039310Y066636D01*
X039370Y066696D01*
X040896Y062697D02*
X040836Y062637D01*
X040896Y062697D02*
X041016Y062697D01*
X041076Y062637D01*
X041076Y062577D01*
X040836Y062337D01*
X041076Y062337D01*
X041204Y062337D02*
X041444Y062577D01*
X041444Y062637D01*
X041384Y062697D01*
X041264Y062697D01*
X041204Y062637D01*
X041204Y062337D02*
X041444Y062337D01*
X041572Y062337D02*
X041572Y062697D01*
X041753Y062697D01*
X041813Y062637D01*
X041813Y062517D01*
X041753Y062457D01*
X041572Y062457D01*
X040546Y059926D02*
X040546Y059685D01*
X040486Y059685D01*
X040245Y059926D01*
X040185Y059926D01*
X040185Y059685D01*
X040185Y059557D02*
X040546Y059557D01*
X040366Y059557D02*
X040366Y059317D01*
X040546Y059317D02*
X040185Y059317D01*
X040185Y059189D02*
X040546Y059189D01*
X040546Y058949D02*
X040185Y058949D01*
X040306Y059069D01*
X040185Y059189D01*
X040185Y058821D02*
X040245Y058701D01*
X040366Y058580D01*
X040366Y058761D01*
X040426Y058821D01*
X040486Y058821D01*
X040546Y058761D01*
X040546Y058641D01*
X040486Y058580D01*
X040366Y058580D01*
X040546Y058452D02*
X040546Y058212D01*
X040546Y058332D02*
X040185Y058332D01*
X040306Y058212D01*
X040896Y054697D02*
X040836Y054637D01*
X040896Y054697D02*
X041016Y054697D01*
X041076Y054637D01*
X041076Y054577D01*
X040836Y054337D01*
X041076Y054337D01*
X041204Y054337D02*
X041444Y054577D01*
X041444Y054637D01*
X041384Y054697D01*
X041264Y054697D01*
X041204Y054637D01*
X041204Y054337D02*
X041444Y054337D01*
X041572Y054337D02*
X041572Y054697D01*
X041753Y054697D01*
X041813Y054637D01*
X041813Y054517D01*
X041753Y054457D01*
X041572Y054457D01*
X041572Y051947D02*
X041572Y051587D01*
X041572Y051707D02*
X041813Y051947D01*
X041632Y051767D02*
X041813Y051587D01*
X041444Y051647D02*
X041384Y051587D01*
X041264Y051587D01*
X041204Y051647D01*
X041444Y051887D01*
X041444Y051647D01*
X041204Y051647D02*
X041204Y051887D01*
X041264Y051947D01*
X041384Y051947D01*
X041444Y051887D01*
X041076Y051587D02*
X040836Y051587D01*
X040956Y051587D02*
X040956Y051947D01*
X040836Y051827D01*
D13*
X038151Y051732D02*
X037737Y051732D01*
X037530Y051939D01*
X037737Y052146D01*
X038151Y052146D01*
X037840Y052146D02*
X037840Y051732D01*
X037530Y052377D02*
X037530Y052790D01*
X037530Y052584D02*
X038151Y052584D01*
X038151Y053021D02*
X037530Y053021D01*
X037737Y053228D01*
X037530Y053435D01*
X038151Y053435D01*
X038151Y053666D02*
X038151Y054080D01*
X038047Y054310D02*
X038151Y054414D01*
X038151Y054621D01*
X038047Y054724D01*
X037840Y054724D01*
X037840Y054517D01*
X037634Y054310D02*
X037530Y054414D01*
X037530Y054621D01*
X037634Y054724D01*
X037737Y054955D02*
X037530Y055162D01*
X037737Y055369D01*
X038151Y055369D01*
X038047Y055599D02*
X038151Y055703D01*
X038151Y055910D01*
X038047Y056013D01*
X037944Y056013D01*
X037840Y055910D01*
X037840Y055806D01*
X037840Y055910D02*
X037737Y056013D01*
X037634Y056013D01*
X037530Y055910D01*
X037530Y055703D01*
X037634Y055599D01*
X037840Y055369D02*
X037840Y054955D01*
X037737Y054955D02*
X038151Y054955D01*
X038047Y054310D02*
X037634Y054310D01*
X037530Y054080D02*
X037530Y053666D01*
X038151Y053666D01*
X037840Y053666D02*
X037840Y053873D01*
X037634Y056244D02*
X037530Y056347D01*
X037530Y056554D01*
X037634Y056658D01*
X037737Y056658D01*
X038151Y056244D01*
X038151Y056658D01*
X038047Y056889D02*
X037944Y056889D01*
X037840Y056992D01*
X037840Y057199D01*
X037944Y057302D01*
X038047Y057302D01*
X038151Y057199D01*
X038151Y056992D01*
X038047Y056889D01*
X037840Y056992D02*
X037737Y056889D01*
X037634Y056889D01*
X037530Y056992D01*
X037530Y057199D01*
X037634Y057302D01*
X037737Y057302D01*
X037840Y057199D01*
X037944Y057533D02*
X037944Y057843D01*
X037840Y057947D01*
X037634Y057947D01*
X037530Y057843D01*
X037530Y057533D01*
X038151Y057533D01*
X032012Y061961D02*
X032012Y062374D01*
X031908Y062478D01*
X031701Y062478D01*
X031598Y062374D01*
X031598Y062271D01*
X031701Y062167D01*
X032012Y062167D01*
X032012Y061961D02*
X031908Y061857D01*
X031701Y061857D01*
X031598Y061961D01*
X031367Y061857D02*
X030953Y061857D01*
X031160Y061857D02*
X031160Y062478D01*
X030953Y062271D01*
X030723Y062271D02*
X030309Y061857D01*
X030723Y061857D01*
X030723Y062271D02*
X030723Y062374D01*
X030619Y062478D01*
X030412Y062478D01*
X030309Y062374D01*
X030078Y062374D02*
X029664Y061961D01*
X029664Y061857D01*
X029434Y061857D02*
X029020Y062478D01*
X028789Y062271D02*
X028789Y061857D01*
X029020Y061857D02*
X029434Y062478D01*
X029664Y062478D02*
X030078Y062478D01*
X030078Y062374D01*
X028789Y062271D02*
X028582Y062478D01*
X028375Y062271D01*
X028375Y061857D01*
X028144Y061857D02*
X028144Y062478D01*
X027938Y062271D01*
X027731Y062478D01*
X027731Y061857D01*
X028375Y062167D02*
X028789Y062167D01*
X028764Y057228D02*
X028660Y057124D01*
X028660Y057021D01*
X028764Y056917D01*
X028971Y056917D01*
X029074Y056814D01*
X029074Y056711D01*
X028971Y056607D01*
X028764Y056607D01*
X028660Y056711D01*
X028438Y056607D02*
X028231Y056607D01*
X028334Y056607D02*
X028334Y057228D01*
X028231Y057228D02*
X028438Y057228D01*
X028764Y057228D02*
X028971Y057228D01*
X029074Y057124D01*
X029305Y057228D02*
X029305Y056607D01*
X029719Y056607D01*
X029512Y056917D02*
X029305Y056917D01*
X029305Y057228D02*
X029719Y057228D01*
X029950Y057228D02*
X030363Y057228D01*
X030156Y057228D02*
X030156Y056607D01*
X029180Y053853D02*
X029180Y053232D01*
X028973Y053232D02*
X029387Y053232D01*
X028973Y053646D02*
X029180Y053853D01*
X028742Y053749D02*
X028742Y053646D01*
X028639Y053542D01*
X028432Y053542D01*
X028328Y053646D01*
X028328Y053749D01*
X028432Y053853D01*
X028639Y053853D01*
X028742Y053749D01*
X028639Y053542D02*
X028742Y053439D01*
X028742Y053336D01*
X028639Y053232D01*
X028432Y053232D01*
X028328Y053336D01*
X028328Y053439D01*
X028432Y053542D01*
X028098Y053542D02*
X027787Y053542D01*
X027684Y053646D01*
X027684Y053749D01*
X027787Y053853D01*
X027994Y053853D01*
X028098Y053749D01*
X028098Y053336D01*
X027994Y053232D01*
X027787Y053232D01*
X027684Y053336D01*
X027453Y053232D02*
X027039Y053232D01*
X027453Y053646D01*
X027453Y053749D01*
X027350Y053853D01*
X027143Y053853D01*
X027039Y053749D01*
X026809Y053853D02*
X026809Y053232D01*
X026395Y053853D01*
X026395Y053232D01*
X026164Y053336D02*
X026164Y053749D01*
X026061Y053853D01*
X025750Y053853D01*
X025750Y053232D01*
X026061Y053232D01*
X026164Y053336D01*
X025519Y053336D02*
X025519Y053853D01*
X025106Y053853D02*
X025106Y053336D01*
X025209Y053232D01*
X025416Y053232D01*
X025519Y053336D01*
X020033Y061857D02*
X019826Y061857D01*
X019723Y061961D01*
X020137Y062374D01*
X020137Y061961D01*
X020033Y061857D01*
X019723Y061961D02*
X019723Y062374D01*
X019826Y062478D01*
X020033Y062478D01*
X020137Y062374D01*
X019492Y062167D02*
X019078Y062167D01*
X019389Y062478D01*
X019389Y061857D01*
X018848Y061961D02*
X018744Y061857D01*
X018537Y061857D01*
X018434Y061961D01*
X018434Y062167D02*
X018641Y062271D01*
X018744Y062271D01*
X018848Y062167D01*
X018848Y061961D01*
X018434Y062167D02*
X018434Y062478D01*
X018848Y062478D01*
X018203Y062374D02*
X018100Y062478D01*
X017893Y062478D01*
X017789Y062374D01*
X017789Y061961D01*
X017893Y061857D01*
X018100Y061857D01*
X018203Y061961D01*
X017559Y061857D02*
X017559Y062478D01*
X017559Y062167D02*
X017145Y062167D01*
X016914Y062167D02*
X016500Y062167D01*
X016811Y062478D01*
X016811Y061857D01*
X017145Y061857D02*
X017145Y062478D01*
X016269Y062478D02*
X016269Y062374D01*
X015856Y061961D01*
X015856Y061857D01*
X015856Y062478D02*
X016269Y062478D01*
X016145Y057978D02*
X016559Y057357D01*
X016559Y057978D01*
X016789Y057874D02*
X016893Y057978D01*
X017100Y057978D01*
X017203Y057874D01*
X017203Y057771D01*
X016789Y057357D01*
X017203Y057357D01*
X017434Y057461D02*
X017434Y057564D01*
X017537Y057667D01*
X017744Y057667D01*
X017848Y057564D01*
X017848Y057461D01*
X017744Y057357D01*
X017537Y057357D01*
X017434Y057461D01*
X017537Y057667D02*
X017434Y057771D01*
X017434Y057874D01*
X017537Y057978D01*
X017744Y057978D01*
X017848Y057874D01*
X017848Y057771D01*
X017744Y057667D01*
X018078Y057461D02*
X018492Y057874D01*
X018492Y057461D01*
X018389Y057357D01*
X018182Y057357D01*
X018078Y057461D01*
X018078Y057874D01*
X018182Y057978D01*
X018389Y057978D01*
X018492Y057874D01*
X018723Y057874D02*
X018826Y057978D01*
X019033Y057978D01*
X019137Y057874D01*
X019137Y057771D01*
X019033Y057667D01*
X019137Y057564D01*
X019137Y057461D01*
X019033Y057357D01*
X018826Y057357D01*
X018723Y057461D01*
X018930Y057667D02*
X019033Y057667D01*
X016145Y057357D02*
X016145Y057978D01*
X015914Y057357D02*
X015500Y057357D01*
X015500Y057978D01*
X015269Y057978D02*
X015269Y057461D01*
X015166Y057357D01*
X014959Y057357D01*
X014856Y057461D01*
X014856Y057978D01*
X014731Y053603D02*
X014731Y053086D01*
X014834Y052982D01*
X015041Y052982D01*
X015144Y053086D01*
X015144Y053603D01*
X015375Y053603D02*
X015375Y052982D01*
X015789Y052982D01*
X016020Y052982D02*
X016020Y053603D01*
X016434Y052982D01*
X016434Y053603D01*
X016664Y053499D02*
X016768Y053603D01*
X016975Y053603D01*
X017078Y053499D01*
X017078Y053396D01*
X016664Y052982D01*
X017078Y052982D01*
X017309Y053086D02*
X017309Y053189D01*
X017412Y053292D01*
X017619Y053292D01*
X017723Y053189D01*
X017723Y053086D01*
X017619Y052982D01*
X017412Y052982D01*
X017309Y053086D01*
X017412Y053292D02*
X017309Y053396D01*
X017309Y053499D01*
X017412Y053603D01*
X017619Y053603D01*
X017723Y053499D01*
X017723Y053396D01*
X017619Y053292D01*
X017953Y053086D02*
X018367Y053499D01*
X018367Y053086D01*
X018264Y052982D01*
X018057Y052982D01*
X017953Y053086D01*
X017953Y053499D01*
X018057Y053603D01*
X018264Y053603D01*
X018367Y053499D01*
X018598Y053499D02*
X018701Y053603D01*
X018908Y053603D01*
X019012Y053499D01*
X019012Y053396D01*
X018908Y053292D01*
X019012Y053189D01*
X019012Y053086D01*
X018908Y052982D01*
X018701Y052982D01*
X018598Y053086D01*
X018805Y053292D02*
X018908Y053292D01*
X008144Y052417D02*
X007731Y052417D01*
X007938Y052624D02*
X007938Y052211D01*
X006938Y053086D02*
X006938Y053499D01*
X006731Y053292D02*
X007144Y053292D01*
D14*
X011057Y066592D02*
X010940Y066709D01*
X011291Y066709D01*
X011291Y066592D02*
X011291Y066826D01*
X011291Y066960D02*
X011291Y067194D01*
X011291Y067077D02*
X010940Y067077D01*
X011057Y066960D01*
X011057Y067329D02*
X010940Y067446D01*
X011291Y067446D01*
X011291Y067562D02*
X011291Y067329D01*
X011291Y067697D02*
X011232Y067697D01*
X010999Y067931D01*
X010940Y067931D01*
X010940Y067697D01*
X011116Y068065D02*
X011116Y068299D01*
X011232Y068434D02*
X011291Y068492D01*
X011291Y068609D01*
X011232Y068667D01*
X011174Y068667D01*
X011116Y068609D01*
X011116Y068551D01*
X011116Y068609D02*
X011057Y068667D01*
X010999Y068667D01*
X010940Y068609D01*
X010940Y068492D01*
X010999Y068434D01*
X011232Y068802D02*
X011232Y068860D01*
X011291Y068860D01*
X011291Y068802D01*
X011232Y068802D01*
X011232Y068986D02*
X011291Y069045D01*
X011291Y069161D01*
X011232Y069220D01*
X011174Y069220D01*
X011116Y069161D01*
X011116Y069103D01*
X011116Y069161D02*
X011057Y069220D01*
X010999Y069220D01*
X010940Y069161D01*
X010940Y069045D01*
X010999Y068986D01*
X010947Y071192D02*
X010947Y071542D01*
X011005Y071367D02*
X011180Y071192D01*
X011315Y071192D02*
X011315Y071542D01*
X011549Y071542D01*
X011683Y071542D02*
X011683Y071484D01*
X011800Y071367D01*
X011800Y071192D01*
X011800Y071367D02*
X011917Y071484D01*
X011917Y071542D01*
X012052Y071367D02*
X012285Y071367D01*
X012420Y071251D02*
X012478Y071192D01*
X012595Y071192D01*
X012653Y071251D01*
X012653Y071309D01*
X012595Y071367D01*
X012537Y071367D01*
X012595Y071367D02*
X012653Y071426D01*
X012653Y071484D01*
X012595Y071542D01*
X012478Y071542D01*
X012420Y071484D01*
X012788Y071251D02*
X012847Y071251D01*
X012847Y071192D01*
X012788Y071192D01*
X012788Y071251D01*
X012972Y071251D02*
X013031Y071192D01*
X013148Y071192D01*
X013206Y071251D01*
X013206Y071309D01*
X013148Y071367D01*
X013089Y071367D01*
X013148Y071367D02*
X013206Y071426D01*
X013206Y071484D01*
X013148Y071542D01*
X013031Y071542D01*
X012972Y071484D01*
X011549Y071192D02*
X011315Y071192D01*
X011315Y071367D02*
X011432Y071367D01*
X011180Y071542D02*
X010947Y071309D01*
X010812Y071367D02*
X010578Y071367D01*
X010444Y071542D02*
X010210Y071542D01*
X010327Y071542D02*
X010327Y071192D01*
X010075Y071251D02*
X010017Y071192D01*
X009842Y071192D01*
X009842Y071542D01*
X010017Y071542D01*
X010075Y071484D01*
X010075Y071426D01*
X010017Y071367D01*
X009842Y071367D01*
X010017Y071367D02*
X010075Y071309D01*
X010075Y071251D01*
X015565Y071164D02*
X015916Y071164D01*
X015741Y071164D02*
X015741Y071397D01*
X015916Y071397D02*
X015565Y071397D01*
X015565Y071029D02*
X015565Y070795D01*
X015565Y070912D02*
X015916Y070912D01*
X015857Y070661D02*
X015624Y070661D01*
X015565Y070602D01*
X015565Y070485D01*
X015624Y070427D01*
X015857Y070427D01*
X015916Y070485D01*
X015916Y070602D01*
X015857Y070661D01*
X015857Y070292D02*
X015624Y070292D01*
X015565Y070234D01*
X015565Y070117D01*
X015624Y070059D01*
X015857Y070059D01*
X015916Y070117D01*
X015916Y070234D01*
X015857Y070292D01*
X015565Y069924D02*
X015565Y069690D01*
X015565Y069807D02*
X015916Y069807D01*
X015916Y069556D02*
X015916Y069322D01*
X015565Y069322D01*
X015565Y069556D01*
X015741Y069439D02*
X015741Y069322D01*
X015857Y069187D02*
X015565Y069187D01*
X015565Y068954D02*
X015857Y068954D01*
X015916Y069012D01*
X015916Y069129D01*
X015857Y069187D01*
X015916Y068819D02*
X015916Y068585D01*
X015565Y068585D01*
X015624Y068451D02*
X015565Y068392D01*
X015565Y068217D01*
X015916Y068217D01*
X015916Y068392D01*
X015857Y068451D01*
X015799Y068451D01*
X015741Y068392D01*
X015741Y068217D01*
X015741Y068392D02*
X015682Y068451D01*
X015624Y068451D01*
X030690Y068584D02*
X031041Y068584D01*
X031041Y068467D02*
X031041Y068701D01*
X030982Y068835D02*
X030749Y069069D01*
X030982Y069069D01*
X031041Y069011D01*
X031041Y068894D01*
X030982Y068835D01*
X030749Y068835D01*
X030690Y068894D01*
X030690Y069011D01*
X030749Y069069D01*
X030690Y069204D02*
X031041Y069204D01*
X030924Y069204D02*
X030690Y069437D01*
X030866Y069262D02*
X031041Y069437D01*
X030690Y068584D02*
X030807Y068467D01*
X032690Y068459D02*
X033041Y068459D01*
X033041Y068342D02*
X033041Y068576D01*
X032982Y068710D02*
X033041Y068769D01*
X033041Y068886D01*
X032982Y068944D01*
X032866Y068944D01*
X032807Y068886D01*
X032807Y068827D01*
X032866Y068710D01*
X032690Y068710D01*
X032690Y068944D01*
X032690Y069079D02*
X033041Y069079D01*
X032924Y069079D02*
X032690Y069312D01*
X032866Y069137D02*
X033041Y069312D01*
X032690Y068459D02*
X032807Y068342D01*
X034815Y068459D02*
X035166Y068459D01*
X035166Y068342D02*
X035166Y068576D01*
X035107Y068710D02*
X035166Y068769D01*
X035166Y068886D01*
X035107Y068944D01*
X034991Y068944D01*
X034932Y068886D01*
X034932Y068827D01*
X034991Y068710D01*
X034815Y068710D01*
X034815Y068944D01*
X034815Y069079D02*
X035166Y069079D01*
X035049Y069079D02*
X034815Y069312D01*
X034991Y069137D02*
X035166Y069312D01*
X034815Y068459D02*
X034932Y068342D01*
X036940Y068459D02*
X037291Y068459D01*
X037291Y068342D02*
X037291Y068576D01*
X037232Y068710D02*
X036999Y068944D01*
X037232Y068944D01*
X037291Y068886D01*
X037291Y068769D01*
X037232Y068710D01*
X036999Y068710D01*
X036940Y068769D01*
X036940Y068886D01*
X036999Y068944D01*
X036940Y069079D02*
X037291Y069079D01*
X037174Y069079D02*
X036940Y069312D01*
X037116Y069137D02*
X037291Y069312D01*
X036940Y068459D02*
X037057Y068342D01*
X036416Y071592D02*
X036416Y071826D01*
X036416Y071709D02*
X036065Y071709D01*
X036182Y071592D01*
X036124Y071960D02*
X036065Y072019D01*
X036065Y072136D01*
X036124Y072194D01*
X036357Y071960D01*
X036416Y072019D01*
X036416Y072136D01*
X036357Y072194D01*
X036124Y072194D01*
X036241Y072329D02*
X036241Y072562D01*
X036416Y072504D02*
X036065Y072504D01*
X036241Y072329D01*
X036357Y071960D02*
X036124Y071960D01*
X039065Y069622D02*
X039124Y069681D01*
X039241Y069681D01*
X039299Y069622D01*
X039299Y069447D01*
X039416Y069447D02*
X039065Y069447D01*
X039065Y069622D01*
X039299Y069564D02*
X039416Y069681D01*
X039241Y069312D02*
X039241Y069079D01*
X039357Y068944D02*
X039416Y068886D01*
X039416Y068769D01*
X039357Y068710D01*
X039124Y068944D01*
X039357Y068944D01*
X039124Y068944D02*
X039065Y068886D01*
X039065Y068769D01*
X039124Y068710D01*
X039357Y068710D01*
X039416Y068576D02*
X039416Y068342D01*
X039416Y068459D02*
X039065Y068459D01*
X039182Y068342D01*
D15*
X039566Y068067D02*
X039566Y070067D01*
X040566Y070067D01*
X040566Y068067D01*
X039566Y068067D01*
X038441Y068067D02*
X038441Y070067D01*
X037441Y070067D01*
X037441Y068067D01*
X038441Y068067D01*
X036316Y068067D02*
X036316Y070067D01*
X035316Y070067D01*
X035316Y068067D01*
X036316Y068067D01*
X034191Y068067D02*
X034191Y070067D01*
X033191Y070067D01*
X033191Y068067D01*
X034191Y068067D01*
X032066Y068192D02*
X032066Y070067D01*
X031066Y070067D01*
X031066Y068192D01*
X032066Y068192D01*
X033941Y071567D02*
X033941Y072567D01*
X035941Y072567D01*
X035941Y071567D01*
X033941Y071567D01*
X018566Y071942D02*
X015316Y071942D01*
X015316Y067067D01*
X018441Y067067D01*
X014191Y066692D02*
X014191Y069067D01*
X013941Y069067D01*
X014191Y066692D02*
X011441Y066692D01*
X011441Y069067D01*
X011691Y069067D01*
X011691Y071692D02*
X010691Y071692D01*
X010691Y072692D01*
X011691Y072692D01*
X011691Y071692D01*
X012691Y071692D01*
X012691Y072692D01*
X011691Y072692D01*
D16*
X008816Y070692D02*
X007816Y071692D01*
X007816Y069692D01*
X006816Y068692D01*
X007816Y069692D02*
X006941Y070567D01*
X007816Y069692D02*
X007816Y067692D01*
X008816Y068692D01*
X007816Y069692D01*
X008816Y070692D01*
D17*
X006146Y070716D02*
X005765Y070716D01*
X005575Y070526D01*
X005765Y070336D01*
X006146Y070336D01*
X006146Y070108D02*
X006146Y069728D01*
X006051Y069728D01*
X005670Y070108D01*
X005575Y070108D01*
X005575Y069728D01*
X006051Y069519D02*
X006146Y069519D01*
X006146Y069424D01*
X006051Y069424D01*
X006051Y069519D01*
X006051Y069197D02*
X005670Y069197D01*
X005575Y069102D01*
X005575Y068911D01*
X005670Y068816D01*
X006051Y068816D01*
X006146Y068911D01*
X006146Y069102D01*
X006051Y069197D01*
X006051Y068589D02*
X006146Y068494D01*
X006146Y068304D01*
X006051Y068209D01*
X005670Y068209D01*
X005575Y068304D01*
X005575Y068494D01*
X005670Y068589D01*
X006051Y068000D02*
X006146Y068000D01*
X006146Y067905D01*
X006051Y067905D01*
X006051Y068000D01*
X006146Y067677D02*
X006146Y067297D01*
X005575Y067297D01*
X005575Y067677D01*
X005861Y067487D02*
X005861Y067297D01*
X005861Y067070D02*
X005956Y066975D01*
X005956Y066689D01*
X006146Y066689D02*
X005575Y066689D01*
X005575Y066975D01*
X005670Y067070D01*
X005861Y067070D01*
X005956Y066880D02*
X006146Y067070D01*
X006146Y066462D02*
X005765Y066462D01*
X005575Y066272D01*
X005765Y066082D01*
X006146Y066082D01*
X006146Y065854D02*
X005575Y065854D01*
X005861Y066082D02*
X005861Y066462D01*
X006146Y065854D02*
X005956Y065664D01*
X006146Y065474D01*
X005575Y065474D01*
X005670Y065247D02*
X005575Y065151D01*
X005575Y064866D01*
X006146Y064866D01*
X006146Y065151D01*
X006051Y065247D01*
X005670Y065247D01*
X005670Y064639D02*
X005861Y064639D01*
X005956Y064544D01*
X005956Y064258D01*
X006146Y064258D02*
X005575Y064258D01*
X005575Y064544D01*
X005670Y064639D01*
X005956Y064449D02*
X006146Y064639D01*
X006146Y064031D02*
X005765Y064031D01*
X005575Y063841D01*
X005765Y063651D01*
X006146Y063651D01*
X006146Y063423D02*
X005575Y063423D01*
X005861Y063423D02*
X005861Y063043D01*
X006146Y063043D02*
X005575Y063043D01*
X005575Y062816D02*
X006146Y062816D01*
X005575Y062435D01*
X006146Y062435D01*
X006146Y062208D02*
X006146Y061828D01*
X005575Y061828D01*
X005575Y062208D01*
X005861Y062018D02*
X005861Y061828D01*
X005861Y061600D02*
X005956Y061505D01*
X005956Y061220D01*
X006146Y061220D02*
X005575Y061220D01*
X005575Y061505D01*
X005670Y061600D01*
X005861Y061600D01*
X006051Y060992D02*
X005670Y060992D01*
X005575Y060897D01*
X005575Y060707D01*
X005670Y060612D01*
X006051Y060612D01*
X006146Y060707D01*
X006146Y060897D01*
X006051Y060992D01*
X005861Y063651D02*
X005861Y064031D01*
X005861Y070336D02*
X005861Y070716D01*
X006021Y057079D02*
X005450Y057079D01*
X005450Y056698D02*
X006021Y057079D01*
X006021Y056698D02*
X005450Y056698D01*
X005450Y056483D02*
X005450Y056293D01*
X005450Y056388D02*
X006021Y056388D01*
X006021Y056293D02*
X006021Y056483D01*
X005736Y056066D02*
X005736Y055685D01*
X005831Y055458D02*
X005450Y055458D01*
X005450Y055078D02*
X005831Y055078D01*
X006021Y055268D01*
X005831Y055458D01*
X006021Y054850D02*
X006021Y054470D01*
X005640Y054850D01*
X005545Y054850D01*
X005450Y054755D01*
X005450Y054565D01*
X005545Y054470D01*
X005450Y054052D02*
X006021Y054052D01*
X006021Y053862D02*
X006021Y054242D01*
X005640Y053862D02*
X005450Y054052D01*
X017635Y051082D02*
X017825Y051273D01*
X017825Y050702D01*
X017635Y050702D02*
X018016Y050702D01*
X018243Y050702D02*
X018623Y051082D01*
X018623Y051178D01*
X018528Y051273D01*
X018338Y051273D01*
X018243Y051178D01*
X018243Y050702D02*
X018623Y050702D01*
X018851Y050892D02*
X019041Y050702D01*
X019231Y050892D01*
X019231Y051273D01*
X018851Y051273D02*
X018851Y050892D01*
X019861Y050242D02*
X019861Y049957D01*
X019956Y049862D01*
X020051Y049957D01*
X020146Y049862D01*
X020241Y049957D01*
X020241Y050242D01*
X020468Y050242D02*
X020564Y050242D01*
X020564Y049862D01*
X020659Y049862D02*
X020468Y049862D01*
X020969Y049957D02*
X021064Y049862D01*
X020969Y049957D02*
X020969Y050338D01*
X020874Y050242D02*
X021064Y050242D01*
X021279Y050147D02*
X021374Y050242D01*
X021564Y050242D01*
X021659Y050147D01*
X021659Y049862D01*
X021279Y049862D02*
X021279Y050433D01*
X021282Y050702D02*
X021567Y050702D01*
X021662Y050797D01*
X021662Y051178D01*
X021567Y051273D01*
X021282Y051273D01*
X021282Y050702D01*
X021054Y050702D02*
X020674Y050702D01*
X020674Y051273D01*
X021054Y051273D01*
X020864Y050987D02*
X020674Y050987D01*
X020446Y050702D02*
X020066Y050702D01*
X020066Y051273D01*
X020564Y050528D02*
X020564Y050433D01*
X022494Y050433D02*
X022494Y049862D01*
X022779Y049862D01*
X022875Y049957D01*
X022875Y050052D01*
X022779Y050147D01*
X022494Y050147D01*
X022779Y050147D02*
X022875Y050242D01*
X022875Y050338D01*
X022779Y050433D01*
X022494Y050433D01*
X022497Y050702D02*
X022497Y051273D01*
X022687Y051082D01*
X022877Y051273D01*
X022877Y050702D01*
X023105Y050797D02*
X023200Y050892D01*
X023485Y050892D01*
X023485Y050987D02*
X023485Y050702D01*
X023200Y050702D01*
X023105Y050797D01*
X023200Y051082D02*
X023390Y051082D01*
X023485Y050987D01*
X023712Y051082D02*
X023903Y051082D01*
X023807Y051178D02*
X023807Y050797D01*
X023903Y050702D01*
X024118Y050702D02*
X024118Y051082D01*
X024118Y050892D02*
X024308Y051082D01*
X024403Y051082D01*
X024624Y051082D02*
X024719Y051082D01*
X024719Y050702D01*
X024624Y050702D02*
X024814Y050702D01*
X025029Y050702D02*
X025409Y051082D01*
X025029Y051082D02*
X025409Y050702D01*
X025413Y050242D02*
X025223Y050242D01*
X025128Y050147D01*
X025128Y049957D01*
X025223Y049862D01*
X025413Y049862D01*
X025508Y049957D01*
X025508Y050147D01*
X025413Y050242D01*
X025735Y050147D02*
X025735Y049957D01*
X025830Y049862D01*
X026021Y049862D01*
X026116Y049957D01*
X026116Y050147D01*
X026021Y050242D01*
X025830Y050242D01*
X025735Y050147D01*
X026245Y050702D02*
X026530Y050702D01*
X026625Y050797D01*
X026625Y051178D01*
X026530Y051273D01*
X026245Y051273D01*
X026245Y050702D01*
X026438Y050338D02*
X026438Y049957D01*
X026533Y049862D01*
X026748Y049862D02*
X026748Y050433D01*
X026843Y050242D02*
X026748Y050147D01*
X026843Y050242D02*
X027033Y050242D01*
X027129Y050147D01*
X027129Y049862D01*
X026533Y050242D02*
X026343Y050242D01*
X026852Y050702D02*
X026852Y051082D01*
X026852Y050892D02*
X027042Y051082D01*
X027138Y051082D01*
X027359Y051082D02*
X027454Y051082D01*
X027454Y050702D01*
X027359Y050702D02*
X027549Y050702D01*
X027954Y050702D02*
X027764Y051082D01*
X027454Y051273D02*
X027454Y051368D01*
X028144Y051082D02*
X027954Y050702D01*
X028372Y050797D02*
X028372Y050987D01*
X028467Y051082D01*
X028657Y051082D01*
X028752Y050987D01*
X028752Y050892D01*
X028372Y050892D01*
X028372Y050797D02*
X028467Y050702D01*
X028657Y050702D01*
X028979Y050702D02*
X028979Y051082D01*
X028979Y050892D02*
X029169Y051082D01*
X029265Y051082D01*
X024913Y050242D02*
X024722Y050242D01*
X024818Y050338D02*
X024818Y049957D01*
X024913Y049862D01*
X024495Y050052D02*
X024115Y050052D01*
X024115Y049957D02*
X024115Y050147D01*
X024210Y050242D01*
X024400Y050242D01*
X024495Y050147D01*
X024495Y050052D01*
X024400Y049862D02*
X024210Y049862D01*
X024115Y049957D01*
X023887Y049862D02*
X023887Y050242D01*
X023887Y049862D02*
X023602Y049862D01*
X023507Y049957D01*
X023507Y050242D01*
X023197Y050433D02*
X023197Y049862D01*
X023102Y049862D02*
X023292Y049862D01*
X023197Y050433D02*
X023102Y050433D01*
X024719Y051273D02*
X024719Y051368D01*
D18*
X007237Y051567D02*
X007239Y051640D01*
X007245Y051712D01*
X007255Y051784D01*
X007269Y051855D01*
X007286Y051926D01*
X007308Y051995D01*
X007333Y052063D01*
X007362Y052130D01*
X007394Y052194D01*
X007430Y052258D01*
X007470Y052319D01*
X007513Y052377D01*
X007558Y052434D01*
X007607Y052487D01*
X007659Y052538D01*
X007713Y052586D01*
X007770Y052631D01*
X007830Y052673D01*
X007891Y052712D01*
X007955Y052747D01*
X008020Y052779D01*
X008087Y052807D01*
X008155Y052831D01*
X008225Y052851D01*
X008296Y052868D01*
X008367Y052881D01*
X008439Y052890D01*
X008512Y052895D01*
X008584Y052896D01*
X008657Y052893D01*
X008729Y052886D01*
X008801Y052875D01*
X008872Y052860D01*
X008942Y052842D01*
X009011Y052819D01*
X009079Y052793D01*
X009145Y052763D01*
X009209Y052730D01*
X009272Y052693D01*
X009332Y052653D01*
X009391Y052609D01*
X009446Y052563D01*
X009499Y052513D01*
X009550Y052461D01*
X009597Y052406D01*
X009641Y052348D01*
X009682Y052288D01*
X009720Y052226D01*
X009754Y052162D01*
X009785Y052096D01*
X009812Y052029D01*
X009835Y051960D01*
X009855Y051890D01*
X009871Y051820D01*
X009883Y051748D01*
X009891Y051676D01*
X009895Y051603D01*
X009895Y051531D01*
X009891Y051458D01*
X009883Y051386D01*
X009871Y051314D01*
X009855Y051244D01*
X009835Y051174D01*
X009812Y051105D01*
X009785Y051038D01*
X009754Y050972D01*
X009720Y050908D01*
X009682Y050846D01*
X009641Y050786D01*
X009597Y050728D01*
X009550Y050673D01*
X009499Y050621D01*
X009446Y050571D01*
X009391Y050525D01*
X009332Y050481D01*
X009272Y050441D01*
X009209Y050404D01*
X009145Y050371D01*
X009079Y050341D01*
X009011Y050315D01*
X008942Y050292D01*
X008872Y050274D01*
X008801Y050259D01*
X008729Y050248D01*
X008657Y050241D01*
X008584Y050238D01*
X008512Y050239D01*
X008439Y050244D01*
X008367Y050253D01*
X008296Y050266D01*
X008225Y050283D01*
X008155Y050303D01*
X008087Y050327D01*
X008020Y050355D01*
X007955Y050387D01*
X007891Y050422D01*
X007830Y050461D01*
X007770Y050503D01*
X007713Y050548D01*
X007659Y050596D01*
X007607Y050647D01*
X007558Y050700D01*
X007513Y050757D01*
X007470Y050815D01*
X007430Y050876D01*
X007394Y050940D01*
X007362Y051004D01*
X007333Y051071D01*
X007308Y051139D01*
X007286Y051208D01*
X007269Y051279D01*
X007255Y051350D01*
X007245Y051422D01*
X007239Y051494D01*
X007237Y051567D01*
D19*
X006206Y042694D02*
X042426Y042694D01*
X041796Y044269D02*
X041798Y044319D01*
X041804Y044369D01*
X041814Y044418D01*
X041828Y044466D01*
X041845Y044513D01*
X041866Y044558D01*
X041891Y044602D01*
X041919Y044643D01*
X041951Y044682D01*
X041985Y044719D01*
X042022Y044753D01*
X042062Y044783D01*
X042104Y044810D01*
X042148Y044834D01*
X042194Y044855D01*
X042241Y044871D01*
X042289Y044884D01*
X042339Y044893D01*
X042388Y044898D01*
X042439Y044899D01*
X042489Y044896D01*
X042538Y044889D01*
X042587Y044878D01*
X042635Y044863D01*
X042681Y044845D01*
X042726Y044823D01*
X042769Y044797D01*
X042810Y044768D01*
X042849Y044736D01*
X042885Y044701D01*
X042917Y044663D01*
X042947Y044623D01*
X042974Y044580D01*
X042997Y044536D01*
X043016Y044490D01*
X043032Y044442D01*
X043044Y044393D01*
X043052Y044344D01*
X043056Y044294D01*
X043056Y044244D01*
X043052Y044194D01*
X043044Y044145D01*
X043032Y044096D01*
X043016Y044048D01*
X042997Y044002D01*
X042974Y043958D01*
X042947Y043915D01*
X042917Y043875D01*
X042885Y043837D01*
X042849Y043802D01*
X042810Y043770D01*
X042769Y043741D01*
X042726Y043715D01*
X042681Y043693D01*
X042635Y043675D01*
X042587Y043660D01*
X042538Y043649D01*
X042489Y043642D01*
X042439Y043639D01*
X042388Y043640D01*
X042339Y043645D01*
X042289Y043654D01*
X042241Y043667D01*
X042194Y043683D01*
X042148Y043704D01*
X042104Y043728D01*
X042062Y043755D01*
X042022Y043785D01*
X041985Y043819D01*
X041951Y043856D01*
X041919Y043895D01*
X041891Y043936D01*
X041866Y043980D01*
X041845Y044025D01*
X041828Y044072D01*
X041814Y044120D01*
X041804Y044169D01*
X041798Y044219D01*
X041796Y044269D01*
X042426Y042694D02*
X042503Y042696D01*
X042580Y042702D01*
X042657Y042711D01*
X042733Y042724D01*
X042809Y042741D01*
X042883Y042762D01*
X042957Y042786D01*
X043029Y042814D01*
X043099Y042845D01*
X043168Y042880D01*
X043236Y042918D01*
X043301Y042959D01*
X043364Y043004D01*
X043425Y043052D01*
X043484Y043102D01*
X043540Y043155D01*
X043593Y043211D01*
X043643Y043270D01*
X043691Y043331D01*
X043736Y043394D01*
X043777Y043459D01*
X043815Y043527D01*
X043850Y043596D01*
X043881Y043666D01*
X043909Y043738D01*
X043933Y043812D01*
X043954Y043886D01*
X043971Y043962D01*
X043984Y044038D01*
X043993Y044115D01*
X043999Y044192D01*
X044001Y044269D01*
X044001Y072615D01*
X041796Y072615D02*
X041798Y072665D01*
X041804Y072715D01*
X041814Y072764D01*
X041828Y072812D01*
X041845Y072859D01*
X041866Y072904D01*
X041891Y072948D01*
X041919Y072989D01*
X041951Y073028D01*
X041985Y073065D01*
X042022Y073099D01*
X042062Y073129D01*
X042104Y073156D01*
X042148Y073180D01*
X042194Y073201D01*
X042241Y073217D01*
X042289Y073230D01*
X042339Y073239D01*
X042388Y073244D01*
X042439Y073245D01*
X042489Y073242D01*
X042538Y073235D01*
X042587Y073224D01*
X042635Y073209D01*
X042681Y073191D01*
X042726Y073169D01*
X042769Y073143D01*
X042810Y073114D01*
X042849Y073082D01*
X042885Y073047D01*
X042917Y073009D01*
X042947Y072969D01*
X042974Y072926D01*
X042997Y072882D01*
X043016Y072836D01*
X043032Y072788D01*
X043044Y072739D01*
X043052Y072690D01*
X043056Y072640D01*
X043056Y072590D01*
X043052Y072540D01*
X043044Y072491D01*
X043032Y072442D01*
X043016Y072394D01*
X042997Y072348D01*
X042974Y072304D01*
X042947Y072261D01*
X042917Y072221D01*
X042885Y072183D01*
X042849Y072148D01*
X042810Y072116D01*
X042769Y072087D01*
X042726Y072061D01*
X042681Y072039D01*
X042635Y072021D01*
X042587Y072006D01*
X042538Y071995D01*
X042489Y071988D01*
X042439Y071985D01*
X042388Y071986D01*
X042339Y071991D01*
X042289Y072000D01*
X042241Y072013D01*
X042194Y072029D01*
X042148Y072050D01*
X042104Y072074D01*
X042062Y072101D01*
X042022Y072131D01*
X041985Y072165D01*
X041951Y072202D01*
X041919Y072241D01*
X041891Y072282D01*
X041866Y072326D01*
X041845Y072371D01*
X041828Y072418D01*
X041814Y072466D01*
X041804Y072515D01*
X041798Y072565D01*
X041796Y072615D01*
X042426Y074190D02*
X042503Y074188D01*
X042580Y074182D01*
X042657Y074173D01*
X042733Y074160D01*
X042809Y074143D01*
X042883Y074122D01*
X042957Y074098D01*
X043029Y074070D01*
X043099Y074039D01*
X043168Y074004D01*
X043236Y073966D01*
X043301Y073925D01*
X043364Y073880D01*
X043425Y073832D01*
X043484Y073782D01*
X043540Y073729D01*
X043593Y073673D01*
X043643Y073614D01*
X043691Y073553D01*
X043736Y073490D01*
X043777Y073425D01*
X043815Y073357D01*
X043850Y073288D01*
X043881Y073218D01*
X043909Y073146D01*
X043933Y073072D01*
X043954Y072998D01*
X043971Y072922D01*
X043984Y072846D01*
X043993Y072769D01*
X043999Y072692D01*
X044001Y072615D01*
X042426Y074190D02*
X006206Y074190D01*
X005576Y072615D02*
X005578Y072665D01*
X005584Y072715D01*
X005594Y072764D01*
X005608Y072812D01*
X005625Y072859D01*
X005646Y072904D01*
X005671Y072948D01*
X005699Y072989D01*
X005731Y073028D01*
X005765Y073065D01*
X005802Y073099D01*
X005842Y073129D01*
X005884Y073156D01*
X005928Y073180D01*
X005974Y073201D01*
X006021Y073217D01*
X006069Y073230D01*
X006119Y073239D01*
X006168Y073244D01*
X006219Y073245D01*
X006269Y073242D01*
X006318Y073235D01*
X006367Y073224D01*
X006415Y073209D01*
X006461Y073191D01*
X006506Y073169D01*
X006549Y073143D01*
X006590Y073114D01*
X006629Y073082D01*
X006665Y073047D01*
X006697Y073009D01*
X006727Y072969D01*
X006754Y072926D01*
X006777Y072882D01*
X006796Y072836D01*
X006812Y072788D01*
X006824Y072739D01*
X006832Y072690D01*
X006836Y072640D01*
X006836Y072590D01*
X006832Y072540D01*
X006824Y072491D01*
X006812Y072442D01*
X006796Y072394D01*
X006777Y072348D01*
X006754Y072304D01*
X006727Y072261D01*
X006697Y072221D01*
X006665Y072183D01*
X006629Y072148D01*
X006590Y072116D01*
X006549Y072087D01*
X006506Y072061D01*
X006461Y072039D01*
X006415Y072021D01*
X006367Y072006D01*
X006318Y071995D01*
X006269Y071988D01*
X006219Y071985D01*
X006168Y071986D01*
X006119Y071991D01*
X006069Y072000D01*
X006021Y072013D01*
X005974Y072029D01*
X005928Y072050D01*
X005884Y072074D01*
X005842Y072101D01*
X005802Y072131D01*
X005765Y072165D01*
X005731Y072202D01*
X005699Y072241D01*
X005671Y072282D01*
X005646Y072326D01*
X005625Y072371D01*
X005608Y072418D01*
X005594Y072466D01*
X005584Y072515D01*
X005578Y072565D01*
X005576Y072615D01*
X004631Y072615D02*
X004633Y072692D01*
X004639Y072769D01*
X004648Y072846D01*
X004661Y072922D01*
X004678Y072998D01*
X004699Y073072D01*
X004723Y073146D01*
X004751Y073218D01*
X004782Y073288D01*
X004817Y073357D01*
X004855Y073425D01*
X004896Y073490D01*
X004941Y073553D01*
X004989Y073614D01*
X005039Y073673D01*
X005092Y073729D01*
X005148Y073782D01*
X005207Y073832D01*
X005268Y073880D01*
X005331Y073925D01*
X005396Y073966D01*
X005464Y074004D01*
X005533Y074039D01*
X005603Y074070D01*
X005675Y074098D01*
X005749Y074122D01*
X005823Y074143D01*
X005899Y074160D01*
X005975Y074173D01*
X006052Y074182D01*
X006129Y074188D01*
X006206Y074190D01*
X004631Y072615D02*
X004631Y044269D01*
X005576Y044269D02*
X005578Y044319D01*
X005584Y044369D01*
X005594Y044418D01*
X005608Y044466D01*
X005625Y044513D01*
X005646Y044558D01*
X005671Y044602D01*
X005699Y044643D01*
X005731Y044682D01*
X005765Y044719D01*
X005802Y044753D01*
X005842Y044783D01*
X005884Y044810D01*
X005928Y044834D01*
X005974Y044855D01*
X006021Y044871D01*
X006069Y044884D01*
X006119Y044893D01*
X006168Y044898D01*
X006219Y044899D01*
X006269Y044896D01*
X006318Y044889D01*
X006367Y044878D01*
X006415Y044863D01*
X006461Y044845D01*
X006506Y044823D01*
X006549Y044797D01*
X006590Y044768D01*
X006629Y044736D01*
X006665Y044701D01*
X006697Y044663D01*
X006727Y044623D01*
X006754Y044580D01*
X006777Y044536D01*
X006796Y044490D01*
X006812Y044442D01*
X006824Y044393D01*
X006832Y044344D01*
X006836Y044294D01*
X006836Y044244D01*
X006832Y044194D01*
X006824Y044145D01*
X006812Y044096D01*
X006796Y044048D01*
X006777Y044002D01*
X006754Y043958D01*
X006727Y043915D01*
X006697Y043875D01*
X006665Y043837D01*
X006629Y043802D01*
X006590Y043770D01*
X006549Y043741D01*
X006506Y043715D01*
X006461Y043693D01*
X006415Y043675D01*
X006367Y043660D01*
X006318Y043649D01*
X006269Y043642D01*
X006219Y043639D01*
X006168Y043640D01*
X006119Y043645D01*
X006069Y043654D01*
X006021Y043667D01*
X005974Y043683D01*
X005928Y043704D01*
X005884Y043728D01*
X005842Y043755D01*
X005802Y043785D01*
X005765Y043819D01*
X005731Y043856D01*
X005699Y043895D01*
X005671Y043936D01*
X005646Y043980D01*
X005625Y044025D01*
X005608Y044072D01*
X005594Y044120D01*
X005584Y044169D01*
X005578Y044219D01*
X005576Y044269D01*
X004631Y044269D02*
X004633Y044192D01*
X004639Y044115D01*
X004648Y044038D01*
X004661Y043962D01*
X004678Y043886D01*
X004699Y043812D01*
X004723Y043738D01*
X004751Y043666D01*
X004782Y043596D01*
X004817Y043527D01*
X004855Y043459D01*
X004896Y043394D01*
X004941Y043331D01*
X004989Y043270D01*
X005039Y043211D01*
X005092Y043155D01*
X005148Y043102D01*
X005207Y043052D01*
X005268Y043004D01*
X005331Y042959D01*
X005396Y042918D01*
X005464Y042880D01*
X005533Y042845D01*
X005603Y042814D01*
X005675Y042786D01*
X005749Y042762D01*
X005823Y042741D01*
X005899Y042724D01*
X005975Y042711D01*
X006052Y042702D01*
X006129Y042696D01*
X006206Y042694D01*
X008166Y065592D02*
X008168Y065642D01*
X008174Y065692D01*
X008184Y065742D01*
X008197Y065790D01*
X008214Y065838D01*
X008235Y065884D01*
X008259Y065928D01*
X008287Y065970D01*
X008318Y066010D01*
X008352Y066047D01*
X008389Y066082D01*
X008428Y066113D01*
X008469Y066142D01*
X008513Y066167D01*
X008559Y066189D01*
X008606Y066207D01*
X008654Y066221D01*
X008703Y066232D01*
X008753Y066239D01*
X008803Y066242D01*
X008854Y066241D01*
X008904Y066236D01*
X008954Y066227D01*
X009002Y066215D01*
X009050Y066198D01*
X009096Y066178D01*
X009141Y066155D01*
X009184Y066128D01*
X009224Y066098D01*
X009262Y066065D01*
X009297Y066029D01*
X009330Y065990D01*
X009359Y065949D01*
X009385Y065906D01*
X009408Y065861D01*
X009427Y065814D01*
X009442Y065766D01*
X009454Y065717D01*
X009462Y065667D01*
X009466Y065617D01*
X009466Y065567D01*
X009462Y065517D01*
X009454Y065467D01*
X009442Y065418D01*
X009427Y065370D01*
X009408Y065323D01*
X009385Y065278D01*
X009359Y065235D01*
X009330Y065194D01*
X009297Y065155D01*
X009262Y065119D01*
X009224Y065086D01*
X009184Y065056D01*
X009141Y065029D01*
X009096Y065006D01*
X009050Y064986D01*
X009002Y064969D01*
X008954Y064957D01*
X008904Y064948D01*
X008854Y064943D01*
X008803Y064942D01*
X008753Y064945D01*
X008703Y064952D01*
X008654Y064963D01*
X008606Y064977D01*
X008559Y064995D01*
X008513Y065017D01*
X008469Y065042D01*
X008428Y065071D01*
X008389Y065102D01*
X008352Y065137D01*
X008318Y065174D01*
X008287Y065214D01*
X008259Y065256D01*
X008235Y065300D01*
X008214Y065346D01*
X008197Y065394D01*
X008184Y065442D01*
X008174Y065492D01*
X008168Y065542D01*
X008166Y065592D01*
M02*
