%
M48
M72
T01C0.0236
T02C0.0320
T03C0.0394
T04C0.0400
T05C0.0630
T06C0.1260
T07C0.1299
%
T01
X14409Y9349
X14409Y13349
X7909Y15849
X11006Y18722
X9103Y19974
X5409Y11849
X21909Y20349
X22659Y16099
X29409Y11849
X31409Y13349
X31409Y14349
X35909Y15849
X36159Y13099
X30409Y17849
X34409Y6699
X35809Y6699
T02
X24909Y8974
X23784Y8974
X23784Y11974
X24909Y11974
X13158Y12419
X13158Y13419
X13158Y14419
X13158Y15419
X10158Y15419
X10158Y14419
X10158Y13419
X10158Y12419
X10158Y11419
X10158Y10419
X10158Y9419
X10158Y8419
X13158Y8419
X13158Y9419
X13158Y10419
X13158Y11419
X12159Y20030
X12159Y21530
X13159Y21530
X14159Y21530
X15159Y21530
X16159Y21530
X17159Y21530
X18159Y21530
X19159Y21530
X20159Y21530
X21159Y21530
X22159Y21530
X23659Y21530
X24659Y21530
X24659Y24530
X23659Y24530
X22159Y24530
X21159Y24530
X20159Y24530
X19159Y24530
X18159Y24530
X17159Y24530
X16159Y24530
X15159Y24530
X14159Y24530
X13159Y24530
X12159Y24530
X11159Y24530
X10159Y24530
X9159Y24530
X9159Y21530
X10159Y21530
X11159Y21530
X9159Y20030
X20159Y27030
X20159Y28030
X23159Y28030
X23159Y27030
T03
X26659Y9530
X27659Y9530
X28659Y9530
X29659Y9530
X30659Y9530
X31659Y9530
X32659Y9530
X33659Y9530
X34659Y9530
X35659Y9530
X36659Y9530
X37659Y9530
X38659Y9530
X38659Y8530
X37659Y8530
X36659Y8530
X35659Y8530
X34659Y8530
X33659Y8530
X32659Y8530
X31659Y8530
X30659Y8530
X29659Y8530
X28659Y8530
X27659Y8530
X26659Y8530
T04
X36684Y15024
X37684Y15024
X37684Y16024
X36684Y16024
X36684Y17024
X37684Y17024
X37684Y18024
X36684Y18024
X36684Y19024
X37684Y19024
X26909Y23849
X26909Y24849
X26909Y25849
X21096Y29167
X21060Y29132
X20096Y29167
X20060Y29132
X19096Y29167
X19060Y29132
X18096Y29167
X18060Y29132
X17096Y29167
X17060Y29132
X16096Y29167
X16060Y29132
X15096Y29167
X15060Y29132
X14096Y29167
X14060Y29132
X13096Y29167
X13060Y29132
X12096Y29167
X12060Y29132
X11096Y29167
X11060Y29132
X10096Y29167
X10060Y29132
X9096Y29167
X9060Y29132
X8096Y29167
X8060Y29132
X7096Y29167
X7060Y29132
X6096Y29167
X6060Y29132
X5408Y24594
X7408Y24594
X6408Y22594
X11133Y18594
X12233Y18594
X12258Y16894
X11158Y16894
T05
X6385Y14012
X6385Y10075
T06
X3143Y7514
X3856Y16927
X3856Y29132
X3143Y29167
X33462Y29132
X39757Y29167
X33462Y16927
T07
X3605Y4474
X39102Y4476
M30
