G75*
G70*
%OFA0B0*%
%FSLAX24Y24*%
%IPPOS*%
%LPD*%
%AMOC8*
5,1,8,0,0,1.08239X$1,22.5*
%
%ADD10R,0.0600X0.0600*%
%ADD11C,0.0600*%
%ADD12R,0.0594X0.0594*%
%ADD13C,0.0660*%
%ADD14C,0.0594*%
%ADD15C,0.0520*%
%ADD16OC8,0.0660*%
%ADD17C,0.0600*%
%ADD18C,0.0800*%
%ADD19OC8,0.0600*%
%ADD20C,0.0320*%
%ADD21C,0.0100*%
%ADD22C,0.0500*%
%ADD23R,0.0396X0.0396*%
%ADD24C,0.0396*%
D10*
X006060Y029132D03*
X006096Y029167D03*
D11*
X007060Y029132D03*
X007096Y029167D03*
X008060Y029132D03*
X008096Y029167D03*
X009060Y029132D03*
X009096Y029167D03*
X010060Y029132D03*
X010096Y029167D03*
X011060Y029132D03*
X011096Y029167D03*
X012060Y029132D03*
X012096Y029167D03*
X013060Y029132D03*
X013096Y029167D03*
X014060Y029132D03*
X014096Y029167D03*
X015060Y029132D03*
X015096Y029167D03*
X016060Y029132D03*
X016096Y029167D03*
X017060Y029132D03*
X017096Y029167D03*
X018060Y029132D03*
X018096Y029167D03*
X019060Y029132D03*
X019096Y029167D03*
X020060Y029132D03*
X020096Y029167D03*
X021060Y029132D03*
X021096Y029167D03*
D12*
X038659Y009530D03*
D13*
X038659Y008530D03*
X036659Y008530D03*
D14*
X037659Y008530D03*
X037659Y009530D03*
X036659Y009530D03*
X035659Y009530D03*
X034659Y009530D03*
X033659Y009530D03*
X032659Y009530D03*
X031659Y009530D03*
X030659Y009530D03*
X029659Y009530D03*
X028659Y009530D03*
X027659Y009530D03*
X026659Y009530D03*
X026659Y008530D03*
X027659Y008530D03*
X028659Y008530D03*
X029659Y008530D03*
X030659Y008530D03*
X031659Y008530D03*
X032659Y008530D03*
X033659Y008530D03*
X034659Y008530D03*
X035659Y008530D03*
D15*
X022159Y021270D02*
X022159Y021790D01*
X021159Y021790D02*
X021159Y021270D01*
X020159Y021270D02*
X020159Y021790D01*
X019159Y021790D02*
X019159Y021270D01*
X018159Y021270D02*
X018159Y021790D01*
X017159Y021790D02*
X017159Y021270D01*
X016159Y021270D02*
X016159Y021790D01*
X015159Y021790D02*
X015159Y021270D01*
X014159Y021270D02*
X014159Y021790D01*
X013159Y021790D02*
X013159Y021270D01*
X012159Y021270D02*
X012159Y021790D01*
X011159Y021790D02*
X011159Y021270D01*
X010159Y021270D02*
X010159Y021790D01*
X009159Y021790D02*
X009159Y021270D01*
X009159Y024270D02*
X009159Y024790D01*
X010159Y024790D02*
X010159Y024270D01*
X011159Y024270D02*
X011159Y024790D01*
X012159Y024790D02*
X012159Y024270D01*
X013159Y024270D02*
X013159Y024790D01*
X014159Y024790D02*
X014159Y024270D01*
X015159Y024270D02*
X015159Y024790D01*
X016159Y024790D02*
X016159Y024270D01*
X017159Y024270D02*
X017159Y024790D01*
X018159Y024790D02*
X018159Y024270D01*
X019159Y024270D02*
X019159Y024790D01*
X020159Y024790D02*
X020159Y024270D01*
X021159Y024270D02*
X021159Y024790D01*
X022159Y024790D02*
X022159Y024270D01*
X013418Y015419D02*
X012898Y015419D01*
X012898Y014419D02*
X013418Y014419D01*
X013418Y013419D02*
X012898Y013419D01*
X012898Y012419D02*
X013418Y012419D01*
X013418Y011419D02*
X012898Y011419D01*
X012898Y010419D02*
X013418Y010419D01*
X013418Y009419D02*
X012898Y009419D01*
X012898Y008419D02*
X013418Y008419D01*
X010418Y008419D02*
X009898Y008419D01*
X009898Y009419D02*
X010418Y009419D01*
X010418Y010419D02*
X009898Y010419D01*
X009898Y011419D02*
X010418Y011419D01*
X010418Y012419D02*
X009898Y012419D01*
X009898Y013419D02*
X010418Y013419D01*
X010418Y014419D02*
X009898Y014419D01*
X009898Y015419D02*
X010418Y015419D01*
D16*
X009159Y020030D03*
X012159Y020030D03*
X020159Y027030D03*
X020159Y028030D03*
X023159Y028030D03*
X023159Y027030D03*
X023659Y024530D03*
X024659Y024530D03*
X024659Y021530D03*
X023659Y021530D03*
X023784Y011974D03*
X024909Y011974D03*
X024909Y008974D03*
X023784Y008974D03*
D17*
X006708Y022594D02*
X006108Y022594D01*
X005408Y024294D02*
X005408Y024894D01*
X007408Y024894D02*
X007408Y024294D01*
X026609Y023849D02*
X027209Y023849D01*
X027209Y024849D02*
X026609Y024849D01*
X026609Y025849D02*
X027209Y025849D01*
D18*
X012233Y018594D03*
X011133Y018594D03*
X011158Y016894D03*
X012258Y016894D03*
D19*
X036684Y017024D03*
X037684Y017024D03*
X037684Y016024D03*
X036684Y016024D03*
X036684Y015024D03*
X037684Y015024D03*
X037684Y018024D03*
X036684Y018024D03*
X036684Y019024D03*
X037684Y019024D03*
D20*
X034909Y017349D02*
X034409Y017849D01*
X031909Y017849D01*
X031409Y017349D01*
X030909Y016849D01*
X023409Y016849D01*
X022909Y016349D01*
X022659Y016099D01*
X022909Y016349D01*
X022659Y016099D02*
X021909Y015349D01*
X022409Y015849D01*
X021909Y015349D02*
X020978Y014419D01*
X013158Y014419D01*
X013158Y015419D02*
X013158Y016599D01*
X012909Y016849D01*
X012303Y016849D01*
X012258Y016894D01*
X011158Y016894D02*
X011114Y016849D01*
X008909Y016849D01*
X007909Y015849D01*
X006409Y015849D01*
X005409Y014849D01*
X005409Y011849D01*
X013158Y012419D02*
X020978Y012419D01*
X022409Y013849D01*
X023409Y014849D01*
X030909Y014849D01*
X031409Y015349D01*
X034409Y015349D01*
X035409Y014349D01*
X035909Y013849D01*
X038409Y013849D01*
X038909Y014349D01*
X038909Y015849D01*
X038734Y016024D01*
X037684Y016024D01*
X036684Y015024D02*
X035734Y015024D01*
X034909Y015849D01*
X032909Y015849D01*
X032409Y016349D01*
X031409Y016349D01*
X030909Y015849D01*
X023409Y015849D01*
X022409Y014849D01*
X020909Y013349D01*
X014409Y013349D01*
X014909Y011349D02*
X013909Y010349D01*
X013839Y010419D01*
X013158Y010419D01*
X014409Y009349D02*
X015409Y010349D01*
X020909Y010349D01*
X022409Y011849D01*
X023409Y012849D01*
X030909Y012849D01*
X031409Y013349D01*
X030909Y013849D02*
X031409Y014349D01*
X030909Y013849D02*
X023409Y013849D01*
X022409Y012849D01*
X020909Y011349D01*
X014909Y011349D01*
X023784Y008974D02*
X023809Y008949D01*
X023809Y007999D01*
X025109Y006699D01*
X034409Y006699D01*
X035209Y007399D02*
X025459Y007399D01*
X024959Y007899D01*
X024959Y008924D01*
X024909Y008974D01*
X029409Y011849D02*
X030909Y011849D01*
X031409Y012349D01*
X036909Y012349D01*
X037659Y011599D01*
X037659Y009530D01*
X038659Y008530D02*
X039589Y008530D01*
X039909Y008849D01*
X039909Y012849D01*
X039409Y013349D01*
X036409Y013349D01*
X036159Y013099D01*
X035909Y015849D02*
X034909Y016849D01*
X034909Y017349D01*
X030409Y017849D02*
X029909Y017349D01*
X025409Y017349D01*
X025459Y017399D01*
X025459Y021149D01*
X025459Y024899D01*
X025459Y025399D01*
X025909Y025849D01*
X026909Y025849D01*
X025459Y024899D02*
X025109Y025249D01*
X022959Y025249D01*
X022909Y025299D01*
X022909Y026779D01*
X023159Y027030D01*
X025459Y021149D02*
X024959Y020649D01*
X021909Y020649D01*
X021909Y020349D01*
X021909Y020649D02*
X013009Y020649D01*
X012959Y020599D01*
X012959Y019599D01*
X012659Y019299D01*
X011459Y019299D01*
X011006Y018846D01*
X011006Y018722D01*
X035209Y007399D02*
X035809Y006799D01*
X035809Y006699D01*
D21*
X004207Y002938D02*
X003816Y002849D01*
X003873Y002849D01*
X003936Y002858D01*
X003972Y002849D01*
X014836Y002849D01*
X015313Y002754D01*
X015313Y002754D01*
X015763Y002568D01*
X015763Y002568D01*
X016090Y002349D01*
X031227Y002349D01*
X031555Y002568D01*
X031555Y002568D01*
X032004Y002754D01*
X032004Y002754D01*
X032481Y002849D01*
X038909Y002849D01*
X038946Y002851D01*
X038735Y002867D01*
X038277Y003047D01*
X037892Y003353D01*
X037892Y003353D01*
X037615Y003760D01*
X037615Y003760D01*
X037470Y004230D01*
X037470Y004722D01*
X037615Y005192D01*
X037615Y005192D01*
X037892Y005598D01*
X037892Y005598D01*
X038277Y005905D01*
X038277Y005905D01*
X038735Y006084D01*
X038735Y006084D01*
X039225Y006121D01*
X039225Y006121D01*
X039705Y006012D01*
X039705Y006012D01*
X040130Y005766D01*
X040130Y005766D01*
X040409Y005466D01*
X040409Y028297D01*
X040174Y028161D01*
X039899Y028087D01*
X039615Y028087D01*
X039340Y028161D01*
X039094Y028303D01*
X038893Y028504D01*
X038751Y028751D01*
X038677Y029025D01*
X038677Y029310D01*
X038751Y029584D01*
X038893Y029831D01*
X038912Y029849D01*
X034272Y029849D01*
X034326Y029795D01*
X034468Y029549D01*
X034542Y029274D01*
X034542Y028990D01*
X034468Y028715D01*
X034326Y028469D01*
X034125Y028268D01*
X033879Y028126D01*
X033604Y028052D01*
X033320Y028052D01*
X033045Y028126D01*
X032799Y028268D01*
X032598Y028469D01*
X032456Y028715D01*
X032382Y028990D01*
X032382Y029274D01*
X032456Y029549D01*
X032598Y029795D01*
X032652Y029849D01*
X004666Y029849D01*
X004720Y029795D01*
X004862Y029549D01*
X004936Y029274D01*
X004936Y028990D01*
X004862Y028715D01*
X004720Y028469D01*
X004519Y028268D01*
X004273Y028126D01*
X006640Y028126D01*
X006640Y028028D02*
X002409Y028028D01*
X002409Y028126D02*
X002857Y028126D01*
X002726Y028161D02*
X003001Y028087D01*
X003285Y028087D01*
X003435Y028128D01*
X003439Y028126D01*
X003714Y028052D01*
X003998Y028052D01*
X004273Y028126D01*
X004444Y028225D02*
X006640Y028225D01*
X006640Y028323D02*
X004574Y028323D01*
X004673Y028422D02*
X006640Y028422D01*
X006640Y028520D02*
X004749Y028520D01*
X004806Y028619D02*
X006640Y028619D01*
X006640Y028717D02*
X006458Y028717D01*
X006453Y028712D02*
X006480Y028740D01*
X006483Y028745D01*
X006488Y028747D01*
X006516Y028775D01*
X006536Y028810D01*
X006546Y028848D01*
X006546Y029117D01*
X006146Y029117D01*
X006146Y029182D01*
X006510Y029182D01*
X006510Y029217D01*
X006546Y029217D01*
X006546Y029487D01*
X006536Y029525D01*
X006516Y029560D01*
X006488Y029587D01*
X006454Y029607D01*
X006416Y029617D01*
X006146Y029617D01*
X006146Y029582D01*
X006110Y029582D01*
X006110Y029217D01*
X006046Y029217D01*
X006046Y029617D01*
X005776Y029617D01*
X005738Y029607D01*
X005704Y029587D01*
X005676Y029560D01*
X005673Y029555D01*
X005668Y029552D01*
X005640Y029524D01*
X005621Y029490D01*
X005610Y029452D01*
X005610Y029182D01*
X006010Y029182D01*
X006010Y029117D01*
X005646Y029117D01*
X005646Y029082D01*
X005610Y029082D01*
X005610Y028812D01*
X005621Y028774D01*
X005640Y028740D01*
X005668Y028712D01*
X005703Y028692D01*
X005741Y028682D01*
X006010Y028682D01*
X006010Y028717D01*
X006110Y028717D01*
X006110Y028682D02*
X006380Y028682D01*
X006418Y028692D01*
X006453Y028712D01*
X006537Y028816D02*
X006640Y028816D01*
X006640Y028914D02*
X006546Y028914D01*
X006640Y028918D02*
X006640Y026800D01*
X005296Y025455D01*
X005178Y025337D01*
X005162Y025300D01*
X005142Y025292D01*
X005010Y025160D01*
X004938Y024987D01*
X004938Y024200D01*
X004988Y024079D01*
X004988Y023398D01*
X004928Y023337D01*
X004864Y023183D01*
X004864Y022016D01*
X004928Y021861D01*
X005178Y021611D01*
X005428Y021361D01*
X005546Y021243D01*
X005700Y021179D01*
X007735Y021179D01*
X007989Y020925D01*
X007989Y020266D01*
X008053Y020111D01*
X008428Y019736D01*
X008546Y019618D01*
X008700Y019554D01*
X008927Y019554D01*
X008952Y019530D01*
X009366Y019530D01*
X009659Y019823D01*
X009659Y020237D01*
X009366Y020530D01*
X008952Y020530D01*
X008887Y020465D01*
X008829Y020523D01*
X008829Y021027D01*
X008846Y021003D01*
X008892Y020957D01*
X008944Y020919D01*
X009001Y020890D01*
X009063Y020870D01*
X009127Y020860D01*
X009129Y020860D01*
X009129Y021500D01*
X008749Y021500D01*
X008749Y021353D01*
X008647Y021455D01*
X008147Y021955D01*
X007992Y022019D01*
X005958Y022019D01*
X005772Y022205D01*
X005704Y022273D01*
X005704Y022343D01*
X005710Y022327D01*
X005842Y022195D01*
X006015Y022124D01*
X006802Y022124D01*
X006975Y022195D01*
X007107Y022327D01*
X007178Y022500D01*
X007178Y022687D01*
X007107Y022860D01*
X007038Y022929D01*
X007867Y022929D01*
X008022Y022993D01*
X008140Y023111D01*
X008640Y023611D01*
X008704Y023766D01*
X008704Y025433D01*
X008640Y025587D01*
X008522Y025705D01*
X008480Y025746D01*
X008480Y028887D01*
X008494Y028901D01*
X008566Y029074D01*
X008566Y029261D01*
X008494Y029434D01*
X008362Y029566D01*
X008189Y029637D01*
X008002Y029637D01*
X007830Y029566D01*
X007697Y029434D01*
X007697Y029434D01*
X007662Y029398D01*
X007590Y029225D01*
X007590Y029038D01*
X007640Y028918D01*
X007640Y025489D01*
X007704Y025334D01*
X007864Y025175D01*
X007864Y024023D01*
X007610Y023769D01*
X006700Y023769D01*
X006546Y023705D01*
X006428Y023587D01*
X006171Y023330D01*
X006171Y023330D01*
X006053Y023212D01*
X005989Y023058D01*
X005989Y023053D01*
X005842Y022992D01*
X005710Y022860D01*
X005704Y022844D01*
X005704Y022925D01*
X005765Y022986D01*
X005828Y023140D01*
X005828Y024079D01*
X005878Y024200D01*
X005878Y024345D01*
X005890Y024356D01*
X005890Y024356D01*
X005890Y024356D01*
X005922Y024433D01*
X005954Y024510D01*
X005954Y024511D01*
X005954Y024594D01*
X005954Y024925D01*
X007416Y026388D01*
X007480Y026542D01*
X007480Y028887D01*
X007494Y028901D01*
X007566Y029074D01*
X007566Y029261D01*
X007494Y029434D01*
X007362Y029566D01*
X007189Y029637D01*
X007002Y029637D01*
X006830Y029566D01*
X006697Y029434D01*
X006697Y029434D01*
X006662Y029398D01*
X006590Y029225D01*
X006590Y029038D01*
X006640Y028918D01*
X006601Y029013D02*
X006546Y029013D01*
X006546Y029111D02*
X006590Y029111D01*
X006590Y029210D02*
X006510Y029210D01*
X006546Y029308D02*
X006625Y029308D01*
X006670Y029407D02*
X006546Y029407D01*
X006541Y029505D02*
X006769Y029505D01*
X006921Y029604D02*
X006460Y029604D01*
X006146Y029604D02*
X006046Y029604D01*
X006046Y029505D02*
X006110Y029505D01*
X006110Y029407D02*
X006046Y029407D01*
X006046Y029308D02*
X006110Y029308D01*
X006110Y029082D02*
X006110Y028682D01*
X006046Y028717D02*
X006046Y029082D01*
X006110Y029082D01*
X006110Y029013D02*
X006046Y029013D01*
X006046Y028914D02*
X006110Y028914D01*
X006110Y028816D02*
X006046Y028816D01*
X006046Y028717D02*
X006010Y028717D01*
X005663Y028717D02*
X004863Y028717D01*
X004889Y028816D02*
X005610Y028816D01*
X005610Y028914D02*
X004915Y028914D01*
X004936Y029013D02*
X005610Y029013D01*
X005646Y029111D02*
X004936Y029111D01*
X004936Y029210D02*
X005610Y029210D01*
X005610Y029308D02*
X004927Y029308D01*
X004900Y029407D02*
X005610Y029407D01*
X005629Y029505D02*
X004874Y029505D01*
X004830Y029604D02*
X005732Y029604D01*
X004773Y029702D02*
X032544Y029702D01*
X032487Y029604D02*
X021271Y029604D01*
X021189Y029637D02*
X021002Y029637D01*
X020830Y029566D01*
X020697Y029434D01*
X020647Y029311D01*
X020643Y029305D01*
X020641Y029298D01*
X020626Y029261D01*
X020626Y029251D01*
X020622Y029237D01*
X020613Y029182D01*
X020626Y029182D01*
X020626Y029082D01*
X020613Y029082D01*
X020622Y029027D01*
X020643Y028959D01*
X020676Y028896D01*
X020717Y028839D01*
X020767Y028789D01*
X020825Y028747D01*
X020888Y028715D01*
X020955Y028693D01*
X021010Y028684D01*
X021010Y028697D01*
X021110Y028697D01*
X021110Y028684D01*
X021166Y028693D01*
X021179Y028697D01*
X021189Y028697D01*
X021226Y028713D01*
X021233Y028715D01*
X021240Y028718D01*
X021362Y028769D01*
X021494Y028901D01*
X021566Y029074D01*
X021566Y029261D01*
X021494Y029434D01*
X021362Y029566D01*
X021189Y029637D01*
X021423Y029505D02*
X032444Y029505D01*
X032418Y029407D02*
X021505Y029407D01*
X021546Y029308D02*
X032391Y029308D01*
X032382Y029210D02*
X021566Y029210D01*
X021566Y029111D02*
X032382Y029111D01*
X032382Y029013D02*
X021540Y029013D01*
X021500Y028914D02*
X032402Y028914D01*
X032429Y028816D02*
X021409Y028816D01*
X021238Y028717D02*
X032455Y028717D01*
X032511Y028619D02*
X008480Y028619D01*
X008480Y028717D02*
X008834Y028717D01*
X008794Y028734D02*
X008967Y028662D01*
X009154Y028662D01*
X009327Y028734D01*
X009362Y028769D01*
X009362Y028769D01*
X009494Y028901D01*
X009566Y029074D01*
X009566Y029261D01*
X009494Y029434D01*
X009362Y029566D01*
X009189Y029637D01*
X009002Y029637D01*
X008830Y029566D01*
X008697Y029434D01*
X008697Y029434D01*
X008662Y029398D01*
X008590Y029225D01*
X008590Y029038D01*
X008662Y028866D01*
X008794Y028734D01*
X008712Y028816D02*
X008480Y028816D01*
X008500Y028914D02*
X008642Y028914D01*
X008601Y029013D02*
X008540Y029013D01*
X008566Y029111D02*
X008590Y029111D01*
X008590Y029210D02*
X008566Y029210D01*
X008546Y029308D02*
X008625Y029308D01*
X008670Y029407D02*
X008505Y029407D01*
X008423Y029505D02*
X008769Y029505D01*
X008921Y029604D02*
X008271Y029604D01*
X007921Y029604D02*
X007271Y029604D01*
X007423Y029505D02*
X007769Y029505D01*
X007670Y029407D02*
X007505Y029407D01*
X007546Y029308D02*
X007625Y029308D01*
X007590Y029210D02*
X007566Y029210D01*
X007566Y029111D02*
X007590Y029111D01*
X007601Y029013D02*
X007540Y029013D01*
X007500Y028914D02*
X007640Y028914D01*
X007640Y028816D02*
X007480Y028816D01*
X007480Y028717D02*
X007640Y028717D01*
X007640Y028619D02*
X007480Y028619D01*
X007480Y028520D02*
X007640Y028520D01*
X007640Y028422D02*
X007480Y028422D01*
X007480Y028323D02*
X007640Y028323D01*
X007640Y028225D02*
X007480Y028225D01*
X007480Y028126D02*
X007640Y028126D01*
X007640Y028028D02*
X007480Y028028D01*
X007480Y027929D02*
X007640Y027929D01*
X007640Y027831D02*
X007480Y027831D01*
X007480Y027732D02*
X007640Y027732D01*
X007640Y027634D02*
X007480Y027634D01*
X007480Y027535D02*
X007640Y027535D01*
X007640Y027437D02*
X007480Y027437D01*
X007480Y027338D02*
X007640Y027338D01*
X007640Y027240D02*
X007480Y027240D01*
X007480Y027141D02*
X007640Y027141D01*
X007640Y027043D02*
X007480Y027043D01*
X007480Y026944D02*
X007640Y026944D01*
X007640Y026846D02*
X007480Y026846D01*
X007480Y026747D02*
X007640Y026747D01*
X007640Y026649D02*
X007480Y026649D01*
X007480Y026550D02*
X007640Y026550D01*
X007640Y026452D02*
X007443Y026452D01*
X007382Y026353D02*
X007640Y026353D01*
X007640Y026255D02*
X007283Y026255D01*
X007185Y026156D02*
X007640Y026156D01*
X007640Y026058D02*
X007086Y026058D01*
X006988Y025959D02*
X007640Y025959D01*
X007640Y025861D02*
X006889Y025861D01*
X006791Y025762D02*
X007640Y025762D01*
X007640Y025664D02*
X006692Y025664D01*
X006594Y025565D02*
X007640Y025565D01*
X007650Y025467D02*
X006495Y025467D01*
X006397Y025368D02*
X007690Y025368D01*
X007644Y025278D02*
X007581Y025311D01*
X007514Y025333D01*
X007458Y025341D01*
X007458Y024644D01*
X007358Y024644D01*
X007358Y024544D01*
X006958Y024544D01*
X006958Y024258D01*
X006970Y024188D01*
X006991Y024121D01*
X007024Y024058D01*
X007065Y024000D01*
X007115Y023950D01*
X007173Y023909D01*
X007236Y023877D01*
X007303Y023855D01*
X007358Y023846D01*
X007358Y024544D01*
X007458Y024544D01*
X007458Y023846D01*
X007514Y023855D01*
X007581Y023877D01*
X007644Y023909D01*
X007702Y023950D01*
X007752Y024000D01*
X007793Y024058D01*
X007825Y024121D01*
X007847Y024188D01*
X007858Y024258D01*
X007858Y024544D01*
X007458Y024544D01*
X007458Y024644D01*
X007858Y024644D01*
X007858Y024929D01*
X007847Y024999D01*
X007825Y025066D01*
X007793Y025129D01*
X007752Y025187D01*
X007702Y025237D01*
X007644Y025278D01*
X007656Y025270D02*
X007769Y025270D01*
X007763Y025171D02*
X007864Y025171D01*
X007864Y025073D02*
X007822Y025073D01*
X007851Y024974D02*
X007864Y024974D01*
X007858Y024876D02*
X007864Y024876D01*
X007858Y024777D02*
X007864Y024777D01*
X007858Y024679D02*
X007864Y024679D01*
X007864Y024580D02*
X007458Y024580D01*
X007458Y024482D02*
X007358Y024482D01*
X007358Y024580D02*
X005954Y024580D01*
X005954Y024511D02*
X005954Y024511D01*
X005942Y024482D02*
X006958Y024482D01*
X006958Y024383D02*
X005901Y024383D01*
X005878Y024285D02*
X006958Y024285D01*
X006970Y024186D02*
X005873Y024186D01*
X005832Y024088D02*
X007008Y024088D01*
X007076Y023989D02*
X005828Y023989D01*
X005828Y023891D02*
X007208Y023891D01*
X007358Y023891D02*
X007458Y023891D01*
X007458Y023989D02*
X007358Y023989D01*
X007358Y024088D02*
X007458Y024088D01*
X007458Y024186D02*
X007358Y024186D01*
X007358Y024285D02*
X007458Y024285D01*
X007458Y024383D02*
X007358Y024383D01*
X007358Y024644D02*
X006958Y024644D01*
X006958Y024929D01*
X006970Y024999D01*
X006991Y025066D01*
X007024Y025129D01*
X007065Y025187D01*
X007115Y025237D01*
X007173Y025278D01*
X007236Y025311D01*
X007303Y025333D01*
X007358Y025341D01*
X007358Y024644D01*
X007358Y024679D02*
X007458Y024679D01*
X007458Y024777D02*
X007358Y024777D01*
X007358Y024876D02*
X007458Y024876D01*
X007458Y024974D02*
X007358Y024974D01*
X007358Y025073D02*
X007458Y025073D01*
X007458Y025171D02*
X007358Y025171D01*
X007358Y025270D02*
X007458Y025270D01*
X007161Y025270D02*
X006298Y025270D01*
X006200Y025171D02*
X007054Y025171D01*
X006995Y025073D02*
X006101Y025073D01*
X006003Y024974D02*
X006966Y024974D01*
X006958Y024876D02*
X005954Y024876D01*
X005954Y024777D02*
X006958Y024777D01*
X006958Y024679D02*
X005954Y024679D01*
X005828Y023792D02*
X007633Y023792D01*
X007609Y023891D02*
X007731Y023891D01*
X007740Y023989D02*
X007830Y023989D01*
X007809Y024088D02*
X007864Y024088D01*
X007864Y024186D02*
X007847Y024186D01*
X007858Y024285D02*
X007864Y024285D01*
X007858Y024383D02*
X007864Y024383D01*
X007858Y024482D02*
X007864Y024482D01*
X008704Y024482D02*
X008729Y024482D01*
X008729Y024580D02*
X008704Y024580D01*
X008704Y024679D02*
X008729Y024679D01*
X008729Y024777D02*
X008704Y024777D01*
X008704Y024876D02*
X008729Y024876D01*
X008729Y024875D02*
X008729Y024184D01*
X008794Y024026D01*
X008915Y023905D01*
X009073Y023840D01*
X009244Y023840D01*
X009402Y023905D01*
X009523Y024026D01*
X009589Y024184D01*
X009589Y024875D01*
X009523Y025033D01*
X009402Y025154D01*
X009244Y025220D01*
X009073Y025220D01*
X008915Y025154D01*
X008794Y025033D01*
X008729Y024875D01*
X008704Y024974D02*
X008770Y024974D01*
X008834Y025073D02*
X008704Y025073D01*
X008704Y025171D02*
X008956Y025171D01*
X008704Y025270D02*
X022579Y025270D01*
X022579Y025233D02*
X022629Y025112D01*
X022722Y025019D01*
X022772Y024969D01*
X022893Y024919D01*
X023341Y024919D01*
X023159Y024737D01*
X023159Y024323D01*
X023452Y024030D01*
X023866Y024030D01*
X024159Y024323D01*
X024452Y024030D01*
X024866Y024030D01*
X025129Y024292D01*
X025129Y021767D01*
X025079Y021817D01*
X025079Y022613D01*
X025015Y022768D01*
X024897Y022886D01*
X023897Y023886D01*
X023742Y023950D01*
X022447Y023950D01*
X022523Y024026D01*
X022589Y024184D01*
X022589Y024875D01*
X022523Y025033D01*
X022402Y025154D01*
X022244Y025220D01*
X022073Y025220D01*
X021915Y025154D01*
X021794Y025033D01*
X021729Y024875D01*
X021729Y024184D01*
X021794Y024026D01*
X021871Y023950D01*
X021447Y023950D01*
X021523Y024026D01*
X021589Y024184D01*
X021589Y024875D01*
X021523Y025033D01*
X021402Y025154D01*
X021244Y025220D01*
X021073Y025220D01*
X020915Y025154D01*
X020794Y025033D01*
X020729Y024875D01*
X020729Y024184D01*
X020794Y024026D01*
X020871Y023950D01*
X020447Y023950D01*
X020523Y024026D01*
X020589Y024184D01*
X020589Y024875D01*
X020523Y025033D01*
X020402Y025154D01*
X020244Y025220D01*
X020073Y025220D01*
X019915Y025154D01*
X019794Y025033D01*
X019729Y024875D01*
X019729Y024184D01*
X019794Y024026D01*
X019871Y023950D01*
X019447Y023950D01*
X019523Y024026D01*
X019589Y024184D01*
X019589Y024875D01*
X019523Y025033D01*
X019402Y025154D01*
X019244Y025220D01*
X019073Y025220D01*
X018915Y025154D01*
X018794Y025033D01*
X018729Y024875D01*
X018729Y024184D01*
X018794Y024026D01*
X018871Y023950D01*
X018447Y023950D01*
X018523Y024026D01*
X018589Y024184D01*
X018589Y024875D01*
X018523Y025033D01*
X018402Y025154D01*
X018244Y025220D01*
X018073Y025220D01*
X017915Y025154D01*
X017794Y025033D01*
X017729Y024875D01*
X017729Y024184D01*
X017794Y024026D01*
X017871Y023950D01*
X017447Y023950D01*
X017523Y024026D01*
X017589Y024184D01*
X017589Y024875D01*
X017523Y025033D01*
X017402Y025154D01*
X017244Y025220D01*
X017073Y025220D01*
X016915Y025154D01*
X016794Y025033D01*
X016729Y024875D01*
X016729Y024184D01*
X016794Y024026D01*
X016871Y023950D01*
X016447Y023950D01*
X016523Y024026D01*
X016589Y024184D01*
X016589Y024875D01*
X016523Y025033D01*
X016402Y025154D01*
X016244Y025220D01*
X016073Y025220D01*
X015915Y025154D01*
X015794Y025033D01*
X015729Y024875D01*
X015729Y024184D01*
X015794Y024026D01*
X015871Y023950D01*
X015447Y023950D01*
X015523Y024026D01*
X015589Y024184D01*
X015589Y024875D01*
X015523Y025033D01*
X015402Y025154D01*
X015244Y025220D01*
X015073Y025220D01*
X014915Y025154D01*
X014794Y025033D01*
X014729Y024875D01*
X014729Y024184D01*
X014794Y024026D01*
X014871Y023950D01*
X014447Y023950D01*
X014523Y024026D01*
X014589Y024184D01*
X014589Y024875D01*
X014523Y025033D01*
X014402Y025154D01*
X014244Y025220D01*
X014073Y025220D01*
X013915Y025154D01*
X013794Y025033D01*
X013729Y024875D01*
X013729Y024184D01*
X013794Y024026D01*
X013871Y023950D01*
X013416Y023950D01*
X013426Y023957D01*
X013472Y024003D01*
X013510Y024055D01*
X013539Y024112D01*
X013559Y024174D01*
X013569Y024237D01*
X013569Y024500D01*
X013189Y024500D01*
X013189Y024560D01*
X013129Y024560D01*
X013129Y025200D01*
X013127Y025200D01*
X013063Y025190D01*
X013001Y025170D01*
X012944Y025140D01*
X012892Y025102D01*
X012846Y025057D01*
X012808Y025005D01*
X012779Y024947D01*
X012759Y024886D01*
X012749Y024822D01*
X012749Y024560D01*
X013129Y024560D01*
X013129Y024500D01*
X012749Y024500D01*
X012749Y024237D01*
X012759Y024174D01*
X012779Y024112D01*
X012808Y024055D01*
X012846Y024003D01*
X012892Y023957D01*
X012902Y023950D01*
X012447Y023950D01*
X012523Y024026D01*
X012589Y024184D01*
X012589Y024875D01*
X012523Y025033D01*
X012402Y025154D01*
X012244Y025220D01*
X012073Y025220D01*
X011915Y025154D01*
X011794Y025033D01*
X011729Y024875D01*
X011729Y024184D01*
X011794Y024026D01*
X011871Y023950D01*
X011579Y023950D01*
X011579Y024160D01*
X011589Y024184D01*
X011589Y024875D01*
X011523Y025033D01*
X011402Y025154D01*
X011244Y025220D01*
X011073Y025220D01*
X010915Y025154D01*
X010794Y025033D01*
X010729Y024875D01*
X010729Y024184D01*
X010739Y024160D01*
X010739Y023446D01*
X010803Y023292D01*
X010921Y023174D01*
X011075Y023110D01*
X023485Y023110D01*
X024239Y022356D01*
X024239Y021817D01*
X024159Y021737D01*
X024159Y021323D01*
X024159Y021737D01*
X024079Y021817D01*
X024079Y022113D01*
X024015Y022268D01*
X023897Y022386D01*
X023397Y022886D01*
X023242Y022950D01*
X010833Y022950D01*
X010579Y023204D01*
X010579Y024160D01*
X010589Y024184D01*
X010589Y024875D01*
X010523Y025033D01*
X010402Y025154D01*
X010244Y025220D01*
X010073Y025220D01*
X009915Y025154D01*
X009794Y025033D01*
X009729Y024875D01*
X009729Y024184D01*
X009739Y024160D01*
X009739Y022946D01*
X009803Y022792D01*
X010303Y022292D01*
X010421Y022174D01*
X010575Y022110D01*
X010902Y022110D01*
X010892Y022102D01*
X010846Y022057D01*
X010808Y022005D01*
X010779Y021947D01*
X010759Y021886D01*
X010749Y021822D01*
X010749Y021560D01*
X011129Y021560D01*
X011129Y021500D01*
X010749Y021500D01*
X010749Y021237D01*
X010759Y021174D01*
X010779Y021112D01*
X010808Y021055D01*
X010846Y021003D01*
X010892Y020957D01*
X010944Y020919D01*
X011001Y020890D01*
X011063Y020870D01*
X011127Y020860D01*
X011129Y020860D01*
X011129Y021500D01*
X011189Y021500D01*
X011189Y021560D01*
X011569Y021560D01*
X011569Y021822D01*
X011559Y021886D01*
X011539Y021947D01*
X011510Y022005D01*
X011472Y022057D01*
X011426Y022102D01*
X011416Y022110D01*
X011871Y022110D01*
X011794Y022033D01*
X011729Y021875D01*
X011729Y021184D01*
X011739Y021160D01*
X011739Y020317D01*
X011659Y020237D01*
X011659Y019823D01*
X011852Y019629D01*
X011393Y019629D01*
X011272Y019579D01*
X011179Y019486D01*
X010819Y019126D01*
X010819Y019126D01*
X010783Y019090D01*
X010737Y019090D01*
X010637Y018990D01*
X010637Y018885D01*
X010563Y018707D01*
X010563Y018480D01*
X010650Y018271D01*
X010811Y018110D01*
X011020Y018024D01*
X011247Y018024D01*
X011456Y018110D01*
X011617Y018271D01*
X011697Y018465D01*
X011724Y018382D01*
X011763Y018305D01*
X011814Y018235D01*
X011875Y018174D01*
X011945Y018123D01*
X012022Y018084D01*
X012105Y018057D01*
X012183Y018045D01*
X012183Y018544D01*
X012283Y018544D01*
X012283Y018045D01*
X012362Y018057D01*
X012445Y018084D01*
X012522Y018123D01*
X012592Y018174D01*
X012653Y018235D01*
X012704Y018305D01*
X012743Y018382D01*
X012770Y018465D01*
X012782Y018544D01*
X012283Y018544D01*
X012283Y018644D01*
X012782Y018644D01*
X012770Y018722D01*
X012743Y018805D01*
X012704Y018882D01*
X012653Y018952D01*
X012636Y018969D01*
X012724Y018969D01*
X012846Y019019D01*
X013146Y019319D01*
X013238Y019412D01*
X013289Y019533D01*
X013289Y020319D01*
X021541Y020319D01*
X021541Y020276D01*
X021597Y020141D01*
X021700Y020037D01*
X021835Y019981D01*
X021982Y019981D01*
X022117Y020037D01*
X022221Y020141D01*
X022277Y020276D01*
X022277Y020319D01*
X025024Y020319D01*
X025129Y020362D01*
X025129Y017535D01*
X025079Y017415D01*
X025079Y017283D01*
X025122Y017179D01*
X023343Y017179D01*
X023222Y017129D01*
X023129Y017036D01*
X022722Y016629D01*
X022542Y016449D01*
X022450Y016411D01*
X022347Y016308D01*
X022308Y016216D01*
X021629Y015536D01*
X020841Y014749D01*
X013697Y014749D01*
X013662Y014783D01*
X013504Y014849D01*
X012813Y014849D01*
X012655Y014783D01*
X012534Y014662D01*
X012468Y014504D01*
X012468Y014333D01*
X012534Y014175D01*
X012655Y014054D01*
X012813Y013989D01*
X013504Y013989D01*
X013662Y014054D01*
X013697Y014089D01*
X021044Y014089D01*
X021165Y014139D01*
X022096Y015069D01*
X022775Y015749D01*
X022867Y015787D01*
X022971Y015891D01*
X023009Y015983D01*
X023188Y016162D01*
X023545Y016519D01*
X030974Y016519D01*
X031096Y016569D01*
X031596Y017069D01*
X032045Y017519D01*
X032557Y017519D01*
X032456Y017344D01*
X032382Y017069D01*
X032382Y016785D01*
X032410Y016679D01*
X031343Y016679D01*
X031222Y016629D01*
X031129Y016536D01*
X030772Y016179D01*
X023343Y016179D01*
X023222Y016129D01*
X023129Y016036D01*
X022129Y015036D01*
X020772Y013679D01*
X014574Y013679D01*
X014482Y013717D01*
X014335Y013717D01*
X014200Y013661D01*
X014097Y013558D01*
X014041Y013422D01*
X014041Y013276D01*
X014097Y013141D01*
X014200Y013037D01*
X014335Y012981D01*
X014482Y012981D01*
X014574Y013019D01*
X020974Y013019D01*
X021096Y013069D01*
X022596Y014569D01*
X023545Y015519D01*
X030974Y015519D01*
X031096Y015569D01*
X031545Y016019D01*
X032272Y016019D01*
X032612Y015679D01*
X031343Y015679D01*
X031222Y015629D01*
X031129Y015536D01*
X030772Y015179D01*
X023343Y015179D01*
X023222Y015129D01*
X023129Y015036D01*
X022129Y014036D01*
X020841Y012749D01*
X013697Y012749D01*
X013662Y012783D01*
X013504Y012849D01*
X012813Y012849D01*
X012655Y012783D01*
X012534Y012662D01*
X012468Y012504D01*
X012468Y012333D01*
X012534Y012175D01*
X012655Y012054D01*
X012813Y011989D01*
X013504Y011989D01*
X013662Y012054D01*
X013697Y012089D01*
X021044Y012089D01*
X021165Y012139D01*
X022596Y013569D01*
X023545Y014519D01*
X030974Y014519D01*
X031041Y014547D01*
X031041Y014448D01*
X030772Y014179D01*
X023343Y014179D01*
X023222Y014129D01*
X023129Y014036D01*
X022129Y013036D01*
X020772Y011679D01*
X014843Y011679D01*
X014722Y011629D01*
X013841Y010749D01*
X013697Y010749D01*
X013662Y010783D01*
X013504Y010849D01*
X012813Y010849D01*
X012655Y010783D01*
X012534Y010662D01*
X012468Y010504D01*
X012468Y010333D01*
X012534Y010175D01*
X012655Y010054D01*
X012813Y009989D01*
X013504Y009989D01*
X013662Y010054D01*
X013697Y010089D01*
X013702Y010089D01*
X013722Y010069D01*
X013843Y010019D01*
X013974Y010019D01*
X014096Y010069D01*
X014188Y010162D01*
X015045Y011019D01*
X020974Y011019D01*
X021096Y011069D01*
X021188Y011162D01*
X022596Y012569D01*
X023545Y013519D01*
X030974Y013519D01*
X031041Y013547D01*
X031041Y013448D01*
X030772Y013179D01*
X023343Y013179D01*
X023222Y013129D01*
X023129Y013036D01*
X022222Y012129D01*
X022222Y012129D01*
X020772Y010679D01*
X015343Y010679D01*
X015222Y010629D01*
X015129Y010536D01*
X014292Y009699D01*
X014200Y009661D01*
X014097Y009558D01*
X014041Y009422D01*
X014041Y009276D01*
X014097Y009141D01*
X014200Y009037D01*
X014335Y008981D01*
X014482Y008981D01*
X014617Y009037D01*
X014721Y009141D01*
X014759Y009233D01*
X015545Y010019D01*
X020974Y010019D01*
X021096Y010069D01*
X022688Y011662D01*
X022688Y011662D01*
X023545Y012519D01*
X030974Y012519D01*
X031096Y012569D01*
X031507Y012981D01*
X031677Y012981D01*
X031777Y013081D01*
X031777Y013618D01*
X031677Y013717D01*
X031243Y013717D01*
X031507Y013981D01*
X031677Y013981D01*
X031777Y014081D01*
X031777Y014618D01*
X031677Y014717D01*
X031243Y014717D01*
X031545Y015019D01*
X034272Y015019D01*
X035129Y014162D01*
X035629Y013662D01*
X035722Y013569D01*
X035843Y013519D01*
X036112Y013519D01*
X036060Y013467D01*
X035890Y013467D01*
X035791Y013368D01*
X035791Y012831D01*
X035890Y012731D01*
X036427Y012731D01*
X036527Y012831D01*
X036527Y013001D01*
X036545Y013019D01*
X039272Y013019D01*
X039579Y012712D01*
X039579Y008986D01*
X039452Y008860D01*
X039036Y008860D01*
X038942Y008953D01*
X038758Y009030D01*
X038559Y009030D01*
X038376Y008953D01*
X038235Y008813D01*
X038159Y008629D01*
X038159Y008430D01*
X038235Y008246D01*
X038376Y008106D01*
X038559Y008030D01*
X038758Y008030D01*
X038942Y008106D01*
X039036Y008200D01*
X039655Y008200D01*
X039776Y008250D01*
X040096Y008569D01*
X040188Y008662D01*
X040239Y008783D01*
X040239Y012915D01*
X040188Y013036D01*
X039688Y013536D01*
X039596Y013629D01*
X039474Y013679D01*
X038705Y013679D01*
X039096Y014069D01*
X039188Y014162D01*
X039239Y014283D01*
X039239Y015915D01*
X039188Y016036D01*
X039096Y016129D01*
X038921Y016304D01*
X038799Y016354D01*
X038018Y016354D01*
X037878Y016494D01*
X037489Y016494D01*
X037214Y016219D01*
X037214Y015829D01*
X037489Y015554D01*
X037878Y015554D01*
X038018Y015694D01*
X038579Y015694D01*
X038579Y014486D01*
X038272Y014179D01*
X036045Y014179D01*
X035596Y014629D01*
X034705Y015519D01*
X034772Y015519D01*
X035547Y014744D01*
X035668Y014694D01*
X036349Y014694D01*
X036489Y014554D01*
X036878Y014554D01*
X037154Y014829D01*
X037154Y015219D01*
X036878Y015494D01*
X036489Y015494D01*
X036349Y015354D01*
X035870Y015354D01*
X035743Y015481D01*
X036177Y015481D01*
X036277Y015581D01*
X036277Y015766D01*
X036489Y015554D01*
X036878Y015554D01*
X037154Y015829D01*
X037154Y016219D01*
X036878Y016494D01*
X036489Y016494D01*
X036214Y016219D01*
X036214Y016181D01*
X036177Y016217D01*
X036007Y016217D01*
X035239Y016986D01*
X035239Y017415D01*
X035188Y017536D01*
X034688Y018036D01*
X034596Y018129D01*
X034474Y018179D01*
X031843Y018179D01*
X031722Y018129D01*
X031129Y017536D01*
X030772Y017179D01*
X030205Y017179D01*
X030507Y017481D01*
X030677Y017481D01*
X030777Y017581D01*
X030777Y018118D01*
X030677Y018217D01*
X030140Y018217D01*
X030041Y018118D01*
X030041Y017948D01*
X029772Y017679D01*
X025789Y017679D01*
X025789Y025262D01*
X026045Y025519D01*
X026274Y025519D01*
X026342Y025451D01*
X026515Y025379D01*
X027302Y025379D01*
X027475Y025451D01*
X027607Y025583D01*
X027679Y025756D01*
X027679Y025943D01*
X027607Y026115D01*
X027475Y026248D01*
X027302Y026319D01*
X026515Y026319D01*
X026342Y026248D01*
X026274Y026179D01*
X025843Y026179D01*
X025722Y026129D01*
X025629Y026036D01*
X025179Y025586D01*
X025176Y025578D01*
X025174Y025579D01*
X023239Y025579D01*
X023239Y026530D01*
X023366Y026530D01*
X023659Y026823D01*
X023659Y027237D01*
X023366Y027530D01*
X023659Y027823D01*
X023659Y028237D01*
X023366Y028530D01*
X022952Y028530D01*
X022659Y028237D01*
X022659Y027823D01*
X022952Y027530D01*
X022659Y027237D01*
X022659Y026996D01*
X022629Y026966D01*
X022579Y026845D01*
X022579Y025233D01*
X022604Y025171D02*
X022361Y025171D01*
X022484Y025073D02*
X022668Y025073D01*
X022767Y024974D02*
X022548Y024974D01*
X022589Y024876D02*
X023298Y024876D01*
X023199Y024777D02*
X022589Y024777D01*
X022589Y024679D02*
X023159Y024679D01*
X023159Y024580D02*
X022589Y024580D01*
X022589Y024482D02*
X023159Y024482D01*
X023159Y024383D02*
X022589Y024383D01*
X022589Y024285D02*
X023197Y024285D01*
X023295Y024186D02*
X022589Y024186D01*
X022549Y024088D02*
X023394Y024088D01*
X023885Y023891D02*
X025129Y023891D01*
X025129Y023989D02*
X022487Y023989D01*
X021831Y023989D02*
X021487Y023989D01*
X021549Y024088D02*
X021769Y024088D01*
X021729Y024186D02*
X021589Y024186D01*
X021589Y024285D02*
X021729Y024285D01*
X021729Y024383D02*
X021589Y024383D01*
X021589Y024482D02*
X021729Y024482D01*
X021729Y024580D02*
X021589Y024580D01*
X021589Y024679D02*
X021729Y024679D01*
X021729Y024777D02*
X021589Y024777D01*
X021589Y024876D02*
X021729Y024876D01*
X021770Y024974D02*
X021548Y024974D01*
X021484Y025073D02*
X021834Y025073D01*
X021956Y025171D02*
X021361Y025171D01*
X020956Y025171D02*
X020361Y025171D01*
X020484Y025073D02*
X020834Y025073D01*
X020770Y024974D02*
X020548Y024974D01*
X020589Y024876D02*
X020729Y024876D01*
X020729Y024777D02*
X020589Y024777D01*
X020589Y024679D02*
X020729Y024679D01*
X020729Y024580D02*
X020589Y024580D01*
X020589Y024482D02*
X020729Y024482D01*
X020729Y024383D02*
X020589Y024383D01*
X020589Y024285D02*
X020729Y024285D01*
X020729Y024186D02*
X020589Y024186D01*
X020549Y024088D02*
X020769Y024088D01*
X020831Y023989D02*
X020487Y023989D01*
X019831Y023989D02*
X019487Y023989D01*
X019549Y024088D02*
X019769Y024088D01*
X019729Y024186D02*
X019589Y024186D01*
X019589Y024285D02*
X019729Y024285D01*
X019729Y024383D02*
X019589Y024383D01*
X019589Y024482D02*
X019729Y024482D01*
X019729Y024580D02*
X019589Y024580D01*
X019589Y024679D02*
X019729Y024679D01*
X019729Y024777D02*
X019589Y024777D01*
X019589Y024876D02*
X019729Y024876D01*
X019770Y024974D02*
X019548Y024974D01*
X019484Y025073D02*
X019834Y025073D01*
X019956Y025171D02*
X019361Y025171D01*
X018956Y025171D02*
X018361Y025171D01*
X018484Y025073D02*
X018834Y025073D01*
X018770Y024974D02*
X018548Y024974D01*
X018589Y024876D02*
X018729Y024876D01*
X018729Y024777D02*
X018589Y024777D01*
X018589Y024679D02*
X018729Y024679D01*
X018729Y024580D02*
X018589Y024580D01*
X018589Y024482D02*
X018729Y024482D01*
X018729Y024383D02*
X018589Y024383D01*
X018589Y024285D02*
X018729Y024285D01*
X018729Y024186D02*
X018589Y024186D01*
X018549Y024088D02*
X018769Y024088D01*
X018831Y023989D02*
X018487Y023989D01*
X017831Y023989D02*
X017487Y023989D01*
X017549Y024088D02*
X017769Y024088D01*
X017729Y024186D02*
X017589Y024186D01*
X017589Y024285D02*
X017729Y024285D01*
X017729Y024383D02*
X017589Y024383D01*
X017589Y024482D02*
X017729Y024482D01*
X017729Y024580D02*
X017589Y024580D01*
X017589Y024679D02*
X017729Y024679D01*
X017729Y024777D02*
X017589Y024777D01*
X017589Y024876D02*
X017729Y024876D01*
X017770Y024974D02*
X017548Y024974D01*
X017484Y025073D02*
X017834Y025073D01*
X017956Y025171D02*
X017361Y025171D01*
X016956Y025171D02*
X016361Y025171D01*
X016484Y025073D02*
X016834Y025073D01*
X016770Y024974D02*
X016548Y024974D01*
X016589Y024876D02*
X016729Y024876D01*
X016729Y024777D02*
X016589Y024777D01*
X016589Y024679D02*
X016729Y024679D01*
X016729Y024580D02*
X016589Y024580D01*
X016589Y024482D02*
X016729Y024482D01*
X016729Y024383D02*
X016589Y024383D01*
X016589Y024285D02*
X016729Y024285D01*
X016729Y024186D02*
X016589Y024186D01*
X016549Y024088D02*
X016769Y024088D01*
X016831Y023989D02*
X016487Y023989D01*
X015831Y023989D02*
X015487Y023989D01*
X015549Y024088D02*
X015769Y024088D01*
X015729Y024186D02*
X015589Y024186D01*
X015589Y024285D02*
X015729Y024285D01*
X015729Y024383D02*
X015589Y024383D01*
X015589Y024482D02*
X015729Y024482D01*
X015729Y024580D02*
X015589Y024580D01*
X015589Y024679D02*
X015729Y024679D01*
X015729Y024777D02*
X015589Y024777D01*
X015589Y024876D02*
X015729Y024876D01*
X015770Y024974D02*
X015548Y024974D01*
X015484Y025073D02*
X015834Y025073D01*
X015956Y025171D02*
X015361Y025171D01*
X014956Y025171D02*
X014361Y025171D01*
X014484Y025073D02*
X014834Y025073D01*
X014770Y024974D02*
X014548Y024974D01*
X014589Y024876D02*
X014729Y024876D01*
X014729Y024777D02*
X014589Y024777D01*
X014589Y024679D02*
X014729Y024679D01*
X014729Y024580D02*
X014589Y024580D01*
X014589Y024482D02*
X014729Y024482D01*
X014729Y024383D02*
X014589Y024383D01*
X014589Y024285D02*
X014729Y024285D01*
X014729Y024186D02*
X014589Y024186D01*
X014549Y024088D02*
X014769Y024088D01*
X014831Y023989D02*
X014487Y023989D01*
X013831Y023989D02*
X013458Y023989D01*
X013526Y024088D02*
X013769Y024088D01*
X013729Y024186D02*
X013561Y024186D01*
X013569Y024285D02*
X013729Y024285D01*
X013729Y024383D02*
X013569Y024383D01*
X013569Y024482D02*
X013729Y024482D01*
X013729Y024580D02*
X013569Y024580D01*
X013569Y024560D02*
X013569Y024822D01*
X013559Y024886D01*
X013539Y024947D01*
X013510Y025005D01*
X013472Y025057D01*
X013426Y025102D01*
X013374Y025140D01*
X013316Y025170D01*
X013255Y025190D01*
X013191Y025200D01*
X013189Y025200D01*
X013189Y024560D01*
X013569Y024560D01*
X013569Y024679D02*
X013729Y024679D01*
X013729Y024777D02*
X013569Y024777D01*
X013560Y024876D02*
X013729Y024876D01*
X013770Y024974D02*
X013525Y024974D01*
X013456Y025073D02*
X013834Y025073D01*
X013956Y025171D02*
X013311Y025171D01*
X013189Y025171D02*
X013129Y025171D01*
X013129Y025073D02*
X013189Y025073D01*
X013189Y024974D02*
X013129Y024974D01*
X013129Y024876D02*
X013189Y024876D01*
X013189Y024777D02*
X013129Y024777D01*
X013129Y024679D02*
X013189Y024679D01*
X013189Y024580D02*
X013129Y024580D01*
X012749Y024580D02*
X012589Y024580D01*
X012589Y024482D02*
X012749Y024482D01*
X012749Y024383D02*
X012589Y024383D01*
X012589Y024285D02*
X012749Y024285D01*
X012757Y024186D02*
X012589Y024186D01*
X012549Y024088D02*
X012791Y024088D01*
X012859Y023989D02*
X012487Y023989D01*
X011831Y023989D02*
X011579Y023989D01*
X011579Y024088D02*
X011769Y024088D01*
X011729Y024186D02*
X011589Y024186D01*
X011589Y024285D02*
X011729Y024285D01*
X011729Y024383D02*
X011589Y024383D01*
X011589Y024482D02*
X011729Y024482D01*
X011729Y024580D02*
X011589Y024580D01*
X011589Y024679D02*
X011729Y024679D01*
X011729Y024777D02*
X011589Y024777D01*
X011589Y024876D02*
X011729Y024876D01*
X011770Y024974D02*
X011548Y024974D01*
X011484Y025073D02*
X011834Y025073D01*
X011956Y025171D02*
X011361Y025171D01*
X010956Y025171D02*
X010361Y025171D01*
X010484Y025073D02*
X010834Y025073D01*
X010770Y024974D02*
X010548Y024974D01*
X010589Y024876D02*
X010729Y024876D01*
X010729Y024777D02*
X010589Y024777D01*
X010589Y024679D02*
X010729Y024679D01*
X010729Y024580D02*
X010589Y024580D01*
X010589Y024482D02*
X010729Y024482D01*
X010729Y024383D02*
X010589Y024383D01*
X010589Y024285D02*
X010729Y024285D01*
X010729Y024186D02*
X010589Y024186D01*
X010579Y024088D02*
X010739Y024088D01*
X010739Y023989D02*
X010579Y023989D01*
X010579Y023891D02*
X010739Y023891D01*
X010739Y023792D02*
X010579Y023792D01*
X010579Y023694D02*
X010739Y023694D01*
X010739Y023595D02*
X010579Y023595D01*
X010579Y023497D02*
X010739Y023497D01*
X010759Y023398D02*
X010579Y023398D01*
X010579Y023300D02*
X010800Y023300D01*
X010893Y023201D02*
X010581Y023201D01*
X010680Y023103D02*
X023492Y023103D01*
X023590Y023004D02*
X010778Y023004D01*
X010181Y022413D02*
X007142Y022413D01*
X007178Y022512D02*
X010083Y022512D01*
X009984Y022610D02*
X007178Y022610D01*
X007170Y022709D02*
X009886Y022709D01*
X009796Y022807D02*
X007129Y022807D01*
X007061Y022906D02*
X009756Y022906D01*
X009739Y023004D02*
X008033Y023004D01*
X008131Y023103D02*
X009739Y023103D01*
X009739Y023201D02*
X008230Y023201D01*
X008328Y023300D02*
X009739Y023300D01*
X009739Y023398D02*
X008427Y023398D01*
X008525Y023497D02*
X009739Y023497D01*
X009739Y023595D02*
X008624Y023595D01*
X008674Y023694D02*
X009739Y023694D01*
X009739Y023792D02*
X008704Y023792D01*
X008704Y023891D02*
X008950Y023891D01*
X008831Y023989D02*
X008704Y023989D01*
X008704Y024088D02*
X008769Y024088D01*
X008729Y024186D02*
X008704Y024186D01*
X008704Y024285D02*
X008729Y024285D01*
X008729Y024383D02*
X008704Y024383D01*
X009368Y023891D02*
X009739Y023891D01*
X009739Y023989D02*
X009487Y023989D01*
X009549Y024088D02*
X009739Y024088D01*
X009729Y024186D02*
X009589Y024186D01*
X009589Y024285D02*
X009729Y024285D01*
X009729Y024383D02*
X009589Y024383D01*
X009589Y024482D02*
X009729Y024482D01*
X009729Y024580D02*
X009589Y024580D01*
X009589Y024679D02*
X009729Y024679D01*
X009729Y024777D02*
X009589Y024777D01*
X009589Y024876D02*
X009729Y024876D01*
X009770Y024974D02*
X009548Y024974D01*
X009484Y025073D02*
X009834Y025073D01*
X009956Y025171D02*
X009361Y025171D01*
X008704Y025368D02*
X022579Y025368D01*
X022579Y025467D02*
X008690Y025467D01*
X008649Y025565D02*
X022579Y025565D01*
X022579Y025664D02*
X008563Y025664D01*
X008480Y025762D02*
X022579Y025762D01*
X022579Y025861D02*
X008480Y025861D01*
X008480Y025959D02*
X022579Y025959D01*
X022579Y026058D02*
X008480Y026058D01*
X008480Y026156D02*
X022579Y026156D01*
X022579Y026255D02*
X008480Y026255D01*
X008480Y026353D02*
X022579Y026353D01*
X022579Y026452D02*
X008480Y026452D01*
X008480Y026550D02*
X019931Y026550D01*
X019952Y026530D02*
X019659Y026823D01*
X019659Y027237D01*
X019952Y027530D01*
X020366Y027530D01*
X020659Y027823D01*
X020659Y028237D01*
X020366Y028530D01*
X019952Y028530D01*
X019659Y028237D01*
X019659Y027823D01*
X019952Y027530D01*
X020366Y027530D01*
X020659Y027237D01*
X020659Y026823D01*
X020366Y026530D01*
X019952Y026530D01*
X019833Y026649D02*
X008480Y026649D01*
X008480Y026747D02*
X019734Y026747D01*
X019659Y026846D02*
X008480Y026846D01*
X008480Y026944D02*
X019659Y026944D01*
X019659Y027043D02*
X008480Y027043D01*
X008480Y027141D02*
X019659Y027141D01*
X019662Y027240D02*
X008480Y027240D01*
X008480Y027338D02*
X019760Y027338D01*
X019859Y027437D02*
X008480Y027437D01*
X008480Y027535D02*
X019946Y027535D01*
X019848Y027634D02*
X008480Y027634D01*
X008480Y027732D02*
X019749Y027732D01*
X019659Y027831D02*
X008480Y027831D01*
X008480Y027929D02*
X019659Y027929D01*
X019659Y028028D02*
X008480Y028028D01*
X008480Y028126D02*
X019659Y028126D01*
X019659Y028225D02*
X008480Y028225D01*
X008480Y028323D02*
X019745Y028323D01*
X019844Y028422D02*
X008480Y028422D01*
X008480Y028520D02*
X019942Y028520D01*
X019967Y028662D02*
X020154Y028662D01*
X020327Y028734D01*
X020459Y028866D01*
X020494Y028901D01*
X020566Y029074D01*
X020566Y029261D01*
X020494Y029434D01*
X020362Y029566D01*
X020189Y029637D01*
X020002Y029637D01*
X019830Y029566D01*
X019794Y029530D01*
X019794Y029530D01*
X019662Y029398D01*
X019590Y029225D01*
X019590Y029038D01*
X019662Y028866D01*
X019794Y028734D01*
X019967Y028662D01*
X019834Y028717D02*
X019287Y028717D01*
X019327Y028734D02*
X019459Y028866D01*
X019494Y028901D01*
X019566Y029074D01*
X019566Y029261D01*
X019494Y029434D01*
X019362Y029566D01*
X019189Y029637D01*
X019002Y029637D01*
X018830Y029566D01*
X018794Y029530D01*
X018794Y029530D01*
X018662Y029398D01*
X018590Y029225D01*
X018590Y029038D01*
X018662Y028866D01*
X018794Y028734D01*
X018967Y028662D01*
X019154Y028662D01*
X019327Y028734D01*
X019409Y028816D02*
X019712Y028816D01*
X019642Y028914D02*
X019500Y028914D01*
X019459Y028866D02*
X019459Y028866D01*
X019540Y029013D02*
X019601Y029013D01*
X019590Y029111D02*
X019566Y029111D01*
X019566Y029210D02*
X019590Y029210D01*
X019625Y029308D02*
X019546Y029308D01*
X019505Y029407D02*
X019670Y029407D01*
X019769Y029505D02*
X019423Y029505D01*
X019271Y029604D02*
X019921Y029604D01*
X020271Y029604D02*
X020921Y029604D01*
X020769Y029505D02*
X020423Y029505D01*
X020505Y029407D02*
X020686Y029407D01*
X020645Y029308D02*
X020546Y029308D01*
X020566Y029210D02*
X020617Y029210D01*
X020626Y029111D02*
X020566Y029111D01*
X020540Y029013D02*
X020626Y029013D01*
X020666Y028914D02*
X020500Y028914D01*
X020459Y028866D02*
X020459Y028866D01*
X020409Y028816D02*
X020740Y028816D01*
X020883Y028717D02*
X020287Y028717D01*
X020375Y028520D02*
X022942Y028520D01*
X022844Y028422D02*
X020474Y028422D01*
X020572Y028323D02*
X022745Y028323D01*
X022659Y028225D02*
X020659Y028225D01*
X020659Y028126D02*
X022659Y028126D01*
X022659Y028028D02*
X020659Y028028D01*
X020659Y027929D02*
X022659Y027929D01*
X022659Y027831D02*
X020659Y027831D01*
X020569Y027732D02*
X022749Y027732D01*
X022848Y027634D02*
X020470Y027634D01*
X020372Y027535D02*
X022946Y027535D01*
X022952Y027530D02*
X023366Y027530D01*
X022952Y027530D01*
X022859Y027437D02*
X020459Y027437D01*
X020557Y027338D02*
X022760Y027338D01*
X022662Y027240D02*
X020656Y027240D01*
X020659Y027141D02*
X022659Y027141D01*
X022659Y027043D02*
X020659Y027043D01*
X020659Y026944D02*
X022620Y026944D01*
X022579Y026846D02*
X020659Y026846D01*
X020584Y026747D02*
X022579Y026747D01*
X022579Y026649D02*
X020485Y026649D01*
X020387Y026550D02*
X022579Y026550D01*
X023239Y026452D02*
X040409Y026452D01*
X040409Y026550D02*
X023387Y026550D01*
X023485Y026649D02*
X040409Y026649D01*
X040409Y026747D02*
X023584Y026747D01*
X023659Y026846D02*
X040409Y026846D01*
X040409Y026944D02*
X023659Y026944D01*
X023659Y027043D02*
X040409Y027043D01*
X040409Y027141D02*
X023659Y027141D01*
X023656Y027240D02*
X040409Y027240D01*
X040409Y027338D02*
X023557Y027338D01*
X023459Y027437D02*
X040409Y027437D01*
X040409Y027535D02*
X023372Y027535D01*
X023470Y027634D02*
X040409Y027634D01*
X040409Y027732D02*
X023569Y027732D01*
X023659Y027831D02*
X040409Y027831D01*
X040409Y027929D02*
X023659Y027929D01*
X023659Y028028D02*
X040409Y028028D01*
X040409Y028126D02*
X040044Y028126D01*
X040284Y028225D02*
X040409Y028225D01*
X039471Y028126D02*
X033880Y028126D01*
X034050Y028225D02*
X039230Y028225D01*
X039074Y028323D02*
X034180Y028323D01*
X034279Y028422D02*
X038976Y028422D01*
X038884Y028520D02*
X034356Y028520D01*
X034413Y028619D02*
X038827Y028619D01*
X038770Y028717D02*
X034469Y028717D01*
X034495Y028816D02*
X038734Y028816D01*
X038707Y028914D02*
X034522Y028914D01*
X034542Y029013D02*
X038681Y029013D01*
X038677Y029111D02*
X034542Y029111D01*
X034542Y029210D02*
X038677Y029210D01*
X038677Y029308D02*
X034533Y029308D01*
X034506Y029407D02*
X038703Y029407D01*
X038730Y029505D02*
X034480Y029505D01*
X034437Y029604D02*
X038762Y029604D01*
X038819Y029702D02*
X034380Y029702D01*
X034321Y029801D02*
X038876Y029801D01*
X040409Y026353D02*
X023239Y026353D01*
X023239Y026255D02*
X026360Y026255D01*
X025788Y026156D02*
X023239Y026156D01*
X023239Y026058D02*
X025651Y026058D01*
X025552Y025959D02*
X023239Y025959D01*
X023239Y025861D02*
X025454Y025861D01*
X025355Y025762D02*
X023239Y025762D01*
X023239Y025664D02*
X025257Y025664D01*
X025894Y025368D02*
X040409Y025368D01*
X040409Y025270D02*
X027422Y025270D01*
X027475Y025248D02*
X027302Y025319D01*
X026515Y025319D01*
X026342Y025248D01*
X026210Y025115D01*
X026139Y024943D01*
X026139Y024756D01*
X026210Y024583D01*
X026342Y024451D01*
X026515Y024379D01*
X027302Y024379D01*
X027475Y024451D01*
X027607Y024583D01*
X027679Y024756D01*
X027679Y024943D01*
X027607Y025115D01*
X027475Y025248D01*
X027551Y025171D02*
X040409Y025171D01*
X040409Y025073D02*
X027625Y025073D01*
X027666Y024974D02*
X040409Y024974D01*
X040409Y024876D02*
X027679Y024876D01*
X027679Y024777D02*
X040409Y024777D01*
X040409Y024679D02*
X027647Y024679D01*
X027604Y024580D02*
X040409Y024580D01*
X040409Y024482D02*
X027506Y024482D01*
X027312Y024383D02*
X040409Y024383D01*
X040409Y024285D02*
X027385Y024285D01*
X027302Y024319D02*
X027475Y024248D01*
X027607Y024115D01*
X027679Y023943D01*
X027679Y023756D01*
X027607Y023583D01*
X027475Y023451D01*
X027302Y023379D01*
X026515Y023379D01*
X026342Y023451D01*
X026210Y023583D01*
X026139Y023756D01*
X026139Y023943D01*
X026210Y024115D01*
X026342Y024248D01*
X026515Y024319D01*
X027302Y024319D01*
X027536Y024186D02*
X040409Y024186D01*
X040409Y024088D02*
X027619Y024088D01*
X027659Y023989D02*
X040409Y023989D01*
X040409Y023891D02*
X027679Y023891D01*
X027679Y023792D02*
X040409Y023792D01*
X040409Y023694D02*
X027653Y023694D01*
X027612Y023595D02*
X040409Y023595D01*
X040409Y023497D02*
X027521Y023497D01*
X027348Y023398D02*
X040409Y023398D01*
X040409Y023300D02*
X025789Y023300D01*
X025789Y023398D02*
X026469Y023398D01*
X026296Y023497D02*
X025789Y023497D01*
X025789Y023595D02*
X026205Y023595D01*
X026164Y023694D02*
X025789Y023694D01*
X025789Y023792D02*
X026139Y023792D01*
X026139Y023891D02*
X025789Y023891D01*
X025789Y023989D02*
X026158Y023989D01*
X026199Y024088D02*
X025789Y024088D01*
X025789Y024186D02*
X026281Y024186D01*
X026432Y024285D02*
X025789Y024285D01*
X025789Y024383D02*
X026505Y024383D01*
X026311Y024482D02*
X025789Y024482D01*
X025789Y024580D02*
X026213Y024580D01*
X026171Y024679D02*
X025789Y024679D01*
X025789Y024777D02*
X026139Y024777D01*
X026139Y024876D02*
X025789Y024876D01*
X025789Y024974D02*
X026152Y024974D01*
X026193Y025073D02*
X025789Y025073D01*
X025789Y025171D02*
X026266Y025171D01*
X026396Y025270D02*
X025796Y025270D01*
X025993Y025467D02*
X026326Y025467D01*
X027491Y025467D02*
X040409Y025467D01*
X040409Y025565D02*
X027589Y025565D01*
X027641Y025664D02*
X040409Y025664D01*
X040409Y025762D02*
X027679Y025762D01*
X027679Y025861D02*
X040409Y025861D01*
X040409Y025959D02*
X027672Y025959D01*
X027631Y026058D02*
X040409Y026058D01*
X040409Y026156D02*
X027566Y026156D01*
X027458Y026255D02*
X040409Y026255D01*
X040409Y023201D02*
X025789Y023201D01*
X025789Y023103D02*
X040409Y023103D01*
X040409Y023004D02*
X025789Y023004D01*
X025789Y022906D02*
X040409Y022906D01*
X040409Y022807D02*
X025789Y022807D01*
X025789Y022709D02*
X040409Y022709D01*
X040409Y022610D02*
X025789Y022610D01*
X025789Y022512D02*
X040409Y022512D01*
X040409Y022413D02*
X025789Y022413D01*
X025789Y022315D02*
X040409Y022315D01*
X040409Y022216D02*
X025789Y022216D01*
X025789Y022118D02*
X040409Y022118D01*
X040409Y022019D02*
X025789Y022019D01*
X025789Y021921D02*
X040409Y021921D01*
X040409Y021822D02*
X025789Y021822D01*
X025789Y021724D02*
X040409Y021724D01*
X040409Y021625D02*
X025789Y021625D01*
X025789Y021527D02*
X040409Y021527D01*
X040409Y021428D02*
X025789Y021428D01*
X025789Y021330D02*
X040409Y021330D01*
X040409Y021231D02*
X025789Y021231D01*
X025789Y021133D02*
X040409Y021133D01*
X040409Y021034D02*
X025789Y021034D01*
X025789Y020936D02*
X040409Y020936D01*
X040409Y020837D02*
X025789Y020837D01*
X025789Y020739D02*
X040409Y020739D01*
X040409Y020640D02*
X025789Y020640D01*
X025789Y020542D02*
X040409Y020542D01*
X040409Y020443D02*
X025789Y020443D01*
X025789Y020345D02*
X040409Y020345D01*
X040409Y020246D02*
X025789Y020246D01*
X025789Y020148D02*
X040409Y020148D01*
X040409Y020049D02*
X025789Y020049D01*
X025789Y019951D02*
X040409Y019951D01*
X040409Y019852D02*
X025789Y019852D01*
X025789Y019754D02*
X040409Y019754D01*
X040409Y019655D02*
X025789Y019655D01*
X025789Y019557D02*
X040409Y019557D01*
X040409Y019458D02*
X037914Y019458D01*
X037878Y019494D02*
X037489Y019494D01*
X037214Y019219D01*
X037214Y018829D01*
X037489Y018554D01*
X037878Y018554D01*
X038154Y018829D01*
X038154Y019219D01*
X037878Y019494D01*
X038013Y019360D02*
X040409Y019360D01*
X040409Y019261D02*
X038111Y019261D01*
X038154Y019163D02*
X040409Y019163D01*
X040409Y019064D02*
X038154Y019064D01*
X038154Y018966D02*
X040409Y018966D01*
X040409Y018867D02*
X038154Y018867D01*
X038093Y018769D02*
X040409Y018769D01*
X040409Y018670D02*
X037994Y018670D01*
X037896Y018572D02*
X040409Y018572D01*
X040409Y018473D02*
X037899Y018473D01*
X037878Y018494D02*
X037489Y018494D01*
X037214Y018219D01*
X037214Y017829D01*
X037489Y017554D01*
X037878Y017554D01*
X038154Y017829D01*
X038154Y018219D01*
X037878Y018494D01*
X037998Y018375D02*
X040409Y018375D01*
X040409Y018276D02*
X038096Y018276D01*
X038154Y018178D02*
X040409Y018178D01*
X040409Y018079D02*
X038154Y018079D01*
X038154Y017981D02*
X040409Y017981D01*
X040409Y017882D02*
X038154Y017882D01*
X038108Y017784D02*
X040409Y017784D01*
X040409Y017685D02*
X038009Y017685D01*
X037911Y017587D02*
X040409Y017587D01*
X040409Y017488D02*
X036884Y017488D01*
X036878Y017494D02*
X036489Y017494D01*
X036214Y017219D01*
X036214Y016829D01*
X036489Y016554D01*
X036878Y016554D01*
X037154Y016829D01*
X037154Y017219D01*
X036878Y017494D01*
X036878Y017554D02*
X037154Y017829D01*
X037154Y018219D01*
X036878Y018494D01*
X036489Y018494D01*
X036214Y018219D01*
X036214Y017829D01*
X036489Y017554D01*
X036878Y017554D01*
X036911Y017587D02*
X037456Y017587D01*
X037497Y017474D02*
X037234Y017211D01*
X037234Y017074D01*
X037634Y017074D01*
X037634Y017474D01*
X037497Y017474D01*
X037413Y017390D02*
X036983Y017390D01*
X037081Y017291D02*
X037314Y017291D01*
X037234Y017193D02*
X037154Y017193D01*
X037154Y017094D02*
X037234Y017094D01*
X037234Y016974D02*
X037234Y016838D01*
X037497Y016574D01*
X037634Y016574D01*
X037634Y016974D01*
X037734Y016974D01*
X037734Y017074D01*
X038134Y017074D01*
X038134Y017211D01*
X037870Y017474D01*
X037734Y017474D01*
X037734Y017074D01*
X037634Y017074D01*
X037634Y016974D01*
X037234Y016974D01*
X037234Y016897D02*
X037154Y016897D01*
X037154Y016996D02*
X037634Y016996D01*
X037634Y017094D02*
X037734Y017094D01*
X037734Y016996D02*
X040409Y016996D01*
X040409Y017094D02*
X038134Y017094D01*
X038134Y017193D02*
X040409Y017193D01*
X040409Y017291D02*
X038053Y017291D01*
X037955Y017390D02*
X040409Y017390D01*
X040409Y016897D02*
X038134Y016897D01*
X038134Y016838D02*
X038134Y016974D01*
X037734Y016974D01*
X037734Y016574D01*
X037870Y016574D01*
X038134Y016838D01*
X038095Y016799D02*
X040409Y016799D01*
X040409Y016700D02*
X037996Y016700D01*
X037898Y016602D02*
X040409Y016602D01*
X040409Y016503D02*
X035721Y016503D01*
X035623Y016602D02*
X036441Y016602D01*
X036343Y016700D02*
X035524Y016700D01*
X035426Y016799D02*
X036244Y016799D01*
X036214Y016897D02*
X035327Y016897D01*
X035239Y016996D02*
X036214Y016996D01*
X036214Y017094D02*
X035239Y017094D01*
X035239Y017193D02*
X036214Y017193D01*
X036286Y017291D02*
X035239Y017291D01*
X035239Y017390D02*
X036385Y017390D01*
X036483Y017488D02*
X035208Y017488D01*
X035138Y017587D02*
X036456Y017587D01*
X036358Y017685D02*
X035039Y017685D01*
X034941Y017784D02*
X036259Y017784D01*
X036214Y017882D02*
X034842Y017882D01*
X034744Y017981D02*
X036214Y017981D01*
X036214Y018079D02*
X034645Y018079D01*
X034478Y018178D02*
X036214Y018178D01*
X036271Y018276D02*
X025789Y018276D01*
X025789Y018178D02*
X030101Y018178D01*
X030041Y018079D02*
X025789Y018079D01*
X025789Y017981D02*
X030041Y017981D01*
X029975Y017882D02*
X025789Y017882D01*
X025789Y017784D02*
X029877Y017784D01*
X029778Y017685D02*
X025789Y017685D01*
X025129Y017685D02*
X004625Y017685D01*
X004720Y017590D02*
X004519Y017791D01*
X004273Y017934D01*
X003998Y018007D01*
X003714Y018007D01*
X003439Y017934D01*
X003193Y017791D01*
X002992Y017590D01*
X002849Y017344D01*
X002776Y017069D01*
X002776Y016785D01*
X002849Y016510D01*
X002992Y016264D01*
X003193Y016063D01*
X003439Y015921D01*
X003714Y015847D01*
X003998Y015847D01*
X004273Y015921D01*
X004519Y016063D01*
X004720Y016264D01*
X004862Y016510D01*
X004936Y016785D01*
X004936Y017069D01*
X004862Y017344D01*
X004720Y017590D01*
X004722Y017587D02*
X025129Y017587D01*
X025109Y017488D02*
X004779Y017488D01*
X004836Y017390D02*
X010867Y017390D01*
X010836Y017377D02*
X010675Y017216D01*
X010660Y017179D01*
X008843Y017179D01*
X008722Y017129D01*
X008629Y017036D01*
X007810Y016217D01*
X007640Y016217D01*
X007602Y016179D01*
X006343Y016179D01*
X006222Y016129D01*
X005222Y015129D01*
X005129Y015036D01*
X005079Y014915D01*
X005079Y012156D01*
X005041Y012118D01*
X005041Y011581D01*
X005140Y011481D01*
X005677Y011481D01*
X005777Y011581D01*
X005777Y012118D01*
X005739Y012156D01*
X005739Y013576D01*
X005952Y013364D01*
X006233Y013247D01*
X006537Y013247D01*
X006818Y013364D01*
X007033Y013579D01*
X007150Y013860D01*
X007150Y014164D01*
X007033Y014445D01*
X006818Y014661D01*
X006537Y014777D01*
X006233Y014777D01*
X005952Y014661D01*
X005739Y014448D01*
X005739Y014712D01*
X006545Y015519D01*
X007602Y015519D01*
X007640Y015481D01*
X008177Y015481D01*
X008277Y015581D01*
X008277Y015751D01*
X009045Y016519D01*
X010727Y016519D01*
X010836Y016410D01*
X011045Y016324D01*
X011272Y016324D01*
X011481Y016410D01*
X011642Y016571D01*
X011722Y016765D01*
X011749Y016682D01*
X011788Y016605D01*
X011839Y016535D01*
X011900Y016474D01*
X011970Y016423D01*
X012047Y016384D01*
X012130Y016357D01*
X012208Y016345D01*
X012208Y016844D01*
X012308Y016844D01*
X012308Y016345D01*
X012387Y016357D01*
X012470Y016384D01*
X012547Y016423D01*
X012617Y016474D01*
X012678Y016535D01*
X012729Y016605D01*
X012768Y016682D01*
X012795Y016765D01*
X012807Y016844D01*
X012308Y016844D01*
X012308Y016944D01*
X012208Y016944D01*
X012208Y017443D01*
X012130Y017430D01*
X012047Y017403D01*
X011970Y017364D01*
X011900Y017313D01*
X011839Y017252D01*
X011788Y017182D01*
X011749Y017105D01*
X011722Y017022D01*
X011642Y017216D01*
X011481Y017377D01*
X011272Y017464D01*
X011045Y017464D01*
X010836Y017377D01*
X010750Y017291D02*
X004876Y017291D01*
X004903Y017193D02*
X010665Y017193D01*
X010743Y016503D02*
X009029Y016503D01*
X008931Y016405D02*
X010849Y016405D01*
X011468Y016405D02*
X012007Y016405D01*
X011871Y016503D02*
X011574Y016503D01*
X011654Y016602D02*
X011791Y016602D01*
X011743Y016700D02*
X011695Y016700D01*
X012208Y016700D02*
X012308Y016700D01*
X012308Y016602D02*
X012208Y016602D01*
X012208Y016503D02*
X012308Y016503D01*
X012308Y016405D02*
X012208Y016405D01*
X012510Y016405D02*
X022444Y016405D01*
X022346Y016306D02*
X008832Y016306D01*
X008734Y016208D02*
X022301Y016208D01*
X022202Y016109D02*
X008635Y016109D01*
X008537Y016011D02*
X022104Y016011D01*
X022005Y015912D02*
X008438Y015912D01*
X008340Y015814D02*
X009729Y015814D01*
X009655Y015783D02*
X009534Y015662D01*
X009468Y015504D01*
X009468Y015333D01*
X009534Y015175D01*
X009655Y015054D01*
X009813Y014989D01*
X010504Y014989D01*
X010662Y015054D01*
X010783Y015175D01*
X010848Y015333D01*
X010848Y015504D01*
X010783Y015662D01*
X010662Y015783D01*
X010504Y015849D01*
X009813Y015849D01*
X009655Y015783D01*
X009587Y015715D02*
X008277Y015715D01*
X008277Y015617D02*
X009515Y015617D01*
X009474Y015518D02*
X008214Y015518D01*
X007603Y015518D02*
X006544Y015518D01*
X006446Y015420D02*
X009468Y015420D01*
X009473Y015321D02*
X006347Y015321D01*
X006249Y015223D02*
X009514Y015223D01*
X009585Y015124D02*
X006150Y015124D01*
X006052Y015026D02*
X009723Y015026D01*
X009813Y014849D02*
X009655Y014783D01*
X009534Y014662D01*
X009468Y014504D01*
X009468Y014333D01*
X009534Y014175D01*
X009655Y014054D01*
X009813Y013989D01*
X010504Y013989D01*
X010662Y014054D01*
X010783Y014175D01*
X010848Y014333D01*
X010848Y014504D01*
X010783Y014662D01*
X010662Y014783D01*
X010504Y014849D01*
X009813Y014849D01*
X009765Y014829D02*
X005855Y014829D01*
X005953Y014927D02*
X021020Y014927D01*
X020922Y014829D02*
X013552Y014829D01*
X013514Y015019D02*
X013576Y015039D01*
X013633Y015068D01*
X013686Y015106D01*
X013731Y015151D01*
X013769Y015204D01*
X013798Y015261D01*
X013818Y015323D01*
X013828Y015386D01*
X013828Y015389D01*
X013188Y015389D01*
X013188Y015009D01*
X013451Y015009D01*
X013514Y015019D01*
X013536Y015026D02*
X021119Y015026D01*
X021217Y015124D02*
X013704Y015124D01*
X013779Y015223D02*
X021316Y015223D01*
X021414Y015321D02*
X013818Y015321D01*
X013828Y015449D02*
X013828Y015451D01*
X013818Y015515D01*
X013798Y015576D01*
X013769Y015633D01*
X013731Y015686D01*
X013686Y015731D01*
X013633Y015769D01*
X013576Y015799D01*
X013514Y015818D01*
X013451Y015829D01*
X013188Y015829D01*
X013188Y015449D01*
X013128Y015449D01*
X013128Y015829D01*
X012866Y015829D01*
X012802Y015818D01*
X012741Y015799D01*
X012684Y015769D01*
X012631Y015731D01*
X012586Y015686D01*
X012548Y015633D01*
X012519Y015576D01*
X012499Y015515D01*
X012488Y015451D01*
X012488Y015449D01*
X013128Y015449D01*
X013128Y015389D01*
X012488Y015389D01*
X012488Y015386D01*
X012499Y015323D01*
X012519Y015261D01*
X012548Y015204D01*
X012586Y015151D01*
X012631Y015106D01*
X012684Y015068D01*
X012741Y015039D01*
X012802Y015019D01*
X012866Y015009D01*
X013128Y015009D01*
X013128Y015389D01*
X013188Y015389D01*
X013188Y015449D01*
X013828Y015449D01*
X013817Y015518D02*
X021611Y015518D01*
X021513Y015420D02*
X013188Y015420D01*
X013128Y015420D02*
X010848Y015420D01*
X010843Y015518D02*
X012500Y015518D01*
X012539Y015617D02*
X010802Y015617D01*
X010730Y015715D02*
X012615Y015715D01*
X012788Y015814D02*
X010588Y015814D01*
X010844Y015321D02*
X012499Y015321D01*
X012538Y015223D02*
X010803Y015223D01*
X010732Y015124D02*
X012613Y015124D01*
X012781Y015026D02*
X010593Y015026D01*
X010552Y014829D02*
X012765Y014829D01*
X012602Y014730D02*
X010715Y014730D01*
X010796Y014632D02*
X012521Y014632D01*
X012480Y014533D02*
X010836Y014533D01*
X010848Y014435D02*
X012468Y014435D01*
X012468Y014336D02*
X010848Y014336D01*
X010809Y014238D02*
X012508Y014238D01*
X012570Y014139D02*
X010747Y014139D01*
X010630Y014041D02*
X012687Y014041D01*
X012801Y013844D02*
X010516Y013844D01*
X010504Y013849D02*
X009813Y013849D01*
X009655Y013783D01*
X009534Y013662D01*
X009468Y013504D01*
X009468Y013333D01*
X009534Y013175D01*
X009655Y013054D01*
X009813Y012989D01*
X010504Y012989D01*
X010662Y013054D01*
X010783Y013175D01*
X010848Y013333D01*
X010848Y013504D01*
X010783Y013662D01*
X010662Y013783D01*
X010504Y013849D01*
X010700Y013745D02*
X012617Y013745D01*
X012655Y013783D02*
X012534Y013662D01*
X012468Y013504D01*
X012468Y013333D01*
X012534Y013175D01*
X012655Y013054D01*
X012813Y012989D01*
X013504Y012989D01*
X013662Y013054D01*
X013783Y013175D01*
X013848Y013333D01*
X013848Y013504D01*
X013783Y013662D01*
X013662Y013783D01*
X013504Y013849D01*
X012813Y013849D01*
X012655Y013783D01*
X012527Y013647D02*
X010789Y013647D01*
X010830Y013548D02*
X012487Y013548D01*
X012468Y013450D02*
X010848Y013450D01*
X010848Y013351D02*
X012468Y013351D01*
X012502Y013253D02*
X010815Y013253D01*
X010762Y013154D02*
X012555Y013154D01*
X012653Y013056D02*
X010664Y013056D01*
X010504Y012849D02*
X009813Y012849D01*
X009655Y012783D01*
X009534Y012662D01*
X009468Y012504D01*
X009468Y012333D01*
X009534Y012175D01*
X009655Y012054D01*
X009813Y011989D01*
X010504Y011989D01*
X010662Y012054D01*
X010783Y012175D01*
X010848Y012333D01*
X010848Y012504D01*
X010783Y012662D01*
X010662Y012783D01*
X010504Y012849D01*
X010685Y012760D02*
X012632Y012760D01*
X012534Y012662D02*
X010783Y012662D01*
X010824Y012563D02*
X012493Y012563D01*
X012468Y012465D02*
X010848Y012465D01*
X010848Y012366D02*
X012468Y012366D01*
X012496Y012268D02*
X010821Y012268D01*
X010777Y012169D02*
X012540Y012169D01*
X012638Y012071D02*
X010679Y012071D01*
X010504Y011849D02*
X009813Y011849D01*
X009655Y011783D01*
X009534Y011662D01*
X009468Y011504D01*
X009468Y011333D01*
X009534Y011175D01*
X009655Y011054D01*
X009813Y010989D01*
X010504Y010989D01*
X010662Y011054D01*
X010783Y011175D01*
X010848Y011333D01*
X010848Y011504D01*
X010783Y011662D01*
X010662Y011783D01*
X010504Y011849D01*
X010670Y011775D02*
X012647Y011775D01*
X012655Y011783D02*
X012534Y011662D01*
X012468Y011504D01*
X012468Y011333D01*
X012534Y011175D01*
X012655Y011054D01*
X012813Y010989D01*
X013504Y010989D01*
X013662Y011054D01*
X013783Y011175D01*
X013848Y011333D01*
X013848Y011504D01*
X013783Y011662D01*
X013662Y011783D01*
X013504Y011849D01*
X012813Y011849D01*
X012655Y011783D01*
X012548Y011677D02*
X010769Y011677D01*
X010818Y011578D02*
X012499Y011578D01*
X012468Y011480D02*
X010848Y011480D01*
X010848Y011381D02*
X012468Y011381D01*
X012489Y011283D02*
X010828Y011283D01*
X010787Y011184D02*
X012530Y011184D01*
X012623Y011086D02*
X010694Y011086D01*
X010645Y010790D02*
X012672Y010790D01*
X012563Y010692D02*
X010754Y010692D01*
X010783Y010662D02*
X010662Y010783D01*
X010504Y010849D01*
X009813Y010849D01*
X009655Y010783D01*
X009534Y010662D01*
X009468Y010504D01*
X009468Y010333D01*
X009534Y010175D01*
X009655Y010054D01*
X009813Y009989D01*
X010504Y009989D01*
X010662Y010054D01*
X010783Y010175D01*
X010848Y010333D01*
X010848Y010504D01*
X010783Y010662D01*
X010812Y010593D02*
X012505Y010593D01*
X012468Y010495D02*
X010848Y010495D01*
X010848Y010396D02*
X012468Y010396D01*
X012483Y010298D02*
X010834Y010298D01*
X010793Y010199D02*
X012524Y010199D01*
X012608Y010101D02*
X010709Y010101D01*
X010537Y010002D02*
X012780Y010002D01*
X012813Y009849D02*
X012655Y009783D01*
X012534Y009662D01*
X012468Y009504D01*
X012468Y009333D01*
X012534Y009175D01*
X012655Y009054D01*
X012813Y008989D01*
X013504Y008989D01*
X013662Y009054D01*
X013783Y009175D01*
X013848Y009333D01*
X013848Y009504D01*
X013783Y009662D01*
X013662Y009783D01*
X013504Y009849D01*
X012813Y009849D01*
X012708Y009805D02*
X010609Y009805D01*
X010662Y009783D02*
X010504Y009849D01*
X009813Y009849D01*
X009655Y009783D01*
X009534Y009662D01*
X009468Y009504D01*
X009468Y009333D01*
X009534Y009175D01*
X009655Y009054D01*
X009813Y008989D01*
X010504Y008989D01*
X010662Y009054D01*
X010783Y009175D01*
X010848Y009333D01*
X010848Y009504D01*
X010783Y009662D01*
X010662Y009783D01*
X010739Y009707D02*
X012578Y009707D01*
X012512Y009608D02*
X010805Y009608D01*
X010846Y009510D02*
X012471Y009510D01*
X012468Y009411D02*
X010848Y009411D01*
X010840Y009313D02*
X012477Y009313D01*
X012518Y009214D02*
X010799Y009214D01*
X010724Y009116D02*
X012593Y009116D01*
X012744Y009017D02*
X010573Y009017D01*
X010504Y008849D02*
X009813Y008849D01*
X009655Y008783D01*
X009534Y008662D01*
X009468Y008504D01*
X009468Y008333D01*
X009534Y008175D01*
X009655Y008054D01*
X009813Y007989D01*
X010504Y007989D01*
X010662Y008054D01*
X010783Y008175D01*
X010848Y008333D01*
X010848Y008504D01*
X010783Y008662D01*
X010662Y008783D01*
X010504Y008849D01*
X010573Y008820D02*
X012744Y008820D01*
X012813Y008849D02*
X012655Y008783D01*
X012534Y008662D01*
X012468Y008504D01*
X012468Y008333D01*
X012534Y008175D01*
X012655Y008054D01*
X012813Y007989D01*
X013504Y007989D01*
X013662Y008054D01*
X013783Y008175D01*
X013848Y008333D01*
X013848Y008504D01*
X013783Y008662D01*
X013662Y008783D01*
X013504Y008849D01*
X012813Y008849D01*
X012593Y008722D02*
X010724Y008722D01*
X010799Y008623D02*
X012518Y008623D01*
X012477Y008525D02*
X010840Y008525D01*
X010848Y008426D02*
X012468Y008426D01*
X012471Y008328D02*
X010846Y008328D01*
X010805Y008229D02*
X012512Y008229D01*
X012578Y008131D02*
X010739Y008131D01*
X010609Y008032D02*
X012708Y008032D01*
X013609Y008032D02*
X023479Y008032D01*
X023479Y007934D02*
X004148Y007934D01*
X004149Y007931D02*
X004007Y008177D01*
X003806Y008378D01*
X003560Y008520D01*
X003285Y008594D01*
X003001Y008594D01*
X002726Y008520D01*
X002480Y008378D01*
X002409Y008307D01*
X002409Y028375D01*
X002480Y028303D01*
X002726Y028161D01*
X002616Y028225D02*
X002409Y028225D01*
X002409Y028323D02*
X002460Y028323D01*
X002409Y027929D02*
X006640Y027929D01*
X006640Y027831D02*
X002409Y027831D01*
X002409Y027732D02*
X006640Y027732D01*
X006640Y027634D02*
X002409Y027634D01*
X002409Y027535D02*
X006640Y027535D01*
X006640Y027437D02*
X002409Y027437D01*
X002409Y027338D02*
X006640Y027338D01*
X006640Y027240D02*
X002409Y027240D01*
X002409Y027141D02*
X006640Y027141D01*
X006640Y027043D02*
X002409Y027043D01*
X002409Y026944D02*
X006640Y026944D01*
X006640Y026846D02*
X002409Y026846D01*
X002409Y026747D02*
X006588Y026747D01*
X006489Y026649D02*
X002409Y026649D01*
X002409Y026550D02*
X006391Y026550D01*
X006292Y026452D02*
X002409Y026452D01*
X002409Y026353D02*
X006194Y026353D01*
X006095Y026255D02*
X002409Y026255D01*
X002409Y026156D02*
X005997Y026156D01*
X005898Y026058D02*
X002409Y026058D01*
X002409Y025959D02*
X005800Y025959D01*
X005701Y025861D02*
X002409Y025861D01*
X002409Y025762D02*
X005603Y025762D01*
X005504Y025664D02*
X002409Y025664D01*
X002409Y025565D02*
X005406Y025565D01*
X005307Y025467D02*
X002409Y025467D01*
X002409Y025368D02*
X005209Y025368D01*
X005120Y025270D02*
X002409Y025270D01*
X002409Y025171D02*
X005021Y025171D01*
X004974Y025073D02*
X002409Y025073D01*
X002409Y024974D02*
X004938Y024974D01*
X004938Y024876D02*
X002409Y024876D01*
X002409Y024777D02*
X004938Y024777D01*
X004938Y024679D02*
X002409Y024679D01*
X002409Y024580D02*
X004938Y024580D01*
X004938Y024482D02*
X002409Y024482D01*
X002409Y024383D02*
X004938Y024383D01*
X004938Y024285D02*
X002409Y024285D01*
X002409Y024186D02*
X004944Y024186D01*
X004985Y024088D02*
X002409Y024088D01*
X002409Y023989D02*
X004988Y023989D01*
X004988Y023891D02*
X002409Y023891D01*
X002409Y023792D02*
X004988Y023792D01*
X004988Y023694D02*
X002409Y023694D01*
X002409Y023595D02*
X004988Y023595D01*
X004988Y023497D02*
X002409Y023497D01*
X002409Y023398D02*
X004988Y023398D01*
X004912Y023300D02*
X002409Y023300D01*
X002409Y023201D02*
X004871Y023201D01*
X004864Y023103D02*
X002409Y023103D01*
X002409Y023004D02*
X004864Y023004D01*
X004864Y022906D02*
X002409Y022906D01*
X002409Y022807D02*
X004864Y022807D01*
X004864Y022709D02*
X002409Y022709D01*
X002409Y022610D02*
X004864Y022610D01*
X004864Y022512D02*
X002409Y022512D01*
X002409Y022413D02*
X004864Y022413D01*
X004864Y022315D02*
X002409Y022315D01*
X002409Y022216D02*
X004864Y022216D01*
X004864Y022118D02*
X002409Y022118D01*
X002409Y022019D02*
X004864Y022019D01*
X004903Y021921D02*
X002409Y021921D01*
X002409Y021822D02*
X004967Y021822D01*
X005065Y021724D02*
X002409Y021724D01*
X002409Y021625D02*
X005164Y021625D01*
X005262Y021527D02*
X002409Y021527D01*
X002409Y021428D02*
X005361Y021428D01*
X005459Y021330D02*
X002409Y021330D01*
X002409Y021231D02*
X005574Y021231D01*
X005958Y022019D02*
X008819Y022019D01*
X008808Y022005D02*
X008779Y021947D01*
X008759Y021886D01*
X008749Y021822D01*
X008749Y021560D01*
X009129Y021560D01*
X009129Y022200D01*
X009127Y022200D01*
X009063Y022190D01*
X009001Y022170D01*
X008944Y022140D01*
X008892Y022102D01*
X008846Y022057D01*
X008808Y022005D01*
X008770Y021921D02*
X008181Y021921D01*
X008280Y021822D02*
X008749Y021822D01*
X008749Y021724D02*
X008378Y021724D01*
X008477Y021625D02*
X008749Y021625D01*
X008749Y021428D02*
X008674Y021428D01*
X008575Y021527D02*
X009129Y021527D01*
X009129Y021500D02*
X009129Y021560D01*
X009189Y021560D01*
X009189Y022200D01*
X009191Y022200D01*
X009255Y022190D01*
X009316Y022170D01*
X009374Y022140D01*
X009426Y022102D01*
X009472Y022057D01*
X009510Y022005D01*
X009539Y021947D01*
X009559Y021886D01*
X009569Y021822D01*
X009569Y021560D01*
X009189Y021560D01*
X009189Y021500D01*
X009569Y021500D01*
X009569Y021237D01*
X009559Y021174D01*
X009539Y021112D01*
X009510Y021055D01*
X009472Y021003D01*
X009426Y020957D01*
X009374Y020919D01*
X009316Y020890D01*
X009255Y020870D01*
X009191Y020860D01*
X009189Y020860D01*
X009189Y021500D01*
X009129Y021500D01*
X009189Y021527D02*
X010129Y021527D01*
X010129Y021500D02*
X009749Y021500D01*
X009749Y021237D01*
X009759Y021174D01*
X009779Y021112D01*
X009808Y021055D01*
X009846Y021003D01*
X009892Y020957D01*
X009944Y020919D01*
X010001Y020890D01*
X010063Y020870D01*
X010127Y020860D01*
X010129Y020860D01*
X010129Y021500D01*
X010129Y021560D01*
X010129Y022200D01*
X010127Y022200D01*
X010063Y022190D01*
X010001Y022170D01*
X009944Y022140D01*
X009892Y022102D01*
X009846Y022057D01*
X009808Y022005D01*
X009779Y021947D01*
X009759Y021886D01*
X009749Y021822D01*
X009749Y021560D01*
X010129Y021560D01*
X010189Y021560D01*
X010189Y022200D01*
X010191Y022200D01*
X010255Y022190D01*
X010316Y022170D01*
X010374Y022140D01*
X010426Y022102D01*
X010472Y022057D01*
X010510Y022005D01*
X010539Y021947D01*
X010559Y021886D01*
X010569Y021822D01*
X010569Y021560D01*
X010189Y021560D01*
X010189Y021500D01*
X010569Y021500D01*
X010569Y021237D01*
X010559Y021174D01*
X010539Y021112D01*
X010510Y021055D01*
X010472Y021003D01*
X010426Y020957D01*
X010374Y020919D01*
X010316Y020890D01*
X010255Y020870D01*
X010191Y020860D01*
X010189Y020860D01*
X010189Y021500D01*
X010129Y021500D01*
X010189Y021527D02*
X011129Y021527D01*
X011189Y021527D02*
X011729Y021527D01*
X011729Y021625D02*
X011569Y021625D01*
X011569Y021724D02*
X011729Y021724D01*
X011729Y021822D02*
X011569Y021822D01*
X011547Y021921D02*
X011748Y021921D01*
X011789Y022019D02*
X011499Y022019D01*
X011569Y021500D02*
X011189Y021500D01*
X011189Y020860D01*
X011191Y020860D01*
X011255Y020870D01*
X011316Y020890D01*
X011374Y020919D01*
X011426Y020957D01*
X011472Y021003D01*
X011510Y021055D01*
X011539Y021112D01*
X011559Y021174D01*
X011569Y021237D01*
X011569Y021500D01*
X011569Y021428D02*
X011729Y021428D01*
X011729Y021330D02*
X011569Y021330D01*
X011568Y021231D02*
X011729Y021231D01*
X011739Y021133D02*
X011545Y021133D01*
X011495Y021034D02*
X011739Y021034D01*
X011739Y020936D02*
X011397Y020936D01*
X011189Y020936D02*
X011129Y020936D01*
X011129Y021034D02*
X011189Y021034D01*
X011189Y021133D02*
X011129Y021133D01*
X011129Y021231D02*
X011189Y021231D01*
X011189Y021330D02*
X011129Y021330D01*
X011129Y021428D02*
X011189Y021428D01*
X010749Y021428D02*
X010569Y021428D01*
X010569Y021330D02*
X010749Y021330D01*
X010750Y021231D02*
X010568Y021231D01*
X010545Y021133D02*
X010772Y021133D01*
X010823Y021034D02*
X010495Y021034D01*
X010397Y020936D02*
X010921Y020936D01*
X010189Y020936D02*
X010129Y020936D01*
X010129Y021034D02*
X010189Y021034D01*
X010189Y021133D02*
X010129Y021133D01*
X010129Y021231D02*
X010189Y021231D01*
X010189Y021330D02*
X010129Y021330D01*
X010129Y021428D02*
X010189Y021428D01*
X010189Y021625D02*
X010129Y021625D01*
X010129Y021724D02*
X010189Y021724D01*
X010189Y021822D02*
X010129Y021822D01*
X010129Y021921D02*
X010189Y021921D01*
X010189Y022019D02*
X010129Y022019D01*
X010129Y022118D02*
X010189Y022118D01*
X010378Y022216D02*
X006996Y022216D01*
X007094Y022315D02*
X010280Y022315D01*
X010405Y022118D02*
X010556Y022118D01*
X010499Y022019D02*
X010819Y022019D01*
X010770Y021921D02*
X010547Y021921D01*
X010569Y021822D02*
X010749Y021822D01*
X010749Y021724D02*
X010569Y021724D01*
X010569Y021625D02*
X010749Y021625D01*
X009913Y022118D02*
X009405Y022118D01*
X009499Y022019D02*
X009819Y022019D01*
X009770Y021921D02*
X009547Y021921D01*
X009569Y021822D02*
X009749Y021822D01*
X009749Y021724D02*
X009569Y021724D01*
X009569Y021625D02*
X009749Y021625D01*
X009749Y021428D02*
X009569Y021428D01*
X009569Y021330D02*
X009749Y021330D01*
X009750Y021231D02*
X009568Y021231D01*
X009545Y021133D02*
X009772Y021133D01*
X009823Y021034D02*
X009495Y021034D01*
X009397Y020936D02*
X009921Y020936D01*
X009452Y020443D02*
X011739Y020443D01*
X011739Y020345D02*
X009551Y020345D01*
X009649Y020246D02*
X011668Y020246D01*
X011659Y020148D02*
X009659Y020148D01*
X009659Y020049D02*
X011659Y020049D01*
X011659Y019951D02*
X009659Y019951D01*
X009659Y019852D02*
X011659Y019852D01*
X011728Y019754D02*
X009590Y019754D01*
X009491Y019655D02*
X011826Y019655D01*
X011250Y019557D02*
X009393Y019557D01*
X008694Y019557D02*
X002409Y019557D01*
X002409Y019655D02*
X008509Y019655D01*
X008410Y019754D02*
X002409Y019754D01*
X002409Y019852D02*
X008312Y019852D01*
X008213Y019951D02*
X002409Y019951D01*
X002409Y020049D02*
X008115Y020049D01*
X008037Y020148D02*
X002409Y020148D01*
X002409Y020246D02*
X007997Y020246D01*
X007989Y020345D02*
X002409Y020345D01*
X002409Y020443D02*
X007989Y020443D01*
X007989Y020542D02*
X002409Y020542D01*
X002409Y020640D02*
X007989Y020640D01*
X007989Y020739D02*
X002409Y020739D01*
X002409Y020837D02*
X007989Y020837D01*
X007978Y020936D02*
X002409Y020936D01*
X002409Y021034D02*
X007880Y021034D01*
X007781Y021133D02*
X002409Y021133D01*
X002409Y019458D02*
X011151Y019458D01*
X011179Y019486D02*
X011179Y019486D01*
X011053Y019360D02*
X002409Y019360D01*
X002409Y019261D02*
X010954Y019261D01*
X010856Y019163D02*
X002409Y019163D01*
X002409Y019064D02*
X010711Y019064D01*
X010637Y018966D02*
X002409Y018966D01*
X002409Y018867D02*
X010630Y018867D01*
X010589Y018769D02*
X002409Y018769D01*
X002409Y018670D02*
X010563Y018670D01*
X010563Y018572D02*
X002409Y018572D01*
X002409Y018473D02*
X010566Y018473D01*
X010607Y018375D02*
X002409Y018375D01*
X002409Y018276D02*
X010648Y018276D01*
X010743Y018178D02*
X002409Y018178D01*
X002409Y018079D02*
X010886Y018079D01*
X011381Y018079D02*
X012037Y018079D01*
X012183Y018079D02*
X012283Y018079D01*
X012283Y018178D02*
X012183Y018178D01*
X012183Y018276D02*
X012283Y018276D01*
X012283Y018375D02*
X012183Y018375D01*
X012183Y018473D02*
X012283Y018473D01*
X012283Y018572D02*
X025129Y018572D01*
X025129Y018670D02*
X012778Y018670D01*
X012755Y018769D02*
X025129Y018769D01*
X025129Y018867D02*
X012711Y018867D01*
X012639Y018966D02*
X025129Y018966D01*
X025129Y019064D02*
X012890Y019064D01*
X012989Y019163D02*
X025129Y019163D01*
X025129Y019261D02*
X013087Y019261D01*
X013146Y019319D02*
X013146Y019319D01*
X013186Y019360D02*
X025129Y019360D01*
X025129Y019458D02*
X013257Y019458D01*
X013289Y019557D02*
X025129Y019557D01*
X025129Y019655D02*
X013289Y019655D01*
X013289Y019754D02*
X025129Y019754D01*
X025129Y019852D02*
X013289Y019852D01*
X013289Y019951D02*
X025129Y019951D01*
X025129Y020049D02*
X022129Y020049D01*
X022224Y020148D02*
X025129Y020148D01*
X025129Y020246D02*
X022264Y020246D01*
X021688Y020049D02*
X013289Y020049D01*
X013289Y020148D02*
X021594Y020148D01*
X021553Y020246D02*
X013289Y020246D01*
X011739Y020542D02*
X008829Y020542D01*
X008829Y020640D02*
X011739Y020640D01*
X011739Y020739D02*
X008829Y020739D01*
X008829Y020837D02*
X011739Y020837D01*
X009189Y020936D02*
X009129Y020936D01*
X009129Y021034D02*
X009189Y021034D01*
X009189Y021133D02*
X009129Y021133D01*
X009129Y021231D02*
X009189Y021231D01*
X009189Y021330D02*
X009129Y021330D01*
X009129Y021428D02*
X009189Y021428D01*
X009189Y021625D02*
X009129Y021625D01*
X009129Y021724D02*
X009189Y021724D01*
X009189Y021822D02*
X009129Y021822D01*
X009129Y021921D02*
X009189Y021921D01*
X009189Y022019D02*
X009129Y022019D01*
X009129Y022118D02*
X009189Y022118D01*
X008913Y022118D02*
X005859Y022118D01*
X005821Y022216D02*
X005761Y022216D01*
X005723Y022315D02*
X005704Y022315D01*
X005704Y022906D02*
X005756Y022906D01*
X005772Y023004D02*
X005871Y023004D01*
X005813Y023103D02*
X006007Y023103D01*
X006048Y023201D02*
X005828Y023201D01*
X005828Y023300D02*
X006140Y023300D01*
X006239Y023398D02*
X005828Y023398D01*
X005828Y023497D02*
X006337Y023497D01*
X006428Y023587D02*
X006428Y023587D01*
X006436Y023595D02*
X005828Y023595D01*
X005828Y023694D02*
X006534Y023694D01*
X008829Y020936D02*
X008921Y020936D01*
X011660Y018375D02*
X011728Y018375D01*
X011784Y018276D02*
X011619Y018276D01*
X011524Y018178D02*
X011872Y018178D01*
X012430Y018079D02*
X025129Y018079D01*
X025129Y017981D02*
X004097Y017981D01*
X004362Y017882D02*
X025129Y017882D01*
X025129Y017784D02*
X004527Y017784D01*
X004929Y017094D02*
X008687Y017094D01*
X008589Y016996D02*
X004936Y016996D01*
X004936Y016897D02*
X008490Y016897D01*
X008392Y016799D02*
X004936Y016799D01*
X004913Y016700D02*
X008293Y016700D01*
X008195Y016602D02*
X004886Y016602D01*
X004858Y016503D02*
X008096Y016503D01*
X007998Y016405D02*
X004801Y016405D01*
X004744Y016306D02*
X007899Y016306D01*
X007631Y016208D02*
X004663Y016208D01*
X004565Y016109D02*
X006202Y016109D01*
X006104Y016011D02*
X004428Y016011D01*
X004240Y015912D02*
X006005Y015912D01*
X005907Y015814D02*
X002409Y015814D01*
X002409Y015912D02*
X003472Y015912D01*
X003283Y016011D02*
X002409Y016011D01*
X002409Y016109D02*
X003147Y016109D01*
X003048Y016208D02*
X002409Y016208D01*
X002409Y016306D02*
X002967Y016306D01*
X002910Y016405D02*
X002409Y016405D01*
X002409Y016503D02*
X002854Y016503D01*
X002825Y016602D02*
X002409Y016602D01*
X002409Y016700D02*
X002799Y016700D01*
X002776Y016799D02*
X002409Y016799D01*
X002409Y016897D02*
X002776Y016897D01*
X002776Y016996D02*
X002409Y016996D01*
X002409Y017094D02*
X002782Y017094D01*
X002809Y017193D02*
X002409Y017193D01*
X002409Y017291D02*
X002835Y017291D01*
X002876Y017390D02*
X002409Y017390D01*
X002409Y017488D02*
X002933Y017488D01*
X002989Y017587D02*
X002409Y017587D01*
X002409Y017685D02*
X003086Y017685D01*
X003185Y017784D02*
X002409Y017784D01*
X002409Y017882D02*
X003350Y017882D01*
X003615Y017981D02*
X002409Y017981D01*
X002409Y015715D02*
X005808Y015715D01*
X005710Y015617D02*
X002409Y015617D01*
X002409Y015518D02*
X005611Y015518D01*
X005513Y015420D02*
X002409Y015420D01*
X002409Y015321D02*
X005414Y015321D01*
X005316Y015223D02*
X002409Y015223D01*
X002409Y015124D02*
X005217Y015124D01*
X005125Y015026D02*
X002409Y015026D01*
X002409Y014927D02*
X005084Y014927D01*
X005079Y014829D02*
X002409Y014829D01*
X002409Y014730D02*
X005079Y014730D01*
X005079Y014632D02*
X002409Y014632D01*
X002409Y014533D02*
X005079Y014533D01*
X005079Y014435D02*
X002409Y014435D01*
X002409Y014336D02*
X005079Y014336D01*
X005079Y014238D02*
X002409Y014238D01*
X002409Y014139D02*
X005079Y014139D01*
X005079Y014041D02*
X002409Y014041D01*
X002409Y013942D02*
X005079Y013942D01*
X005079Y013844D02*
X002409Y013844D01*
X002409Y013745D02*
X005079Y013745D01*
X005079Y013647D02*
X002409Y013647D01*
X002409Y013548D02*
X005079Y013548D01*
X005079Y013450D02*
X002409Y013450D01*
X002409Y013351D02*
X005079Y013351D01*
X005079Y013253D02*
X002409Y013253D01*
X002409Y013154D02*
X005079Y013154D01*
X005079Y013056D02*
X002409Y013056D01*
X002409Y012957D02*
X005079Y012957D01*
X005079Y012859D02*
X002409Y012859D01*
X002409Y012760D02*
X005079Y012760D01*
X005079Y012662D02*
X002409Y012662D01*
X002409Y012563D02*
X005079Y012563D01*
X005079Y012465D02*
X002409Y012465D01*
X002409Y012366D02*
X005079Y012366D01*
X005079Y012268D02*
X002409Y012268D01*
X002409Y012169D02*
X005079Y012169D01*
X005041Y012071D02*
X002409Y012071D01*
X002409Y011972D02*
X005041Y011972D01*
X005041Y011874D02*
X002409Y011874D01*
X002409Y011775D02*
X005041Y011775D01*
X005041Y011677D02*
X002409Y011677D01*
X002409Y011578D02*
X005043Y011578D01*
X005774Y011578D02*
X009499Y011578D01*
X009468Y011480D02*
X002409Y011480D01*
X002409Y011381D02*
X009468Y011381D01*
X009489Y011283D02*
X002409Y011283D01*
X002409Y011184D02*
X009530Y011184D01*
X009623Y011086D02*
X002409Y011086D01*
X002409Y010987D02*
X014080Y010987D01*
X013981Y010889D02*
X002409Y010889D01*
X002409Y010790D02*
X006112Y010790D01*
X006233Y010840D02*
X005952Y010724D01*
X005736Y010508D01*
X005620Y010227D01*
X005620Y009923D01*
X005736Y009642D01*
X005952Y009427D01*
X006233Y009310D01*
X006537Y009310D01*
X006818Y009427D01*
X007033Y009642D01*
X007150Y009923D01*
X007150Y010227D01*
X007033Y010508D01*
X006818Y010724D01*
X006537Y010840D01*
X006233Y010840D01*
X005920Y010692D02*
X002409Y010692D01*
X002409Y010593D02*
X005821Y010593D01*
X005731Y010495D02*
X002409Y010495D01*
X002409Y010396D02*
X005690Y010396D01*
X005649Y010298D02*
X002409Y010298D01*
X002409Y010199D02*
X005620Y010199D01*
X005620Y010101D02*
X002409Y010101D01*
X002409Y010002D02*
X005620Y010002D01*
X005628Y009904D02*
X002409Y009904D01*
X002409Y009805D02*
X005669Y009805D01*
X005709Y009707D02*
X002409Y009707D01*
X002409Y009608D02*
X005770Y009608D01*
X005868Y009510D02*
X002409Y009510D01*
X002409Y009411D02*
X005989Y009411D01*
X006227Y009313D02*
X002409Y009313D01*
X002409Y009214D02*
X009518Y009214D01*
X009477Y009313D02*
X006543Y009313D01*
X006781Y009411D02*
X009468Y009411D01*
X009471Y009510D02*
X006901Y009510D01*
X007000Y009608D02*
X009512Y009608D01*
X009578Y009707D02*
X007060Y009707D01*
X007101Y009805D02*
X009708Y009805D01*
X009780Y010002D02*
X007150Y010002D01*
X007150Y010101D02*
X009608Y010101D01*
X009524Y010199D02*
X007150Y010199D01*
X007121Y010298D02*
X009483Y010298D01*
X009468Y010396D02*
X007080Y010396D01*
X007039Y010495D02*
X009468Y010495D01*
X009505Y010593D02*
X006949Y010593D01*
X006850Y010692D02*
X009563Y010692D01*
X009672Y010790D02*
X006658Y010790D01*
X007142Y009904D02*
X014496Y009904D01*
X014398Y009805D02*
X013609Y009805D01*
X013739Y009707D02*
X014299Y009707D01*
X014147Y009608D02*
X013805Y009608D01*
X013846Y009510D02*
X014077Y009510D01*
X014041Y009411D02*
X013848Y009411D01*
X013840Y009313D02*
X014041Y009313D01*
X014066Y009214D02*
X013799Y009214D01*
X013724Y009116D02*
X014122Y009116D01*
X014248Y009017D02*
X013573Y009017D01*
X013573Y008820D02*
X023284Y008820D01*
X023284Y008767D02*
X023479Y008572D01*
X023479Y007933D01*
X023529Y007812D01*
X023622Y007719D01*
X024922Y006419D01*
X025043Y006369D01*
X034243Y006369D01*
X034335Y006331D01*
X034482Y006331D01*
X034617Y006387D01*
X034721Y006491D01*
X034777Y006626D01*
X034777Y006772D01*
X034721Y006908D01*
X034617Y007011D01*
X034482Y007067D01*
X034335Y007067D01*
X034243Y007029D01*
X025245Y007029D01*
X024139Y008136D01*
X024139Y008622D01*
X024284Y008767D01*
X024284Y009181D01*
X023991Y009474D01*
X023577Y009474D01*
X023284Y009181D01*
X023284Y008767D01*
X023329Y008722D02*
X013724Y008722D01*
X013799Y008623D02*
X023428Y008623D01*
X023479Y008525D02*
X013840Y008525D01*
X013848Y008426D02*
X023479Y008426D01*
X023479Y008328D02*
X013846Y008328D01*
X013805Y008229D02*
X023479Y008229D01*
X023479Y008131D02*
X013739Y008131D01*
X014569Y009017D02*
X023284Y009017D01*
X023284Y008919D02*
X002409Y008919D01*
X002409Y009017D02*
X009744Y009017D01*
X009593Y009116D02*
X002409Y009116D01*
X002409Y008820D02*
X009744Y008820D01*
X009593Y008722D02*
X002409Y008722D01*
X002409Y008623D02*
X009518Y008623D01*
X009477Y008525D02*
X003543Y008525D01*
X003723Y008426D02*
X009468Y008426D01*
X009471Y008328D02*
X003857Y008328D01*
X003955Y008229D02*
X009512Y008229D01*
X009578Y008131D02*
X004034Y008131D01*
X004091Y008032D02*
X009708Y008032D01*
X013537Y010002D02*
X014595Y010002D01*
X014693Y010101D02*
X014127Y010101D01*
X014225Y010199D02*
X014792Y010199D01*
X014890Y010298D02*
X014324Y010298D01*
X014422Y010396D02*
X014989Y010396D01*
X015087Y010495D02*
X014521Y010495D01*
X014619Y010593D02*
X015186Y010593D01*
X014915Y010889D02*
X020981Y010889D01*
X020883Y010790D02*
X014816Y010790D01*
X014718Y010692D02*
X020784Y010692D01*
X021080Y010987D02*
X015013Y010987D01*
X014573Y011480D02*
X013848Y011480D01*
X013848Y011381D02*
X014474Y011381D01*
X014375Y011283D02*
X013828Y011283D01*
X013787Y011184D02*
X014277Y011184D01*
X014178Y011086D02*
X013694Y011086D01*
X013645Y010790D02*
X013883Y010790D01*
X013818Y011578D02*
X014671Y011578D01*
X014837Y011677D02*
X013769Y011677D01*
X013670Y011775D02*
X020868Y011775D01*
X020967Y011874D02*
X005777Y011874D01*
X005777Y011972D02*
X021065Y011972D01*
X021164Y012071D02*
X013679Y012071D01*
X013685Y012760D02*
X020853Y012760D01*
X020952Y012859D02*
X005739Y012859D01*
X005739Y012957D02*
X021050Y012957D01*
X021062Y013056D02*
X021149Y013056D01*
X021180Y013154D02*
X021247Y013154D01*
X021279Y013253D02*
X021346Y013253D01*
X021377Y013351D02*
X021444Y013351D01*
X021476Y013450D02*
X021543Y013450D01*
X021574Y013548D02*
X021641Y013548D01*
X021673Y013647D02*
X021740Y013647D01*
X021771Y013745D02*
X021838Y013745D01*
X021870Y013844D02*
X021937Y013844D01*
X021968Y013942D02*
X022035Y013942D01*
X022067Y014041D02*
X022134Y014041D01*
X022165Y014139D02*
X022232Y014139D01*
X022264Y014238D02*
X022331Y014238D01*
X022362Y014336D02*
X022429Y014336D01*
X022461Y014435D02*
X022528Y014435D01*
X022559Y014533D02*
X022626Y014533D01*
X022658Y014632D02*
X022725Y014632D01*
X022756Y014730D02*
X022823Y014730D01*
X022855Y014829D02*
X022922Y014829D01*
X022953Y014927D02*
X023020Y014927D01*
X023052Y015026D02*
X023119Y015026D01*
X023150Y015124D02*
X023217Y015124D01*
X023249Y015223D02*
X030816Y015223D01*
X030914Y015321D02*
X023347Y015321D01*
X023446Y015420D02*
X031013Y015420D01*
X031111Y015518D02*
X023544Y015518D01*
X022907Y015814D02*
X022894Y015814D01*
X022980Y015912D02*
X023005Y015912D01*
X023037Y016011D02*
X023104Y016011D01*
X023135Y016109D02*
X023202Y016109D01*
X023234Y016208D02*
X030801Y016208D01*
X030899Y016306D02*
X023332Y016306D01*
X023431Y016405D02*
X030998Y016405D01*
X031096Y016503D02*
X023529Y016503D01*
X023089Y016996D02*
X012799Y016996D01*
X012795Y017022D02*
X012768Y017105D01*
X012729Y017182D01*
X012678Y017252D01*
X012617Y017313D01*
X012547Y017364D01*
X012470Y017403D01*
X012387Y017430D01*
X012308Y017443D01*
X012308Y016944D01*
X012807Y016944D01*
X012795Y017022D01*
X012772Y017094D02*
X023187Y017094D01*
X022990Y016897D02*
X012308Y016897D01*
X012308Y016799D02*
X012208Y016799D01*
X012208Y016996D02*
X012308Y016996D01*
X012308Y017094D02*
X012208Y017094D01*
X012208Y017193D02*
X012308Y017193D01*
X012308Y017291D02*
X012208Y017291D01*
X012208Y017390D02*
X012308Y017390D01*
X012496Y017390D02*
X025079Y017390D01*
X025079Y017291D02*
X012639Y017291D01*
X012721Y017193D02*
X025116Y017193D01*
X025129Y018178D02*
X012595Y018178D01*
X012683Y018276D02*
X025129Y018276D01*
X025129Y018375D02*
X012739Y018375D01*
X012771Y018473D02*
X025129Y018473D01*
X025789Y018473D02*
X036468Y018473D01*
X036489Y018554D02*
X036878Y018554D01*
X037154Y018829D01*
X037154Y019219D01*
X036878Y019494D01*
X036489Y019494D01*
X036214Y019219D01*
X036214Y018829D01*
X036489Y018554D01*
X036471Y018572D02*
X025789Y018572D01*
X025789Y018670D02*
X036373Y018670D01*
X036274Y018769D02*
X025789Y018769D01*
X025789Y018867D02*
X036214Y018867D01*
X036214Y018966D02*
X025789Y018966D01*
X025789Y019064D02*
X036214Y019064D01*
X036214Y019163D02*
X025789Y019163D01*
X025789Y019261D02*
X036256Y019261D01*
X036355Y019360D02*
X025789Y019360D01*
X025789Y019458D02*
X036453Y019458D01*
X036914Y019458D02*
X037453Y019458D01*
X037355Y019360D02*
X037013Y019360D01*
X037111Y019261D02*
X037256Y019261D01*
X037214Y019163D02*
X037154Y019163D01*
X037154Y019064D02*
X037214Y019064D01*
X037214Y018966D02*
X037154Y018966D01*
X037154Y018867D02*
X037214Y018867D01*
X037274Y018769D02*
X037093Y018769D01*
X036994Y018670D02*
X037373Y018670D01*
X037471Y018572D02*
X036896Y018572D01*
X036899Y018473D02*
X037468Y018473D01*
X037370Y018375D02*
X036998Y018375D01*
X037096Y018276D02*
X037271Y018276D01*
X037214Y018178D02*
X037154Y018178D01*
X037154Y018079D02*
X037214Y018079D01*
X037214Y017981D02*
X037154Y017981D01*
X037154Y017882D02*
X037214Y017882D01*
X037259Y017784D02*
X037108Y017784D01*
X037009Y017685D02*
X037358Y017685D01*
X037634Y017390D02*
X037734Y017390D01*
X037734Y017291D02*
X037634Y017291D01*
X037634Y017193D02*
X037734Y017193D01*
X037734Y016897D02*
X037634Y016897D01*
X037634Y016799D02*
X037734Y016799D01*
X037734Y016700D02*
X037634Y016700D01*
X037634Y016602D02*
X037734Y016602D01*
X037470Y016602D02*
X036926Y016602D01*
X037024Y016700D02*
X037371Y016700D01*
X037273Y016799D02*
X037123Y016799D01*
X036968Y016405D02*
X037400Y016405D01*
X037301Y016306D02*
X037066Y016306D01*
X037154Y016208D02*
X037214Y016208D01*
X037214Y016109D02*
X037154Y016109D01*
X037154Y016011D02*
X037214Y016011D01*
X037214Y015912D02*
X037154Y015912D01*
X037138Y015814D02*
X037229Y015814D01*
X037328Y015715D02*
X037039Y015715D01*
X036941Y015617D02*
X037426Y015617D01*
X037489Y015494D02*
X037214Y015219D01*
X037214Y014829D01*
X037489Y014554D01*
X037878Y014554D01*
X038154Y014829D01*
X038154Y015219D01*
X037878Y015494D01*
X037489Y015494D01*
X037415Y015420D02*
X036953Y015420D01*
X037051Y015321D02*
X037316Y015321D01*
X037218Y015223D02*
X037150Y015223D01*
X037154Y015124D02*
X037214Y015124D01*
X037214Y015026D02*
X037154Y015026D01*
X037154Y014927D02*
X037214Y014927D01*
X037214Y014829D02*
X037153Y014829D01*
X037054Y014730D02*
X037313Y014730D01*
X037411Y014632D02*
X036956Y014632D01*
X036411Y014632D02*
X035593Y014632D01*
X035581Y014730D02*
X035494Y014730D01*
X035462Y014829D02*
X035396Y014829D01*
X035364Y014927D02*
X035297Y014927D01*
X035265Y015026D02*
X035199Y015026D01*
X035167Y015124D02*
X035100Y015124D01*
X035068Y015223D02*
X035002Y015223D01*
X034970Y015321D02*
X034903Y015321D01*
X034871Y015420D02*
X034805Y015420D01*
X034773Y015518D02*
X034706Y015518D01*
X034364Y014927D02*
X031453Y014927D01*
X031355Y014829D02*
X034462Y014829D01*
X034561Y014730D02*
X031256Y014730D01*
X031041Y014533D02*
X031008Y014533D01*
X031028Y014435D02*
X023461Y014435D01*
X023362Y014336D02*
X030929Y014336D01*
X030831Y014238D02*
X023264Y014238D01*
X023247Y014139D02*
X023165Y014139D01*
X023134Y014041D02*
X023067Y014041D01*
X023035Y013942D02*
X022968Y013942D01*
X022937Y013844D02*
X022870Y013844D01*
X022838Y013745D02*
X022771Y013745D01*
X022740Y013647D02*
X022673Y013647D01*
X022641Y013548D02*
X022574Y013548D01*
X022543Y013450D02*
X022476Y013450D01*
X022444Y013351D02*
X022377Y013351D01*
X022346Y013253D02*
X022279Y013253D01*
X022247Y013154D02*
X022180Y013154D01*
X022149Y013056D02*
X022082Y013056D01*
X022129Y013036D02*
X022129Y013036D01*
X022050Y012957D02*
X021983Y012957D01*
X021952Y012859D02*
X021885Y012859D01*
X021853Y012760D02*
X021786Y012760D01*
X021755Y012662D02*
X021688Y012662D01*
X021656Y012563D02*
X021589Y012563D01*
X021558Y012465D02*
X021491Y012465D01*
X021459Y012366D02*
X021392Y012366D01*
X021361Y012268D02*
X021294Y012268D01*
X021262Y012169D02*
X021195Y012169D01*
X021703Y011677D02*
X021770Y011677D01*
X021801Y011775D02*
X021868Y011775D01*
X021900Y011874D02*
X021967Y011874D01*
X021998Y011972D02*
X022065Y011972D01*
X022097Y012071D02*
X022164Y012071D01*
X022195Y012169D02*
X022262Y012169D01*
X022294Y012268D02*
X022361Y012268D01*
X022392Y012366D02*
X022459Y012366D01*
X022491Y012465D02*
X022558Y012465D01*
X022589Y012563D02*
X022656Y012563D01*
X022596Y012569D02*
X022596Y012569D01*
X022688Y012662D02*
X022755Y012662D01*
X022786Y012760D02*
X022853Y012760D01*
X022885Y012859D02*
X022952Y012859D01*
X022983Y012957D02*
X023050Y012957D01*
X023082Y013056D02*
X023149Y013056D01*
X023129Y013036D02*
X023129Y013036D01*
X023180Y013154D02*
X023283Y013154D01*
X023279Y013253D02*
X030846Y013253D01*
X030944Y013351D02*
X023377Y013351D01*
X023476Y013450D02*
X031041Y013450D01*
X031271Y013745D02*
X035546Y013745D01*
X035644Y013647D02*
X031748Y013647D01*
X031777Y013548D02*
X035773Y013548D01*
X035873Y013450D02*
X031777Y013450D01*
X031777Y013351D02*
X035791Y013351D01*
X035791Y013253D02*
X031777Y013253D01*
X031777Y013154D02*
X035791Y013154D01*
X035791Y013056D02*
X031752Y013056D01*
X031483Y012957D02*
X035791Y012957D01*
X035791Y012859D02*
X031385Y012859D01*
X031286Y012760D02*
X035861Y012760D01*
X036456Y012760D02*
X039531Y012760D01*
X039579Y012662D02*
X037016Y012662D01*
X036974Y012679D02*
X031343Y012679D01*
X031222Y012629D01*
X030772Y012179D01*
X029715Y012179D01*
X029677Y012217D01*
X029140Y012217D01*
X029041Y012118D01*
X029041Y011581D01*
X029140Y011481D01*
X029677Y011481D01*
X029715Y011519D01*
X030974Y011519D01*
X031096Y011569D01*
X031188Y011662D01*
X031545Y012019D01*
X036772Y012019D01*
X037329Y011462D01*
X037329Y009860D01*
X037263Y009794D01*
X037192Y009622D01*
X037192Y009437D01*
X037263Y009265D01*
X037394Y009134D01*
X037566Y009063D01*
X037752Y009063D01*
X037923Y009134D01*
X038055Y009265D01*
X038126Y009437D01*
X038126Y009622D01*
X038055Y009794D01*
X037989Y009860D01*
X037989Y011665D01*
X037939Y011786D01*
X037188Y012536D01*
X037096Y012629D01*
X036974Y012679D01*
X037161Y012563D02*
X039579Y012563D01*
X039579Y012465D02*
X037260Y012465D01*
X037358Y012366D02*
X039579Y012366D01*
X039579Y012268D02*
X037457Y012268D01*
X037555Y012169D02*
X039579Y012169D01*
X039579Y012071D02*
X037654Y012071D01*
X037752Y011972D02*
X039579Y011972D01*
X039579Y011874D02*
X037851Y011874D01*
X037943Y011775D02*
X039579Y011775D01*
X039579Y011677D02*
X037984Y011677D01*
X037989Y011578D02*
X039579Y011578D01*
X039579Y011480D02*
X037989Y011480D01*
X037989Y011381D02*
X039579Y011381D01*
X039579Y011283D02*
X037989Y011283D01*
X037989Y011184D02*
X039579Y011184D01*
X039579Y011086D02*
X037989Y011086D01*
X037989Y010987D02*
X039579Y010987D01*
X039579Y010889D02*
X037989Y010889D01*
X037989Y010790D02*
X039579Y010790D01*
X039579Y010692D02*
X037989Y010692D01*
X037989Y010593D02*
X039579Y010593D01*
X039579Y010495D02*
X037989Y010495D01*
X037989Y010396D02*
X039579Y010396D01*
X039579Y010298D02*
X037989Y010298D01*
X037989Y010199D02*
X039579Y010199D01*
X039579Y010101D02*
X037989Y010101D01*
X037989Y010002D02*
X039579Y010002D01*
X039579Y009904D02*
X039119Y009904D01*
X039126Y009897D02*
X039026Y009996D01*
X038292Y009996D01*
X038192Y009897D01*
X038192Y009162D01*
X038292Y009063D01*
X039026Y009063D01*
X039126Y009162D01*
X039126Y009897D01*
X039126Y009805D02*
X039579Y009805D01*
X039579Y009707D02*
X039126Y009707D01*
X039126Y009608D02*
X039579Y009608D01*
X039579Y009510D02*
X039126Y009510D01*
X039126Y009411D02*
X039579Y009411D01*
X039579Y009313D02*
X039126Y009313D01*
X039126Y009214D02*
X039579Y009214D01*
X039579Y009116D02*
X039079Y009116D01*
X038977Y008919D02*
X039511Y008919D01*
X039579Y009017D02*
X038788Y009017D01*
X038529Y009017D02*
X025409Y009017D01*
X025409Y008919D02*
X026388Y008919D01*
X026394Y008925D02*
X026263Y008794D01*
X026192Y008622D01*
X026192Y008437D01*
X026263Y008265D01*
X026394Y008134D01*
X026566Y008063D01*
X026752Y008063D01*
X026923Y008134D01*
X027055Y008265D01*
X027126Y008437D01*
X027126Y008622D01*
X027055Y008794D01*
X026923Y008925D01*
X026752Y008996D01*
X026566Y008996D01*
X026394Y008925D01*
X026289Y008820D02*
X025409Y008820D01*
X025409Y008767D02*
X025409Y009181D01*
X025116Y009474D01*
X024702Y009474D01*
X024409Y009181D01*
X024409Y008767D01*
X024629Y008547D01*
X024629Y007833D01*
X024679Y007712D01*
X024772Y007619D01*
X025179Y007212D01*
X025272Y007119D01*
X025393Y007069D01*
X035072Y007069D01*
X035441Y006701D01*
X035441Y006626D01*
X035497Y006491D01*
X035600Y006387D01*
X035735Y006331D01*
X035882Y006331D01*
X036017Y006387D01*
X036121Y006491D01*
X036177Y006626D01*
X036177Y006772D01*
X036139Y006864D01*
X036139Y006865D01*
X036088Y006986D01*
X035488Y007586D01*
X035396Y007679D01*
X035274Y007729D01*
X025595Y007729D01*
X025289Y008036D01*
X025289Y008647D01*
X025409Y008767D01*
X025363Y008722D02*
X026233Y008722D01*
X026192Y008623D02*
X025289Y008623D01*
X025289Y008525D02*
X026192Y008525D01*
X026196Y008426D02*
X025289Y008426D01*
X025289Y008328D02*
X026237Y008328D01*
X026299Y008229D02*
X025289Y008229D01*
X025289Y008131D02*
X026402Y008131D01*
X025588Y007737D02*
X040409Y007737D01*
X040409Y007835D02*
X025489Y007835D01*
X025391Y007934D02*
X040409Y007934D01*
X040409Y008032D02*
X038764Y008032D01*
X038553Y008032D02*
X025292Y008032D01*
X024753Y007638D02*
X024636Y007638D01*
X024669Y007737D02*
X024538Y007737D01*
X024629Y007835D02*
X024439Y007835D01*
X024341Y007934D02*
X024629Y007934D01*
X024629Y008032D02*
X024242Y008032D01*
X024144Y008131D02*
X024629Y008131D01*
X024629Y008229D02*
X024139Y008229D01*
X024139Y008328D02*
X024629Y008328D01*
X024629Y008426D02*
X024139Y008426D01*
X024139Y008525D02*
X024629Y008525D01*
X024553Y008623D02*
X024140Y008623D01*
X024238Y008722D02*
X024454Y008722D01*
X024409Y008820D02*
X024284Y008820D01*
X024284Y008919D02*
X024409Y008919D01*
X024409Y009017D02*
X024284Y009017D01*
X024284Y009116D02*
X024409Y009116D01*
X024442Y009214D02*
X024251Y009214D01*
X024152Y009313D02*
X024540Y009313D01*
X024639Y009411D02*
X024054Y009411D01*
X023514Y009411D02*
X014937Y009411D01*
X014839Y009313D02*
X023415Y009313D01*
X023317Y009214D02*
X014751Y009214D01*
X014696Y009116D02*
X023284Y009116D01*
X023519Y007835D02*
X004175Y007835D01*
X004149Y007931D02*
X004223Y007656D01*
X004223Y007372D01*
X004149Y007097D01*
X004007Y006851D01*
X003806Y006650D01*
X003560Y006508D01*
X003285Y006434D01*
X003001Y006434D01*
X002726Y006508D01*
X002480Y006650D01*
X002409Y006721D01*
X002409Y005607D01*
X002780Y005903D01*
X002780Y005903D01*
X003238Y006083D01*
X003238Y006083D01*
X003728Y006120D01*
X003728Y006120D01*
X004207Y006010D01*
X004207Y006010D01*
X004633Y005764D01*
X004633Y005764D01*
X004968Y005404D01*
X004968Y005404D01*
X005181Y004961D01*
X005181Y004961D01*
X005255Y004474D01*
X005181Y003988D01*
X005181Y003988D01*
X004968Y003545D01*
X004968Y003545D01*
X004633Y003184D01*
X004633Y003184D01*
X004207Y002938D01*
X004207Y002938D01*
X004083Y002910D02*
X038625Y002910D01*
X038374Y003009D02*
X004329Y003009D01*
X004500Y003107D02*
X038201Y003107D01*
X038077Y003206D02*
X004653Y003206D01*
X004633Y003184D02*
X004633Y003184D01*
X004745Y003304D02*
X037954Y003304D01*
X037859Y003403D02*
X004836Y003403D01*
X004927Y003501D02*
X037791Y003501D01*
X037724Y003600D02*
X004994Y003600D01*
X005042Y003698D02*
X037657Y003698D01*
X037604Y003797D02*
X005089Y003797D01*
X005137Y003895D02*
X037573Y003895D01*
X037543Y003994D02*
X005182Y003994D01*
X005197Y004092D02*
X037513Y004092D01*
X037482Y004191D02*
X005212Y004191D01*
X005227Y004289D02*
X037470Y004289D01*
X037470Y004388D02*
X005242Y004388D01*
X005253Y004486D02*
X037470Y004486D01*
X037470Y004585D02*
X005238Y004585D01*
X005223Y004683D02*
X037470Y004683D01*
X037489Y004782D02*
X005208Y004782D01*
X005194Y004880D02*
X037519Y004880D01*
X037549Y004979D02*
X005173Y004979D01*
X005125Y005077D02*
X037580Y005077D01*
X037610Y005176D02*
X005078Y005176D01*
X005030Y005274D02*
X037671Y005274D01*
X037739Y005373D02*
X004983Y005373D01*
X004906Y005471D02*
X037806Y005471D01*
X037873Y005570D02*
X004814Y005570D01*
X004723Y005668D02*
X037980Y005668D01*
X038104Y005767D02*
X004630Y005767D01*
X004459Y005865D02*
X038227Y005865D01*
X038427Y005964D02*
X004288Y005964D01*
X003981Y006062D02*
X038678Y006062D01*
X039483Y006062D02*
X040409Y006062D01*
X040409Y005964D02*
X039788Y005964D01*
X039958Y005865D02*
X040409Y005865D01*
X040409Y005767D02*
X040129Y005767D01*
X040221Y005668D02*
X040409Y005668D01*
X040409Y005570D02*
X040312Y005570D01*
X040404Y005471D02*
X040409Y005471D01*
X040409Y006161D02*
X002409Y006161D01*
X002409Y006259D02*
X040409Y006259D01*
X040409Y006358D02*
X035946Y006358D01*
X036086Y006456D02*
X040409Y006456D01*
X040409Y006555D02*
X036147Y006555D01*
X036177Y006653D02*
X040409Y006653D01*
X040409Y006752D02*
X036177Y006752D01*
X036145Y006850D02*
X040409Y006850D01*
X040409Y006949D02*
X036104Y006949D01*
X036027Y007047D02*
X040409Y007047D01*
X040409Y007146D02*
X035929Y007146D01*
X035830Y007244D02*
X040409Y007244D01*
X040409Y007343D02*
X035732Y007343D01*
X035633Y007441D02*
X040409Y007441D01*
X040409Y007540D02*
X035535Y007540D01*
X035436Y007638D02*
X040409Y007638D01*
X040409Y008131D02*
X038967Y008131D01*
X038351Y008131D02*
X037916Y008131D01*
X037923Y008134D02*
X038055Y008265D01*
X038126Y008437D01*
X038126Y008622D01*
X038055Y008794D01*
X037923Y008925D01*
X037752Y008996D01*
X037566Y008996D01*
X037394Y008925D01*
X037263Y008794D01*
X037192Y008622D01*
X037192Y008437D01*
X037263Y008265D01*
X037394Y008134D01*
X037566Y008063D01*
X037752Y008063D01*
X037923Y008134D01*
X038019Y008229D02*
X038252Y008229D01*
X038201Y008328D02*
X038081Y008328D01*
X038121Y008426D02*
X038161Y008426D01*
X038159Y008525D02*
X038126Y008525D01*
X038125Y008623D02*
X038159Y008623D01*
X038197Y008722D02*
X038085Y008722D01*
X038029Y008820D02*
X038242Y008820D01*
X038341Y008919D02*
X037930Y008919D01*
X037879Y009116D02*
X038239Y009116D01*
X038192Y009214D02*
X038004Y009214D01*
X038074Y009313D02*
X038192Y009313D01*
X038192Y009411D02*
X038115Y009411D01*
X038126Y009510D02*
X038192Y009510D01*
X038192Y009608D02*
X038126Y009608D01*
X038091Y009707D02*
X038192Y009707D01*
X038192Y009805D02*
X038044Y009805D01*
X037989Y009904D02*
X038199Y009904D01*
X037329Y009904D02*
X036945Y009904D01*
X036923Y009925D02*
X036752Y009996D01*
X036566Y009996D01*
X036394Y009925D01*
X036263Y009794D01*
X036192Y009622D01*
X036192Y009437D01*
X036263Y009265D01*
X036394Y009134D01*
X036566Y009063D01*
X036752Y009063D01*
X036923Y009134D01*
X037055Y009265D01*
X037126Y009437D01*
X037126Y009622D01*
X037055Y009794D01*
X036923Y009925D01*
X037044Y009805D02*
X037274Y009805D01*
X037227Y009707D02*
X037091Y009707D01*
X037126Y009608D02*
X037192Y009608D01*
X037192Y009510D02*
X037126Y009510D01*
X037115Y009411D02*
X037203Y009411D01*
X037243Y009313D02*
X037074Y009313D01*
X037004Y009214D02*
X037314Y009214D01*
X037438Y009116D02*
X036879Y009116D01*
X036843Y008974D02*
X036771Y008998D01*
X036707Y009008D01*
X036707Y008578D01*
X036610Y008578D01*
X036610Y008481D01*
X036181Y008481D01*
X036191Y008417D01*
X036214Y008345D01*
X036248Y008278D01*
X036293Y008217D01*
X036346Y008163D01*
X036407Y008119D01*
X036475Y008085D01*
X036546Y008061D01*
X036610Y008051D01*
X036610Y008481D01*
X036707Y008481D01*
X036707Y008051D01*
X036771Y008061D01*
X036843Y008085D01*
X036910Y008119D01*
X036972Y008163D01*
X037025Y008217D01*
X037069Y008278D01*
X037104Y008345D01*
X037127Y008417D01*
X037137Y008481D01*
X036707Y008481D01*
X036707Y008578D01*
X037137Y008578D01*
X037127Y008642D01*
X037104Y008714D01*
X037069Y008781D01*
X037025Y008842D01*
X036972Y008896D01*
X036910Y008940D01*
X036843Y008974D01*
X036940Y008919D02*
X037388Y008919D01*
X037289Y008820D02*
X037041Y008820D01*
X037100Y008722D02*
X037233Y008722D01*
X037192Y008623D02*
X037130Y008623D01*
X037192Y008525D02*
X036707Y008525D01*
X036610Y008525D02*
X036126Y008525D01*
X036181Y008578D02*
X036610Y008578D01*
X036610Y009008D01*
X036546Y008998D01*
X036475Y008974D01*
X036407Y008940D01*
X036346Y008896D01*
X036293Y008842D01*
X036248Y008781D01*
X036214Y008714D01*
X036191Y008642D01*
X036181Y008578D01*
X036188Y008623D02*
X036125Y008623D01*
X036126Y008622D02*
X036055Y008794D01*
X035923Y008925D01*
X035752Y008996D01*
X035566Y008996D01*
X035394Y008925D01*
X035263Y008794D01*
X035192Y008622D01*
X035192Y008437D01*
X035263Y008265D01*
X035394Y008134D01*
X035566Y008063D01*
X035752Y008063D01*
X035923Y008134D01*
X036055Y008265D01*
X036126Y008437D01*
X036126Y008622D01*
X036085Y008722D02*
X036218Y008722D01*
X036277Y008820D02*
X036029Y008820D01*
X035930Y008919D02*
X036378Y008919D01*
X036438Y009116D02*
X035879Y009116D01*
X035923Y009134D02*
X036055Y009265D01*
X036126Y009437D01*
X036126Y009622D01*
X036055Y009794D01*
X035923Y009925D01*
X035752Y009996D01*
X035566Y009996D01*
X035394Y009925D01*
X035263Y009794D01*
X035192Y009622D01*
X035192Y009437D01*
X035263Y009265D01*
X035394Y009134D01*
X035566Y009063D01*
X035752Y009063D01*
X035923Y009134D01*
X036004Y009214D02*
X036314Y009214D01*
X036243Y009313D02*
X036074Y009313D01*
X036115Y009411D02*
X036203Y009411D01*
X036192Y009510D02*
X036126Y009510D01*
X036126Y009608D02*
X036192Y009608D01*
X036227Y009707D02*
X036091Y009707D01*
X036044Y009805D02*
X036274Y009805D01*
X036373Y009904D02*
X035945Y009904D01*
X035373Y009904D02*
X034945Y009904D01*
X034923Y009925D02*
X034752Y009996D01*
X034566Y009996D01*
X034394Y009925D01*
X034263Y009794D01*
X034192Y009622D01*
X034192Y009437D01*
X034263Y009265D01*
X034394Y009134D01*
X034566Y009063D01*
X034752Y009063D01*
X034923Y009134D01*
X035055Y009265D01*
X035126Y009437D01*
X035126Y009622D01*
X035055Y009794D01*
X034923Y009925D01*
X035044Y009805D02*
X035274Y009805D01*
X035227Y009707D02*
X035091Y009707D01*
X035126Y009608D02*
X035192Y009608D01*
X035192Y009510D02*
X035126Y009510D01*
X035115Y009411D02*
X035203Y009411D01*
X035243Y009313D02*
X035074Y009313D01*
X035004Y009214D02*
X035314Y009214D01*
X035438Y009116D02*
X034879Y009116D01*
X034752Y008996D02*
X034566Y008996D01*
X034394Y008925D01*
X034263Y008794D01*
X034192Y008622D01*
X034192Y008437D01*
X034263Y008265D01*
X034394Y008134D01*
X034566Y008063D01*
X034752Y008063D01*
X034923Y008134D01*
X035055Y008265D01*
X035126Y008437D01*
X035126Y008622D01*
X035055Y008794D01*
X034923Y008925D01*
X034752Y008996D01*
X034930Y008919D02*
X035388Y008919D01*
X035289Y008820D02*
X035029Y008820D01*
X035085Y008722D02*
X035233Y008722D01*
X035192Y008623D02*
X035125Y008623D01*
X035126Y008525D02*
X035192Y008525D01*
X035196Y008426D02*
X035121Y008426D01*
X035081Y008328D02*
X035237Y008328D01*
X035299Y008229D02*
X035019Y008229D01*
X034916Y008131D02*
X035402Y008131D01*
X035916Y008131D02*
X036391Y008131D01*
X036284Y008229D02*
X036019Y008229D01*
X036081Y008328D02*
X036223Y008328D01*
X036189Y008426D02*
X036121Y008426D01*
X036610Y008426D02*
X036707Y008426D01*
X036707Y008328D02*
X036610Y008328D01*
X036610Y008229D02*
X036707Y008229D01*
X036707Y008131D02*
X036610Y008131D01*
X036926Y008131D02*
X037402Y008131D01*
X037299Y008229D02*
X037034Y008229D01*
X037095Y008328D02*
X037237Y008328D01*
X037196Y008426D02*
X037128Y008426D01*
X036707Y008623D02*
X036610Y008623D01*
X036610Y008722D02*
X036707Y008722D01*
X036707Y008820D02*
X036610Y008820D01*
X036610Y008919D02*
X036707Y008919D01*
X037329Y010002D02*
X015528Y010002D01*
X015430Y009904D02*
X026373Y009904D01*
X026394Y009925D02*
X026263Y009794D01*
X026192Y009622D01*
X026192Y009437D01*
X026263Y009265D01*
X026394Y009134D01*
X026566Y009063D01*
X026752Y009063D01*
X026923Y009134D01*
X027055Y009265D01*
X027126Y009437D01*
X027126Y009622D01*
X027055Y009794D01*
X026923Y009925D01*
X026752Y009996D01*
X026566Y009996D01*
X026394Y009925D01*
X026274Y009805D02*
X015331Y009805D01*
X015233Y009707D02*
X026227Y009707D01*
X026192Y009608D02*
X015134Y009608D01*
X015036Y009510D02*
X026192Y009510D01*
X026203Y009411D02*
X025179Y009411D01*
X025277Y009313D02*
X026243Y009313D01*
X026314Y009214D02*
X025376Y009214D01*
X025409Y009116D02*
X026438Y009116D01*
X026879Y009116D02*
X027438Y009116D01*
X027394Y009134D02*
X027566Y009063D01*
X027752Y009063D01*
X027923Y009134D01*
X028055Y009265D01*
X028126Y009437D01*
X028126Y009622D01*
X028055Y009794D01*
X027923Y009925D01*
X027752Y009996D01*
X027566Y009996D01*
X027394Y009925D01*
X027263Y009794D01*
X027192Y009622D01*
X027192Y009437D01*
X027263Y009265D01*
X027394Y009134D01*
X027314Y009214D02*
X027004Y009214D01*
X027074Y009313D02*
X027243Y009313D01*
X027203Y009411D02*
X027115Y009411D01*
X027126Y009510D02*
X027192Y009510D01*
X027192Y009608D02*
X027126Y009608D01*
X027091Y009707D02*
X027227Y009707D01*
X027274Y009805D02*
X027044Y009805D01*
X026945Y009904D02*
X027373Y009904D01*
X027945Y009904D02*
X028373Y009904D01*
X028394Y009925D02*
X028263Y009794D01*
X028192Y009622D01*
X028192Y009437D01*
X028263Y009265D01*
X028394Y009134D01*
X028566Y009063D01*
X028752Y009063D01*
X028923Y009134D01*
X029055Y009265D01*
X029126Y009437D01*
X029126Y009622D01*
X029055Y009794D01*
X028923Y009925D01*
X028752Y009996D01*
X028566Y009996D01*
X028394Y009925D01*
X028274Y009805D02*
X028044Y009805D01*
X028091Y009707D02*
X028227Y009707D01*
X028192Y009608D02*
X028126Y009608D01*
X028126Y009510D02*
X028192Y009510D01*
X028203Y009411D02*
X028115Y009411D01*
X028074Y009313D02*
X028243Y009313D01*
X028314Y009214D02*
X028004Y009214D01*
X027879Y009116D02*
X028438Y009116D01*
X028566Y008996D02*
X028394Y008925D01*
X028263Y008794D01*
X028192Y008622D01*
X028192Y008437D01*
X028263Y008265D01*
X028394Y008134D01*
X028566Y008063D01*
X028752Y008063D01*
X028923Y008134D01*
X029055Y008265D01*
X029126Y008437D01*
X029126Y008622D01*
X029055Y008794D01*
X028923Y008925D01*
X028752Y008996D01*
X028566Y008996D01*
X028388Y008919D02*
X027930Y008919D01*
X027923Y008925D02*
X027752Y008996D01*
X027566Y008996D01*
X027394Y008925D01*
X027263Y008794D01*
X027192Y008622D01*
X027192Y008437D01*
X027263Y008265D01*
X027394Y008134D01*
X027566Y008063D01*
X027752Y008063D01*
X027923Y008134D01*
X028055Y008265D01*
X028126Y008437D01*
X028126Y008622D01*
X028055Y008794D01*
X027923Y008925D01*
X028029Y008820D02*
X028289Y008820D01*
X028233Y008722D02*
X028085Y008722D01*
X028125Y008623D02*
X028192Y008623D01*
X028192Y008525D02*
X028126Y008525D01*
X028121Y008426D02*
X028196Y008426D01*
X028237Y008328D02*
X028081Y008328D01*
X028019Y008229D02*
X028299Y008229D01*
X028402Y008131D02*
X027916Y008131D01*
X027402Y008131D02*
X026916Y008131D01*
X027019Y008229D02*
X027299Y008229D01*
X027237Y008328D02*
X027081Y008328D01*
X027121Y008426D02*
X027196Y008426D01*
X027192Y008525D02*
X027126Y008525D01*
X027125Y008623D02*
X027192Y008623D01*
X027233Y008722D02*
X027085Y008722D01*
X027029Y008820D02*
X027289Y008820D01*
X027388Y008919D02*
X026930Y008919D01*
X028879Y009116D02*
X029438Y009116D01*
X029394Y009134D02*
X029566Y009063D01*
X029752Y009063D01*
X029923Y009134D01*
X030055Y009265D01*
X030126Y009437D01*
X030126Y009622D01*
X030055Y009794D01*
X029923Y009925D01*
X029752Y009996D01*
X029566Y009996D01*
X029394Y009925D01*
X029263Y009794D01*
X029192Y009622D01*
X029192Y009437D01*
X029263Y009265D01*
X029394Y009134D01*
X029314Y009214D02*
X029004Y009214D01*
X029074Y009313D02*
X029243Y009313D01*
X029203Y009411D02*
X029115Y009411D01*
X029126Y009510D02*
X029192Y009510D01*
X029192Y009608D02*
X029126Y009608D01*
X029091Y009707D02*
X029227Y009707D01*
X029274Y009805D02*
X029044Y009805D01*
X028945Y009904D02*
X029373Y009904D01*
X029945Y009904D02*
X030373Y009904D01*
X030394Y009925D02*
X030263Y009794D01*
X030192Y009622D01*
X030192Y009437D01*
X030263Y009265D01*
X030394Y009134D01*
X030566Y009063D01*
X030752Y009063D01*
X030923Y009134D01*
X031055Y009265D01*
X031126Y009437D01*
X031126Y009622D01*
X031055Y009794D01*
X030923Y009925D01*
X030752Y009996D01*
X030566Y009996D01*
X030394Y009925D01*
X030274Y009805D02*
X030044Y009805D01*
X030091Y009707D02*
X030227Y009707D01*
X030192Y009608D02*
X030126Y009608D01*
X030126Y009510D02*
X030192Y009510D01*
X030203Y009411D02*
X030115Y009411D01*
X030074Y009313D02*
X030243Y009313D01*
X030314Y009214D02*
X030004Y009214D01*
X029879Y009116D02*
X030438Y009116D01*
X030566Y008996D02*
X030394Y008925D01*
X030263Y008794D01*
X030192Y008622D01*
X030192Y008437D01*
X030263Y008265D01*
X030394Y008134D01*
X030566Y008063D01*
X030752Y008063D01*
X030923Y008134D01*
X031055Y008265D01*
X031126Y008437D01*
X031126Y008622D01*
X031055Y008794D01*
X030923Y008925D01*
X030752Y008996D01*
X030566Y008996D01*
X030388Y008919D02*
X029930Y008919D01*
X029923Y008925D02*
X029752Y008996D01*
X029566Y008996D01*
X029394Y008925D01*
X029263Y008794D01*
X029192Y008622D01*
X029192Y008437D01*
X029263Y008265D01*
X029394Y008134D01*
X029566Y008063D01*
X029752Y008063D01*
X029923Y008134D01*
X030055Y008265D01*
X030126Y008437D01*
X030126Y008622D01*
X030055Y008794D01*
X029923Y008925D01*
X030029Y008820D02*
X030289Y008820D01*
X030233Y008722D02*
X030085Y008722D01*
X030125Y008623D02*
X030192Y008623D01*
X030192Y008525D02*
X030126Y008525D01*
X030121Y008426D02*
X030196Y008426D01*
X030237Y008328D02*
X030081Y008328D01*
X030019Y008229D02*
X030299Y008229D01*
X030402Y008131D02*
X029916Y008131D01*
X029402Y008131D02*
X028916Y008131D01*
X029019Y008229D02*
X029299Y008229D01*
X029237Y008328D02*
X029081Y008328D01*
X029121Y008426D02*
X029196Y008426D01*
X029192Y008525D02*
X029126Y008525D01*
X029125Y008623D02*
X029192Y008623D01*
X029233Y008722D02*
X029085Y008722D01*
X029029Y008820D02*
X029289Y008820D01*
X029388Y008919D02*
X028930Y008919D01*
X030879Y009116D02*
X031438Y009116D01*
X031394Y009134D02*
X031566Y009063D01*
X031752Y009063D01*
X031923Y009134D01*
X032055Y009265D01*
X032126Y009437D01*
X032126Y009622D01*
X032055Y009794D01*
X031923Y009925D01*
X031752Y009996D01*
X031566Y009996D01*
X031394Y009925D01*
X031263Y009794D01*
X031192Y009622D01*
X031192Y009437D01*
X031263Y009265D01*
X031394Y009134D01*
X031314Y009214D02*
X031004Y009214D01*
X031074Y009313D02*
X031243Y009313D01*
X031203Y009411D02*
X031115Y009411D01*
X031126Y009510D02*
X031192Y009510D01*
X031192Y009608D02*
X031126Y009608D01*
X031091Y009707D02*
X031227Y009707D01*
X031274Y009805D02*
X031044Y009805D01*
X030945Y009904D02*
X031373Y009904D01*
X031945Y009904D02*
X032373Y009904D01*
X032394Y009925D02*
X032263Y009794D01*
X032192Y009622D01*
X032192Y009437D01*
X032263Y009265D01*
X032394Y009134D01*
X032566Y009063D01*
X032752Y009063D01*
X032923Y009134D01*
X033055Y009265D01*
X033126Y009437D01*
X033126Y009622D01*
X033055Y009794D01*
X032923Y009925D01*
X032752Y009996D01*
X032566Y009996D01*
X032394Y009925D01*
X032274Y009805D02*
X032044Y009805D01*
X032091Y009707D02*
X032227Y009707D01*
X032192Y009608D02*
X032126Y009608D01*
X032126Y009510D02*
X032192Y009510D01*
X032203Y009411D02*
X032115Y009411D01*
X032074Y009313D02*
X032243Y009313D01*
X032314Y009214D02*
X032004Y009214D01*
X031879Y009116D02*
X032438Y009116D01*
X032566Y008996D02*
X032394Y008925D01*
X032263Y008794D01*
X032192Y008622D01*
X032192Y008437D01*
X032263Y008265D01*
X032394Y008134D01*
X032566Y008063D01*
X032752Y008063D01*
X032923Y008134D01*
X033055Y008265D01*
X033126Y008437D01*
X033126Y008622D01*
X033055Y008794D01*
X032923Y008925D01*
X032752Y008996D01*
X032566Y008996D01*
X032388Y008919D02*
X031930Y008919D01*
X031923Y008925D02*
X031752Y008996D01*
X031566Y008996D01*
X031394Y008925D01*
X031263Y008794D01*
X031192Y008622D01*
X031192Y008437D01*
X031263Y008265D01*
X031394Y008134D01*
X031566Y008063D01*
X031752Y008063D01*
X031923Y008134D01*
X032055Y008265D01*
X032126Y008437D01*
X032126Y008622D01*
X032055Y008794D01*
X031923Y008925D01*
X032029Y008820D02*
X032289Y008820D01*
X032233Y008722D02*
X032085Y008722D01*
X032125Y008623D02*
X032192Y008623D01*
X032192Y008525D02*
X032126Y008525D01*
X032121Y008426D02*
X032196Y008426D01*
X032237Y008328D02*
X032081Y008328D01*
X032019Y008229D02*
X032299Y008229D01*
X032402Y008131D02*
X031916Y008131D01*
X031402Y008131D02*
X030916Y008131D01*
X031019Y008229D02*
X031299Y008229D01*
X031237Y008328D02*
X031081Y008328D01*
X031121Y008426D02*
X031196Y008426D01*
X031192Y008525D02*
X031126Y008525D01*
X031125Y008623D02*
X031192Y008623D01*
X031233Y008722D02*
X031085Y008722D01*
X031029Y008820D02*
X031289Y008820D01*
X031388Y008919D02*
X030930Y008919D01*
X032879Y009116D02*
X033438Y009116D01*
X033394Y009134D02*
X033566Y009063D01*
X033752Y009063D01*
X033923Y009134D01*
X034055Y009265D01*
X034126Y009437D01*
X034126Y009622D01*
X034055Y009794D01*
X033923Y009925D01*
X033752Y009996D01*
X033566Y009996D01*
X033394Y009925D01*
X033263Y009794D01*
X033192Y009622D01*
X033192Y009437D01*
X033263Y009265D01*
X033394Y009134D01*
X033314Y009214D02*
X033004Y009214D01*
X033074Y009313D02*
X033243Y009313D01*
X033203Y009411D02*
X033115Y009411D01*
X033126Y009510D02*
X033192Y009510D01*
X033192Y009608D02*
X033126Y009608D01*
X033091Y009707D02*
X033227Y009707D01*
X033274Y009805D02*
X033044Y009805D01*
X032945Y009904D02*
X033373Y009904D01*
X033945Y009904D02*
X034373Y009904D01*
X034274Y009805D02*
X034044Y009805D01*
X034091Y009707D02*
X034227Y009707D01*
X034192Y009608D02*
X034126Y009608D01*
X034126Y009510D02*
X034192Y009510D01*
X034203Y009411D02*
X034115Y009411D01*
X034074Y009313D02*
X034243Y009313D01*
X034314Y009214D02*
X034004Y009214D01*
X033879Y009116D02*
X034438Y009116D01*
X034388Y008919D02*
X033930Y008919D01*
X033923Y008925D02*
X033752Y008996D01*
X033566Y008996D01*
X033394Y008925D01*
X033263Y008794D01*
X033192Y008622D01*
X033192Y008437D01*
X033263Y008265D01*
X033394Y008134D01*
X033566Y008063D01*
X033752Y008063D01*
X033923Y008134D01*
X034055Y008265D01*
X034126Y008437D01*
X034126Y008622D01*
X034055Y008794D01*
X033923Y008925D01*
X034029Y008820D02*
X034289Y008820D01*
X034233Y008722D02*
X034085Y008722D01*
X034125Y008623D02*
X034192Y008623D01*
X034192Y008525D02*
X034126Y008525D01*
X034121Y008426D02*
X034196Y008426D01*
X034237Y008328D02*
X034081Y008328D01*
X034019Y008229D02*
X034299Y008229D01*
X034402Y008131D02*
X033916Y008131D01*
X033402Y008131D02*
X032916Y008131D01*
X033019Y008229D02*
X033299Y008229D01*
X033237Y008328D02*
X033081Y008328D01*
X033121Y008426D02*
X033196Y008426D01*
X033192Y008525D02*
X033126Y008525D01*
X033125Y008623D02*
X033192Y008623D01*
X033233Y008722D02*
X033085Y008722D01*
X033029Y008820D02*
X033289Y008820D01*
X033388Y008919D02*
X032930Y008919D01*
X034287Y007047D02*
X025227Y007047D01*
X025245Y007146D02*
X025129Y007146D01*
X025179Y007212D02*
X025179Y007212D01*
X025147Y007244D02*
X025030Y007244D01*
X025048Y007343D02*
X024932Y007343D01*
X024950Y007441D02*
X024833Y007441D01*
X024851Y007540D02*
X024735Y007540D01*
X024772Y007619D02*
X024772Y007619D01*
X024294Y007047D02*
X004121Y007047D01*
X004162Y007146D02*
X024195Y007146D01*
X024097Y007244D02*
X004189Y007244D01*
X004215Y007343D02*
X023998Y007343D01*
X023900Y007441D02*
X004223Y007441D01*
X004223Y007540D02*
X023801Y007540D01*
X023703Y007638D02*
X004223Y007638D01*
X004201Y007737D02*
X023604Y007737D01*
X024392Y006949D02*
X004064Y006949D01*
X004007Y006850D02*
X024491Y006850D01*
X024589Y006752D02*
X003908Y006752D01*
X003810Y006653D02*
X024688Y006653D01*
X024786Y006555D02*
X003641Y006555D01*
X003368Y006456D02*
X024885Y006456D01*
X021225Y010199D02*
X037329Y010199D01*
X037329Y010101D02*
X021127Y010101D01*
X021324Y010298D02*
X037329Y010298D01*
X037329Y010396D02*
X021422Y010396D01*
X021521Y010495D02*
X037329Y010495D01*
X037329Y010593D02*
X021619Y010593D01*
X021718Y010692D02*
X037329Y010692D01*
X037329Y010790D02*
X021816Y010790D01*
X021915Y010889D02*
X037329Y010889D01*
X037329Y010987D02*
X022013Y010987D01*
X022112Y011086D02*
X037329Y011086D01*
X037329Y011184D02*
X022210Y011184D01*
X022309Y011283D02*
X037329Y011283D01*
X037329Y011381D02*
X022407Y011381D01*
X022506Y011480D02*
X023571Y011480D01*
X023577Y011474D02*
X023991Y011474D01*
X024284Y011767D01*
X024284Y012181D01*
X023991Y012474D01*
X023577Y012474D01*
X023284Y012181D01*
X023284Y011767D01*
X023577Y011474D01*
X023473Y011578D02*
X022604Y011578D01*
X022703Y011677D02*
X023374Y011677D01*
X023284Y011775D02*
X022801Y011775D01*
X022900Y011874D02*
X023284Y011874D01*
X023284Y011972D02*
X022998Y011972D01*
X023097Y012071D02*
X023284Y012071D01*
X023284Y012169D02*
X023195Y012169D01*
X023294Y012268D02*
X023370Y012268D01*
X023392Y012366D02*
X023469Y012366D01*
X023491Y012465D02*
X023567Y012465D01*
X024000Y012465D02*
X024692Y012465D01*
X024702Y012474D02*
X024409Y012181D01*
X024409Y011767D01*
X024702Y011474D01*
X025116Y011474D01*
X025409Y011767D01*
X025409Y012181D01*
X025116Y012474D01*
X024702Y012474D01*
X024594Y012366D02*
X024099Y012366D01*
X024197Y012268D02*
X024495Y012268D01*
X024409Y012169D02*
X024284Y012169D01*
X024284Y012071D02*
X024409Y012071D01*
X024409Y011972D02*
X024284Y011972D01*
X024284Y011874D02*
X024409Y011874D01*
X024409Y011775D02*
X024284Y011775D01*
X024193Y011677D02*
X024499Y011677D01*
X024598Y011578D02*
X024095Y011578D01*
X023996Y011480D02*
X024696Y011480D01*
X025121Y011480D02*
X037311Y011480D01*
X037213Y011578D02*
X031104Y011578D01*
X031203Y011677D02*
X037114Y011677D01*
X037016Y011775D02*
X031301Y011775D01*
X031400Y011874D02*
X036917Y011874D01*
X036819Y011972D02*
X031498Y011972D01*
X031058Y012465D02*
X025125Y012465D01*
X025224Y012366D02*
X030959Y012366D01*
X030861Y012268D02*
X025322Y012268D01*
X025409Y012169D02*
X029092Y012169D01*
X029041Y012071D02*
X025409Y012071D01*
X025409Y011972D02*
X029041Y011972D01*
X029041Y011874D02*
X025409Y011874D01*
X025409Y011775D02*
X029041Y011775D01*
X029041Y011677D02*
X025318Y011677D01*
X025220Y011578D02*
X029043Y011578D01*
X031081Y012563D02*
X031156Y012563D01*
X031188Y012662D02*
X031301Y012662D01*
X031370Y013844D02*
X035447Y013844D01*
X035349Y013942D02*
X031468Y013942D01*
X031737Y014041D02*
X035250Y014041D01*
X035152Y014139D02*
X031777Y014139D01*
X031777Y014238D02*
X035053Y014238D01*
X034955Y014336D02*
X031777Y014336D01*
X031777Y014435D02*
X034856Y014435D01*
X034758Y014533D02*
X031777Y014533D01*
X031763Y014632D02*
X034659Y014632D01*
X035691Y014533D02*
X038579Y014533D01*
X038579Y014632D02*
X037956Y014632D01*
X038054Y014730D02*
X038579Y014730D01*
X038579Y014829D02*
X038153Y014829D01*
X038154Y014927D02*
X038579Y014927D01*
X038579Y015026D02*
X038154Y015026D01*
X038154Y015124D02*
X038579Y015124D01*
X038579Y015223D02*
X038150Y015223D01*
X038051Y015321D02*
X038579Y015321D01*
X038579Y015420D02*
X037953Y015420D01*
X037941Y015617D02*
X038579Y015617D01*
X038579Y015518D02*
X036214Y015518D01*
X036277Y015617D02*
X036426Y015617D01*
X036328Y015715D02*
X036277Y015715D01*
X036415Y015420D02*
X035805Y015420D01*
X036187Y016208D02*
X036214Y016208D01*
X036301Y016306D02*
X035918Y016306D01*
X035820Y016405D02*
X036400Y016405D01*
X037968Y016405D02*
X040409Y016405D01*
X040409Y016306D02*
X038915Y016306D01*
X039017Y016208D02*
X040409Y016208D01*
X040409Y016109D02*
X039115Y016109D01*
X039199Y016011D02*
X040409Y016011D01*
X040409Y015912D02*
X039239Y015912D01*
X039239Y015814D02*
X040409Y015814D01*
X040409Y015715D02*
X039239Y015715D01*
X039239Y015617D02*
X040409Y015617D01*
X040409Y015518D02*
X039239Y015518D01*
X039239Y015420D02*
X040409Y015420D01*
X040409Y015321D02*
X039239Y015321D01*
X039239Y015223D02*
X040409Y015223D01*
X040409Y015124D02*
X039239Y015124D01*
X039239Y015026D02*
X040409Y015026D01*
X040409Y014927D02*
X039239Y014927D01*
X039239Y014829D02*
X040409Y014829D01*
X040409Y014730D02*
X039239Y014730D01*
X039239Y014632D02*
X040409Y014632D01*
X040409Y014533D02*
X039239Y014533D01*
X039239Y014435D02*
X040409Y014435D01*
X040409Y014336D02*
X039239Y014336D01*
X039220Y014238D02*
X040409Y014238D01*
X040409Y014139D02*
X039165Y014139D01*
X039067Y014041D02*
X040409Y014041D01*
X040409Y013942D02*
X038968Y013942D01*
X038870Y013844D02*
X040409Y013844D01*
X040409Y013745D02*
X038771Y013745D01*
X038331Y014238D02*
X035987Y014238D01*
X035888Y014336D02*
X038429Y014336D01*
X038528Y014435D02*
X035790Y014435D01*
X036527Y012957D02*
X039334Y012957D01*
X039432Y012859D02*
X036527Y012859D01*
X039553Y013647D02*
X040409Y013647D01*
X040409Y013548D02*
X039676Y013548D01*
X039775Y013450D02*
X040409Y013450D01*
X040409Y013351D02*
X039873Y013351D01*
X039972Y013253D02*
X040409Y013253D01*
X040409Y013154D02*
X040070Y013154D01*
X040169Y013056D02*
X040409Y013056D01*
X040409Y012957D02*
X040221Y012957D01*
X040239Y012859D02*
X040409Y012859D01*
X040409Y012760D02*
X040239Y012760D01*
X040239Y012662D02*
X040409Y012662D01*
X040409Y012563D02*
X040239Y012563D01*
X040239Y012465D02*
X040409Y012465D01*
X040409Y012366D02*
X040239Y012366D01*
X040239Y012268D02*
X040409Y012268D01*
X040409Y012169D02*
X040239Y012169D01*
X040239Y012071D02*
X040409Y012071D01*
X040409Y011972D02*
X040239Y011972D01*
X040239Y011874D02*
X040409Y011874D01*
X040409Y011775D02*
X040239Y011775D01*
X040239Y011677D02*
X040409Y011677D01*
X040409Y011578D02*
X040239Y011578D01*
X040239Y011480D02*
X040409Y011480D01*
X040409Y011381D02*
X040239Y011381D01*
X040239Y011283D02*
X040409Y011283D01*
X040409Y011184D02*
X040239Y011184D01*
X040239Y011086D02*
X040409Y011086D01*
X040409Y010987D02*
X040239Y010987D01*
X040239Y010889D02*
X040409Y010889D01*
X040409Y010790D02*
X040239Y010790D01*
X040239Y010692D02*
X040409Y010692D01*
X040409Y010593D02*
X040239Y010593D01*
X040239Y010495D02*
X040409Y010495D01*
X040409Y010396D02*
X040239Y010396D01*
X040239Y010298D02*
X040409Y010298D01*
X040409Y010199D02*
X040239Y010199D01*
X040239Y010101D02*
X040409Y010101D01*
X040409Y010002D02*
X040239Y010002D01*
X040239Y009904D02*
X040409Y009904D01*
X040409Y009805D02*
X040239Y009805D01*
X040239Y009707D02*
X040409Y009707D01*
X040409Y009608D02*
X040239Y009608D01*
X040239Y009510D02*
X040409Y009510D01*
X040409Y009411D02*
X040239Y009411D01*
X040239Y009313D02*
X040409Y009313D01*
X040409Y009214D02*
X040239Y009214D01*
X040239Y009116D02*
X040409Y009116D01*
X040409Y009017D02*
X040239Y009017D01*
X040239Y008919D02*
X040409Y008919D01*
X040409Y008820D02*
X040239Y008820D01*
X040213Y008722D02*
X040409Y008722D01*
X040409Y008623D02*
X040149Y008623D01*
X040051Y008525D02*
X040409Y008525D01*
X040409Y008426D02*
X039952Y008426D01*
X039854Y008328D02*
X040409Y008328D01*
X040409Y008229D02*
X039726Y008229D01*
X035671Y006358D02*
X034546Y006358D01*
X034686Y006456D02*
X035531Y006456D01*
X035470Y006555D02*
X034747Y006555D01*
X034777Y006653D02*
X035441Y006653D01*
X035389Y006752D02*
X034777Y006752D01*
X034745Y006850D02*
X035291Y006850D01*
X035192Y006949D02*
X034680Y006949D01*
X034530Y007047D02*
X035094Y007047D01*
X034271Y006358D02*
X002409Y006358D01*
X002409Y006456D02*
X002918Y006456D01*
X002645Y006555D02*
X002409Y006555D01*
X002409Y006653D02*
X002477Y006653D01*
X002409Y006062D02*
X003184Y006062D01*
X002933Y005964D02*
X002409Y005964D01*
X002409Y005865D02*
X002732Y005865D01*
X002608Y005767D02*
X002409Y005767D01*
X002409Y005668D02*
X002485Y005668D01*
X002430Y008328D02*
X002409Y008328D01*
X002409Y008426D02*
X002563Y008426D01*
X002409Y008525D02*
X002743Y008525D01*
X005777Y011677D02*
X009548Y011677D01*
X009647Y011775D02*
X005777Y011775D01*
X005777Y012071D02*
X009638Y012071D01*
X009540Y012169D02*
X005739Y012169D01*
X005739Y012268D02*
X009496Y012268D01*
X009468Y012366D02*
X005739Y012366D01*
X005739Y012465D02*
X009468Y012465D01*
X009493Y012563D02*
X005739Y012563D01*
X005739Y012662D02*
X009534Y012662D01*
X009632Y012760D02*
X005739Y012760D01*
X005739Y013056D02*
X009653Y013056D01*
X009555Y013154D02*
X005739Y013154D01*
X005739Y013253D02*
X006219Y013253D01*
X005982Y013351D02*
X005739Y013351D01*
X005739Y013450D02*
X005865Y013450D01*
X005767Y013548D02*
X005739Y013548D01*
X006550Y013253D02*
X009502Y013253D01*
X009468Y013351D02*
X006788Y013351D01*
X006904Y013450D02*
X009468Y013450D01*
X009487Y013548D02*
X007003Y013548D01*
X007061Y013647D02*
X009527Y013647D01*
X009617Y013745D02*
X007102Y013745D01*
X007143Y013844D02*
X009801Y013844D01*
X009687Y014041D02*
X007150Y014041D01*
X007150Y014139D02*
X009570Y014139D01*
X009508Y014238D02*
X007119Y014238D01*
X007079Y014336D02*
X009468Y014336D01*
X009468Y014435D02*
X007038Y014435D01*
X006946Y014533D02*
X009480Y014533D01*
X009521Y014632D02*
X006847Y014632D01*
X006650Y014730D02*
X009602Y014730D01*
X007150Y013942D02*
X021035Y013942D01*
X020937Y013844D02*
X013516Y013844D01*
X013700Y013745D02*
X020838Y013745D01*
X021134Y014041D02*
X013630Y014041D01*
X013789Y013647D02*
X014186Y013647D01*
X014093Y013548D02*
X013830Y013548D01*
X013848Y013450D02*
X014052Y013450D01*
X014041Y013351D02*
X013848Y013351D01*
X013815Y013253D02*
X014050Y013253D01*
X014091Y013154D02*
X013762Y013154D01*
X013664Y013056D02*
X014182Y013056D01*
X013188Y015026D02*
X013128Y015026D01*
X013128Y015124D02*
X013188Y015124D01*
X013188Y015223D02*
X013128Y015223D01*
X013128Y015321D02*
X013188Y015321D01*
X013188Y015518D02*
X013128Y015518D01*
X013128Y015617D02*
X013188Y015617D01*
X013188Y015715D02*
X013128Y015715D01*
X013128Y015814D02*
X013188Y015814D01*
X013529Y015814D02*
X021907Y015814D01*
X021808Y015715D02*
X013702Y015715D01*
X013778Y015617D02*
X021710Y015617D01*
X022347Y015321D02*
X022414Y015321D01*
X022446Y015420D02*
X022513Y015420D01*
X022544Y015518D02*
X022611Y015518D01*
X022643Y015617D02*
X022710Y015617D01*
X022741Y015715D02*
X022808Y015715D01*
X022316Y015223D02*
X022249Y015223D01*
X022217Y015124D02*
X022150Y015124D01*
X022119Y015026D02*
X022052Y015026D01*
X022020Y014927D02*
X021953Y014927D01*
X021922Y014829D02*
X021855Y014829D01*
X021823Y014730D02*
X021756Y014730D01*
X021725Y014632D02*
X021658Y014632D01*
X021626Y014533D02*
X021559Y014533D01*
X021528Y014435D02*
X021461Y014435D01*
X021429Y014336D02*
X021362Y014336D01*
X021331Y014238D02*
X021264Y014238D01*
X021232Y014139D02*
X021165Y014139D01*
X022596Y016503D02*
X012646Y016503D01*
X012726Y016602D02*
X022695Y016602D01*
X022793Y016700D02*
X012774Y016700D01*
X012800Y016799D02*
X022892Y016799D01*
X025789Y018375D02*
X036370Y018375D01*
X032539Y017488D02*
X032014Y017488D01*
X031916Y017390D02*
X032482Y017390D01*
X032441Y017291D02*
X031817Y017291D01*
X031719Y017193D02*
X032415Y017193D01*
X032389Y017094D02*
X031620Y017094D01*
X031596Y017069D02*
X031596Y017069D01*
X031522Y016996D02*
X032382Y016996D01*
X032382Y016897D02*
X031423Y016897D01*
X031325Y016799D02*
X032382Y016799D01*
X032405Y016700D02*
X031226Y016700D01*
X031195Y016602D02*
X031128Y016602D01*
X030786Y017193D02*
X030219Y017193D01*
X030317Y017291D02*
X030884Y017291D01*
X030983Y017390D02*
X030416Y017390D01*
X030684Y017488D02*
X031081Y017488D01*
X031129Y017536D02*
X031129Y017536D01*
X031180Y017587D02*
X030777Y017587D01*
X030777Y017685D02*
X031278Y017685D01*
X031377Y017784D02*
X030777Y017784D01*
X030777Y017882D02*
X031475Y017882D01*
X031574Y017981D02*
X030777Y017981D01*
X030777Y018079D02*
X031672Y018079D01*
X031840Y018178D02*
X030717Y018178D01*
X031537Y016011D02*
X032280Y016011D01*
X032379Y015912D02*
X031438Y015912D01*
X031340Y015814D02*
X032477Y015814D01*
X032576Y015715D02*
X031241Y015715D01*
X031210Y015617D02*
X031143Y015617D01*
X025129Y020345D02*
X025086Y020345D01*
X024822Y020979D02*
X022476Y020979D01*
X022523Y021026D01*
X022589Y021184D01*
X022589Y021875D01*
X022523Y022033D01*
X022447Y022110D01*
X022985Y022110D01*
X023239Y021856D01*
X023239Y021817D01*
X023159Y021737D01*
X023159Y021323D01*
X023452Y021030D01*
X023866Y021030D01*
X024159Y021323D01*
X024452Y021030D01*
X024866Y021030D01*
X025129Y021292D01*
X025129Y021286D01*
X024822Y020979D01*
X024871Y021034D02*
X024877Y021034D01*
X024969Y021133D02*
X024976Y021133D01*
X025068Y021231D02*
X025074Y021231D01*
X024447Y021034D02*
X023871Y021034D01*
X023969Y021133D02*
X024349Y021133D01*
X024250Y021231D02*
X024068Y021231D01*
X024159Y021330D02*
X024159Y021330D01*
X024159Y021428D02*
X024159Y021428D01*
X024159Y021527D02*
X024159Y021527D01*
X024159Y021625D02*
X024159Y021625D01*
X024159Y021724D02*
X024159Y021724D01*
X024079Y021822D02*
X024239Y021822D01*
X024239Y021921D02*
X024079Y021921D01*
X024079Y022019D02*
X024239Y022019D01*
X024239Y022118D02*
X024077Y022118D01*
X024036Y022216D02*
X024239Y022216D01*
X024239Y022315D02*
X023968Y022315D01*
X023869Y022413D02*
X024181Y022413D01*
X024083Y022512D02*
X023771Y022512D01*
X023672Y022610D02*
X023984Y022610D01*
X023886Y022709D02*
X023574Y022709D01*
X023475Y022807D02*
X023787Y022807D01*
X023689Y022906D02*
X023349Y022906D01*
X024089Y023694D02*
X025129Y023694D01*
X025129Y023792D02*
X023990Y023792D01*
X024187Y023595D02*
X025129Y023595D01*
X025129Y023497D02*
X024286Y023497D01*
X024384Y023398D02*
X025129Y023398D01*
X025129Y023300D02*
X024483Y023300D01*
X024581Y023201D02*
X025129Y023201D01*
X025129Y023103D02*
X024680Y023103D01*
X024778Y023004D02*
X025129Y023004D01*
X025129Y022906D02*
X024877Y022906D01*
X024975Y022807D02*
X025129Y022807D01*
X025129Y022709D02*
X025039Y022709D01*
X025079Y022610D02*
X025129Y022610D01*
X025129Y022512D02*
X025079Y022512D01*
X025079Y022413D02*
X025129Y022413D01*
X025129Y022315D02*
X025079Y022315D01*
X025079Y022216D02*
X025129Y022216D01*
X025129Y022118D02*
X025079Y022118D01*
X025079Y022019D02*
X025129Y022019D01*
X025129Y021921D02*
X025079Y021921D01*
X025079Y021822D02*
X025129Y021822D01*
X023447Y021034D02*
X022527Y021034D01*
X022568Y021133D02*
X023349Y021133D01*
X023250Y021231D02*
X022589Y021231D01*
X022589Y021330D02*
X023159Y021330D01*
X023159Y021428D02*
X022589Y021428D01*
X022589Y021527D02*
X023159Y021527D01*
X023159Y021625D02*
X022589Y021625D01*
X022589Y021724D02*
X023159Y021724D01*
X023239Y021822D02*
X022589Y021822D01*
X022570Y021921D02*
X023174Y021921D01*
X023075Y022019D02*
X022529Y022019D01*
X023924Y024088D02*
X024394Y024088D01*
X024295Y024186D02*
X024023Y024186D01*
X024121Y024285D02*
X024197Y024285D01*
X024159Y024323D02*
X024159Y024737D01*
X024341Y024919D01*
X023976Y024919D01*
X024159Y024737D01*
X024159Y024323D01*
X024159Y024383D02*
X024159Y024383D01*
X024159Y024482D02*
X024159Y024482D01*
X024159Y024580D02*
X024159Y024580D01*
X024159Y024679D02*
X024159Y024679D01*
X024199Y024777D02*
X024118Y024777D01*
X024020Y024876D02*
X024298Y024876D01*
X025023Y024186D02*
X025129Y024186D01*
X025129Y024088D02*
X024924Y024088D01*
X025121Y024285D02*
X025129Y024285D01*
X023659Y028126D02*
X033044Y028126D01*
X032874Y028225D02*
X023659Y028225D01*
X023572Y028323D02*
X032744Y028323D01*
X032645Y028422D02*
X023474Y028422D01*
X023375Y028520D02*
X032568Y028520D01*
X032603Y029801D02*
X004714Y029801D01*
X003438Y028126D02*
X003430Y028126D01*
X009287Y028717D02*
X009834Y028717D01*
X009794Y028734D02*
X009967Y028662D01*
X010154Y028662D01*
X010327Y028734D01*
X010362Y028769D01*
X010362Y028769D01*
X010494Y028901D01*
X010566Y029074D01*
X010566Y029261D01*
X010494Y029434D01*
X010362Y029566D01*
X010189Y029637D01*
X010002Y029637D01*
X009830Y029566D01*
X009697Y029434D01*
X009697Y029434D01*
X009662Y029398D01*
X009590Y029225D01*
X009590Y029038D01*
X009662Y028866D01*
X009794Y028734D01*
X009712Y028816D02*
X009409Y028816D01*
X009500Y028914D02*
X009642Y028914D01*
X009601Y029013D02*
X009540Y029013D01*
X009566Y029111D02*
X009590Y029111D01*
X009590Y029210D02*
X009566Y029210D01*
X009546Y029308D02*
X009625Y029308D01*
X009670Y029407D02*
X009505Y029407D01*
X009423Y029505D02*
X009769Y029505D01*
X009921Y029604D02*
X009271Y029604D01*
X010271Y029604D02*
X010921Y029604D01*
X011002Y029637D02*
X010830Y029566D01*
X010697Y029434D01*
X010662Y029398D01*
X010590Y029225D01*
X010590Y029038D01*
X010662Y028866D01*
X010794Y028734D01*
X010967Y028662D01*
X011154Y028662D01*
X011327Y028734D01*
X011362Y028769D01*
X011494Y028901D01*
X011566Y029074D01*
X011566Y029261D01*
X011494Y029434D01*
X011362Y029566D01*
X011189Y029637D01*
X011002Y029637D01*
X010769Y029505D02*
X010423Y029505D01*
X010505Y029407D02*
X010670Y029407D01*
X010625Y029308D02*
X010546Y029308D01*
X010566Y029210D02*
X010590Y029210D01*
X010590Y029111D02*
X010566Y029111D01*
X010540Y029013D02*
X010601Y029013D01*
X010642Y028914D02*
X010500Y028914D01*
X010409Y028816D02*
X010712Y028816D01*
X010834Y028717D02*
X010287Y028717D01*
X011287Y028717D02*
X011834Y028717D01*
X011794Y028734D02*
X011967Y028662D01*
X012154Y028662D01*
X012327Y028734D01*
X012362Y028769D01*
X012494Y028901D01*
X012566Y029074D01*
X012566Y029261D01*
X012494Y029434D01*
X012362Y029566D01*
X012189Y029637D01*
X012002Y029637D01*
X011830Y029566D01*
X011697Y029434D01*
X011662Y029398D01*
X011590Y029225D01*
X011590Y029038D01*
X011662Y028866D01*
X011794Y028734D01*
X011712Y028816D02*
X011409Y028816D01*
X011500Y028914D02*
X011642Y028914D01*
X011601Y029013D02*
X011540Y029013D01*
X011566Y029111D02*
X011590Y029111D01*
X011590Y029210D02*
X011566Y029210D01*
X011546Y029308D02*
X011625Y029308D01*
X011670Y029407D02*
X011505Y029407D01*
X011423Y029505D02*
X011769Y029505D01*
X011921Y029604D02*
X011271Y029604D01*
X012271Y029604D02*
X012921Y029604D01*
X013002Y029637D02*
X012830Y029566D01*
X012697Y029434D01*
X012662Y029398D01*
X012590Y029225D01*
X012590Y029038D01*
X012662Y028866D01*
X012794Y028734D01*
X012967Y028662D01*
X013154Y028662D01*
X013327Y028734D01*
X013362Y028769D01*
X013494Y028901D01*
X013566Y029074D01*
X013566Y029261D01*
X013494Y029434D01*
X013362Y029566D01*
X013189Y029637D01*
X013002Y029637D01*
X012769Y029505D02*
X012423Y029505D01*
X012505Y029407D02*
X012670Y029407D01*
X012625Y029308D02*
X012546Y029308D01*
X012566Y029210D02*
X012590Y029210D01*
X012590Y029111D02*
X012566Y029111D01*
X012540Y029013D02*
X012601Y029013D01*
X012642Y028914D02*
X012500Y028914D01*
X012409Y028816D02*
X012712Y028816D01*
X012834Y028717D02*
X012287Y028717D01*
X013287Y028717D02*
X013834Y028717D01*
X013794Y028734D02*
X013967Y028662D01*
X014154Y028662D01*
X014327Y028734D01*
X014362Y028769D01*
X014494Y028901D01*
X014566Y029074D01*
X014566Y029261D01*
X014494Y029434D01*
X014362Y029566D01*
X014189Y029637D01*
X014002Y029637D01*
X013830Y029566D01*
X013697Y029434D01*
X013662Y029398D01*
X013590Y029225D01*
X013590Y029038D01*
X013662Y028866D01*
X013794Y028734D01*
X013712Y028816D02*
X013409Y028816D01*
X013500Y028914D02*
X013642Y028914D01*
X013601Y029013D02*
X013540Y029013D01*
X013566Y029111D02*
X013590Y029111D01*
X013590Y029210D02*
X013566Y029210D01*
X013546Y029308D02*
X013625Y029308D01*
X013670Y029407D02*
X013505Y029407D01*
X013423Y029505D02*
X013769Y029505D01*
X013921Y029604D02*
X013271Y029604D01*
X014271Y029604D02*
X014921Y029604D01*
X015002Y029637D02*
X014830Y029566D01*
X014697Y029434D01*
X014662Y029398D01*
X014590Y029225D01*
X014590Y029038D01*
X014662Y028866D01*
X014794Y028734D01*
X014967Y028662D01*
X015154Y028662D01*
X015327Y028734D01*
X015362Y028769D01*
X015494Y028901D01*
X015566Y029074D01*
X015566Y029261D01*
X015494Y029434D01*
X015362Y029566D01*
X015189Y029637D01*
X015002Y029637D01*
X014769Y029505D02*
X014423Y029505D01*
X014505Y029407D02*
X014670Y029407D01*
X014625Y029308D02*
X014546Y029308D01*
X014566Y029210D02*
X014590Y029210D01*
X014590Y029111D02*
X014566Y029111D01*
X014540Y029013D02*
X014601Y029013D01*
X014642Y028914D02*
X014500Y028914D01*
X014409Y028816D02*
X014712Y028816D01*
X014834Y028717D02*
X014287Y028717D01*
X015287Y028717D02*
X015834Y028717D01*
X015794Y028734D02*
X015967Y028662D01*
X016154Y028662D01*
X016327Y028734D01*
X016362Y028769D01*
X016494Y028901D01*
X016566Y029074D01*
X016566Y029261D01*
X016494Y029434D01*
X016362Y029566D01*
X016189Y029637D01*
X016002Y029637D01*
X015830Y029566D01*
X015697Y029434D01*
X015662Y029398D01*
X015590Y029225D01*
X015590Y029038D01*
X015662Y028866D01*
X015794Y028734D01*
X015712Y028816D02*
X015409Y028816D01*
X015500Y028914D02*
X015642Y028914D01*
X015601Y029013D02*
X015540Y029013D01*
X015566Y029111D02*
X015590Y029111D01*
X015590Y029210D02*
X015566Y029210D01*
X015546Y029308D02*
X015625Y029308D01*
X015670Y029407D02*
X015505Y029407D01*
X015423Y029505D02*
X015769Y029505D01*
X015921Y029604D02*
X015271Y029604D01*
X016271Y029604D02*
X016921Y029604D01*
X017002Y029637D02*
X016830Y029566D01*
X016697Y029434D01*
X016662Y029398D01*
X016590Y029225D01*
X016590Y029038D01*
X016662Y028866D01*
X016794Y028734D01*
X016967Y028662D01*
X017154Y028662D01*
X017327Y028734D01*
X017362Y028769D01*
X017494Y028901D01*
X017566Y029074D01*
X017566Y029261D01*
X017494Y029434D01*
X017362Y029566D01*
X017189Y029637D01*
X017002Y029637D01*
X016769Y029505D02*
X016423Y029505D01*
X016505Y029407D02*
X016670Y029407D01*
X016625Y029308D02*
X016546Y029308D01*
X016566Y029210D02*
X016590Y029210D01*
X016590Y029111D02*
X016566Y029111D01*
X016540Y029013D02*
X016601Y029013D01*
X016642Y028914D02*
X016500Y028914D01*
X016409Y028816D02*
X016712Y028816D01*
X016834Y028717D02*
X016287Y028717D01*
X017287Y028717D02*
X017834Y028717D01*
X017794Y028734D02*
X017967Y028662D01*
X018154Y028662D01*
X018327Y028734D01*
X018459Y028866D01*
X018494Y028901D01*
X018566Y029074D01*
X018566Y029261D01*
X018494Y029434D01*
X018362Y029566D01*
X018189Y029637D01*
X018002Y029637D01*
X017830Y029566D01*
X017794Y029530D01*
X017794Y029530D01*
X017662Y029398D01*
X017590Y029225D01*
X017590Y029038D01*
X017662Y028866D01*
X017794Y028734D01*
X017712Y028816D02*
X017409Y028816D01*
X017500Y028914D02*
X017642Y028914D01*
X017601Y029013D02*
X017540Y029013D01*
X017566Y029111D02*
X017590Y029111D01*
X017590Y029210D02*
X017566Y029210D01*
X017546Y029308D02*
X017625Y029308D01*
X017670Y029407D02*
X017505Y029407D01*
X017423Y029505D02*
X017769Y029505D01*
X017921Y029604D02*
X017271Y029604D01*
X018271Y029604D02*
X018921Y029604D01*
X018769Y029505D02*
X018423Y029505D01*
X018505Y029407D02*
X018670Y029407D01*
X018625Y029308D02*
X018546Y029308D01*
X018566Y029210D02*
X018590Y029210D01*
X018590Y029111D02*
X018566Y029111D01*
X018540Y029013D02*
X018601Y029013D01*
X018642Y028914D02*
X018500Y028914D01*
X018459Y028866D02*
X018459Y028866D01*
X018409Y028816D02*
X018712Y028816D01*
X018834Y028717D02*
X018287Y028717D01*
X013006Y025171D02*
X012361Y025171D01*
X012484Y025073D02*
X012862Y025073D01*
X012793Y024974D02*
X012548Y024974D01*
X012589Y024876D02*
X012757Y024876D01*
X012749Y024777D02*
X012589Y024777D01*
X012589Y024679D02*
X012749Y024679D01*
X012021Y017390D02*
X011450Y017390D01*
X011567Y017291D02*
X011878Y017291D01*
X011796Y017193D02*
X011652Y017193D01*
X011692Y017094D02*
X011745Y017094D01*
X006119Y014730D02*
X005756Y014730D01*
X005739Y014632D02*
X005923Y014632D01*
X005824Y014533D02*
X005739Y014533D01*
X021112Y011086D02*
X021178Y011086D01*
X021210Y011184D02*
X021277Y011184D01*
X021309Y011283D02*
X021375Y011283D01*
X021407Y011381D02*
X021474Y011381D01*
X021506Y011480D02*
X021573Y011480D01*
X021604Y011578D02*
X021671Y011578D01*
X015025Y002812D02*
X032292Y002812D01*
X031905Y002713D02*
X015413Y002713D01*
X015650Y002615D02*
X031667Y002615D01*
X031477Y002516D02*
X015840Y002516D01*
X015988Y002418D02*
X031329Y002418D01*
D22*
X012159Y020030D02*
X012159Y021530D01*
X010659Y022530D02*
X023159Y022530D01*
X023659Y022030D01*
X023659Y021530D01*
X024659Y021530D02*
X024659Y022530D01*
X023659Y023530D01*
X011159Y023530D01*
X011159Y024530D01*
X010159Y024530D02*
X010159Y023030D01*
X010659Y022530D01*
X008409Y021099D02*
X008409Y020349D01*
X008784Y019974D01*
X009103Y019974D01*
X009159Y020030D01*
X008409Y021099D02*
X007909Y021599D01*
X005784Y021599D01*
X005534Y021849D01*
X005284Y022099D01*
X005284Y023099D01*
X005408Y023224D01*
X005408Y024594D01*
X005534Y024594D01*
X005534Y025099D01*
X007060Y026626D01*
X007060Y029132D01*
X008060Y029132D02*
X008060Y025572D01*
X008284Y025349D01*
X008284Y023849D01*
X007784Y023349D01*
X006784Y023349D01*
X006409Y022974D01*
X006409Y022594D01*
X006408Y022594D01*
D23*
X009103Y019974D03*
X011006Y018722D03*
X007909Y015849D03*
X005409Y011849D03*
X029409Y011849D03*
X031409Y013349D03*
X031409Y014349D03*
X035909Y015849D03*
X036159Y013099D03*
X030409Y017849D03*
D24*
X022659Y016099D03*
X021909Y020349D03*
X014409Y013349D03*
X014409Y009349D03*
X034409Y006699D03*
X035809Y006699D03*
M02*
