G75*
G70*
%OFA0B0*%
%FSLAX24Y24*%
%IPPOS*%
%LPD*%
%AMOC8*
5,1,8,0,0,1.08239X$1,22.5*
%
%ADD10C,0.0000*%
%ADD11C,0.0039*%
%ADD12R,0.0236X0.0610*%
%ADD13R,0.0787X0.0630*%
%ADD14R,0.0787X0.0787*%
%ADD15R,0.0630X0.1181*%
%ADD16R,0.0591X0.0591*%
%ADD17R,0.0630X0.0710*%
%ADD18R,0.0315X0.0551*%
%ADD19R,0.0315X0.0748*%
%ADD20C,0.0600*%
%ADD21R,0.3839X0.4803*%
%ADD22R,0.1378X0.0630*%
%ADD23R,0.0394X0.0669*%
%ADD24R,0.0710X0.0630*%
%ADD25R,0.0630X0.0787*%
D10*
X029989Y004402D02*
X029991Y004452D01*
X029997Y004502D01*
X030007Y004551D01*
X030021Y004599D01*
X030038Y004646D01*
X030059Y004691D01*
X030084Y004735D01*
X030112Y004776D01*
X030144Y004815D01*
X030178Y004852D01*
X030215Y004886D01*
X030255Y004916D01*
X030297Y004943D01*
X030341Y004967D01*
X030387Y004988D01*
X030434Y005004D01*
X030482Y005017D01*
X030532Y005026D01*
X030581Y005031D01*
X030632Y005032D01*
X030682Y005029D01*
X030731Y005022D01*
X030780Y005011D01*
X030828Y004996D01*
X030874Y004978D01*
X030919Y004956D01*
X030962Y004930D01*
X031003Y004901D01*
X031042Y004869D01*
X031078Y004834D01*
X031110Y004796D01*
X031140Y004756D01*
X031167Y004713D01*
X031190Y004669D01*
X031209Y004623D01*
X031225Y004575D01*
X031237Y004526D01*
X031245Y004477D01*
X031249Y004427D01*
X031249Y004377D01*
X031245Y004327D01*
X031237Y004278D01*
X031225Y004229D01*
X031209Y004181D01*
X031190Y004135D01*
X031167Y004091D01*
X031140Y004048D01*
X031110Y004008D01*
X031078Y003970D01*
X031042Y003935D01*
X031003Y003903D01*
X030962Y003874D01*
X030919Y003848D01*
X030874Y003826D01*
X030828Y003808D01*
X030780Y003793D01*
X030731Y003782D01*
X030682Y003775D01*
X030632Y003772D01*
X030581Y003773D01*
X030532Y003778D01*
X030482Y003787D01*
X030434Y003800D01*
X030387Y003816D01*
X030341Y003837D01*
X030297Y003861D01*
X030255Y003888D01*
X030215Y003918D01*
X030178Y003952D01*
X030144Y003989D01*
X030112Y004028D01*
X030084Y004069D01*
X030059Y004113D01*
X030038Y004158D01*
X030021Y004205D01*
X030007Y004253D01*
X029997Y004302D01*
X029991Y004352D01*
X029989Y004402D01*
D11*
X001885Y001910D02*
X001885Y021660D01*
X001891Y021725D01*
X001900Y021788D01*
X001914Y021851D01*
X001931Y021913D01*
X001952Y021974D01*
X001976Y022034D01*
X002005Y022092D01*
X002036Y022148D01*
X002071Y022202D01*
X002109Y022254D01*
X002150Y022303D01*
X002195Y022350D01*
X002242Y022395D01*
X002291Y022436D01*
X002343Y022474D01*
X002397Y022509D01*
X002453Y022540D01*
X002511Y022569D01*
X002571Y022593D01*
X002632Y022614D01*
X002694Y022631D01*
X002757Y022645D01*
X002820Y022654D01*
X002885Y022660D01*
X030010Y022660D01*
X030635Y022035D01*
X030635Y018660D01*
X031760Y017535D01*
X031760Y003410D01*
X030885Y002535D01*
X030885Y001910D01*
X030260Y001285D01*
X002510Y001285D01*
X002461Y001287D01*
X002412Y001293D01*
X002364Y001302D01*
X002317Y001316D01*
X002271Y001333D01*
X002226Y001353D01*
X002183Y001377D01*
X002143Y001404D01*
X002104Y001435D01*
X002068Y001468D01*
X002035Y001504D01*
X002004Y001543D01*
X001977Y001583D01*
X001953Y001626D01*
X001933Y001671D01*
X001916Y001717D01*
X001902Y001764D01*
X001893Y001812D01*
X001887Y001861D01*
X001885Y001910D01*
D12*
X026714Y004109D03*
X027214Y004109D03*
X027714Y004109D03*
X028214Y004109D03*
X028214Y006235D03*
X027714Y006235D03*
X027214Y006235D03*
X026714Y006235D03*
D13*
X026444Y007731D03*
X027901Y007739D03*
X027901Y008841D03*
X026444Y008833D03*
X029326Y008841D03*
X030767Y008833D03*
X030767Y007731D03*
X029326Y007739D03*
X011729Y015678D03*
X011729Y016781D03*
D14*
X008287Y008999D03*
X006712Y008999D03*
D15*
X017838Y009086D03*
X017838Y007354D03*
X020368Y005897D03*
X020368Y004165D03*
X024749Y004143D03*
X024749Y005876D03*
D16*
X013034Y005727D03*
X011656Y005727D03*
X008207Y005738D03*
X006829Y005738D03*
D17*
X011689Y007764D03*
X012809Y007764D03*
D18*
X021952Y004042D03*
X023132Y004042D03*
D19*
X022542Y004142D03*
D20*
X022642Y004774D02*
X022442Y004774D01*
X022442Y005610D01*
X022642Y005610D01*
X022642Y004774D01*
X022642Y005373D02*
X022442Y005373D01*
D21*
X004420Y016188D03*
D22*
X008467Y015188D03*
X008467Y017188D03*
D23*
X014792Y004501D03*
X016289Y004501D03*
X016289Y002020D03*
X014792Y002020D03*
D24*
X013661Y016903D03*
X013661Y018022D03*
D25*
X004320Y006056D03*
X003218Y006056D03*
M02*
