%
M48
M72
T01C0.0236
T02C0.0394
T03C0.0400
T04C0.0470
T05C0.0512
T06C0.0866
T07C0.1260
%
T01
X6233Y6166
X4033Y6668
X6997Y10623
X7627Y10623
X7706Y11843
X10460Y15960
X9714Y17197
X8336Y18654
X12273Y18812
X15462Y17591
X12910Y15935
X19438Y17749
X20760Y16410
X22035Y18985
X22585Y19585
X28441Y12841
X27760Y10785
X25737Y9520
X25698Y10111
X26013Y6449
X25659Y5426
X23926Y3536
X21722Y5465
X19163Y4441
X17115Y4441
X13572Y7158
X13493Y7709
X16525Y8024
X28218Y3379
X29871Y5701
X30776Y9699
T02
X27276Y11779
X29244Y11779
X29244Y17488
X28260Y17488
X27276Y17488
T03
X11995Y9530
X12095Y10530
X11995Y11530
X12095Y12530
X11995Y13530
X12095Y14530
X12816Y19982
X11816Y20082
X10816Y19982
X9816Y20082
X8816Y19982
X7816Y20082
X6816Y19982
X5816Y20082
X14039Y21456
X15039Y21356
X16039Y21456
X17039Y21356
X18039Y21456
X19039Y21356
X20039Y21456
X21039Y21356
X22693Y21476
X23693Y21376
X24693Y21476
X25693Y21376
X26693Y21476
X27693Y21376
X28693Y21476
X29693Y21376
X28666Y2495
X29666Y2395
X27666Y2395
X26666Y2495
X25666Y2395
X24666Y2495
X22680Y2378
X21680Y2478
X20680Y2378
X19680Y2478
X18680Y2378
X17680Y2478
X3640Y10626
X3640Y11626
X3640Y12626
T04
X3464Y3490
X5432Y3490
X7409Y3490
X9377Y3490
X11306Y3490
X13275Y3490
T05
X19018Y14504
X21577Y14504
X24043Y16129
X26603Y16129
X26603Y19286
X24043Y19286
X24042Y12854
X26602Y12854
T06
X25858Y14535
X30662Y14535
T07
X3704Y8465
X15043Y8465
X15043Y19803
X3704Y19803
X30619Y4402
M30
