G75*
G70*
%OFA0B0*%
%FSLAX24Y24*%
%IPPOS*%
%LPD*%
%AMOC8*
5,1,8,0,0,1.08239X$1,22.5*
%
%ADD10C,0.0000*%
%ADD11C,0.0150*%
%ADD12C,0.0090*%
%ADD13C,0.0039*%
%ADD14C,0.0060*%
%ADD15C,0.0320*%
%ADD16C,0.0160*%
%ADD17R,0.0120X0.0040*%
%ADD18R,0.0160X0.0040*%
%ADD19R,0.0040X0.0040*%
%ADD20R,0.0080X0.0040*%
%ADD21R,0.0200X0.0040*%
%ADD22R,0.0280X0.0040*%
%ADD23R,0.0240X0.0040*%
%ADD24R,0.1520X0.0040*%
%ADD25R,0.0480X0.0040*%
%ADD26R,0.0320X0.0040*%
%ADD27R,0.1400X0.0040*%
%ADD28R,0.0360X0.0040*%
%ADD29R,0.0680X0.0040*%
%ADD30R,0.0520X0.0040*%
%ADD31R,0.0920X0.0040*%
%ADD32R,0.1360X0.0040*%
%ADD33R,0.0400X0.0040*%
%ADD34R,0.0440X0.0040*%
%ADD35R,0.1040X0.0040*%
%ADD36R,0.0800X0.0040*%
%ADD37R,0.0640X0.0040*%
%ADD38R,0.0560X0.0040*%
%ADD39R,0.0760X0.0040*%
%ADD40R,0.0025X0.0025*%
%ADD41R,0.0026X0.0025*%
%ADD42R,0.0024X0.0025*%
%ADD43R,0.0050X0.0025*%
%ADD44R,0.0075X0.0025*%
%ADD45R,0.0100X0.0025*%
%ADD46R,0.2574X0.0025*%
%ADD47R,0.1675X0.0025*%
%ADD48R,0.3199X0.0025*%
%ADD49R,0.2800X0.0025*%
%ADD50R,0.0125X0.0025*%
%ADD51R,0.0975X0.0025*%
%ADD52R,0.0974X0.0025*%
%ADD53R,0.0400X0.0025*%
%ADD54R,0.0051X0.0025*%
%ADD55R,0.0074X0.0025*%
%ADD56R,0.0076X0.0025*%
%ADD57R,0.0049X0.0025*%
%ADD58R,0.0350X0.0025*%
%ADD59R,0.0099X0.0025*%
%ADD60R,0.7249X0.0025*%
%ADD61R,0.4951X0.0025*%
%ADD62R,0.0300X0.0025*%
%ADD63R,0.0326X0.0025*%
%ADD64R,0.0224X0.0025*%
%ADD65R,0.0200X0.0025*%
%ADD66R,0.0375X0.0025*%
%ADD67R,0.0249X0.0025*%
%ADD68R,0.0251X0.0025*%
%ADD69R,0.0426X0.0025*%
%ADD70R,0.0250X0.0025*%
%ADD71R,0.0199X0.0025*%
%ADD72R,0.0299X0.0025*%
%ADD73R,0.0301X0.0025*%
%ADD74R,0.0399X0.0025*%
%ADD75R,0.0325X0.0025*%
%ADD76R,0.0175X0.0025*%
%ADD77R,0.0324X0.0025*%
%ADD78R,0.0124X0.0025*%
%ADD79R,0.0126X0.0025*%
%ADD80R,0.0750X0.0025*%
%ADD81R,0.0475X0.0025*%
%ADD82R,0.0201X0.0025*%
%ADD83R,0.0700X0.0025*%
%ADD84R,0.0275X0.0025*%
%ADD85R,0.0225X0.0025*%
%ADD86R,0.0374X0.0025*%
%ADD87R,0.0149X0.0025*%
%ADD88R,0.0176X0.0025*%
%ADD89R,0.0826X0.0025*%
%ADD90R,0.0550X0.0025*%
%ADD91R,0.0150X0.0025*%
%ADD92R,0.0601X0.0025*%
%ADD93R,0.0424X0.0025*%
%ADD94R,0.0850X0.0025*%
%ADD95R,0.0575X0.0025*%
%ADD96R,0.0725X0.0025*%
%ADD97R,0.0425X0.0025*%
%ADD98R,0.0151X0.0025*%
%ADD99R,0.0625X0.0025*%
%ADD100R,0.0500X0.0025*%
%ADD101R,0.0451X0.0025*%
%ADD102R,0.0101X0.0025*%
%ADD103R,0.0526X0.0025*%
%ADD104R,0.0875X0.0025*%
%ADD105R,0.0351X0.0025*%
%ADD106R,0.0174X0.0025*%
%ADD107R,0.0650X0.0025*%
%ADD108R,0.0674X0.0025*%
%ADD109R,0.0551X0.0025*%
%ADD110R,0.0600X0.0025*%
%ADD111R,0.0276X0.0025*%
%ADD112R,0.0274X0.0025*%
%ADD113R,0.0574X0.0025*%
%ADD114R,0.0226X0.0025*%
%ADD115R,0.0576X0.0025*%
%ADD116R,0.0349X0.0025*%
%ADD117R,0.0524X0.0025*%
%ADD118R,0.0474X0.0025*%
%ADD119R,0.0776X0.0025*%
%ADD120R,0.0401X0.0025*%
%ADD121R,0.0476X0.0025*%
%ADD122R,0.0449X0.0025*%
%ADD123R,0.0801X0.0025*%
%ADD124R,0.0376X0.0025*%
%ADD125R,0.0675X0.0025*%
%ADD126R,0.0599X0.0025*%
%ADD127R,0.0501X0.0025*%
%ADD128R,0.0525X0.0025*%
%ADD129R,0.0549X0.0025*%
%ADD130R,0.0899X0.0025*%
%ADD131R,0.8050X0.0025*%
%ADD132C,0.0010*%
%ADD133C,0.0050*%
%ADD134R,0.0007X0.1640*%
%ADD135R,0.0007X0.1667*%
%ADD136R,0.0007X0.1680*%
%ADD137R,0.0007X0.1693*%
%ADD138R,0.0007X0.1707*%
%ADD139R,0.0007X0.1714*%
%ADD140R,0.0007X0.1720*%
%ADD141R,0.0007X0.1726*%
%ADD142R,0.0007X0.1733*%
%ADD143R,0.0007X0.1733*%
%ADD144R,0.0007X0.0360*%
%ADD145R,0.0007X0.0360*%
%ADD146R,0.0007X0.0053*%
%ADD147R,0.0007X0.0093*%
%ADD148R,0.0007X0.0120*%
%ADD149R,0.0007X0.0140*%
%ADD150R,0.0007X0.0160*%
%ADD151R,0.0007X0.0173*%
%ADD152R,0.0007X0.0187*%
%ADD153R,0.0007X0.0194*%
%ADD154R,0.0007X0.0206*%
%ADD155R,0.0007X0.0213*%
%ADD156R,0.0007X0.2660*%
%ADD157R,0.0007X0.2660*%
%ADD158R,0.0007X0.2667*%
%ADD159R,0.0007X0.2667*%
%ADD160R,0.0007X0.0234*%
%ADD161R,0.0007X0.0234*%
%ADD162R,0.0007X0.0240*%
%ADD163R,0.0007X0.0274*%
%ADD164R,0.0007X0.0314*%
%ADD165R,0.0007X0.0347*%
%ADD166R,0.0007X0.0373*%
%ADD167R,0.0007X0.0406*%
%ADD168R,0.0007X0.0427*%
%ADD169R,0.0007X0.0453*%
%ADD170R,0.0007X0.0474*%
%ADD171R,0.0007X0.0747*%
%ADD172R,0.0007X0.0740*%
%ADD173R,0.0007X0.0493*%
%ADD174R,0.0007X0.0747*%
%ADD175R,0.0007X0.0740*%
%ADD176R,0.0007X0.0520*%
%ADD177R,0.0007X0.0533*%
%ADD178R,0.0007X0.0554*%
%ADD179R,0.0007X0.0573*%
%ADD180R,0.0007X0.0587*%
%ADD181R,0.0007X0.0606*%
%ADD182R,0.0007X0.0620*%
%ADD183R,0.0007X0.0634*%
%ADD184R,0.0007X0.0653*%
%ADD185R,0.0007X0.0667*%
%ADD186R,0.0007X0.0680*%
%ADD187R,0.0007X0.0693*%
%ADD188R,0.0007X0.0707*%
%ADD189R,0.0007X0.0714*%
%ADD190R,0.0007X0.0726*%
%ADD191R,0.0007X0.0754*%
%ADD192R,0.0007X0.0760*%
%ADD193R,0.0007X0.0773*%
%ADD194R,0.0007X0.0787*%
%ADD195R,0.0007X0.0794*%
%ADD196R,0.0007X0.0806*%
%ADD197R,0.0007X0.0813*%
%ADD198R,0.0007X0.0827*%
%ADD199R,0.0007X0.0834*%
%ADD200R,0.0007X0.0840*%
%ADD201R,0.0007X0.0853*%
%ADD202R,0.0007X0.0860*%
%ADD203R,0.0007X0.0867*%
%ADD204R,0.0007X0.0874*%
%ADD205R,0.0007X0.0880*%
%ADD206R,0.0007X0.0893*%
%ADD207R,0.0007X0.0900*%
%ADD208R,0.0007X0.0907*%
%ADD209R,0.0007X0.0914*%
%ADD210R,0.0007X0.0920*%
%ADD211R,0.0007X0.0926*%
%ADD212R,0.0007X0.0933*%
%ADD213R,0.0007X0.0940*%
%ADD214R,0.0007X0.0947*%
%ADD215R,0.0007X0.0954*%
%ADD216R,0.0007X0.0960*%
%ADD217R,0.0007X0.0966*%
%ADD218R,0.0007X0.0973*%
%ADD219R,0.0007X0.0980*%
%ADD220R,0.0007X0.0980*%
%ADD221R,0.0007X0.0987*%
%ADD222R,0.0007X0.0994*%
%ADD223R,0.0007X0.1000*%
%ADD224R,0.0007X0.1000*%
%ADD225R,0.0007X0.1006*%
%ADD226R,0.0007X0.1013*%
%ADD227R,0.0007X0.1020*%
%ADD228R,0.0007X0.1027*%
%ADD229R,0.0007X0.1034*%
%ADD230R,0.0007X0.1040*%
%ADD231R,0.0007X0.1040*%
%ADD232R,0.0007X0.1046*%
%ADD233R,0.0007X0.1053*%
%ADD234R,0.0007X0.1053*%
%ADD235R,0.0007X0.1060*%
%ADD236R,0.0007X0.1060*%
%ADD237R,0.0007X0.1067*%
%ADD238R,0.0007X0.1067*%
%ADD239R,0.0007X0.1074*%
%ADD240R,0.0007X0.0307*%
%ADD241R,0.0007X0.0300*%
%ADD242R,0.0007X0.1080*%
%ADD243R,0.0007X0.0307*%
%ADD244R,0.0007X0.0300*%
%ADD245R,0.0007X0.1080*%
%ADD246R,0.0007X0.1086*%
%ADD247R,0.0007X0.1086*%
%ADD248R,0.0007X0.1093*%
%ADD249R,0.0007X0.1093*%
%ADD250R,0.0007X0.1100*%
%ADD251R,0.0007X0.1100*%
%ADD252R,0.0007X0.1107*%
%ADD253R,0.0007X0.1107*%
%ADD254R,0.0007X0.1114*%
%ADD255R,0.0007X0.1114*%
%ADD256R,0.0007X0.1154*%
%ADD257R,0.0007X0.1180*%
%ADD258R,0.0007X0.1200*%
%ADD259R,0.0007X0.1213*%
%ADD260R,0.0007X0.1227*%
%ADD261R,0.0007X0.1240*%
%ADD262R,0.0007X0.1246*%
%ADD263R,0.0007X0.1253*%
%ADD264R,0.0007X0.1260*%
%ADD265R,0.0007X0.1267*%
%ADD266R,0.0007X0.1267*%
%ADD267R,0.0007X0.1260*%
%ADD268R,0.0007X0.1253*%
%ADD269R,0.0007X0.1246*%
%ADD270R,0.0007X0.1227*%
%ADD271R,0.0007X0.1213*%
%ADD272R,0.0007X0.1180*%
%ADD273R,0.0007X0.1154*%
%ADD274R,0.0007X0.0233*%
%ADD275R,0.0007X0.0233*%
%ADD276R,0.0007X0.0226*%
%ADD277R,0.0007X0.0220*%
%ADD278R,0.0007X0.0214*%
%ADD279R,0.0007X0.0220*%
%ADD280R,0.0007X0.0207*%
%ADD281R,0.0007X0.0200*%
%ADD282R,0.0007X0.0193*%
%ADD283R,0.0007X0.0180*%
%ADD284R,0.0007X0.0167*%
%ADD285R,0.0007X0.0153*%
%ADD286R,0.0007X0.0134*%
%ADD287R,0.0007X0.0113*%
%ADD288R,0.0007X0.0080*%
%ADD289R,0.0007X0.0026*%
%ADD290R,0.0007X0.0020*%
%ADD291R,0.0007X0.1720*%
%ADD292R,0.0007X0.1714*%
%ADD293R,0.0007X0.1693*%
%ADD294R,0.0007X0.1680*%
%ADD295R,0.0007X0.1660*%
%ADD296R,0.0007X0.1627*%
%ADD297R,0.0007X0.0947*%
%ADD298R,0.0007X0.0907*%
%ADD299C,0.0020*%
%ADD300R,0.7026X0.0026*%
%ADD301R,0.7026X0.0026*%
%ADD302R,0.0079X0.0026*%
%ADD303R,0.0079X0.0026*%
%ADD304R,0.0211X0.0026*%
%ADD305R,0.0184X0.0026*%
%ADD306R,0.4895X0.0026*%
%ADD307R,0.0184X0.0026*%
%ADD308R,0.0211X0.0026*%
%ADD309R,0.4868X0.0026*%
%ADD310R,0.0158X0.0026*%
%ADD311R,0.0184X0.0026*%
%ADD312R,0.4842X0.0026*%
%ADD313R,0.0131X0.0026*%
%ADD314R,0.4816X0.0026*%
%ADD315R,0.0132X0.0026*%
%ADD316R,0.4790X0.0026*%
%ADD317R,0.0132X0.0026*%
%ADD318R,0.0131X0.0026*%
%ADD319R,0.4790X0.0026*%
%ADD320R,0.4763X0.0026*%
%ADD321R,0.0105X0.0026*%
%ADD322R,0.0132X0.0026*%
%ADD323R,0.0263X0.0026*%
%ADD324R,0.0343X0.0026*%
%ADD325R,0.0447X0.0026*%
%ADD326R,0.0290X0.0026*%
%ADD327R,0.0552X0.0026*%
%ADD328R,0.0289X0.0026*%
%ADD329R,0.0842X0.0026*%
%ADD330R,0.0237X0.0026*%
%ADD331R,0.0395X0.0026*%
%ADD332R,0.0106X0.0026*%
%ADD333R,0.0210X0.0026*%
%ADD334R,0.0868X0.0026*%
%ADD335R,0.0185X0.0026*%
%ADD336R,0.0263X0.0026*%
%ADD337R,0.0237X0.0026*%
%ADD338R,0.0447X0.0026*%
%ADD339R,0.0105X0.0026*%
%ADD340R,0.0158X0.0026*%
%ADD341R,0.0395X0.0026*%
%ADD342R,0.0868X0.0026*%
%ADD343R,0.0157X0.0026*%
%ADD344R,0.0658X0.0026*%
%ADD345R,0.0895X0.0026*%
%ADD346R,0.0052X0.0026*%
%ADD347R,0.0369X0.0026*%
%ADD348R,0.0342X0.0026*%
%ADD349R,0.0921X0.0026*%
%ADD350R,0.0053X0.0026*%
%ADD351R,0.0027X0.0026*%
%ADD352R,0.0079X0.0026*%
%ADD353R,0.0106X0.0026*%
%ADD354R,0.0421X0.0026*%
%ADD355R,0.0026X0.0026*%
%ADD356R,0.0053X0.0026*%
%ADD357R,0.0079X0.0026*%
%ADD358R,0.0737X0.0026*%
%ADD359R,0.0210X0.0026*%
%ADD360R,0.0947X0.0026*%
%ADD361R,0.0394X0.0026*%
%ADD362R,0.0026X0.0026*%
%ADD363R,0.0737X0.0026*%
%ADD364R,0.0947X0.0026*%
%ADD365R,0.0368X0.0026*%
%ADD366R,0.0685X0.0026*%
%ADD367R,0.0027X0.0026*%
%ADD368R,0.0974X0.0026*%
%ADD369R,0.0474X0.0026*%
%ADD370R,0.0316X0.0026*%
%ADD371R,0.0236X0.0026*%
%ADD372R,0.0315X0.0026*%
%ADD373R,0.0237X0.0026*%
%ADD374R,0.1000X0.0026*%
%ADD375R,0.0421X0.0026*%
%ADD376R,0.0289X0.0026*%
%ADD377R,0.0184X0.0026*%
%ADD378R,0.1000X0.0026*%
%ADD379R,0.0500X0.0026*%
%ADD380R,0.1026X0.0026*%
%ADD381R,0.2263X0.0026*%
%ADD382R,0.0631X0.0026*%
%ADD383R,0.1579X0.0026*%
%ADD384R,0.4816X0.0026*%
%ADD385C,0.0080*%
%ADD386R,0.0689X0.0370*%
%ADD387C,0.0001*%
D10*
X007007Y017007D02*
X007007Y017676D01*
X007916Y017676D01*
X007916Y017594D01*
X007688Y017594D01*
X007688Y017007D01*
X007007Y017007D01*
X029989Y004402D02*
X029991Y004452D01*
X029997Y004502D01*
X030007Y004551D01*
X030021Y004599D01*
X030038Y004646D01*
X030059Y004691D01*
X030084Y004735D01*
X030112Y004776D01*
X030144Y004815D01*
X030178Y004852D01*
X030215Y004886D01*
X030255Y004916D01*
X030297Y004943D01*
X030341Y004967D01*
X030387Y004988D01*
X030434Y005004D01*
X030482Y005017D01*
X030532Y005026D01*
X030581Y005031D01*
X030632Y005032D01*
X030682Y005029D01*
X030731Y005022D01*
X030780Y005011D01*
X030828Y004996D01*
X030874Y004978D01*
X030919Y004956D01*
X030962Y004930D01*
X031003Y004901D01*
X031042Y004869D01*
X031078Y004834D01*
X031110Y004796D01*
X031140Y004756D01*
X031167Y004713D01*
X031190Y004669D01*
X031209Y004623D01*
X031225Y004575D01*
X031237Y004526D01*
X031245Y004477D01*
X031249Y004427D01*
X031249Y004377D01*
X031245Y004327D01*
X031237Y004278D01*
X031225Y004229D01*
X031209Y004181D01*
X031190Y004135D01*
X031167Y004091D01*
X031140Y004048D01*
X031110Y004008D01*
X031078Y003970D01*
X031042Y003935D01*
X031003Y003903D01*
X030962Y003874D01*
X030919Y003848D01*
X030874Y003826D01*
X030828Y003808D01*
X030780Y003793D01*
X030731Y003782D01*
X030682Y003775D01*
X030632Y003772D01*
X030581Y003773D01*
X030532Y003778D01*
X030482Y003787D01*
X030434Y003800D01*
X030387Y003816D01*
X030341Y003837D01*
X030297Y003861D01*
X030255Y003888D01*
X030215Y003918D01*
X030178Y003952D01*
X030144Y003989D01*
X030112Y004028D01*
X030084Y004069D01*
X030059Y004113D01*
X030038Y004158D01*
X030021Y004205D01*
X030007Y004253D01*
X029997Y004302D01*
X029991Y004352D01*
X029989Y004402D01*
D11*
X013497Y002116D02*
X013023Y002116D01*
X011568Y002273D02*
X011094Y002273D01*
X011331Y002037D02*
X011331Y002510D01*
X009599Y002116D02*
X009126Y002116D01*
X007631Y002195D02*
X007157Y002195D01*
X007394Y002432D02*
X007394Y001958D01*
X005662Y002116D02*
X005189Y002116D01*
X003694Y002116D02*
X003220Y002116D01*
X003457Y002353D02*
X003457Y001879D01*
D12*
X007191Y004408D02*
X007191Y004818D01*
X007327Y004818D02*
X007054Y004818D01*
X007514Y004818D02*
X007514Y004476D01*
X007583Y004408D01*
X007719Y004408D01*
X007788Y004476D01*
X007788Y004818D01*
X007975Y004750D02*
X007975Y004613D01*
X008043Y004545D01*
X008248Y004545D01*
X008248Y004408D02*
X008248Y004818D01*
X008043Y004818D01*
X007975Y004750D01*
X008435Y004818D02*
X008709Y004818D01*
X008572Y004818D02*
X008572Y004408D01*
X008895Y004476D02*
X008895Y004818D01*
X009169Y004818D02*
X009169Y004476D01*
X009101Y004408D01*
X008964Y004408D01*
X008895Y004476D01*
X009356Y004476D02*
X009356Y004750D01*
X009424Y004818D01*
X009561Y004818D01*
X009629Y004750D01*
X009629Y004476D01*
X009561Y004408D01*
X009424Y004408D01*
X009356Y004476D01*
X002976Y010717D02*
X002908Y010649D01*
X002839Y010649D01*
X002771Y010717D01*
X002771Y010854D01*
X002703Y010923D01*
X002634Y010923D01*
X002566Y010854D01*
X002566Y010717D01*
X002634Y010649D01*
X002976Y010717D02*
X002976Y010854D01*
X002908Y010923D01*
X002976Y011109D02*
X002566Y011109D01*
X002566Y011383D01*
X002566Y011570D02*
X002976Y011570D01*
X002976Y011775D01*
X002908Y011843D01*
X002771Y011843D01*
X002703Y011775D01*
X002703Y011570D01*
X002703Y011707D02*
X002566Y011843D01*
X002703Y012030D02*
X002566Y012167D01*
X002703Y012304D01*
X002976Y012304D01*
X002908Y012491D02*
X002634Y012491D01*
X002566Y012559D01*
X002566Y012696D01*
X002634Y012764D01*
X002908Y012764D01*
X002976Y012696D01*
X002976Y012559D01*
X002908Y012491D01*
X002976Y012030D02*
X002703Y012030D01*
X002976Y011383D02*
X002976Y011109D01*
X002771Y011109D02*
X002771Y011246D01*
D13*
X001885Y001910D02*
X001885Y021660D01*
X001891Y021725D01*
X001900Y021788D01*
X001914Y021851D01*
X001931Y021913D01*
X001952Y021974D01*
X001976Y022034D01*
X002005Y022092D01*
X002036Y022148D01*
X002071Y022202D01*
X002109Y022254D01*
X002150Y022303D01*
X002195Y022350D01*
X002242Y022395D01*
X002291Y022436D01*
X002343Y022474D01*
X002397Y022509D01*
X002453Y022540D01*
X002511Y022569D01*
X002571Y022593D01*
X002632Y022614D01*
X002694Y022631D01*
X002757Y022645D01*
X002820Y022654D01*
X002885Y022660D01*
X030010Y022660D01*
X030635Y022035D01*
X030635Y018660D01*
X031760Y017535D01*
X031760Y003410D01*
X030885Y002535D01*
X030885Y001910D01*
X030260Y001285D01*
X002510Y001285D01*
X002461Y001287D01*
X002412Y001293D01*
X002364Y001302D01*
X002317Y001316D01*
X002271Y001333D01*
X002226Y001353D01*
X002183Y001377D01*
X002143Y001404D01*
X002104Y001435D01*
X002068Y001468D01*
X002035Y001504D01*
X002004Y001543D01*
X001977Y001583D01*
X001953Y001626D01*
X001933Y001671D01*
X001916Y001717D01*
X001902Y001764D01*
X001893Y001812D01*
X001887Y001861D01*
X001885Y001910D01*
X003833Y005974D02*
X005173Y007281D01*
X005073Y007381D01*
X005067Y007375D02*
X005133Y007308D01*
X005140Y007301D02*
X005120Y007328D01*
X003986Y006294D01*
X004026Y006267D01*
X005140Y007301D01*
X005147Y007295D02*
X005080Y007375D01*
X005067Y007375D02*
X003979Y006361D01*
X003946Y006381D02*
X005060Y007401D01*
X005080Y007341D02*
X003959Y006301D01*
X004033Y006288D02*
X004440Y006688D01*
X004306Y006808D02*
X004246Y006881D01*
X004119Y006754D02*
X004186Y006688D01*
X004053Y006574D02*
X003973Y006648D01*
X003879Y006561D02*
X004920Y007488D01*
X004746Y007328D02*
X004806Y007275D01*
X004686Y007155D02*
X004613Y007221D01*
X004513Y007128D02*
X004573Y007055D01*
X004446Y006934D02*
X004380Y007001D01*
X004620Y006428D02*
X004900Y006428D01*
X005007Y006301D01*
X005000Y006301D02*
X004893Y006174D01*
X004620Y006174D01*
X004320Y006214D02*
X004246Y006161D01*
X004306Y006201D02*
X005267Y007115D01*
X005147Y007295D02*
X004026Y006221D01*
X003559Y006087D02*
X003561Y006117D01*
X003567Y006146D01*
X003576Y006175D01*
X003589Y006202D01*
X003605Y006227D01*
X003625Y006250D01*
X003647Y006270D01*
X003672Y006287D01*
X003698Y006301D01*
X003726Y006311D01*
X003756Y006318D01*
X003785Y006321D01*
X003815Y006320D01*
X003845Y006315D01*
X003874Y006307D01*
X003901Y006294D01*
X003927Y006279D01*
X003950Y006260D01*
X003971Y006239D01*
X003989Y006215D01*
X004004Y006189D01*
X004015Y006161D01*
X004023Y006132D01*
X004027Y006102D01*
X004027Y006072D01*
X004023Y006042D01*
X004015Y006013D01*
X004004Y005985D01*
X003989Y005959D01*
X003971Y005935D01*
X003950Y005914D01*
X003927Y005895D01*
X003901Y005880D01*
X003874Y005867D01*
X003845Y005859D01*
X003815Y005854D01*
X003785Y005853D01*
X003756Y005856D01*
X003726Y005863D01*
X003698Y005873D01*
X003672Y005887D01*
X003647Y005904D01*
X003625Y005924D01*
X003605Y005947D01*
X003589Y005972D01*
X003576Y005999D01*
X003567Y006028D01*
X003561Y006057D01*
X003559Y006087D01*
X003416Y006094D02*
X003418Y006129D01*
X003424Y006163D01*
X003433Y006196D01*
X003447Y006229D01*
X003464Y006259D01*
X003484Y006287D01*
X003507Y006313D01*
X003533Y006336D01*
X003561Y006356D01*
X003591Y006373D01*
X003624Y006387D01*
X003657Y006396D01*
X003691Y006402D01*
X003726Y006404D01*
X003761Y006402D01*
X003795Y006396D01*
X003828Y006387D01*
X003861Y006373D01*
X003891Y006356D01*
X003919Y006336D01*
X003945Y006313D01*
X003968Y006287D01*
X003988Y006259D01*
X004005Y006229D01*
X004019Y006196D01*
X004028Y006163D01*
X004034Y006129D01*
X004036Y006094D01*
X004034Y006059D01*
X004028Y006025D01*
X004019Y005992D01*
X004005Y005959D01*
X003988Y005929D01*
X003968Y005901D01*
X003945Y005875D01*
X003919Y005852D01*
X003891Y005832D01*
X003861Y005815D01*
X003828Y005801D01*
X003795Y005792D01*
X003761Y005786D01*
X003726Y005784D01*
X003691Y005786D01*
X003657Y005792D01*
X003624Y005801D01*
X003591Y005815D01*
X003561Y005832D01*
X003533Y005852D01*
X003507Y005875D01*
X003484Y005901D01*
X003464Y005929D01*
X003447Y005959D01*
X003433Y005992D01*
X003424Y006025D01*
X003418Y006059D01*
X003416Y006094D01*
X003525Y006094D02*
X003527Y006123D01*
X003533Y006151D01*
X003542Y006178D01*
X003555Y006203D01*
X003571Y006227D01*
X003590Y006248D01*
X003612Y006266D01*
X003636Y006282D01*
X003662Y006294D01*
X003689Y006302D01*
X003718Y006307D01*
X003746Y006308D01*
X003775Y006305D01*
X003802Y006298D01*
X003829Y006288D01*
X003854Y006274D01*
X003877Y006257D01*
X003898Y006238D01*
X003915Y006215D01*
X003930Y006191D01*
X003941Y006164D01*
X003949Y006137D01*
X003953Y006108D01*
X003953Y006080D01*
X003949Y006051D01*
X003941Y006024D01*
X003930Y005997D01*
X003915Y005973D01*
X003898Y005950D01*
X003877Y005931D01*
X003854Y005914D01*
X003829Y005900D01*
X003802Y005890D01*
X003775Y005883D01*
X003746Y005880D01*
X003718Y005881D01*
X003689Y005886D01*
X003662Y005894D01*
X003636Y005906D01*
X003612Y005922D01*
X003590Y005940D01*
X003571Y005961D01*
X003555Y005985D01*
X003542Y006010D01*
X003533Y006037D01*
X003527Y006065D01*
X003525Y006094D01*
X003550Y006087D02*
X003552Y006114D01*
X003558Y006140D01*
X003567Y006166D01*
X003580Y006189D01*
X003596Y006211D01*
X003615Y006230D01*
X003637Y006246D01*
X003660Y006259D01*
X003686Y006268D01*
X003712Y006274D01*
X003739Y006276D01*
X003766Y006274D01*
X003792Y006268D01*
X003818Y006259D01*
X003841Y006246D01*
X003863Y006230D01*
X003882Y006211D01*
X003898Y006189D01*
X003911Y006166D01*
X003920Y006140D01*
X003926Y006114D01*
X003928Y006087D01*
X003926Y006060D01*
X003920Y006034D01*
X003911Y006008D01*
X003898Y005985D01*
X003882Y005963D01*
X003863Y005944D01*
X003841Y005928D01*
X003818Y005915D01*
X003792Y005906D01*
X003766Y005900D01*
X003739Y005898D01*
X003712Y005900D01*
X003686Y005906D01*
X003660Y005915D01*
X003637Y005928D01*
X003615Y005944D01*
X003596Y005963D01*
X003580Y005985D01*
X003567Y006008D01*
X003558Y006034D01*
X003552Y006060D01*
X003550Y006087D01*
X003686Y006081D02*
X003688Y006095D01*
X003694Y006109D01*
X003703Y006120D01*
X003715Y006128D01*
X003728Y006133D01*
X003743Y006134D01*
X003757Y006131D01*
X003770Y006124D01*
X003780Y006114D01*
X003788Y006102D01*
X003792Y006088D01*
X003792Y006074D01*
X003788Y006060D01*
X003780Y006048D01*
X003770Y006038D01*
X003757Y006031D01*
X003743Y006028D01*
X003728Y006029D01*
X003715Y006034D01*
X003703Y006042D01*
X003694Y006053D01*
X003688Y006067D01*
X003686Y006081D01*
X003719Y006074D02*
X003721Y006082D01*
X003726Y006089D01*
X003733Y006093D01*
X003741Y006094D01*
X003749Y006091D01*
X003755Y006086D01*
X003759Y006078D01*
X003759Y006070D01*
X003755Y006062D01*
X003749Y006057D01*
X003741Y006054D01*
X003733Y006055D01*
X003726Y006059D01*
X003721Y006066D01*
X003719Y006074D01*
X003666Y006081D02*
X003668Y006098D01*
X003673Y006115D01*
X003682Y006129D01*
X003694Y006142D01*
X003709Y006152D01*
X003725Y006158D01*
X003742Y006161D01*
X003759Y006160D01*
X003776Y006155D01*
X003791Y006147D01*
X003804Y006136D01*
X003815Y006122D01*
X003822Y006107D01*
X003826Y006090D01*
X003826Y006072D01*
X003822Y006055D01*
X003815Y006040D01*
X003804Y006026D01*
X003791Y006015D01*
X003776Y006007D01*
X003759Y006002D01*
X003742Y006001D01*
X003725Y006004D01*
X003709Y006010D01*
X003694Y006020D01*
X003682Y006033D01*
X003673Y006047D01*
X003668Y006064D01*
X003666Y006081D01*
X003633Y006081D02*
X003635Y006102D01*
X003641Y006122D01*
X003650Y006140D01*
X003662Y006157D01*
X003678Y006171D01*
X003696Y006182D01*
X003715Y006190D01*
X003736Y006194D01*
X003756Y006194D01*
X003777Y006190D01*
X003796Y006182D01*
X003814Y006171D01*
X003830Y006157D01*
X003842Y006140D01*
X003851Y006122D01*
X003857Y006102D01*
X003859Y006081D01*
X003857Y006060D01*
X003851Y006040D01*
X003842Y006022D01*
X003830Y006005D01*
X003814Y005991D01*
X003796Y005980D01*
X003777Y005972D01*
X003756Y005968D01*
X003736Y005968D01*
X003715Y005972D01*
X003696Y005980D01*
X003678Y005991D01*
X003662Y006005D01*
X003650Y006022D01*
X003641Y006040D01*
X003635Y006060D01*
X003633Y006081D01*
X003612Y006081D02*
X003614Y006104D01*
X003620Y006126D01*
X003629Y006146D01*
X003642Y006165D01*
X003657Y006182D01*
X003676Y006195D01*
X003696Y006205D01*
X003718Y006212D01*
X003740Y006215D01*
X003763Y006214D01*
X003785Y006209D01*
X003806Y006201D01*
X003826Y006189D01*
X003843Y006174D01*
X003857Y006156D01*
X003868Y006136D01*
X003876Y006115D01*
X003880Y006092D01*
X003880Y006070D01*
X003876Y006047D01*
X003868Y006026D01*
X003857Y006006D01*
X003843Y005988D01*
X003826Y005973D01*
X003806Y005961D01*
X003785Y005953D01*
X003763Y005948D01*
X003740Y005947D01*
X003718Y005950D01*
X003696Y005957D01*
X003676Y005967D01*
X003657Y005980D01*
X003642Y005997D01*
X003629Y006016D01*
X003620Y006036D01*
X003614Y006058D01*
X003612Y006081D01*
X003592Y006081D02*
X003594Y006105D01*
X003600Y006129D01*
X003609Y006151D01*
X003621Y006172D01*
X003637Y006190D01*
X003655Y006206D01*
X003676Y006218D01*
X003698Y006227D01*
X003722Y006233D01*
X003746Y006235D01*
X003770Y006233D01*
X003794Y006227D01*
X003816Y006218D01*
X003837Y006206D01*
X003855Y006190D01*
X003871Y006172D01*
X003883Y006151D01*
X003892Y006129D01*
X003898Y006105D01*
X003900Y006081D01*
X003898Y006057D01*
X003892Y006033D01*
X003883Y006011D01*
X003871Y005990D01*
X003855Y005972D01*
X003837Y005956D01*
X003816Y005944D01*
X003794Y005935D01*
X003770Y005929D01*
X003746Y005927D01*
X003722Y005929D01*
X003698Y005935D01*
X003676Y005944D01*
X003655Y005956D01*
X003637Y005972D01*
X003621Y005990D01*
X003609Y006011D01*
X003600Y006033D01*
X003594Y006057D01*
X003592Y006081D01*
X003518Y006074D02*
X003520Y006104D01*
X003526Y006134D01*
X003535Y006162D01*
X003548Y006189D01*
X003565Y006215D01*
X003584Y006237D01*
X003606Y006258D01*
X003631Y006275D01*
X003658Y006289D01*
X003686Y006299D01*
X003715Y006306D01*
X003745Y006309D01*
X003776Y006308D01*
X003805Y006303D01*
X003834Y006295D01*
X003862Y006282D01*
X003887Y006267D01*
X003911Y006248D01*
X003932Y006226D01*
X003950Y006202D01*
X003965Y006176D01*
X003976Y006148D01*
X003984Y006119D01*
X003988Y006089D01*
X003988Y006059D01*
X003984Y006029D01*
X003976Y006000D01*
X003965Y005972D01*
X003950Y005946D01*
X003932Y005922D01*
X003911Y005900D01*
X003887Y005881D01*
X003862Y005866D01*
X003834Y005853D01*
X003805Y005845D01*
X003776Y005840D01*
X003745Y005839D01*
X003715Y005842D01*
X003686Y005849D01*
X003658Y005859D01*
X003631Y005873D01*
X003606Y005890D01*
X003584Y005911D01*
X003565Y005933D01*
X003548Y005959D01*
X003535Y005986D01*
X003526Y006014D01*
X003520Y006044D01*
X003518Y006074D01*
X003493Y006101D02*
X003495Y006133D01*
X003501Y006164D01*
X003511Y006195D01*
X003524Y006224D01*
X003541Y006251D01*
X003561Y006276D01*
X003584Y006298D01*
X003609Y006318D01*
X003637Y006334D01*
X003667Y006346D01*
X003697Y006355D01*
X003729Y006360D01*
X003761Y006361D01*
X003793Y006358D01*
X003824Y006351D01*
X003854Y006340D01*
X003883Y006326D01*
X003910Y006308D01*
X003934Y006288D01*
X003956Y006264D01*
X003974Y006238D01*
X003989Y006210D01*
X004001Y006180D01*
X004009Y006149D01*
X004013Y006117D01*
X004013Y006085D01*
X004009Y006053D01*
X004001Y006022D01*
X003989Y005992D01*
X003974Y005964D01*
X003956Y005938D01*
X003934Y005914D01*
X003910Y005894D01*
X003883Y005876D01*
X003854Y005862D01*
X003824Y005851D01*
X003793Y005844D01*
X003761Y005841D01*
X003729Y005842D01*
X003697Y005847D01*
X003667Y005856D01*
X003637Y005868D01*
X003609Y005884D01*
X003584Y005904D01*
X003561Y005926D01*
X003541Y005951D01*
X003524Y005978D01*
X003511Y006007D01*
X003501Y006038D01*
X003495Y006069D01*
X003493Y006101D01*
X003450Y006107D02*
X003452Y006142D01*
X003458Y006176D01*
X003468Y006209D01*
X003481Y006241D01*
X003498Y006271D01*
X003518Y006299D01*
X003542Y006324D01*
X003568Y006347D01*
X003597Y006366D01*
X003627Y006383D01*
X003659Y006395D01*
X003693Y006404D01*
X003727Y006409D01*
X003762Y006410D01*
X003796Y006407D01*
X003830Y006400D01*
X003863Y006389D01*
X003894Y006375D01*
X003924Y006357D01*
X003951Y006336D01*
X003976Y006312D01*
X003998Y006285D01*
X004017Y006256D01*
X004032Y006225D01*
X004044Y006192D01*
X004052Y006159D01*
X004056Y006124D01*
X004056Y006090D01*
X004052Y006055D01*
X004044Y006022D01*
X004032Y005989D01*
X004017Y005958D01*
X003998Y005929D01*
X003976Y005902D01*
X003951Y005878D01*
X003924Y005857D01*
X003894Y005839D01*
X003863Y005825D01*
X003830Y005814D01*
X003796Y005807D01*
X003762Y005804D01*
X003727Y005805D01*
X003693Y005810D01*
X003659Y005819D01*
X003627Y005831D01*
X003597Y005848D01*
X003568Y005867D01*
X003542Y005890D01*
X003518Y005915D01*
X003498Y005943D01*
X003481Y005973D01*
X003468Y006005D01*
X003458Y006038D01*
X003452Y006072D01*
X003450Y006107D01*
X003517Y006114D02*
X003519Y006144D01*
X003525Y006174D01*
X003534Y006203D01*
X003547Y006230D01*
X003564Y006255D01*
X003583Y006278D01*
X003606Y006299D01*
X003631Y006316D01*
X003657Y006330D01*
X003686Y006340D01*
X003715Y006347D01*
X003745Y006350D01*
X003776Y006349D01*
X003806Y006344D01*
X003835Y006335D01*
X003862Y006323D01*
X003888Y006308D01*
X003912Y006289D01*
X003933Y006267D01*
X003951Y006243D01*
X003966Y006216D01*
X003977Y006188D01*
X003985Y006159D01*
X003989Y006129D01*
X003989Y006099D01*
X003985Y006069D01*
X003977Y006040D01*
X003966Y006012D01*
X003951Y005985D01*
X003933Y005961D01*
X003912Y005939D01*
X003888Y005920D01*
X003862Y005905D01*
X003835Y005893D01*
X003806Y005884D01*
X003776Y005879D01*
X003745Y005878D01*
X003715Y005881D01*
X003686Y005888D01*
X003657Y005898D01*
X003631Y005912D01*
X003606Y005929D01*
X003583Y005950D01*
X003564Y005973D01*
X003547Y005998D01*
X003534Y006025D01*
X003525Y006054D01*
X003519Y006084D01*
X003517Y006114D01*
X003404Y006094D02*
X003406Y006131D01*
X003412Y006168D01*
X003421Y006204D01*
X003435Y006238D01*
X003452Y006271D01*
X003472Y006303D01*
X003495Y006332D01*
X003521Y006358D01*
X003550Y006381D01*
X003581Y006401D01*
X003615Y006418D01*
X003649Y006432D01*
X003685Y006441D01*
X003722Y006447D01*
X003759Y006449D01*
X003796Y006447D01*
X003833Y006441D01*
X003869Y006432D01*
X003903Y006418D01*
X003936Y006401D01*
X003968Y006381D01*
X003997Y006358D01*
X004023Y006332D01*
X004046Y006303D01*
X004066Y006272D01*
X004083Y006238D01*
X004097Y006204D01*
X004106Y006168D01*
X004112Y006131D01*
X004114Y006094D01*
X004112Y006057D01*
X004106Y006020D01*
X004097Y005984D01*
X004083Y005950D01*
X004066Y005917D01*
X004046Y005885D01*
X004023Y005856D01*
X003997Y005830D01*
X003968Y005807D01*
X003937Y005787D01*
X003903Y005770D01*
X003869Y005756D01*
X003833Y005747D01*
X003796Y005741D01*
X003759Y005739D01*
X003722Y005741D01*
X003685Y005747D01*
X003649Y005756D01*
X003615Y005770D01*
X003582Y005787D01*
X003550Y005807D01*
X003521Y005830D01*
X003495Y005856D01*
X003472Y005885D01*
X003452Y005916D01*
X003435Y005950D01*
X003421Y005984D01*
X003412Y006020D01*
X003406Y006057D01*
X003404Y006094D01*
X003585Y006094D02*
X003587Y006120D01*
X003593Y006146D01*
X003602Y006171D01*
X003615Y006194D01*
X003631Y006215D01*
X003650Y006233D01*
X003672Y006249D01*
X003695Y006261D01*
X003720Y006269D01*
X003746Y006274D01*
X003773Y006275D01*
X003799Y006272D01*
X003824Y006265D01*
X003849Y006255D01*
X003871Y006241D01*
X003892Y006224D01*
X003909Y006205D01*
X003924Y006183D01*
X003935Y006159D01*
X003943Y006133D01*
X003947Y006107D01*
X003947Y006081D01*
X003943Y006055D01*
X003935Y006029D01*
X003924Y006005D01*
X003909Y005983D01*
X003892Y005964D01*
X003871Y005947D01*
X003849Y005933D01*
X003824Y005923D01*
X003799Y005916D01*
X003773Y005913D01*
X003746Y005914D01*
X003720Y005919D01*
X003695Y005927D01*
X003672Y005939D01*
X003650Y005955D01*
X003631Y005973D01*
X003615Y005994D01*
X003602Y006017D01*
X003593Y006042D01*
X003587Y006068D01*
X003585Y006094D01*
X003472Y006094D02*
X003474Y006128D01*
X003480Y006162D01*
X003490Y006195D01*
X003503Y006226D01*
X003520Y006256D01*
X003541Y006283D01*
X003564Y006308D01*
X003590Y006330D01*
X003619Y006349D01*
X003650Y006364D01*
X003682Y006376D01*
X003715Y006384D01*
X003749Y006388D01*
X003783Y006388D01*
X003817Y006384D01*
X003850Y006376D01*
X003882Y006364D01*
X003913Y006349D01*
X003942Y006330D01*
X003968Y006308D01*
X003991Y006283D01*
X004012Y006256D01*
X004029Y006226D01*
X004042Y006195D01*
X004052Y006162D01*
X004058Y006128D01*
X004060Y006094D01*
X004058Y006060D01*
X004052Y006026D01*
X004042Y005993D01*
X004029Y005962D01*
X004012Y005932D01*
X003991Y005905D01*
X003968Y005880D01*
X003942Y005858D01*
X003913Y005839D01*
X003882Y005824D01*
X003850Y005812D01*
X003817Y005804D01*
X003783Y005800D01*
X003749Y005800D01*
X003715Y005804D01*
X003682Y005812D01*
X003650Y005824D01*
X003619Y005839D01*
X003590Y005858D01*
X003564Y005880D01*
X003541Y005905D01*
X003520Y005932D01*
X003503Y005962D01*
X003490Y005993D01*
X003480Y006026D01*
X003474Y006060D01*
X003472Y006094D01*
X003442Y006094D02*
X003444Y006130D01*
X003450Y006165D01*
X003460Y006199D01*
X003473Y006232D01*
X003490Y006264D01*
X003510Y006293D01*
X003534Y006320D01*
X003560Y006344D01*
X003589Y006365D01*
X003620Y006383D01*
X003652Y006397D01*
X003686Y006408D01*
X003721Y006415D01*
X003757Y006418D01*
X003793Y006417D01*
X003828Y006412D01*
X003863Y006403D01*
X003896Y006391D01*
X003928Y006375D01*
X003958Y006355D01*
X003985Y006332D01*
X004010Y006307D01*
X004032Y006279D01*
X004051Y006248D01*
X004066Y006216D01*
X004078Y006182D01*
X004086Y006147D01*
X004090Y006112D01*
X004090Y006076D01*
X004086Y006041D01*
X004078Y006006D01*
X004066Y005972D01*
X004051Y005940D01*
X004032Y005909D01*
X004010Y005881D01*
X003985Y005856D01*
X003958Y005833D01*
X003928Y005813D01*
X003896Y005797D01*
X003863Y005785D01*
X003828Y005776D01*
X003793Y005771D01*
X003757Y005770D01*
X003721Y005773D01*
X003686Y005780D01*
X003652Y005791D01*
X003620Y005805D01*
X003589Y005823D01*
X003560Y005844D01*
X003534Y005868D01*
X003510Y005895D01*
X003490Y005924D01*
X003473Y005956D01*
X003460Y005989D01*
X003450Y006023D01*
X003444Y006058D01*
X003442Y006094D01*
X003879Y006568D02*
X003837Y006575D01*
X003795Y006579D01*
X003752Y006578D01*
X003710Y006574D01*
X003668Y006566D01*
X003627Y006555D01*
X003588Y006539D01*
X003550Y006521D01*
X003513Y006498D01*
X003479Y006473D01*
X003447Y006445D01*
X003418Y006414D01*
X003392Y006380D01*
X003369Y006345D01*
X003349Y006307D01*
X003333Y006268D01*
X003321Y006227D01*
X003312Y006186D01*
X003306Y006143D01*
X003305Y006101D01*
X003308Y006058D01*
X003314Y006016D01*
X003324Y005975D01*
X003338Y005935D01*
X003355Y005896D01*
X003375Y005859D01*
X003399Y005824D01*
X003426Y005791D01*
X003456Y005761D01*
X003489Y005733D01*
X003524Y005709D01*
X003560Y005688D01*
X003599Y005670D01*
X003639Y005656D01*
X003680Y005645D01*
X003722Y005638D01*
X003765Y005635D01*
X003807Y005636D01*
X003849Y005641D01*
X003891Y005649D01*
X003932Y005661D01*
X003971Y005677D01*
X004009Y005696D01*
X004045Y005719D01*
X004079Y005744D01*
X004110Y005773D01*
X004139Y005804D01*
X004165Y005838D01*
X004188Y005874D01*
X004207Y005912D01*
X004223Y005951D01*
X004235Y005992D01*
X004243Y006034D01*
X004248Y006076D01*
X004249Y006119D01*
X004246Y006161D01*
X005034Y006308D02*
X005036Y006314D01*
X005040Y006319D01*
X005047Y006321D01*
X005053Y006319D01*
X005058Y006315D01*
X005060Y006308D01*
X005058Y006302D01*
X005054Y006297D01*
X005047Y006295D01*
X005041Y006297D01*
X005036Y006301D01*
X005034Y006308D01*
X005017Y006314D02*
X005019Y006324D01*
X005024Y006333D01*
X005032Y006340D01*
X005042Y006344D01*
X005052Y006344D01*
X005062Y006340D01*
X005070Y006333D01*
X005075Y006324D01*
X005077Y006314D01*
X005075Y006304D01*
X005070Y006295D01*
X005062Y006288D01*
X005052Y006284D01*
X005042Y006284D01*
X005032Y006288D01*
X005024Y006295D01*
X005019Y006304D01*
X005017Y006314D01*
X004993Y006314D02*
X004995Y006329D01*
X005000Y006343D01*
X005009Y006355D01*
X005021Y006365D01*
X005034Y006371D01*
X005049Y006374D01*
X005064Y006373D01*
X005079Y006368D01*
X005091Y006360D01*
X005102Y006349D01*
X005109Y006336D01*
X005113Y006322D01*
X005113Y006306D01*
X005109Y006292D01*
X005102Y006279D01*
X005091Y006268D01*
X005079Y006260D01*
X005064Y006255D01*
X005049Y006254D01*
X005034Y006257D01*
X005021Y006263D01*
X005009Y006273D01*
X005000Y006285D01*
X004995Y006299D01*
X004993Y006314D01*
X005260Y007108D02*
X005282Y007129D01*
X005301Y007153D01*
X005318Y007178D01*
X005331Y007206D01*
X005341Y007235D01*
X005347Y007265D01*
X005350Y007295D01*
X005349Y007325D01*
X005344Y007356D01*
X005336Y007385D01*
X005324Y007413D01*
X005309Y007440D01*
X005291Y007464D01*
X005271Y007487D01*
X005247Y007506D01*
X005222Y007523D01*
X005194Y007536D01*
X005165Y007546D01*
X005136Y007553D01*
X005105Y007556D01*
X005075Y007555D01*
X005045Y007551D01*
X005015Y007543D01*
X004987Y007531D01*
X004960Y007517D01*
X004935Y007499D01*
X004913Y007478D01*
X004893Y007455D01*
X007454Y007715D02*
X007454Y007715D01*
X007348Y005347D01*
X008001Y005294D01*
X007928Y005374D02*
X007961Y005641D01*
X007454Y005694D01*
X007434Y005427D01*
X007921Y005380D01*
X007601Y005534D02*
X007603Y005550D01*
X007608Y005566D01*
X007617Y005580D01*
X007629Y005592D01*
X007643Y005601D01*
X007659Y005606D01*
X007675Y005608D01*
X007691Y005606D01*
X007707Y005601D01*
X007721Y005592D01*
X007733Y005580D01*
X007742Y005566D01*
X007747Y005550D01*
X007749Y005534D01*
X007747Y005518D01*
X007742Y005502D01*
X007733Y005488D01*
X007721Y005476D01*
X007707Y005467D01*
X007691Y005462D01*
X007675Y005460D01*
X007659Y005462D01*
X007643Y005467D01*
X007629Y005476D01*
X007617Y005488D01*
X007608Y005502D01*
X007603Y005518D01*
X007601Y005534D01*
X007461Y005801D02*
X007528Y007201D01*
X009182Y007141D01*
X009042Y005681D01*
X007461Y005801D01*
X008002Y005294D02*
X008005Y005325D01*
X008013Y005356D01*
X008024Y005386D01*
X008038Y005415D01*
X008056Y005441D01*
X008076Y005466D01*
X008099Y005487D01*
X008125Y005506D01*
X008153Y005522D01*
X008182Y005535D01*
X008213Y005544D01*
X008244Y005549D01*
X008276Y005551D01*
X008308Y005549D01*
X008339Y005543D01*
X008369Y005534D01*
X008399Y005522D01*
X008426Y005506D01*
X008452Y005486D01*
X008475Y005464D01*
X008495Y005440D01*
X008513Y005413D01*
X008527Y005385D01*
X008538Y005355D01*
X008545Y005324D01*
X008549Y005292D01*
X008548Y005260D01*
X009142Y005207D01*
X009302Y007601D01*
X008702Y007635D01*
X008768Y007561D02*
X009189Y007535D01*
X009175Y007268D01*
X008755Y007288D01*
X008782Y007548D01*
X008888Y007408D02*
X008890Y007425D01*
X008895Y007442D01*
X008905Y007457D01*
X008917Y007470D01*
X008931Y007480D01*
X008947Y007486D01*
X008965Y007489D01*
X008982Y007488D01*
X008999Y007483D01*
X009014Y007475D01*
X009028Y007464D01*
X009038Y007450D01*
X009046Y007434D01*
X009050Y007417D01*
X009050Y007399D01*
X009046Y007382D01*
X009038Y007366D01*
X009028Y007352D01*
X009014Y007341D01*
X008999Y007333D01*
X008982Y007328D01*
X008965Y007327D01*
X008947Y007330D01*
X008931Y007336D01*
X008917Y007346D01*
X008905Y007359D01*
X008895Y007374D01*
X008890Y007391D01*
X008888Y007408D01*
X008702Y007635D02*
X008697Y007603D01*
X008688Y007571D01*
X008676Y007540D01*
X008661Y007510D01*
X008643Y007483D01*
X008621Y007458D01*
X008597Y007435D01*
X008570Y007416D01*
X008542Y007399D01*
X008511Y007386D01*
X008480Y007376D01*
X008447Y007370D01*
X008414Y007367D01*
X008381Y007368D01*
X008349Y007373D01*
X008317Y007382D01*
X008286Y007394D01*
X008256Y007409D01*
X008229Y007427D01*
X008204Y007449D01*
X008181Y007473D01*
X008162Y007500D01*
X008145Y007528D01*
X008132Y007559D01*
X008122Y007590D01*
X008116Y007623D01*
X008113Y007656D01*
X008114Y007689D01*
X008115Y007688D02*
X007454Y007715D01*
X007554Y007635D02*
X007548Y007315D01*
X008008Y007295D01*
X008021Y007608D01*
X007568Y007628D01*
X007667Y007461D02*
X007669Y007479D01*
X007675Y007497D01*
X007684Y007513D01*
X007696Y007526D01*
X007711Y007537D01*
X007728Y007545D01*
X007746Y007549D01*
X007764Y007549D01*
X007782Y007545D01*
X007799Y007537D01*
X007814Y007526D01*
X007826Y007513D01*
X007835Y007497D01*
X007841Y007479D01*
X007843Y007461D01*
X007841Y007443D01*
X007835Y007425D01*
X007826Y007409D01*
X007814Y007396D01*
X007799Y007385D01*
X007782Y007377D01*
X007764Y007373D01*
X007746Y007373D01*
X007728Y007377D01*
X007711Y007385D01*
X007696Y007396D01*
X007684Y007409D01*
X007675Y007425D01*
X007669Y007443D01*
X007667Y007461D01*
X008668Y005607D02*
X008648Y005334D01*
X008655Y005334D02*
X009055Y005300D01*
X009069Y005560D01*
X008668Y005607D01*
X008774Y005440D02*
X008776Y005455D01*
X008782Y005469D01*
X008791Y005482D01*
X008802Y005492D01*
X008816Y005498D01*
X008831Y005501D01*
X008846Y005500D01*
X008861Y005495D01*
X008874Y005487D01*
X008884Y005476D01*
X008892Y005462D01*
X008896Y005448D01*
X008896Y005432D01*
X008892Y005418D01*
X008884Y005404D01*
X008874Y005393D01*
X008861Y005385D01*
X008846Y005380D01*
X008831Y005379D01*
X008816Y005382D01*
X008802Y005388D01*
X008791Y005398D01*
X008782Y005411D01*
X008776Y005425D01*
X008774Y005440D01*
D14*
X013182Y009448D02*
X013225Y009405D01*
X013312Y009405D01*
X013355Y009448D01*
X013355Y009492D01*
X013312Y009535D01*
X013225Y009535D01*
X013182Y009492D01*
X013182Y009448D01*
X013225Y009535D02*
X013182Y009578D01*
X013182Y009622D01*
X013225Y009665D01*
X013312Y009665D01*
X013355Y009622D01*
X013355Y009578D01*
X013312Y009535D01*
X013476Y009448D02*
X013476Y009622D01*
X013520Y009665D01*
X013650Y009665D01*
X013650Y009405D01*
X013520Y009405D01*
X013476Y009448D01*
X013520Y010405D02*
X013476Y010448D01*
X013476Y010622D01*
X013520Y010665D01*
X013650Y010665D01*
X013650Y010405D01*
X013520Y010405D01*
X013355Y010448D02*
X013312Y010405D01*
X013225Y010405D01*
X013182Y010448D01*
X013182Y010622D01*
X013225Y010665D01*
X013312Y010665D01*
X013355Y010622D01*
X013355Y010578D01*
X013312Y010535D01*
X013182Y010535D01*
X013204Y011405D02*
X013377Y011405D01*
X013291Y011405D02*
X013291Y011665D01*
X013377Y011578D01*
X013498Y011622D02*
X013542Y011665D01*
X013672Y011665D01*
X013672Y011405D01*
X013542Y011405D01*
X013498Y011448D01*
X013498Y011622D01*
X013083Y011622D02*
X013039Y011665D01*
X012953Y011665D01*
X012909Y011622D01*
X013083Y011448D01*
X013039Y011405D01*
X012953Y011405D01*
X012909Y011448D01*
X012909Y011622D01*
X013083Y011622D02*
X013083Y011448D01*
X013083Y012405D02*
X012909Y012405D01*
X012996Y012405D02*
X012996Y012665D01*
X013083Y012578D01*
X013204Y012405D02*
X013377Y012405D01*
X013291Y012405D02*
X013291Y012665D01*
X013377Y012578D01*
X013498Y012622D02*
X013542Y012665D01*
X013672Y012665D01*
X013672Y012405D01*
X013542Y012405D01*
X013498Y012448D01*
X013498Y012622D01*
X013542Y013405D02*
X013498Y013448D01*
X013498Y013622D01*
X013542Y013665D01*
X013672Y013665D01*
X013672Y013405D01*
X013542Y013405D01*
X013377Y013405D02*
X013204Y013405D01*
X013291Y013405D02*
X013291Y013665D01*
X013377Y013578D01*
X013083Y013622D02*
X013039Y013665D01*
X012953Y013665D01*
X012909Y013622D01*
X012909Y013578D01*
X013083Y013405D01*
X012909Y013405D01*
X012953Y014405D02*
X013039Y014405D01*
X013083Y014448D01*
X012996Y014535D02*
X012953Y014535D01*
X012909Y014492D01*
X012909Y014448D01*
X012953Y014405D01*
X012953Y014535D02*
X012909Y014578D01*
X012909Y014622D01*
X012953Y014665D01*
X013039Y014665D01*
X013083Y014622D01*
X013291Y014665D02*
X013291Y014405D01*
X013377Y014405D02*
X013204Y014405D01*
X013377Y014578D02*
X013291Y014665D01*
X013498Y014622D02*
X013498Y014448D01*
X013542Y014405D01*
X013672Y014405D01*
X013672Y014665D01*
X013542Y014665D01*
X013498Y014622D01*
X017630Y014576D02*
X017630Y014489D01*
X017630Y014532D02*
X017890Y014532D01*
X017890Y014489D02*
X017890Y014576D01*
X017890Y014686D02*
X017890Y014859D01*
X017890Y014772D02*
X017630Y014772D01*
X017630Y014980D02*
X017630Y015067D01*
X017890Y015067D01*
X017890Y014980D01*
X017890Y014368D02*
X017630Y014194D01*
X017630Y014073D02*
X017630Y013900D01*
X017890Y013900D01*
X017890Y014073D01*
X017890Y014194D02*
X017630Y014368D01*
X017760Y013987D02*
X017760Y013900D01*
X017630Y013790D02*
X017630Y013703D01*
X017890Y013703D01*
X017890Y013790D01*
X022630Y013491D02*
X022890Y013491D01*
X022890Y013404D01*
X022890Y013283D02*
X022630Y013283D01*
X022890Y013110D01*
X022630Y013110D01*
X022630Y012988D02*
X022890Y012988D01*
X022890Y012815D02*
X022630Y012815D01*
X022717Y012902D01*
X022630Y012988D01*
X022673Y012694D02*
X022847Y012694D01*
X022890Y012650D01*
X022890Y012564D01*
X022847Y012520D01*
X022673Y012520D01*
X022630Y012564D01*
X022630Y012650D01*
X022673Y012694D01*
X022673Y012399D02*
X022847Y012399D01*
X022890Y012356D01*
X022890Y012226D01*
X022630Y012226D01*
X022630Y012356D01*
X022673Y012399D01*
X022630Y012116D02*
X022630Y012029D01*
X022890Y012029D01*
X022890Y012116D01*
X022630Y013404D02*
X022630Y013491D01*
X022630Y015132D02*
X022890Y015132D01*
X022890Y015219D01*
X022890Y015328D02*
X022630Y015328D01*
X022630Y015502D01*
X022630Y015623D02*
X022890Y015623D01*
X022630Y015797D01*
X022890Y015797D01*
X022890Y015918D02*
X022890Y016091D01*
X022890Y016004D02*
X022630Y016004D01*
X022630Y016212D02*
X022630Y016386D01*
X022630Y016507D02*
X022890Y016507D01*
X022890Y016637D01*
X022847Y016680D01*
X022760Y016680D01*
X022717Y016637D01*
X022717Y016507D01*
X022717Y016594D02*
X022630Y016680D01*
X022630Y016802D02*
X022630Y016888D01*
X022890Y016888D01*
X022890Y016802D01*
X022890Y016386D02*
X022890Y016212D01*
X022630Y016212D01*
X022760Y016212D02*
X022760Y016299D01*
X022890Y015502D02*
X022890Y015328D01*
X022760Y015328D02*
X022760Y015415D01*
X022630Y015219D02*
X022630Y015132D01*
X022630Y018824D02*
X022890Y018824D01*
X022890Y018911D01*
X022890Y019020D02*
X022673Y019020D01*
X022630Y019064D01*
X022630Y019150D01*
X022673Y019194D01*
X022890Y019194D01*
X022890Y019315D02*
X022630Y019315D01*
X022717Y019315D02*
X022717Y019445D01*
X022760Y019488D01*
X022847Y019488D01*
X022890Y019445D01*
X022890Y019315D01*
X022890Y019610D02*
X022890Y019696D01*
X022630Y019696D01*
X022630Y019610D01*
X022630Y018911D02*
X022630Y018824D01*
X013215Y021030D02*
X013084Y021030D01*
X013041Y021073D01*
X013041Y021247D01*
X013084Y021290D01*
X013215Y021290D01*
X013215Y021030D01*
X012920Y021073D02*
X012920Y021160D01*
X012877Y021203D01*
X012790Y021203D01*
X012746Y021160D01*
X012746Y021073D01*
X012790Y021030D01*
X012877Y021030D01*
X012920Y021073D01*
X012910Y021530D02*
X012953Y021573D01*
X012953Y021660D01*
X012910Y021703D01*
X012823Y021703D01*
X012780Y021660D01*
X012780Y021573D01*
X012823Y021530D01*
X012910Y021530D01*
X013074Y021573D02*
X013074Y021747D01*
X013118Y021790D01*
X013248Y021790D01*
X013248Y021530D01*
X013118Y021530D01*
X013074Y021573D01*
X013091Y022030D02*
X013048Y022073D01*
X013048Y022247D01*
X013091Y022290D01*
X013221Y022290D01*
X013221Y022030D01*
X013091Y022030D01*
X012927Y022073D02*
X012883Y022117D01*
X012753Y022117D01*
X012753Y022160D02*
X012753Y022030D01*
X012883Y022030D01*
X012927Y022073D01*
X012883Y022203D02*
X012796Y022203D01*
X012753Y022160D01*
X012632Y022203D02*
X012632Y022030D01*
X012632Y022203D02*
X012502Y022203D01*
X012458Y022160D01*
X012458Y022030D01*
X012337Y022073D02*
X012337Y022160D01*
X012294Y022203D01*
X012164Y022203D01*
X012164Y021987D01*
X012207Y021943D01*
X012251Y021943D01*
X012294Y022030D02*
X012164Y022030D01*
X012043Y022073D02*
X012043Y022160D01*
X011999Y022203D01*
X011912Y022203D01*
X011869Y022160D01*
X011869Y022117D01*
X012043Y022117D01*
X012043Y022073D02*
X011999Y022030D01*
X011912Y022030D01*
X011748Y022030D02*
X011748Y022203D01*
X011748Y022117D02*
X011661Y022203D01*
X011618Y022203D01*
X011502Y022203D02*
X011502Y022160D01*
X011459Y022160D01*
X011459Y022203D01*
X011502Y022203D01*
X011502Y022073D02*
X011502Y022030D01*
X011459Y022030D01*
X011459Y022073D01*
X011502Y022073D01*
X011284Y021790D02*
X011240Y021790D01*
X011240Y021530D01*
X011197Y021530D02*
X011284Y021530D01*
X011087Y021573D02*
X011087Y021660D01*
X011044Y021703D01*
X010957Y021703D01*
X010914Y021660D01*
X010914Y021617D01*
X011087Y021617D01*
X011087Y021573D02*
X011044Y021530D01*
X010957Y021530D01*
X010793Y021573D02*
X010749Y021617D01*
X010619Y021617D01*
X010619Y021660D02*
X010619Y021530D01*
X010749Y021530D01*
X010793Y021573D01*
X010749Y021703D02*
X010662Y021703D01*
X010619Y021660D01*
X010498Y021703D02*
X010411Y021530D01*
X010324Y021703D01*
X010203Y021660D02*
X010160Y021703D01*
X010073Y021703D01*
X010030Y021660D01*
X010030Y021617D01*
X010203Y021617D01*
X010203Y021660D02*
X010203Y021573D01*
X010160Y021530D01*
X010073Y021530D01*
X010028Y021203D02*
X010072Y021160D01*
X010072Y021073D01*
X010028Y021030D01*
X009941Y021030D01*
X009898Y021073D01*
X009898Y021160D01*
X009941Y021203D01*
X010028Y021203D01*
X009777Y021203D02*
X009690Y021030D01*
X009603Y021203D01*
X009482Y021160D02*
X009439Y021203D01*
X009352Y021203D01*
X009309Y021160D01*
X009309Y021117D01*
X009482Y021117D01*
X009482Y021160D02*
X009482Y021073D01*
X009439Y021030D01*
X009352Y021030D01*
X009188Y021030D02*
X009188Y021203D01*
X009058Y021203D01*
X009014Y021160D01*
X009014Y021030D01*
X008598Y021160D02*
X008512Y021160D01*
X008555Y021247D02*
X008512Y021290D01*
X008555Y021247D02*
X008555Y021030D01*
X008402Y021073D02*
X008402Y021160D01*
X008359Y021203D01*
X008272Y021203D01*
X008228Y021160D01*
X008228Y021073D01*
X008272Y021030D01*
X008359Y021030D01*
X008402Y021073D01*
X008107Y021030D02*
X008107Y021203D01*
X008107Y021117D02*
X008020Y021203D01*
X007977Y021203D01*
X008042Y021530D02*
X008042Y021703D01*
X007912Y021703D01*
X007869Y021660D01*
X007869Y021530D01*
X007704Y021573D02*
X007704Y021747D01*
X007661Y021703D02*
X007748Y021703D01*
X007704Y021573D02*
X007661Y021530D01*
X007551Y021573D02*
X007551Y021660D01*
X007508Y021703D01*
X007421Y021703D01*
X007378Y021660D01*
X007378Y021617D01*
X007551Y021617D01*
X007551Y021573D02*
X007508Y021530D01*
X007421Y021530D01*
X007257Y021573D02*
X007257Y021660D01*
X007213Y021703D01*
X007083Y021703D01*
X007083Y021790D02*
X007083Y021530D01*
X007213Y021530D01*
X007257Y021573D01*
X007480Y021290D02*
X007524Y021247D01*
X007524Y021030D01*
X007567Y021160D02*
X007480Y021160D01*
X007371Y021160D02*
X007371Y021073D01*
X007327Y021030D01*
X007240Y021030D01*
X007197Y021073D01*
X007197Y021160D01*
X007240Y021203D01*
X007327Y021203D01*
X007371Y021160D01*
X007076Y021160D02*
X007076Y021073D01*
X007033Y021030D01*
X006946Y021030D01*
X006902Y021073D01*
X006902Y021160D01*
X006946Y021203D01*
X007033Y021203D01*
X007076Y021160D01*
X006781Y021160D02*
X006781Y021073D01*
X006738Y021030D01*
X006608Y021030D01*
X006608Y021290D01*
X006608Y021203D02*
X006738Y021203D01*
X006781Y021160D01*
X006192Y021203D02*
X006192Y020943D01*
X006192Y021030D02*
X006062Y021030D01*
X006019Y021073D01*
X006019Y021160D01*
X006062Y021203D01*
X006192Y021203D01*
X005897Y021203D02*
X005897Y021030D01*
X005897Y021117D02*
X005811Y021203D01*
X005767Y021203D01*
X005652Y021160D02*
X005608Y021203D01*
X005522Y021203D01*
X005478Y021160D01*
X005478Y021117D01*
X005652Y021117D01*
X005652Y021160D02*
X005652Y021073D01*
X005608Y021030D01*
X005522Y021030D01*
X005357Y021030D02*
X005227Y021030D01*
X005184Y021073D01*
X005184Y021160D01*
X005227Y021203D01*
X005357Y021203D01*
X005357Y020943D01*
X005062Y021073D02*
X005019Y021117D01*
X004889Y021117D01*
X004889Y021160D02*
X004889Y021030D01*
X005019Y021030D01*
X005062Y021073D01*
X005019Y021203D02*
X004932Y021203D01*
X004889Y021160D01*
X004768Y021117D02*
X004681Y021203D01*
X004638Y021203D01*
X004768Y021203D02*
X004768Y021030D01*
X004522Y021073D02*
X004479Y021117D01*
X004349Y021117D01*
X004349Y021160D02*
X004349Y021030D01*
X004479Y021030D01*
X004522Y021073D01*
X004479Y021203D02*
X004392Y021203D01*
X004349Y021160D01*
X004228Y021203D02*
X004141Y021203D01*
X004184Y021247D02*
X004184Y021073D01*
X004141Y021030D01*
X004031Y021030D02*
X003944Y021030D01*
X003988Y021030D02*
X003988Y021203D01*
X004031Y021203D01*
X003988Y021290D02*
X003988Y021334D01*
X003835Y021160D02*
X003835Y021073D01*
X003791Y021030D01*
X003705Y021030D01*
X003661Y021073D01*
X003661Y021160D01*
X003705Y021203D01*
X003791Y021203D01*
X003835Y021160D01*
X003540Y021203D02*
X003540Y021030D01*
X003367Y021030D02*
X003367Y021160D01*
X003410Y021203D01*
X003540Y021203D01*
X004104Y022030D02*
X004234Y022117D01*
X004104Y022203D01*
X004234Y022290D02*
X004234Y022030D01*
X004356Y022073D02*
X004399Y022117D01*
X004486Y022117D01*
X004529Y022160D01*
X004486Y022203D01*
X004356Y022203D01*
X004356Y022073D02*
X004399Y022030D01*
X004529Y022030D01*
X004639Y022030D02*
X004725Y022030D01*
X004682Y022030D02*
X004682Y022203D01*
X004725Y022203D01*
X004682Y022290D02*
X004682Y022334D01*
X004847Y022247D02*
X004847Y022160D01*
X004890Y022117D01*
X005020Y022117D01*
X004933Y022117D02*
X004847Y022030D01*
X005020Y022030D02*
X005020Y022290D01*
X004890Y022290D01*
X004847Y022247D01*
X005436Y022160D02*
X005436Y022117D01*
X005609Y022117D01*
X005609Y022160D02*
X005609Y022073D01*
X005566Y022030D01*
X005479Y022030D01*
X005436Y022160D02*
X005479Y022203D01*
X005566Y022203D01*
X005609Y022160D01*
X005725Y022203D02*
X005768Y022203D01*
X005855Y022117D01*
X005855Y022203D02*
X005855Y022030D01*
X005965Y022030D02*
X006051Y022030D01*
X006008Y022030D02*
X006008Y022203D01*
X006051Y022203D01*
X006008Y022290D02*
X006008Y022334D01*
X006173Y022290D02*
X006346Y022290D01*
X006346Y022030D01*
X006346Y022160D02*
X006259Y022160D01*
X006762Y022203D02*
X006892Y022203D01*
X006935Y022160D01*
X006935Y022073D01*
X006892Y022030D01*
X006762Y022030D01*
X006762Y022290D01*
X007056Y022160D02*
X007056Y022030D01*
X007056Y022160D02*
X007100Y022203D01*
X007230Y022203D01*
X007230Y022030D01*
X007351Y022030D02*
X007481Y022030D01*
X007525Y022073D01*
X007481Y022117D01*
X007351Y022117D01*
X007351Y022160D02*
X007351Y022030D01*
X007351Y022160D02*
X007395Y022203D01*
X007481Y022203D01*
X007940Y022160D02*
X007940Y022117D01*
X008114Y022117D01*
X008114Y022160D02*
X008114Y022073D01*
X008071Y022030D01*
X007984Y022030D01*
X007940Y022160D02*
X007984Y022203D01*
X008071Y022203D01*
X008114Y022160D01*
X008235Y022203D02*
X008235Y021987D01*
X008278Y021943D01*
X008322Y021943D01*
X008365Y022030D02*
X008235Y022030D01*
X008365Y022030D02*
X008409Y022073D01*
X008409Y022160D01*
X008365Y022203D01*
X008235Y022203D01*
X008530Y022160D02*
X008530Y022030D01*
X008660Y022030D01*
X008703Y022073D01*
X008660Y022117D01*
X008530Y022117D01*
X008530Y022160D02*
X008573Y022203D01*
X008660Y022203D01*
X008813Y022203D02*
X008900Y022203D01*
X008856Y022247D02*
X008856Y022073D01*
X008813Y022030D01*
X009009Y022030D02*
X009096Y022030D01*
X009053Y022030D02*
X009053Y022290D01*
X009096Y022290D01*
X009217Y022160D02*
X009217Y022073D01*
X009261Y022030D01*
X009347Y022030D01*
X009391Y022073D01*
X009391Y022160D01*
X009347Y022203D01*
X009261Y022203D01*
X009217Y022160D01*
X009512Y022117D02*
X009512Y022290D01*
X009512Y022117D02*
X009599Y022030D01*
X009685Y022117D01*
X009685Y022290D01*
X010101Y022290D02*
X010101Y022030D01*
X010101Y022160D02*
X010275Y022160D01*
X010396Y022160D02*
X010483Y022160D01*
X010396Y022160D02*
X010396Y022073D01*
X010439Y022030D01*
X010526Y022030D01*
X010569Y022073D01*
X010569Y022247D01*
X010526Y022290D01*
X010439Y022290D01*
X010396Y022247D01*
X010275Y022290D02*
X010275Y022030D01*
X010679Y022030D02*
X010766Y022030D01*
X010722Y022030D02*
X010722Y022290D01*
X010679Y022290D02*
X010766Y022290D01*
X010887Y022290D02*
X010887Y022030D01*
X010887Y022160D02*
X011060Y022160D01*
X011060Y022030D02*
X011060Y022290D01*
X011688Y021703D02*
X011775Y021703D01*
X011731Y021747D02*
X011731Y021573D01*
X011688Y021530D01*
X011896Y021573D02*
X011896Y021660D01*
X011939Y021703D01*
X012026Y021703D01*
X012069Y021660D01*
X012069Y021573D01*
X012026Y021530D01*
X011939Y021530D01*
X011896Y021573D01*
X012191Y021530D02*
X012191Y021660D01*
X012234Y021703D01*
X012364Y021703D01*
X012364Y021530D01*
X012331Y021203D02*
X012200Y021203D01*
X012157Y021160D01*
X012157Y021030D01*
X012036Y021073D02*
X012036Y021160D01*
X011993Y021203D01*
X011906Y021203D01*
X011862Y021160D01*
X011862Y021073D01*
X011906Y021030D01*
X011993Y021030D01*
X012036Y021073D01*
X012331Y021030D02*
X012331Y021203D01*
X011741Y021203D02*
X011655Y021203D01*
X011698Y021247D02*
X011698Y021073D01*
X011655Y021030D01*
X011250Y021073D02*
X011250Y021203D01*
X011250Y021073D02*
X011207Y021030D01*
X011077Y021030D01*
X011077Y021203D01*
X010956Y021160D02*
X010912Y021117D01*
X010825Y021117D01*
X010782Y021073D01*
X010825Y021030D01*
X010956Y021030D01*
X010956Y021160D02*
X010912Y021203D01*
X010782Y021203D01*
X010661Y021160D02*
X010661Y021073D01*
X010618Y021030D01*
X010531Y021030D01*
X010487Y021117D02*
X010661Y021117D01*
X010661Y021160D02*
X010618Y021203D01*
X010531Y021203D01*
X010487Y021160D01*
X010487Y021117D01*
X009614Y021573D02*
X009614Y021703D01*
X009614Y021573D02*
X009571Y021530D01*
X009440Y021530D01*
X009440Y021703D01*
X009319Y021703D02*
X009189Y021703D01*
X009146Y021660D01*
X009146Y021530D01*
X009025Y021573D02*
X008981Y021617D01*
X008851Y021617D01*
X008851Y021660D02*
X008851Y021530D01*
X008981Y021530D01*
X009025Y021573D01*
X008981Y021703D02*
X008894Y021703D01*
X008851Y021660D01*
X008730Y021703D02*
X008643Y021703D01*
X008687Y021747D02*
X008687Y021573D01*
X008643Y021530D01*
X008490Y021573D02*
X008447Y021530D01*
X008490Y021573D02*
X008490Y021747D01*
X008447Y021703D02*
X008534Y021703D01*
X008337Y021660D02*
X008337Y021573D01*
X008294Y021530D01*
X008207Y021530D01*
X008164Y021617D02*
X008337Y021617D01*
X008337Y021660D02*
X008294Y021703D01*
X008207Y021703D01*
X008164Y021660D01*
X008164Y021617D01*
X009319Y021530D02*
X009319Y021703D01*
X012294Y022030D02*
X012337Y022073D01*
X004879Y012790D02*
X004922Y012747D01*
X004922Y012573D01*
X004879Y012530D01*
X004792Y012530D01*
X004748Y012573D01*
X004748Y012660D01*
X004835Y012660D01*
X004748Y012747D02*
X004792Y012790D01*
X004879Y012790D01*
X004627Y012790D02*
X004454Y012530D01*
X004454Y012790D01*
X004333Y012790D02*
X004203Y012790D01*
X004159Y012747D01*
X004159Y012573D01*
X004203Y012530D01*
X004333Y012530D01*
X004333Y012790D01*
X004627Y012790D02*
X004627Y012530D01*
X004650Y011790D02*
X004476Y011790D01*
X004520Y011703D02*
X004476Y011660D01*
X004476Y011573D01*
X004520Y011530D01*
X004606Y011530D01*
X004650Y011573D01*
X004650Y011660D02*
X004563Y011703D01*
X004520Y011703D01*
X004650Y011660D02*
X004650Y011790D01*
X004355Y011790D02*
X004355Y011617D01*
X004268Y011530D01*
X004182Y011617D01*
X004182Y011790D01*
X004182Y010790D02*
X004268Y010747D01*
X004355Y010660D01*
X004225Y010660D01*
X004182Y010617D01*
X004182Y010573D01*
X004225Y010530D01*
X004312Y010530D01*
X004355Y010573D01*
X004355Y010660D01*
X004476Y010573D02*
X004476Y010747D01*
X004520Y010790D01*
X004650Y010790D01*
X004650Y010530D01*
X004520Y010530D01*
X004476Y010573D01*
X026238Y009742D02*
X026281Y009742D01*
X026368Y009656D01*
X026368Y009742D02*
X026368Y009569D01*
X026489Y009656D02*
X026663Y009656D01*
X026663Y009699D02*
X026620Y009742D01*
X026533Y009742D01*
X026489Y009699D01*
X026489Y009656D01*
X026533Y009569D02*
X026620Y009569D01*
X026663Y009612D01*
X026663Y009699D01*
X026784Y009742D02*
X026914Y009742D01*
X026958Y009699D01*
X026958Y009612D01*
X026914Y009569D01*
X026784Y009569D01*
X026784Y009829D01*
X026741Y010001D02*
X026741Y010174D01*
X026611Y010174D01*
X026568Y010131D01*
X026568Y010001D01*
X026447Y010001D02*
X026316Y010001D01*
X026273Y010044D01*
X026316Y010088D01*
X026403Y010088D01*
X026447Y010131D01*
X026403Y010174D01*
X026273Y010174D01*
X026862Y010131D02*
X026906Y010174D01*
X026992Y010174D01*
X027036Y010131D01*
X027036Y010044D01*
X026992Y010001D01*
X026906Y010001D01*
X026862Y010044D01*
X026862Y010131D01*
X027146Y010174D02*
X027232Y010174D01*
X027189Y010218D02*
X027189Y010044D01*
X027146Y010001D01*
X027342Y010001D02*
X027385Y010044D01*
X027385Y010218D01*
X027342Y010174D02*
X027429Y010174D01*
X027550Y010174D02*
X027550Y010001D01*
X027680Y010001D01*
X027723Y010044D01*
X027723Y010174D01*
X027845Y010131D02*
X027888Y010174D01*
X028018Y010174D01*
X028018Y010261D02*
X028018Y010001D01*
X027888Y010001D01*
X027845Y010044D01*
X027845Y010131D01*
X027841Y009742D02*
X027711Y009742D01*
X027668Y009699D01*
X027668Y009569D01*
X027547Y009612D02*
X027503Y009569D01*
X027373Y009569D01*
X027252Y009612D02*
X027209Y009569D01*
X027122Y009569D01*
X027079Y009612D01*
X027079Y009699D01*
X027122Y009742D01*
X027209Y009742D01*
X027252Y009699D01*
X027252Y009612D01*
X027373Y009742D02*
X027503Y009742D01*
X027547Y009699D01*
X027547Y009612D01*
X027424Y009376D02*
X027424Y009116D01*
X027554Y009116D01*
X027598Y009159D01*
X027598Y009246D01*
X027554Y009289D01*
X027424Y009289D01*
X027719Y009246D02*
X027719Y009116D01*
X027849Y009116D01*
X027893Y009159D01*
X027849Y009202D01*
X027719Y009202D01*
X027719Y009246D02*
X027762Y009289D01*
X027849Y009289D01*
X028014Y009246D02*
X028014Y009202D01*
X028187Y009202D01*
X028187Y009159D02*
X028187Y009246D01*
X028144Y009289D01*
X028057Y009289D01*
X028014Y009246D01*
X028057Y009116D02*
X028144Y009116D01*
X028187Y009159D01*
X028297Y009116D02*
X028340Y009159D01*
X028340Y009333D01*
X028297Y009289D02*
X028384Y009289D01*
X028505Y009289D02*
X028635Y009289D01*
X028678Y009246D01*
X028635Y009202D01*
X028548Y009202D01*
X028505Y009159D01*
X028548Y009116D01*
X028678Y009116D01*
X028799Y009116D02*
X028799Y009246D01*
X028843Y009289D01*
X028973Y009289D01*
X028973Y009116D01*
X029083Y009116D02*
X029169Y009116D01*
X029126Y009116D02*
X029126Y009289D01*
X029169Y009289D01*
X029126Y009376D02*
X029126Y009419D01*
X029092Y009569D02*
X029222Y009569D01*
X029266Y009612D01*
X029266Y009699D01*
X029222Y009742D01*
X029092Y009742D01*
X029092Y009829D02*
X029092Y009569D01*
X028971Y009612D02*
X028971Y009699D01*
X028928Y009742D01*
X028841Y009742D01*
X028797Y009699D01*
X028797Y009656D01*
X028971Y009656D01*
X028971Y009612D02*
X028928Y009569D01*
X028841Y009569D01*
X028676Y009569D02*
X028676Y009742D01*
X028676Y009656D02*
X028590Y009742D01*
X028546Y009742D01*
X028564Y010001D02*
X028607Y010044D01*
X028607Y010131D01*
X028564Y010174D01*
X028477Y010174D01*
X028434Y010131D01*
X028434Y010088D01*
X028607Y010088D01*
X028564Y010001D02*
X028477Y010001D01*
X028723Y010001D02*
X028853Y010088D01*
X028723Y010174D01*
X028853Y010261D02*
X028853Y010001D01*
X028963Y010001D02*
X029049Y010001D01*
X029006Y010001D02*
X029006Y010174D01*
X029049Y010174D01*
X029006Y010261D02*
X029006Y010304D01*
X029030Y010481D02*
X028944Y010481D01*
X028900Y010524D01*
X028900Y010611D01*
X028944Y010654D01*
X029030Y010654D01*
X029074Y010611D01*
X029074Y010524D01*
X029030Y010481D01*
X029195Y010481D02*
X029195Y010611D01*
X029238Y010654D01*
X029325Y010654D01*
X029369Y010611D01*
X029478Y010654D02*
X029565Y010654D01*
X029522Y010698D02*
X029522Y010524D01*
X029478Y010481D01*
X029369Y010481D02*
X029369Y010741D01*
X029467Y010874D02*
X029467Y011134D01*
X029337Y011134D01*
X029293Y011091D01*
X029293Y011004D01*
X029337Y010961D01*
X029467Y010961D01*
X029588Y011004D02*
X029588Y011178D01*
X029631Y011221D01*
X029718Y011221D01*
X029761Y011178D01*
X029761Y011004D01*
X029718Y010961D01*
X029631Y010961D01*
X029588Y011004D01*
X029172Y011134D02*
X029085Y011134D01*
X029129Y011178D02*
X029129Y011004D01*
X029085Y010961D01*
X028976Y010961D02*
X028889Y010961D01*
X028932Y010961D02*
X028932Y011134D01*
X028976Y011134D01*
X028932Y011221D02*
X028932Y011264D01*
X028779Y011091D02*
X028779Y011004D01*
X028736Y010961D01*
X028649Y010961D01*
X028606Y011004D01*
X028606Y011091D01*
X028649Y011134D01*
X028736Y011134D01*
X028779Y011091D01*
X028485Y011134D02*
X028354Y011134D01*
X028311Y011091D01*
X028311Y010961D01*
X028190Y011004D02*
X028147Y011048D01*
X028016Y011048D01*
X028016Y011091D02*
X028016Y010961D01*
X028147Y010961D01*
X028190Y011004D01*
X028147Y011134D02*
X028060Y011134D01*
X028016Y011091D01*
X027895Y011221D02*
X027852Y011221D01*
X027852Y010961D01*
X027895Y010961D02*
X027809Y010961D01*
X027699Y010961D02*
X027699Y011004D01*
X027655Y011004D01*
X027655Y010961D01*
X027699Y010961D01*
X027699Y011091D02*
X027699Y011134D01*
X027655Y011134D01*
X027655Y011091D01*
X027699Y011091D01*
X027699Y010741D02*
X027699Y010481D01*
X027809Y010481D02*
X027852Y010524D01*
X027852Y010698D01*
X027895Y010654D02*
X027809Y010654D01*
X027699Y010611D02*
X027655Y010654D01*
X027569Y010654D01*
X027525Y010611D01*
X027525Y010481D01*
X027404Y010524D02*
X027361Y010568D01*
X027231Y010568D01*
X027231Y010611D02*
X027231Y010481D01*
X027361Y010481D01*
X027404Y010524D01*
X027361Y010654D02*
X027274Y010654D01*
X027231Y010611D01*
X027110Y010654D02*
X027023Y010654D01*
X027066Y010698D02*
X027066Y010524D01*
X027023Y010481D01*
X026919Y010961D02*
X026962Y011004D01*
X026962Y011091D01*
X026919Y011134D01*
X026832Y011134D01*
X026789Y011091D01*
X026789Y011004D01*
X026832Y010961D01*
X026919Y010961D01*
X026668Y010961D02*
X026668Y011134D01*
X026668Y011048D02*
X026581Y011134D01*
X026537Y011134D01*
X027083Y011221D02*
X027257Y011221D01*
X027257Y010961D01*
X027257Y011091D02*
X027170Y011091D01*
X028311Y010611D02*
X028311Y010568D01*
X028485Y010568D01*
X028485Y010611D02*
X028441Y010654D01*
X028354Y010654D01*
X028311Y010611D01*
X028354Y010481D02*
X028441Y010481D01*
X028485Y010524D01*
X028485Y010611D01*
X028606Y010654D02*
X028736Y010654D01*
X028779Y010611D01*
X028736Y010568D01*
X028649Y010568D01*
X028606Y010524D01*
X028649Y010481D01*
X028779Y010481D01*
X029202Y010261D02*
X029202Y010001D01*
X029159Y010001D02*
X029246Y010001D01*
X029367Y010044D02*
X029410Y010088D01*
X029497Y010088D01*
X029540Y010131D01*
X029497Y010174D01*
X029367Y010174D01*
X029367Y010044D02*
X029410Y010001D01*
X029540Y010001D01*
X029650Y010001D02*
X029737Y010001D01*
X029693Y010001D02*
X029693Y010174D01*
X029737Y010174D01*
X029693Y010261D02*
X029693Y010304D01*
X029858Y010261D02*
X029858Y010001D01*
X029988Y010001D01*
X030031Y010044D01*
X030031Y010131D01*
X029988Y010174D01*
X029858Y010174D01*
X029921Y009829D02*
X030008Y009829D01*
X030051Y009786D01*
X030051Y009742D01*
X030008Y009699D01*
X029921Y009699D01*
X029878Y009656D01*
X029878Y009612D01*
X029921Y009569D01*
X030008Y009569D01*
X030051Y009612D01*
X029878Y009786D02*
X029921Y009829D01*
X029757Y009699D02*
X029713Y009742D01*
X029627Y009742D01*
X029583Y009699D01*
X029583Y009612D01*
X029627Y009569D01*
X029713Y009569D01*
X029757Y009612D01*
X029757Y009699D01*
X029462Y009829D02*
X029419Y009829D01*
X029419Y009569D01*
X029462Y009569D02*
X029375Y009569D01*
X029246Y010261D02*
X029202Y010261D01*
X028485Y010961D02*
X028485Y011134D01*
X028093Y009742D02*
X028006Y009742D01*
X027963Y009699D01*
X027963Y009656D01*
X028136Y009656D01*
X028136Y009699D02*
X028093Y009742D01*
X028136Y009699D02*
X028136Y009612D01*
X028093Y009569D01*
X028006Y009569D01*
X027841Y009569D02*
X027841Y009742D01*
D15*
X020760Y014535D02*
X019885Y014535D01*
D16*
X018135Y015035D02*
X018135Y013910D01*
X022510Y013910D01*
X022510Y015035D01*
X018135Y015035D01*
X023135Y015535D02*
X025885Y015535D01*
X025885Y015160D01*
X025885Y015535D02*
X027510Y015535D01*
X027510Y016660D01*
X025885Y016660D01*
X025885Y017035D01*
X030635Y017035D01*
X030635Y015285D01*
X030635Y013910D02*
X030635Y011910D01*
X029760Y011910D01*
X028760Y011910D02*
X027760Y011910D01*
X027510Y012285D02*
X023135Y012285D01*
X023135Y013410D01*
X027510Y013410D01*
X027510Y012285D01*
X026760Y011910D02*
X025885Y011910D01*
X025885Y012160D01*
X025760Y012910D02*
X024885Y012910D01*
X025885Y013535D02*
X025885Y013910D01*
X023135Y015535D02*
X023135Y016660D01*
X025885Y016660D01*
X025760Y016160D02*
X024885Y016160D01*
X023135Y018785D02*
X023135Y019785D01*
X027510Y019785D01*
X027510Y018785D01*
X023135Y018785D01*
X024885Y019285D02*
X025760Y019285D01*
D17*
X022285Y011685D03*
X022165Y011725D03*
X022325Y011205D03*
X022765Y010485D03*
X022685Y010365D03*
X022885Y010365D03*
X023805Y010445D03*
X024085Y010645D03*
X024125Y010605D03*
X024245Y010525D03*
X023965Y010725D03*
X023485Y011125D03*
X023365Y011165D03*
X024045Y010165D03*
X024325Y010085D03*
X024525Y010005D03*
X024605Y009925D03*
X025005Y009965D03*
X024845Y010565D03*
X025325Y011085D03*
X024565Y009125D03*
X024605Y008885D03*
X024725Y008845D03*
X024885Y008485D03*
X022965Y006965D03*
X022925Y007005D03*
X023045Y006845D03*
X023085Y006805D03*
X023245Y006605D03*
X023365Y006445D03*
X023085Y006445D03*
X022725Y006525D03*
X022765Y006805D03*
X022685Y006965D03*
X022605Y006885D03*
X022445Y006965D03*
X021845Y006925D03*
X021725Y007245D03*
X021645Y007285D03*
X021365Y007405D03*
X020645Y007805D03*
X020285Y007685D03*
X019965Y007525D03*
X019605Y006965D03*
X019205Y006605D03*
X018765Y006445D03*
X018645Y006405D03*
X018845Y006165D03*
X017005Y005925D03*
X016245Y005405D03*
X016085Y005485D03*
X015965Y005525D03*
X015605Y005765D03*
X018325Y008725D03*
X018485Y008645D03*
X018605Y008605D03*
X018725Y009045D03*
X018645Y009085D03*
X018525Y009125D03*
X018085Y008845D03*
X018005Y008885D03*
X017885Y008925D03*
X017765Y008965D03*
X017285Y009685D03*
X016085Y009085D03*
X015925Y009165D03*
X015325Y009165D03*
X018125Y010925D03*
X018445Y010885D03*
X018645Y010925D03*
X021005Y010125D03*
X022405Y009005D03*
X019965Y008205D03*
X019925Y008245D03*
X019725Y008365D03*
X019685Y008445D03*
X019725Y008565D03*
X019525Y008445D03*
X021805Y006525D03*
X022085Y006165D03*
X022845Y005125D03*
X022965Y005165D03*
X023485Y004685D03*
X023645Y004725D03*
X023765Y004765D03*
X023925Y004805D03*
X024085Y004845D03*
X023845Y005005D03*
X023605Y005485D03*
X023685Y005565D03*
X023845Y005845D03*
X024205Y004565D03*
X024365Y004605D03*
X024445Y004325D03*
X024325Y004285D03*
X023525Y004365D03*
X023565Y003485D03*
D18*
X023545Y003525D03*
X024945Y004765D03*
X024625Y005005D03*
X024385Y004925D03*
X024225Y004885D03*
X023545Y006165D03*
X022785Y005485D03*
X022625Y005565D03*
X021745Y006605D03*
X022345Y007005D03*
X022705Y006845D03*
X021545Y007325D03*
X021465Y007365D03*
X021265Y007445D03*
X021185Y007485D03*
X020905Y007845D03*
X020345Y007525D03*
X020025Y007725D03*
X020025Y007765D03*
X019625Y007485D03*
X018425Y006365D03*
X018185Y006405D03*
X017385Y006525D03*
X017225Y005925D03*
X018545Y005485D03*
X015025Y006245D03*
X018385Y008685D03*
X017985Y008765D03*
X017785Y008885D03*
X017665Y008925D03*
X017545Y009005D03*
X017425Y008965D03*
X018225Y009925D03*
X018225Y010845D03*
X018825Y010965D03*
X020105Y011165D03*
X020505Y011085D03*
X021985Y011285D03*
X023545Y010965D03*
X023905Y010765D03*
X024025Y010685D03*
X023745Y010165D03*
X024505Y010325D03*
X024905Y009925D03*
X023745Y009165D03*
X023505Y009165D03*
X025385Y011045D03*
X024025Y011565D03*
X019865Y008645D03*
X019225Y008725D03*
X019145Y008765D03*
X019065Y008805D03*
X015625Y009285D03*
X014905Y009085D03*
X013905Y010125D03*
X013985Y010325D03*
X014425Y010965D03*
D19*
X014365Y011005D03*
X014245Y011005D03*
X014325Y010885D03*
X014325Y010845D03*
X014285Y010805D03*
X014245Y010765D03*
X014245Y010725D03*
X014205Y010685D03*
X014205Y010645D03*
X014165Y010605D03*
X014165Y010565D03*
X014125Y010525D03*
X014085Y010445D03*
X014085Y010405D03*
X013965Y010405D03*
X013885Y010285D03*
X013845Y010165D03*
X014005Y010165D03*
X014005Y010205D03*
X013965Y010045D03*
X014205Y010045D03*
X014285Y010005D03*
X014405Y009845D03*
X014765Y009685D03*
X014845Y009645D03*
X015125Y009525D03*
X015405Y009405D03*
X015485Y009365D03*
X015765Y009245D03*
X015845Y009205D03*
X015165Y009085D03*
X014845Y008765D03*
X014805Y008645D03*
X014765Y008605D03*
X014725Y008525D03*
X014485Y008725D03*
X014445Y008685D03*
X014525Y008805D03*
X014565Y008845D03*
X014645Y008885D03*
X015845Y008365D03*
X016045Y008525D03*
X016045Y007925D03*
X015805Y006965D03*
X015845Y006925D03*
X015885Y006885D03*
X015925Y006845D03*
X016005Y006805D03*
X016085Y006765D03*
X015845Y006165D03*
X015885Y006125D03*
X015965Y006085D03*
X016045Y006045D03*
X015805Y005605D03*
X015725Y005645D03*
X015685Y005685D03*
X015485Y005845D03*
X015365Y005925D03*
X015325Y005965D03*
X015285Y006005D03*
X015245Y006045D03*
X015205Y006085D03*
X015165Y006125D03*
X014765Y006325D03*
X016805Y006645D03*
X018405Y005845D03*
X018525Y005965D03*
X018645Y006005D03*
X018765Y006085D03*
X018605Y006165D03*
X018605Y006205D03*
X018605Y006245D03*
X018605Y006285D03*
X018605Y006325D03*
X018605Y006365D03*
X018605Y006445D03*
X018565Y006525D03*
X018565Y006565D03*
X018565Y006605D03*
X018565Y006645D03*
X018565Y006685D03*
X018565Y006725D03*
X018565Y006765D03*
X018565Y006805D03*
X018565Y006845D03*
X018565Y006885D03*
X018565Y006925D03*
X018565Y006965D03*
X018605Y007005D03*
X018605Y007045D03*
X018885Y006605D03*
X018845Y006565D03*
X018805Y006525D03*
X019085Y006565D03*
X019205Y006485D03*
X019205Y006445D03*
X019245Y006365D03*
X019245Y006325D03*
X019245Y006285D03*
X019245Y006245D03*
X019205Y006205D03*
X019205Y006165D03*
X019205Y006125D03*
X019165Y006045D03*
X019125Y006005D03*
X019125Y005965D03*
X019085Y005925D03*
X019045Y005885D03*
X019005Y005845D03*
X018965Y005805D03*
X018925Y005765D03*
X018885Y005725D03*
X018805Y005645D03*
X018645Y005605D03*
X018645Y005565D03*
X018965Y006205D03*
X019005Y006245D03*
X019045Y006285D03*
X019085Y006325D03*
X019125Y006365D03*
X019245Y006565D03*
X019405Y006725D03*
X019485Y006765D03*
X019685Y007045D03*
X019725Y007165D03*
X019405Y007525D03*
X019285Y007525D03*
X019125Y007765D03*
X019165Y007805D03*
X019165Y007845D03*
X019165Y007885D03*
X019205Y007925D03*
X019205Y007965D03*
X019605Y007845D03*
X019605Y007805D03*
X019605Y007725D03*
X019645Y007685D03*
X020005Y007845D03*
X020045Y007965D03*
X020045Y008005D03*
X020325Y008005D03*
X020325Y007925D03*
X020405Y008085D03*
X020525Y008045D03*
X020565Y007925D03*
X020485Y007725D03*
X020485Y007685D03*
X020645Y007685D03*
X020965Y007765D03*
X020805Y007285D03*
X020765Y007245D03*
X020725Y007205D03*
X020605Y007245D03*
X020525Y007285D03*
X020485Y007325D03*
X020485Y007365D03*
X020245Y007725D03*
X020325Y008325D03*
X020285Y008365D03*
X020205Y008405D03*
X019965Y008325D03*
X019965Y008285D03*
X019845Y008285D03*
X019805Y008525D03*
X019645Y008485D03*
X019525Y008565D03*
X019325Y008525D03*
X019205Y008525D03*
X019205Y008445D03*
X019125Y008565D03*
X019085Y008525D03*
X019005Y008885D03*
X018925Y008925D03*
X018845Y008965D03*
X018805Y009005D03*
X018685Y009125D03*
X018965Y009445D03*
X019085Y009565D03*
X019125Y009605D03*
X019205Y009685D03*
X019205Y009725D03*
X019165Y009765D03*
X019045Y009845D03*
X019005Y009885D03*
X018965Y009925D03*
X018925Y009765D03*
X018885Y009725D03*
X018525Y009925D03*
X019245Y009645D03*
X019285Y009605D03*
X019445Y009445D03*
X019485Y009405D03*
X019525Y009365D03*
X019565Y009325D03*
X019685Y009245D03*
X019365Y009045D03*
X019325Y009085D03*
X019285Y009125D03*
X019245Y009165D03*
X019245Y009205D03*
X019285Y009245D03*
X019725Y008885D03*
X019805Y008925D03*
X020005Y009045D03*
X020045Y008845D03*
X020045Y008805D03*
X020005Y008725D03*
X019965Y008685D03*
X021285Y009645D03*
X021325Y009605D03*
X021365Y009565D03*
X021365Y009525D03*
X021405Y009485D03*
X021445Y009445D03*
X021485Y009405D03*
X021245Y009725D03*
X021205Y009765D03*
X021165Y009845D03*
X021085Y009965D03*
X021045Y010005D03*
X021045Y010165D03*
X021045Y010205D03*
X020925Y010205D03*
X020805Y010365D03*
X020765Y010405D03*
X020725Y010445D03*
X020685Y010485D03*
X020645Y010525D03*
X020605Y010565D03*
X020525Y010685D03*
X020445Y010685D03*
X020405Y010725D03*
X020325Y010765D03*
X020285Y010805D03*
X020245Y010845D03*
X020125Y010925D03*
X020045Y010965D03*
X020005Y011005D03*
X019925Y011165D03*
X019725Y011205D03*
X019685Y011245D03*
X020285Y011085D03*
X021805Y012125D03*
X021765Y012165D03*
X021725Y012205D03*
X021685Y012285D03*
X021645Y012325D03*
X021845Y012085D03*
X021885Y012005D03*
X021925Y011965D03*
X021965Y011925D03*
X023685Y011045D03*
X023765Y011005D03*
X023845Y010965D03*
X023925Y010925D03*
X024045Y010845D03*
X024085Y010805D03*
X024125Y010765D03*
X024325Y010605D03*
X024365Y010565D03*
X024405Y010525D03*
X024445Y010485D03*
X024485Y010445D03*
X024485Y010405D03*
X024525Y010365D03*
X024525Y010205D03*
X024525Y010165D03*
X024645Y010085D03*
X024645Y010045D03*
X024805Y010005D03*
X024885Y009885D03*
X024845Y009845D03*
X024725Y009805D03*
X024685Y009845D03*
X024765Y009685D03*
X024765Y009645D03*
X024765Y009485D03*
X024765Y009445D03*
X024765Y009405D03*
X024725Y009365D03*
X024725Y009325D03*
X024685Y009285D03*
X024645Y009205D03*
X024605Y009165D03*
X024565Y008965D03*
X024805Y009085D03*
X024845Y009125D03*
X024885Y009165D03*
X024925Y009205D03*
X025125Y009125D03*
X025165Y009165D03*
X025165Y009245D03*
X025285Y009285D03*
X025325Y009325D03*
X025365Y009365D03*
X025405Y009405D03*
X025565Y009365D03*
X025565Y009325D03*
X025525Y009245D03*
X025485Y009165D03*
X025445Y009085D03*
X025405Y009005D03*
X025365Y008965D03*
X025325Y008885D03*
X025285Y008845D03*
X025245Y008765D03*
X025205Y008725D03*
X025085Y008565D03*
X024965Y008525D03*
X024565Y008485D03*
X024445Y008445D03*
X024285Y008485D03*
X024285Y008605D03*
X024285Y008645D03*
X023805Y008445D03*
X023725Y008485D03*
X023605Y008685D03*
X023565Y008725D03*
X023685Y008725D03*
X023685Y008765D03*
X023725Y008805D03*
X023725Y008845D03*
X023765Y008885D03*
X023925Y009045D03*
X023805Y009205D03*
X024125Y009445D03*
X024085Y009525D03*
X024125Y009605D03*
X024165Y009725D03*
X024205Y009805D03*
X024245Y009845D03*
X024565Y009685D03*
X024565Y009645D03*
X024565Y009605D03*
X024525Y009525D03*
X024765Y010165D03*
X024765Y010205D03*
X024765Y010285D03*
X024765Y010325D03*
X024765Y010365D03*
X024805Y010445D03*
X024805Y010485D03*
X024365Y010445D03*
X024365Y010405D03*
X024325Y010485D03*
X024205Y010485D03*
X024205Y010445D03*
X024325Y010285D03*
X024085Y010205D03*
X023765Y009965D03*
X023725Y009925D03*
X023685Y009885D03*
X023645Y009805D03*
X023605Y009725D03*
X023485Y009965D03*
X023525Y010005D03*
X023445Y010245D03*
X023565Y010325D03*
X023565Y010365D03*
X023525Y010405D03*
X023485Y010485D03*
X023285Y010405D03*
X023605Y010285D03*
X023605Y010245D03*
X022685Y010525D03*
X022605Y010405D03*
X022485Y009165D03*
X022605Y008965D03*
X023125Y009125D03*
X023285Y009005D03*
X023325Y009045D03*
X023365Y009085D03*
X023405Y009125D03*
X023245Y008965D03*
X023205Y008925D03*
X023205Y008885D03*
X023165Y008845D03*
X023165Y008805D03*
X023165Y008765D03*
X023165Y008725D03*
X021965Y009205D03*
X024405Y007565D03*
X024205Y006925D03*
X024165Y006845D03*
X024125Y006805D03*
X024085Y006765D03*
X024045Y006685D03*
X023965Y006645D03*
X023885Y006605D03*
X023925Y006525D03*
X024005Y006485D03*
X023965Y006405D03*
X023925Y006365D03*
X023885Y006285D03*
X023845Y006245D03*
X023805Y006205D03*
X023765Y006165D03*
X023725Y006125D03*
X023765Y006045D03*
X023805Y006085D03*
X023845Y006125D03*
X023885Y006165D03*
X023925Y006205D03*
X023965Y006245D03*
X024005Y006285D03*
X024045Y006245D03*
X024125Y006285D03*
X024205Y006205D03*
X024285Y006125D03*
X024325Y006205D03*
X024405Y006245D03*
X024445Y006085D03*
X024525Y006125D03*
X024565Y006045D03*
X024525Y005965D03*
X024685Y005925D03*
X024765Y005845D03*
X024845Y005725D03*
X024805Y005645D03*
X024725Y005565D03*
X024685Y005485D03*
X024725Y005445D03*
X024685Y005365D03*
X024765Y005365D03*
X024725Y005285D03*
X024885Y005245D03*
X024925Y005205D03*
X025045Y005365D03*
X025125Y005405D03*
X025045Y005525D03*
X024965Y005445D03*
X024885Y005565D03*
X024925Y005605D03*
X024805Y005485D03*
X024605Y005565D03*
X024645Y005685D03*
X024565Y005765D03*
X024445Y005765D03*
X024325Y005725D03*
X024285Y005765D03*
X024245Y005805D03*
X024205Y005885D03*
X024165Y005925D03*
X024125Y005965D03*
X024085Y006005D03*
X024005Y005925D03*
X024045Y005885D03*
X024085Y005845D03*
X024165Y005725D03*
X024005Y005565D03*
X023925Y005685D03*
X023765Y005885D03*
X023605Y006045D03*
X023525Y006085D03*
X023485Y005965D03*
X023365Y005925D03*
X023245Y005885D03*
X023125Y005845D03*
X023005Y005845D03*
X023005Y005805D03*
X022885Y005805D03*
X022765Y005765D03*
X022645Y005725D03*
X022525Y005685D03*
X022405Y005645D03*
X022485Y005925D03*
X022605Y005925D03*
X022685Y005965D03*
X022805Y006005D03*
X022885Y006005D03*
X023005Y006045D03*
X023125Y006085D03*
X023245Y006125D03*
X023245Y006165D03*
X023365Y006165D03*
X023365Y006125D03*
X023325Y006325D03*
X023445Y006365D03*
X023365Y006485D03*
X023365Y006525D03*
X023245Y006645D03*
X023165Y006645D03*
X023165Y006765D03*
X023085Y006765D03*
X023005Y006685D03*
X023045Y006645D03*
X022925Y006805D03*
X022885Y006845D03*
X022885Y006885D03*
X022845Y006925D03*
X022805Y006965D03*
X022765Y006925D03*
X022765Y006885D03*
X022645Y006925D03*
X022365Y006845D03*
X022245Y006885D03*
X022285Y006965D03*
X022205Y006765D03*
X022205Y006725D03*
X022285Y006685D03*
X022125Y006525D03*
X022165Y006445D03*
X022245Y006365D03*
X022245Y006325D03*
X022285Y006285D03*
X022205Y006245D03*
X022205Y006205D03*
X022245Y006165D03*
X022245Y006045D03*
X022165Y006005D03*
X022085Y006205D03*
X022005Y006205D03*
X021965Y006245D03*
X022045Y006285D03*
X022125Y006325D03*
X021965Y006365D03*
X021925Y006325D03*
X021845Y006405D03*
X021805Y006485D03*
X021925Y006605D03*
X021885Y006645D03*
X021845Y006725D03*
X021965Y006565D03*
X022005Y006485D03*
X022045Y006605D03*
X022085Y006845D03*
X021845Y007165D03*
X021845Y007205D03*
X021765Y007205D03*
X021605Y007045D03*
X021605Y006845D03*
X021245Y006605D03*
X021245Y006565D03*
X021325Y006565D03*
X021365Y006525D03*
X021405Y006485D03*
X021325Y006445D03*
X021285Y006485D03*
X021365Y006405D03*
X021365Y006365D03*
X021405Y006325D03*
X021445Y006285D03*
X021485Y006245D03*
X021485Y006205D03*
X021525Y006165D03*
X021565Y006125D03*
X021605Y006085D03*
X021605Y006045D03*
X021645Y006005D03*
X021685Y005965D03*
X021725Y006045D03*
X021645Y006165D03*
X021605Y006205D03*
X021725Y005885D03*
X021765Y005845D03*
X021805Y005805D03*
X021845Y005885D03*
X021845Y005725D03*
X021885Y005685D03*
X021925Y005645D03*
X021925Y005605D03*
X021965Y005565D03*
X022005Y005525D03*
X022045Y005485D03*
X022045Y005445D03*
X022085Y005405D03*
X022125Y005365D03*
X022165Y005285D03*
X022205Y005245D03*
X022245Y005205D03*
X022285Y005165D03*
X022285Y005125D03*
X022325Y005085D03*
X022365Y005045D03*
X022405Y004965D03*
X022445Y004925D03*
X022485Y004885D03*
X022525Y004805D03*
X022565Y004765D03*
X022605Y004725D03*
X022645Y004645D03*
X022685Y004605D03*
X022725Y004565D03*
X022765Y004485D03*
X022805Y004445D03*
X022845Y004405D03*
X022885Y004485D03*
X022885Y004325D03*
X022925Y004285D03*
X022965Y004245D03*
X023005Y004325D03*
X023085Y004205D03*
X023125Y004165D03*
X023045Y004125D03*
X023085Y004085D03*
X023125Y004005D03*
X023165Y003965D03*
X023205Y003925D03*
X023245Y004005D03*
X023205Y004045D03*
X023285Y003965D03*
X023325Y003885D03*
X023365Y003845D03*
X023405Y003805D03*
X023325Y003765D03*
X023285Y003805D03*
X023245Y003845D03*
X023365Y003685D03*
X023405Y003645D03*
X023445Y003605D03*
X023485Y003685D03*
X023445Y003725D03*
X023645Y003965D03*
X023605Y004045D03*
X023605Y004085D03*
X023605Y004125D03*
X023485Y004165D03*
X023325Y004325D03*
X023325Y004365D03*
X023245Y004565D03*
X023365Y004605D03*
X023525Y004645D03*
X023685Y004685D03*
X023805Y004725D03*
X023965Y004765D03*
X024125Y004805D03*
X024285Y004845D03*
X024165Y005085D03*
X024165Y005125D03*
X024045Y005085D03*
X023965Y005285D03*
X024085Y005325D03*
X024205Y005365D03*
X024325Y005405D03*
X024485Y005325D03*
X024605Y005165D03*
X024645Y005125D03*
X024605Y004685D03*
X024605Y004405D03*
X024605Y004365D03*
X024725Y004405D03*
X024765Y004205D03*
X024765Y004165D03*
X024885Y004205D03*
X025005Y004245D03*
X025005Y004285D03*
X025125Y004285D03*
X025125Y004325D03*
X025245Y004325D03*
X025365Y004365D03*
X025125Y004605D03*
X025045Y004685D03*
X024245Y004245D03*
X024365Y004085D03*
X024245Y004045D03*
X024125Y004005D03*
X024005Y003965D03*
X023885Y003925D03*
X023765Y003885D03*
X023845Y003565D03*
X023725Y003525D03*
X024125Y003645D03*
X024245Y003685D03*
X024525Y003765D03*
X024645Y003805D03*
X024765Y003845D03*
X025045Y003925D03*
X024525Y004125D03*
X023965Y004205D03*
X023125Y004685D03*
X023085Y004725D03*
X023005Y005005D03*
X023125Y005045D03*
X023125Y005085D03*
X023245Y005085D03*
X023205Y005245D03*
X023085Y005405D03*
X023165Y005605D03*
X023285Y005605D03*
X023365Y005605D03*
X023365Y005405D03*
X023485Y005445D03*
X023485Y005165D03*
X023565Y004965D03*
X023565Y004925D03*
X023685Y004965D03*
X023725Y005245D03*
X023845Y005245D03*
X024285Y005965D03*
X024205Y006045D03*
X024045Y006365D03*
X024125Y006565D03*
X024125Y006645D03*
X024165Y006725D03*
X024205Y006765D03*
X024245Y006445D03*
X023885Y006725D03*
X023805Y006685D03*
X023725Y006765D03*
X023645Y006725D03*
X023605Y006765D03*
X023685Y006685D03*
X023685Y006645D03*
X023805Y006845D03*
X023725Y006925D03*
X023525Y006885D03*
X023525Y007045D03*
X023405Y007045D03*
X023045Y006925D03*
X022885Y006365D03*
X022765Y006325D03*
X022765Y006165D03*
X022885Y006205D03*
X023005Y006245D03*
X022605Y006285D03*
X022485Y006245D03*
X022485Y006125D03*
X022365Y006085D03*
X022365Y006205D03*
X022885Y005645D03*
X022525Y005325D03*
X022685Y005085D03*
X023005Y004165D03*
X025685Y004125D03*
X021245Y007205D03*
X018245Y007725D03*
X018245Y008765D03*
X018165Y008805D03*
X018045Y008805D03*
X017845Y008845D03*
X017725Y009005D03*
X017605Y008965D03*
X017485Y008925D03*
X017525Y009085D03*
X017445Y009125D03*
X017365Y009165D03*
X017165Y009245D03*
X017085Y009285D03*
X017005Y009325D03*
X016885Y009285D03*
X016805Y009405D03*
X016725Y009445D03*
X017125Y009805D03*
X017165Y009845D03*
X016245Y010165D03*
X015885Y010325D03*
X015525Y010485D03*
X015085Y010685D03*
X015005Y010725D03*
X014645Y010885D03*
X014565Y010925D03*
X014165Y010885D03*
X014005Y010565D03*
X018725Y011045D03*
X023965Y011605D03*
X024285Y011485D03*
X024925Y011285D03*
X025485Y011005D03*
X025565Y010925D03*
X025605Y010885D03*
X025605Y010845D03*
X025605Y010805D03*
X025645Y010125D03*
X025645Y010085D03*
X025645Y010045D03*
X025645Y010005D03*
X025685Y009965D03*
X025765Y009765D03*
X025725Y009725D03*
X025725Y009685D03*
X025645Y009725D03*
X025605Y009645D03*
X025685Y009605D03*
X025685Y009565D03*
X025605Y009445D03*
X025525Y009525D03*
D20*
X025545Y009565D03*
X025625Y009485D03*
X025705Y009805D03*
X025705Y009845D03*
X025665Y009885D03*
X025665Y009925D03*
X024785Y009765D03*
X024785Y009725D03*
X024785Y009605D03*
X024785Y009565D03*
X024785Y009525D03*
X024985Y009245D03*
X024545Y009005D03*
X024505Y009045D03*
X024585Y008925D03*
X024145Y008725D03*
X023825Y008965D03*
X023785Y008925D03*
X023865Y009005D03*
X023985Y009085D03*
X023505Y008765D03*
X023385Y008525D03*
X023305Y008565D03*
X023265Y008605D03*
X023225Y008645D03*
X023225Y008685D03*
X022785Y009125D03*
X022545Y009085D03*
X022225Y009045D03*
X021825Y009205D03*
X021745Y009245D03*
X021665Y009285D03*
X021585Y009325D03*
X021545Y009365D03*
X021185Y009805D03*
X021145Y009885D03*
X021105Y009925D03*
X021025Y010045D03*
X021025Y010085D03*
X020905Y010245D03*
X020865Y010285D03*
X020545Y010605D03*
X020505Y010645D03*
X020185Y010885D03*
X019785Y011165D03*
X019625Y011125D03*
X018865Y011085D03*
X018545Y011005D03*
X018385Y010965D03*
X018825Y009925D03*
X018265Y009245D03*
X018345Y009205D03*
X018425Y009165D03*
X018185Y009285D03*
X018065Y009325D03*
X017985Y009365D03*
X017905Y009405D03*
X017825Y009445D03*
X017705Y009485D03*
X017625Y009525D03*
X017545Y009565D03*
X017465Y009605D03*
X017385Y009645D03*
X017185Y009725D03*
X017105Y009765D03*
X017025Y009805D03*
X016945Y009845D03*
X016865Y009885D03*
X016745Y009925D03*
X016665Y009965D03*
X016585Y010005D03*
X016505Y010045D03*
X016425Y010085D03*
X016345Y010125D03*
X016145Y010205D03*
X016065Y010245D03*
X015985Y010285D03*
X015785Y010365D03*
X015705Y010405D03*
X015625Y010445D03*
X015425Y010525D03*
X015345Y010565D03*
X015265Y010605D03*
X015185Y010645D03*
X014905Y010765D03*
X014825Y010805D03*
X014745Y010845D03*
X014345Y010925D03*
X014225Y010965D03*
X014025Y010525D03*
X014025Y010285D03*
X013945Y010085D03*
X014025Y010005D03*
X014105Y010085D03*
X014145Y009965D03*
X014225Y009925D03*
X014305Y009885D03*
X014505Y009805D03*
X014585Y009765D03*
X014665Y009725D03*
X014945Y009605D03*
X015025Y009565D03*
X015225Y009485D03*
X015305Y009445D03*
X015425Y009205D03*
X015505Y009245D03*
X015585Y009325D03*
X016025Y009125D03*
X016425Y009045D03*
X016905Y009365D03*
X017265Y009205D03*
X017345Y008925D03*
X017385Y008885D03*
X017625Y009045D03*
X018145Y008725D03*
X018945Y008525D03*
X019025Y008845D03*
X019865Y008485D03*
X019945Y008445D03*
X020025Y008405D03*
X019785Y008325D03*
X020185Y008005D03*
X020345Y008125D03*
X020345Y008165D03*
X020585Y007885D03*
X020665Y007765D03*
X020665Y007725D03*
X020625Y007645D03*
X020505Y007405D03*
X020345Y007485D03*
X020265Y007405D03*
X019985Y007565D03*
X020025Y007805D03*
X019625Y007445D03*
X019665Y007005D03*
X019585Y006925D03*
X019585Y006885D03*
X019545Y006845D03*
X019505Y006805D03*
X019345Y006685D03*
X019265Y006645D03*
X019185Y006405D03*
X018985Y006525D03*
X018905Y006485D03*
X018785Y006485D03*
X018865Y006205D03*
X018825Y006125D03*
X018825Y005685D03*
X018745Y005605D03*
X018625Y005525D03*
X017145Y005285D03*
X016105Y006005D03*
X015865Y005565D03*
X015625Y005725D03*
X015545Y005805D03*
X015425Y005885D03*
X015105Y006165D03*
X015065Y006205D03*
X014665Y006365D03*
X014465Y006445D03*
X016865Y006605D03*
X016945Y007685D03*
X018465Y007445D03*
X018665Y007605D03*
X020745Y007925D03*
X020945Y007805D03*
X020985Y007725D03*
X020985Y007685D03*
X020985Y007645D03*
X020985Y007605D03*
X021065Y007285D03*
X021145Y007245D03*
X021345Y007165D03*
X021425Y007125D03*
X021505Y007085D03*
X021705Y007005D03*
X021785Y006965D03*
X021985Y006885D03*
X022185Y006805D03*
X022225Y006845D03*
X022265Y006925D03*
X022385Y006645D03*
X022505Y006605D03*
X022625Y006565D03*
X022905Y006445D03*
X023025Y006525D03*
X023065Y006605D03*
X023145Y006685D03*
X023185Y006725D03*
X023065Y006885D03*
X022945Y006925D03*
X022945Y006725D03*
X023225Y006525D03*
X023265Y006485D03*
X023185Y006405D03*
X023265Y006365D03*
X023425Y006405D03*
X023505Y006325D03*
X023505Y006125D03*
X024065Y006045D03*
X023865Y005805D03*
X023905Y005765D03*
X023945Y005725D03*
X024025Y005645D03*
X023985Y005605D03*
X023585Y005725D03*
X023385Y005485D03*
X022985Y005365D03*
X023065Y005205D03*
X022785Y005245D03*
X022665Y005405D03*
X022505Y005525D03*
X022745Y005605D03*
X021905Y006445D03*
X021745Y006565D03*
X021705Y006645D03*
X021705Y006685D03*
X021305Y006765D03*
X021225Y006725D03*
X021225Y006685D03*
X021265Y006645D03*
X021265Y006525D03*
X023345Y004645D03*
X023225Y004605D03*
X023665Y004405D03*
X024105Y004245D03*
X024465Y004645D03*
X024425Y004885D03*
X024585Y004925D03*
X024705Y004965D03*
X024625Y005405D03*
X024145Y006525D03*
X024025Y006725D03*
X024385Y003725D03*
X023985Y003605D03*
X023585Y003565D03*
X023625Y009765D03*
X023665Y009845D03*
X023305Y010365D03*
X022865Y010405D03*
X022825Y010445D03*
X023145Y011125D03*
X023265Y011085D03*
X023265Y011205D03*
X023185Y011245D03*
X023385Y011045D03*
X023585Y011085D03*
X023865Y011645D03*
X023745Y011685D03*
X024185Y011525D03*
X024385Y011445D03*
X024465Y011405D03*
X024585Y011405D03*
X024705Y011365D03*
X024825Y011325D03*
X025025Y011245D03*
X025105Y011205D03*
X025185Y011165D03*
X025265Y011125D03*
X024825Y010525D03*
X024745Y010245D03*
X024545Y010245D03*
X024385Y010365D03*
X024185Y010405D03*
X024185Y010565D03*
X024425Y010045D03*
X024545Y009965D03*
X024665Y009885D03*
X024305Y009885D03*
X022705Y011205D03*
X022105Y011205D03*
X021665Y011165D03*
X021345Y011125D03*
X022065Y011845D03*
X022025Y011885D03*
X022105Y011805D03*
X022145Y011765D03*
X017265Y009885D03*
D21*
X017565Y008885D03*
X018725Y008565D03*
X019325Y008685D03*
X020045Y008125D03*
X020125Y007645D03*
X020125Y007605D03*
X019765Y007605D03*
X019085Y007605D03*
X018725Y007485D03*
X017845Y006445D03*
X017445Y005365D03*
X014205Y006445D03*
X016165Y009045D03*
X014045Y010485D03*
X014005Y010365D03*
X019925Y011045D03*
X021965Y009165D03*
X022085Y009125D03*
X022165Y009085D03*
X022885Y010325D03*
X023005Y010285D03*
X023205Y010245D03*
X023885Y010125D03*
X024125Y010125D03*
X024565Y010285D03*
X023845Y010805D03*
X023765Y010845D03*
X023445Y011005D03*
X022805Y011685D03*
X020805Y007885D03*
X021005Y007565D03*
X022485Y006925D03*
X022885Y006765D03*
X023525Y005685D03*
X024525Y004965D03*
D22*
X023645Y005525D03*
X023445Y005645D03*
X023485Y006205D03*
X023485Y006245D03*
X022925Y005325D03*
X021045Y007525D03*
X020845Y007405D03*
X020845Y007365D03*
X020645Y007525D03*
X019805Y007645D03*
X019725Y008405D03*
X019445Y008645D03*
X021325Y011205D03*
X021605Y011245D03*
X022965Y011165D03*
X023685Y010885D03*
X024485Y009085D03*
X018245Y005405D03*
X017365Y005285D03*
X016925Y005285D03*
X016165Y005445D03*
X014525Y006405D03*
D23*
X014945Y006285D03*
X016345Y005365D03*
X018305Y007485D03*
X018665Y007445D03*
X019625Y007525D03*
X020025Y007685D03*
X020425Y007645D03*
X020625Y007845D03*
X020905Y007325D03*
X019945Y008165D03*
X022505Y009325D03*
X023625Y010925D03*
X022585Y011325D03*
X022505Y011645D03*
X020785Y011085D03*
X017985Y010805D03*
X023505Y006285D03*
X022705Y005445D03*
X022825Y005285D03*
D24*
X017185Y005325D03*
D25*
X018065Y005365D03*
X022905Y009165D03*
X019265Y011125D03*
D26*
X019145Y011005D03*
X016905Y008885D03*
X017025Y006565D03*
X018465Y005445D03*
X020185Y008045D03*
X022505Y009125D03*
X023065Y009205D03*
X022945Y011285D03*
X022945Y006485D03*
D27*
X017725Y005965D03*
D28*
X017525Y006485D03*
X018125Y007525D03*
X018805Y007525D03*
X019245Y008485D03*
X020165Y008085D03*
X020485Y007605D03*
X023165Y006565D03*
X023485Y009205D03*
X024005Y009125D03*
X023485Y010205D03*
D29*
X020645Y007445D03*
D30*
X020765Y007485D03*
X020445Y007565D03*
X023365Y011725D03*
D31*
X017805Y007565D03*
D32*
X019065Y007565D03*
D33*
X017305Y007605D03*
X016665Y008925D03*
X016465Y008965D03*
D34*
X016325Y009005D03*
X018565Y009965D03*
X019605Y008605D03*
X022885Y009285D03*
D35*
X017465Y008805D03*
D36*
X017345Y008845D03*
D37*
X014945Y009125D03*
D38*
X023185Y009245D03*
D39*
X017725Y009925D03*
D40*
X011785Y016635D03*
X011760Y016660D03*
X011735Y016685D03*
X011735Y016710D03*
X011710Y016735D03*
X011685Y016785D03*
X011685Y016810D03*
X011660Y016860D03*
X011185Y016885D03*
X011160Y016860D03*
X011135Y016835D03*
X011085Y016785D03*
X011060Y016760D03*
X011010Y016760D03*
X010985Y016935D03*
X010985Y016960D03*
X011010Y017010D03*
X010960Y017060D03*
X010810Y017010D03*
X010760Y016985D03*
X010660Y016985D03*
X010660Y017085D03*
X010660Y017110D03*
X010710Y017185D03*
X010710Y017285D03*
X010660Y017335D03*
X010810Y017435D03*
X010810Y017460D03*
X010760Y017510D03*
X010760Y017535D03*
X010710Y017610D03*
X010710Y017635D03*
X010510Y017610D03*
X010510Y017585D03*
X010510Y017485D03*
X010485Y017460D03*
X010410Y017385D03*
X010410Y017360D03*
X010385Y017335D03*
X010385Y017310D03*
X010410Y017285D03*
X010860Y017385D03*
X010960Y017285D03*
X010985Y017260D03*
X011035Y017235D03*
X011060Y017210D03*
X011110Y017185D03*
X011160Y017685D03*
X011010Y017760D03*
X010985Y018110D03*
X011060Y018360D03*
X010760Y018585D03*
X010760Y018610D03*
X010810Y018660D03*
X010860Y018735D03*
X010960Y018835D03*
X011035Y018885D03*
X011110Y018935D03*
X011160Y018960D03*
X011210Y018985D03*
X011210Y019185D03*
X011185Y019235D03*
X011160Y019285D03*
X011135Y019310D03*
X011110Y019335D03*
X011085Y019360D03*
X010985Y019210D03*
X010985Y019185D03*
X010985Y019160D03*
X011010Y019110D03*
X010985Y019085D03*
X010860Y019085D03*
X010660Y019060D03*
X010660Y019035D03*
X010660Y019010D03*
X010710Y018935D03*
X010710Y018860D03*
X010410Y018860D03*
X010385Y018835D03*
X010385Y018810D03*
X010385Y018785D03*
X010410Y018760D03*
X010485Y018660D03*
X010510Y018560D03*
X010510Y018535D03*
X010660Y018410D03*
X010660Y018385D03*
X010660Y018360D03*
X010660Y018260D03*
X010660Y018235D03*
X010660Y018210D03*
X010660Y018185D03*
X010660Y018160D03*
X010660Y018110D03*
X010660Y018085D03*
X010660Y018035D03*
X010610Y018035D03*
X010610Y018060D03*
X010610Y018085D03*
X010610Y018110D03*
X010610Y018135D03*
X010610Y018160D03*
X010610Y018185D03*
X010610Y018210D03*
X010560Y018035D03*
X010610Y018010D03*
X010610Y017985D03*
X010610Y017960D03*
X010610Y017935D03*
X010610Y017910D03*
X010660Y017910D03*
X010410Y018160D03*
X010410Y018185D03*
X010235Y018410D03*
X010235Y018460D03*
X010235Y018485D03*
X010085Y018560D03*
X010710Y018510D03*
X010135Y017935D03*
X009860Y017935D03*
X009560Y017860D03*
X009510Y017860D03*
X009460Y017785D03*
X009460Y017760D03*
X009610Y017685D03*
X011635Y018410D03*
X011735Y018460D03*
X012260Y018360D03*
X012285Y018410D03*
X012360Y018460D03*
X012435Y018385D03*
X012460Y018535D03*
X012435Y018585D03*
X012410Y018610D03*
X012410Y018635D03*
X012385Y018660D03*
X012360Y018685D03*
X012335Y018710D03*
X012310Y018760D03*
X012285Y018785D03*
X012260Y018810D03*
X012310Y019035D03*
X012335Y019060D03*
X012360Y019085D03*
X012385Y019110D03*
X012260Y019060D03*
X011735Y019435D03*
X011710Y019410D03*
X011710Y019385D03*
X011685Y019360D03*
X011685Y019335D03*
X011685Y019310D03*
X012285Y018260D03*
X012910Y018360D03*
X012985Y018435D03*
X012985Y018485D03*
X013035Y018410D03*
X012960Y018235D03*
X012935Y018210D03*
X013010Y018010D03*
X012960Y017735D03*
X012985Y017710D03*
X012985Y017685D03*
X012985Y017660D03*
X012985Y017635D03*
X013035Y017685D03*
X013560Y017760D03*
X013560Y017785D03*
X013610Y017760D03*
X013610Y017860D03*
X013610Y017885D03*
X013710Y017910D03*
X013685Y017960D03*
X013710Y017685D03*
X014210Y017910D03*
X014210Y017960D03*
X014260Y017810D03*
X014260Y017785D03*
X014285Y018335D03*
X014285Y018410D03*
X014235Y018410D03*
X014185Y018560D03*
X014260Y019035D03*
X014260Y019060D03*
X014260Y019085D03*
X014260Y019110D03*
X014260Y019135D03*
X014260Y019160D03*
X013710Y018985D03*
X013610Y018985D03*
X013610Y019010D03*
X013610Y018960D03*
X013610Y018935D03*
X013610Y018910D03*
X013635Y019210D03*
X013635Y019285D03*
X014860Y018410D03*
X014935Y018360D03*
X014960Y018410D03*
X014835Y018060D03*
X015435Y018035D03*
X015460Y018210D03*
X015910Y018885D03*
X015910Y018910D03*
X015910Y018935D03*
X016185Y019110D03*
X016185Y019135D03*
X016485Y019085D03*
X016485Y019060D03*
X016485Y019035D03*
X016485Y019010D03*
X016560Y019010D03*
X016560Y018985D03*
X016560Y018960D03*
X016560Y018935D03*
X016560Y018910D03*
X016660Y018935D03*
X016660Y018960D03*
X016660Y018985D03*
X016660Y019010D03*
X016660Y019035D03*
X016860Y019035D03*
X016860Y019060D03*
X016860Y019085D03*
X016860Y019110D03*
X016860Y019210D03*
X016860Y019235D03*
X016960Y019135D03*
X016860Y019010D03*
X016860Y018985D03*
X016860Y018960D03*
X016860Y018935D03*
X016860Y018910D03*
X016585Y019285D03*
X017335Y019210D03*
X017410Y018985D03*
X017660Y018985D03*
X017660Y018960D03*
X017885Y019135D03*
X017985Y019135D03*
X017985Y019110D03*
X017985Y019085D03*
X017985Y018960D03*
X018185Y019135D03*
X018285Y019085D03*
X018285Y019060D03*
X018285Y019035D03*
X018285Y019010D03*
X018285Y018985D03*
X018285Y018960D03*
X018360Y018985D03*
X018460Y018485D03*
X018510Y018410D03*
X018535Y018385D03*
X018585Y018360D03*
X018660Y018385D03*
X018585Y018460D03*
X018560Y018260D03*
X017960Y018335D03*
X017860Y018060D03*
X017860Y017935D03*
X017610Y017835D03*
X017585Y017860D03*
X017560Y017835D03*
X017360Y017885D03*
X017435Y018110D03*
X017385Y018135D03*
X017310Y018160D03*
X017285Y018110D03*
X017235Y018160D03*
X017110Y018235D03*
X017110Y018385D03*
X017110Y018410D03*
X016910Y018435D03*
X017085Y018035D03*
X016835Y017935D03*
X016535Y017860D03*
X016485Y017860D03*
X016435Y017785D03*
X016435Y017760D03*
X016585Y017685D03*
X016610Y017135D03*
X017510Y018085D03*
X017560Y018085D03*
X017560Y018135D03*
X017610Y018135D03*
X017610Y018110D03*
X017535Y018610D03*
X018535Y017885D03*
X018585Y017810D03*
X019160Y018085D03*
X019160Y018160D03*
X019160Y018185D03*
X019160Y018210D03*
X019185Y018235D03*
X019260Y018410D03*
X019185Y018510D03*
X019085Y018510D03*
X018985Y018510D03*
X019035Y018410D03*
X018935Y018860D03*
X018985Y018910D03*
X018985Y018935D03*
X018985Y018960D03*
X018985Y018985D03*
X019285Y019060D03*
X019285Y019085D03*
X019285Y019110D03*
X019185Y019235D03*
X019585Y019285D03*
X019560Y019085D03*
X019560Y019060D03*
X019560Y019035D03*
X019560Y019010D03*
X019560Y018985D03*
X019860Y019110D03*
X019860Y019135D03*
X019935Y019135D03*
X019935Y019110D03*
X019935Y019085D03*
X019935Y018960D03*
X020135Y019135D03*
X020235Y019135D03*
X020235Y019160D03*
X020235Y019110D03*
X020235Y019085D03*
X020235Y019060D03*
X019810Y018235D03*
X019810Y018185D03*
X019810Y018160D03*
X019760Y018185D03*
X019735Y018235D03*
X020310Y018035D03*
X019735Y017510D03*
X019285Y017735D03*
X019260Y017685D03*
X018235Y017585D03*
X012460Y017585D03*
X012460Y017560D03*
X012435Y017535D03*
X012410Y017510D03*
X012410Y017485D03*
X012385Y017460D03*
X012360Y017435D03*
X012360Y017410D03*
X012335Y017385D03*
X012310Y017360D03*
X012285Y017335D03*
X012260Y017310D03*
X012460Y017235D03*
X012335Y017060D03*
X012360Y017035D03*
D41*
X012210Y017035D03*
X012210Y017010D03*
X012210Y016985D03*
X012060Y016835D03*
X012110Y016785D03*
X012010Y016910D03*
X011860Y016710D03*
X011860Y016685D03*
X011860Y016660D03*
X011535Y016810D03*
X011535Y016835D03*
X011535Y016860D03*
X011485Y016710D03*
X011435Y016635D03*
X011335Y016710D03*
X011335Y016735D03*
X011335Y016760D03*
X011335Y016785D03*
X011335Y016810D03*
X011335Y016835D03*
X011335Y016860D03*
X011335Y016885D03*
X010835Y017035D03*
X010635Y017035D03*
X010635Y017010D03*
X010735Y017210D03*
X010735Y017235D03*
X010835Y017410D03*
X010910Y017335D03*
X010735Y017560D03*
X010535Y017535D03*
X010535Y017510D03*
X010435Y017410D03*
X010910Y017785D03*
X011285Y017685D03*
X011910Y017710D03*
X012060Y017835D03*
X012485Y017635D03*
X012485Y017610D03*
X012685Y017560D03*
X012685Y017535D03*
X012735Y017460D03*
X012785Y017410D03*
X012785Y017385D03*
X012835Y017335D03*
X012835Y017310D03*
X012585Y017310D03*
X012535Y017310D03*
X012485Y017260D03*
X012485Y017210D03*
X012535Y017135D03*
X012535Y017110D03*
X012585Y017010D03*
X012160Y017235D03*
X012585Y017985D03*
X012535Y018060D03*
X012535Y018385D03*
X012685Y018560D03*
X012685Y018585D03*
X012685Y018635D03*
X012785Y018735D03*
X012835Y018810D03*
X013060Y018860D03*
X013060Y019035D03*
X013060Y019060D03*
X013060Y019085D03*
X013060Y019110D03*
X013260Y019110D03*
X013260Y019085D03*
X013260Y019060D03*
X013260Y019035D03*
X013260Y019010D03*
X012535Y019010D03*
X012535Y018985D03*
X012485Y018910D03*
X012485Y018885D03*
X012535Y019160D03*
X012210Y019135D03*
X012210Y019110D03*
X012010Y019185D03*
X012010Y019210D03*
X012060Y019285D03*
X012110Y019335D03*
X011860Y019435D03*
X011860Y019460D03*
X011535Y019310D03*
X011535Y019285D03*
X011485Y019410D03*
X011485Y019435D03*
X011335Y019410D03*
X011335Y019385D03*
X011335Y019360D03*
X011335Y019335D03*
X011335Y019310D03*
X011335Y019285D03*
X011335Y019260D03*
X011335Y019235D03*
X010910Y019035D03*
X010835Y019110D03*
X010735Y019160D03*
X010635Y019110D03*
X010735Y018910D03*
X010735Y018885D03*
X010835Y018710D03*
X010910Y018785D03*
X010735Y018560D03*
X010535Y018585D03*
X010535Y018610D03*
X010435Y018710D03*
X010310Y018360D03*
X010010Y018510D03*
X010110Y017960D03*
X010910Y018285D03*
X011435Y018335D03*
X011435Y018360D03*
X011485Y018360D03*
X011485Y018335D03*
X012110Y018435D03*
X012160Y018485D03*
X012210Y018510D03*
X012160Y018285D03*
X012210Y018835D03*
X012160Y018885D03*
X012110Y018910D03*
X013360Y018010D03*
X013935Y017935D03*
X013885Y017760D03*
X014085Y018360D03*
X014610Y018335D03*
X014985Y018360D03*
X014985Y018385D03*
X015035Y018385D03*
X015035Y018335D03*
X015385Y018035D03*
X015660Y017885D03*
X014460Y018910D03*
X014460Y018935D03*
X014460Y018960D03*
X014460Y018985D03*
X014460Y019010D03*
X014460Y019035D03*
X014460Y019060D03*
X014460Y019085D03*
X014460Y019110D03*
X014460Y019210D03*
X013985Y019135D03*
X015085Y019235D03*
X018060Y017585D03*
X018385Y017585D03*
X018710Y018410D03*
X018710Y018435D03*
X019010Y019135D03*
X020110Y018560D03*
D42*
X020360Y018735D03*
X020535Y018735D03*
X020285Y018260D03*
X020585Y017685D03*
X019135Y018335D03*
X017685Y018085D03*
X016410Y017835D03*
X015835Y017960D03*
X015835Y017985D03*
X015835Y018010D03*
X015735Y017935D03*
X015735Y017910D03*
X015635Y017910D03*
X015635Y017935D03*
X015635Y017860D03*
X015585Y018210D03*
X015260Y018160D03*
X015260Y018085D03*
X015260Y018060D03*
X014785Y018410D03*
X014485Y018085D03*
X014435Y018135D03*
X014110Y018510D03*
X013960Y018910D03*
X013960Y018935D03*
X013960Y018960D03*
X013960Y018985D03*
X014160Y019235D03*
X014535Y019185D03*
X014535Y019160D03*
X014535Y019135D03*
X014535Y019110D03*
X014535Y019085D03*
X015060Y019035D03*
X015060Y019010D03*
X015060Y018985D03*
X013535Y018985D03*
X013535Y019010D03*
X013535Y019035D03*
X013535Y019060D03*
X013535Y019085D03*
X013535Y019210D03*
X013535Y019235D03*
X013335Y019085D03*
X013335Y019060D03*
X013335Y019035D03*
X013335Y019010D03*
X013535Y018960D03*
X013535Y018935D03*
X013535Y018910D03*
X012810Y018860D03*
X012810Y018835D03*
X012810Y018760D03*
X012760Y018685D03*
X012710Y018660D03*
X012660Y018610D03*
X012710Y018535D03*
X012810Y018410D03*
X012510Y018835D03*
X012510Y018935D03*
X012510Y018960D03*
X012560Y019060D03*
X012560Y019085D03*
X012560Y019135D03*
X012510Y019185D03*
X012235Y019185D03*
X012235Y019210D03*
X012235Y019235D03*
X012235Y019260D03*
X012235Y019285D03*
X012235Y019310D03*
X012235Y019335D03*
X012135Y019360D03*
X012085Y019310D03*
X012035Y019260D03*
X011885Y019260D03*
X011885Y019285D03*
X011885Y019310D03*
X011885Y019335D03*
X011885Y019360D03*
X011885Y019235D03*
X012235Y019085D03*
X012085Y018935D03*
X012185Y018860D03*
X012185Y018535D03*
X012135Y018535D03*
X012035Y018535D03*
X012235Y018485D03*
X011510Y018435D03*
X011510Y018410D03*
X011460Y018410D03*
X011460Y018435D03*
X011410Y018410D03*
X011460Y018135D03*
X011260Y018060D03*
X011260Y018035D03*
X010935Y018310D03*
X010685Y018435D03*
X010685Y018460D03*
X010785Y018635D03*
X010885Y018760D03*
X010935Y018810D03*
X010685Y018835D03*
X010685Y018985D03*
X010685Y019160D03*
X010785Y019135D03*
X010885Y019060D03*
X010460Y018685D03*
X010160Y018560D03*
X010260Y018385D03*
X009935Y018435D03*
X010160Y017960D03*
X010460Y017435D03*
X010685Y017310D03*
X010685Y017160D03*
X010685Y017135D03*
X010885Y017060D03*
X010935Y017310D03*
X010885Y017360D03*
X010785Y017485D03*
X011360Y017635D03*
X011360Y017660D03*
X011885Y017835D03*
X011985Y017860D03*
X012510Y017660D03*
X012710Y017610D03*
X012660Y017510D03*
X012710Y017485D03*
X012760Y017435D03*
X012810Y017360D03*
X012810Y017285D03*
X012560Y017335D03*
X012510Y017285D03*
X012510Y017185D03*
X012510Y017160D03*
X012560Y017085D03*
X012560Y017060D03*
X012560Y017035D03*
X012560Y016985D03*
X012235Y016935D03*
X012235Y016910D03*
X012235Y016885D03*
X012235Y016860D03*
X012235Y016835D03*
X012235Y016810D03*
X012235Y016785D03*
X012135Y016760D03*
X012085Y016810D03*
X012035Y016885D03*
X011885Y016885D03*
X011885Y016860D03*
X011885Y016835D03*
X011885Y016810D03*
X011885Y016785D03*
X011885Y016760D03*
X011510Y016760D03*
X011510Y016735D03*
X011460Y016685D03*
X011460Y016660D03*
X011360Y016660D03*
X011360Y016685D03*
X012035Y017160D03*
X012085Y017185D03*
X012185Y017260D03*
X012235Y017285D03*
X013535Y017835D03*
X014435Y017635D03*
X011510Y019360D03*
X011510Y019385D03*
X011460Y019460D03*
X011360Y019460D03*
X009435Y017835D03*
D43*
X009922Y018410D03*
X009922Y018460D03*
X009922Y018485D03*
X010972Y018160D03*
X011047Y018160D03*
X011047Y018210D03*
X011047Y018235D03*
X011122Y018260D03*
X011047Y018385D03*
X011047Y018110D03*
X010997Y017810D03*
X010997Y017785D03*
X010922Y017810D03*
X010898Y017835D03*
X011072Y017760D03*
X011097Y017785D03*
X011122Y017810D03*
X011197Y017710D03*
X011147Y017160D03*
X011197Y017135D03*
X011273Y017110D03*
X010997Y017035D03*
X011122Y016810D03*
X011922Y017110D03*
X011972Y017135D03*
X012122Y017210D03*
X012297Y017085D03*
X012397Y017010D03*
X012447Y016985D03*
X012198Y016760D03*
X011998Y016935D03*
X012647Y017285D03*
X012723Y017635D03*
X013298Y018010D03*
X013422Y018010D03*
X013647Y017910D03*
X013572Y017710D03*
X013823Y017760D03*
X013923Y017960D03*
X014197Y017885D03*
X014272Y017760D03*
X014472Y018110D03*
X014498Y018360D03*
X014123Y018560D03*
X014023Y018485D03*
X014023Y018460D03*
X014023Y018410D03*
X014247Y018910D03*
X014247Y018935D03*
X014247Y018960D03*
X014247Y018985D03*
X014247Y019010D03*
X014272Y019185D03*
X014272Y019210D03*
X014272Y019285D03*
X014073Y019210D03*
X013997Y019160D03*
X013973Y019110D03*
X013973Y019085D03*
X013973Y019060D03*
X013973Y019035D03*
X013973Y019010D03*
X013823Y019010D03*
X013823Y019035D03*
X013823Y019060D03*
X013823Y019085D03*
X013823Y019110D03*
X013823Y019135D03*
X013823Y019160D03*
X013823Y018985D03*
X013823Y018960D03*
X013823Y018935D03*
X013747Y018935D03*
X013622Y019035D03*
X013622Y019060D03*
X013622Y019085D03*
X013622Y019110D03*
X013622Y019135D03*
X013622Y019160D03*
X013622Y019185D03*
X013522Y019135D03*
X013522Y019110D03*
X013372Y019160D03*
X013348Y019135D03*
X013348Y019110D03*
X013248Y019135D03*
X013248Y019160D03*
X013248Y018985D03*
X013248Y018960D03*
X013322Y018960D03*
X013322Y018935D03*
X013322Y018910D03*
X013322Y018985D03*
X013072Y019135D03*
X013072Y019160D03*
X013072Y019210D03*
X012673Y019535D03*
X012222Y019360D03*
X012172Y019385D03*
X011948Y019210D03*
X011922Y019010D03*
X011972Y018985D03*
X012022Y018960D03*
X011948Y018535D03*
X012148Y018510D03*
X012322Y018385D03*
X012347Y018360D03*
X012372Y018310D03*
X012297Y018310D03*
X012297Y018285D03*
X012272Y018335D03*
X012148Y018260D03*
X012422Y018510D03*
X012497Y018410D03*
X012797Y018485D03*
X012947Y018385D03*
X012972Y018410D03*
X012623Y018835D03*
X012547Y018810D03*
X012422Y019135D03*
X011273Y019010D03*
X011072Y018910D03*
X010997Y018860D03*
X010997Y019360D03*
X011047Y019385D03*
X012072Y017860D03*
X011972Y017710D03*
X014448Y019135D03*
X014448Y019160D03*
X014548Y019210D03*
X014548Y019235D03*
X014548Y019260D03*
X014572Y019285D03*
X014748Y019285D03*
X014748Y019260D03*
X014748Y019235D03*
X014748Y019210D03*
X014748Y019185D03*
X014748Y019160D03*
X014748Y019135D03*
X014748Y019110D03*
X014748Y019085D03*
X014748Y019060D03*
X014748Y018985D03*
X014748Y018960D03*
X014748Y018935D03*
X014748Y018910D03*
X014548Y019060D03*
X015073Y019060D03*
X015073Y019085D03*
X015073Y019110D03*
X015073Y019135D03*
X015073Y019160D03*
X015073Y019185D03*
X015073Y019210D03*
X015097Y019260D03*
X015297Y019260D03*
X015297Y019285D03*
X015297Y019235D03*
X015297Y019210D03*
X015297Y019185D03*
X015297Y019160D03*
X015297Y019135D03*
X015297Y019110D03*
X015297Y019085D03*
X015297Y019060D03*
X015297Y019035D03*
X015297Y019010D03*
X015297Y018985D03*
X015297Y018960D03*
X015297Y018935D03*
X015373Y018960D03*
X015373Y018985D03*
X015373Y019010D03*
X015397Y019035D03*
X015397Y019110D03*
X015373Y019135D03*
X015373Y019160D03*
X015373Y019185D03*
X015373Y019210D03*
X015373Y019235D03*
X015397Y019260D03*
X015572Y019260D03*
X015598Y019235D03*
X015397Y018935D03*
X015073Y018935D03*
X015073Y018960D03*
X015922Y018860D03*
X015972Y018960D03*
X015972Y018985D03*
X015997Y019010D03*
X016172Y019085D03*
X016172Y019160D03*
X016097Y019210D03*
X016273Y019135D03*
X016273Y019110D03*
X016298Y019160D03*
X016373Y019210D03*
X016447Y019160D03*
X016472Y019135D03*
X016472Y019110D03*
X016572Y019110D03*
X016572Y019135D03*
X016572Y019160D03*
X016572Y019185D03*
X016572Y019210D03*
X016572Y019085D03*
X016572Y019060D03*
X016572Y019035D03*
X016672Y019060D03*
X016672Y019085D03*
X016672Y019110D03*
X016672Y019135D03*
X016697Y019160D03*
X016848Y019160D03*
X016848Y019135D03*
X016948Y019110D03*
X016948Y019085D03*
X016948Y019060D03*
X016948Y019035D03*
X016948Y019010D03*
X016948Y018985D03*
X016948Y018960D03*
X016973Y018935D03*
X017122Y018935D03*
X017147Y018960D03*
X017147Y018985D03*
X017147Y019010D03*
X017147Y019035D03*
X017147Y019060D03*
X017147Y019085D03*
X017147Y019110D03*
X017147Y019135D03*
X017122Y019160D03*
X016973Y019160D03*
X017322Y019135D03*
X017322Y019110D03*
X017322Y019085D03*
X017322Y019060D03*
X017322Y019035D03*
X017322Y019010D03*
X017322Y018985D03*
X017322Y018960D03*
X017322Y018935D03*
X017322Y018910D03*
X017422Y018960D03*
X017523Y018960D03*
X017523Y018935D03*
X017523Y018985D03*
X017523Y019010D03*
X017523Y019035D03*
X017523Y019060D03*
X017523Y019085D03*
X017523Y019110D03*
X017523Y019135D03*
X017523Y019160D03*
X017872Y019160D03*
X017897Y019110D03*
X017897Y019085D03*
X017897Y019060D03*
X017897Y019035D03*
X017897Y019010D03*
X017897Y018985D03*
X017897Y018960D03*
X017897Y018935D03*
X017997Y018935D03*
X017997Y019060D03*
X017997Y019160D03*
X018173Y019160D03*
X018198Y019110D03*
X018198Y019085D03*
X018198Y019060D03*
X018198Y019010D03*
X018198Y018985D03*
X018198Y018960D03*
X018198Y018935D03*
X018273Y018935D03*
X018273Y018910D03*
X018298Y019110D03*
X018298Y019135D03*
X018298Y019160D03*
X018298Y019185D03*
X018298Y019210D03*
X018298Y019235D03*
X018298Y019260D03*
X018298Y019285D03*
X018572Y019260D03*
X018597Y019235D03*
X018597Y019210D03*
X018597Y019185D03*
X018597Y019160D03*
X018597Y019135D03*
X018597Y019085D03*
X018597Y019060D03*
X018597Y019035D03*
X018597Y019010D03*
X018597Y018985D03*
X018597Y018960D03*
X018597Y018935D03*
X018922Y018910D03*
X018922Y018885D03*
X019197Y018910D03*
X019197Y018935D03*
X019197Y018960D03*
X019197Y018985D03*
X019197Y019010D03*
X019197Y019035D03*
X019197Y019060D03*
X019197Y019085D03*
X019197Y019110D03*
X019197Y019135D03*
X019197Y019210D03*
X019098Y019210D03*
X019272Y019035D03*
X019272Y019010D03*
X019272Y018985D03*
X019272Y018960D03*
X019272Y018885D03*
X019272Y018860D03*
X019472Y018960D03*
X019472Y018985D03*
X019472Y019010D03*
X019472Y019035D03*
X019472Y019060D03*
X019472Y019085D03*
X019472Y019110D03*
X019472Y019135D03*
X019472Y019160D03*
X019572Y019160D03*
X019572Y019185D03*
X019572Y019210D03*
X019572Y019135D03*
X019572Y019110D03*
X019547Y018960D03*
X019547Y018935D03*
X019547Y018910D03*
X019098Y018485D03*
X018647Y018510D03*
X017648Y017860D03*
X017523Y017785D03*
X017347Y017860D03*
X017347Y017960D03*
X017197Y018110D03*
X017122Y018210D03*
X016898Y018410D03*
X016898Y018460D03*
X016898Y018485D03*
X016647Y018910D03*
X016472Y018935D03*
X016472Y018960D03*
X016472Y018985D03*
X016273Y018935D03*
X016248Y018960D03*
X016248Y018985D03*
X016298Y018010D03*
X016572Y017960D03*
X016447Y017735D03*
X016447Y017710D03*
X015972Y018035D03*
X015798Y017910D03*
X015772Y017885D03*
X015722Y018060D03*
X015497Y018235D03*
X015373Y017960D03*
X016472Y017060D03*
X016522Y017085D03*
X016572Y017110D03*
X016647Y017160D03*
X016697Y017185D03*
X016373Y017010D03*
X016323Y016985D03*
X016273Y016960D03*
X016147Y016885D03*
X016047Y016885D03*
X020222Y018960D03*
X020222Y018985D03*
X020222Y019010D03*
X020222Y019035D03*
X020598Y016785D03*
D44*
X019210Y018460D03*
X019185Y019160D03*
X019385Y019210D03*
X019810Y019060D03*
X020285Y019285D03*
X018560Y019285D03*
X018435Y019285D03*
X017785Y019210D03*
X017410Y019160D03*
X017310Y019160D03*
X017235Y019210D03*
X016760Y019210D03*
X016135Y019060D03*
X016160Y018935D03*
X015985Y018935D03*
X015560Y018935D03*
X015410Y019085D03*
X015560Y019285D03*
X015985Y018360D03*
X015410Y017985D03*
X016610Y017860D03*
X016735Y017760D03*
X017210Y017885D03*
X017410Y017760D03*
X017635Y017810D03*
X017785Y017860D03*
X017785Y018035D03*
X017785Y018110D03*
X017535Y018110D03*
X018135Y017810D03*
X018135Y017585D03*
X017510Y016860D03*
X017510Y016785D03*
X016760Y017210D03*
X016760Y017285D03*
X016910Y018510D03*
X016910Y018535D03*
X016910Y018560D03*
X014160Y019160D03*
X013060Y018935D03*
X012985Y018460D03*
X012485Y018435D03*
X012335Y018510D03*
X012485Y018260D03*
X012935Y017985D03*
X013735Y017860D03*
X012910Y016885D03*
X011035Y017685D03*
X010885Y018060D03*
X010885Y018085D03*
X010885Y018110D03*
X010885Y018160D03*
X011060Y018185D03*
X010660Y018310D03*
X010660Y018335D03*
X010460Y018510D03*
X009935Y018510D03*
X009935Y018535D03*
X009835Y017960D03*
X009360Y016910D03*
X010435Y016910D03*
X010435Y016835D03*
X011660Y018485D03*
D45*
X011472Y018385D03*
X011398Y018010D03*
X011022Y018085D03*
X011022Y018285D03*
X011022Y018310D03*
X011022Y018335D03*
X010997Y017835D03*
X011022Y017710D03*
X011322Y017710D03*
X010698Y017885D03*
X010273Y018510D03*
X010472Y019410D03*
X010472Y019460D03*
X011398Y019485D03*
X011797Y019485D03*
X012672Y019510D03*
X012698Y018860D03*
X012372Y018485D03*
X012472Y018235D03*
X012572Y018210D03*
X012247Y017885D03*
X012247Y017660D03*
X012023Y017785D03*
X012748Y017260D03*
X012922Y016860D03*
X012922Y016835D03*
X013473Y017260D03*
X013397Y017910D03*
X013297Y018110D03*
X013872Y019210D03*
X015422Y019285D03*
X016122Y019185D03*
X015972Y018060D03*
X015747Y018010D03*
X016323Y017710D03*
X016323Y017685D03*
X016323Y017660D03*
X016497Y017685D03*
X016572Y017760D03*
X016547Y017910D03*
X017573Y018160D03*
X017623Y017985D03*
X017772Y018060D03*
X017772Y018085D03*
X017623Y017785D03*
X017997Y018360D03*
X018373Y018335D03*
X018547Y018510D03*
X018597Y018485D03*
X018897Y018510D03*
X019797Y019185D03*
X020247Y018735D03*
X020247Y018710D03*
X020597Y016860D03*
X020597Y016810D03*
X016047Y016810D03*
X009597Y017760D03*
X009522Y017685D03*
X009573Y017910D03*
X009373Y016885D03*
X009373Y016860D03*
X009373Y016835D03*
X009348Y019410D03*
X009348Y019435D03*
X009348Y019460D03*
D46*
X018760Y016810D03*
D47*
X013710Y016810D03*
D48*
X019073Y016835D03*
D49*
X014697Y016835D03*
D50*
X014760Y017810D03*
X014335Y018010D03*
X014760Y018360D03*
X015385Y018085D03*
X015985Y018335D03*
X016310Y018260D03*
X017235Y018060D03*
X017760Y017985D03*
X017760Y017835D03*
X017760Y018135D03*
X018560Y018310D03*
X018560Y019110D03*
X017560Y019210D03*
X016535Y017660D03*
X016310Y017735D03*
X016060Y016860D03*
X013660Y017660D03*
X013610Y017685D03*
X013085Y018060D03*
X011785Y018485D03*
X011635Y018060D03*
X011010Y018060D03*
X010510Y018185D03*
X010710Y017660D03*
X011010Y017735D03*
X010460Y017260D03*
X009560Y017660D03*
X015485Y019310D03*
X019635Y018010D03*
X020260Y018685D03*
D51*
X015435Y016860D03*
D52*
X010010Y016860D03*
D53*
X010297Y016885D03*
X012672Y017735D03*
X012672Y018310D03*
X014647Y018385D03*
D54*
X013723Y018960D03*
X013723Y019160D03*
X013048Y019010D03*
X013048Y018985D03*
X013048Y018960D03*
X013048Y018885D03*
X012473Y019160D03*
X010648Y019135D03*
X010648Y018810D03*
X010523Y018635D03*
X010648Y018285D03*
X010523Y018085D03*
X010623Y017310D03*
X011223Y016935D03*
X009598Y017960D03*
X009473Y017735D03*
X016198Y016910D03*
X016223Y016935D03*
X017473Y018135D03*
X018373Y018960D03*
X018398Y019260D03*
X018998Y019110D03*
X018998Y019085D03*
X018998Y019060D03*
X018998Y019035D03*
X018998Y019010D03*
X019023Y019160D03*
X019298Y019160D03*
X019298Y019135D03*
X019298Y019210D03*
X019648Y018985D03*
X019648Y018960D03*
X019773Y019210D03*
X019948Y019160D03*
X019948Y019060D03*
X019948Y018935D03*
X020123Y019160D03*
X020248Y019185D03*
X020248Y019210D03*
X020248Y019235D03*
X020248Y019260D03*
X020248Y018935D03*
X019648Y018435D03*
X019648Y018385D03*
X019023Y018485D03*
D55*
X019460Y018935D03*
X019835Y018935D03*
X020035Y019210D03*
X020610Y019535D03*
X019835Y018285D03*
X018835Y018060D03*
X017685Y018935D03*
X017035Y018535D03*
X017035Y018460D03*
X017035Y018410D03*
X017035Y018385D03*
X017035Y018360D03*
X015810Y018060D03*
X015710Y017985D03*
X015385Y018060D03*
X015610Y018385D03*
X014360Y019210D03*
X014035Y018560D03*
X014035Y018535D03*
X014035Y018510D03*
X013410Y018110D03*
X013110Y018360D03*
X013160Y019210D03*
X013510Y019160D03*
X012110Y018385D03*
X011285Y018010D03*
X010910Y017085D03*
X011910Y016910D03*
X009760Y017760D03*
X009635Y017860D03*
X018510Y019085D03*
X020610Y017285D03*
D56*
X020235Y018635D03*
X020235Y018660D03*
X019285Y018935D03*
X018710Y018260D03*
X018385Y018935D03*
X018085Y019210D03*
X017435Y018935D03*
X017460Y018160D03*
X016810Y017960D03*
X016185Y018010D03*
X015785Y017860D03*
X014535Y018335D03*
X013435Y019210D03*
X013235Y018935D03*
X012610Y018060D03*
X013285Y017910D03*
X013485Y017285D03*
X013485Y017210D03*
X012510Y016960D03*
X011835Y017085D03*
X011360Y017085D03*
X011310Y016910D03*
X011885Y017810D03*
X010510Y018860D03*
X011260Y019210D03*
X011360Y019035D03*
X011835Y019035D03*
X015110Y019285D03*
D57*
X014173Y019210D03*
X014173Y019135D03*
X014173Y019110D03*
X014173Y019085D03*
X014173Y019060D03*
X014173Y019035D03*
X014173Y019010D03*
X014173Y018985D03*
X014173Y018960D03*
X014173Y018935D03*
X014173Y018910D03*
X013548Y017810D03*
X013548Y017735D03*
X012873Y018485D03*
X012248Y017060D03*
X010698Y016960D03*
X010573Y017285D03*
X010473Y017635D03*
X010248Y017635D03*
X009448Y017810D03*
X010598Y018835D03*
X010948Y019060D03*
X010473Y019385D03*
X009348Y019385D03*
X009348Y019485D03*
X016423Y017810D03*
X017023Y018435D03*
X017673Y019110D03*
X017698Y019135D03*
X017698Y019160D03*
X018498Y018360D03*
X019673Y018935D03*
X019673Y019010D03*
X019848Y019085D03*
X019848Y019160D03*
X020148Y019110D03*
X020148Y019085D03*
X020148Y019060D03*
X020148Y019010D03*
X020148Y018985D03*
X020148Y018960D03*
X020148Y018935D03*
X020448Y018935D03*
X020448Y018960D03*
X020448Y018985D03*
X020448Y019010D03*
X020448Y019035D03*
X020448Y019060D03*
X020448Y019085D03*
X020448Y019110D03*
X020448Y019135D03*
X020448Y019160D03*
X020448Y019185D03*
X020448Y019210D03*
X020448Y019235D03*
X020448Y019260D03*
X020448Y019285D03*
X020373Y018685D03*
X019823Y018260D03*
X016423Y017035D03*
D58*
X016048Y018260D03*
X014472Y017885D03*
X014472Y017860D03*
X014472Y017835D03*
X013172Y018285D03*
X011597Y017060D03*
X018898Y018335D03*
X018948Y018235D03*
X018898Y018460D03*
X020072Y018285D03*
X020072Y018260D03*
X020323Y018560D03*
X020523Y018235D03*
D59*
X020623Y017260D03*
X020623Y017210D03*
X019473Y018410D03*
X018798Y018210D03*
X018523Y018335D03*
X018773Y018510D03*
X017648Y018060D03*
X017023Y018510D03*
X017048Y019210D03*
X015398Y018010D03*
X015398Y017935D03*
X010923Y018235D03*
X020623Y019510D03*
D60*
X017048Y017235D03*
D61*
X016248Y017260D03*
D62*
X014623Y017960D03*
X014473Y017810D03*
X014473Y017785D03*
X014473Y017760D03*
X014473Y017735D03*
X014072Y017760D03*
X014072Y017810D03*
X014072Y017835D03*
X012648Y018360D03*
X011272Y018285D03*
X011222Y018410D03*
X010022Y017910D03*
X010022Y017885D03*
X018822Y018485D03*
X018873Y018360D03*
X018898Y017685D03*
X019722Y017635D03*
X019722Y017610D03*
X019722Y017585D03*
X019722Y017560D03*
X019722Y017535D03*
X020072Y018010D03*
X020072Y018310D03*
X020072Y018335D03*
X020097Y018385D03*
X020522Y018360D03*
X020522Y018335D03*
X020522Y017910D03*
D63*
X020535Y017935D03*
X020535Y018035D03*
X020360Y017610D03*
X020360Y017585D03*
X020360Y017560D03*
X020110Y018410D03*
X016760Y018360D03*
X013885Y018360D03*
X011285Y018310D03*
D64*
X011360Y018185D03*
X011360Y018160D03*
X011360Y018110D03*
X011360Y018085D03*
X011360Y017985D03*
X011660Y017810D03*
X011985Y017885D03*
X011985Y018135D03*
X011985Y018160D03*
X012860Y017960D03*
X012860Y017935D03*
X012860Y017910D03*
X012860Y017610D03*
X013335Y017810D03*
X013335Y018135D03*
X013335Y018160D03*
X013335Y018185D03*
X014010Y018260D03*
X014635Y018160D03*
X014635Y018110D03*
X014635Y018085D03*
X014635Y018060D03*
X014110Y017635D03*
X015360Y017860D03*
X015360Y018185D03*
X015735Y018110D03*
X015360Y018485D03*
X015360Y018585D03*
X015210Y019310D03*
X016385Y018910D03*
X016935Y018235D03*
X017710Y017960D03*
X018435Y017935D03*
X018435Y017810D03*
X018435Y018160D03*
X019460Y017735D03*
X010960Y017935D03*
X010960Y017960D03*
X010960Y017985D03*
X010960Y018010D03*
X010960Y018035D03*
X010960Y018135D03*
X010360Y017935D03*
D65*
X010372Y017610D03*
X010697Y017735D03*
X010697Y017810D03*
X011348Y017835D03*
X011348Y017885D03*
X011348Y017910D03*
X011348Y017935D03*
X011348Y017960D03*
X011622Y017960D03*
X011622Y017935D03*
X011622Y017910D03*
X011622Y017885D03*
X011622Y017860D03*
X012247Y017785D03*
X012247Y017760D03*
X012247Y017735D03*
X012247Y017710D03*
X012472Y017885D03*
X012472Y017910D03*
X012522Y017810D03*
X012672Y017660D03*
X013097Y018210D03*
X013097Y018235D03*
X013347Y018085D03*
X013347Y017985D03*
X013347Y017935D03*
X013347Y017885D03*
X013347Y017860D03*
X013347Y017835D03*
X012748Y018460D03*
X013147Y018835D03*
X013147Y019185D03*
X013447Y019185D03*
X014022Y018235D03*
X014048Y018160D03*
X014048Y018135D03*
X014072Y017910D03*
X014297Y018160D03*
X014972Y018085D03*
X014972Y018060D03*
X014972Y018035D03*
X014972Y018010D03*
X015723Y018160D03*
X015697Y018260D03*
X015997Y018310D03*
X016572Y018210D03*
X016572Y018185D03*
X016572Y018160D03*
X016572Y018135D03*
X016572Y018110D03*
X016597Y018235D03*
X016923Y018135D03*
X016572Y017835D03*
X017272Y018235D03*
X017272Y018260D03*
X017272Y018285D03*
X017272Y018310D03*
X017272Y018335D03*
X017272Y018360D03*
X017272Y018385D03*
X016072Y018910D03*
X014673Y019310D03*
X011947Y018460D03*
X009623Y018235D03*
X018722Y018185D03*
X018722Y018160D03*
X018722Y018135D03*
X018722Y017860D03*
X018722Y017835D03*
X019347Y017885D03*
X019647Y018160D03*
X019372Y018835D03*
X019372Y019185D03*
D66*
X020160Y017835D03*
X020335Y017635D03*
X018910Y017710D03*
X017235Y018610D03*
X011785Y018360D03*
D67*
X011623Y018210D03*
X011623Y018160D03*
X012823Y017835D03*
X014123Y017860D03*
X014848Y017710D03*
X014848Y017660D03*
X014798Y018335D03*
X015373Y018510D03*
X015373Y018535D03*
X015373Y018560D03*
X015373Y018610D03*
X015373Y018635D03*
X016948Y018210D03*
X016948Y018185D03*
X016998Y017635D03*
X017698Y017885D03*
X017698Y017910D03*
X017698Y017935D03*
X017698Y018010D03*
X018398Y018035D03*
X018423Y018185D03*
X018423Y017785D03*
X010373Y017910D03*
X010348Y017960D03*
X010273Y018085D03*
X010273Y018110D03*
X010248Y018135D03*
X010248Y018160D03*
X009648Y018260D03*
D68*
X010023Y017635D03*
X010423Y017810D03*
X011748Y017710D03*
X014298Y018185D03*
X014298Y018210D03*
X014298Y018235D03*
X014298Y018310D03*
X016223Y018210D03*
X016248Y018235D03*
X016248Y018310D03*
X016248Y018335D03*
X016223Y017785D03*
X016798Y018385D03*
X018048Y018135D03*
X018073Y017785D03*
X019673Y017910D03*
X019698Y017985D03*
X019698Y018035D03*
X019698Y018060D03*
X019698Y018085D03*
X019698Y018110D03*
X019698Y018135D03*
D69*
X020135Y017935D03*
X020310Y017660D03*
X018910Y017735D03*
X018885Y018285D03*
X016760Y018310D03*
X013885Y018335D03*
D70*
X013923Y018385D03*
X013747Y018260D03*
X013372Y018310D03*
X013372Y018335D03*
X013348Y018210D03*
X013348Y017785D03*
X012797Y017810D03*
X011998Y017910D03*
X011998Y017935D03*
X011998Y017960D03*
X011998Y017985D03*
X011998Y018010D03*
X011998Y018035D03*
X011998Y018060D03*
X011998Y018085D03*
X011998Y018110D03*
X011972Y018185D03*
X011247Y018360D03*
X011247Y018385D03*
X011247Y018435D03*
X010297Y018060D03*
X010297Y018035D03*
X010397Y017860D03*
X009822Y018385D03*
X014472Y017710D03*
X014472Y017685D03*
X014472Y017660D03*
X014997Y018160D03*
X015347Y017835D03*
X015722Y018135D03*
X015672Y018235D03*
X015197Y018910D03*
X016622Y018260D03*
X017247Y018035D03*
X017297Y018435D03*
X017297Y017660D03*
X019022Y017810D03*
X019047Y017835D03*
X019722Y017660D03*
X019747Y018410D03*
X018497Y018910D03*
D71*
X019123Y019185D03*
X019473Y018385D03*
X018898Y017660D03*
X018423Y017960D03*
X018423Y017985D03*
X018423Y018010D03*
X018423Y018060D03*
X018423Y018110D03*
X018423Y018135D03*
X020373Y019310D03*
X015973Y018235D03*
X015973Y018210D03*
X015973Y018185D03*
X015348Y018110D03*
X015348Y017910D03*
X015348Y017885D03*
X015348Y018385D03*
X015348Y018410D03*
X015348Y018435D03*
X015348Y018460D03*
X015498Y018910D03*
X014098Y019185D03*
X014098Y017935D03*
X010948Y017910D03*
X010948Y017885D03*
X009598Y017835D03*
X009598Y018110D03*
X009598Y018135D03*
X009598Y018160D03*
X009598Y018185D03*
X009598Y018210D03*
D72*
X015348Y017810D03*
X015398Y018310D03*
X015398Y018335D03*
X015398Y018360D03*
X016998Y017885D03*
X017698Y018410D03*
X018423Y017760D03*
X018423Y017710D03*
X018423Y017685D03*
X018423Y017660D03*
X020298Y018585D03*
X020498Y018410D03*
D73*
X020548Y018285D03*
X019673Y018210D03*
X019673Y017885D03*
X018073Y017760D03*
X018073Y017735D03*
X018073Y017710D03*
X018073Y017685D03*
X018073Y017660D03*
X014848Y017735D03*
X014848Y017760D03*
X014848Y017785D03*
X012598Y018485D03*
X011248Y018335D03*
X010423Y017785D03*
D74*
X017698Y017760D03*
X017698Y017735D03*
X017698Y017710D03*
X017698Y017685D03*
X017698Y017660D03*
D75*
X016960Y017660D03*
X016635Y018085D03*
X015410Y018260D03*
X015410Y018285D03*
X015010Y018285D03*
X015010Y018310D03*
X015010Y018260D03*
X015010Y018235D03*
X015010Y018210D03*
X015010Y018185D03*
X014835Y017835D03*
X013760Y018085D03*
X011585Y019060D03*
X010010Y017835D03*
X009660Y018085D03*
X018935Y018260D03*
X020085Y018360D03*
D76*
X019785Y018385D03*
X019785Y018435D03*
X019610Y018235D03*
X019635Y018185D03*
X018160Y018360D03*
X017810Y017785D03*
X017285Y017985D03*
X016610Y017810D03*
X015610Y017660D03*
X015360Y018135D03*
X014310Y018135D03*
X014310Y018110D03*
X013735Y017810D03*
X013110Y018310D03*
X012810Y018210D03*
X012485Y017935D03*
X011285Y018485D03*
X010985Y018260D03*
X010710Y017860D03*
X010710Y017835D03*
X010710Y017710D03*
X010710Y017685D03*
X009985Y017935D03*
X009985Y018110D03*
X013785Y019185D03*
X016060Y019035D03*
X017785Y019185D03*
D77*
X018435Y018210D03*
X018435Y017735D03*
X014635Y017910D03*
X014635Y017935D03*
X014635Y018185D03*
X014635Y018210D03*
X014635Y018235D03*
X014635Y018310D03*
X014060Y017660D03*
X012710Y018260D03*
X012660Y017685D03*
X009785Y018360D03*
D78*
X010935Y018210D03*
X011410Y018035D03*
X011310Y017735D03*
X011935Y018485D03*
X012910Y018510D03*
X013435Y018285D03*
X013435Y017735D03*
X013435Y017710D03*
X013435Y017685D03*
X013435Y017660D03*
X015635Y018360D03*
X017635Y018035D03*
X018485Y019310D03*
X019460Y017710D03*
D79*
X019010Y018435D03*
X017485Y018910D03*
X014610Y018360D03*
X013785Y018910D03*
X013110Y018335D03*
X012785Y018435D03*
X012535Y018510D03*
X012435Y018060D03*
X012010Y017810D03*
X011760Y017660D03*
D80*
X010198Y017660D03*
X010198Y017760D03*
X017072Y017710D03*
D81*
X018910Y017785D03*
X020310Y017685D03*
X020310Y018535D03*
X013885Y018285D03*
X013835Y018035D03*
X012685Y017785D03*
X012635Y018110D03*
X011785Y018310D03*
X011810Y017760D03*
D82*
X011773Y018410D03*
X011298Y018535D03*
X012498Y018185D03*
X012498Y018160D03*
X012498Y018135D03*
X012498Y017860D03*
X012498Y017835D03*
X013698Y017835D03*
X013698Y018110D03*
X013698Y018135D03*
X013698Y018160D03*
X013698Y018185D03*
X013698Y018210D03*
X014948Y017960D03*
X014948Y017935D03*
X016223Y017935D03*
X016223Y017910D03*
X016223Y017885D03*
X016223Y017860D03*
X016223Y017835D03*
X016223Y017810D03*
X016223Y017985D03*
X016223Y018035D03*
X016223Y018085D03*
X016223Y018110D03*
X016223Y018135D03*
X018073Y018160D03*
X018073Y018110D03*
X018073Y018060D03*
X018073Y018035D03*
X018073Y018010D03*
X018073Y017985D03*
X018073Y017935D03*
X018073Y017885D03*
X018073Y017860D03*
X018073Y017835D03*
X018698Y017885D03*
X018698Y017910D03*
X018698Y018085D03*
X019723Y017735D03*
X019723Y017710D03*
X019723Y017685D03*
X009948Y018160D03*
X009948Y018185D03*
D83*
X016822Y017985D03*
X017072Y017685D03*
D84*
X017235Y018010D03*
X017310Y018460D03*
X017310Y018485D03*
X017310Y018510D03*
X017310Y018535D03*
X015610Y017685D03*
X015310Y017685D03*
X020060Y018035D03*
X020060Y018060D03*
X020060Y018085D03*
X020060Y018110D03*
X020060Y018135D03*
X020085Y017910D03*
X020510Y017835D03*
X020560Y018060D03*
X020560Y018085D03*
X020560Y018110D03*
X020560Y018135D03*
X020535Y018310D03*
X020510Y018385D03*
X010235Y018185D03*
X010035Y017860D03*
D85*
X010335Y017985D03*
X010385Y017885D03*
X010410Y017835D03*
X010710Y017785D03*
X010710Y017760D03*
X011260Y018460D03*
X011635Y018135D03*
X011635Y018110D03*
X011635Y017835D03*
X012260Y017835D03*
X012260Y017810D03*
X012835Y017860D03*
X012835Y017885D03*
X012785Y018060D03*
X012835Y018160D03*
X013135Y018910D03*
X013710Y018235D03*
X014860Y017685D03*
X017285Y018410D03*
X018760Y017810D03*
X019060Y017860D03*
X019060Y017885D03*
X019085Y017910D03*
X019085Y017935D03*
X019085Y017960D03*
X019060Y017985D03*
X019335Y018235D03*
X019360Y018910D03*
X020060Y018910D03*
X020060Y019035D03*
X020360Y018910D03*
X011785Y018535D03*
X009560Y017710D03*
D86*
X010010Y017810D03*
X012685Y017710D03*
X014035Y017735D03*
X014035Y017685D03*
X017010Y018160D03*
X017710Y018435D03*
X017710Y018460D03*
X017710Y018485D03*
X017710Y018510D03*
X017710Y018535D03*
X017710Y018560D03*
X017710Y018585D03*
D87*
X018848Y018435D03*
X019398Y018810D03*
X015473Y019060D03*
X012248Y017860D03*
X012248Y017685D03*
X011573Y018535D03*
X010923Y018185D03*
D88*
X011360Y017860D03*
X011735Y017685D03*
X012710Y018510D03*
X013085Y018185D03*
X013085Y018160D03*
X013085Y018110D03*
X014060Y018110D03*
X014060Y017885D03*
X014960Y017985D03*
X014960Y018135D03*
X015685Y018285D03*
X015735Y018210D03*
X016235Y018060D03*
X016235Y017960D03*
X016785Y019185D03*
X017485Y019185D03*
X018085Y019185D03*
X018685Y018110D03*
X018685Y018060D03*
X018710Y017935D03*
X019035Y018210D03*
X019310Y018135D03*
X019310Y018110D03*
X019310Y018085D03*
X019310Y018060D03*
X019310Y018035D03*
X019310Y017985D03*
X019335Y017935D03*
X019335Y017910D03*
X019335Y018185D03*
X019335Y018210D03*
X020035Y019185D03*
X014685Y019010D03*
X009960Y018135D03*
X009935Y018210D03*
X009935Y018235D03*
X009635Y017810D03*
D89*
X010160Y017735D03*
X010160Y017685D03*
D90*
X009773Y017985D03*
X009773Y018010D03*
X012647Y018010D03*
X012647Y018035D03*
X017072Y017760D03*
X018872Y018010D03*
X018872Y018035D03*
X020322Y017710D03*
D91*
X019622Y017935D03*
X018897Y018385D03*
X018398Y018310D03*
X017772Y017810D03*
X016622Y017735D03*
X016572Y017710D03*
X016298Y017760D03*
X015972Y018085D03*
X015772Y018035D03*
X015672Y018310D03*
X015672Y018335D03*
X014398Y018410D03*
X014322Y018085D03*
X014322Y018060D03*
X014322Y018035D03*
X014372Y017910D03*
X014073Y017960D03*
X013747Y017735D03*
X013697Y017710D03*
X013422Y017760D03*
X012797Y017985D03*
X012797Y018135D03*
X012797Y018185D03*
X012673Y018385D03*
X012623Y018435D03*
X012547Y018460D03*
X013172Y018810D03*
X014398Y019185D03*
X011597Y019260D03*
X011297Y018510D03*
X011397Y018060D03*
X011347Y017810D03*
X011323Y017760D03*
X017272Y019185D03*
X019748Y019035D03*
D92*
X015473Y017735D03*
X015473Y017710D03*
X011773Y018260D03*
D93*
X012710Y018335D03*
X014010Y017710D03*
X017085Y017860D03*
X017085Y017960D03*
D94*
X010148Y017710D03*
D95*
X020310Y017735D03*
X020310Y018485D03*
D96*
X020310Y017885D03*
X020310Y017860D03*
X017460Y018185D03*
X017085Y017735D03*
D97*
X020085Y018210D03*
X020085Y018235D03*
X012660Y018285D03*
X011785Y018335D03*
X011810Y017735D03*
X009810Y018335D03*
X009785Y018310D03*
D98*
X009973Y018560D03*
X009973Y017960D03*
X009648Y017735D03*
X011273Y018560D03*
X012423Y018210D03*
X013098Y018085D03*
X014348Y017985D03*
X014348Y017960D03*
X014348Y017935D03*
X014923Y017810D03*
X019023Y018135D03*
X019023Y018160D03*
X019023Y018185D03*
X019323Y018160D03*
X019323Y018010D03*
X019323Y017960D03*
X020273Y018610D03*
D99*
X020310Y018460D03*
X020310Y018435D03*
X020310Y017785D03*
X020310Y017760D03*
X015485Y017760D03*
X015485Y017785D03*
X014485Y018260D03*
X014485Y018285D03*
D100*
X013972Y017785D03*
X013247Y018260D03*
X012622Y018085D03*
X012697Y017760D03*
X019522Y018260D03*
X019522Y018285D03*
X019573Y017760D03*
X020297Y018510D03*
D101*
X018898Y017760D03*
X016798Y018335D03*
X016698Y018060D03*
X013873Y018310D03*
X013823Y018060D03*
X010323Y018335D03*
D102*
X010523Y018160D03*
X010523Y018135D03*
X010523Y018110D03*
X013073Y018035D03*
X013698Y017760D03*
X018023Y017810D03*
X018673Y018210D03*
X018698Y018235D03*
X019773Y018010D03*
X019773Y017935D03*
X020298Y017910D03*
D103*
X019560Y017785D03*
D104*
X017010Y017785D03*
D105*
X020098Y017985D03*
X011748Y017785D03*
D106*
X011635Y018085D03*
X011335Y018135D03*
X011335Y017785D03*
X010960Y017860D03*
X013360Y017960D03*
X013360Y018035D03*
X013360Y018060D03*
X014035Y018185D03*
X014035Y018210D03*
X015335Y018210D03*
X015335Y018235D03*
X015385Y018160D03*
X015760Y018085D03*
X015960Y018110D03*
X015960Y018135D03*
X015960Y018160D03*
X016960Y018110D03*
X017735Y018160D03*
X018410Y018085D03*
X018410Y017910D03*
X018410Y017885D03*
X019760Y018910D03*
X017060Y019185D03*
X017035Y018910D03*
X016360Y019185D03*
D107*
X009923Y017785D03*
D108*
X020310Y017810D03*
D109*
X019548Y017810D03*
X019548Y017835D03*
X013873Y017985D03*
X013873Y018010D03*
D110*
X016772Y018010D03*
X017097Y017810D03*
X018222Y018260D03*
X018272Y018235D03*
X018272Y018285D03*
X019597Y018310D03*
D111*
X019685Y017960D03*
X018960Y018085D03*
X018960Y018110D03*
X018135Y018335D03*
X018085Y018210D03*
X015685Y017810D03*
X014960Y018110D03*
X014635Y018135D03*
X014635Y018035D03*
X014635Y018010D03*
X014635Y017985D03*
X011785Y018385D03*
X011310Y018260D03*
X010310Y018010D03*
D112*
X011635Y018185D03*
X013360Y018235D03*
X017710Y018235D03*
X017710Y018260D03*
X017710Y018285D03*
X017710Y018310D03*
X017710Y018335D03*
X017710Y018360D03*
X017710Y018385D03*
X018460Y017860D03*
X018460Y017835D03*
D113*
X019610Y018360D03*
X017110Y017835D03*
D114*
X016885Y018260D03*
X016210Y018185D03*
X016210Y018160D03*
X015710Y018185D03*
X015710Y017835D03*
X014935Y017910D03*
X014610Y018410D03*
X014660Y019035D03*
X013060Y018135D03*
X011960Y018210D03*
X011335Y018210D03*
X011335Y018235D03*
X009910Y018260D03*
X018060Y018085D03*
X018085Y018185D03*
X018060Y017960D03*
X018060Y017910D03*
X019010Y018060D03*
X018110Y019035D03*
D115*
X019535Y017860D03*
D116*
X014848Y017860D03*
X014848Y017885D03*
X012723Y018235D03*
D117*
X017110Y017910D03*
D118*
X017110Y017935D03*
X017210Y018560D03*
X009735Y018035D03*
D119*
X020310Y017960D03*
D120*
X020498Y017985D03*
X020498Y018010D03*
X018898Y018310D03*
X011823Y018510D03*
D121*
X010335Y018210D03*
X009785Y018285D03*
X016135Y018285D03*
X016760Y018285D03*
X016710Y018035D03*
D122*
X017223Y018585D03*
X009723Y018060D03*
D123*
X020298Y018160D03*
X020298Y018185D03*
D124*
X020510Y018210D03*
X020510Y018260D03*
X018110Y018310D03*
D125*
X017510Y018210D03*
D126*
X011798Y018235D03*
D127*
X010323Y018235D03*
X010323Y018260D03*
X010323Y018285D03*
X010323Y018310D03*
D128*
X011785Y018285D03*
D129*
X019598Y018335D03*
D130*
X010073Y019435D03*
D131*
X016647Y019460D03*
X016647Y019485D03*
D132*
X020539Y016485D02*
X020539Y016472D01*
X020545Y016465D01*
X020565Y016465D01*
X020565Y016452D02*
X020565Y016492D01*
X020545Y016492D01*
X020539Y016485D01*
X020585Y016485D02*
X020585Y016465D01*
X020598Y016465D02*
X020598Y016485D01*
X020591Y016492D01*
X020585Y016485D01*
X020598Y016485D02*
X020605Y016492D01*
X020611Y016492D01*
X020611Y016465D01*
X020631Y016472D02*
X020631Y016485D01*
X020637Y016492D01*
X020657Y016492D01*
X020657Y016505D02*
X020657Y016465D01*
X020637Y016465D01*
X020631Y016472D01*
X020674Y016472D02*
X020674Y016465D01*
X020681Y016465D01*
X020681Y016472D01*
X020674Y016472D01*
X020700Y016472D02*
X020700Y016485D01*
X020707Y016492D01*
X020720Y016492D01*
X020727Y016485D01*
X020727Y016472D01*
X020720Y016465D01*
X020707Y016465D01*
X020700Y016472D01*
X020746Y016465D02*
X020766Y016465D01*
X020773Y016472D01*
X020773Y016485D01*
X020766Y016492D01*
X020746Y016492D01*
X020746Y016458D01*
X020753Y016452D01*
X020759Y016452D01*
X020792Y016472D02*
X020792Y016485D01*
X020799Y016492D01*
X020812Y016492D01*
X020819Y016485D01*
X020819Y016472D01*
X020812Y016465D01*
X020799Y016465D01*
X020792Y016472D01*
X020836Y016465D02*
X020849Y016465D01*
X020843Y016465D02*
X020843Y016505D01*
X020849Y016505D01*
X020869Y016505D02*
X020895Y016465D01*
X020915Y016472D02*
X020921Y016478D01*
X020935Y016478D01*
X020941Y016485D01*
X020935Y016492D01*
X020915Y016492D01*
X020915Y016472D02*
X020921Y016465D01*
X020941Y016465D01*
X020961Y016472D02*
X020961Y016485D01*
X020967Y016492D01*
X020981Y016492D01*
X020987Y016485D01*
X020987Y016472D01*
X020981Y016465D01*
X020967Y016465D01*
X020961Y016472D01*
X021007Y016465D02*
X021027Y016465D01*
X021033Y016472D01*
X021033Y016485D01*
X021027Y016492D01*
X021007Y016492D01*
X021007Y016458D01*
X021013Y016452D01*
X021020Y016452D01*
X021053Y016472D02*
X021053Y016485D01*
X021059Y016492D01*
X021073Y016492D01*
X021080Y016485D01*
X021080Y016472D01*
X021073Y016465D01*
X021059Y016465D01*
X021053Y016472D01*
X021099Y016465D02*
X021126Y016465D01*
X021126Y016505D01*
X021145Y016505D02*
X021172Y016465D01*
X021188Y016465D02*
X021195Y016465D01*
X021195Y016472D01*
X021188Y016472D01*
X021188Y016465D01*
X021188Y016485D02*
X021195Y016485D01*
X021195Y016492D01*
X021188Y016492D01*
X021188Y016485D01*
X021214Y016498D02*
X021241Y016472D01*
X021241Y016465D01*
X021214Y016465D01*
X021214Y016498D02*
X021214Y016505D01*
X021241Y016505D01*
X024585Y008260D02*
X023760Y006210D01*
X023860Y006235D02*
X024710Y008210D01*
D133*
X025819Y011937D02*
X025819Y017133D01*
X030701Y017133D01*
X030701Y011937D01*
X025819Y011937D01*
X027236Y013944D02*
X029284Y013944D01*
X027079Y014535D02*
X027081Y014604D01*
X027087Y014672D01*
X027097Y014740D01*
X027111Y014807D01*
X027129Y014874D01*
X027150Y014939D01*
X027176Y015003D01*
X027205Y015065D01*
X027237Y015125D01*
X027273Y015184D01*
X027313Y015240D01*
X027355Y015294D01*
X027401Y015345D01*
X027450Y015394D01*
X027501Y015440D01*
X027555Y015482D01*
X027611Y015522D01*
X027669Y015558D01*
X027730Y015590D01*
X027792Y015619D01*
X027856Y015645D01*
X027921Y015666D01*
X027988Y015684D01*
X028055Y015698D01*
X028123Y015708D01*
X028191Y015714D01*
X028260Y015716D01*
X028329Y015714D01*
X028397Y015708D01*
X028465Y015698D01*
X028532Y015684D01*
X028599Y015666D01*
X028664Y015645D01*
X028728Y015619D01*
X028790Y015590D01*
X028850Y015558D01*
X028909Y015522D01*
X028965Y015482D01*
X029019Y015440D01*
X029070Y015394D01*
X029119Y015345D01*
X029165Y015294D01*
X029207Y015240D01*
X029247Y015184D01*
X029283Y015125D01*
X029315Y015065D01*
X029344Y015003D01*
X029370Y014939D01*
X029391Y014874D01*
X029409Y014807D01*
X029423Y014740D01*
X029433Y014672D01*
X029439Y014604D01*
X029441Y014535D01*
X029439Y014466D01*
X029433Y014398D01*
X029423Y014330D01*
X029409Y014263D01*
X029391Y014196D01*
X029370Y014131D01*
X029344Y014067D01*
X029315Y014005D01*
X029283Y013944D01*
X029247Y013886D01*
X029207Y013830D01*
X029165Y013776D01*
X029119Y013725D01*
X029070Y013676D01*
X029019Y013630D01*
X028965Y013588D01*
X028909Y013548D01*
X028851Y013512D01*
X028790Y013480D01*
X028728Y013451D01*
X028664Y013425D01*
X028599Y013404D01*
X028532Y013386D01*
X028465Y013372D01*
X028397Y013362D01*
X028329Y013356D01*
X028260Y013354D01*
X028191Y013356D01*
X028123Y013362D01*
X028055Y013372D01*
X027988Y013386D01*
X027921Y013404D01*
X027856Y013425D01*
X027792Y013451D01*
X027730Y013480D01*
X027669Y013512D01*
X027611Y013548D01*
X027555Y013588D01*
X027501Y013630D01*
X027450Y013676D01*
X027401Y013725D01*
X027355Y013776D01*
X027313Y013830D01*
X027273Y013886D01*
X027237Y013944D01*
X027205Y014005D01*
X027176Y014067D01*
X027150Y014131D01*
X027129Y014196D01*
X027111Y014263D01*
X027097Y014330D01*
X027087Y014398D01*
X027081Y014466D01*
X027079Y014535D01*
X008820Y006916D02*
X008820Y006883D01*
X008787Y006849D01*
X008720Y006849D01*
X008687Y006816D01*
X008687Y006783D01*
X008720Y006749D01*
X008787Y006749D01*
X008820Y006783D01*
X008820Y006916D02*
X008787Y006949D01*
X008720Y006949D01*
X008687Y006916D01*
X008590Y006916D02*
X008590Y006783D01*
X008557Y006749D01*
X008490Y006749D01*
X008457Y006783D01*
X008457Y006916D01*
X008490Y006949D01*
X008557Y006949D01*
X008590Y006916D01*
X008360Y006949D02*
X008360Y006749D01*
X008226Y006749D01*
X008130Y006749D02*
X008063Y006749D01*
X008096Y006749D02*
X008096Y006949D01*
X008063Y006949D02*
X008130Y006949D01*
X007976Y006949D02*
X007876Y006949D01*
X007843Y006916D01*
X007843Y006783D01*
X007876Y006749D01*
X007976Y006749D01*
X007976Y006949D01*
X007938Y006574D02*
X007804Y006574D01*
X007871Y006474D02*
X007938Y006474D01*
X007938Y006374D02*
X007804Y006374D01*
X007938Y006374D02*
X007938Y006574D01*
X008035Y006574D02*
X008168Y006574D01*
X008101Y006574D02*
X008101Y006374D01*
X008265Y006374D02*
X008265Y006508D01*
X008332Y006574D01*
X008398Y006508D01*
X008398Y006374D01*
X008398Y006474D02*
X008265Y006474D01*
X008495Y006574D02*
X008629Y006574D01*
X008562Y006574D02*
X008562Y006374D01*
X008725Y006408D02*
X008759Y006374D01*
X008825Y006374D01*
X008859Y006408D01*
X008825Y006474D02*
X008759Y006474D01*
X008725Y006441D01*
X008725Y006408D01*
X008825Y006474D02*
X008859Y006508D01*
X008859Y006541D01*
X008825Y006574D01*
X008759Y006574D01*
X008725Y006541D01*
X008759Y006199D02*
X008725Y006166D01*
X008725Y006099D01*
X008759Y006066D01*
X008859Y006066D01*
X008859Y005999D02*
X008859Y006199D01*
X008759Y006199D01*
X008629Y006199D02*
X008629Y005999D01*
X008495Y005999D01*
X008398Y005999D02*
X008398Y006199D01*
X008495Y006199D02*
X008629Y006199D01*
X008629Y006099D02*
X008562Y006099D01*
X008725Y005999D02*
X008792Y006066D01*
X008398Y005999D02*
X008265Y005999D01*
X008168Y005999D02*
X008168Y006133D01*
X008101Y006199D01*
X008035Y006133D01*
X008035Y005999D01*
X008035Y006099D02*
X008168Y006099D01*
X007938Y006166D02*
X007871Y006099D01*
X007871Y005999D01*
X007871Y006099D02*
X007804Y006166D01*
X007804Y006199D01*
X007938Y006199D02*
X007938Y006166D01*
X005048Y004980D02*
X004921Y004980D01*
X004985Y004980D02*
X004985Y004790D01*
X004978Y004655D02*
X005041Y004655D01*
X005073Y004623D01*
X005073Y004497D01*
X005041Y004465D01*
X004978Y004465D01*
X004946Y004497D01*
X004852Y004497D02*
X004852Y004623D01*
X004820Y004655D01*
X004757Y004655D01*
X004725Y004623D01*
X004725Y004497D01*
X004757Y004465D01*
X004820Y004465D01*
X004852Y004497D01*
X004946Y004623D02*
X004978Y004655D01*
X004827Y004790D02*
X004827Y004980D01*
X004827Y004885D02*
X004700Y004885D01*
X004606Y004885D02*
X004543Y004885D01*
X004606Y004790D02*
X004479Y004790D01*
X004385Y004790D02*
X004385Y004980D01*
X004290Y004980D01*
X004258Y004948D01*
X004258Y004885D01*
X004290Y004853D01*
X004385Y004853D01*
X004322Y004853D02*
X004258Y004790D01*
X004164Y004790D02*
X004164Y004980D01*
X004101Y004917D01*
X004037Y004980D01*
X004037Y004790D01*
X003943Y004822D02*
X003911Y004790D01*
X003848Y004790D01*
X003816Y004822D01*
X003816Y004948D01*
X003848Y004980D01*
X003911Y004980D01*
X003943Y004948D01*
X003943Y004822D01*
X003968Y004655D02*
X003968Y004465D01*
X003841Y004465D01*
X003905Y004560D02*
X003968Y004560D01*
X003968Y004655D02*
X003841Y004655D01*
X004062Y004465D02*
X004189Y004465D01*
X004189Y004655D01*
X004283Y004623D02*
X004283Y004560D01*
X004315Y004528D01*
X004410Y004528D01*
X004410Y004465D02*
X004410Y004655D01*
X004315Y004655D01*
X004283Y004623D01*
X004504Y004655D02*
X004504Y004497D01*
X004536Y004465D01*
X004599Y004465D01*
X004631Y004497D01*
X004631Y004655D01*
X004606Y004790D02*
X004606Y004980D01*
X004479Y004980D01*
X004700Y004980D02*
X004700Y004790D01*
D134*
X013838Y006031D03*
D135*
X013831Y006030D03*
D136*
X013824Y006031D03*
D137*
X013818Y006030D03*
D138*
X013811Y006030D03*
X010951Y006030D03*
D139*
X013804Y006034D03*
D140*
X013798Y006031D03*
D141*
X013791Y006034D03*
X010971Y006034D03*
D142*
X010984Y006030D03*
X010991Y006030D03*
X011004Y006030D03*
X011011Y006030D03*
X011024Y006030D03*
X011031Y006030D03*
X011044Y006030D03*
X011051Y006030D03*
X011064Y006030D03*
X011071Y006030D03*
X011084Y006030D03*
X011091Y006030D03*
X011104Y006030D03*
X011111Y006030D03*
X011124Y006030D03*
X011131Y006030D03*
X011144Y006030D03*
X011151Y006030D03*
X011164Y006030D03*
X011171Y006030D03*
X011184Y006030D03*
X011191Y006030D03*
X011204Y006030D03*
X011211Y006030D03*
X011224Y006030D03*
X011231Y006030D03*
X011244Y006030D03*
X011251Y006030D03*
X011264Y006030D03*
X011271Y006030D03*
X011284Y006030D03*
X011291Y006030D03*
X011304Y006030D03*
X011311Y006030D03*
X011324Y006030D03*
X012491Y006030D03*
X012504Y006030D03*
X012511Y006030D03*
X012524Y006030D03*
X012531Y006030D03*
X012544Y006030D03*
X012551Y006030D03*
X012564Y006030D03*
X012571Y006030D03*
X012584Y006030D03*
X012591Y006030D03*
X012604Y006030D03*
X012611Y006030D03*
X012624Y006030D03*
X012631Y006030D03*
X012644Y006030D03*
X012651Y006030D03*
X012664Y006030D03*
X012671Y006030D03*
X012684Y006030D03*
X012691Y006030D03*
X012704Y006030D03*
X012711Y006030D03*
X012724Y006030D03*
X012731Y006030D03*
X012744Y006030D03*
X012931Y006030D03*
X012944Y006030D03*
X012951Y006030D03*
X012964Y006030D03*
X012971Y006030D03*
X012984Y006030D03*
X012991Y006030D03*
X013004Y006030D03*
X013011Y006030D03*
X013024Y006030D03*
X013031Y006030D03*
X013044Y006030D03*
X013051Y006030D03*
X013064Y006030D03*
X013071Y006030D03*
X013084Y006030D03*
X013091Y006030D03*
X013104Y006030D03*
X013111Y006030D03*
X013124Y006030D03*
X013131Y006030D03*
X013144Y006030D03*
X013151Y006030D03*
X013164Y006030D03*
X013171Y006030D03*
X013444Y006030D03*
X013451Y006030D03*
X013464Y006030D03*
X013471Y006030D03*
X013484Y006030D03*
X013491Y006030D03*
X013504Y006030D03*
X013511Y006030D03*
X013524Y006030D03*
X013531Y006030D03*
X013544Y006030D03*
X013551Y006030D03*
X013564Y006030D03*
X013571Y006030D03*
X013584Y006030D03*
X013591Y006030D03*
X013604Y006030D03*
X013611Y006030D03*
X013624Y006030D03*
X013631Y006030D03*
X013644Y006030D03*
X013651Y006030D03*
X013664Y006030D03*
X013671Y006030D03*
X013684Y006030D03*
X013691Y006030D03*
X013704Y006030D03*
X013711Y006030D03*
X013724Y006030D03*
X013731Y006030D03*
X013744Y006030D03*
X013751Y006030D03*
X013764Y006030D03*
X013771Y006030D03*
X013784Y006030D03*
D143*
X013778Y006030D03*
X013758Y006030D03*
X013738Y006030D03*
X013718Y006030D03*
X013698Y006030D03*
X013678Y006030D03*
X013658Y006030D03*
X013638Y006030D03*
X013618Y006030D03*
X013598Y006030D03*
X013578Y006030D03*
X013558Y006030D03*
X013538Y006030D03*
X013518Y006030D03*
X013498Y006030D03*
X013478Y006030D03*
X013458Y006030D03*
X013438Y006030D03*
X013178Y006030D03*
X013158Y006030D03*
X013138Y006030D03*
X013118Y006030D03*
X013098Y006030D03*
X013078Y006030D03*
X013058Y006030D03*
X013038Y006030D03*
X013018Y006030D03*
X012998Y006030D03*
X012978Y006030D03*
X012958Y006030D03*
X012938Y006030D03*
X012738Y006030D03*
X012718Y006030D03*
X012698Y006030D03*
X012678Y006030D03*
X012658Y006030D03*
X012638Y006030D03*
X012618Y006030D03*
X012598Y006030D03*
X012578Y006030D03*
X012558Y006030D03*
X012538Y006030D03*
X012518Y006030D03*
X012498Y006030D03*
X011318Y006030D03*
X011298Y006030D03*
X011278Y006030D03*
X011258Y006030D03*
X011238Y006030D03*
X011218Y006030D03*
X011198Y006030D03*
X011178Y006030D03*
X011158Y006030D03*
X011138Y006030D03*
X011118Y006030D03*
X011098Y006030D03*
X011078Y006030D03*
X011058Y006030D03*
X011038Y006030D03*
X011018Y006030D03*
X010998Y006030D03*
X010978Y006030D03*
D144*
X013184Y005344D03*
X013191Y005344D03*
X013204Y005344D03*
X013211Y005344D03*
X013224Y005344D03*
X013231Y005344D03*
X013244Y005344D03*
X013251Y005344D03*
X013264Y005344D03*
X013271Y005344D03*
X013284Y005344D03*
X013291Y005344D03*
X013304Y005344D03*
X013311Y005344D03*
X013324Y005344D03*
X013331Y005344D03*
X013344Y005344D03*
X013351Y005344D03*
X013364Y005344D03*
X013371Y005344D03*
X013384Y005344D03*
X013391Y005344D03*
X013404Y005344D03*
X013411Y005344D03*
X013424Y005344D03*
X013431Y005344D03*
X013431Y006717D03*
X013424Y006717D03*
X013411Y006717D03*
X013404Y006717D03*
X013391Y006717D03*
X013384Y006717D03*
X013371Y006717D03*
X013364Y006717D03*
X013351Y006717D03*
X013344Y006717D03*
X013331Y006717D03*
X013324Y006717D03*
X013311Y006717D03*
X013304Y006717D03*
X013291Y006717D03*
X013284Y006717D03*
X013271Y006717D03*
X013264Y006717D03*
X013251Y006717D03*
X013244Y006717D03*
X013231Y006717D03*
X013224Y006717D03*
X013211Y006717D03*
X013204Y006717D03*
X013191Y006717D03*
X013184Y006717D03*
D145*
X013198Y006717D03*
X013218Y006717D03*
X013238Y006717D03*
X013258Y006717D03*
X013278Y006717D03*
X013298Y006717D03*
X013318Y006717D03*
X013338Y006717D03*
X013358Y006717D03*
X013378Y006717D03*
X013398Y006717D03*
X013418Y006717D03*
X013418Y005344D03*
X013398Y005344D03*
X013378Y005344D03*
X013358Y005344D03*
X013338Y005344D03*
X013318Y005344D03*
X013298Y005344D03*
X013278Y005344D03*
X013258Y005344D03*
X013238Y005344D03*
X013218Y005344D03*
X013198Y005344D03*
D146*
X012991Y007710D03*
D147*
X012984Y007710D03*
D148*
X012978Y007711D03*
D149*
X012971Y007714D03*
D150*
X012964Y007711D03*
D151*
X012958Y007710D03*
D152*
X012951Y007710D03*
D153*
X012944Y007714D03*
D154*
X012938Y007714D03*
D155*
X012931Y007710D03*
D156*
X012924Y006494D03*
X012911Y006494D03*
D157*
X012918Y006494D03*
D158*
X012904Y006497D03*
X012891Y006497D03*
X012884Y006497D03*
X012871Y006497D03*
X012864Y006497D03*
X012851Y006497D03*
X012844Y006497D03*
X012831Y006497D03*
X012824Y006497D03*
X012811Y006497D03*
X012804Y006497D03*
X012791Y006497D03*
X012784Y006497D03*
X012771Y006497D03*
X012764Y006497D03*
X012751Y006497D03*
D159*
X012758Y006497D03*
X012778Y006497D03*
X012798Y006497D03*
X012818Y006497D03*
X012838Y006497D03*
X012858Y006497D03*
X012878Y006497D03*
X012898Y006497D03*
D160*
X012744Y007714D03*
X012731Y007714D03*
X012724Y007714D03*
X012711Y007714D03*
X012704Y007714D03*
X012691Y007714D03*
X012684Y007714D03*
X012671Y007714D03*
X012664Y007714D03*
X012651Y007714D03*
X012644Y007714D03*
X012631Y007714D03*
X012624Y007714D03*
X012611Y007714D03*
X012604Y007714D03*
X012591Y007714D03*
X012584Y007714D03*
X012571Y007714D03*
X012564Y007714D03*
X012551Y007714D03*
D161*
X012558Y007714D03*
X012578Y007714D03*
X012598Y007714D03*
X012618Y007714D03*
X012638Y007714D03*
X012658Y007714D03*
X012678Y007714D03*
X012698Y007714D03*
X012718Y007714D03*
X012738Y007714D03*
D162*
X012544Y007711D03*
D163*
X012538Y007714D03*
D164*
X012531Y007714D03*
D165*
X012524Y007710D03*
D166*
X012518Y007710D03*
D167*
X012511Y007714D03*
D168*
X012504Y007710D03*
D169*
X012498Y007710D03*
D170*
X012491Y007714D03*
D171*
X012484Y005537D03*
X012471Y005537D03*
X012464Y005537D03*
X012451Y005537D03*
X012444Y005537D03*
X012431Y005537D03*
X012424Y005537D03*
X012411Y005537D03*
X012404Y005537D03*
X012391Y005537D03*
X012384Y005537D03*
X012371Y005537D03*
X012364Y005537D03*
X012351Y005537D03*
X012344Y005537D03*
X012331Y005537D03*
X012324Y005537D03*
X012311Y005537D03*
X012304Y005537D03*
X012291Y005537D03*
X012284Y005537D03*
X012271Y005537D03*
X012264Y005537D03*
X012251Y005537D03*
X012244Y005537D03*
X012231Y005537D03*
X012224Y005537D03*
X012211Y005537D03*
X012204Y005537D03*
X012191Y005537D03*
X012184Y005537D03*
X012171Y005537D03*
X012164Y005537D03*
X012151Y005537D03*
X012144Y005537D03*
X012131Y005537D03*
X012124Y005537D03*
X012111Y005537D03*
X012104Y005537D03*
X012091Y005537D03*
X012084Y005537D03*
X012071Y005537D03*
X012064Y005537D03*
X012051Y005537D03*
X012044Y005537D03*
X012031Y005537D03*
X012024Y005537D03*
X011784Y005537D03*
X011771Y005537D03*
X011764Y005537D03*
X011751Y005537D03*
X011744Y005537D03*
X011731Y005537D03*
X011724Y005537D03*
X011711Y005537D03*
X011704Y005537D03*
X011691Y005537D03*
X011684Y005537D03*
X011671Y005537D03*
X011664Y005537D03*
X011651Y005537D03*
X011644Y005537D03*
X011631Y005537D03*
X011624Y005537D03*
X011611Y005537D03*
X011604Y005537D03*
X011591Y005537D03*
X011584Y005537D03*
X011571Y005537D03*
X011564Y005537D03*
X011551Y005537D03*
X011544Y005537D03*
X011531Y005537D03*
X011524Y005537D03*
X011511Y005537D03*
X011504Y005537D03*
X011491Y005537D03*
X011484Y005537D03*
X011471Y005537D03*
X011464Y005537D03*
X011451Y005537D03*
X011444Y005537D03*
X011431Y005537D03*
X011424Y005537D03*
X011411Y005537D03*
X011404Y005537D03*
X011391Y005537D03*
X011384Y005537D03*
X011371Y005537D03*
X011364Y005537D03*
X011351Y005537D03*
X011344Y005537D03*
X011331Y005537D03*
D172*
X011331Y006527D03*
X011344Y006527D03*
X011351Y006527D03*
X011364Y006527D03*
X011371Y006527D03*
X011384Y006527D03*
X011391Y006527D03*
X011404Y006527D03*
X011411Y006527D03*
X011424Y006527D03*
X011431Y006527D03*
X011444Y006527D03*
X011451Y006527D03*
X011464Y006527D03*
X011471Y006527D03*
X011484Y006527D03*
X011491Y006527D03*
X011504Y006527D03*
X011511Y006527D03*
X011524Y006527D03*
X011531Y006527D03*
X011544Y006527D03*
X011551Y006527D03*
X011564Y006527D03*
X011571Y006527D03*
X011584Y006527D03*
X011591Y006527D03*
X011604Y006527D03*
X011611Y006527D03*
X011624Y006527D03*
X011631Y006527D03*
X011644Y006527D03*
X011651Y006527D03*
X011664Y006527D03*
X011671Y006527D03*
X011684Y006527D03*
X011691Y006527D03*
X011704Y006527D03*
X011711Y006527D03*
X011724Y006527D03*
X011731Y006527D03*
X011744Y006527D03*
X011751Y006527D03*
X011764Y006527D03*
X011771Y006527D03*
X011784Y006527D03*
X012024Y006527D03*
X012031Y006527D03*
X012044Y006527D03*
X012051Y006527D03*
X012064Y006527D03*
X012071Y006527D03*
X012084Y006527D03*
X012091Y006527D03*
X012104Y006527D03*
X012111Y006527D03*
X012124Y006527D03*
X012131Y006527D03*
X012144Y006527D03*
X012151Y006527D03*
X012164Y006527D03*
X012171Y006527D03*
X012184Y006527D03*
X012191Y006527D03*
X012204Y006527D03*
X012211Y006527D03*
X012224Y006527D03*
X012231Y006527D03*
X012244Y006527D03*
X012251Y006527D03*
X012264Y006527D03*
X012271Y006527D03*
X012284Y006527D03*
X012291Y006527D03*
X012304Y006527D03*
X012311Y006527D03*
X012324Y006527D03*
X012331Y006527D03*
X012344Y006527D03*
X012351Y006527D03*
X012364Y006527D03*
X012371Y006527D03*
X012384Y006527D03*
X012391Y006527D03*
X012404Y006527D03*
X012411Y006527D03*
X012424Y006527D03*
X012431Y006527D03*
X012444Y006527D03*
X012451Y006527D03*
X012464Y006527D03*
X012471Y006527D03*
X012484Y006527D03*
D173*
X012484Y007710D03*
D174*
X012478Y005537D03*
X012458Y005537D03*
X012438Y005537D03*
X012418Y005537D03*
X012398Y005537D03*
X012378Y005537D03*
X012358Y005537D03*
X012338Y005537D03*
X012318Y005537D03*
X012298Y005537D03*
X012278Y005537D03*
X012258Y005537D03*
X012238Y005537D03*
X012218Y005537D03*
X012198Y005537D03*
X012178Y005537D03*
X012158Y005537D03*
X012138Y005537D03*
X012118Y005537D03*
X012098Y005537D03*
X012078Y005537D03*
X012058Y005537D03*
X012038Y005537D03*
X011778Y005537D03*
X011758Y005537D03*
X011738Y005537D03*
X011718Y005537D03*
X011698Y005537D03*
X011678Y005537D03*
X011658Y005537D03*
X011638Y005537D03*
X011618Y005537D03*
X011598Y005537D03*
X011578Y005537D03*
X011558Y005537D03*
X011538Y005537D03*
X011518Y005537D03*
X011498Y005537D03*
X011478Y005537D03*
X011458Y005537D03*
X011438Y005537D03*
X011418Y005537D03*
X011398Y005537D03*
X011378Y005537D03*
X011358Y005537D03*
X011338Y005537D03*
D175*
X011338Y006527D03*
X011358Y006527D03*
X011378Y006527D03*
X011398Y006527D03*
X011418Y006527D03*
X011438Y006527D03*
X011458Y006527D03*
X011478Y006527D03*
X011498Y006527D03*
X011518Y006527D03*
X011538Y006527D03*
X011558Y006527D03*
X011578Y006527D03*
X011598Y006527D03*
X011618Y006527D03*
X011638Y006527D03*
X011658Y006527D03*
X011678Y006527D03*
X011698Y006527D03*
X011718Y006527D03*
X011738Y006527D03*
X011758Y006527D03*
X011778Y006527D03*
X012038Y006527D03*
X012058Y006527D03*
X012078Y006527D03*
X012098Y006527D03*
X012118Y006527D03*
X012138Y006527D03*
X012158Y006527D03*
X012178Y006527D03*
X012198Y006527D03*
X012218Y006527D03*
X012238Y006527D03*
X012258Y006527D03*
X012278Y006527D03*
X012298Y006527D03*
X012318Y006527D03*
X012338Y006527D03*
X012358Y006527D03*
X012378Y006527D03*
X012398Y006527D03*
X012418Y006527D03*
X012438Y006527D03*
X012458Y006527D03*
X012478Y006527D03*
X012378Y007714D03*
D176*
X012478Y007711D03*
D177*
X012471Y007710D03*
D178*
X012464Y007714D03*
D179*
X012458Y007710D03*
D180*
X012451Y007710D03*
D181*
X012444Y007714D03*
D182*
X012438Y007714D03*
D183*
X012431Y007714D03*
D184*
X012424Y007710D03*
D185*
X012418Y007710D03*
D186*
X012411Y007711D03*
D187*
X012404Y007710D03*
D188*
X012398Y007710D03*
D189*
X012391Y007714D03*
D190*
X012384Y007714D03*
D191*
X012371Y007714D03*
D192*
X012364Y007711D03*
D193*
X012358Y007710D03*
D194*
X012351Y007710D03*
D195*
X012344Y007714D03*
D196*
X012338Y007714D03*
D197*
X012331Y007710D03*
D198*
X012324Y007710D03*
D199*
X012318Y007714D03*
D200*
X012311Y007711D03*
D201*
X012304Y007710D03*
D202*
X012298Y007714D03*
D203*
X012291Y007710D03*
D204*
X012284Y007714D03*
D205*
X012278Y007711D03*
D206*
X012271Y007710D03*
D207*
X012264Y007714D03*
D208*
X012258Y007710D03*
D209*
X012251Y007714D03*
D210*
X012244Y007711D03*
D211*
X012238Y007714D03*
X010638Y006034D03*
D212*
X010644Y006030D03*
X012231Y007710D03*
D213*
X012224Y007714D03*
X010651Y006034D03*
D214*
X010658Y006030D03*
X010678Y006030D03*
X010698Y006030D03*
X010718Y006030D03*
X010738Y006030D03*
X010758Y006030D03*
X010778Y006030D03*
X010798Y006030D03*
X010818Y006030D03*
X010838Y006030D03*
X010858Y006030D03*
X010878Y006030D03*
X010898Y006030D03*
X010918Y006030D03*
X012218Y007710D03*
D215*
X012211Y007714D03*
D216*
X012204Y007711D03*
D217*
X012198Y007714D03*
D218*
X012191Y007710D03*
D219*
X012184Y007714D03*
D220*
X012178Y007714D03*
D221*
X012171Y007710D03*
D222*
X012164Y007714D03*
D223*
X012158Y007711D03*
D224*
X012151Y007711D03*
D225*
X012144Y007714D03*
D226*
X012138Y007710D03*
D227*
X012131Y007714D03*
X012124Y007714D03*
D228*
X012118Y007710D03*
D229*
X012111Y007714D03*
X012104Y007714D03*
D230*
X012098Y007711D03*
D231*
X012091Y007711D03*
D232*
X012084Y007714D03*
D233*
X012078Y007710D03*
D234*
X012071Y007710D03*
D235*
X012064Y007714D03*
D236*
X012058Y007714D03*
D237*
X012051Y007710D03*
X012044Y007710D03*
D238*
X012038Y007710D03*
D239*
X012031Y007714D03*
X012024Y007714D03*
D240*
X012018Y005317D03*
X011998Y005317D03*
X011978Y005317D03*
X011958Y005317D03*
X011938Y005317D03*
X011918Y005317D03*
X011898Y005317D03*
X011878Y005317D03*
X011858Y005317D03*
X011838Y005317D03*
X011818Y005317D03*
X011798Y005317D03*
D241*
X011798Y006747D03*
X011818Y006747D03*
X011838Y006747D03*
X011858Y006747D03*
X011878Y006747D03*
X011898Y006747D03*
X011918Y006747D03*
X011938Y006747D03*
X011958Y006747D03*
X011978Y006747D03*
X011998Y006747D03*
X012018Y006747D03*
D242*
X012018Y007711D03*
D243*
X012011Y005317D03*
X012004Y005317D03*
X011991Y005317D03*
X011984Y005317D03*
X011971Y005317D03*
X011964Y005317D03*
X011951Y005317D03*
X011944Y005317D03*
X011931Y005317D03*
X011924Y005317D03*
X011911Y005317D03*
X011904Y005317D03*
X011891Y005317D03*
X011884Y005317D03*
X011871Y005317D03*
X011864Y005317D03*
X011851Y005317D03*
X011844Y005317D03*
X011831Y005317D03*
X011824Y005317D03*
X011811Y005317D03*
X011804Y005317D03*
X011791Y005317D03*
D244*
X011791Y006747D03*
X011804Y006747D03*
X011811Y006747D03*
X011824Y006747D03*
X011831Y006747D03*
X011844Y006747D03*
X011851Y006747D03*
X011864Y006747D03*
X011871Y006747D03*
X011884Y006747D03*
X011891Y006747D03*
X011904Y006747D03*
X011911Y006747D03*
X011924Y006747D03*
X011931Y006747D03*
X011944Y006747D03*
X011951Y006747D03*
X011964Y006747D03*
X011971Y006747D03*
X011984Y006747D03*
X011991Y006747D03*
X012004Y006747D03*
X012011Y006747D03*
D245*
X012011Y007711D03*
X012004Y007711D03*
D246*
X011998Y007714D03*
D247*
X011991Y007714D03*
D248*
X011984Y007710D03*
X011971Y007710D03*
X011964Y007710D03*
D249*
X011978Y007710D03*
D250*
X011958Y007714D03*
X011938Y007714D03*
D251*
X011944Y007714D03*
X011951Y007714D03*
D252*
X011931Y007710D03*
X011924Y007710D03*
X011911Y007710D03*
X011904Y007710D03*
X011891Y007710D03*
D253*
X011898Y007710D03*
X011918Y007710D03*
D254*
X011884Y007714D03*
X011871Y007714D03*
X011864Y007714D03*
X011851Y007714D03*
X011844Y007714D03*
D255*
X011858Y007714D03*
X011878Y007714D03*
D256*
X011784Y007714D03*
D257*
X011778Y007714D03*
D258*
X011771Y007711D03*
X011631Y007711D03*
D259*
X011764Y007710D03*
D260*
X011758Y007710D03*
D261*
X011751Y007711D03*
X011651Y007711D03*
D262*
X011744Y007714D03*
D263*
X011738Y007710D03*
D264*
X011731Y007714D03*
X011724Y007714D03*
X011671Y007714D03*
D265*
X011698Y007710D03*
X011718Y007710D03*
D266*
X011711Y007710D03*
X011704Y007710D03*
X011691Y007710D03*
X011684Y007710D03*
D267*
X011678Y007714D03*
D268*
X011664Y007710D03*
D269*
X011658Y007714D03*
D270*
X011644Y007710D03*
D271*
X011638Y007710D03*
D272*
X011624Y007714D03*
D273*
X011618Y007714D03*
D274*
X011611Y007980D03*
X011604Y007980D03*
X011591Y007980D03*
X011584Y007980D03*
X011571Y007980D03*
X011564Y007980D03*
X011551Y007980D03*
X011544Y007980D03*
X011531Y007980D03*
X011524Y007980D03*
X011511Y007980D03*
X011504Y007980D03*
X011491Y007980D03*
X011484Y007980D03*
X011471Y007980D03*
X011464Y007980D03*
X011451Y007980D03*
X011444Y007980D03*
X011431Y007980D03*
X011424Y007980D03*
X011411Y007980D03*
X011404Y007980D03*
X011391Y007980D03*
X011384Y007980D03*
X011371Y007980D03*
X011364Y007980D03*
X011351Y007980D03*
X011344Y007980D03*
X011331Y007980D03*
X011324Y007980D03*
X011311Y007980D03*
X011304Y007980D03*
X011291Y007980D03*
X011284Y007980D03*
X011271Y007980D03*
X011264Y007980D03*
X011251Y007980D03*
X011244Y007980D03*
X011231Y007980D03*
X011224Y007980D03*
X011211Y007980D03*
X011204Y007980D03*
X011204Y007440D03*
X011211Y007440D03*
X011224Y007440D03*
X011231Y007440D03*
X011244Y007440D03*
X011251Y007440D03*
X011264Y007440D03*
X011271Y007440D03*
X011284Y007440D03*
X011291Y007440D03*
X011304Y007440D03*
X011311Y007440D03*
X011324Y007440D03*
X011331Y007440D03*
X011344Y007440D03*
X011351Y007440D03*
X011364Y007440D03*
X011371Y007440D03*
X011384Y007440D03*
X011391Y007440D03*
X011404Y007440D03*
X011411Y007440D03*
X011424Y007440D03*
X011431Y007440D03*
X011444Y007440D03*
X011451Y007440D03*
X011464Y007440D03*
X011471Y007440D03*
X011484Y007440D03*
X011491Y007440D03*
X011504Y007440D03*
X011511Y007440D03*
X011524Y007440D03*
X011531Y007440D03*
X011544Y007440D03*
X011551Y007440D03*
X011564Y007440D03*
X011571Y007440D03*
X011584Y007440D03*
X011591Y007440D03*
X011604Y007440D03*
X011611Y007440D03*
D275*
X011598Y007440D03*
X011578Y007440D03*
X011558Y007440D03*
X011538Y007440D03*
X011518Y007440D03*
X011498Y007440D03*
X011478Y007440D03*
X011458Y007440D03*
X011438Y007440D03*
X011418Y007440D03*
X011398Y007440D03*
X011378Y007440D03*
X011358Y007440D03*
X011338Y007440D03*
X011318Y007440D03*
X011298Y007440D03*
X011278Y007440D03*
X011258Y007440D03*
X011238Y007440D03*
X011218Y007440D03*
X011198Y007440D03*
X011198Y007980D03*
X011218Y007980D03*
X011238Y007980D03*
X011258Y007980D03*
X011278Y007980D03*
X011298Y007980D03*
X011318Y007980D03*
X011338Y007980D03*
X011358Y007980D03*
X011378Y007980D03*
X011398Y007980D03*
X011418Y007980D03*
X011438Y007980D03*
X011458Y007980D03*
X011478Y007980D03*
X011498Y007980D03*
X011518Y007980D03*
X011538Y007980D03*
X011558Y007980D03*
X011578Y007980D03*
X011598Y007980D03*
D276*
X011191Y007984D03*
X011191Y007444D03*
D277*
X011184Y007441D03*
X011184Y007981D03*
D278*
X011178Y007444D03*
D279*
X011178Y007981D03*
D280*
X011171Y007980D03*
X011171Y007440D03*
D281*
X011164Y007444D03*
X011164Y007984D03*
D282*
X011158Y007980D03*
X011158Y007440D03*
D283*
X011151Y007441D03*
X011151Y007981D03*
D284*
X011144Y007980D03*
X011144Y007440D03*
D285*
X011138Y007440D03*
X011138Y007980D03*
D286*
X011131Y007984D03*
X011131Y007444D03*
D287*
X011124Y007440D03*
X011124Y007980D03*
D288*
X011118Y007984D03*
X011118Y007444D03*
D289*
X011111Y007444D03*
D290*
X011111Y007981D03*
D291*
X010964Y006031D03*
D292*
X010958Y006034D03*
D293*
X010944Y006030D03*
D294*
X010938Y006031D03*
D295*
X010931Y006034D03*
D296*
X010924Y006030D03*
D297*
X010911Y006030D03*
X010904Y006030D03*
X010891Y006030D03*
X010884Y006030D03*
X010871Y006030D03*
X010864Y006030D03*
X010851Y006030D03*
X010844Y006030D03*
X010831Y006030D03*
X010824Y006030D03*
X010811Y006030D03*
X010804Y006030D03*
X010791Y006030D03*
X010784Y006030D03*
X010771Y006030D03*
X010764Y006030D03*
X010751Y006030D03*
X010744Y006030D03*
X010731Y006030D03*
X010724Y006030D03*
X010711Y006030D03*
X010704Y006030D03*
X010691Y006030D03*
X010684Y006030D03*
X010671Y006030D03*
X010664Y006030D03*
D298*
X010631Y006030D03*
D299*
X004636Y006381D02*
X004582Y006381D01*
X004576Y006154D02*
X004576Y006101D01*
X004602Y006127D02*
X004549Y006127D01*
D300*
X017939Y011928D03*
D301*
X017939Y011954D03*
X017939Y011980D03*
X017939Y013165D03*
X017939Y013191D03*
X017939Y013217D03*
D302*
X018676Y012743D03*
X018650Y012691D03*
X018729Y012796D03*
X017729Y012507D03*
X017729Y012480D03*
X016018Y012401D03*
X015729Y012559D03*
X014466Y012559D03*
X014466Y012533D03*
X014466Y012507D03*
X014466Y012480D03*
X014466Y012454D03*
X014466Y012401D03*
X014466Y012375D03*
X014466Y012349D03*
X014466Y012322D03*
X014466Y012296D03*
X014466Y012243D03*
X014466Y012217D03*
X014466Y012191D03*
X014466Y012165D03*
X014466Y012138D03*
X014466Y012112D03*
X014466Y012059D03*
X014466Y012033D03*
X014466Y012007D03*
X014466Y012612D03*
X014466Y012638D03*
X014466Y012665D03*
X014466Y012691D03*
X014466Y012717D03*
X014466Y012743D03*
X014466Y012796D03*
X014466Y012822D03*
X014466Y012849D03*
X014466Y012875D03*
X014466Y012901D03*
X014466Y012954D03*
X014466Y012980D03*
X014466Y013007D03*
X014466Y013033D03*
X014466Y013059D03*
X014466Y013112D03*
X014466Y013138D03*
X020045Y012665D03*
X020413Y012480D03*
X021413Y012480D03*
X021413Y012454D03*
X021413Y012401D03*
X021413Y012375D03*
X021413Y012349D03*
X021413Y012322D03*
X021413Y012296D03*
X021413Y012243D03*
X021413Y012217D03*
X021413Y012191D03*
X021413Y012165D03*
X021413Y012138D03*
X021413Y012112D03*
X021413Y012059D03*
X021413Y012033D03*
X021413Y012007D03*
X021413Y012507D03*
X021413Y012533D03*
X021413Y012559D03*
X021413Y012612D03*
X021413Y012638D03*
X021413Y012665D03*
X021413Y012691D03*
X021413Y012717D03*
X021413Y012743D03*
X021413Y012796D03*
X021413Y012822D03*
X021413Y012849D03*
X021413Y012875D03*
X021413Y012901D03*
X021413Y012954D03*
X021413Y012980D03*
X021413Y013007D03*
X021413Y013033D03*
X021413Y013059D03*
X021413Y013112D03*
X021413Y013138D03*
D303*
X021413Y013086D03*
X021413Y012928D03*
X021413Y012770D03*
X021413Y012586D03*
X021413Y012428D03*
X021413Y012270D03*
X021413Y012086D03*
X018703Y012770D03*
X016018Y012428D03*
X015729Y012586D03*
X014466Y012586D03*
X014466Y012428D03*
X014466Y012270D03*
X014466Y012086D03*
X014466Y012770D03*
X014466Y012928D03*
X014466Y013086D03*
D304*
X018637Y012586D03*
X019216Y012586D03*
X020663Y012086D03*
D305*
X020018Y012086D03*
X018597Y012428D03*
D306*
X017058Y012086D03*
D307*
X017676Y012322D03*
X018597Y012401D03*
X018597Y012507D03*
X018597Y012533D03*
X019913Y012165D03*
X020702Y012112D03*
X020702Y013033D03*
X019992Y013033D03*
D308*
X020137Y012401D03*
X019979Y012112D03*
X019216Y012454D03*
X019216Y012480D03*
X019216Y012507D03*
X019216Y012533D03*
X019216Y012559D03*
X019216Y012612D03*
X019216Y012638D03*
X019216Y012665D03*
X017321Y012349D03*
D309*
X017044Y012138D03*
X017044Y012112D03*
X017044Y013007D03*
X017044Y013033D03*
D310*
X017347Y012743D03*
X017636Y012743D03*
X017689Y012375D03*
X017689Y012349D03*
X017347Y012401D03*
X018584Y012454D03*
X018584Y012480D03*
X018636Y012612D03*
X019847Y012901D03*
X019926Y012980D03*
X020031Y013059D03*
X020136Y012743D03*
X020215Y012454D03*
X020610Y012454D03*
X020531Y012743D03*
X020768Y012980D03*
X020742Y013007D03*
X020794Y012954D03*
X020847Y012901D03*
X020663Y013059D03*
X020847Y012243D03*
X020821Y012217D03*
X020794Y012191D03*
X020768Y012165D03*
X020742Y012138D03*
X016084Y012322D03*
X016005Y012559D03*
D311*
X017334Y012375D03*
X019939Y012138D03*
X019939Y013007D03*
D312*
X017031Y012980D03*
X017031Y012165D03*
D313*
X016492Y012559D03*
X015992Y012533D03*
X015992Y012507D03*
X015729Y012533D03*
X018413Y012743D03*
X018650Y012638D03*
X018913Y012665D03*
X018913Y012691D03*
X018913Y012507D03*
X019808Y012296D03*
X019887Y012191D03*
X019808Y012849D03*
X019887Y012954D03*
X020650Y012480D03*
X020913Y012349D03*
X020887Y012296D03*
X020913Y012796D03*
X020887Y012822D03*
X020887Y012849D03*
D314*
X017018Y012954D03*
X017018Y012217D03*
X017018Y012191D03*
D315*
X017360Y012691D03*
X017360Y012717D03*
X017623Y012717D03*
X019755Y012717D03*
X019834Y012875D03*
X020044Y012454D03*
X020255Y012480D03*
X020255Y012665D03*
X020439Y012454D03*
X020939Y012717D03*
X020860Y012875D03*
X019860Y012217D03*
X019834Y012243D03*
X019755Y012401D03*
D316*
X017005Y012243D03*
X017005Y012875D03*
X017005Y012901D03*
D317*
X017360Y012428D03*
X019755Y012428D03*
X019860Y012928D03*
X020939Y012428D03*
X020860Y012270D03*
D318*
X019808Y012270D03*
X018913Y012428D03*
D319*
X017005Y012270D03*
D320*
X016992Y012296D03*
X016992Y012849D03*
D321*
X017374Y012665D03*
X017374Y012638D03*
X017374Y012612D03*
X017374Y012533D03*
X017374Y012507D03*
X017374Y012480D03*
X017374Y012454D03*
X017716Y012454D03*
X017953Y012480D03*
X017953Y012507D03*
X017953Y012533D03*
X017953Y012559D03*
X018295Y012533D03*
X018295Y012507D03*
X018295Y012480D03*
X018426Y012717D03*
X018637Y012665D03*
X018926Y012638D03*
X018926Y012717D03*
X019742Y012691D03*
X019742Y012665D03*
X019742Y012638D03*
X019742Y012612D03*
X019742Y012559D03*
X019742Y012533D03*
X019742Y012507D03*
X019742Y012480D03*
X019742Y012454D03*
X019795Y012822D03*
X020637Y012665D03*
X020663Y012638D03*
X020663Y012612D03*
X020663Y012559D03*
X020663Y012533D03*
X020663Y012507D03*
X020926Y012401D03*
X020926Y012375D03*
X020900Y012322D03*
X020953Y012454D03*
X020953Y012480D03*
X020953Y012507D03*
X020953Y012533D03*
X020953Y012559D03*
X020953Y012612D03*
X020953Y012638D03*
X020953Y012665D03*
X020953Y012691D03*
X020926Y012743D03*
X016242Y012717D03*
X016005Y012480D03*
X016005Y012454D03*
X016058Y012349D03*
D322*
X017702Y012401D03*
X019781Y012349D03*
X019781Y012322D03*
X019781Y012796D03*
D323*
X020137Y012717D03*
X020532Y012717D03*
X019242Y012796D03*
X019242Y012349D03*
X019242Y012322D03*
X018032Y012796D03*
X016321Y012454D03*
X016032Y012612D03*
X015953Y012796D03*
D324*
X018650Y012322D03*
D325*
X018124Y012322D03*
X018124Y012349D03*
X018124Y012375D03*
X018124Y012401D03*
X018124Y012454D03*
D326*
X017281Y012322D03*
D327*
X016676Y012322D03*
D328*
X016413Y012507D03*
X015729Y012322D03*
X018045Y012743D03*
D329*
X015031Y012349D03*
X015031Y012322D03*
D330*
X015729Y012349D03*
X015729Y012375D03*
X018624Y012349D03*
X019229Y012375D03*
X019229Y012401D03*
X019229Y012691D03*
X019229Y012717D03*
X019229Y012743D03*
D331*
X016992Y012559D03*
X016992Y012533D03*
X016676Y012401D03*
X016676Y012375D03*
X016676Y012349D03*
X016676Y012691D03*
X016676Y012717D03*
X016071Y012638D03*
D332*
X016031Y012375D03*
X017031Y012717D03*
X017610Y012691D03*
X017610Y012665D03*
X019768Y012743D03*
X019768Y012375D03*
X020268Y012507D03*
X020268Y012533D03*
X020268Y012559D03*
X020268Y012612D03*
X020268Y012638D03*
D333*
X020531Y012401D03*
X018610Y012375D03*
X018610Y012559D03*
X018426Y012796D03*
X016452Y012533D03*
D334*
X015044Y012401D03*
X015044Y012375D03*
D335*
X015729Y012401D03*
X017650Y012796D03*
D336*
X015953Y012770D03*
X020137Y012428D03*
X020532Y012428D03*
D337*
X019229Y012428D03*
X019229Y012770D03*
D338*
X018124Y012428D03*
D339*
X017716Y012428D03*
X019742Y012586D03*
X020663Y012586D03*
X020953Y012586D03*
X020926Y012770D03*
D340*
X020821Y012928D03*
X018426Y012770D03*
X017636Y012770D03*
X017031Y012428D03*
X016294Y012428D03*
D341*
X016676Y012428D03*
D342*
X015044Y012428D03*
D343*
X018900Y012454D03*
X018900Y012480D03*
D344*
X016807Y012454D03*
D345*
X015058Y012454D03*
X015058Y012480D03*
D346*
X018426Y012691D03*
X020031Y012480D03*
X020426Y012665D03*
D347*
X016979Y012507D03*
X016979Y012480D03*
D348*
X016386Y012480D03*
X018071Y012691D03*
D349*
X015071Y012559D03*
X015071Y012533D03*
X015071Y012507D03*
D350*
X015716Y012612D03*
X017584Y012559D03*
X017742Y012559D03*
X017742Y012533D03*
X018663Y012717D03*
D351*
X017571Y012533D03*
D352*
X017597Y012612D03*
X017597Y012638D03*
X017387Y012559D03*
X018282Y012559D03*
D353*
X019768Y012770D03*
X020268Y012586D03*
D354*
X018111Y012586D03*
X016663Y012770D03*
D355*
X017755Y012586D03*
D356*
X017584Y012586D03*
D357*
X017387Y012586D03*
D358*
X016821Y012586D03*
D359*
X016005Y012586D03*
D360*
X015084Y012586D03*
D361*
X018097Y012612D03*
D362*
X017755Y012612D03*
D363*
X016821Y012612D03*
D364*
X015084Y012612D03*
D365*
X018084Y012638D03*
X018084Y012665D03*
D366*
X016821Y012665D03*
X016821Y012638D03*
D367*
X015729Y012638D03*
X015729Y012665D03*
D368*
X015097Y012665D03*
X015097Y012691D03*
X015097Y012638D03*
D369*
X016110Y012665D03*
X016110Y012691D03*
D370*
X020136Y012691D03*
X020531Y012691D03*
D371*
X017018Y012691D03*
D372*
X018058Y012717D03*
D373*
X017308Y012796D03*
X015966Y012743D03*
X015966Y012717D03*
D374*
X015110Y012717D03*
X015110Y012743D03*
D375*
X016663Y012743D03*
D376*
X018045Y012770D03*
D377*
X017334Y012770D03*
D378*
X015110Y012770D03*
D379*
X016650Y012796D03*
D380*
X015123Y012796D03*
D381*
X018242Y012822D03*
D382*
X016663Y012822D03*
D383*
X015400Y012822D03*
D384*
X017018Y012928D03*
D385*
X013268Y004820D02*
X013268Y004500D01*
X013375Y004500D02*
X013161Y004500D01*
X013007Y004500D02*
X012793Y004714D01*
X012793Y004767D01*
X012846Y004820D01*
X012953Y004820D01*
X013007Y004767D01*
X013268Y004820D02*
X013375Y004714D01*
X013007Y004500D02*
X012793Y004500D01*
X012638Y004660D02*
X012425Y004660D01*
X012270Y004767D02*
X012217Y004820D01*
X012110Y004820D01*
X012056Y004767D01*
X012056Y004714D01*
X012270Y004500D01*
X012056Y004500D01*
X011902Y004553D02*
X011902Y004767D01*
X011848Y004820D01*
X011742Y004820D01*
X011688Y004767D01*
X011902Y004553D01*
X011848Y004500D01*
X011742Y004500D01*
X011688Y004553D01*
X011688Y004767D01*
X011533Y004820D02*
X011533Y004607D01*
X011427Y004500D01*
X011320Y004607D01*
X011320Y004820D01*
D386*
X007351Y016188D03*
D387*
X007688Y017008D02*
X007007Y017008D01*
X007007Y017009D02*
X007688Y017009D01*
X007688Y017010D02*
X007007Y017010D01*
X007007Y017011D02*
X007688Y017011D01*
X007688Y017012D02*
X007007Y017012D01*
X007007Y017013D02*
X007688Y017013D01*
X007688Y017014D02*
X007007Y017014D01*
X007007Y017015D02*
X007688Y017015D01*
X007688Y017016D02*
X007007Y017016D01*
X007007Y017017D02*
X007688Y017017D01*
X007688Y017018D02*
X007007Y017018D01*
X007007Y017019D02*
X007688Y017019D01*
X007688Y017020D02*
X007007Y017020D01*
X007007Y017021D02*
X007688Y017021D01*
X007688Y017022D02*
X007007Y017022D01*
X007007Y017023D02*
X007688Y017023D01*
X007688Y017024D02*
X007007Y017024D01*
X007007Y017025D02*
X007688Y017025D01*
X007688Y017026D02*
X007007Y017026D01*
X007007Y017027D02*
X007688Y017027D01*
X007688Y017028D02*
X007007Y017028D01*
X007007Y017029D02*
X007688Y017029D01*
X007688Y017030D02*
X007007Y017030D01*
X007007Y017031D02*
X007688Y017031D01*
X007688Y017032D02*
X007007Y017032D01*
X007007Y017033D02*
X007688Y017033D01*
X007688Y017034D02*
X007007Y017034D01*
X007007Y017035D02*
X007688Y017035D01*
X007688Y017036D02*
X007007Y017036D01*
X007007Y017037D02*
X007688Y017037D01*
X007688Y017038D02*
X007007Y017038D01*
X007007Y017039D02*
X007688Y017039D01*
X007688Y017040D02*
X007007Y017040D01*
X007007Y017041D02*
X007688Y017041D01*
X007688Y017042D02*
X007007Y017042D01*
X007007Y017043D02*
X007688Y017043D01*
X007688Y017044D02*
X007007Y017044D01*
X007007Y017045D02*
X007688Y017045D01*
X007688Y017046D02*
X007007Y017046D01*
X007007Y017047D02*
X007688Y017047D01*
X007688Y017048D02*
X007007Y017048D01*
X007007Y017049D02*
X007688Y017049D01*
X007688Y017050D02*
X007007Y017050D01*
X007007Y017051D02*
X007688Y017051D01*
X007688Y017052D02*
X007007Y017052D01*
X007007Y017053D02*
X007688Y017053D01*
X007688Y017054D02*
X007007Y017054D01*
X007007Y017055D02*
X007688Y017055D01*
X007688Y017056D02*
X007007Y017056D01*
X007007Y017057D02*
X007688Y017057D01*
X007688Y017058D02*
X007007Y017058D01*
X007007Y017059D02*
X007688Y017059D01*
X007688Y017060D02*
X007007Y017060D01*
X007007Y017061D02*
X007688Y017061D01*
X007688Y017062D02*
X007007Y017062D01*
X007007Y017063D02*
X007688Y017063D01*
X007688Y017064D02*
X007007Y017064D01*
X007007Y017065D02*
X007688Y017065D01*
X007688Y017066D02*
X007007Y017066D01*
X007007Y017067D02*
X007688Y017067D01*
X007688Y017068D02*
X007007Y017068D01*
X007007Y017069D02*
X007688Y017069D01*
X007688Y017070D02*
X007007Y017070D01*
X007007Y017071D02*
X007688Y017071D01*
X007688Y017072D02*
X007007Y017072D01*
X007007Y017073D02*
X007688Y017073D01*
X007688Y017074D02*
X007007Y017074D01*
X007007Y017075D02*
X007688Y017075D01*
X007688Y017076D02*
X007007Y017076D01*
X007007Y017077D02*
X007688Y017077D01*
X007688Y017078D02*
X007007Y017078D01*
X007007Y017079D02*
X007688Y017079D01*
X007688Y017080D02*
X007007Y017080D01*
X007007Y017081D02*
X007688Y017081D01*
X007688Y017082D02*
X007007Y017082D01*
X007007Y017083D02*
X007688Y017083D01*
X007688Y017084D02*
X007007Y017084D01*
X007007Y017085D02*
X007688Y017085D01*
X007688Y017086D02*
X007007Y017086D01*
X007007Y017087D02*
X007688Y017087D01*
X007688Y017088D02*
X007007Y017088D01*
X007007Y017089D02*
X007688Y017089D01*
X007688Y017090D02*
X007007Y017090D01*
X007007Y017091D02*
X007688Y017091D01*
X007688Y017092D02*
X007007Y017092D01*
X007007Y017093D02*
X007688Y017093D01*
X007688Y017094D02*
X007007Y017094D01*
X007007Y017095D02*
X007688Y017095D01*
X007688Y017096D02*
X007007Y017096D01*
X007007Y017097D02*
X007688Y017097D01*
X007688Y017098D02*
X007007Y017098D01*
X007007Y017099D02*
X007688Y017099D01*
X007688Y017100D02*
X007007Y017100D01*
X007007Y017101D02*
X007688Y017101D01*
X007688Y017102D02*
X007007Y017102D01*
X007007Y017103D02*
X007688Y017103D01*
X007688Y017104D02*
X007007Y017104D01*
X007007Y017105D02*
X007688Y017105D01*
X007688Y017106D02*
X007007Y017106D01*
X007007Y017107D02*
X007688Y017107D01*
X007688Y017108D02*
X007007Y017108D01*
X007007Y017109D02*
X007688Y017109D01*
X007688Y017110D02*
X007007Y017110D01*
X007007Y017111D02*
X007688Y017111D01*
X007688Y017112D02*
X007007Y017112D01*
X007007Y017113D02*
X007688Y017113D01*
X007688Y017114D02*
X007007Y017114D01*
X007007Y017115D02*
X007688Y017115D01*
X007688Y017116D02*
X007007Y017116D01*
X007007Y017117D02*
X007688Y017117D01*
X007688Y017118D02*
X007007Y017118D01*
X007007Y017119D02*
X007688Y017119D01*
X007688Y017120D02*
X007007Y017120D01*
X007007Y017121D02*
X007688Y017121D01*
X007688Y017122D02*
X007007Y017122D01*
X007007Y017123D02*
X007688Y017123D01*
X007007Y017123D01*
X007007Y017124D02*
X007688Y017124D01*
X007688Y017125D02*
X007007Y017125D01*
X007007Y017126D02*
X007688Y017126D01*
X007688Y017127D02*
X007007Y017127D01*
X007007Y017128D02*
X007688Y017128D01*
X007688Y017129D02*
X007007Y017129D01*
X007007Y017130D02*
X007688Y017130D01*
X007688Y017131D02*
X007007Y017131D01*
X007007Y017132D02*
X007688Y017132D01*
X007688Y017133D02*
X007007Y017133D01*
X007007Y017134D02*
X007688Y017134D01*
X007688Y017135D02*
X007007Y017135D01*
X007007Y017136D02*
X007688Y017136D01*
X007688Y017137D02*
X007007Y017137D01*
X007007Y017138D02*
X007688Y017138D01*
X007688Y017139D02*
X007007Y017139D01*
X007007Y017140D02*
X007688Y017140D01*
X007688Y017141D02*
X007007Y017141D01*
X007007Y017142D02*
X007688Y017142D01*
X007688Y017143D02*
X007007Y017143D01*
X007007Y017144D02*
X007688Y017144D01*
X007688Y017145D02*
X007007Y017145D01*
X007007Y017146D02*
X007688Y017146D01*
X007688Y017147D02*
X007007Y017147D01*
X007007Y017148D02*
X007688Y017148D01*
X007688Y017149D02*
X007007Y017149D01*
X007007Y017150D02*
X007688Y017150D01*
X007688Y017151D02*
X007007Y017151D01*
X007007Y017152D02*
X007688Y017152D01*
X007688Y017153D02*
X007007Y017153D01*
X007007Y017154D02*
X007688Y017154D01*
X007688Y017155D02*
X007007Y017155D01*
X007007Y017156D02*
X007688Y017156D01*
X007688Y017157D02*
X007007Y017157D01*
X007007Y017158D02*
X007688Y017158D01*
X007688Y017159D02*
X007007Y017159D01*
X007007Y017160D02*
X007688Y017160D01*
X007688Y017161D02*
X007007Y017161D01*
X007007Y017162D02*
X007688Y017162D01*
X007688Y017163D02*
X007007Y017163D01*
X007007Y017164D02*
X007688Y017164D01*
X007688Y017165D02*
X007007Y017165D01*
X007007Y017166D02*
X007688Y017166D01*
X007688Y017167D02*
X007007Y017167D01*
X007007Y017168D02*
X007688Y017168D01*
X007688Y017169D02*
X007007Y017169D01*
X007007Y017170D02*
X007688Y017170D01*
X007688Y017171D02*
X007007Y017171D01*
X007007Y017172D02*
X007688Y017172D01*
X007688Y017173D02*
X007007Y017173D01*
X007007Y017174D02*
X007688Y017174D01*
X007688Y017175D02*
X007007Y017175D01*
X007007Y017176D02*
X007688Y017176D01*
X007688Y017177D02*
X007007Y017177D01*
X007007Y017178D02*
X007688Y017178D01*
X007688Y017179D02*
X007007Y017179D01*
X007007Y017180D02*
X007688Y017180D01*
X007688Y017181D02*
X007007Y017181D01*
X007007Y017182D02*
X007688Y017182D01*
X007688Y017183D02*
X007007Y017183D01*
X007007Y017184D02*
X007688Y017184D01*
X007688Y017185D02*
X007007Y017185D01*
X007007Y017186D02*
X007688Y017186D01*
X007688Y017187D02*
X007007Y017187D01*
X007007Y017188D02*
X007688Y017188D01*
X007688Y017189D02*
X007007Y017189D01*
X007007Y017190D02*
X007688Y017190D01*
X007688Y017191D02*
X007007Y017191D01*
X007007Y017192D02*
X007688Y017192D01*
X007688Y017193D02*
X007007Y017193D01*
X007007Y017194D02*
X007688Y017194D01*
X007688Y017195D02*
X007007Y017195D01*
X007007Y017196D02*
X007688Y017196D01*
X007688Y017197D02*
X007007Y017197D01*
X007007Y017198D02*
X007688Y017198D01*
X007688Y017199D02*
X007007Y017199D01*
X007007Y017200D02*
X007688Y017200D01*
X007688Y017201D02*
X007007Y017201D01*
X007007Y017202D02*
X007688Y017202D01*
X007688Y017203D02*
X007007Y017203D01*
X007007Y017204D02*
X007688Y017204D01*
X007688Y017205D02*
X007007Y017205D01*
X007007Y017206D02*
X007688Y017206D01*
X007688Y017207D02*
X007007Y017207D01*
X007007Y017208D02*
X007688Y017208D01*
X007688Y017209D02*
X007007Y017209D01*
X007007Y017210D02*
X007688Y017210D01*
X007688Y017211D02*
X007007Y017211D01*
X007007Y017212D02*
X007688Y017212D01*
X007688Y017213D02*
X007007Y017213D01*
X007007Y017214D02*
X007688Y017214D01*
X007688Y017215D02*
X007007Y017215D01*
X007007Y017216D02*
X007688Y017216D01*
X007688Y017217D02*
X007007Y017217D01*
X007007Y017218D02*
X007688Y017218D01*
X007688Y017219D02*
X007007Y017219D01*
X007007Y017220D02*
X007688Y017220D01*
X007688Y017221D02*
X007007Y017221D01*
X007007Y017222D02*
X007688Y017222D01*
X007688Y017223D02*
X007007Y017223D01*
X007007Y017224D02*
X007688Y017224D01*
X007688Y017225D02*
X007007Y017225D01*
X007007Y017226D02*
X007688Y017226D01*
X007688Y017227D02*
X007007Y017227D01*
X007007Y017228D02*
X007688Y017228D01*
X007688Y017229D02*
X007007Y017229D01*
X007007Y017230D02*
X007688Y017230D01*
X007688Y017231D02*
X007007Y017231D01*
X007007Y017232D02*
X007688Y017232D01*
X007688Y017233D02*
X007007Y017233D01*
X007007Y017234D02*
X007688Y017234D01*
X007688Y017235D02*
X007007Y017235D01*
X007007Y017236D02*
X007688Y017236D01*
X007688Y017237D02*
X007007Y017237D01*
X007007Y017238D02*
X007688Y017238D01*
X007688Y017239D02*
X007007Y017239D01*
X007007Y017240D02*
X007688Y017240D01*
X007688Y017241D02*
X007007Y017241D01*
X007007Y017242D02*
X007688Y017242D01*
X007688Y017243D02*
X007007Y017243D01*
X007007Y017244D02*
X007688Y017244D01*
X007688Y017245D02*
X007007Y017245D01*
X007007Y017246D02*
X007688Y017246D01*
X007688Y017247D02*
X007007Y017247D01*
X007007Y017248D02*
X007688Y017248D01*
X007688Y017249D02*
X007007Y017249D01*
X007007Y017250D02*
X007688Y017250D01*
X007688Y017251D02*
X007007Y017251D01*
X007007Y017252D02*
X007688Y017252D01*
X007688Y017253D02*
X007007Y017253D01*
X007007Y017254D02*
X007688Y017254D01*
X007688Y017255D02*
X007007Y017255D01*
X007007Y017256D02*
X007688Y017256D01*
X007688Y017257D02*
X007007Y017257D01*
X007007Y017258D02*
X007688Y017258D01*
X007688Y017259D02*
X007007Y017259D01*
X007007Y017260D02*
X007688Y017260D01*
X007688Y017261D02*
X007007Y017261D01*
X007007Y017262D02*
X007688Y017262D01*
X007688Y017263D02*
X007007Y017263D01*
X007007Y017264D02*
X007688Y017264D01*
X007688Y017265D02*
X007007Y017265D01*
X007007Y017266D02*
X007688Y017266D01*
X007688Y017267D02*
X007007Y017267D01*
X007007Y017268D02*
X007688Y017268D01*
X007688Y017269D02*
X007007Y017269D01*
X007007Y017270D02*
X007688Y017270D01*
X007688Y017271D02*
X007007Y017271D01*
X007007Y017272D02*
X007688Y017272D01*
X007688Y017273D02*
X007007Y017273D01*
X007007Y017274D02*
X007688Y017274D01*
X007688Y017275D02*
X007007Y017275D01*
X007007Y017276D02*
X007688Y017276D01*
X007688Y017277D02*
X007007Y017277D01*
X007007Y017278D02*
X007688Y017278D01*
X007688Y017279D02*
X007007Y017279D01*
X007007Y017280D02*
X007688Y017280D01*
X007688Y017281D02*
X007007Y017281D01*
X007007Y017282D02*
X007688Y017282D01*
X007688Y017283D02*
X007007Y017283D01*
X007007Y017284D02*
X007688Y017284D01*
X007688Y017285D02*
X007007Y017285D01*
X007007Y017286D02*
X007688Y017286D01*
X007688Y017287D02*
X007007Y017287D01*
X007007Y017288D02*
X007688Y017288D01*
X007688Y017289D02*
X007007Y017289D01*
X007007Y017290D02*
X007688Y017290D01*
X007688Y017291D02*
X007007Y017291D01*
X007007Y017292D02*
X007688Y017292D01*
X007688Y017293D02*
X007007Y017293D01*
X007007Y017294D02*
X007688Y017294D01*
X007688Y017295D02*
X007007Y017295D01*
X007007Y017296D02*
X007688Y017296D01*
X007688Y017297D02*
X007007Y017297D01*
X007007Y017298D02*
X007688Y017298D01*
X007688Y017299D02*
X007007Y017299D01*
X007007Y017300D02*
X007688Y017300D01*
X007688Y017301D02*
X007007Y017301D01*
X007007Y017302D02*
X007688Y017302D01*
X007688Y017303D02*
X007007Y017303D01*
X007007Y017304D02*
X007688Y017304D01*
X007688Y017305D02*
X007007Y017305D01*
X007007Y017306D02*
X007688Y017306D01*
X007688Y017307D02*
X007007Y017307D01*
X007007Y017308D02*
X007688Y017308D01*
X007688Y017309D02*
X007007Y017309D01*
X007007Y017310D02*
X007688Y017310D01*
X007688Y017311D02*
X007007Y017311D01*
X007007Y017312D02*
X007688Y017312D01*
X007688Y017313D02*
X007007Y017313D01*
X007007Y017314D02*
X007688Y017314D01*
X007688Y017315D02*
X007007Y017315D01*
X007007Y017316D02*
X007688Y017316D01*
X007688Y017317D02*
X007007Y017317D01*
X007007Y017318D02*
X007688Y017318D01*
X007688Y017319D02*
X007007Y017319D01*
X007007Y017320D02*
X007688Y017320D01*
X007688Y017321D02*
X007007Y017321D01*
X007007Y017322D02*
X007688Y017322D01*
X007688Y017323D02*
X007007Y017323D01*
X007007Y017324D02*
X007688Y017324D01*
X007688Y017325D02*
X007007Y017325D01*
X007007Y017326D02*
X007688Y017326D01*
X007688Y017327D02*
X007007Y017327D01*
X007007Y017328D02*
X007688Y017328D01*
X007688Y017329D02*
X007007Y017329D01*
X007007Y017330D02*
X007688Y017330D01*
X007688Y017331D02*
X007007Y017331D01*
X007007Y017332D02*
X007688Y017332D01*
X007688Y017333D02*
X007007Y017333D01*
X007007Y017334D02*
X007688Y017334D01*
X007688Y017335D02*
X007007Y017335D01*
X007007Y017336D02*
X007688Y017336D01*
X007688Y017337D02*
X007007Y017337D01*
X007007Y017338D02*
X007688Y017338D01*
X007688Y017339D02*
X007007Y017339D01*
X007007Y017340D02*
X007688Y017340D01*
X007688Y017341D02*
X007007Y017341D01*
X007007Y017342D02*
X007688Y017342D01*
X007688Y017343D02*
X007007Y017343D01*
X007007Y017344D02*
X007688Y017344D01*
X007688Y017345D02*
X007007Y017345D01*
X007007Y017346D02*
X007688Y017346D01*
X007688Y017347D02*
X007007Y017347D01*
X007007Y017348D02*
X007688Y017348D01*
X007688Y017349D02*
X007007Y017349D01*
X007007Y017350D02*
X007688Y017350D01*
X007688Y017351D02*
X007007Y017351D01*
X007007Y017352D02*
X007688Y017352D01*
X007688Y017353D02*
X007007Y017353D01*
X007007Y017354D02*
X007688Y017354D01*
X007688Y017355D02*
X007007Y017355D01*
X007007Y017356D02*
X007688Y017356D01*
X007688Y017357D02*
X007007Y017357D01*
X007007Y017358D02*
X007688Y017358D01*
X007688Y017359D02*
X007007Y017359D01*
X007007Y017360D02*
X007688Y017360D01*
X007688Y017361D02*
X007007Y017361D01*
X007007Y017362D02*
X007688Y017362D01*
X007688Y017363D02*
X007007Y017363D01*
X007007Y017364D02*
X007688Y017364D01*
X007688Y017365D02*
X007007Y017365D01*
X007007Y017366D02*
X007688Y017366D01*
X007688Y017367D02*
X007007Y017367D01*
X007007Y017368D02*
X007688Y017368D01*
X007688Y017369D02*
X007007Y017369D01*
X007007Y017370D02*
X007688Y017370D01*
X007688Y017371D02*
X007007Y017371D01*
X007007Y017372D02*
X007688Y017372D01*
X007688Y017373D02*
X007007Y017373D01*
X007007Y017374D02*
X007688Y017374D01*
X007688Y017375D02*
X007007Y017375D01*
X007007Y017376D02*
X007688Y017376D01*
X007688Y017377D02*
X007007Y017377D01*
X007007Y017378D02*
X007688Y017378D01*
X007688Y017379D02*
X007007Y017379D01*
X007007Y017380D02*
X007688Y017380D01*
X007688Y017381D02*
X007007Y017381D01*
X007007Y017382D02*
X007688Y017382D01*
X007688Y017383D02*
X007007Y017383D01*
X007007Y017384D02*
X007688Y017384D01*
X007688Y017385D02*
X007007Y017385D01*
X007007Y017386D02*
X007688Y017386D01*
X007688Y017387D02*
X007007Y017387D01*
X007007Y017388D02*
X007688Y017388D01*
X007688Y017389D02*
X007007Y017389D01*
X007007Y017390D02*
X007688Y017390D01*
X007688Y017391D02*
X007007Y017391D01*
X007007Y017392D02*
X007688Y017392D01*
X007688Y017393D02*
X007007Y017393D01*
X007007Y017394D02*
X007688Y017394D01*
X007688Y017395D02*
X007007Y017395D01*
X007007Y017396D02*
X007688Y017396D01*
X007688Y017397D02*
X007007Y017397D01*
X007007Y017398D02*
X007688Y017398D01*
X007688Y017399D02*
X007007Y017399D01*
X007007Y017400D02*
X007688Y017400D01*
X007688Y017401D02*
X007007Y017401D01*
X007007Y017402D02*
X007688Y017402D01*
X007688Y017403D02*
X007007Y017403D01*
X007007Y017404D02*
X007688Y017404D01*
X007688Y017405D02*
X007007Y017405D01*
X007007Y017406D02*
X007688Y017406D01*
X007688Y017407D02*
X007007Y017407D01*
X007007Y017408D02*
X007688Y017408D01*
X007688Y017409D02*
X007007Y017409D01*
X007007Y017410D02*
X007688Y017410D01*
X007688Y017411D02*
X007007Y017411D01*
X007007Y017412D02*
X007688Y017412D01*
X007688Y017413D02*
X007007Y017413D01*
X007007Y017414D02*
X007688Y017414D01*
X007688Y017415D02*
X007007Y017415D01*
X007007Y017416D02*
X007688Y017416D01*
X007688Y017417D02*
X007007Y017417D01*
X007007Y017418D02*
X007688Y017418D01*
X007688Y017419D02*
X007007Y017419D01*
X007007Y017420D02*
X007688Y017420D01*
X007688Y017421D02*
X007007Y017421D01*
X007007Y017422D02*
X007688Y017422D01*
X007688Y017423D02*
X007007Y017423D01*
X007007Y017424D02*
X007688Y017424D01*
X007688Y017425D02*
X007007Y017425D01*
X007007Y017426D02*
X007688Y017426D01*
X007688Y017427D02*
X007007Y017427D01*
X007007Y017428D02*
X007688Y017428D01*
X007688Y017429D02*
X007007Y017429D01*
X007007Y017430D02*
X007688Y017430D01*
X007688Y017431D02*
X007007Y017431D01*
X007007Y017432D02*
X007688Y017432D01*
X007688Y017433D02*
X007007Y017433D01*
X007007Y017434D02*
X007688Y017434D01*
X007688Y017435D02*
X007007Y017435D01*
X007007Y017436D02*
X007688Y017436D01*
X007688Y017437D02*
X007007Y017437D01*
X007007Y017438D02*
X007688Y017438D01*
X007688Y017439D02*
X007007Y017439D01*
X007007Y017440D02*
X007688Y017440D01*
X007688Y017441D02*
X007007Y017441D01*
X007007Y017442D02*
X007688Y017442D01*
X007688Y017443D02*
X007007Y017443D01*
X007007Y017444D02*
X007688Y017444D01*
X007688Y017445D02*
X007007Y017445D01*
X007007Y017446D02*
X007688Y017446D01*
X007688Y017447D02*
X007007Y017447D01*
X007007Y017448D02*
X007688Y017448D01*
X007688Y017449D02*
X007007Y017449D01*
X007007Y017450D02*
X007688Y017450D01*
X007688Y017451D02*
X007007Y017451D01*
X007007Y017452D02*
X007688Y017452D01*
X007688Y017453D02*
X007007Y017453D01*
X007007Y017454D02*
X007688Y017454D01*
X007688Y017455D02*
X007007Y017455D01*
X007007Y017456D02*
X007688Y017456D01*
X007688Y017457D02*
X007007Y017457D01*
X007007Y017458D02*
X007688Y017458D01*
X007688Y017459D02*
X007007Y017459D01*
X007007Y017460D02*
X007688Y017460D01*
X007688Y017461D02*
X007007Y017461D01*
X007007Y017462D02*
X007688Y017462D01*
X007688Y017463D02*
X007007Y017463D01*
X007007Y017464D02*
X007688Y017464D01*
X007688Y017465D02*
X007007Y017465D01*
X007007Y017466D02*
X007688Y017466D01*
X007688Y017467D02*
X007007Y017467D01*
X007007Y017468D02*
X007688Y017468D01*
X007688Y017469D02*
X007007Y017469D01*
X007007Y017470D02*
X007688Y017470D01*
X007688Y017471D02*
X007007Y017471D01*
X007007Y017472D02*
X007688Y017472D01*
X007688Y017473D02*
X007007Y017473D01*
X007007Y017474D02*
X007688Y017474D01*
X007688Y017475D02*
X007007Y017475D01*
X007007Y017476D02*
X007688Y017476D01*
X007688Y017477D02*
X007007Y017477D01*
X007007Y017478D02*
X007688Y017478D01*
X007688Y017479D02*
X007007Y017479D01*
X007007Y017480D02*
X007688Y017480D01*
X007688Y017481D02*
X007007Y017481D01*
X007007Y017482D02*
X007688Y017482D01*
X007688Y017483D02*
X007007Y017483D01*
X007007Y017484D02*
X007688Y017484D01*
X007688Y017485D02*
X007007Y017485D01*
X007007Y017486D02*
X007688Y017486D01*
X007688Y017487D02*
X007007Y017487D01*
X007007Y017488D02*
X007688Y017488D01*
X007688Y017489D02*
X007007Y017489D01*
X007007Y017490D02*
X007688Y017490D01*
X007688Y017491D02*
X007007Y017491D01*
X007007Y017492D02*
X007688Y017492D01*
X007688Y017493D02*
X007007Y017493D01*
X007007Y017494D02*
X007688Y017494D01*
X007688Y017495D02*
X007007Y017495D01*
X007007Y017496D02*
X007688Y017496D01*
X007688Y017497D02*
X007007Y017497D01*
X007007Y017498D02*
X007688Y017498D01*
X007688Y017499D02*
X007007Y017499D01*
X007007Y017500D02*
X007688Y017500D01*
X007688Y017501D02*
X007007Y017501D01*
X007007Y017502D02*
X007688Y017502D01*
X007688Y017503D02*
X007007Y017503D01*
X007007Y017504D02*
X007688Y017504D01*
X007688Y017505D02*
X007007Y017505D01*
X007007Y017506D02*
X007688Y017506D01*
X007688Y017507D02*
X007007Y017507D01*
X007007Y017508D02*
X007688Y017508D01*
X007688Y017509D02*
X007007Y017509D01*
X007007Y017510D02*
X007688Y017510D01*
X007688Y017511D02*
X007007Y017511D01*
X007007Y017512D02*
X007688Y017512D01*
X007688Y017513D02*
X007007Y017513D01*
X007007Y017514D02*
X007688Y017514D01*
X007688Y017515D02*
X007007Y017515D01*
X007007Y017516D02*
X007688Y017516D01*
X007688Y017517D02*
X007007Y017517D01*
X007007Y017518D02*
X007688Y017518D01*
X007688Y017519D02*
X007007Y017519D01*
X007007Y017520D02*
X007688Y017520D01*
X007688Y017521D02*
X007007Y017521D01*
X007007Y017522D02*
X007688Y017522D01*
X007688Y017523D02*
X007007Y017523D01*
X007007Y017524D02*
X007688Y017524D01*
X007688Y017525D02*
X007007Y017525D01*
X007007Y017526D02*
X007688Y017526D01*
X007688Y017527D02*
X007007Y017527D01*
X007007Y017528D02*
X007688Y017528D01*
X007688Y017529D02*
X007007Y017529D01*
X007007Y017530D02*
X007688Y017530D01*
X007688Y017531D02*
X007007Y017531D01*
X007007Y017532D02*
X007688Y017532D01*
X007688Y017533D02*
X007007Y017533D01*
X007007Y017534D02*
X007688Y017534D01*
X007688Y017535D02*
X007007Y017535D01*
X007007Y017536D02*
X007688Y017536D01*
X007688Y017537D02*
X007007Y017537D01*
X007007Y017538D02*
X007688Y017538D01*
X007688Y017539D02*
X007007Y017539D01*
X007007Y017540D02*
X007688Y017540D01*
X007688Y017541D02*
X007007Y017541D01*
X007007Y017542D02*
X007688Y017542D01*
X007688Y017543D02*
X007007Y017543D01*
X007007Y017544D02*
X007688Y017544D01*
X007688Y017545D02*
X007007Y017545D01*
X007007Y017546D02*
X007688Y017546D01*
X007688Y017547D02*
X007007Y017547D01*
X007007Y017548D02*
X007688Y017548D01*
X007688Y017549D02*
X007007Y017549D01*
X007007Y017550D02*
X007688Y017550D01*
X007688Y017551D02*
X007007Y017551D01*
X007007Y017552D02*
X007688Y017552D01*
X007688Y017553D02*
X007007Y017553D01*
X007007Y017554D02*
X007688Y017554D01*
X007688Y017555D02*
X007007Y017555D01*
X007007Y017556D02*
X007688Y017556D01*
X007688Y017557D02*
X007007Y017557D01*
X007007Y017558D02*
X007688Y017558D01*
X007688Y017559D02*
X007007Y017559D01*
X007007Y017560D02*
X007688Y017560D01*
X007688Y017561D02*
X007007Y017561D01*
X007007Y017562D02*
X007688Y017562D01*
X007688Y017563D02*
X007007Y017563D01*
X007007Y017564D02*
X007688Y017564D01*
X007688Y017565D02*
X007007Y017565D01*
X007007Y017566D02*
X007688Y017566D01*
X007688Y017567D02*
X007007Y017567D01*
X007007Y017568D02*
X007688Y017568D01*
X007688Y017569D02*
X007007Y017569D01*
X007007Y017570D02*
X007688Y017570D01*
X007688Y017571D02*
X007007Y017571D01*
X007007Y017572D02*
X007688Y017572D01*
X007688Y017573D02*
X007007Y017573D01*
X007007Y017574D02*
X007688Y017574D01*
X007688Y017575D02*
X007007Y017575D01*
X007007Y017576D02*
X007688Y017576D01*
X007688Y017577D02*
X007007Y017577D01*
X007007Y017578D02*
X007688Y017578D01*
X007688Y017579D02*
X007007Y017579D01*
X007007Y017580D02*
X007688Y017580D01*
X007688Y017581D02*
X007007Y017581D01*
X007007Y017582D02*
X007688Y017582D01*
X007688Y017583D02*
X007007Y017583D01*
X007007Y017584D02*
X007688Y017584D01*
X007688Y017585D02*
X007007Y017585D01*
X007007Y017586D02*
X007688Y017586D01*
X007688Y017587D02*
X007007Y017587D01*
X007007Y017588D02*
X007688Y017588D01*
X007688Y017589D02*
X007007Y017589D01*
X007007Y017590D02*
X007688Y017590D01*
X007688Y017591D02*
X007007Y017591D01*
X007007Y017592D02*
X007688Y017592D01*
X007688Y017593D02*
X007007Y017593D01*
X007007Y017594D02*
X007916Y017594D01*
X007916Y017595D02*
X007007Y017595D01*
X007007Y017596D02*
X007916Y017596D01*
X007916Y017597D02*
X007007Y017597D01*
X007007Y017598D02*
X007916Y017598D01*
X007916Y017599D02*
X007007Y017599D01*
X007007Y017600D02*
X007916Y017600D01*
X007916Y017601D02*
X007007Y017601D01*
X007007Y017602D02*
X007916Y017602D01*
X007916Y017603D02*
X007007Y017603D01*
X007007Y017604D02*
X007916Y017604D01*
X007916Y017605D02*
X007007Y017605D01*
X007007Y017606D02*
X007916Y017606D01*
X007916Y017607D02*
X007007Y017607D01*
X007007Y017608D02*
X007916Y017608D01*
X007916Y017609D02*
X007007Y017609D01*
X007007Y017610D02*
X007916Y017610D01*
X007916Y017611D02*
X007007Y017611D01*
X007007Y017612D02*
X007916Y017612D01*
X007916Y017613D02*
X007007Y017613D01*
X007007Y017614D02*
X007916Y017614D01*
X007916Y017615D02*
X007007Y017615D01*
X007007Y017616D02*
X007916Y017616D01*
X007916Y017617D02*
X007007Y017617D01*
X007007Y017618D02*
X007916Y017618D01*
X007916Y017619D02*
X007007Y017619D01*
X007007Y017620D02*
X007916Y017620D01*
X007916Y017621D02*
X007007Y017621D01*
X007007Y017622D02*
X007916Y017622D01*
X007916Y017623D02*
X007007Y017623D01*
X007007Y017624D02*
X007916Y017624D01*
X007916Y017625D02*
X007007Y017625D01*
X007007Y017626D02*
X007916Y017626D01*
X007916Y017627D02*
X007007Y017627D01*
X007007Y017628D02*
X007916Y017628D01*
X007916Y017629D02*
X007007Y017629D01*
X007007Y017630D02*
X007916Y017630D01*
X007916Y017631D02*
X007007Y017631D01*
X007007Y017632D02*
X007916Y017632D01*
X007916Y017633D02*
X007007Y017633D01*
X007007Y017634D02*
X007916Y017634D01*
X007916Y017635D02*
X007007Y017635D01*
X007007Y017636D02*
X007916Y017636D01*
X007916Y017637D02*
X007007Y017637D01*
X007007Y017638D02*
X007916Y017638D01*
X007916Y017639D02*
X007007Y017639D01*
X007007Y017640D02*
X007916Y017640D01*
X007916Y017641D02*
X007007Y017641D01*
X007007Y017642D02*
X007916Y017642D01*
X007916Y017643D02*
X007007Y017643D01*
X007007Y017644D02*
X007916Y017644D01*
X007916Y017645D02*
X007007Y017645D01*
X007007Y017646D02*
X007916Y017646D01*
X007916Y017647D02*
X007007Y017647D01*
X007007Y017648D02*
X007916Y017648D01*
X007916Y017649D02*
X007007Y017649D01*
X007007Y017650D02*
X007916Y017650D01*
X007916Y017651D02*
X007007Y017651D01*
X007007Y017652D02*
X007916Y017652D01*
X007916Y017653D02*
X007007Y017653D01*
X007007Y017654D02*
X007916Y017654D01*
X007916Y017655D02*
X007007Y017655D01*
X007007Y017656D02*
X007916Y017656D01*
X007916Y017657D02*
X007007Y017657D01*
X007007Y017658D02*
X007916Y017658D01*
X007916Y017659D02*
X007007Y017659D01*
X007007Y017660D02*
X007916Y017660D01*
X007916Y017661D02*
X007007Y017661D01*
X007007Y017662D02*
X007916Y017662D01*
X007916Y017663D02*
X007007Y017663D01*
X007007Y017664D02*
X007916Y017664D01*
X007916Y017665D02*
X007007Y017665D01*
X007007Y017666D02*
X007916Y017666D01*
X007916Y017667D02*
X007007Y017667D01*
X007007Y017668D02*
X007916Y017668D01*
X007916Y017669D02*
X007007Y017669D01*
X007007Y017670D02*
X007916Y017670D01*
X007916Y017671D02*
X007007Y017671D01*
X007007Y017672D02*
X007916Y017672D01*
X007916Y017673D02*
X007007Y017673D01*
X007007Y017674D02*
X007916Y017674D01*
X007916Y017675D02*
X007007Y017675D01*
X007007Y017676D02*
X007916Y017676D01*
M02*
