G75*
G70*
%OFA0B0*%
%FSLAX24Y24*%
%IPPOS*%
%LPD*%
%AMOC8*
5,1,8,0,0,1.08239X$1,22.5*
%
%ADD10C,0.0160*%
%ADD11C,0.0051*%
%ADD12C,0.0060*%
%ADD13C,0.0000*%
%ADD14C,0.1300*%
%ADD15C,0.0120*%
%ADD16R,0.0033X0.0033*%
%ADD17R,0.0034X0.0033*%
%ADD18R,0.0033X0.0033*%
%ADD19R,0.0034X0.0033*%
%ADD20R,0.0067X0.0033*%
%ADD21R,0.0067X0.0033*%
%ADD22R,0.0100X0.0033*%
%ADD23R,0.0133X0.0033*%
%ADD24R,0.3433X0.0033*%
%ADD25R,0.0134X0.0033*%
%ADD26R,0.2233X0.0033*%
%ADD27R,0.4267X0.0033*%
%ADD28R,0.3734X0.0033*%
%ADD29R,0.0133X0.0033*%
%ADD30R,0.0100X0.0033*%
%ADD31R,0.0134X0.0033*%
%ADD32R,0.0167X0.0033*%
%ADD33R,0.1300X0.0033*%
%ADD34R,0.0066X0.0033*%
%ADD35R,0.0533X0.0033*%
%ADD36R,0.0066X0.0033*%
%ADD37R,0.0467X0.0033*%
%ADD38R,0.9667X0.0033*%
%ADD39R,0.6600X0.0033*%
%ADD40R,0.0166X0.0033*%
%ADD41R,0.0400X0.0033*%
%ADD42R,0.0434X0.0033*%
%ADD43R,0.0434X0.0033*%
%ADD44R,0.0400X0.0033*%
%ADD45R,0.0300X0.0033*%
%ADD46R,0.0267X0.0033*%
%ADD47R,0.0500X0.0033*%
%ADD48R,0.0333X0.0033*%
%ADD49R,0.0567X0.0033*%
%ADD50R,0.0334X0.0033*%
%ADD51R,0.0266X0.0033*%
%ADD52R,0.0534X0.0033*%
%ADD53R,0.0333X0.0033*%
%ADD54R,0.0433X0.0033*%
%ADD55R,0.0166X0.0033*%
%ADD56R,0.0233X0.0033*%
%ADD57R,0.0167X0.0033*%
%ADD58R,0.1000X0.0033*%
%ADD59R,0.0633X0.0033*%
%ADD60R,0.0266X0.0033*%
%ADD61R,0.0534X0.0033*%
%ADD62R,0.0933X0.0033*%
%ADD63R,0.0367X0.0033*%
%ADD64R,0.0334X0.0033*%
%ADD65R,0.0433X0.0033*%
%ADD66R,0.0200X0.0033*%
%ADD67R,0.0234X0.0033*%
%ADD68R,0.0233X0.0033*%
%ADD69R,0.1100X0.0033*%
%ADD70R,0.0734X0.0033*%
%ADD71R,0.1000X0.0033*%
%ADD72R,0.0800X0.0033*%
%ADD73R,0.0567X0.0033*%
%ADD74R,0.1133X0.0033*%
%ADD75R,0.0767X0.0033*%
%ADD76R,0.0300X0.0033*%
%ADD77R,0.0967X0.0033*%
%ADD78R,0.0200X0.0033*%
%ADD79R,0.0800X0.0033*%
%ADD80R,0.0500X0.0033*%
%ADD81R,0.0267X0.0033*%
%ADD82R,0.0566X0.0033*%
%ADD83R,0.1100X0.0033*%
%ADD84R,0.0833X0.0033*%
%ADD85R,0.0666X0.0033*%
%ADD86R,0.0600X0.0033*%
%ADD87R,0.0733X0.0033*%
%ADD88R,0.0834X0.0033*%
%ADD89R,0.0667X0.0033*%
%ADD90R,0.0634X0.0033*%
%ADD91R,0.0700X0.0033*%
%ADD92R,0.1167X0.0033*%
%ADD93R,0.0467X0.0033*%
%ADD94R,0.0867X0.0033*%
%ADD95R,0.0900X0.0033*%
%ADD96R,0.0733X0.0033*%
%ADD97R,0.0234X0.0033*%
%ADD98R,0.0367X0.0033*%
%ADD99R,0.0366X0.0033*%
%ADD100R,0.0767X0.0033*%
%ADD101R,0.0466X0.0033*%
%ADD102R,0.0967X0.0033*%
%ADD103R,0.0766X0.0033*%
%ADD104R,0.0466X0.0033*%
%ADD105R,0.0566X0.0033*%
%ADD106R,0.1033X0.0033*%
%ADD107R,0.0366X0.0033*%
%ADD108R,0.0633X0.0033*%
%ADD109R,0.0634X0.0033*%
%ADD110R,0.1067X0.0033*%
%ADD111R,0.1067X0.0033*%
%ADD112R,0.0900X0.0033*%
%ADD113R,0.0667X0.0033*%
%ADD114R,0.0833X0.0033*%
%ADD115R,0.0600X0.0033*%
%ADD116R,0.1200X0.0033*%
%ADD117R,1.0734X0.0033*%
%ADD118R,1.0734X0.0033*%
%ADD119C,0.0070*%
%ADD120R,0.0260X0.0510*%
%ADD121R,0.0510X0.0260*%
%ADD122R,0.2140X0.0800*%
%ADD123R,0.0631X0.0827*%
%ADD124R,0.1300X0.0512*%
%ADD125R,0.0670X0.0827*%
%ADD126R,0.0640X0.1340*%
%ADD127R,0.2900X0.1600*%
%ADD128C,0.0780*%
%ADD129R,0.0400X0.0200*%
%ADD130R,0.0827X0.0631*%
%ADD131R,0.0827X0.0985*%
%ADD132R,0.0237X0.0949*%
%ADD133C,0.0434*%
%ADD134R,0.0827X0.0670*%
%ADD135R,0.0750X0.0670*%
%ADD136C,0.0780*%
%ADD137R,0.2323X0.2481*%
%ADD138R,0.0670X0.1221*%
D10*
X004642Y002930D02*
X004642Y031925D01*
X004642Y031930D02*
X004644Y032002D01*
X004650Y032074D01*
X004659Y032145D01*
X004672Y032216D01*
X004689Y032286D01*
X004709Y032355D01*
X004733Y032423D01*
X004761Y032489D01*
X004792Y032554D01*
X004826Y032618D01*
X004864Y032679D01*
X004905Y032738D01*
X004948Y032795D01*
X004995Y032850D01*
X005045Y032902D01*
X005097Y032952D01*
X005152Y032999D01*
X005209Y033042D01*
X005268Y033083D01*
X005330Y033121D01*
X005393Y033155D01*
X005458Y033186D01*
X005524Y033214D01*
X005592Y033238D01*
X005661Y033258D01*
X005731Y033275D01*
X005802Y033288D01*
X005873Y033297D01*
X005945Y033303D01*
X006017Y033305D01*
X005892Y033305D02*
X030012Y033305D01*
X029142Y032055D02*
X029144Y032118D01*
X029150Y032180D01*
X029160Y032242D01*
X029173Y032304D01*
X029191Y032364D01*
X029212Y032423D01*
X029237Y032481D01*
X029266Y032537D01*
X029298Y032591D01*
X029333Y032643D01*
X029371Y032692D01*
X029413Y032740D01*
X029457Y032784D01*
X029505Y032826D01*
X029554Y032864D01*
X029606Y032899D01*
X029660Y032931D01*
X029716Y032960D01*
X029774Y032985D01*
X029833Y033006D01*
X029893Y033024D01*
X029955Y033037D01*
X030017Y033047D01*
X030079Y033053D01*
X030142Y033055D01*
X030205Y033053D01*
X030267Y033047D01*
X030329Y033037D01*
X030391Y033024D01*
X030451Y033006D01*
X030510Y032985D01*
X030568Y032960D01*
X030624Y032931D01*
X030678Y032899D01*
X030730Y032864D01*
X030779Y032826D01*
X030827Y032784D01*
X030871Y032740D01*
X030913Y032692D01*
X030951Y032643D01*
X030986Y032591D01*
X031018Y032537D01*
X031047Y032481D01*
X031072Y032423D01*
X031093Y032364D01*
X031111Y032304D01*
X031124Y032242D01*
X031134Y032180D01*
X031140Y032118D01*
X031142Y032055D01*
X031140Y031992D01*
X031134Y031930D01*
X031124Y031868D01*
X031111Y031806D01*
X031093Y031746D01*
X031072Y031687D01*
X031047Y031629D01*
X031018Y031573D01*
X030986Y031519D01*
X030951Y031467D01*
X030913Y031418D01*
X030871Y031370D01*
X030827Y031326D01*
X030779Y031284D01*
X030730Y031246D01*
X030678Y031211D01*
X030624Y031179D01*
X030568Y031150D01*
X030510Y031125D01*
X030451Y031104D01*
X030391Y031086D01*
X030329Y031073D01*
X030267Y031063D01*
X030205Y031057D01*
X030142Y031055D01*
X030079Y031057D01*
X030017Y031063D01*
X029955Y031073D01*
X029893Y031086D01*
X029833Y031104D01*
X029774Y031125D01*
X029716Y031150D01*
X029660Y031179D01*
X029606Y031211D01*
X029554Y031246D01*
X029505Y031284D01*
X029457Y031326D01*
X029413Y031370D01*
X029371Y031418D01*
X029333Y031467D01*
X029298Y031519D01*
X029266Y031573D01*
X029237Y031629D01*
X029212Y031687D01*
X029191Y031746D01*
X029173Y031806D01*
X029160Y031868D01*
X029150Y031930D01*
X029144Y031992D01*
X029142Y032055D01*
X030017Y033305D02*
X030089Y033303D01*
X030161Y033297D01*
X030232Y033288D01*
X030303Y033275D01*
X030373Y033258D01*
X030442Y033238D01*
X030510Y033214D01*
X030576Y033186D01*
X030641Y033155D01*
X030705Y033121D01*
X030766Y033083D01*
X030825Y033042D01*
X030882Y032999D01*
X030937Y032952D01*
X030989Y032902D01*
X031039Y032850D01*
X031086Y032795D01*
X031129Y032738D01*
X031170Y032679D01*
X031208Y032618D01*
X031242Y032554D01*
X031273Y032489D01*
X031301Y032423D01*
X031325Y032355D01*
X031345Y032286D01*
X031362Y032216D01*
X031375Y032145D01*
X031384Y032074D01*
X031390Y032002D01*
X031392Y031930D01*
X031392Y002805D01*
X031392Y002930D02*
X031390Y002858D01*
X031384Y002786D01*
X031375Y002715D01*
X031362Y002644D01*
X031345Y002574D01*
X031325Y002505D01*
X031301Y002437D01*
X031273Y002371D01*
X031242Y002306D01*
X031208Y002243D01*
X031170Y002181D01*
X031129Y002122D01*
X031086Y002065D01*
X031039Y002010D01*
X030989Y001958D01*
X030937Y001908D01*
X030882Y001861D01*
X030825Y001818D01*
X030766Y001777D01*
X030705Y001739D01*
X030641Y001705D01*
X030576Y001674D01*
X030510Y001646D01*
X030442Y001622D01*
X030373Y001602D01*
X030303Y001585D01*
X030232Y001572D01*
X030161Y001563D01*
X030089Y001557D01*
X030017Y001555D01*
X022267Y001555D01*
X022195Y001557D01*
X022123Y001563D01*
X022052Y001572D01*
X021981Y001585D01*
X021911Y001602D01*
X021842Y001622D01*
X021774Y001646D01*
X021708Y001674D01*
X021643Y001705D01*
X021580Y001739D01*
X021518Y001777D01*
X021459Y001818D01*
X021402Y001861D01*
X021347Y001908D01*
X021295Y001958D01*
X021245Y002010D01*
X021198Y002065D01*
X021155Y002122D01*
X021114Y002181D01*
X021076Y002243D01*
X021042Y002306D01*
X021011Y002371D01*
X020983Y002437D01*
X020959Y002505D01*
X020939Y002574D01*
X020922Y002644D01*
X020909Y002715D01*
X020900Y002786D01*
X020894Y002858D01*
X020892Y002930D01*
X015267Y002930D01*
X015265Y002858D01*
X015259Y002786D01*
X015250Y002715D01*
X015237Y002644D01*
X015220Y002574D01*
X015200Y002505D01*
X015176Y002437D01*
X015148Y002371D01*
X015117Y002306D01*
X015083Y002243D01*
X015045Y002181D01*
X015004Y002122D01*
X014961Y002065D01*
X014914Y002010D01*
X014864Y001958D01*
X014812Y001908D01*
X014757Y001861D01*
X014700Y001818D01*
X014641Y001777D01*
X014580Y001739D01*
X014516Y001705D01*
X014451Y001674D01*
X014385Y001646D01*
X014317Y001622D01*
X014248Y001602D01*
X014178Y001585D01*
X014107Y001572D01*
X014036Y001563D01*
X013964Y001557D01*
X013892Y001555D01*
X006017Y001555D01*
X005017Y002930D02*
X005019Y002993D01*
X005025Y003055D01*
X005035Y003117D01*
X005048Y003179D01*
X005066Y003239D01*
X005087Y003298D01*
X005112Y003356D01*
X005141Y003412D01*
X005173Y003466D01*
X005208Y003518D01*
X005246Y003567D01*
X005288Y003615D01*
X005332Y003659D01*
X005380Y003701D01*
X005429Y003739D01*
X005481Y003774D01*
X005535Y003806D01*
X005591Y003835D01*
X005649Y003860D01*
X005708Y003881D01*
X005768Y003899D01*
X005830Y003912D01*
X005892Y003922D01*
X005954Y003928D01*
X006017Y003930D01*
X006080Y003928D01*
X006142Y003922D01*
X006204Y003912D01*
X006266Y003899D01*
X006326Y003881D01*
X006385Y003860D01*
X006443Y003835D01*
X006499Y003806D01*
X006553Y003774D01*
X006605Y003739D01*
X006654Y003701D01*
X006702Y003659D01*
X006746Y003615D01*
X006788Y003567D01*
X006826Y003518D01*
X006861Y003466D01*
X006893Y003412D01*
X006922Y003356D01*
X006947Y003298D01*
X006968Y003239D01*
X006986Y003179D01*
X006999Y003117D01*
X007009Y003055D01*
X007015Y002993D01*
X007017Y002930D01*
X007015Y002867D01*
X007009Y002805D01*
X006999Y002743D01*
X006986Y002681D01*
X006968Y002621D01*
X006947Y002562D01*
X006922Y002504D01*
X006893Y002448D01*
X006861Y002394D01*
X006826Y002342D01*
X006788Y002293D01*
X006746Y002245D01*
X006702Y002201D01*
X006654Y002159D01*
X006605Y002121D01*
X006553Y002086D01*
X006499Y002054D01*
X006443Y002025D01*
X006385Y002000D01*
X006326Y001979D01*
X006266Y001961D01*
X006204Y001948D01*
X006142Y001938D01*
X006080Y001932D01*
X006017Y001930D01*
X005954Y001932D01*
X005892Y001938D01*
X005830Y001948D01*
X005768Y001961D01*
X005708Y001979D01*
X005649Y002000D01*
X005591Y002025D01*
X005535Y002054D01*
X005481Y002086D01*
X005429Y002121D01*
X005380Y002159D01*
X005332Y002201D01*
X005288Y002245D01*
X005246Y002293D01*
X005208Y002342D01*
X005173Y002394D01*
X005141Y002448D01*
X005112Y002504D01*
X005087Y002562D01*
X005066Y002621D01*
X005048Y002681D01*
X005035Y002743D01*
X005025Y002805D01*
X005019Y002867D01*
X005017Y002930D01*
X005142Y002930D02*
X005144Y002989D01*
X005150Y003048D01*
X005160Y003106D01*
X005174Y003164D01*
X005191Y003220D01*
X005213Y003275D01*
X005238Y003329D01*
X005267Y003380D01*
X005299Y003430D01*
X005334Y003477D01*
X005373Y003522D01*
X005414Y003564D01*
X005458Y003603D01*
X005505Y003640D01*
X005554Y003673D01*
X005605Y003702D01*
X005658Y003728D01*
X005713Y003751D01*
X005769Y003769D01*
X005826Y003784D01*
X005885Y003795D01*
X005943Y003802D01*
X006002Y003805D01*
X006061Y003804D01*
X006120Y003799D01*
X006179Y003790D01*
X006236Y003777D01*
X006293Y003760D01*
X006348Y003740D01*
X006402Y003716D01*
X006454Y003688D01*
X006505Y003657D01*
X006553Y003622D01*
X006598Y003584D01*
X006641Y003543D01*
X006681Y003500D01*
X006718Y003454D01*
X006752Y003405D01*
X006782Y003355D01*
X006809Y003302D01*
X006832Y003248D01*
X006852Y003192D01*
X006868Y003135D01*
X006880Y003077D01*
X006888Y003019D01*
X006892Y002960D01*
X006892Y002900D01*
X006888Y002841D01*
X006880Y002783D01*
X006868Y002725D01*
X006852Y002668D01*
X006832Y002612D01*
X006809Y002558D01*
X006782Y002505D01*
X006752Y002455D01*
X006718Y002406D01*
X006681Y002360D01*
X006641Y002317D01*
X006598Y002276D01*
X006553Y002238D01*
X006505Y002203D01*
X006455Y002172D01*
X006402Y002144D01*
X006348Y002120D01*
X006293Y002100D01*
X006236Y002083D01*
X006179Y002070D01*
X006120Y002061D01*
X006061Y002056D01*
X006002Y002055D01*
X005943Y002058D01*
X005885Y002065D01*
X005826Y002076D01*
X005769Y002091D01*
X005713Y002109D01*
X005658Y002132D01*
X005605Y002158D01*
X005554Y002187D01*
X005505Y002220D01*
X005458Y002257D01*
X005414Y002296D01*
X005373Y002338D01*
X005334Y002383D01*
X005299Y002430D01*
X005267Y002480D01*
X005238Y002531D01*
X005213Y002585D01*
X005191Y002640D01*
X005174Y002696D01*
X005160Y002754D01*
X005150Y002812D01*
X005144Y002871D01*
X005142Y002930D01*
X005257Y002930D02*
X005259Y002985D01*
X005265Y003039D01*
X005275Y003093D01*
X005288Y003147D01*
X005306Y003199D01*
X005327Y003249D01*
X005352Y003298D01*
X005380Y003345D01*
X005412Y003390D01*
X005447Y003432D01*
X005484Y003472D01*
X005525Y003509D01*
X005568Y003543D01*
X005613Y003574D01*
X005661Y003601D01*
X005710Y003625D01*
X005761Y003646D01*
X005814Y003662D01*
X005867Y003675D01*
X005921Y003684D01*
X005976Y003689D01*
X006031Y003690D01*
X006086Y003687D01*
X006140Y003680D01*
X006194Y003669D01*
X006247Y003654D01*
X006298Y003636D01*
X006349Y003614D01*
X006397Y003588D01*
X006444Y003559D01*
X006488Y003527D01*
X006530Y003491D01*
X006569Y003453D01*
X006605Y003411D01*
X006638Y003368D01*
X006668Y003322D01*
X006695Y003274D01*
X006718Y003224D01*
X006737Y003173D01*
X006753Y003120D01*
X006765Y003066D01*
X006773Y003012D01*
X006777Y002957D01*
X006777Y002903D01*
X006773Y002848D01*
X006765Y002794D01*
X006753Y002740D01*
X006737Y002687D01*
X006718Y002636D01*
X006695Y002586D01*
X006668Y002538D01*
X006638Y002492D01*
X006605Y002449D01*
X006569Y002407D01*
X006530Y002369D01*
X006488Y002333D01*
X006444Y002301D01*
X006397Y002272D01*
X006349Y002246D01*
X006298Y002224D01*
X006247Y002206D01*
X006194Y002191D01*
X006140Y002180D01*
X006086Y002173D01*
X006031Y002170D01*
X005976Y002171D01*
X005921Y002176D01*
X005867Y002185D01*
X005814Y002198D01*
X005761Y002214D01*
X005710Y002235D01*
X005661Y002259D01*
X005613Y002286D01*
X005568Y002317D01*
X005525Y002351D01*
X005484Y002388D01*
X005447Y002428D01*
X005412Y002470D01*
X005380Y002515D01*
X005352Y002562D01*
X005327Y002611D01*
X005306Y002661D01*
X005288Y002713D01*
X005275Y002767D01*
X005265Y002821D01*
X005259Y002875D01*
X005257Y002930D01*
X005392Y002930D02*
X005394Y002980D01*
X005400Y003029D01*
X005410Y003078D01*
X005423Y003125D01*
X005441Y003172D01*
X005462Y003217D01*
X005486Y003260D01*
X005514Y003301D01*
X005545Y003340D01*
X005579Y003376D01*
X005616Y003410D01*
X005656Y003440D01*
X005697Y003467D01*
X005741Y003491D01*
X005786Y003511D01*
X005833Y003527D01*
X005881Y003540D01*
X005930Y003549D01*
X005980Y003554D01*
X006029Y003555D01*
X006079Y003552D01*
X006128Y003545D01*
X006177Y003534D01*
X006224Y003520D01*
X006270Y003501D01*
X006315Y003479D01*
X006358Y003454D01*
X006398Y003425D01*
X006436Y003393D01*
X006472Y003359D01*
X006505Y003321D01*
X006534Y003281D01*
X006560Y003239D01*
X006583Y003195D01*
X006602Y003149D01*
X006618Y003102D01*
X006630Y003053D01*
X006638Y003004D01*
X006642Y002955D01*
X006642Y002905D01*
X006638Y002856D01*
X006630Y002807D01*
X006618Y002758D01*
X006602Y002711D01*
X006583Y002665D01*
X006560Y002621D01*
X006534Y002579D01*
X006505Y002539D01*
X006472Y002501D01*
X006436Y002467D01*
X006398Y002435D01*
X006358Y002406D01*
X006315Y002381D01*
X006270Y002359D01*
X006224Y002340D01*
X006177Y002326D01*
X006128Y002315D01*
X006079Y002308D01*
X006029Y002305D01*
X005980Y002306D01*
X005930Y002311D01*
X005881Y002320D01*
X005833Y002333D01*
X005786Y002349D01*
X005741Y002369D01*
X005697Y002393D01*
X005656Y002420D01*
X005616Y002450D01*
X005579Y002484D01*
X005545Y002520D01*
X005514Y002559D01*
X005486Y002600D01*
X005462Y002643D01*
X005441Y002688D01*
X005423Y002735D01*
X005410Y002782D01*
X005400Y002831D01*
X005394Y002880D01*
X005392Y002930D01*
X004642Y002930D02*
X004644Y002858D01*
X004650Y002786D01*
X004659Y002715D01*
X004672Y002644D01*
X004689Y002574D01*
X004709Y002505D01*
X004733Y002437D01*
X004761Y002371D01*
X004792Y002306D01*
X004826Y002243D01*
X004864Y002181D01*
X004905Y002122D01*
X004948Y002065D01*
X004995Y002010D01*
X005045Y001958D01*
X005097Y001908D01*
X005152Y001861D01*
X005209Y001818D01*
X005268Y001777D01*
X005329Y001739D01*
X005393Y001705D01*
X005458Y001674D01*
X005524Y001646D01*
X005592Y001622D01*
X005661Y001602D01*
X005731Y001585D01*
X005802Y001572D01*
X005873Y001563D01*
X005945Y001557D01*
X006017Y001555D01*
X015142Y009055D02*
X015144Y009125D01*
X015150Y009195D01*
X015160Y009264D01*
X015173Y009333D01*
X015191Y009401D01*
X015212Y009468D01*
X015237Y009533D01*
X015266Y009597D01*
X015298Y009660D01*
X015334Y009720D01*
X015373Y009778D01*
X015415Y009834D01*
X015460Y009888D01*
X015508Y009939D01*
X015559Y009987D01*
X015613Y010032D01*
X015669Y010074D01*
X015727Y010113D01*
X015787Y010149D01*
X015850Y010181D01*
X015914Y010210D01*
X015979Y010235D01*
X016046Y010256D01*
X016114Y010274D01*
X016183Y010287D01*
X016252Y010297D01*
X016322Y010303D01*
X016392Y010305D01*
X016462Y010303D01*
X016532Y010297D01*
X016601Y010287D01*
X016670Y010274D01*
X016738Y010256D01*
X016805Y010235D01*
X016870Y010210D01*
X016934Y010181D01*
X016997Y010149D01*
X017057Y010113D01*
X017115Y010074D01*
X017171Y010032D01*
X017225Y009987D01*
X017276Y009939D01*
X017324Y009888D01*
X017369Y009834D01*
X017411Y009778D01*
X017450Y009720D01*
X017486Y009660D01*
X017518Y009597D01*
X017547Y009533D01*
X017572Y009468D01*
X017593Y009401D01*
X017611Y009333D01*
X017624Y009264D01*
X017634Y009195D01*
X017640Y009125D01*
X017642Y009055D01*
X017640Y008985D01*
X017634Y008915D01*
X017624Y008846D01*
X017611Y008777D01*
X017593Y008709D01*
X017572Y008642D01*
X017547Y008577D01*
X017518Y008513D01*
X017486Y008450D01*
X017450Y008390D01*
X017411Y008332D01*
X017369Y008276D01*
X017324Y008222D01*
X017276Y008171D01*
X017225Y008123D01*
X017171Y008078D01*
X017115Y008036D01*
X017057Y007997D01*
X016997Y007961D01*
X016934Y007929D01*
X016870Y007900D01*
X016805Y007875D01*
X016738Y007854D01*
X016670Y007836D01*
X016601Y007823D01*
X016532Y007813D01*
X016462Y007807D01*
X016392Y007805D01*
X016322Y007807D01*
X016252Y007813D01*
X016183Y007823D01*
X016114Y007836D01*
X016046Y007854D01*
X015979Y007875D01*
X015914Y007900D01*
X015850Y007929D01*
X015787Y007961D01*
X015727Y007997D01*
X015669Y008036D01*
X015613Y008078D01*
X015559Y008123D01*
X015508Y008171D01*
X015460Y008222D01*
X015415Y008276D01*
X015373Y008332D01*
X015334Y008390D01*
X015298Y008450D01*
X015266Y008513D01*
X015237Y008577D01*
X015212Y008642D01*
X015191Y008709D01*
X015173Y008777D01*
X015160Y008846D01*
X015150Y008915D01*
X015144Y008985D01*
X015142Y009055D01*
X015206Y009055D02*
X015208Y009123D01*
X015214Y009191D01*
X015224Y009259D01*
X015237Y009326D01*
X015255Y009392D01*
X015276Y009457D01*
X015301Y009521D01*
X015330Y009583D01*
X015362Y009643D01*
X015398Y009701D01*
X015437Y009758D01*
X015479Y009812D01*
X015524Y009863D01*
X015572Y009912D01*
X015622Y009957D01*
X015676Y010000D01*
X015731Y010040D01*
X015789Y010076D01*
X015849Y010109D01*
X015911Y010139D01*
X015974Y010165D01*
X016039Y010187D01*
X016104Y010206D01*
X016171Y010220D01*
X016239Y010231D01*
X016307Y010238D01*
X016375Y010241D01*
X016443Y010240D01*
X016511Y010235D01*
X016579Y010226D01*
X016646Y010213D01*
X016713Y010197D01*
X016778Y010176D01*
X016842Y010152D01*
X016904Y010125D01*
X016965Y010093D01*
X017024Y010059D01*
X017081Y010020D01*
X017135Y009979D01*
X017187Y009935D01*
X017237Y009888D01*
X017283Y009838D01*
X017327Y009785D01*
X017367Y009730D01*
X017405Y009672D01*
X017438Y009613D01*
X017469Y009552D01*
X017496Y009489D01*
X017519Y009425D01*
X017538Y009359D01*
X017554Y009293D01*
X017566Y009225D01*
X017574Y009157D01*
X017578Y009089D01*
X017578Y009021D01*
X017574Y008953D01*
X017566Y008885D01*
X017554Y008817D01*
X017538Y008751D01*
X017519Y008685D01*
X017496Y008621D01*
X017469Y008558D01*
X017438Y008497D01*
X017405Y008438D01*
X017367Y008380D01*
X017327Y008325D01*
X017283Y008272D01*
X017237Y008222D01*
X017187Y008175D01*
X017135Y008131D01*
X017081Y008090D01*
X017024Y008051D01*
X016965Y008017D01*
X016904Y007985D01*
X016842Y007958D01*
X016778Y007934D01*
X016713Y007913D01*
X016646Y007897D01*
X016579Y007884D01*
X016511Y007875D01*
X016443Y007870D01*
X016375Y007869D01*
X016307Y007872D01*
X016239Y007879D01*
X016171Y007890D01*
X016104Y007904D01*
X016039Y007923D01*
X015974Y007945D01*
X015911Y007971D01*
X015849Y008001D01*
X015789Y008034D01*
X015731Y008070D01*
X015676Y008110D01*
X015622Y008153D01*
X015572Y008198D01*
X015524Y008247D01*
X015479Y008298D01*
X015437Y008352D01*
X015398Y008409D01*
X015362Y008467D01*
X015330Y008527D01*
X015301Y008589D01*
X015276Y008653D01*
X015255Y008718D01*
X015237Y008784D01*
X015224Y008851D01*
X015214Y008919D01*
X015208Y008987D01*
X015206Y009055D01*
X015392Y009055D02*
X015394Y009118D01*
X015400Y009180D01*
X015410Y009242D01*
X015423Y009304D01*
X015441Y009364D01*
X015462Y009423D01*
X015487Y009481D01*
X015516Y009537D01*
X015548Y009591D01*
X015583Y009643D01*
X015621Y009692D01*
X015663Y009740D01*
X015707Y009784D01*
X015755Y009826D01*
X015804Y009864D01*
X015856Y009899D01*
X015910Y009931D01*
X015966Y009960D01*
X016024Y009985D01*
X016083Y010006D01*
X016143Y010024D01*
X016205Y010037D01*
X016267Y010047D01*
X016329Y010053D01*
X016392Y010055D01*
X016455Y010053D01*
X016517Y010047D01*
X016579Y010037D01*
X016641Y010024D01*
X016701Y010006D01*
X016760Y009985D01*
X016818Y009960D01*
X016874Y009931D01*
X016928Y009899D01*
X016980Y009864D01*
X017029Y009826D01*
X017077Y009784D01*
X017121Y009740D01*
X017163Y009692D01*
X017201Y009643D01*
X017236Y009591D01*
X017268Y009537D01*
X017297Y009481D01*
X017322Y009423D01*
X017343Y009364D01*
X017361Y009304D01*
X017374Y009242D01*
X017384Y009180D01*
X017390Y009118D01*
X017392Y009055D01*
X017390Y008992D01*
X017384Y008930D01*
X017374Y008868D01*
X017361Y008806D01*
X017343Y008746D01*
X017322Y008687D01*
X017297Y008629D01*
X017268Y008573D01*
X017236Y008519D01*
X017201Y008467D01*
X017163Y008418D01*
X017121Y008370D01*
X017077Y008326D01*
X017029Y008284D01*
X016980Y008246D01*
X016928Y008211D01*
X016874Y008179D01*
X016818Y008150D01*
X016760Y008125D01*
X016701Y008104D01*
X016641Y008086D01*
X016579Y008073D01*
X016517Y008063D01*
X016455Y008057D01*
X016392Y008055D01*
X016329Y008057D01*
X016267Y008063D01*
X016205Y008073D01*
X016143Y008086D01*
X016083Y008104D01*
X016024Y008125D01*
X015966Y008150D01*
X015910Y008179D01*
X015856Y008211D01*
X015804Y008246D01*
X015755Y008284D01*
X015707Y008326D01*
X015663Y008370D01*
X015621Y008418D01*
X015583Y008467D01*
X015548Y008519D01*
X015516Y008573D01*
X015487Y008629D01*
X015462Y008687D01*
X015441Y008746D01*
X015423Y008806D01*
X015410Y008868D01*
X015400Y008930D01*
X015394Y008992D01*
X015392Y009055D01*
X015517Y009055D02*
X015519Y009114D01*
X015525Y009173D01*
X015535Y009231D01*
X015549Y009289D01*
X015566Y009345D01*
X015588Y009400D01*
X015613Y009454D01*
X015642Y009505D01*
X015674Y009555D01*
X015709Y009602D01*
X015748Y009647D01*
X015789Y009689D01*
X015833Y009728D01*
X015880Y009765D01*
X015929Y009798D01*
X015980Y009827D01*
X016033Y009853D01*
X016088Y009876D01*
X016144Y009894D01*
X016201Y009909D01*
X016260Y009920D01*
X016318Y009927D01*
X016377Y009930D01*
X016436Y009929D01*
X016495Y009924D01*
X016554Y009915D01*
X016611Y009902D01*
X016668Y009885D01*
X016723Y009865D01*
X016777Y009841D01*
X016829Y009813D01*
X016880Y009782D01*
X016928Y009747D01*
X016973Y009709D01*
X017016Y009668D01*
X017056Y009625D01*
X017093Y009579D01*
X017127Y009530D01*
X017157Y009480D01*
X017184Y009427D01*
X017207Y009373D01*
X017227Y009317D01*
X017243Y009260D01*
X017255Y009202D01*
X017263Y009144D01*
X017267Y009085D01*
X017267Y009025D01*
X017263Y008966D01*
X017255Y008908D01*
X017243Y008850D01*
X017227Y008793D01*
X017207Y008737D01*
X017184Y008683D01*
X017157Y008630D01*
X017127Y008580D01*
X017093Y008531D01*
X017056Y008485D01*
X017016Y008442D01*
X016973Y008401D01*
X016928Y008363D01*
X016880Y008328D01*
X016830Y008297D01*
X016777Y008269D01*
X016723Y008245D01*
X016668Y008225D01*
X016611Y008208D01*
X016554Y008195D01*
X016495Y008186D01*
X016436Y008181D01*
X016377Y008180D01*
X016318Y008183D01*
X016260Y008190D01*
X016201Y008201D01*
X016144Y008216D01*
X016088Y008234D01*
X016033Y008257D01*
X015980Y008283D01*
X015929Y008312D01*
X015880Y008345D01*
X015833Y008382D01*
X015789Y008421D01*
X015748Y008463D01*
X015709Y008508D01*
X015674Y008555D01*
X015642Y008605D01*
X015613Y008656D01*
X015588Y008710D01*
X015566Y008765D01*
X015549Y008821D01*
X015535Y008879D01*
X015525Y008937D01*
X015519Y008996D01*
X015517Y009055D01*
X015632Y009055D02*
X015634Y009110D01*
X015640Y009164D01*
X015650Y009218D01*
X015663Y009272D01*
X015681Y009324D01*
X015702Y009374D01*
X015727Y009423D01*
X015755Y009470D01*
X015787Y009515D01*
X015822Y009557D01*
X015859Y009597D01*
X015900Y009634D01*
X015943Y009668D01*
X015988Y009699D01*
X016036Y009726D01*
X016085Y009750D01*
X016136Y009771D01*
X016189Y009787D01*
X016242Y009800D01*
X016296Y009809D01*
X016351Y009814D01*
X016406Y009815D01*
X016461Y009812D01*
X016515Y009805D01*
X016569Y009794D01*
X016622Y009779D01*
X016673Y009761D01*
X016724Y009739D01*
X016772Y009713D01*
X016819Y009684D01*
X016863Y009652D01*
X016905Y009616D01*
X016944Y009578D01*
X016980Y009536D01*
X017013Y009493D01*
X017043Y009447D01*
X017070Y009399D01*
X017093Y009349D01*
X017112Y009298D01*
X017128Y009245D01*
X017140Y009191D01*
X017148Y009137D01*
X017152Y009082D01*
X017152Y009028D01*
X017148Y008973D01*
X017140Y008919D01*
X017128Y008865D01*
X017112Y008812D01*
X017093Y008761D01*
X017070Y008711D01*
X017043Y008663D01*
X017013Y008617D01*
X016980Y008574D01*
X016944Y008532D01*
X016905Y008494D01*
X016863Y008458D01*
X016819Y008426D01*
X016772Y008397D01*
X016724Y008371D01*
X016673Y008349D01*
X016622Y008331D01*
X016569Y008316D01*
X016515Y008305D01*
X016461Y008298D01*
X016406Y008295D01*
X016351Y008296D01*
X016296Y008301D01*
X016242Y008310D01*
X016189Y008323D01*
X016136Y008339D01*
X016085Y008360D01*
X016036Y008384D01*
X015988Y008411D01*
X015943Y008442D01*
X015900Y008476D01*
X015859Y008513D01*
X015822Y008553D01*
X015787Y008595D01*
X015755Y008640D01*
X015727Y008687D01*
X015702Y008736D01*
X015681Y008786D01*
X015663Y008838D01*
X015650Y008892D01*
X015640Y008946D01*
X015634Y009000D01*
X015632Y009055D01*
X029134Y020055D02*
X029136Y020118D01*
X029142Y020181D01*
X029152Y020244D01*
X029166Y020306D01*
X029183Y020366D01*
X029205Y020426D01*
X029230Y020484D01*
X029259Y020541D01*
X029291Y020595D01*
X029327Y020647D01*
X029365Y020698D01*
X029407Y020745D01*
X029452Y020790D01*
X029499Y020832D01*
X029550Y020870D01*
X029602Y020906D01*
X029656Y020938D01*
X029713Y020967D01*
X029771Y020992D01*
X029831Y021014D01*
X029891Y021031D01*
X029953Y021045D01*
X030016Y021055D01*
X030079Y021061D01*
X030142Y021063D01*
X030205Y021061D01*
X030268Y021055D01*
X030331Y021045D01*
X030393Y021031D01*
X030453Y021014D01*
X030513Y020992D01*
X030571Y020967D01*
X030628Y020938D01*
X030682Y020906D01*
X030734Y020870D01*
X030785Y020832D01*
X030832Y020790D01*
X030877Y020745D01*
X030919Y020698D01*
X030957Y020647D01*
X030993Y020595D01*
X031025Y020541D01*
X031054Y020484D01*
X031079Y020426D01*
X031101Y020366D01*
X031118Y020306D01*
X031132Y020244D01*
X031142Y020181D01*
X031148Y020118D01*
X031150Y020055D01*
X031148Y019992D01*
X031142Y019929D01*
X031132Y019866D01*
X031118Y019804D01*
X031101Y019744D01*
X031079Y019684D01*
X031054Y019626D01*
X031025Y019569D01*
X030993Y019515D01*
X030957Y019463D01*
X030919Y019412D01*
X030877Y019365D01*
X030832Y019320D01*
X030785Y019278D01*
X030734Y019240D01*
X030682Y019204D01*
X030628Y019172D01*
X030571Y019143D01*
X030513Y019118D01*
X030453Y019096D01*
X030393Y019079D01*
X030331Y019065D01*
X030268Y019055D01*
X030205Y019049D01*
X030142Y019047D01*
X030079Y019049D01*
X030016Y019055D01*
X029953Y019065D01*
X029891Y019079D01*
X029831Y019096D01*
X029771Y019118D01*
X029713Y019143D01*
X029656Y019172D01*
X029602Y019204D01*
X029550Y019240D01*
X029499Y019278D01*
X029452Y019320D01*
X029407Y019365D01*
X029365Y019412D01*
X029327Y019463D01*
X029291Y019515D01*
X029259Y019569D01*
X029230Y019626D01*
X029205Y019684D01*
X029183Y019744D01*
X029166Y019804D01*
X029152Y019866D01*
X029142Y019929D01*
X029136Y019992D01*
X029134Y020055D01*
X029267Y020055D02*
X029269Y020114D01*
X029275Y020173D01*
X029285Y020231D01*
X029299Y020289D01*
X029316Y020345D01*
X029338Y020400D01*
X029363Y020454D01*
X029392Y020505D01*
X029424Y020555D01*
X029459Y020602D01*
X029498Y020647D01*
X029539Y020689D01*
X029583Y020728D01*
X029630Y020765D01*
X029679Y020798D01*
X029730Y020827D01*
X029783Y020853D01*
X029838Y020876D01*
X029894Y020894D01*
X029951Y020909D01*
X030010Y020920D01*
X030068Y020927D01*
X030127Y020930D01*
X030186Y020929D01*
X030245Y020924D01*
X030304Y020915D01*
X030361Y020902D01*
X030418Y020885D01*
X030473Y020865D01*
X030527Y020841D01*
X030579Y020813D01*
X030630Y020782D01*
X030678Y020747D01*
X030723Y020709D01*
X030766Y020668D01*
X030806Y020625D01*
X030843Y020579D01*
X030877Y020530D01*
X030907Y020480D01*
X030934Y020427D01*
X030957Y020373D01*
X030977Y020317D01*
X030993Y020260D01*
X031005Y020202D01*
X031013Y020144D01*
X031017Y020085D01*
X031017Y020025D01*
X031013Y019966D01*
X031005Y019908D01*
X030993Y019850D01*
X030977Y019793D01*
X030957Y019737D01*
X030934Y019683D01*
X030907Y019630D01*
X030877Y019580D01*
X030843Y019531D01*
X030806Y019485D01*
X030766Y019442D01*
X030723Y019401D01*
X030678Y019363D01*
X030630Y019328D01*
X030580Y019297D01*
X030527Y019269D01*
X030473Y019245D01*
X030418Y019225D01*
X030361Y019208D01*
X030304Y019195D01*
X030245Y019186D01*
X030186Y019181D01*
X030127Y019180D01*
X030068Y019183D01*
X030010Y019190D01*
X029951Y019201D01*
X029894Y019216D01*
X029838Y019234D01*
X029783Y019257D01*
X029730Y019283D01*
X029679Y019312D01*
X029630Y019345D01*
X029583Y019382D01*
X029539Y019421D01*
X029498Y019463D01*
X029459Y019508D01*
X029424Y019555D01*
X029392Y019605D01*
X029363Y019656D01*
X029338Y019710D01*
X029316Y019765D01*
X029299Y019821D01*
X029285Y019879D01*
X029275Y019937D01*
X029269Y019996D01*
X029267Y020055D01*
X029392Y020055D02*
X029394Y020109D01*
X029400Y020163D01*
X029410Y020216D01*
X029423Y020269D01*
X029440Y020320D01*
X029461Y020370D01*
X029486Y020418D01*
X029514Y020465D01*
X029545Y020509D01*
X029579Y020551D01*
X029616Y020590D01*
X029656Y020627D01*
X029699Y020660D01*
X029744Y020691D01*
X029791Y020718D01*
X029839Y020741D01*
X029890Y020761D01*
X029941Y020778D01*
X029994Y020790D01*
X030047Y020799D01*
X030101Y020804D01*
X030156Y020805D01*
X030210Y020802D01*
X030263Y020795D01*
X030316Y020784D01*
X030369Y020770D01*
X030420Y020752D01*
X030469Y020730D01*
X030517Y020705D01*
X030563Y020676D01*
X030607Y020644D01*
X030648Y020609D01*
X030686Y020571D01*
X030722Y020530D01*
X030755Y020487D01*
X030785Y020442D01*
X030811Y020394D01*
X030834Y020345D01*
X030853Y020294D01*
X030868Y020243D01*
X030880Y020190D01*
X030888Y020136D01*
X030892Y020082D01*
X030892Y020028D01*
X030888Y019974D01*
X030880Y019920D01*
X030868Y019867D01*
X030853Y019816D01*
X030834Y019765D01*
X030811Y019716D01*
X030785Y019668D01*
X030755Y019623D01*
X030722Y019580D01*
X030686Y019539D01*
X030648Y019501D01*
X030607Y019466D01*
X030563Y019434D01*
X030517Y019405D01*
X030469Y019380D01*
X030420Y019358D01*
X030369Y019340D01*
X030316Y019326D01*
X030263Y019315D01*
X030210Y019308D01*
X030156Y019305D01*
X030101Y019306D01*
X030047Y019311D01*
X029994Y019320D01*
X029941Y019332D01*
X029890Y019349D01*
X029839Y019369D01*
X029791Y019392D01*
X029744Y019419D01*
X029699Y019450D01*
X029656Y019483D01*
X029616Y019520D01*
X029579Y019559D01*
X029545Y019601D01*
X029514Y019645D01*
X029486Y019692D01*
X029461Y019740D01*
X029440Y019790D01*
X029423Y019841D01*
X029410Y019894D01*
X029400Y019947D01*
X029394Y020001D01*
X029392Y020055D01*
X029517Y020055D02*
X029519Y020105D01*
X029525Y020154D01*
X029535Y020203D01*
X029548Y020250D01*
X029566Y020297D01*
X029587Y020342D01*
X029611Y020385D01*
X029639Y020426D01*
X029670Y020465D01*
X029704Y020501D01*
X029741Y020535D01*
X029781Y020565D01*
X029822Y020592D01*
X029866Y020616D01*
X029911Y020636D01*
X029958Y020652D01*
X030006Y020665D01*
X030055Y020674D01*
X030105Y020679D01*
X030154Y020680D01*
X030204Y020677D01*
X030253Y020670D01*
X030302Y020659D01*
X030349Y020645D01*
X030395Y020626D01*
X030440Y020604D01*
X030483Y020579D01*
X030523Y020550D01*
X030561Y020518D01*
X030597Y020484D01*
X030630Y020446D01*
X030659Y020406D01*
X030685Y020364D01*
X030708Y020320D01*
X030727Y020274D01*
X030743Y020227D01*
X030755Y020178D01*
X030763Y020129D01*
X030767Y020080D01*
X030767Y020030D01*
X030763Y019981D01*
X030755Y019932D01*
X030743Y019883D01*
X030727Y019836D01*
X030708Y019790D01*
X030685Y019746D01*
X030659Y019704D01*
X030630Y019664D01*
X030597Y019626D01*
X030561Y019592D01*
X030523Y019560D01*
X030483Y019531D01*
X030440Y019506D01*
X030395Y019484D01*
X030349Y019465D01*
X030302Y019451D01*
X030253Y019440D01*
X030204Y019433D01*
X030154Y019430D01*
X030105Y019431D01*
X030055Y019436D01*
X030006Y019445D01*
X029958Y019458D01*
X029911Y019474D01*
X029866Y019494D01*
X029822Y019518D01*
X029781Y019545D01*
X029741Y019575D01*
X029704Y019609D01*
X029670Y019645D01*
X029639Y019684D01*
X029611Y019725D01*
X029587Y019768D01*
X029566Y019813D01*
X029548Y019860D01*
X029535Y019907D01*
X029525Y019956D01*
X029519Y020005D01*
X029517Y020055D01*
X029267Y032055D02*
X029269Y032114D01*
X029275Y032173D01*
X029285Y032231D01*
X029299Y032289D01*
X029316Y032345D01*
X029338Y032400D01*
X029363Y032454D01*
X029392Y032505D01*
X029424Y032555D01*
X029459Y032602D01*
X029498Y032647D01*
X029539Y032689D01*
X029583Y032728D01*
X029630Y032765D01*
X029679Y032798D01*
X029730Y032827D01*
X029783Y032853D01*
X029838Y032876D01*
X029894Y032894D01*
X029951Y032909D01*
X030010Y032920D01*
X030068Y032927D01*
X030127Y032930D01*
X030186Y032929D01*
X030245Y032924D01*
X030304Y032915D01*
X030361Y032902D01*
X030418Y032885D01*
X030473Y032865D01*
X030527Y032841D01*
X030579Y032813D01*
X030630Y032782D01*
X030678Y032747D01*
X030723Y032709D01*
X030766Y032668D01*
X030806Y032625D01*
X030843Y032579D01*
X030877Y032530D01*
X030907Y032480D01*
X030934Y032427D01*
X030957Y032373D01*
X030977Y032317D01*
X030993Y032260D01*
X031005Y032202D01*
X031013Y032144D01*
X031017Y032085D01*
X031017Y032025D01*
X031013Y031966D01*
X031005Y031908D01*
X030993Y031850D01*
X030977Y031793D01*
X030957Y031737D01*
X030934Y031683D01*
X030907Y031630D01*
X030877Y031580D01*
X030843Y031531D01*
X030806Y031485D01*
X030766Y031442D01*
X030723Y031401D01*
X030678Y031363D01*
X030630Y031328D01*
X030580Y031297D01*
X030527Y031269D01*
X030473Y031245D01*
X030418Y031225D01*
X030361Y031208D01*
X030304Y031195D01*
X030245Y031186D01*
X030186Y031181D01*
X030127Y031180D01*
X030068Y031183D01*
X030010Y031190D01*
X029951Y031201D01*
X029894Y031216D01*
X029838Y031234D01*
X029783Y031257D01*
X029730Y031283D01*
X029679Y031312D01*
X029630Y031345D01*
X029583Y031382D01*
X029539Y031421D01*
X029498Y031463D01*
X029459Y031508D01*
X029424Y031555D01*
X029392Y031605D01*
X029363Y031656D01*
X029338Y031710D01*
X029316Y031765D01*
X029299Y031821D01*
X029285Y031879D01*
X029275Y031937D01*
X029269Y031996D01*
X029267Y032055D01*
X029392Y032055D02*
X029394Y032109D01*
X029400Y032163D01*
X029410Y032216D01*
X029423Y032269D01*
X029440Y032320D01*
X029461Y032370D01*
X029486Y032418D01*
X029514Y032465D01*
X029545Y032509D01*
X029579Y032551D01*
X029616Y032590D01*
X029656Y032627D01*
X029699Y032660D01*
X029744Y032691D01*
X029791Y032718D01*
X029839Y032741D01*
X029890Y032761D01*
X029941Y032778D01*
X029994Y032790D01*
X030047Y032799D01*
X030101Y032804D01*
X030156Y032805D01*
X030210Y032802D01*
X030263Y032795D01*
X030316Y032784D01*
X030369Y032770D01*
X030420Y032752D01*
X030469Y032730D01*
X030517Y032705D01*
X030563Y032676D01*
X030607Y032644D01*
X030648Y032609D01*
X030686Y032571D01*
X030722Y032530D01*
X030755Y032487D01*
X030785Y032442D01*
X030811Y032394D01*
X030834Y032345D01*
X030853Y032294D01*
X030868Y032243D01*
X030880Y032190D01*
X030888Y032136D01*
X030892Y032082D01*
X030892Y032028D01*
X030888Y031974D01*
X030880Y031920D01*
X030868Y031867D01*
X030853Y031816D01*
X030834Y031765D01*
X030811Y031716D01*
X030785Y031668D01*
X030755Y031623D01*
X030722Y031580D01*
X030686Y031539D01*
X030648Y031501D01*
X030607Y031466D01*
X030563Y031434D01*
X030517Y031405D01*
X030469Y031380D01*
X030420Y031358D01*
X030369Y031340D01*
X030316Y031326D01*
X030263Y031315D01*
X030210Y031308D01*
X030156Y031305D01*
X030101Y031306D01*
X030047Y031311D01*
X029994Y031320D01*
X029941Y031332D01*
X029890Y031349D01*
X029839Y031369D01*
X029791Y031392D01*
X029744Y031419D01*
X029699Y031450D01*
X029656Y031483D01*
X029616Y031520D01*
X029579Y031559D01*
X029545Y031601D01*
X029514Y031645D01*
X029486Y031692D01*
X029461Y031740D01*
X029440Y031790D01*
X029423Y031841D01*
X029410Y031894D01*
X029400Y031947D01*
X029394Y032001D01*
X029392Y032055D01*
X029517Y032055D02*
X029519Y032105D01*
X029525Y032154D01*
X029535Y032203D01*
X029548Y032250D01*
X029566Y032297D01*
X029587Y032342D01*
X029611Y032385D01*
X029639Y032426D01*
X029670Y032465D01*
X029704Y032501D01*
X029741Y032535D01*
X029781Y032565D01*
X029822Y032592D01*
X029866Y032616D01*
X029911Y032636D01*
X029958Y032652D01*
X030006Y032665D01*
X030055Y032674D01*
X030105Y032679D01*
X030154Y032680D01*
X030204Y032677D01*
X030253Y032670D01*
X030302Y032659D01*
X030349Y032645D01*
X030395Y032626D01*
X030440Y032604D01*
X030483Y032579D01*
X030523Y032550D01*
X030561Y032518D01*
X030597Y032484D01*
X030630Y032446D01*
X030659Y032406D01*
X030685Y032364D01*
X030708Y032320D01*
X030727Y032274D01*
X030743Y032227D01*
X030755Y032178D01*
X030763Y032129D01*
X030767Y032080D01*
X030767Y032030D01*
X030763Y031981D01*
X030755Y031932D01*
X030743Y031883D01*
X030727Y031836D01*
X030708Y031790D01*
X030685Y031746D01*
X030659Y031704D01*
X030630Y031664D01*
X030597Y031626D01*
X030561Y031592D01*
X030523Y031560D01*
X030483Y031531D01*
X030440Y031506D01*
X030395Y031484D01*
X030349Y031465D01*
X030302Y031451D01*
X030253Y031440D01*
X030204Y031433D01*
X030154Y031430D01*
X030105Y031431D01*
X030055Y031436D01*
X030006Y031445D01*
X029958Y031458D01*
X029911Y031474D01*
X029866Y031494D01*
X029822Y031518D01*
X029781Y031545D01*
X029741Y031575D01*
X029704Y031609D01*
X029670Y031645D01*
X029639Y031684D01*
X029611Y031725D01*
X029587Y031768D01*
X029566Y031813D01*
X029548Y031860D01*
X029535Y031907D01*
X029525Y031956D01*
X029519Y032005D01*
X029517Y032055D01*
X005009Y032055D02*
X005011Y032118D01*
X005017Y032181D01*
X005027Y032244D01*
X005041Y032306D01*
X005058Y032366D01*
X005080Y032426D01*
X005105Y032484D01*
X005134Y032541D01*
X005166Y032595D01*
X005202Y032647D01*
X005240Y032698D01*
X005282Y032745D01*
X005327Y032790D01*
X005374Y032832D01*
X005425Y032870D01*
X005477Y032906D01*
X005531Y032938D01*
X005588Y032967D01*
X005646Y032992D01*
X005706Y033014D01*
X005766Y033031D01*
X005828Y033045D01*
X005891Y033055D01*
X005954Y033061D01*
X006017Y033063D01*
X006080Y033061D01*
X006143Y033055D01*
X006206Y033045D01*
X006268Y033031D01*
X006328Y033014D01*
X006388Y032992D01*
X006446Y032967D01*
X006503Y032938D01*
X006557Y032906D01*
X006609Y032870D01*
X006660Y032832D01*
X006707Y032790D01*
X006752Y032745D01*
X006794Y032698D01*
X006832Y032647D01*
X006868Y032595D01*
X006900Y032541D01*
X006929Y032484D01*
X006954Y032426D01*
X006976Y032366D01*
X006993Y032306D01*
X007007Y032244D01*
X007017Y032181D01*
X007023Y032118D01*
X007025Y032055D01*
X007023Y031992D01*
X007017Y031929D01*
X007007Y031866D01*
X006993Y031804D01*
X006976Y031744D01*
X006954Y031684D01*
X006929Y031626D01*
X006900Y031569D01*
X006868Y031515D01*
X006832Y031463D01*
X006794Y031412D01*
X006752Y031365D01*
X006707Y031320D01*
X006660Y031278D01*
X006609Y031240D01*
X006557Y031204D01*
X006503Y031172D01*
X006446Y031143D01*
X006388Y031118D01*
X006328Y031096D01*
X006268Y031079D01*
X006206Y031065D01*
X006143Y031055D01*
X006080Y031049D01*
X006017Y031047D01*
X005954Y031049D01*
X005891Y031055D01*
X005828Y031065D01*
X005766Y031079D01*
X005706Y031096D01*
X005646Y031118D01*
X005588Y031143D01*
X005531Y031172D01*
X005477Y031204D01*
X005425Y031240D01*
X005374Y031278D01*
X005327Y031320D01*
X005282Y031365D01*
X005240Y031412D01*
X005202Y031463D01*
X005166Y031515D01*
X005134Y031569D01*
X005105Y031626D01*
X005080Y031684D01*
X005058Y031744D01*
X005041Y031804D01*
X005027Y031866D01*
X005017Y031929D01*
X005011Y031992D01*
X005009Y032055D01*
X005142Y032055D02*
X005144Y032114D01*
X005150Y032173D01*
X005160Y032231D01*
X005174Y032289D01*
X005191Y032345D01*
X005213Y032400D01*
X005238Y032454D01*
X005267Y032505D01*
X005299Y032555D01*
X005334Y032602D01*
X005373Y032647D01*
X005414Y032689D01*
X005458Y032728D01*
X005505Y032765D01*
X005554Y032798D01*
X005605Y032827D01*
X005658Y032853D01*
X005713Y032876D01*
X005769Y032894D01*
X005826Y032909D01*
X005885Y032920D01*
X005943Y032927D01*
X006002Y032930D01*
X006061Y032929D01*
X006120Y032924D01*
X006179Y032915D01*
X006236Y032902D01*
X006293Y032885D01*
X006348Y032865D01*
X006402Y032841D01*
X006454Y032813D01*
X006505Y032782D01*
X006553Y032747D01*
X006598Y032709D01*
X006641Y032668D01*
X006681Y032625D01*
X006718Y032579D01*
X006752Y032530D01*
X006782Y032480D01*
X006809Y032427D01*
X006832Y032373D01*
X006852Y032317D01*
X006868Y032260D01*
X006880Y032202D01*
X006888Y032144D01*
X006892Y032085D01*
X006892Y032025D01*
X006888Y031966D01*
X006880Y031908D01*
X006868Y031850D01*
X006852Y031793D01*
X006832Y031737D01*
X006809Y031683D01*
X006782Y031630D01*
X006752Y031580D01*
X006718Y031531D01*
X006681Y031485D01*
X006641Y031442D01*
X006598Y031401D01*
X006553Y031363D01*
X006505Y031328D01*
X006455Y031297D01*
X006402Y031269D01*
X006348Y031245D01*
X006293Y031225D01*
X006236Y031208D01*
X006179Y031195D01*
X006120Y031186D01*
X006061Y031181D01*
X006002Y031180D01*
X005943Y031183D01*
X005885Y031190D01*
X005826Y031201D01*
X005769Y031216D01*
X005713Y031234D01*
X005658Y031257D01*
X005605Y031283D01*
X005554Y031312D01*
X005505Y031345D01*
X005458Y031382D01*
X005414Y031421D01*
X005373Y031463D01*
X005334Y031508D01*
X005299Y031555D01*
X005267Y031605D01*
X005238Y031656D01*
X005213Y031710D01*
X005191Y031765D01*
X005174Y031821D01*
X005160Y031879D01*
X005150Y031937D01*
X005144Y031996D01*
X005142Y032055D01*
X005267Y032055D02*
X005269Y032109D01*
X005275Y032163D01*
X005285Y032216D01*
X005298Y032269D01*
X005315Y032320D01*
X005336Y032370D01*
X005361Y032418D01*
X005389Y032465D01*
X005420Y032509D01*
X005454Y032551D01*
X005491Y032590D01*
X005531Y032627D01*
X005574Y032660D01*
X005619Y032691D01*
X005666Y032718D01*
X005714Y032741D01*
X005765Y032761D01*
X005816Y032778D01*
X005869Y032790D01*
X005922Y032799D01*
X005976Y032804D01*
X006031Y032805D01*
X006085Y032802D01*
X006138Y032795D01*
X006191Y032784D01*
X006244Y032770D01*
X006295Y032752D01*
X006344Y032730D01*
X006392Y032705D01*
X006438Y032676D01*
X006482Y032644D01*
X006523Y032609D01*
X006561Y032571D01*
X006597Y032530D01*
X006630Y032487D01*
X006660Y032442D01*
X006686Y032394D01*
X006709Y032345D01*
X006728Y032294D01*
X006743Y032243D01*
X006755Y032190D01*
X006763Y032136D01*
X006767Y032082D01*
X006767Y032028D01*
X006763Y031974D01*
X006755Y031920D01*
X006743Y031867D01*
X006728Y031816D01*
X006709Y031765D01*
X006686Y031716D01*
X006660Y031668D01*
X006630Y031623D01*
X006597Y031580D01*
X006561Y031539D01*
X006523Y031501D01*
X006482Y031466D01*
X006438Y031434D01*
X006392Y031405D01*
X006344Y031380D01*
X006295Y031358D01*
X006244Y031340D01*
X006191Y031326D01*
X006138Y031315D01*
X006085Y031308D01*
X006031Y031305D01*
X005976Y031306D01*
X005922Y031311D01*
X005869Y031320D01*
X005816Y031332D01*
X005765Y031349D01*
X005714Y031369D01*
X005666Y031392D01*
X005619Y031419D01*
X005574Y031450D01*
X005531Y031483D01*
X005491Y031520D01*
X005454Y031559D01*
X005420Y031601D01*
X005389Y031645D01*
X005361Y031692D01*
X005336Y031740D01*
X005315Y031790D01*
X005298Y031841D01*
X005285Y031894D01*
X005275Y031947D01*
X005269Y032001D01*
X005267Y032055D01*
X005392Y032055D02*
X005394Y032105D01*
X005400Y032154D01*
X005410Y032203D01*
X005423Y032250D01*
X005441Y032297D01*
X005462Y032342D01*
X005486Y032385D01*
X005514Y032426D01*
X005545Y032465D01*
X005579Y032501D01*
X005616Y032535D01*
X005656Y032565D01*
X005697Y032592D01*
X005741Y032616D01*
X005786Y032636D01*
X005833Y032652D01*
X005881Y032665D01*
X005930Y032674D01*
X005980Y032679D01*
X006029Y032680D01*
X006079Y032677D01*
X006128Y032670D01*
X006177Y032659D01*
X006224Y032645D01*
X006270Y032626D01*
X006315Y032604D01*
X006358Y032579D01*
X006398Y032550D01*
X006436Y032518D01*
X006472Y032484D01*
X006505Y032446D01*
X006534Y032406D01*
X006560Y032364D01*
X006583Y032320D01*
X006602Y032274D01*
X006618Y032227D01*
X006630Y032178D01*
X006638Y032129D01*
X006642Y032080D01*
X006642Y032030D01*
X006638Y031981D01*
X006630Y031932D01*
X006618Y031883D01*
X006602Y031836D01*
X006583Y031790D01*
X006560Y031746D01*
X006534Y031704D01*
X006505Y031664D01*
X006472Y031626D01*
X006436Y031592D01*
X006398Y031560D01*
X006358Y031531D01*
X006315Y031506D01*
X006270Y031484D01*
X006224Y031465D01*
X006177Y031451D01*
X006128Y031440D01*
X006079Y031433D01*
X006029Y031430D01*
X005980Y031431D01*
X005930Y031436D01*
X005881Y031445D01*
X005833Y031458D01*
X005786Y031474D01*
X005741Y031494D01*
X005697Y031518D01*
X005656Y031545D01*
X005616Y031575D01*
X005579Y031609D01*
X005545Y031645D01*
X005514Y031684D01*
X005486Y031725D01*
X005462Y031768D01*
X005441Y031813D01*
X005423Y031860D01*
X005410Y031907D01*
X005400Y031956D01*
X005394Y032005D01*
X005392Y032055D01*
D11*
X006642Y001430D02*
X000376Y001381D01*
X001143Y001387D02*
X001033Y002410D01*
X001010Y002409D02*
X001143Y001387D01*
X001238Y002411D01*
X001261Y002411D02*
X001010Y002409D01*
X001084Y002410D02*
X001143Y001387D01*
X001186Y002411D01*
X001261Y002411D02*
X001143Y001387D01*
X000893Y033262D01*
X000799Y032237D01*
X000776Y032237D02*
X000893Y033262D01*
X001004Y032239D01*
X001027Y032239D02*
X000776Y032237D01*
X000850Y032238D02*
X000893Y033262D01*
X000952Y032239D01*
X001027Y032239D02*
X000893Y033262D01*
X000126Y033256D02*
X006392Y033305D01*
X005665Y035175D02*
X004641Y035300D01*
X005665Y035198D01*
X005665Y035175D02*
X005665Y035426D01*
X004641Y035300D01*
X005665Y035403D01*
X005665Y035352D02*
X004641Y035300D01*
X005665Y035249D01*
X004641Y035300D02*
X031391Y035305D01*
X030368Y035203D01*
X030368Y035179D02*
X031391Y035305D01*
X030368Y035407D01*
X030368Y035431D02*
X030368Y035179D01*
X030368Y035254D02*
X031391Y035305D01*
X030368Y035356D01*
X030368Y035431D02*
X031391Y035305D01*
X031391Y036073D02*
X031392Y031930D01*
X004642Y031925D02*
X004641Y036068D01*
D12*
X016790Y035879D02*
X016790Y035665D01*
X016897Y035559D01*
X017110Y035559D01*
X017217Y035665D01*
X017217Y035772D01*
X017110Y035879D01*
X016790Y035879D01*
X017004Y036092D01*
X017217Y036199D01*
X017435Y036199D02*
X017862Y036199D01*
X017862Y036092D01*
X017435Y035665D01*
X017435Y035559D01*
X018079Y035559D02*
X018186Y035559D01*
X018186Y035665D01*
X018079Y035665D01*
X018079Y035559D01*
X018401Y035665D02*
X018508Y035559D01*
X018722Y035559D01*
X018828Y035665D01*
X018828Y036092D01*
X018722Y036199D01*
X018508Y036199D01*
X018401Y036092D01*
X018401Y035986D01*
X018508Y035879D01*
X018828Y035879D01*
X019046Y035879D02*
X019046Y036199D01*
X019473Y036199D01*
X019366Y035986D02*
X019259Y035986D01*
X019046Y035879D01*
X019046Y035665D02*
X019153Y035559D01*
X019366Y035559D01*
X019473Y035665D01*
X019473Y035879D01*
X019366Y035986D01*
X001906Y018450D02*
X001908Y018237D01*
X001802Y018129D01*
X001695Y018129D01*
X001587Y018235D01*
X001586Y018448D01*
X001692Y018556D01*
X001799Y018556D01*
X001906Y018450D01*
X001586Y018448D02*
X001478Y018554D01*
X001372Y018553D01*
X001266Y018446D01*
X001267Y018232D01*
X001375Y018126D01*
X001481Y018127D01*
X001587Y018235D01*
X001376Y017909D02*
X001806Y017485D01*
X001379Y017482D01*
X001272Y017588D01*
X001270Y017801D01*
X001376Y017909D01*
X001803Y017912D01*
X001911Y017806D01*
X001912Y017592D01*
X001806Y017485D01*
X001810Y016945D02*
X001703Y016944D01*
X001597Y016837D01*
X001599Y016516D01*
X001386Y016515D02*
X001813Y016518D01*
X001919Y016625D01*
X001917Y016839D01*
X001810Y016945D01*
X001383Y016942D02*
X001277Y016835D01*
X001278Y016621D01*
X001386Y016515D01*
X001387Y016297D02*
X001281Y016190D01*
X001283Y015976D01*
X001390Y015870D01*
X001497Y015871D01*
X001603Y015979D01*
X001601Y016299D01*
X001387Y016297D01*
X001601Y016299D02*
X001816Y016087D01*
X001924Y015874D01*
X001381Y017158D02*
X001275Y017157D01*
X001274Y017264D01*
X001381Y017264D01*
X001381Y017158D01*
D13*
X005387Y002930D02*
X005389Y002980D01*
X005395Y003030D01*
X005405Y003079D01*
X005419Y003127D01*
X005436Y003174D01*
X005457Y003219D01*
X005482Y003263D01*
X005510Y003304D01*
X005542Y003343D01*
X005576Y003380D01*
X005613Y003414D01*
X005653Y003444D01*
X005695Y003471D01*
X005739Y003495D01*
X005785Y003516D01*
X005832Y003532D01*
X005880Y003545D01*
X005930Y003554D01*
X005979Y003559D01*
X006030Y003560D01*
X006080Y003557D01*
X006129Y003550D01*
X006178Y003539D01*
X006226Y003524D01*
X006272Y003506D01*
X006317Y003484D01*
X006360Y003458D01*
X006401Y003429D01*
X006440Y003397D01*
X006476Y003362D01*
X006508Y003324D01*
X006538Y003284D01*
X006565Y003241D01*
X006588Y003197D01*
X006607Y003151D01*
X006623Y003103D01*
X006635Y003054D01*
X006643Y003005D01*
X006647Y002955D01*
X006647Y002905D01*
X006643Y002855D01*
X006635Y002806D01*
X006623Y002757D01*
X006607Y002709D01*
X006588Y002663D01*
X006565Y002619D01*
X006538Y002576D01*
X006508Y002536D01*
X006476Y002498D01*
X006440Y002463D01*
X006401Y002431D01*
X006360Y002402D01*
X006317Y002376D01*
X006272Y002354D01*
X006226Y002336D01*
X006178Y002321D01*
X006129Y002310D01*
X006080Y002303D01*
X006030Y002300D01*
X005979Y002301D01*
X005930Y002306D01*
X005880Y002315D01*
X005832Y002328D01*
X005785Y002344D01*
X005739Y002365D01*
X005695Y002389D01*
X005653Y002416D01*
X005613Y002446D01*
X005576Y002480D01*
X005542Y002517D01*
X005510Y002556D01*
X005482Y002597D01*
X005457Y002641D01*
X005436Y002686D01*
X005419Y002733D01*
X005405Y002781D01*
X005395Y002830D01*
X005389Y002880D01*
X005387Y002930D01*
X015762Y009055D02*
X015764Y009105D01*
X015770Y009155D01*
X015780Y009204D01*
X015794Y009252D01*
X015811Y009299D01*
X015832Y009344D01*
X015857Y009388D01*
X015885Y009429D01*
X015917Y009468D01*
X015951Y009505D01*
X015988Y009539D01*
X016028Y009569D01*
X016070Y009596D01*
X016114Y009620D01*
X016160Y009641D01*
X016207Y009657D01*
X016255Y009670D01*
X016305Y009679D01*
X016354Y009684D01*
X016405Y009685D01*
X016455Y009682D01*
X016504Y009675D01*
X016553Y009664D01*
X016601Y009649D01*
X016647Y009631D01*
X016692Y009609D01*
X016735Y009583D01*
X016776Y009554D01*
X016815Y009522D01*
X016851Y009487D01*
X016883Y009449D01*
X016913Y009409D01*
X016940Y009366D01*
X016963Y009322D01*
X016982Y009276D01*
X016998Y009228D01*
X017010Y009179D01*
X017018Y009130D01*
X017022Y009080D01*
X017022Y009030D01*
X017018Y008980D01*
X017010Y008931D01*
X016998Y008882D01*
X016982Y008834D01*
X016963Y008788D01*
X016940Y008744D01*
X016913Y008701D01*
X016883Y008661D01*
X016851Y008623D01*
X016815Y008588D01*
X016776Y008556D01*
X016735Y008527D01*
X016692Y008501D01*
X016647Y008479D01*
X016601Y008461D01*
X016553Y008446D01*
X016504Y008435D01*
X016455Y008428D01*
X016405Y008425D01*
X016354Y008426D01*
X016305Y008431D01*
X016255Y008440D01*
X016207Y008453D01*
X016160Y008469D01*
X016114Y008490D01*
X016070Y008514D01*
X016028Y008541D01*
X015988Y008571D01*
X015951Y008605D01*
X015917Y008642D01*
X015885Y008681D01*
X015857Y008722D01*
X015832Y008766D01*
X015811Y008811D01*
X015794Y008858D01*
X015780Y008906D01*
X015770Y008955D01*
X015764Y009005D01*
X015762Y009055D01*
X026704Y003574D02*
X026706Y003601D01*
X026712Y003628D01*
X026721Y003654D01*
X026734Y003678D01*
X026750Y003701D01*
X026769Y003720D01*
X026791Y003737D01*
X026815Y003751D01*
X026840Y003761D01*
X026867Y003768D01*
X026894Y003771D01*
X026922Y003770D01*
X026949Y003765D01*
X026975Y003757D01*
X026999Y003745D01*
X027022Y003729D01*
X027043Y003711D01*
X027060Y003690D01*
X027075Y003666D01*
X027086Y003641D01*
X027094Y003615D01*
X027098Y003588D01*
X027098Y003560D01*
X027094Y003533D01*
X027086Y003507D01*
X027075Y003482D01*
X027060Y003458D01*
X027043Y003437D01*
X027022Y003419D01*
X027000Y003403D01*
X026975Y003391D01*
X026949Y003383D01*
X026922Y003378D01*
X026894Y003377D01*
X026867Y003380D01*
X026840Y003387D01*
X026815Y003397D01*
X026791Y003411D01*
X026769Y003428D01*
X026750Y003447D01*
X026734Y003470D01*
X026721Y003494D01*
X026712Y003520D01*
X026706Y003547D01*
X026704Y003574D01*
X028436Y003574D02*
X028438Y003601D01*
X028444Y003628D01*
X028453Y003654D01*
X028466Y003678D01*
X028482Y003701D01*
X028501Y003720D01*
X028523Y003737D01*
X028547Y003751D01*
X028572Y003761D01*
X028599Y003768D01*
X028626Y003771D01*
X028654Y003770D01*
X028681Y003765D01*
X028707Y003757D01*
X028731Y003745D01*
X028754Y003729D01*
X028775Y003711D01*
X028792Y003690D01*
X028807Y003666D01*
X028818Y003641D01*
X028826Y003615D01*
X028830Y003588D01*
X028830Y003560D01*
X028826Y003533D01*
X028818Y003507D01*
X028807Y003482D01*
X028792Y003458D01*
X028775Y003437D01*
X028754Y003419D01*
X028732Y003403D01*
X028707Y003391D01*
X028681Y003383D01*
X028654Y003378D01*
X028626Y003377D01*
X028599Y003380D01*
X028572Y003387D01*
X028547Y003397D01*
X028523Y003411D01*
X028501Y003428D01*
X028482Y003447D01*
X028466Y003470D01*
X028453Y003494D01*
X028444Y003520D01*
X028438Y003547D01*
X028436Y003574D01*
X029512Y020055D02*
X029514Y020105D01*
X029520Y020155D01*
X029530Y020204D01*
X029544Y020252D01*
X029561Y020299D01*
X029582Y020344D01*
X029607Y020388D01*
X029635Y020429D01*
X029667Y020468D01*
X029701Y020505D01*
X029738Y020539D01*
X029778Y020569D01*
X029820Y020596D01*
X029864Y020620D01*
X029910Y020641D01*
X029957Y020657D01*
X030005Y020670D01*
X030055Y020679D01*
X030104Y020684D01*
X030155Y020685D01*
X030205Y020682D01*
X030254Y020675D01*
X030303Y020664D01*
X030351Y020649D01*
X030397Y020631D01*
X030442Y020609D01*
X030485Y020583D01*
X030526Y020554D01*
X030565Y020522D01*
X030601Y020487D01*
X030633Y020449D01*
X030663Y020409D01*
X030690Y020366D01*
X030713Y020322D01*
X030732Y020276D01*
X030748Y020228D01*
X030760Y020179D01*
X030768Y020130D01*
X030772Y020080D01*
X030772Y020030D01*
X030768Y019980D01*
X030760Y019931D01*
X030748Y019882D01*
X030732Y019834D01*
X030713Y019788D01*
X030690Y019744D01*
X030663Y019701D01*
X030633Y019661D01*
X030601Y019623D01*
X030565Y019588D01*
X030526Y019556D01*
X030485Y019527D01*
X030442Y019501D01*
X030397Y019479D01*
X030351Y019461D01*
X030303Y019446D01*
X030254Y019435D01*
X030205Y019428D01*
X030155Y019425D01*
X030104Y019426D01*
X030055Y019431D01*
X030005Y019440D01*
X029957Y019453D01*
X029910Y019469D01*
X029864Y019490D01*
X029820Y019514D01*
X029778Y019541D01*
X029738Y019571D01*
X029701Y019605D01*
X029667Y019642D01*
X029635Y019681D01*
X029607Y019722D01*
X029582Y019766D01*
X029561Y019811D01*
X029544Y019858D01*
X029530Y019906D01*
X029520Y019955D01*
X029514Y020005D01*
X029512Y020055D01*
X029512Y032055D02*
X029514Y032105D01*
X029520Y032155D01*
X029530Y032204D01*
X029544Y032252D01*
X029561Y032299D01*
X029582Y032344D01*
X029607Y032388D01*
X029635Y032429D01*
X029667Y032468D01*
X029701Y032505D01*
X029738Y032539D01*
X029778Y032569D01*
X029820Y032596D01*
X029864Y032620D01*
X029910Y032641D01*
X029957Y032657D01*
X030005Y032670D01*
X030055Y032679D01*
X030104Y032684D01*
X030155Y032685D01*
X030205Y032682D01*
X030254Y032675D01*
X030303Y032664D01*
X030351Y032649D01*
X030397Y032631D01*
X030442Y032609D01*
X030485Y032583D01*
X030526Y032554D01*
X030565Y032522D01*
X030601Y032487D01*
X030633Y032449D01*
X030663Y032409D01*
X030690Y032366D01*
X030713Y032322D01*
X030732Y032276D01*
X030748Y032228D01*
X030760Y032179D01*
X030768Y032130D01*
X030772Y032080D01*
X030772Y032030D01*
X030768Y031980D01*
X030760Y031931D01*
X030748Y031882D01*
X030732Y031834D01*
X030713Y031788D01*
X030690Y031744D01*
X030663Y031701D01*
X030633Y031661D01*
X030601Y031623D01*
X030565Y031588D01*
X030526Y031556D01*
X030485Y031527D01*
X030442Y031501D01*
X030397Y031479D01*
X030351Y031461D01*
X030303Y031446D01*
X030254Y031435D01*
X030205Y031428D01*
X030155Y031425D01*
X030104Y031426D01*
X030055Y031431D01*
X030005Y031440D01*
X029957Y031453D01*
X029910Y031469D01*
X029864Y031490D01*
X029820Y031514D01*
X029778Y031541D01*
X029738Y031571D01*
X029701Y031605D01*
X029667Y031642D01*
X029635Y031681D01*
X029607Y031722D01*
X029582Y031766D01*
X029561Y031811D01*
X029544Y031858D01*
X029530Y031906D01*
X029520Y031955D01*
X029514Y032005D01*
X029512Y032055D01*
X005387Y032055D02*
X005389Y032105D01*
X005395Y032155D01*
X005405Y032204D01*
X005419Y032252D01*
X005436Y032299D01*
X005457Y032344D01*
X005482Y032388D01*
X005510Y032429D01*
X005542Y032468D01*
X005576Y032505D01*
X005613Y032539D01*
X005653Y032569D01*
X005695Y032596D01*
X005739Y032620D01*
X005785Y032641D01*
X005832Y032657D01*
X005880Y032670D01*
X005930Y032679D01*
X005979Y032684D01*
X006030Y032685D01*
X006080Y032682D01*
X006129Y032675D01*
X006178Y032664D01*
X006226Y032649D01*
X006272Y032631D01*
X006317Y032609D01*
X006360Y032583D01*
X006401Y032554D01*
X006440Y032522D01*
X006476Y032487D01*
X006508Y032449D01*
X006538Y032409D01*
X006565Y032366D01*
X006588Y032322D01*
X006607Y032276D01*
X006623Y032228D01*
X006635Y032179D01*
X006643Y032130D01*
X006647Y032080D01*
X006647Y032030D01*
X006643Y031980D01*
X006635Y031931D01*
X006623Y031882D01*
X006607Y031834D01*
X006588Y031788D01*
X006565Y031744D01*
X006538Y031701D01*
X006508Y031661D01*
X006476Y031623D01*
X006440Y031588D01*
X006401Y031556D01*
X006360Y031527D01*
X006317Y031501D01*
X006272Y031479D01*
X006226Y031461D01*
X006178Y031446D01*
X006129Y031435D01*
X006080Y031428D01*
X006030Y031425D01*
X005979Y031426D01*
X005930Y031431D01*
X005880Y031440D01*
X005832Y031453D01*
X005785Y031469D01*
X005739Y031490D01*
X005695Y031514D01*
X005653Y031541D01*
X005613Y031571D01*
X005576Y031605D01*
X005542Y031642D01*
X005510Y031681D01*
X005482Y031722D01*
X005457Y031766D01*
X005436Y031811D01*
X005419Y031858D01*
X005405Y031906D01*
X005395Y031955D01*
X005389Y032005D01*
X005387Y032055D01*
D14*
X006017Y032055D03*
X016392Y009055D03*
X006017Y002930D03*
X030142Y020055D03*
X030142Y032055D03*
D15*
X025349Y023482D02*
X025349Y023188D01*
X025202Y023335D02*
X025496Y023335D01*
D16*
X024994Y028419D03*
X025027Y028452D03*
X025094Y028552D03*
X025127Y028619D03*
X025127Y028652D03*
X025327Y028652D03*
X025327Y028719D03*
X025394Y028519D03*
X025427Y028452D03*
X025594Y028519D03*
X025594Y028552D03*
X025594Y028619D03*
X025594Y028652D03*
X025594Y028719D03*
X025594Y028752D03*
X025794Y028752D03*
X025827Y028719D03*
X025927Y028619D03*
X026027Y028919D03*
X026294Y028919D03*
X026494Y029019D03*
X026494Y029052D03*
X026527Y028952D03*
X026527Y028919D03*
X026427Y029152D03*
X026394Y029219D03*
X026494Y029352D03*
X026294Y029519D03*
X026327Y029552D03*
X026394Y029652D03*
X026427Y029719D03*
X026427Y029752D03*
X026694Y029719D03*
X026694Y029552D03*
X026727Y029519D03*
X026794Y029452D03*
X026827Y029419D03*
X026227Y029419D03*
X026127Y029319D03*
X025994Y029219D03*
X025894Y029152D03*
X025827Y029819D03*
X026027Y029919D03*
X026494Y030119D03*
X026494Y030352D03*
X026494Y030452D03*
X026494Y030519D03*
X026494Y030552D03*
X026494Y030719D03*
X026494Y030752D03*
X026427Y030919D03*
X026294Y031119D03*
X026227Y031219D03*
X026194Y031252D03*
X026127Y031319D03*
X026094Y031352D03*
X025994Y031419D03*
X025827Y031519D03*
X026027Y031719D03*
X026194Y031652D03*
X026327Y031752D03*
X026494Y031652D03*
X026494Y031619D03*
X026527Y031719D03*
X026394Y031452D03*
X026394Y031419D03*
X026727Y031119D03*
X026827Y031252D03*
X026694Y030952D03*
X027027Y030752D03*
X026827Y030452D03*
X027194Y030152D03*
X027894Y029819D03*
X028094Y029919D03*
X028094Y029952D03*
X028127Y030019D03*
X028027Y030052D03*
X026127Y030652D03*
X025694Y030319D03*
X025427Y030419D03*
X025394Y030719D03*
X025427Y030819D03*
X024727Y030052D03*
X024627Y030019D03*
X024827Y029852D03*
X024327Y029352D03*
X024227Y029452D03*
X024194Y029519D03*
X024127Y029619D03*
X024094Y029652D03*
X023794Y029652D03*
X023794Y029619D03*
X023727Y029519D03*
X023594Y029352D03*
X023594Y029319D03*
X023927Y029319D03*
X023994Y029319D03*
X024094Y029219D03*
X024027Y029152D03*
X024027Y029119D03*
X023994Y029052D03*
X023927Y028919D03*
X024227Y028952D03*
X024427Y028952D03*
X024427Y028919D03*
X024394Y028819D03*
X024394Y028752D03*
X024394Y028719D03*
X024394Y028652D03*
X024394Y028619D03*
X024594Y028652D03*
X024894Y028519D03*
X024894Y028452D03*
X024594Y029152D03*
X024494Y029219D03*
X023927Y030219D03*
X023994Y030319D03*
X024494Y030619D03*
X024427Y030919D03*
X024527Y030952D03*
X024227Y030852D03*
X024127Y030752D03*
X023994Y030752D03*
X024094Y030952D03*
X024127Y031019D03*
X024194Y031119D03*
X024227Y031152D03*
X024294Y031252D03*
X024427Y031352D03*
X024494Y031419D03*
X024294Y031619D03*
X024194Y031719D03*
X024027Y031819D03*
X023994Y031552D03*
X024027Y031519D03*
X024027Y031352D03*
X023827Y031052D03*
X023794Y031019D03*
X023694Y031152D03*
X023627Y031252D03*
X023594Y031319D03*
X023627Y031352D03*
X023294Y031619D03*
X023294Y031652D03*
X023294Y031719D03*
X023027Y031719D03*
X023027Y031652D03*
X023027Y031619D03*
X022927Y031619D03*
X022927Y031652D03*
X022527Y031852D03*
X022527Y031952D03*
X022427Y031552D03*
X022094Y031552D03*
X022094Y031519D03*
X022094Y031452D03*
X021694Y031619D03*
X021694Y031652D03*
X021694Y031719D03*
X021694Y031752D03*
X021427Y031719D03*
X021427Y031652D03*
X021427Y031619D03*
X021427Y031552D03*
X021427Y031519D03*
X021427Y031452D03*
X021327Y031719D03*
X021327Y031752D03*
X021327Y031819D03*
X021427Y031852D03*
X020627Y031619D03*
X020627Y031552D03*
X020727Y030752D03*
X020727Y030719D03*
X020794Y030719D03*
X021394Y030352D03*
X020927Y030319D03*
X021694Y029952D03*
X022127Y030152D03*
X022194Y029919D03*
X022427Y029819D03*
X022627Y029919D03*
X022627Y029952D03*
X022427Y030119D03*
X022894Y030252D03*
X023427Y030552D03*
X023494Y030719D03*
X023394Y030819D03*
X023394Y029852D03*
X023394Y029819D03*
X023394Y029752D03*
X023327Y029819D03*
X021927Y030719D03*
X021894Y030919D03*
X020094Y030519D03*
X019927Y030519D03*
X019727Y030152D03*
X019727Y030119D03*
X019594Y030219D03*
X019594Y030252D03*
X018827Y030019D03*
X018794Y029952D03*
X018794Y029919D03*
X018727Y030052D03*
X018594Y029819D03*
X017894Y030552D03*
X017727Y030452D03*
X017627Y030452D03*
X017527Y030419D03*
X017294Y030419D03*
X017294Y030352D03*
X017227Y030419D03*
X017127Y030352D03*
X016894Y030319D03*
X016894Y030152D03*
X017227Y030019D03*
X017294Y030019D03*
X017894Y030752D03*
X017327Y031052D03*
X017494Y031552D03*
X017594Y031852D03*
X018094Y031752D03*
X018227Y031719D03*
X018227Y031652D03*
X018227Y031619D03*
X018227Y031552D03*
X018227Y031519D03*
X018227Y031452D03*
X018494Y031519D03*
X018494Y031552D03*
X018494Y031619D03*
X018627Y031552D03*
X018627Y031519D03*
X018627Y031452D03*
X018727Y031619D03*
X018727Y031652D03*
X018594Y031952D03*
X018227Y031852D03*
X019127Y031752D03*
X019127Y031719D03*
X019494Y031452D03*
X019494Y031419D03*
X016727Y031519D03*
X016727Y031719D03*
X016727Y031752D03*
X016327Y031652D03*
X016327Y031619D03*
X016327Y031552D03*
X016327Y031519D03*
X016227Y031552D03*
X015927Y030852D03*
X015994Y030752D03*
X015927Y030719D03*
X015827Y030752D03*
X015394Y030919D03*
X015127Y030919D03*
X015127Y030552D03*
X014394Y030552D03*
X014294Y030552D03*
X014294Y030452D03*
X015027Y029819D03*
X015394Y031452D03*
X015394Y031519D03*
X015394Y031552D03*
X014994Y031652D03*
X014994Y031719D03*
X014627Y031652D03*
X014627Y031619D03*
X014627Y031552D03*
X014594Y031952D03*
X014227Y031752D03*
X014227Y031719D03*
X014127Y031719D03*
X014127Y031752D03*
X014127Y031519D03*
X013727Y031652D03*
X013727Y031719D03*
X013727Y031752D03*
X013327Y031219D03*
X024394Y031819D03*
X024394Y031852D03*
X024394Y031919D03*
X024394Y031952D03*
X024394Y032019D03*
X024527Y032052D03*
X024627Y031952D03*
X024694Y031852D03*
X024694Y031819D03*
X024427Y031752D03*
X024427Y031719D03*
X024894Y032152D03*
X025094Y032119D03*
X025127Y032052D03*
X025127Y032019D03*
X025327Y031952D03*
X025394Y032119D03*
X025394Y032152D03*
X025594Y032119D03*
X025594Y032052D03*
X025594Y032019D03*
X025594Y031952D03*
X025594Y031919D03*
X025827Y031952D03*
X025894Y032019D03*
X025927Y032052D03*
D17*
X026061Y031852D03*
X026061Y031819D03*
X026261Y031719D03*
X026161Y031619D03*
X026461Y031552D03*
X026461Y031352D03*
X026361Y031052D03*
X026361Y031019D03*
X026461Y030852D03*
X026461Y030819D03*
X026661Y031019D03*
X026661Y031052D03*
X026761Y031152D03*
X026861Y031319D03*
X026861Y031352D03*
X027061Y030852D03*
X026961Y030719D03*
X027361Y030919D03*
X027461Y030819D03*
X027561Y030152D03*
X027961Y030052D03*
X026861Y029352D03*
X026861Y029319D03*
X026661Y029619D03*
X026361Y029619D03*
X026261Y029452D03*
X026161Y029352D03*
X026061Y029252D03*
X026261Y028952D03*
X026061Y028852D03*
X026061Y028819D03*
X026461Y029119D03*
X026461Y029319D03*
X026161Y029952D03*
X026561Y030119D03*
X026561Y030152D03*
X026561Y030219D03*
X026561Y030252D03*
X026561Y030319D03*
X026561Y030352D03*
X026561Y030419D03*
X026561Y030452D03*
X026561Y030519D03*
X026161Y030619D03*
X025961Y030719D03*
X025461Y030719D03*
X025361Y030819D03*
X025061Y030852D03*
X024661Y030952D03*
X024561Y030819D03*
X024461Y030952D03*
X024361Y030719D03*
X024161Y031052D03*
X024361Y031319D03*
X024561Y031452D03*
X024361Y031652D03*
X024261Y031652D03*
X024061Y031452D03*
X024061Y031419D03*
X023961Y031652D03*
X023961Y031752D03*
X023661Y031219D03*
X023761Y031119D03*
X023761Y030952D03*
X023461Y030519D03*
X023361Y030252D03*
X023761Y029719D03*
X023761Y029552D03*
X023661Y029452D03*
X023661Y029419D03*
X023961Y029352D03*
X024061Y029252D03*
X023961Y029019D03*
X023961Y028952D03*
X024361Y029319D03*
X024461Y029252D03*
X024661Y029119D03*
X024661Y028752D03*
X024561Y028619D03*
X024861Y028619D03*
X024861Y028652D03*
X024861Y028719D03*
X024861Y028752D03*
X025161Y028719D03*
X025061Y028519D03*
X025361Y028552D03*
X025461Y028419D03*
X025561Y028452D03*
X024261Y029419D03*
X024161Y029552D03*
X024061Y029719D03*
X024061Y029752D03*
X024861Y030019D03*
X025561Y029752D03*
X025661Y029819D03*
X025761Y031552D03*
X025761Y031819D03*
X025361Y032052D03*
X025061Y032152D03*
X024861Y032052D03*
X024861Y032019D03*
X024861Y031952D03*
X024861Y031919D03*
X024661Y031919D03*
X024561Y032019D03*
X022661Y031852D03*
X022661Y031652D03*
X022661Y031619D03*
X022661Y031552D03*
X022661Y031519D03*
X022661Y031452D03*
X022561Y031452D03*
X022561Y031519D03*
X022561Y031552D03*
X022061Y031752D03*
X021461Y030419D03*
X021761Y030119D03*
X021461Y029752D03*
X022561Y029919D03*
X022561Y030052D03*
X022661Y030019D03*
X020661Y030752D03*
X020361Y030452D03*
X020361Y030352D03*
X020361Y030319D03*
X019861Y030152D03*
X019861Y030119D03*
X019861Y030052D03*
X018661Y030052D03*
X018261Y030152D03*
X018161Y030819D03*
X017361Y030352D03*
X017261Y030052D03*
X017161Y031519D03*
X017161Y031552D03*
X016861Y031752D03*
X016461Y031752D03*
X015761Y030819D03*
X015261Y030919D03*
X015161Y030519D03*
X015161Y030452D03*
X015161Y030352D03*
X015361Y031752D03*
X013861Y031752D03*
X013561Y031219D03*
X013261Y029819D03*
D18*
X013627Y030286D03*
X014294Y030486D03*
X013894Y030986D03*
X013727Y031686D03*
X013727Y031786D03*
X014127Y031686D03*
X014627Y031686D03*
X014627Y031586D03*
X014994Y031686D03*
X015127Y031886D03*
X015394Y031486D03*
X015327Y030786D03*
X015194Y030686D03*
X015027Y030786D03*
X014994Y029886D03*
X014394Y029586D03*
X015927Y029986D03*
X015994Y030086D03*
X016194Y029686D03*
X016394Y029686D03*
X016627Y029686D03*
X017227Y030386D03*
X017927Y030286D03*
X017894Y030786D03*
X018227Y031486D03*
X018227Y031586D03*
X018227Y031686D03*
X018227Y031886D03*
X018494Y031586D03*
X018494Y031486D03*
X018627Y031486D03*
X018627Y031586D03*
X018727Y031586D03*
X018727Y031686D03*
X019494Y031486D03*
X020627Y031586D03*
X020594Y031886D03*
X021327Y031786D03*
X021327Y031686D03*
X021427Y031686D03*
X021427Y031586D03*
X021427Y031486D03*
X021694Y031686D03*
X021694Y031786D03*
X021827Y031886D03*
X022094Y031486D03*
X021794Y030986D03*
X021727Y030786D03*
X021227Y030686D03*
X020994Y030786D03*
X020894Y030786D03*
X020194Y030286D03*
X020127Y030286D03*
X019827Y030086D03*
X019594Y030186D03*
X021694Y029986D03*
X022927Y031586D03*
X022927Y031686D03*
X023027Y031686D03*
X023027Y031586D03*
X023294Y031686D03*
X023294Y031386D03*
X023627Y031386D03*
X023794Y031086D03*
X023794Y030986D03*
X023627Y030786D03*
X023394Y030886D03*
X023327Y030786D03*
X024027Y031486D03*
X023994Y031586D03*
X023994Y031786D03*
X024227Y031686D03*
X024394Y031686D03*
X024394Y031886D03*
X024394Y031986D03*
X024594Y031986D03*
X024894Y032186D03*
X025094Y032086D03*
X025127Y031986D03*
X025327Y031986D03*
X025427Y032186D03*
X025594Y032086D03*
X025594Y031986D03*
X025594Y031886D03*
X025794Y031886D03*
X025894Y031486D03*
X026227Y031686D03*
X026394Y031786D03*
X026494Y031586D03*
X026427Y031486D03*
X026427Y031386D03*
X026327Y031086D03*
X026394Y030986D03*
X026494Y030786D03*
X026494Y030586D03*
X026494Y030486D03*
X026494Y030386D03*
X026494Y030286D03*
X026627Y030286D03*
X026827Y030486D03*
X027227Y030186D03*
X026694Y029686D03*
X026827Y029386D03*
X026827Y029286D03*
X026427Y029286D03*
X026394Y029186D03*
X026194Y029386D03*
X026294Y029486D03*
X026094Y029286D03*
X026094Y028986D03*
X026194Y028986D03*
X026494Y028886D03*
X026027Y028586D03*
X025594Y028586D03*
X025594Y028686D03*
X025427Y028486D03*
X025327Y028686D03*
X024894Y028486D03*
X024627Y028686D03*
X024694Y028786D03*
X024527Y028586D03*
X024394Y028686D03*
X024394Y028786D03*
X024427Y028886D03*
X024394Y029286D03*
X024294Y029386D03*
X024227Y029486D03*
X024094Y029686D03*
X024027Y029786D03*
X023827Y029586D03*
X023694Y029486D03*
X023627Y029386D03*
X023627Y029286D03*
X024027Y029286D03*
X023994Y029086D03*
X023394Y029786D03*
X023427Y029886D03*
X024327Y030586D03*
X024327Y030786D03*
X024394Y030886D03*
X024494Y030886D03*
X024327Y031286D03*
X024594Y031486D03*
X025194Y030786D03*
X025394Y030686D03*
X025427Y030786D03*
X025494Y030786D03*
X025694Y030286D03*
X026694Y030986D03*
X026794Y031186D03*
X026827Y031386D03*
X016727Y031686D03*
X016327Y031686D03*
X016327Y031586D03*
X016094Y030886D03*
X016027Y030786D03*
D19*
X015961Y030586D03*
X015761Y030786D03*
X015461Y031386D03*
X015161Y030486D03*
X014361Y030486D03*
X013661Y030586D03*
X016761Y030686D03*
X017461Y030386D03*
X017661Y030386D03*
X017561Y030086D03*
X018561Y029086D03*
X020661Y030686D03*
X020761Y030786D03*
X021661Y030786D03*
X021661Y030686D03*
X021761Y030186D03*
X022461Y030186D03*
X022561Y030086D03*
X022561Y031486D03*
X022561Y031586D03*
X022661Y031586D03*
X022661Y031686D03*
X022661Y031886D03*
X022661Y031486D03*
X023961Y031686D03*
X024461Y031386D03*
X024261Y031186D03*
X024161Y031086D03*
X024861Y031886D03*
X024861Y031986D03*
X025361Y032086D03*
X025561Y032186D03*
X025861Y031986D03*
X026061Y031786D03*
X026061Y031686D03*
X026461Y031786D03*
X026161Y031286D03*
X026261Y031186D03*
X026861Y031286D03*
X027161Y030986D03*
X027261Y030986D03*
X027061Y030886D03*
X027061Y030786D03*
X026561Y030486D03*
X026561Y030386D03*
X026561Y030286D03*
X026561Y030186D03*
X026061Y030386D03*
X025461Y030686D03*
X025361Y030786D03*
X025561Y029786D03*
X025961Y029186D03*
X026361Y028886D03*
X026461Y029086D03*
X026761Y029486D03*
X026661Y029586D03*
X026361Y029586D03*
X027161Y030186D03*
X025861Y028686D03*
X025961Y028586D03*
X025561Y028486D03*
X025361Y028586D03*
X025061Y028486D03*
X024861Y028586D03*
X024861Y028686D03*
X024261Y028986D03*
X024061Y029186D03*
X023961Y028986D03*
X023961Y028886D03*
X024161Y029586D03*
D20*
X023844Y029286D03*
X024377Y028986D03*
X024544Y029186D03*
X024744Y029086D03*
X024444Y028586D03*
X025777Y029086D03*
X025877Y029986D03*
X026044Y029986D03*
X026144Y029986D03*
X025977Y030386D03*
X025877Y030586D03*
X026044Y031386D03*
X025677Y031586D03*
X025977Y032086D03*
X026744Y032086D03*
X026677Y031086D03*
X027477Y030886D03*
X027477Y030786D03*
X028077Y029886D03*
X028244Y032086D03*
X024477Y032086D03*
X024077Y031786D03*
X023277Y031786D03*
X023044Y031786D03*
X022877Y031786D03*
X022944Y031486D03*
X022544Y031686D03*
X022544Y031786D03*
X022277Y031786D03*
X022277Y031686D03*
X022277Y031586D03*
X022277Y031486D03*
X022377Y031486D03*
X022077Y031586D03*
X022077Y031686D03*
X022044Y031786D03*
X021444Y031786D03*
X021044Y031786D03*
X021044Y031886D03*
X021044Y031686D03*
X021044Y031486D03*
X020177Y031486D03*
X019477Y031386D03*
X019377Y031586D03*
X019144Y031686D03*
X019144Y031786D03*
X018977Y031786D03*
X018777Y031786D03*
X018744Y031486D03*
X018477Y031686D03*
X018444Y031786D03*
X018244Y031786D03*
X018077Y031786D03*
X017877Y031786D03*
X017844Y031686D03*
X017844Y031586D03*
X017877Y031486D03*
X018077Y031486D03*
X018177Y030886D03*
X018177Y030786D03*
X017777Y030386D03*
X017577Y030186D03*
X018777Y029886D03*
X018744Y028986D03*
X018944Y028886D03*
X019677Y030086D03*
X017344Y031486D03*
X017344Y031586D03*
X017344Y031686D03*
X017344Y031786D03*
X016877Y031786D03*
X016844Y031686D03*
X016844Y031586D03*
X016844Y031486D03*
X016444Y031486D03*
X016444Y031586D03*
X016444Y031686D03*
X016477Y031786D03*
X016344Y031486D03*
X015377Y031586D03*
X015377Y031686D03*
X015344Y031786D03*
X014977Y031786D03*
X014744Y031786D03*
X014744Y031686D03*
X014744Y031586D03*
X014644Y031486D03*
X014477Y031486D03*
X014477Y031586D03*
X014244Y031686D03*
X014244Y031786D03*
X013877Y031786D03*
X013844Y031686D03*
X013844Y031586D03*
X013744Y031586D03*
X013844Y031486D03*
X013444Y031486D03*
X013444Y031586D03*
X013444Y031686D03*
X013444Y031786D03*
X013444Y031886D03*
X014277Y030586D03*
X015244Y030886D03*
X015344Y030886D03*
X021777Y030086D03*
X022144Y030186D03*
X022644Y029986D03*
X022644Y029886D03*
X021877Y030986D03*
X023544Y030886D03*
X023644Y030886D03*
X024044Y030786D03*
X024344Y030686D03*
D21*
X024277Y030752D03*
X024244Y030719D03*
X024144Y030919D03*
X023977Y031319D03*
X023877Y031352D03*
X024144Y031752D03*
X024677Y031519D03*
X024744Y031552D03*
X024777Y031852D03*
X024777Y030952D03*
X024744Y029852D03*
X024177Y028919D03*
X023744Y029752D03*
X022977Y030252D03*
X023444Y030752D03*
X022944Y031452D03*
X022944Y031519D03*
X022944Y031552D03*
X023044Y031552D03*
X023044Y031519D03*
X023044Y031752D03*
X023277Y031752D03*
X023277Y031852D03*
X022677Y031752D03*
X022677Y031719D03*
X022544Y031719D03*
X022544Y031752D03*
X022544Y031819D03*
X022544Y031652D03*
X022544Y031619D03*
X022277Y031619D03*
X022277Y031652D03*
X022277Y031719D03*
X022277Y031752D03*
X022277Y031552D03*
X022277Y031519D03*
X022077Y031619D03*
X022077Y031652D03*
X022077Y031719D03*
X021944Y031852D03*
X021677Y031852D03*
X021677Y031819D03*
X021677Y031952D03*
X021444Y031752D03*
X021277Y031952D03*
X021044Y031952D03*
X021044Y031919D03*
X021044Y031852D03*
X021044Y031819D03*
X021044Y031752D03*
X021044Y031719D03*
X021044Y031652D03*
X021044Y031552D03*
X021044Y031519D03*
X021044Y031452D03*
X020577Y031919D03*
X020177Y031919D03*
X020177Y031719D03*
X020177Y031619D03*
X019944Y031919D03*
X019244Y031852D03*
X019044Y031552D03*
X019044Y031519D03*
X018744Y031519D03*
X018744Y031552D03*
X018744Y031719D03*
X018744Y031752D03*
X018877Y031852D03*
X018477Y031752D03*
X018477Y031719D03*
X018477Y031652D03*
X018244Y031752D03*
X017844Y031752D03*
X017844Y031719D03*
X017844Y031652D03*
X017844Y031619D03*
X017844Y031552D03*
X017844Y031519D03*
X017477Y031519D03*
X017344Y031519D03*
X017344Y031552D03*
X017344Y031619D03*
X017344Y031652D03*
X017344Y031719D03*
X017344Y031752D03*
X017144Y031719D03*
X016844Y031719D03*
X016844Y031652D03*
X016844Y031619D03*
X016844Y031552D03*
X016844Y031519D03*
X016444Y031519D03*
X016444Y031552D03*
X016444Y031652D03*
X016444Y031719D03*
X016344Y031452D03*
X016177Y031919D03*
X015944Y031919D03*
X015377Y031719D03*
X015377Y031652D03*
X015377Y031619D03*
X015477Y031452D03*
X015477Y031419D03*
X014977Y031752D03*
X014977Y031852D03*
X014744Y031752D03*
X014744Y031719D03*
X014744Y031652D03*
X014744Y031619D03*
X014744Y031552D03*
X014744Y031519D03*
X014644Y031519D03*
X014644Y031452D03*
X014344Y031852D03*
X013844Y031719D03*
X013844Y031652D03*
X013844Y031552D03*
X013844Y031519D03*
X013744Y031519D03*
X013744Y031552D03*
X013744Y031619D03*
X013444Y031619D03*
X013444Y031652D03*
X013444Y031719D03*
X013444Y031752D03*
X013444Y031819D03*
X013444Y031852D03*
X013444Y031919D03*
X013444Y031952D03*
X013444Y031552D03*
X013444Y031519D03*
X013544Y031152D03*
X015244Y031852D03*
X015844Y030919D03*
X016044Y030719D03*
X017177Y030052D03*
X017344Y029952D03*
X017577Y030052D03*
X017877Y030519D03*
X018177Y030852D03*
X018977Y030252D03*
X018777Y029852D03*
X018444Y029152D03*
X018677Y029019D03*
X018877Y028919D03*
X019077Y028819D03*
X019177Y028752D03*
X019644Y030119D03*
X019744Y030319D03*
X020044Y030552D03*
X021377Y030719D03*
X021677Y029919D03*
X022277Y029919D03*
X025777Y029852D03*
X025944Y029919D03*
X026044Y029952D03*
X026177Y030019D03*
X026077Y030452D03*
X025977Y030452D03*
X025977Y030519D03*
X025977Y030552D03*
X025977Y030752D03*
X026577Y031352D03*
X025944Y031452D03*
X026044Y032052D03*
X026677Y030352D03*
X026744Y029752D03*
X027044Y029752D03*
X026544Y029319D03*
X026044Y028952D03*
X025844Y029119D03*
X025677Y029052D03*
X025744Y028819D03*
X025877Y028652D03*
X026444Y028852D03*
X027477Y030852D03*
X028244Y032219D03*
X013244Y028619D03*
D22*
X014261Y030619D03*
X013728Y031119D03*
X014294Y031652D03*
X013994Y031852D03*
X013661Y031952D03*
X014861Y031852D03*
X015094Y030852D03*
X015594Y030319D03*
X016994Y030052D03*
X017494Y029919D03*
X017428Y030452D03*
X017994Y030719D03*
X017994Y030752D03*
X017994Y030852D03*
X017994Y030952D03*
X018161Y030952D03*
X018161Y030919D03*
X018561Y030052D03*
X018394Y029919D03*
X019128Y030252D03*
X019628Y030319D03*
X019761Y030219D03*
X019661Y030052D03*
X020161Y030219D03*
X020194Y030319D03*
X019894Y030752D03*
X019394Y030719D03*
X019194Y031652D03*
X019961Y031952D03*
X020561Y031952D03*
X021561Y031852D03*
X021994Y030952D03*
X021994Y030919D03*
X022394Y030052D03*
X022994Y030119D03*
X023461Y030219D03*
X023894Y030319D03*
X024061Y030819D03*
X024261Y030919D03*
X024561Y030752D03*
X024928Y031619D03*
X025561Y031619D03*
X025694Y031852D03*
X026761Y030919D03*
X026494Y030652D03*
X026194Y030452D03*
X026194Y030352D03*
X026194Y030319D03*
X025661Y030252D03*
X025994Y029819D03*
X026161Y029019D03*
X025561Y029019D03*
X024928Y029019D03*
X024028Y028852D03*
X023494Y028752D03*
X023228Y030719D03*
X023394Y030852D03*
X023161Y031852D03*
X022794Y031852D03*
X018361Y031852D03*
X017728Y031852D03*
X016994Y031852D03*
X016594Y031852D03*
X016128Y031952D03*
X015961Y031952D03*
X017361Y028719D03*
X017361Y028619D03*
X027461Y030919D03*
X027461Y030952D03*
X027861Y030052D03*
X027694Y029919D03*
D23*
X027944Y030119D03*
X026677Y030419D03*
X026677Y030452D03*
X026144Y030552D03*
X026044Y030019D03*
X024677Y029952D03*
X024077Y030552D03*
X023944Y030519D03*
X022844Y030119D03*
X022444Y029919D03*
X022744Y029252D03*
X023477Y028719D03*
X020177Y030152D03*
X020177Y030252D03*
X018944Y029852D03*
X018944Y029819D03*
X018644Y030119D03*
X017277Y030452D03*
X017177Y030319D03*
X015977Y030919D03*
X015677Y030919D03*
X015777Y030552D03*
X015644Y030519D03*
X014344Y030252D03*
X014344Y030152D03*
X013644Y030119D03*
X013244Y028719D03*
X013244Y028652D03*
X017977Y031852D03*
X020144Y031952D03*
X024977Y032219D03*
X026744Y032119D03*
X028244Y032119D03*
X028244Y032152D03*
D24*
X015694Y028652D03*
D25*
X017211Y029952D03*
X017211Y030219D03*
X017011Y030319D03*
X017011Y030352D03*
X016711Y030719D03*
X015811Y030519D03*
X015511Y030919D03*
X014311Y031819D03*
X013711Y031219D03*
X013211Y032252D03*
X013211Y029252D03*
X018011Y030919D03*
X018611Y029919D03*
X018711Y029819D03*
X019411Y030319D03*
X019711Y030252D03*
X019311Y028652D03*
X019211Y031819D03*
X022211Y031852D03*
X023811Y032252D03*
X025511Y032219D03*
X025411Y030752D03*
X025511Y030252D03*
X025611Y029852D03*
X026011Y029852D03*
X026011Y030352D03*
X026011Y030619D03*
X026011Y030652D03*
X027011Y030919D03*
X027911Y029919D03*
X028011Y029819D03*
X028211Y028752D03*
X028211Y028719D03*
X023711Y029252D03*
D26*
X022427Y028652D03*
D27*
X015277Y028686D03*
D28*
X021111Y028686D03*
D29*
X022977Y030386D03*
X023277Y030286D03*
X024377Y030086D03*
X024377Y029786D03*
X023477Y028686D03*
X023777Y031386D03*
X026444Y030086D03*
X026677Y030386D03*
X026744Y032186D03*
X028244Y032186D03*
X018944Y029786D03*
X016677Y029986D03*
X014744Y030786D03*
D30*
X014761Y031486D03*
X014994Y031486D03*
X015128Y031786D03*
X014261Y031486D03*
X013728Y031086D03*
X013228Y032286D03*
X015761Y030586D03*
X016528Y029986D03*
X016528Y029686D03*
X017194Y029986D03*
X016994Y030286D03*
X016994Y030386D03*
X017328Y030386D03*
X017761Y030086D03*
X018294Y030186D03*
X017994Y030786D03*
X018161Y030986D03*
X017461Y031486D03*
X017494Y031786D03*
X017628Y031786D03*
X017128Y031486D03*
X016194Y031486D03*
X016028Y031686D03*
X018361Y029286D03*
X018361Y029186D03*
X019161Y031486D03*
X019394Y031486D03*
X019961Y031486D03*
X020161Y031686D03*
X021328Y030686D03*
X021994Y030986D03*
X021828Y031786D03*
X022694Y031786D03*
X023061Y031486D03*
X023294Y031486D03*
X024061Y030586D03*
X024861Y029986D03*
X025161Y030886D03*
X025961Y030486D03*
X026194Y030386D03*
X026494Y030686D03*
X026694Y031386D03*
X027594Y030186D03*
X028228Y028786D03*
X026794Y028786D03*
X026794Y028686D03*
X025628Y028786D03*
X024828Y028786D03*
X022828Y030386D03*
X022728Y029286D03*
X022728Y029186D03*
X013228Y029286D03*
D31*
X013211Y029186D03*
X013711Y031186D03*
X015911Y030886D03*
X016011Y030686D03*
X016211Y030686D03*
X024211Y030886D03*
X026011Y030686D03*
X028211Y028686D03*
D32*
X026027Y030319D03*
X026127Y030519D03*
X025194Y030319D03*
X024127Y030319D03*
X023994Y030919D03*
X023494Y030919D03*
X022794Y030619D03*
X022794Y029852D03*
X022794Y029819D03*
X021594Y030252D03*
X021227Y030719D03*
X021027Y030719D03*
X020194Y030352D03*
X019294Y028719D03*
X017727Y030319D03*
X017027Y030219D03*
X017027Y030419D03*
X017027Y030019D03*
X017394Y031452D03*
X017294Y031852D03*
X014527Y030252D03*
X013694Y031152D03*
X022327Y031452D03*
D33*
X020128Y028719D03*
X027361Y028719D03*
D34*
X025911Y029952D03*
X026511Y030619D03*
X026511Y031319D03*
X026511Y031752D03*
X026111Y031652D03*
X024611Y030052D03*
X024311Y030619D03*
X024311Y030652D03*
X024211Y030652D03*
X024511Y030919D03*
X024411Y032052D03*
X023311Y031552D03*
X023311Y031519D03*
X023311Y031419D03*
X022911Y031719D03*
X022911Y031752D03*
X022411Y031519D03*
X021811Y031519D03*
X021811Y031552D03*
X021811Y031619D03*
X021811Y031652D03*
X021811Y031719D03*
X021811Y031752D03*
X021811Y031852D03*
X021711Y031552D03*
X021711Y031519D03*
X021711Y031452D03*
X021811Y031452D03*
X021311Y031652D03*
X021311Y031852D03*
X021311Y031919D03*
X020611Y031852D03*
X020611Y031819D03*
X020611Y031752D03*
X020611Y031719D03*
X020611Y031652D03*
X020611Y031519D03*
X020311Y031519D03*
X020311Y031552D03*
X020311Y031619D03*
X020311Y031652D03*
X020311Y031719D03*
X020311Y031752D03*
X020311Y031819D03*
X020311Y031852D03*
X020311Y031919D03*
X020311Y031952D03*
X020211Y031852D03*
X020211Y031819D03*
X020211Y031752D03*
X020211Y031552D03*
X020211Y031519D03*
X019411Y031519D03*
X019411Y031552D03*
X019011Y031719D03*
X019011Y031752D03*
X018611Y031752D03*
X018611Y031719D03*
X018611Y031652D03*
X018611Y031619D03*
X018511Y031452D03*
X018611Y031819D03*
X018611Y031852D03*
X018111Y031719D03*
X018111Y031652D03*
X018111Y031619D03*
X018111Y031552D03*
X018111Y031519D03*
X017611Y031519D03*
X017611Y031552D03*
X017611Y031619D03*
X017611Y031652D03*
X017611Y031719D03*
X017611Y031752D03*
X017611Y031452D03*
X017111Y031752D03*
X016711Y031652D03*
X016311Y031719D03*
X016311Y031752D03*
X016311Y031819D03*
X016311Y031852D03*
X016311Y031919D03*
X016311Y031952D03*
X015911Y031852D03*
X015911Y031819D03*
X015911Y031752D03*
X015911Y031652D03*
X015911Y031619D03*
X015911Y031552D03*
X015911Y031519D03*
X016211Y031519D03*
X015111Y031519D03*
X015111Y031552D03*
X015111Y031619D03*
X015111Y031652D03*
X015111Y031719D03*
X015111Y031752D03*
X015111Y031852D03*
X015011Y031619D03*
X015011Y031552D03*
X015011Y031519D03*
X015011Y031419D03*
X015111Y031452D03*
X014611Y031719D03*
X014611Y031752D03*
X014611Y031819D03*
X014611Y031852D03*
X014511Y031552D03*
X014511Y031519D03*
X014111Y031652D03*
X013711Y031819D03*
X013711Y031852D03*
X013711Y031919D03*
X014511Y030819D03*
X014511Y030752D03*
X017411Y030419D03*
X018011Y030819D03*
X018511Y029119D03*
X018611Y029052D03*
X018811Y028952D03*
X019011Y028852D03*
X019311Y028752D03*
X022011Y030852D03*
X022511Y030119D03*
X022611Y029852D03*
X022811Y030252D03*
X024311Y029019D03*
X024711Y028819D03*
X024811Y029052D03*
D35*
X024944Y030919D03*
X026977Y028752D03*
X021177Y030752D03*
X013377Y030252D03*
X013377Y030219D03*
D36*
X013711Y031486D03*
X013711Y031886D03*
X014111Y031786D03*
X014111Y031486D03*
X014611Y031786D03*
X015011Y031586D03*
X015111Y031586D03*
X015111Y031686D03*
X015111Y031486D03*
X015011Y031386D03*
X015911Y031486D03*
X015911Y031586D03*
X015911Y031686D03*
X015911Y031786D03*
X015911Y031886D03*
X016311Y031886D03*
X016311Y031786D03*
X016711Y031786D03*
X016711Y031486D03*
X017111Y031786D03*
X017611Y031686D03*
X017611Y031586D03*
X017611Y031486D03*
X018111Y031586D03*
X018111Y031686D03*
X018611Y031686D03*
X018611Y031786D03*
X019011Y031486D03*
X019911Y031886D03*
X020211Y031886D03*
X020311Y031886D03*
X020311Y031786D03*
X020211Y031786D03*
X020311Y031686D03*
X020311Y031586D03*
X020211Y031586D03*
X020311Y031486D03*
X020611Y031486D03*
X020611Y031686D03*
X020611Y031786D03*
X021311Y031886D03*
X021711Y031586D03*
X021811Y031586D03*
X021811Y031686D03*
X021811Y031486D03*
X021711Y031486D03*
X022011Y030886D03*
X022011Y030786D03*
X021411Y030386D03*
X020211Y030186D03*
X019411Y030286D03*
X018811Y029986D03*
X018611Y030186D03*
X019111Y028786D03*
X022411Y031786D03*
X023311Y031586D03*
X023411Y030786D03*
X024511Y030586D03*
X024811Y031586D03*
X023811Y032286D03*
X024111Y028886D03*
X026611Y029286D03*
X027911Y030186D03*
X028111Y029986D03*
D37*
X025244Y028986D03*
X013944Y030586D03*
D38*
X017977Y029219D03*
D39*
X019044Y029252D03*
D40*
X019861Y030719D03*
X022561Y029819D03*
X023261Y030319D03*
X023661Y030819D03*
X026761Y029252D03*
X015961Y030652D03*
X015361Y030819D03*
X015961Y031719D03*
X014761Y029852D03*
D41*
X014411Y029752D03*
X014411Y029719D03*
X014411Y029652D03*
X014411Y029619D03*
X013944Y030252D03*
X013944Y030652D03*
X013911Y030752D03*
X013644Y031019D03*
X013344Y030719D03*
X013311Y030619D03*
X013344Y030119D03*
X014478Y030519D03*
X015544Y030719D03*
X015511Y029819D03*
X016144Y029819D03*
X016144Y029852D03*
X016144Y029919D03*
X016611Y029919D03*
X016611Y029852D03*
X016611Y029819D03*
X020178Y030652D03*
X020178Y030719D03*
X020911Y029952D03*
X020911Y029919D03*
X021411Y029919D03*
X021411Y029952D03*
X021944Y029919D03*
X021944Y030019D03*
X023844Y030719D03*
X025678Y030619D03*
X026811Y029952D03*
X027344Y030119D03*
D42*
X027361Y030019D03*
X027661Y030719D03*
X025661Y030652D03*
X025261Y031652D03*
X022361Y030352D03*
X020161Y030619D03*
X018361Y030719D03*
X013561Y029719D03*
X013561Y029652D03*
D43*
X013561Y029686D03*
X015461Y030586D03*
X020161Y030586D03*
X021961Y029786D03*
X023761Y030586D03*
D44*
X023911Y030886D03*
X025711Y030686D03*
X025744Y030786D03*
X027344Y030086D03*
X021944Y029986D03*
X021411Y029986D03*
X021411Y029886D03*
X021211Y030186D03*
X020911Y029886D03*
X020244Y029986D03*
X020178Y030686D03*
X018044Y030086D03*
X017111Y030786D03*
X016611Y029886D03*
X016611Y029786D03*
X016144Y029786D03*
X015611Y030886D03*
X014478Y030086D03*
X014411Y029686D03*
X013944Y030686D03*
X013378Y030786D03*
X013344Y030686D03*
D45*
X013561Y031452D03*
X013961Y031452D03*
X013961Y031619D03*
X014894Y031452D03*
X014928Y030552D03*
X015361Y030319D03*
X015294Y030219D03*
X015261Y030152D03*
X015261Y030119D03*
X015294Y030052D03*
X016128Y030152D03*
X016128Y030452D03*
X016628Y030352D03*
X016628Y030119D03*
X016561Y031619D03*
X018128Y030552D03*
X019094Y030452D03*
X019761Y030019D03*
X020228Y030052D03*
X020794Y030119D03*
X020894Y029819D03*
X021194Y030319D03*
X021194Y030352D03*
X021194Y030452D03*
X021894Y029752D03*
X022428Y030552D03*
X022928Y030452D03*
X022928Y030419D03*
X023294Y030419D03*
X023594Y030452D03*
X023661Y030319D03*
X023561Y030152D03*
X023561Y030119D03*
X023594Y030052D03*
X023561Y029719D03*
X024361Y030019D03*
X024728Y030419D03*
X024728Y030452D03*
X024761Y030519D03*
X025194Y030419D03*
X025561Y030452D03*
X025594Y030519D03*
X025594Y030552D03*
X025561Y030352D03*
X025561Y030219D03*
X025194Y030019D03*
X024994Y030952D03*
X025694Y030852D03*
X026094Y030419D03*
X026094Y030252D03*
X026094Y030219D03*
X026094Y030152D03*
X026428Y029952D03*
X026428Y029919D03*
X026828Y030019D03*
X026894Y030152D03*
X026928Y030219D03*
X027961Y029852D03*
X023194Y031452D03*
X021161Y031619D03*
X020228Y031019D03*
X018861Y031452D03*
D46*
X019277Y031452D03*
X020044Y031452D03*
X020244Y030852D03*
X020244Y030819D03*
X020244Y030752D03*
X019744Y030452D03*
X019377Y030652D03*
X019077Y030419D03*
X019077Y030352D03*
X019077Y030219D03*
X019077Y030152D03*
X019077Y030119D03*
X019077Y030052D03*
X019077Y030019D03*
X018577Y030552D03*
X018144Y030419D03*
X017677Y030552D03*
X017677Y030619D03*
X017677Y030652D03*
X017677Y030719D03*
X017677Y030752D03*
X016144Y030419D03*
X016144Y030319D03*
X016144Y030252D03*
X016144Y030219D03*
X015777Y030119D03*
X015744Y030052D03*
X015744Y030019D03*
X015777Y030352D03*
X015744Y030419D03*
X015744Y030452D03*
X014877Y031352D03*
X014744Y030752D03*
X014877Y031819D03*
X020244Y030119D03*
X020744Y030252D03*
X020744Y030319D03*
X020744Y030352D03*
X020777Y030152D03*
X021644Y030452D03*
X021977Y030452D03*
X021977Y030419D03*
X021944Y030119D03*
X022444Y030019D03*
X022444Y030419D03*
X022444Y030452D03*
X022444Y030519D03*
X023244Y030519D03*
X023244Y030552D03*
X023177Y031352D03*
X023177Y031819D03*
X022777Y031819D03*
X024044Y030452D03*
X024044Y030419D03*
X024077Y030119D03*
X024044Y030052D03*
X024044Y030019D03*
X024377Y029952D03*
X024377Y029919D03*
X024377Y029852D03*
X024777Y030852D03*
X025644Y030952D03*
X025577Y030152D03*
X025577Y030119D03*
X025577Y030019D03*
X026877Y029719D03*
X027444Y030452D03*
X027877Y030552D03*
D47*
X024994Y030719D03*
X023794Y029852D03*
X021994Y029819D03*
X018028Y030452D03*
X017728Y031052D03*
X017094Y031019D03*
X017094Y030952D03*
X017094Y030919D03*
X017094Y030852D03*
X017094Y030819D03*
X016561Y030652D03*
X015494Y029852D03*
X013828Y030019D03*
X013594Y029752D03*
X013361Y030519D03*
D48*
X014444Y030419D03*
X014444Y030352D03*
X014444Y030319D03*
X014444Y030219D03*
X014477Y030119D03*
X016144Y029952D03*
X016644Y030419D03*
X017644Y030819D03*
X018044Y029752D03*
X019077Y029952D03*
X019077Y030519D03*
X019044Y030552D03*
X019044Y030652D03*
X019744Y030419D03*
X020244Y030019D03*
X020444Y031452D03*
X021644Y030652D03*
X021644Y030552D03*
X021644Y030519D03*
X021877Y030052D03*
X022144Y030752D03*
X022877Y030652D03*
X025044Y029852D03*
X026844Y030052D03*
X026877Y030119D03*
X026977Y030319D03*
X027044Y030419D03*
X027044Y030452D03*
X027344Y029752D03*
X016044Y031452D03*
D49*
X015494Y029886D03*
X013627Y029786D03*
X017927Y030186D03*
X022194Y030686D03*
X024994Y030686D03*
X027627Y030686D03*
D50*
X027011Y030386D03*
X026911Y030186D03*
X026811Y029986D03*
X024711Y030186D03*
X024711Y030286D03*
X024711Y030386D03*
X021411Y029786D03*
X020911Y029786D03*
X020211Y030986D03*
X020211Y031086D03*
X018111Y030486D03*
X017711Y030286D03*
X017111Y030086D03*
X014411Y029786D03*
D51*
X014411Y029886D03*
X014911Y030086D03*
X015511Y029786D03*
X016611Y030086D03*
X016611Y030286D03*
X016611Y030386D03*
X018611Y030386D03*
X018611Y030486D03*
X019411Y030486D03*
X022911Y030086D03*
X023811Y029786D03*
X024011Y029986D03*
X025211Y030086D03*
X025211Y030186D03*
X025011Y030786D03*
X026111Y030086D03*
X027911Y030386D03*
X027911Y030486D03*
D52*
X023811Y029886D03*
X017111Y029886D03*
X017111Y029786D03*
D53*
X017644Y029786D03*
X018544Y030586D03*
X019044Y030686D03*
X020977Y030686D03*
X021644Y030486D03*
X022377Y030586D03*
X022877Y030686D03*
X023644Y029986D03*
X024744Y030486D03*
X026977Y030286D03*
X027844Y030586D03*
X016177Y030286D03*
X016144Y030486D03*
X015344Y029986D03*
X014444Y030286D03*
X014444Y030386D03*
X014377Y030786D03*
D54*
X013894Y030786D03*
X013327Y030286D03*
X016127Y029886D03*
X018094Y029786D03*
X020694Y030486D03*
X020694Y030586D03*
X021194Y030486D03*
D55*
X020061Y031986D03*
X018961Y030586D03*
X018961Y029886D03*
X018661Y029786D03*
X016061Y031986D03*
X027961Y029786D03*
D56*
X027394Y030386D03*
X022894Y030286D03*
X022894Y030186D03*
X022394Y029986D03*
X021994Y030486D03*
X021627Y030386D03*
X021127Y031586D03*
X019427Y030386D03*
X019894Y029786D03*
X018094Y030386D03*
X015794Y030386D03*
X014927Y030486D03*
X014527Y030486D03*
D57*
X017194Y030286D03*
X019394Y030686D03*
X021027Y029986D03*
X022494Y029786D03*
X022794Y029786D03*
X022794Y029886D03*
X023227Y030686D03*
X024794Y030886D03*
X024994Y030886D03*
X025494Y030286D03*
X025627Y029886D03*
X026027Y029886D03*
X026427Y029786D03*
X026694Y030486D03*
X025027Y029786D03*
X024694Y029986D03*
D58*
X027111Y029786D03*
D59*
X026927Y030519D03*
X024994Y030652D03*
X023794Y029952D03*
X022194Y030619D03*
X019194Y030619D03*
X017894Y030152D03*
X015494Y029952D03*
X013627Y029819D03*
X013627Y030952D03*
D60*
X014511Y030452D03*
X014411Y029852D03*
X014411Y029819D03*
X015211Y031819D03*
X016611Y030452D03*
X016611Y030319D03*
X016611Y030252D03*
X016611Y030219D03*
X016611Y030152D03*
X016611Y030052D03*
X016611Y030019D03*
X018611Y030019D03*
X018611Y030419D03*
X018611Y030452D03*
X018611Y030519D03*
X019411Y030519D03*
X019411Y030552D03*
X021911Y030152D03*
X022011Y030552D03*
X022911Y030352D03*
X022911Y030219D03*
X022911Y030152D03*
X022911Y030052D03*
X022911Y030019D03*
X023711Y030852D03*
X025211Y030152D03*
X025211Y030119D03*
X025211Y030052D03*
X026111Y030119D03*
X027911Y030019D03*
X027911Y030419D03*
X027911Y030452D03*
X027911Y030519D03*
X021911Y031819D03*
D61*
X023811Y030652D03*
X017111Y029919D03*
X017111Y029852D03*
X017111Y029819D03*
X015511Y030652D03*
D62*
X017944Y029819D03*
X018277Y030219D03*
D63*
X017727Y030252D03*
X017627Y030852D03*
X017627Y030919D03*
X017627Y030952D03*
X017094Y030752D03*
X017094Y030719D03*
X017094Y030652D03*
X017094Y030619D03*
X017094Y030552D03*
X016594Y030519D03*
X016094Y030052D03*
X016094Y030019D03*
X015427Y030352D03*
X013927Y030119D03*
X013294Y030319D03*
X013294Y030352D03*
X013294Y030419D03*
X013327Y030652D03*
X019894Y029819D03*
X020294Y029819D03*
X021194Y030219D03*
X021194Y030252D03*
X021194Y030419D03*
X022894Y030552D03*
X024994Y030752D03*
X027327Y030052D03*
D64*
X027011Y030352D03*
X027611Y030752D03*
X025711Y030752D03*
X025711Y030719D03*
X025711Y030819D03*
X025211Y030519D03*
X025211Y030452D03*
X024711Y030352D03*
X024711Y030319D03*
X024711Y030252D03*
X024711Y030219D03*
X024711Y030152D03*
X024711Y030119D03*
X023611Y030019D03*
X022911Y029952D03*
X022911Y030519D03*
X021411Y029852D03*
X021411Y029819D03*
X020911Y029852D03*
X020711Y030452D03*
X020211Y030919D03*
X020211Y030952D03*
X020211Y031052D03*
X019811Y030552D03*
X018311Y030752D03*
X018111Y030519D03*
X017111Y030252D03*
X017111Y030152D03*
X017111Y030119D03*
X016611Y029952D03*
X015311Y030019D03*
D65*
X016127Y030519D03*
X013927Y030719D03*
X013327Y030152D03*
X018527Y030352D03*
X020694Y030519D03*
X020694Y030552D03*
X020694Y030619D03*
X020694Y030652D03*
X020927Y030019D03*
X021194Y030119D03*
X021194Y030152D03*
X021194Y030519D03*
X021194Y030552D03*
X021194Y030652D03*
X022194Y030719D03*
X023827Y029819D03*
X027827Y030352D03*
D66*
X025644Y030919D03*
X025278Y030952D03*
X025511Y030319D03*
X025611Y029919D03*
X024378Y029819D03*
X024378Y030052D03*
X024144Y030519D03*
X023978Y030852D03*
X023878Y030819D03*
X023811Y030752D03*
X023644Y030419D03*
X023644Y030219D03*
X023244Y030352D03*
X022811Y029919D03*
X022444Y029852D03*
X021578Y030152D03*
X021544Y030119D03*
X021578Y030219D03*
X021611Y030319D03*
X021611Y030352D03*
X021511Y031819D03*
X020078Y031652D03*
X019811Y030652D03*
X019411Y030352D03*
X018978Y029919D03*
X018611Y029852D03*
X017678Y031819D03*
X016178Y030652D03*
X015578Y030819D03*
X015511Y030752D03*
X015344Y030452D03*
X015344Y030419D03*
X014944Y030452D03*
X014944Y030252D03*
X014544Y030152D03*
X014844Y031319D03*
X014378Y031619D03*
X013678Y031052D03*
X023144Y031319D03*
X025244Y031919D03*
D67*
X023761Y030919D03*
X023261Y030452D03*
X024061Y030152D03*
X025061Y029819D03*
X025561Y030052D03*
X027461Y030519D03*
X027461Y030552D03*
X020761Y030419D03*
X020761Y030219D03*
X020261Y030519D03*
X020261Y030552D03*
X019061Y030319D03*
X017661Y030219D03*
X017061Y030452D03*
X016961Y029952D03*
X016161Y030119D03*
X016161Y030352D03*
X015761Y030152D03*
X014961Y030219D03*
X014961Y030319D03*
X014961Y030352D03*
X014961Y030419D03*
X014561Y030552D03*
X014361Y031452D03*
X017961Y031819D03*
D68*
X017994Y031452D03*
X018327Y031819D03*
X018894Y031819D03*
X019294Y031619D03*
X019794Y030619D03*
X019727Y030519D03*
X019694Y030352D03*
X019427Y030419D03*
X019427Y030452D03*
X020194Y030452D03*
X020227Y030419D03*
X021627Y030419D03*
X021994Y030519D03*
X022894Y030319D03*
X023227Y030652D03*
X023627Y030519D03*
X025194Y030352D03*
X025594Y030419D03*
X026094Y030052D03*
X026427Y030052D03*
X026427Y030019D03*
X026427Y029852D03*
X026427Y029819D03*
X025594Y029952D03*
X027394Y030152D03*
X027427Y030419D03*
X022327Y031819D03*
X017394Y031819D03*
X016994Y031819D03*
X016594Y031819D03*
X016494Y030719D03*
X015794Y030319D03*
X015327Y030519D03*
X014927Y030519D03*
X014927Y030152D03*
X014927Y030119D03*
X014327Y030752D03*
X014327Y030819D03*
X013994Y031819D03*
D69*
X027161Y029819D03*
D70*
X022211Y030219D03*
X022211Y030252D03*
X013611Y029852D03*
D71*
X017944Y029852D03*
X027111Y029919D03*
D72*
X024978Y030552D03*
X020078Y029852D03*
X018344Y030252D03*
X016344Y030552D03*
X016344Y030619D03*
X014578Y030652D03*
D73*
X013927Y030552D03*
X013927Y030519D03*
X015527Y030619D03*
X017927Y030052D03*
X022027Y029852D03*
X023827Y030619D03*
D74*
X027177Y029852D03*
D75*
X013627Y029886D03*
X013627Y030886D03*
D76*
X014761Y029886D03*
X015294Y030086D03*
X015261Y030186D03*
X015694Y029986D03*
X016128Y029986D03*
X016628Y030186D03*
X016594Y030486D03*
X017094Y030186D03*
X017661Y030786D03*
X018194Y030586D03*
X019094Y030486D03*
X019728Y030386D03*
X019761Y030486D03*
X020228Y030486D03*
X020228Y030886D03*
X021228Y030786D03*
X021194Y030386D03*
X022028Y030586D03*
X022928Y030486D03*
X022928Y029986D03*
X023561Y030186D03*
X023594Y030086D03*
X024361Y029986D03*
X024728Y030086D03*
X025161Y029986D03*
X025194Y030386D03*
X025561Y030386D03*
X025561Y030486D03*
X026094Y030286D03*
X026094Y030186D03*
X026861Y030086D03*
X027494Y030586D03*
X020428Y031986D03*
D77*
X017927Y029886D03*
X017427Y030486D03*
X013627Y030086D03*
D78*
X014944Y030186D03*
X015344Y030486D03*
X017011Y029986D03*
X018544Y029886D03*
X019678Y030286D03*
X019811Y030686D03*
X020811Y029986D03*
X021578Y030186D03*
X021611Y030286D03*
X021944Y030186D03*
X022378Y029886D03*
X021511Y030786D03*
X023644Y030486D03*
X025578Y029986D03*
X026144Y030486D03*
X025678Y030986D03*
X027411Y030986D03*
X027411Y030186D03*
X027844Y029886D03*
D79*
X025011Y030586D03*
X020078Y029886D03*
X017911Y029986D03*
X016411Y030586D03*
D80*
X017094Y030886D03*
X017094Y030986D03*
X013361Y030586D03*
X021994Y029886D03*
X027361Y029986D03*
D81*
X027444Y030486D03*
X026444Y029986D03*
X026444Y029886D03*
X025577Y030086D03*
X025577Y030186D03*
X024377Y029886D03*
X024077Y030086D03*
X024044Y030486D03*
X022444Y030486D03*
X022444Y030386D03*
X020777Y030186D03*
X020744Y030286D03*
X020244Y030386D03*
X020244Y030086D03*
X019777Y030586D03*
X020244Y030786D03*
X019077Y030386D03*
X019077Y030286D03*
X019077Y030086D03*
X019077Y029986D03*
X017677Y030586D03*
X017677Y030686D03*
X016144Y030386D03*
X016144Y030186D03*
X015777Y030086D03*
X015744Y030486D03*
X013544Y031986D03*
X021144Y031986D03*
D82*
X023761Y030686D03*
X024961Y029886D03*
D83*
X027161Y029886D03*
D84*
X021394Y030619D03*
X013627Y030819D03*
X013627Y030852D03*
X013627Y029952D03*
X013627Y029919D03*
D85*
X014611Y029919D03*
D86*
X015511Y029919D03*
X017744Y031019D03*
X018444Y030319D03*
X022211Y030652D03*
X022278Y030319D03*
X027744Y030319D03*
D87*
X027677Y030252D03*
X027677Y030219D03*
X023844Y030252D03*
X017944Y029919D03*
X015544Y030252D03*
X014644Y030019D03*
D88*
X020061Y029952D03*
X020061Y029919D03*
D89*
X022077Y029952D03*
X023777Y029919D03*
X023877Y030352D03*
X026944Y030552D03*
X026944Y030619D03*
X026944Y030652D03*
X014677Y030619D03*
X013644Y030919D03*
D90*
X018361Y030619D03*
X024961Y029919D03*
X027661Y030619D03*
D91*
X024994Y030619D03*
X017894Y030119D03*
X014628Y029952D03*
D92*
X018027Y029952D03*
D93*
X015444Y030552D03*
X013944Y030619D03*
X013344Y030552D03*
X023144Y030619D03*
X023744Y030552D03*
X025044Y029952D03*
D94*
X027477Y029952D03*
D95*
X013628Y029986D03*
D96*
X014644Y029986D03*
X014577Y030686D03*
X015544Y030286D03*
X023844Y030286D03*
D97*
X023261Y030386D03*
X023261Y030486D03*
X021961Y030386D03*
X021961Y030086D03*
X019061Y030186D03*
X018561Y029986D03*
X016161Y030086D03*
X014961Y030286D03*
X014961Y030386D03*
X025661Y030886D03*
X026061Y030586D03*
X027861Y029986D03*
D98*
X025627Y030586D03*
X025194Y030486D03*
X021194Y030286D03*
X019794Y029986D03*
X017627Y030886D03*
X017094Y030686D03*
X017094Y030586D03*
X016527Y030686D03*
X015427Y030386D03*
X013294Y030386D03*
D99*
X013361Y030752D03*
X013961Y030419D03*
X013961Y030352D03*
X013961Y030319D03*
X013361Y030019D03*
X026961Y030252D03*
D100*
X017894Y030019D03*
D101*
X015511Y030852D03*
X013911Y030219D03*
X020911Y030052D03*
X021411Y030052D03*
X021411Y030019D03*
D102*
X013627Y030052D03*
D103*
X014661Y030052D03*
X014561Y030719D03*
D104*
X015511Y030686D03*
X013611Y030986D03*
X019311Y030586D03*
X020911Y030086D03*
X021411Y030086D03*
D105*
X018361Y030652D03*
X013861Y030152D03*
X027661Y030652D03*
D106*
X013627Y030186D03*
D107*
X013961Y030286D03*
X013961Y030386D03*
X014461Y030186D03*
X020761Y030386D03*
X027061Y030486D03*
D108*
X027727Y030286D03*
X018427Y030286D03*
D109*
X017761Y030986D03*
X022261Y030286D03*
X023861Y030386D03*
D110*
X013644Y030452D03*
D111*
X013644Y030486D03*
D112*
X017361Y030519D03*
D113*
X014677Y030586D03*
X023044Y030586D03*
X026944Y030586D03*
D114*
X021394Y030586D03*
D115*
X018311Y030686D03*
X026944Y030686D03*
D116*
X027278Y032152D03*
D117*
X018511Y032186D03*
D118*
X018511Y032219D03*
D119*
X018194Y028622D02*
X018194Y028540D01*
X018194Y028376D02*
X018194Y028050D01*
X018275Y028050D02*
X018112Y028050D01*
X018112Y028376D02*
X018194Y028376D01*
X018456Y028376D02*
X018456Y028050D01*
X018456Y028376D02*
X018701Y028376D01*
X018783Y028295D01*
X018783Y028050D01*
X018971Y028131D02*
X019053Y028050D01*
X019298Y028050D01*
X019298Y027968D02*
X019216Y027886D01*
X019135Y027886D01*
X019298Y027968D02*
X019298Y028376D01*
X019487Y028295D02*
X019814Y028295D01*
X020002Y028540D02*
X020329Y028540D01*
X020166Y028540D02*
X020166Y028050D01*
X020518Y028050D02*
X020682Y028050D01*
X020600Y028050D02*
X020600Y028376D01*
X020518Y028376D01*
X020600Y028540D02*
X020600Y028622D01*
X020862Y028376D02*
X021107Y028376D01*
X021189Y028295D01*
X021189Y028050D01*
X021378Y028131D02*
X021459Y028050D01*
X021704Y028050D01*
X021704Y027968D02*
X021623Y027886D01*
X021541Y027886D01*
X021704Y027968D02*
X021704Y028376D01*
X021893Y028295D02*
X022220Y028295D01*
X022409Y028458D02*
X022409Y028131D01*
X022491Y028050D01*
X022654Y028050D01*
X022736Y028131D01*
X022736Y028295D01*
X022572Y028295D01*
X022409Y028458D02*
X022491Y028540D01*
X022654Y028540D01*
X022736Y028458D01*
X023440Y028540D02*
X023767Y028540D01*
X023604Y028540D02*
X023604Y028050D01*
X023956Y028131D02*
X023956Y028295D01*
X024037Y028376D01*
X024201Y028376D01*
X024283Y028295D01*
X024283Y028213D01*
X023956Y028213D01*
X023956Y028131D02*
X024037Y028050D01*
X024201Y028050D01*
X024471Y028050D02*
X024717Y028050D01*
X024798Y028131D01*
X024717Y028213D01*
X024553Y028213D01*
X024471Y028295D01*
X024553Y028376D01*
X024798Y028376D01*
X024987Y028376D02*
X025150Y028376D01*
X025069Y028458D02*
X025069Y028131D01*
X025150Y028050D01*
X025846Y028050D02*
X025846Y028540D01*
X026092Y028540D01*
X026173Y028458D01*
X026173Y028376D01*
X026092Y028295D01*
X025846Y028295D01*
X025846Y028050D02*
X026092Y028050D01*
X026173Y028131D01*
X026173Y028213D01*
X026092Y028295D01*
X026362Y028295D02*
X026362Y028131D01*
X026444Y028050D01*
X026607Y028050D01*
X026689Y028131D01*
X026689Y028295D01*
X026607Y028376D01*
X026444Y028376D01*
X026362Y028295D01*
X026878Y028131D02*
X026959Y028213D01*
X027205Y028213D01*
X027205Y028295D02*
X027205Y028050D01*
X026959Y028050D01*
X026878Y028131D01*
X026959Y028376D02*
X027123Y028376D01*
X027205Y028295D01*
X027393Y028376D02*
X027393Y028050D01*
X027393Y028213D02*
X027557Y028376D01*
X027639Y028376D01*
X027823Y028295D02*
X027905Y028376D01*
X028150Y028376D01*
X028150Y028540D02*
X028150Y028050D01*
X027905Y028050D01*
X027823Y028131D01*
X027823Y028295D01*
X021378Y028376D02*
X021378Y028131D01*
X020862Y028050D02*
X020862Y028376D01*
X018971Y028376D02*
X018971Y028131D01*
X017923Y028540D02*
X017596Y028540D01*
X017760Y028540D02*
X017760Y028050D01*
D120*
G36*
X023856Y018794D02*
X024040Y018610D01*
X023680Y018250D01*
X023496Y018434D01*
X023856Y018794D01*
G37*
G36*
X024079Y018571D02*
X024263Y018387D01*
X023903Y018027D01*
X023719Y018211D01*
X024079Y018571D01*
G37*
G36*
X024301Y018348D02*
X024485Y018164D01*
X024125Y017804D01*
X023941Y017988D01*
X024301Y018348D01*
G37*
G36*
X024524Y018126D02*
X024708Y017942D01*
X024348Y017582D01*
X024164Y017766D01*
X024524Y018126D01*
G37*
G36*
X024747Y017903D02*
X024931Y017719D01*
X024571Y017359D01*
X024387Y017543D01*
X024747Y017903D01*
G37*
G36*
X024970Y017680D02*
X025154Y017496D01*
X024794Y017136D01*
X024610Y017320D01*
X024970Y017680D01*
G37*
G36*
X025192Y017457D02*
X025376Y017273D01*
X025016Y016913D01*
X024832Y017097D01*
X025192Y017457D01*
G37*
G36*
X025415Y017235D02*
X025599Y017051D01*
X025239Y016691D01*
X025055Y016875D01*
X025415Y017235D01*
G37*
G36*
X025638Y017012D02*
X025822Y016828D01*
X025462Y016468D01*
X025278Y016652D01*
X025638Y017012D01*
G37*
G36*
X025860Y016789D02*
X026044Y016605D01*
X025684Y016245D01*
X025500Y016429D01*
X025860Y016789D01*
G37*
G36*
X026083Y016567D02*
X026267Y016383D01*
X025907Y016023D01*
X025723Y016207D01*
X026083Y016567D01*
G37*
G36*
X026306Y016344D02*
X026490Y016160D01*
X026130Y015800D01*
X025946Y015984D01*
X026306Y016344D01*
G37*
G36*
X026529Y016121D02*
X026713Y015937D01*
X026353Y015577D01*
X026169Y015761D01*
X026529Y016121D01*
G37*
G36*
X026751Y015899D02*
X026935Y015715D01*
X026575Y015355D01*
X026391Y015539D01*
X026751Y015899D01*
G37*
G36*
X026974Y015676D02*
X027158Y015492D01*
X026798Y015132D01*
X026614Y015316D01*
X026974Y015676D01*
G37*
G36*
X027197Y015453D02*
X027381Y015269D01*
X027021Y014909D01*
X026837Y015093D01*
X027197Y015453D01*
G37*
G36*
X022854Y011110D02*
X023038Y010926D01*
X022678Y010566D01*
X022494Y010750D01*
X022854Y011110D01*
G37*
G36*
X022631Y011333D02*
X022815Y011149D01*
X022455Y010789D01*
X022271Y010973D01*
X022631Y011333D01*
G37*
G36*
X022408Y011556D02*
X022592Y011372D01*
X022232Y011012D01*
X022048Y011196D01*
X022408Y011556D01*
G37*
G36*
X022186Y011778D02*
X022370Y011594D01*
X022010Y011234D01*
X021826Y011418D01*
X022186Y011778D01*
G37*
G36*
X021963Y012001D02*
X022147Y011817D01*
X021787Y011457D01*
X021603Y011641D01*
X021963Y012001D01*
G37*
G36*
X021740Y012224D02*
X021924Y012040D01*
X021564Y011680D01*
X021380Y011864D01*
X021740Y012224D01*
G37*
G36*
X021518Y012447D02*
X021702Y012263D01*
X021342Y011903D01*
X021158Y012087D01*
X021518Y012447D01*
G37*
G36*
X021295Y012669D02*
X021479Y012485D01*
X021119Y012125D01*
X020935Y012309D01*
X021295Y012669D01*
G37*
G36*
X021072Y012892D02*
X021256Y012708D01*
X020896Y012348D01*
X020712Y012532D01*
X021072Y012892D01*
G37*
G36*
X020849Y013115D02*
X021033Y012931D01*
X020673Y012571D01*
X020489Y012755D01*
X020849Y013115D01*
G37*
G36*
X020627Y013337D02*
X020811Y013153D01*
X020451Y012793D01*
X020267Y012977D01*
X020627Y013337D01*
G37*
G36*
X020404Y013560D02*
X020588Y013376D01*
X020228Y013016D01*
X020044Y013200D01*
X020404Y013560D01*
G37*
G36*
X020181Y013783D02*
X020365Y013599D01*
X020005Y013239D01*
X019821Y013423D01*
X020181Y013783D01*
G37*
G36*
X019959Y014005D02*
X020143Y013821D01*
X019783Y013461D01*
X019599Y013645D01*
X019959Y014005D01*
G37*
G36*
X019736Y014228D02*
X019920Y014044D01*
X019560Y013684D01*
X019376Y013868D01*
X019736Y014228D01*
G37*
G36*
X019513Y014451D02*
X019697Y014267D01*
X019337Y013907D01*
X019153Y014091D01*
X019513Y014451D01*
G37*
D121*
G36*
X019337Y015453D02*
X019697Y015093D01*
X019513Y014909D01*
X019153Y015269D01*
X019337Y015453D01*
G37*
G36*
X019560Y015676D02*
X019920Y015316D01*
X019736Y015132D01*
X019376Y015492D01*
X019560Y015676D01*
G37*
G36*
X019783Y015899D02*
X020143Y015539D01*
X019959Y015355D01*
X019599Y015715D01*
X019783Y015899D01*
G37*
G36*
X020005Y016121D02*
X020365Y015761D01*
X020181Y015577D01*
X019821Y015937D01*
X020005Y016121D01*
G37*
G36*
X020228Y016344D02*
X020588Y015984D01*
X020404Y015800D01*
X020044Y016160D01*
X020228Y016344D01*
G37*
G36*
X020451Y016567D02*
X020811Y016207D01*
X020627Y016023D01*
X020267Y016383D01*
X020451Y016567D01*
G37*
G36*
X020673Y016789D02*
X021033Y016429D01*
X020849Y016245D01*
X020489Y016605D01*
X020673Y016789D01*
G37*
G36*
X020896Y017012D02*
X021256Y016652D01*
X021072Y016468D01*
X020712Y016828D01*
X020896Y017012D01*
G37*
G36*
X021119Y017235D02*
X021479Y016875D01*
X021295Y016691D01*
X020935Y017051D01*
X021119Y017235D01*
G37*
G36*
X021342Y017457D02*
X021702Y017097D01*
X021518Y016913D01*
X021158Y017273D01*
X021342Y017457D01*
G37*
G36*
X021564Y017680D02*
X021924Y017320D01*
X021740Y017136D01*
X021380Y017496D01*
X021564Y017680D01*
G37*
G36*
X021787Y017903D02*
X022147Y017543D01*
X021963Y017359D01*
X021603Y017719D01*
X021787Y017903D01*
G37*
G36*
X022010Y018126D02*
X022370Y017766D01*
X022186Y017582D01*
X021826Y017942D01*
X022010Y018126D01*
G37*
G36*
X022232Y018348D02*
X022592Y017988D01*
X022408Y017804D01*
X022048Y018164D01*
X022232Y018348D01*
G37*
G36*
X022455Y018571D02*
X022815Y018211D01*
X022631Y018027D01*
X022271Y018387D01*
X022455Y018571D01*
G37*
G36*
X022678Y018794D02*
X023038Y018434D01*
X022854Y018250D01*
X022494Y018610D01*
X022678Y018794D01*
G37*
G36*
X027021Y014451D02*
X027381Y014091D01*
X027197Y013907D01*
X026837Y014267D01*
X027021Y014451D01*
G37*
G36*
X026798Y014228D02*
X027158Y013868D01*
X026974Y013684D01*
X026614Y014044D01*
X026798Y014228D01*
G37*
G36*
X026575Y014005D02*
X026935Y013645D01*
X026751Y013461D01*
X026391Y013821D01*
X026575Y014005D01*
G37*
G36*
X026353Y013783D02*
X026713Y013423D01*
X026529Y013239D01*
X026169Y013599D01*
X026353Y013783D01*
G37*
G36*
X026130Y013560D02*
X026490Y013200D01*
X026306Y013016D01*
X025946Y013376D01*
X026130Y013560D01*
G37*
G36*
X025907Y013337D02*
X026267Y012977D01*
X026083Y012793D01*
X025723Y013153D01*
X025907Y013337D01*
G37*
G36*
X025684Y013115D02*
X026044Y012755D01*
X025860Y012571D01*
X025500Y012931D01*
X025684Y013115D01*
G37*
G36*
X025462Y012892D02*
X025822Y012532D01*
X025638Y012348D01*
X025278Y012708D01*
X025462Y012892D01*
G37*
G36*
X025239Y012669D02*
X025599Y012309D01*
X025415Y012125D01*
X025055Y012485D01*
X025239Y012669D01*
G37*
G36*
X025016Y012447D02*
X025376Y012087D01*
X025192Y011903D01*
X024832Y012263D01*
X025016Y012447D01*
G37*
G36*
X024794Y012224D02*
X025154Y011864D01*
X024970Y011680D01*
X024610Y012040D01*
X024794Y012224D01*
G37*
G36*
X024571Y012001D02*
X024931Y011641D01*
X024747Y011457D01*
X024387Y011817D01*
X024571Y012001D01*
G37*
G36*
X024348Y011778D02*
X024708Y011418D01*
X024524Y011234D01*
X024164Y011594D01*
X024348Y011778D01*
G37*
G36*
X024125Y011556D02*
X024485Y011196D01*
X024301Y011012D01*
X023941Y011372D01*
X024125Y011556D01*
G37*
G36*
X023903Y011333D02*
X024263Y010973D01*
X024079Y010789D01*
X023719Y011149D01*
X023903Y011333D01*
G37*
G36*
X023680Y011110D02*
X024040Y010750D01*
X023856Y010566D01*
X023496Y010926D01*
X023680Y011110D01*
G37*
D122*
G36*
X020266Y011389D02*
X021802Y009901D01*
X021246Y009327D01*
X019710Y010815D01*
X020266Y011389D01*
G37*
G36*
X017538Y014033D02*
X019074Y012545D01*
X018518Y011971D01*
X016982Y013459D01*
X017538Y014033D01*
G37*
D123*
G36*
X017043Y012112D02*
X017488Y011667D01*
X016905Y011084D01*
X016460Y011529D01*
X017043Y012112D01*
G37*
G36*
X017879Y011276D02*
X018324Y010831D01*
X017741Y010248D01*
X017296Y010693D01*
X017879Y011276D01*
G37*
G36*
X018780Y009209D02*
X018335Y009654D01*
X018918Y010237D01*
X019363Y009792D01*
X018780Y009209D01*
G37*
G36*
X019616Y008373D02*
X019171Y008818D01*
X019754Y009401D01*
X020199Y008956D01*
X019616Y008373D01*
G37*
X013733Y008305D03*
X012551Y008305D03*
X012551Y005930D03*
X013733Y005930D03*
X013733Y002305D03*
X012551Y002305D03*
X012551Y011805D03*
X013733Y011805D03*
X013733Y014430D03*
X012551Y014430D03*
X012551Y017930D03*
X013733Y017930D03*
X013733Y020430D03*
X012551Y020430D03*
X012551Y023930D03*
X013733Y023930D03*
D124*
G36*
X027667Y016680D02*
X026749Y017598D01*
X027111Y017960D01*
X028029Y017042D01*
X027667Y016680D01*
G37*
G36*
X029560Y014787D02*
X028642Y015705D01*
X029004Y016067D01*
X029922Y015149D01*
X029560Y014787D01*
G37*
G36*
X030673Y015900D02*
X029755Y016818D01*
X030117Y017180D01*
X031035Y016262D01*
X030673Y015900D01*
G37*
G36*
X028780Y017793D02*
X027862Y018711D01*
X028224Y019073D01*
X029142Y018155D01*
X028780Y017793D01*
G37*
D125*
G36*
X027435Y012265D02*
X026962Y011792D01*
X026379Y012375D01*
X026852Y012848D01*
X027435Y012265D01*
G37*
G36*
X026655Y011485D02*
X026182Y011012D01*
X025599Y011595D01*
X026072Y012068D01*
X026655Y011485D01*
G37*
X013693Y010680D03*
X012591Y010680D03*
X012591Y009430D03*
X013693Y009430D03*
X013693Y004805D03*
X012591Y004805D03*
X012591Y003430D03*
X013693Y003430D03*
X013693Y015555D03*
X012591Y015555D03*
X012591Y016805D03*
X013693Y016805D03*
X013693Y021555D03*
X012591Y021555D03*
X012591Y022805D03*
X013693Y022805D03*
D126*
X017267Y003680D03*
X018267Y003680D03*
X019267Y003680D03*
D127*
X018267Y003680D03*
D128*
X027197Y009430D03*
X028337Y009430D03*
D129*
X028837Y008180D03*
X028837Y007930D03*
X028837Y007680D03*
X028837Y007430D03*
X028837Y007180D03*
X028837Y006930D03*
X028837Y006680D03*
X028837Y006430D03*
X026697Y006430D03*
X026697Y006680D03*
X026697Y006930D03*
X026697Y007180D03*
X026697Y007430D03*
X026697Y007680D03*
X026697Y007930D03*
X026697Y008180D03*
D130*
X022142Y003396D03*
X022142Y002214D03*
X023392Y021714D03*
X023392Y022896D03*
D131*
X026035Y004558D03*
X026035Y002393D03*
X029499Y002393D03*
X029499Y004558D03*
D132*
X028397Y004780D03*
X028082Y004780D03*
X027767Y004780D03*
X027452Y004780D03*
X027137Y004780D03*
D133*
X026901Y003574D03*
X028633Y003574D03*
D134*
X024642Y004754D03*
X024642Y005856D03*
X023392Y005856D03*
X023392Y004754D03*
X023392Y024129D03*
X023392Y025231D03*
D135*
X024767Y022865D03*
X024767Y021745D03*
X024642Y003365D03*
X024642Y002245D03*
X023392Y002245D03*
X023392Y003365D03*
D136*
X011137Y003555D02*
X010397Y003555D01*
X010397Y002555D02*
X011137Y002555D01*
X011137Y004555D02*
X010397Y004555D01*
X010397Y005555D02*
X011137Y005555D01*
X011137Y006555D02*
X010397Y006555D01*
X010397Y007555D02*
X011137Y007555D01*
X011137Y008555D02*
X010397Y008555D01*
X010397Y009555D02*
X011137Y009555D01*
X011137Y010555D02*
X010397Y010555D01*
X010397Y011555D02*
X011137Y011555D01*
X011137Y012555D02*
X010397Y012555D01*
X010397Y013555D02*
X011137Y013555D01*
X011262Y014680D02*
X010522Y014680D01*
X010522Y015680D02*
X011262Y015680D01*
X011262Y016680D02*
X010522Y016680D01*
X010522Y017680D02*
X011262Y017680D01*
X011262Y018680D02*
X010522Y018680D01*
X010522Y019680D02*
X011262Y019680D01*
X011262Y020680D02*
X010522Y020680D01*
X010522Y021680D02*
X011262Y021680D01*
X011262Y022680D02*
X010522Y022680D01*
X010522Y023680D02*
X011262Y023680D01*
X011262Y024680D02*
X010522Y024680D01*
X010522Y025680D02*
X011262Y025680D01*
X011262Y026680D02*
X010522Y026680D01*
X010522Y027680D02*
X011262Y027680D01*
X011262Y028680D02*
X010522Y028680D01*
X010522Y029680D02*
X011262Y029680D01*
X011262Y030680D02*
X010522Y030680D01*
X010522Y031680D02*
X011262Y031680D01*
D137*
X021017Y024742D03*
D138*
X021915Y021915D03*
X020119Y021915D03*
M02*
