%
M48
M72
T01C0.0236
T02C0.0394
T03C0.0400
T04C0.0440
T05C0.1260
%
T01
X14642Y23930
X14267Y22805
X14267Y21555
X14642Y20430
X15142Y20430
X15642Y20430
X16142Y20430
X16642Y20430
X17142Y21930
X19517Y21930
X21392Y21055
X21267Y19180
X21767Y19180
X22267Y19180
X22767Y19180
X23267Y19180
X23767Y19180
X24142Y19555
X24517Y18805
X25392Y19055
X26142Y19055
X26892Y19055
X28017Y19430
X30267Y15555
X28142Y14180
X27517Y13305
X26517Y11055
X23767Y11680
X22517Y11930
X22017Y12680
X21517Y13180
X20642Y14305
X20142Y14305
X20642Y15055
X21142Y15305
X21142Y15805
X19892Y16430
X17892Y14680
X17392Y14680
X16892Y14680
X16392Y14680
X15892Y14680
X15392Y14680
X14642Y14555
X14267Y15555
X14267Y16805
X14642Y17930
X15142Y17930
X15642Y17930
X16142Y17930
X16642Y17930
X17142Y17930
X22642Y17305
X23142Y17805
X23892Y17305
X23142Y16805
X23642Y15680
X24517Y15430
X24892Y16555
X23267Y13430
X23267Y10430
X20892Y9180
X20392Y12055
X19642Y12055
X14642Y8305
X14267Y9430
X14267Y10680
X14642Y11805
X14642Y5930
X14267Y4805
X14267Y3430
X14642Y2305
X15642Y3680
X16517Y3305
X16892Y4555
X19642Y5055
X20892Y5055
X22767Y2214
X26267Y5680
X26892Y5680
X28142Y5680
X28517Y5930
X28142Y7430
X26142Y7430
X24017Y22305
X22017Y26305
X21517Y26305
X21517Y26805
X22017Y26805
X22017Y27305
X21517Y27305
X21017Y27305
X21017Y26805
X20517Y26805
X20517Y27305
X20017Y27305
X20017Y26805
X20017Y26305
X20517Y26305
X21017Y26305
T02
X26901Y3574
X28633Y3574
T03
X28337Y9430
X27197Y9430
T04
X10892Y31680
X10892Y30680
X10892Y29680
X10892Y28680
X10892Y27680
X10892Y26680
X10892Y25680
X10892Y24680
X10892Y23680
X10892Y22680
X10892Y21680
X10892Y20680
X10892Y19680
X10892Y18680
X10892Y17680
X10892Y16680
X10892Y15680
X10892Y14680
X10767Y13555
X10767Y12555
X10767Y11555
X10767Y10555
X10767Y9555
X10767Y8555
X10767Y7555
X10767Y6555
X10767Y5555
X10767Y4555
X10767Y3555
X10767Y2555
T05
X6017Y2930
X6017Y32055
X16392Y9055
X30142Y20055
X30142Y32055
M30
