%
M48
M72
T01C0.0197
T02C0.0236
T03C0.0360
T04C0.0374
T05C0.0394
T06C0.0400
T07C0.0520
T08C0.0787
T09C0.1102
T10C0.1260
T11C0.1969
T12C0.3150
%
T01
X7180Y2492
X7924Y2779
X8475Y2779
X10801Y2256
X11680Y3392
X8948Y6440
X11586Y7385
X11428Y8409
X11625Y8802
X11271Y9196
X11192Y9669
X12964Y10653
X13830Y10141
X13830Y9669
X13830Y11283
X12176Y12306
X20877Y14550
X20090Y12857
X17373Y13330
X17176Y10062
X17412Y9629
X18200Y9629
X19657Y8920
X19657Y8291
X19145Y7976
X18594Y7582
X17649Y6913
X18357Y6755
X17176Y5417
X17727Y5062
X16743Y4590
X16113Y5062
X17531Y3684
X16979Y2267
X15680Y2149
X13279Y6480
X13633Y7385
X14381Y7464
X15759Y7424
X12688Y8015
X27924Y11007
X27373Y11007
X26783Y11007
X25405Y11007
X22491Y8606
X23475Y7857
X24499Y7857
X22806Y6361
X24814Y4865
X27806Y5456
X28397Y6794
X27767Y6913
X27294Y8487
X20444Y7976
X20208Y7582
T02
X19903Y15682
X19233Y15702
X18574Y15692
X17875Y15692
X17176Y15672
X16468Y15672
X15808Y15672
T03
X19219Y6555
X20219Y6555
X21219Y6555
X21219Y5555
X20219Y5555
X19219Y5555
T04
X5647Y4300
X6435Y4300
X6435Y5284
X5647Y5284
T05
X2058Y12543
X2058Y11165
X27609Y2267
X26231Y2267
X24218Y2269
X22840Y2269
X20877Y2267
X19499Y2267
T06
X3882Y13894
X4882Y13894
X5882Y13894
X6882Y13894
X7882Y13894
X8882Y13894
X9882Y13894
X10882Y13894
X11882Y13894
X12882Y13894
X13882Y13894
X14882Y13894
X15882Y13894
X16882Y13894
X17882Y13894
X18882Y13894
X34046Y13393
X34046Y11613
X36606Y11613
X36606Y13393
X36606Y8669
X36606Y6889
X34046Y6889
X34046Y8669
X34046Y3944
X34046Y2164
X36606Y2164
X36606Y3944
X3030Y8492
X3030Y7492
X3030Y6492
X3030Y5492
X3030Y4492
X1930Y4492
X1930Y5492
X1930Y6492
X1930Y7492
X1930Y8492
T07
X6380Y12292
X5380Y8292
X7380Y8292
T08
X4580Y7142
X4580Y2442
T09
X1716Y13894
X31244Y13894
X31244Y1690
X1716Y1690
T10
X2688Y18999
X32216Y18999
X32216Y31204
X2688Y31204
T11
X6389Y10298
T12
X36310Y20397
X36281Y25092
X36310Y29806
M30
