G75*
%MOIN*%
%OFA0B0*%
%FSLAX25Y25*%
%IPPOS*%
%LPD*%
%AMOC8*
5,1,8,0,0,1.08239X$1,22.5*
%
%ADD10C,0.00000*%
%ADD11C,0.20085*%
%ADD12C,0.01000*%
%ADD13C,0.00004*%
%ADD14C,0.31896*%
%ADD15C,0.02762*%
%ADD16C,0.00600*%
%ADD17R,0.07800X0.07800*%
%ADD18C,0.07800*%
%ADD19C,0.11424*%
%ADD20C,0.06400*%
%ADD21C,0.09000*%
%ADD22OC8,0.06140*%
%ADD23OC8,0.12211*%
%ADD24OC8,0.07800*%
%ADD25C,0.08200*%
%ADD26R,0.08200X0.04400*%
%ADD27R,0.07400X0.07400*%
%ADD28C,0.07400*%
%ADD29R,0.05400X0.10400*%
%ADD30C,0.25800*%
D10*
X0006802Y0006921D02*
X0006802Y0148882D01*
X0154932Y0148654D01*
X0156901Y0156724D02*
X0156903Y0156793D01*
X0156909Y0156861D01*
X0156919Y0156929D01*
X0156933Y0156996D01*
X0156951Y0157063D01*
X0156972Y0157128D01*
X0156998Y0157192D01*
X0157027Y0157254D01*
X0157059Y0157314D01*
X0157095Y0157373D01*
X0157135Y0157429D01*
X0157177Y0157483D01*
X0157223Y0157534D01*
X0157272Y0157583D01*
X0157323Y0157629D01*
X0157377Y0157671D01*
X0157433Y0157711D01*
X0157491Y0157747D01*
X0157552Y0157779D01*
X0157614Y0157808D01*
X0157678Y0157834D01*
X0157743Y0157855D01*
X0157810Y0157873D01*
X0157877Y0157887D01*
X0157945Y0157897D01*
X0158013Y0157903D01*
X0158082Y0157905D01*
X0158151Y0157903D01*
X0158219Y0157897D01*
X0158287Y0157887D01*
X0158354Y0157873D01*
X0158421Y0157855D01*
X0158486Y0157834D01*
X0158550Y0157808D01*
X0158612Y0157779D01*
X0158672Y0157747D01*
X0158731Y0157711D01*
X0158787Y0157671D01*
X0158841Y0157629D01*
X0158892Y0157583D01*
X0158941Y0157534D01*
X0158987Y0157483D01*
X0159029Y0157429D01*
X0159069Y0157373D01*
X0159105Y0157314D01*
X0159137Y0157254D01*
X0159166Y0157192D01*
X0159192Y0157128D01*
X0159213Y0157063D01*
X0159231Y0156996D01*
X0159245Y0156929D01*
X0159255Y0156861D01*
X0159261Y0156793D01*
X0159263Y0156724D01*
X0159261Y0156655D01*
X0159255Y0156587D01*
X0159245Y0156519D01*
X0159231Y0156452D01*
X0159213Y0156385D01*
X0159192Y0156320D01*
X0159166Y0156256D01*
X0159137Y0156194D01*
X0159105Y0156133D01*
X0159069Y0156075D01*
X0159029Y0156019D01*
X0158987Y0155965D01*
X0158941Y0155914D01*
X0158892Y0155865D01*
X0158841Y0155819D01*
X0158787Y0155777D01*
X0158731Y0155737D01*
X0158673Y0155701D01*
X0158612Y0155669D01*
X0158550Y0155640D01*
X0158486Y0155614D01*
X0158421Y0155593D01*
X0158354Y0155575D01*
X0158287Y0155561D01*
X0158219Y0155551D01*
X0158151Y0155545D01*
X0158082Y0155543D01*
X0158013Y0155545D01*
X0157945Y0155551D01*
X0157877Y0155561D01*
X0157810Y0155575D01*
X0157743Y0155593D01*
X0157678Y0155614D01*
X0157614Y0155640D01*
X0157552Y0155669D01*
X0157491Y0155701D01*
X0157433Y0155737D01*
X0157377Y0155777D01*
X0157323Y0155819D01*
X0157272Y0155865D01*
X0157223Y0155914D01*
X0157177Y0155965D01*
X0157135Y0156019D01*
X0157095Y0156075D01*
X0157059Y0156133D01*
X0157027Y0156194D01*
X0156998Y0156256D01*
X0156972Y0156320D01*
X0156951Y0156385D01*
X0156933Y0156452D01*
X0156919Y0156519D01*
X0156909Y0156587D01*
X0156903Y0156655D01*
X0156901Y0156724D01*
X0163495Y0156724D02*
X0163497Y0156793D01*
X0163503Y0156861D01*
X0163513Y0156929D01*
X0163527Y0156996D01*
X0163545Y0157063D01*
X0163566Y0157128D01*
X0163592Y0157192D01*
X0163621Y0157254D01*
X0163653Y0157314D01*
X0163689Y0157373D01*
X0163729Y0157429D01*
X0163771Y0157483D01*
X0163817Y0157534D01*
X0163866Y0157583D01*
X0163917Y0157629D01*
X0163971Y0157671D01*
X0164027Y0157711D01*
X0164085Y0157747D01*
X0164146Y0157779D01*
X0164208Y0157808D01*
X0164272Y0157834D01*
X0164337Y0157855D01*
X0164404Y0157873D01*
X0164471Y0157887D01*
X0164539Y0157897D01*
X0164607Y0157903D01*
X0164676Y0157905D01*
X0164745Y0157903D01*
X0164813Y0157897D01*
X0164881Y0157887D01*
X0164948Y0157873D01*
X0165015Y0157855D01*
X0165080Y0157834D01*
X0165144Y0157808D01*
X0165206Y0157779D01*
X0165266Y0157747D01*
X0165325Y0157711D01*
X0165381Y0157671D01*
X0165435Y0157629D01*
X0165486Y0157583D01*
X0165535Y0157534D01*
X0165581Y0157483D01*
X0165623Y0157429D01*
X0165663Y0157373D01*
X0165699Y0157314D01*
X0165731Y0157254D01*
X0165760Y0157192D01*
X0165786Y0157128D01*
X0165807Y0157063D01*
X0165825Y0156996D01*
X0165839Y0156929D01*
X0165849Y0156861D01*
X0165855Y0156793D01*
X0165857Y0156724D01*
X0165855Y0156655D01*
X0165849Y0156587D01*
X0165839Y0156519D01*
X0165825Y0156452D01*
X0165807Y0156385D01*
X0165786Y0156320D01*
X0165760Y0156256D01*
X0165731Y0156194D01*
X0165699Y0156133D01*
X0165663Y0156075D01*
X0165623Y0156019D01*
X0165581Y0155965D01*
X0165535Y0155914D01*
X0165486Y0155865D01*
X0165435Y0155819D01*
X0165381Y0155777D01*
X0165325Y0155737D01*
X0165267Y0155701D01*
X0165206Y0155669D01*
X0165144Y0155640D01*
X0165080Y0155614D01*
X0165015Y0155593D01*
X0164948Y0155575D01*
X0164881Y0155561D01*
X0164813Y0155551D01*
X0164745Y0155545D01*
X0164676Y0155543D01*
X0164607Y0155545D01*
X0164539Y0155551D01*
X0164471Y0155561D01*
X0164404Y0155575D01*
X0164337Y0155593D01*
X0164272Y0155614D01*
X0164208Y0155640D01*
X0164146Y0155669D01*
X0164085Y0155701D01*
X0164027Y0155737D01*
X0163971Y0155777D01*
X0163917Y0155819D01*
X0163866Y0155865D01*
X0163817Y0155914D01*
X0163771Y0155965D01*
X0163729Y0156019D01*
X0163689Y0156075D01*
X0163653Y0156133D01*
X0163621Y0156194D01*
X0163592Y0156256D01*
X0163566Y0156320D01*
X0163545Y0156385D01*
X0163527Y0156452D01*
X0163513Y0156519D01*
X0163503Y0156587D01*
X0163497Y0156655D01*
X0163495Y0156724D01*
X0170582Y0156724D02*
X0170584Y0156793D01*
X0170590Y0156861D01*
X0170600Y0156929D01*
X0170614Y0156996D01*
X0170632Y0157063D01*
X0170653Y0157128D01*
X0170679Y0157192D01*
X0170708Y0157254D01*
X0170740Y0157314D01*
X0170776Y0157373D01*
X0170816Y0157429D01*
X0170858Y0157483D01*
X0170904Y0157534D01*
X0170953Y0157583D01*
X0171004Y0157629D01*
X0171058Y0157671D01*
X0171114Y0157711D01*
X0171172Y0157747D01*
X0171233Y0157779D01*
X0171295Y0157808D01*
X0171359Y0157834D01*
X0171424Y0157855D01*
X0171491Y0157873D01*
X0171558Y0157887D01*
X0171626Y0157897D01*
X0171694Y0157903D01*
X0171763Y0157905D01*
X0171832Y0157903D01*
X0171900Y0157897D01*
X0171968Y0157887D01*
X0172035Y0157873D01*
X0172102Y0157855D01*
X0172167Y0157834D01*
X0172231Y0157808D01*
X0172293Y0157779D01*
X0172353Y0157747D01*
X0172412Y0157711D01*
X0172468Y0157671D01*
X0172522Y0157629D01*
X0172573Y0157583D01*
X0172622Y0157534D01*
X0172668Y0157483D01*
X0172710Y0157429D01*
X0172750Y0157373D01*
X0172786Y0157314D01*
X0172818Y0157254D01*
X0172847Y0157192D01*
X0172873Y0157128D01*
X0172894Y0157063D01*
X0172912Y0156996D01*
X0172926Y0156929D01*
X0172936Y0156861D01*
X0172942Y0156793D01*
X0172944Y0156724D01*
X0172942Y0156655D01*
X0172936Y0156587D01*
X0172926Y0156519D01*
X0172912Y0156452D01*
X0172894Y0156385D01*
X0172873Y0156320D01*
X0172847Y0156256D01*
X0172818Y0156194D01*
X0172786Y0156133D01*
X0172750Y0156075D01*
X0172710Y0156019D01*
X0172668Y0155965D01*
X0172622Y0155914D01*
X0172573Y0155865D01*
X0172522Y0155819D01*
X0172468Y0155777D01*
X0172412Y0155737D01*
X0172354Y0155701D01*
X0172293Y0155669D01*
X0172231Y0155640D01*
X0172167Y0155614D01*
X0172102Y0155593D01*
X0172035Y0155575D01*
X0171968Y0155561D01*
X0171900Y0155551D01*
X0171832Y0155545D01*
X0171763Y0155543D01*
X0171694Y0155545D01*
X0171626Y0155551D01*
X0171558Y0155561D01*
X0171491Y0155575D01*
X0171424Y0155593D01*
X0171359Y0155614D01*
X0171295Y0155640D01*
X0171233Y0155669D01*
X0171172Y0155701D01*
X0171114Y0155737D01*
X0171058Y0155777D01*
X0171004Y0155819D01*
X0170953Y0155865D01*
X0170904Y0155914D01*
X0170858Y0155965D01*
X0170816Y0156019D01*
X0170776Y0156075D01*
X0170740Y0156133D01*
X0170708Y0156194D01*
X0170679Y0156256D01*
X0170653Y0156320D01*
X0170632Y0156385D01*
X0170614Y0156452D01*
X0170600Y0156519D01*
X0170590Y0156587D01*
X0170584Y0156655D01*
X0170582Y0156724D01*
X0177570Y0156921D02*
X0177572Y0156990D01*
X0177578Y0157058D01*
X0177588Y0157126D01*
X0177602Y0157193D01*
X0177620Y0157260D01*
X0177641Y0157325D01*
X0177667Y0157389D01*
X0177696Y0157451D01*
X0177728Y0157511D01*
X0177764Y0157570D01*
X0177804Y0157626D01*
X0177846Y0157680D01*
X0177892Y0157731D01*
X0177941Y0157780D01*
X0177992Y0157826D01*
X0178046Y0157868D01*
X0178102Y0157908D01*
X0178160Y0157944D01*
X0178221Y0157976D01*
X0178283Y0158005D01*
X0178347Y0158031D01*
X0178412Y0158052D01*
X0178479Y0158070D01*
X0178546Y0158084D01*
X0178614Y0158094D01*
X0178682Y0158100D01*
X0178751Y0158102D01*
X0178820Y0158100D01*
X0178888Y0158094D01*
X0178956Y0158084D01*
X0179023Y0158070D01*
X0179090Y0158052D01*
X0179155Y0158031D01*
X0179219Y0158005D01*
X0179281Y0157976D01*
X0179341Y0157944D01*
X0179400Y0157908D01*
X0179456Y0157868D01*
X0179510Y0157826D01*
X0179561Y0157780D01*
X0179610Y0157731D01*
X0179656Y0157680D01*
X0179698Y0157626D01*
X0179738Y0157570D01*
X0179774Y0157511D01*
X0179806Y0157451D01*
X0179835Y0157389D01*
X0179861Y0157325D01*
X0179882Y0157260D01*
X0179900Y0157193D01*
X0179914Y0157126D01*
X0179924Y0157058D01*
X0179930Y0156990D01*
X0179932Y0156921D01*
X0179930Y0156852D01*
X0179924Y0156784D01*
X0179914Y0156716D01*
X0179900Y0156649D01*
X0179882Y0156582D01*
X0179861Y0156517D01*
X0179835Y0156453D01*
X0179806Y0156391D01*
X0179774Y0156330D01*
X0179738Y0156272D01*
X0179698Y0156216D01*
X0179656Y0156162D01*
X0179610Y0156111D01*
X0179561Y0156062D01*
X0179510Y0156016D01*
X0179456Y0155974D01*
X0179400Y0155934D01*
X0179342Y0155898D01*
X0179281Y0155866D01*
X0179219Y0155837D01*
X0179155Y0155811D01*
X0179090Y0155790D01*
X0179023Y0155772D01*
X0178956Y0155758D01*
X0178888Y0155748D01*
X0178820Y0155742D01*
X0178751Y0155740D01*
X0178682Y0155742D01*
X0178614Y0155748D01*
X0178546Y0155758D01*
X0178479Y0155772D01*
X0178412Y0155790D01*
X0178347Y0155811D01*
X0178283Y0155837D01*
X0178221Y0155866D01*
X0178160Y0155898D01*
X0178102Y0155934D01*
X0178046Y0155974D01*
X0177992Y0156016D01*
X0177941Y0156062D01*
X0177892Y0156111D01*
X0177846Y0156162D01*
X0177804Y0156216D01*
X0177764Y0156272D01*
X0177728Y0156330D01*
X0177696Y0156391D01*
X0177667Y0156453D01*
X0177641Y0156517D01*
X0177620Y0156582D01*
X0177602Y0156649D01*
X0177588Y0156716D01*
X0177578Y0156784D01*
X0177572Y0156852D01*
X0177570Y0156921D01*
X0184558Y0156921D02*
X0184560Y0156990D01*
X0184566Y0157058D01*
X0184576Y0157126D01*
X0184590Y0157193D01*
X0184608Y0157260D01*
X0184629Y0157325D01*
X0184655Y0157389D01*
X0184684Y0157451D01*
X0184716Y0157511D01*
X0184752Y0157570D01*
X0184792Y0157626D01*
X0184834Y0157680D01*
X0184880Y0157731D01*
X0184929Y0157780D01*
X0184980Y0157826D01*
X0185034Y0157868D01*
X0185090Y0157908D01*
X0185148Y0157944D01*
X0185209Y0157976D01*
X0185271Y0158005D01*
X0185335Y0158031D01*
X0185400Y0158052D01*
X0185467Y0158070D01*
X0185534Y0158084D01*
X0185602Y0158094D01*
X0185670Y0158100D01*
X0185739Y0158102D01*
X0185808Y0158100D01*
X0185876Y0158094D01*
X0185944Y0158084D01*
X0186011Y0158070D01*
X0186078Y0158052D01*
X0186143Y0158031D01*
X0186207Y0158005D01*
X0186269Y0157976D01*
X0186329Y0157944D01*
X0186388Y0157908D01*
X0186444Y0157868D01*
X0186498Y0157826D01*
X0186549Y0157780D01*
X0186598Y0157731D01*
X0186644Y0157680D01*
X0186686Y0157626D01*
X0186726Y0157570D01*
X0186762Y0157511D01*
X0186794Y0157451D01*
X0186823Y0157389D01*
X0186849Y0157325D01*
X0186870Y0157260D01*
X0186888Y0157193D01*
X0186902Y0157126D01*
X0186912Y0157058D01*
X0186918Y0156990D01*
X0186920Y0156921D01*
X0186918Y0156852D01*
X0186912Y0156784D01*
X0186902Y0156716D01*
X0186888Y0156649D01*
X0186870Y0156582D01*
X0186849Y0156517D01*
X0186823Y0156453D01*
X0186794Y0156391D01*
X0186762Y0156330D01*
X0186726Y0156272D01*
X0186686Y0156216D01*
X0186644Y0156162D01*
X0186598Y0156111D01*
X0186549Y0156062D01*
X0186498Y0156016D01*
X0186444Y0155974D01*
X0186388Y0155934D01*
X0186330Y0155898D01*
X0186269Y0155866D01*
X0186207Y0155837D01*
X0186143Y0155811D01*
X0186078Y0155790D01*
X0186011Y0155772D01*
X0185944Y0155758D01*
X0185876Y0155748D01*
X0185808Y0155742D01*
X0185739Y0155740D01*
X0185670Y0155742D01*
X0185602Y0155748D01*
X0185534Y0155758D01*
X0185467Y0155772D01*
X0185400Y0155790D01*
X0185335Y0155811D01*
X0185271Y0155837D01*
X0185209Y0155866D01*
X0185148Y0155898D01*
X0185090Y0155934D01*
X0185034Y0155974D01*
X0184980Y0156016D01*
X0184929Y0156062D01*
X0184880Y0156111D01*
X0184834Y0156162D01*
X0184792Y0156216D01*
X0184752Y0156272D01*
X0184716Y0156330D01*
X0184684Y0156391D01*
X0184655Y0156453D01*
X0184629Y0156517D01*
X0184608Y0156582D01*
X0184590Y0156649D01*
X0184576Y0156716D01*
X0184566Y0156784D01*
X0184560Y0156852D01*
X0184558Y0156921D01*
X0191153Y0157020D02*
X0191155Y0157089D01*
X0191161Y0157157D01*
X0191171Y0157225D01*
X0191185Y0157292D01*
X0191203Y0157359D01*
X0191224Y0157424D01*
X0191250Y0157488D01*
X0191279Y0157550D01*
X0191311Y0157610D01*
X0191347Y0157669D01*
X0191387Y0157725D01*
X0191429Y0157779D01*
X0191475Y0157830D01*
X0191524Y0157879D01*
X0191575Y0157925D01*
X0191629Y0157967D01*
X0191685Y0158007D01*
X0191743Y0158043D01*
X0191804Y0158075D01*
X0191866Y0158104D01*
X0191930Y0158130D01*
X0191995Y0158151D01*
X0192062Y0158169D01*
X0192129Y0158183D01*
X0192197Y0158193D01*
X0192265Y0158199D01*
X0192334Y0158201D01*
X0192403Y0158199D01*
X0192471Y0158193D01*
X0192539Y0158183D01*
X0192606Y0158169D01*
X0192673Y0158151D01*
X0192738Y0158130D01*
X0192802Y0158104D01*
X0192864Y0158075D01*
X0192924Y0158043D01*
X0192983Y0158007D01*
X0193039Y0157967D01*
X0193093Y0157925D01*
X0193144Y0157879D01*
X0193193Y0157830D01*
X0193239Y0157779D01*
X0193281Y0157725D01*
X0193321Y0157669D01*
X0193357Y0157610D01*
X0193389Y0157550D01*
X0193418Y0157488D01*
X0193444Y0157424D01*
X0193465Y0157359D01*
X0193483Y0157292D01*
X0193497Y0157225D01*
X0193507Y0157157D01*
X0193513Y0157089D01*
X0193515Y0157020D01*
X0193513Y0156951D01*
X0193507Y0156883D01*
X0193497Y0156815D01*
X0193483Y0156748D01*
X0193465Y0156681D01*
X0193444Y0156616D01*
X0193418Y0156552D01*
X0193389Y0156490D01*
X0193357Y0156429D01*
X0193321Y0156371D01*
X0193281Y0156315D01*
X0193239Y0156261D01*
X0193193Y0156210D01*
X0193144Y0156161D01*
X0193093Y0156115D01*
X0193039Y0156073D01*
X0192983Y0156033D01*
X0192925Y0155997D01*
X0192864Y0155965D01*
X0192802Y0155936D01*
X0192738Y0155910D01*
X0192673Y0155889D01*
X0192606Y0155871D01*
X0192539Y0155857D01*
X0192471Y0155847D01*
X0192403Y0155841D01*
X0192334Y0155839D01*
X0192265Y0155841D01*
X0192197Y0155847D01*
X0192129Y0155857D01*
X0192062Y0155871D01*
X0191995Y0155889D01*
X0191930Y0155910D01*
X0191866Y0155936D01*
X0191804Y0155965D01*
X0191743Y0155997D01*
X0191685Y0156033D01*
X0191629Y0156073D01*
X0191575Y0156115D01*
X0191524Y0156161D01*
X0191475Y0156210D01*
X0191429Y0156261D01*
X0191387Y0156315D01*
X0191347Y0156371D01*
X0191311Y0156429D01*
X0191279Y0156490D01*
X0191250Y0156552D01*
X0191224Y0156616D01*
X0191203Y0156681D01*
X0191185Y0156748D01*
X0191171Y0156815D01*
X0191161Y0156883D01*
X0191155Y0156951D01*
X0191153Y0157020D01*
X0197846Y0156823D02*
X0197848Y0156892D01*
X0197854Y0156960D01*
X0197864Y0157028D01*
X0197878Y0157095D01*
X0197896Y0157162D01*
X0197917Y0157227D01*
X0197943Y0157291D01*
X0197972Y0157353D01*
X0198004Y0157413D01*
X0198040Y0157472D01*
X0198080Y0157528D01*
X0198122Y0157582D01*
X0198168Y0157633D01*
X0198217Y0157682D01*
X0198268Y0157728D01*
X0198322Y0157770D01*
X0198378Y0157810D01*
X0198436Y0157846D01*
X0198497Y0157878D01*
X0198559Y0157907D01*
X0198623Y0157933D01*
X0198688Y0157954D01*
X0198755Y0157972D01*
X0198822Y0157986D01*
X0198890Y0157996D01*
X0198958Y0158002D01*
X0199027Y0158004D01*
X0199096Y0158002D01*
X0199164Y0157996D01*
X0199232Y0157986D01*
X0199299Y0157972D01*
X0199366Y0157954D01*
X0199431Y0157933D01*
X0199495Y0157907D01*
X0199557Y0157878D01*
X0199617Y0157846D01*
X0199676Y0157810D01*
X0199732Y0157770D01*
X0199786Y0157728D01*
X0199837Y0157682D01*
X0199886Y0157633D01*
X0199932Y0157582D01*
X0199974Y0157528D01*
X0200014Y0157472D01*
X0200050Y0157413D01*
X0200082Y0157353D01*
X0200111Y0157291D01*
X0200137Y0157227D01*
X0200158Y0157162D01*
X0200176Y0157095D01*
X0200190Y0157028D01*
X0200200Y0156960D01*
X0200206Y0156892D01*
X0200208Y0156823D01*
X0200206Y0156754D01*
X0200200Y0156686D01*
X0200190Y0156618D01*
X0200176Y0156551D01*
X0200158Y0156484D01*
X0200137Y0156419D01*
X0200111Y0156355D01*
X0200082Y0156293D01*
X0200050Y0156232D01*
X0200014Y0156174D01*
X0199974Y0156118D01*
X0199932Y0156064D01*
X0199886Y0156013D01*
X0199837Y0155964D01*
X0199786Y0155918D01*
X0199732Y0155876D01*
X0199676Y0155836D01*
X0199618Y0155800D01*
X0199557Y0155768D01*
X0199495Y0155739D01*
X0199431Y0155713D01*
X0199366Y0155692D01*
X0199299Y0155674D01*
X0199232Y0155660D01*
X0199164Y0155650D01*
X0199096Y0155644D01*
X0199027Y0155642D01*
X0198958Y0155644D01*
X0198890Y0155650D01*
X0198822Y0155660D01*
X0198755Y0155674D01*
X0198688Y0155692D01*
X0198623Y0155713D01*
X0198559Y0155739D01*
X0198497Y0155768D01*
X0198436Y0155800D01*
X0198378Y0155836D01*
X0198322Y0155876D01*
X0198268Y0155918D01*
X0198217Y0155964D01*
X0198168Y0156013D01*
X0198122Y0156064D01*
X0198080Y0156118D01*
X0198040Y0156174D01*
X0198004Y0156232D01*
X0197972Y0156293D01*
X0197943Y0156355D01*
X0197917Y0156419D01*
X0197896Y0156484D01*
X0197878Y0156551D01*
X0197864Y0156618D01*
X0197854Y0156686D01*
X0197848Y0156754D01*
X0197846Y0156823D01*
X0202570Y0148654D02*
X0222550Y0148654D01*
X0223731Y0147472D01*
X0223731Y0124244D01*
X0304046Y0124244D01*
X0304046Y0147472D01*
X0305456Y0148882D01*
X0381503Y0148882D01*
X0381503Y0006921D01*
X0006802Y0006921D01*
X0011652Y0016898D02*
X0011654Y0017046D01*
X0011660Y0017194D01*
X0011670Y0017342D01*
X0011684Y0017489D01*
X0011702Y0017636D01*
X0011723Y0017782D01*
X0011749Y0017928D01*
X0011779Y0018073D01*
X0011812Y0018217D01*
X0011850Y0018360D01*
X0011891Y0018502D01*
X0011936Y0018643D01*
X0011984Y0018783D01*
X0012037Y0018922D01*
X0012093Y0019059D01*
X0012153Y0019194D01*
X0012216Y0019328D01*
X0012283Y0019460D01*
X0012354Y0019590D01*
X0012428Y0019718D01*
X0012505Y0019844D01*
X0012586Y0019968D01*
X0012670Y0020090D01*
X0012757Y0020209D01*
X0012848Y0020326D01*
X0012942Y0020441D01*
X0013038Y0020553D01*
X0013138Y0020663D01*
X0013240Y0020769D01*
X0013346Y0020873D01*
X0013454Y0020974D01*
X0013565Y0021072D01*
X0013678Y0021168D01*
X0013794Y0021260D01*
X0013912Y0021349D01*
X0014033Y0021434D01*
X0014156Y0021517D01*
X0014281Y0021596D01*
X0014408Y0021672D01*
X0014537Y0021744D01*
X0014668Y0021813D01*
X0014801Y0021878D01*
X0014936Y0021939D01*
X0015072Y0021997D01*
X0015209Y0022052D01*
X0015348Y0022102D01*
X0015489Y0022149D01*
X0015630Y0022192D01*
X0015773Y0022232D01*
X0015917Y0022267D01*
X0016061Y0022299D01*
X0016207Y0022326D01*
X0016353Y0022350D01*
X0016500Y0022370D01*
X0016647Y0022386D01*
X0016794Y0022398D01*
X0016942Y0022406D01*
X0017090Y0022410D01*
X0017238Y0022410D01*
X0017386Y0022406D01*
X0017534Y0022398D01*
X0017681Y0022386D01*
X0017828Y0022370D01*
X0017975Y0022350D01*
X0018121Y0022326D01*
X0018267Y0022299D01*
X0018411Y0022267D01*
X0018555Y0022232D01*
X0018698Y0022192D01*
X0018839Y0022149D01*
X0018980Y0022102D01*
X0019119Y0022052D01*
X0019256Y0021997D01*
X0019392Y0021939D01*
X0019527Y0021878D01*
X0019660Y0021813D01*
X0019791Y0021744D01*
X0019920Y0021672D01*
X0020047Y0021596D01*
X0020172Y0021517D01*
X0020295Y0021434D01*
X0020416Y0021349D01*
X0020534Y0021260D01*
X0020650Y0021168D01*
X0020763Y0021072D01*
X0020874Y0020974D01*
X0020982Y0020873D01*
X0021088Y0020769D01*
X0021190Y0020663D01*
X0021290Y0020553D01*
X0021386Y0020441D01*
X0021480Y0020326D01*
X0021571Y0020209D01*
X0021658Y0020090D01*
X0021742Y0019968D01*
X0021823Y0019844D01*
X0021900Y0019718D01*
X0021974Y0019590D01*
X0022045Y0019460D01*
X0022112Y0019328D01*
X0022175Y0019194D01*
X0022235Y0019059D01*
X0022291Y0018922D01*
X0022344Y0018783D01*
X0022392Y0018643D01*
X0022437Y0018502D01*
X0022478Y0018360D01*
X0022516Y0018217D01*
X0022549Y0018073D01*
X0022579Y0017928D01*
X0022605Y0017782D01*
X0022626Y0017636D01*
X0022644Y0017489D01*
X0022658Y0017342D01*
X0022668Y0017194D01*
X0022674Y0017046D01*
X0022676Y0016898D01*
X0022674Y0016750D01*
X0022668Y0016602D01*
X0022658Y0016454D01*
X0022644Y0016307D01*
X0022626Y0016160D01*
X0022605Y0016014D01*
X0022579Y0015868D01*
X0022549Y0015723D01*
X0022516Y0015579D01*
X0022478Y0015436D01*
X0022437Y0015294D01*
X0022392Y0015153D01*
X0022344Y0015013D01*
X0022291Y0014874D01*
X0022235Y0014737D01*
X0022175Y0014602D01*
X0022112Y0014468D01*
X0022045Y0014336D01*
X0021974Y0014206D01*
X0021900Y0014078D01*
X0021823Y0013952D01*
X0021742Y0013828D01*
X0021658Y0013706D01*
X0021571Y0013587D01*
X0021480Y0013470D01*
X0021386Y0013355D01*
X0021290Y0013243D01*
X0021190Y0013133D01*
X0021088Y0013027D01*
X0020982Y0012923D01*
X0020874Y0012822D01*
X0020763Y0012724D01*
X0020650Y0012628D01*
X0020534Y0012536D01*
X0020416Y0012447D01*
X0020295Y0012362D01*
X0020172Y0012279D01*
X0020047Y0012200D01*
X0019920Y0012124D01*
X0019791Y0012052D01*
X0019660Y0011983D01*
X0019527Y0011918D01*
X0019392Y0011857D01*
X0019256Y0011799D01*
X0019119Y0011744D01*
X0018980Y0011694D01*
X0018839Y0011647D01*
X0018698Y0011604D01*
X0018555Y0011564D01*
X0018411Y0011529D01*
X0018267Y0011497D01*
X0018121Y0011470D01*
X0017975Y0011446D01*
X0017828Y0011426D01*
X0017681Y0011410D01*
X0017534Y0011398D01*
X0017386Y0011390D01*
X0017238Y0011386D01*
X0017090Y0011386D01*
X0016942Y0011390D01*
X0016794Y0011398D01*
X0016647Y0011410D01*
X0016500Y0011426D01*
X0016353Y0011446D01*
X0016207Y0011470D01*
X0016061Y0011497D01*
X0015917Y0011529D01*
X0015773Y0011564D01*
X0015630Y0011604D01*
X0015489Y0011647D01*
X0015348Y0011694D01*
X0015209Y0011744D01*
X0015072Y0011799D01*
X0014936Y0011857D01*
X0014801Y0011918D01*
X0014668Y0011983D01*
X0014537Y0012052D01*
X0014408Y0012124D01*
X0014281Y0012200D01*
X0014156Y0012279D01*
X0014033Y0012362D01*
X0013912Y0012447D01*
X0013794Y0012536D01*
X0013678Y0012628D01*
X0013565Y0012724D01*
X0013454Y0012822D01*
X0013346Y0012923D01*
X0013240Y0013027D01*
X0013138Y0013133D01*
X0013038Y0013243D01*
X0012942Y0013355D01*
X0012848Y0013470D01*
X0012757Y0013587D01*
X0012670Y0013706D01*
X0012586Y0013828D01*
X0012505Y0013952D01*
X0012428Y0014078D01*
X0012354Y0014206D01*
X0012283Y0014336D01*
X0012216Y0014468D01*
X0012153Y0014602D01*
X0012093Y0014737D01*
X0012037Y0014874D01*
X0011984Y0015013D01*
X0011936Y0015153D01*
X0011891Y0015294D01*
X0011850Y0015436D01*
X0011812Y0015579D01*
X0011779Y0015723D01*
X0011749Y0015868D01*
X0011723Y0016014D01*
X0011702Y0016160D01*
X0011684Y0016307D01*
X0011670Y0016454D01*
X0011660Y0016602D01*
X0011654Y0016750D01*
X0011652Y0016898D01*
X0054046Y0102984D02*
X0054049Y0103226D01*
X0054058Y0103467D01*
X0054073Y0103708D01*
X0054093Y0103949D01*
X0054120Y0104189D01*
X0054153Y0104428D01*
X0054191Y0104667D01*
X0054235Y0104904D01*
X0054285Y0105141D01*
X0054341Y0105376D01*
X0054403Y0105609D01*
X0054470Y0105841D01*
X0054543Y0106072D01*
X0054621Y0106300D01*
X0054706Y0106526D01*
X0054795Y0106751D01*
X0054890Y0106973D01*
X0054991Y0107192D01*
X0055097Y0107410D01*
X0055208Y0107624D01*
X0055325Y0107836D01*
X0055446Y0108044D01*
X0055573Y0108250D01*
X0055705Y0108452D01*
X0055842Y0108652D01*
X0055983Y0108847D01*
X0056129Y0109040D01*
X0056280Y0109228D01*
X0056436Y0109413D01*
X0056596Y0109594D01*
X0056760Y0109771D01*
X0056929Y0109944D01*
X0057102Y0110113D01*
X0057279Y0110277D01*
X0057460Y0110437D01*
X0057645Y0110593D01*
X0057833Y0110744D01*
X0058026Y0110890D01*
X0058221Y0111031D01*
X0058421Y0111168D01*
X0058623Y0111300D01*
X0058829Y0111427D01*
X0059037Y0111548D01*
X0059249Y0111665D01*
X0059463Y0111776D01*
X0059681Y0111882D01*
X0059900Y0111983D01*
X0060122Y0112078D01*
X0060347Y0112167D01*
X0060573Y0112252D01*
X0060801Y0112330D01*
X0061032Y0112403D01*
X0061264Y0112470D01*
X0061497Y0112532D01*
X0061732Y0112588D01*
X0061969Y0112638D01*
X0062206Y0112682D01*
X0062445Y0112720D01*
X0062684Y0112753D01*
X0062924Y0112780D01*
X0063165Y0112800D01*
X0063406Y0112815D01*
X0063647Y0112824D01*
X0063889Y0112827D01*
X0064131Y0112824D01*
X0064372Y0112815D01*
X0064613Y0112800D01*
X0064854Y0112780D01*
X0065094Y0112753D01*
X0065333Y0112720D01*
X0065572Y0112682D01*
X0065809Y0112638D01*
X0066046Y0112588D01*
X0066281Y0112532D01*
X0066514Y0112470D01*
X0066746Y0112403D01*
X0066977Y0112330D01*
X0067205Y0112252D01*
X0067431Y0112167D01*
X0067656Y0112078D01*
X0067878Y0111983D01*
X0068097Y0111882D01*
X0068315Y0111776D01*
X0068529Y0111665D01*
X0068741Y0111548D01*
X0068949Y0111427D01*
X0069155Y0111300D01*
X0069357Y0111168D01*
X0069557Y0111031D01*
X0069752Y0110890D01*
X0069945Y0110744D01*
X0070133Y0110593D01*
X0070318Y0110437D01*
X0070499Y0110277D01*
X0070676Y0110113D01*
X0070849Y0109944D01*
X0071018Y0109771D01*
X0071182Y0109594D01*
X0071342Y0109413D01*
X0071498Y0109228D01*
X0071649Y0109040D01*
X0071795Y0108847D01*
X0071936Y0108652D01*
X0072073Y0108452D01*
X0072205Y0108250D01*
X0072332Y0108044D01*
X0072453Y0107836D01*
X0072570Y0107624D01*
X0072681Y0107410D01*
X0072787Y0107192D01*
X0072888Y0106973D01*
X0072983Y0106751D01*
X0073072Y0106526D01*
X0073157Y0106300D01*
X0073235Y0106072D01*
X0073308Y0105841D01*
X0073375Y0105609D01*
X0073437Y0105376D01*
X0073493Y0105141D01*
X0073543Y0104904D01*
X0073587Y0104667D01*
X0073625Y0104428D01*
X0073658Y0104189D01*
X0073685Y0103949D01*
X0073705Y0103708D01*
X0073720Y0103467D01*
X0073729Y0103226D01*
X0073732Y0102984D01*
X0073729Y0102742D01*
X0073720Y0102501D01*
X0073705Y0102260D01*
X0073685Y0102019D01*
X0073658Y0101779D01*
X0073625Y0101540D01*
X0073587Y0101301D01*
X0073543Y0101064D01*
X0073493Y0100827D01*
X0073437Y0100592D01*
X0073375Y0100359D01*
X0073308Y0100127D01*
X0073235Y0099896D01*
X0073157Y0099668D01*
X0073072Y0099442D01*
X0072983Y0099217D01*
X0072888Y0098995D01*
X0072787Y0098776D01*
X0072681Y0098558D01*
X0072570Y0098344D01*
X0072453Y0098132D01*
X0072332Y0097924D01*
X0072205Y0097718D01*
X0072073Y0097516D01*
X0071936Y0097316D01*
X0071795Y0097121D01*
X0071649Y0096928D01*
X0071498Y0096740D01*
X0071342Y0096555D01*
X0071182Y0096374D01*
X0071018Y0096197D01*
X0070849Y0096024D01*
X0070676Y0095855D01*
X0070499Y0095691D01*
X0070318Y0095531D01*
X0070133Y0095375D01*
X0069945Y0095224D01*
X0069752Y0095078D01*
X0069557Y0094937D01*
X0069357Y0094800D01*
X0069155Y0094668D01*
X0068949Y0094541D01*
X0068741Y0094420D01*
X0068529Y0094303D01*
X0068315Y0094192D01*
X0068097Y0094086D01*
X0067878Y0093985D01*
X0067656Y0093890D01*
X0067431Y0093801D01*
X0067205Y0093716D01*
X0066977Y0093638D01*
X0066746Y0093565D01*
X0066514Y0093498D01*
X0066281Y0093436D01*
X0066046Y0093380D01*
X0065809Y0093330D01*
X0065572Y0093286D01*
X0065333Y0093248D01*
X0065094Y0093215D01*
X0064854Y0093188D01*
X0064613Y0093168D01*
X0064372Y0093153D01*
X0064131Y0093144D01*
X0063889Y0093141D01*
X0063647Y0093144D01*
X0063406Y0093153D01*
X0063165Y0093168D01*
X0062924Y0093188D01*
X0062684Y0093215D01*
X0062445Y0093248D01*
X0062206Y0093286D01*
X0061969Y0093330D01*
X0061732Y0093380D01*
X0061497Y0093436D01*
X0061264Y0093498D01*
X0061032Y0093565D01*
X0060801Y0093638D01*
X0060573Y0093716D01*
X0060347Y0093801D01*
X0060122Y0093890D01*
X0059900Y0093985D01*
X0059681Y0094086D01*
X0059463Y0094192D01*
X0059249Y0094303D01*
X0059037Y0094420D01*
X0058829Y0094541D01*
X0058623Y0094668D01*
X0058421Y0094800D01*
X0058221Y0094937D01*
X0058026Y0095078D01*
X0057833Y0095224D01*
X0057645Y0095375D01*
X0057460Y0095531D01*
X0057279Y0095691D01*
X0057102Y0095855D01*
X0056929Y0096024D01*
X0056760Y0096197D01*
X0056596Y0096374D01*
X0056436Y0096555D01*
X0056280Y0096740D01*
X0056129Y0096928D01*
X0055983Y0097121D01*
X0055842Y0097316D01*
X0055705Y0097516D01*
X0055573Y0097718D01*
X0055446Y0097924D01*
X0055325Y0098132D01*
X0055208Y0098344D01*
X0055097Y0098558D01*
X0054991Y0098776D01*
X0054890Y0098995D01*
X0054795Y0099217D01*
X0054706Y0099442D01*
X0054621Y0099668D01*
X0054543Y0099896D01*
X0054470Y0100127D01*
X0054403Y0100359D01*
X0054341Y0100592D01*
X0054285Y0100827D01*
X0054235Y0101064D01*
X0054191Y0101301D01*
X0054153Y0101540D01*
X0054120Y0101779D01*
X0054093Y0102019D01*
X0054073Y0102260D01*
X0054058Y0102501D01*
X0054049Y0102742D01*
X0054046Y0102984D01*
X0011652Y0138945D02*
X0011654Y0139093D01*
X0011660Y0139241D01*
X0011670Y0139389D01*
X0011684Y0139536D01*
X0011702Y0139683D01*
X0011723Y0139829D01*
X0011749Y0139975D01*
X0011779Y0140120D01*
X0011812Y0140264D01*
X0011850Y0140407D01*
X0011891Y0140549D01*
X0011936Y0140690D01*
X0011984Y0140830D01*
X0012037Y0140969D01*
X0012093Y0141106D01*
X0012153Y0141241D01*
X0012216Y0141375D01*
X0012283Y0141507D01*
X0012354Y0141637D01*
X0012428Y0141765D01*
X0012505Y0141891D01*
X0012586Y0142015D01*
X0012670Y0142137D01*
X0012757Y0142256D01*
X0012848Y0142373D01*
X0012942Y0142488D01*
X0013038Y0142600D01*
X0013138Y0142710D01*
X0013240Y0142816D01*
X0013346Y0142920D01*
X0013454Y0143021D01*
X0013565Y0143119D01*
X0013678Y0143215D01*
X0013794Y0143307D01*
X0013912Y0143396D01*
X0014033Y0143481D01*
X0014156Y0143564D01*
X0014281Y0143643D01*
X0014408Y0143719D01*
X0014537Y0143791D01*
X0014668Y0143860D01*
X0014801Y0143925D01*
X0014936Y0143986D01*
X0015072Y0144044D01*
X0015209Y0144099D01*
X0015348Y0144149D01*
X0015489Y0144196D01*
X0015630Y0144239D01*
X0015773Y0144279D01*
X0015917Y0144314D01*
X0016061Y0144346D01*
X0016207Y0144373D01*
X0016353Y0144397D01*
X0016500Y0144417D01*
X0016647Y0144433D01*
X0016794Y0144445D01*
X0016942Y0144453D01*
X0017090Y0144457D01*
X0017238Y0144457D01*
X0017386Y0144453D01*
X0017534Y0144445D01*
X0017681Y0144433D01*
X0017828Y0144417D01*
X0017975Y0144397D01*
X0018121Y0144373D01*
X0018267Y0144346D01*
X0018411Y0144314D01*
X0018555Y0144279D01*
X0018698Y0144239D01*
X0018839Y0144196D01*
X0018980Y0144149D01*
X0019119Y0144099D01*
X0019256Y0144044D01*
X0019392Y0143986D01*
X0019527Y0143925D01*
X0019660Y0143860D01*
X0019791Y0143791D01*
X0019920Y0143719D01*
X0020047Y0143643D01*
X0020172Y0143564D01*
X0020295Y0143481D01*
X0020416Y0143396D01*
X0020534Y0143307D01*
X0020650Y0143215D01*
X0020763Y0143119D01*
X0020874Y0143021D01*
X0020982Y0142920D01*
X0021088Y0142816D01*
X0021190Y0142710D01*
X0021290Y0142600D01*
X0021386Y0142488D01*
X0021480Y0142373D01*
X0021571Y0142256D01*
X0021658Y0142137D01*
X0021742Y0142015D01*
X0021823Y0141891D01*
X0021900Y0141765D01*
X0021974Y0141637D01*
X0022045Y0141507D01*
X0022112Y0141375D01*
X0022175Y0141241D01*
X0022235Y0141106D01*
X0022291Y0140969D01*
X0022344Y0140830D01*
X0022392Y0140690D01*
X0022437Y0140549D01*
X0022478Y0140407D01*
X0022516Y0140264D01*
X0022549Y0140120D01*
X0022579Y0139975D01*
X0022605Y0139829D01*
X0022626Y0139683D01*
X0022644Y0139536D01*
X0022658Y0139389D01*
X0022668Y0139241D01*
X0022674Y0139093D01*
X0022676Y0138945D01*
X0022674Y0138797D01*
X0022668Y0138649D01*
X0022658Y0138501D01*
X0022644Y0138354D01*
X0022626Y0138207D01*
X0022605Y0138061D01*
X0022579Y0137915D01*
X0022549Y0137770D01*
X0022516Y0137626D01*
X0022478Y0137483D01*
X0022437Y0137341D01*
X0022392Y0137200D01*
X0022344Y0137060D01*
X0022291Y0136921D01*
X0022235Y0136784D01*
X0022175Y0136649D01*
X0022112Y0136515D01*
X0022045Y0136383D01*
X0021974Y0136253D01*
X0021900Y0136125D01*
X0021823Y0135999D01*
X0021742Y0135875D01*
X0021658Y0135753D01*
X0021571Y0135634D01*
X0021480Y0135517D01*
X0021386Y0135402D01*
X0021290Y0135290D01*
X0021190Y0135180D01*
X0021088Y0135074D01*
X0020982Y0134970D01*
X0020874Y0134869D01*
X0020763Y0134771D01*
X0020650Y0134675D01*
X0020534Y0134583D01*
X0020416Y0134494D01*
X0020295Y0134409D01*
X0020172Y0134326D01*
X0020047Y0134247D01*
X0019920Y0134171D01*
X0019791Y0134099D01*
X0019660Y0134030D01*
X0019527Y0133965D01*
X0019392Y0133904D01*
X0019256Y0133846D01*
X0019119Y0133791D01*
X0018980Y0133741D01*
X0018839Y0133694D01*
X0018698Y0133651D01*
X0018555Y0133611D01*
X0018411Y0133576D01*
X0018267Y0133544D01*
X0018121Y0133517D01*
X0017975Y0133493D01*
X0017828Y0133473D01*
X0017681Y0133457D01*
X0017534Y0133445D01*
X0017386Y0133437D01*
X0017238Y0133433D01*
X0017090Y0133433D01*
X0016942Y0133437D01*
X0016794Y0133445D01*
X0016647Y0133457D01*
X0016500Y0133473D01*
X0016353Y0133493D01*
X0016207Y0133517D01*
X0016061Y0133544D01*
X0015917Y0133576D01*
X0015773Y0133611D01*
X0015630Y0133651D01*
X0015489Y0133694D01*
X0015348Y0133741D01*
X0015209Y0133791D01*
X0015072Y0133846D01*
X0014936Y0133904D01*
X0014801Y0133965D01*
X0014668Y0134030D01*
X0014537Y0134099D01*
X0014408Y0134171D01*
X0014281Y0134247D01*
X0014156Y0134326D01*
X0014033Y0134409D01*
X0013912Y0134494D01*
X0013794Y0134583D01*
X0013678Y0134675D01*
X0013565Y0134771D01*
X0013454Y0134869D01*
X0013346Y0134970D01*
X0013240Y0135074D01*
X0013138Y0135180D01*
X0013038Y0135290D01*
X0012942Y0135402D01*
X0012848Y0135517D01*
X0012757Y0135634D01*
X0012670Y0135753D01*
X0012586Y0135875D01*
X0012505Y0135999D01*
X0012428Y0136125D01*
X0012354Y0136253D01*
X0012283Y0136383D01*
X0012216Y0136515D01*
X0012153Y0136649D01*
X0012093Y0136784D01*
X0012037Y0136921D01*
X0011984Y0137060D01*
X0011936Y0137200D01*
X0011891Y0137341D01*
X0011850Y0137483D01*
X0011812Y0137626D01*
X0011779Y0137770D01*
X0011749Y0137915D01*
X0011723Y0138061D01*
X0011702Y0138207D01*
X0011684Y0138354D01*
X0011670Y0138501D01*
X0011660Y0138649D01*
X0011654Y0138797D01*
X0011652Y0138945D01*
X0306928Y0138945D02*
X0306930Y0139093D01*
X0306936Y0139241D01*
X0306946Y0139389D01*
X0306960Y0139536D01*
X0306978Y0139683D01*
X0306999Y0139829D01*
X0307025Y0139975D01*
X0307055Y0140120D01*
X0307088Y0140264D01*
X0307126Y0140407D01*
X0307167Y0140549D01*
X0307212Y0140690D01*
X0307260Y0140830D01*
X0307313Y0140969D01*
X0307369Y0141106D01*
X0307429Y0141241D01*
X0307492Y0141375D01*
X0307559Y0141507D01*
X0307630Y0141637D01*
X0307704Y0141765D01*
X0307781Y0141891D01*
X0307862Y0142015D01*
X0307946Y0142137D01*
X0308033Y0142256D01*
X0308124Y0142373D01*
X0308218Y0142488D01*
X0308314Y0142600D01*
X0308414Y0142710D01*
X0308516Y0142816D01*
X0308622Y0142920D01*
X0308730Y0143021D01*
X0308841Y0143119D01*
X0308954Y0143215D01*
X0309070Y0143307D01*
X0309188Y0143396D01*
X0309309Y0143481D01*
X0309432Y0143564D01*
X0309557Y0143643D01*
X0309684Y0143719D01*
X0309813Y0143791D01*
X0309944Y0143860D01*
X0310077Y0143925D01*
X0310212Y0143986D01*
X0310348Y0144044D01*
X0310485Y0144099D01*
X0310624Y0144149D01*
X0310765Y0144196D01*
X0310906Y0144239D01*
X0311049Y0144279D01*
X0311193Y0144314D01*
X0311337Y0144346D01*
X0311483Y0144373D01*
X0311629Y0144397D01*
X0311776Y0144417D01*
X0311923Y0144433D01*
X0312070Y0144445D01*
X0312218Y0144453D01*
X0312366Y0144457D01*
X0312514Y0144457D01*
X0312662Y0144453D01*
X0312810Y0144445D01*
X0312957Y0144433D01*
X0313104Y0144417D01*
X0313251Y0144397D01*
X0313397Y0144373D01*
X0313543Y0144346D01*
X0313687Y0144314D01*
X0313831Y0144279D01*
X0313974Y0144239D01*
X0314115Y0144196D01*
X0314256Y0144149D01*
X0314395Y0144099D01*
X0314532Y0144044D01*
X0314668Y0143986D01*
X0314803Y0143925D01*
X0314936Y0143860D01*
X0315067Y0143791D01*
X0315196Y0143719D01*
X0315323Y0143643D01*
X0315448Y0143564D01*
X0315571Y0143481D01*
X0315692Y0143396D01*
X0315810Y0143307D01*
X0315926Y0143215D01*
X0316039Y0143119D01*
X0316150Y0143021D01*
X0316258Y0142920D01*
X0316364Y0142816D01*
X0316466Y0142710D01*
X0316566Y0142600D01*
X0316662Y0142488D01*
X0316756Y0142373D01*
X0316847Y0142256D01*
X0316934Y0142137D01*
X0317018Y0142015D01*
X0317099Y0141891D01*
X0317176Y0141765D01*
X0317250Y0141637D01*
X0317321Y0141507D01*
X0317388Y0141375D01*
X0317451Y0141241D01*
X0317511Y0141106D01*
X0317567Y0140969D01*
X0317620Y0140830D01*
X0317668Y0140690D01*
X0317713Y0140549D01*
X0317754Y0140407D01*
X0317792Y0140264D01*
X0317825Y0140120D01*
X0317855Y0139975D01*
X0317881Y0139829D01*
X0317902Y0139683D01*
X0317920Y0139536D01*
X0317934Y0139389D01*
X0317944Y0139241D01*
X0317950Y0139093D01*
X0317952Y0138945D01*
X0317950Y0138797D01*
X0317944Y0138649D01*
X0317934Y0138501D01*
X0317920Y0138354D01*
X0317902Y0138207D01*
X0317881Y0138061D01*
X0317855Y0137915D01*
X0317825Y0137770D01*
X0317792Y0137626D01*
X0317754Y0137483D01*
X0317713Y0137341D01*
X0317668Y0137200D01*
X0317620Y0137060D01*
X0317567Y0136921D01*
X0317511Y0136784D01*
X0317451Y0136649D01*
X0317388Y0136515D01*
X0317321Y0136383D01*
X0317250Y0136253D01*
X0317176Y0136125D01*
X0317099Y0135999D01*
X0317018Y0135875D01*
X0316934Y0135753D01*
X0316847Y0135634D01*
X0316756Y0135517D01*
X0316662Y0135402D01*
X0316566Y0135290D01*
X0316466Y0135180D01*
X0316364Y0135074D01*
X0316258Y0134970D01*
X0316150Y0134869D01*
X0316039Y0134771D01*
X0315926Y0134675D01*
X0315810Y0134583D01*
X0315692Y0134494D01*
X0315571Y0134409D01*
X0315448Y0134326D01*
X0315323Y0134247D01*
X0315196Y0134171D01*
X0315067Y0134099D01*
X0314936Y0134030D01*
X0314803Y0133965D01*
X0314668Y0133904D01*
X0314532Y0133846D01*
X0314395Y0133791D01*
X0314256Y0133741D01*
X0314115Y0133694D01*
X0313974Y0133651D01*
X0313831Y0133611D01*
X0313687Y0133576D01*
X0313543Y0133544D01*
X0313397Y0133517D01*
X0313251Y0133493D01*
X0313104Y0133473D01*
X0312957Y0133457D01*
X0312810Y0133445D01*
X0312662Y0133437D01*
X0312514Y0133433D01*
X0312366Y0133433D01*
X0312218Y0133437D01*
X0312070Y0133445D01*
X0311923Y0133457D01*
X0311776Y0133473D01*
X0311629Y0133493D01*
X0311483Y0133517D01*
X0311337Y0133544D01*
X0311193Y0133576D01*
X0311049Y0133611D01*
X0310906Y0133651D01*
X0310765Y0133694D01*
X0310624Y0133741D01*
X0310485Y0133791D01*
X0310348Y0133846D01*
X0310212Y0133904D01*
X0310077Y0133965D01*
X0309944Y0134030D01*
X0309813Y0134099D01*
X0309684Y0134171D01*
X0309557Y0134247D01*
X0309432Y0134326D01*
X0309309Y0134409D01*
X0309188Y0134494D01*
X0309070Y0134583D01*
X0308954Y0134675D01*
X0308841Y0134771D01*
X0308730Y0134869D01*
X0308622Y0134970D01*
X0308516Y0135074D01*
X0308414Y0135180D01*
X0308314Y0135290D01*
X0308218Y0135402D01*
X0308124Y0135517D01*
X0308033Y0135634D01*
X0307946Y0135753D01*
X0307862Y0135875D01*
X0307781Y0135999D01*
X0307704Y0136125D01*
X0307630Y0136253D01*
X0307559Y0136383D01*
X0307492Y0136515D01*
X0307429Y0136649D01*
X0307369Y0136784D01*
X0307313Y0136921D01*
X0307260Y0137060D01*
X0307212Y0137200D01*
X0307167Y0137341D01*
X0307126Y0137483D01*
X0307088Y0137626D01*
X0307055Y0137770D01*
X0307025Y0137915D01*
X0306999Y0138061D01*
X0306978Y0138207D01*
X0306960Y0138354D01*
X0306946Y0138501D01*
X0306936Y0138649D01*
X0306930Y0138797D01*
X0306928Y0138945D01*
X0347353Y0203969D02*
X0347358Y0204355D01*
X0347372Y0204742D01*
X0347396Y0205127D01*
X0347429Y0205513D01*
X0347471Y0205897D01*
X0347523Y0206280D01*
X0347585Y0206661D01*
X0347656Y0207041D01*
X0347736Y0207419D01*
X0347825Y0207795D01*
X0347923Y0208169D01*
X0348031Y0208540D01*
X0348148Y0208909D01*
X0348274Y0209274D01*
X0348408Y0209637D01*
X0348552Y0209995D01*
X0348704Y0210351D01*
X0348865Y0210702D01*
X0349035Y0211049D01*
X0349213Y0211393D01*
X0349399Y0211731D01*
X0349593Y0212065D01*
X0349796Y0212394D01*
X0350007Y0212718D01*
X0350226Y0213037D01*
X0350452Y0213350D01*
X0350686Y0213658D01*
X0350928Y0213959D01*
X0351176Y0214255D01*
X0351433Y0214545D01*
X0351696Y0214828D01*
X0351965Y0215105D01*
X0352242Y0215374D01*
X0352525Y0215637D01*
X0352815Y0215894D01*
X0353111Y0216142D01*
X0353412Y0216384D01*
X0353720Y0216618D01*
X0354033Y0216844D01*
X0354352Y0217063D01*
X0354676Y0217274D01*
X0355005Y0217477D01*
X0355339Y0217671D01*
X0355677Y0217857D01*
X0356021Y0218035D01*
X0356368Y0218205D01*
X0356719Y0218366D01*
X0357075Y0218518D01*
X0357433Y0218662D01*
X0357796Y0218796D01*
X0358161Y0218922D01*
X0358530Y0219039D01*
X0358901Y0219147D01*
X0359275Y0219245D01*
X0359651Y0219334D01*
X0360029Y0219414D01*
X0360409Y0219485D01*
X0360790Y0219547D01*
X0361173Y0219599D01*
X0361557Y0219641D01*
X0361943Y0219674D01*
X0362328Y0219698D01*
X0362715Y0219712D01*
X0363101Y0219717D01*
X0363487Y0219712D01*
X0363874Y0219698D01*
X0364259Y0219674D01*
X0364645Y0219641D01*
X0365029Y0219599D01*
X0365412Y0219547D01*
X0365793Y0219485D01*
X0366173Y0219414D01*
X0366551Y0219334D01*
X0366927Y0219245D01*
X0367301Y0219147D01*
X0367672Y0219039D01*
X0368041Y0218922D01*
X0368406Y0218796D01*
X0368769Y0218662D01*
X0369127Y0218518D01*
X0369483Y0218366D01*
X0369834Y0218205D01*
X0370181Y0218035D01*
X0370525Y0217857D01*
X0370863Y0217671D01*
X0371197Y0217477D01*
X0371526Y0217274D01*
X0371850Y0217063D01*
X0372169Y0216844D01*
X0372482Y0216618D01*
X0372790Y0216384D01*
X0373091Y0216142D01*
X0373387Y0215894D01*
X0373677Y0215637D01*
X0373960Y0215374D01*
X0374237Y0215105D01*
X0374506Y0214828D01*
X0374769Y0214545D01*
X0375026Y0214255D01*
X0375274Y0213959D01*
X0375516Y0213658D01*
X0375750Y0213350D01*
X0375976Y0213037D01*
X0376195Y0212718D01*
X0376406Y0212394D01*
X0376609Y0212065D01*
X0376803Y0211731D01*
X0376989Y0211393D01*
X0377167Y0211049D01*
X0377337Y0210702D01*
X0377498Y0210351D01*
X0377650Y0209995D01*
X0377794Y0209637D01*
X0377928Y0209274D01*
X0378054Y0208909D01*
X0378171Y0208540D01*
X0378279Y0208169D01*
X0378377Y0207795D01*
X0378466Y0207419D01*
X0378546Y0207041D01*
X0378617Y0206661D01*
X0378679Y0206280D01*
X0378731Y0205897D01*
X0378773Y0205513D01*
X0378806Y0205127D01*
X0378830Y0204742D01*
X0378844Y0204355D01*
X0378849Y0203969D01*
X0378844Y0203583D01*
X0378830Y0203196D01*
X0378806Y0202811D01*
X0378773Y0202425D01*
X0378731Y0202041D01*
X0378679Y0201658D01*
X0378617Y0201277D01*
X0378546Y0200897D01*
X0378466Y0200519D01*
X0378377Y0200143D01*
X0378279Y0199769D01*
X0378171Y0199398D01*
X0378054Y0199029D01*
X0377928Y0198664D01*
X0377794Y0198301D01*
X0377650Y0197943D01*
X0377498Y0197587D01*
X0377337Y0197236D01*
X0377167Y0196889D01*
X0376989Y0196545D01*
X0376803Y0196207D01*
X0376609Y0195873D01*
X0376406Y0195544D01*
X0376195Y0195220D01*
X0375976Y0194901D01*
X0375750Y0194588D01*
X0375516Y0194280D01*
X0375274Y0193979D01*
X0375026Y0193683D01*
X0374769Y0193393D01*
X0374506Y0193110D01*
X0374237Y0192833D01*
X0373960Y0192564D01*
X0373677Y0192301D01*
X0373387Y0192044D01*
X0373091Y0191796D01*
X0372790Y0191554D01*
X0372482Y0191320D01*
X0372169Y0191094D01*
X0371850Y0190875D01*
X0371526Y0190664D01*
X0371197Y0190461D01*
X0370863Y0190267D01*
X0370525Y0190081D01*
X0370181Y0189903D01*
X0369834Y0189733D01*
X0369483Y0189572D01*
X0369127Y0189420D01*
X0368769Y0189276D01*
X0368406Y0189142D01*
X0368041Y0189016D01*
X0367672Y0188899D01*
X0367301Y0188791D01*
X0366927Y0188693D01*
X0366551Y0188604D01*
X0366173Y0188524D01*
X0365793Y0188453D01*
X0365412Y0188391D01*
X0365029Y0188339D01*
X0364645Y0188297D01*
X0364259Y0188264D01*
X0363874Y0188240D01*
X0363487Y0188226D01*
X0363101Y0188221D01*
X0362715Y0188226D01*
X0362328Y0188240D01*
X0361943Y0188264D01*
X0361557Y0188297D01*
X0361173Y0188339D01*
X0360790Y0188391D01*
X0360409Y0188453D01*
X0360029Y0188524D01*
X0359651Y0188604D01*
X0359275Y0188693D01*
X0358901Y0188791D01*
X0358530Y0188899D01*
X0358161Y0189016D01*
X0357796Y0189142D01*
X0357433Y0189276D01*
X0357075Y0189420D01*
X0356719Y0189572D01*
X0356368Y0189733D01*
X0356021Y0189903D01*
X0355677Y0190081D01*
X0355339Y0190267D01*
X0355005Y0190461D01*
X0354676Y0190664D01*
X0354352Y0190875D01*
X0354033Y0191094D01*
X0353720Y0191320D01*
X0353412Y0191554D01*
X0353111Y0191796D01*
X0352815Y0192044D01*
X0352525Y0192301D01*
X0352242Y0192564D01*
X0351965Y0192833D01*
X0351696Y0193110D01*
X0351433Y0193393D01*
X0351176Y0193683D01*
X0350928Y0193979D01*
X0350686Y0194280D01*
X0350452Y0194588D01*
X0350226Y0194901D01*
X0350007Y0195220D01*
X0349796Y0195544D01*
X0349593Y0195873D01*
X0349399Y0196207D01*
X0349213Y0196545D01*
X0349035Y0196889D01*
X0348865Y0197236D01*
X0348704Y0197587D01*
X0348552Y0197943D01*
X0348408Y0198301D01*
X0348274Y0198664D01*
X0348148Y0199029D01*
X0348031Y0199398D01*
X0347923Y0199769D01*
X0347825Y0200143D01*
X0347736Y0200519D01*
X0347656Y0200897D01*
X0347585Y0201277D01*
X0347523Y0201658D01*
X0347471Y0202041D01*
X0347429Y0202425D01*
X0347396Y0202811D01*
X0347372Y0203196D01*
X0347358Y0203583D01*
X0347353Y0203969D01*
X0347058Y0250917D02*
X0347063Y0251303D01*
X0347077Y0251690D01*
X0347101Y0252075D01*
X0347134Y0252461D01*
X0347176Y0252845D01*
X0347228Y0253228D01*
X0347290Y0253609D01*
X0347361Y0253989D01*
X0347441Y0254367D01*
X0347530Y0254743D01*
X0347628Y0255117D01*
X0347736Y0255488D01*
X0347853Y0255857D01*
X0347979Y0256222D01*
X0348113Y0256585D01*
X0348257Y0256943D01*
X0348409Y0257299D01*
X0348570Y0257650D01*
X0348740Y0257997D01*
X0348918Y0258341D01*
X0349104Y0258679D01*
X0349298Y0259013D01*
X0349501Y0259342D01*
X0349712Y0259666D01*
X0349931Y0259985D01*
X0350157Y0260298D01*
X0350391Y0260606D01*
X0350633Y0260907D01*
X0350881Y0261203D01*
X0351138Y0261493D01*
X0351401Y0261776D01*
X0351670Y0262053D01*
X0351947Y0262322D01*
X0352230Y0262585D01*
X0352520Y0262842D01*
X0352816Y0263090D01*
X0353117Y0263332D01*
X0353425Y0263566D01*
X0353738Y0263792D01*
X0354057Y0264011D01*
X0354381Y0264222D01*
X0354710Y0264425D01*
X0355044Y0264619D01*
X0355382Y0264805D01*
X0355726Y0264983D01*
X0356073Y0265153D01*
X0356424Y0265314D01*
X0356780Y0265466D01*
X0357138Y0265610D01*
X0357501Y0265744D01*
X0357866Y0265870D01*
X0358235Y0265987D01*
X0358606Y0266095D01*
X0358980Y0266193D01*
X0359356Y0266282D01*
X0359734Y0266362D01*
X0360114Y0266433D01*
X0360495Y0266495D01*
X0360878Y0266547D01*
X0361262Y0266589D01*
X0361648Y0266622D01*
X0362033Y0266646D01*
X0362420Y0266660D01*
X0362806Y0266665D01*
X0363192Y0266660D01*
X0363579Y0266646D01*
X0363964Y0266622D01*
X0364350Y0266589D01*
X0364734Y0266547D01*
X0365117Y0266495D01*
X0365498Y0266433D01*
X0365878Y0266362D01*
X0366256Y0266282D01*
X0366632Y0266193D01*
X0367006Y0266095D01*
X0367377Y0265987D01*
X0367746Y0265870D01*
X0368111Y0265744D01*
X0368474Y0265610D01*
X0368832Y0265466D01*
X0369188Y0265314D01*
X0369539Y0265153D01*
X0369886Y0264983D01*
X0370230Y0264805D01*
X0370568Y0264619D01*
X0370902Y0264425D01*
X0371231Y0264222D01*
X0371555Y0264011D01*
X0371874Y0263792D01*
X0372187Y0263566D01*
X0372495Y0263332D01*
X0372796Y0263090D01*
X0373092Y0262842D01*
X0373382Y0262585D01*
X0373665Y0262322D01*
X0373942Y0262053D01*
X0374211Y0261776D01*
X0374474Y0261493D01*
X0374731Y0261203D01*
X0374979Y0260907D01*
X0375221Y0260606D01*
X0375455Y0260298D01*
X0375681Y0259985D01*
X0375900Y0259666D01*
X0376111Y0259342D01*
X0376314Y0259013D01*
X0376508Y0258679D01*
X0376694Y0258341D01*
X0376872Y0257997D01*
X0377042Y0257650D01*
X0377203Y0257299D01*
X0377355Y0256943D01*
X0377499Y0256585D01*
X0377633Y0256222D01*
X0377759Y0255857D01*
X0377876Y0255488D01*
X0377984Y0255117D01*
X0378082Y0254743D01*
X0378171Y0254367D01*
X0378251Y0253989D01*
X0378322Y0253609D01*
X0378384Y0253228D01*
X0378436Y0252845D01*
X0378478Y0252461D01*
X0378511Y0252075D01*
X0378535Y0251690D01*
X0378549Y0251303D01*
X0378554Y0250917D01*
X0378549Y0250531D01*
X0378535Y0250144D01*
X0378511Y0249759D01*
X0378478Y0249373D01*
X0378436Y0248989D01*
X0378384Y0248606D01*
X0378322Y0248225D01*
X0378251Y0247845D01*
X0378171Y0247467D01*
X0378082Y0247091D01*
X0377984Y0246717D01*
X0377876Y0246346D01*
X0377759Y0245977D01*
X0377633Y0245612D01*
X0377499Y0245249D01*
X0377355Y0244891D01*
X0377203Y0244535D01*
X0377042Y0244184D01*
X0376872Y0243837D01*
X0376694Y0243493D01*
X0376508Y0243155D01*
X0376314Y0242821D01*
X0376111Y0242492D01*
X0375900Y0242168D01*
X0375681Y0241849D01*
X0375455Y0241536D01*
X0375221Y0241228D01*
X0374979Y0240927D01*
X0374731Y0240631D01*
X0374474Y0240341D01*
X0374211Y0240058D01*
X0373942Y0239781D01*
X0373665Y0239512D01*
X0373382Y0239249D01*
X0373092Y0238992D01*
X0372796Y0238744D01*
X0372495Y0238502D01*
X0372187Y0238268D01*
X0371874Y0238042D01*
X0371555Y0237823D01*
X0371231Y0237612D01*
X0370902Y0237409D01*
X0370568Y0237215D01*
X0370230Y0237029D01*
X0369886Y0236851D01*
X0369539Y0236681D01*
X0369188Y0236520D01*
X0368832Y0236368D01*
X0368474Y0236224D01*
X0368111Y0236090D01*
X0367746Y0235964D01*
X0367377Y0235847D01*
X0367006Y0235739D01*
X0366632Y0235641D01*
X0366256Y0235552D01*
X0365878Y0235472D01*
X0365498Y0235401D01*
X0365117Y0235339D01*
X0364734Y0235287D01*
X0364350Y0235245D01*
X0363964Y0235212D01*
X0363579Y0235188D01*
X0363192Y0235174D01*
X0362806Y0235169D01*
X0362420Y0235174D01*
X0362033Y0235188D01*
X0361648Y0235212D01*
X0361262Y0235245D01*
X0360878Y0235287D01*
X0360495Y0235339D01*
X0360114Y0235401D01*
X0359734Y0235472D01*
X0359356Y0235552D01*
X0358980Y0235641D01*
X0358606Y0235739D01*
X0358235Y0235847D01*
X0357866Y0235964D01*
X0357501Y0236090D01*
X0357138Y0236224D01*
X0356780Y0236368D01*
X0356424Y0236520D01*
X0356073Y0236681D01*
X0355726Y0236851D01*
X0355382Y0237029D01*
X0355044Y0237215D01*
X0354710Y0237409D01*
X0354381Y0237612D01*
X0354057Y0237823D01*
X0353738Y0238042D01*
X0353425Y0238268D01*
X0353117Y0238502D01*
X0352816Y0238744D01*
X0352520Y0238992D01*
X0352230Y0239249D01*
X0351947Y0239512D01*
X0351670Y0239781D01*
X0351401Y0240058D01*
X0351138Y0240341D01*
X0350881Y0240631D01*
X0350633Y0240927D01*
X0350391Y0241228D01*
X0350157Y0241536D01*
X0349931Y0241849D01*
X0349712Y0242168D01*
X0349501Y0242492D01*
X0349298Y0242821D01*
X0349104Y0243155D01*
X0348918Y0243493D01*
X0348740Y0243837D01*
X0348570Y0244184D01*
X0348409Y0244535D01*
X0348257Y0244891D01*
X0348113Y0245249D01*
X0347979Y0245612D01*
X0347853Y0245977D01*
X0347736Y0246346D01*
X0347628Y0246717D01*
X0347530Y0247091D01*
X0347441Y0247467D01*
X0347361Y0247845D01*
X0347290Y0248225D01*
X0347228Y0248606D01*
X0347176Y0248989D01*
X0347134Y0249373D01*
X0347101Y0249759D01*
X0347077Y0250144D01*
X0347063Y0250531D01*
X0347058Y0250917D01*
X0347353Y0298063D02*
X0347358Y0298449D01*
X0347372Y0298836D01*
X0347396Y0299221D01*
X0347429Y0299607D01*
X0347471Y0299991D01*
X0347523Y0300374D01*
X0347585Y0300755D01*
X0347656Y0301135D01*
X0347736Y0301513D01*
X0347825Y0301889D01*
X0347923Y0302263D01*
X0348031Y0302634D01*
X0348148Y0303003D01*
X0348274Y0303368D01*
X0348408Y0303731D01*
X0348552Y0304089D01*
X0348704Y0304445D01*
X0348865Y0304796D01*
X0349035Y0305143D01*
X0349213Y0305487D01*
X0349399Y0305825D01*
X0349593Y0306159D01*
X0349796Y0306488D01*
X0350007Y0306812D01*
X0350226Y0307131D01*
X0350452Y0307444D01*
X0350686Y0307752D01*
X0350928Y0308053D01*
X0351176Y0308349D01*
X0351433Y0308639D01*
X0351696Y0308922D01*
X0351965Y0309199D01*
X0352242Y0309468D01*
X0352525Y0309731D01*
X0352815Y0309988D01*
X0353111Y0310236D01*
X0353412Y0310478D01*
X0353720Y0310712D01*
X0354033Y0310938D01*
X0354352Y0311157D01*
X0354676Y0311368D01*
X0355005Y0311571D01*
X0355339Y0311765D01*
X0355677Y0311951D01*
X0356021Y0312129D01*
X0356368Y0312299D01*
X0356719Y0312460D01*
X0357075Y0312612D01*
X0357433Y0312756D01*
X0357796Y0312890D01*
X0358161Y0313016D01*
X0358530Y0313133D01*
X0358901Y0313241D01*
X0359275Y0313339D01*
X0359651Y0313428D01*
X0360029Y0313508D01*
X0360409Y0313579D01*
X0360790Y0313641D01*
X0361173Y0313693D01*
X0361557Y0313735D01*
X0361943Y0313768D01*
X0362328Y0313792D01*
X0362715Y0313806D01*
X0363101Y0313811D01*
X0363487Y0313806D01*
X0363874Y0313792D01*
X0364259Y0313768D01*
X0364645Y0313735D01*
X0365029Y0313693D01*
X0365412Y0313641D01*
X0365793Y0313579D01*
X0366173Y0313508D01*
X0366551Y0313428D01*
X0366927Y0313339D01*
X0367301Y0313241D01*
X0367672Y0313133D01*
X0368041Y0313016D01*
X0368406Y0312890D01*
X0368769Y0312756D01*
X0369127Y0312612D01*
X0369483Y0312460D01*
X0369834Y0312299D01*
X0370181Y0312129D01*
X0370525Y0311951D01*
X0370863Y0311765D01*
X0371197Y0311571D01*
X0371526Y0311368D01*
X0371850Y0311157D01*
X0372169Y0310938D01*
X0372482Y0310712D01*
X0372790Y0310478D01*
X0373091Y0310236D01*
X0373387Y0309988D01*
X0373677Y0309731D01*
X0373960Y0309468D01*
X0374237Y0309199D01*
X0374506Y0308922D01*
X0374769Y0308639D01*
X0375026Y0308349D01*
X0375274Y0308053D01*
X0375516Y0307752D01*
X0375750Y0307444D01*
X0375976Y0307131D01*
X0376195Y0306812D01*
X0376406Y0306488D01*
X0376609Y0306159D01*
X0376803Y0305825D01*
X0376989Y0305487D01*
X0377167Y0305143D01*
X0377337Y0304796D01*
X0377498Y0304445D01*
X0377650Y0304089D01*
X0377794Y0303731D01*
X0377928Y0303368D01*
X0378054Y0303003D01*
X0378171Y0302634D01*
X0378279Y0302263D01*
X0378377Y0301889D01*
X0378466Y0301513D01*
X0378546Y0301135D01*
X0378617Y0300755D01*
X0378679Y0300374D01*
X0378731Y0299991D01*
X0378773Y0299607D01*
X0378806Y0299221D01*
X0378830Y0298836D01*
X0378844Y0298449D01*
X0378849Y0298063D01*
X0378844Y0297677D01*
X0378830Y0297290D01*
X0378806Y0296905D01*
X0378773Y0296519D01*
X0378731Y0296135D01*
X0378679Y0295752D01*
X0378617Y0295371D01*
X0378546Y0294991D01*
X0378466Y0294613D01*
X0378377Y0294237D01*
X0378279Y0293863D01*
X0378171Y0293492D01*
X0378054Y0293123D01*
X0377928Y0292758D01*
X0377794Y0292395D01*
X0377650Y0292037D01*
X0377498Y0291681D01*
X0377337Y0291330D01*
X0377167Y0290983D01*
X0376989Y0290639D01*
X0376803Y0290301D01*
X0376609Y0289967D01*
X0376406Y0289638D01*
X0376195Y0289314D01*
X0375976Y0288995D01*
X0375750Y0288682D01*
X0375516Y0288374D01*
X0375274Y0288073D01*
X0375026Y0287777D01*
X0374769Y0287487D01*
X0374506Y0287204D01*
X0374237Y0286927D01*
X0373960Y0286658D01*
X0373677Y0286395D01*
X0373387Y0286138D01*
X0373091Y0285890D01*
X0372790Y0285648D01*
X0372482Y0285414D01*
X0372169Y0285188D01*
X0371850Y0284969D01*
X0371526Y0284758D01*
X0371197Y0284555D01*
X0370863Y0284361D01*
X0370525Y0284175D01*
X0370181Y0283997D01*
X0369834Y0283827D01*
X0369483Y0283666D01*
X0369127Y0283514D01*
X0368769Y0283370D01*
X0368406Y0283236D01*
X0368041Y0283110D01*
X0367672Y0282993D01*
X0367301Y0282885D01*
X0366927Y0282787D01*
X0366551Y0282698D01*
X0366173Y0282618D01*
X0365793Y0282547D01*
X0365412Y0282485D01*
X0365029Y0282433D01*
X0364645Y0282391D01*
X0364259Y0282358D01*
X0363874Y0282334D01*
X0363487Y0282320D01*
X0363101Y0282315D01*
X0362715Y0282320D01*
X0362328Y0282334D01*
X0361943Y0282358D01*
X0361557Y0282391D01*
X0361173Y0282433D01*
X0360790Y0282485D01*
X0360409Y0282547D01*
X0360029Y0282618D01*
X0359651Y0282698D01*
X0359275Y0282787D01*
X0358901Y0282885D01*
X0358530Y0282993D01*
X0358161Y0283110D01*
X0357796Y0283236D01*
X0357433Y0283370D01*
X0357075Y0283514D01*
X0356719Y0283666D01*
X0356368Y0283827D01*
X0356021Y0283997D01*
X0355677Y0284175D01*
X0355339Y0284361D01*
X0355005Y0284555D01*
X0354676Y0284758D01*
X0354352Y0284969D01*
X0354033Y0285188D01*
X0353720Y0285414D01*
X0353412Y0285648D01*
X0353111Y0285890D01*
X0352815Y0286138D01*
X0352525Y0286395D01*
X0352242Y0286658D01*
X0351965Y0286927D01*
X0351696Y0287204D01*
X0351433Y0287487D01*
X0351176Y0287777D01*
X0350928Y0288073D01*
X0350686Y0288374D01*
X0350452Y0288682D01*
X0350226Y0288995D01*
X0350007Y0289314D01*
X0349796Y0289638D01*
X0349593Y0289967D01*
X0349399Y0290301D01*
X0349213Y0290639D01*
X0349035Y0290983D01*
X0348865Y0291330D01*
X0348704Y0291681D01*
X0348552Y0292037D01*
X0348408Y0292395D01*
X0348274Y0292758D01*
X0348148Y0293123D01*
X0348031Y0293492D01*
X0347923Y0293863D01*
X0347825Y0294237D01*
X0347736Y0294613D01*
X0347656Y0294991D01*
X0347585Y0295371D01*
X0347523Y0295752D01*
X0347471Y0296135D01*
X0347429Y0296519D01*
X0347396Y0296905D01*
X0347372Y0297290D01*
X0347358Y0297677D01*
X0347353Y0298063D01*
X0306928Y0016898D02*
X0306930Y0017046D01*
X0306936Y0017194D01*
X0306946Y0017342D01*
X0306960Y0017489D01*
X0306978Y0017636D01*
X0306999Y0017782D01*
X0307025Y0017928D01*
X0307055Y0018073D01*
X0307088Y0018217D01*
X0307126Y0018360D01*
X0307167Y0018502D01*
X0307212Y0018643D01*
X0307260Y0018783D01*
X0307313Y0018922D01*
X0307369Y0019059D01*
X0307429Y0019194D01*
X0307492Y0019328D01*
X0307559Y0019460D01*
X0307630Y0019590D01*
X0307704Y0019718D01*
X0307781Y0019844D01*
X0307862Y0019968D01*
X0307946Y0020090D01*
X0308033Y0020209D01*
X0308124Y0020326D01*
X0308218Y0020441D01*
X0308314Y0020553D01*
X0308414Y0020663D01*
X0308516Y0020769D01*
X0308622Y0020873D01*
X0308730Y0020974D01*
X0308841Y0021072D01*
X0308954Y0021168D01*
X0309070Y0021260D01*
X0309188Y0021349D01*
X0309309Y0021434D01*
X0309432Y0021517D01*
X0309557Y0021596D01*
X0309684Y0021672D01*
X0309813Y0021744D01*
X0309944Y0021813D01*
X0310077Y0021878D01*
X0310212Y0021939D01*
X0310348Y0021997D01*
X0310485Y0022052D01*
X0310624Y0022102D01*
X0310765Y0022149D01*
X0310906Y0022192D01*
X0311049Y0022232D01*
X0311193Y0022267D01*
X0311337Y0022299D01*
X0311483Y0022326D01*
X0311629Y0022350D01*
X0311776Y0022370D01*
X0311923Y0022386D01*
X0312070Y0022398D01*
X0312218Y0022406D01*
X0312366Y0022410D01*
X0312514Y0022410D01*
X0312662Y0022406D01*
X0312810Y0022398D01*
X0312957Y0022386D01*
X0313104Y0022370D01*
X0313251Y0022350D01*
X0313397Y0022326D01*
X0313543Y0022299D01*
X0313687Y0022267D01*
X0313831Y0022232D01*
X0313974Y0022192D01*
X0314115Y0022149D01*
X0314256Y0022102D01*
X0314395Y0022052D01*
X0314532Y0021997D01*
X0314668Y0021939D01*
X0314803Y0021878D01*
X0314936Y0021813D01*
X0315067Y0021744D01*
X0315196Y0021672D01*
X0315323Y0021596D01*
X0315448Y0021517D01*
X0315571Y0021434D01*
X0315692Y0021349D01*
X0315810Y0021260D01*
X0315926Y0021168D01*
X0316039Y0021072D01*
X0316150Y0020974D01*
X0316258Y0020873D01*
X0316364Y0020769D01*
X0316466Y0020663D01*
X0316566Y0020553D01*
X0316662Y0020441D01*
X0316756Y0020326D01*
X0316847Y0020209D01*
X0316934Y0020090D01*
X0317018Y0019968D01*
X0317099Y0019844D01*
X0317176Y0019718D01*
X0317250Y0019590D01*
X0317321Y0019460D01*
X0317388Y0019328D01*
X0317451Y0019194D01*
X0317511Y0019059D01*
X0317567Y0018922D01*
X0317620Y0018783D01*
X0317668Y0018643D01*
X0317713Y0018502D01*
X0317754Y0018360D01*
X0317792Y0018217D01*
X0317825Y0018073D01*
X0317855Y0017928D01*
X0317881Y0017782D01*
X0317902Y0017636D01*
X0317920Y0017489D01*
X0317934Y0017342D01*
X0317944Y0017194D01*
X0317950Y0017046D01*
X0317952Y0016898D01*
X0317950Y0016750D01*
X0317944Y0016602D01*
X0317934Y0016454D01*
X0317920Y0016307D01*
X0317902Y0016160D01*
X0317881Y0016014D01*
X0317855Y0015868D01*
X0317825Y0015723D01*
X0317792Y0015579D01*
X0317754Y0015436D01*
X0317713Y0015294D01*
X0317668Y0015153D01*
X0317620Y0015013D01*
X0317567Y0014874D01*
X0317511Y0014737D01*
X0317451Y0014602D01*
X0317388Y0014468D01*
X0317321Y0014336D01*
X0317250Y0014206D01*
X0317176Y0014078D01*
X0317099Y0013952D01*
X0317018Y0013828D01*
X0316934Y0013706D01*
X0316847Y0013587D01*
X0316756Y0013470D01*
X0316662Y0013355D01*
X0316566Y0013243D01*
X0316466Y0013133D01*
X0316364Y0013027D01*
X0316258Y0012923D01*
X0316150Y0012822D01*
X0316039Y0012724D01*
X0315926Y0012628D01*
X0315810Y0012536D01*
X0315692Y0012447D01*
X0315571Y0012362D01*
X0315448Y0012279D01*
X0315323Y0012200D01*
X0315196Y0012124D01*
X0315067Y0012052D01*
X0314936Y0011983D01*
X0314803Y0011918D01*
X0314668Y0011857D01*
X0314532Y0011799D01*
X0314395Y0011744D01*
X0314256Y0011694D01*
X0314115Y0011647D01*
X0313974Y0011604D01*
X0313831Y0011564D01*
X0313687Y0011529D01*
X0313543Y0011497D01*
X0313397Y0011470D01*
X0313251Y0011446D01*
X0313104Y0011426D01*
X0312957Y0011410D01*
X0312810Y0011398D01*
X0312662Y0011390D01*
X0312514Y0011386D01*
X0312366Y0011386D01*
X0312218Y0011390D01*
X0312070Y0011398D01*
X0311923Y0011410D01*
X0311776Y0011426D01*
X0311629Y0011446D01*
X0311483Y0011470D01*
X0311337Y0011497D01*
X0311193Y0011529D01*
X0311049Y0011564D01*
X0310906Y0011604D01*
X0310765Y0011647D01*
X0310624Y0011694D01*
X0310485Y0011744D01*
X0310348Y0011799D01*
X0310212Y0011857D01*
X0310077Y0011918D01*
X0309944Y0011983D01*
X0309813Y0012052D01*
X0309684Y0012124D01*
X0309557Y0012200D01*
X0309432Y0012279D01*
X0309309Y0012362D01*
X0309188Y0012447D01*
X0309070Y0012536D01*
X0308954Y0012628D01*
X0308841Y0012724D01*
X0308730Y0012822D01*
X0308622Y0012923D01*
X0308516Y0013027D01*
X0308414Y0013133D01*
X0308314Y0013243D01*
X0308218Y0013355D01*
X0308124Y0013470D01*
X0308033Y0013587D01*
X0307946Y0013706D01*
X0307862Y0013828D01*
X0307781Y0013952D01*
X0307704Y0014078D01*
X0307630Y0014206D01*
X0307559Y0014336D01*
X0307492Y0014468D01*
X0307429Y0014602D01*
X0307369Y0014737D01*
X0307313Y0014874D01*
X0307260Y0015013D01*
X0307212Y0015153D01*
X0307167Y0015294D01*
X0307126Y0015436D01*
X0307088Y0015579D01*
X0307055Y0015723D01*
X0307025Y0015868D01*
X0306999Y0016014D01*
X0306978Y0016160D01*
X0306960Y0016307D01*
X0306946Y0016454D01*
X0306936Y0016602D01*
X0306930Y0016750D01*
X0306928Y0016898D01*
D11*
X0063889Y0102984D03*
D12*
X0020240Y0190091D02*
X0020242Y0190256D01*
X0020248Y0190422D01*
X0020258Y0190587D01*
X0020272Y0190752D01*
X0020291Y0190916D01*
X0020313Y0191080D01*
X0020339Y0191243D01*
X0020369Y0191406D01*
X0020404Y0191568D01*
X0020442Y0191728D01*
X0020484Y0191888D01*
X0020530Y0192047D01*
X0020580Y0192205D01*
X0020634Y0192361D01*
X0020692Y0192516D01*
X0020753Y0192670D01*
X0020818Y0192822D01*
X0020887Y0192972D01*
X0020960Y0193121D01*
X0021036Y0193268D01*
X0021115Y0193413D01*
X0021199Y0193556D01*
X0021286Y0193696D01*
X0021376Y0193835D01*
X0021469Y0193971D01*
X0021566Y0194105D01*
X0021666Y0194237D01*
X0021770Y0194366D01*
X0021876Y0194493D01*
X0021986Y0194617D01*
X0022098Y0194738D01*
X0022214Y0194856D01*
X0022332Y0194972D01*
X0022453Y0195084D01*
X0022577Y0195194D01*
X0022704Y0195300D01*
X0022833Y0195404D01*
X0022965Y0195504D01*
X0023099Y0195601D01*
X0023235Y0195694D01*
X0023374Y0195784D01*
X0023514Y0195871D01*
X0023657Y0195955D01*
X0023802Y0196034D01*
X0023949Y0196110D01*
X0024098Y0196183D01*
X0024248Y0196252D01*
X0024400Y0196317D01*
X0024554Y0196378D01*
X0024709Y0196436D01*
X0024865Y0196490D01*
X0025023Y0196540D01*
X0025182Y0196586D01*
X0025342Y0196628D01*
X0025502Y0196666D01*
X0025664Y0196701D01*
X0025827Y0196731D01*
X0025990Y0196757D01*
X0026154Y0196779D01*
X0026318Y0196798D01*
X0026483Y0196812D01*
X0026648Y0196822D01*
X0026814Y0196828D01*
X0026979Y0196830D01*
X0027144Y0196828D01*
X0027310Y0196822D01*
X0027475Y0196812D01*
X0027640Y0196798D01*
X0027804Y0196779D01*
X0027968Y0196757D01*
X0028131Y0196731D01*
X0028294Y0196701D01*
X0028456Y0196666D01*
X0028616Y0196628D01*
X0028776Y0196586D01*
X0028935Y0196540D01*
X0029093Y0196490D01*
X0029249Y0196436D01*
X0029404Y0196378D01*
X0029558Y0196317D01*
X0029710Y0196252D01*
X0029860Y0196183D01*
X0030009Y0196110D01*
X0030156Y0196034D01*
X0030301Y0195955D01*
X0030444Y0195871D01*
X0030584Y0195784D01*
X0030723Y0195694D01*
X0030859Y0195601D01*
X0030993Y0195504D01*
X0031125Y0195404D01*
X0031254Y0195300D01*
X0031381Y0195194D01*
X0031505Y0195084D01*
X0031626Y0194972D01*
X0031744Y0194856D01*
X0031860Y0194738D01*
X0031972Y0194617D01*
X0032082Y0194493D01*
X0032188Y0194366D01*
X0032292Y0194237D01*
X0032392Y0194105D01*
X0032489Y0193971D01*
X0032582Y0193835D01*
X0032672Y0193696D01*
X0032759Y0193556D01*
X0032843Y0193413D01*
X0032922Y0193268D01*
X0032998Y0193121D01*
X0033071Y0192972D01*
X0033140Y0192822D01*
X0033205Y0192670D01*
X0033266Y0192516D01*
X0033324Y0192361D01*
X0033378Y0192205D01*
X0033428Y0192047D01*
X0033474Y0191888D01*
X0033516Y0191728D01*
X0033554Y0191568D01*
X0033589Y0191406D01*
X0033619Y0191243D01*
X0033645Y0191080D01*
X0033667Y0190916D01*
X0033686Y0190752D01*
X0033700Y0190587D01*
X0033710Y0190422D01*
X0033716Y0190256D01*
X0033718Y0190091D01*
X0033716Y0189926D01*
X0033710Y0189760D01*
X0033700Y0189595D01*
X0033686Y0189430D01*
X0033667Y0189266D01*
X0033645Y0189102D01*
X0033619Y0188939D01*
X0033589Y0188776D01*
X0033554Y0188614D01*
X0033516Y0188454D01*
X0033474Y0188294D01*
X0033428Y0188135D01*
X0033378Y0187977D01*
X0033324Y0187821D01*
X0033266Y0187666D01*
X0033205Y0187512D01*
X0033140Y0187360D01*
X0033071Y0187210D01*
X0032998Y0187061D01*
X0032922Y0186914D01*
X0032843Y0186769D01*
X0032759Y0186626D01*
X0032672Y0186486D01*
X0032582Y0186347D01*
X0032489Y0186211D01*
X0032392Y0186077D01*
X0032292Y0185945D01*
X0032188Y0185816D01*
X0032082Y0185689D01*
X0031972Y0185565D01*
X0031860Y0185444D01*
X0031744Y0185326D01*
X0031626Y0185210D01*
X0031505Y0185098D01*
X0031381Y0184988D01*
X0031254Y0184882D01*
X0031125Y0184778D01*
X0030993Y0184678D01*
X0030859Y0184581D01*
X0030723Y0184488D01*
X0030584Y0184398D01*
X0030444Y0184311D01*
X0030301Y0184227D01*
X0030156Y0184148D01*
X0030009Y0184072D01*
X0029860Y0183999D01*
X0029710Y0183930D01*
X0029558Y0183865D01*
X0029404Y0183804D01*
X0029249Y0183746D01*
X0029093Y0183692D01*
X0028935Y0183642D01*
X0028776Y0183596D01*
X0028616Y0183554D01*
X0028456Y0183516D01*
X0028294Y0183481D01*
X0028131Y0183451D01*
X0027968Y0183425D01*
X0027804Y0183403D01*
X0027640Y0183384D01*
X0027475Y0183370D01*
X0027310Y0183360D01*
X0027144Y0183354D01*
X0026979Y0183352D01*
X0026814Y0183354D01*
X0026648Y0183360D01*
X0026483Y0183370D01*
X0026318Y0183384D01*
X0026154Y0183403D01*
X0025990Y0183425D01*
X0025827Y0183451D01*
X0025664Y0183481D01*
X0025502Y0183516D01*
X0025342Y0183554D01*
X0025182Y0183596D01*
X0025023Y0183642D01*
X0024865Y0183692D01*
X0024709Y0183746D01*
X0024554Y0183804D01*
X0024400Y0183865D01*
X0024248Y0183930D01*
X0024098Y0183999D01*
X0023949Y0184072D01*
X0023802Y0184148D01*
X0023657Y0184227D01*
X0023514Y0184311D01*
X0023374Y0184398D01*
X0023235Y0184488D01*
X0023099Y0184581D01*
X0022965Y0184678D01*
X0022833Y0184778D01*
X0022704Y0184882D01*
X0022577Y0184988D01*
X0022453Y0185098D01*
X0022332Y0185210D01*
X0022214Y0185326D01*
X0022098Y0185444D01*
X0021986Y0185565D01*
X0021876Y0185689D01*
X0021770Y0185816D01*
X0021666Y0185945D01*
X0021566Y0186077D01*
X0021469Y0186211D01*
X0021376Y0186347D01*
X0021286Y0186486D01*
X0021199Y0186626D01*
X0021115Y0186769D01*
X0021036Y0186914D01*
X0020960Y0187061D01*
X0020887Y0187210D01*
X0020818Y0187360D01*
X0020753Y0187512D01*
X0020692Y0187666D01*
X0020634Y0187821D01*
X0020580Y0187977D01*
X0020530Y0188135D01*
X0020484Y0188294D01*
X0020442Y0188454D01*
X0020404Y0188614D01*
X0020369Y0188776D01*
X0020339Y0188939D01*
X0020313Y0189102D01*
X0020291Y0189266D01*
X0020272Y0189430D01*
X0020258Y0189595D01*
X0020248Y0189760D01*
X0020242Y0189926D01*
X0020240Y0190091D01*
X0020240Y0312138D02*
X0020242Y0312303D01*
X0020248Y0312469D01*
X0020258Y0312634D01*
X0020272Y0312799D01*
X0020291Y0312963D01*
X0020313Y0313127D01*
X0020339Y0313290D01*
X0020369Y0313453D01*
X0020404Y0313615D01*
X0020442Y0313775D01*
X0020484Y0313935D01*
X0020530Y0314094D01*
X0020580Y0314252D01*
X0020634Y0314408D01*
X0020692Y0314563D01*
X0020753Y0314717D01*
X0020818Y0314869D01*
X0020887Y0315019D01*
X0020960Y0315168D01*
X0021036Y0315315D01*
X0021115Y0315460D01*
X0021199Y0315603D01*
X0021286Y0315743D01*
X0021376Y0315882D01*
X0021469Y0316018D01*
X0021566Y0316152D01*
X0021666Y0316284D01*
X0021770Y0316413D01*
X0021876Y0316540D01*
X0021986Y0316664D01*
X0022098Y0316785D01*
X0022214Y0316903D01*
X0022332Y0317019D01*
X0022453Y0317131D01*
X0022577Y0317241D01*
X0022704Y0317347D01*
X0022833Y0317451D01*
X0022965Y0317551D01*
X0023099Y0317648D01*
X0023235Y0317741D01*
X0023374Y0317831D01*
X0023514Y0317918D01*
X0023657Y0318002D01*
X0023802Y0318081D01*
X0023949Y0318157D01*
X0024098Y0318230D01*
X0024248Y0318299D01*
X0024400Y0318364D01*
X0024554Y0318425D01*
X0024709Y0318483D01*
X0024865Y0318537D01*
X0025023Y0318587D01*
X0025182Y0318633D01*
X0025342Y0318675D01*
X0025502Y0318713D01*
X0025664Y0318748D01*
X0025827Y0318778D01*
X0025990Y0318804D01*
X0026154Y0318826D01*
X0026318Y0318845D01*
X0026483Y0318859D01*
X0026648Y0318869D01*
X0026814Y0318875D01*
X0026979Y0318877D01*
X0027144Y0318875D01*
X0027310Y0318869D01*
X0027475Y0318859D01*
X0027640Y0318845D01*
X0027804Y0318826D01*
X0027968Y0318804D01*
X0028131Y0318778D01*
X0028294Y0318748D01*
X0028456Y0318713D01*
X0028616Y0318675D01*
X0028776Y0318633D01*
X0028935Y0318587D01*
X0029093Y0318537D01*
X0029249Y0318483D01*
X0029404Y0318425D01*
X0029558Y0318364D01*
X0029710Y0318299D01*
X0029860Y0318230D01*
X0030009Y0318157D01*
X0030156Y0318081D01*
X0030301Y0318002D01*
X0030444Y0317918D01*
X0030584Y0317831D01*
X0030723Y0317741D01*
X0030859Y0317648D01*
X0030993Y0317551D01*
X0031125Y0317451D01*
X0031254Y0317347D01*
X0031381Y0317241D01*
X0031505Y0317131D01*
X0031626Y0317019D01*
X0031744Y0316903D01*
X0031860Y0316785D01*
X0031972Y0316664D01*
X0032082Y0316540D01*
X0032188Y0316413D01*
X0032292Y0316284D01*
X0032392Y0316152D01*
X0032489Y0316018D01*
X0032582Y0315882D01*
X0032672Y0315743D01*
X0032759Y0315603D01*
X0032843Y0315460D01*
X0032922Y0315315D01*
X0032998Y0315168D01*
X0033071Y0315019D01*
X0033140Y0314869D01*
X0033205Y0314717D01*
X0033266Y0314563D01*
X0033324Y0314408D01*
X0033378Y0314252D01*
X0033428Y0314094D01*
X0033474Y0313935D01*
X0033516Y0313775D01*
X0033554Y0313615D01*
X0033589Y0313453D01*
X0033619Y0313290D01*
X0033645Y0313127D01*
X0033667Y0312963D01*
X0033686Y0312799D01*
X0033700Y0312634D01*
X0033710Y0312469D01*
X0033716Y0312303D01*
X0033718Y0312138D01*
X0033716Y0311973D01*
X0033710Y0311807D01*
X0033700Y0311642D01*
X0033686Y0311477D01*
X0033667Y0311313D01*
X0033645Y0311149D01*
X0033619Y0310986D01*
X0033589Y0310823D01*
X0033554Y0310661D01*
X0033516Y0310501D01*
X0033474Y0310341D01*
X0033428Y0310182D01*
X0033378Y0310024D01*
X0033324Y0309868D01*
X0033266Y0309713D01*
X0033205Y0309559D01*
X0033140Y0309407D01*
X0033071Y0309257D01*
X0032998Y0309108D01*
X0032922Y0308961D01*
X0032843Y0308816D01*
X0032759Y0308673D01*
X0032672Y0308533D01*
X0032582Y0308394D01*
X0032489Y0308258D01*
X0032392Y0308124D01*
X0032292Y0307992D01*
X0032188Y0307863D01*
X0032082Y0307736D01*
X0031972Y0307612D01*
X0031860Y0307491D01*
X0031744Y0307373D01*
X0031626Y0307257D01*
X0031505Y0307145D01*
X0031381Y0307035D01*
X0031254Y0306929D01*
X0031125Y0306825D01*
X0030993Y0306725D01*
X0030859Y0306628D01*
X0030723Y0306535D01*
X0030584Y0306445D01*
X0030444Y0306358D01*
X0030301Y0306274D01*
X0030156Y0306195D01*
X0030009Y0306119D01*
X0029860Y0306046D01*
X0029710Y0305977D01*
X0029558Y0305912D01*
X0029404Y0305851D01*
X0029249Y0305793D01*
X0029093Y0305739D01*
X0028935Y0305689D01*
X0028776Y0305643D01*
X0028616Y0305601D01*
X0028456Y0305563D01*
X0028294Y0305528D01*
X0028131Y0305498D01*
X0027968Y0305472D01*
X0027804Y0305450D01*
X0027640Y0305431D01*
X0027475Y0305417D01*
X0027310Y0305407D01*
X0027144Y0305401D01*
X0026979Y0305399D01*
X0026814Y0305401D01*
X0026648Y0305407D01*
X0026483Y0305417D01*
X0026318Y0305431D01*
X0026154Y0305450D01*
X0025990Y0305472D01*
X0025827Y0305498D01*
X0025664Y0305528D01*
X0025502Y0305563D01*
X0025342Y0305601D01*
X0025182Y0305643D01*
X0025023Y0305689D01*
X0024865Y0305739D01*
X0024709Y0305793D01*
X0024554Y0305851D01*
X0024400Y0305912D01*
X0024248Y0305977D01*
X0024098Y0306046D01*
X0023949Y0306119D01*
X0023802Y0306195D01*
X0023657Y0306274D01*
X0023514Y0306358D01*
X0023374Y0306445D01*
X0023235Y0306535D01*
X0023099Y0306628D01*
X0022965Y0306725D01*
X0022833Y0306825D01*
X0022704Y0306929D01*
X0022577Y0307035D01*
X0022453Y0307145D01*
X0022332Y0307257D01*
X0022214Y0307373D01*
X0022098Y0307491D01*
X0021986Y0307612D01*
X0021876Y0307736D01*
X0021770Y0307863D01*
X0021666Y0307992D01*
X0021566Y0308124D01*
X0021469Y0308258D01*
X0021376Y0308394D01*
X0021286Y0308533D01*
X0021199Y0308673D01*
X0021115Y0308816D01*
X0021036Y0308961D01*
X0020960Y0309108D01*
X0020887Y0309257D01*
X0020818Y0309407D01*
X0020753Y0309559D01*
X0020692Y0309713D01*
X0020634Y0309868D01*
X0020580Y0310024D01*
X0020530Y0310182D01*
X0020484Y0310341D01*
X0020442Y0310501D01*
X0020404Y0310661D01*
X0020369Y0310823D01*
X0020339Y0310986D01*
X0020313Y0311149D01*
X0020291Y0311313D01*
X0020272Y0311477D01*
X0020258Y0311642D01*
X0020248Y0311807D01*
X0020242Y0311973D01*
X0020240Y0312138D01*
X0315614Y0312138D02*
X0315616Y0312303D01*
X0315622Y0312469D01*
X0315632Y0312634D01*
X0315646Y0312799D01*
X0315665Y0312963D01*
X0315687Y0313127D01*
X0315713Y0313290D01*
X0315743Y0313453D01*
X0315778Y0313615D01*
X0315816Y0313775D01*
X0315858Y0313935D01*
X0315904Y0314094D01*
X0315954Y0314252D01*
X0316008Y0314408D01*
X0316066Y0314563D01*
X0316127Y0314717D01*
X0316192Y0314869D01*
X0316261Y0315019D01*
X0316334Y0315168D01*
X0316410Y0315315D01*
X0316489Y0315460D01*
X0316573Y0315603D01*
X0316660Y0315743D01*
X0316750Y0315882D01*
X0316843Y0316018D01*
X0316940Y0316152D01*
X0317040Y0316284D01*
X0317144Y0316413D01*
X0317250Y0316540D01*
X0317360Y0316664D01*
X0317472Y0316785D01*
X0317588Y0316903D01*
X0317706Y0317019D01*
X0317827Y0317131D01*
X0317951Y0317241D01*
X0318078Y0317347D01*
X0318207Y0317451D01*
X0318339Y0317551D01*
X0318473Y0317648D01*
X0318609Y0317741D01*
X0318748Y0317831D01*
X0318888Y0317918D01*
X0319031Y0318002D01*
X0319176Y0318081D01*
X0319323Y0318157D01*
X0319472Y0318230D01*
X0319622Y0318299D01*
X0319774Y0318364D01*
X0319928Y0318425D01*
X0320083Y0318483D01*
X0320239Y0318537D01*
X0320397Y0318587D01*
X0320556Y0318633D01*
X0320716Y0318675D01*
X0320876Y0318713D01*
X0321038Y0318748D01*
X0321201Y0318778D01*
X0321364Y0318804D01*
X0321528Y0318826D01*
X0321692Y0318845D01*
X0321857Y0318859D01*
X0322022Y0318869D01*
X0322188Y0318875D01*
X0322353Y0318877D01*
X0322518Y0318875D01*
X0322684Y0318869D01*
X0322849Y0318859D01*
X0323014Y0318845D01*
X0323178Y0318826D01*
X0323342Y0318804D01*
X0323505Y0318778D01*
X0323668Y0318748D01*
X0323830Y0318713D01*
X0323990Y0318675D01*
X0324150Y0318633D01*
X0324309Y0318587D01*
X0324467Y0318537D01*
X0324623Y0318483D01*
X0324778Y0318425D01*
X0324932Y0318364D01*
X0325084Y0318299D01*
X0325234Y0318230D01*
X0325383Y0318157D01*
X0325530Y0318081D01*
X0325675Y0318002D01*
X0325818Y0317918D01*
X0325958Y0317831D01*
X0326097Y0317741D01*
X0326233Y0317648D01*
X0326367Y0317551D01*
X0326499Y0317451D01*
X0326628Y0317347D01*
X0326755Y0317241D01*
X0326879Y0317131D01*
X0327000Y0317019D01*
X0327118Y0316903D01*
X0327234Y0316785D01*
X0327346Y0316664D01*
X0327456Y0316540D01*
X0327562Y0316413D01*
X0327666Y0316284D01*
X0327766Y0316152D01*
X0327863Y0316018D01*
X0327956Y0315882D01*
X0328046Y0315743D01*
X0328133Y0315603D01*
X0328217Y0315460D01*
X0328296Y0315315D01*
X0328372Y0315168D01*
X0328445Y0315019D01*
X0328514Y0314869D01*
X0328579Y0314717D01*
X0328640Y0314563D01*
X0328698Y0314408D01*
X0328752Y0314252D01*
X0328802Y0314094D01*
X0328848Y0313935D01*
X0328890Y0313775D01*
X0328928Y0313615D01*
X0328963Y0313453D01*
X0328993Y0313290D01*
X0329019Y0313127D01*
X0329041Y0312963D01*
X0329060Y0312799D01*
X0329074Y0312634D01*
X0329084Y0312469D01*
X0329090Y0312303D01*
X0329092Y0312138D01*
X0329090Y0311973D01*
X0329084Y0311807D01*
X0329074Y0311642D01*
X0329060Y0311477D01*
X0329041Y0311313D01*
X0329019Y0311149D01*
X0328993Y0310986D01*
X0328963Y0310823D01*
X0328928Y0310661D01*
X0328890Y0310501D01*
X0328848Y0310341D01*
X0328802Y0310182D01*
X0328752Y0310024D01*
X0328698Y0309868D01*
X0328640Y0309713D01*
X0328579Y0309559D01*
X0328514Y0309407D01*
X0328445Y0309257D01*
X0328372Y0309108D01*
X0328296Y0308961D01*
X0328217Y0308816D01*
X0328133Y0308673D01*
X0328046Y0308533D01*
X0327956Y0308394D01*
X0327863Y0308258D01*
X0327766Y0308124D01*
X0327666Y0307992D01*
X0327562Y0307863D01*
X0327456Y0307736D01*
X0327346Y0307612D01*
X0327234Y0307491D01*
X0327118Y0307373D01*
X0327000Y0307257D01*
X0326879Y0307145D01*
X0326755Y0307035D01*
X0326628Y0306929D01*
X0326499Y0306825D01*
X0326367Y0306725D01*
X0326233Y0306628D01*
X0326097Y0306535D01*
X0325958Y0306445D01*
X0325818Y0306358D01*
X0325675Y0306274D01*
X0325530Y0306195D01*
X0325383Y0306119D01*
X0325234Y0306046D01*
X0325084Y0305977D01*
X0324932Y0305912D01*
X0324778Y0305851D01*
X0324623Y0305793D01*
X0324467Y0305739D01*
X0324309Y0305689D01*
X0324150Y0305643D01*
X0323990Y0305601D01*
X0323830Y0305563D01*
X0323668Y0305528D01*
X0323505Y0305498D01*
X0323342Y0305472D01*
X0323178Y0305450D01*
X0323014Y0305431D01*
X0322849Y0305417D01*
X0322684Y0305407D01*
X0322518Y0305401D01*
X0322353Y0305399D01*
X0322188Y0305401D01*
X0322022Y0305407D01*
X0321857Y0305417D01*
X0321692Y0305431D01*
X0321528Y0305450D01*
X0321364Y0305472D01*
X0321201Y0305498D01*
X0321038Y0305528D01*
X0320876Y0305563D01*
X0320716Y0305601D01*
X0320556Y0305643D01*
X0320397Y0305689D01*
X0320239Y0305739D01*
X0320083Y0305793D01*
X0319928Y0305851D01*
X0319774Y0305912D01*
X0319622Y0305977D01*
X0319472Y0306046D01*
X0319323Y0306119D01*
X0319176Y0306195D01*
X0319031Y0306274D01*
X0318888Y0306358D01*
X0318748Y0306445D01*
X0318609Y0306535D01*
X0318473Y0306628D01*
X0318339Y0306725D01*
X0318207Y0306825D01*
X0318078Y0306929D01*
X0317951Y0307035D01*
X0317827Y0307145D01*
X0317706Y0307257D01*
X0317588Y0307373D01*
X0317472Y0307491D01*
X0317360Y0307612D01*
X0317250Y0307736D01*
X0317144Y0307863D01*
X0317040Y0307992D01*
X0316940Y0308124D01*
X0316843Y0308258D01*
X0316750Y0308394D01*
X0316660Y0308533D01*
X0316573Y0308673D01*
X0316489Y0308816D01*
X0316410Y0308961D01*
X0316334Y0309108D01*
X0316261Y0309257D01*
X0316192Y0309407D01*
X0316127Y0309559D01*
X0316066Y0309713D01*
X0316008Y0309868D01*
X0315954Y0310024D01*
X0315904Y0310182D01*
X0315858Y0310341D01*
X0315816Y0310501D01*
X0315778Y0310661D01*
X0315743Y0310823D01*
X0315713Y0310986D01*
X0315687Y0311149D01*
X0315665Y0311313D01*
X0315646Y0311477D01*
X0315632Y0311642D01*
X0315622Y0311807D01*
X0315616Y0311973D01*
X0315614Y0312138D01*
X0352797Y0298260D02*
X0352800Y0298513D01*
X0352809Y0298766D01*
X0352825Y0299018D01*
X0352847Y0299270D01*
X0352874Y0299521D01*
X0352909Y0299772D01*
X0352949Y0300022D01*
X0352995Y0300270D01*
X0353047Y0300518D01*
X0353106Y0300764D01*
X0353170Y0301008D01*
X0353241Y0301251D01*
X0353317Y0301492D01*
X0353399Y0301731D01*
X0353487Y0301968D01*
X0353581Y0302203D01*
X0353681Y0302436D01*
X0353786Y0302666D01*
X0353897Y0302893D01*
X0354014Y0303117D01*
X0354136Y0303339D01*
X0354263Y0303557D01*
X0354396Y0303773D01*
X0354534Y0303985D01*
X0354677Y0304193D01*
X0354825Y0304398D01*
X0354978Y0304599D01*
X0355136Y0304797D01*
X0355299Y0304990D01*
X0355466Y0305180D01*
X0355638Y0305365D01*
X0355815Y0305546D01*
X0355996Y0305723D01*
X0356181Y0305895D01*
X0356371Y0306062D01*
X0356564Y0306225D01*
X0356762Y0306383D01*
X0356963Y0306536D01*
X0357168Y0306684D01*
X0357376Y0306827D01*
X0357588Y0306965D01*
X0357804Y0307098D01*
X0358022Y0307225D01*
X0358244Y0307347D01*
X0358468Y0307464D01*
X0358695Y0307575D01*
X0358925Y0307680D01*
X0359158Y0307780D01*
X0359393Y0307874D01*
X0359630Y0307962D01*
X0359869Y0308044D01*
X0360110Y0308120D01*
X0360353Y0308191D01*
X0360597Y0308255D01*
X0360843Y0308314D01*
X0361091Y0308366D01*
X0361339Y0308412D01*
X0361589Y0308452D01*
X0361840Y0308487D01*
X0362091Y0308514D01*
X0362343Y0308536D01*
X0362595Y0308552D01*
X0362848Y0308561D01*
X0363101Y0308564D01*
X0363354Y0308561D01*
X0363607Y0308552D01*
X0363859Y0308536D01*
X0364111Y0308514D01*
X0364362Y0308487D01*
X0364613Y0308452D01*
X0364863Y0308412D01*
X0365111Y0308366D01*
X0365359Y0308314D01*
X0365605Y0308255D01*
X0365849Y0308191D01*
X0366092Y0308120D01*
X0366333Y0308044D01*
X0366572Y0307962D01*
X0366809Y0307874D01*
X0367044Y0307780D01*
X0367277Y0307680D01*
X0367507Y0307575D01*
X0367734Y0307464D01*
X0367958Y0307347D01*
X0368180Y0307225D01*
X0368398Y0307098D01*
X0368614Y0306965D01*
X0368826Y0306827D01*
X0369034Y0306684D01*
X0369239Y0306536D01*
X0369440Y0306383D01*
X0369638Y0306225D01*
X0369831Y0306062D01*
X0370021Y0305895D01*
X0370206Y0305723D01*
X0370387Y0305546D01*
X0370564Y0305365D01*
X0370736Y0305180D01*
X0370903Y0304990D01*
X0371066Y0304797D01*
X0371224Y0304599D01*
X0371377Y0304398D01*
X0371525Y0304193D01*
X0371668Y0303985D01*
X0371806Y0303773D01*
X0371939Y0303557D01*
X0372066Y0303339D01*
X0372188Y0303117D01*
X0372305Y0302893D01*
X0372416Y0302666D01*
X0372521Y0302436D01*
X0372621Y0302203D01*
X0372715Y0301968D01*
X0372803Y0301731D01*
X0372885Y0301492D01*
X0372961Y0301251D01*
X0373032Y0301008D01*
X0373096Y0300764D01*
X0373155Y0300518D01*
X0373207Y0300270D01*
X0373253Y0300022D01*
X0373293Y0299772D01*
X0373328Y0299521D01*
X0373355Y0299270D01*
X0373377Y0299018D01*
X0373393Y0298766D01*
X0373402Y0298513D01*
X0373405Y0298260D01*
X0373402Y0298007D01*
X0373393Y0297754D01*
X0373377Y0297502D01*
X0373355Y0297250D01*
X0373328Y0296999D01*
X0373293Y0296748D01*
X0373253Y0296498D01*
X0373207Y0296250D01*
X0373155Y0296002D01*
X0373096Y0295756D01*
X0373032Y0295512D01*
X0372961Y0295269D01*
X0372885Y0295028D01*
X0372803Y0294789D01*
X0372715Y0294552D01*
X0372621Y0294317D01*
X0372521Y0294084D01*
X0372416Y0293854D01*
X0372305Y0293627D01*
X0372188Y0293403D01*
X0372066Y0293181D01*
X0371939Y0292963D01*
X0371806Y0292747D01*
X0371668Y0292535D01*
X0371525Y0292327D01*
X0371377Y0292122D01*
X0371224Y0291921D01*
X0371066Y0291723D01*
X0370903Y0291530D01*
X0370736Y0291340D01*
X0370564Y0291155D01*
X0370387Y0290974D01*
X0370206Y0290797D01*
X0370021Y0290625D01*
X0369831Y0290458D01*
X0369638Y0290295D01*
X0369440Y0290137D01*
X0369239Y0289984D01*
X0369034Y0289836D01*
X0368826Y0289693D01*
X0368614Y0289555D01*
X0368398Y0289422D01*
X0368180Y0289295D01*
X0367958Y0289173D01*
X0367734Y0289056D01*
X0367507Y0288945D01*
X0367277Y0288840D01*
X0367044Y0288740D01*
X0366809Y0288646D01*
X0366572Y0288558D01*
X0366333Y0288476D01*
X0366092Y0288400D01*
X0365849Y0288329D01*
X0365605Y0288265D01*
X0365359Y0288206D01*
X0365111Y0288154D01*
X0364863Y0288108D01*
X0364613Y0288068D01*
X0364362Y0288033D01*
X0364111Y0288006D01*
X0363859Y0287984D01*
X0363607Y0287968D01*
X0363354Y0287959D01*
X0363101Y0287956D01*
X0362848Y0287959D01*
X0362595Y0287968D01*
X0362343Y0287984D01*
X0362091Y0288006D01*
X0361840Y0288033D01*
X0361589Y0288068D01*
X0361339Y0288108D01*
X0361091Y0288154D01*
X0360843Y0288206D01*
X0360597Y0288265D01*
X0360353Y0288329D01*
X0360110Y0288400D01*
X0359869Y0288476D01*
X0359630Y0288558D01*
X0359393Y0288646D01*
X0359158Y0288740D01*
X0358925Y0288840D01*
X0358695Y0288945D01*
X0358468Y0289056D01*
X0358244Y0289173D01*
X0358022Y0289295D01*
X0357804Y0289422D01*
X0357588Y0289555D01*
X0357376Y0289693D01*
X0357168Y0289836D01*
X0356963Y0289984D01*
X0356762Y0290137D01*
X0356564Y0290295D01*
X0356371Y0290458D01*
X0356181Y0290625D01*
X0355996Y0290797D01*
X0355815Y0290974D01*
X0355638Y0291155D01*
X0355466Y0291340D01*
X0355299Y0291530D01*
X0355136Y0291723D01*
X0354978Y0291921D01*
X0354825Y0292122D01*
X0354677Y0292327D01*
X0354534Y0292535D01*
X0354396Y0292747D01*
X0354263Y0292963D01*
X0354136Y0293181D01*
X0354014Y0293403D01*
X0353897Y0293627D01*
X0353786Y0293854D01*
X0353681Y0294084D01*
X0353581Y0294317D01*
X0353487Y0294552D01*
X0353399Y0294789D01*
X0353317Y0295028D01*
X0353241Y0295269D01*
X0353170Y0295512D01*
X0353106Y0295756D01*
X0353047Y0296002D01*
X0352995Y0296250D01*
X0352949Y0296498D01*
X0352909Y0296748D01*
X0352874Y0296999D01*
X0352847Y0297250D01*
X0352825Y0297502D01*
X0352809Y0297754D01*
X0352800Y0298007D01*
X0352797Y0298260D01*
X0352797Y0251016D02*
X0352800Y0251269D01*
X0352809Y0251522D01*
X0352825Y0251774D01*
X0352847Y0252026D01*
X0352874Y0252277D01*
X0352909Y0252528D01*
X0352949Y0252778D01*
X0352995Y0253026D01*
X0353047Y0253274D01*
X0353106Y0253520D01*
X0353170Y0253764D01*
X0353241Y0254007D01*
X0353317Y0254248D01*
X0353399Y0254487D01*
X0353487Y0254724D01*
X0353581Y0254959D01*
X0353681Y0255192D01*
X0353786Y0255422D01*
X0353897Y0255649D01*
X0354014Y0255873D01*
X0354136Y0256095D01*
X0354263Y0256313D01*
X0354396Y0256529D01*
X0354534Y0256741D01*
X0354677Y0256949D01*
X0354825Y0257154D01*
X0354978Y0257355D01*
X0355136Y0257553D01*
X0355299Y0257746D01*
X0355466Y0257936D01*
X0355638Y0258121D01*
X0355815Y0258302D01*
X0355996Y0258479D01*
X0356181Y0258651D01*
X0356371Y0258818D01*
X0356564Y0258981D01*
X0356762Y0259139D01*
X0356963Y0259292D01*
X0357168Y0259440D01*
X0357376Y0259583D01*
X0357588Y0259721D01*
X0357804Y0259854D01*
X0358022Y0259981D01*
X0358244Y0260103D01*
X0358468Y0260220D01*
X0358695Y0260331D01*
X0358925Y0260436D01*
X0359158Y0260536D01*
X0359393Y0260630D01*
X0359630Y0260718D01*
X0359869Y0260800D01*
X0360110Y0260876D01*
X0360353Y0260947D01*
X0360597Y0261011D01*
X0360843Y0261070D01*
X0361091Y0261122D01*
X0361339Y0261168D01*
X0361589Y0261208D01*
X0361840Y0261243D01*
X0362091Y0261270D01*
X0362343Y0261292D01*
X0362595Y0261308D01*
X0362848Y0261317D01*
X0363101Y0261320D01*
X0363354Y0261317D01*
X0363607Y0261308D01*
X0363859Y0261292D01*
X0364111Y0261270D01*
X0364362Y0261243D01*
X0364613Y0261208D01*
X0364863Y0261168D01*
X0365111Y0261122D01*
X0365359Y0261070D01*
X0365605Y0261011D01*
X0365849Y0260947D01*
X0366092Y0260876D01*
X0366333Y0260800D01*
X0366572Y0260718D01*
X0366809Y0260630D01*
X0367044Y0260536D01*
X0367277Y0260436D01*
X0367507Y0260331D01*
X0367734Y0260220D01*
X0367958Y0260103D01*
X0368180Y0259981D01*
X0368398Y0259854D01*
X0368614Y0259721D01*
X0368826Y0259583D01*
X0369034Y0259440D01*
X0369239Y0259292D01*
X0369440Y0259139D01*
X0369638Y0258981D01*
X0369831Y0258818D01*
X0370021Y0258651D01*
X0370206Y0258479D01*
X0370387Y0258302D01*
X0370564Y0258121D01*
X0370736Y0257936D01*
X0370903Y0257746D01*
X0371066Y0257553D01*
X0371224Y0257355D01*
X0371377Y0257154D01*
X0371525Y0256949D01*
X0371668Y0256741D01*
X0371806Y0256529D01*
X0371939Y0256313D01*
X0372066Y0256095D01*
X0372188Y0255873D01*
X0372305Y0255649D01*
X0372416Y0255422D01*
X0372521Y0255192D01*
X0372621Y0254959D01*
X0372715Y0254724D01*
X0372803Y0254487D01*
X0372885Y0254248D01*
X0372961Y0254007D01*
X0373032Y0253764D01*
X0373096Y0253520D01*
X0373155Y0253274D01*
X0373207Y0253026D01*
X0373253Y0252778D01*
X0373293Y0252528D01*
X0373328Y0252277D01*
X0373355Y0252026D01*
X0373377Y0251774D01*
X0373393Y0251522D01*
X0373402Y0251269D01*
X0373405Y0251016D01*
X0373402Y0250763D01*
X0373393Y0250510D01*
X0373377Y0250258D01*
X0373355Y0250006D01*
X0373328Y0249755D01*
X0373293Y0249504D01*
X0373253Y0249254D01*
X0373207Y0249006D01*
X0373155Y0248758D01*
X0373096Y0248512D01*
X0373032Y0248268D01*
X0372961Y0248025D01*
X0372885Y0247784D01*
X0372803Y0247545D01*
X0372715Y0247308D01*
X0372621Y0247073D01*
X0372521Y0246840D01*
X0372416Y0246610D01*
X0372305Y0246383D01*
X0372188Y0246159D01*
X0372066Y0245937D01*
X0371939Y0245719D01*
X0371806Y0245503D01*
X0371668Y0245291D01*
X0371525Y0245083D01*
X0371377Y0244878D01*
X0371224Y0244677D01*
X0371066Y0244479D01*
X0370903Y0244286D01*
X0370736Y0244096D01*
X0370564Y0243911D01*
X0370387Y0243730D01*
X0370206Y0243553D01*
X0370021Y0243381D01*
X0369831Y0243214D01*
X0369638Y0243051D01*
X0369440Y0242893D01*
X0369239Y0242740D01*
X0369034Y0242592D01*
X0368826Y0242449D01*
X0368614Y0242311D01*
X0368398Y0242178D01*
X0368180Y0242051D01*
X0367958Y0241929D01*
X0367734Y0241812D01*
X0367507Y0241701D01*
X0367277Y0241596D01*
X0367044Y0241496D01*
X0366809Y0241402D01*
X0366572Y0241314D01*
X0366333Y0241232D01*
X0366092Y0241156D01*
X0365849Y0241085D01*
X0365605Y0241021D01*
X0365359Y0240962D01*
X0365111Y0240910D01*
X0364863Y0240864D01*
X0364613Y0240824D01*
X0364362Y0240789D01*
X0364111Y0240762D01*
X0363859Y0240740D01*
X0363607Y0240724D01*
X0363354Y0240715D01*
X0363101Y0240712D01*
X0362848Y0240715D01*
X0362595Y0240724D01*
X0362343Y0240740D01*
X0362091Y0240762D01*
X0361840Y0240789D01*
X0361589Y0240824D01*
X0361339Y0240864D01*
X0361091Y0240910D01*
X0360843Y0240962D01*
X0360597Y0241021D01*
X0360353Y0241085D01*
X0360110Y0241156D01*
X0359869Y0241232D01*
X0359630Y0241314D01*
X0359393Y0241402D01*
X0359158Y0241496D01*
X0358925Y0241596D01*
X0358695Y0241701D01*
X0358468Y0241812D01*
X0358244Y0241929D01*
X0358022Y0242051D01*
X0357804Y0242178D01*
X0357588Y0242311D01*
X0357376Y0242449D01*
X0357168Y0242592D01*
X0356963Y0242740D01*
X0356762Y0242893D01*
X0356564Y0243051D01*
X0356371Y0243214D01*
X0356181Y0243381D01*
X0355996Y0243553D01*
X0355815Y0243730D01*
X0355638Y0243911D01*
X0355466Y0244096D01*
X0355299Y0244286D01*
X0355136Y0244479D01*
X0354978Y0244677D01*
X0354825Y0244878D01*
X0354677Y0245083D01*
X0354534Y0245291D01*
X0354396Y0245503D01*
X0354263Y0245719D01*
X0354136Y0245937D01*
X0354014Y0246159D01*
X0353897Y0246383D01*
X0353786Y0246610D01*
X0353681Y0246840D01*
X0353581Y0247073D01*
X0353487Y0247308D01*
X0353399Y0247545D01*
X0353317Y0247784D01*
X0353241Y0248025D01*
X0353170Y0248268D01*
X0353106Y0248512D01*
X0353047Y0248758D01*
X0352995Y0249006D01*
X0352949Y0249254D01*
X0352909Y0249504D01*
X0352874Y0249755D01*
X0352847Y0250006D01*
X0352825Y0250258D01*
X0352809Y0250510D01*
X0352800Y0250763D01*
X0352797Y0251016D01*
X0352797Y0203772D02*
X0352800Y0204025D01*
X0352809Y0204278D01*
X0352825Y0204530D01*
X0352847Y0204782D01*
X0352874Y0205033D01*
X0352909Y0205284D01*
X0352949Y0205534D01*
X0352995Y0205782D01*
X0353047Y0206030D01*
X0353106Y0206276D01*
X0353170Y0206520D01*
X0353241Y0206763D01*
X0353317Y0207004D01*
X0353399Y0207243D01*
X0353487Y0207480D01*
X0353581Y0207715D01*
X0353681Y0207948D01*
X0353786Y0208178D01*
X0353897Y0208405D01*
X0354014Y0208629D01*
X0354136Y0208851D01*
X0354263Y0209069D01*
X0354396Y0209285D01*
X0354534Y0209497D01*
X0354677Y0209705D01*
X0354825Y0209910D01*
X0354978Y0210111D01*
X0355136Y0210309D01*
X0355299Y0210502D01*
X0355466Y0210692D01*
X0355638Y0210877D01*
X0355815Y0211058D01*
X0355996Y0211235D01*
X0356181Y0211407D01*
X0356371Y0211574D01*
X0356564Y0211737D01*
X0356762Y0211895D01*
X0356963Y0212048D01*
X0357168Y0212196D01*
X0357376Y0212339D01*
X0357588Y0212477D01*
X0357804Y0212610D01*
X0358022Y0212737D01*
X0358244Y0212859D01*
X0358468Y0212976D01*
X0358695Y0213087D01*
X0358925Y0213192D01*
X0359158Y0213292D01*
X0359393Y0213386D01*
X0359630Y0213474D01*
X0359869Y0213556D01*
X0360110Y0213632D01*
X0360353Y0213703D01*
X0360597Y0213767D01*
X0360843Y0213826D01*
X0361091Y0213878D01*
X0361339Y0213924D01*
X0361589Y0213964D01*
X0361840Y0213999D01*
X0362091Y0214026D01*
X0362343Y0214048D01*
X0362595Y0214064D01*
X0362848Y0214073D01*
X0363101Y0214076D01*
X0363354Y0214073D01*
X0363607Y0214064D01*
X0363859Y0214048D01*
X0364111Y0214026D01*
X0364362Y0213999D01*
X0364613Y0213964D01*
X0364863Y0213924D01*
X0365111Y0213878D01*
X0365359Y0213826D01*
X0365605Y0213767D01*
X0365849Y0213703D01*
X0366092Y0213632D01*
X0366333Y0213556D01*
X0366572Y0213474D01*
X0366809Y0213386D01*
X0367044Y0213292D01*
X0367277Y0213192D01*
X0367507Y0213087D01*
X0367734Y0212976D01*
X0367958Y0212859D01*
X0368180Y0212737D01*
X0368398Y0212610D01*
X0368614Y0212477D01*
X0368826Y0212339D01*
X0369034Y0212196D01*
X0369239Y0212048D01*
X0369440Y0211895D01*
X0369638Y0211737D01*
X0369831Y0211574D01*
X0370021Y0211407D01*
X0370206Y0211235D01*
X0370387Y0211058D01*
X0370564Y0210877D01*
X0370736Y0210692D01*
X0370903Y0210502D01*
X0371066Y0210309D01*
X0371224Y0210111D01*
X0371377Y0209910D01*
X0371525Y0209705D01*
X0371668Y0209497D01*
X0371806Y0209285D01*
X0371939Y0209069D01*
X0372066Y0208851D01*
X0372188Y0208629D01*
X0372305Y0208405D01*
X0372416Y0208178D01*
X0372521Y0207948D01*
X0372621Y0207715D01*
X0372715Y0207480D01*
X0372803Y0207243D01*
X0372885Y0207004D01*
X0372961Y0206763D01*
X0373032Y0206520D01*
X0373096Y0206276D01*
X0373155Y0206030D01*
X0373207Y0205782D01*
X0373253Y0205534D01*
X0373293Y0205284D01*
X0373328Y0205033D01*
X0373355Y0204782D01*
X0373377Y0204530D01*
X0373393Y0204278D01*
X0373402Y0204025D01*
X0373405Y0203772D01*
X0373402Y0203519D01*
X0373393Y0203266D01*
X0373377Y0203014D01*
X0373355Y0202762D01*
X0373328Y0202511D01*
X0373293Y0202260D01*
X0373253Y0202010D01*
X0373207Y0201762D01*
X0373155Y0201514D01*
X0373096Y0201268D01*
X0373032Y0201024D01*
X0372961Y0200781D01*
X0372885Y0200540D01*
X0372803Y0200301D01*
X0372715Y0200064D01*
X0372621Y0199829D01*
X0372521Y0199596D01*
X0372416Y0199366D01*
X0372305Y0199139D01*
X0372188Y0198915D01*
X0372066Y0198693D01*
X0371939Y0198475D01*
X0371806Y0198259D01*
X0371668Y0198047D01*
X0371525Y0197839D01*
X0371377Y0197634D01*
X0371224Y0197433D01*
X0371066Y0197235D01*
X0370903Y0197042D01*
X0370736Y0196852D01*
X0370564Y0196667D01*
X0370387Y0196486D01*
X0370206Y0196309D01*
X0370021Y0196137D01*
X0369831Y0195970D01*
X0369638Y0195807D01*
X0369440Y0195649D01*
X0369239Y0195496D01*
X0369034Y0195348D01*
X0368826Y0195205D01*
X0368614Y0195067D01*
X0368398Y0194934D01*
X0368180Y0194807D01*
X0367958Y0194685D01*
X0367734Y0194568D01*
X0367507Y0194457D01*
X0367277Y0194352D01*
X0367044Y0194252D01*
X0366809Y0194158D01*
X0366572Y0194070D01*
X0366333Y0193988D01*
X0366092Y0193912D01*
X0365849Y0193841D01*
X0365605Y0193777D01*
X0365359Y0193718D01*
X0365111Y0193666D01*
X0364863Y0193620D01*
X0364613Y0193580D01*
X0364362Y0193545D01*
X0364111Y0193518D01*
X0363859Y0193496D01*
X0363607Y0193480D01*
X0363354Y0193471D01*
X0363101Y0193468D01*
X0362848Y0193471D01*
X0362595Y0193480D01*
X0362343Y0193496D01*
X0362091Y0193518D01*
X0361840Y0193545D01*
X0361589Y0193580D01*
X0361339Y0193620D01*
X0361091Y0193666D01*
X0360843Y0193718D01*
X0360597Y0193777D01*
X0360353Y0193841D01*
X0360110Y0193912D01*
X0359869Y0193988D01*
X0359630Y0194070D01*
X0359393Y0194158D01*
X0359158Y0194252D01*
X0358925Y0194352D01*
X0358695Y0194457D01*
X0358468Y0194568D01*
X0358244Y0194685D01*
X0358022Y0194807D01*
X0357804Y0194934D01*
X0357588Y0195067D01*
X0357376Y0195205D01*
X0357168Y0195348D01*
X0356963Y0195496D01*
X0356762Y0195649D01*
X0356564Y0195807D01*
X0356371Y0195970D01*
X0356181Y0196137D01*
X0355996Y0196309D01*
X0355815Y0196486D01*
X0355638Y0196667D01*
X0355466Y0196852D01*
X0355299Y0197042D01*
X0355136Y0197235D01*
X0354978Y0197433D01*
X0354825Y0197634D01*
X0354677Y0197839D01*
X0354534Y0198047D01*
X0354396Y0198259D01*
X0354263Y0198475D01*
X0354136Y0198693D01*
X0354014Y0198915D01*
X0353897Y0199139D01*
X0353786Y0199366D01*
X0353681Y0199596D01*
X0353581Y0199829D01*
X0353487Y0200064D01*
X0353399Y0200301D01*
X0353317Y0200540D01*
X0353241Y0200781D01*
X0353170Y0201024D01*
X0353106Y0201268D01*
X0353047Y0201514D01*
X0352995Y0201762D01*
X0352949Y0202010D01*
X0352909Y0202260D01*
X0352874Y0202511D01*
X0352847Y0202762D01*
X0352825Y0203014D01*
X0352809Y0203266D01*
X0352800Y0203519D01*
X0352797Y0203772D01*
X0315516Y0190091D02*
X0315518Y0190256D01*
X0315524Y0190422D01*
X0315534Y0190587D01*
X0315548Y0190752D01*
X0315567Y0190916D01*
X0315589Y0191080D01*
X0315615Y0191243D01*
X0315645Y0191406D01*
X0315680Y0191568D01*
X0315718Y0191728D01*
X0315760Y0191888D01*
X0315806Y0192047D01*
X0315856Y0192205D01*
X0315910Y0192361D01*
X0315968Y0192516D01*
X0316029Y0192670D01*
X0316094Y0192822D01*
X0316163Y0192972D01*
X0316236Y0193121D01*
X0316312Y0193268D01*
X0316391Y0193413D01*
X0316475Y0193556D01*
X0316562Y0193696D01*
X0316652Y0193835D01*
X0316745Y0193971D01*
X0316842Y0194105D01*
X0316942Y0194237D01*
X0317046Y0194366D01*
X0317152Y0194493D01*
X0317262Y0194617D01*
X0317374Y0194738D01*
X0317490Y0194856D01*
X0317608Y0194972D01*
X0317729Y0195084D01*
X0317853Y0195194D01*
X0317980Y0195300D01*
X0318109Y0195404D01*
X0318241Y0195504D01*
X0318375Y0195601D01*
X0318511Y0195694D01*
X0318650Y0195784D01*
X0318790Y0195871D01*
X0318933Y0195955D01*
X0319078Y0196034D01*
X0319225Y0196110D01*
X0319374Y0196183D01*
X0319524Y0196252D01*
X0319676Y0196317D01*
X0319830Y0196378D01*
X0319985Y0196436D01*
X0320141Y0196490D01*
X0320299Y0196540D01*
X0320458Y0196586D01*
X0320618Y0196628D01*
X0320778Y0196666D01*
X0320940Y0196701D01*
X0321103Y0196731D01*
X0321266Y0196757D01*
X0321430Y0196779D01*
X0321594Y0196798D01*
X0321759Y0196812D01*
X0321924Y0196822D01*
X0322090Y0196828D01*
X0322255Y0196830D01*
X0322420Y0196828D01*
X0322586Y0196822D01*
X0322751Y0196812D01*
X0322916Y0196798D01*
X0323080Y0196779D01*
X0323244Y0196757D01*
X0323407Y0196731D01*
X0323570Y0196701D01*
X0323732Y0196666D01*
X0323892Y0196628D01*
X0324052Y0196586D01*
X0324211Y0196540D01*
X0324369Y0196490D01*
X0324525Y0196436D01*
X0324680Y0196378D01*
X0324834Y0196317D01*
X0324986Y0196252D01*
X0325136Y0196183D01*
X0325285Y0196110D01*
X0325432Y0196034D01*
X0325577Y0195955D01*
X0325720Y0195871D01*
X0325860Y0195784D01*
X0325999Y0195694D01*
X0326135Y0195601D01*
X0326269Y0195504D01*
X0326401Y0195404D01*
X0326530Y0195300D01*
X0326657Y0195194D01*
X0326781Y0195084D01*
X0326902Y0194972D01*
X0327020Y0194856D01*
X0327136Y0194738D01*
X0327248Y0194617D01*
X0327358Y0194493D01*
X0327464Y0194366D01*
X0327568Y0194237D01*
X0327668Y0194105D01*
X0327765Y0193971D01*
X0327858Y0193835D01*
X0327948Y0193696D01*
X0328035Y0193556D01*
X0328119Y0193413D01*
X0328198Y0193268D01*
X0328274Y0193121D01*
X0328347Y0192972D01*
X0328416Y0192822D01*
X0328481Y0192670D01*
X0328542Y0192516D01*
X0328600Y0192361D01*
X0328654Y0192205D01*
X0328704Y0192047D01*
X0328750Y0191888D01*
X0328792Y0191728D01*
X0328830Y0191568D01*
X0328865Y0191406D01*
X0328895Y0191243D01*
X0328921Y0191080D01*
X0328943Y0190916D01*
X0328962Y0190752D01*
X0328976Y0190587D01*
X0328986Y0190422D01*
X0328992Y0190256D01*
X0328994Y0190091D01*
X0328992Y0189926D01*
X0328986Y0189760D01*
X0328976Y0189595D01*
X0328962Y0189430D01*
X0328943Y0189266D01*
X0328921Y0189102D01*
X0328895Y0188939D01*
X0328865Y0188776D01*
X0328830Y0188614D01*
X0328792Y0188454D01*
X0328750Y0188294D01*
X0328704Y0188135D01*
X0328654Y0187977D01*
X0328600Y0187821D01*
X0328542Y0187666D01*
X0328481Y0187512D01*
X0328416Y0187360D01*
X0328347Y0187210D01*
X0328274Y0187061D01*
X0328198Y0186914D01*
X0328119Y0186769D01*
X0328035Y0186626D01*
X0327948Y0186486D01*
X0327858Y0186347D01*
X0327765Y0186211D01*
X0327668Y0186077D01*
X0327568Y0185945D01*
X0327464Y0185816D01*
X0327358Y0185689D01*
X0327248Y0185565D01*
X0327136Y0185444D01*
X0327020Y0185326D01*
X0326902Y0185210D01*
X0326781Y0185098D01*
X0326657Y0184988D01*
X0326530Y0184882D01*
X0326401Y0184778D01*
X0326269Y0184678D01*
X0326135Y0184581D01*
X0325999Y0184488D01*
X0325860Y0184398D01*
X0325720Y0184311D01*
X0325577Y0184227D01*
X0325432Y0184148D01*
X0325285Y0184072D01*
X0325136Y0183999D01*
X0324986Y0183930D01*
X0324834Y0183865D01*
X0324680Y0183804D01*
X0324525Y0183746D01*
X0324369Y0183692D01*
X0324211Y0183642D01*
X0324052Y0183596D01*
X0323892Y0183554D01*
X0323732Y0183516D01*
X0323570Y0183481D01*
X0323407Y0183451D01*
X0323244Y0183425D01*
X0323080Y0183403D01*
X0322916Y0183384D01*
X0322751Y0183370D01*
X0322586Y0183360D01*
X0322420Y0183354D01*
X0322255Y0183352D01*
X0322090Y0183354D01*
X0321924Y0183360D01*
X0321759Y0183370D01*
X0321594Y0183384D01*
X0321430Y0183403D01*
X0321266Y0183425D01*
X0321103Y0183451D01*
X0320940Y0183481D01*
X0320778Y0183516D01*
X0320618Y0183554D01*
X0320458Y0183596D01*
X0320299Y0183642D01*
X0320141Y0183692D01*
X0319985Y0183746D01*
X0319830Y0183804D01*
X0319676Y0183865D01*
X0319524Y0183930D01*
X0319374Y0183999D01*
X0319225Y0184072D01*
X0319078Y0184148D01*
X0318933Y0184227D01*
X0318790Y0184311D01*
X0318650Y0184398D01*
X0318511Y0184488D01*
X0318375Y0184581D01*
X0318241Y0184678D01*
X0318109Y0184778D01*
X0317980Y0184882D01*
X0317853Y0184988D01*
X0317729Y0185098D01*
X0317608Y0185210D01*
X0317490Y0185326D01*
X0317374Y0185444D01*
X0317262Y0185565D01*
X0317152Y0185689D01*
X0317046Y0185816D01*
X0316942Y0185945D01*
X0316842Y0186077D01*
X0316745Y0186211D01*
X0316652Y0186347D01*
X0316562Y0186486D01*
X0316475Y0186626D01*
X0316391Y0186769D01*
X0316312Y0186914D01*
X0316236Y0187061D01*
X0316163Y0187210D01*
X0316094Y0187360D01*
X0316029Y0187512D01*
X0315968Y0187666D01*
X0315910Y0187821D01*
X0315856Y0187977D01*
X0315806Y0188135D01*
X0315760Y0188294D01*
X0315718Y0188454D01*
X0315680Y0188614D01*
X0315645Y0188776D01*
X0315615Y0188939D01*
X0315589Y0189102D01*
X0315567Y0189266D01*
X0315548Y0189430D01*
X0315534Y0189595D01*
X0315524Y0189760D01*
X0315518Y0189926D01*
X0315516Y0190091D01*
D13*
X0304440Y0216764D02*
X0046960Y0216764D01*
X0046960Y0285661D01*
X0304440Y0285661D01*
X0304440Y0216764D01*
X0388692Y0164402D02*
X0202570Y0164402D01*
X0202570Y0148654D01*
X0154932Y0148654D02*
X0154932Y0164402D01*
X0018613Y0164402D01*
X0018344Y0164388D01*
X0018074Y0164381D01*
X0017804Y0164381D01*
X0017535Y0164387D01*
X0017265Y0164399D01*
X0016996Y0164418D01*
X0016728Y0164444D01*
X0016460Y0164476D01*
X0016193Y0164515D01*
X0015927Y0164560D01*
X0015662Y0164611D01*
X0015398Y0164669D01*
X0015136Y0164734D01*
X0014876Y0164804D01*
X0014618Y0164881D01*
X0014361Y0164964D01*
X0014106Y0165053D01*
X0013854Y0165149D01*
X0013604Y0165250D01*
X0013357Y0165358D01*
X0013112Y0165471D01*
X0012870Y0165591D01*
X0012631Y0165716D01*
X0012395Y0165847D01*
X0012163Y0165984D01*
X0011933Y0166126D01*
X0011708Y0166274D01*
X0011486Y0166427D01*
X0011267Y0166585D01*
X0011053Y0166749D01*
X0010843Y0166918D01*
X0010636Y0167092D01*
X0010434Y0167271D01*
X0010237Y0167454D01*
X0010044Y0167643D01*
X0009855Y0167836D01*
X0009672Y0168033D01*
X0009493Y0168235D01*
X0009319Y0168442D01*
X0009150Y0168652D01*
X0008986Y0168866D01*
X0008828Y0169085D01*
X0008675Y0169307D01*
X0008527Y0169532D01*
X0008385Y0169762D01*
X0008248Y0169994D01*
X0008117Y0170230D01*
X0007992Y0170469D01*
X0007872Y0170711D01*
X0007759Y0170956D01*
X0007651Y0171203D01*
X0007550Y0171453D01*
X0007454Y0171705D01*
X0007365Y0171960D01*
X0007282Y0172217D01*
X0007205Y0172475D01*
X0007135Y0172735D01*
X0007070Y0172997D01*
X0007012Y0173261D01*
X0006961Y0173526D01*
X0006916Y0173792D01*
X0006877Y0174059D01*
X0006845Y0174327D01*
X0006819Y0174595D01*
X0006800Y0174864D01*
X0006788Y0175134D01*
X0006782Y0175403D01*
X0006782Y0175673D01*
X0006789Y0175943D01*
X0006803Y0176212D01*
X0006802Y0176213D02*
X0006802Y0325819D01*
X0006810Y0326112D01*
X0006825Y0326404D01*
X0006847Y0326697D01*
X0006876Y0326988D01*
X0006912Y0327279D01*
X0006955Y0327569D01*
X0007006Y0327858D01*
X0007063Y0328145D01*
X0007127Y0328431D01*
X0007198Y0328716D01*
X0007276Y0328998D01*
X0007360Y0329279D01*
X0007452Y0329557D01*
X0007550Y0329834D01*
X0007655Y0330107D01*
X0007766Y0330378D01*
X0007884Y0330647D01*
X0008009Y0330912D01*
X0008139Y0331174D01*
X0008276Y0331434D01*
X0008420Y0331689D01*
X0008569Y0331941D01*
X0008725Y0332190D01*
X0008886Y0332434D01*
X0009054Y0332675D01*
X0009227Y0332911D01*
X0009406Y0333144D01*
X0009590Y0333371D01*
X0009780Y0333595D01*
X0009975Y0333813D01*
X0010176Y0334027D01*
X0010382Y0334236D01*
X0010592Y0334440D01*
X0010808Y0334639D01*
X0011028Y0334832D01*
X0011253Y0335020D01*
X0011482Y0335203D01*
X0011716Y0335380D01*
X0011954Y0335551D01*
X0012196Y0335716D01*
X0012441Y0335876D01*
X0012691Y0336029D01*
X0012944Y0336177D01*
X0013201Y0336318D01*
X0013461Y0336453D01*
X0013725Y0336582D01*
X0013991Y0336704D01*
X0014261Y0336819D01*
X0014533Y0336929D01*
X0014807Y0337031D01*
X0015084Y0337127D01*
X0015363Y0337216D01*
X0015645Y0337299D01*
X0015928Y0337374D01*
X0016213Y0337443D01*
X0016499Y0337505D01*
X0016787Y0337559D01*
X0017076Y0337607D01*
X0017367Y0337648D01*
X0017658Y0337682D01*
X0017950Y0337708D01*
X0018242Y0337728D01*
X0018535Y0337740D01*
X0018828Y0337746D01*
X0019121Y0337744D01*
X0019414Y0337735D01*
X0019707Y0337719D01*
X0019999Y0337696D01*
X0020291Y0337666D01*
X0020581Y0337629D01*
X0020582Y0337630D02*
X0388692Y0337630D01*
X0388692Y0337629D02*
X0388961Y0337643D01*
X0389231Y0337650D01*
X0389501Y0337650D01*
X0389770Y0337644D01*
X0390040Y0337632D01*
X0390309Y0337613D01*
X0390577Y0337587D01*
X0390845Y0337555D01*
X0391112Y0337516D01*
X0391378Y0337471D01*
X0391643Y0337420D01*
X0391907Y0337362D01*
X0392169Y0337297D01*
X0392429Y0337227D01*
X0392687Y0337150D01*
X0392944Y0337067D01*
X0393199Y0336978D01*
X0393451Y0336882D01*
X0393701Y0336781D01*
X0393948Y0336673D01*
X0394193Y0336560D01*
X0394435Y0336440D01*
X0394674Y0336315D01*
X0394910Y0336184D01*
X0395142Y0336047D01*
X0395372Y0335905D01*
X0395597Y0335757D01*
X0395819Y0335604D01*
X0396038Y0335446D01*
X0396252Y0335282D01*
X0396462Y0335113D01*
X0396669Y0334939D01*
X0396871Y0334760D01*
X0397068Y0334577D01*
X0397261Y0334388D01*
X0397450Y0334195D01*
X0397633Y0333998D01*
X0397812Y0333796D01*
X0397986Y0333589D01*
X0398155Y0333379D01*
X0398319Y0333165D01*
X0398477Y0332946D01*
X0398630Y0332724D01*
X0398778Y0332499D01*
X0398920Y0332269D01*
X0399057Y0332037D01*
X0399188Y0331801D01*
X0399313Y0331562D01*
X0399433Y0331320D01*
X0399546Y0331075D01*
X0399654Y0330828D01*
X0399755Y0330578D01*
X0399851Y0330326D01*
X0399940Y0330071D01*
X0400023Y0329814D01*
X0400100Y0329556D01*
X0400170Y0329296D01*
X0400235Y0329034D01*
X0400293Y0328770D01*
X0400344Y0328505D01*
X0400389Y0328239D01*
X0400428Y0327972D01*
X0400460Y0327704D01*
X0400486Y0327436D01*
X0400505Y0327167D01*
X0400517Y0326897D01*
X0400523Y0326628D01*
X0400523Y0326358D01*
X0400516Y0326088D01*
X0400502Y0325819D01*
X0400503Y0325819D02*
X0400503Y0176213D01*
X0400502Y0176212D02*
X0400516Y0175943D01*
X0400523Y0175673D01*
X0400523Y0175403D01*
X0400517Y0175134D01*
X0400505Y0174864D01*
X0400486Y0174595D01*
X0400460Y0174327D01*
X0400428Y0174059D01*
X0400389Y0173792D01*
X0400344Y0173526D01*
X0400293Y0173261D01*
X0400235Y0172997D01*
X0400170Y0172735D01*
X0400100Y0172475D01*
X0400023Y0172217D01*
X0399940Y0171960D01*
X0399851Y0171705D01*
X0399755Y0171453D01*
X0399654Y0171203D01*
X0399546Y0170956D01*
X0399433Y0170711D01*
X0399313Y0170469D01*
X0399188Y0170230D01*
X0399057Y0169994D01*
X0398920Y0169762D01*
X0398778Y0169532D01*
X0398630Y0169307D01*
X0398477Y0169085D01*
X0398319Y0168866D01*
X0398155Y0168652D01*
X0397986Y0168442D01*
X0397812Y0168235D01*
X0397633Y0168033D01*
X0397450Y0167836D01*
X0397261Y0167643D01*
X0397068Y0167454D01*
X0396871Y0167271D01*
X0396669Y0167092D01*
X0396462Y0166918D01*
X0396252Y0166749D01*
X0396038Y0166585D01*
X0395819Y0166427D01*
X0395597Y0166274D01*
X0395372Y0166126D01*
X0395142Y0165984D01*
X0394910Y0165847D01*
X0394674Y0165716D01*
X0394435Y0165591D01*
X0394193Y0165471D01*
X0393948Y0165358D01*
X0393701Y0165250D01*
X0393451Y0165149D01*
X0393199Y0165053D01*
X0392944Y0164964D01*
X0392687Y0164881D01*
X0392429Y0164804D01*
X0392169Y0164734D01*
X0391907Y0164669D01*
X0391643Y0164611D01*
X0391378Y0164560D01*
X0391112Y0164515D01*
X0390845Y0164476D01*
X0390577Y0164444D01*
X0390309Y0164418D01*
X0390040Y0164399D01*
X0389770Y0164387D01*
X0389501Y0164381D01*
X0389231Y0164381D01*
X0388961Y0164388D01*
X0388692Y0164402D01*
D14*
X0363101Y0203969D03*
X0362806Y0250917D03*
X0363101Y0298063D03*
D15*
X0199027Y0156823D03*
X0192334Y0157020D03*
X0185739Y0156921D03*
X0178751Y0156921D03*
X0171763Y0156724D03*
X0164676Y0156724D03*
X0158082Y0156724D03*
D16*
X0149918Y0221394D02*
X0146715Y0221394D01*
X0146715Y0227800D01*
X0149918Y0227800D01*
X0150985Y0226732D01*
X0150985Y0222462D01*
X0149918Y0221394D01*
X0144540Y0222462D02*
X0143472Y0221394D01*
X0141337Y0221394D01*
X0140269Y0222462D01*
X0140269Y0226732D01*
X0141337Y0227800D01*
X0143472Y0227800D01*
X0144540Y0226732D01*
X0138094Y0221394D02*
X0133824Y0221394D01*
X0133824Y0227800D01*
X0125203Y0226732D02*
X0125203Y0224597D01*
X0124136Y0223530D01*
X0120933Y0223530D01*
X0123068Y0223530D02*
X0125203Y0221394D01*
X0120933Y0221394D02*
X0120933Y0227800D01*
X0124136Y0227800D01*
X0125203Y0226732D01*
X0118758Y0226732D02*
X0118758Y0222462D01*
X0117690Y0221394D01*
X0115555Y0221394D01*
X0114487Y0222462D01*
X0114487Y0226732D01*
X0115555Y0227800D01*
X0117690Y0227800D01*
X0118758Y0226732D01*
X0112312Y0227800D02*
X0108042Y0227800D01*
X0108042Y0221394D01*
X0108042Y0224597D02*
X0110177Y0224597D01*
X0099421Y0227800D02*
X0095151Y0227800D01*
X0097286Y0227800D02*
X0097286Y0221394D01*
X0092976Y0222462D02*
X0092976Y0227800D01*
X0088705Y0227800D02*
X0088705Y0222462D01*
X0089773Y0221394D01*
X0091908Y0221394D01*
X0092976Y0222462D01*
X0086530Y0222462D02*
X0086530Y0226732D01*
X0085463Y0227800D01*
X0083327Y0227800D01*
X0082260Y0226732D01*
X0082260Y0222462D01*
X0083327Y0221394D01*
X0085463Y0221394D01*
X0086530Y0222462D01*
X0073639Y0221394D02*
X0069369Y0221394D01*
X0069369Y0227800D01*
X0067194Y0221394D02*
X0062923Y0221394D01*
X0062923Y0227800D01*
X0060761Y0227800D02*
X0058626Y0227800D01*
X0059694Y0227800D02*
X0059694Y0221394D01*
X0060761Y0221394D02*
X0058626Y0221394D01*
X0056451Y0221394D02*
X0056451Y0227800D01*
X0054316Y0225665D01*
X0052181Y0227800D01*
X0052181Y0221394D01*
X0053165Y0247969D02*
X0053165Y0254375D01*
X0055300Y0252240D01*
X0057435Y0254375D01*
X0057435Y0247969D01*
X0059611Y0247969D02*
X0061746Y0247969D01*
X0060678Y0247969D02*
X0060678Y0254375D01*
X0059611Y0254375D02*
X0061746Y0254375D01*
X0063908Y0254375D02*
X0063908Y0247969D01*
X0068178Y0247969D01*
X0070353Y0247969D02*
X0074623Y0247969D01*
X0070353Y0247969D02*
X0070353Y0254375D01*
X0083244Y0253307D02*
X0083244Y0249037D01*
X0084312Y0247969D01*
X0086447Y0247969D01*
X0087514Y0249037D01*
X0087514Y0253307D01*
X0086447Y0254375D01*
X0084312Y0254375D01*
X0083244Y0253307D01*
X0089690Y0254375D02*
X0089690Y0249037D01*
X0090757Y0247969D01*
X0092892Y0247969D01*
X0093960Y0249037D01*
X0093960Y0254375D01*
X0096135Y0254375D02*
X0100405Y0254375D01*
X0098270Y0254375D02*
X0098270Y0247969D01*
X0109026Y0247969D02*
X0109026Y0254375D01*
X0113296Y0254375D01*
X0115472Y0253307D02*
X0115472Y0249037D01*
X0116539Y0247969D01*
X0118674Y0247969D01*
X0119742Y0249037D01*
X0119742Y0253307D01*
X0118674Y0254375D01*
X0116539Y0254375D01*
X0115472Y0253307D01*
X0111161Y0251172D02*
X0109026Y0251172D01*
X0121917Y0250104D02*
X0125120Y0250104D01*
X0126187Y0251172D01*
X0126187Y0253307D01*
X0125120Y0254375D01*
X0121917Y0254375D01*
X0121917Y0247969D01*
X0124052Y0250104D02*
X0126187Y0247969D01*
X0134808Y0247969D02*
X0134808Y0254375D01*
X0134808Y0247969D02*
X0139078Y0247969D01*
X0141254Y0249037D02*
X0142321Y0247969D01*
X0144456Y0247969D01*
X0145524Y0249037D01*
X0147699Y0247969D02*
X0150902Y0247969D01*
X0151969Y0249037D01*
X0151969Y0253307D01*
X0150902Y0254375D01*
X0147699Y0254375D01*
X0147699Y0247969D01*
X0141254Y0249037D02*
X0141254Y0253307D01*
X0142321Y0254375D01*
X0144456Y0254375D01*
X0145524Y0253307D01*
X0144456Y0272576D02*
X0142321Y0272576D01*
X0141254Y0273643D01*
X0141254Y0277913D01*
X0142321Y0278981D01*
X0144456Y0278981D01*
X0145524Y0277913D01*
X0147699Y0278981D02*
X0150902Y0278981D01*
X0151969Y0277913D01*
X0151969Y0273643D01*
X0150902Y0272576D01*
X0147699Y0272576D01*
X0147699Y0278981D01*
X0145524Y0273643D02*
X0144456Y0272576D01*
X0139078Y0272576D02*
X0134808Y0272576D01*
X0134808Y0278981D01*
X0126187Y0277913D02*
X0126187Y0275778D01*
X0125120Y0274711D01*
X0121917Y0274711D01*
X0124052Y0274711D02*
X0126187Y0272576D01*
X0121917Y0272576D02*
X0121917Y0278981D01*
X0125120Y0278981D01*
X0126187Y0277913D01*
X0119742Y0277913D02*
X0119742Y0273643D01*
X0118674Y0272576D01*
X0116539Y0272576D01*
X0115472Y0273643D01*
X0115472Y0277913D01*
X0116539Y0278981D01*
X0118674Y0278981D01*
X0119742Y0277913D01*
X0113296Y0278981D02*
X0109026Y0278981D01*
X0109026Y0272576D01*
X0109026Y0275778D02*
X0111161Y0275778D01*
X0100405Y0278981D02*
X0096135Y0278981D01*
X0098270Y0278981D02*
X0098270Y0272576D01*
X0093960Y0273643D02*
X0093960Y0278981D01*
X0089690Y0278981D02*
X0089690Y0273643D01*
X0090757Y0272576D01*
X0092892Y0272576D01*
X0093960Y0273643D01*
X0087514Y0273643D02*
X0087514Y0277913D01*
X0086447Y0278981D01*
X0084312Y0278981D01*
X0083244Y0277913D01*
X0083244Y0273643D01*
X0084312Y0272576D01*
X0086447Y0272576D01*
X0087514Y0273643D01*
X0074623Y0272576D02*
X0070353Y0272576D01*
X0070353Y0278981D01*
X0063908Y0278981D02*
X0063908Y0272576D01*
X0068178Y0272576D01*
X0061746Y0272576D02*
X0059611Y0272576D01*
X0060678Y0272576D02*
X0060678Y0278981D01*
X0059611Y0278981D02*
X0061746Y0278981D01*
X0057435Y0278981D02*
X0057435Y0272576D01*
X0053165Y0272576D02*
X0053165Y0278981D01*
X0055300Y0276846D01*
X0057435Y0278981D01*
X0200803Y0279965D02*
X0200803Y0273560D01*
X0205073Y0273560D02*
X0205073Y0279965D01*
X0202938Y0277830D01*
X0200803Y0279965D01*
X0207248Y0279965D02*
X0209384Y0279965D01*
X0208316Y0279965D02*
X0208316Y0273560D01*
X0207248Y0273560D02*
X0209384Y0273560D01*
X0211545Y0273560D02*
X0215816Y0273560D01*
X0217991Y0273560D02*
X0222261Y0273560D01*
X0217991Y0273560D02*
X0217991Y0279965D01*
X0211545Y0279965D02*
X0211545Y0273560D01*
X0230882Y0274627D02*
X0231949Y0273560D01*
X0234085Y0273560D01*
X0235152Y0274627D01*
X0235152Y0278898D01*
X0234085Y0279965D01*
X0231949Y0279965D01*
X0230882Y0278898D01*
X0230882Y0274627D01*
X0237327Y0274627D02*
X0237327Y0279965D01*
X0241598Y0279965D02*
X0241598Y0274627D01*
X0240530Y0273560D01*
X0238395Y0273560D01*
X0237327Y0274627D01*
X0243773Y0279965D02*
X0248043Y0279965D01*
X0245908Y0279965D02*
X0245908Y0273560D01*
X0256664Y0273560D02*
X0256664Y0279965D01*
X0260934Y0279965D01*
X0263109Y0278898D02*
X0263109Y0274627D01*
X0264177Y0273560D01*
X0266312Y0273560D01*
X0267380Y0274627D01*
X0267380Y0278898D01*
X0266312Y0279965D01*
X0264177Y0279965D01*
X0263109Y0278898D01*
X0258799Y0276763D02*
X0256664Y0276763D01*
X0269555Y0275695D02*
X0272758Y0275695D01*
X0273825Y0276763D01*
X0273825Y0278898D01*
X0272758Y0279965D01*
X0269555Y0279965D01*
X0269555Y0273560D01*
X0271690Y0275695D02*
X0273825Y0273560D01*
X0282446Y0273560D02*
X0282446Y0279965D01*
X0282446Y0273560D02*
X0286716Y0273560D01*
X0288891Y0274627D02*
X0288891Y0278898D01*
X0289959Y0279965D01*
X0292094Y0279965D01*
X0293162Y0278898D01*
X0295337Y0279965D02*
X0295337Y0273560D01*
X0298540Y0273560D01*
X0299607Y0274627D01*
X0299607Y0278898D01*
X0298540Y0279965D01*
X0295337Y0279965D01*
X0293162Y0274627D02*
X0292094Y0273560D01*
X0289959Y0273560D01*
X0288891Y0274627D01*
X0288975Y0255359D02*
X0287907Y0254291D01*
X0287907Y0250021D01*
X0288975Y0248954D01*
X0291110Y0248954D01*
X0292177Y0250021D01*
X0294353Y0248954D02*
X0297555Y0248954D01*
X0298623Y0250021D01*
X0298623Y0254291D01*
X0297555Y0255359D01*
X0294353Y0255359D01*
X0294353Y0248954D01*
X0292177Y0254291D02*
X0291110Y0255359D01*
X0288975Y0255359D01*
X0285732Y0248954D02*
X0281462Y0248954D01*
X0281462Y0255359D01*
X0272841Y0254291D02*
X0272841Y0252156D01*
X0271773Y0251089D01*
X0268571Y0251089D01*
X0270706Y0251089D02*
X0272841Y0248954D01*
X0268571Y0248954D02*
X0268571Y0255359D01*
X0271773Y0255359D01*
X0272841Y0254291D01*
X0266395Y0254291D02*
X0266395Y0250021D01*
X0265328Y0248954D01*
X0263193Y0248954D01*
X0262125Y0250021D01*
X0262125Y0254291D01*
X0263193Y0255359D01*
X0265328Y0255359D01*
X0266395Y0254291D01*
X0259950Y0255359D02*
X0255680Y0255359D01*
X0255680Y0248954D01*
X0255680Y0252156D02*
X0257815Y0252156D01*
X0247059Y0255359D02*
X0242789Y0255359D01*
X0244924Y0255359D02*
X0244924Y0248954D01*
X0240613Y0250021D02*
X0240613Y0255359D01*
X0236343Y0255359D02*
X0236343Y0250021D01*
X0237411Y0248954D01*
X0239546Y0248954D01*
X0240613Y0250021D01*
X0234168Y0250021D02*
X0234168Y0254291D01*
X0233100Y0255359D01*
X0230965Y0255359D01*
X0229898Y0254291D01*
X0229898Y0250021D01*
X0230965Y0248954D01*
X0233100Y0248954D01*
X0234168Y0250021D01*
X0221277Y0248954D02*
X0217007Y0248954D01*
X0217007Y0255359D01*
X0210561Y0255359D02*
X0210561Y0248954D01*
X0214831Y0248954D01*
X0208399Y0248954D02*
X0206264Y0248954D01*
X0207332Y0248954D02*
X0207332Y0255359D01*
X0208399Y0255359D02*
X0206264Y0255359D01*
X0204089Y0255359D02*
X0204089Y0248954D01*
X0199819Y0248954D02*
X0199819Y0255359D01*
X0201954Y0253224D01*
X0204089Y0255359D01*
X0204089Y0229768D02*
X0204089Y0223363D01*
X0206264Y0223363D02*
X0208399Y0223363D01*
X0207332Y0223363D02*
X0207332Y0229768D01*
X0208399Y0229768D02*
X0206264Y0229768D01*
X0204089Y0229768D02*
X0201954Y0227633D01*
X0199819Y0229768D01*
X0199819Y0223363D01*
X0210561Y0223363D02*
X0210561Y0229768D01*
X0210561Y0223363D02*
X0214831Y0223363D01*
X0217007Y0223363D02*
X0221277Y0223363D01*
X0217007Y0223363D02*
X0217007Y0229768D01*
X0229898Y0228701D02*
X0229898Y0224431D01*
X0230965Y0223363D01*
X0233100Y0223363D01*
X0234168Y0224431D01*
X0234168Y0228701D01*
X0233100Y0229768D01*
X0230965Y0229768D01*
X0229898Y0228701D01*
X0236343Y0229768D02*
X0236343Y0224431D01*
X0237411Y0223363D01*
X0239546Y0223363D01*
X0240613Y0224431D01*
X0240613Y0229768D01*
X0242789Y0229768D02*
X0247059Y0229768D01*
X0244924Y0229768D02*
X0244924Y0223363D01*
X0255680Y0223363D02*
X0255680Y0229768D01*
X0259950Y0229768D01*
X0262125Y0228701D02*
X0262125Y0224431D01*
X0263193Y0223363D01*
X0265328Y0223363D01*
X0266395Y0224431D01*
X0266395Y0228701D01*
X0265328Y0229768D01*
X0263193Y0229768D01*
X0262125Y0228701D01*
X0268571Y0229768D02*
X0271773Y0229768D01*
X0272841Y0228701D01*
X0272841Y0226566D01*
X0271773Y0225498D01*
X0268571Y0225498D01*
X0270706Y0225498D02*
X0272841Y0223363D01*
X0268571Y0223363D02*
X0268571Y0229768D01*
X0257815Y0226566D02*
X0255680Y0226566D01*
X0281462Y0229768D02*
X0281462Y0223363D01*
X0285732Y0223363D01*
X0287907Y0224431D02*
X0288975Y0223363D01*
X0291110Y0223363D01*
X0292177Y0224431D01*
X0294353Y0223363D02*
X0297555Y0223363D01*
X0298623Y0224431D01*
X0298623Y0228701D01*
X0297555Y0229768D01*
X0294353Y0229768D01*
X0294353Y0223363D01*
X0287907Y0224431D02*
X0287907Y0228701D01*
X0288975Y0229768D01*
X0291110Y0229768D01*
X0292177Y0228701D01*
D17*
X0038818Y0138945D03*
D18*
X0048818Y0138945D03*
X0058818Y0138945D03*
X0068818Y0138945D03*
X0078818Y0138945D03*
X0088818Y0138945D03*
X0098818Y0138945D03*
X0108818Y0138945D03*
X0118818Y0138945D03*
X0128818Y0138945D03*
X0138818Y0138945D03*
X0148818Y0138945D03*
X0158818Y0138945D03*
X0168818Y0138945D03*
X0178818Y0138945D03*
X0188818Y0138945D03*
D19*
X0312440Y0138945D03*
X0312440Y0016898D03*
X0017164Y0016898D03*
X0017164Y0138945D03*
D20*
X0337459Y0133931D02*
X0343459Y0133931D01*
X0363059Y0133931D02*
X0369059Y0133931D01*
X0369059Y0116131D02*
X0363059Y0116131D01*
X0343459Y0116131D02*
X0337459Y0116131D01*
X0337459Y0086687D02*
X0343459Y0086687D01*
X0363059Y0086687D02*
X0369059Y0086687D01*
X0369059Y0068887D02*
X0363059Y0068887D01*
X0343459Y0068887D02*
X0337459Y0068887D01*
X0337459Y0039443D02*
X0343459Y0039443D01*
X0363059Y0039443D02*
X0369059Y0039443D01*
X0369059Y0021643D02*
X0363059Y0021643D01*
X0343459Y0021643D02*
X0337459Y0021643D01*
D21*
X0276093Y0022669D03*
X0262314Y0022669D03*
X0242180Y0022685D03*
X0228401Y0022685D03*
X0208771Y0022669D03*
X0194991Y0022669D03*
X0020582Y0111646D03*
X0020582Y0125425D03*
D22*
X0056471Y0052843D03*
X0064345Y0052843D03*
X0064345Y0043000D03*
X0056471Y0043000D03*
D23*
X0045802Y0024421D03*
X0045802Y0071421D03*
D24*
X0030302Y0074921D03*
X0030302Y0084921D03*
X0019302Y0084921D03*
X0019302Y0074921D03*
X0019302Y0064921D03*
X0019302Y0054921D03*
X0019302Y0044921D03*
X0030302Y0044921D03*
X0030302Y0054921D03*
X0030302Y0064921D03*
D25*
X0053802Y0079021D02*
X0053802Y0086821D01*
X0073802Y0086821D02*
X0073802Y0079021D01*
X0067702Y0122921D02*
X0059902Y0122921D01*
D26*
X0181330Y0039065D03*
X0181330Y0023315D03*
D27*
X0192188Y0065551D03*
D28*
X0202188Y0065551D03*
X0202188Y0055551D03*
X0192188Y0055551D03*
X0212188Y0055551D03*
X0212188Y0065551D03*
D29*
X0243810Y0117945D03*
X0254046Y0117945D03*
X0263889Y0117945D03*
X0274125Y0117945D03*
X0283967Y0117945D03*
D30*
X0322156Y0189992D03*
X0322156Y0312039D03*
X0026881Y0312039D03*
X0026881Y0189992D03*
M02*
