solid basic logo trace 3d ver 2
facet normal 0.0 -1.0 0.0
   outer loop
      vertex 143.787786834445 54.4257453088327 9.50000000000003
      vertex 143.787786834445 54.4257453088327 1.2339870632566e-014
      vertex 147.006222781914 54.4257453088327 3.70227057706205e-014
   endloop
endfacet
facet normal 0.685389237659674 -0.642996025174053 0.341756791462378
   outer loop
      vertex 101.179150740333 14.667740541436 7.30000000000002
      vertex 93.898811999384 6.90740358101363 7.30000000000002
      vertex 93.898811999384 3.02740358101357 1.2339870632566e-014
   endloop
endfacet
facet normal -0.634414961401976 -0.772992662804331 0.0
   outer loop
      vertex 51.680170633105 102.017255678081 9.50000000000003
      vertex 48.9302258618652 104.274206086348 1.2339870632566e-014
      vertex 51.680170633105 102.017255678081 1.2339870632566e-014
   endloop
endfacet
facet normal -0.695512786873668 -0.718513718237323 0.0
   outer loop
      vertex 95.0449380082258 101.608246862807 9.50000000000003
      vertex 91.7685154530634 104.779785170951 1.2339870632566e-014
      vertex 95.0449380082258 101.608246862807 1.2339870632566e-014
   endloop
endfacet
facet normal 0.0 0.0 -1.0
   outer loop
      vertex 128.09780967098 55.323130942137 1.2339870632566e-014
      vertex 95.0449380082258 82.4509342337393 1.2339870632566e-014
      vertex 95.0449380082258 87.8309342337392 1.2339870632566e-014
   endloop
endfacet
facet normal 0.0 0.0 -1.0
   outer loop
      vertex 95.0449380082258 82.4509342337393 1.2339870632566e-014
      vertex 128.09780967098 55.323130942137 1.2339870632566e-014
      vertex 123.996932966151 54.4257453088327 1.2339870632566e-014
   endloop
endfacet
facet normal -2.17926078976312e-015 -1.60053154169608e-015 -1.0
   outer loop
      vertex 83.8081717115344 54.0608470810015 1.06252197379338e-015
      vertex 73.4882301505996 60.6917278988215 1.2339870632566e-014
      vertex 73.2534044244154 63.8013270105545 1.2339870632566e-014
   endloop
endfacet
facet normal -2.17926078976312e-015 -1.60053154169608e-015 -1.0
   outer loop
      vertex 73.4882301505996 60.6917278988215 1.2339870632566e-014
      vertex 83.8081717115344 54.0608470810015 1.06252197379338e-015
      vertex 80.8741077208059 54.1509287572426 1.2339870632566e-014
   endloop
endfacet
facet normal 0.0 0.0 -1.0
   outer loop
      vertex 82.4628691963253 88.6100831830364 1.2339870632566e-014
      vertex 88.6627829104145 75.8577182983307 1.2339870632566e-014
      vertex 75.4886913875024 88.6100831830364 1.2339870632566e-014
   endloop
endfacet
facet normal 0.0 0.0 -1.0
   outer loop
      vertex 88.6627829104145 75.8577182983307 1.2339870632566e-014
      vertex 82.4628691963253 88.6100831830364 1.2339870632566e-014
      vertex 89.7054874761575 81.5993142913502 1.2339870632566e-014
   endloop
endfacet
facet normal 4.4808156192616e-015 -4.05652832197088e-015 -1.0
   outer loop
      vertex 143.787786834445 54.4257453088327 1.2339870632566e-014
      vertex 108.647147994011 15.3829891970847 1.2339870632566e-014
      vertex 108.647147994011 18.1229891970847 1.2339870632566e-014
   endloop
endfacet
facet normal 4.4808156192616e-015 -4.05652832197088e-015 -1.0
   outer loop
      vertex 108.647147994011 15.3829891970847 1.2339870632566e-014
      vertex 143.787786834445 54.4257453088327 1.2339870632566e-014
      vertex 143.702847203293 51.063493018476 3.48970894658215e-014
   endloop
endfacet
facet normal 0.676931261710182 0.645542177994862 0.353609054393565
   outer loop
      vertex 104.992456821886 14.667740541436 1.2339870632566e-014
      vertex 81.9324824157106 34.8502660476275 7.30000000000002
      vertex 101.179150740333 14.667740541436 7.30000000000002
   endloop
endfacet
facet normal 0.0 0.0 -1.0
   outer loop
      vertex 91.7685154530634 104.779785170951 1.2339870632566e-014
      vertex 82.4628691963253 88.6100831830364 1.2339870632566e-014
      vertex 75.4886913875024 88.6100831830364 1.2339870632566e-014
   endloop
endfacet
facet normal 0.0 0.0 -1.0
   outer loop
      vertex 82.4628691963253 88.6100831830364 1.2339870632566e-014
      vertex 91.7685154530634 104.779785170951 1.2339870632566e-014
      vertex 95.0449380082258 101.608246862807 1.2339870632566e-014
   endloop
endfacet
facet normal 0.0 0.0 -1.0
   outer loop
      vertex 95.0449380082258 101.608246862807 1.2339870632566e-014
      vertex 91.7685154530634 104.779785170951 1.2339870632566e-014
      vertex 95.0449380082258 104.779785170951 1.2339870632566e-014
   endloop
endfacet
facet normal 0.0 0.0 -1.0
   outer loop
      vertex 142.809899932342 57.6531641124898 1.2339870632566e-014
      vertex 95.0449380082258 101.608246862807 1.2339870632566e-014
      vertex 95.0449380082258 104.779785170951 1.2339870632566e-014
   endloop
endfacet
facet normal 0.0 0.0 -1.0
   outer loop
      vertex 95.0449380082258 101.608246862807 1.2339870632566e-014
      vertex 142.809899932342 57.6531641124898 1.2339870632566e-014
      vertex 143.787786834445 54.4257453088327 1.2339870632566e-014
   endloop
endfacet
facet normal 0.681192044630261 0.682456004026289 0.265011699554783
   outer loop
      vertex 81.9324824157106 34.8502660476275 7.30000000000002
      vertex 104.992456821886 14.667740541436 1.2339870632566e-014
      vertex 84.7724824157106 34.8502660476275 1.2339870632566e-014
   endloop
endfacet
facet normal 0.0 0.0 -1.0
   outer loop
      vertex 99.9307796805894 27.2687386426003 1.2339870632566e-014
      vertex 108.647147994011 15.3829891970847 1.2339870632566e-014
      vertex 96.8307796805893 27.2687386426003 1.2339870632566e-014
   endloop
endfacet
facet normal 0.0 0.0 -1.0
   outer loop
      vertex 108.647147994011 15.3829891970847 1.2339870632566e-014
      vertex 99.9307796805894 27.2687386426003 1.2339870632566e-014
      vertex 108.647147994011 18.1229891970847 1.2339870632566e-014
   endloop
endfacet
facet normal 0.0 -1.0 0.0
   outer loop
      vertex 81.9324824157106 34.8502660476275 7.30000000000002
      vertex 81.9324824157106 34.8502660476275 1.2339870632566e-014
      vertex 84.7724824157106 34.8502660476275 1.2339870632566e-014
   endloop
endfacet
facet normal 0.0 0.0 -1.0
   outer loop
      vertex 89.7054874761575 81.5993142913502 1.2339870632566e-014
      vertex 95.0449380082258 82.4509342337393 1.2339870632566e-014
      vertex 88.6627829104145 75.8577182983307 1.2339870632566e-014
   endloop
endfacet
facet normal 0.0 0.0 -1.0
   outer loop
      vertex 95.0449380082258 82.4509342337393 1.2339870632566e-014
      vertex 89.7054874761575 81.5993142913502 1.2339870632566e-014
      vertex 95.0449380082258 87.8309342337392 1.2339870632566e-014
   endloop
endfacet
facet normal 0.0 0.0 -1.0
   outer loop
      vertex 48.9302258618652 104.274206086348 1.2339870632566e-014
      vertex 6.16593233194441 56.7109370032519 1.2339870632566e-014
      vertex 2.22593233194446 56.7109370032519 1.2339870632566e-014
   endloop
endfacet
facet normal 0.0 0.0 -1.0
   outer loop
      vertex 6.16593233194441 56.7109370032519 1.2339870632566e-014
      vertex 48.9302258618652 104.274206086348 1.2339870632566e-014
      vertex 51.680170633105 102.017255678081 1.2339870632566e-014
   endloop
endfacet
facet normal 0.0 0.0 -1.0
   outer loop
      vertex 75.3171428729584 82.7893361971002 1.2339870632566e-014
      vertex 98.2115954371431 57.1177536773588 1.2339870632566e-014
      vertex 71.3222653333735 80.9942175397175 1.2339870632566e-014
   endloop
endfacet
facet normal 0.0 0.0 -1.0
   outer loop
      vertex 98.2115954371431 57.1177536773588 1.2339870632566e-014
      vertex 75.3171428729584 82.7893361971002 1.2339870632566e-014
      vertex 101.179150740333 57.1177536773588 1.2339870632566e-014
   endloop
endfacet
facet normal -1.0 0.0 0.0
   outer loop
      vertex 93.898811999384 6.90740358101363 1.2339870632566e-014
      vertex 93.898811999384 3.02740358101357 1.2339870632566e-014
      vertex 93.898811999384 6.90740358101363 7.30000000000002
   endloop
endfacet
facet normal 0.677107472781886 -0.645306904365722 0.353701101893755
   outer loop
      vertex 104.992456821886 14.667740541436 1.2339870632566e-014
      vertex 101.179150740333 14.667740541436 7.30000000000002
      vertex 93.898811999384 3.02740358101357 1.2339870632566e-014
   endloop
endfacet
facet normal 0.0 -1.0 0.0
   outer loop
      vertex 101.179150740333 14.667740541436 7.30000000000002
      vertex 101.179150740333 14.667740541436 1.2339870632566e-014
      vertex 104.992456821886 14.667740541436 1.2339870632566e-014
   endloop
endfacet
facet normal 1.0 0.0 0.0
   outer loop
      vertex 108.647147994011 18.1229891970847 9.50000000000003
      vertex 108.647147994011 15.3829891970847 1.2339870632566e-014
      vertex 108.647147994011 18.1229891970847 1.2339870632566e-014
   endloop
endfacet
facet normal 0.0 0.0 -1.0
   outer loop
      vertex 2.22593233194446 56.7109370032519 1.2339870632566e-014
      vertex 5.78187404574966 55.5798821094553 1.2339870632566e-014
      vertex 2.14009377254878 51.9810161156004 1.2339870632566e-014
   endloop
endfacet
facet normal 0.0 0.0 -1.0
   outer loop
      vertex 5.78187404574966 55.5798821094553 1.2339870632566e-014
      vertex 2.22593233194446 56.7109370032519 1.2339870632566e-014
      vertex 6.16593233194441 56.7109370032519 1.2339870632566e-014
   endloop
endfacet
facet normal -0.66852476242022 0.647124068480682 -0.366476577729053
   outer loop
      vertex 95.0449380082258 82.4509342337393 1.2339870632566e-014
      vertex 88.6627829104145 75.8577182983307 1.2339870632566e-014
      vertex 95.0449380082258 87.8309342337392 9.50000000000003
   endloop
endfacet
facet normal 0.0 0.0 -1.0
   outer loop
      vertex 101.179150740333 14.667740541436 1.2339870632566e-014
      vertex 93.898811999384 3.02740358101357 1.2339870632566e-014
      vertex 93.898811999384 6.90740358101363 1.2339870632566e-014
   endloop
endfacet
facet normal 0.0 0.0 -1.0
   outer loop
      vertex 93.898811999384 3.02740358101357 1.2339870632566e-014
      vertex 101.179150740333 14.667740541436 1.2339870632566e-014
      vertex 104.992456821886 14.667740541436 1.2339870632566e-014
   endloop
endfacet
facet normal 0.0 0.0 -1.0
   outer loop
      vertex 65.6622003664234 21.2613603044114 1.2339870632566e-014
      vertex 54.7894029130434 5.60522044905724 1.2339870632566e-014
      vertex 51.5075804932734 8.85699559581843 1.2339870632566e-014
   endloop
endfacet
facet normal 0.0 0.0 -1.0
   outer loop
      vertex 54.7894029130434 5.60522044905724 1.2339870632566e-014
      vertex 65.6622003664234 21.2613603044114 1.2339870632566e-014
      vertex 70.3022003664234 21.2613603044114 1.2339870632566e-014
   endloop
endfacet
facet normal 0.0 0.0 -1.0
   outer loop
      vertex 84.7724824157106 34.8502660476275 1.2339870632566e-014
      vertex 101.179150740333 14.667740541436 1.2339870632566e-014
      vertex 81.9324824157106 34.8502660476275 1.2339870632566e-014
   endloop
endfacet
facet normal 0.0 0.0 -1.0
   outer loop
      vertex 101.179150740333 14.667740541436 1.2339870632566e-014
      vertex 84.7724824157106 34.8502660476275 1.2339870632566e-014
      vertex 104.992456821886 14.667740541436 1.2339870632566e-014
   endloop
endfacet
facet normal 0.0 0.0 -1.0
   outer loop
      vertex 98.2115954371431 55.0096044968088 1.2339870632566e-014
      vertex 84.7724824157106 34.8502660476275 1.2339870632566e-014
      vertex 81.9324824157106 34.8502660476275 1.2339870632566e-014
   endloop
endfacet
facet normal 0.0 0.0 -1.0
   outer loop
      vertex 84.7724824157106 34.8502660476275 1.2339870632566e-014
      vertex 98.2115954371431 55.0096044968088 1.2339870632566e-014
      vertex 101.179150740333 51.8977536773588 1.2339870632566e-014
   endloop
endfacet
facet normal 0.0 0.0 -1.0
   outer loop
      vertex 101.179150740333 57.1177536773588 1.2339870632566e-014
      vertex 98.2115954371431 55.0096044968088 1.2339870632566e-014
      vertex 98.2115954371431 57.1177536773588 1.2339870632566e-014
   endloop
endfacet
facet normal 0.0 0.0 -1.0
   outer loop
      vertex 98.2115954371431 55.0096044968088 1.2339870632566e-014
      vertex 101.179150740333 57.1177536773588 1.2339870632566e-014
      vertex 101.179150740333 51.8977536773588 1.2339870632566e-014
   endloop
endfacet
facet normal 0.0 0.0 -1.0
   outer loop
      vertex 5.78187404574966 55.5798821094553 1.2339870632566e-014
      vertex 47.9694029130435 5.60522044905724 1.2339870632566e-014
      vertex 2.14009377254878 51.9810161156004 1.2339870632566e-014
   endloop
endfacet
facet normal 0.0 0.0 -1.0
   outer loop
      vertex 47.9694029130435 5.60522044905724 1.2339870632566e-014
      vertex 5.78187404574966 55.5798821094553 1.2339870632566e-014
      vertex 50.6791870349251 8.99530452069898 1.2339870632566e-014
   endloop
endfacet
facet normal 0.0 0.0 -1.0
   outer loop
      vertex 75.3171428729584 82.7893361971002 1.2339870632566e-014
      vertex 71.3222653333735 80.9942175397175 1.2339870632566e-014
      vertex 69.5971428729584 82.7893361971002 1.2339870632566e-014
   endloop
endfacet
facet normal 0.0 0.0 -1.0
   outer loop
      vertex 69.5971428729584 82.7893361971002 1.2339870632566e-014
      vertex 47.0659896664401 57.683755143845 1.2339870632566e-014
      vertex 45.0638819977041 57.7709287572425 1.2339870632566e-014
   endloop
endfacet
facet normal 0.0 0.0 -1.0
   outer loop
      vertex 47.0659896664401 57.683755143845 1.2339870632566e-014
      vertex 69.5971428729584 82.7893361971002 1.2339870632566e-014
      vertex 71.3222653333735 80.9942175397175 1.2339870632566e-014
   endloop
endfacet
facet normal 0.744643739553111 -0.601316339196614 0.289697016483673
   outer loop
      vertex 98.2115954371431 55.0096044968088 7.30000000000002
      vertex 81.9324824157106 34.8502660476275 7.30000000000002
      vertex 84.7724824157106 34.8502660476275 1.2339870632566e-014
   endloop
endfacet
facet normal 0.926381136078119 0.0 0.376587294951135
   outer loop
      vertex 101.179150740333 51.8977536773588 1.2339870632566e-014
      vertex 98.2115954371431 57.1177536773588 7.30000000000002
      vertex 98.2115954371431 55.0096044968088 7.30000000000002
   endloop
endfacet
facet normal 0.926381136078119 0.0 0.376587294951135
   outer loop
      vertex 98.2115954371431 57.1177536773588 7.30000000000002
      vertex 101.179150740333 51.8977536773588 1.2339870632566e-014
      vertex 101.179150740333 57.1177536773588 1.2339870632566e-014
   endloop
endfacet
facet normal -0.723686237081405 -0.690129140276627 -2.96656231591919e-017
   outer loop
      vertex 98.2115954371431 55.0096044968088 1.2339870632566e-014
      vertex 101.179150740333 51.8977536773588 1.2339870632566e-014
      vertex 98.2115954371431 55.0096044968088 7.30000000000002
   endloop
endfacet
facet normal 0.0 0.0 -1.0
   outer loop
      vertex 47.0659896664401 57.683755143845 1.2339870632566e-014
      vertex 45.0638819977041 51.8977536773588 1.2339870632566e-014
      vertex 45.0638819977041 57.7709287572425 1.2339870632566e-014
   endloop
endfacet
facet normal 0.0 0.0 -1.0
   outer loop
      vertex 45.0638819977041 51.8977536773588 1.2339870632566e-014
      vertex 47.0659896664401 57.683755143845 1.2339870632566e-014
      vertex 47.0659896664401 53.9780606014004 1.2339870632566e-014
   endloop
endfacet
facet normal -0.726760485404588 0.686890964312741 0.0
   outer loop
      vertex 73.2534044244154 63.8013270105545 7.30000000000002
      vertex 64.3756336428173 54.4082597877233 1.2339870632566e-014
      vertex 64.3756336428173 54.4082597877233 7.30000000000002
   endloop
endfacet
facet normal -0.726760485404588 0.686890964312741 0.0
   outer loop
      vertex 64.3756336428173 54.4082597877233 1.2339870632566e-014
      vertex 73.2534044244154 63.8013270105545 7.30000000000002
      vertex 73.2534044244154 63.8013270105545 1.2339870632566e-014
   endloop
endfacet
facet normal -0.964387293465884 -1.32298971377103e-017 0.264494136421863
   outer loop
      vertex 47.0659896664401 53.9780606014004 7.30000000000002
      vertex 45.0638819977041 57.7709287572425 1.2339870632566e-014
      vertex 45.0638819977041 51.8977536773588 1.2339870632566e-014
   endloop
endfacet
facet normal -0.964387293465884 -1.32298971377103e-017 0.264494136421863
   outer loop
      vertex 45.0638819977041 57.7709287572425 1.2339870632566e-014
      vertex 47.0659896664401 53.9780606014004 7.30000000000002
      vertex 47.0659896664401 57.683755143845 7.30000000000002
   endloop
endfacet
facet normal 1.0 0.0 0.0
   outer loop
      vertex 95.0449380082258 104.779785170951 1.2339870632566e-014
      vertex 95.0449380082258 101.608246862807 9.50000000000003
      vertex 95.0449380082258 101.608246862807 1.2339870632566e-014
   endloop
endfacet
facet normal 0.705688700736471 -0.708522023407086 0.0
   outer loop
      vertex 128.09780967098 55.323130942137 9.50000000000003
      vertex 99.9307796805894 27.2687386426003 1.2339870632566e-014
      vertex 128.09780967098 55.323130942137 1.2339870632566e-014
   endloop
endfacet
facet normal 0.705688700736471 -0.708522023407086 0.0
   outer loop
      vertex 99.9307796805894 27.2687386426003 1.2339870632566e-014
      vertex 128.09780967098 55.323130942137 9.50000000000003
      vertex 99.9307796805894 27.2687386426003 9.50000000000003
   endloop
endfacet
facet normal 0.0 0.0 -1.0
   outer loop
      vertex 66.6770676259381 54.1509287572426 1.2339870632566e-014
      vertex 75.0078870826733 44.5196002834896 1.2339870632566e-014
      vertex 64.3756336428173 54.4082597877233 1.2339870632566e-014
   endloop
endfacet
facet normal 0.0 0.0 -1.0
   outer loop
      vertex 75.0078870826733 44.5196002834896 1.2339870632566e-014
      vertex 66.6770676259381 54.1509287572426 1.2339870632566e-014
      vertex 73.4882301505996 47.0582274017698 1.2339870632566e-014
   endloop
endfacet
facet normal 0.0 0.0 -1.0
   outer loop
      vertex 73.2534044244154 63.8013270105545 1.2339870632566e-014
      vertex 66.6770676259381 54.1509287572426 1.2339870632566e-014
      vertex 64.3756336428173 54.4082597877233 1.2339870632566e-014
   endloop
endfacet
facet normal 0.0 0.0 -1.0
   outer loop
      vertex 66.6770676259381 54.1509287572426 1.2339870632566e-014
      vertex 73.2534044244154 63.8013270105545 1.2339870632566e-014
      vertex 73.4882301505996 60.6917278988215 1.2339870632566e-014
   endloop
endfacet
facet normal 0.0 0.0 -1.0
   outer loop
      vertex 128.09780967098 55.323130942137 9.50000000000003
      vertex 108.647147994011 18.1229891970847 9.50000000000003
      vertex 99.9307796805894 27.2687386426003 9.50000000000003
   endloop
endfacet
facet normal 0.0 0.0 -1.0
   outer loop
      vertex 108.647147994011 18.1229891970847 9.50000000000003
      vertex 128.09780967098 55.323130942137 9.50000000000003
      vertex 143.787786834445 54.4257453088327 9.50000000000003
   endloop
endfacet
facet normal -0.688892861488403 0.689124884142449 0.224796617959381
   outer loop
      vertex 99.9307796805894 27.2687386426003 9.50000000000003
      vertex 123.996932966151 54.4257453088327 1.2339870632566e-014
      vertex 96.8307796805893 27.2687386426003 1.2339870632566e-014
   endloop
endfacet
facet normal 0.723895547366054 0.689909585745554 0.0
   outer loop
      vertex 99.9307796805894 27.2687386426003 1.2339870632566e-014
      vertex 108.647147994011 18.1229891970847 9.50000000000003
      vertex 108.647147994011 18.1229891970847 1.2339870632566e-014
   endloop
endfacet
facet normal 0.723895547366054 0.689909585745554 0.0
   outer loop
      vertex 108.647147994011 18.1229891970847 9.50000000000003
      vertex 99.9307796805894 27.2687386426003 1.2339870632566e-014
      vertex 99.9307796805894 27.2687386426003 9.50000000000003
   endloop
endfacet
facet normal -0.718513718237344 0.695512786873646 0.0
   outer loop
      vertex 143.787786834445 54.4257453088327 9.50000000000003
      vertex 108.647147994011 18.1229891970847 1.2339870632566e-014
      vertex 108.647147994011 18.1229891970847 9.50000000000003
   endloop
endfacet
facet normal -0.718513718237344 0.695512786873646 0.0
   outer loop
      vertex 108.647147994011 18.1229891970847 1.2339870632566e-014
      vertex 143.787786834445 54.4257453088327 9.50000000000003
      vertex 143.787786834445 54.4257453088327 1.2339870632566e-014
   endloop
endfacet
facet normal -0.698128147120054 0.675779794976735 -0.236513760487463
   outer loop
      vertex 147.006222781914 54.4257453088327 3.70227057706205e-014
      vertex 108.647147994011 18.1229891970847 9.50000000000003
      vertex 143.787786834445 54.4257453088327 9.50000000000003
   endloop
endfacet
facet normal -1.67637621857015e-015 8.70086422803197e-016 -1.0
   outer loop
      vertex 80.8741077208059 54.1509287572426 1.2339870632566e-014
      vertex 75.0078870826733 44.5196002834896 1.2339870632566e-014
      vertex 73.4882301505996 47.0582274017698 1.2339870632566e-014
   endloop
endfacet
facet normal -1.67637621857015e-015 8.70086422803197e-016 -1.0
   outer loop
      vertex 75.0078870826733 44.5196002834896 1.2339870632566e-014
      vertex 80.8741077208059 54.1509287572426 1.2339870632566e-014
      vertex 83.8081717115344 54.0608470810015 1.06252197379338e-015
   endloop
endfacet
facet normal -0.729301633088398 0.684192317973971 0.0
   outer loop
      vertex 101.179150740333 14.667740541436 7.30000000000002
      vertex 93.898811999384 6.90740358101363 1.2339870632566e-014
      vertex 93.898811999384 6.90740358101363 7.30000000000002
   endloop
endfacet
facet normal -0.729301633088398 0.684192317973971 0.0
   outer loop
      vertex 93.898811999384 6.90740358101363 1.2339870632566e-014
      vertex 101.179150740333 14.667740541436 7.30000000000002
      vertex 101.179150740333 14.667740541436 1.2339870632566e-014
   endloop
endfacet
facet normal 0.672709258177998 0.651906838088459 0.349971039394856
   outer loop
      vertex 70.3022003664234 21.2613603044114 1.2339870632566e-014
      vertex 58.0661656432107 33.8878482636859 1.2339870632566e-014
      vertex 58.0661656432107 28.7878482636859 9.50000000000003
   endloop
endfacet
facet normal -0.723686237081394 -0.690129140276639 0.0
   outer loop
      vertex 81.9324824157106 34.8502660476275 7.30000000000002
      vertex 101.179150740333 14.667740541436 1.2339870632566e-014
      vertex 101.179150740333 14.667740541436 7.30000000000002
   endloop
endfacet
facet normal -0.723686237081394 -0.690129140276639 0.0
   outer loop
      vertex 101.179150740333 14.667740541436 1.2339870632566e-014
      vertex 81.9324824157106 34.8502660476275 7.30000000000002
      vertex 81.9324824157106 34.8502660476275 1.2339870632566e-014
   endloop
endfacet
facet normal 0.0 0.0 -1.0
   outer loop
      vertex 50.6791870349251 8.99530452069898 1.2339870632566e-014
      vertex 54.7894029130434 5.60522044905724 1.2339870632566e-014
      vertex 47.9694029130435 5.60522044905724 1.2339870632566e-014
   endloop
endfacet
facet normal 0.0 0.0 -1.0
   outer loop
      vertex 54.7894029130434 5.60522044905724 1.2339870632566e-014
      vertex 50.6791870349251 8.99530452069898 1.2339870632566e-014
      vertex 51.5075804932734 8.85699559581843 1.2339870632566e-014
   endloop
endfacet
facet normal -0.778005873358188 0.628257002364608 0.0
   outer loop
      vertex 98.2115954371431 55.0096044968088 7.30000000000002
      vertex 81.9324824157106 34.8502660476275 1.2339870632566e-014
      vertex 81.9324824157106 34.8502660476275 7.30000000000002
   endloop
endfacet
facet normal -0.778005873358188 0.628257002364608 0.0
   outer loop
      vertex 81.9324824157106 34.8502660476275 1.2339870632566e-014
      vertex 98.2115954371431 55.0096044968088 7.30000000000002
      vertex 98.2115954371431 55.0096044968088 1.2339870632566e-014
   endloop
endfacet
facet normal -1.0 0.0 0.0
   outer loop
      vertex 98.2115954371431 57.1177536773588 7.30000000000002
      vertex 98.2115954371431 55.0096044968088 1.2339870632566e-014
      vertex 98.2115954371431 55.0096044968088 7.30000000000002
   endloop
endfacet
facet normal -1.0 0.0 0.0
   outer loop
      vertex 98.2115954371431 55.0096044968088 1.2339870632566e-014
      vertex 98.2115954371431 57.1177536773588 7.30000000000002
      vertex 98.2115954371431 57.1177536773588 1.2339870632566e-014
   endloop
endfacet
facet normal -0.663972854904299 -0.747756676968006 0.0
   outer loop
      vertex 98.2115954371431 57.1177536773588 7.30000000000002
      vertex 71.3222653333735 80.9942175397175 1.2339870632566e-014
      vertex 98.2115954371431 57.1177536773588 1.2339870632566e-014
   endloop
endfacet
facet normal -0.663972854904299 -0.747756676968006 0.0
   outer loop
      vertex 71.3222653333735 80.9942175397175 1.2339870632566e-014
      vertex 98.2115954371431 57.1177536773588 7.30000000000002
      vertex 71.3222653333735 80.9942175397175 7.30000000000002
   endloop
endfacet
facet normal 0.0 0.0 -1.0
   outer loop
      vertex 71.3222653333735 80.9942175397175 7.30000000000002
      vertex 47.0659896664401 53.9780606014004 7.30000000000002
      vertex 47.0659896664401 57.683755143845 7.30000000000002
   endloop
endfacet
facet normal 0.0 0.0 -1.0
   outer loop
      vertex 47.0659896664401 53.9780606014004 7.30000000000002
      vertex 71.3222653333735 80.9942175397175 7.30000000000002
      vertex 64.3756336428173 54.4082597877233 7.30000000000002
   endloop
endfacet
facet normal 0.0 0.0 -1.0
   outer loop
      vertex 64.3756336428173 54.4082597877233 7.30000000000002
      vertex 71.3222653333735 80.9942175397175 7.30000000000002
      vertex 73.2534044244154 63.8013270105545 7.30000000000002
   endloop
endfacet
facet normal 0.0 0.0 -1.0
   outer loop
      vertex 73.2534044244154 63.8013270105545 7.30000000000002
      vertex 71.3222653333735 80.9942175397175 7.30000000000002
      vertex 98.2115954371431 57.1177536773588 7.30000000000002
   endloop
endfacet
facet normal 0.0 0.0 -1.0
   outer loop
      vertex 73.2534044244154 63.8013270105545 7.30000000000002
      vertex 98.2115954371431 57.1177536773588 7.30000000000002
      vertex 83.8081717115344 54.0608470810015 7.30000000000001
   endloop
endfacet
facet normal 0.0 0.0 -1.0
   outer loop
      vertex 83.8081717115344 54.0608470810015 7.30000000000001
      vertex 81.9324824157106 34.8502660476275 7.30000000000002
      vertex 75.0078870826733 44.5196002834896 7.30000000000002
   endloop
endfacet
facet normal 0.0 0.0 -1.0
   outer loop
      vertex 81.9324824157106 34.8502660476275 7.30000000000002
      vertex 83.8081717115344 54.0608470810015 7.30000000000001
      vertex 98.2115954371431 55.0096044968088 7.30000000000002
   endloop
endfacet
facet normal 0.0 0.0 -1.0
   outer loop
      vertex 98.2115954371431 55.0096044968088 7.30000000000002
      vertex 83.8081717115344 54.0608470810015 7.30000000000001
      vertex 98.2115954371431 57.1177536773588 7.30000000000002
   endloop
endfacet
facet normal 0.0 0.0 -1.0
   outer loop
      vertex 64.3756336428173 54.4082597877233 7.30000000000002
      vertex 93.898811999384 6.90740358101363 7.30000000000002
      vertex 47.0659896664401 53.9780606014004 7.30000000000002
   endloop
endfacet
facet normal 0.0 0.0 -1.0
   outer loop
      vertex 93.898811999384 6.90740358101363 7.30000000000002
      vertex 64.3756336428173 54.4082597877233 7.30000000000002
      vertex 75.0078870826733 44.5196002834896 7.30000000000002
   endloop
endfacet
facet normal 0.0 0.0 -1.0
   outer loop
      vertex 93.898811999384 6.90740358101363 7.30000000000002
      vertex 75.0078870826733 44.5196002834896 7.30000000000002
      vertex 81.9324824157106 34.8502660476275 7.30000000000002
   endloop
endfacet
facet normal 0.0 0.0 -1.0
   outer loop
      vertex 93.898811999384 6.90740358101363 7.30000000000002
      vertex 81.9324824157106 34.8502660476275 7.30000000000002
      vertex 101.179150740333 14.667740541436 7.30000000000002
   endloop
endfacet
facet normal 0.678190542948293 0.734886105090782 2.93145729400825e-017
   outer loop
      vertex 73.2534044244154 63.8013270105545 1.2339870632566e-014
      vertex 83.8081717115344 54.0608470810015 7.30000000000001
      vertex 83.8081717115344 54.0608470810015 1.06252197379338e-015
   endloop
endfacet
facet normal 0.678190542948293 0.734886105090782 2.93145729400825e-017
   outer loop
      vertex 83.8081717115344 54.0608470810015 7.30000000000001
      vertex 73.2534044244154 63.8013270105545 1.2339870632566e-014
      vertex 73.2534044244154 63.8013270105545 7.30000000000002
   endloop
endfacet
facet normal 0.735072942797521 -0.677988029958488 -3.44895957482546e-017
   outer loop
      vertex 83.8081717115344 54.0608470810015 1.06252197379338e-015
      vertex 75.0078870826733 44.5196002834896 7.30000000000002
      vertex 75.0078870826733 44.5196002834896 1.2339870632566e-014
   endloop
endfacet
facet normal 0.735072942797521 -0.677988029958488 -3.44895957482546e-017
   outer loop
      vertex 75.0078870826733 44.5196002834896 7.30000000000002
      vertex 83.8081717115344 54.0608470810015 1.06252197379338e-015
      vertex 83.8081717115344 54.0608470810015 7.30000000000001
   endloop
endfacet
facet normal -0.681037155938958 -0.732248859494213 0.0
   outer loop
      vertex 75.0078870826733 44.5196002834896 7.30000000000002
      vertex 64.3756336428173 54.4082597877233 1.2339870632566e-014
      vertex 75.0078870826733 44.5196002834896 1.2339870632566e-014
   endloop
endfacet
facet normal -0.681037155938958 -0.732248859494213 0.0
   outer loop
      vertex 64.3756336428173 54.4082597877233 1.2339870632566e-014
      vertex 75.0078870826733 44.5196002834896 7.30000000000002
      vertex 64.3756336428173 54.4082597877233 7.30000000000002
   endloop
endfacet
facet normal 0.692909761233088 -0.721024314976898 0.0
   outer loop
      vertex 71.3222653333735 80.9942175397175 7.30000000000002
      vertex 47.0659896664401 57.683755143845 1.2339870632566e-014
      vertex 71.3222653333735 80.9942175397175 1.2339870632566e-014
   endloop
endfacet
facet normal 0.692909761233088 -0.721024314976898 0.0
   outer loop
      vertex 47.0659896664401 57.683755143845 1.2339870632566e-014
      vertex 71.3222653333735 80.9942175397175 7.30000000000002
      vertex 47.0659896664401 57.683755143845 7.30000000000002
   endloop
endfacet
facet normal 1.0 0.0 0.0
   outer loop
      vertex 47.0659896664401 57.683755143845 1.2339870632566e-014
      vertex 47.0659896664401 53.9780606014004 7.30000000000002
      vertex 47.0659896664401 53.9780606014004 1.2339870632566e-014
   endloop
endfacet
facet normal 1.0 0.0 0.0
   outer loop
      vertex 47.0659896664401 53.9780606014004 7.30000000000002
      vertex 47.0659896664401 57.683755143845 1.2339870632566e-014
      vertex 47.0659896664401 57.683755143845 7.30000000000002
   endloop
endfacet
facet normal 0.70889543705402 0.705313589351566 0.0
   outer loop
      vertex 47.0659896664401 53.9780606014004 1.2339870632566e-014
      vertex 93.898811999384 6.90740358101363 7.30000000000002
      vertex 93.898811999384 6.90740358101363 1.2339870632566e-014
   endloop
endfacet
facet normal 0.70889543705402 0.705313589351566 0.0
   outer loop
      vertex 93.898811999384 6.90740358101363 7.30000000000002
      vertex 47.0659896664401 53.9780606014004 1.2339870632566e-014
      vertex 47.0659896664401 53.9780606014004 7.30000000000002
   endloop
endfacet
facet normal 0.671106537687925 -0.664962109752206 0.32778256156547
   outer loop
      vertex 70.3022003664234 21.2613603044114 1.2339870632566e-014
      vertex 65.6622003664234 21.2613603044114 9.50000000000003
      vertex 54.7894029130434 5.60522044905724 1.2339870632566e-014
   endloop
endfacet
facet normal 0.0 0.0 -1.0
   outer loop
      vertex 123.996932966151 54.4257453088327 1.2339870632566e-014
      vertex 99.9307796805894 27.2687386426003 1.2339870632566e-014
      vertex 96.8307796805893 27.2687386426003 1.2339870632566e-014
   endloop
endfacet
facet normal 0.0 0.0 -1.0
   outer loop
      vertex 99.9307796805894 27.2687386426003 1.2339870632566e-014
      vertex 123.996932966151 54.4257453088327 1.2339870632566e-014
      vertex 128.09780967098 55.323130942137 1.2339870632566e-014
   endloop
endfacet
facet normal 0.0 0.0 -1.0
   outer loop
      vertex 54.2595113589845 104.274206086348 1.2339870632566e-014
      vertex 65.7890558437023 88.8906057697442 1.2339870632566e-014
      vertex 51.680170633105 102.017255678081 1.2339870632566e-014
   endloop
endfacet
facet normal 0.0 0.0 -1.0
   outer loop
      vertex 65.7890558437023 88.8906057697442 1.2339870632566e-014
      vertex 54.2595113589845 104.274206086348 1.2339870632566e-014
      vertex 70.5690558437023 88.8906057697442 1.2339870632566e-014
   endloop
endfacet
facet normal 0.0 0.0 -1.0
   outer loop
      vertex 54.2595113589845 104.274206086348 1.2339870632566e-014
      vertex 51.680170633105 102.017255678081 1.2339870632566e-014
      vertex 48.9302258618652 104.274206086348 1.2339870632566e-014
   endloop
endfacet
facet normal 0.0 0.0 -1.0
   outer loop
      vertex 58.0661656432107 33.8878482636859 1.2339870632566e-014
      vertex 52.6034081428421 23.4940174950195 1.2339870632566e-014
      vertex 50.3228396420676 25.8235254502055 1.2339870632566e-014
   endloop
endfacet
facet normal 0.0 0.0 -1.0
   outer loop
      vertex 52.6034081428421 23.4940174950195 1.2339870632566e-014
      vertex 58.0661656432107 33.8878482636859 1.2339870632566e-014
      vertex 58.0661656432107 28.7878482636859 1.2339870632566e-014
   endloop
endfacet
facet normal 0.658239264009127 -0.679243752517767 -0.324575100681345
   outer loop
      vertex 58.0661656432107 28.7878482636859 9.50000000000003
      vertex 52.6034081428421 23.4940174950195 9.50000000000003
      vertex 50.3228396420676 25.8235254502055 1.2339870632566e-014
   endloop
endfacet
facet normal 0.661685710846667 -0.67588503775562 -0.324578859138152
   outer loop
      vertex 52.6034081428421 23.4940174950195 9.50000000000003
      vertex 50.3228396420676 21.2613603044114 9.50000000000003
      vertex 50.3228396420676 25.8235254502055 1.2339870632566e-014
   endloop
endfacet
facet normal 0.0 0.0 -1.0
   outer loop
      vertex 50.3228396420676 25.8235254502055 1.2339870632566e-014
      vertex 50.3228396420676 21.2613603044114 1.2339870632566e-014
      vertex 48.2152965028075 22.283375465225 1.2339870632566e-014
   endloop
endfacet
facet normal 0.0 0.0 -1.0
   outer loop
      vertex 50.3228396420676 21.2613603044114 1.2339870632566e-014
      vertex 50.3228396420676 25.8235254502055 1.2339870632566e-014
      vertex 52.6034081428421 23.4940174950195 1.2339870632566e-014
   endloop
endfacet
facet normal 0.0 0.0 -1.0
   outer loop
      vertex 65.7890558437023 88.8906057697442 1.2339870632566e-014
      vertex 58.7032048531877 76.1368619950363 1.2339870632566e-014
      vertex 58.7032048531877 81.7168619950362 1.2339870632566e-014
   endloop
endfacet
facet normal 0.0 0.0 -1.0
   outer loop
      vertex 58.7032048531877 76.1368619950363 1.2339870632566e-014
      vertex 65.7890558437023 88.8906057697442 1.2339870632566e-014
      vertex 70.5690558437023 88.8906057697442 1.2339870632566e-014
   endloop
endfacet
facet normal 0.0 0.0 -1.0
   outer loop
      vertex 22.3683864853346 54.3778622260445 1.2339870632566e-014
      vertex 18.9405381252747 51.0220277984433 1.2339870632566e-014
      vertex 18.9405381252747 57.8792698887475 1.2339870632566e-014
   endloop
endfacet
facet normal 0.0 0.0 -1.0
   outer loop
      vertex 22.3683864853346 54.3778622260445 1.2339870632566e-014
      vertex 48.2152965028075 22.283375465225 1.2339870632566e-014
      vertex 18.9405381252747 51.0220277984433 1.2339870632566e-014
   endloop
endfacet
facet normal 0.0 0.0 -1.0
   outer loop
      vertex 48.2152965028075 22.283375465225 1.2339870632566e-014
      vertex 22.3683864853346 54.3778622260445 1.2339870632566e-014
      vertex 50.3228396420676 25.8235254502055 1.2339870632566e-014
   endloop
endfacet
facet normal 0.640901730404856 -0.654655047179497 0.400838796982619
   outer loop
      vertex 51.680170633105 88.8906057697442 9.50000000000003
      vertex 22.3683864853346 54.3778622260445 1.2339870632566e-014
      vertex 51.680170633105 83.0738499259741 1.2339870632566e-014
   endloop
endfacet
facet normal 0.620968547158312 -0.597626184839143 0.507189320308212
   outer loop
      vertex 101.179150740333 51.8977536773588 1.2339870632566e-014
      vertex 98.2115954371431 55.0096044968088 7.30000000000002
      vertex 84.7724824157106 34.8502660476275 1.2339870632566e-014
   endloop
endfacet
facet normal 7.66920191699561e-015 -6.90270568983801e-015 -1.0
   outer loop
      vertex 147.006222781914 54.4257453088327 3.70227057706205e-014
      vertex 143.702847203293 51.063493018476 3.48970894658215e-014
      vertex 143.787786834445 54.4257453088327 1.2339870632566e-014
   endloop
endfacet
facet normal 0.0 0.0 -1.0
   outer loop
      vertex 58.7032048531877 81.7168619950362 1.2339870632566e-014
      vertex 51.680170633105 83.0738499259741 1.2339870632566e-014
      vertex 51.680170633105 88.8906057697442 1.2339870632566e-014
   endloop
endfacet
facet normal 0.0 0.0 -1.0
   outer loop
      vertex 51.680170633105 83.0738499259741 1.2339870632566e-014
      vertex 58.7032048531877 81.7168619950362 1.2339870632566e-014
      vertex 58.7032048531877 76.1368619950363 1.2339870632566e-014
   endloop
endfacet
facet normal 0.0 0.0 -1.0
   outer loop
      vertex 70.3022003664234 21.2613603044114 1.2339870632566e-014
      vertex 58.0661656432107 28.7878482636859 1.2339870632566e-014
      vertex 58.0661656432107 33.8878482636859 1.2339870632566e-014
   endloop
endfacet
facet normal 0.0 0.0 -1.0
   outer loop
      vertex 58.0661656432107 28.7878482636859 1.2339870632566e-014
      vertex 70.3022003664234 21.2613603044114 1.2339870632566e-014
      vertex 65.6622003664234 21.2613603044114 1.2339870632566e-014
   endloop
endfacet
facet normal 7.6692019169956e-015 2.32371829020724e-015 -1.0
   outer loop
      vertex 147.006222781914 54.4257453088327 3.70227057706205e-014
      vertex 143.787786834445 54.4257453088327 1.2339870632566e-014
      vertex 142.809899932342 57.6531641124898 1.2339870632566e-014
   endloop
endfacet
facet normal 0.0 0.0 -1.0
   outer loop
      vertex 51.680170633105 88.8906057697442 1.2339870632566e-014
      vertex 22.3683864853346 54.3778622260445 1.2339870632566e-014
      vertex 18.9405381252747 57.8792698887475 1.2339870632566e-014
   endloop
endfacet
facet normal 0.0 0.0 -1.0
   outer loop
      vertex 22.3683864853346 54.3778622260445 1.2339870632566e-014
      vertex 51.680170633105 88.8906057697442 1.2339870632566e-014
      vertex 51.680170633105 83.0738499259741 1.2339870632566e-014
   endloop
endfacet
facet normal 0.0 0.0 -1.0
   outer loop
      vertex 47.0659896664401 53.9780606014004 1.2339870632566e-014
      vertex 93.898811999384 3.02740358101357 1.2339870632566e-014
      vertex 45.0638819977041 51.8977536773588 1.2339870632566e-014
   endloop
endfacet
facet normal 0.0 0.0 -1.0
   outer loop
      vertex 93.898811999384 3.02740358101357 1.2339870632566e-014
      vertex 47.0659896664401 53.9780606014004 1.2339870632566e-014
      vertex 93.898811999384 6.90740358101363 1.2339870632566e-014
   endloop
endfacet
facet normal -0.699183896123941 0.686940422063223 -0.198128079626659
   outer loop
      vertex 108.647147994011 18.1229891970847 9.50000000000003
      vertex 143.702847203293 51.063493018476 3.48970894658215e-014
      vertex 108.647147994011 15.3829891970847 1.2339870632566e-014
   endloop
endfacet
facet normal -0.699183896123941 0.686940422063223 -0.198128079626659
   outer loop
      vertex 143.702847203293 51.063493018476 3.48970894658215e-014
      vertex 108.647147994011 18.1229891970847 9.50000000000003
      vertex 147.006222781914 54.4257453088327 3.70227057706205e-014
   endloop
endfacet
facet normal -0.957034180896783 -0.289975130994407 1.0767776021066e-017
   outer loop
      vertex 142.809899932342 57.6531641124898 1.2339870632566e-014
      vertex 143.787786834445 54.4257453088327 1.2339870632566e-014
      vertex 143.787786834445 54.4257453088327 9.50000000000003
   endloop
endfacet
facet normal 0.597047346433888 0.776287049972566 0.20226933074775
   outer loop
      vertex 143.787786834445 54.4257453088327 9.50000000000003
      vertex 147.006222781914 54.4257453088327 3.70227057706205e-014
      vertex 142.809899932342 57.6531641124898 1.2339870632566e-014
   endloop
endfacet
facet normal 0.692452825105592 0.701832257067299 0.1671543237344
   outer loop
      vertex 143.787786834445 54.4257453088327 9.50000000000003
      vertex 142.809899932342 57.6531641124898 1.2339870632566e-014
      vertex 95.0449380082258 104.779785170951 1.2339870632566e-014
   endloop
endfacet
facet normal 0.676327284617733 0.698693742498121 0.233256207367721
   outer loop
      vertex 143.787786834445 54.4257453088327 9.50000000000003
      vertex 95.0449380082258 104.779785170951 1.2339870632566e-014
      vertex 95.0449380082258 101.608246862807 9.50000000000003
   endloop
endfacet
facet normal 0.0 0.948537272828323 0.316665504997636
   outer loop
      vertex 95.0449380082258 101.608246862807 9.50000000000003
      vertex 95.0449380082258 104.779785170951 1.2339870632566e-014
      vertex 91.7685154530634 104.779785170951 1.2339870632566e-014
   endloop
endfacet
facet normal 0.658509114738509 -0.752572751171809 0.0
   outer loop
      vertex 51.680170633105 102.017255678081 9.50000000000003
      vertex 51.680170633105 102.017255678081 1.2339870632566e-014
      vertex 54.2595113589845 104.274206086348 1.2339870632566e-014
   endloop
endfacet
facet normal 0.647756684098226 -0.6270208141306 -0.432731067584789
   outer loop
      vertex 95.0449380082258 101.608246862807 9.50000000000003
      vertex 82.4628691963253 88.6100831830364 9.50000000000003
      vertex 91.7685154530634 104.779785170951 1.2339870632566e-014
   endloop
endfacet
facet normal 0.625904646889353 -0.630167305544141 -0.459491610397351
   outer loop
      vertex 91.7685154530634 104.779785170951 1.2339870632566e-014
      vertex 82.4628691963253 88.6100831830364 9.50000000000003
      vertex 75.4886913875024 88.6100831830364 1.2339870632566e-014
   endloop
endfacet
facet normal 0.0 -1.0 0.0
   outer loop
      vertex 65.7890558437023 88.8906057697442 9.50000000000003
      vertex 65.7890558437023 88.8906057697442 1.2339870632566e-014
      vertex 70.5690558437023 88.8906057697442 1.2339870632566e-014
   endloop
endfacet
facet normal -1.75641289850262e-017 0.972920421942692 0.231140330896307
   outer loop
      vertex 51.680170633105 102.017255678081 9.50000000000003
      vertex 54.2595113589845 104.274206086348 1.2339870632566e-014
      vertex 48.9302258618652 104.274206086348 1.2339870632566e-014
   endloop
endfacet
facet normal 0.644367595043232 0.692584055747504 0.324218642558598
   outer loop
      vertex 70.5690558437023 88.8906057697442 1.2339870632566e-014
      vertex 51.680170633105 102.017255678081 9.50000000000003
      vertex 65.7890558437023 88.8906057697442 9.50000000000003
   endloop
endfacet
facet normal 0.0 -1.0 0.0
   outer loop
      vertex 6.16593233194441 56.7109370032519 9.50000000000003
      vertex 2.22593233194446 56.7109370032519 1.2339870632566e-014
      vertex 6.16593233194441 56.7109370032519 1.2339870632566e-014
   endloop
endfacet
facet normal 0.645775338428525 0.684644777065997 0.337987783083612
   outer loop
      vertex 70.5690558437023 88.8906057697442 1.2339870632566e-014
      vertex 54.2595113589845 104.274206086348 1.2339870632566e-014
      vertex 51.680170633105 102.017255678081 9.50000000000003
   endloop
endfacet
facet normal -0.677098182277922 0.6802055192933 0.280817561913185
   outer loop
      vertex 51.680170633105 102.017255678081 9.50000000000003
      vertex 2.22593233194446 56.7109370032519 1.2339870632566e-014
      vertex 6.16593233194441 56.7109370032519 9.50000000000003
   endloop
endfacet
facet normal 0.881371699070113 -0.299276459614764 -0.365537315193284
   outer loop
      vertex 6.16593233194441 56.7109370032519 9.50000000000003
      vertex 5.78187404574966 55.5798821094553 9.50000000000003
      vertex 2.22593233194446 56.7109370032519 1.2339870632566e-014
   endloop
endfacet
facet normal -0.668529918123442 0.656456507962523 0.349474751201734
   outer loop
      vertex 51.680170633105 102.017255678081 9.50000000000003
      vertex 48.9302258618652 104.274206086348 1.2339870632566e-014
      vertex 2.22593233194446 56.7109370032519 1.2339870632566e-014
   endloop
endfacet
facet normal 0.702903514424778 -0.711285209609546 5.02823423996915e-017
   outer loop
      vertex 5.78187404574966 55.5798821094553 9.50000000000003
      vertex 2.14009377254878 51.9810161156004 1.2339870632566e-014
      vertex 5.78187404574966 55.5798821094553 1.2339870632566e-014
   endloop
endfacet
facet normal -0.781125362129424 0.624374221631688 0.0
   outer loop
      vertex 50.6791870349251 8.99530452069898 1.2339870632566e-014
      vertex 47.9694029130435 5.60522044905724 1.2339870632566e-014
      vertex 50.6791870349251 8.99530452069898 9.50000000000003
   endloop
endfacet
facet normal -0.935741048348228 0.0169818196679181 0.352278736566552
   outer loop
      vertex 2.22593233194446 56.7109370032519 1.2339870632566e-014
      vertex 2.14009377254878 51.9810161156004 1.2339870632566e-014
      vertex 5.78187404574966 55.5798821094553 9.50000000000003
   endloop
endfacet
facet normal 0.655864832784437 0.632109814026161 -0.412648160214551
   outer loop
      vertex 50.6791870349251 8.99530452069898 9.50000000000003
      vertex 47.9694029130435 5.60522044905724 1.2339870632566e-014
      vertex 5.78187404574966 55.5798821094553 9.50000000000003
   endloop
endfacet
facet normal 0.703847434363907 0.710351173110417 3.09180540698659e-017
   outer loop
      vertex 51.5075804932734 8.85699559581843 9.50000000000003
      vertex 54.7894029130434 5.60522044905724 1.2339870632566e-014
      vertex 51.5075804932734 8.85699559581843 1.2339870632566e-014
   endloop
endfacet
facet normal 0.626139045102279 0.618760701579257 -0.474431333682286
   outer loop
      vertex 47.9694029130435 5.60522044905724 1.2339870632566e-014
      vertex 2.14009377254878 51.9810161156004 1.2339870632566e-014
      vertex 5.78187404574966 55.5798821094553 9.50000000000003
   endloop
endfacet
facet normal 0.0 1.0 0.0
   outer loop
      vertex 65.6622003664234 21.2613603044114 9.50000000000003
      vertex 70.3022003664234 21.2613603044114 1.2339870632566e-014
      vertex 65.6622003664234 21.2613603044114 1.2339870632566e-014
   endloop
endfacet
facet normal -0.158551735668289 -0.949636625046575 0.27028064578642
   outer loop
      vertex 50.6791870349251 8.99530452069898 9.50000000000003
      vertex 54.7894029130434 5.60522044905724 1.2339870632566e-014
      vertex 51.5075804932734 8.85699559581843 9.50000000000003
   endloop
endfacet
facet normal 1.18654034336496e-017 -0.941828959390461 0.336092563520053
   outer loop
      vertex 50.6791870349251 8.99530452069898 9.50000000000003
      vertex 47.9694029130435 5.60522044905724 1.2339870632566e-014
      vertex 54.7894029130434 5.60522044905724 1.2339870632566e-014
   endloop
endfacet
facet normal -1.0 0.0 0.0
   outer loop
      vertex 58.0661656432107 33.8878482636859 1.2339870632566e-014
      vertex 58.0661656432107 28.7878482636859 1.2339870632566e-014
      vertex 58.0661656432107 28.7878482636859 9.50000000000003
   endloop
endfacet
facet normal 0.59298687905513 -0.676657294426088 0.436464737600213
   outer loop
      vertex 65.6622003664234 21.2613603044114 9.50000000000003
      vertex 51.5075804932734 8.85699559581843 9.50000000000003
      vertex 54.7894029130434 5.60522044905724 1.2339870632566e-014
   endloop
endfacet
facet normal -0.859259705092369 0.511539596907781 3.21403296875795e-017
   outer loop
      vertex 50.3228396420676 25.8235254502055 1.2339870632566e-014
      vertex 48.2152965028075 22.283375465225 1.2339870632566e-014
      vertex 48.2152965028075 22.283375465225 9.50000000000003
   endloop
endfacet
facet normal 0.0 1.0 0.0
   outer loop
      vertex 98.2115954371431 57.1177536773588 7.30000000000002
      vertex 101.179150740333 57.1177536773588 1.2339870632566e-014
      vertex 98.2115954371431 57.1177536773588 1.2339870632566e-014
   endloop
endfacet
facet normal 1.47268357790152e-017 0.971070561365945 0.238792723608634
   outer loop
      vertex 71.3222653333735 80.9942175397175 7.30000000000002
      vertex 75.3171428729584 82.7893361971002 1.2339870632566e-014
      vertex 69.5971428729584 82.7893361971002 1.2339870632566e-014
   endloop
endfacet
facet normal 0.409875448972052 -0.912141500168674 -4.53759749730267e-017
   outer loop
      vertex 71.3222653333735 80.9942175397175 7.30000000000002
      vertex 71.3222653333735 80.9942175397175 1.2339870632566e-014
      vertex 75.3171428729584 82.7893361971002 1.2339870632566e-014
   endloop
endfacet
facet normal 0.614657690987954 0.619217067270718 0.488637029409363
   outer loop
      vertex 101.179150740333 57.1177536773588 1.2339870632566e-014
      vertex 75.3171428729584 82.7893361971002 1.2339870632566e-014
      vertex 71.3222653333735 80.9942175397175 7.30000000000002
   endloop
endfacet
facet normal 0.641032487864861 0.721921565639082 0.260588953271246
   outer loop
      vertex 98.2115954371431 57.1177536773588 7.30000000000002
      vertex 101.179150740333 57.1177536773588 1.2339870632566e-014
      vertex 71.3222653333735 80.9942175397175 7.30000000000002
   endloop
endfacet
facet normal -0.699562031609799 0.685996415285966 0.200054697882291
   outer loop
      vertex 69.5971428729584 82.7893361971002 1.2339870632566e-014
      vertex 45.0638819977041 57.7709287572425 1.2339870632566e-014
      vertex 47.0659896664401 57.683755143845 7.30000000000002
   endloop
endfacet
facet normal -0.0434997076722029 -0.999053439728042 0.0
   outer loop
      vertex 47.0659896664401 57.683755143845 7.30000000000002
      vertex 45.0638819977041 57.7709287572425 1.2339870632566e-014
      vertex 47.0659896664401 57.683755143845 1.2339870632566e-014
   endloop
endfacet
facet normal 0.67293725685772 -0.700753061842435 0.236855640953006
   outer loop
      vertex 64.3756336428173 54.4082597877233 7.30000000000002
      vertex 66.6770676259381 54.1509287572426 1.2339870632566e-014
      vertex 73.4882301505996 60.6917278988215 1.2339870632566e-014
   endloop
endfacet
facet normal -0.721024314976916 -0.69290976123307 -2.22046687093542e-017
   outer loop
      vertex 69.5971428729584 82.7893361971002 1.2339870632566e-014
      vertex 71.3222653333735 80.9942175397175 1.2339870632566e-014
      vertex 71.3222653333735 80.9942175397175 7.30000000000002
   endloop
endfacet
facet normal 0.720519341915929 -0.69343484043206 0.0
   outer loop
      vertex 47.0659896664401 53.9780606014004 7.30000000000002
      vertex 45.0638819977041 51.8977536773588 1.2339870632566e-014
      vertex 47.0659896664401 53.9780606014004 1.2339870632566e-014
   endloop
endfacet
facet normal -0.655817552152952 0.682427103421686 0.322794960932784
   outer loop
      vertex 71.3222653333735 80.9942175397175 7.30000000000002
      vertex 69.5971428729584 82.7893361971002 1.2339870632566e-014
      vertex 47.0659896664401 57.683755143845 7.30000000000002
   endloop
endfacet
facet normal -0.657800268909143 -0.657323510552598 0.36772898811199
   outer loop
      vertex 93.898811999384 3.02740358101357 1.2339870632566e-014
      vertex 47.0659896664401 53.9780606014004 7.30000000000002
      vertex 45.0638819977041 51.8977536773588 1.2339870632566e-014
   endloop
endfacet
facet normal 0.0306875550107417 0.999529026075513 -4.32084039240075e-018
   outer loop
      vertex 83.8081717115344 54.0608470810015 7.30000000000001
      vertex 83.8081717115344 54.0608470810015 1.06252197379338e-015
      vertex 80.8741077208059 54.1509287572426 1.2339870632566e-014
   endloop
endfacet
facet normal -0.676739952831653 -0.72762852116627 -0.112159580182874
   outer loop
      vertex 64.3756336428173 54.4082597877233 7.30000000000002
      vertex 73.4882301505996 47.0582274017698 1.2339870632566e-014
      vertex 75.0078870826733 44.5196002834896 7.30000000000002
   endloop
endfacet
facet normal -0.663785882974674 -0.660431961062389 0.351024110811236
   outer loop
      vertex 93.898811999384 6.90740358101363 7.30000000000002
      vertex 47.0659896664401 53.9780606014004 7.30000000000002
      vertex 93.898811999384 3.02740358101357 1.2339870632566e-014
   endloop
endfacet
facet normal -0.642077486246221 -0.725034602248249 0.249121109499892
   outer loop
      vertex 83.8081717115344 54.0608470810015 7.30000000000001
      vertex 73.4882301505996 60.6917278988215 1.2339870632566e-014
      vertex 80.8741077208059 54.1509287572426 1.2339870632566e-014
   endloop
endfacet
facet normal 0.997160774507206 0.0753019905725514 2.5584509582744e-018
   outer loop
      vertex 73.2534044244154 63.8013270105545 7.30000000000002
      vertex 73.4882301505996 60.6917278988215 1.2339870632566e-014
      vertex 73.2534044244154 63.8013270105545 1.2339870632566e-014
   endloop
endfacet
facet normal -0.858017251525093 -0.513620868039184 -5.28492575042531e-017
   outer loop
      vertex 73.4882301505996 47.0582274017698 1.2339870632566e-014
      vertex 75.0078870826733 44.5196002834896 1.2339870632566e-014
      vertex 75.0078870826733 44.5196002834896 7.30000000000002
   endloop
endfacet
facet normal -0.651140120528856 -0.705574313914131 0.279609425775079
   outer loop
      vertex 73.2534044244154 63.8013270105545 7.30000000000002
      vertex 73.4882301505996 60.6917278988215 1.2339870632566e-014
      vertex 83.8081717115344 54.0608470810015 7.30000000000001
   endloop
endfacet
facet normal -0.685112699750659 0.631907641486185 0.36237179977439
   outer loop
      vertex 83.8081717115344 54.0608470810015 7.30000000000001
      vertex 73.4882301505996 47.0582274017698 1.2339870632566e-014
      vertex 75.0078870826733 44.5196002834896 7.30000000000002
   endloop
endfacet
facet normal -0.706862817690842 -0.678804491072724 -0.1989206371035
   outer loop
      vertex 64.3756336428173 54.4082597877233 7.30000000000002
      vertex 66.6770676259381 54.1509287572426 1.2339870632566e-014
      vertex 73.4882301505996 47.0582274017698 1.2339870632566e-014
   endloop
endfacet
facet normal -0.665717875856024 0.693235268333475 0.27612419760745
   outer loop
      vertex 83.8081717115344 54.0608470810015 7.30000000000001
      vertex 80.8741077208059 54.1509287572426 1.2339870632566e-014
      vertex 73.4882301505996 47.0582274017698 1.2339870632566e-014
   endloop
endfacet
facet normal 0.692989269539247 -0.654972411367689 0.301292237952882
   outer loop
      vertex 73.4882301505996 60.6917278988215 1.2339870632566e-014
      vertex 73.2534044244154 63.8013270105545 7.30000000000002
      vertex 64.3756336428173 54.4082597877233 7.30000000000002
   endloop
endfacet
facet normal -0.70450688318971 -0.671431194327438 0.229891719777702
   outer loop
      vertex 96.8307796805893 27.2687386426003 1.2339870632566e-014
      vertex 108.647147994011 18.1229891970847 9.50000000000003
      vertex 99.9307796805894 27.2687386426003 9.50000000000003
   endloop
endfacet
facet normal -0.694951069387607 -0.690894405382936 0.199268491657818
   outer loop
      vertex 96.8307796805893 27.2687386426003 1.2339870632566e-014
      vertex 108.647147994011 15.3829891970847 1.2339870632566e-014
      vertex 108.647147994011 18.1229891970847 9.50000000000003
   endloop
endfacet
facet normal -0.686559856398022 0.689316377231977 0.231254179773059
   outer loop
      vertex 128.09780967098 55.323130942137 9.50000000000003
      vertex 123.996932966151 54.4257453088327 1.2339870632566e-014
      vertex 99.9307796805894 27.2687386426003 9.50000000000003
   endloop
endfacet
facet normal -0.725342598354959 0.62149665071414 -0.296006804250818
   outer loop
      vertex 95.0449380082258 87.8309342337392 9.50000000000003
      vertex 88.6627829104145 75.8577182983307 1.2339870632566e-014
      vertex 89.7054874761575 81.5993142913502 9.50000000000003
   endloop
endfacet
facet normal 0.695916217924904 -0.718122982245449 0.0
   outer loop
      vertex 58.0661656432107 28.7878482636859 9.50000000000003
      vertex 52.6034081428421 23.4940174950195 1.2339870632566e-014
      vertex 58.0661656432107 28.7878482636859 1.2339870632566e-014
   endloop
endfacet
facet normal 0.695916217924904 -0.718122982245449 0.0
   outer loop
      vertex 52.6034081428421 23.4940174950195 1.2339870632566e-014
      vertex 58.0661656432107 28.7878482636859 9.50000000000003
      vertex 52.6034081428421 23.4940174950195 9.50000000000003
   endloop
endfacet
facet normal 0.69956088980813 -0.714572992388362 0.0
   outer loop
      vertex 52.6034081428421 23.4940174950195 9.50000000000003
      vertex 50.3228396420676 21.2613603044114 1.2339870632566e-014
      vertex 52.6034081428421 23.4940174950195 1.2339870632566e-014
   endloop
endfacet
facet normal 0.69956088980813 -0.714572992388362 0.0
   outer loop
      vertex 50.3228396420676 21.2613603044114 1.2339870632566e-014
      vertex 52.6034081428421 23.4940174950195 9.50000000000003
      vertex 50.3228396420676 21.2613603044114 9.50000000000003
   endloop
endfacet
facet normal -0.436334366054397 -0.899784597000809 0.0
   outer loop
      vertex 50.3228396420676 21.2613603044114 9.50000000000003
      vertex 48.2152965028075 22.283375465225 1.2339870632566e-014
      vertex 50.3228396420676 21.2613603044114 1.2339870632566e-014
   endloop
endfacet
facet normal -0.436334366054397 -0.899784597000809 0.0
   outer loop
      vertex 48.2152965028075 22.283375465225 1.2339870632566e-014
      vertex 50.3228396420676 21.2613603044114 9.50000000000003
      vertex 48.2152965028075 22.283375465225 9.50000000000003
   endloop
endfacet
facet normal -0.700542445643345 -0.713610735521854 0.0
   outer loop
      vertex 48.2152965028075 22.283375465225 9.50000000000003
      vertex 18.9405381252747 51.0220277984433 1.2339870632566e-014
      vertex 48.2152965028075 22.283375465225 1.2339870632566e-014
   endloop
endfacet
facet normal -0.700542445643345 -0.713610735521854 0.0
   outer loop
      vertex 18.9405381252747 51.0220277984433 1.2339870632566e-014
      vertex 48.2152965028075 22.283375465225 9.50000000000003
      vertex 18.9405381252747 51.0220277984433 9.50000000000003
   endloop
endfacet
facet normal -1.0 0.0 0.0
   outer loop
      vertex 18.9405381252747 57.8792698887475 9.50000000000003
      vertex 18.9405381252747 51.0220277984433 1.2339870632566e-014
      vertex 18.9405381252747 51.0220277984433 9.50000000000003
   endloop
endfacet
facet normal -1.0 0.0 0.0
   outer loop
      vertex 18.9405381252747 51.0220277984433 1.2339870632566e-014
      vertex 18.9405381252747 57.8792698887475 9.50000000000003
      vertex 18.9405381252747 57.8792698887475 1.2339870632566e-014
   endloop
endfacet
facet normal -0.687684365593456 0.726009788720734 0.0
   outer loop
      vertex 18.9405381252747 57.8792698887475 9.50000000000003
      vertex 51.680170633105 88.8906057697442 1.2339870632566e-014
      vertex 18.9405381252747 57.8792698887475 1.2339870632566e-014
   endloop
endfacet
facet normal -0.687684365593456 0.726009788720734 0.0
   outer loop
      vertex 51.680170633105 88.8906057697442 1.2339870632566e-014
      vertex 18.9405381252747 57.8792698887475 9.50000000000003
      vertex 51.680170633105 88.8906057697442 9.50000000000003
   endloop
endfacet
facet normal 0.0 0.0 -1.0
   outer loop
      vertex 51.680170633105 102.017255678081 9.50000000000003
      vertex 18.9405381252747 57.8792698887475 9.50000000000003
      vertex 6.16593233194441 56.7109370032519 9.50000000000003
   endloop
endfacet
facet normal 0.0 0.0 -1.0
   outer loop
      vertex 18.9405381252747 57.8792698887475 9.50000000000003
      vertex 51.680170633105 102.017255678081 9.50000000000003
      vertex 51.680170633105 88.8906057697442 9.50000000000003
   endloop
endfacet
facet normal 0.0 0.0 -1.0
   outer loop
      vertex 51.680170633105 88.8906057697442 9.50000000000003
      vertex 51.680170633105 102.017255678081 9.50000000000003
      vertex 65.7890558437023 88.8906057697442 9.50000000000003
   endloop
endfacet
facet normal 0.0 0.0 -1.0
   outer loop
      vertex 51.680170633105 88.8906057697442 9.50000000000003
      vertex 65.7890558437023 88.8906057697442 9.50000000000003
      vertex 58.7032048531877 81.7168619950362 9.50000000000003
   endloop
endfacet
facet normal 0.0 0.0 -1.0
   outer loop
      vertex 6.16593233194441 56.7109370032519 9.50000000000003
      vertex 50.6791870349251 8.99530452069898 9.50000000000003
      vertex 5.78187404574966 55.5798821094553 9.50000000000003
   endloop
endfacet
facet normal 0.0 0.0 -1.0
   outer loop
      vertex 50.6791870349251 8.99530452069898 9.50000000000003
      vertex 6.16593233194441 56.7109370032519 9.50000000000003
      vertex 18.9405381252747 51.0220277984433 9.50000000000003
   endloop
endfacet
facet normal 0.0 0.0 -1.0
   outer loop
      vertex 18.9405381252747 51.0220277984433 9.50000000000003
      vertex 6.16593233194441 56.7109370032519 9.50000000000003
      vertex 18.9405381252747 57.8792698887475 9.50000000000003
   endloop
endfacet
facet normal 0.0 0.0 -1.0
   outer loop
      vertex 50.6791870349251 8.99530452069898 9.50000000000003
      vertex 18.9405381252747 51.0220277984433 9.50000000000003
      vertex 48.2152965028075 22.283375465225 9.50000000000003
   endloop
endfacet
facet normal 0.0 0.0 -1.0
   outer loop
      vertex 50.6791870349251 8.99530452069898 9.50000000000003
      vertex 48.2152965028075 22.283375465225 9.50000000000003
      vertex 50.3228396420676 21.2613603044114 9.50000000000003
   endloop
endfacet
facet normal 0.0 0.0 -1.0
   outer loop
      vertex 50.6791870349251 8.99530452069898 9.50000000000003
      vertex 50.3228396420676 21.2613603044114 9.50000000000003
      vertex 52.6034081428421 23.4940174950195 9.50000000000003
   endloop
endfacet
facet normal 0.0 0.0 -1.0
   outer loop
      vertex 50.6791870349251 8.99530452069898 9.50000000000003
      vertex 52.6034081428421 23.4940174950195 9.50000000000003
      vertex 51.5075804932734 8.85699559581843 9.50000000000003
   endloop
endfacet
facet normal 0.0 0.0 -1.0
   outer loop
      vertex 51.5075804932734 8.85699559581843 9.50000000000003
      vertex 52.6034081428421 23.4940174950195 9.50000000000003
      vertex 65.6622003664234 21.2613603044114 9.50000000000003
   endloop
endfacet
facet normal 0.0 0.0 -1.0
   outer loop
      vertex 65.6622003664234 21.2613603044114 9.50000000000003
      vertex 52.6034081428421 23.4940174950195 9.50000000000003
      vertex 58.0661656432107 28.7878482636859 9.50000000000003
   endloop
endfacet
facet normal -0.703847434363884 -0.71035117311044 0.0
   outer loop
      vertex 65.6622003664234 21.2613603044114 9.50000000000003
      vertex 58.0661656432107 28.7878482636859 1.2339870632566e-014
      vertex 65.6622003664234 21.2613603044114 1.2339870632566e-014
   endloop
endfacet
facet normal -0.703847434363884 -0.71035117311044 0.0
   outer loop
      vertex 58.0661656432107 28.7878482636859 1.2339870632566e-014
      vertex 65.6622003664234 21.2613603044114 9.50000000000003
      vertex 58.0661656432107 28.7878482636859 9.50000000000003
   endloop
endfacet
facet normal 0.720025991705892 0.6939470954388 0.0
   outer loop
      vertex 5.78187404574966 55.5798821094553 1.2339870632566e-014
      vertex 50.6791870349251 8.99530452069898 9.50000000000003
      vertex 50.6791870349251 8.99530452069898 1.2339870632566e-014
   endloop
endfacet
facet normal 0.720025991705892 0.6939470954388 0.0
   outer loop
      vertex 50.6791870349251 8.99530452069898 9.50000000000003
      vertex 5.78187404574966 55.5798821094553 1.2339870632566e-014
      vertex 5.78187404574966 55.5798821094553 9.50000000000003
   endloop
endfacet
facet normal 0.946900340381265 -0.321527207846932 0.0
   outer loop
      vertex 6.16593233194441 56.7109370032519 1.2339870632566e-014
      vertex 5.78187404574966 55.5798821094553 9.50000000000003
      vertex 5.78187404574966 55.5798821094553 1.2339870632566e-014
   endloop
endfacet
facet normal 0.946900340381265 -0.321527207846932 0.0
   outer loop
      vertex 5.78187404574966 55.5798821094553 9.50000000000003
      vertex 6.16593233194441 56.7109370032519 1.2339870632566e-014
      vertex 6.16593233194441 56.7109370032519 9.50000000000003
   endloop
endfacet
facet normal 0.705486120754113 -0.708723735614459 0.0
   outer loop
      vertex 51.680170633105 102.017255678081 9.50000000000003
      vertex 6.16593233194441 56.7109370032519 1.2339870632566e-014
      vertex 51.680170633105 102.017255678081 1.2339870632566e-014
   endloop
endfacet
facet normal 0.705486120754113 -0.708723735614459 0.0
   outer loop
      vertex 6.16593233194441 56.7109370032519 1.2339870632566e-014
      vertex 51.680170633105 102.017255678081 9.50000000000003
      vertex 6.16593233194441 56.7109370032519 9.50000000000003
   endloop
endfacet
facet normal -0.681162513806812 -0.73213224883513 0.0
   outer loop
      vertex 65.7890558437023 88.8906057697442 9.50000000000003
      vertex 51.680170633105 102.017255678081 1.2339870632566e-014
      vertex 65.7890558437023 88.8906057697442 1.2339870632566e-014
   endloop
endfacet
facet normal -0.681162513806812 -0.73213224883513 0.0
   outer loop
      vertex 51.680170633105 102.017255678081 1.2339870632566e-014
      vertex 65.7890558437023 88.8906057697442 9.50000000000003
      vertex 51.680170633105 102.017255678081 9.50000000000003
   endloop
endfacet
facet normal -0.711451706266058 0.70273499247662 0.0
   outer loop
      vertex 65.7890558437023 88.8906057697442 9.50000000000003
      vertex 58.7032048531877 81.7168619950362 1.2339870632566e-014
      vertex 58.7032048531877 81.7168619950362 9.50000000000003
   endloop
endfacet
facet normal -0.711451706266058 0.70273499247662 0.0
   outer loop
      vertex 58.7032048531877 81.7168619950362 1.2339870632566e-014
      vertex 65.7890558437023 88.8906057697442 9.50000000000003
      vertex 65.7890558437023 88.8906057697442 1.2339870632566e-014
   endloop
endfacet
facet normal 0.714572992388354 0.699560889808138 0.0
   outer loop
      vertex 51.680170633105 88.8906057697442 1.2339870632566e-014
      vertex 58.7032048531877 81.7168619950362 9.50000000000003
      vertex 58.7032048531877 81.7168619950362 1.2339870632566e-014
   endloop
endfacet
facet normal 0.714572992388354 0.699560889808138 0.0
   outer loop
      vertex 58.7032048531877 81.7168619950362 9.50000000000003
      vertex 51.680170633105 88.8906057697442 1.2339870632566e-014
      vertex 51.680170633105 88.8906057697442 9.50000000000003
   endloop
endfacet
facet normal -0.659078357794214 0.752074277107841 0.0
   outer loop
      vertex 51.5075804932734 8.85699559581843 9.50000000000003
      vertex 65.6622003664234 21.2613603044114 1.2339870632566e-014
      vertex 51.5075804932734 8.85699559581843 1.2339870632566e-014
   endloop
endfacet
facet normal -0.659078357794214 0.752074277107841 0.0
   outer loop
      vertex 65.6622003664234 21.2613603044114 1.2339870632566e-014
      vertex 51.5075804932734 8.85699559581843 9.50000000000003
      vertex 65.6622003664234 21.2613603044114 9.50000000000003
   endloop
endfacet
facet normal 0.16468089836189 0.98634689725001 0.0
   outer loop
      vertex 50.6791870349251 8.99530452069898 9.50000000000003
      vertex 51.5075804932734 8.85699559581843 1.2339870632566e-014
      vertex 50.6791870349251 8.99530452069898 1.2339870632566e-014
   endloop
endfacet
facet normal 0.16468089836189 0.98634689725001 0.0
   outer loop
      vertex 51.5075804932734 8.85699559581843 1.2339870632566e-014
      vertex 50.6791870349251 8.99530452069898 9.50000000000003
      vertex 51.5075804932734 8.85699559581843 9.50000000000003
   endloop
endfacet
facet normal 0.0 0.0 -1.0
   outer loop
      vertex 143.787786834445 54.4257453088327 9.50000000000003
      vertex 95.0449380082258 87.8309342337392 9.50000000000003
      vertex 95.0449380082258 101.608246862807 9.50000000000003
   endloop
endfacet
facet normal 0.0 0.0 -1.0
   outer loop
      vertex 95.0449380082258 87.8309342337392 9.50000000000003
      vertex 143.787786834445 54.4257453088327 9.50000000000003
      vertex 128.09780967098 55.323130942137 9.50000000000003
   endloop
endfacet
facet normal 0.701203694814542 0.712960993588313 0.0
   outer loop
      vertex 95.0449380082258 87.8309342337392 9.50000000000003
      vertex 128.09780967098 55.323130942137 1.2339870632566e-014
      vertex 95.0449380082258 87.8309342337392 1.2339870632566e-014
   endloop
endfacet
facet normal 0.701203694814542 0.712960993588313 0.0
   outer loop
      vertex 128.09780967098 55.323130942137 1.2339870632566e-014
      vertex 95.0449380082258 87.8309342337392 9.50000000000003
      vertex 128.09780967098 55.323130942137 9.50000000000003
   endloop
endfacet
facet normal -0.695512786873652 -0.718513718237338 0.0
   outer loop
      vertex 143.787786834445 54.4257453088327 9.50000000000003
      vertex 95.0449380082258 101.608246862807 1.2339870632566e-014
      vertex 143.787786834445 54.4257453088327 1.2339870632566e-014
   endloop
endfacet
facet normal -0.695512786873652 -0.718513718237338 0.0
   outer loop
      vertex 95.0449380082258 101.608246862807 1.2339870632566e-014
      vertex 143.787786834445 54.4257453088327 9.50000000000003
      vertex 95.0449380082258 101.608246862807 9.50000000000003
   endloop
endfacet
facet normal -0.619438810703412 -0.63992394029109 0.454744885003304
   outer loop
      vertex 88.6627829104145 75.8577182983307 1.2339870632566e-014
      vertex 82.4628691963253 88.6100831830364 9.50000000000003
      vertex 75.4886913875024 88.6100831830364 1.2339870632566e-014
   endloop
endfacet
facet normal -0.619438810703412 -0.63992394029109 0.454744885003304
   outer loop
      vertex 82.4628691963253 88.6100831830364 9.50000000000003
      vertex 88.6627829104145 75.8577182983307 1.2339870632566e-014
      vertex 89.7054874761575 81.5993142913502 9.50000000000003
   endloop
endfacet
facet normal 0.0 0.0 -1.0
   outer loop
      vertex 95.0449380082258 101.608246862807 9.50000000000003
      vertex 89.7054874761575 81.5993142913502 9.50000000000003
      vertex 82.4628691963253 88.6100831830364 9.50000000000003
   endloop
endfacet
facet normal 0.0 0.0 -1.0
   outer loop
      vertex 89.7054874761575 81.5993142913502 9.50000000000003
      vertex 95.0449380082258 101.608246862807 9.50000000000003
      vertex 95.0449380082258 87.8309342337392 9.50000000000003
   endloop
endfacet
facet normal 0.718513718237348 -0.695512786873642 0.0
   outer loop
      vertex 95.0449380082258 101.608246862807 1.2339870632566e-014
      vertex 82.4628691963253 88.6100831830364 9.50000000000003
      vertex 82.4628691963253 88.6100831830364 1.2339870632566e-014
   endloop
endfacet
facet normal 0.718513718237348 -0.695512786873642 0.0
   outer loop
      vertex 82.4628691963253 88.6100831830364 9.50000000000003
      vertex 95.0449380082258 101.608246862807 1.2339870632566e-014
      vertex 95.0449380082258 101.608246862807 9.50000000000003
   endloop
endfacet
facet normal -0.759373280860122 0.650655223844192 0.0
   outer loop
      vertex 95.0449380082258 87.8309342337392 9.50000000000003
      vertex 89.7054874761575 81.5993142913502 1.2339870632566e-014
      vertex 89.7054874761575 81.5993142913502 9.50000000000003
   endloop
endfacet
facet normal -0.759373280860122 0.650655223844192 0.0
   outer loop
      vertex 89.7054874761575 81.5993142913502 1.2339870632566e-014
      vertex 95.0449380082258 87.8309342337392 9.50000000000003
      vertex 95.0449380082258 87.8309342337392 1.2339870632566e-014
   endloop
endfacet
facet normal 0.695512786873648 0.718513718237342 0.0
   outer loop
      vertex 82.4628691963253 88.6100831830364 9.50000000000003
      vertex 89.7054874761575 81.5993142913502 1.2339870632566e-014
      vertex 82.4628691963253 88.6100831830364 1.2339870632566e-014
   endloop
endfacet
facet normal 0.695512786873648 0.718513718237342 0.0
   outer loop
      vertex 89.7054874761575 81.5993142913502 1.2339870632566e-014
      vertex 82.4628691963253 88.6100831830364 9.50000000000003
      vertex 89.7054874761575 81.5993142913502 9.50000000000003
   endloop
endfacet
facet normal -0.983906744312525 0.178682731388145 2.79825880102942e-017
   outer loop
      vertex 89.7054874761575 81.5993142913502 1.2339870632566e-014
      vertex 88.6627829104145 75.8577182983307 1.2339870632566e-014
      vertex 89.7054874761575 81.5993142913502 9.50000000000003
   endloop
endfacet
facet normal -1.0 0.0 0.0
   outer loop
      vertex 95.0449380082258 87.8309342337392 1.2339870632566e-014
      vertex 95.0449380082258 82.4509342337393 1.2339870632566e-014
      vertex 95.0449380082258 87.8309342337392 9.50000000000003
   endloop
endfacet
facet normal 0.0 1.0 0.0
   outer loop
      vertex 82.4628691963253 88.6100831830364 9.50000000000003
      vertex 82.4628691963253 88.6100831830364 1.2339870632566e-014
      vertex 75.4886913875024 88.6100831830364 1.2339870632566e-014
   endloop
endfacet
facet normal 0.213769364966847 -0.976884158230479 2.72307026590613e-017
   outer loop
      vertex 128.09780967098 55.323130942137 9.50000000000003
      vertex 123.996932966151 54.4257453088327 1.2339870632566e-014
      vertex 128.09780967098 55.323130942137 1.2339870632566e-014
   endloop
endfacet
facet normal -0.712539914227449 0.61052690300672 -0.345751025071168
   outer loop
      vertex 95.0449380082258 82.4509342337393 1.2339870632566e-014
      vertex 89.7054874761575 81.5993142913502 9.50000000000003
      vertex 95.0449380082258 87.8309342337392 9.50000000000003
   endloop
endfacet
facet normal -0.679959805968996 0.658193055480877 -0.323166464818601
   outer loop
      vertex 95.0449380082258 82.4509342337393 1.2339870632566e-014
      vertex 88.6627829104145 75.8577182983307 1.2339870632566e-014
      vertex 89.7054874761575 81.5993142913502 9.50000000000003
   endloop
endfacet
facet normal 0.0 -1.0 0.0
   outer loop
      vertex 99.9307796805894 27.2687386426003 9.50000000000003
      vertex 96.8307796805893 27.2687386426003 1.2339870632566e-014
      vertex 99.9307796805894 27.2687386426003 1.2339870632566e-014
   endloop
endfacet
facet normal -0.644221960285322 -0.66552668015698 0.376898267288889
   outer loop
      vertex 123.996932966151 54.4257453088327 1.2339870632566e-014
      vertex 95.0449380082258 87.8309342337392 9.50000000000003
      vertex 95.0449380082258 82.4509342337393 1.2339870632566e-014
   endloop
endfacet
facet normal -0.657624284813088 -0.66865087416881 0.347039347188991
   outer loop
      vertex 128.09780967098 55.323130942137 9.50000000000003
      vertex 95.0449380082258 87.8309342337392 9.50000000000003
      vertex 123.996932966151 54.4257453088327 1.2339870632566e-014
   endloop
endfacet
facet normal 0.665614194952561 0.671764648330121 0.32509998574525
   outer loop
      vertex 70.3022003664234 21.2613603044114 1.2339870632566e-014
      vertex 58.0661656432107 28.7878482636859 9.50000000000003
      vertex 65.6622003664234 21.2613603044114 9.50000000000003
   endloop
endfacet
facet normal -0.714572992388362 -0.69956088980813 1.54321848304343e-017
   outer loop
      vertex 50.3228396420676 25.8235254502055 1.2339870632566e-014
      vertex 52.6034081428421 23.4940174950195 1.2339870632566e-014
      vertex 52.6034081428421 23.4940174950195 9.50000000000003
   endloop
endfacet
facet normal 0.400540816294899 0.825973118347846 0.396655344409414
   outer loop
      vertex 50.3228396420676 25.8235254502055 1.2339870632566e-014
      vertex 48.2152965028075 22.283375465225 9.50000000000003
      vertex 50.3228396420676 21.2613603044114 9.50000000000003
   endloop
endfacet
facet normal -0.699560889808134 0.714572992388357 -2.8508384018256e-017
   outer loop
      vertex 18.9405381252747 51.0220277984433 9.50000000000003
      vertex 22.3683864853346 54.3778622260445 1.2339870632566e-014
      vertex 18.9405381252747 51.0220277984433 1.2339870632566e-014
   endloop
endfacet
facet normal 0.676094343706976 -0.649182706587692 -0.34850861090497
   outer loop
      vertex 58.0661656432107 28.7878482636859 9.50000000000003
      vertex 50.3228396420676 25.8235254502055 1.2339870632566e-014
      vertex 58.0661656432107 33.8878482636859 1.2339870632566e-014
   endloop
endfacet
facet normal 1.0 0.0 0.0
   outer loop
      vertex 51.680170633105 88.8906057697442 9.50000000000003
      vertex 51.680170633105 83.0738499259741 1.2339870632566e-014
      vertex 51.680170633105 88.8906057697442 1.2339870632566e-014
   endloop
endfacet
facet normal -0.940639500097087 -2.05135826150964e-017 -0.339407322927928
   outer loop
      vertex 18.9405381252747 57.8792698887475 9.50000000000003
      vertex 22.3683864853346 54.3778622260445 1.2339870632566e-014
      vertex 18.9405381252747 51.0220277984433 9.50000000000003
   endloop
endfacet
facet normal 0.625365303393978 0.637031199037472 0.450676700932984
   outer loop
      vertex 48.2152965028075 22.283375465225 9.50000000000003
      vertex 22.3683864853346 54.3778622260445 1.2339870632566e-014
      vertex 18.9405381252747 51.0220277984433 9.50000000000003
   endloop
endfacet
facet normal 0.65900802600519 0.645163259700046 0.386617110322285
   outer loop
      vertex 50.3228396420676 25.8235254502055 1.2339870632566e-014
      vertex 22.3683864853346 54.3778622260445 1.2339870632566e-014
      vertex 48.2152965028075 22.283375465225 9.50000000000003
   endloop
endfacet
facet normal -0.714572992388359 -0.699560889808133 0.0
   outer loop
      vertex 18.9405381252747 57.8792698887475 1.2339870632566e-014
      vertex 22.3683864853346 54.3778622260445 1.2339870632566e-014
      vertex 18.9405381252747 57.8792698887475 9.50000000000003
   endloop
endfacet
facet normal 1.0 0.0 0.0
   outer loop
      vertex 58.7032048531877 81.7168619950362 9.50000000000003
      vertex 58.7032048531877 76.1368619950363 1.2339870632566e-014
      vertex 58.7032048531877 81.7168619950362 1.2339870632566e-014
   endloop
endfacet
facet normal 0.611192547990169 -0.645254996092719 0.458355385371079
   outer loop
      vertex 51.680170633105 88.8906057697442 9.50000000000003
      vertex 18.9405381252747 57.8792698887475 9.50000000000003
      vertex 22.3683864853346 54.3778622260445 1.2339870632566e-014
   endloop
endfacet
facet normal -0.644261006723318 -0.652252410113543 0.399367686120111
   outer loop
      vertex 58.7032048531877 76.1368619950363 1.2339870632566e-014
      vertex 51.680170633105 88.8906057697442 9.50000000000003
      vertex 51.680170633105 83.0738499259741 1.2339870632566e-014
   endloop
endfacet
facet normal -0.660951039387168 -0.647065453296632 0.380065813620544
   outer loop
      vertex 58.7032048531877 81.7168619950362 9.50000000000003
      vertex 51.680170633105 88.8906057697442 9.50000000000003
      vertex 58.7032048531877 76.1368619950363 1.2339870632566e-014
   endloop
endfacet
facet normal -0.657632121604756 0.649574805932755 -0.381539728116289
   outer loop
      vertex 65.7890558437023 88.8906057697442 9.50000000000003
      vertex 58.7032048531877 76.1368619950363 1.2339870632566e-014
      vertex 58.7032048531877 81.7168619950362 9.50000000000003
   endloop
endfacet
facet normal -0.687000823392381 0.639173057318341 -0.345669887980591
   outer loop
      vertex 70.5690558437023 88.8906057697442 1.2339870632566e-014
      vertex 58.7032048531877 76.1368619950363 1.2339870632566e-014
      vertex 65.7890558437023 88.8906057697442 9.50000000000003
   endloop
endfacet
endsolid basic logo trace 3d ver 2
