%
M48
M72
T01C0.0140
T02C0.0236
T03C0.0240
T04C0.0394
T05C0.0400
T06C0.0630
T07C0.0866
%
T01
X36304Y38092
X8004Y38692
X10204Y38692
X12304Y38692
X14504Y38692
X16604Y38692
X23304Y38092
X29804Y38892
T02
X6419Y6710
X7169Y4585
X9044Y2960
X10810Y6508
X11835Y6508
X14891Y7783
X15391Y9533
X14891Y10908
X16067Y10908
X17141Y11158
X18766Y9158
X19641Y6658
X20391Y4533
X22266Y2908
X24033Y6457
X25058Y6457
X28114Y7835
X28614Y9585
X28114Y10960
X29290Y10960
X30364Y11210
X31989Y9210
X32864Y6710
X33614Y4585
X37255Y6508
X38280Y6508
X35489Y2960
X35051Y13017
X21829Y12966
X8606Y13017
X5544Y9210
X3919Y11210
X2845Y10960
X1669Y10960
X2169Y9585
X1669Y7835
T03
X5004Y33692
X3304Y33292
T04
X33876Y21479
X33876Y23448
X28167Y23448
X28167Y22463
X28167Y21479
X25112Y21479
X25112Y23448
X19403Y23448
X19403Y22463
X19403Y21479
X16502Y21479
X16502Y23448
X10793Y23448
X10793Y22463
X10793Y21479
X7738Y21479
X7738Y23448
X2030Y23448
X2030Y22463
X2030Y21479
T05
X11494Y13210
X11594Y14210
X11494Y15210
X11594Y16210
X7794Y15510
X6794Y15510
X5794Y15510
X4794Y15510
X3794Y15510
X3794Y14410
X4794Y14410
X5794Y14410
X6794Y14410
X7794Y14410
X17016Y14358
X18016Y14358
X19016Y14358
X20016Y14358
X21016Y14358
X21016Y15458
X20016Y15458
X19016Y15458
X18016Y15458
X17016Y15458
X24716Y15158
X24816Y14158
X24716Y13158
X24816Y16158
X30239Y15510
X31239Y15510
X32239Y15510
X33239Y15510
X34239Y15510
X34239Y14410
X33239Y14410
X32239Y14410
X31239Y14410
X30239Y14410
X37939Y15210
X38039Y16210
X38039Y14210
X37939Y13210
X14543Y27142
X14543Y28142
X13543Y28142
X13543Y27142
X12543Y27142
X12543Y28142
X5779Y28142
X5779Y27142
X4779Y27142
X4779Y28142
X3779Y28142
X3779Y27142
X2822Y34823
X2822Y35823
X2822Y36823
X2822Y37823
X2822Y38823
X1722Y38823
X1722Y37823
X1722Y36823
X1722Y35823
X1722Y34823
X21153Y28142
X21153Y27142
X22153Y27142
X23153Y27142
X23153Y28142
X22153Y28142
X29916Y28142
X29916Y27142
X30916Y27142
X30916Y28142
X31916Y28142
X31916Y27142
T06
X4575Y6436
X8512Y6436
X17798Y6385
X21735Y6385
X31020Y6436
X34957Y6436
T07
X31120Y20062
X31120Y24865
X22356Y24865
X22356Y20062
X13746Y20062
X13746Y24865
X4983Y24865
X4983Y20062
M30
