G75*
G70*
%OFA0B0*%
%FSLAX24Y24*%
%IPPOS*%
%LPD*%
%AMOC8*
5,1,8,0,0,1.08239X$1,22.5*
%
%ADD10C,0.0100*%
%ADD11OC8,0.0740*%
%ADD12R,0.0594X0.0594*%
%ADD13R,0.1266X0.1266*%
%ADD14R,0.2283X0.2441*%
%ADD15R,0.0630X0.1181*%
%ADD16R,0.0630X0.0709*%
%ADD17R,0.0260X0.0800*%
%ADD18R,0.0591X0.0531*%
%ADD19R,0.0551X0.0394*%
%ADD20R,0.0512X0.0394*%
%ADD21R,0.0295X0.0591*%
%ADD22C,0.0000*%
%ADD23R,0.0472X0.0551*%
%ADD24R,0.0630X0.0787*%
%ADD25R,0.0740X0.0740*%
%ADD26C,0.0740*%
%ADD27C,0.0340*%
%ADD28C,0.0240*%
%ADD29R,0.0356X0.0356*%
%ADD30C,0.0160*%
%ADD31C,0.0360*%
D10*
X000304Y002050D02*
X000304Y041420D01*
X039674Y041420D01*
X039674Y002050D01*
X000304Y002050D01*
X000150Y002101D01*
X000524Y032492D02*
X000524Y040992D01*
X039304Y040992D01*
X039304Y032492D01*
X000524Y032492D01*
X000524Y032550D02*
X039304Y032550D01*
X039304Y033050D02*
X003556Y033050D01*
X003600Y033094D02*
X003502Y032995D01*
X003373Y032942D01*
X003234Y032942D01*
X003105Y032995D01*
X003007Y033094D01*
X002954Y033223D01*
X002954Y033331D01*
X001974Y034311D01*
X001946Y034283D01*
X001499Y034283D01*
X001182Y034599D01*
X001182Y035047D01*
X001459Y035323D01*
X001182Y035599D01*
X001182Y036047D01*
X001459Y036323D01*
X001182Y036599D01*
X001182Y037047D01*
X001459Y037323D01*
X001182Y037599D01*
X001182Y038047D01*
X001473Y038337D01*
X001202Y038608D01*
X001202Y038773D01*
X001672Y038773D01*
X001672Y038873D01*
X001202Y038873D01*
X001202Y039038D01*
X001507Y039343D01*
X001672Y039343D01*
X001672Y038873D01*
X001772Y038873D01*
X001772Y039343D01*
X001938Y039343D01*
X002242Y039038D01*
X002242Y038873D01*
X001772Y038873D01*
X001772Y038773D01*
X002242Y038773D01*
X002242Y038608D01*
X001972Y038337D01*
X002262Y038047D01*
X002262Y037599D01*
X001986Y037323D01*
X002262Y037047D01*
X002262Y036599D01*
X001986Y036323D01*
X002262Y036047D01*
X002262Y035599D01*
X001986Y035323D01*
X002262Y035047D01*
X002262Y034645D01*
X002282Y034625D01*
X002282Y035047D01*
X002559Y035323D01*
X002282Y035599D01*
X002282Y036047D01*
X002559Y036323D01*
X002282Y036599D01*
X002282Y037047D01*
X002559Y037323D01*
X002282Y037599D01*
X002282Y038047D01*
X002559Y038323D01*
X002282Y038599D01*
X002282Y039047D01*
X002599Y039363D01*
X003046Y039363D01*
X003362Y039047D01*
X003362Y038599D01*
X003086Y038323D01*
X003362Y038047D01*
X003362Y037599D01*
X003086Y037323D01*
X003362Y037047D01*
X003362Y036599D01*
X003086Y036323D01*
X003362Y036047D01*
X003362Y035645D01*
X004965Y034042D01*
X005073Y034042D01*
X005202Y033989D01*
X005300Y033890D01*
X005354Y033762D01*
X005354Y033623D01*
X005300Y033494D01*
X005202Y033395D01*
X005073Y033342D01*
X004934Y033342D01*
X004805Y033395D01*
X004707Y033494D01*
X004654Y033623D01*
X004654Y033731D01*
X003362Y035023D01*
X003362Y034599D01*
X003046Y034283D01*
X002624Y034283D01*
X003265Y033642D01*
X003373Y033642D01*
X003502Y033589D01*
X003600Y033490D01*
X003654Y033362D01*
X003654Y033223D01*
X003600Y033094D01*
X003304Y032942D02*
X003304Y032492D01*
X003804Y032492D02*
X003804Y034581D01*
X003835Y034550D02*
X003313Y034550D01*
X003304Y034541D02*
X003304Y033642D01*
X003541Y033550D02*
X004684Y033550D01*
X004804Y033397D02*
X004804Y032492D01*
X005304Y032492D02*
X005304Y033502D01*
X005324Y033550D02*
X006433Y033550D01*
X006453Y033531D02*
X006513Y033472D01*
X006521Y033472D01*
X006527Y033467D01*
X006611Y033472D01*
X017721Y033472D01*
X017727Y033467D01*
X017811Y033472D01*
X017895Y033472D01*
X017901Y033478D01*
X017909Y033479D01*
X017964Y033542D01*
X018024Y033601D01*
X018024Y033610D01*
X019361Y035138D01*
X019419Y035191D01*
X019420Y035205D01*
X019429Y035216D01*
X019424Y035294D01*
X019428Y035373D01*
X019418Y035383D01*
X019417Y035398D01*
X019358Y035450D01*
X018424Y036477D01*
X018424Y036483D01*
X018415Y036492D01*
X018424Y036501D01*
X018424Y036507D01*
X019355Y037532D01*
X019413Y037579D01*
X019415Y037598D01*
X019428Y037612D01*
X019424Y037686D01*
X019432Y037760D01*
X019420Y037775D01*
X019419Y037794D01*
X019364Y037844D01*
X018124Y039370D01*
X018124Y039383D01*
X018067Y039440D01*
X018017Y039502D01*
X018004Y039503D01*
X017995Y039512D01*
X017915Y039512D01*
X017836Y039520D01*
X017826Y039512D01*
X006611Y039512D01*
X006527Y039518D01*
X006521Y039512D01*
X006513Y039512D01*
X006453Y039453D01*
X006390Y039398D01*
X006390Y039389D01*
X006384Y039383D01*
X006384Y039300D01*
X006378Y039216D01*
X006384Y039210D01*
X006384Y039201D01*
X006443Y039142D01*
X007708Y037696D01*
X006748Y036648D01*
X006688Y036593D01*
X006687Y036582D01*
X006680Y036574D01*
X006684Y036492D01*
X006680Y036411D01*
X006687Y036403D01*
X006688Y036392D01*
X006748Y036337D01*
X007708Y035289D01*
X006443Y033843D01*
X006384Y033783D01*
X006384Y033775D01*
X006378Y033769D01*
X006384Y033685D01*
X006384Y033601D01*
X006390Y033595D01*
X006390Y033587D01*
X006453Y033531D01*
X006804Y033472D02*
X006804Y032492D01*
X007304Y032492D02*
X007304Y033472D01*
X007804Y033472D02*
X007804Y032492D01*
X008304Y032492D02*
X008304Y033472D01*
X008973Y034130D02*
X007595Y034130D01*
X008678Y035311D01*
X007595Y036492D01*
X008678Y037673D01*
X007595Y038854D01*
X008973Y038854D01*
X009957Y037673D01*
X008875Y036492D01*
X009957Y035311D01*
X008973Y034130D01*
X008999Y034161D02*
X007623Y034161D01*
X007714Y034259D02*
X009081Y034259D01*
X009163Y034358D02*
X007804Y034358D01*
X007894Y034456D02*
X009245Y034456D01*
X009327Y034555D02*
X007984Y034555D01*
X008075Y034653D02*
X009409Y034653D01*
X009491Y034752D02*
X008165Y034752D01*
X008255Y034850D02*
X009573Y034850D01*
X009655Y034949D02*
X008346Y034949D01*
X008436Y035047D02*
X009737Y035047D01*
X009820Y035146D02*
X008526Y035146D01*
X008617Y035244D02*
X009902Y035244D01*
X009928Y035343D02*
X008649Y035343D01*
X008558Y035441D02*
X009838Y035441D01*
X009748Y035540D02*
X008468Y035540D01*
X008378Y035638D02*
X009657Y035638D01*
X009567Y035737D02*
X008288Y035737D01*
X008197Y035835D02*
X009477Y035835D01*
X009386Y035934D02*
X008107Y035934D01*
X008017Y036032D02*
X009296Y036032D01*
X009206Y036131D02*
X007926Y036131D01*
X007836Y036229D02*
X009116Y036229D01*
X009025Y036328D02*
X007746Y036328D01*
X007656Y036426D02*
X008935Y036426D01*
X008904Y036525D02*
X007625Y036525D01*
X007715Y036623D02*
X008995Y036623D01*
X009085Y036722D02*
X007806Y036722D01*
X007896Y036820D02*
X009175Y036820D01*
X009266Y036919D02*
X007986Y036919D01*
X008076Y037017D02*
X009356Y037017D01*
X009446Y037116D02*
X008167Y037116D01*
X008257Y037214D02*
X009537Y037214D01*
X009627Y037313D02*
X008347Y037313D01*
X008438Y037411D02*
X009717Y037411D01*
X009807Y037510D02*
X008528Y037510D01*
X008618Y037608D02*
X009898Y037608D01*
X009929Y037707D02*
X008647Y037707D01*
X008557Y037805D02*
X009847Y037805D01*
X009765Y037904D02*
X008466Y037904D01*
X008376Y038002D02*
X009683Y038002D01*
X009601Y038101D02*
X008286Y038101D01*
X008196Y038199D02*
X009519Y038199D01*
X009437Y038298D02*
X008105Y038298D01*
X008015Y038396D02*
X009355Y038396D01*
X009273Y038495D02*
X007925Y038495D01*
X007834Y038593D02*
X009191Y038593D01*
X009109Y038692D02*
X007744Y038692D01*
X007654Y038790D02*
X009026Y038790D01*
X008804Y039512D02*
X008804Y040992D01*
X009304Y040992D02*
X009304Y039512D01*
X009804Y039512D02*
X009804Y040992D01*
X010304Y040992D02*
X010304Y039512D01*
X009760Y038854D02*
X011138Y038854D01*
X012123Y037673D01*
X011040Y036492D01*
X012123Y035311D01*
X011138Y034130D01*
X009760Y034130D01*
X010843Y035311D01*
X009760Y036492D01*
X010843Y037673D01*
X009760Y038854D01*
X009819Y038790D02*
X011192Y038790D01*
X011274Y038692D02*
X009910Y038692D01*
X010000Y038593D02*
X011356Y038593D01*
X011438Y038495D02*
X010090Y038495D01*
X010180Y038396D02*
X011520Y038396D01*
X011602Y038298D02*
X010271Y038298D01*
X010361Y038199D02*
X011684Y038199D01*
X011766Y038101D02*
X010451Y038101D01*
X010542Y038002D02*
X011848Y038002D01*
X011931Y037904D02*
X010632Y037904D01*
X010722Y037805D02*
X012013Y037805D01*
X012095Y037707D02*
X010812Y037707D01*
X010784Y037608D02*
X012063Y037608D01*
X011973Y037510D02*
X010693Y037510D01*
X010603Y037411D02*
X011882Y037411D01*
X011792Y037313D02*
X010513Y037313D01*
X010422Y037214D02*
X011702Y037214D01*
X011612Y037116D02*
X010332Y037116D01*
X010242Y037017D02*
X011521Y037017D01*
X011431Y036919D02*
X010151Y036919D01*
X010061Y036820D02*
X011341Y036820D01*
X011250Y036722D02*
X009971Y036722D01*
X009881Y036623D02*
X011160Y036623D01*
X011070Y036525D02*
X009790Y036525D01*
X009821Y036426D02*
X011100Y036426D01*
X011191Y036328D02*
X009911Y036328D01*
X010001Y036229D02*
X011281Y036229D01*
X011371Y036131D02*
X010092Y036131D01*
X010182Y036032D02*
X011462Y036032D01*
X011552Y035934D02*
X010272Y035934D01*
X010363Y035835D02*
X011642Y035835D01*
X011732Y035737D02*
X010453Y035737D01*
X010543Y035638D02*
X011823Y035638D01*
X011913Y035540D02*
X010633Y035540D01*
X010724Y035441D02*
X012003Y035441D01*
X012094Y035343D02*
X010814Y035343D01*
X010782Y035244D02*
X012067Y035244D01*
X011985Y035146D02*
X010692Y035146D01*
X010601Y035047D02*
X011903Y035047D01*
X011821Y034949D02*
X010511Y034949D01*
X010421Y034850D02*
X011739Y034850D01*
X011657Y034752D02*
X010330Y034752D01*
X010240Y034653D02*
X011574Y034653D01*
X011492Y034555D02*
X010150Y034555D01*
X010060Y034456D02*
X011410Y034456D01*
X011328Y034358D02*
X009969Y034358D01*
X009879Y034259D02*
X011246Y034259D01*
X011164Y034161D02*
X009789Y034161D01*
X009804Y033472D02*
X009804Y032492D01*
X010304Y032492D02*
X010304Y033472D01*
X010804Y033472D02*
X010804Y032492D01*
X011304Y032492D02*
X011304Y033472D01*
X011804Y033472D02*
X011804Y032492D01*
X012304Y032492D02*
X012304Y033472D01*
X011926Y034130D02*
X013008Y035311D01*
X011926Y036492D01*
X013008Y037673D01*
X011926Y038854D01*
X013304Y038854D01*
X014288Y037673D01*
X013205Y036492D01*
X014288Y035311D01*
X013304Y034130D01*
X011926Y034130D01*
X011954Y034161D02*
X013329Y034161D01*
X013411Y034259D02*
X012044Y034259D01*
X012135Y034358D02*
X013494Y034358D01*
X013576Y034456D02*
X012225Y034456D01*
X012315Y034555D02*
X013658Y034555D01*
X013740Y034653D02*
X012405Y034653D01*
X012496Y034752D02*
X013822Y034752D01*
X013904Y034850D02*
X012586Y034850D01*
X012676Y034949D02*
X013986Y034949D01*
X014068Y035047D02*
X012767Y035047D01*
X012857Y035146D02*
X014150Y035146D01*
X014232Y035244D02*
X012947Y035244D01*
X012979Y035343D02*
X014259Y035343D01*
X014169Y035441D02*
X012889Y035441D01*
X012799Y035540D02*
X014078Y035540D01*
X013988Y035638D02*
X012709Y035638D01*
X012618Y035737D02*
X013898Y035737D01*
X013807Y035835D02*
X012528Y035835D01*
X012438Y035934D02*
X013717Y035934D01*
X013627Y036032D02*
X012347Y036032D01*
X012257Y036131D02*
X013537Y036131D01*
X013446Y036229D02*
X012167Y036229D01*
X012077Y036328D02*
X013356Y036328D01*
X013266Y036426D02*
X011986Y036426D01*
X011956Y036525D02*
X013235Y036525D01*
X013325Y036623D02*
X012046Y036623D01*
X012136Y036722D02*
X013416Y036722D01*
X013506Y036820D02*
X012227Y036820D01*
X012317Y036919D02*
X013596Y036919D01*
X013687Y037017D02*
X012407Y037017D01*
X012497Y037116D02*
X013777Y037116D01*
X013867Y037214D02*
X012588Y037214D01*
X012678Y037313D02*
X013958Y037313D01*
X014048Y037411D02*
X012768Y037411D01*
X012859Y037510D02*
X014138Y037510D01*
X014228Y037608D02*
X012949Y037608D01*
X012978Y037707D02*
X014260Y037707D01*
X014178Y037805D02*
X012887Y037805D01*
X012797Y037904D02*
X014096Y037904D01*
X014014Y038002D02*
X012707Y038002D01*
X012617Y038101D02*
X013932Y038101D01*
X013850Y038199D02*
X012526Y038199D01*
X012436Y038298D02*
X013768Y038298D01*
X013686Y038396D02*
X012346Y038396D01*
X012255Y038495D02*
X013603Y038495D01*
X013521Y038593D02*
X012165Y038593D01*
X012075Y038692D02*
X013439Y038692D01*
X013357Y038790D02*
X011985Y038790D01*
X011804Y039512D02*
X011804Y040992D01*
X012304Y040992D02*
X012304Y039512D01*
X012804Y039512D02*
X012804Y040992D01*
X013304Y040992D02*
X013304Y039512D01*
X013804Y039512D02*
X013804Y040992D01*
X014304Y040992D02*
X014304Y039512D01*
X014091Y038854D02*
X015469Y038854D01*
X016453Y037673D01*
X015371Y036492D01*
X016453Y035311D01*
X015469Y034130D01*
X014091Y034130D01*
X015174Y035311D01*
X014091Y036492D01*
X015174Y037673D01*
X014091Y038854D01*
X014150Y038790D02*
X015523Y038790D01*
X015605Y038692D02*
X014240Y038692D01*
X014331Y038593D02*
X015687Y038593D01*
X015769Y038495D02*
X014421Y038495D01*
X014511Y038396D02*
X015851Y038396D01*
X015933Y038298D02*
X014601Y038298D01*
X014692Y038199D02*
X016015Y038199D01*
X016097Y038101D02*
X014782Y038101D01*
X014872Y038002D02*
X016179Y038002D01*
X016261Y037904D02*
X014963Y037904D01*
X015053Y037805D02*
X016343Y037805D01*
X016425Y037707D02*
X015143Y037707D01*
X015114Y037608D02*
X016394Y037608D01*
X016303Y037510D02*
X015024Y037510D01*
X014934Y037411D02*
X016213Y037411D01*
X016123Y037313D02*
X014843Y037313D01*
X014753Y037214D02*
X016033Y037214D01*
X015942Y037116D02*
X014663Y037116D01*
X014572Y037017D02*
X015852Y037017D01*
X015762Y036919D02*
X014482Y036919D01*
X014392Y036820D02*
X015671Y036820D01*
X015581Y036722D02*
X014302Y036722D01*
X014211Y036623D02*
X015491Y036623D01*
X015401Y036525D02*
X014121Y036525D01*
X014152Y036426D02*
X015431Y036426D01*
X015521Y036328D02*
X014242Y036328D01*
X014332Y036229D02*
X015612Y036229D01*
X015702Y036131D02*
X014422Y036131D01*
X014513Y036032D02*
X015792Y036032D01*
X015883Y035934D02*
X014603Y035934D01*
X014693Y035835D02*
X015973Y035835D01*
X016063Y035737D02*
X014784Y035737D01*
X014874Y035638D02*
X016153Y035638D01*
X016244Y035540D02*
X014964Y035540D01*
X015054Y035441D02*
X016334Y035441D01*
X016424Y035343D02*
X015145Y035343D01*
X015113Y035244D02*
X016398Y035244D01*
X016316Y035146D02*
X015022Y035146D01*
X014932Y035047D02*
X016234Y035047D01*
X016151Y034949D02*
X014842Y034949D01*
X014751Y034850D02*
X016069Y034850D01*
X015987Y034752D02*
X014661Y034752D01*
X014571Y034653D02*
X015905Y034653D01*
X015823Y034555D02*
X014481Y034555D01*
X014390Y034456D02*
X015741Y034456D01*
X015659Y034358D02*
X014300Y034358D01*
X014210Y034259D02*
X015577Y034259D01*
X015495Y034161D02*
X014119Y034161D01*
X014304Y033472D02*
X014304Y032492D01*
X013804Y032492D02*
X013804Y033472D01*
X013304Y033472D02*
X013304Y032492D01*
X012804Y032492D02*
X012804Y033472D01*
X014804Y033472D02*
X014804Y032492D01*
X015304Y032492D02*
X015304Y033472D01*
X015804Y033472D02*
X015804Y032492D01*
X016304Y032492D02*
X016304Y033472D01*
X016257Y034130D02*
X017339Y035311D01*
X016257Y036492D01*
X017339Y037673D01*
X016257Y038854D01*
X017634Y038854D01*
X018619Y037673D01*
X017536Y036492D01*
X018619Y035311D01*
X017634Y034130D01*
X016257Y034130D01*
X016285Y034161D02*
X017660Y034161D01*
X017742Y034259D02*
X016375Y034259D01*
X016465Y034358D02*
X017824Y034358D01*
X017906Y034456D02*
X016556Y034456D01*
X016646Y034555D02*
X017988Y034555D01*
X018071Y034653D02*
X016736Y034653D01*
X016826Y034752D02*
X018153Y034752D01*
X018235Y034850D02*
X016917Y034850D01*
X017007Y034949D02*
X018317Y034949D01*
X018399Y035047D02*
X017097Y035047D01*
X017188Y035146D02*
X018481Y035146D01*
X018563Y035244D02*
X017278Y035244D01*
X017310Y035343D02*
X018590Y035343D01*
X018499Y035441D02*
X017220Y035441D01*
X017130Y035540D02*
X018409Y035540D01*
X018319Y035638D02*
X017039Y035638D01*
X016949Y035737D02*
X018228Y035737D01*
X018138Y035835D02*
X016859Y035835D01*
X016768Y035934D02*
X018048Y035934D01*
X017958Y036032D02*
X016678Y036032D01*
X016588Y036131D02*
X017867Y036131D01*
X017777Y036229D02*
X016498Y036229D01*
X016407Y036328D02*
X017687Y036328D01*
X017596Y036426D02*
X016317Y036426D01*
X016286Y036525D02*
X017566Y036525D01*
X017656Y036623D02*
X016377Y036623D01*
X016467Y036722D02*
X017746Y036722D01*
X017837Y036820D02*
X016557Y036820D01*
X016648Y036919D02*
X017927Y036919D01*
X018017Y037017D02*
X016738Y037017D01*
X016828Y037116D02*
X018108Y037116D01*
X018198Y037214D02*
X016918Y037214D01*
X017009Y037313D02*
X018288Y037313D01*
X018379Y037411D02*
X017099Y037411D01*
X017189Y037510D02*
X018469Y037510D01*
X018559Y037608D02*
X017280Y037608D01*
X017308Y037707D02*
X018591Y037707D01*
X018509Y037805D02*
X017218Y037805D01*
X017128Y037904D02*
X018427Y037904D01*
X018345Y038002D02*
X017038Y038002D01*
X016947Y038101D02*
X018262Y038101D01*
X018180Y038199D02*
X016857Y038199D01*
X016767Y038298D02*
X018098Y038298D01*
X018016Y038396D02*
X016676Y038396D01*
X016586Y038495D02*
X017934Y038495D01*
X017852Y038593D02*
X016496Y038593D01*
X016406Y038692D02*
X017770Y038692D01*
X017688Y038790D02*
X016315Y038790D01*
X016304Y039512D02*
X016304Y040992D01*
X015804Y040992D02*
X015804Y039512D01*
X015304Y039512D02*
X015304Y040992D01*
X014804Y040992D02*
X014804Y039512D01*
X016804Y039512D02*
X016804Y040992D01*
X017304Y040992D02*
X017304Y039512D01*
X017804Y039512D02*
X017804Y040992D01*
X018304Y040992D02*
X018304Y039149D01*
X018384Y039050D02*
X022634Y039050D01*
X022601Y039039D02*
X022524Y039025D01*
X022515Y039013D01*
X022395Y038975D01*
X022381Y038981D01*
X022310Y038949D01*
X022236Y038926D01*
X022229Y038912D01*
X022114Y038861D01*
X022099Y038864D01*
X022032Y038824D01*
X021961Y038792D01*
X021956Y038778D01*
X021848Y038713D01*
X021833Y038714D01*
X021772Y038666D01*
X021705Y038626D01*
X021702Y038611D01*
X021603Y038534D01*
X021587Y038534D01*
X021532Y038479D01*
X021471Y038431D01*
X021469Y038416D01*
X021380Y038327D01*
X021365Y038325D01*
X021317Y038264D01*
X021262Y038209D01*
X021262Y038193D01*
X021185Y038094D01*
X021170Y038091D01*
X021129Y038024D01*
X021082Y037963D01*
X021083Y037948D01*
X021018Y037840D01*
X021004Y037834D01*
X020972Y037764D01*
X020932Y037697D01*
X020935Y037682D01*
X020884Y037567D01*
X020870Y037560D01*
X020847Y037486D01*
X020815Y037415D01*
X020821Y037401D01*
X020783Y037281D01*
X020771Y037272D01*
X020757Y037195D01*
X020733Y037121D01*
X020741Y037108D01*
X020718Y036984D01*
X020706Y036974D01*
X020702Y036896D01*
X020688Y036819D01*
X020696Y036807D01*
X020689Y036689D01*
X020684Y036683D01*
X020684Y036599D01*
X020679Y036515D01*
X020684Y036509D01*
X020684Y036501D01*
X020693Y036492D01*
X020684Y036483D01*
X020684Y036476D01*
X020679Y036470D01*
X020684Y036386D01*
X020684Y036301D01*
X020689Y036296D01*
X020696Y036177D01*
X020688Y036165D01*
X020702Y036088D01*
X020706Y036011D01*
X020718Y036001D01*
X020741Y035877D01*
X020733Y035863D01*
X020757Y035789D01*
X020771Y035712D01*
X020783Y035704D01*
X020821Y035584D01*
X020815Y035569D01*
X020847Y035498D01*
X020870Y035424D01*
X020884Y035417D01*
X020935Y035302D01*
X020932Y035288D01*
X020972Y035221D01*
X021004Y035150D01*
X021018Y035145D01*
X021083Y035037D01*
X021082Y035022D01*
X021129Y034960D01*
X021170Y034894D01*
X021185Y034890D01*
X021262Y034791D01*
X021262Y034776D01*
X021317Y034721D01*
X021365Y034660D01*
X021380Y034658D01*
X021469Y034569D01*
X021471Y034554D01*
X021532Y034506D01*
X021587Y034451D01*
X021603Y034451D01*
X021702Y034373D01*
X021705Y034358D01*
X021772Y034318D01*
X021833Y034270D01*
X021848Y034272D01*
X021956Y034207D01*
X021961Y034192D01*
X022032Y034161D01*
X022099Y034120D01*
X022114Y034124D01*
X022229Y034072D01*
X022236Y034059D01*
X022310Y034036D01*
X022381Y034004D01*
X022395Y034009D01*
X022515Y033972D01*
X022524Y033959D01*
X022601Y033945D01*
X022675Y033922D01*
X022688Y033929D01*
X022812Y033906D01*
X022822Y033895D01*
X022900Y033890D01*
X022976Y033876D01*
X022989Y033885D01*
X023107Y033878D01*
X023113Y033872D01*
X023197Y033872D01*
X023281Y033867D01*
X023287Y033872D01*
X023420Y033872D01*
X023426Y033867D01*
X023510Y033872D01*
X023595Y033872D01*
X023600Y033878D01*
X023706Y033884D01*
X023719Y033875D01*
X023795Y033889D01*
X023873Y033894D01*
X023883Y033906D01*
X023995Y033926D01*
X024009Y033919D01*
X024083Y033942D01*
X024160Y033956D01*
X024168Y033969D01*
X024277Y034003D01*
X024291Y033997D01*
X024362Y034029D01*
X024436Y034052D01*
X024443Y034066D01*
X024547Y034112D01*
X024562Y034109D01*
X024629Y034149D01*
X024700Y034181D01*
X024705Y034195D01*
X024802Y034254D01*
X024817Y034252D01*
X024879Y034300D01*
X024945Y034341D01*
X024949Y034355D01*
X025039Y034425D01*
X025054Y034425D01*
X025109Y034481D01*
X025170Y034529D01*
X025172Y034544D01*
X025252Y034624D01*
X025267Y034626D01*
X025315Y034687D01*
X025370Y034742D01*
X025370Y034757D01*
X025441Y034847D01*
X025455Y034851D01*
X025496Y034917D01*
X025544Y034979D01*
X025542Y034994D01*
X025601Y035091D01*
X025615Y035096D01*
X025647Y035167D01*
X025687Y035234D01*
X025684Y035249D01*
X025730Y035353D01*
X025744Y035360D01*
X025767Y035434D01*
X025799Y035505D01*
X025793Y035519D01*
X025827Y035628D01*
X025840Y035636D01*
X025854Y035713D01*
X025877Y035787D01*
X025870Y035801D01*
X025890Y035913D01*
X025902Y035923D01*
X025907Y036000D01*
X025921Y036077D01*
X025912Y036090D01*
X025918Y036196D01*
X025924Y036201D01*
X025924Y036286D01*
X025929Y036370D01*
X025924Y036376D01*
X025924Y036509D01*
X025929Y036515D01*
X025924Y036599D01*
X025924Y036683D01*
X025918Y036689D01*
X025911Y036807D01*
X025920Y036819D01*
X025906Y036896D01*
X025901Y036974D01*
X025890Y036984D01*
X025867Y037108D01*
X025874Y037121D01*
X025851Y037195D01*
X025837Y037272D01*
X025824Y037281D01*
X025787Y037401D01*
X025792Y037415D01*
X025760Y037486D01*
X025737Y037560D01*
X025724Y037567D01*
X025672Y037682D01*
X025676Y037697D01*
X025635Y037764D01*
X025604Y037834D01*
X025589Y037840D01*
X025524Y037948D01*
X025526Y037963D01*
X025478Y038024D01*
X025438Y038091D01*
X025423Y038094D01*
X025345Y038193D01*
X025345Y038209D01*
X025290Y038264D01*
X025242Y038325D01*
X025227Y038327D01*
X025138Y038416D01*
X025136Y038431D01*
X025075Y038479D01*
X025020Y038534D01*
X025005Y038534D01*
X024906Y038611D01*
X024902Y038626D01*
X024835Y038666D01*
X024774Y038714D01*
X024759Y038713D01*
X024651Y038778D01*
X024646Y038792D01*
X024575Y038824D01*
X024508Y038864D01*
X024494Y038861D01*
X024379Y038912D01*
X024372Y038926D01*
X024297Y038949D01*
X024227Y038981D01*
X024212Y038975D01*
X024092Y039013D01*
X024083Y039025D01*
X024007Y039039D01*
X023933Y039063D01*
X023919Y039055D01*
X023795Y039078D01*
X023785Y039090D01*
X023708Y039094D01*
X023631Y039108D01*
X023618Y039100D01*
X023500Y039107D01*
X023495Y039112D01*
X023410Y039112D01*
X023326Y039117D01*
X023320Y039112D01*
X023287Y039112D01*
X023281Y039117D01*
X023197Y039112D01*
X023113Y039112D01*
X023107Y039107D01*
X022989Y039100D01*
X022976Y039108D01*
X022900Y039094D01*
X022822Y039090D01*
X022812Y039078D01*
X022688Y039055D01*
X022675Y039063D01*
X022601Y039039D01*
X022804Y039077D02*
X022804Y040992D01*
X023304Y040992D02*
X023304Y039112D01*
X023804Y039077D02*
X023804Y040992D01*
X024304Y040992D02*
X024304Y038947D01*
X023974Y039050D02*
X027680Y039050D01*
X027656Y039026D02*
X027641Y039024D01*
X027593Y038962D01*
X027538Y038907D01*
X027538Y038892D01*
X027438Y038765D01*
X027423Y038761D01*
X027383Y038694D01*
X027335Y038633D01*
X027336Y038618D01*
X027253Y038479D01*
X027238Y038474D01*
X027206Y038403D01*
X027166Y038336D01*
X027170Y038322D01*
X027103Y038174D01*
X027090Y038167D01*
X027067Y038092D01*
X027035Y038021D01*
X027040Y038007D01*
X026992Y037852D01*
X026979Y037844D01*
X026965Y037767D01*
X026942Y037693D01*
X026949Y037679D01*
X026920Y037520D01*
X026909Y037510D01*
X026904Y037432D01*
X026890Y037356D01*
X026899Y037343D01*
X026889Y037189D01*
X026884Y037183D01*
X026884Y037099D01*
X026879Y037015D01*
X026884Y037009D01*
X026884Y037001D01*
X026893Y036992D01*
X026884Y036983D01*
X026884Y036976D01*
X026879Y036970D01*
X026884Y036886D01*
X026884Y036801D01*
X026889Y036796D01*
X026899Y036641D01*
X026890Y036629D01*
X026904Y036552D01*
X026909Y036475D01*
X026920Y036464D01*
X026949Y036305D01*
X026942Y036292D01*
X026965Y036217D01*
X026979Y036141D01*
X026992Y036132D01*
X027040Y035977D01*
X027035Y035963D01*
X027067Y035892D01*
X027090Y035818D01*
X027103Y035811D01*
X027170Y035663D01*
X027166Y035648D01*
X027206Y035582D01*
X027238Y035511D01*
X027253Y035505D01*
X027336Y035366D01*
X027335Y035351D01*
X027383Y035290D01*
X027423Y035223D01*
X027438Y035220D01*
X027538Y035092D01*
X027538Y035077D01*
X027593Y035022D01*
X027641Y034961D01*
X027656Y034959D01*
X027770Y034844D01*
X027772Y034829D01*
X027833Y034781D01*
X027889Y034726D01*
X027904Y034726D01*
X028031Y034626D01*
X028035Y034611D01*
X028102Y034571D01*
X028163Y034523D01*
X028178Y034525D01*
X028317Y034441D01*
X028322Y034427D01*
X028393Y034395D01*
X028460Y034355D01*
X028474Y034358D01*
X028622Y034292D01*
X028629Y034278D01*
X028704Y034255D01*
X028775Y034223D01*
X028789Y034229D01*
X028944Y034180D01*
X028952Y034168D01*
X029029Y034154D01*
X029103Y034131D01*
X029117Y034138D01*
X029276Y034108D01*
X029286Y034097D01*
X029364Y034092D01*
X029440Y034078D01*
X029453Y034087D01*
X029607Y034078D01*
X029613Y034072D01*
X029697Y034072D01*
X029781Y034067D01*
X029787Y034072D01*
X029920Y034072D01*
X029926Y034067D01*
X030010Y034072D01*
X030095Y034072D01*
X030100Y034078D01*
X030243Y034086D01*
X030255Y034078D01*
X030332Y034092D01*
X030409Y034096D01*
X030419Y034108D01*
X030567Y034135D01*
X030580Y034128D01*
X030655Y034151D01*
X030731Y034165D01*
X030740Y034177D01*
X030883Y034222D01*
X030897Y034217D01*
X030968Y034249D01*
X031043Y034272D01*
X031050Y034285D01*
X031187Y034347D01*
X031201Y034343D01*
X031268Y034383D01*
X031339Y034415D01*
X031344Y034430D01*
X031473Y034507D01*
X031488Y034505D01*
X031549Y034553D01*
X031616Y034594D01*
X031619Y034608D01*
X031737Y034701D01*
X031753Y034701D01*
X031808Y034756D01*
X031869Y034804D01*
X031871Y034819D01*
X031977Y034925D01*
X031992Y034927D01*
X032040Y034988D01*
X032095Y035043D01*
X032095Y035058D01*
X032188Y035177D01*
X032202Y035180D01*
X032243Y035247D01*
X032291Y035308D01*
X032289Y035323D01*
X032366Y035452D01*
X032381Y035457D01*
X032413Y035528D01*
X032453Y035595D01*
X032449Y035609D01*
X032511Y035746D01*
X032524Y035753D01*
X032547Y035828D01*
X032579Y035899D01*
X032574Y035913D01*
X032619Y036056D01*
X032631Y036065D01*
X032645Y036141D01*
X032668Y036215D01*
X032661Y036229D01*
X032688Y036377D01*
X032700Y036387D01*
X032704Y036464D01*
X032718Y036541D01*
X032710Y036553D01*
X032718Y036696D01*
X032724Y036701D01*
X032724Y036786D01*
X032729Y036870D01*
X032724Y036876D01*
X032724Y037009D01*
X032729Y037015D01*
X032724Y037099D01*
X032724Y037183D01*
X032718Y037189D01*
X032709Y037343D01*
X032718Y037356D01*
X032704Y037432D01*
X032699Y037510D01*
X032688Y037520D01*
X032658Y037679D01*
X032665Y037693D01*
X032642Y037767D01*
X032628Y037844D01*
X032616Y037852D01*
X032567Y038007D01*
X032573Y038021D01*
X032541Y038092D01*
X032518Y038167D01*
X032504Y038174D01*
X032438Y038322D01*
X032441Y038336D01*
X032401Y038403D01*
X032369Y038474D01*
X032355Y038479D01*
X032271Y038618D01*
X032273Y038633D01*
X032225Y038694D01*
X032185Y038761D01*
X032170Y038765D01*
X032070Y038892D01*
X032070Y038907D01*
X032015Y038962D01*
X031967Y039024D01*
X031952Y039026D01*
X031837Y039140D01*
X031835Y039155D01*
X031774Y039203D01*
X031719Y039258D01*
X031704Y039258D01*
X031576Y039358D01*
X031573Y039373D01*
X031506Y039413D01*
X031445Y039461D01*
X031430Y039460D01*
X031291Y039543D01*
X031285Y039558D01*
X031214Y039590D01*
X031148Y039630D01*
X031133Y039626D01*
X030985Y039693D01*
X030978Y039706D01*
X030904Y039729D01*
X030833Y039761D01*
X030819Y039756D01*
X030664Y039804D01*
X030655Y039817D01*
X030579Y039831D01*
X030504Y039854D01*
X030491Y039847D01*
X030331Y039876D01*
X030321Y039887D01*
X030244Y039892D01*
X030167Y039906D01*
X030155Y039897D01*
X030000Y039907D01*
X029995Y039912D01*
X029910Y039912D01*
X029826Y039917D01*
X029820Y039912D01*
X029787Y039912D01*
X029781Y039917D01*
X029697Y039912D01*
X029613Y039912D01*
X029607Y039907D01*
X029453Y039897D01*
X029440Y039906D01*
X029364Y039892D01*
X029286Y039887D01*
X029276Y039876D01*
X029117Y039847D01*
X029103Y039854D01*
X029029Y039831D01*
X028952Y039817D01*
X028944Y039804D01*
X028789Y039756D01*
X028775Y039761D01*
X028704Y039729D01*
X028629Y039706D01*
X028622Y039693D01*
X028474Y039626D01*
X028460Y039630D01*
X028393Y039590D01*
X028322Y039558D01*
X028317Y039543D01*
X028178Y039460D01*
X028163Y039461D01*
X028102Y039413D01*
X028035Y039373D01*
X028031Y039358D01*
X027904Y039258D01*
X027889Y039258D01*
X027833Y039203D01*
X027772Y039155D01*
X027770Y039140D01*
X027656Y039026D01*
X027804Y039180D02*
X027804Y040992D01*
X028304Y040992D02*
X028304Y039536D01*
X028319Y039550D02*
X000524Y039550D01*
X000524Y039050D02*
X001214Y039050D01*
X001304Y039140D02*
X001304Y040992D01*
X001804Y040992D02*
X001804Y039343D01*
X001772Y039050D02*
X001672Y039050D01*
X001804Y038873D02*
X001804Y038773D01*
X002184Y038550D02*
X002332Y038550D01*
X002304Y038578D02*
X002304Y038068D01*
X002285Y038050D02*
X002259Y038050D01*
X002304Y037578D02*
X002304Y037068D01*
X002285Y037050D02*
X002259Y037050D01*
X002304Y036578D02*
X002304Y036068D01*
X002285Y036050D02*
X002259Y036050D01*
X002304Y035578D02*
X002304Y035068D01*
X002285Y035050D02*
X002259Y035050D01*
X002213Y035550D02*
X002332Y035550D01*
X002822Y035823D02*
X002904Y035792D01*
X005004Y033692D01*
X005304Y033883D02*
X005304Y040992D01*
X005804Y040992D02*
X005804Y032492D01*
X006304Y032492D02*
X006304Y040992D01*
X006804Y040992D02*
X006804Y039512D01*
X007304Y039512D02*
X007304Y040992D01*
X007804Y040992D02*
X007804Y039512D01*
X008304Y039512D02*
X008304Y040992D01*
X006524Y039050D02*
X003359Y039050D01*
X003304Y039105D02*
X003304Y040992D01*
X003804Y040992D02*
X003804Y035203D01*
X003957Y035050D02*
X007499Y035050D01*
X007304Y034826D02*
X007304Y035730D01*
X007469Y035550D02*
X003457Y035550D01*
X003359Y036050D02*
X007011Y036050D01*
X006804Y036276D02*
X006804Y034255D01*
X006624Y034050D02*
X004957Y034050D01*
X004804Y034203D02*
X004804Y040992D01*
X004304Y040992D02*
X004304Y034703D01*
X004457Y034550D02*
X007062Y034550D01*
X006681Y036550D02*
X003313Y036550D01*
X003304Y036541D02*
X003304Y036105D01*
X003359Y037050D02*
X007116Y037050D01*
X007304Y037254D02*
X007304Y038158D01*
X007399Y038050D02*
X003359Y038050D01*
X003304Y038105D02*
X003304Y038541D01*
X003313Y038550D02*
X006961Y038550D01*
X006804Y038730D02*
X006804Y036709D01*
X007575Y037550D02*
X003313Y037550D01*
X003304Y037541D02*
X003304Y037105D01*
X002332Y037550D02*
X002213Y037550D01*
X001304Y037478D02*
X001304Y037168D01*
X001185Y037050D02*
X000524Y037050D01*
X000524Y036550D02*
X001232Y036550D01*
X001304Y036478D02*
X001304Y036168D01*
X001185Y036050D02*
X000524Y036050D01*
X000524Y035550D02*
X001232Y035550D01*
X001304Y035478D02*
X001304Y035168D01*
X001185Y035050D02*
X000524Y035050D01*
X000524Y034550D02*
X001232Y034550D01*
X001304Y034478D02*
X001304Y032492D01*
X001804Y032492D02*
X001804Y034283D01*
X002235Y034050D02*
X000524Y034050D01*
X000524Y033550D02*
X002735Y033550D01*
X002804Y033481D02*
X002804Y032492D01*
X003051Y033050D02*
X000524Y033050D01*
X000804Y032492D02*
X000804Y040992D01*
X000524Y040550D02*
X039304Y040550D01*
X039304Y040050D02*
X000524Y040050D01*
X001304Y038873D02*
X001304Y038773D01*
X001260Y038550D02*
X000524Y038550D01*
X000524Y038050D02*
X001185Y038050D01*
X001304Y038168D02*
X001304Y038506D01*
X001232Y037550D02*
X000524Y037550D01*
X002213Y036550D02*
X002332Y036550D01*
X001722Y034823D02*
X001804Y034792D01*
X003304Y033292D01*
X002857Y034050D02*
X004335Y034050D01*
X004304Y034081D02*
X004304Y032492D01*
X002804Y034103D02*
X002804Y034283D01*
X002304Y033981D02*
X002304Y032492D01*
X002231Y039050D02*
X002285Y039050D01*
X002304Y039068D02*
X002304Y040992D01*
X002804Y040992D02*
X002804Y039363D01*
X008804Y033472D02*
X008804Y032492D01*
X009304Y032492D02*
X009304Y033472D01*
X010804Y039512D02*
X010804Y040992D01*
X011304Y040992D02*
X011304Y039512D01*
X016804Y033472D02*
X016804Y032492D01*
X017304Y032492D02*
X017304Y033472D01*
X017804Y033472D02*
X017804Y032492D01*
X018304Y032492D02*
X018304Y033930D01*
X018409Y034050D02*
X022265Y034050D01*
X022304Y034038D02*
X022304Y032492D01*
X021804Y032492D02*
X021804Y034293D01*
X021476Y034550D02*
X018846Y034550D01*
X018804Y034501D02*
X018804Y032492D01*
X019304Y032492D02*
X019304Y035072D01*
X019284Y035050D02*
X021076Y035050D01*
X021304Y034734D02*
X021304Y032492D01*
X020804Y032492D02*
X020804Y035638D01*
X020824Y035550D02*
X019267Y035550D01*
X019304Y035509D02*
X019304Y037475D01*
X019377Y037550D02*
X020867Y037550D01*
X020804Y037347D02*
X020804Y040992D01*
X021304Y040992D02*
X021304Y038250D01*
X021145Y038050D02*
X019197Y038050D01*
X019304Y037918D02*
X019304Y040992D01*
X019804Y040992D02*
X019804Y032492D01*
X020304Y032492D02*
X020304Y040992D01*
X018804Y040992D02*
X018804Y038533D01*
X018790Y038550D02*
X021623Y038550D01*
X021804Y038691D02*
X021804Y040992D01*
X022304Y040992D02*
X022304Y038947D01*
X020730Y037050D02*
X018917Y037050D01*
X018804Y036925D02*
X018804Y036059D01*
X018812Y036050D02*
X020704Y036050D01*
X020681Y036550D02*
X018462Y036550D01*
X017972Y033550D02*
X039304Y033550D01*
X039304Y034050D02*
X037428Y034050D01*
X037436Y034052D02*
X037443Y034066D01*
X037547Y034112D01*
X037562Y034109D01*
X037629Y034149D01*
X037700Y034181D01*
X037705Y034195D01*
X037802Y034254D01*
X037817Y034252D01*
X037879Y034300D01*
X037945Y034341D01*
X037949Y034355D01*
X038039Y034425D01*
X038054Y034425D01*
X038109Y034481D01*
X038170Y034529D01*
X038172Y034544D01*
X038252Y034624D01*
X038267Y034626D01*
X038315Y034687D01*
X038370Y034742D01*
X038370Y034757D01*
X038441Y034847D01*
X038455Y034851D01*
X038496Y034917D01*
X038544Y034979D01*
X038542Y034994D01*
X038601Y035091D01*
X038615Y035096D01*
X038647Y035167D01*
X038687Y035234D01*
X038684Y035249D01*
X038730Y035353D01*
X038744Y035360D01*
X038767Y035434D01*
X038799Y035505D01*
X038793Y035519D01*
X038827Y035628D01*
X038840Y035636D01*
X038854Y035713D01*
X038877Y035787D01*
X038870Y035801D01*
X038890Y035913D01*
X038902Y035923D01*
X038907Y036000D01*
X038921Y036077D01*
X038912Y036090D01*
X038918Y036196D01*
X038924Y036201D01*
X038924Y036286D01*
X038929Y036370D01*
X038924Y036376D01*
X038924Y036509D01*
X038929Y036515D01*
X038924Y036599D01*
X038924Y036683D01*
X038918Y036689D01*
X038911Y036807D01*
X038920Y036819D01*
X038906Y036896D01*
X038901Y036974D01*
X038890Y036984D01*
X038867Y037108D01*
X038874Y037121D01*
X038851Y037195D01*
X038837Y037272D01*
X038824Y037281D01*
X038787Y037401D01*
X038792Y037415D01*
X038760Y037486D01*
X038737Y037560D01*
X038724Y037567D01*
X038672Y037682D01*
X038676Y037697D01*
X038635Y037764D01*
X038604Y037834D01*
X038589Y037840D01*
X038524Y037948D01*
X038526Y037963D01*
X038478Y038024D01*
X038438Y038091D01*
X038423Y038094D01*
X038345Y038193D01*
X038345Y038209D01*
X038290Y038264D01*
X038242Y038325D01*
X038227Y038327D01*
X038138Y038416D01*
X038136Y038431D01*
X038075Y038479D01*
X038020Y038534D01*
X038005Y038534D01*
X037906Y038611D01*
X037902Y038626D01*
X037835Y038666D01*
X037774Y038714D01*
X037759Y038713D01*
X037651Y038778D01*
X037646Y038792D01*
X037575Y038824D01*
X037508Y038864D01*
X037494Y038861D01*
X037379Y038912D01*
X037372Y038926D01*
X037297Y038949D01*
X037227Y038981D01*
X037212Y038975D01*
X037092Y039013D01*
X037083Y039025D01*
X037007Y039039D01*
X036933Y039063D01*
X036919Y039055D01*
X036795Y039078D01*
X036785Y039090D01*
X036708Y039094D01*
X036631Y039108D01*
X036618Y039100D01*
X036500Y039107D01*
X036495Y039112D01*
X036410Y039112D01*
X036326Y039117D01*
X036320Y039112D01*
X036287Y039112D01*
X036281Y039117D01*
X036197Y039112D01*
X036113Y039112D01*
X036107Y039107D01*
X035989Y039100D01*
X035976Y039108D01*
X035900Y039094D01*
X035822Y039090D01*
X035812Y039078D01*
X035688Y039055D01*
X035675Y039063D01*
X035601Y039039D01*
X035524Y039025D01*
X035515Y039013D01*
X035395Y038975D01*
X035381Y038981D01*
X035310Y038949D01*
X035236Y038926D01*
X035229Y038912D01*
X035114Y038861D01*
X035099Y038864D01*
X035032Y038824D01*
X034961Y038792D01*
X034956Y038778D01*
X034848Y038713D01*
X034833Y038714D01*
X034772Y038666D01*
X034705Y038626D01*
X034702Y038611D01*
X034603Y038534D01*
X034587Y038534D01*
X034532Y038479D01*
X034471Y038431D01*
X034469Y038416D01*
X034380Y038327D01*
X034365Y038325D01*
X034317Y038264D01*
X034262Y038209D01*
X034262Y038193D01*
X034185Y038094D01*
X034170Y038091D01*
X034129Y038024D01*
X034082Y037963D01*
X034083Y037948D01*
X034018Y037840D01*
X034004Y037834D01*
X033972Y037764D01*
X033932Y037697D01*
X033935Y037682D01*
X033884Y037567D01*
X033870Y037560D01*
X033847Y037486D01*
X033815Y037415D01*
X033821Y037401D01*
X033783Y037281D01*
X033771Y037272D01*
X033757Y037195D01*
X033733Y037121D01*
X033741Y037108D01*
X033718Y036984D01*
X033706Y036974D01*
X033702Y036896D01*
X033688Y036819D01*
X033696Y036807D01*
X033689Y036689D01*
X033684Y036683D01*
X033684Y036599D01*
X033679Y036515D01*
X033684Y036509D01*
X033684Y036501D01*
X033693Y036492D01*
X033684Y036483D01*
X033684Y036476D01*
X033679Y036470D01*
X033684Y036386D01*
X033684Y036301D01*
X033689Y036296D01*
X033696Y036177D01*
X033688Y036165D01*
X033702Y036088D01*
X033706Y036011D01*
X033718Y036001D01*
X033741Y035877D01*
X033733Y035863D01*
X033757Y035789D01*
X033771Y035712D01*
X033783Y035704D01*
X033821Y035584D01*
X033815Y035569D01*
X033847Y035498D01*
X033870Y035424D01*
X033884Y035417D01*
X033935Y035302D01*
X033932Y035288D01*
X033972Y035221D01*
X034004Y035150D01*
X034018Y035145D01*
X034083Y035037D01*
X034082Y035022D01*
X034129Y034960D01*
X034170Y034894D01*
X034185Y034890D01*
X034262Y034791D01*
X034262Y034776D01*
X034317Y034721D01*
X034365Y034660D01*
X034380Y034658D01*
X034469Y034569D01*
X034471Y034554D01*
X034532Y034506D01*
X034587Y034451D01*
X034603Y034451D01*
X034702Y034373D01*
X034705Y034358D01*
X034772Y034318D01*
X034833Y034270D01*
X034848Y034272D01*
X034956Y034207D01*
X034961Y034192D01*
X035032Y034161D01*
X035099Y034120D01*
X035114Y034124D01*
X035229Y034072D01*
X035236Y034059D01*
X035310Y034036D01*
X035381Y034004D01*
X035395Y034009D01*
X035515Y033972D01*
X035524Y033959D01*
X035601Y033945D01*
X035675Y033922D01*
X035688Y033929D01*
X035812Y033906D01*
X035822Y033895D01*
X035900Y033890D01*
X035976Y033876D01*
X035989Y033885D01*
X036107Y033878D01*
X036113Y033872D01*
X036197Y033872D01*
X036281Y033867D01*
X036287Y033872D01*
X036420Y033872D01*
X036426Y033867D01*
X036510Y033872D01*
X036595Y033872D01*
X036600Y033878D01*
X036706Y033884D01*
X036719Y033875D01*
X036795Y033889D01*
X036873Y033894D01*
X036883Y033906D01*
X036995Y033926D01*
X037009Y033919D01*
X037083Y033942D01*
X037160Y033956D01*
X037168Y033969D01*
X037277Y034003D01*
X037291Y033997D01*
X037362Y034029D01*
X037436Y034052D01*
X037304Y034003D02*
X037304Y032492D01*
X037804Y032492D02*
X037804Y034254D01*
X038178Y034550D02*
X039304Y034550D01*
X039304Y035050D02*
X038576Y035050D01*
X038304Y034672D02*
X038304Y032492D01*
X038804Y032492D02*
X038804Y035552D01*
X038803Y035550D02*
X039304Y035550D01*
X039304Y036050D02*
X038916Y036050D01*
X038927Y036550D02*
X039304Y036550D01*
X039304Y037050D02*
X038878Y037050D01*
X038804Y037347D02*
X038804Y040992D01*
X038304Y040992D02*
X038304Y038250D01*
X038462Y038050D02*
X039304Y038050D01*
X039304Y038550D02*
X037985Y038550D01*
X037804Y038691D02*
X037804Y040992D01*
X037304Y040992D02*
X037304Y038947D01*
X036974Y039050D02*
X039304Y039050D01*
X039304Y039550D02*
X031288Y039550D01*
X031304Y039536D02*
X031304Y040992D01*
X031804Y040992D02*
X031804Y039180D01*
X031928Y039050D02*
X035634Y039050D01*
X035804Y039077D02*
X035804Y040992D01*
X036304Y040992D02*
X036304Y039112D01*
X036804Y039077D02*
X036804Y040992D01*
X035304Y040992D02*
X035304Y038947D01*
X034804Y038691D02*
X034804Y040992D01*
X034304Y040992D02*
X034304Y038250D01*
X034145Y038050D02*
X032560Y038050D01*
X032682Y037550D02*
X033867Y037550D01*
X033804Y037347D02*
X033804Y040992D01*
X033304Y040992D02*
X033304Y032492D01*
X033804Y032492D02*
X033804Y035638D01*
X033824Y035550D02*
X032426Y035550D01*
X032304Y035348D02*
X032304Y032492D01*
X031804Y032492D02*
X031804Y034752D01*
X031544Y034550D02*
X034476Y034550D01*
X034304Y034734D02*
X034304Y032492D01*
X034804Y032492D02*
X034804Y034293D01*
X035265Y034050D02*
X024428Y034050D01*
X024304Y034003D02*
X024304Y032492D01*
X023804Y032492D02*
X023804Y033890D01*
X023304Y033872D02*
X023304Y032492D01*
X022804Y032492D02*
X022804Y033908D01*
X024804Y034254D02*
X024804Y032492D01*
X025304Y032492D02*
X025304Y034672D01*
X025178Y034550D02*
X028129Y034550D01*
X028304Y034449D02*
X028304Y032492D01*
X027804Y032492D02*
X027804Y034804D01*
X027565Y035050D02*
X025576Y035050D01*
X025803Y035550D02*
X027221Y035550D01*
X027304Y035420D02*
X027304Y032492D01*
X026804Y032492D02*
X026804Y040992D01*
X027304Y040992D02*
X027304Y038564D01*
X027295Y038550D02*
X024985Y038550D01*
X024804Y038691D02*
X024804Y040992D01*
X025304Y040992D02*
X025304Y038250D01*
X025462Y038050D02*
X027047Y038050D01*
X026925Y037550D02*
X025741Y037550D01*
X025804Y037347D02*
X025804Y040992D01*
X026304Y040992D02*
X026304Y032492D01*
X025804Y032492D02*
X025804Y035552D01*
X025916Y036050D02*
X027018Y036050D01*
X026904Y036550D02*
X025927Y036550D01*
X025878Y037050D02*
X026881Y037050D01*
X028804Y034224D02*
X028804Y032492D01*
X029304Y032492D02*
X029304Y034096D01*
X029804Y034072D02*
X029804Y032492D01*
X030304Y032492D02*
X030304Y034087D01*
X030804Y034197D02*
X030804Y032492D01*
X031304Y032492D02*
X031304Y034400D01*
X032095Y035050D02*
X034076Y035050D01*
X033704Y036050D02*
X032617Y036050D01*
X032712Y036550D02*
X033681Y036550D01*
X033730Y037050D02*
X032727Y037050D01*
X032312Y038550D02*
X034623Y038550D01*
X032304Y038564D02*
X032304Y040992D01*
X032804Y040992D02*
X032804Y032492D01*
X035304Y032492D02*
X035304Y034038D01*
X035804Y033908D02*
X035804Y032492D01*
X036304Y032492D02*
X036304Y033872D01*
X036804Y033890D02*
X036804Y032492D01*
X038741Y037550D02*
X039304Y037550D01*
X030804Y039761D02*
X030804Y040992D01*
X030304Y040992D02*
X030304Y039888D01*
X029804Y039912D02*
X029804Y040992D01*
X029304Y040992D02*
X029304Y039888D01*
X028804Y039761D02*
X028804Y040992D01*
D11*
X029916Y028142D03*
X029916Y027142D03*
X030916Y027142D03*
X030916Y028142D03*
X031916Y028142D03*
X031916Y027142D03*
X023153Y027142D03*
X023153Y028142D03*
X022153Y028142D03*
X022153Y027142D03*
X021153Y027142D03*
X021153Y028142D03*
X014543Y028142D03*
X014543Y027142D03*
X013543Y027142D03*
X013543Y028142D03*
X012543Y028142D03*
X012543Y027142D03*
X005779Y027142D03*
X005779Y028142D03*
X004779Y028142D03*
X004779Y027142D03*
X003779Y027142D03*
X003779Y028142D03*
X002822Y034823D03*
X002822Y035823D03*
X002822Y036823D03*
X002822Y037823D03*
X002822Y038823D03*
X001722Y038823D03*
X001722Y037823D03*
X001722Y036823D03*
X001722Y035823D03*
X001722Y034823D03*
X003794Y015510D03*
X004794Y015510D03*
X005794Y015510D03*
X006794Y015510D03*
X007794Y015510D03*
X007794Y014410D03*
X006794Y014410D03*
X005794Y014410D03*
X004794Y014410D03*
X003794Y014410D03*
X017016Y014358D03*
X018016Y014358D03*
X019016Y014358D03*
X020016Y014358D03*
X021016Y014358D03*
X021016Y015458D03*
X020016Y015458D03*
X019016Y015458D03*
X018016Y015458D03*
X017016Y015458D03*
X030239Y015510D03*
X031239Y015510D03*
X032239Y015510D03*
X033239Y015510D03*
X034239Y015510D03*
X034239Y014410D03*
X033239Y014410D03*
X032239Y014410D03*
X031239Y014410D03*
X030239Y014410D03*
D12*
X028167Y021479D03*
X028167Y022463D03*
X028167Y023448D03*
X025112Y023448D03*
X025112Y021479D03*
X019403Y021479D03*
X019403Y022463D03*
X019403Y023448D03*
X016502Y023448D03*
X016502Y021479D03*
X010793Y021479D03*
X010793Y022463D03*
X010793Y023448D03*
X007738Y023448D03*
X007738Y021479D03*
X002030Y021479D03*
X002030Y022463D03*
X002030Y023448D03*
X033876Y023448D03*
X033876Y021479D03*
D13*
X031120Y020062D03*
X031120Y024865D03*
X022356Y024865D03*
X022356Y020062D03*
X013746Y020062D03*
X013746Y024865D03*
X004983Y024865D03*
X004983Y020062D03*
D14*
X010919Y010647D03*
X024141Y010595D03*
X037364Y010647D03*
D15*
X038261Y007820D03*
X036466Y007820D03*
X025039Y007769D03*
X023244Y007769D03*
X011816Y007820D03*
X010021Y007820D03*
D16*
X014965Y010158D03*
X016067Y010158D03*
X016067Y011658D03*
X014965Y011658D03*
X002845Y011710D03*
X001743Y011710D03*
X001743Y010210D03*
X002845Y010210D03*
X028188Y010210D03*
X029290Y010210D03*
X029290Y011710D03*
X028188Y011710D03*
D17*
X030614Y012420D03*
X031114Y012420D03*
X031614Y012420D03*
X032114Y012420D03*
X032614Y012420D03*
X033114Y012420D03*
X033614Y012420D03*
X034114Y012420D03*
X034114Y010000D03*
X033614Y010000D03*
X033114Y010000D03*
X032614Y010000D03*
X032114Y010000D03*
X031614Y010000D03*
X031114Y010000D03*
X030614Y010000D03*
X020891Y009948D03*
X020391Y009948D03*
X019891Y009948D03*
X019391Y009948D03*
X018891Y009948D03*
X018391Y009948D03*
X017891Y009948D03*
X017391Y009948D03*
X017391Y012368D03*
X017891Y012368D03*
X018391Y012368D03*
X018891Y012368D03*
X019391Y012368D03*
X019891Y012368D03*
X020391Y012368D03*
X020891Y012368D03*
X007669Y012420D03*
X007169Y012420D03*
X006669Y012420D03*
X006169Y012420D03*
X005669Y012420D03*
X005169Y012420D03*
X004669Y012420D03*
X004169Y012420D03*
X004169Y010000D03*
X004669Y010000D03*
X005169Y010000D03*
X005669Y010000D03*
X006169Y010000D03*
X006669Y010000D03*
X007169Y010000D03*
X007669Y010000D03*
D18*
X009329Y004507D03*
X003758Y004487D03*
X016981Y004436D03*
X022552Y004456D03*
X030203Y004487D03*
X035774Y004507D03*
D19*
X031197Y004448D03*
X017975Y004397D03*
X004752Y004448D03*
D20*
X008424Y004448D03*
X021646Y004397D03*
X034869Y004448D03*
D21*
X035085Y007903D03*
X034652Y007903D03*
X034140Y007903D03*
X033707Y007903D03*
X033274Y007903D03*
X032841Y007903D03*
X032408Y007903D03*
X031975Y007903D03*
X031542Y007903D03*
X031109Y007903D03*
X021863Y007851D03*
X021430Y007851D03*
X020918Y007851D03*
X020485Y007851D03*
X020052Y007851D03*
X019619Y007851D03*
X019186Y007851D03*
X018752Y007851D03*
X018319Y007851D03*
X017886Y007851D03*
X008640Y007903D03*
X008207Y007903D03*
X007695Y007903D03*
X007262Y007903D03*
X006829Y007903D03*
X006396Y007903D03*
X005963Y007903D03*
X005530Y007903D03*
X005097Y007903D03*
X004664Y007903D03*
D22*
X004260Y006436D02*
X004262Y006471D01*
X004268Y006506D01*
X004278Y006540D01*
X004291Y006573D01*
X004308Y006604D01*
X004329Y006632D01*
X004352Y006659D01*
X004379Y006682D01*
X004407Y006703D01*
X004438Y006720D01*
X004471Y006733D01*
X004505Y006743D01*
X004540Y006749D01*
X004575Y006751D01*
X004610Y006749D01*
X004645Y006743D01*
X004679Y006733D01*
X004712Y006720D01*
X004743Y006703D01*
X004771Y006682D01*
X004798Y006659D01*
X004821Y006632D01*
X004842Y006604D01*
X004859Y006573D01*
X004872Y006540D01*
X004882Y006506D01*
X004888Y006471D01*
X004890Y006436D01*
X004888Y006401D01*
X004882Y006366D01*
X004872Y006332D01*
X004859Y006299D01*
X004842Y006268D01*
X004821Y006240D01*
X004798Y006213D01*
X004771Y006190D01*
X004743Y006169D01*
X004712Y006152D01*
X004679Y006139D01*
X004645Y006129D01*
X004610Y006123D01*
X004575Y006121D01*
X004540Y006123D01*
X004505Y006129D01*
X004471Y006139D01*
X004438Y006152D01*
X004407Y006169D01*
X004379Y006190D01*
X004352Y006213D01*
X004329Y006240D01*
X004308Y006268D01*
X004291Y006299D01*
X004278Y006332D01*
X004268Y006366D01*
X004262Y006401D01*
X004260Y006436D01*
X008197Y006436D02*
X008199Y006471D01*
X008205Y006506D01*
X008215Y006540D01*
X008228Y006573D01*
X008245Y006604D01*
X008266Y006632D01*
X008289Y006659D01*
X008316Y006682D01*
X008344Y006703D01*
X008375Y006720D01*
X008408Y006733D01*
X008442Y006743D01*
X008477Y006749D01*
X008512Y006751D01*
X008547Y006749D01*
X008582Y006743D01*
X008616Y006733D01*
X008649Y006720D01*
X008680Y006703D01*
X008708Y006682D01*
X008735Y006659D01*
X008758Y006632D01*
X008779Y006604D01*
X008796Y006573D01*
X008809Y006540D01*
X008819Y006506D01*
X008825Y006471D01*
X008827Y006436D01*
X008825Y006401D01*
X008819Y006366D01*
X008809Y006332D01*
X008796Y006299D01*
X008779Y006268D01*
X008758Y006240D01*
X008735Y006213D01*
X008708Y006190D01*
X008680Y006169D01*
X008649Y006152D01*
X008616Y006139D01*
X008582Y006129D01*
X008547Y006123D01*
X008512Y006121D01*
X008477Y006123D01*
X008442Y006129D01*
X008408Y006139D01*
X008375Y006152D01*
X008344Y006169D01*
X008316Y006190D01*
X008289Y006213D01*
X008266Y006240D01*
X008245Y006268D01*
X008228Y006299D01*
X008215Y006332D01*
X008205Y006366D01*
X008199Y006401D01*
X008197Y006436D01*
X017483Y006385D02*
X017485Y006420D01*
X017491Y006455D01*
X017501Y006489D01*
X017514Y006522D01*
X017531Y006553D01*
X017552Y006581D01*
X017575Y006608D01*
X017602Y006631D01*
X017630Y006652D01*
X017661Y006669D01*
X017694Y006682D01*
X017728Y006692D01*
X017763Y006698D01*
X017798Y006700D01*
X017833Y006698D01*
X017868Y006692D01*
X017902Y006682D01*
X017935Y006669D01*
X017966Y006652D01*
X017994Y006631D01*
X018021Y006608D01*
X018044Y006581D01*
X018065Y006553D01*
X018082Y006522D01*
X018095Y006489D01*
X018105Y006455D01*
X018111Y006420D01*
X018113Y006385D01*
X018111Y006350D01*
X018105Y006315D01*
X018095Y006281D01*
X018082Y006248D01*
X018065Y006217D01*
X018044Y006189D01*
X018021Y006162D01*
X017994Y006139D01*
X017966Y006118D01*
X017935Y006101D01*
X017902Y006088D01*
X017868Y006078D01*
X017833Y006072D01*
X017798Y006070D01*
X017763Y006072D01*
X017728Y006078D01*
X017694Y006088D01*
X017661Y006101D01*
X017630Y006118D01*
X017602Y006139D01*
X017575Y006162D01*
X017552Y006189D01*
X017531Y006217D01*
X017514Y006248D01*
X017501Y006281D01*
X017491Y006315D01*
X017485Y006350D01*
X017483Y006385D01*
X021420Y006385D02*
X021422Y006420D01*
X021428Y006455D01*
X021438Y006489D01*
X021451Y006522D01*
X021468Y006553D01*
X021489Y006581D01*
X021512Y006608D01*
X021539Y006631D01*
X021567Y006652D01*
X021598Y006669D01*
X021631Y006682D01*
X021665Y006692D01*
X021700Y006698D01*
X021735Y006700D01*
X021770Y006698D01*
X021805Y006692D01*
X021839Y006682D01*
X021872Y006669D01*
X021903Y006652D01*
X021931Y006631D01*
X021958Y006608D01*
X021981Y006581D01*
X022002Y006553D01*
X022019Y006522D01*
X022032Y006489D01*
X022042Y006455D01*
X022048Y006420D01*
X022050Y006385D01*
X022048Y006350D01*
X022042Y006315D01*
X022032Y006281D01*
X022019Y006248D01*
X022002Y006217D01*
X021981Y006189D01*
X021958Y006162D01*
X021931Y006139D01*
X021903Y006118D01*
X021872Y006101D01*
X021839Y006088D01*
X021805Y006078D01*
X021770Y006072D01*
X021735Y006070D01*
X021700Y006072D01*
X021665Y006078D01*
X021631Y006088D01*
X021598Y006101D01*
X021567Y006118D01*
X021539Y006139D01*
X021512Y006162D01*
X021489Y006189D01*
X021468Y006217D01*
X021451Y006248D01*
X021438Y006281D01*
X021428Y006315D01*
X021422Y006350D01*
X021420Y006385D01*
X030705Y006436D02*
X030707Y006471D01*
X030713Y006506D01*
X030723Y006540D01*
X030736Y006573D01*
X030753Y006604D01*
X030774Y006632D01*
X030797Y006659D01*
X030824Y006682D01*
X030852Y006703D01*
X030883Y006720D01*
X030916Y006733D01*
X030950Y006743D01*
X030985Y006749D01*
X031020Y006751D01*
X031055Y006749D01*
X031090Y006743D01*
X031124Y006733D01*
X031157Y006720D01*
X031188Y006703D01*
X031216Y006682D01*
X031243Y006659D01*
X031266Y006632D01*
X031287Y006604D01*
X031304Y006573D01*
X031317Y006540D01*
X031327Y006506D01*
X031333Y006471D01*
X031335Y006436D01*
X031333Y006401D01*
X031327Y006366D01*
X031317Y006332D01*
X031304Y006299D01*
X031287Y006268D01*
X031266Y006240D01*
X031243Y006213D01*
X031216Y006190D01*
X031188Y006169D01*
X031157Y006152D01*
X031124Y006139D01*
X031090Y006129D01*
X031055Y006123D01*
X031020Y006121D01*
X030985Y006123D01*
X030950Y006129D01*
X030916Y006139D01*
X030883Y006152D01*
X030852Y006169D01*
X030824Y006190D01*
X030797Y006213D01*
X030774Y006240D01*
X030753Y006268D01*
X030736Y006299D01*
X030723Y006332D01*
X030713Y006366D01*
X030707Y006401D01*
X030705Y006436D01*
X034642Y006436D02*
X034644Y006471D01*
X034650Y006506D01*
X034660Y006540D01*
X034673Y006573D01*
X034690Y006604D01*
X034711Y006632D01*
X034734Y006659D01*
X034761Y006682D01*
X034789Y006703D01*
X034820Y006720D01*
X034853Y006733D01*
X034887Y006743D01*
X034922Y006749D01*
X034957Y006751D01*
X034992Y006749D01*
X035027Y006743D01*
X035061Y006733D01*
X035094Y006720D01*
X035125Y006703D01*
X035153Y006682D01*
X035180Y006659D01*
X035203Y006632D01*
X035224Y006604D01*
X035241Y006573D01*
X035254Y006540D01*
X035264Y006506D01*
X035270Y006471D01*
X035272Y006436D01*
X035270Y006401D01*
X035264Y006366D01*
X035254Y006332D01*
X035241Y006299D01*
X035224Y006268D01*
X035203Y006240D01*
X035180Y006213D01*
X035153Y006190D01*
X035125Y006169D01*
X035094Y006152D01*
X035061Y006139D01*
X035027Y006129D01*
X034992Y006123D01*
X034957Y006121D01*
X034922Y006123D01*
X034887Y006129D01*
X034853Y006139D01*
X034820Y006152D01*
X034789Y006169D01*
X034761Y006190D01*
X034734Y006213D01*
X034711Y006240D01*
X034690Y006268D01*
X034673Y006299D01*
X034660Y006332D01*
X034650Y006366D01*
X034644Y006401D01*
X034642Y006436D01*
D23*
X036396Y002962D03*
X037577Y002962D03*
X029329Y002982D03*
X028148Y002982D03*
X024354Y002911D03*
X023173Y002911D03*
X016107Y002931D03*
X014926Y002931D03*
X011132Y002962D03*
X009951Y002962D03*
X002884Y002982D03*
X001703Y002982D03*
D24*
X001743Y006960D03*
X002845Y006960D03*
X002845Y008710D03*
X001743Y008710D03*
X014965Y008658D03*
X016067Y008658D03*
X016067Y006908D03*
X014965Y006908D03*
X028188Y006960D03*
X029290Y006960D03*
X029290Y008710D03*
X028188Y008710D03*
D25*
X024716Y013158D03*
X011494Y013210D03*
X037939Y013210D03*
D26*
X038039Y014210D03*
X037939Y015210D03*
X038039Y016210D03*
X024816Y016158D03*
X024716Y015158D03*
X024816Y014158D03*
X011594Y014210D03*
X011494Y015210D03*
X011594Y016210D03*
D27*
X023304Y038092D03*
X029804Y038892D03*
X036304Y038092D03*
X016604Y038692D03*
X014504Y038692D03*
X012304Y038692D03*
X010204Y038692D03*
X008004Y038692D03*
D28*
X006198Y028136D02*
X005785Y028136D01*
X005779Y028142D01*
X006198Y028136D02*
X006608Y027726D01*
X006608Y021935D01*
X006152Y021479D01*
X002030Y021479D01*
X002030Y023448D02*
X002030Y024071D01*
X004506Y026547D01*
X004506Y026870D01*
X004779Y027142D01*
X010793Y024071D02*
X010793Y023448D01*
X010793Y024071D02*
X013270Y026547D01*
X013270Y026870D01*
X013543Y027142D01*
X014549Y028136D02*
X014543Y028142D01*
X014549Y028136D02*
X014961Y028136D01*
X015371Y027726D01*
X015371Y021935D01*
X014916Y021479D01*
X010793Y021479D01*
X008606Y016707D02*
X004045Y016707D01*
X003789Y016451D01*
X003789Y015515D01*
X003794Y015510D01*
X003744Y015460D01*
X003294Y015460D01*
X002919Y015085D01*
X002919Y012710D01*
X002794Y012585D01*
X002044Y012585D01*
X001743Y012284D01*
X001743Y011710D01*
X001743Y011159D01*
X001669Y010960D01*
X001743Y010210D02*
X001743Y010011D01*
X002169Y009585D01*
X002845Y010210D02*
X002845Y010960D01*
X002845Y011710D01*
X003470Y012420D01*
X004169Y012420D01*
X004669Y012420D02*
X004669Y011835D01*
X004544Y011710D01*
X003794Y011710D01*
X003493Y011460D01*
X003493Y009283D01*
X003470Y009210D01*
X002845Y008710D01*
X003794Y009335D02*
X003794Y011085D01*
X003919Y011210D01*
X005169Y011210D02*
X005169Y012420D01*
X004669Y012420D02*
X004669Y014285D01*
X004794Y014410D01*
X005294Y013960D02*
X005669Y013585D01*
X005669Y012420D01*
X006169Y012420D02*
X006169Y011505D01*
X006486Y011187D01*
X008044Y011187D01*
X008345Y010835D01*
X008345Y009181D01*
X008146Y008982D01*
X006970Y008982D01*
X006829Y008841D01*
X006829Y007903D01*
X006419Y007880D02*
X006396Y007903D01*
X006396Y006857D01*
X006544Y006710D01*
X006419Y006710D02*
X006419Y007880D01*
X005963Y007903D02*
X005963Y009129D01*
X006169Y009335D01*
X007919Y009335D01*
X008044Y009460D01*
X008044Y010710D01*
X007919Y010835D01*
X005544Y010835D01*
X005169Y011210D01*
X006669Y012420D02*
X006669Y014285D01*
X006794Y014410D01*
X005794Y015510D02*
X005788Y015516D01*
X005788Y016092D01*
X005941Y016246D01*
X008299Y016246D01*
X008863Y015682D01*
X008811Y013478D01*
X009080Y013210D01*
X011494Y013210D01*
X011494Y013240D01*
X010913Y013222D01*
X009016Y013222D01*
X009016Y013017D01*
X008606Y013017D01*
X009334Y012420D02*
X007669Y012420D01*
X007169Y012420D02*
X007169Y011636D01*
X007294Y011511D01*
X008169Y011511D01*
X008646Y011085D01*
X008646Y008851D01*
X008425Y008630D01*
X007448Y008630D01*
X007262Y008496D01*
X007262Y007903D01*
X008169Y007085D02*
X007919Y006835D01*
X007919Y006210D01*
X007794Y006085D01*
X005794Y006085D01*
X005530Y006348D01*
X005530Y007903D01*
X005530Y009196D01*
X005544Y009210D01*
X005097Y009157D02*
X005044Y009210D01*
X003919Y009210D01*
X003794Y009335D01*
X005097Y009157D02*
X005097Y007903D01*
X002845Y006960D02*
X002845Y005659D01*
X003419Y005085D01*
X006669Y005085D01*
X007169Y004585D01*
X009329Y004507D02*
X009329Y003549D01*
X009419Y003460D01*
X009419Y003785D01*
X009426Y003792D01*
X011015Y003792D01*
X011169Y003638D01*
X011169Y002999D01*
X011132Y002962D01*
X009419Y003460D02*
X003794Y003460D01*
X003758Y003495D01*
X003758Y004487D01*
X003794Y004452D01*
X003794Y003460D01*
X003419Y003085D01*
X002884Y002982D01*
X001703Y002982D02*
X001703Y005550D01*
X001169Y006085D01*
X001169Y008460D01*
X001419Y008710D01*
X001743Y008710D01*
X001669Y007835D02*
X001669Y007034D01*
X001743Y006960D01*
X008169Y007085D02*
X009544Y007085D01*
X009329Y006870D01*
X009329Y004507D01*
X010810Y006508D02*
X010919Y006617D01*
X010919Y010335D01*
X009919Y011335D01*
X010169Y011585D01*
X009334Y012420D01*
X009396Y012420D01*
X010919Y010647D01*
X011816Y007820D02*
X011816Y006527D01*
X011835Y006508D01*
X010021Y007820D02*
X009919Y007718D01*
X009919Y007210D01*
X009794Y007085D01*
X009544Y007085D01*
X014391Y006033D02*
X014391Y008408D01*
X014641Y008658D01*
X014965Y008658D01*
X014891Y007783D02*
X014891Y006982D01*
X014965Y006908D01*
X014391Y006033D02*
X014926Y005499D01*
X014926Y002931D01*
X016107Y002931D02*
X016641Y003033D01*
X017016Y003408D01*
X022641Y003408D01*
X022641Y003733D01*
X022649Y003741D01*
X024238Y003741D01*
X024391Y003587D01*
X024391Y002948D01*
X024354Y002911D01*
X022641Y003408D02*
X022552Y003498D01*
X022552Y004456D01*
X022552Y006819D01*
X022766Y007033D01*
X023016Y007033D01*
X023141Y007158D01*
X023141Y007666D01*
X023244Y007769D01*
X022766Y007033D02*
X021391Y007033D01*
X021141Y006783D01*
X021141Y006158D01*
X021016Y006033D01*
X019016Y006033D01*
X018752Y006297D01*
X018752Y007851D01*
X018752Y009145D01*
X018766Y009158D01*
X018319Y009105D02*
X018266Y009158D01*
X017141Y009158D01*
X017016Y009283D01*
X017016Y011033D01*
X017141Y011158D01*
X016715Y011408D02*
X016715Y009232D01*
X016693Y009158D01*
X016067Y008658D01*
X015391Y009533D02*
X014965Y009960D01*
X014965Y010158D01*
X014891Y010908D02*
X014965Y011107D01*
X014965Y011658D01*
X014965Y012232D01*
X015266Y012533D01*
X016016Y012533D01*
X016141Y012658D01*
X016141Y015033D01*
X016516Y015408D01*
X016966Y015408D01*
X017016Y015458D01*
X017011Y015463D01*
X017011Y016400D01*
X017268Y016656D01*
X021829Y016656D01*
X022546Y015938D01*
X022546Y014503D01*
X022891Y014158D01*
X024816Y014158D01*
X024716Y013188D02*
X024135Y013171D01*
X022239Y013171D01*
X022239Y012966D01*
X021829Y012966D01*
X022034Y013427D02*
X022085Y015631D01*
X021521Y016195D01*
X019164Y016195D01*
X019010Y016041D01*
X019010Y015465D01*
X019016Y015458D01*
X018516Y014958D02*
X018016Y015458D01*
X018016Y014358D02*
X017891Y014233D01*
X017891Y012368D01*
X017891Y011783D01*
X017766Y011658D01*
X017016Y011658D01*
X016715Y011408D01*
X016067Y011658D02*
X016067Y010908D01*
X016067Y010158D01*
X016067Y011658D02*
X016692Y012368D01*
X017391Y012368D01*
X018391Y012368D02*
X018391Y011158D01*
X018766Y010783D01*
X021141Y010783D01*
X021266Y010658D01*
X021266Y009408D01*
X021141Y009283D01*
X019391Y009283D01*
X019186Y009078D01*
X019186Y007851D01*
X019619Y007851D02*
X019619Y006806D01*
X019766Y006658D01*
X019641Y006658D02*
X019641Y007829D01*
X019619Y007851D01*
X020052Y007851D02*
X020052Y008790D01*
X020193Y008931D01*
X021369Y008931D01*
X021568Y009130D01*
X021568Y010783D01*
X021266Y011136D01*
X019709Y011136D01*
X019391Y011453D01*
X019391Y012368D01*
X018891Y012368D02*
X018891Y013533D01*
X018516Y013908D01*
X019891Y014233D02*
X020016Y014358D01*
X019891Y014233D02*
X019891Y012368D01*
X020391Y012368D02*
X020391Y011585D01*
X020516Y011460D01*
X021391Y011460D01*
X021869Y011033D01*
X021869Y008800D01*
X021648Y008578D01*
X020670Y008578D01*
X020485Y008444D01*
X020485Y007851D01*
X018319Y007851D02*
X018319Y009105D01*
X016067Y006908D02*
X016067Y005607D01*
X016641Y005033D01*
X019891Y005033D01*
X020391Y004533D01*
X017016Y004401D02*
X017016Y003408D01*
X016981Y003444D01*
X016981Y004436D01*
X017016Y004401D01*
X023141Y011283D02*
X024141Y010283D01*
X024141Y006566D01*
X024033Y006457D01*
X025039Y006476D02*
X025058Y006457D01*
X025039Y006476D02*
X025039Y007769D01*
X027614Y008460D02*
X027614Y006085D01*
X028148Y005550D01*
X028148Y002982D01*
X029329Y002982D02*
X029864Y003085D01*
X030239Y003460D01*
X035864Y003460D01*
X035864Y003785D01*
X035871Y003792D01*
X037460Y003792D01*
X037614Y003638D01*
X037614Y002999D01*
X037577Y002962D01*
X035864Y003460D02*
X035774Y003549D01*
X035774Y004507D01*
X035774Y006870D01*
X035989Y007085D01*
X036239Y007085D01*
X036364Y007210D01*
X036364Y007718D01*
X036466Y007820D01*
X035989Y007085D02*
X034614Y007085D01*
X034364Y006835D01*
X034364Y006210D01*
X034239Y006085D01*
X032239Y006085D01*
X031975Y006348D01*
X031975Y007903D01*
X031975Y009196D01*
X031989Y009210D01*
X032408Y009129D02*
X032614Y009335D01*
X034364Y009335D01*
X034489Y009460D01*
X034489Y010710D01*
X034364Y010835D01*
X031989Y010835D01*
X031614Y011210D01*
X031614Y012420D01*
X032114Y012420D02*
X032114Y013585D01*
X031739Y013960D01*
X031239Y014410D02*
X031114Y014285D01*
X031114Y012420D01*
X031114Y011835D01*
X030989Y011710D01*
X030239Y011710D01*
X029938Y011460D01*
X029938Y009283D01*
X029915Y009210D01*
X029290Y008710D01*
X030239Y009335D02*
X030239Y011085D01*
X030364Y011210D01*
X029290Y010960D02*
X029290Y010210D01*
X029290Y010960D02*
X029290Y011710D01*
X029915Y012420D01*
X030614Y012420D01*
X029364Y012710D02*
X029364Y015085D01*
X029739Y015460D01*
X030189Y015460D01*
X030239Y015510D01*
X030234Y015515D01*
X030234Y016451D01*
X030490Y016707D01*
X035051Y016707D01*
X035769Y015990D01*
X035769Y014555D01*
X036114Y014210D01*
X038039Y014210D01*
X037939Y013240D02*
X037358Y013222D01*
X035461Y013222D01*
X035461Y013017D01*
X035051Y013017D01*
X035256Y013478D02*
X035308Y015682D01*
X034744Y016246D01*
X032386Y016246D01*
X032233Y016092D01*
X032233Y015516D01*
X032239Y015510D01*
X031739Y015010D02*
X031239Y015510D01*
X033114Y014285D02*
X033239Y014410D01*
X033114Y014285D02*
X033114Y012420D01*
X032614Y012420D02*
X032614Y011505D01*
X032931Y011187D01*
X034489Y011187D01*
X034790Y010835D01*
X034790Y009181D01*
X034591Y008982D01*
X033415Y008982D01*
X033274Y008841D01*
X033274Y007903D01*
X032864Y007880D02*
X032841Y007903D01*
X032841Y006857D01*
X032989Y006710D01*
X032864Y006710D02*
X032864Y007880D01*
X032408Y007903D02*
X032408Y009129D01*
X031542Y009157D02*
X031542Y007903D01*
X031542Y009157D02*
X031489Y009210D01*
X030364Y009210D01*
X030239Y009335D01*
X028614Y009585D02*
X028188Y010011D01*
X028188Y010210D01*
X028114Y010960D02*
X028188Y011159D01*
X028188Y011710D01*
X028188Y012284D01*
X028489Y012585D01*
X029239Y012585D01*
X029364Y012710D01*
X028188Y008710D02*
X027864Y008710D01*
X027614Y008460D01*
X028114Y007835D02*
X028114Y007034D01*
X028188Y006960D01*
X029290Y006960D02*
X029290Y005659D01*
X029864Y005085D01*
X033114Y005085D01*
X033614Y004585D01*
X033707Y007903D02*
X033707Y008496D01*
X033893Y008630D01*
X034870Y008630D01*
X035091Y008851D01*
X035091Y011085D01*
X034614Y011511D01*
X033739Y011511D01*
X033614Y011636D01*
X033614Y012420D01*
X034114Y012420D02*
X035779Y012420D01*
X036614Y011585D01*
X036364Y011335D01*
X037364Y010335D01*
X037364Y006617D01*
X037255Y006508D01*
X038261Y006527D02*
X038280Y006508D01*
X038261Y006527D02*
X038261Y007820D01*
X037364Y010647D02*
X035841Y012420D01*
X035779Y012420D01*
X035525Y013210D02*
X035256Y013478D01*
X035525Y013210D02*
X037939Y013210D01*
X037939Y013240D01*
X032289Y021479D02*
X032745Y021935D01*
X032745Y027726D01*
X032335Y028136D01*
X031923Y028136D01*
X031916Y028142D01*
X030916Y027142D02*
X030644Y026870D01*
X030644Y026547D01*
X028167Y024071D01*
X028167Y023448D01*
X028167Y021479D02*
X032289Y021479D01*
X023981Y021935D02*
X023981Y027726D01*
X023571Y028136D01*
X023159Y028136D01*
X023153Y028142D01*
X022153Y027142D02*
X021880Y026870D01*
X021880Y026547D01*
X019403Y024071D01*
X019403Y023448D01*
X019403Y021479D02*
X023526Y021479D01*
X023981Y021935D01*
X022034Y013427D02*
X022303Y013158D01*
X024716Y013158D01*
X024716Y013188D01*
X023391Y011533D02*
X023141Y011283D01*
X023391Y011533D02*
X022556Y012368D01*
X020891Y012368D01*
X022556Y012368D02*
X022618Y012368D01*
X024141Y010595D01*
X030203Y004487D02*
X030203Y003495D01*
X030239Y003460D01*
X030239Y004452D01*
X030203Y004487D01*
X011594Y014210D02*
X009669Y014210D01*
X009324Y014555D01*
X009324Y015990D01*
X008606Y016707D01*
X005294Y015010D02*
X004794Y015510D01*
X022165Y035009D02*
X022369Y034873D01*
X022588Y034764D01*
X022820Y034686D01*
X023060Y034638D01*
X023304Y034622D01*
X023548Y034638D01*
X023788Y034686D01*
X024019Y034764D01*
X024239Y034873D01*
X024442Y035009D01*
X024626Y035170D01*
X024787Y035354D01*
X024923Y035557D01*
X025031Y035777D01*
X025110Y036008D01*
X025158Y036248D01*
X025174Y036492D01*
X025158Y036736D01*
X025110Y036976D01*
X025031Y037208D01*
X024923Y037427D01*
X024787Y037631D01*
X024626Y037815D01*
X024442Y037976D01*
X024239Y038112D01*
X024019Y038220D01*
X023788Y038299D01*
X023548Y038346D01*
X023304Y038362D01*
X023060Y038346D01*
X022820Y038299D01*
X022588Y038220D01*
X022369Y038112D01*
X022165Y037976D01*
X021981Y037815D01*
X021820Y037631D01*
X021684Y037427D01*
X021576Y037208D01*
X021497Y036976D01*
X021450Y036736D01*
X021434Y036492D01*
X021450Y036248D01*
X021497Y036008D01*
X021576Y035777D01*
X021684Y035557D01*
X021820Y035354D01*
X021981Y035170D01*
X022165Y035009D01*
X022234Y034963D02*
X024374Y034963D01*
X024654Y035201D02*
X021954Y035201D01*
X021763Y035440D02*
X024845Y035440D01*
X024983Y035678D02*
X021625Y035678D01*
X021528Y035917D02*
X025079Y035917D01*
X025139Y036155D02*
X021468Y036155D01*
X021440Y036394D02*
X025167Y036394D01*
X025165Y036632D02*
X021443Y036632D01*
X021476Y036871D02*
X025131Y036871D01*
X025065Y037109D02*
X021543Y037109D01*
X021645Y037348D02*
X024962Y037348D01*
X024817Y037586D02*
X021790Y037586D01*
X021993Y037825D02*
X024614Y037825D01*
X024311Y038063D02*
X022296Y038063D01*
X022836Y038302D02*
X023772Y038302D01*
X023901Y034724D02*
X022707Y034724D01*
X027747Y036212D02*
X027668Y036466D01*
X027620Y036727D01*
X027604Y036992D01*
X027620Y037257D01*
X027668Y037519D01*
X027747Y037772D01*
X027856Y038015D01*
X027993Y038242D01*
X028157Y038451D01*
X028345Y038639D01*
X028554Y038803D01*
X028781Y038940D01*
X029024Y039049D01*
X029277Y039128D01*
X029539Y039176D01*
X029804Y039192D01*
X030069Y039176D01*
X030330Y039128D01*
X030584Y039049D01*
X030826Y038940D01*
X031053Y038803D01*
X031263Y038639D01*
X031450Y038451D01*
X031614Y038242D01*
X031752Y038015D01*
X031861Y037772D01*
X031940Y037519D01*
X031988Y037257D01*
X032004Y036992D01*
X032004Y036892D01*
X031988Y036639D01*
X031943Y036390D01*
X031867Y036148D01*
X031763Y035916D01*
X031632Y035699D01*
X031476Y035500D01*
X031296Y035320D01*
X031097Y035164D01*
X030880Y035033D01*
X030648Y034929D01*
X030406Y034853D01*
X030157Y034808D01*
X029904Y034792D01*
X029804Y034792D01*
X029539Y034808D01*
X029277Y034856D01*
X029024Y034935D01*
X028781Y035044D01*
X028554Y035182D01*
X028345Y035345D01*
X028157Y035533D01*
X027993Y035742D01*
X027856Y035970D01*
X027747Y036212D01*
X027772Y036155D02*
X031870Y036155D01*
X031943Y036394D02*
X027690Y036394D01*
X027637Y036632D02*
X031987Y036632D01*
X032002Y036871D02*
X027611Y036871D01*
X027611Y037109D02*
X031997Y037109D01*
X031971Y037348D02*
X027636Y037348D01*
X027689Y037586D02*
X031919Y037586D01*
X031837Y037825D02*
X027770Y037825D01*
X027885Y038063D02*
X031722Y038063D01*
X031567Y038302D02*
X028040Y038302D01*
X028246Y038540D02*
X031361Y038540D01*
X031084Y038779D02*
X028523Y038779D01*
X028953Y039017D02*
X030655Y039017D01*
X031763Y035917D02*
X027888Y035917D01*
X028044Y035678D02*
X031616Y035678D01*
X031416Y035440D02*
X028251Y035440D01*
X028529Y035201D02*
X031144Y035201D01*
X030724Y034963D02*
X028962Y034963D01*
X034497Y036008D02*
X034576Y035777D01*
X034684Y035557D01*
X034820Y035354D01*
X034981Y035170D01*
X035165Y035009D01*
X035369Y034873D01*
X035588Y034764D01*
X035820Y034686D01*
X036060Y034638D01*
X036304Y034622D01*
X036548Y034638D01*
X036788Y034686D01*
X037019Y034764D01*
X037239Y034873D01*
X037442Y035009D01*
X037626Y035170D01*
X037787Y035354D01*
X037923Y035557D01*
X038031Y035777D01*
X038110Y036008D01*
X038158Y036248D01*
X038174Y036492D01*
X038158Y036736D01*
X038110Y036976D01*
X038031Y037208D01*
X037923Y037427D01*
X037787Y037631D01*
X037626Y037815D01*
X037442Y037976D01*
X037239Y038112D01*
X037019Y038220D01*
X036788Y038299D01*
X036548Y038346D01*
X036304Y038362D01*
X036060Y038346D01*
X035820Y038299D01*
X035588Y038220D01*
X035369Y038112D01*
X035165Y037976D01*
X034981Y037815D01*
X034820Y037631D01*
X034684Y037427D01*
X034576Y037208D01*
X034497Y036976D01*
X034450Y036736D01*
X034434Y036492D01*
X034450Y036248D01*
X034497Y036008D01*
X034528Y035917D02*
X038079Y035917D01*
X038139Y036155D02*
X034468Y036155D01*
X034440Y036394D02*
X038167Y036394D01*
X038165Y036632D02*
X034443Y036632D01*
X034476Y036871D02*
X038131Y036871D01*
X038065Y037109D02*
X034543Y037109D01*
X034645Y037348D02*
X037962Y037348D01*
X037817Y037586D02*
X034790Y037586D01*
X034993Y037825D02*
X037614Y037825D01*
X037311Y038063D02*
X035296Y038063D01*
X035836Y038302D02*
X036772Y038302D01*
X037983Y035678D02*
X034625Y035678D01*
X034763Y035440D02*
X037845Y035440D01*
X037654Y035201D02*
X034954Y035201D01*
X035234Y034963D02*
X037374Y034963D01*
X036901Y034724D02*
X035707Y034724D01*
D29*
X035051Y013017D03*
X031989Y009210D03*
X030364Y011210D03*
X029290Y010960D03*
X028114Y010960D03*
X028614Y009585D03*
X028114Y007835D03*
X025058Y006457D03*
X024033Y006457D03*
X022266Y002908D03*
X020391Y004533D03*
X019641Y006658D03*
X018766Y009158D03*
X017141Y011158D03*
X016067Y010908D03*
X014891Y010908D03*
X015391Y009533D03*
X014891Y007783D03*
X011835Y006508D03*
X010810Y006508D03*
X009044Y002960D03*
X007169Y004585D03*
X006419Y006710D03*
X005544Y009210D03*
X003919Y011210D03*
X002845Y010960D03*
X001669Y010960D03*
X002169Y009585D03*
X001669Y007835D03*
X008606Y013017D03*
X021829Y012966D03*
X032864Y006710D03*
X033614Y004585D03*
X035489Y002960D03*
X037255Y006508D03*
X038280Y006508D03*
D30*
X036396Y002962D02*
X036393Y002960D01*
X035489Y002960D01*
X031739Y013960D02*
X031739Y015010D01*
X023173Y002911D02*
X023171Y002908D01*
X022266Y002908D01*
X018516Y013908D02*
X018516Y014958D01*
X009951Y002962D02*
X009948Y002960D01*
X009044Y002960D01*
X005294Y013960D02*
X005294Y015010D01*
D31*
X003304Y033292D03*
X005004Y033692D03*
M02*
