G75*
G70*
%OFA0B0*%
%FSLAX24Y24*%
%IPPOS*%
%LPD*%
%AMOC8*
5,1,8,0,0,1.08239X$1,22.5*
%
%ADD10C,0.0100*%
%ADD11OC8,0.0740*%
%ADD12R,0.0594X0.0594*%
%ADD13R,0.1266X0.1266*%
%ADD14C,0.0000*%
%ADD15R,0.0740X0.0740*%
%ADD16C,0.0740*%
%ADD17C,0.0340*%
%ADD18R,0.0356X0.0356*%
%ADD19C,0.0240*%
%ADD20C,0.0360*%
D10*
X000304Y002050D02*
X000304Y041420D01*
X039674Y041420D01*
X039674Y002050D01*
X000304Y002050D01*
X000150Y002101D01*
X000524Y032492D02*
X039454Y032492D01*
X039454Y041200D01*
X000524Y041200D01*
X000524Y032492D01*
X000524Y032850D02*
X039454Y032850D01*
X038804Y032492D02*
X038804Y041200D01*
X039454Y040550D02*
X000524Y040550D01*
X001004Y041200D02*
X001004Y039203D01*
X000950Y039150D02*
X000524Y039150D01*
X000784Y038983D02*
X000784Y037501D01*
X000913Y037372D01*
X001210Y037075D01*
X001182Y037047D01*
X001182Y036599D01*
X001459Y036323D01*
X001182Y036047D01*
X001182Y035599D01*
X001191Y035591D01*
X000913Y035312D01*
X000784Y035183D01*
X000784Y034501D01*
X001284Y034001D01*
X001413Y033872D01*
X004699Y033872D01*
X004654Y033762D01*
X004654Y033623D01*
X004699Y033512D01*
X003579Y033512D01*
X003502Y033589D01*
X003373Y033642D01*
X003234Y033642D01*
X003105Y033589D01*
X003007Y033490D01*
X002954Y033362D01*
X002954Y033223D01*
X003007Y033094D01*
X003105Y032995D01*
X003234Y032942D01*
X003373Y032942D01*
X003502Y032995D01*
X003579Y033072D01*
X031495Y033072D01*
X036193Y037770D01*
X036236Y037752D01*
X036371Y037752D01*
X036496Y037804D01*
X036592Y037900D01*
X036644Y038025D01*
X036644Y038160D01*
X036592Y038285D01*
X036496Y038380D01*
X036371Y038432D01*
X036236Y038432D01*
X036111Y038380D01*
X036016Y038285D01*
X035966Y038166D01*
X031313Y033512D01*
X018935Y033512D01*
X023193Y037770D01*
X023236Y037752D01*
X023371Y037752D01*
X023496Y037804D01*
X023592Y037900D01*
X023644Y038025D01*
X023644Y038160D01*
X023592Y038285D01*
X023496Y038380D01*
X023371Y038432D01*
X023236Y038432D01*
X023111Y038380D01*
X023016Y038285D01*
X022966Y038166D01*
X018713Y033912D01*
X012035Y033912D01*
X016493Y038370D01*
X016536Y038352D01*
X016671Y038352D01*
X016796Y038404D01*
X016892Y038500D01*
X016944Y038625D01*
X016944Y038760D01*
X016892Y038885D01*
X016805Y038972D01*
X029313Y038972D01*
X029466Y038819D01*
X029516Y038700D01*
X029611Y038604D01*
X029736Y038552D01*
X029871Y038552D01*
X029996Y038604D01*
X030092Y038700D01*
X030144Y038825D01*
X030144Y038960D01*
X030092Y039085D01*
X029996Y039180D01*
X029871Y039232D01*
X029736Y039232D01*
X029693Y039214D01*
X029495Y039412D01*
X016313Y039412D01*
X016184Y039283D01*
X014613Y037712D01*
X013735Y037712D01*
X014393Y038370D01*
X014436Y038352D01*
X014571Y038352D01*
X014696Y038404D01*
X014792Y038500D01*
X014844Y038625D01*
X014844Y038760D01*
X014792Y038885D01*
X014696Y038980D01*
X014571Y039032D01*
X014436Y039032D01*
X014311Y038980D01*
X014216Y038885D01*
X014166Y038766D01*
X013313Y037912D01*
X009635Y037912D01*
X010093Y038370D01*
X010136Y038352D01*
X010271Y038352D01*
X010396Y038404D01*
X010492Y038500D01*
X010544Y038625D01*
X010544Y038760D01*
X010492Y038885D01*
X010396Y038980D01*
X010271Y039032D01*
X010136Y039032D01*
X010011Y038980D01*
X009916Y038885D01*
X009866Y038766D01*
X009213Y038112D01*
X003297Y038112D01*
X003086Y038323D01*
X003362Y038599D01*
X003362Y039047D01*
X003137Y039272D01*
X007013Y039272D01*
X007666Y038619D01*
X007716Y038500D01*
X007811Y038404D01*
X007936Y038352D01*
X008071Y038352D01*
X008196Y038404D01*
X008292Y038500D01*
X008344Y038625D01*
X008344Y038760D01*
X008292Y038885D01*
X008196Y038980D01*
X008071Y039032D01*
X007936Y039032D01*
X007893Y039014D01*
X007435Y039472D01*
X011113Y039472D01*
X011966Y038619D01*
X012016Y038500D01*
X012111Y038404D01*
X012236Y038352D01*
X012371Y038352D01*
X012496Y038404D01*
X012592Y038500D01*
X012644Y038625D01*
X012644Y038760D01*
X012592Y038885D01*
X012496Y038980D01*
X012371Y039032D01*
X012236Y039032D01*
X012193Y039014D01*
X011295Y039912D01*
X001713Y039912D01*
X001584Y039783D01*
X000784Y038983D01*
X001004Y038892D02*
X001804Y039692D01*
X011204Y039692D01*
X012204Y038692D01*
X012304Y038692D01*
X012542Y038450D02*
X013850Y038450D01*
X013604Y038203D02*
X013604Y041200D01*
X014304Y041200D02*
X014304Y038973D01*
X014404Y038692D02*
X014504Y038692D01*
X014404Y038692D02*
X013404Y037692D01*
X003704Y037692D01*
X002904Y036892D01*
X002822Y036823D01*
X002404Y037168D02*
X002404Y037478D01*
X002282Y037599D02*
X002282Y038047D01*
X002559Y038323D01*
X002524Y038358D01*
X002524Y038301D01*
X002395Y038172D01*
X002262Y038040D01*
X002262Y037599D01*
X001986Y037323D01*
X002262Y037047D01*
X002262Y036599D01*
X001986Y036323D01*
X002262Y036047D01*
X002262Y035599D01*
X001986Y035323D01*
X002262Y035047D01*
X002262Y034599D01*
X001975Y034312D01*
X002569Y034312D01*
X002282Y034599D01*
X002282Y035047D01*
X002559Y035323D01*
X002282Y035599D01*
X002282Y036047D01*
X002559Y036323D01*
X002282Y036599D01*
X002282Y037047D01*
X002559Y037323D01*
X002282Y037599D01*
X002282Y037750D02*
X002262Y037750D01*
X002404Y038168D02*
X002404Y038181D01*
X002304Y038392D02*
X002304Y039092D01*
X002704Y039492D01*
X007104Y039492D01*
X007904Y038692D01*
X008004Y038692D01*
X008242Y038450D02*
X009550Y038450D01*
X009404Y038303D02*
X009404Y039472D01*
X009404Y039912D02*
X009404Y041200D01*
X010104Y041200D02*
X010104Y039912D01*
X010104Y039472D02*
X010104Y039019D01*
X010104Y038692D02*
X010204Y038692D01*
X010104Y038692D02*
X009304Y037892D01*
X002904Y037892D01*
X002822Y037823D01*
X003104Y038305D02*
X003104Y038341D01*
X003213Y038450D02*
X007765Y038450D01*
X008004Y038352D02*
X008004Y038112D01*
X008704Y038112D02*
X008704Y039472D01*
X008704Y039912D02*
X008704Y041200D01*
X008004Y041200D02*
X008004Y039912D01*
X008004Y039472D02*
X008004Y039032D01*
X007757Y039150D02*
X011435Y039150D01*
X011504Y039081D02*
X011504Y037912D01*
X010804Y037912D02*
X010804Y039472D01*
X010804Y039912D02*
X010804Y041200D01*
X011504Y041200D02*
X011504Y039703D01*
X011357Y039850D02*
X039454Y039850D01*
X039454Y039150D02*
X030027Y039150D01*
X029704Y039219D02*
X029704Y041200D01*
X030404Y041200D02*
X030404Y033512D01*
X030404Y033072D02*
X030404Y032492D01*
X031104Y032492D02*
X031104Y033072D01*
X031404Y033292D02*
X036204Y038092D01*
X036304Y038092D01*
X036004Y038256D02*
X036004Y041200D01*
X036704Y041200D02*
X036704Y032492D01*
X036004Y032492D02*
X036004Y037581D01*
X036172Y037750D02*
X039454Y037750D01*
X039454Y038450D02*
X016842Y038450D01*
X016604Y038692D02*
X016504Y038692D01*
X011904Y034092D01*
X001504Y034092D01*
X001004Y034592D01*
X001004Y035092D01*
X001704Y035792D01*
X001722Y035823D01*
X002262Y035650D02*
X002282Y035650D01*
X002404Y035478D02*
X002404Y035168D01*
X002282Y034950D02*
X002262Y034950D01*
X002404Y034478D02*
X002404Y034312D01*
X002404Y033872D02*
X002404Y032492D01*
X003104Y032492D02*
X003104Y032997D01*
X003304Y033292D02*
X031404Y033292D01*
X031350Y033550D02*
X018972Y033550D01*
X018804Y033692D02*
X023204Y038092D01*
X023304Y038092D01*
X023404Y037766D02*
X023404Y033512D01*
X023404Y033072D02*
X023404Y032492D01*
X024104Y032492D02*
X024104Y033072D01*
X024104Y033512D02*
X024104Y038972D01*
X024104Y039412D02*
X024104Y041200D01*
X024804Y041200D02*
X024804Y039412D01*
X024804Y038972D02*
X024804Y033512D01*
X024804Y033072D02*
X024804Y032492D01*
X025504Y032492D02*
X025504Y033072D01*
X025504Y033512D02*
X025504Y038972D01*
X025504Y039412D02*
X025504Y041200D01*
X026204Y041200D02*
X026204Y039412D01*
X026204Y038972D02*
X026204Y033512D01*
X026204Y033072D02*
X026204Y032492D01*
X026904Y032492D02*
X026904Y033072D01*
X026904Y033512D02*
X026904Y038972D01*
X026904Y039412D02*
X026904Y041200D01*
X027604Y041200D02*
X027604Y039412D01*
X027604Y038972D02*
X027604Y033512D01*
X027604Y033072D02*
X027604Y032492D01*
X028304Y032492D02*
X028304Y033072D01*
X028304Y033512D02*
X028304Y038972D01*
X028304Y039412D02*
X028304Y041200D01*
X029004Y041200D02*
X029004Y039412D01*
X029004Y038972D02*
X029004Y033512D01*
X029004Y033072D02*
X029004Y032492D01*
X029704Y032492D02*
X029704Y033072D01*
X029704Y033512D02*
X029704Y038566D01*
X029704Y038892D02*
X029804Y038892D01*
X029704Y038892D02*
X029404Y039192D01*
X016404Y039192D01*
X014704Y037492D01*
X005504Y037492D01*
X002904Y034892D01*
X002822Y034823D01*
X003362Y034950D02*
X012450Y034950D01*
X012204Y034703D02*
X012204Y037272D01*
X012204Y037912D02*
X012204Y038366D01*
X012065Y038450D02*
X010442Y038450D01*
X010104Y038366D02*
X010104Y037912D01*
X010104Y037272D02*
X010104Y034312D01*
X010804Y034312D02*
X010804Y037272D01*
X011504Y037272D02*
X011504Y034312D01*
X011813Y034312D02*
X003075Y034312D01*
X003362Y034599D01*
X003362Y035040D01*
X005595Y037272D01*
X014773Y037272D01*
X011813Y034312D01*
X012204Y034081D02*
X012204Y033912D01*
X012372Y034250D02*
X019050Y034250D01*
X019204Y034403D02*
X019204Y038972D01*
X019204Y039412D02*
X019204Y041200D01*
X019904Y041200D02*
X019904Y039412D01*
X019904Y038972D02*
X019904Y035103D01*
X019750Y034950D02*
X013072Y034950D01*
X012904Y034781D02*
X012904Y033912D01*
X013604Y033912D02*
X013604Y035481D01*
X013772Y035650D02*
X020450Y035650D01*
X020604Y035803D02*
X020604Y038972D01*
X020604Y039412D02*
X020604Y041200D01*
X021304Y041200D02*
X021304Y039412D01*
X021304Y038972D02*
X021304Y036503D01*
X021150Y036350D02*
X014472Y036350D01*
X014304Y036181D02*
X014304Y033912D01*
X015004Y033912D02*
X015004Y036881D01*
X015172Y037050D02*
X021850Y037050D01*
X022004Y037203D02*
X022004Y038972D01*
X022004Y039412D02*
X022004Y041200D01*
X022704Y041200D02*
X022704Y039412D01*
X022704Y038972D02*
X022704Y037903D01*
X022550Y037750D02*
X015872Y037750D01*
X015704Y037581D02*
X015704Y033912D01*
X016404Y033912D02*
X016404Y038281D01*
X015704Y038803D02*
X015704Y041200D01*
X016404Y041200D02*
X016404Y039412D01*
X016050Y039150D02*
X012057Y039150D01*
X012204Y039019D02*
X012204Y041200D01*
X012904Y041200D02*
X012904Y037912D01*
X012904Y037272D02*
X012904Y035403D01*
X013150Y035650D02*
X003972Y035650D01*
X003804Y035481D02*
X003804Y034312D01*
X003804Y033872D02*
X003804Y033512D01*
X003541Y033550D02*
X004684Y033550D01*
X004504Y033512D02*
X004504Y033872D01*
X004504Y034312D02*
X004504Y036181D01*
X004672Y036350D02*
X013850Y036350D01*
X013604Y036103D02*
X013604Y037272D01*
X013772Y037750D02*
X014650Y037750D01*
X014304Y037712D02*
X014304Y038281D01*
X014742Y038450D02*
X015350Y038450D01*
X015004Y038103D02*
X015004Y041200D01*
X017104Y041200D02*
X017104Y039412D01*
X017104Y038972D02*
X017104Y033912D01*
X017804Y033912D02*
X017804Y038972D01*
X017804Y039412D02*
X017804Y041200D01*
X018504Y041200D02*
X018504Y039412D01*
X018504Y038972D02*
X018504Y033912D01*
X018804Y033692D02*
X005004Y033692D01*
X005204Y033072D02*
X005204Y032492D01*
X005904Y032492D02*
X005904Y033072D01*
X006604Y033072D02*
X006604Y032492D01*
X007304Y032492D02*
X007304Y033072D01*
X008004Y033072D02*
X008004Y032492D01*
X008704Y032492D02*
X008704Y033072D01*
X009404Y033072D02*
X009404Y032492D01*
X010104Y032492D02*
X010104Y033072D01*
X010804Y033072D02*
X010804Y032492D01*
X011504Y032492D02*
X011504Y033072D01*
X012204Y033072D02*
X012204Y032492D01*
X012904Y032492D02*
X012904Y033072D01*
X013604Y033072D02*
X013604Y032492D01*
X014304Y032492D02*
X014304Y033072D01*
X015004Y033072D02*
X015004Y032492D01*
X015704Y032492D02*
X015704Y033072D01*
X016404Y033072D02*
X016404Y032492D01*
X017104Y032492D02*
X017104Y033072D01*
X017804Y033072D02*
X017804Y032492D01*
X018504Y032492D02*
X018504Y033072D01*
X019204Y033072D02*
X019204Y032492D01*
X019904Y032492D02*
X019904Y033072D01*
X019904Y033512D02*
X019904Y034481D01*
X019672Y034250D02*
X032050Y034250D01*
X031804Y034003D02*
X031804Y041200D01*
X032504Y041200D02*
X032504Y034703D01*
X032750Y034950D02*
X020372Y034950D01*
X020604Y035181D02*
X020604Y033512D01*
X020604Y033072D02*
X020604Y032492D01*
X021304Y032492D02*
X021304Y033072D01*
X021304Y033512D02*
X021304Y035881D01*
X021072Y035650D02*
X033450Y035650D01*
X033204Y035403D02*
X033204Y041200D01*
X033904Y041200D02*
X033904Y036103D01*
X034150Y036350D02*
X021772Y036350D01*
X022004Y036581D02*
X022004Y033512D01*
X022004Y033072D02*
X022004Y032492D01*
X022704Y032492D02*
X022704Y033072D01*
X022704Y033512D02*
X022704Y037281D01*
X022472Y037050D02*
X034850Y037050D01*
X034604Y036803D02*
X034604Y041200D01*
X035304Y041200D02*
X035304Y037503D01*
X035550Y037750D02*
X023172Y037750D01*
X023404Y038419D02*
X023404Y038972D01*
X023404Y039412D02*
X023404Y041200D01*
X019204Y033781D02*
X019204Y033512D01*
X014550Y037050D02*
X005372Y037050D01*
X005204Y036881D02*
X005204Y034312D01*
X005904Y034312D02*
X005904Y037272D01*
X006604Y037272D02*
X006604Y034312D01*
X007304Y034312D02*
X007304Y037272D01*
X008004Y037272D02*
X008004Y034312D01*
X008704Y034312D02*
X008704Y037272D01*
X009404Y037272D02*
X009404Y034312D01*
X007304Y038112D02*
X007304Y038981D01*
X007135Y039150D02*
X003259Y039150D01*
X003804Y039272D02*
X003804Y038112D01*
X003804Y037472D02*
X003804Y036103D01*
X004050Y036350D02*
X003113Y036350D01*
X003104Y036341D02*
X003104Y036305D01*
X003086Y036323D02*
X003362Y036599D01*
X003362Y037040D01*
X003795Y037472D01*
X005173Y037472D01*
X003362Y035662D01*
X003362Y036047D01*
X003086Y036323D01*
X002532Y036350D02*
X002013Y036350D01*
X002404Y036478D02*
X002404Y036168D01*
X002285Y037050D02*
X002259Y037050D01*
X001704Y036892D02*
X001722Y036823D01*
X001704Y036892D02*
X001004Y037592D01*
X001004Y038892D01*
X001224Y038558D02*
X001459Y038323D01*
X001224Y038088D01*
X001224Y038558D01*
X001224Y038450D02*
X001332Y038450D01*
X000784Y038450D02*
X000524Y038450D01*
X000524Y037750D02*
X000784Y037750D01*
X001004Y037281D02*
X001004Y035403D01*
X001182Y035650D02*
X000524Y035650D01*
X000524Y036350D02*
X001432Y036350D01*
X001185Y037050D02*
X000524Y037050D01*
X001722Y037823D02*
X001804Y037892D01*
X002304Y038392D01*
X002404Y039912D02*
X002404Y041200D01*
X003104Y041200D02*
X003104Y039912D01*
X003804Y039912D02*
X003804Y041200D01*
X004504Y041200D02*
X004504Y039912D01*
X004504Y039272D02*
X004504Y038112D01*
X004504Y037472D02*
X004504Y036803D01*
X004750Y037050D02*
X003372Y037050D01*
X005204Y038112D02*
X005204Y039272D01*
X005204Y039912D02*
X005204Y041200D01*
X005904Y041200D02*
X005904Y039912D01*
X005904Y039272D02*
X005904Y038112D01*
X006604Y038112D02*
X006604Y039272D01*
X006604Y039912D02*
X006604Y041200D01*
X007304Y041200D02*
X007304Y039912D01*
X003104Y034341D02*
X003104Y034312D01*
X003104Y033872D02*
X003104Y033587D01*
X003066Y033550D02*
X000524Y033550D01*
X000524Y034250D02*
X001035Y034250D01*
X001004Y034281D02*
X001004Y032492D01*
X001704Y032492D02*
X001704Y033872D01*
X000784Y034950D02*
X000524Y034950D01*
X003804Y033072D02*
X003804Y032492D01*
X004504Y032492D02*
X004504Y033072D01*
X001650Y039850D02*
X000524Y039850D01*
X001704Y039903D02*
X001704Y041200D01*
X014304Y037272D02*
X014304Y036803D01*
X031104Y033512D02*
X031104Y041200D01*
X035304Y036881D02*
X035304Y032492D01*
X034604Y032492D02*
X034604Y036181D01*
X034772Y036350D02*
X039454Y036350D01*
X039454Y037050D02*
X035472Y037050D01*
X034072Y035650D02*
X039454Y035650D01*
X039454Y034950D02*
X033372Y034950D01*
X033204Y034781D02*
X033204Y032492D01*
X033904Y032492D02*
X033904Y035481D01*
X032672Y034250D02*
X039454Y034250D01*
X039454Y033550D02*
X031972Y033550D01*
X031804Y033381D02*
X031804Y032492D01*
X032504Y032492D02*
X032504Y034081D01*
X037404Y032492D02*
X037404Y041200D01*
X038104Y041200D02*
X038104Y032492D01*
D11*
X031916Y028142D03*
X030916Y028142D03*
X030916Y027142D03*
X031916Y027142D03*
X029916Y027142D03*
X029916Y028142D03*
X023153Y028142D03*
X023153Y027142D03*
X022153Y027142D03*
X022153Y028142D03*
X021153Y028142D03*
X021153Y027142D03*
X014543Y027142D03*
X014543Y028142D03*
X013543Y028142D03*
X013543Y027142D03*
X012543Y027142D03*
X012543Y028142D03*
X005779Y028142D03*
X005779Y027142D03*
X004779Y027142D03*
X004779Y028142D03*
X003779Y028142D03*
X003779Y027142D03*
X002822Y034823D03*
X002822Y035823D03*
X002822Y036823D03*
X002822Y037823D03*
X002822Y038823D03*
X001722Y038823D03*
X001722Y037823D03*
X001722Y036823D03*
X001722Y035823D03*
X001722Y034823D03*
X003794Y015510D03*
X004794Y015510D03*
X005794Y015510D03*
X006794Y015510D03*
X007794Y015510D03*
X007794Y014410D03*
X006794Y014410D03*
X005794Y014410D03*
X004794Y014410D03*
X003794Y014410D03*
X017016Y014358D03*
X018016Y014358D03*
X019016Y014358D03*
X020016Y014358D03*
X021016Y014358D03*
X021016Y015458D03*
X020016Y015458D03*
X019016Y015458D03*
X018016Y015458D03*
X017016Y015458D03*
X030239Y015510D03*
X031239Y015510D03*
X032239Y015510D03*
X033239Y015510D03*
X034239Y015510D03*
X034239Y014410D03*
X033239Y014410D03*
X032239Y014410D03*
X031239Y014410D03*
X030239Y014410D03*
D12*
X028167Y021479D03*
X028167Y022463D03*
X028167Y023448D03*
X025112Y023448D03*
X025112Y021479D03*
X019403Y021479D03*
X019403Y022463D03*
X019403Y023448D03*
X016502Y023448D03*
X016502Y021479D03*
X010793Y021479D03*
X010793Y022463D03*
X010793Y023448D03*
X007738Y023448D03*
X007738Y021479D03*
X002030Y021479D03*
X002030Y022463D03*
X002030Y023448D03*
X033876Y023448D03*
X033876Y021479D03*
D13*
X031120Y020062D03*
X031120Y024865D03*
X022356Y024865D03*
X022356Y020062D03*
X013746Y020062D03*
X013746Y024865D03*
X004983Y024865D03*
X004983Y020062D03*
D14*
X004260Y006436D02*
X004262Y006471D01*
X004268Y006506D01*
X004278Y006540D01*
X004291Y006573D01*
X004308Y006604D01*
X004329Y006632D01*
X004352Y006659D01*
X004379Y006682D01*
X004407Y006703D01*
X004438Y006720D01*
X004471Y006733D01*
X004505Y006743D01*
X004540Y006749D01*
X004575Y006751D01*
X004610Y006749D01*
X004645Y006743D01*
X004679Y006733D01*
X004712Y006720D01*
X004743Y006703D01*
X004771Y006682D01*
X004798Y006659D01*
X004821Y006632D01*
X004842Y006604D01*
X004859Y006573D01*
X004872Y006540D01*
X004882Y006506D01*
X004888Y006471D01*
X004890Y006436D01*
X004888Y006401D01*
X004882Y006366D01*
X004872Y006332D01*
X004859Y006299D01*
X004842Y006268D01*
X004821Y006240D01*
X004798Y006213D01*
X004771Y006190D01*
X004743Y006169D01*
X004712Y006152D01*
X004679Y006139D01*
X004645Y006129D01*
X004610Y006123D01*
X004575Y006121D01*
X004540Y006123D01*
X004505Y006129D01*
X004471Y006139D01*
X004438Y006152D01*
X004407Y006169D01*
X004379Y006190D01*
X004352Y006213D01*
X004329Y006240D01*
X004308Y006268D01*
X004291Y006299D01*
X004278Y006332D01*
X004268Y006366D01*
X004262Y006401D01*
X004260Y006436D01*
X008197Y006436D02*
X008199Y006471D01*
X008205Y006506D01*
X008215Y006540D01*
X008228Y006573D01*
X008245Y006604D01*
X008266Y006632D01*
X008289Y006659D01*
X008316Y006682D01*
X008344Y006703D01*
X008375Y006720D01*
X008408Y006733D01*
X008442Y006743D01*
X008477Y006749D01*
X008512Y006751D01*
X008547Y006749D01*
X008582Y006743D01*
X008616Y006733D01*
X008649Y006720D01*
X008680Y006703D01*
X008708Y006682D01*
X008735Y006659D01*
X008758Y006632D01*
X008779Y006604D01*
X008796Y006573D01*
X008809Y006540D01*
X008819Y006506D01*
X008825Y006471D01*
X008827Y006436D01*
X008825Y006401D01*
X008819Y006366D01*
X008809Y006332D01*
X008796Y006299D01*
X008779Y006268D01*
X008758Y006240D01*
X008735Y006213D01*
X008708Y006190D01*
X008680Y006169D01*
X008649Y006152D01*
X008616Y006139D01*
X008582Y006129D01*
X008547Y006123D01*
X008512Y006121D01*
X008477Y006123D01*
X008442Y006129D01*
X008408Y006139D01*
X008375Y006152D01*
X008344Y006169D01*
X008316Y006190D01*
X008289Y006213D01*
X008266Y006240D01*
X008245Y006268D01*
X008228Y006299D01*
X008215Y006332D01*
X008205Y006366D01*
X008199Y006401D01*
X008197Y006436D01*
X017483Y006385D02*
X017485Y006420D01*
X017491Y006455D01*
X017501Y006489D01*
X017514Y006522D01*
X017531Y006553D01*
X017552Y006581D01*
X017575Y006608D01*
X017602Y006631D01*
X017630Y006652D01*
X017661Y006669D01*
X017694Y006682D01*
X017728Y006692D01*
X017763Y006698D01*
X017798Y006700D01*
X017833Y006698D01*
X017868Y006692D01*
X017902Y006682D01*
X017935Y006669D01*
X017966Y006652D01*
X017994Y006631D01*
X018021Y006608D01*
X018044Y006581D01*
X018065Y006553D01*
X018082Y006522D01*
X018095Y006489D01*
X018105Y006455D01*
X018111Y006420D01*
X018113Y006385D01*
X018111Y006350D01*
X018105Y006315D01*
X018095Y006281D01*
X018082Y006248D01*
X018065Y006217D01*
X018044Y006189D01*
X018021Y006162D01*
X017994Y006139D01*
X017966Y006118D01*
X017935Y006101D01*
X017902Y006088D01*
X017868Y006078D01*
X017833Y006072D01*
X017798Y006070D01*
X017763Y006072D01*
X017728Y006078D01*
X017694Y006088D01*
X017661Y006101D01*
X017630Y006118D01*
X017602Y006139D01*
X017575Y006162D01*
X017552Y006189D01*
X017531Y006217D01*
X017514Y006248D01*
X017501Y006281D01*
X017491Y006315D01*
X017485Y006350D01*
X017483Y006385D01*
X021420Y006385D02*
X021422Y006420D01*
X021428Y006455D01*
X021438Y006489D01*
X021451Y006522D01*
X021468Y006553D01*
X021489Y006581D01*
X021512Y006608D01*
X021539Y006631D01*
X021567Y006652D01*
X021598Y006669D01*
X021631Y006682D01*
X021665Y006692D01*
X021700Y006698D01*
X021735Y006700D01*
X021770Y006698D01*
X021805Y006692D01*
X021839Y006682D01*
X021872Y006669D01*
X021903Y006652D01*
X021931Y006631D01*
X021958Y006608D01*
X021981Y006581D01*
X022002Y006553D01*
X022019Y006522D01*
X022032Y006489D01*
X022042Y006455D01*
X022048Y006420D01*
X022050Y006385D01*
X022048Y006350D01*
X022042Y006315D01*
X022032Y006281D01*
X022019Y006248D01*
X022002Y006217D01*
X021981Y006189D01*
X021958Y006162D01*
X021931Y006139D01*
X021903Y006118D01*
X021872Y006101D01*
X021839Y006088D01*
X021805Y006078D01*
X021770Y006072D01*
X021735Y006070D01*
X021700Y006072D01*
X021665Y006078D01*
X021631Y006088D01*
X021598Y006101D01*
X021567Y006118D01*
X021539Y006139D01*
X021512Y006162D01*
X021489Y006189D01*
X021468Y006217D01*
X021451Y006248D01*
X021438Y006281D01*
X021428Y006315D01*
X021422Y006350D01*
X021420Y006385D01*
X030705Y006436D02*
X030707Y006471D01*
X030713Y006506D01*
X030723Y006540D01*
X030736Y006573D01*
X030753Y006604D01*
X030774Y006632D01*
X030797Y006659D01*
X030824Y006682D01*
X030852Y006703D01*
X030883Y006720D01*
X030916Y006733D01*
X030950Y006743D01*
X030985Y006749D01*
X031020Y006751D01*
X031055Y006749D01*
X031090Y006743D01*
X031124Y006733D01*
X031157Y006720D01*
X031188Y006703D01*
X031216Y006682D01*
X031243Y006659D01*
X031266Y006632D01*
X031287Y006604D01*
X031304Y006573D01*
X031317Y006540D01*
X031327Y006506D01*
X031333Y006471D01*
X031335Y006436D01*
X031333Y006401D01*
X031327Y006366D01*
X031317Y006332D01*
X031304Y006299D01*
X031287Y006268D01*
X031266Y006240D01*
X031243Y006213D01*
X031216Y006190D01*
X031188Y006169D01*
X031157Y006152D01*
X031124Y006139D01*
X031090Y006129D01*
X031055Y006123D01*
X031020Y006121D01*
X030985Y006123D01*
X030950Y006129D01*
X030916Y006139D01*
X030883Y006152D01*
X030852Y006169D01*
X030824Y006190D01*
X030797Y006213D01*
X030774Y006240D01*
X030753Y006268D01*
X030736Y006299D01*
X030723Y006332D01*
X030713Y006366D01*
X030707Y006401D01*
X030705Y006436D01*
X034642Y006436D02*
X034644Y006471D01*
X034650Y006506D01*
X034660Y006540D01*
X034673Y006573D01*
X034690Y006604D01*
X034711Y006632D01*
X034734Y006659D01*
X034761Y006682D01*
X034789Y006703D01*
X034820Y006720D01*
X034853Y006733D01*
X034887Y006743D01*
X034922Y006749D01*
X034957Y006751D01*
X034992Y006749D01*
X035027Y006743D01*
X035061Y006733D01*
X035094Y006720D01*
X035125Y006703D01*
X035153Y006682D01*
X035180Y006659D01*
X035203Y006632D01*
X035224Y006604D01*
X035241Y006573D01*
X035254Y006540D01*
X035264Y006506D01*
X035270Y006471D01*
X035272Y006436D01*
X035270Y006401D01*
X035264Y006366D01*
X035254Y006332D01*
X035241Y006299D01*
X035224Y006268D01*
X035203Y006240D01*
X035180Y006213D01*
X035153Y006190D01*
X035125Y006169D01*
X035094Y006152D01*
X035061Y006139D01*
X035027Y006129D01*
X034992Y006123D01*
X034957Y006121D01*
X034922Y006123D01*
X034887Y006129D01*
X034853Y006139D01*
X034820Y006152D01*
X034789Y006169D01*
X034761Y006190D01*
X034734Y006213D01*
X034711Y006240D01*
X034690Y006268D01*
X034673Y006299D01*
X034660Y006332D01*
X034650Y006366D01*
X034644Y006401D01*
X034642Y006436D01*
D15*
X037939Y013210D03*
X024716Y013158D03*
X011494Y013210D03*
D16*
X011594Y014210D03*
X011494Y015210D03*
X011594Y016210D03*
X024716Y015158D03*
X024816Y014158D03*
X024816Y016158D03*
X037939Y015210D03*
X038039Y016210D03*
X038039Y014210D03*
D17*
X036304Y038092D03*
X029804Y038892D03*
X023304Y038092D03*
X016604Y038692D03*
X014504Y038692D03*
X012304Y038692D03*
X010204Y038692D03*
X008004Y038692D03*
D18*
X008606Y013017D03*
X005544Y009210D03*
X003919Y011210D03*
X002845Y010960D03*
X001669Y010960D03*
X002169Y009585D03*
X001669Y007835D03*
X006419Y006710D03*
X007169Y004585D03*
X009044Y002960D03*
X010810Y006508D03*
X011835Y006508D03*
X014891Y007783D03*
X015391Y009533D03*
X014891Y010908D03*
X016067Y010908D03*
X017141Y011158D03*
X018766Y009158D03*
X019641Y006658D03*
X020391Y004533D03*
X022266Y002908D03*
X024033Y006457D03*
X025058Y006457D03*
X028114Y007835D03*
X028614Y009585D03*
X028114Y010960D03*
X029290Y010960D03*
X030364Y011210D03*
X031989Y009210D03*
X032864Y006710D03*
X033614Y004585D03*
X035489Y002960D03*
X037255Y006508D03*
X038280Y006508D03*
X035051Y013017D03*
X021829Y012966D03*
D19*
X021829Y009327D01*
X021521Y009020D01*
X018905Y009020D01*
X018766Y009158D01*
X016141Y009158D01*
X016141Y010835D01*
X016067Y010908D01*
X017016Y011283D02*
X017141Y011158D01*
X017016Y011283D02*
X017016Y014358D01*
X014891Y010908D02*
X014891Y007783D01*
X015391Y008158D02*
X015766Y007783D01*
X017016Y007783D01*
X017516Y007283D01*
X019016Y007283D01*
X019641Y006658D01*
X019728Y006572D01*
X019728Y005842D01*
X019984Y005586D01*
X022188Y005586D01*
X023059Y006457D01*
X024033Y006457D01*
X025058Y006457D02*
X025058Y010608D01*
X023469Y012197D01*
X023469Y013185D01*
X024443Y014158D01*
X024816Y014158D01*
X023916Y014358D02*
X024716Y015158D01*
X024816Y016158D02*
X024729Y016246D01*
X024135Y016246D01*
X023348Y015458D01*
X021016Y015458D01*
X021016Y014358D02*
X023916Y014358D01*
X028114Y010960D02*
X028114Y007835D01*
X028614Y008210D02*
X028989Y007835D01*
X030239Y007835D01*
X030739Y007335D01*
X032239Y007335D01*
X032864Y006710D01*
X032950Y006623D01*
X032950Y005893D01*
X033206Y005637D01*
X035410Y005637D01*
X036281Y006508D01*
X037255Y006508D01*
X038280Y006508D02*
X038280Y010660D01*
X036691Y012248D01*
X036691Y013236D01*
X037665Y014210D01*
X038039Y014210D01*
X037139Y014410D02*
X037939Y015210D01*
X038039Y016210D02*
X037951Y016297D01*
X037358Y016297D01*
X036570Y015510D01*
X034239Y015510D01*
X034239Y014410D02*
X037139Y014410D01*
X035051Y013017D02*
X035051Y009378D01*
X034744Y009071D01*
X032128Y009071D01*
X031989Y009210D01*
X029364Y009210D01*
X029364Y010886D01*
X029290Y010960D01*
X030239Y011335D02*
X030364Y011210D01*
X030239Y011335D02*
X030239Y014410D01*
X028614Y009585D02*
X028614Y008210D01*
X033614Y004585D02*
X033614Y003085D01*
X033739Y002960D01*
X035489Y002960D01*
X022266Y002908D02*
X020516Y002908D01*
X020391Y003033D01*
X020391Y004533D01*
X015391Y008158D02*
X015391Y009533D01*
X011835Y010660D02*
X011835Y006508D01*
X010810Y006508D02*
X009836Y006508D01*
X008965Y005637D01*
X006761Y005637D01*
X006505Y005893D01*
X006505Y006623D01*
X006419Y006710D01*
X005794Y007335D01*
X004294Y007335D01*
X003794Y007835D01*
X002544Y007835D01*
X002169Y008210D01*
X002169Y009585D01*
X002919Y009210D02*
X002919Y010886D01*
X002845Y010960D01*
X003794Y011335D02*
X003919Y011210D01*
X003794Y011335D02*
X003794Y014410D01*
X001669Y010960D02*
X001669Y007835D01*
X002919Y009210D02*
X005544Y009210D01*
X005683Y009071D01*
X008299Y009071D01*
X008606Y009378D01*
X008606Y013017D01*
X007794Y014410D02*
X010694Y014410D01*
X011494Y015210D01*
X011594Y016210D02*
X011506Y016297D01*
X010913Y016297D01*
X010125Y015510D01*
X007794Y015510D01*
X010246Y013236D02*
X011220Y014210D01*
X011594Y014210D01*
X010246Y013236D02*
X010246Y012248D01*
X011835Y010660D01*
X007169Y004585D02*
X007169Y003085D01*
X007294Y002960D01*
X009044Y002960D01*
X007738Y021479D02*
X007738Y021989D01*
X008350Y022601D01*
X008350Y023933D01*
X007325Y024958D01*
X007325Y027931D01*
X006710Y028546D01*
X006710Y028802D01*
X006608Y028905D01*
X004916Y028905D01*
X004814Y028802D01*
X004814Y028177D01*
X004779Y028142D01*
X003779Y027142D02*
X003635Y026998D01*
X003635Y026496D01*
X003891Y026240D01*
X005378Y026240D01*
X005779Y026641D01*
X005779Y027142D01*
X007738Y023448D02*
X006754Y022463D01*
X002030Y022463D01*
X010793Y022463D02*
X015518Y022463D01*
X016502Y023448D01*
X017114Y023933D02*
X016089Y024958D01*
X016089Y027931D01*
X015474Y028546D01*
X015474Y028802D01*
X015371Y028905D01*
X013680Y028905D01*
X013578Y028802D01*
X013578Y028177D01*
X013543Y028142D01*
X012543Y027142D02*
X012399Y026998D01*
X012399Y026496D01*
X012655Y026240D01*
X014141Y026240D01*
X014543Y026641D01*
X014543Y027142D01*
X017114Y023933D02*
X017114Y022601D01*
X016502Y021989D01*
X016502Y021479D01*
X019403Y022463D02*
X024128Y022463D01*
X025112Y023448D01*
X025724Y023933D02*
X025724Y022601D01*
X025112Y021989D01*
X025112Y021479D01*
X025724Y023933D02*
X024699Y024958D01*
X024699Y027931D01*
X024084Y028546D01*
X024084Y028802D01*
X023981Y028905D01*
X022290Y028905D01*
X022188Y028802D01*
X022188Y028177D01*
X022153Y028142D01*
X023153Y027142D02*
X023153Y026641D01*
X022751Y026240D01*
X021265Y026240D01*
X021009Y026496D01*
X021009Y026998D01*
X021153Y027142D01*
X028167Y022463D02*
X032892Y022463D01*
X033876Y023448D01*
X034488Y023933D02*
X034488Y022601D01*
X033876Y021989D01*
X033876Y021479D01*
X034488Y023933D02*
X033463Y024958D01*
X033463Y027931D01*
X032848Y028546D01*
X032848Y028802D01*
X032745Y028905D01*
X031054Y028905D01*
X030951Y028802D01*
X030951Y028177D01*
X030916Y028142D01*
X031916Y027142D02*
X031916Y026641D01*
X031515Y026240D01*
X030029Y026240D01*
X029773Y026496D01*
X029773Y026998D01*
X029916Y027142D01*
D20*
X005004Y033692D03*
X003304Y033292D03*
M02*
