G75*
G70*
%OFA0B0*%
%FSLAX24Y24*%
%IPPOS*%
%LPD*%
%AMOC8*
5,1,8,0,0,1.08239X$1,22.5*
%
%ADD10C,0.0100*%
%ADD11R,0.2283X0.2441*%
%ADD12R,0.0630X0.1181*%
%ADD13R,0.0630X0.0709*%
%ADD14R,0.0260X0.0800*%
%ADD15R,0.0591X0.0531*%
%ADD16R,0.0551X0.0394*%
%ADD17R,0.0512X0.0394*%
%ADD18R,0.0295X0.0591*%
%ADD19C,0.0000*%
%ADD20R,0.0472X0.0551*%
%ADD21R,0.0630X0.0787*%
D10*
X000304Y002050D02*
X000304Y041420D01*
X039674Y041420D01*
X039674Y002050D01*
X000304Y002050D01*
X000150Y002101D01*
D11*
X010919Y010647D03*
X024141Y010595D03*
X037364Y010647D03*
D12*
X038261Y007820D03*
X036466Y007820D03*
X025039Y007769D03*
X023244Y007769D03*
X011816Y007820D03*
X010021Y007820D03*
D13*
X014965Y010158D03*
X016067Y010158D03*
X016067Y011658D03*
X014965Y011658D03*
X002845Y011710D03*
X001743Y011710D03*
X001743Y010210D03*
X002845Y010210D03*
X028188Y010210D03*
X029290Y010210D03*
X029290Y011710D03*
X028188Y011710D03*
D14*
X030614Y012420D03*
X031114Y012420D03*
X031614Y012420D03*
X032114Y012420D03*
X032614Y012420D03*
X033114Y012420D03*
X033614Y012420D03*
X034114Y012420D03*
X034114Y010000D03*
X033614Y010000D03*
X033114Y010000D03*
X032614Y010000D03*
X032114Y010000D03*
X031614Y010000D03*
X031114Y010000D03*
X030614Y010000D03*
X020891Y009948D03*
X020391Y009948D03*
X019891Y009948D03*
X019391Y009948D03*
X018891Y009948D03*
X018391Y009948D03*
X017891Y009948D03*
X017391Y009948D03*
X017391Y012368D03*
X017891Y012368D03*
X018391Y012368D03*
X018891Y012368D03*
X019391Y012368D03*
X019891Y012368D03*
X020391Y012368D03*
X020891Y012368D03*
X007669Y012420D03*
X007169Y012420D03*
X006669Y012420D03*
X006169Y012420D03*
X005669Y012420D03*
X005169Y012420D03*
X004669Y012420D03*
X004169Y012420D03*
X004169Y010000D03*
X004669Y010000D03*
X005169Y010000D03*
X005669Y010000D03*
X006169Y010000D03*
X006669Y010000D03*
X007169Y010000D03*
X007669Y010000D03*
D15*
X009329Y004507D03*
X003758Y004487D03*
X016981Y004436D03*
X022552Y004456D03*
X030203Y004487D03*
X035774Y004507D03*
D16*
X031197Y004448D03*
X017975Y004397D03*
X004752Y004448D03*
D17*
X008424Y004448D03*
X021646Y004397D03*
X034869Y004448D03*
D18*
X035085Y007903D03*
X034652Y007903D03*
X034140Y007903D03*
X033707Y007903D03*
X033274Y007903D03*
X032841Y007903D03*
X032408Y007903D03*
X031975Y007903D03*
X031542Y007903D03*
X031109Y007903D03*
X021863Y007851D03*
X021430Y007851D03*
X020918Y007851D03*
X020485Y007851D03*
X020052Y007851D03*
X019619Y007851D03*
X019186Y007851D03*
X018752Y007851D03*
X018319Y007851D03*
X017886Y007851D03*
X008640Y007903D03*
X008207Y007903D03*
X007695Y007903D03*
X007262Y007903D03*
X006829Y007903D03*
X006396Y007903D03*
X005963Y007903D03*
X005530Y007903D03*
X005097Y007903D03*
X004664Y007903D03*
D19*
X004260Y006436D02*
X004262Y006471D01*
X004268Y006506D01*
X004278Y006540D01*
X004291Y006573D01*
X004308Y006604D01*
X004329Y006632D01*
X004352Y006659D01*
X004379Y006682D01*
X004407Y006703D01*
X004438Y006720D01*
X004471Y006733D01*
X004505Y006743D01*
X004540Y006749D01*
X004575Y006751D01*
X004610Y006749D01*
X004645Y006743D01*
X004679Y006733D01*
X004712Y006720D01*
X004743Y006703D01*
X004771Y006682D01*
X004798Y006659D01*
X004821Y006632D01*
X004842Y006604D01*
X004859Y006573D01*
X004872Y006540D01*
X004882Y006506D01*
X004888Y006471D01*
X004890Y006436D01*
X004888Y006401D01*
X004882Y006366D01*
X004872Y006332D01*
X004859Y006299D01*
X004842Y006268D01*
X004821Y006240D01*
X004798Y006213D01*
X004771Y006190D01*
X004743Y006169D01*
X004712Y006152D01*
X004679Y006139D01*
X004645Y006129D01*
X004610Y006123D01*
X004575Y006121D01*
X004540Y006123D01*
X004505Y006129D01*
X004471Y006139D01*
X004438Y006152D01*
X004407Y006169D01*
X004379Y006190D01*
X004352Y006213D01*
X004329Y006240D01*
X004308Y006268D01*
X004291Y006299D01*
X004278Y006332D01*
X004268Y006366D01*
X004262Y006401D01*
X004260Y006436D01*
X008197Y006436D02*
X008199Y006471D01*
X008205Y006506D01*
X008215Y006540D01*
X008228Y006573D01*
X008245Y006604D01*
X008266Y006632D01*
X008289Y006659D01*
X008316Y006682D01*
X008344Y006703D01*
X008375Y006720D01*
X008408Y006733D01*
X008442Y006743D01*
X008477Y006749D01*
X008512Y006751D01*
X008547Y006749D01*
X008582Y006743D01*
X008616Y006733D01*
X008649Y006720D01*
X008680Y006703D01*
X008708Y006682D01*
X008735Y006659D01*
X008758Y006632D01*
X008779Y006604D01*
X008796Y006573D01*
X008809Y006540D01*
X008819Y006506D01*
X008825Y006471D01*
X008827Y006436D01*
X008825Y006401D01*
X008819Y006366D01*
X008809Y006332D01*
X008796Y006299D01*
X008779Y006268D01*
X008758Y006240D01*
X008735Y006213D01*
X008708Y006190D01*
X008680Y006169D01*
X008649Y006152D01*
X008616Y006139D01*
X008582Y006129D01*
X008547Y006123D01*
X008512Y006121D01*
X008477Y006123D01*
X008442Y006129D01*
X008408Y006139D01*
X008375Y006152D01*
X008344Y006169D01*
X008316Y006190D01*
X008289Y006213D01*
X008266Y006240D01*
X008245Y006268D01*
X008228Y006299D01*
X008215Y006332D01*
X008205Y006366D01*
X008199Y006401D01*
X008197Y006436D01*
X017483Y006385D02*
X017485Y006420D01*
X017491Y006455D01*
X017501Y006489D01*
X017514Y006522D01*
X017531Y006553D01*
X017552Y006581D01*
X017575Y006608D01*
X017602Y006631D01*
X017630Y006652D01*
X017661Y006669D01*
X017694Y006682D01*
X017728Y006692D01*
X017763Y006698D01*
X017798Y006700D01*
X017833Y006698D01*
X017868Y006692D01*
X017902Y006682D01*
X017935Y006669D01*
X017966Y006652D01*
X017994Y006631D01*
X018021Y006608D01*
X018044Y006581D01*
X018065Y006553D01*
X018082Y006522D01*
X018095Y006489D01*
X018105Y006455D01*
X018111Y006420D01*
X018113Y006385D01*
X018111Y006350D01*
X018105Y006315D01*
X018095Y006281D01*
X018082Y006248D01*
X018065Y006217D01*
X018044Y006189D01*
X018021Y006162D01*
X017994Y006139D01*
X017966Y006118D01*
X017935Y006101D01*
X017902Y006088D01*
X017868Y006078D01*
X017833Y006072D01*
X017798Y006070D01*
X017763Y006072D01*
X017728Y006078D01*
X017694Y006088D01*
X017661Y006101D01*
X017630Y006118D01*
X017602Y006139D01*
X017575Y006162D01*
X017552Y006189D01*
X017531Y006217D01*
X017514Y006248D01*
X017501Y006281D01*
X017491Y006315D01*
X017485Y006350D01*
X017483Y006385D01*
X021420Y006385D02*
X021422Y006420D01*
X021428Y006455D01*
X021438Y006489D01*
X021451Y006522D01*
X021468Y006553D01*
X021489Y006581D01*
X021512Y006608D01*
X021539Y006631D01*
X021567Y006652D01*
X021598Y006669D01*
X021631Y006682D01*
X021665Y006692D01*
X021700Y006698D01*
X021735Y006700D01*
X021770Y006698D01*
X021805Y006692D01*
X021839Y006682D01*
X021872Y006669D01*
X021903Y006652D01*
X021931Y006631D01*
X021958Y006608D01*
X021981Y006581D01*
X022002Y006553D01*
X022019Y006522D01*
X022032Y006489D01*
X022042Y006455D01*
X022048Y006420D01*
X022050Y006385D01*
X022048Y006350D01*
X022042Y006315D01*
X022032Y006281D01*
X022019Y006248D01*
X022002Y006217D01*
X021981Y006189D01*
X021958Y006162D01*
X021931Y006139D01*
X021903Y006118D01*
X021872Y006101D01*
X021839Y006088D01*
X021805Y006078D01*
X021770Y006072D01*
X021735Y006070D01*
X021700Y006072D01*
X021665Y006078D01*
X021631Y006088D01*
X021598Y006101D01*
X021567Y006118D01*
X021539Y006139D01*
X021512Y006162D01*
X021489Y006189D01*
X021468Y006217D01*
X021451Y006248D01*
X021438Y006281D01*
X021428Y006315D01*
X021422Y006350D01*
X021420Y006385D01*
X030705Y006436D02*
X030707Y006471D01*
X030713Y006506D01*
X030723Y006540D01*
X030736Y006573D01*
X030753Y006604D01*
X030774Y006632D01*
X030797Y006659D01*
X030824Y006682D01*
X030852Y006703D01*
X030883Y006720D01*
X030916Y006733D01*
X030950Y006743D01*
X030985Y006749D01*
X031020Y006751D01*
X031055Y006749D01*
X031090Y006743D01*
X031124Y006733D01*
X031157Y006720D01*
X031188Y006703D01*
X031216Y006682D01*
X031243Y006659D01*
X031266Y006632D01*
X031287Y006604D01*
X031304Y006573D01*
X031317Y006540D01*
X031327Y006506D01*
X031333Y006471D01*
X031335Y006436D01*
X031333Y006401D01*
X031327Y006366D01*
X031317Y006332D01*
X031304Y006299D01*
X031287Y006268D01*
X031266Y006240D01*
X031243Y006213D01*
X031216Y006190D01*
X031188Y006169D01*
X031157Y006152D01*
X031124Y006139D01*
X031090Y006129D01*
X031055Y006123D01*
X031020Y006121D01*
X030985Y006123D01*
X030950Y006129D01*
X030916Y006139D01*
X030883Y006152D01*
X030852Y006169D01*
X030824Y006190D01*
X030797Y006213D01*
X030774Y006240D01*
X030753Y006268D01*
X030736Y006299D01*
X030723Y006332D01*
X030713Y006366D01*
X030707Y006401D01*
X030705Y006436D01*
X034642Y006436D02*
X034644Y006471D01*
X034650Y006506D01*
X034660Y006540D01*
X034673Y006573D01*
X034690Y006604D01*
X034711Y006632D01*
X034734Y006659D01*
X034761Y006682D01*
X034789Y006703D01*
X034820Y006720D01*
X034853Y006733D01*
X034887Y006743D01*
X034922Y006749D01*
X034957Y006751D01*
X034992Y006749D01*
X035027Y006743D01*
X035061Y006733D01*
X035094Y006720D01*
X035125Y006703D01*
X035153Y006682D01*
X035180Y006659D01*
X035203Y006632D01*
X035224Y006604D01*
X035241Y006573D01*
X035254Y006540D01*
X035264Y006506D01*
X035270Y006471D01*
X035272Y006436D01*
X035270Y006401D01*
X035264Y006366D01*
X035254Y006332D01*
X035241Y006299D01*
X035224Y006268D01*
X035203Y006240D01*
X035180Y006213D01*
X035153Y006190D01*
X035125Y006169D01*
X035094Y006152D01*
X035061Y006139D01*
X035027Y006129D01*
X034992Y006123D01*
X034957Y006121D01*
X034922Y006123D01*
X034887Y006129D01*
X034853Y006139D01*
X034820Y006152D01*
X034789Y006169D01*
X034761Y006190D01*
X034734Y006213D01*
X034711Y006240D01*
X034690Y006268D01*
X034673Y006299D01*
X034660Y006332D01*
X034650Y006366D01*
X034644Y006401D01*
X034642Y006436D01*
D20*
X036396Y002962D03*
X037577Y002962D03*
X029329Y002982D03*
X028148Y002982D03*
X024354Y002911D03*
X023173Y002911D03*
X016107Y002931D03*
X014926Y002931D03*
X011132Y002962D03*
X009951Y002962D03*
X002884Y002982D03*
X001703Y002982D03*
D21*
X001743Y006960D03*
X002845Y006960D03*
X002845Y008710D03*
X001743Y008710D03*
X014965Y008658D03*
X016067Y008658D03*
X016067Y006908D03*
X014965Y006908D03*
X028188Y006960D03*
X029290Y006960D03*
X029290Y008710D03*
X028188Y008710D03*
M02*
