G75*
G70*
%OFA0B0*%
%FSLAX24Y24*%
%IPPOS*%
%LPD*%
%AMOC8*
5,1,8,0,0,1.08239X$1,22.5*
%
%ADD10C,0.0120*%
%ADD11C,0.0110*%
%ADD12C,0.0000*%
D10*
X008133Y003422D02*
X008133Y003742D01*
X008240Y003849D01*
X008347Y003742D01*
X008347Y003422D01*
X008560Y003422D02*
X008560Y003849D01*
X008453Y003849D01*
X008347Y003742D01*
X008833Y003742D02*
X008833Y003422D01*
X009153Y003422D01*
X009260Y003528D01*
X009153Y003635D01*
X008833Y003635D01*
X008833Y003742D02*
X008940Y003849D01*
X009153Y003849D01*
X009523Y003849D02*
X009630Y003849D01*
X009843Y003635D01*
X009843Y003422D02*
X009843Y003849D01*
X010116Y003849D02*
X010436Y003849D01*
X010543Y003742D01*
X010543Y003528D01*
X010436Y003422D01*
X010116Y003422D01*
X010116Y003315D02*
X010116Y003849D01*
X010116Y003315D02*
X010223Y003208D01*
X010329Y003208D01*
X010816Y003528D02*
X010816Y003742D01*
X010923Y003849D01*
X011136Y003849D01*
X011243Y003742D01*
X011243Y003528D01*
X011136Y003422D01*
X010923Y003422D01*
X010816Y003528D01*
X011506Y003849D02*
X011612Y003849D01*
X011826Y003635D01*
X011826Y003422D02*
X011826Y003849D01*
X012099Y003955D02*
X012099Y003742D01*
X012205Y003635D01*
X012526Y003635D01*
X012526Y003422D02*
X012526Y004062D01*
X012205Y004062D01*
X012099Y003955D01*
X013498Y003742D02*
X013498Y003635D01*
X013925Y003635D01*
X013925Y003528D02*
X013925Y003742D01*
X013819Y003849D01*
X013605Y003849D01*
X013498Y003742D01*
X013605Y003422D02*
X013819Y003422D01*
X013925Y003528D01*
X014188Y003849D02*
X014295Y003849D01*
X014509Y003635D01*
X014509Y003422D02*
X014509Y003849D01*
X014781Y003742D02*
X014781Y003422D01*
X015102Y003422D01*
X015208Y003528D01*
X015102Y003635D01*
X014781Y003635D01*
X014781Y003742D02*
X014888Y003849D01*
X015102Y003849D01*
X015481Y003742D02*
X015481Y003422D01*
X015481Y003742D02*
X015588Y003849D01*
X015801Y003849D01*
X015908Y003742D01*
X016181Y003635D02*
X016181Y003528D01*
X016288Y003422D01*
X016501Y003422D01*
X016608Y003528D01*
X016501Y003742D02*
X016288Y003742D01*
X016181Y003635D01*
X016181Y003955D02*
X016288Y004062D01*
X016501Y004062D01*
X016608Y003955D01*
X016608Y003849D01*
X016501Y003742D01*
X016871Y003849D02*
X016978Y003849D01*
X017191Y003635D01*
X017191Y003422D02*
X017191Y003849D01*
X017551Y003849D02*
X017551Y003422D01*
X017658Y003422D02*
X017444Y003422D01*
X017551Y003849D02*
X017658Y003849D01*
X017551Y004062D02*
X017551Y004169D01*
X017930Y003742D02*
X017930Y003422D01*
X018251Y003422D01*
X018357Y003528D01*
X018251Y003635D01*
X017930Y003635D01*
X017930Y003742D02*
X018037Y003849D01*
X018251Y003849D01*
X018630Y004062D02*
X019057Y004062D01*
X019057Y003422D01*
X019057Y003742D02*
X018844Y003742D01*
X020030Y003742D02*
X020030Y003422D01*
X020243Y003422D02*
X020243Y003742D01*
X020137Y003849D01*
X020030Y003742D01*
X020243Y003742D02*
X020350Y003849D01*
X020457Y003849D01*
X020457Y003422D01*
X020730Y003528D02*
X020730Y003742D01*
X020836Y003849D01*
X021050Y003849D01*
X021157Y003742D01*
X021157Y003528D01*
X021050Y003422D01*
X020836Y003422D01*
X020730Y003528D01*
X021429Y003422D02*
X021750Y003422D01*
X021856Y003528D01*
X021856Y003742D01*
X021750Y003849D01*
X021429Y003849D01*
X022100Y003528D02*
X022100Y003422D01*
X022206Y003422D01*
X022206Y003528D01*
X022100Y003528D01*
X022479Y003528D02*
X022586Y003635D01*
X022799Y003635D01*
X022906Y003742D01*
X022799Y003849D01*
X022479Y003849D01*
X022479Y003528D02*
X022586Y003422D01*
X022906Y003422D01*
X023179Y003422D02*
X023179Y004062D01*
X023179Y003849D02*
X023499Y003849D01*
X023606Y003742D01*
X023606Y003528D01*
X023499Y003422D01*
X023179Y003422D01*
X023859Y003422D02*
X024072Y003422D01*
X023966Y003422D02*
X023966Y004062D01*
X024072Y004062D01*
X024432Y004062D02*
X024432Y004169D01*
X024432Y003849D02*
X024432Y003422D01*
X024539Y003422D02*
X024325Y003422D01*
X024432Y003849D02*
X024539Y003849D01*
X024812Y003849D02*
X024812Y003422D01*
X025132Y003422D01*
X025239Y003528D01*
X025239Y003849D01*
X025512Y003849D02*
X025618Y003742D01*
X025939Y003742D01*
X026211Y003742D02*
X026211Y003422D01*
X025939Y003422D02*
X025618Y003422D01*
X025512Y003528D01*
X025512Y003635D01*
X025618Y003742D01*
X025512Y003849D02*
X025512Y003955D01*
X025618Y004062D01*
X025939Y004062D01*
X025939Y003422D01*
X026211Y003742D02*
X026318Y003849D01*
X026638Y003849D01*
X026638Y003422D01*
X026911Y003635D02*
X027338Y003635D01*
X027338Y003528D02*
X027338Y003742D01*
X027231Y003849D01*
X027018Y003849D01*
X026911Y003742D01*
X026911Y003635D01*
X027018Y003422D02*
X027231Y003422D01*
X027338Y003528D01*
X027611Y003528D02*
X027718Y003422D01*
X028038Y003422D01*
X028038Y003208D02*
X028038Y003849D01*
X027718Y003849D01*
X027611Y003742D01*
X027611Y003528D01*
X028311Y003528D02*
X028311Y003955D01*
X028417Y004062D01*
X028631Y004062D01*
X028738Y003955D01*
X028738Y003528D01*
X028631Y003422D01*
X028417Y003422D01*
X028311Y003528D01*
X028981Y003528D02*
X028981Y003422D01*
X029088Y003422D01*
X029088Y003528D01*
X028981Y003528D01*
X029360Y003528D02*
X029360Y003849D01*
X029360Y003528D02*
X029467Y003422D01*
X029574Y003528D01*
X029681Y003422D01*
X029787Y003528D01*
X029787Y003849D01*
X030060Y003849D02*
X030060Y003528D01*
X030167Y003422D01*
X030274Y003528D01*
X030380Y003422D01*
X030487Y003528D01*
X030487Y003849D01*
X030760Y003849D02*
X030760Y003528D01*
X030867Y003422D01*
X030973Y003528D01*
X031080Y003422D01*
X031187Y003528D01*
X031187Y003849D01*
X032130Y003849D02*
X032130Y003742D01*
X032237Y003742D01*
X032237Y003849D01*
X032130Y003849D01*
X032130Y003528D02*
X032130Y003422D01*
X032237Y003422D01*
X032237Y003528D01*
X032130Y003528D01*
X032509Y003422D02*
X032830Y003422D01*
X032937Y003528D01*
X032937Y003849D01*
X033209Y003742D02*
X033209Y003528D01*
X033316Y003422D01*
X033636Y003422D01*
X033636Y004062D01*
X033636Y003849D02*
X033316Y003849D01*
X033209Y003742D01*
X032723Y003208D02*
X032616Y003208D01*
X032509Y003315D01*
X032509Y003849D01*
X034609Y003849D02*
X034929Y003849D01*
X035036Y003742D01*
X035036Y003528D01*
X034929Y003422D01*
X034609Y003422D01*
X034609Y004062D01*
X035309Y003742D02*
X035309Y003635D01*
X035736Y003635D01*
X035736Y003528D02*
X035736Y003742D01*
X035629Y003849D01*
X035415Y003849D01*
X035309Y003742D01*
X035415Y003422D02*
X035629Y003422D01*
X035736Y003528D01*
X035999Y003849D02*
X036105Y003849D01*
X036319Y003635D01*
X036319Y003422D02*
X036319Y003849D01*
X036592Y003742D02*
X036592Y003528D01*
X036698Y003422D01*
X036912Y003422D01*
X037019Y003528D01*
X037019Y003742D01*
X036912Y003849D01*
X036698Y003849D01*
X036592Y003742D01*
X037291Y003849D02*
X037612Y003849D01*
X037718Y003742D01*
X037612Y003635D01*
X037398Y003635D01*
X037291Y003528D01*
X037398Y003422D01*
X037718Y003422D01*
X037991Y003422D02*
X037991Y003742D01*
X038098Y003849D01*
X038418Y003849D01*
X038418Y003422D01*
X038691Y003528D02*
X038691Y003742D01*
X038798Y003849D01*
X039011Y003849D01*
X039118Y003742D01*
X039118Y003528D01*
X039011Y003422D01*
X038798Y003422D01*
X038691Y003528D01*
X039391Y003528D02*
X039391Y003742D01*
X039498Y003849D01*
X039818Y003849D01*
X039818Y003208D01*
X039818Y003422D02*
X039498Y003422D01*
X039391Y003528D01*
X040091Y003528D02*
X040197Y003422D01*
X040411Y003422D01*
X040518Y003528D01*
X040411Y003742D02*
X040197Y003742D01*
X040091Y003635D01*
X040091Y003528D01*
X040411Y003742D02*
X040518Y003849D01*
X040518Y003955D01*
X040411Y004062D01*
X040197Y004062D01*
X040091Y003955D01*
X033442Y006507D02*
X033121Y006507D01*
X033015Y006614D01*
X033015Y007041D01*
X033121Y007147D01*
X033442Y007147D01*
X033442Y006507D01*
X032742Y006614D02*
X032742Y006827D01*
X032635Y006934D01*
X032422Y006934D01*
X032315Y006827D01*
X032315Y006720D01*
X032742Y006720D01*
X032742Y006614D02*
X032635Y006507D01*
X032422Y006507D01*
X032042Y006507D02*
X031722Y006507D01*
X031615Y006614D01*
X031722Y006720D01*
X031935Y006720D01*
X032042Y006827D01*
X031935Y006934D01*
X031615Y006934D01*
X031342Y006934D02*
X031235Y006934D01*
X031235Y006507D01*
X031129Y006507D02*
X031342Y006507D01*
X030876Y006614D02*
X030876Y006827D01*
X030769Y006934D01*
X030449Y006934D01*
X030449Y006400D01*
X030555Y006293D01*
X030662Y006293D01*
X030769Y006507D02*
X030449Y006507D01*
X030176Y006507D02*
X030176Y006934D01*
X029856Y006934D01*
X029749Y006827D01*
X029749Y006507D01*
X028776Y006507D02*
X028456Y006507D01*
X028349Y006614D01*
X028349Y006827D01*
X028456Y006934D01*
X028776Y006934D01*
X028776Y007147D02*
X028776Y006507D01*
X028076Y006614D02*
X027970Y006507D01*
X027649Y006507D01*
X027649Y006400D02*
X027756Y006293D01*
X027863Y006293D01*
X027649Y006400D02*
X027649Y006934D01*
X027377Y006934D02*
X027377Y006827D01*
X027270Y006827D01*
X027270Y006934D01*
X027377Y006934D01*
X027377Y006614D02*
X027270Y006614D01*
X027270Y006507D01*
X027377Y006507D01*
X027377Y006614D01*
X028076Y006614D02*
X028076Y006934D01*
X030769Y006507D02*
X030876Y006614D01*
X031235Y007147D02*
X031235Y007254D01*
X016630Y006506D02*
X016203Y006506D01*
X016417Y006506D02*
X016417Y005865D01*
X015930Y005865D02*
X015930Y006506D01*
X015824Y006292D02*
X015610Y006292D01*
X015503Y006185D01*
X015503Y005865D01*
X015231Y005972D02*
X015124Y005865D01*
X014804Y005865D01*
X014804Y006185D01*
X014910Y006292D01*
X015124Y006292D01*
X015124Y006079D02*
X014804Y006079D01*
X015124Y006079D02*
X015231Y005972D01*
X015824Y006292D02*
X015930Y006185D01*
X014531Y006292D02*
X014531Y005865D01*
X014104Y005865D02*
X014104Y006185D01*
X014211Y006292D01*
X014531Y006292D01*
X013831Y006079D02*
X013511Y006292D01*
X013248Y006185D02*
X013141Y006292D01*
X012821Y006292D01*
X012928Y006079D02*
X013141Y006079D01*
X013248Y006185D01*
X013248Y005865D02*
X012928Y005865D01*
X012821Y005972D01*
X012928Y006079D01*
X013511Y005865D02*
X013831Y006079D01*
X013831Y005865D02*
X013831Y006506D01*
X011848Y006506D02*
X011848Y005865D01*
X011421Y005865D02*
X011421Y006506D01*
X011635Y006292D01*
X011848Y006506D01*
X011042Y006292D02*
X010828Y006292D01*
X010721Y006185D01*
X010721Y005865D01*
X011042Y005865D01*
X011149Y005972D01*
X011042Y006079D01*
X010721Y006079D01*
X010449Y006079D02*
X010235Y006292D01*
X010128Y006292D01*
X010449Y006292D02*
X010449Y005865D01*
X009866Y005865D02*
X009866Y006506D01*
X009545Y006292D02*
X009866Y006079D01*
X009545Y005865D01*
X009282Y005865D02*
X009282Y005972D01*
X009282Y006185D02*
X009282Y006612D01*
X015908Y004062D02*
X015908Y003422D01*
D11*
X026729Y005467D02*
X026821Y005558D01*
X026821Y005925D01*
X026913Y005834D02*
X026729Y005834D01*
X027226Y006017D02*
X027226Y005467D01*
X027135Y005467D02*
X027318Y005467D01*
X027559Y005467D02*
X027834Y005467D01*
X027926Y005558D01*
X027834Y005650D01*
X027559Y005650D01*
X027559Y005742D02*
X027559Y005467D01*
X027559Y005742D02*
X027651Y005834D01*
X027834Y005834D01*
X028166Y006017D02*
X028166Y005467D01*
X028350Y005650D01*
X028533Y005467D01*
X028533Y006017D01*
X029382Y006017D02*
X029382Y005467D01*
X029657Y005467D01*
X029749Y005558D01*
X029749Y005742D01*
X029657Y005834D01*
X029382Y005834D01*
X029990Y005834D02*
X030173Y005467D01*
X030357Y005834D01*
X031196Y005834D02*
X031287Y005834D01*
X031471Y005650D01*
X031471Y005467D02*
X031471Y005834D01*
X031712Y005742D02*
X031712Y005650D01*
X032079Y005650D01*
X032079Y005558D02*
X032079Y005742D01*
X031987Y005834D01*
X031803Y005834D01*
X031712Y005742D01*
X031803Y005467D02*
X031987Y005467D01*
X032079Y005558D01*
X032300Y005467D02*
X032392Y005558D01*
X032392Y005925D01*
X032484Y005834D02*
X032300Y005834D01*
X032724Y005742D02*
X032724Y005650D01*
X033091Y005650D01*
X033091Y005558D02*
X033091Y005742D01*
X033000Y005834D01*
X032816Y005834D01*
X032724Y005742D01*
X032816Y005467D02*
X033000Y005467D01*
X033091Y005558D01*
X033332Y005742D02*
X033332Y005925D01*
X033424Y006017D01*
X033699Y006017D01*
X033699Y005467D01*
X033699Y005650D02*
X033424Y005650D01*
X033332Y005742D01*
X027318Y006017D02*
X027226Y006017D01*
D12*
X004767Y004166D02*
X004767Y040386D01*
X005712Y040386D02*
X005714Y040436D01*
X005720Y040486D01*
X005730Y040535D01*
X005744Y040583D01*
X005761Y040630D01*
X005782Y040675D01*
X005807Y040719D01*
X005835Y040760D01*
X005867Y040799D01*
X005901Y040836D01*
X005938Y040870D01*
X005978Y040900D01*
X006020Y040927D01*
X006064Y040951D01*
X006110Y040972D01*
X006157Y040988D01*
X006205Y041001D01*
X006255Y041010D01*
X006304Y041015D01*
X006355Y041016D01*
X006405Y041013D01*
X006454Y041006D01*
X006503Y040995D01*
X006551Y040980D01*
X006597Y040962D01*
X006642Y040940D01*
X006685Y040914D01*
X006726Y040885D01*
X006765Y040853D01*
X006801Y040818D01*
X006833Y040780D01*
X006863Y040740D01*
X006890Y040697D01*
X006913Y040653D01*
X006932Y040607D01*
X006948Y040559D01*
X006960Y040510D01*
X006968Y040461D01*
X006972Y040411D01*
X006972Y040361D01*
X006968Y040311D01*
X006960Y040262D01*
X006948Y040213D01*
X006932Y040165D01*
X006913Y040119D01*
X006890Y040075D01*
X006863Y040032D01*
X006833Y039992D01*
X006801Y039954D01*
X006765Y039919D01*
X006726Y039887D01*
X006685Y039858D01*
X006642Y039832D01*
X006597Y039810D01*
X006551Y039792D01*
X006503Y039777D01*
X006454Y039766D01*
X006405Y039759D01*
X006355Y039756D01*
X006304Y039757D01*
X006255Y039762D01*
X006205Y039771D01*
X006157Y039784D01*
X006110Y039800D01*
X006064Y039821D01*
X006020Y039845D01*
X005978Y039872D01*
X005938Y039902D01*
X005901Y039936D01*
X005867Y039973D01*
X005835Y040012D01*
X005807Y040053D01*
X005782Y040097D01*
X005761Y040142D01*
X005744Y040189D01*
X005730Y040237D01*
X005720Y040286D01*
X005714Y040336D01*
X005712Y040386D01*
X004767Y040386D02*
X004769Y040463D01*
X004775Y040540D01*
X004784Y040617D01*
X004797Y040693D01*
X004814Y040769D01*
X004835Y040843D01*
X004859Y040917D01*
X004887Y040989D01*
X004918Y041059D01*
X004953Y041128D01*
X004991Y041196D01*
X005032Y041261D01*
X005077Y041324D01*
X005125Y041385D01*
X005175Y041444D01*
X005228Y041500D01*
X005284Y041553D01*
X005343Y041603D01*
X005404Y041651D01*
X005467Y041696D01*
X005532Y041737D01*
X005600Y041775D01*
X005669Y041810D01*
X005739Y041841D01*
X005811Y041869D01*
X005885Y041893D01*
X005959Y041914D01*
X006035Y041931D01*
X006111Y041944D01*
X006188Y041953D01*
X006265Y041959D01*
X006342Y041961D01*
X042563Y041961D01*
X041933Y040386D02*
X041935Y040436D01*
X041941Y040486D01*
X041951Y040535D01*
X041965Y040583D01*
X041982Y040630D01*
X042003Y040675D01*
X042028Y040719D01*
X042056Y040760D01*
X042088Y040799D01*
X042122Y040836D01*
X042159Y040870D01*
X042199Y040900D01*
X042241Y040927D01*
X042285Y040951D01*
X042331Y040972D01*
X042378Y040988D01*
X042426Y041001D01*
X042476Y041010D01*
X042525Y041015D01*
X042576Y041016D01*
X042626Y041013D01*
X042675Y041006D01*
X042724Y040995D01*
X042772Y040980D01*
X042818Y040962D01*
X042863Y040940D01*
X042906Y040914D01*
X042947Y040885D01*
X042986Y040853D01*
X043022Y040818D01*
X043054Y040780D01*
X043084Y040740D01*
X043111Y040697D01*
X043134Y040653D01*
X043153Y040607D01*
X043169Y040559D01*
X043181Y040510D01*
X043189Y040461D01*
X043193Y040411D01*
X043193Y040361D01*
X043189Y040311D01*
X043181Y040262D01*
X043169Y040213D01*
X043153Y040165D01*
X043134Y040119D01*
X043111Y040075D01*
X043084Y040032D01*
X043054Y039992D01*
X043022Y039954D01*
X042986Y039919D01*
X042947Y039887D01*
X042906Y039858D01*
X042863Y039832D01*
X042818Y039810D01*
X042772Y039792D01*
X042724Y039777D01*
X042675Y039766D01*
X042626Y039759D01*
X042576Y039756D01*
X042525Y039757D01*
X042476Y039762D01*
X042426Y039771D01*
X042378Y039784D01*
X042331Y039800D01*
X042285Y039821D01*
X042241Y039845D01*
X042199Y039872D01*
X042159Y039902D01*
X042122Y039936D01*
X042088Y039973D01*
X042056Y040012D01*
X042028Y040053D01*
X042003Y040097D01*
X041982Y040142D01*
X041965Y040189D01*
X041951Y040237D01*
X041941Y040286D01*
X041935Y040336D01*
X041933Y040386D01*
X042563Y041961D02*
X042640Y041959D01*
X042717Y041953D01*
X042794Y041944D01*
X042870Y041931D01*
X042946Y041914D01*
X043020Y041893D01*
X043094Y041869D01*
X043166Y041841D01*
X043236Y041810D01*
X043305Y041775D01*
X043373Y041737D01*
X043438Y041696D01*
X043501Y041651D01*
X043562Y041603D01*
X043621Y041553D01*
X043677Y041500D01*
X043730Y041444D01*
X043780Y041385D01*
X043828Y041324D01*
X043873Y041261D01*
X043914Y041196D01*
X043952Y041128D01*
X043987Y041059D01*
X044018Y040989D01*
X044046Y040917D01*
X044070Y040843D01*
X044091Y040769D01*
X044108Y040693D01*
X044121Y040617D01*
X044130Y040540D01*
X044136Y040463D01*
X044138Y040386D01*
X044137Y040386D02*
X044137Y004166D01*
X041933Y004166D02*
X041935Y004216D01*
X041941Y004266D01*
X041951Y004315D01*
X041965Y004363D01*
X041982Y004410D01*
X042003Y004455D01*
X042028Y004499D01*
X042056Y004540D01*
X042088Y004579D01*
X042122Y004616D01*
X042159Y004650D01*
X042199Y004680D01*
X042241Y004707D01*
X042285Y004731D01*
X042331Y004752D01*
X042378Y004768D01*
X042426Y004781D01*
X042476Y004790D01*
X042525Y004795D01*
X042576Y004796D01*
X042626Y004793D01*
X042675Y004786D01*
X042724Y004775D01*
X042772Y004760D01*
X042818Y004742D01*
X042863Y004720D01*
X042906Y004694D01*
X042947Y004665D01*
X042986Y004633D01*
X043022Y004598D01*
X043054Y004560D01*
X043084Y004520D01*
X043111Y004477D01*
X043134Y004433D01*
X043153Y004387D01*
X043169Y004339D01*
X043181Y004290D01*
X043189Y004241D01*
X043193Y004191D01*
X043193Y004141D01*
X043189Y004091D01*
X043181Y004042D01*
X043169Y003993D01*
X043153Y003945D01*
X043134Y003899D01*
X043111Y003855D01*
X043084Y003812D01*
X043054Y003772D01*
X043022Y003734D01*
X042986Y003699D01*
X042947Y003667D01*
X042906Y003638D01*
X042863Y003612D01*
X042818Y003590D01*
X042772Y003572D01*
X042724Y003557D01*
X042675Y003546D01*
X042626Y003539D01*
X042576Y003536D01*
X042525Y003537D01*
X042476Y003542D01*
X042426Y003551D01*
X042378Y003564D01*
X042331Y003580D01*
X042285Y003601D01*
X042241Y003625D01*
X042199Y003652D01*
X042159Y003682D01*
X042122Y003716D01*
X042088Y003753D01*
X042056Y003792D01*
X042028Y003833D01*
X042003Y003877D01*
X041982Y003922D01*
X041965Y003969D01*
X041951Y004017D01*
X041941Y004066D01*
X041935Y004116D01*
X041933Y004166D01*
X042563Y002591D02*
X042640Y002593D01*
X042717Y002599D01*
X042794Y002608D01*
X042870Y002621D01*
X042946Y002638D01*
X043020Y002659D01*
X043094Y002683D01*
X043166Y002711D01*
X043236Y002742D01*
X043305Y002777D01*
X043373Y002815D01*
X043438Y002856D01*
X043501Y002901D01*
X043562Y002949D01*
X043621Y002999D01*
X043677Y003052D01*
X043730Y003108D01*
X043780Y003167D01*
X043828Y003228D01*
X043873Y003291D01*
X043914Y003356D01*
X043952Y003424D01*
X043987Y003493D01*
X044018Y003563D01*
X044046Y003635D01*
X044070Y003709D01*
X044091Y003783D01*
X044108Y003859D01*
X044121Y003935D01*
X044130Y004012D01*
X044136Y004089D01*
X044138Y004166D01*
X042563Y002591D02*
X006342Y002591D01*
X005712Y004166D02*
X005714Y004216D01*
X005720Y004266D01*
X005730Y004315D01*
X005744Y004363D01*
X005761Y004410D01*
X005782Y004455D01*
X005807Y004499D01*
X005835Y004540D01*
X005867Y004579D01*
X005901Y004616D01*
X005938Y004650D01*
X005978Y004680D01*
X006020Y004707D01*
X006064Y004731D01*
X006110Y004752D01*
X006157Y004768D01*
X006205Y004781D01*
X006255Y004790D01*
X006304Y004795D01*
X006355Y004796D01*
X006405Y004793D01*
X006454Y004786D01*
X006503Y004775D01*
X006551Y004760D01*
X006597Y004742D01*
X006642Y004720D01*
X006685Y004694D01*
X006726Y004665D01*
X006765Y004633D01*
X006801Y004598D01*
X006833Y004560D01*
X006863Y004520D01*
X006890Y004477D01*
X006913Y004433D01*
X006932Y004387D01*
X006948Y004339D01*
X006960Y004290D01*
X006968Y004241D01*
X006972Y004191D01*
X006972Y004141D01*
X006968Y004091D01*
X006960Y004042D01*
X006948Y003993D01*
X006932Y003945D01*
X006913Y003899D01*
X006890Y003855D01*
X006863Y003812D01*
X006833Y003772D01*
X006801Y003734D01*
X006765Y003699D01*
X006726Y003667D01*
X006685Y003638D01*
X006642Y003612D01*
X006597Y003590D01*
X006551Y003572D01*
X006503Y003557D01*
X006454Y003546D01*
X006405Y003539D01*
X006355Y003536D01*
X006304Y003537D01*
X006255Y003542D01*
X006205Y003551D01*
X006157Y003564D01*
X006110Y003580D01*
X006064Y003601D01*
X006020Y003625D01*
X005978Y003652D01*
X005938Y003682D01*
X005901Y003716D01*
X005867Y003753D01*
X005835Y003792D01*
X005807Y003833D01*
X005782Y003877D01*
X005761Y003922D01*
X005744Y003969D01*
X005730Y004017D01*
X005720Y004066D01*
X005714Y004116D01*
X005712Y004166D01*
X004767Y004166D02*
X004769Y004089D01*
X004775Y004012D01*
X004784Y003935D01*
X004797Y003859D01*
X004814Y003783D01*
X004835Y003709D01*
X004859Y003635D01*
X004887Y003563D01*
X004918Y003493D01*
X004953Y003424D01*
X004991Y003356D01*
X005032Y003291D01*
X005077Y003228D01*
X005125Y003167D01*
X005175Y003108D01*
X005228Y003052D01*
X005284Y002999D01*
X005343Y002949D01*
X005404Y002901D01*
X005467Y002856D01*
X005532Y002815D01*
X005600Y002777D01*
X005669Y002742D01*
X005739Y002711D01*
X005811Y002683D01*
X005885Y002659D01*
X005959Y002638D01*
X006035Y002621D01*
X006111Y002608D01*
X006188Y002599D01*
X006265Y002593D01*
X006342Y002591D01*
M02*
