%
M48
M72
T01C0.0236
T02C0.0320
T03C0.0354
T04C0.0394
T05C0.0400
T06C0.0470
T07C0.1260
%
T01
X14482Y9546
X13738Y10203
X14832Y11700
X16078Y8984
X16580Y8136
X18258Y10084
X19683Y10086
X20740Y8978
X22952Y10276
X25952Y10151
X26615Y8511
X23505Y5462
X19209Y4938
X18906Y5633
X19382Y11866
X20232Y11853
X18342Y13022
X16452Y17901
X19202Y20526
X18077Y21151
X17327Y21901
X16327Y21901
X13952Y22151
X13952Y21276
X10327Y18401
X10327Y26276
X8827Y28151
X10577Y31401
X12702Y33526
X14077Y32651
X14077Y31401
X16403Y31115
X17327Y31401
X17827Y31901
X17827Y33776
X16827Y33776
X15327Y34276
X16028Y35956
X18327Y35901
X19327Y35901
X20077Y35901
X20077Y34901
X19327Y34901
X21663Y36368
X22452Y35776
X24577Y35901
X26327Y35776
X26452Y37401
X28202Y37901
X28202Y36026
X24577Y38651
X22702Y38151
X29991Y31976
X30083Y29365
X30105Y28686
X30873Y28224
X30666Y26798
X29475Y26421
X28329Y22486
X29858Y21421
X32734Y21387
X35577Y20776
X39775Y21053
X39787Y20219
X39797Y19433
X41658Y21458
X39726Y25777
X38067Y25687
X37184Y30983
X35889Y31861
X39702Y37151
X33827Y37276
X22126Y30849
X21581Y29743
X20890Y30234
X19952Y31026
X22187Y28137
X21944Y27479
X21829Y25543
X21655Y23425
X21432Y21068
X16456Y27018
X16546Y28393
X12702Y27776
X10327Y35151
X14327Y38776
X39038Y14365
X39972Y14352
X35827Y12901
X34465Y12769
X35952Y11526
X35202Y10901
X31827Y13401
X31827Y13901
X28952Y14026
X27952Y12026
X27952Y11526
X32044Y7959
X10349Y10475
T02
X11577Y8026
X11577Y9026
X11577Y11776
X11577Y12776
X11577Y15776
X11577Y16776
X14521Y16476
X14521Y15476
X14521Y14476
X17521Y14476
X17521Y15476
X17521Y16476
X17521Y17476
X17521Y18476
X17521Y19476
X17521Y20476
X17472Y22888
X17472Y23888
X17472Y24888
X17472Y25888
X17472Y26888
X17472Y27888
X17472Y28888
X14472Y28888
X14472Y27888
X14472Y26888
X14472Y25888
X14472Y24888
X14472Y23888
X14472Y22888
X14521Y20476
X14521Y19476
X14521Y18476
X14521Y17476
X11577Y19776
X11577Y20776
X11577Y23776
X11577Y24776
X11577Y27776
X11577Y28776
X11577Y31776
X11577Y32776
X11577Y35901
X11577Y36901
X20202Y27026
X20202Y26026
X20202Y25026
X20202Y24026
X20202Y23026
X20202Y22026
X20202Y21026
X20202Y20026
X20202Y19026
X20202Y18026
X20202Y17026
X20202Y16026
X20202Y15026
X20202Y14026
X23202Y14026
X23202Y15026
X23202Y16026
X23202Y17026
X23202Y18026
X23202Y19026
X23202Y20026
X23202Y21026
X23202Y22026
X23202Y23026
X23202Y24026
X23202Y25026
X23202Y26026
X23202Y27026
X22827Y32026
X22827Y33026
X24577Y33026
X24577Y32026
X26327Y32026
X26327Y33026
X28077Y33026
X28077Y32026
X31866Y28262
X31866Y27262
X31866Y26262
X31866Y25262
X31866Y24262
X31866Y23262
X31866Y22262
X31866Y21262
X31866Y20262
X31866Y19262
X31866Y18262
X31866Y17262
X31866Y16262
X31866Y15262
X34866Y15262
X34866Y16262
X34866Y17262
X34866Y18262
X34866Y19262
X34866Y20262
X34866Y21262
X34866Y22262
X34866Y23262
X34866Y24262
X34866Y25262
X34866Y26262
X34866Y27262
X34866Y28262
X37177Y27764
X37177Y28764
X37218Y31776
X37218Y32776
X37180Y36022
X37180Y37022
X41756Y26419
X41756Y25419
X37219Y24801
X37219Y23801
X37201Y20932
X37201Y19932
X37240Y16748
X37240Y15748
X37189Y12799
X37189Y11799
X37202Y9151
X37202Y8151
T03
X15423Y4919
X17156Y4919
T04
X27746Y12837
X27746Y13837
T05
X24146Y12703
X25286Y12703
X24831Y15477
X24831Y17257
X27391Y17257
X27391Y15477
X29825Y15079
X29925Y16079
X29825Y17079
X29925Y18079
X29825Y19079
X29925Y20079
X35946Y19324
X35946Y18184
X35957Y17291
X35957Y16151
X33959Y11718
X33959Y10718
X32959Y10718
X31959Y10718
X30959Y10718
X29959Y10718
X29959Y11718
X30959Y11718
X31959Y11718
X32959Y11718
X34740Y6808
X34740Y5808
X34740Y4808
X27452Y26026
X27452Y27026
X27452Y28026
T06
X8591Y39994
X10559Y39994
X12515Y39988
X14484Y39988
X16452Y39988
X18425Y39994
X20394Y39994
X22425Y39994
X24394Y39994
X26425Y39994
X28394Y39994
X30425Y39994
X32394Y39994
X34425Y39994
X36394Y39994
X38425Y39994
X40394Y39994
X42162Y37218
X42162Y35249
X42137Y33295
X42137Y31327
X42129Y19692
X42129Y17724
X42143Y15739
X42143Y13770
X42143Y11802
X42133Y9830
X42133Y7861
X6827Y7417
X6827Y9385
X6827Y11417
X6827Y13385
X6827Y15292
X6827Y17260
X6827Y19292
X6827Y21260
X6827Y23292
X6827Y25260
X6827Y27292
X6827Y29260
X6827Y31292
X6827Y33260
X6827Y35292
X6827Y37260
T07
X6342Y4166
X42563Y4166
X42563Y40386
X6342Y40386
M30
