G75*
G70*
%OFA0B0*%
%FSLAX24Y24*%
%IPPOS*%
%LPD*%
%AMOC8*
5,1,8,0,0,1.08239X$1,22.5*
%
%ADD10C,0.0560*%
%ADD11C,0.0780*%
%ADD12R,0.0780X0.0780*%
%ADD13C,0.0000*%
%ADD14C,0.1300*%
%ADD15C,0.0634*%
%ADD16C,0.0745*%
%ADD17OC8,0.0560*%
%ADD18C,0.0640*%
%ADD19OC8,0.0700*%
%ADD20OC8,0.0640*%
D10*
X014261Y014476D02*
X014781Y014476D01*
X014781Y015476D02*
X014261Y015476D01*
X014261Y016476D02*
X014781Y016476D01*
X014781Y017476D02*
X014261Y017476D01*
X014261Y018476D02*
X014781Y018476D01*
X014781Y019476D02*
X014261Y019476D01*
X014261Y020476D02*
X014781Y020476D01*
X014732Y022888D02*
X014212Y022888D01*
X014212Y023888D02*
X014732Y023888D01*
X014732Y024888D02*
X014212Y024888D01*
X014212Y025888D02*
X014732Y025888D01*
X014732Y026888D02*
X014212Y026888D01*
X014212Y027888D02*
X014732Y027888D01*
X014732Y028888D02*
X014212Y028888D01*
X017212Y028888D02*
X017732Y028888D01*
X017732Y027888D02*
X017212Y027888D01*
X017212Y026888D02*
X017732Y026888D01*
X017732Y025888D02*
X017212Y025888D01*
X017212Y024888D02*
X017732Y024888D01*
X017732Y023888D02*
X017212Y023888D01*
X017212Y022888D02*
X017732Y022888D01*
X019942Y023026D02*
X020462Y023026D01*
X020462Y024026D02*
X019942Y024026D01*
X019942Y025026D02*
X020462Y025026D01*
X020462Y026026D02*
X019942Y026026D01*
X019942Y027026D02*
X020462Y027026D01*
X022942Y027026D02*
X023462Y027026D01*
X023462Y026026D02*
X022942Y026026D01*
X022942Y025026D02*
X023462Y025026D01*
X023462Y024026D02*
X022942Y024026D01*
X022942Y023026D02*
X023462Y023026D01*
X023462Y022026D02*
X022942Y022026D01*
X022942Y021026D02*
X023462Y021026D01*
X023462Y020026D02*
X022942Y020026D01*
X022942Y019026D02*
X023462Y019026D01*
X023462Y018026D02*
X022942Y018026D01*
X022942Y017026D02*
X023462Y017026D01*
X023462Y016026D02*
X022942Y016026D01*
X022942Y015026D02*
X023462Y015026D01*
X023462Y014026D02*
X022942Y014026D01*
X020462Y014026D02*
X019942Y014026D01*
X019942Y015026D02*
X020462Y015026D01*
X020462Y016026D02*
X019942Y016026D01*
X019942Y017026D02*
X020462Y017026D01*
X020462Y018026D02*
X019942Y018026D01*
X019942Y019026D02*
X020462Y019026D01*
X020462Y020026D02*
X019942Y020026D01*
X019942Y021026D02*
X020462Y021026D01*
X020462Y022026D02*
X019942Y022026D01*
X017781Y020476D02*
X017261Y020476D01*
X017261Y019476D02*
X017781Y019476D01*
X017781Y018476D02*
X017261Y018476D01*
X017261Y017476D02*
X017781Y017476D01*
X017781Y016476D02*
X017261Y016476D01*
X017261Y015476D02*
X017781Y015476D01*
X017781Y014476D02*
X017261Y014476D01*
X031606Y015262D02*
X032126Y015262D01*
X032126Y016262D02*
X031606Y016262D01*
X031606Y017262D02*
X032126Y017262D01*
X032126Y018262D02*
X031606Y018262D01*
X031606Y019262D02*
X032126Y019262D01*
X032126Y020262D02*
X031606Y020262D01*
X031606Y021262D02*
X032126Y021262D01*
X032126Y022262D02*
X031606Y022262D01*
X031606Y023262D02*
X032126Y023262D01*
X032126Y024262D02*
X031606Y024262D01*
X031606Y025262D02*
X032126Y025262D01*
X032126Y026262D02*
X031606Y026262D01*
X031606Y027262D02*
X032126Y027262D01*
X032126Y028262D02*
X031606Y028262D01*
X034606Y028262D02*
X035126Y028262D01*
X035126Y027262D02*
X034606Y027262D01*
X034606Y026262D02*
X035126Y026262D01*
X035126Y025262D02*
X034606Y025262D01*
X034606Y024262D02*
X035126Y024262D01*
X035126Y023262D02*
X034606Y023262D01*
X034606Y022262D02*
X035126Y022262D01*
X035126Y021262D02*
X034606Y021262D01*
X034606Y020262D02*
X035126Y020262D01*
X035126Y019262D02*
X034606Y019262D01*
X034606Y018262D02*
X035126Y018262D01*
X035126Y017262D02*
X034606Y017262D01*
X034606Y016262D02*
X035126Y016262D01*
X035126Y015262D02*
X034606Y015262D01*
D11*
X035957Y016151D03*
X035957Y017291D03*
X035946Y018184D03*
X035946Y019324D03*
X029925Y020079D03*
X029825Y019079D03*
X029925Y018079D03*
X029825Y017079D03*
X029925Y016079D03*
X029825Y015079D03*
X027391Y015477D03*
X027391Y017257D03*
X024831Y017257D03*
X024831Y015477D03*
X025286Y012703D03*
X024146Y012703D03*
X027452Y026026D03*
X027452Y027026D03*
D12*
X027452Y028026D03*
D13*
X004767Y040386D02*
X004767Y004166D01*
X005712Y004166D02*
X005714Y004216D01*
X005720Y004266D01*
X005730Y004315D01*
X005744Y004363D01*
X005761Y004410D01*
X005782Y004455D01*
X005807Y004499D01*
X005835Y004540D01*
X005867Y004579D01*
X005901Y004616D01*
X005938Y004650D01*
X005978Y004680D01*
X006020Y004707D01*
X006064Y004731D01*
X006110Y004752D01*
X006157Y004768D01*
X006205Y004781D01*
X006255Y004790D01*
X006304Y004795D01*
X006355Y004796D01*
X006405Y004793D01*
X006454Y004786D01*
X006503Y004775D01*
X006551Y004760D01*
X006597Y004742D01*
X006642Y004720D01*
X006685Y004694D01*
X006726Y004665D01*
X006765Y004633D01*
X006801Y004598D01*
X006833Y004560D01*
X006863Y004520D01*
X006890Y004477D01*
X006913Y004433D01*
X006932Y004387D01*
X006948Y004339D01*
X006960Y004290D01*
X006968Y004241D01*
X006972Y004191D01*
X006972Y004141D01*
X006968Y004091D01*
X006960Y004042D01*
X006948Y003993D01*
X006932Y003945D01*
X006913Y003899D01*
X006890Y003855D01*
X006863Y003812D01*
X006833Y003772D01*
X006801Y003734D01*
X006765Y003699D01*
X006726Y003667D01*
X006685Y003638D01*
X006642Y003612D01*
X006597Y003590D01*
X006551Y003572D01*
X006503Y003557D01*
X006454Y003546D01*
X006405Y003539D01*
X006355Y003536D01*
X006304Y003537D01*
X006255Y003542D01*
X006205Y003551D01*
X006157Y003564D01*
X006110Y003580D01*
X006064Y003601D01*
X006020Y003625D01*
X005978Y003652D01*
X005938Y003682D01*
X005901Y003716D01*
X005867Y003753D01*
X005835Y003792D01*
X005807Y003833D01*
X005782Y003877D01*
X005761Y003922D01*
X005744Y003969D01*
X005730Y004017D01*
X005720Y004066D01*
X005714Y004116D01*
X005712Y004166D01*
X004767Y004166D02*
X004769Y004089D01*
X004775Y004012D01*
X004784Y003935D01*
X004797Y003859D01*
X004814Y003783D01*
X004835Y003709D01*
X004859Y003635D01*
X004887Y003563D01*
X004918Y003493D01*
X004953Y003424D01*
X004991Y003356D01*
X005032Y003291D01*
X005077Y003228D01*
X005125Y003167D01*
X005175Y003108D01*
X005228Y003052D01*
X005284Y002999D01*
X005343Y002949D01*
X005404Y002901D01*
X005467Y002856D01*
X005532Y002815D01*
X005600Y002777D01*
X005669Y002742D01*
X005739Y002711D01*
X005811Y002683D01*
X005885Y002659D01*
X005959Y002638D01*
X006035Y002621D01*
X006111Y002608D01*
X006188Y002599D01*
X006265Y002593D01*
X006342Y002591D01*
X042563Y002591D01*
X041933Y004166D02*
X041935Y004216D01*
X041941Y004266D01*
X041951Y004315D01*
X041965Y004363D01*
X041982Y004410D01*
X042003Y004455D01*
X042028Y004499D01*
X042056Y004540D01*
X042088Y004579D01*
X042122Y004616D01*
X042159Y004650D01*
X042199Y004680D01*
X042241Y004707D01*
X042285Y004731D01*
X042331Y004752D01*
X042378Y004768D01*
X042426Y004781D01*
X042476Y004790D01*
X042525Y004795D01*
X042576Y004796D01*
X042626Y004793D01*
X042675Y004786D01*
X042724Y004775D01*
X042772Y004760D01*
X042818Y004742D01*
X042863Y004720D01*
X042906Y004694D01*
X042947Y004665D01*
X042986Y004633D01*
X043022Y004598D01*
X043054Y004560D01*
X043084Y004520D01*
X043111Y004477D01*
X043134Y004433D01*
X043153Y004387D01*
X043169Y004339D01*
X043181Y004290D01*
X043189Y004241D01*
X043193Y004191D01*
X043193Y004141D01*
X043189Y004091D01*
X043181Y004042D01*
X043169Y003993D01*
X043153Y003945D01*
X043134Y003899D01*
X043111Y003855D01*
X043084Y003812D01*
X043054Y003772D01*
X043022Y003734D01*
X042986Y003699D01*
X042947Y003667D01*
X042906Y003638D01*
X042863Y003612D01*
X042818Y003590D01*
X042772Y003572D01*
X042724Y003557D01*
X042675Y003546D01*
X042626Y003539D01*
X042576Y003536D01*
X042525Y003537D01*
X042476Y003542D01*
X042426Y003551D01*
X042378Y003564D01*
X042331Y003580D01*
X042285Y003601D01*
X042241Y003625D01*
X042199Y003652D01*
X042159Y003682D01*
X042122Y003716D01*
X042088Y003753D01*
X042056Y003792D01*
X042028Y003833D01*
X042003Y003877D01*
X041982Y003922D01*
X041965Y003969D01*
X041951Y004017D01*
X041941Y004066D01*
X041935Y004116D01*
X041933Y004166D01*
X042563Y002591D02*
X042640Y002593D01*
X042717Y002599D01*
X042794Y002608D01*
X042870Y002621D01*
X042946Y002638D01*
X043020Y002659D01*
X043094Y002683D01*
X043166Y002711D01*
X043236Y002742D01*
X043305Y002777D01*
X043373Y002815D01*
X043438Y002856D01*
X043501Y002901D01*
X043562Y002949D01*
X043621Y002999D01*
X043677Y003052D01*
X043730Y003108D01*
X043780Y003167D01*
X043828Y003228D01*
X043873Y003291D01*
X043914Y003356D01*
X043952Y003424D01*
X043987Y003493D01*
X044018Y003563D01*
X044046Y003635D01*
X044070Y003709D01*
X044091Y003783D01*
X044108Y003859D01*
X044121Y003935D01*
X044130Y004012D01*
X044136Y004089D01*
X044138Y004166D01*
X044137Y004166D02*
X044137Y040386D01*
X041933Y040386D02*
X041935Y040436D01*
X041941Y040486D01*
X041951Y040535D01*
X041965Y040583D01*
X041982Y040630D01*
X042003Y040675D01*
X042028Y040719D01*
X042056Y040760D01*
X042088Y040799D01*
X042122Y040836D01*
X042159Y040870D01*
X042199Y040900D01*
X042241Y040927D01*
X042285Y040951D01*
X042331Y040972D01*
X042378Y040988D01*
X042426Y041001D01*
X042476Y041010D01*
X042525Y041015D01*
X042576Y041016D01*
X042626Y041013D01*
X042675Y041006D01*
X042724Y040995D01*
X042772Y040980D01*
X042818Y040962D01*
X042863Y040940D01*
X042906Y040914D01*
X042947Y040885D01*
X042986Y040853D01*
X043022Y040818D01*
X043054Y040780D01*
X043084Y040740D01*
X043111Y040697D01*
X043134Y040653D01*
X043153Y040607D01*
X043169Y040559D01*
X043181Y040510D01*
X043189Y040461D01*
X043193Y040411D01*
X043193Y040361D01*
X043189Y040311D01*
X043181Y040262D01*
X043169Y040213D01*
X043153Y040165D01*
X043134Y040119D01*
X043111Y040075D01*
X043084Y040032D01*
X043054Y039992D01*
X043022Y039954D01*
X042986Y039919D01*
X042947Y039887D01*
X042906Y039858D01*
X042863Y039832D01*
X042818Y039810D01*
X042772Y039792D01*
X042724Y039777D01*
X042675Y039766D01*
X042626Y039759D01*
X042576Y039756D01*
X042525Y039757D01*
X042476Y039762D01*
X042426Y039771D01*
X042378Y039784D01*
X042331Y039800D01*
X042285Y039821D01*
X042241Y039845D01*
X042199Y039872D01*
X042159Y039902D01*
X042122Y039936D01*
X042088Y039973D01*
X042056Y040012D01*
X042028Y040053D01*
X042003Y040097D01*
X041982Y040142D01*
X041965Y040189D01*
X041951Y040237D01*
X041941Y040286D01*
X041935Y040336D01*
X041933Y040386D01*
X042563Y041961D02*
X042640Y041959D01*
X042717Y041953D01*
X042794Y041944D01*
X042870Y041931D01*
X042946Y041914D01*
X043020Y041893D01*
X043094Y041869D01*
X043166Y041841D01*
X043236Y041810D01*
X043305Y041775D01*
X043373Y041737D01*
X043438Y041696D01*
X043501Y041651D01*
X043562Y041603D01*
X043621Y041553D01*
X043677Y041500D01*
X043730Y041444D01*
X043780Y041385D01*
X043828Y041324D01*
X043873Y041261D01*
X043914Y041196D01*
X043952Y041128D01*
X043987Y041059D01*
X044018Y040989D01*
X044046Y040917D01*
X044070Y040843D01*
X044091Y040769D01*
X044108Y040693D01*
X044121Y040617D01*
X044130Y040540D01*
X044136Y040463D01*
X044138Y040386D01*
X042563Y041961D02*
X006342Y041961D01*
X005712Y040386D02*
X005714Y040436D01*
X005720Y040486D01*
X005730Y040535D01*
X005744Y040583D01*
X005761Y040630D01*
X005782Y040675D01*
X005807Y040719D01*
X005835Y040760D01*
X005867Y040799D01*
X005901Y040836D01*
X005938Y040870D01*
X005978Y040900D01*
X006020Y040927D01*
X006064Y040951D01*
X006110Y040972D01*
X006157Y040988D01*
X006205Y041001D01*
X006255Y041010D01*
X006304Y041015D01*
X006355Y041016D01*
X006405Y041013D01*
X006454Y041006D01*
X006503Y040995D01*
X006551Y040980D01*
X006597Y040962D01*
X006642Y040940D01*
X006685Y040914D01*
X006726Y040885D01*
X006765Y040853D01*
X006801Y040818D01*
X006833Y040780D01*
X006863Y040740D01*
X006890Y040697D01*
X006913Y040653D01*
X006932Y040607D01*
X006948Y040559D01*
X006960Y040510D01*
X006968Y040461D01*
X006972Y040411D01*
X006972Y040361D01*
X006968Y040311D01*
X006960Y040262D01*
X006948Y040213D01*
X006932Y040165D01*
X006913Y040119D01*
X006890Y040075D01*
X006863Y040032D01*
X006833Y039992D01*
X006801Y039954D01*
X006765Y039919D01*
X006726Y039887D01*
X006685Y039858D01*
X006642Y039832D01*
X006597Y039810D01*
X006551Y039792D01*
X006503Y039777D01*
X006454Y039766D01*
X006405Y039759D01*
X006355Y039756D01*
X006304Y039757D01*
X006255Y039762D01*
X006205Y039771D01*
X006157Y039784D01*
X006110Y039800D01*
X006064Y039821D01*
X006020Y039845D01*
X005978Y039872D01*
X005938Y039902D01*
X005901Y039936D01*
X005867Y039973D01*
X005835Y040012D01*
X005807Y040053D01*
X005782Y040097D01*
X005761Y040142D01*
X005744Y040189D01*
X005730Y040237D01*
X005720Y040286D01*
X005714Y040336D01*
X005712Y040386D01*
X004767Y040386D02*
X004769Y040463D01*
X004775Y040540D01*
X004784Y040617D01*
X004797Y040693D01*
X004814Y040769D01*
X004835Y040843D01*
X004859Y040917D01*
X004887Y040989D01*
X004918Y041059D01*
X004953Y041128D01*
X004991Y041196D01*
X005032Y041261D01*
X005077Y041324D01*
X005125Y041385D01*
X005175Y041444D01*
X005228Y041500D01*
X005284Y041553D01*
X005343Y041603D01*
X005404Y041651D01*
X005467Y041696D01*
X005532Y041737D01*
X005600Y041775D01*
X005669Y041810D01*
X005739Y041841D01*
X005811Y041869D01*
X005885Y041893D01*
X005959Y041914D01*
X006035Y041931D01*
X006111Y041944D01*
X006188Y041953D01*
X006265Y041959D01*
X006342Y041961D01*
D14*
X006342Y040386D03*
X042563Y040386D03*
X042563Y004166D03*
X006342Y004166D03*
D15*
X027449Y012837D02*
X028042Y012837D01*
X028042Y013837D02*
X027449Y013837D01*
D16*
X041790Y013770D02*
X042495Y013770D01*
X042495Y011802D02*
X041790Y011802D01*
X041781Y009830D02*
X042486Y009830D01*
X042486Y007861D02*
X041781Y007861D01*
X041790Y015739D02*
X042495Y015739D01*
X042481Y017724D02*
X041776Y017724D01*
X041776Y019692D02*
X042481Y019692D01*
X042489Y031327D02*
X041784Y031327D01*
X041784Y033295D02*
X042489Y033295D01*
X042515Y035249D02*
X041810Y035249D01*
X041810Y037218D02*
X042515Y037218D01*
X040394Y039642D02*
X040394Y040347D01*
X038425Y040347D02*
X038425Y039642D01*
X036394Y039642D02*
X036394Y040347D01*
X034425Y040347D02*
X034425Y039642D01*
X032394Y039642D02*
X032394Y040347D01*
X030425Y040347D02*
X030425Y039642D01*
X028394Y039642D02*
X028394Y040347D01*
X026425Y040347D02*
X026425Y039642D01*
X024394Y039642D02*
X024394Y040347D01*
X022425Y040347D02*
X022425Y039642D01*
X020394Y039642D02*
X020394Y040347D01*
X018425Y040347D02*
X018425Y039642D01*
X016452Y039635D02*
X016452Y040340D01*
X014484Y040340D02*
X014484Y039635D01*
X012515Y039635D02*
X012515Y040340D01*
X010559Y040347D02*
X010559Y039642D01*
X008591Y039642D02*
X008591Y040347D01*
X007180Y037260D02*
X006475Y037260D01*
X006475Y035292D02*
X007180Y035292D01*
X007180Y033260D02*
X006475Y033260D01*
X006475Y031292D02*
X007180Y031292D01*
X007180Y029260D02*
X006475Y029260D01*
X006475Y027292D02*
X007180Y027292D01*
X007180Y025260D02*
X006475Y025260D01*
X006475Y023292D02*
X007180Y023292D01*
X007180Y021260D02*
X006475Y021260D01*
X006475Y019292D02*
X007180Y019292D01*
X007180Y017260D02*
X006475Y017260D01*
X006475Y015292D02*
X007180Y015292D01*
X007180Y013385D02*
X006475Y013385D01*
X006475Y011417D02*
X007180Y011417D01*
X007180Y009385D02*
X006475Y009385D01*
X006475Y007417D02*
X007180Y007417D01*
D17*
X011577Y008026D03*
X011577Y009026D03*
X011577Y011776D03*
X011577Y012776D03*
X011577Y015776D03*
X011577Y016776D03*
X011577Y019776D03*
X011577Y020776D03*
X011577Y023776D03*
X011577Y024776D03*
X011577Y027776D03*
X011577Y028776D03*
X011577Y031776D03*
X011577Y032776D03*
X011577Y035901D03*
X011577Y036901D03*
X022827Y033026D03*
X022827Y032026D03*
X024577Y032026D03*
X024577Y033026D03*
X026327Y033026D03*
X026327Y032026D03*
X028077Y032026D03*
X028077Y033026D03*
X037218Y032776D03*
X037218Y031776D03*
X037177Y028764D03*
X037177Y027764D03*
X037219Y024801D03*
X037219Y023801D03*
X037201Y020932D03*
X037201Y019932D03*
X037240Y016748D03*
X037240Y015748D03*
X037189Y012799D03*
X037189Y011799D03*
X041756Y025419D03*
X041756Y026419D03*
X037180Y036022D03*
X037180Y037022D03*
D18*
X035040Y006808D02*
X034440Y006808D01*
X034440Y005808D02*
X035040Y005808D01*
X035040Y004808D02*
X034440Y004808D01*
D19*
X037202Y008151D03*
X037202Y009151D03*
D20*
X033959Y010718D03*
X032959Y010718D03*
X031959Y010718D03*
X030959Y010718D03*
X029959Y010718D03*
X029959Y011718D03*
X030959Y011718D03*
X031959Y011718D03*
X032959Y011718D03*
X033959Y011718D03*
M02*
