G75*
G70*
%OFA0B0*%
%FSLAX24Y24*%
%IPPOS*%
%LPD*%
%AMOC8*
5,1,8,0,0,1.08239X$1,22.5*
%
%ADD10C,0.0000*%
D10*
X004631Y004990D02*
X004631Y041211D01*
X005576Y041211D02*
X005578Y041261D01*
X005584Y041311D01*
X005594Y041360D01*
X005608Y041408D01*
X005625Y041455D01*
X005646Y041500D01*
X005671Y041544D01*
X005699Y041585D01*
X005731Y041624D01*
X005765Y041661D01*
X005802Y041695D01*
X005842Y041725D01*
X005884Y041752D01*
X005928Y041776D01*
X005974Y041797D01*
X006021Y041813D01*
X006069Y041826D01*
X006119Y041835D01*
X006168Y041840D01*
X006219Y041841D01*
X006269Y041838D01*
X006318Y041831D01*
X006367Y041820D01*
X006415Y041805D01*
X006461Y041787D01*
X006506Y041765D01*
X006549Y041739D01*
X006590Y041710D01*
X006629Y041678D01*
X006665Y041643D01*
X006697Y041605D01*
X006727Y041565D01*
X006754Y041522D01*
X006777Y041478D01*
X006796Y041432D01*
X006812Y041384D01*
X006824Y041335D01*
X006832Y041286D01*
X006836Y041236D01*
X006836Y041186D01*
X006832Y041136D01*
X006824Y041087D01*
X006812Y041038D01*
X006796Y040990D01*
X006777Y040944D01*
X006754Y040900D01*
X006727Y040857D01*
X006697Y040817D01*
X006665Y040779D01*
X006629Y040744D01*
X006590Y040712D01*
X006549Y040683D01*
X006506Y040657D01*
X006461Y040635D01*
X006415Y040617D01*
X006367Y040602D01*
X006318Y040591D01*
X006269Y040584D01*
X006219Y040581D01*
X006168Y040582D01*
X006119Y040587D01*
X006069Y040596D01*
X006021Y040609D01*
X005974Y040625D01*
X005928Y040646D01*
X005884Y040670D01*
X005842Y040697D01*
X005802Y040727D01*
X005765Y040761D01*
X005731Y040798D01*
X005699Y040837D01*
X005671Y040878D01*
X005646Y040922D01*
X005625Y040967D01*
X005608Y041014D01*
X005594Y041062D01*
X005584Y041111D01*
X005578Y041161D01*
X005576Y041211D01*
X004631Y041211D02*
X004633Y041288D01*
X004639Y041365D01*
X004648Y041442D01*
X004661Y041518D01*
X004678Y041594D01*
X004699Y041668D01*
X004723Y041742D01*
X004751Y041814D01*
X004782Y041884D01*
X004817Y041953D01*
X004855Y042021D01*
X004896Y042086D01*
X004941Y042149D01*
X004989Y042210D01*
X005039Y042269D01*
X005092Y042325D01*
X005148Y042378D01*
X005207Y042428D01*
X005268Y042476D01*
X005331Y042521D01*
X005396Y042562D01*
X005464Y042600D01*
X005533Y042635D01*
X005603Y042666D01*
X005675Y042694D01*
X005749Y042718D01*
X005823Y042739D01*
X005899Y042756D01*
X005975Y042769D01*
X006052Y042778D01*
X006129Y042784D01*
X006206Y042786D01*
X042426Y042786D01*
X041796Y041211D02*
X041798Y041261D01*
X041804Y041311D01*
X041814Y041360D01*
X041828Y041408D01*
X041845Y041455D01*
X041866Y041500D01*
X041891Y041544D01*
X041919Y041585D01*
X041951Y041624D01*
X041985Y041661D01*
X042022Y041695D01*
X042062Y041725D01*
X042104Y041752D01*
X042148Y041776D01*
X042194Y041797D01*
X042241Y041813D01*
X042289Y041826D01*
X042339Y041835D01*
X042388Y041840D01*
X042439Y041841D01*
X042489Y041838D01*
X042538Y041831D01*
X042587Y041820D01*
X042635Y041805D01*
X042681Y041787D01*
X042726Y041765D01*
X042769Y041739D01*
X042810Y041710D01*
X042849Y041678D01*
X042885Y041643D01*
X042917Y041605D01*
X042947Y041565D01*
X042974Y041522D01*
X042997Y041478D01*
X043016Y041432D01*
X043032Y041384D01*
X043044Y041335D01*
X043052Y041286D01*
X043056Y041236D01*
X043056Y041186D01*
X043052Y041136D01*
X043044Y041087D01*
X043032Y041038D01*
X043016Y040990D01*
X042997Y040944D01*
X042974Y040900D01*
X042947Y040857D01*
X042917Y040817D01*
X042885Y040779D01*
X042849Y040744D01*
X042810Y040712D01*
X042769Y040683D01*
X042726Y040657D01*
X042681Y040635D01*
X042635Y040617D01*
X042587Y040602D01*
X042538Y040591D01*
X042489Y040584D01*
X042439Y040581D01*
X042388Y040582D01*
X042339Y040587D01*
X042289Y040596D01*
X042241Y040609D01*
X042194Y040625D01*
X042148Y040646D01*
X042104Y040670D01*
X042062Y040697D01*
X042022Y040727D01*
X041985Y040761D01*
X041951Y040798D01*
X041919Y040837D01*
X041891Y040878D01*
X041866Y040922D01*
X041845Y040967D01*
X041828Y041014D01*
X041814Y041062D01*
X041804Y041111D01*
X041798Y041161D01*
X041796Y041211D01*
X042426Y042786D02*
X042503Y042784D01*
X042580Y042778D01*
X042657Y042769D01*
X042733Y042756D01*
X042809Y042739D01*
X042883Y042718D01*
X042957Y042694D01*
X043029Y042666D01*
X043099Y042635D01*
X043168Y042600D01*
X043236Y042562D01*
X043301Y042521D01*
X043364Y042476D01*
X043425Y042428D01*
X043484Y042378D01*
X043540Y042325D01*
X043593Y042269D01*
X043643Y042210D01*
X043691Y042149D01*
X043736Y042086D01*
X043777Y042021D01*
X043815Y041953D01*
X043850Y041884D01*
X043881Y041814D01*
X043909Y041742D01*
X043933Y041668D01*
X043954Y041594D01*
X043971Y041518D01*
X043984Y041442D01*
X043993Y041365D01*
X043999Y041288D01*
X044001Y041211D01*
X044001Y004990D01*
X041796Y004990D02*
X041798Y005040D01*
X041804Y005090D01*
X041814Y005139D01*
X041828Y005187D01*
X041845Y005234D01*
X041866Y005279D01*
X041891Y005323D01*
X041919Y005364D01*
X041951Y005403D01*
X041985Y005440D01*
X042022Y005474D01*
X042062Y005504D01*
X042104Y005531D01*
X042148Y005555D01*
X042194Y005576D01*
X042241Y005592D01*
X042289Y005605D01*
X042339Y005614D01*
X042388Y005619D01*
X042439Y005620D01*
X042489Y005617D01*
X042538Y005610D01*
X042587Y005599D01*
X042635Y005584D01*
X042681Y005566D01*
X042726Y005544D01*
X042769Y005518D01*
X042810Y005489D01*
X042849Y005457D01*
X042885Y005422D01*
X042917Y005384D01*
X042947Y005344D01*
X042974Y005301D01*
X042997Y005257D01*
X043016Y005211D01*
X043032Y005163D01*
X043044Y005114D01*
X043052Y005065D01*
X043056Y005015D01*
X043056Y004965D01*
X043052Y004915D01*
X043044Y004866D01*
X043032Y004817D01*
X043016Y004769D01*
X042997Y004723D01*
X042974Y004679D01*
X042947Y004636D01*
X042917Y004596D01*
X042885Y004558D01*
X042849Y004523D01*
X042810Y004491D01*
X042769Y004462D01*
X042726Y004436D01*
X042681Y004414D01*
X042635Y004396D01*
X042587Y004381D01*
X042538Y004370D01*
X042489Y004363D01*
X042439Y004360D01*
X042388Y004361D01*
X042339Y004366D01*
X042289Y004375D01*
X042241Y004388D01*
X042194Y004404D01*
X042148Y004425D01*
X042104Y004449D01*
X042062Y004476D01*
X042022Y004506D01*
X041985Y004540D01*
X041951Y004577D01*
X041919Y004616D01*
X041891Y004657D01*
X041866Y004701D01*
X041845Y004746D01*
X041828Y004793D01*
X041814Y004841D01*
X041804Y004890D01*
X041798Y004940D01*
X041796Y004990D01*
X042426Y003415D02*
X042503Y003417D01*
X042580Y003423D01*
X042657Y003432D01*
X042733Y003445D01*
X042809Y003462D01*
X042883Y003483D01*
X042957Y003507D01*
X043029Y003535D01*
X043099Y003566D01*
X043168Y003601D01*
X043236Y003639D01*
X043301Y003680D01*
X043364Y003725D01*
X043425Y003773D01*
X043484Y003823D01*
X043540Y003876D01*
X043593Y003932D01*
X043643Y003991D01*
X043691Y004052D01*
X043736Y004115D01*
X043777Y004180D01*
X043815Y004248D01*
X043850Y004317D01*
X043881Y004387D01*
X043909Y004459D01*
X043933Y004533D01*
X043954Y004607D01*
X043971Y004683D01*
X043984Y004759D01*
X043993Y004836D01*
X043999Y004913D01*
X044001Y004990D01*
X042426Y003416D02*
X006206Y003416D01*
X005576Y004990D02*
X005578Y005040D01*
X005584Y005090D01*
X005594Y005139D01*
X005608Y005187D01*
X005625Y005234D01*
X005646Y005279D01*
X005671Y005323D01*
X005699Y005364D01*
X005731Y005403D01*
X005765Y005440D01*
X005802Y005474D01*
X005842Y005504D01*
X005884Y005531D01*
X005928Y005555D01*
X005974Y005576D01*
X006021Y005592D01*
X006069Y005605D01*
X006119Y005614D01*
X006168Y005619D01*
X006219Y005620D01*
X006269Y005617D01*
X006318Y005610D01*
X006367Y005599D01*
X006415Y005584D01*
X006461Y005566D01*
X006506Y005544D01*
X006549Y005518D01*
X006590Y005489D01*
X006629Y005457D01*
X006665Y005422D01*
X006697Y005384D01*
X006727Y005344D01*
X006754Y005301D01*
X006777Y005257D01*
X006796Y005211D01*
X006812Y005163D01*
X006824Y005114D01*
X006832Y005065D01*
X006836Y005015D01*
X006836Y004965D01*
X006832Y004915D01*
X006824Y004866D01*
X006812Y004817D01*
X006796Y004769D01*
X006777Y004723D01*
X006754Y004679D01*
X006727Y004636D01*
X006697Y004596D01*
X006665Y004558D01*
X006629Y004523D01*
X006590Y004491D01*
X006549Y004462D01*
X006506Y004436D01*
X006461Y004414D01*
X006415Y004396D01*
X006367Y004381D01*
X006318Y004370D01*
X006269Y004363D01*
X006219Y004360D01*
X006168Y004361D01*
X006119Y004366D01*
X006069Y004375D01*
X006021Y004388D01*
X005974Y004404D01*
X005928Y004425D01*
X005884Y004449D01*
X005842Y004476D01*
X005802Y004506D01*
X005765Y004540D01*
X005731Y004577D01*
X005699Y004616D01*
X005671Y004657D01*
X005646Y004701D01*
X005625Y004746D01*
X005608Y004793D01*
X005594Y004841D01*
X005584Y004890D01*
X005578Y004940D01*
X005576Y004990D01*
X004631Y004990D02*
X004633Y004913D01*
X004639Y004836D01*
X004648Y004759D01*
X004661Y004683D01*
X004678Y004607D01*
X004699Y004533D01*
X004723Y004459D01*
X004751Y004387D01*
X004782Y004317D01*
X004817Y004248D01*
X004855Y004180D01*
X004896Y004115D01*
X004941Y004052D01*
X004989Y003991D01*
X005039Y003932D01*
X005092Y003876D01*
X005148Y003823D01*
X005207Y003773D01*
X005268Y003725D01*
X005331Y003680D01*
X005396Y003639D01*
X005464Y003601D01*
X005533Y003566D01*
X005603Y003535D01*
X005675Y003507D01*
X005749Y003483D01*
X005823Y003462D01*
X005899Y003445D01*
X005975Y003432D01*
X006052Y003423D01*
X006129Y003417D01*
X006206Y003415D01*
M02*
