G75*
G70*
%OFA0B0*%
%FSLAX24Y24*%
%IPPOS*%
%LPD*%
%AMOC8*
5,1,8,0,0,1.08239X$1,22.5*
%
%ADD10R,0.0316X0.0671*%
%ADD11R,0.2180X0.0840*%
%ADD12R,0.0789X0.0710*%
%ADD13C,0.0740*%
%ADD14C,0.1380*%
%ADD15R,0.0710X0.0789*%
%ADD16R,0.0710X0.0867*%
%ADD17R,0.0790X0.0710*%
%ADD18R,0.0867X0.0710*%
%ADD19C,0.0600*%
%ADD20C,0.0671*%
%ADD21R,0.0631X0.1104*%
%ADD22R,0.1261X0.0710*%
%ADD23OC8,0.0820*%
%ADD24R,0.0552X0.1340*%
%ADD25C,0.0785*%
%ADD26R,0.0867X0.0867*%
%ADD27R,0.0880X0.0880*%
%ADD28C,0.0880*%
%ADD29C,0.0680*%
%ADD30C,0.0634*%
%ADD31C,0.0674*%
%ADD32C,0.0000*%
%ADD33C,0.1340*%
%ADD34OC8,0.1080*%
%ADD35C,0.0640*%
%ADD36R,0.0476X0.0476*%
D10*
X035066Y033632D03*
X035566Y033632D03*
X036066Y033632D03*
X036566Y033632D03*
X037066Y033632D03*
X037566Y033632D03*
X038066Y033632D03*
X038566Y033632D03*
X039066Y033632D03*
X039566Y033632D03*
X039566Y037569D03*
X039066Y037569D03*
X038566Y037569D03*
X038066Y037569D03*
X037566Y037569D03*
X037066Y037569D03*
X036566Y037569D03*
X036066Y037569D03*
X035566Y037569D03*
X035066Y037569D03*
D11*
X036716Y039851D03*
X032916Y039851D03*
X028216Y017851D03*
X024416Y017851D03*
D12*
X027816Y014652D03*
X027816Y013549D03*
X027816Y011652D03*
X027816Y010549D03*
X027816Y008652D03*
X027816Y007549D03*
X014816Y007549D03*
X014816Y008652D03*
X014816Y010549D03*
X014816Y011652D03*
X014816Y013549D03*
X014816Y014652D03*
X022816Y027549D03*
X022816Y028652D03*
X024816Y028652D03*
X024816Y027549D03*
X025316Y031049D03*
X025316Y032152D03*
X025316Y034049D03*
X025316Y035152D03*
X025316Y037049D03*
X025316Y038152D03*
X031066Y039299D03*
X031066Y040402D03*
X038566Y040402D03*
X038566Y039299D03*
X040066Y039299D03*
X040066Y040402D03*
X018816Y038152D03*
X018816Y037049D03*
X018816Y035152D03*
X018816Y034049D03*
X018816Y032152D03*
X018816Y031049D03*
X012316Y031049D03*
X012316Y032152D03*
X012316Y034049D03*
X012316Y035152D03*
X012316Y037049D03*
X012316Y038152D03*
D13*
X040786Y036593D03*
X041566Y036593D03*
X041566Y035609D03*
X040786Y035609D03*
D14*
X042636Y033731D03*
X042636Y038471D03*
D15*
X039367Y032101D03*
X038265Y032101D03*
X033617Y030101D03*
X032515Y030101D03*
X028367Y016101D03*
X027265Y016101D03*
X025367Y016101D03*
X024265Y016101D03*
X011367Y028601D03*
X010265Y028601D03*
D16*
X008367Y028601D03*
X007265Y028601D03*
X020015Y012101D03*
X021117Y012101D03*
X021117Y010351D03*
X020015Y010351D03*
X034765Y010101D03*
X035867Y010101D03*
X035867Y011851D03*
X034765Y011851D03*
X032117Y037851D03*
X031015Y037851D03*
D17*
X032316Y032660D03*
X032316Y031541D03*
X033816Y031541D03*
X033816Y032660D03*
X035316Y032660D03*
X035316Y031541D03*
D18*
X035316Y030152D03*
X035316Y029049D03*
X033816Y034549D03*
X033816Y035652D03*
X032316Y035652D03*
X032316Y034549D03*
X026816Y028652D03*
X026816Y027549D03*
X007691Y011027D03*
X007691Y009924D03*
X006316Y009549D03*
X006316Y010652D03*
D19*
X014816Y019841D02*
X014816Y020361D01*
X015816Y020361D02*
X015816Y019841D01*
X016816Y019841D02*
X016816Y020361D01*
X017816Y020361D02*
X017816Y019841D01*
X018816Y019841D02*
X018816Y020361D01*
X019816Y020361D02*
X019816Y019841D01*
X020816Y019841D02*
X020816Y020361D01*
X021816Y020361D02*
X021816Y019841D01*
X022816Y019841D02*
X022816Y020361D01*
X023816Y020361D02*
X023816Y019841D01*
X024816Y019841D02*
X024816Y020361D01*
X025816Y020361D02*
X025816Y019841D01*
X026816Y019841D02*
X026816Y020361D01*
X027816Y020361D02*
X027816Y019841D01*
X028816Y019841D02*
X028816Y020361D01*
X029816Y020361D02*
X029816Y019841D01*
X030816Y019841D02*
X030816Y020361D01*
X031816Y020361D02*
X031816Y019841D01*
X032816Y019841D02*
X032816Y020361D01*
X033816Y020361D02*
X033816Y019841D01*
X033816Y025841D02*
X033816Y026361D01*
X032816Y026361D02*
X032816Y025841D01*
X031816Y025841D02*
X031816Y026361D01*
X030816Y026361D02*
X030816Y025841D01*
X029816Y025841D02*
X029816Y026361D01*
X028816Y026361D02*
X028816Y025841D01*
X027816Y025841D02*
X027816Y026361D01*
X026816Y026361D02*
X026816Y025841D01*
X025816Y025841D02*
X025816Y026361D01*
X024816Y026361D02*
X024816Y025841D01*
X023816Y025841D02*
X023816Y026361D01*
X022816Y026361D02*
X022816Y025841D01*
X021816Y025841D02*
X021816Y026361D01*
X020816Y026361D02*
X020816Y025841D01*
X019816Y025841D02*
X019816Y026361D01*
X018816Y026361D02*
X018816Y025841D01*
X017816Y025841D02*
X017816Y026361D01*
X016816Y026361D02*
X016816Y025841D01*
X015816Y025841D02*
X015816Y026361D01*
X014816Y026361D02*
X014816Y025841D01*
D20*
X035316Y025226D03*
X035316Y021226D03*
D21*
X035558Y016475D03*
X035558Y014860D03*
D22*
X036057Y008351D03*
X034325Y008351D03*
X022432Y008226D03*
X020700Y008226D03*
X009682Y008351D03*
X007950Y008351D03*
X040700Y032101D03*
X042432Y032101D03*
D23*
X041191Y019601D03*
X040191Y019601D03*
X039191Y019601D03*
X039191Y018601D03*
X040191Y018601D03*
X041191Y018601D03*
X012116Y020851D03*
X011016Y020851D03*
X011016Y021851D03*
X011016Y022851D03*
X011016Y023851D03*
X011016Y024851D03*
X012116Y024851D03*
X012116Y023851D03*
X012116Y022851D03*
X012116Y021851D03*
D24*
X008603Y023762D03*
X007028Y023762D03*
X007028Y026439D03*
X008603Y026439D03*
D25*
X037831Y006453D02*
X037831Y005748D01*
X039800Y005748D02*
X039800Y006453D01*
X039838Y013866D02*
X040543Y013866D01*
X040543Y015835D02*
X039838Y015835D01*
D26*
X039603Y008851D03*
X038028Y008851D03*
X025353Y008101D03*
X023778Y008101D03*
X012353Y008101D03*
X010778Y008101D03*
X028028Y037851D03*
X029603Y037851D03*
D27*
X029469Y040998D03*
X025887Y040975D03*
X019422Y040975D03*
X012887Y040975D03*
X006566Y019351D03*
X006566Y015851D03*
X006566Y012351D03*
X007941Y005726D03*
X012316Y005601D03*
X014316Y005601D03*
X020941Y005726D03*
X025316Y005601D03*
X027316Y005601D03*
X034441Y005851D03*
D28*
X035819Y005851D03*
X031450Y005601D03*
X030072Y005601D03*
X028694Y005601D03*
X023938Y005601D03*
X022319Y005726D03*
X018450Y005601D03*
X017072Y005601D03*
X015694Y005601D03*
X010938Y005601D03*
X009319Y005726D03*
X006566Y013729D03*
X006566Y017229D03*
X006566Y020729D03*
X008753Y040975D03*
X010131Y040975D03*
X011509Y040975D03*
X015288Y040975D03*
X016666Y040975D03*
X018044Y040975D03*
X021753Y040975D03*
X023131Y040975D03*
X024509Y040975D03*
X028091Y040998D03*
D29*
X028316Y036401D02*
X028316Y035801D01*
X029316Y035801D02*
X029316Y036401D01*
X030316Y036401D02*
X030316Y035801D01*
X039691Y028901D02*
X039691Y028301D01*
X040691Y028301D02*
X040691Y028901D01*
X041691Y028901D02*
X041691Y028301D01*
X039816Y010901D02*
X039816Y010301D01*
X038816Y010301D02*
X038816Y010901D01*
X037816Y010901D02*
X037816Y010301D01*
X025066Y010051D02*
X025066Y010651D01*
X024066Y010651D02*
X024066Y010051D01*
X023066Y010051D02*
X023066Y010651D01*
X011816Y010651D02*
X011816Y010051D01*
X010816Y010051D02*
X010816Y010651D01*
X009816Y010651D02*
X009816Y010051D01*
D30*
X013816Y009601D03*
X013816Y010601D03*
X013816Y011601D03*
X013816Y012601D03*
X013816Y013601D03*
X013816Y014601D03*
X018816Y014601D03*
X018816Y013601D03*
X018816Y012601D03*
X018816Y011601D03*
X018816Y010601D03*
X018816Y009601D03*
X018816Y008601D03*
X018816Y007601D03*
X013816Y007601D03*
X013816Y008601D03*
X026816Y008601D03*
X026816Y007601D03*
X026816Y009601D03*
X026816Y010601D03*
X026816Y011601D03*
X026816Y012601D03*
X026816Y013601D03*
X026816Y014601D03*
X031816Y014601D03*
X031816Y013601D03*
X031816Y012601D03*
X031816Y011601D03*
X031816Y010601D03*
X031816Y009601D03*
X031816Y008601D03*
X031816Y007601D03*
X026316Y031101D03*
X026316Y032101D03*
X026316Y033101D03*
X026316Y034101D03*
X026316Y035101D03*
X026316Y036101D03*
X026316Y037101D03*
X026316Y038101D03*
X021316Y038101D03*
X021316Y037101D03*
X021316Y036101D03*
X021316Y035101D03*
X021316Y034101D03*
X021316Y033101D03*
X021316Y032101D03*
X021316Y031101D03*
X019816Y031101D03*
X019816Y032101D03*
X019816Y033101D03*
X019816Y034101D03*
X019816Y035101D03*
X019816Y036101D03*
X019816Y037101D03*
X019816Y038101D03*
X014816Y038101D03*
X014816Y037101D03*
X014816Y036101D03*
X014816Y035101D03*
X014816Y034101D03*
X014816Y033101D03*
X014816Y032101D03*
X014816Y031101D03*
X013316Y031101D03*
X013316Y032101D03*
X013316Y033101D03*
X013316Y034101D03*
X013316Y035101D03*
X013316Y036101D03*
X013316Y037101D03*
X013316Y038101D03*
X008316Y038101D03*
X008316Y037101D03*
X008316Y036101D03*
X008316Y035101D03*
X008316Y034101D03*
X008316Y033101D03*
X008316Y032101D03*
X008316Y031101D03*
D31*
X007988Y021351D02*
X007394Y021351D01*
X007394Y020351D02*
X007988Y020351D01*
X007988Y019351D02*
X007394Y019351D01*
X007394Y017851D02*
X007988Y017851D01*
X007988Y016851D02*
X007394Y016851D01*
X007394Y015851D02*
X007988Y015851D01*
X007988Y014351D02*
X007394Y014351D01*
X007394Y013351D02*
X007988Y013351D01*
X007988Y012351D02*
X007394Y012351D01*
D32*
X004631Y004990D02*
X004631Y041211D01*
X005576Y041211D02*
X005578Y041261D01*
X005584Y041311D01*
X005594Y041360D01*
X005608Y041408D01*
X005625Y041455D01*
X005646Y041500D01*
X005671Y041544D01*
X005699Y041585D01*
X005731Y041624D01*
X005765Y041661D01*
X005802Y041695D01*
X005842Y041725D01*
X005884Y041752D01*
X005928Y041776D01*
X005974Y041797D01*
X006021Y041813D01*
X006069Y041826D01*
X006119Y041835D01*
X006168Y041840D01*
X006219Y041841D01*
X006269Y041838D01*
X006318Y041831D01*
X006367Y041820D01*
X006415Y041805D01*
X006461Y041787D01*
X006506Y041765D01*
X006549Y041739D01*
X006590Y041710D01*
X006629Y041678D01*
X006665Y041643D01*
X006697Y041605D01*
X006727Y041565D01*
X006754Y041522D01*
X006777Y041478D01*
X006796Y041432D01*
X006812Y041384D01*
X006824Y041335D01*
X006832Y041286D01*
X006836Y041236D01*
X006836Y041186D01*
X006832Y041136D01*
X006824Y041087D01*
X006812Y041038D01*
X006796Y040990D01*
X006777Y040944D01*
X006754Y040900D01*
X006727Y040857D01*
X006697Y040817D01*
X006665Y040779D01*
X006629Y040744D01*
X006590Y040712D01*
X006549Y040683D01*
X006506Y040657D01*
X006461Y040635D01*
X006415Y040617D01*
X006367Y040602D01*
X006318Y040591D01*
X006269Y040584D01*
X006219Y040581D01*
X006168Y040582D01*
X006119Y040587D01*
X006069Y040596D01*
X006021Y040609D01*
X005974Y040625D01*
X005928Y040646D01*
X005884Y040670D01*
X005842Y040697D01*
X005802Y040727D01*
X005765Y040761D01*
X005731Y040798D01*
X005699Y040837D01*
X005671Y040878D01*
X005646Y040922D01*
X005625Y040967D01*
X005608Y041014D01*
X005594Y041062D01*
X005584Y041111D01*
X005578Y041161D01*
X005576Y041211D01*
X004631Y041211D02*
X004633Y041288D01*
X004639Y041365D01*
X004648Y041442D01*
X004661Y041518D01*
X004678Y041594D01*
X004699Y041668D01*
X004723Y041742D01*
X004751Y041814D01*
X004782Y041884D01*
X004817Y041953D01*
X004855Y042021D01*
X004896Y042086D01*
X004941Y042149D01*
X004989Y042210D01*
X005039Y042269D01*
X005092Y042325D01*
X005148Y042378D01*
X005207Y042428D01*
X005268Y042476D01*
X005331Y042521D01*
X005396Y042562D01*
X005464Y042600D01*
X005533Y042635D01*
X005603Y042666D01*
X005675Y042694D01*
X005749Y042718D01*
X005823Y042739D01*
X005899Y042756D01*
X005975Y042769D01*
X006052Y042778D01*
X006129Y042784D01*
X006206Y042786D01*
X042426Y042786D01*
X041796Y041211D02*
X041798Y041261D01*
X041804Y041311D01*
X041814Y041360D01*
X041828Y041408D01*
X041845Y041455D01*
X041866Y041500D01*
X041891Y041544D01*
X041919Y041585D01*
X041951Y041624D01*
X041985Y041661D01*
X042022Y041695D01*
X042062Y041725D01*
X042104Y041752D01*
X042148Y041776D01*
X042194Y041797D01*
X042241Y041813D01*
X042289Y041826D01*
X042339Y041835D01*
X042388Y041840D01*
X042439Y041841D01*
X042489Y041838D01*
X042538Y041831D01*
X042587Y041820D01*
X042635Y041805D01*
X042681Y041787D01*
X042726Y041765D01*
X042769Y041739D01*
X042810Y041710D01*
X042849Y041678D01*
X042885Y041643D01*
X042917Y041605D01*
X042947Y041565D01*
X042974Y041522D01*
X042997Y041478D01*
X043016Y041432D01*
X043032Y041384D01*
X043044Y041335D01*
X043052Y041286D01*
X043056Y041236D01*
X043056Y041186D01*
X043052Y041136D01*
X043044Y041087D01*
X043032Y041038D01*
X043016Y040990D01*
X042997Y040944D01*
X042974Y040900D01*
X042947Y040857D01*
X042917Y040817D01*
X042885Y040779D01*
X042849Y040744D01*
X042810Y040712D01*
X042769Y040683D01*
X042726Y040657D01*
X042681Y040635D01*
X042635Y040617D01*
X042587Y040602D01*
X042538Y040591D01*
X042489Y040584D01*
X042439Y040581D01*
X042388Y040582D01*
X042339Y040587D01*
X042289Y040596D01*
X042241Y040609D01*
X042194Y040625D01*
X042148Y040646D01*
X042104Y040670D01*
X042062Y040697D01*
X042022Y040727D01*
X041985Y040761D01*
X041951Y040798D01*
X041919Y040837D01*
X041891Y040878D01*
X041866Y040922D01*
X041845Y040967D01*
X041828Y041014D01*
X041814Y041062D01*
X041804Y041111D01*
X041798Y041161D01*
X041796Y041211D01*
X042426Y042786D02*
X042503Y042784D01*
X042580Y042778D01*
X042657Y042769D01*
X042733Y042756D01*
X042809Y042739D01*
X042883Y042718D01*
X042957Y042694D01*
X043029Y042666D01*
X043099Y042635D01*
X043168Y042600D01*
X043236Y042562D01*
X043301Y042521D01*
X043364Y042476D01*
X043425Y042428D01*
X043484Y042378D01*
X043540Y042325D01*
X043593Y042269D01*
X043643Y042210D01*
X043691Y042149D01*
X043736Y042086D01*
X043777Y042021D01*
X043815Y041953D01*
X043850Y041884D01*
X043881Y041814D01*
X043909Y041742D01*
X043933Y041668D01*
X043954Y041594D01*
X043971Y041518D01*
X043984Y041442D01*
X043993Y041365D01*
X043999Y041288D01*
X044001Y041211D01*
X044001Y004990D01*
X041796Y004990D02*
X041798Y005040D01*
X041804Y005090D01*
X041814Y005139D01*
X041828Y005187D01*
X041845Y005234D01*
X041866Y005279D01*
X041891Y005323D01*
X041919Y005364D01*
X041951Y005403D01*
X041985Y005440D01*
X042022Y005474D01*
X042062Y005504D01*
X042104Y005531D01*
X042148Y005555D01*
X042194Y005576D01*
X042241Y005592D01*
X042289Y005605D01*
X042339Y005614D01*
X042388Y005619D01*
X042439Y005620D01*
X042489Y005617D01*
X042538Y005610D01*
X042587Y005599D01*
X042635Y005584D01*
X042681Y005566D01*
X042726Y005544D01*
X042769Y005518D01*
X042810Y005489D01*
X042849Y005457D01*
X042885Y005422D01*
X042917Y005384D01*
X042947Y005344D01*
X042974Y005301D01*
X042997Y005257D01*
X043016Y005211D01*
X043032Y005163D01*
X043044Y005114D01*
X043052Y005065D01*
X043056Y005015D01*
X043056Y004965D01*
X043052Y004915D01*
X043044Y004866D01*
X043032Y004817D01*
X043016Y004769D01*
X042997Y004723D01*
X042974Y004679D01*
X042947Y004636D01*
X042917Y004596D01*
X042885Y004558D01*
X042849Y004523D01*
X042810Y004491D01*
X042769Y004462D01*
X042726Y004436D01*
X042681Y004414D01*
X042635Y004396D01*
X042587Y004381D01*
X042538Y004370D01*
X042489Y004363D01*
X042439Y004360D01*
X042388Y004361D01*
X042339Y004366D01*
X042289Y004375D01*
X042241Y004388D01*
X042194Y004404D01*
X042148Y004425D01*
X042104Y004449D01*
X042062Y004476D01*
X042022Y004506D01*
X041985Y004540D01*
X041951Y004577D01*
X041919Y004616D01*
X041891Y004657D01*
X041866Y004701D01*
X041845Y004746D01*
X041828Y004793D01*
X041814Y004841D01*
X041804Y004890D01*
X041798Y004940D01*
X041796Y004990D01*
X042426Y003415D02*
X042503Y003417D01*
X042580Y003423D01*
X042657Y003432D01*
X042733Y003445D01*
X042809Y003462D01*
X042883Y003483D01*
X042957Y003507D01*
X043029Y003535D01*
X043099Y003566D01*
X043168Y003601D01*
X043236Y003639D01*
X043301Y003680D01*
X043364Y003725D01*
X043425Y003773D01*
X043484Y003823D01*
X043540Y003876D01*
X043593Y003932D01*
X043643Y003991D01*
X043691Y004052D01*
X043736Y004115D01*
X043777Y004180D01*
X043815Y004248D01*
X043850Y004317D01*
X043881Y004387D01*
X043909Y004459D01*
X043933Y004533D01*
X043954Y004607D01*
X043971Y004683D01*
X043984Y004759D01*
X043993Y004836D01*
X043999Y004913D01*
X044001Y004990D01*
X042426Y003416D02*
X006206Y003416D01*
X005576Y004990D02*
X005578Y005040D01*
X005584Y005090D01*
X005594Y005139D01*
X005608Y005187D01*
X005625Y005234D01*
X005646Y005279D01*
X005671Y005323D01*
X005699Y005364D01*
X005731Y005403D01*
X005765Y005440D01*
X005802Y005474D01*
X005842Y005504D01*
X005884Y005531D01*
X005928Y005555D01*
X005974Y005576D01*
X006021Y005592D01*
X006069Y005605D01*
X006119Y005614D01*
X006168Y005619D01*
X006219Y005620D01*
X006269Y005617D01*
X006318Y005610D01*
X006367Y005599D01*
X006415Y005584D01*
X006461Y005566D01*
X006506Y005544D01*
X006549Y005518D01*
X006590Y005489D01*
X006629Y005457D01*
X006665Y005422D01*
X006697Y005384D01*
X006727Y005344D01*
X006754Y005301D01*
X006777Y005257D01*
X006796Y005211D01*
X006812Y005163D01*
X006824Y005114D01*
X006832Y005065D01*
X006836Y005015D01*
X006836Y004965D01*
X006832Y004915D01*
X006824Y004866D01*
X006812Y004817D01*
X006796Y004769D01*
X006777Y004723D01*
X006754Y004679D01*
X006727Y004636D01*
X006697Y004596D01*
X006665Y004558D01*
X006629Y004523D01*
X006590Y004491D01*
X006549Y004462D01*
X006506Y004436D01*
X006461Y004414D01*
X006415Y004396D01*
X006367Y004381D01*
X006318Y004370D01*
X006269Y004363D01*
X006219Y004360D01*
X006168Y004361D01*
X006119Y004366D01*
X006069Y004375D01*
X006021Y004388D01*
X005974Y004404D01*
X005928Y004425D01*
X005884Y004449D01*
X005842Y004476D01*
X005802Y004506D01*
X005765Y004540D01*
X005731Y004577D01*
X005699Y004616D01*
X005671Y004657D01*
X005646Y004701D01*
X005625Y004746D01*
X005608Y004793D01*
X005594Y004841D01*
X005584Y004890D01*
X005578Y004940D01*
X005576Y004990D01*
X004631Y004990D02*
X004633Y004913D01*
X004639Y004836D01*
X004648Y004759D01*
X004661Y004683D01*
X004678Y004607D01*
X004699Y004533D01*
X004723Y004459D01*
X004751Y004387D01*
X004782Y004317D01*
X004817Y004248D01*
X004855Y004180D01*
X004896Y004115D01*
X004941Y004052D01*
X004989Y003991D01*
X005039Y003932D01*
X005092Y003876D01*
X005148Y003823D01*
X005207Y003773D01*
X005268Y003725D01*
X005331Y003680D01*
X005396Y003639D01*
X005464Y003601D01*
X005533Y003566D01*
X005603Y003535D01*
X005675Y003507D01*
X005749Y003483D01*
X005823Y003462D01*
X005899Y003445D01*
X005975Y003432D01*
X006052Y003423D01*
X006129Y003417D01*
X006206Y003415D01*
D33*
X006206Y004990D03*
X042426Y004990D03*
X042426Y041211D03*
X006206Y041211D03*
D34*
X040191Y025476D03*
X040191Y022476D03*
D35*
X037096Y029351D02*
X036536Y029351D01*
X036536Y030351D02*
X037096Y030351D01*
X037096Y031351D02*
X036536Y031351D01*
D36*
X034566Y033351D03*
X035566Y034851D03*
X033816Y037351D03*
X031316Y034101D03*
X031316Y032351D03*
X030066Y031851D03*
X030316Y031101D03*
X030566Y030351D03*
X031566Y029226D03*
X033066Y031601D03*
X028566Y031851D03*
X028066Y032851D03*
X027316Y034601D03*
X028816Y027101D03*
X030316Y024601D03*
X025566Y024101D03*
X023816Y024851D03*
X025566Y022101D03*
X028066Y019101D03*
X030316Y018601D03*
X031316Y018601D03*
X032316Y019101D03*
X031316Y016851D03*
X030316Y016851D03*
X035591Y013868D03*
X033566Y011851D03*
X033816Y009226D03*
X036941Y018476D03*
X036941Y019101D03*
X035566Y022601D03*
X038441Y026101D03*
X041566Y030601D03*
X024316Y013351D03*
X022566Y015851D03*
X022566Y016601D03*
X021316Y016101D03*
X021316Y015351D03*
X021316Y014601D03*
X022066Y011101D03*
X021316Y009101D03*
X020566Y009351D03*
X012566Y013601D03*
X010066Y014351D03*
X006816Y011476D03*
X005566Y010601D03*
X005816Y008601D03*
X006816Y007976D03*
X011316Y017851D03*
X020066Y018601D03*
X011566Y027601D03*
X009316Y028601D03*
X006566Y029851D03*
M02*
