%
M48
M72
T01C0.0236
T02C0.0320
T03C0.0354
T04C0.0360
T05C0.0394
T06C0.0400
T07C0.0470
T08C0.0472
T09C0.0900
T10C0.1260
%
T01
X6566Y29851
X9316Y28601
X11566Y27601
X20066Y18601
X21316Y16101
X21316Y15351
X21316Y14601
X22566Y15851
X22566Y16601
X24316Y13351
X22066Y11101
X21316Y9101
X20566Y9351
X12566Y13601
X10066Y14351
X6816Y11476
X5566Y10601
X5816Y8601
X6816Y7976
X11316Y17851
X23816Y24851
X25566Y24101
X25566Y22101
X28066Y19101
X30316Y18601
X31316Y18601
X32316Y19101
X31316Y16851
X30316Y16851
X35591Y13868
X33566Y11851
X33816Y9226
X36941Y18476
X36941Y19101
X35566Y22601
X38441Y26101
X41566Y30601
X35566Y34851
X34566Y33351
X33066Y31601
X31316Y32351
X30066Y31851
X30316Y31101
X30566Y30351
X31566Y29226
X28816Y27101
X30316Y24601
X28566Y31851
X28066Y32851
X27316Y34601
X31316Y34101
X33816Y37351
T02
X14816Y26101
X15816Y26101
X16816Y26101
X17816Y26101
X18816Y26101
X19816Y26101
X20816Y26101
X21816Y26101
X22816Y26101
X23816Y26101
X24816Y26101
X25816Y26101
X26816Y26101
X27816Y26101
X28816Y26101
X29816Y26101
X30816Y26101
X31816Y26101
X32816Y26101
X33816Y26101
X33816Y20101
X32816Y20101
X31816Y20101
X30816Y20101
X29816Y20101
X28816Y20101
X27816Y20101
X26816Y20101
X25816Y20101
X24816Y20101
X23816Y20101
X22816Y20101
X21816Y20101
X20816Y20101
X19816Y20101
X18816Y20101
X17816Y20101
X16816Y20101
X15816Y20101
X14816Y20101
T03
X13816Y7601
X13816Y8601
X13816Y9601
X13816Y10601
X13816Y11601
X13816Y12601
X13816Y13601
X13816Y14601
X18816Y14601
X18816Y13601
X18816Y12601
X18816Y11601
X18816Y10601
X18816Y9601
X18816Y8601
X18816Y7601
X26816Y7601
X26816Y8601
X26816Y9601
X26816Y10601
X26816Y11601
X26816Y12601
X26816Y13601
X26816Y14601
X31816Y14601
X31816Y13601
X31816Y12601
X31816Y11601
X31816Y10601
X31816Y9601
X31816Y8601
X31816Y7601
X35316Y21226
X35316Y25226
X26316Y31101
X26316Y32101
X26316Y33101
X26316Y34101
X26316Y35101
X26316Y36101
X26316Y37101
X26316Y38101
X21316Y38101
X21316Y37101
X21316Y36101
X21316Y35101
X21316Y34101
X21316Y33101
X21316Y32101
X21316Y31101
X19816Y31101
X19816Y32101
X19816Y33101
X19816Y34101
X19816Y35101
X19816Y36101
X19816Y37101
X19816Y38101
X14816Y38101
X14816Y37101
X14816Y36101
X14816Y35101
X14816Y34101
X14816Y33101
X14816Y32101
X14816Y31101
X13316Y31101
X13316Y32101
X13316Y33101
X13316Y34101
X13316Y35101
X13316Y36101
X13316Y37101
X13316Y38101
X8316Y38101
X8316Y37101
X8316Y36101
X8316Y35101
X8316Y34101
X8316Y33101
X8316Y32101
X8316Y31101
T04
X36816Y31351
X36816Y30351
X36816Y29351
X40786Y35609
X41566Y35609
X41566Y36593
X40786Y36593
T05
X7691Y21351
X7691Y20351
X7691Y19351
X7691Y17851
X7691Y16851
X7691Y15851
X7691Y14351
X7691Y13351
X7691Y12351
T06
X9816Y10351
X10816Y10351
X11816Y10351
X12116Y20851
X11016Y20851
X11016Y21851
X11016Y22851
X11016Y23851
X11016Y24851
X12116Y24851
X12116Y23851
X12116Y22851
X12116Y21851
X23066Y10351
X24066Y10351
X25066Y10351
X37816Y10601
X38816Y10601
X39816Y10601
X40191Y18601
X41191Y18601
X41191Y19601
X40191Y19601
X39191Y19601
X39191Y18601
X40191Y22476
X40191Y25476
X40691Y28601
X41691Y28601
X39691Y28601
X30316Y36101
X29316Y36101
X28316Y36101
T07
X40191Y15835
X40191Y13866
X39800Y6101
X37831Y6101
T08
X7941Y5726
X9319Y5726
X10938Y5601
X12316Y5601
X14316Y5601
X15694Y5601
X17072Y5601
X18450Y5601
X20941Y5726
X22319Y5726
X23938Y5601
X25316Y5601
X27316Y5601
X28694Y5601
X30072Y5601
X31450Y5601
X34441Y5851
X35819Y5851
X6566Y12351
X6566Y13729
X6566Y15851
X6566Y17229
X6566Y19351
X6566Y20729
X8753Y40975
X10131Y40975
X11509Y40975
X12887Y40975
X15288Y40975
X16666Y40975
X18044Y40975
X19422Y40975
X21753Y40975
X23131Y40975
X24509Y40975
X25887Y40975
X28091Y40998
X29469Y40998
T09
X42636Y38471
X42636Y33731
T10
X6206Y4990
X42426Y4990
X42426Y41211
X6206Y41211
M30
