solid model
facet normal -0.499999999999999 -0.866025403784439 6.35312150826129e-032
outer loop
vertex -4.51803131014952 26.2679491924311 22.8
vertex -4.93224487252261 26.5857864376269 12.0
vertex -4.51803131014952 26.2679491924311 12.0
endloop
endfacet
facet normal -0.707106781186549 -0.707106781186546 -4.79875175398645e-019
outer loop
vertex -4.93224487252261 26.5857864376269 12.0
vertex -4.51803131014952 26.2679491924311 22.8
vertex -4.93224487252261 26.5857864376269 22.8
endloop
endfacet
facet normal -0.130526192220052 -0.99144486137381 0.0
outer loop
vertex -3.51803131014952 26.0 22.8
vertex -4.03566940035456 26.0681483474219 12.0
vertex -3.51803131014952 26.0 12.0
endloop
endfacet
facet normal -0.258819045102522 -0.965925826289068 6.35312150826129e-032
outer loop
vertex -4.03566940035456 26.0681483474219 12.0
vertex -3.51803131014952 26.0 22.8
vertex -4.03566940035456 26.0681483474219 22.8
endloop
endfacet
facet normal -1.0 0.0 0.0
outer loop
vertex -5.51803131014952 29.9 22.8
vertex -5.51803131014952 28.0 12.0
vertex -5.51803131014952 28.0 22.8
endloop
endfacet
facet normal -1.0 0.0 0.0
outer loop
vertex -5.51803131014952 28.0 12.0
vertex -5.51803131014952 29.9 22.8
vertex -5.51803131014952 29.9 12.0
endloop
endfacet
facet normal 1.48856394194996e-031 2.19926410320615e-031 -1.0
outer loop
vertex -18.4498829627276 50.017638090205 12.0
vertex -18.5180313101495 40.1 12.0
vertex -18.5180313101495 49.5 12.0
endloop
endfacet
facet normal 1.48856394194996e-031 2.19926410320615e-031 -1.0
outer loop
vertex -18.5180313101495 40.1 12.0
vertex -18.4498829627276 50.017638090205 12.0
vertex -18.4498829627276 39.582361909795 12.0
endloop
endfacet
facet normal 1.48856394194996e-031 2.19926410320615e-031 -1.0
outer loop
vertex -18.4498829627276 39.582361909795 12.0
vertex -18.4498829627276 50.017638090205 12.0
vertex -18.2500821177184 50.5 12.0
endloop
endfacet
facet normal 1.48856394194996e-031 2.19926410320615e-031 -1.0
outer loop
vertex -18.4498829627276 39.582361909795 12.0
vertex -18.2500821177184 50.5 12.0
vertex -18.2500821177184 39.1 12.0
endloop
endfacet
facet normal 1.48856394194996e-031 2.19926410320615e-031 -1.0
outer loop
vertex -18.2500821177184 39.1 12.0
vertex -18.2500821177184 50.5 12.0
vertex -17.9322448725226 50.9142135623731 12.0
endloop
endfacet
facet normal 1.48856394194996e-031 2.19926410320615e-031 -1.0
outer loop
vertex -18.2500821177184 39.1 12.0
vertex -17.9322448725226 50.9142135623731 12.0
vertex -17.9322448725226 38.6857864376269 12.0
endloop
endfacet
facet normal 1.48856394194996e-031 2.19926410320615e-031 -1.0
outer loop
vertex -17.9322448725226 38.6857864376269 12.0
vertex -17.9322448725226 50.9142135623731 12.0
vertex -17.5180313101495 51.2320508075689 12.0
endloop
endfacet
facet normal 1.48856394194996e-031 2.19926410320615e-031 -1.0
outer loop
vertex -17.9322448725226 38.6857864376269 12.0
vertex -17.5180313101495 51.2320508075689 12.0
vertex -17.5180313101495 38.3679491924311 12.0
endloop
endfacet
facet normal 1.48856394194996e-031 2.19926410320615e-031 -1.0
outer loop
vertex -17.5180313101495 38.3679491924311 12.0
vertex -17.5180313101495 51.2320508075689 12.0
vertex -17.0356694003546 51.4318516525781 12.0
endloop
endfacet
facet normal 1.48856394194996e-031 2.19926410320615e-031 -1.0
outer loop
vertex -17.5180313101495 38.3679491924311 12.0
vertex -17.0356694003546 51.4318516525781 12.0
vertex -17.0356694003546 38.1681483474219 12.0
endloop
endfacet
facet normal 1.48856394194996e-031 2.19926410320615e-031 -1.0
outer loop
vertex -17.0356694003546 38.1681483474219 12.0
vertex -17.0356694003546 51.4318516525781 12.0
vertex -16.5180313101495 38.1 12.0
endloop
endfacet
facet normal 1.48856394194996e-031 2.19926410320615e-031 -1.0
outer loop
vertex -16.5180313101495 38.1 12.0
vertex -17.0356694003546 51.4318516525781 12.0
vertex -16.5180313101495 51.5 12.0
endloop
endfacet
facet normal 1.48856394194996e-031 2.19926410320615e-031 -1.0
outer loop
vertex -16.5180313101495 38.1 12.0
vertex -16.5180313101495 51.5 12.0
vertex -14.5180313101495 47.3 12.0
endloop
endfacet
facet normal 1.48856394194996e-031 2.19926410320615e-031 -1.0
outer loop
vertex -14.5180313101495 47.3 12.0
vertex -16.5180313101495 51.5 12.0
vertex 5.48196868985049 51.5 12.0
endloop
endfacet
facet normal 1.48856394194996e-031 2.19926410320615e-031 -1.0
outer loop
vertex -16.5180313101495 38.1 12.0
vertex -14.5180313101495 47.3 12.0
vertex -15.5180313101495 38.1 12.0
endloop
endfacet
facet normal 1.48856394194996e-031 2.19926410320615e-031 -1.0
outer loop
vertex -14.5180313101495 47.3 12.0
vertex 5.48196868985049 51.5 12.0
vertex 3.52458770728815 47.3 12.0
endloop
endfacet
facet normal 1.48856394194996e-031 2.19926410320615e-031 -1.0
outer loop
vertex 3.52458770728815 47.3 12.0
vertex 5.48196868985049 51.5 12.0
vertex 3.52458770728815 43.2 12.0
endloop
endfacet
facet normal 1.48856394194996e-031 2.19926410320615e-031 -1.0
outer loop
vertex 3.52458770728815 43.2 12.0
vertex 5.48196868985049 51.5 12.0
vertex 3.5507041555162 36.05 12.0
endloop
endfacet
facet normal 1.48856394194996e-031 2.19926410320615e-031 -1.0
outer loop
vertex 3.5507041555162 36.05 12.0
vertex 5.48196868985049 51.5 12.0
vertex 3.96029588778518 35.0611580849203 12.0
endloop
endfacet
facet normal 1.48856394194996e-031 2.19926410320615e-031 -1.0
outer loop
vertex 3.96029588778518 35.0611580849203 12.0
vertex 5.48196868985049 51.5 12.0
vertex 4.1 34.0 12.0
endloop
endfacet
facet normal 1.48856394194996e-031 2.19926410320615e-031 -1.0
outer loop
vertex 7.48196868985049 49.5 12.0
vertex 7.48196868985049 42.0 12.0
vertex 7.41382034242863 50.017638090205 12.0
endloop
endfacet
facet normal 1.48856394194996e-031 2.19926410320615e-031 -1.0
outer loop
vertex 17.0 42.0 12.0
vertex 16.3 34.0 12.0
vertex 7.48196868985049 42.0 12.0
endloop
endfacet
facet normal 1.48856394194996e-031 2.19926410320615e-031 -1.0
outer loop
vertex 16.3 34.0 12.0
vertex 17.0 42.0 12.0
vertex 16.3613335126797 34.4658742811845 12.0
endloop
endfacet
facet normal 1.48856394194996e-031 2.19926410320615e-031 -1.0
outer loop
vertex 16.3613335126797 34.4658742811845 12.0
vertex 17.0 42.0 12.0
vertex 16.541154273188 34.9 12.0
endloop
endfacet
facet normal 1.48856394194996e-031 2.19926410320615e-031 -1.0
outer loop
vertex 16.541154273188 34.9 12.0
vertex 17.0 42.0 12.0
vertex 16.8272077938642 35.2727922061358 12.0
endloop
endfacet
facet normal 1.48856394194996e-031 2.19926410320615e-031 -1.0
outer loop
vertex 16.8272077938642 35.2727922061358 12.0
vertex 17.0 42.0 12.0
vertex 17.2 35.558845726812 12.0
endloop
endfacet
facet normal 1.48856394194996e-031 2.19926410320615e-031 -1.0
outer loop
vertex 17.2 35.558845726812 12.0
vertex 17.0 42.0 12.0
vertex 19.0705523608202 41.7274066103125 12.0
endloop
endfacet
facet normal 1.48856394194996e-031 2.19926410320615e-031 -1.0
outer loop
vertex 17.2 35.558845726812 12.0
vertex 19.0705523608202 41.7274066103125 12.0
vertex 17.6341257188155 35.7386664873203 12.0
endloop
endfacet
facet normal 1.48856394194996e-031 2.19926410320615e-031 -1.0
outer loop
vertex 17.6341257188155 35.7386664873203 12.0
vertex 19.0705523608202 41.7274066103125 12.0
vertex 18.1 35.8 12.0
endloop
endfacet
facet normal 1.48856394194996e-031 2.19926410320615e-031 -1.0
outer loop
vertex 18.1 35.8 12.0
vertex 19.0705523608202 41.7274066103125 12.0
vertex 18.5658742811845 35.7386664873203 12.0
endloop
endfacet
facet normal 1.48856394194996e-031 2.19926410320615e-031 -1.0
outer loop
vertex 18.5658742811845 35.7386664873203 12.0
vertex 19.0705523608202 41.7274066103125 12.0
vertex 19.0 35.558845726812 12.0
endloop
endfacet
facet normal 1.48856394194996e-031 2.19926410320615e-031 -1.0
outer loop
vertex 19.0 35.558845726812 12.0
vertex 19.0705523608202 41.7274066103125 12.0
vertex 19.3727922061358 35.2727922061358 12.0
endloop
endfacet
facet normal 1.48856394194996e-031 2.19926410320615e-031 -1.0
outer loop
vertex 19.3727922061358 35.2727922061358 12.0
vertex 19.0705523608202 41.7274066103125 12.0
vertex 21.0 40.9282032302755 12.0
endloop
endfacet
facet normal 1.48856394194996e-031 2.19926410320615e-031 -1.0
outer loop
vertex 19.3727922061358 35.2727922061358 12.0
vertex 21.0 40.9282032302755 12.0
vertex 19.658845726812 34.9 12.0
endloop
endfacet
facet normal 1.48856394194996e-031 2.19926410320615e-031 -1.0
outer loop
vertex 19.658845726812 34.9 12.0
vertex 21.0 40.9282032302755 12.0
vertex 19.8386664873203 34.4658742811845 12.0
endloop
endfacet
facet normal 1.48856394194996e-031 2.19926410320615e-031 -1.0
outer loop
vertex 19.8386664873203 34.4658742811845 12.0
vertex 21.0 40.9282032302755 12.0
vertex 19.9 34.0 12.0
endloop
endfacet
facet normal 1.48856394194996e-031 2.19926410320615e-031 -1.0
outer loop
vertex -4.1 29.9 12.0
vertex -5.51803131014952 28.0 12.0
vertex -5.51803131014952 29.9 12.0
endloop
endfacet
facet normal 1.48856394194996e-031 2.19926410320615e-031 -1.0
outer loop
vertex -5.51803131014952 28.0 12.0
vertex -4.1 29.9 12.0
vertex -5.44988296272765 27.482361909795 12.0
endloop
endfacet
facet normal 1.48856394194996e-031 2.19926410320615e-031 -1.0
outer loop
vertex -5.44988296272765 27.482361909795 12.0
vertex -4.1 29.9 12.0
vertex -5.25008211771839 27.0 12.0
endloop
endfacet
facet normal 1.48856394194996e-031 2.19926410320615e-031 -1.0
outer loop
vertex -5.25008211771839 27.0 12.0
vertex -4.1 29.9 12.0
vertex -4.93224487252261 26.5857864376269 12.0
endloop
endfacet
facet normal 1.48856394194996e-031 2.19926410320615e-031 -1.0
outer loop
vertex -4.93224487252261 26.5857864376269 12.0
vertex -4.1 29.9 12.0
vertex -4.51803131014952 26.2679491924311 12.0
endloop
endfacet
facet normal 1.48856394194996e-031 2.19926410320615e-031 -1.0
outer loop
vertex -4.51803131014952 26.2679491924311 12.0
vertex -4.1 29.9 12.0
vertex -4.03566940035456 26.0681483474219 12.0
endloop
endfacet
facet normal 1.48856394194996e-031 2.19926410320615e-031 -1.0
outer loop
vertex -4.03566940035456 26.0681483474219 12.0
vertex -4.1 29.9 12.0
vertex -2.8199664825479e-015 29.9 12.0
endloop
endfacet
facet normal 1.48856394194996e-031 2.19926410320615e-031 -1.0
outer loop
vertex -4.03566940035456 26.0681483474219 12.0
vertex -2.8199664825479e-015 29.9 12.0
vertex -3.51803131014952 26.0 12.0
endloop
endfacet
facet normal 1.48856394194996e-031 2.19926410320615e-031 -1.0
outer loop
vertex -3.51803131014952 26.0 12.0
vertex -2.8199664825479e-015 29.9 12.0
vertex 17.0 26.0 12.0
endloop
endfacet
facet normal 1.48856394194996e-031 2.19926410320615e-031 -1.0
outer loop
vertex 17.0 26.0 12.0
vertex -2.8199664825479e-015 29.9 12.0
vertex 1.06115808492033 30.0397041122148 12.0
endloop
endfacet
facet normal 1.48856394194996e-031 2.19926410320615e-031 -1.0
outer loop
vertex 17.0 26.0 12.0
vertex 1.06115808492033 30.0397041122148 12.0
vertex 2.05 30.4492958444838 12.0
endloop
endfacet
facet normal 1.48856394194996e-031 2.19926410320615e-031 -1.0
outer loop
vertex 17.0 26.0 12.0
vertex 2.05 30.4492958444838 12.0
vertex 2.89913780286484 31.1008621971352 12.0
endloop
endfacet
facet normal 1.48856394194996e-031 2.19926410320615e-031 -1.0
outer loop
vertex 17.0 26.0 12.0
vertex 2.89913780286484 31.1008621971352 12.0
vertex 3.5507041555162 31.95 12.0
endloop
endfacet
facet normal 1.48856394194996e-031 2.19926410320615e-031 -1.0
outer loop
vertex 17.0 26.0 12.0
vertex 3.5507041555162 31.95 12.0
vertex 3.96029588778518 32.9388419150797 12.0
endloop
endfacet
facet normal 1.48856394194996e-031 2.19926410320615e-031 -1.0
outer loop
vertex 17.0 26.0 12.0
vertex 3.96029588778518 32.9388419150797 12.0
vertex 4.1 34.0 12.0
endloop
endfacet
facet normal 1.48856394194996e-031 2.19926410320615e-031 -1.0
outer loop
vertex 17.0 26.0 12.0
vertex 4.1 34.0 12.0
vertex 7.48196868985049 42.0 12.0
endloop
endfacet
facet normal 1.48856394194996e-031 2.19926410320615e-031 -1.0
outer loop
vertex 7.48196868985049 42.0 12.0
vertex 4.1 34.0 12.0
vertex 5.48196868985049 51.5 12.0
endloop
endfacet
facet normal 1.48856394194996e-031 2.19926410320615e-031 -1.0
outer loop
vertex 7.48196868985049 42.0 12.0
vertex 5.48196868985049 51.5 12.0
vertex 5.99960678005553 51.4318516525781 12.0
endloop
endfacet
facet normal 1.48856394194996e-031 2.19926410320615e-031 -1.0
outer loop
vertex 7.48196868985049 42.0 12.0
vertex 5.99960678005553 51.4318516525781 12.0
vertex 6.48196868985049 51.2320508075689 12.0
endloop
endfacet
facet normal 1.48856394194996e-031 2.19926410320615e-031 -1.0
outer loop
vertex 7.48196868985049 42.0 12.0
vertex 6.48196868985049 51.2320508075689 12.0
vertex 6.89618225222358 50.9142135623731 12.0
endloop
endfacet
facet normal 1.48856394194996e-031 2.19926410320615e-031 -1.0
outer loop
vertex 7.48196868985049 42.0 12.0
vertex 6.89618225222358 50.9142135623731 12.0
vertex 7.21401949741936 50.5 12.0
endloop
endfacet
facet normal 1.48856394194996e-031 2.19926410320615e-031 -1.0
outer loop
vertex 7.48196868985049 42.0 12.0
vertex 7.21401949741936 50.5 12.0
vertex 7.41382034242863 50.017638090205 12.0
endloop
endfacet
facet normal 1.48856394194996e-031 2.19926410320615e-031 -1.0
outer loop
vertex 17.0 26.0 12.0
vertex 7.48196868985049 42.0 12.0
vertex 16.3 34.0 12.0
endloop
endfacet
facet normal 1.48856394194996e-031 2.19926410320615e-031 -1.0
outer loop
vertex 17.0 26.0 12.0
vertex 16.3 34.0 12.0
vertex 16.3613335126797 33.5341257188155 12.0
endloop
endfacet
facet normal 1.48856394194996e-031 2.19926410320615e-031 -1.0
outer loop
vertex 17.0 26.0 12.0
vertex 16.3613335126797 33.5341257188155 12.0
vertex 16.541154273188 33.1 12.0
endloop
endfacet
facet normal 1.48856394194996e-031 2.19926410320615e-031 -1.0
outer loop
vertex 17.0 26.0 12.0
vertex 16.541154273188 33.1 12.0
vertex 16.8272077938642 32.7272077938642 12.0
endloop
endfacet
facet normal 1.48856394194996e-031 2.19926410320615e-031 -1.0
outer loop
vertex 17.0 26.0 12.0
vertex 16.8272077938642 32.7272077938642 12.0
vertex 17.2 32.441154273188 12.0
endloop
endfacet
facet normal 1.48856394194996e-031 2.19926410320615e-031 -1.0
outer loop
vertex 17.0 26.0 12.0
vertex 17.2 32.441154273188 12.0
vertex 19.0705523608202 26.2725933896875 12.0
endloop
endfacet
facet normal 1.48856394194996e-031 2.19926410320615e-031 -1.0
outer loop
vertex 19.0705523608202 26.2725933896875 12.0
vertex 17.2 32.441154273188 12.0
vertex 17.6341257188155 32.2613335126797 12.0
endloop
endfacet
facet normal 1.48856394194996e-031 2.19926410320615e-031 -1.0
outer loop
vertex 19.0705523608202 26.2725933896875 12.0
vertex 17.6341257188155 32.2613335126797 12.0
vertex 18.1 32.2 12.0
endloop
endfacet
facet normal 1.48856394194996e-031 2.19926410320615e-031 -1.0
outer loop
vertex 19.0705523608202 26.2725933896875 12.0
vertex 18.1 32.2 12.0
vertex 18.5658742811845 32.2613335126797 12.0
endloop
endfacet
facet normal 1.48856394194996e-031 2.19926410320615e-031 -1.0
outer loop
vertex 19.0705523608202 26.2725933896875 12.0
vertex 18.5658742811845 32.2613335126797 12.0
vertex 19.0 32.441154273188 12.0
endloop
endfacet
facet normal 1.48856394194996e-031 2.19926410320615e-031 -1.0
outer loop
vertex 19.0705523608202 26.2725933896875 12.0
vertex 19.0 32.441154273188 12.0
vertex 19.3727922061358 32.7272077938642 12.0
endloop
endfacet
facet normal 1.48856394194996e-031 2.19926410320615e-031 -1.0
outer loop
vertex 19.0705523608202 26.2725933896875 12.0
vertex 19.3727922061358 32.7272077938642 12.0
vertex 21.0 27.0717967697245 12.0
endloop
endfacet
facet normal 1.48856394194996e-031 2.19926410320615e-031 -1.0
outer loop
vertex 21.0 27.0717967697245 12.0
vertex 19.3727922061358 32.7272077938642 12.0
vertex 19.658845726812 33.1 12.0
endloop
endfacet
facet normal 1.48856394194996e-031 2.19926410320615e-031 -1.0
outer loop
vertex 21.0 27.0717967697245 12.0
vertex 19.658845726812 33.1 12.0
vertex 19.8386664873203 33.5341257188155 12.0
endloop
endfacet
facet normal 1.48856394194996e-031 2.19926410320615e-031 -1.0
outer loop
vertex 21.0 27.0717967697245 12.0
vertex 19.8386664873203 33.5341257188155 12.0
vertex 19.9 34.0 12.0
endloop
endfacet
facet normal 1.48856394194996e-031 2.19926410320615e-031 -1.0
outer loop
vertex 21.0 27.0717967697245 12.0
vertex 19.9 34.0 12.0
vertex 21.0 40.9282032302755 12.0
endloop
endfacet
facet normal 1.48856394194996e-031 2.19926410320615e-031 -1.0
outer loop
vertex 21.0 27.0717967697245 12.0
vertex 21.0 40.9282032302755 12.0
vertex 22.6568542494924 39.6568542494924 12.0
endloop
endfacet
facet normal 1.48856394194996e-031 2.19926410320615e-031 -1.0
outer loop
vertex 21.0 27.0717967697245 12.0
vertex 22.6568542494924 39.6568542494924 12.0
vertex 22.6568542494924 28.3431457505076 12.0
endloop
endfacet
facet normal 1.48856394194996e-031 2.19926410320615e-031 -1.0
outer loop
vertex 22.6568542494924 28.3431457505076 12.0
vertex 22.6568542494924 39.6568542494924 12.0
vertex 23.9282032302755 38.0 12.0
endloop
endfacet
facet normal 1.48856394194996e-031 2.19926410320615e-031 -1.0
outer loop
vertex 22.6568542494924 28.3431457505076 12.0
vertex 23.9282032302755 38.0 12.0
vertex 23.9282032302755 30.0 12.0
endloop
endfacet
facet normal 1.48856394194996e-031 2.19926410320615e-031 -1.0
outer loop
vertex 23.9282032302755 30.0 12.0
vertex 23.9282032302755 38.0 12.0
vertex 24.7274066103125 36.0705523608202 12.0
endloop
endfacet
facet normal 1.48856394194996e-031 2.19926410320615e-031 -1.0
outer loop
vertex 23.9282032302755 30.0 12.0
vertex 24.7274066103125 36.0705523608202 12.0
vertex 24.7274066103125 31.9294476391798 12.0
endloop
endfacet
facet normal 1.48856394194996e-031 2.19926410320615e-031 -1.0
outer loop
vertex 24.7274066103125 31.9294476391798 12.0
vertex 24.7274066103125 36.0705523608202 12.0
vertex 25.0 34.0 12.0
endloop
endfacet
facet normal 1.48856394194996e-031 2.19926410320615e-031 -1.0
outer loop
vertex -15.5180313101495 38.1 12.0
vertex -14.5180313101495 43.2 12.0
vertex -4.1 38.1 12.0
endloop
endfacet
facet normal 1.48856394194996e-031 2.19926410320615e-031 -1.0
outer loop
vertex -14.5180313101495 43.2 12.0
vertex -15.5180313101495 38.1 12.0
vertex -14.5180313101495 47.3 12.0
endloop
endfacet
facet normal 1.48856394194996e-031 2.19926410320615e-031 -1.0
outer loop
vertex -4.1 38.1 12.0
vertex -14.5180313101495 43.2 12.0
vertex 3.52458770728815 43.2 12.0
endloop
endfacet
facet normal 1.48856394194996e-031 2.19926410320615e-031 -1.0
outer loop
vertex -4.1 38.1 12.0
vertex 3.52458770728815 43.2 12.0
vertex -1.40998324127395e-015 38.1 12.0
endloop
endfacet
facet normal 1.48856394194996e-031 2.19926410320615e-031 -1.0
outer loop
vertex -1.40998324127395e-015 38.1 12.0
vertex 3.52458770728815 43.2 12.0
vertex 1.06115808492033 37.9602958877852 12.0
endloop
endfacet
facet normal 1.48856394194996e-031 2.19926410320615e-031 -1.0
outer loop
vertex 1.06115808492033 37.9602958877852 12.0
vertex 3.52458770728815 43.2 12.0
vertex 2.05 37.5507041555162 12.0
endloop
endfacet
facet normal 1.48856394194996e-031 2.19926410320615e-031 -1.0
outer loop
vertex 2.05 37.5507041555162 12.0
vertex 3.52458770728815 43.2 12.0
vertex 2.89913780286484 36.8991378028648 12.0
endloop
endfacet
facet normal 1.48856394194996e-031 2.19926410320615e-031 -1.0
outer loop
vertex 2.89913780286484 36.8991378028648 12.0
vertex 3.52458770728815 43.2 12.0
vertex 3.5507041555162 36.05 12.0
endloop
endfacet
facet normal -1.58922968628789e-017 2.02244780629714e-016 1.0
outer loop
vertex -5.44988296272765 27.482361909795 22.8
vertex -5.51803131014952 29.9 22.8
vertex -5.51803131014952 28.0 22.8
endloop
endfacet
facet normal -1.58922968628789e-017 2.02244780629714e-016 1.0
outer loop
vertex -5.51803131014952 29.9 22.8
vertex -5.44988296272765 27.482361909795 22.8
vertex -4.1 29.9 22.8
endloop
endfacet
facet normal -1.58922968628789e-017 2.02244780629714e-016 1.0
outer loop
vertex -4.1 29.9 22.8
vertex -5.44988296272765 27.482361909795 22.8
vertex -5.25008211771839 27.0 22.8
endloop
endfacet
facet normal -1.58922968628789e-017 2.02244780629714e-016 1.0
outer loop
vertex -4.1 29.9 22.8
vertex -5.25008211771839 27.0 22.8
vertex -4.93224487252261 26.5857864376269 22.8
endloop
endfacet
facet normal -1.58922968628789e-017 2.02244780629714e-016 1.0
outer loop
vertex -4.1 29.9 22.8
vertex -4.93224487252261 26.5857864376269 22.8
vertex -4.51803131014952 26.2679491924311 22.8
endloop
endfacet
facet normal -1.58922968628789e-017 2.02244780629714e-016 1.0
outer loop
vertex -4.1 29.9 22.8
vertex -4.51803131014952 26.2679491924311 22.8
vertex -4.03566940035456 26.0681483474219 22.8
endloop
endfacet
facet normal -1.58922968628789e-017 2.02244780629714e-016 1.0
outer loop
vertex -4.1 29.9 22.8
vertex -4.03566940035456 26.0681483474219 22.8
vertex -2.90450081900868e-015 29.9 22.8
endloop
endfacet
facet normal -1.58922968628789e-017 2.02244780629714e-016 1.0
outer loop
vertex -2.90450081900868e-015 29.9 22.8
vertex -4.03566940035456 26.0681483474219 22.8
vertex -3.51803131014952 26.0 22.8
endloop
endfacet
facet normal -1.58922968628789e-017 2.02244780629714e-016 1.0
outer loop
vertex -2.90450081900868e-015 29.9 22.8
vertex -3.51803131014952 26.0 22.8
vertex 5.48196868985048 26.0 22.8
endloop
endfacet
facet normal -1.58922968628789e-017 2.02244780629714e-016 1.0
outer loop
vertex -2.90450081900868e-015 29.9 22.8
vertex 5.48196868985048 26.0 22.8
vertex 1.06115808492033 30.0397041122148 22.8
endloop
endfacet
facet normal -1.58922968628789e-017 2.02244780629714e-016 1.0
outer loop
vertex 1.06115808492033 30.0397041122148 22.8
vertex 5.48196868985048 26.0 22.8
vertex 2.05 30.4492958444838 22.8
endloop
endfacet
facet normal -1.58922968628789e-017 2.02244780629714e-016 1.0
outer loop
vertex 2.05 30.4492958444838 22.8
vertex 5.48196868985048 26.0 22.8
vertex 2.89913780286484 31.1008621971352 22.8
endloop
endfacet
facet normal -1.58922968628789e-017 2.02244780629714e-016 1.0
outer loop
vertex 2.89913780286484 31.1008621971352 22.8
vertex 5.48196868985048 26.0 22.8
vertex 3.5507041555162 31.95 22.8
endloop
endfacet
facet normal -1.58922968628789e-017 2.02244780629714e-016 1.0
outer loop
vertex 3.5507041555162 31.95 22.8
vertex 5.48196868985048 26.0 22.8
vertex 3.96029588778518 32.9388419150797 22.8
endloop
endfacet
facet normal -1.58922968628789e-017 2.02244780629714e-016 1.0
outer loop
vertex 3.96029588778518 32.9388419150797 22.8
vertex 5.48196868985048 26.0 22.8
vertex 4.1 34.0 22.8
endloop
endfacet
facet normal -1.58922968628789e-017 2.02244780629714e-016 1.0
outer loop
vertex 4.1 34.0 22.8
vertex 5.48196868985048 26.0 22.8
vertex 4.53427700754693 42.0 22.8
endloop
endfacet
facet normal -1.58922968628789e-017 2.02244780629714e-016 1.0
outer loop
vertex -15.5180313101495 48.5 22.8
vertex 5.48196868985049 51.5 22.8
vertex -16.5180313101495 51.5 22.8
endloop
endfacet
facet normal -1.58922968628789e-017 2.02244780629714e-016 1.0
outer loop
vertex 5.48196868985049 51.5 22.8
vertex -15.5180313101495 48.5 22.8
vertex 4.48196868985049 48.5 22.8
endloop
endfacet
facet normal -1.58922968628789e-017 2.02244780629714e-016 1.0
outer loop
vertex 5.48196868985049 51.5 22.8
vertex 4.48196868985049 48.5 22.8
vertex 4.53427700754693 42.0 22.8
endloop
endfacet
facet normal -1.58922968628789e-017 2.02244780629714e-016 1.0
outer loop
vertex 5.48196868985049 51.5 22.8
vertex 4.53427700754693 42.0 22.8
vertex 5.48196868985048 26.0 22.8
endloop
endfacet
facet normal -1.58922968628789e-017 2.02244780629714e-016 1.0
outer loop
vertex 5.48196868985049 51.5 22.8
vertex 5.48196868985048 26.0 22.8
vertex 5.99960678005552 26.0681483474219 22.8
endloop
endfacet
facet normal -1.58922968628789e-017 2.02244780629714e-016 1.0
outer loop
vertex 5.48196868985049 51.5 22.8
vertex 5.99960678005552 26.0681483474219 22.8
vertex 5.99960678005553 51.4318516525781 22.8
endloop
endfacet
facet normal -1.58922968628789e-017 2.02244780629714e-016 1.0
outer loop
vertex 5.99960678005553 51.4318516525781 22.8
vertex 5.99960678005552 26.0681483474219 22.8
vertex 6.48196868985048 26.2679491924311 22.8
endloop
endfacet
facet normal -1.58922968628789e-017 2.02244780629714e-016 1.0
outer loop
vertex 5.99960678005553 51.4318516525781 22.8
vertex 6.48196868985048 26.2679491924311 22.8
vertex 6.48196868985049 51.2320508075689 22.8
endloop
endfacet
facet normal -1.58922968628789e-017 2.02244780629714e-016 1.0
outer loop
vertex 6.48196868985049 51.2320508075689 22.8
vertex 6.48196868985048 26.2679491924311 22.8
vertex 6.89618225222358 26.5857864376269 22.8
endloop
endfacet
facet normal -1.58922968628789e-017 2.02244780629714e-016 1.0
outer loop
vertex 6.48196868985049 51.2320508075689 22.8
vertex 6.89618225222358 26.5857864376269 22.8
vertex 6.89618225222358 50.9142135623731 22.8
endloop
endfacet
facet normal -1.58922968628789e-017 2.02244780629714e-016 1.0
outer loop
vertex 6.89618225222358 50.9142135623731 22.8
vertex 6.89618225222358 26.5857864376269 22.8
vertex 7.21401949741936 27.0 22.8
endloop
endfacet
facet normal -1.58922968628789e-017 2.02244780629714e-016 1.0
outer loop
vertex 6.89618225222358 50.9142135623731 22.8
vertex 7.21401949741936 27.0 22.8
vertex 7.21401949741936 50.5 22.8
endloop
endfacet
facet normal -1.58922968628789e-017 2.02244780629714e-016 1.0
outer loop
vertex 7.21401949741936 50.5 22.8
vertex 7.21401949741936 27.0 22.8
vertex 7.41382034242862 27.482361909795 22.8
endloop
endfacet
facet normal -1.58922968628789e-017 2.02244780629714e-016 1.0
outer loop
vertex 7.21401949741936 50.5 22.8
vertex 7.41382034242862 27.482361909795 22.8
vertex 7.41382034242863 50.017638090205 22.8
endloop
endfacet
facet normal -1.58922968628789e-017 2.02244780629714e-016 1.0
outer loop
vertex 7.41382034242863 50.017638090205 22.8
vertex 7.41382034242862 27.482361909795 22.8
vertex 7.48196868985048 28.0 22.8
endloop
endfacet
facet normal -1.58922968628789e-017 2.02244780629714e-016 1.0
outer loop
vertex 7.41382034242863 50.017638090205 22.8
vertex 7.48196868985048 28.0 22.8
vertex 7.48196868985049 49.5 22.8
endloop
endfacet
facet normal -1.58922968628789e-017 2.02244780629714e-016 1.0
outer loop
vertex 7.48196868985049 49.5 22.8
vertex 7.48196868985048 28.0 22.8
vertex 7.48196868985049 42.0 22.8
endloop
endfacet
facet normal -1.58922968628789e-017 2.02244780629714e-016 1.0
outer loop
vertex -18.4498829627276 39.582361909795 22.8
vertex -18.5180313101495 49.5 22.8
vertex -18.5180313101495 40.1 22.8
endloop
endfacet
facet normal -1.58922968628789e-017 2.02244780629714e-016 1.0
outer loop
vertex -18.5180313101495 49.5 22.8
vertex -18.4498829627276 39.582361909795 22.8
vertex -18.4498829627276 50.017638090205 22.8
endloop
endfacet
facet normal -1.58922968628789e-017 2.02244780629714e-016 1.0
outer loop
vertex -18.4498829627276 50.017638090205 22.8
vertex -18.4498829627276 39.582361909795 22.8
vertex -18.2500821177184 39.1 22.8
endloop
endfacet
facet normal -1.58922968628789e-017 2.02244780629714e-016 1.0
outer loop
vertex -18.4498829627276 50.017638090205 22.8
vertex -18.2500821177184 39.1 22.8
vertex -18.2500821177184 50.5 22.8
endloop
endfacet
facet normal -1.58922968628789e-017 2.02244780629714e-016 1.0
outer loop
vertex -18.2500821177184 50.5 22.8
vertex -18.2500821177184 39.1 22.8
vertex -17.9322448725226 38.6857864376269 22.8
endloop
endfacet
facet normal -1.58922968628789e-017 2.02244780629714e-016 1.0
outer loop
vertex -18.2500821177184 50.5 22.8
vertex -17.9322448725226 38.6857864376269 22.8
vertex -17.9322448725226 50.9142135623731 22.8
endloop
endfacet
facet normal -1.58922968628789e-017 2.02244780629714e-016 1.0
outer loop
vertex -17.9322448725226 50.9142135623731 22.8
vertex -17.9322448725226 38.6857864376269 22.8
vertex -17.5180313101495 38.3679491924311 22.8
endloop
endfacet
facet normal -1.58922968628789e-017 2.02244780629714e-016 1.0
outer loop
vertex -17.9322448725226 50.9142135623731 22.8
vertex -17.5180313101495 38.3679491924311 22.8
vertex -17.5180313101495 51.2320508075689 22.8
endloop
endfacet
facet normal -1.58922968628789e-017 2.02244780629714e-016 1.0
outer loop
vertex -17.5180313101495 51.2320508075689 22.8
vertex -17.5180313101495 38.3679491924311 22.8
vertex -17.0356694003546 38.1681483474219 22.8
endloop
endfacet
facet normal -1.58922968628789e-017 2.02244780629714e-016 1.0
outer loop
vertex -17.5180313101495 51.2320508075689 22.8
vertex -17.0356694003546 38.1681483474219 22.8
vertex -17.0356694003546 51.4318516525781 22.8
endloop
endfacet
facet normal -1.58922968628789e-017 2.02244780629714e-016 1.0
outer loop
vertex -17.0356694003546 51.4318516525781 22.8
vertex -17.0356694003546 38.1681483474219 22.8
vertex -16.5180313101495 38.1 22.8
endloop
endfacet
facet normal -1.58922968628789e-017 2.02244780629714e-016 1.0
outer loop
vertex -17.0356694003546 51.4318516525781 22.8
vertex -16.5180313101495 38.1 22.8
vertex -16.5180313101495 51.5 22.8
endloop
endfacet
facet normal -1.58922968628789e-017 2.02244780629714e-016 1.0
outer loop
vertex -16.5180313101495 51.5 22.8
vertex -16.5180313101495 38.1 22.8
vertex -15.5180313101495 38.1 22.8
endloop
endfacet
facet normal -1.58922968628789e-017 2.02244780629714e-016 1.0
outer loop
vertex -16.5180313101495 51.5 22.8
vertex -15.5180313101495 38.1 22.8
vertex -15.5180313101495 48.5 22.8
endloop
endfacet
facet normal -1.58922968628789e-017 2.02244780629714e-016 1.0
outer loop
vertex -15.5180313101495 48.5 22.8
vertex -15.5180313101495 38.1 22.8
vertex -15.5180313101495 42.0 22.8
endloop
endfacet
facet normal -1.58922968628789e-017 2.02244780629714e-016 1.0
outer loop
vertex -15.5180313101495 42.0 22.8
vertex -15.5180313101495 38.1 22.8
vertex -4.1 38.1 22.8
endloop
endfacet
facet normal -1.58922968628789e-017 2.02244780629714e-016 1.0
outer loop
vertex -15.5180313101495 42.0 22.8
vertex -4.1 38.1 22.8
vertex 4.53427700754693 42.0 22.8
endloop
endfacet
facet normal -1.58922968628789e-017 2.02244780629714e-016 1.0
outer loop
vertex 4.53427700754693 42.0 22.8
vertex -4.1 38.1 22.8
vertex -1.49451757773473e-015 38.1 22.8
endloop
endfacet
facet normal -1.58922968628789e-017 2.02244780629714e-016 1.0
outer loop
vertex 4.53427700754693 42.0 22.8
vertex -1.49451757773473e-015 38.1 22.8
vertex 1.06115808492033 37.9602958877852 22.8
endloop
endfacet
facet normal -1.58922968628789e-017 2.02244780629714e-016 1.0
outer loop
vertex 4.53427700754693 42.0 22.8
vertex 1.06115808492033 37.9602958877852 22.8
vertex 2.05 37.5507041555162 22.8
endloop
endfacet
facet normal -1.58922968628789e-017 2.02244780629714e-016 1.0
outer loop
vertex 4.53427700754693 42.0 22.8
vertex 2.05 37.5507041555162 22.8
vertex 2.89913780286484 36.8991378028648 22.8
endloop
endfacet
facet normal -1.58922968628789e-017 2.02244780629714e-016 1.0
outer loop
vertex 4.53427700754693 42.0 22.8
vertex 2.89913780286484 36.8991378028648 22.8
vertex 3.5507041555162 36.05 22.8
endloop
endfacet
facet normal -1.58922968628789e-017 2.02244780629714e-016 1.0
outer loop
vertex 4.53427700754693 42.0 22.8
vertex 3.5507041555162 36.05 22.8
vertex 3.96029588778518 35.0611580849203 22.8
endloop
endfacet
facet normal -1.58922968628789e-017 2.02244780629714e-016 1.0
outer loop
vertex 4.53427700754693 42.0 22.8
vertex 3.96029588778518 35.0611580849203 22.8
vertex 4.1 34.0 22.8
endloop
endfacet
facet normal -0.965925826289068 -0.258819045102521 -4.32326166970233e-032
outer loop
vertex -5.44988296272765 27.482361909795 22.8
vertex -5.25008211771839 27.0 12.0
vertex -5.25008211771839 27.0 22.8
endloop
endfacet
facet normal -0.86602540378444 -0.499999999999997 -4.79875175398679e-019
outer loop
vertex -5.25008211771839 27.0 12.0
vertex -5.44988296272765 27.482361909795 22.8
vertex -5.44988296272765 27.482361909795 12.0
endloop
endfacet
facet normal -0.86602540378444 -0.499999999999997 -4.79875175398679e-019
outer loop
vertex -5.25008211771839 27.0 22.8
vertex -4.93224487252261 26.5857864376269 12.0
vertex -4.93224487252261 26.5857864376269 22.8
endloop
endfacet
facet normal -0.707106781186549 -0.707106781186546 -4.79875175398645e-019
outer loop
vertex -4.93224487252261 26.5857864376269 12.0
vertex -5.25008211771839 27.0 22.8
vertex -5.25008211771839 27.0 12.0
endloop
endfacet
facet normal -0.99144486137381 -0.130526192220052 -1.77978706565663e-032
outer loop
vertex -5.51803131014952 28.0 22.8
vertex -5.44988296272765 27.482361909795 12.0
vertex -5.44988296272765 27.482361909795 22.8
endloop
endfacet
facet normal -0.965925826289068 -0.258819045102521 -4.32326166970233e-032
outer loop
vertex -5.44988296272765 27.482361909795 12.0
vertex -5.51803131014952 28.0 22.8
vertex -5.51803131014952 28.0 12.0
endloop
endfacet
facet normal -0.258819045102522 -0.965925826289068 6.35312150826129e-032
outer loop
vertex -4.03566940035456 26.0681483474219 22.8
vertex -4.51803131014952 26.2679491924311 12.0
vertex -4.03566940035456 26.0681483474219 12.0
endloop
endfacet
facet normal -0.499999999999999 -0.866025403784439 6.35312150826129e-032
outer loop
vertex -4.51803131014952 26.2679491924311 12.0
vertex -4.03566940035456 26.0681483474219 22.8
vertex -4.51803131014952 26.2679491924311 22.8
endloop
endfacet
facet normal -0.965925826289068 -0.258819045102522 3.52912148116968e-032
outer loop
vertex -18.4498829627276 39.582361909795 22.8
vertex -18.2500821177184 39.1 12.0
vertex -18.2500821177184 39.1 22.8
endloop
endfacet
facet normal -0.86602540378444 -0.499999999999998 5.3593236517349e-032
outer loop
vertex -18.2500821177184 39.1 12.0
vertex -18.4498829627276 39.582361909795 22.8
vertex -18.4498829627276 39.582361909795 12.0
endloop
endfacet
facet normal 0.258819045102521 -0.965925826289068 9.05198741149792e-017
outer loop
vertex 5.99960678005552 26.0681483474219 22.8
vertex 5.48196868985048 26.0 18.8
vertex 5.99960678005553 26.0681483474219 18.8
endloop
endfacet
facet normal 0.130526192220052 -0.99144486137381 4.56504832702188e-017
outer loop
vertex 5.48196868985048 26.0 18.8
vertex 5.99960678005552 26.0681483474219 22.8
vertex 5.48196868985048 26.0 22.8
endloop
endfacet
facet normal 0.499999999999999 -0.866025403784439 1.74870968400187e-016
outer loop
vertex 6.48196868985048 26.2679491924311 22.8
vertex 5.99960678005553 26.0681483474219 18.8
vertex 6.48196868985048 26.2679491924311 18.8
endloop
endfacet
facet normal 0.258819045102521 -0.965925826289068 9.05198741149793e-017
outer loop
vertex 5.99960678005553 26.0681483474219 18.8
vertex 6.48196868985048 26.2679491924311 22.8
vertex 5.99960678005552 26.0681483474219 22.8
endloop
endfacet
facet normal 0.99144486137381 -0.130526192220052 3.49458829219902e-016
outer loop
vertex 7.48196868985048 28.0 18.8
vertex 7.41382034242862 27.482361909795 22.8
vertex 7.41382034242862 27.482361909795 18.8
endloop
endfacet
facet normal 0.965925826289068 -0.258819045102521 3.41227871243613e-016
outer loop
vertex 7.41382034242862 27.482361909795 22.8
vertex 7.48196868985048 28.0 18.8
vertex 7.48196868985048 28.0 22.8
endloop
endfacet
facet normal 0.86602540378444 -0.499999999999997 3.0667146956337e-016
outer loop
vertex 7.21401949741936 27.0 18.8
vertex 6.89618225222358 26.5857864376269 22.8
vertex 6.89618225222358 26.5857864376269 18.8
endloop
endfacet
facet normal 0.707106781186548 -0.707106781186547 2.4905404019119e-016
outer loop
vertex 6.89618225222358 26.5857864376269 22.8
vertex 7.21401949741936 27.0 18.8
vertex 7.21401949741936 27.0 22.8
endloop
endfacet
facet normal 0.0 -1.0 0.0
outer loop
vertex -15.5180313101495 38.1 22.8
vertex -16.5180313101495 38.1 12.0
vertex -15.5180313101495 38.1 12.0
endloop
endfacet
facet normal 0.0 -1.0 0.0
outer loop
vertex -16.5180313101495 38.1 12.0
vertex -15.5180313101495 38.1 22.8
vertex -16.5180313101495 38.1 22.8
endloop
endfacet
facet normal -0.258819045102522 -0.965925826289068 0.0
outer loop
vertex -17.0356694003546 38.1681483474219 22.8
vertex -17.5180313101495 38.3679491924311 12.0
vertex -17.0356694003546 38.1681483474219 12.0
endloop
endfacet
facet normal -0.5 -0.866025403784438 3.32591655821242e-020
outer loop
vertex -17.5180313101495 38.3679491924311 12.0
vertex -17.0356694003546 38.1681483474219 22.8
vertex -17.5180313101495 38.3679491924311 22.8
endloop
endfacet
facet normal -0.5 -0.866025403784439 3.32591655821241e-020
outer loop
vertex -17.5180313101495 38.3679491924311 22.8
vertex -17.9322448725226 38.6857864376269 12.0
vertex -17.5180313101495 38.3679491924311 12.0
endloop
endfacet
facet normal -0.707106781186548 -0.707106781186547 3.32591655821515e-020
outer loop
vertex -17.9322448725226 38.6857864376269 12.0
vertex -17.5180313101495 38.3679491924311 22.8
vertex -17.9322448725226 38.6857864376269 22.8
endloop
endfacet
facet normal -0.86602540378444 -0.499999999999998 5.3593236517349e-032
outer loop
vertex -18.2500821177184 39.1 22.8
vertex -17.9322448725226 38.6857864376269 12.0
vertex -17.9322448725226 38.6857864376269 22.8
endloop
endfacet
facet normal -0.707106781186548 -0.707106781186547 3.32591655821515e-020
outer loop
vertex -17.9322448725226 38.6857864376269 12.0
vertex -18.2500821177184 39.1 22.8
vertex -18.2500821177184 39.1 12.0
endloop
endfacet
facet normal 0.707106781186548 -0.707106781186547 2.4905404019119e-016
outer loop
vertex 6.89618225222358 26.5857864376269 22.8
vertex 6.48196868985048 26.2679491924311 18.8
vertex 6.89618225222358 26.5857864376269 18.8
endloop
endfacet
facet normal 0.499999999999999 -0.866025403784439 1.74870968400187e-016
outer loop
vertex 6.48196868985048 26.2679491924311 18.8
vertex 6.89618225222358 26.5857864376269 22.8
vertex 6.48196868985048 26.2679491924311 22.8
endloop
endfacet
facet normal -0.99144486137381 -0.130526192220052 1.77978706565663e-032
outer loop
vertex -18.5180313101495 40.1 22.8
vertex -18.4498829627276 39.582361909795 12.0
vertex -18.4498829627276 39.582361909795 22.8
endloop
endfacet
facet normal -0.965925826289068 -0.258819045102522 3.52912148116968e-032
outer loop
vertex -18.4498829627276 39.582361909795 12.0
vertex -18.5180313101495 40.1 22.8
vertex -18.5180313101495 40.1 12.0
endloop
endfacet
facet normal 0.965925826289068 -0.258819045102521 3.41227871243613e-016
outer loop
vertex 7.41382034242862 27.482361909795 18.8
vertex 7.21401949741936 27.0 22.8
vertex 7.21401949741936 27.0 18.8
endloop
endfacet
facet normal 0.86602540378444 -0.499999999999997 3.0667146956337e-016
outer loop
vertex 7.21401949741936 27.0 22.8
vertex 7.41382034242862 27.482361909795 18.8
vertex 7.41382034242862 27.482361909795 22.8
endloop
endfacet
facet normal -0.130526192220051 -0.99144486137381 0.0
outer loop
vertex -16.5180313101495 38.1 22.8
vertex -17.0356694003546 38.1681483474219 12.0
vertex -16.5180313101495 38.1 12.0
endloop
endfacet
facet normal -0.258819045102522 -0.965925826289068 0.0
outer loop
vertex -17.0356694003546 38.1681483474219 12.0
vertex -16.5180313101495 38.1 22.8
vertex -17.0356694003546 38.1681483474219 22.8
endloop
endfacet
facet normal -1.0 -0.0 7.81473709504835e-017
outer loop
vertex 3.52458770728815 47.3 13.2
vertex 3.52458770728815 43.2 12.0
vertex 3.52458770728815 43.2 13.2
endloop
endfacet
facet normal -1.0 -0.0 7.81473709504835e-017
outer loop
vertex 3.52458770728815 43.2 12.0
vertex 3.52458770728815 47.3 13.2
vertex 3.52458770728815 47.3 12.0
endloop
endfacet
facet normal -0.0 1.0 3.43898351530231e-016
outer loop
vertex -14.5180313101495 43.2 13.2
vertex 3.52458770728815 43.2 12.0
vertex -14.5180313101495 43.2 12.0
endloop
endfacet
facet normal -0.0 1.0 3.43898351530231e-016
outer loop
vertex 3.52458770728815 43.2 12.0
vertex -14.5180313101495 43.2 13.2
vertex 3.52458770728815 43.2 13.2
endloop
endfacet
facet normal 0.965925826289068 0.258819045102522 3.52912148116968e-032
outer loop
vertex 7.41382034242863 50.017638090205 12.0
vertex 7.48196868985049 49.5 22.8
vertex 7.48196868985049 49.5 12.0
endloop
endfacet
facet normal 0.99144486137381 0.130526192220052 1.77978706565663e-032
outer loop
vertex 7.48196868985049 49.5 22.8
vertex 7.41382034242863 50.017638090205 12.0
vertex 7.41382034242863 50.017638090205 22.8
endloop
endfacet
facet normal -0.0 1.0 -0.0
outer loop
vertex -16.5180313101495 51.5 22.8
vertex 5.48196868985049 51.5 12.0
vertex -16.5180313101495 51.5 12.0
endloop
endfacet
facet normal -0.0 1.0 -0.0
outer loop
vertex 5.48196868985049 51.5 12.0
vertex -16.5180313101495 51.5 22.8
vertex 5.48196868985049 51.5 22.8
endloop
endfacet
facet normal -5.37495040925854e-032 -1.0 -3.43898351530231e-016
outer loop
vertex 3.52458770728815 47.3 13.2
vertex -14.5180313101495 47.3 12.0
vertex 3.52458770728815 47.3 12.0
endloop
endfacet
facet normal -5.37495040925854e-032 -1.0 -3.43898351530231e-016
outer loop
vertex -14.5180313101495 47.3 12.0
vertex 3.52458770728815 47.3 13.2
vertex -14.5180313101495 47.3 13.2
endloop
endfacet
facet normal 0.866025403784439 0.5 8.48096348343118e-019
outer loop
vertex 7.21401949741936 50.5 12.0
vertex 7.41382034242863 50.017638090205 22.8
vertex 7.41382034242863 50.017638090205 12.0
endloop
endfacet
facet normal 0.965925826289068 0.258819045102522 3.52912148116968e-032
outer loop
vertex 7.41382034242863 50.017638090205 22.8
vertex 7.21401949741936 50.5 12.0
vertex 7.21401949741936 50.5 22.8
endloop
endfacet
facet normal 1.0 5.37495040925854e-032 -7.81473709504835e-017
outer loop
vertex -14.5180313101495 47.3 12.0
vertex -14.5180313101495 43.2 13.2
vertex -14.5180313101495 43.2 12.0
endloop
endfacet
facet normal 1.0 5.37495040925854e-032 -7.81473709504835e-017
outer loop
vertex -14.5180313101495 43.2 13.2
vertex -14.5180313101495 47.3 12.0
vertex -14.5180313101495 47.3 13.2
endloop
endfacet
facet normal 1.0 -1.26026085172274e-016 -1.11574527344762e-017
outer loop
vertex 7.48196868985049 49.5 12.0
vertex 7.48196868985049 42.0 18.8
vertex 7.48196868985049 42.0 12.0
endloop
endfacet
facet normal 1.0 -1.26026085172274e-016 -1.11574527344762e-017
outer loop
vertex 7.48196868985049 42.0 18.8
vertex 7.48196868985049 49.5 12.0
vertex 7.48196868985049 42.0 22.8
endloop
endfacet
facet normal 1.0 -1.26026085172274e-016 -1.11574527344762e-017
outer loop
vertex 7.48196868985049 42.0 22.8
vertex 7.48196868985049 49.5 12.0
vertex 7.48196868985049 49.5 22.8
endloop
endfacet
facet normal -0.0 1.0 -0.0
outer loop
vertex -4.1 29.9 22.8
vertex -2.8199664825479e-015 29.9 12.0
vertex -4.1 29.9 12.0
endloop
endfacet
facet normal -0.0 1.0 -0.0
outer loop
vertex -2.8199664825479e-015 29.9 12.0
vertex -4.1 29.9 22.8
vertex -2.90450081900868e-015 29.9 22.8
endloop
endfacet
facet normal 0.707106781186553 0.707106781186542 8.48096348343091e-019
outer loop
vertex 6.89618225222358 50.9142135623731 12.0
vertex 7.21401949741936 50.5 22.8
vertex 7.21401949741936 50.5 12.0
endloop
endfacet
facet normal 0.866025403784439 0.5 8.48096348343118e-019
outer loop
vertex 7.21401949741936 50.5 22.8
vertex 6.89618225222358 50.9142135623731 12.0
vertex 6.89618225222358 50.9142135623731 22.8
endloop
endfacet
facet normal -0.0 -0.0 1.0
outer loop
vertex 4.53427700754693 42.0 13.2
vertex -14.5180313101495 43.2 13.2
vertex -15.5180313101495 42.0 13.2
endloop
endfacet
facet normal -0.0 -0.0 1.0
outer loop
vertex -14.5180313101495 43.2 13.2
vertex 4.53427700754693 42.0 13.2
vertex 3.52458770728815 43.2 13.2
endloop
endfacet
facet normal -0.0 -0.0 1.0
outer loop
vertex 3.52458770728815 43.2 13.2
vertex 4.53427700754693 42.0 13.2
vertex 3.52458770728815 47.3 13.2
endloop
endfacet
facet normal -0.0 -0.0 1.0
outer loop
vertex 3.52458770728815 47.3 13.2
vertex 4.53427700754693 42.0 13.2
vertex 4.48196868985049 48.5 13.2
endloop
endfacet
facet normal -0.0 -0.0 1.0
outer loop
vertex -15.5180313101495 48.5 13.2
vertex -14.5180313101495 47.3 13.2
vertex 4.48196868985049 48.5 13.2
endloop
endfacet
facet normal -0.0 -0.0 1.0
outer loop
vertex -14.5180313101495 47.3 13.2
vertex -15.5180313101495 48.5 13.2
vertex -15.5180313101495 42.0 13.2
endloop
endfacet
facet normal -0.0 -0.0 1.0
outer loop
vertex -14.5180313101495 47.3 13.2
vertex -15.5180313101495 42.0 13.2
vertex -14.5180313101495 43.2 13.2
endloop
endfacet
facet normal -0.0 -0.0 1.0
outer loop
vertex 4.48196868985049 48.5 13.2
vertex -14.5180313101495 47.3 13.2
vertex 3.52458770728815 47.3 13.2
endloop
endfacet
facet normal 0.500000000000002 0.866025403784437 0.0
outer loop
vertex 6.48196868985049 51.2320508075689 22.8
vertex 6.89618225222358 50.9142135623731 12.0
vertex 6.48196868985049 51.2320508075689 12.0
endloop
endfacet
facet normal 0.707106781186553 0.707106781186542 8.48096348343091e-019
outer loop
vertex 6.89618225222358 50.9142135623731 12.0
vertex 6.48196868985049 51.2320508075689 22.8
vertex 6.89618225222358 50.9142135623731 22.8
endloop
endfacet
facet normal 0.258819045102517 0.965925826289069 -1.4992366975311e-019
outer loop
vertex 5.99960678005553 51.4318516525781 22.8
vertex 6.48196868985049 51.2320508075689 12.0
vertex 5.99960678005553 51.4318516525781 12.0
endloop
endfacet
facet normal 0.500000000000002 0.866025403784437 0.0
outer loop
vertex 6.48196868985049 51.2320508075689 12.0
vertex 5.99960678005553 51.4318516525781 22.8
vertex 6.48196868985049 51.2320508075689 22.8
endloop
endfacet
facet normal 0.130526192220052 0.99144486137381 -2.97282103950051e-019
outer loop
vertex 5.48196868985049 51.5 22.8
vertex 5.99960678005553 51.4318516525781 12.0
vertex 5.48196868985049 51.5 12.0
endloop
endfacet
facet normal 0.258819045102517 0.965925826289069 -1.4992366975311e-019
outer loop
vertex 5.99960678005553 51.4318516525781 12.0
vertex 5.48196868985049 51.5 22.8
vertex 5.99960678005553 51.4318516525781 22.8
endloop
endfacet
facet normal -0.866025403784437 0.500000000000002 -3.68221172944404e-019
outer loop
vertex -18.2500821177184 50.5 22.8
vertex -18.4498829627276 50.017638090205 12.0
vertex -18.4498829627276 50.017638090205 22.8
endloop
endfacet
facet normal -0.965925826289069 0.25881904510252 -8.97572389043624e-033
outer loop
vertex -18.4498829627276 50.017638090205 12.0
vertex -18.2500821177184 50.5 22.8
vertex -18.2500821177184 50.5 12.0
endloop
endfacet
facet normal -0.965925826289069 0.25881904510252 -8.97572389043624e-033
outer loop
vertex -18.4498829627276 50.017638090205 22.8
vertex -18.5180313101495 49.5 12.0
vertex -18.5180313101495 49.5 22.8
endloop
endfacet
facet normal -0.99144486137381 0.130526192220052 -1.77978706565663e-032
outer loop
vertex -18.5180313101495 49.5 12.0
vertex -18.4498829627276 50.017638090205 22.8
vertex -18.4498829627276 50.017638090205 12.0
endloop
endfacet
facet normal -0.70710678118655 0.707106781186545 -7.36442345888878e-019
outer loop
vertex -17.9322448725226 50.9142135623731 22.8
vertex -18.2500821177184 50.5 12.0
vertex -18.2500821177184 50.5 22.8
endloop
endfacet
facet normal -0.866025403784437 0.500000000000002 -3.68221172944404e-019
outer loop
vertex -18.2500821177184 50.5 12.0
vertex -17.9322448725226 50.9142135623731 22.8
vertex -17.9322448725226 50.9142135623731 12.0
endloop
endfacet
facet normal -0.70710678118655 0.707106781186545 -7.36442345888878e-019
outer loop
vertex -17.9322448725226 50.9142135623731 22.8
vertex -17.5180313101495 51.2320508075689 12.0
vertex -17.9322448725226 50.9142135623731 12.0
endloop
endfacet
facet normal -0.500000000000002 0.866025403784437 -3.68221172944476e-019
outer loop
vertex -17.5180313101495 51.2320508075689 12.0
vertex -17.9322448725226 50.9142135623731 22.8
vertex -17.5180313101495 51.2320508075689 22.8
endloop
endfacet
facet normal -0.500000000000002 0.866025403784437 -3.68221172944476e-019
outer loop
vertex -17.5180313101495 51.2320508075689 22.8
vertex -17.0356694003546 51.4318516525781 12.0
vertex -17.5180313101495 51.2320508075689 12.0
endloop
endfacet
facet normal -0.258819045102517 0.965925826289069 1.4992366975311e-019
outer loop
vertex -17.0356694003546 51.4318516525781 12.0
vertex -17.5180313101495 51.2320508075689 22.8
vertex -17.0356694003546 51.4318516525781 22.8
endloop
endfacet
facet normal -0.258819045102517 0.965925826289069 1.4992366975311e-019
outer loop
vertex -17.0356694003546 51.4318516525781 22.8
vertex -16.5180313101495 51.5 12.0
vertex -17.0356694003546 51.4318516525781 12.0
endloop
endfacet
facet normal -0.130526192220052 0.99144486137381 2.97282103950051e-019
outer loop
vertex -16.5180313101495 51.5 12.0
vertex -17.0356694003546 51.4318516525781 22.8
vertex -16.5180313101495 51.5 22.8
endloop
endfacet
facet normal -1.0 0.0 0.0
outer loop
vertex -18.5180313101495 49.5 22.8
vertex -18.5180313101495 40.1 12.0
vertex -18.5180313101495 40.1 22.8
endloop
endfacet
facet normal -1.0 0.0 0.0
outer loop
vertex -18.5180313101495 40.1 12.0
vertex -18.5180313101495 49.5 22.8
vertex -18.5180313101495 49.5 12.0
endloop
endfacet
facet normal 1.0 -3.02139265987275e-016 3.52495810318487e-016
outer loop
vertex 7.48196868985049 42.0 18.8
vertex 7.48196868985048 28.0 22.8
vertex 7.48196868985048 28.0 18.8
endloop
endfacet
facet normal 1.0 -3.02139265987275e-016 3.52495810318487e-016
outer loop
vertex 7.48196868985048 28.0 22.8
vertex 7.48196868985049 42.0 18.8
vertex 7.48196868985049 42.0 22.8
endloop
endfacet
facet normal -7.62608739949076e-017 1.1186890998582e-016 1.0
outer loop
vertex 17.0 26.0 18.8
vertex 5.99960678005553 26.0681483474219 18.8
vertex 5.48196868985048 26.0 18.8
endloop
endfacet
facet normal -7.62608739949076e-017 1.1186890998582e-016 1.0
outer loop
vertex 5.99960678005553 26.0681483474219 18.8
vertex 17.0 26.0 18.8
vertex 6.48196868985048 26.2679491924311 18.8
endloop
endfacet
facet normal -7.62608739949076e-017 1.1186890998582e-016 1.0
outer loop
vertex 6.48196868985048 26.2679491924311 18.8
vertex 17.0 26.0 18.8
vertex 6.89618225222358 26.5857864376269 18.8
endloop
endfacet
facet normal -7.62608739949076e-017 1.1186890998582e-016 1.0
outer loop
vertex 6.89618225222358 26.5857864376269 18.8
vertex 17.0 26.0 18.8
vertex 7.21401949741936 27.0 18.8
endloop
endfacet
facet normal -7.62608739949076e-017 1.1186890998582e-016 1.0
outer loop
vertex 7.21401949741936 27.0 18.8
vertex 17.0 26.0 18.8
vertex 7.41382034242862 27.482361909795 18.8
endloop
endfacet
facet normal -7.62608739949076e-017 1.1186890998582e-016 1.0
outer loop
vertex 7.41382034242862 27.482361909795 18.8
vertex 17.0 26.0 18.8
vertex 7.48196868985048 28.0 18.8
endloop
endfacet
facet normal -7.62608739949076e-017 1.1186890998582e-016 1.0
outer loop
vertex 7.48196868985048 28.0 18.8
vertex 17.0 26.0 18.8
vertex 7.48196868985049 42.0 18.8
endloop
endfacet
facet normal -7.62608739949076e-017 1.1186890998582e-016 1.0
outer loop
vertex 7.48196868985049 42.0 18.8
vertex 17.0 26.0 18.8
vertex 16.3 34.0 18.8
endloop
endfacet
facet normal -7.62608739949076e-017 1.1186890998582e-016 1.0
outer loop
vertex 16.3 34.0 18.8
vertex 17.0 26.0 18.8
vertex 16.3613335126797 33.5341257188155 18.8
endloop
endfacet
facet normal -7.62608739949076e-017 1.1186890998582e-016 1.0
outer loop
vertex 16.3613335126797 33.5341257188155 18.8
vertex 17.0 26.0 18.8
vertex 16.541154273188 33.1 18.8
endloop
endfacet
facet normal -7.62608739949076e-017 1.1186890998582e-016 1.0
outer loop
vertex 16.541154273188 33.1 18.8
vertex 17.0 26.0 18.8
vertex 16.8272077938642 32.7272077938642 18.8
endloop
endfacet
facet normal -7.62608739949076e-017 1.1186890998582e-016 1.0
outer loop
vertex 16.8272077938642 32.7272077938642 18.8
vertex 17.0 26.0 18.8
vertex 17.2 32.441154273188 18.8
endloop
endfacet
facet normal -7.62608739949076e-017 1.1186890998582e-016 1.0
outer loop
vertex 17.2 32.441154273188 18.8
vertex 17.0 26.0 18.8
vertex 19.0705523608202 26.2725933896875 18.8
endloop
endfacet
facet normal -7.62608739949076e-017 1.1186890998582e-016 1.0
outer loop
vertex 17.2 32.441154273188 18.8
vertex 19.0705523608202 26.2725933896875 18.8
vertex 17.6341257188155 32.2613335126797 18.8
endloop
endfacet
facet normal -7.62608739949076e-017 1.1186890998582e-016 1.0
outer loop
vertex 17.6341257188155 32.2613335126797 18.8
vertex 19.0705523608202 26.2725933896875 18.8
vertex 18.1 32.2 18.8
endloop
endfacet
facet normal -7.62608739949076e-017 1.1186890998582e-016 1.0
outer loop
vertex 18.1 32.2 18.8
vertex 19.0705523608202 26.2725933896875 18.8
vertex 18.5658742811845 32.2613335126797 18.8
endloop
endfacet
facet normal -7.62608739949076e-017 1.1186890998582e-016 1.0
outer loop
vertex 18.5658742811845 32.2613335126797 18.8
vertex 19.0705523608202 26.2725933896875 18.8
vertex 19.0 32.441154273188 18.8
endloop
endfacet
facet normal -7.62608739949076e-017 1.1186890998582e-016 1.0
outer loop
vertex 19.0 32.441154273188 18.8
vertex 19.0705523608202 26.2725933896875 18.8
vertex 19.3727922061358 32.7272077938642 18.8
endloop
endfacet
facet normal -7.62608739949076e-017 1.1186890998582e-016 1.0
outer loop
vertex 19.3727922061358 32.7272077938642 18.8
vertex 19.0705523608202 26.2725933896875 18.8
vertex 21.0 27.0717967697245 18.8
endloop
endfacet
facet normal -7.62608739949076e-017 1.1186890998582e-016 1.0
outer loop
vertex 19.3727922061358 32.7272077938642 18.8
vertex 21.0 27.0717967697245 18.8
vertex 19.658845726812 33.1 18.8
endloop
endfacet
facet normal -7.62608739949076e-017 1.1186890998582e-016 1.0
outer loop
vertex 19.658845726812 33.1 18.8
vertex 21.0 27.0717967697245 18.8
vertex 19.8386664873203 33.5341257188155 18.8
endloop
endfacet
facet normal -7.62608739949076e-017 1.1186890998582e-016 1.0
outer loop
vertex 19.8386664873203 33.5341257188155 18.8
vertex 21.0 27.0717967697245 18.8
vertex 19.9 34.0 18.8
endloop
endfacet
facet normal -7.62608739949076e-017 1.1186890998582e-016 1.0
outer loop
vertex 16.3 34.0 18.8
vertex 17.0 42.0 18.8
vertex 7.48196868985049 42.0 18.8
endloop
endfacet
facet normal -7.62608739949076e-017 1.1186890998582e-016 1.0
outer loop
vertex 17.0 42.0 18.8
vertex 16.3 34.0 18.8
vertex 16.3613335126797 34.4658742811845 18.8
endloop
endfacet
facet normal -7.62608739949076e-017 1.1186890998582e-016 1.0
outer loop
vertex 17.0 42.0 18.8
vertex 16.3613335126797 34.4658742811845 18.8
vertex 16.541154273188 34.9 18.8
endloop
endfacet
facet normal -7.62608739949076e-017 1.1186890998582e-016 1.0
outer loop
vertex 17.0 42.0 18.8
vertex 16.541154273188 34.9 18.8
vertex 16.8272077938642 35.2727922061358 18.8
endloop
endfacet
facet normal -7.62608739949076e-017 1.1186890998582e-016 1.0
outer loop
vertex 17.0 42.0 18.8
vertex 16.8272077938642 35.2727922061358 18.8
vertex 17.2 35.558845726812 18.8
endloop
endfacet
facet normal -7.62608739949076e-017 1.1186890998582e-016 1.0
outer loop
vertex 17.0 42.0 18.8
vertex 17.2 35.558845726812 18.8
vertex 19.0705523608202 41.7274066103125 18.8
endloop
endfacet
facet normal -7.62608739949076e-017 1.1186890998582e-016 1.0
outer loop
vertex 19.0705523608202 41.7274066103125 18.8
vertex 17.2 35.558845726812 18.8
vertex 17.6341257188155 35.7386664873203 18.8
endloop
endfacet
facet normal -7.62608739949076e-017 1.1186890998582e-016 1.0
outer loop
vertex 19.0705523608202 41.7274066103125 18.8
vertex 17.6341257188155 35.7386664873203 18.8
vertex 18.1 35.8 18.8
endloop
endfacet
facet normal -7.62608739949076e-017 1.1186890998582e-016 1.0
outer loop
vertex 19.0705523608202 41.7274066103125 18.8
vertex 18.1 35.8 18.8
vertex 18.5658742811845 35.7386664873203 18.8
endloop
endfacet
facet normal -7.62608739949076e-017 1.1186890998582e-016 1.0
outer loop
vertex 19.0705523608202 41.7274066103125 18.8
vertex 18.5658742811845 35.7386664873203 18.8
vertex 19.0 35.558845726812 18.8
endloop
endfacet
facet normal -7.62608739949076e-017 1.1186890998582e-016 1.0
outer loop
vertex 19.0705523608202 41.7274066103125 18.8
vertex 19.0 35.558845726812 18.8
vertex 19.3727922061358 35.2727922061358 18.8
endloop
endfacet
facet normal -7.62608739949076e-017 1.1186890998582e-016 1.0
outer loop
vertex 19.0705523608202 41.7274066103125 18.8
vertex 19.3727922061358 35.2727922061358 18.8
vertex 21.0 40.9282032302755 18.8
endloop
endfacet
facet normal -7.62608739949076e-017 1.1186890998582e-016 1.0
outer loop
vertex 21.0 40.9282032302755 18.8
vertex 19.3727922061358 35.2727922061358 18.8
vertex 19.658845726812 34.9 18.8
endloop
endfacet
facet normal -7.62608739949076e-017 1.1186890998582e-016 1.0
outer loop
vertex 21.0 40.9282032302755 18.8
vertex 19.658845726812 34.9 18.8
vertex 19.8386664873203 34.4658742811845 18.8
endloop
endfacet
facet normal -7.62608739949076e-017 1.1186890998582e-016 1.0
outer loop
vertex 21.0 40.9282032302755 18.8
vertex 19.8386664873203 34.4658742811845 18.8
vertex 19.9 34.0 18.8
endloop
endfacet
facet normal -7.62608739949076e-017 1.1186890998582e-016 1.0
outer loop
vertex 21.0 40.9282032302755 18.8
vertex 19.9 34.0 18.8
vertex 21.0 27.0717967697245 18.8
endloop
endfacet
facet normal -7.62608739949076e-017 1.1186890998582e-016 1.0
outer loop
vertex 21.0 40.9282032302755 18.8
vertex 21.0 27.0717967697245 18.8
vertex 22.6568542494924 28.3431457505076 18.8
endloop
endfacet
facet normal -7.62608739949076e-017 1.1186890998582e-016 1.0
outer loop
vertex 21.0 40.9282032302755 18.8
vertex 22.6568542494924 28.3431457505076 18.8
vertex 22.6568542494924 39.6568542494924 18.8
endloop
endfacet
facet normal -7.62608739949076e-017 1.1186890998582e-016 1.0
outer loop
vertex 22.6568542494924 39.6568542494924 18.8
vertex 22.6568542494924 28.3431457505076 18.8
vertex 23.9282032302755 30.0 18.8
endloop
endfacet
facet normal -7.62608739949076e-017 1.1186890998582e-016 1.0
outer loop
vertex 22.6568542494924 39.6568542494924 18.8
vertex 23.9282032302755 30.0 18.8
vertex 23.9282032302755 38.0 18.8
endloop
endfacet
facet normal -7.62608739949076e-017 1.1186890998582e-016 1.0
outer loop
vertex 23.9282032302755 38.0 18.8
vertex 23.9282032302755 30.0 18.8
vertex 24.7274066103125 31.9294476391798 18.8
endloop
endfacet
facet normal -7.62608739949076e-017 1.1186890998582e-016 1.0
outer loop
vertex 23.9282032302755 38.0 18.8
vertex 24.7274066103125 31.9294476391798 18.8
vertex 24.7274066103125 36.0705523608202 18.8
endloop
endfacet
facet normal -7.62608739949076e-017 1.1186890998582e-016 1.0
outer loop
vertex 24.7274066103125 36.0705523608202 18.8
vertex 24.7274066103125 31.9294476391798 18.8
vertex 25.0 34.0 18.8
endloop
endfacet
facet normal 0.923879532511287 0.382683432365089 0.0
outer loop
vertex 23.9282032302755 38.0 12.0
vertex 24.7274066103125 36.0705523608202 18.8
vertex 24.7274066103125 36.0705523608202 12.0
endloop
endfacet
facet normal 0.923879532511287 0.382683432365089 0.0
outer loop
vertex 24.7274066103125 36.0705523608202 18.8
vertex 23.9282032302755 38.0 12.0
vertex 23.9282032302755 38.0 18.8
endloop
endfacet
facet normal 0.793353340291235 0.608761429008721 0.0
outer loop
vertex 22.6568542494924 39.6568542494924 12.0
vertex 23.9282032302755 38.0 18.8
vertex 23.9282032302755 38.0 12.0
endloop
endfacet
facet normal 0.793353340291235 0.608761429008721 0.0
outer loop
vertex 23.9282032302755 38.0 18.8
vertex 22.6568542494924 39.6568542494924 12.0
vertex 22.6568542494924 39.6568542494924 18.8
endloop
endfacet
facet normal -0.499999999999995 -0.866025403784441 0.0
outer loop
vertex 19.0 35.558845726812 18.8
vertex 18.5658742811845 35.7386664873203 12.0
vertex 19.0 35.558845726812 12.0
endloop
endfacet
facet normal -0.25881904510252 -0.965925826289069 0.0
outer loop
vertex 18.5658742811845 35.7386664873203 12.0
vertex 19.0 35.558845726812 18.8
vertex 18.5658742811845 35.7386664873203 18.8
endloop
endfacet
facet normal -0.130526192220054 0.99144486137381 -0.0
outer loop
vertex -2.90450081900868e-015 29.9 22.8
vertex 1.06115808492033 30.0397041122148 12.0
vertex -2.8199664825479e-015 29.9 12.0
endloop
endfacet
facet normal -0.258819045102521 0.965925826289068 0.0
outer loop
vertex 1.06115808492033 30.0397041122148 12.0
vertex -2.90450081900868e-015 29.9 22.8
vertex 1.06115808492033 30.0397041122148 22.8
endloop
endfacet
facet normal -0.258819045102521 0.965925826289068 0.0
outer loop
vertex 1.06115808492033 30.0397041122148 22.8
vertex 2.05 30.4492958444838 12.0
vertex 1.06115808492033 30.0397041122148 12.0
endloop
endfacet
facet normal -0.499999999999999 0.866025403784439 0.0
outer loop
vertex 2.05 30.4492958444838 12.0
vertex 1.06115808492033 30.0397041122148 22.8
vertex 2.05 30.4492958444838 22.8
endloop
endfacet
facet normal 2.81261033679523e-016 1.0 -3.45042327412503e-032
outer loop
vertex -15.5180313101495 42.0 22.8
vertex 4.53427700754693 42.0 13.2
vertex -15.5180313101495 42.0 13.2
endloop
endfacet
facet normal 2.81261033679523e-016 1.0 -3.45042327412503e-032
outer loop
vertex 4.53427700754693 42.0 13.2
vertex -15.5180313101495 42.0 22.8
vertex 4.53427700754693 42.0 22.8
endloop
endfacet
facet normal 0.608761429008721 0.793353340291235 0.0
outer loop
vertex 21.0 40.9282032302755 18.8
vertex 22.6568542494924 39.6568542494924 12.0
vertex 21.0 40.9282032302755 12.0
endloop
endfacet
facet normal 0.608761429008721 0.793353340291235 0.0
outer loop
vertex 22.6568542494924 39.6568542494924 12.0
vertex 21.0 40.9282032302755 18.8
vertex 22.6568542494924 39.6568542494924 18.8
endloop
endfacet
facet normal -0.499999999999999 0.866025403784439 0.0
outer loop
vertex 2.05 30.4492958444838 22.8
vertex 2.89913780286484 31.1008621971352 12.0
vertex 2.05 30.4492958444838 12.0
endloop
endfacet
facet normal -0.707106781186547 0.707106781186547 0.0
outer loop
vertex 2.89913780286484 31.1008621971352 12.0
vertex 2.05 30.4492958444838 22.8
vertex 2.89913780286484 31.1008621971352 22.8
endloop
endfacet
facet normal 0.382683432365089 0.923879532511287 0.0
outer loop
vertex 19.0705523608202 41.7274066103125 18.8
vertex 21.0 40.9282032302755 12.0
vertex 19.0705523608202 41.7274066103125 12.0
endloop
endfacet
facet normal 0.382683432365089 0.923879532511287 0.0
outer loop
vertex 21.0 40.9282032302755 12.0
vertex 19.0705523608202 41.7274066103125 18.8
vertex 21.0 40.9282032302755 18.8
endloop
endfacet
facet normal -0.258819045102521 0.965925826289068 0.0
outer loop
vertex 18.5658742811845 32.2613335126797 18.8
vertex 19.0 32.441154273188 12.0
vertex 18.5658742811845 32.2613335126797 12.0
endloop
endfacet
facet normal -0.499999999999997 0.86602540378444 0.0
outer loop
vertex 19.0 32.441154273188 12.0
vertex 18.5658742811845 32.2613335126797 18.8
vertex 19.0 32.441154273188 18.8
endloop
endfacet
facet normal 0.0 -1.0 0.0
outer loop
vertex -4.1 38.1 22.8
vertex -15.5180313101495 38.1 12.0
vertex -4.1 38.1 12.0
endloop
endfacet
facet normal 0.0 -1.0 0.0
outer loop
vertex -15.5180313101495 38.1 12.0
vertex -4.1 38.1 22.8
vertex -15.5180313101495 38.1 22.8
endloop
endfacet
facet normal 0.382683432365089 -0.923879532511287 0.0
outer loop
vertex 21.0 27.0717967697245 18.8
vertex 19.0705523608202 26.2725933896875 12.0
vertex 21.0 27.0717967697245 12.0
endloop
endfacet
facet normal 0.382683432365089 -0.923879532511287 0.0
outer loop
vertex 19.0705523608202 26.2725933896875 12.0
vertex 21.0 27.0717967697245 18.8
vertex 19.0705523608202 26.2725933896875 18.8
endloop
endfacet
facet normal -0.866025403784439 0.499999999999999 0.0
outer loop
vertex 3.5507041555162 31.95 22.8
vertex 2.89913780286484 31.1008621971352 12.0
vertex 2.89913780286484 31.1008621971352 22.8
endloop
endfacet
facet normal -0.707106781186547 0.707106781186547 0.0
outer loop
vertex 2.89913780286484 31.1008621971352 12.0
vertex 3.5507041555162 31.95 22.8
vertex 3.5507041555162 31.95 12.0
endloop
endfacet
facet normal 0.608761429008721 -0.793353340291235 0.0
outer loop
vertex 22.6568542494924 28.3431457505076 18.8
vertex 21.0 27.0717967697245 12.0
vertex 22.6568542494924 28.3431457505076 12.0
endloop
endfacet
facet normal 0.608761429008721 -0.793353340291235 0.0
outer loop
vertex 21.0 27.0717967697245 12.0
vertex 22.6568542494924 28.3431457505076 18.8
vertex 21.0 27.0717967697245 18.8
endloop
endfacet
facet normal 0.130526192220051 -0.99144486137381 0.0
outer loop
vertex 19.0705523608202 26.2725933896875 18.8
vertex 17.0 26.0 12.0
vertex 19.0705523608202 26.2725933896875 12.0
endloop
endfacet
facet normal 0.130526192220051 -0.99144486137381 0.0
outer loop
vertex 17.0 26.0 12.0
vertex 19.0705523608202 26.2725933896875 18.8
vertex 17.0 26.0 18.8
endloop
endfacet
facet normal 0.0 -1.0 0.0
outer loop
vertex 17.0 26.0 18.8
vertex -3.51803131014952 26.0 12.0
vertex 17.0 26.0 12.0
endloop
endfacet
facet normal 0.0 -1.0 0.0
outer loop
vertex -3.51803131014952 26.0 12.0
vertex 17.0 26.0 18.8
vertex 5.48196868985048 26.0 18.8
endloop
endfacet
facet normal 0.0 -1.0 0.0
outer loop
vertex -3.51803131014952 26.0 12.0
vertex 5.48196868985048 26.0 18.8
vertex -3.51803131014952 26.0 22.8
endloop
endfacet
facet normal 0.0 -1.0 0.0
outer loop
vertex -3.51803131014952 26.0 22.8
vertex 5.48196868985048 26.0 18.8
vertex 5.48196868985048 26.0 22.8
endloop
endfacet
facet normal 0.130526192220051 0.99144486137381 0.0
outer loop
vertex 17.0 42.0 18.8
vertex 19.0705523608202 41.7274066103125 12.0
vertex 17.0 42.0 12.0
endloop
endfacet
facet normal 0.130526192220051 0.99144486137381 0.0
outer loop
vertex 19.0705523608202 41.7274066103125 12.0
vertex 17.0 42.0 18.8
vertex 19.0705523608202 41.7274066103125 18.8
endloop
endfacet
facet normal -0.965925826289068 0.258819045102521 0.0
outer loop
vertex 3.96029588778518 32.9388419150797 22.8
vertex 3.5507041555162 31.95 12.0
vertex 3.5507041555162 31.95 22.8
endloop
endfacet
facet normal -0.866025403784439 0.499999999999999 0.0
outer loop
vertex 3.5507041555162 31.95 12.0
vertex 3.96029588778518 32.9388419150797 22.8
vertex 3.96029588778518 32.9388419150797 12.0
endloop
endfacet
facet normal -1.0 1.65746644059032e-015 0.0
outer loop
vertex 4.1 34.0 22.8
vertex 3.96029588778518 32.9388419150797 12.0
vertex 3.96029588778518 32.9388419150797 22.8
endloop
endfacet
facet normal -0.965925826289068 0.258819045102521 0.0
outer loop
vertex 3.96029588778518 32.9388419150797 12.0
vertex 4.1 34.0 22.8
vertex 4.1 34.0 12.0
endloop
endfacet
facet normal -0.965925826289068 -0.258819045102521 0.0
outer loop
vertex 3.96029588778518 35.0611580849203 22.8
vertex 4.1 34.0 12.0
vertex 4.1 34.0 22.8
endloop
endfacet
facet normal -1.0 1.65746644059032e-015 0.0
outer loop
vertex 4.1 34.0 12.0
vertex 3.96029588778518 35.0611580849203 22.8
vertex 3.96029588778518 35.0611580849203 12.0
endloop
endfacet
facet normal 0.99144486137381 0.130526192220051 0.0
outer loop
vertex 24.7274066103125 36.0705523608202 12.0
vertex 25.0 34.0 18.8
vertex 25.0 34.0 12.0
endloop
endfacet
facet normal 0.99144486137381 0.130526192220051 0.0
outer loop
vertex 25.0 34.0 18.8
vertex 24.7274066103125 36.0705523608202 12.0
vertex 24.7274066103125 36.0705523608202 18.8
endloop
endfacet
facet normal 0.99144486137381 -0.130526192220052 0.0
outer loop
vertex 25.0 34.0 12.0
vertex 24.7274066103125 31.9294476391798 18.8
vertex 24.7274066103125 31.9294476391798 12.0
endloop
endfacet
facet normal 0.99144486137381 -0.130526192220052 0.0
outer loop
vertex 24.7274066103125 31.9294476391798 18.8
vertex 25.0 34.0 12.0
vertex 25.0 34.0 18.8
endloop
endfacet
facet normal 0.793353340291235 -0.608761429008721 0.0
outer loop
vertex 23.9282032302755 30.0 12.0
vertex 22.6568542494924 28.3431457505076 18.8
vertex 22.6568542494924 28.3431457505076 12.0
endloop
endfacet
facet normal 0.793353340291235 -0.608761429008721 0.0
outer loop
vertex 22.6568542494924 28.3431457505076 18.8
vertex 23.9282032302755 30.0 12.0
vertex 23.9282032302755 30.0 18.8
endloop
endfacet
facet normal 0.923879532511287 -0.382683432365089 0.0
outer loop
vertex 24.7274066103125 31.9294476391798 12.0
vertex 23.9282032302755 30.0 18.8
vertex 23.9282032302755 30.0 12.0
endloop
endfacet
facet normal 0.923879532511287 -0.382683432365089 0.0
outer loop
vertex 23.9282032302755 30.0 18.8
vertex 24.7274066103125 31.9294476391798 12.0
vertex 24.7274066103125 31.9294476391798 18.8
endloop
endfacet
facet normal -0.0 1.0 -0.0
outer loop
vertex -5.51803131014952 29.9 22.8
vertex -4.1 29.9 12.0
vertex -5.51803131014952 29.9 12.0
endloop
endfacet
facet normal -0.0 1.0 -0.0
outer loop
vertex -4.1 29.9 12.0
vertex -5.51803131014952 29.9 22.8
vertex -4.1 29.9 22.8
endloop
endfacet
facet normal -0.866025403784439 -0.5 0.0
outer loop
vertex 3.5507041555162 36.05 22.8
vertex 3.96029588778518 35.0611580849203 12.0
vertex 3.96029588778518 35.0611580849203 22.8
endloop
endfacet
facet normal -0.965925826289068 -0.258819045102521 0.0
outer loop
vertex 3.96029588778518 35.0611580849203 12.0
vertex 3.5507041555162 36.05 22.8
vertex 3.5507041555162 36.05 12.0
endloop
endfacet
facet normal -0.707106781186548 -0.707106781186547 0.0
outer loop
vertex 2.89913780286484 36.8991378028648 22.8
vertex 3.5507041555162 36.05 12.0
vertex 3.5507041555162 36.05 22.8
endloop
endfacet
facet normal -0.866025403784439 -0.5 0.0
outer loop
vertex 3.5507041555162 36.05 12.0
vertex 2.89913780286484 36.8991378028648 22.8
vertex 2.89913780286484 36.8991378028648 12.0
endloop
endfacet
facet normal 0.866025403784439 -0.499999999999999 0.0
outer loop
vertex 16.541154273188 34.9 12.0
vertex 16.3613335126797 34.4658742811845 18.8
vertex 16.3613335126797 34.4658742811845 12.0
endloop
endfacet
facet normal 0.965925826289069 -0.258819045102519 0.0
outer loop
vertex 16.3613335126797 34.4658742811845 18.8
vertex 16.541154273188 34.9 12.0
vertex 16.541154273188 34.9 18.8
endloop
endfacet
facet normal 0.707106781186548 -0.707106781186547 0.0
outer loop
vertex 16.8272077938642 35.2727922061358 12.0
vertex 16.541154273188 34.9 18.8
vertex 16.541154273188 34.9 12.0
endloop
endfacet
facet normal 0.866025403784439 -0.499999999999999 0.0
outer loop
vertex 16.541154273188 34.9 18.8
vertex 16.8272077938642 35.2727922061358 12.0
vertex 16.8272077938642 35.2727922061358 18.8
endloop
endfacet
facet normal -0.707106781186547 -0.707106781186547 0.0
outer loop
vertex 19.3727922061358 35.2727922061358 18.8
vertex 19.0 35.558845726812 12.0
vertex 19.3727922061358 35.2727922061358 12.0
endloop
endfacet
facet normal -0.499999999999995 -0.866025403784441 0.0
outer loop
vertex 19.0 35.558845726812 12.0
vertex 19.3727922061358 35.2727922061358 18.8
vertex 19.0 35.558845726812 18.8
endloop
endfacet
facet normal -0.866025403784439 -0.5 0.0
outer loop
vertex 19.658845726812 34.9 18.8
vertex 19.8386664873203 34.4658742811845 12.0
vertex 19.8386664873203 34.4658742811845 18.8
endloop
endfacet
facet normal -0.965925826289069 -0.258819045102518 0.0
outer loop
vertex 19.8386664873203 34.4658742811845 12.0
vertex 19.658845726812 34.9 18.8
vertex 19.658845726812 34.9 12.0
endloop
endfacet
facet normal 0.499999999999999 -0.866025403784439 0.0
outer loop
vertex 17.2 35.558845726812 18.8
vertex 16.8272077938642 35.2727922061358 12.0
vertex 17.2 35.558845726812 12.0
endloop
endfacet
facet normal 0.707106781186548 -0.707106781186547 0.0
outer loop
vertex 16.8272077938642 35.2727922061358 12.0
vertex 17.2 35.558845726812 18.8
vertex 16.8272077938642 35.2727922061358 18.8
endloop
endfacet
facet normal 0.258819045102519 -0.965925826289069 0.0
outer loop
vertex 17.6341257188155 35.7386664873203 18.8
vertex 17.2 35.558845726812 12.0
vertex 17.6341257188155 35.7386664873203 12.0
endloop
endfacet
facet normal 0.499999999999999 -0.866025403784439 0.0
outer loop
vertex 17.2 35.558845726812 12.0
vertex 17.6341257188155 35.7386664873203 18.8
vertex 17.2 35.558845726812 18.8
endloop
endfacet
facet normal -0.707106781186548 -0.707106781186547 0.0
outer loop
vertex 2.89913780286484 36.8991378028648 22.8
vertex 2.05 37.5507041555162 12.0
vertex 2.89913780286484 36.8991378028648 12.0
endloop
endfacet
facet normal -0.499999999999999 -0.866025403784439 0.0
outer loop
vertex 2.05 37.5507041555162 12.0
vertex 2.89913780286484 36.8991378028648 22.8
vertex 2.05 37.5507041555162 22.8
endloop
endfacet
facet normal -0.499999999999999 -0.866025403784439 0.0
outer loop
vertex 2.05 37.5507041555162 22.8
vertex 1.06115808492033 37.9602958877852 12.0
vertex 2.05 37.5507041555162 12.0
endloop
endfacet
facet normal -0.258819045102521 -0.965925826289068 0.0
outer loop
vertex 1.06115808492033 37.9602958877852 12.0
vertex 2.05 37.5507041555162 22.8
vertex 1.06115808492033 37.9602958877852 22.8
endloop
endfacet
facet normal -8.01999890608222e-016 -1.0 0.0
outer loop
vertex 18.1 35.8 18.8
vertex 17.6341257188155 35.7386664873203 12.0
vertex 18.1 35.8 12.0
endloop
endfacet
facet normal 0.258819045102519 -0.965925826289069 0.0
outer loop
vertex 17.6341257188155 35.7386664873203 12.0
vertex 18.1 35.8 18.8
vertex 17.6341257188155 35.7386664873203 18.8
endloop
endfacet
facet normal -0.25881904510252 -0.965925826289069 0.0
outer loop
vertex 18.5658742811845 35.7386664873203 18.8
vertex 18.1 35.8 12.0
vertex 18.5658742811845 35.7386664873203 12.0
endloop
endfacet
facet normal -8.01999890608222e-016 -1.0 0.0
outer loop
vertex 18.1 35.8 12.0
vertex 18.5658742811845 35.7386664873203 18.8
vertex 18.1 35.8 18.8
endloop
endfacet
facet normal -0.707106781186547 -0.707106781186547 0.0
outer loop
vertex 19.3727922061358 35.2727922061358 18.8
vertex 19.658845726812 34.9 12.0
vertex 19.658845726812 34.9 18.8
endloop
endfacet
facet normal -0.866025403784439 -0.5 0.0
outer loop
vertex 19.658845726812 34.9 12.0
vertex 19.3727922061358 35.2727922061358 18.8
vertex 19.3727922061358 35.2727922061358 12.0
endloop
endfacet
facet normal 0.258819045102521 0.965925826289068 0.0
outer loop
vertex 17.6341257188155 32.2613335126797 18.8
vertex 18.1 32.2 12.0
vertex 17.6341257188155 32.2613335126797 12.0
endloop
endfacet
facet normal -5.93479919050084e-015 1.0 0.0
outer loop
vertex 18.1 32.2 12.0
vertex 17.6341257188155 32.2613335126797 18.8
vertex 18.1 32.2 18.8
endloop
endfacet
facet normal 0.500000000000002 0.866025403784437 0.0
outer loop
vertex 17.2 32.441154273188 18.8
vertex 17.6341257188155 32.2613335126797 12.0
vertex 17.2 32.441154273188 12.0
endloop
endfacet
facet normal 0.258819045102521 0.965925826289068 0.0
outer loop
vertex 17.6341257188155 32.2613335126797 12.0
vertex 17.2 32.441154273188 18.8
vertex 17.6341257188155 32.2613335126797 18.8
endloop
endfacet
facet normal 0.707106781186544 0.707106781186551 0.0
outer loop
vertex 16.8272077938642 32.7272077938642 18.8
vertex 17.2 32.441154273188 12.0
vertex 16.8272077938642 32.7272077938642 12.0
endloop
endfacet
facet normal 0.500000000000002 0.866025403784437 0.0
outer loop
vertex 17.2 32.441154273188 12.0
vertex 16.8272077938642 32.7272077938642 18.8
vertex 17.2 32.441154273188 18.8
endloop
endfacet
facet normal 0.866025403784439 0.499999999999999 0.0
outer loop
vertex 16.541154273188 33.1 12.0
vertex 16.8272077938642 32.7272077938642 18.8
vertex 16.8272077938642 32.7272077938642 12.0
endloop
endfacet
facet normal 0.707106781186544 0.707106781186551 0.0
outer loop
vertex 16.8272077938642 32.7272077938642 18.8
vertex 16.541154273188 33.1 12.0
vertex 16.541154273188 33.1 18.8
endloop
endfacet
facet normal 0.965925826289069 0.25881904510252 0.0
outer loop
vertex 16.3613335126797 33.5341257188155 12.0
vertex 16.541154273188 33.1 18.8
vertex 16.541154273188 33.1 12.0
endloop
endfacet
facet normal 0.866025403784439 0.499999999999999 0.0
outer loop
vertex 16.541154273188 33.1 18.8
vertex 16.3613335126797 33.5341257188155 12.0
vertex 16.3613335126797 33.5341257188155 18.8
endloop
endfacet
facet normal 1.0 8.01999890608222e-016 0.0
outer loop
vertex 16.3 34.0 12.0
vertex 16.3613335126797 33.5341257188155 18.8
vertex 16.3613335126797 33.5341257188155 12.0
endloop
endfacet
facet normal 0.965925826289069 0.25881904510252 0.0
outer loop
vertex 16.3613335126797 33.5341257188155 18.8
vertex 16.3 34.0 12.0
vertex 16.3 34.0 18.8
endloop
endfacet
facet normal 0.965925826289069 -0.258819045102519 0.0
outer loop
vertex 16.3613335126797 34.4658742811845 12.0
vertex 16.3 34.0 18.8
vertex 16.3 34.0 12.0
endloop
endfacet
facet normal 1.0 8.01999890608222e-016 0.0
outer loop
vertex 16.3 34.0 18.8
vertex 16.3613335126797 34.4658742811845 12.0
vertex 16.3613335126797 34.4658742811845 18.8
endloop
endfacet
facet normal -0.258819045102521 -0.965925826289068 0.0
outer loop
vertex 1.06115808492033 37.9602958877852 22.8
vertex -1.40998324127395e-015 38.1 12.0
vertex 1.06115808492033 37.9602958877852 12.0
endloop
endfacet
facet normal -0.130526192220053 -0.99144486137381 0.0
outer loop
vertex -1.40998324127395e-015 38.1 12.0
vertex 1.06115808492033 37.9602958877852 22.8
vertex -1.49451757773473e-015 38.1 22.8
endloop
endfacet
facet normal -5.93479919050084e-015 1.0 0.0
outer loop
vertex 18.1 32.2 18.8
vertex 18.5658742811845 32.2613335126797 12.0
vertex 18.1 32.2 12.0
endloop
endfacet
facet normal -0.258819045102521 0.965925826289068 0.0
outer loop
vertex 18.5658742811845 32.2613335126797 12.0
vertex 18.1 32.2 18.8
vertex 18.5658742811845 32.2613335126797 18.8
endloop
endfacet
facet normal -0.965925826289069 0.258819045102519 0.0
outer loop
vertex 19.8386664873203 33.5341257188155 18.8
vertex 19.658845726812 33.1 12.0
vertex 19.658845726812 33.1 18.8
endloop
endfacet
facet normal -0.866025403784439 0.5 0.0
outer loop
vertex 19.658845726812 33.1 12.0
vertex 19.8386664873203 33.5341257188155 18.8
vertex 19.8386664873203 33.5341257188155 12.0
endloop
endfacet
facet normal -0.866025403784439 0.5 0.0
outer loop
vertex 19.658845726812 33.1 18.8
vertex 19.3727922061358 32.7272077938642 12.0
vertex 19.3727922061358 32.7272077938642 18.8
endloop
endfacet
facet normal -0.707106781186547 0.707106781186547 0.0
outer loop
vertex 19.3727922061358 32.7272077938642 12.0
vertex 19.658845726812 33.1 18.8
vertex 19.658845726812 33.1 12.0
endloop
endfacet
facet normal -0.499999999999997 0.86602540378444 0.0
outer loop
vertex 19.0 32.441154273188 18.8
vertex 19.3727922061358 32.7272077938642 12.0
vertex 19.0 32.441154273188 12.0
endloop
endfacet
facet normal -0.707106781186547 0.707106781186547 0.0
outer loop
vertex 19.3727922061358 32.7272077938642 12.0
vertex 19.0 32.441154273188 18.8
vertex 19.3727922061358 32.7272077938642 18.8
endloop
endfacet
facet normal -1.0 7.66355451025633e-016 0.0
outer loop
vertex 19.9 34.0 18.8
vertex 19.8386664873203 33.5341257188155 12.0
vertex 19.8386664873203 33.5341257188155 18.8
endloop
endfacet
facet normal -0.965925826289069 0.258819045102519 0.0
outer loop
vertex 19.8386664873203 33.5341257188155 12.0
vertex 19.9 34.0 18.8
vertex 19.9 34.0 12.0
endloop
endfacet
facet normal -0.965925826289069 -0.258819045102518 0.0
outer loop
vertex 19.8386664873203 34.4658742811845 18.8
vertex 19.9 34.0 12.0
vertex 19.9 34.0 18.8
endloop
endfacet
facet normal -1.0 7.66355451025633e-016 0.0
outer loop
vertex 19.9 34.0 12.0
vertex 19.8386664873203 34.4658742811845 18.8
vertex 19.8386664873203 34.4658742811845 12.0
endloop
endfacet
facet normal 1.0 4.33840997315061e-016 -7.96495489051839e-033
outer loop
vertex -15.5180313101495 48.5 13.2
vertex -15.5180313101495 42.0 22.8
vertex -15.5180313101495 42.0 13.2
endloop
endfacet
facet normal 1.0 4.33840997315061e-016 -7.96495489051839e-033
outer loop
vertex -15.5180313101495 42.0 22.8
vertex -15.5180313101495 48.5 13.2
vertex -15.5180313101495 48.5 22.8
endloop
endfacet
facet normal 0.0 -1.0 0.0
outer loop
vertex 4.48196868985049 48.5 22.8
vertex -15.5180313101495 48.5 13.2
vertex 4.48196868985049 48.5 13.2
endloop
endfacet
facet normal 0.0 -1.0 0.0
outer loop
vertex -15.5180313101495 48.5 13.2
vertex 4.48196868985049 48.5 22.8
vertex -15.5180313101495 48.5 22.8
endloop
endfacet
facet normal 0.0 -1.0 0.0
outer loop
vertex -1.49451757773473e-015 38.1 22.8
vertex -4.1 38.1 12.0
vertex -1.40998324127395e-015 38.1 12.0
endloop
endfacet
facet normal 0.0 -1.0 0.0
outer loop
vertex -4.1 38.1 12.0
vertex -1.49451757773473e-015 38.1 22.8
vertex -4.1 38.1 22.8
endloop
endfacet
facet normal -5.92552470286758e-016 1.0 3.23459115644666e-034
outer loop
vertex 7.48196868985049 42.0 18.8
vertex 17.0 42.0 12.0
vertex 7.48196868985049 42.0 12.0
endloop
endfacet
facet normal -5.92552470286758e-016 1.0 3.23459115644666e-034
outer loop
vertex 17.0 42.0 12.0
vertex 7.48196868985049 42.0 18.8
vertex 17.0 42.0 18.8
endloop
endfacet
facet normal -0.999967620979767 -0.00804717292374778 1.67013502841195e-031
outer loop
vertex 4.48196868985049 48.5 22.8
vertex 4.53427700754693 42.0 13.2
vertex 4.53427700754693 42.0 22.8
endloop
endfacet
facet normal -0.999967620979767 -0.00804717292374778 1.67013502841195e-031
outer loop
vertex 4.53427700754693 42.0 13.2
vertex 4.48196868985049 48.5 22.8
vertex 4.48196868985049 48.5 13.2
endloop
endfacet
endsolid model
