G75*
G70*
%OFA0B0*%
%FSLAX24Y24*%
%IPPOS*%
%LPD*%
%AMOC8*
5,1,8,0,0,1.08239X$1,22.5*
%
%ADD10C,0.0000*%
%ADD11C,0.0160*%
%ADD12C,0.0300*%
D10*
X000100Y000100D02*
X000100Y039470D01*
X032777Y039470D01*
X032777Y000100D01*
X000100Y000100D01*
X001005Y025494D02*
X001007Y025544D01*
X001013Y025594D01*
X001023Y025643D01*
X001037Y025691D01*
X001054Y025738D01*
X001075Y025783D01*
X001100Y025827D01*
X001128Y025868D01*
X001160Y025907D01*
X001194Y025944D01*
X001231Y025978D01*
X001271Y026008D01*
X001313Y026035D01*
X001357Y026059D01*
X001403Y026080D01*
X001450Y026096D01*
X001498Y026109D01*
X001548Y026118D01*
X001597Y026123D01*
X001648Y026124D01*
X001698Y026121D01*
X001747Y026114D01*
X001796Y026103D01*
X001844Y026088D01*
X001890Y026070D01*
X001935Y026048D01*
X001978Y026022D01*
X002019Y025993D01*
X002058Y025961D01*
X002094Y025926D01*
X002126Y025888D01*
X002156Y025848D01*
X002183Y025805D01*
X002206Y025761D01*
X002225Y025715D01*
X002241Y025667D01*
X002253Y025618D01*
X002261Y025569D01*
X002265Y025519D01*
X002265Y025469D01*
X002261Y025419D01*
X002253Y025370D01*
X002241Y025321D01*
X002225Y025273D01*
X002206Y025227D01*
X002183Y025183D01*
X002156Y025140D01*
X002126Y025100D01*
X002094Y025062D01*
X002058Y025027D01*
X002019Y024995D01*
X001978Y024966D01*
X001935Y024940D01*
X001890Y024918D01*
X001844Y024900D01*
X001796Y024885D01*
X001747Y024874D01*
X001698Y024867D01*
X001648Y024864D01*
X001597Y024865D01*
X001548Y024870D01*
X001498Y024879D01*
X001450Y024892D01*
X001403Y024908D01*
X001357Y024929D01*
X001313Y024953D01*
X001271Y024980D01*
X001231Y025010D01*
X001194Y025044D01*
X001160Y025081D01*
X001128Y025120D01*
X001100Y025161D01*
X001075Y025205D01*
X001054Y025250D01*
X001037Y025297D01*
X001023Y025345D01*
X001013Y025394D01*
X001007Y025444D01*
X001005Y025494D01*
X003368Y027895D02*
X029549Y027895D01*
X029549Y035336D01*
X003368Y035336D01*
X003368Y027895D01*
X001005Y037698D02*
X001007Y037748D01*
X001013Y037798D01*
X001023Y037847D01*
X001037Y037895D01*
X001054Y037942D01*
X001075Y037987D01*
X001100Y038031D01*
X001128Y038072D01*
X001160Y038111D01*
X001194Y038148D01*
X001231Y038182D01*
X001271Y038212D01*
X001313Y038239D01*
X001357Y038263D01*
X001403Y038284D01*
X001450Y038300D01*
X001498Y038313D01*
X001548Y038322D01*
X001597Y038327D01*
X001648Y038328D01*
X001698Y038325D01*
X001747Y038318D01*
X001796Y038307D01*
X001844Y038292D01*
X001890Y038274D01*
X001935Y038252D01*
X001978Y038226D01*
X002019Y038197D01*
X002058Y038165D01*
X002094Y038130D01*
X002126Y038092D01*
X002156Y038052D01*
X002183Y038009D01*
X002206Y037965D01*
X002225Y037919D01*
X002241Y037871D01*
X002253Y037822D01*
X002261Y037773D01*
X002265Y037723D01*
X002265Y037673D01*
X002261Y037623D01*
X002253Y037574D01*
X002241Y037525D01*
X002225Y037477D01*
X002206Y037431D01*
X002183Y037387D01*
X002156Y037344D01*
X002126Y037304D01*
X002094Y037266D01*
X002058Y037231D01*
X002019Y037199D01*
X001978Y037170D01*
X001935Y037144D01*
X001890Y037122D01*
X001844Y037104D01*
X001796Y037089D01*
X001747Y037078D01*
X001698Y037071D01*
X001648Y037068D01*
X001597Y037069D01*
X001548Y037074D01*
X001498Y037083D01*
X001450Y037096D01*
X001403Y037112D01*
X001357Y037133D01*
X001313Y037157D01*
X001271Y037184D01*
X001231Y037214D01*
X001194Y037248D01*
X001160Y037285D01*
X001128Y037324D01*
X001100Y037365D01*
X001075Y037409D01*
X001054Y037454D01*
X001037Y037501D01*
X001023Y037549D01*
X001013Y037598D01*
X001007Y037648D01*
X001005Y037698D01*
X030612Y037698D02*
X030614Y037748D01*
X030620Y037798D01*
X030630Y037847D01*
X030644Y037895D01*
X030661Y037942D01*
X030682Y037987D01*
X030707Y038031D01*
X030735Y038072D01*
X030767Y038111D01*
X030801Y038148D01*
X030838Y038182D01*
X030878Y038212D01*
X030920Y038239D01*
X030964Y038263D01*
X031010Y038284D01*
X031057Y038300D01*
X031105Y038313D01*
X031155Y038322D01*
X031204Y038327D01*
X031255Y038328D01*
X031305Y038325D01*
X031354Y038318D01*
X031403Y038307D01*
X031451Y038292D01*
X031497Y038274D01*
X031542Y038252D01*
X031585Y038226D01*
X031626Y038197D01*
X031665Y038165D01*
X031701Y038130D01*
X031733Y038092D01*
X031763Y038052D01*
X031790Y038009D01*
X031813Y037965D01*
X031832Y037919D01*
X031848Y037871D01*
X031860Y037822D01*
X031868Y037773D01*
X031872Y037723D01*
X031872Y037673D01*
X031868Y037623D01*
X031860Y037574D01*
X031848Y037525D01*
X031832Y037477D01*
X031813Y037431D01*
X031790Y037387D01*
X031763Y037344D01*
X031733Y037304D01*
X031701Y037266D01*
X031665Y037231D01*
X031626Y037199D01*
X031585Y037170D01*
X031542Y037144D01*
X031497Y037122D01*
X031451Y037104D01*
X031403Y037089D01*
X031354Y037078D01*
X031305Y037071D01*
X031255Y037068D01*
X031204Y037069D01*
X031155Y037074D01*
X031105Y037083D01*
X031057Y037096D01*
X031010Y037112D01*
X030964Y037133D01*
X030920Y037157D01*
X030878Y037184D01*
X030838Y037214D01*
X030801Y037248D01*
X030767Y037285D01*
X030735Y037324D01*
X030707Y037365D01*
X030682Y037409D01*
X030661Y037454D01*
X030644Y037501D01*
X030630Y037549D01*
X030620Y037598D01*
X030614Y037648D01*
X030612Y037698D01*
X030612Y025494D02*
X030614Y025544D01*
X030620Y025594D01*
X030630Y025643D01*
X030644Y025691D01*
X030661Y025738D01*
X030682Y025783D01*
X030707Y025827D01*
X030735Y025868D01*
X030767Y025907D01*
X030801Y025944D01*
X030838Y025978D01*
X030878Y026008D01*
X030920Y026035D01*
X030964Y026059D01*
X031010Y026080D01*
X031057Y026096D01*
X031105Y026109D01*
X031155Y026118D01*
X031204Y026123D01*
X031255Y026124D01*
X031305Y026121D01*
X031354Y026114D01*
X031403Y026103D01*
X031451Y026088D01*
X031497Y026070D01*
X031542Y026048D01*
X031585Y026022D01*
X031626Y025993D01*
X031665Y025961D01*
X031701Y025926D01*
X031733Y025888D01*
X031763Y025848D01*
X031790Y025805D01*
X031813Y025761D01*
X031832Y025715D01*
X031848Y025667D01*
X031860Y025618D01*
X031868Y025569D01*
X031872Y025519D01*
X031872Y025469D01*
X031868Y025419D01*
X031860Y025370D01*
X031848Y025321D01*
X031832Y025273D01*
X031813Y025227D01*
X031790Y025183D01*
X031763Y025140D01*
X031733Y025100D01*
X031701Y025062D01*
X031665Y025027D01*
X031626Y024995D01*
X031585Y024966D01*
X031542Y024940D01*
X031497Y024918D01*
X031451Y024900D01*
X031403Y024885D01*
X031354Y024874D01*
X031305Y024867D01*
X031255Y024864D01*
X031204Y024865D01*
X031155Y024870D01*
X031105Y024879D01*
X031057Y024892D01*
X031010Y024908D01*
X030964Y024929D01*
X030920Y024953D01*
X030878Y024980D01*
X030838Y025010D01*
X030801Y025044D01*
X030767Y025081D01*
X030735Y025120D01*
X030707Y025161D01*
X030682Y025205D01*
X030661Y025250D01*
X030644Y025297D01*
X030630Y025345D01*
X030620Y025394D01*
X030614Y025444D01*
X030612Y025494D01*
D11*
X032187Y024509D02*
X000691Y024509D01*
X000691Y038683D01*
X032187Y038683D01*
X032187Y024509D01*
D12*
X026461Y021754D02*
X026464Y021867D01*
X026472Y021979D01*
X026486Y022091D01*
X026505Y022203D01*
X026530Y022313D01*
X026560Y022422D01*
X026595Y022529D01*
X026636Y022634D01*
X026682Y022737D01*
X026733Y022838D01*
X026788Y022936D01*
X026849Y023032D01*
X026914Y023124D01*
X026983Y023213D01*
X027057Y023299D01*
X027135Y023380D01*
X027216Y023458D01*
X027302Y023532D01*
X027391Y023601D01*
X027483Y023666D01*
X027579Y023727D01*
X027677Y023782D01*
X027778Y023833D01*
X027881Y023879D01*
X027986Y023920D01*
X028093Y023955D01*
X028202Y023985D01*
X028312Y024010D01*
X028424Y024029D01*
X028536Y024043D01*
X028648Y024051D01*
X028761Y024054D01*
X028874Y024051D01*
X028986Y024043D01*
X029098Y024029D01*
X029210Y024010D01*
X029320Y023985D01*
X029429Y023955D01*
X029536Y023920D01*
X029641Y023879D01*
X029744Y023833D01*
X029845Y023782D01*
X029943Y023727D01*
X030039Y023666D01*
X030131Y023601D01*
X030220Y023532D01*
X030306Y023458D01*
X030387Y023380D01*
X030465Y023299D01*
X030539Y023213D01*
X030608Y023124D01*
X030673Y023032D01*
X030734Y022936D01*
X030789Y022838D01*
X030840Y022737D01*
X030886Y022634D01*
X030927Y022529D01*
X030962Y022422D01*
X030992Y022313D01*
X031017Y022203D01*
X031036Y022091D01*
X031050Y021979D01*
X031058Y021867D01*
X031061Y021754D01*
X031058Y021641D01*
X031050Y021529D01*
X031036Y021417D01*
X031017Y021305D01*
X030992Y021195D01*
X030962Y021086D01*
X030927Y020979D01*
X030886Y020874D01*
X030840Y020771D01*
X030789Y020670D01*
X030734Y020572D01*
X030673Y020476D01*
X030608Y020384D01*
X030539Y020295D01*
X030465Y020209D01*
X030387Y020128D01*
X030306Y020050D01*
X030220Y019976D01*
X030131Y019907D01*
X030039Y019842D01*
X029943Y019781D01*
X029845Y019726D01*
X029744Y019675D01*
X029641Y019629D01*
X029536Y019588D01*
X029429Y019553D01*
X029320Y019523D01*
X029210Y019498D01*
X029098Y019479D01*
X028986Y019465D01*
X028874Y019457D01*
X028761Y019454D01*
X028648Y019457D01*
X028536Y019465D01*
X028424Y019479D01*
X028312Y019498D01*
X028202Y019523D01*
X028093Y019553D01*
X027986Y019588D01*
X027881Y019629D01*
X027778Y019675D01*
X027677Y019726D01*
X027579Y019781D01*
X027483Y019842D01*
X027391Y019907D01*
X027302Y019976D01*
X027216Y020050D01*
X027135Y020128D01*
X027057Y020209D01*
X026983Y020295D01*
X026914Y020384D01*
X026849Y020476D01*
X026788Y020572D01*
X026733Y020670D01*
X026682Y020771D01*
X026636Y020874D01*
X026595Y020979D01*
X026560Y021086D01*
X026530Y021195D01*
X026505Y021305D01*
X026486Y021417D01*
X026472Y021529D01*
X026464Y021641D01*
X026461Y021754D01*
X020477Y021754D02*
X020480Y021867D01*
X020488Y021979D01*
X020502Y022091D01*
X020521Y022203D01*
X020546Y022313D01*
X020576Y022422D01*
X020611Y022529D01*
X020652Y022634D01*
X020698Y022737D01*
X020749Y022838D01*
X020804Y022936D01*
X020865Y023032D01*
X020930Y023124D01*
X020999Y023213D01*
X021073Y023299D01*
X021151Y023380D01*
X021232Y023458D01*
X021318Y023532D01*
X021407Y023601D01*
X021499Y023666D01*
X021595Y023727D01*
X021693Y023782D01*
X021794Y023833D01*
X021897Y023879D01*
X022002Y023920D01*
X022109Y023955D01*
X022218Y023985D01*
X022328Y024010D01*
X022440Y024029D01*
X022552Y024043D01*
X022664Y024051D01*
X022777Y024054D01*
X022890Y024051D01*
X023002Y024043D01*
X023114Y024029D01*
X023226Y024010D01*
X023336Y023985D01*
X023445Y023955D01*
X023552Y023920D01*
X023657Y023879D01*
X023760Y023833D01*
X023861Y023782D01*
X023959Y023727D01*
X024055Y023666D01*
X024147Y023601D01*
X024236Y023532D01*
X024322Y023458D01*
X024403Y023380D01*
X024481Y023299D01*
X024555Y023213D01*
X024624Y023124D01*
X024689Y023032D01*
X024750Y022936D01*
X024805Y022838D01*
X024856Y022737D01*
X024902Y022634D01*
X024943Y022529D01*
X024978Y022422D01*
X025008Y022313D01*
X025033Y022203D01*
X025052Y022091D01*
X025066Y021979D01*
X025074Y021867D01*
X025077Y021754D01*
X025074Y021641D01*
X025066Y021529D01*
X025052Y021417D01*
X025033Y021305D01*
X025008Y021195D01*
X024978Y021086D01*
X024943Y020979D01*
X024902Y020874D01*
X024856Y020771D01*
X024805Y020670D01*
X024750Y020572D01*
X024689Y020476D01*
X024624Y020384D01*
X024555Y020295D01*
X024481Y020209D01*
X024403Y020128D01*
X024322Y020050D01*
X024236Y019976D01*
X024147Y019907D01*
X024055Y019842D01*
X023959Y019781D01*
X023861Y019726D01*
X023760Y019675D01*
X023657Y019629D01*
X023552Y019588D01*
X023445Y019553D01*
X023336Y019523D01*
X023226Y019498D01*
X023114Y019479D01*
X023002Y019465D01*
X022890Y019457D01*
X022777Y019454D01*
X022664Y019457D01*
X022552Y019465D01*
X022440Y019479D01*
X022328Y019498D01*
X022218Y019523D01*
X022109Y019553D01*
X022002Y019588D01*
X021897Y019629D01*
X021794Y019675D01*
X021693Y019726D01*
X021595Y019781D01*
X021499Y019842D01*
X021407Y019907D01*
X021318Y019976D01*
X021232Y020050D01*
X021151Y020128D01*
X021073Y020209D01*
X020999Y020295D01*
X020930Y020384D01*
X020865Y020476D01*
X020804Y020572D01*
X020749Y020670D01*
X020698Y020771D01*
X020652Y020874D01*
X020611Y020979D01*
X020576Y021086D01*
X020546Y021195D01*
X020521Y021305D01*
X020502Y021417D01*
X020488Y021529D01*
X020480Y021641D01*
X020477Y021754D01*
X011973Y021754D02*
X011976Y021867D01*
X011984Y021979D01*
X011998Y022091D01*
X012017Y022203D01*
X012042Y022313D01*
X012072Y022422D01*
X012107Y022529D01*
X012148Y022634D01*
X012194Y022737D01*
X012245Y022838D01*
X012300Y022936D01*
X012361Y023032D01*
X012426Y023124D01*
X012495Y023213D01*
X012569Y023299D01*
X012647Y023380D01*
X012728Y023458D01*
X012814Y023532D01*
X012903Y023601D01*
X012995Y023666D01*
X013091Y023727D01*
X013189Y023782D01*
X013290Y023833D01*
X013393Y023879D01*
X013498Y023920D01*
X013605Y023955D01*
X013714Y023985D01*
X013824Y024010D01*
X013936Y024029D01*
X014048Y024043D01*
X014160Y024051D01*
X014273Y024054D01*
X014386Y024051D01*
X014498Y024043D01*
X014610Y024029D01*
X014722Y024010D01*
X014832Y023985D01*
X014941Y023955D01*
X015048Y023920D01*
X015153Y023879D01*
X015256Y023833D01*
X015357Y023782D01*
X015455Y023727D01*
X015551Y023666D01*
X015643Y023601D01*
X015732Y023532D01*
X015818Y023458D01*
X015899Y023380D01*
X015977Y023299D01*
X016051Y023213D01*
X016120Y023124D01*
X016185Y023032D01*
X016246Y022936D01*
X016301Y022838D01*
X016352Y022737D01*
X016398Y022634D01*
X016439Y022529D01*
X016474Y022422D01*
X016504Y022313D01*
X016529Y022203D01*
X016548Y022091D01*
X016562Y021979D01*
X016570Y021867D01*
X016573Y021754D01*
X016570Y021641D01*
X016562Y021529D01*
X016548Y021417D01*
X016529Y021305D01*
X016504Y021195D01*
X016474Y021086D01*
X016439Y020979D01*
X016398Y020874D01*
X016352Y020771D01*
X016301Y020670D01*
X016246Y020572D01*
X016185Y020476D01*
X016120Y020384D01*
X016051Y020295D01*
X015977Y020209D01*
X015899Y020128D01*
X015818Y020050D01*
X015732Y019976D01*
X015643Y019907D01*
X015551Y019842D01*
X015455Y019781D01*
X015357Y019726D01*
X015256Y019675D01*
X015153Y019629D01*
X015048Y019588D01*
X014941Y019553D01*
X014832Y019523D01*
X014722Y019498D01*
X014610Y019479D01*
X014498Y019465D01*
X014386Y019457D01*
X014273Y019454D01*
X014160Y019457D01*
X014048Y019465D01*
X013936Y019479D01*
X013824Y019498D01*
X013714Y019523D01*
X013605Y019553D01*
X013498Y019588D01*
X013393Y019629D01*
X013290Y019675D01*
X013189Y019726D01*
X013091Y019781D01*
X012995Y019842D01*
X012903Y019907D01*
X012814Y019976D01*
X012728Y020050D01*
X012647Y020128D01*
X012569Y020209D01*
X012495Y020295D01*
X012426Y020384D01*
X012361Y020476D01*
X012300Y020572D01*
X012245Y020670D01*
X012194Y020771D01*
X012148Y020874D01*
X012107Y020979D01*
X012072Y021086D01*
X012042Y021195D01*
X012017Y021305D01*
X011998Y021417D01*
X011984Y021529D01*
X011976Y021641D01*
X011973Y021754D01*
X007249Y024509D02*
X007252Y024622D01*
X007260Y024734D01*
X007274Y024846D01*
X007293Y024958D01*
X007318Y025068D01*
X007348Y025177D01*
X007383Y025284D01*
X007424Y025389D01*
X007470Y025492D01*
X007521Y025593D01*
X007576Y025691D01*
X007637Y025787D01*
X007702Y025879D01*
X007771Y025968D01*
X007845Y026054D01*
X007923Y026135D01*
X008004Y026213D01*
X008090Y026287D01*
X008179Y026356D01*
X008271Y026421D01*
X008367Y026482D01*
X008465Y026537D01*
X008566Y026588D01*
X008669Y026634D01*
X008774Y026675D01*
X008881Y026710D01*
X008990Y026740D01*
X009100Y026765D01*
X009212Y026784D01*
X009324Y026798D01*
X009436Y026806D01*
X009549Y026809D01*
X009662Y026806D01*
X009774Y026798D01*
X009886Y026784D01*
X009998Y026765D01*
X010108Y026740D01*
X010217Y026710D01*
X010324Y026675D01*
X010429Y026634D01*
X010532Y026588D01*
X010633Y026537D01*
X010731Y026482D01*
X010827Y026421D01*
X010919Y026356D01*
X011008Y026287D01*
X011094Y026213D01*
X011175Y026135D01*
X011253Y026054D01*
X011327Y025968D01*
X011396Y025879D01*
X011461Y025787D01*
X011522Y025691D01*
X011577Y025593D01*
X011628Y025492D01*
X011674Y025389D01*
X011715Y025284D01*
X011750Y025177D01*
X011780Y025068D01*
X011805Y024958D01*
X011824Y024846D01*
X011838Y024734D01*
X011846Y024622D01*
X011849Y024509D01*
X011846Y024396D01*
X011838Y024284D01*
X011824Y024172D01*
X011805Y024060D01*
X011780Y023950D01*
X011750Y023841D01*
X011715Y023734D01*
X011674Y023629D01*
X011628Y023526D01*
X011577Y023425D01*
X011522Y023327D01*
X011461Y023231D01*
X011396Y023139D01*
X011327Y023050D01*
X011253Y022964D01*
X011175Y022883D01*
X011094Y022805D01*
X011008Y022731D01*
X010919Y022662D01*
X010827Y022597D01*
X010731Y022536D01*
X010633Y022481D01*
X010532Y022430D01*
X010429Y022384D01*
X010324Y022343D01*
X010217Y022308D01*
X010108Y022278D01*
X009998Y022253D01*
X009886Y022234D01*
X009774Y022220D01*
X009662Y022212D01*
X009549Y022209D01*
X009436Y022212D01*
X009324Y022220D01*
X009212Y022234D01*
X009100Y022253D01*
X008990Y022278D01*
X008881Y022308D01*
X008774Y022343D01*
X008669Y022384D01*
X008566Y022430D01*
X008465Y022481D01*
X008367Y022536D01*
X008271Y022597D01*
X008179Y022662D01*
X008090Y022731D01*
X008004Y022805D01*
X007923Y022883D01*
X007845Y022964D01*
X007771Y023050D01*
X007702Y023139D01*
X007637Y023231D01*
X007576Y023327D01*
X007521Y023425D01*
X007470Y023526D01*
X007424Y023629D01*
X007383Y023734D01*
X007348Y023841D01*
X007318Y023950D01*
X007293Y024060D01*
X007274Y024172D01*
X007260Y024284D01*
X007252Y024396D01*
X007249Y024509D01*
X002524Y021754D02*
X002527Y021867D01*
X002535Y021979D01*
X002549Y022091D01*
X002568Y022203D01*
X002593Y022313D01*
X002623Y022422D01*
X002658Y022529D01*
X002699Y022634D01*
X002745Y022737D01*
X002796Y022838D01*
X002851Y022936D01*
X002912Y023032D01*
X002977Y023124D01*
X003046Y023213D01*
X003120Y023299D01*
X003198Y023380D01*
X003279Y023458D01*
X003365Y023532D01*
X003454Y023601D01*
X003546Y023666D01*
X003642Y023727D01*
X003740Y023782D01*
X003841Y023833D01*
X003944Y023879D01*
X004049Y023920D01*
X004156Y023955D01*
X004265Y023985D01*
X004375Y024010D01*
X004487Y024029D01*
X004599Y024043D01*
X004711Y024051D01*
X004824Y024054D01*
X004937Y024051D01*
X005049Y024043D01*
X005161Y024029D01*
X005273Y024010D01*
X005383Y023985D01*
X005492Y023955D01*
X005599Y023920D01*
X005704Y023879D01*
X005807Y023833D01*
X005908Y023782D01*
X006006Y023727D01*
X006102Y023666D01*
X006194Y023601D01*
X006283Y023532D01*
X006369Y023458D01*
X006450Y023380D01*
X006528Y023299D01*
X006602Y023213D01*
X006671Y023124D01*
X006736Y023032D01*
X006797Y022936D01*
X006852Y022838D01*
X006903Y022737D01*
X006949Y022634D01*
X006990Y022529D01*
X007025Y022422D01*
X007055Y022313D01*
X007080Y022203D01*
X007099Y022091D01*
X007113Y021979D01*
X007121Y021867D01*
X007124Y021754D01*
X007121Y021641D01*
X007113Y021529D01*
X007099Y021417D01*
X007080Y021305D01*
X007055Y021195D01*
X007025Y021086D01*
X006990Y020979D01*
X006949Y020874D01*
X006903Y020771D01*
X006852Y020670D01*
X006797Y020572D01*
X006736Y020476D01*
X006671Y020384D01*
X006602Y020295D01*
X006528Y020209D01*
X006450Y020128D01*
X006369Y020050D01*
X006283Y019976D01*
X006194Y019907D01*
X006102Y019842D01*
X006006Y019781D01*
X005908Y019726D01*
X005807Y019675D01*
X005704Y019629D01*
X005599Y019588D01*
X005492Y019553D01*
X005383Y019523D01*
X005273Y019498D01*
X005161Y019479D01*
X005049Y019465D01*
X004937Y019457D01*
X004824Y019454D01*
X004711Y019457D01*
X004599Y019465D01*
X004487Y019479D01*
X004375Y019498D01*
X004265Y019523D01*
X004156Y019553D01*
X004049Y019588D01*
X003944Y019629D01*
X003841Y019675D01*
X003740Y019726D01*
X003642Y019781D01*
X003546Y019842D01*
X003454Y019907D01*
X003365Y019976D01*
X003279Y020050D01*
X003198Y020128D01*
X003120Y020209D01*
X003046Y020295D01*
X002977Y020384D01*
X002912Y020476D01*
X002851Y020572D01*
X002796Y020670D01*
X002745Y020771D01*
X002699Y020874D01*
X002658Y020979D01*
X002623Y021086D01*
X002593Y021195D01*
X002568Y021305D01*
X002549Y021417D01*
X002535Y021529D01*
X002527Y021641D01*
X002524Y021754D01*
X007249Y018998D02*
X007252Y019111D01*
X007260Y019223D01*
X007274Y019335D01*
X007293Y019447D01*
X007318Y019557D01*
X007348Y019666D01*
X007383Y019773D01*
X007424Y019878D01*
X007470Y019981D01*
X007521Y020082D01*
X007576Y020180D01*
X007637Y020276D01*
X007702Y020368D01*
X007771Y020457D01*
X007845Y020543D01*
X007923Y020624D01*
X008004Y020702D01*
X008090Y020776D01*
X008179Y020845D01*
X008271Y020910D01*
X008367Y020971D01*
X008465Y021026D01*
X008566Y021077D01*
X008669Y021123D01*
X008774Y021164D01*
X008881Y021199D01*
X008990Y021229D01*
X009100Y021254D01*
X009212Y021273D01*
X009324Y021287D01*
X009436Y021295D01*
X009549Y021298D01*
X009662Y021295D01*
X009774Y021287D01*
X009886Y021273D01*
X009998Y021254D01*
X010108Y021229D01*
X010217Y021199D01*
X010324Y021164D01*
X010429Y021123D01*
X010532Y021077D01*
X010633Y021026D01*
X010731Y020971D01*
X010827Y020910D01*
X010919Y020845D01*
X011008Y020776D01*
X011094Y020702D01*
X011175Y020624D01*
X011253Y020543D01*
X011327Y020457D01*
X011396Y020368D01*
X011461Y020276D01*
X011522Y020180D01*
X011577Y020082D01*
X011628Y019981D01*
X011674Y019878D01*
X011715Y019773D01*
X011750Y019666D01*
X011780Y019557D01*
X011805Y019447D01*
X011824Y019335D01*
X011838Y019223D01*
X011846Y019111D01*
X011849Y018998D01*
X011846Y018885D01*
X011838Y018773D01*
X011824Y018661D01*
X011805Y018549D01*
X011780Y018439D01*
X011750Y018330D01*
X011715Y018223D01*
X011674Y018118D01*
X011628Y018015D01*
X011577Y017914D01*
X011522Y017816D01*
X011461Y017720D01*
X011396Y017628D01*
X011327Y017539D01*
X011253Y017453D01*
X011175Y017372D01*
X011094Y017294D01*
X011008Y017220D01*
X010919Y017151D01*
X010827Y017086D01*
X010731Y017025D01*
X010633Y016970D01*
X010532Y016919D01*
X010429Y016873D01*
X010324Y016832D01*
X010217Y016797D01*
X010108Y016767D01*
X009998Y016742D01*
X009886Y016723D01*
X009774Y016709D01*
X009662Y016701D01*
X009549Y016698D01*
X009436Y016701D01*
X009324Y016709D01*
X009212Y016723D01*
X009100Y016742D01*
X008990Y016767D01*
X008881Y016797D01*
X008774Y016832D01*
X008669Y016873D01*
X008566Y016919D01*
X008465Y016970D01*
X008367Y017025D01*
X008271Y017086D01*
X008179Y017151D01*
X008090Y017220D01*
X008004Y017294D01*
X007923Y017372D01*
X007845Y017453D01*
X007771Y017539D01*
X007702Y017628D01*
X007637Y017720D01*
X007576Y017816D01*
X007521Y017914D01*
X007470Y018015D01*
X007424Y018118D01*
X007383Y018223D01*
X007348Y018330D01*
X007318Y018439D01*
X007293Y018549D01*
X007274Y018661D01*
X007260Y018773D01*
X007252Y018885D01*
X007249Y018998D01*
M02*
